%TF.GenerationSoftware,KiCad,Pcbnew,8.0.5*%
%TF.CreationDate,2024-10-21T18:28:28+08:00*%
%TF.ProjectId,redraw_TH,72656472-6177-45f5-9448-2e6b69636164,rev?*%
%TF.SameCoordinates,Original*%
%TF.FileFunction,Soldermask,Top*%
%TF.FilePolarity,Negative*%
%FSLAX46Y46*%
G04 Gerber Fmt 4.6, Leading zero omitted, Abs format (unit mm)*
G04 Created by KiCad (PCBNEW 8.0.5) date 2024-10-21 18:28:28*
%MOMM*%
%LPD*%
G01*
G04 APERTURE LIST*
G04 Aperture macros list*
%AMRoundRect*
0 Rectangle with rounded corners*
0 $1 Rounding radius*
0 $2 $3 $4 $5 $6 $7 $8 $9 X,Y pos of 4 corners*
0 Add a 4 corners polygon primitive as box body*
4,1,4,$2,$3,$4,$5,$6,$7,$8,$9,$2,$3,0*
0 Add four circle primitives for the rounded corners*
1,1,$1+$1,$2,$3*
1,1,$1+$1,$4,$5*
1,1,$1+$1,$6,$7*
1,1,$1+$1,$8,$9*
0 Add four rect primitives between the rounded corners*
20,1,$1+$1,$2,$3,$4,$5,0*
20,1,$1+$1,$4,$5,$6,$7,0*
20,1,$1+$1,$6,$7,$8,$9,0*
20,1,$1+$1,$8,$9,$2,$3,0*%
G04 Aperture macros list end*
%ADD10C,1.000000*%
%ADD11R,1.000000X1.000000*%
%ADD12R,6.000000X2.500000*%
%ADD13C,1.500000*%
%ADD14C,2.500000*%
%ADD15RoundRect,0.175000X-0.425000X0.175000X-0.425000X-0.175000X0.425000X-0.175000X0.425000X0.175000X0*%
%ADD16RoundRect,0.190000X0.410000X-0.190000X0.410000X0.190000X-0.410000X0.190000X-0.410000X-0.190000X0*%
%ADD17RoundRect,0.200000X0.400000X-0.200000X0.400000X0.200000X-0.400000X0.200000X-0.400000X-0.200000X0*%
%ADD18RoundRect,0.175000X0.425000X-0.175000X0.425000X0.175000X-0.425000X0.175000X-0.425000X-0.175000X0*%
%ADD19RoundRect,0.190000X-0.410000X0.190000X-0.410000X-0.190000X0.410000X-0.190000X0.410000X0.190000X0*%
%ADD20RoundRect,0.200000X-0.400000X0.200000X-0.400000X-0.200000X0.400000X-0.200000X0.400000X0.200000X0*%
%ADD21O,1.700000X1.100000*%
%ADD22C,2.000000*%
%ADD23C,1.600000*%
%ADD24O,1.600000X1.600000*%
%ADD25R,1.400000X1.800000*%
%ADD26O,1.400000X1.800000*%
%ADD27R,1.700000X1.700000*%
%ADD28O,1.700000X1.700000*%
G04 APERTURE END LIST*
D10*
%TO.C,X2*%
X117505000Y-93760000D03*
X117505000Y-91860000D03*
D11*
X123005000Y-94310000D03*
D12*
X123005000Y-92810000D03*
D11*
X123005000Y-91310000D03*
%TD*%
D13*
%TO.C,X1*%
X117505000Y-101720000D03*
D14*
X117505000Y-104160000D03*
D13*
X117505000Y-106600000D03*
%TD*%
D15*
%TO.C,USB1*%
X68891500Y-98390000D03*
D16*
X68891500Y-100410000D03*
D17*
X68891500Y-101640000D03*
D18*
X68891500Y-99390000D03*
D19*
X68891500Y-97370000D03*
D20*
X68891500Y-96140000D03*
D21*
X68811500Y-94570000D03*
X65011500Y-94570000D03*
X68811500Y-103210000D03*
X65011500Y-103210000D03*
%TD*%
D22*
%TO.C,SW1*%
X132660000Y-97551625D03*
X132660000Y-91051625D03*
X137160000Y-97551625D03*
X137160000Y-91051625D03*
%TD*%
D23*
%TO.C,R6*%
X68085000Y-106190000D03*
D24*
X65545000Y-106190000D03*
%TD*%
D23*
%TO.C,R5*%
X68085000Y-109965000D03*
D24*
X65545000Y-109965000D03*
%TD*%
D23*
%TO.C,R4*%
X68085000Y-113740000D03*
D24*
X65545000Y-113740000D03*
%TD*%
D23*
%TO.C,R3*%
X134445000Y-116160000D03*
D24*
X136985000Y-116160000D03*
%TD*%
D23*
%TO.C,R2*%
X75065000Y-113740000D03*
D24*
X72525000Y-113740000D03*
%TD*%
D23*
%TO.C,R1*%
X136535000Y-86380000D03*
D24*
X133995000Y-86380000D03*
%TD*%
D25*
%TO.C,LED2*%
X133319000Y-109086375D03*
D26*
X135859000Y-109086375D03*
%TD*%
D25*
%TO.C,LED1*%
X75650000Y-107900000D03*
D26*
X73110000Y-107900000D03*
%TD*%
D27*
%TO.C,H5*%
X122940000Y-114670000D03*
D28*
X125480000Y-114670000D03*
%TD*%
D27*
%TO.C,H4*%
X67310000Y-85090000D03*
D28*
X69850000Y-85090000D03*
X72390000Y-85090000D03*
X74930000Y-85090000D03*
%TD*%
D27*
%TO.C,H3*%
X125730000Y-85090000D03*
D28*
X123190000Y-85090000D03*
X120650000Y-85090000D03*
X118110000Y-85090000D03*
X115570000Y-85090000D03*
X113030000Y-85090000D03*
X110490000Y-85090000D03*
X107950000Y-85090000D03*
X105410000Y-85090000D03*
X102870000Y-85090000D03*
X100330000Y-85090000D03*
X97790000Y-85090000D03*
X95250000Y-85090000D03*
X92710000Y-85090000D03*
X90170000Y-85090000D03*
X87630000Y-85090000D03*
X85090000Y-85090000D03*
X82550000Y-85090000D03*
X80010000Y-85090000D03*
X77470000Y-85090000D03*
%TD*%
D27*
%TO.C,H2*%
X77470000Y-118110000D03*
D28*
X80010000Y-118110000D03*
X82550000Y-118110000D03*
X85090000Y-118110000D03*
X87630000Y-118110000D03*
X90170000Y-118110000D03*
X92710000Y-118110000D03*
X95250000Y-118110000D03*
X97790000Y-118110000D03*
X100330000Y-118110000D03*
X102870000Y-118110000D03*
X105410000Y-118110000D03*
X107950000Y-118110000D03*
X110490000Y-118110000D03*
X113030000Y-118110000D03*
X115570000Y-118110000D03*
X118110000Y-118110000D03*
X120650000Y-118110000D03*
X123190000Y-118110000D03*
X125730000Y-118110000D03*
%TD*%
D27*
%TO.C,H1*%
X74930000Y-118110000D03*
D28*
X72390000Y-118110000D03*
X69850000Y-118110000D03*
%TD*%
D23*
%TO.C,C15*%
X125480000Y-95650000D03*
X120480000Y-95650000D03*
%TD*%
%TO.C,C14*%
X125480000Y-89970000D03*
X120480000Y-89970000D03*
%TD*%
%TO.C,C13*%
X127980000Y-107010000D03*
X122980000Y-107010000D03*
%TD*%
%TO.C,C12*%
X122980000Y-101330000D03*
X127980000Y-101330000D03*
%TD*%
%TO.C,C11*%
X107410000Y-108550000D03*
X107410000Y-103550000D03*
%TD*%
%TO.C,C10*%
X68060000Y-90030000D03*
X73060000Y-90030000D03*
%TD*%
%TO.C,C8*%
X112230000Y-96580000D03*
X107230000Y-96580000D03*
%TD*%
%TO.C,C7*%
X112230000Y-90725000D03*
X107230000Y-90725000D03*
%TD*%
%TO.C,C6*%
X93480000Y-109300000D03*
X93480000Y-104300000D03*
%TD*%
%TO.C,C5*%
X135960000Y-102000000D03*
X133460000Y-102000000D03*
%TD*%
%TO.C,C4*%
X81810000Y-112000000D03*
X86810000Y-112000000D03*
%TD*%
%TO.C,C3*%
X81840000Y-107000000D03*
X86840000Y-107000000D03*
%TD*%
%TO.C,C2*%
X78377500Y-101010000D03*
X78377500Y-96010000D03*
%TD*%
%TO.C,C1*%
X73377500Y-101030000D03*
X73377500Y-96030000D03*
%TD*%
M02*
