%TF.GenerationSoftware,KiCad,Pcbnew,8.0.5*%
%TF.CreationDate,2024-10-21T18:28:28+08:00*%
%TF.ProjectId,redraw_TH,72656472-6177-45f5-9448-2e6b69636164,rev?*%
%TF.SameCoordinates,Original*%
%TF.FileFunction,Paste,Bot*%
%TF.FilePolarity,Positive*%
%FSLAX46Y46*%
G04 Gerber Fmt 4.6, Leading zero omitted, Abs format (unit mm)*
G04 Created by KiCad (PCBNEW 8.0.5) date 2024-10-21 18:28:28*
%MOMM*%
%LPD*%
G01*
G04 APERTURE LIST*
G04 Aperture macros list*
%AMRoundRect*
0 Rectangle with rounded corners*
0 $1 Rounding radius*
0 $2 $3 $4 $5 $6 $7 $8 $9 X,Y pos of 4 corners*
0 Add a 4 corners polygon primitive as box body*
4,1,4,$2,$3,$4,$5,$6,$7,$8,$9,$2,$3,0*
0 Add four circle primitives for the rounded corners*
1,1,$1+$1,$2,$3*
1,1,$1+$1,$4,$5*
1,1,$1+$1,$6,$7*
1,1,$1+$1,$8,$9*
0 Add four rect primitives between the rounded corners*
20,1,$1+$1,$2,$3,$4,$5,0*
20,1,$1+$1,$4,$5,$6,$7,0*
20,1,$1+$1,$6,$7,$8,$9,0*
20,1,$1+$1,$8,$9,$2,$3,0*%
G04 Aperture macros list end*
%ADD10RoundRect,0.075000X0.662500X0.075000X-0.662500X0.075000X-0.662500X-0.075000X0.662500X-0.075000X0*%
%ADD11RoundRect,0.075000X0.075000X0.662500X-0.075000X0.662500X-0.075000X-0.662500X0.075000X-0.662500X0*%
%ADD12RoundRect,0.250000X-0.750000X-0.500000X0.750000X-0.500000X0.750000X0.500000X-0.750000X0.500000X0*%
%ADD13RoundRect,0.250000X-0.750000X-1.650000X0.750000X-1.650000X0.750000X1.650000X-0.750000X1.650000X0*%
%ADD14RoundRect,0.225000X-0.225000X-0.250000X0.225000X-0.250000X0.225000X0.250000X-0.225000X0.250000X0*%
%ADD15RoundRect,0.225000X-0.250000X0.225000X-0.250000X-0.225000X0.250000X-0.225000X0.250000X0.225000X0*%
%ADD16RoundRect,0.225000X0.250000X-0.225000X0.250000X0.225000X-0.250000X0.225000X-0.250000X-0.225000X0*%
G04 APERTURE END LIST*
D10*
%TO.C,U1*%
X104162500Y-97250000D03*
X104162500Y-97750000D03*
X104162500Y-98250000D03*
X104162500Y-98750000D03*
X104162500Y-99250000D03*
X104162500Y-99750000D03*
X104162500Y-100250000D03*
X104162500Y-100750000D03*
X104162500Y-101250000D03*
X104162500Y-101750000D03*
X104162500Y-102250000D03*
X104162500Y-102750000D03*
D11*
X102750000Y-104162500D03*
X102250000Y-104162500D03*
X101750000Y-104162500D03*
X101250000Y-104162500D03*
X100750000Y-104162500D03*
X100250000Y-104162500D03*
X99750000Y-104162500D03*
X99250000Y-104162500D03*
X98750000Y-104162500D03*
X98250000Y-104162500D03*
X97750000Y-104162500D03*
X97250000Y-104162500D03*
D10*
X95837500Y-102750000D03*
X95837500Y-102250000D03*
X95837500Y-101750000D03*
X95837500Y-101250000D03*
X95837500Y-100750000D03*
X95837500Y-100250000D03*
X95837500Y-99750000D03*
X95837500Y-99250000D03*
X95837500Y-98750000D03*
X95837500Y-98250000D03*
X95837500Y-97750000D03*
X95837500Y-97250000D03*
D11*
X97250000Y-95837500D03*
X97750000Y-95837500D03*
X98250000Y-95837500D03*
X98750000Y-95837500D03*
X99250000Y-95837500D03*
X99750000Y-95837500D03*
X100250000Y-95837500D03*
X100750000Y-95837500D03*
X101250000Y-95837500D03*
X101750000Y-95837500D03*
X102250000Y-95837500D03*
X102750000Y-95837500D03*
%TD*%
D12*
%TO.C,Q1*%
X82105500Y-102230250D03*
D13*
X88405500Y-99930250D03*
D12*
X82105500Y-99930250D03*
X82105500Y-97630250D03*
%TD*%
D14*
%TO.C,C22*%
X106385000Y-101540000D03*
X107935000Y-101540000D03*
%TD*%
D15*
%TO.C,C21*%
X95810000Y-104215000D03*
X95810000Y-105765000D03*
%TD*%
D16*
%TO.C,C20*%
X105710000Y-94875000D03*
X105710000Y-93325000D03*
%TD*%
%TO.C,C19*%
X103950000Y-94865000D03*
X103950000Y-93315000D03*
%TD*%
D15*
%TO.C,C18*%
X115160000Y-93462750D03*
X115160000Y-95012750D03*
%TD*%
D16*
%TO.C,C17*%
X115154500Y-92157250D03*
X115154500Y-90607250D03*
%TD*%
D15*
%TO.C,C16*%
X114500000Y-104822750D03*
X114500000Y-106372750D03*
%TD*%
D16*
%TO.C,C9*%
X114494500Y-103517250D03*
X114494500Y-101967250D03*
%TD*%
M02*
