%TF.GenerationSoftware,KiCad,Pcbnew,8.0.5*%
%TF.CreationDate,2024-10-21T18:28:28+08:00*%
%TF.ProjectId,redraw_TH,72656472-6177-45f5-9448-2e6b69636164,rev?*%
%TF.SameCoordinates,Original*%
%TF.FileFunction,Soldermask,Bot*%
%TF.FilePolarity,Negative*%
%FSLAX46Y46*%
G04 Gerber Fmt 4.6, Leading zero omitted, Abs format (unit mm)*
G04 Created by KiCad (PCBNEW 8.0.5) date 2024-10-21 18:28:28*
%MOMM*%
%LPD*%
G01*
G04 APERTURE LIST*
G04 Aperture macros list*
%AMRoundRect*
0 Rectangle with rounded corners*
0 $1 Rounding radius*
0 $2 $3 $4 $5 $6 $7 $8 $9 X,Y pos of 4 corners*
0 Add a 4 corners polygon primitive as box body*
4,1,4,$2,$3,$4,$5,$6,$7,$8,$9,$2,$3,0*
0 Add four circle primitives for the rounded corners*
1,1,$1+$1,$2,$3*
1,1,$1+$1,$4,$5*
1,1,$1+$1,$6,$7*
1,1,$1+$1,$8,$9*
0 Add four rect primitives between the rounded corners*
20,1,$1+$1,$2,$3,$4,$5,0*
20,1,$1+$1,$4,$5,$6,$7,0*
20,1,$1+$1,$6,$7,$8,$9,0*
20,1,$1+$1,$8,$9,$2,$3,0*%
G04 Aperture macros list end*
%ADD10C,1.000000*%
%ADD11R,1.000000X1.000000*%
%ADD12C,1.500000*%
%ADD13C,2.500000*%
%ADD14O,1.700000X1.100000*%
%ADD15RoundRect,0.075000X0.662500X0.075000X-0.662500X0.075000X-0.662500X-0.075000X0.662500X-0.075000X0*%
%ADD16RoundRect,0.075000X0.075000X0.662500X-0.075000X0.662500X-0.075000X-0.662500X0.075000X-0.662500X0*%
%ADD17C,2.000000*%
%ADD18C,1.600000*%
%ADD19O,1.600000X1.600000*%
%ADD20RoundRect,0.250000X-0.750000X-0.500000X0.750000X-0.500000X0.750000X0.500000X-0.750000X0.500000X0*%
%ADD21RoundRect,0.250000X-0.750000X-1.650000X0.750000X-1.650000X0.750000X1.650000X-0.750000X1.650000X0*%
%ADD22R,1.400000X1.800000*%
%ADD23O,1.400000X1.800000*%
%ADD24R,1.700000X1.700000*%
%ADD25O,1.700000X1.700000*%
%ADD26RoundRect,0.225000X-0.225000X-0.250000X0.225000X-0.250000X0.225000X0.250000X-0.225000X0.250000X0*%
%ADD27RoundRect,0.225000X-0.250000X0.225000X-0.250000X-0.225000X0.250000X-0.225000X0.250000X0.225000X0*%
%ADD28RoundRect,0.225000X0.250000X-0.225000X0.250000X0.225000X-0.250000X0.225000X-0.250000X-0.225000X0*%
G04 APERTURE END LIST*
D10*
%TO.C,X2*%
X117505000Y-93760000D03*
X117505000Y-91860000D03*
D11*
X123005000Y-94310000D03*
X123005000Y-91310000D03*
%TD*%
D12*
%TO.C,X1*%
X117505000Y-101720000D03*
D13*
X117505000Y-104160000D03*
D12*
X117505000Y-106600000D03*
%TD*%
D14*
%TO.C,USB1*%
X68811500Y-94570000D03*
X65011500Y-94570000D03*
X68811500Y-103210000D03*
X65011500Y-103210000D03*
%TD*%
D15*
%TO.C,U1*%
X104162500Y-97250000D03*
X104162500Y-97750000D03*
X104162500Y-98250000D03*
X104162500Y-98750000D03*
X104162500Y-99250000D03*
X104162500Y-99750000D03*
X104162500Y-100250000D03*
X104162500Y-100750000D03*
X104162500Y-101250000D03*
X104162500Y-101750000D03*
X104162500Y-102250000D03*
X104162500Y-102750000D03*
D16*
X102750000Y-104162500D03*
X102250000Y-104162500D03*
X101750000Y-104162500D03*
X101250000Y-104162500D03*
X100750000Y-104162500D03*
X100250000Y-104162500D03*
X99750000Y-104162500D03*
X99250000Y-104162500D03*
X98750000Y-104162500D03*
X98250000Y-104162500D03*
X97750000Y-104162500D03*
X97250000Y-104162500D03*
D15*
X95837500Y-102750000D03*
X95837500Y-102250000D03*
X95837500Y-101750000D03*
X95837500Y-101250000D03*
X95837500Y-100750000D03*
X95837500Y-100250000D03*
X95837500Y-99750000D03*
X95837500Y-99250000D03*
X95837500Y-98750000D03*
X95837500Y-98250000D03*
X95837500Y-97750000D03*
X95837500Y-97250000D03*
D16*
X97250000Y-95837500D03*
X97750000Y-95837500D03*
X98250000Y-95837500D03*
X98750000Y-95837500D03*
X99250000Y-95837500D03*
X99750000Y-95837500D03*
X100250000Y-95837500D03*
X100750000Y-95837500D03*
X101250000Y-95837500D03*
X101750000Y-95837500D03*
X102250000Y-95837500D03*
X102750000Y-95837500D03*
%TD*%
D17*
%TO.C,SW1*%
X132660000Y-97551625D03*
X132660000Y-91051625D03*
X137160000Y-97551625D03*
X137160000Y-91051625D03*
%TD*%
D18*
%TO.C,R6*%
X68085000Y-106190000D03*
D19*
X65545000Y-106190000D03*
%TD*%
D18*
%TO.C,R5*%
X68085000Y-109965000D03*
D19*
X65545000Y-109965000D03*
%TD*%
D18*
%TO.C,R4*%
X68085000Y-113740000D03*
D19*
X65545000Y-113740000D03*
%TD*%
D18*
%TO.C,R3*%
X134445000Y-116160000D03*
D19*
X136985000Y-116160000D03*
%TD*%
D18*
%TO.C,R2*%
X75065000Y-113740000D03*
D19*
X72525000Y-113740000D03*
%TD*%
D18*
%TO.C,R1*%
X136535000Y-86380000D03*
D19*
X133995000Y-86380000D03*
%TD*%
D20*
%TO.C,Q1*%
X82105500Y-102230250D03*
D21*
X88405500Y-99930250D03*
D20*
X82105500Y-99930250D03*
X82105500Y-97630250D03*
%TD*%
D22*
%TO.C,LED2*%
X133319000Y-109086375D03*
D23*
X135859000Y-109086375D03*
%TD*%
D22*
%TO.C,LED1*%
X75650000Y-107900000D03*
D23*
X73110000Y-107900000D03*
%TD*%
D24*
%TO.C,H5*%
X122940000Y-114670000D03*
D25*
X125480000Y-114670000D03*
%TD*%
D24*
%TO.C,H4*%
X67310000Y-85090000D03*
D25*
X69850000Y-85090000D03*
X72390000Y-85090000D03*
X74930000Y-85090000D03*
%TD*%
D24*
%TO.C,H3*%
X125730000Y-85090000D03*
D25*
X123190000Y-85090000D03*
X120650000Y-85090000D03*
X118110000Y-85090000D03*
X115570000Y-85090000D03*
X113030000Y-85090000D03*
X110490000Y-85090000D03*
X107950000Y-85090000D03*
X105410000Y-85090000D03*
X102870000Y-85090000D03*
X100330000Y-85090000D03*
X97790000Y-85090000D03*
X95250000Y-85090000D03*
X92710000Y-85090000D03*
X90170000Y-85090000D03*
X87630000Y-85090000D03*
X85090000Y-85090000D03*
X82550000Y-85090000D03*
X80010000Y-85090000D03*
X77470000Y-85090000D03*
%TD*%
D24*
%TO.C,H2*%
X77470000Y-118110000D03*
D25*
X80010000Y-118110000D03*
X82550000Y-118110000D03*
X85090000Y-118110000D03*
X87630000Y-118110000D03*
X90170000Y-118110000D03*
X92710000Y-118110000D03*
X95250000Y-118110000D03*
X97790000Y-118110000D03*
X100330000Y-118110000D03*
X102870000Y-118110000D03*
X105410000Y-118110000D03*
X107950000Y-118110000D03*
X110490000Y-118110000D03*
X113030000Y-118110000D03*
X115570000Y-118110000D03*
X118110000Y-118110000D03*
X120650000Y-118110000D03*
X123190000Y-118110000D03*
X125730000Y-118110000D03*
%TD*%
D24*
%TO.C,H1*%
X74930000Y-118110000D03*
D25*
X72390000Y-118110000D03*
X69850000Y-118110000D03*
%TD*%
D26*
%TO.C,C22*%
X106385000Y-101540000D03*
X107935000Y-101540000D03*
%TD*%
D27*
%TO.C,C21*%
X95810000Y-104215000D03*
X95810000Y-105765000D03*
%TD*%
D28*
%TO.C,C20*%
X105710000Y-94875000D03*
X105710000Y-93325000D03*
%TD*%
%TO.C,C19*%
X103950000Y-94865000D03*
X103950000Y-93315000D03*
%TD*%
D27*
%TO.C,C18*%
X115160000Y-93462750D03*
X115160000Y-95012750D03*
%TD*%
D28*
%TO.C,C17*%
X115154500Y-92157250D03*
X115154500Y-90607250D03*
%TD*%
D27*
%TO.C,C16*%
X114500000Y-104822750D03*
X114500000Y-106372750D03*
%TD*%
D18*
%TO.C,C15*%
X125480000Y-95650000D03*
X120480000Y-95650000D03*
%TD*%
%TO.C,C14*%
X125480000Y-89970000D03*
X120480000Y-89970000D03*
%TD*%
%TO.C,C13*%
X127980000Y-107010000D03*
X122980000Y-107010000D03*
%TD*%
%TO.C,C12*%
X122980000Y-101330000D03*
X127980000Y-101330000D03*
%TD*%
%TO.C,C11*%
X107410000Y-108550000D03*
X107410000Y-103550000D03*
%TD*%
%TO.C,C10*%
X68060000Y-90030000D03*
X73060000Y-90030000D03*
%TD*%
D28*
%TO.C,C9*%
X114494500Y-103517250D03*
X114494500Y-101967250D03*
%TD*%
D18*
%TO.C,C8*%
X112230000Y-96580000D03*
X107230000Y-96580000D03*
%TD*%
%TO.C,C7*%
X112230000Y-90725000D03*
X107230000Y-90725000D03*
%TD*%
%TO.C,C6*%
X93480000Y-109300000D03*
X93480000Y-104300000D03*
%TD*%
%TO.C,C5*%
X135960000Y-102000000D03*
X133460000Y-102000000D03*
%TD*%
%TO.C,C4*%
X81810000Y-112000000D03*
X86810000Y-112000000D03*
%TD*%
%TO.C,C3*%
X81840000Y-107000000D03*
X86840000Y-107000000D03*
%TD*%
%TO.C,C2*%
X78377500Y-101010000D03*
X78377500Y-96010000D03*
%TD*%
%TO.C,C1*%
X73377500Y-101030000D03*
X73377500Y-96030000D03*
%TD*%
M02*
