%TF.GenerationSoftware,KiCad,Pcbnew,9.0.0*%
%TF.CreationDate,2025-03-31T22:32:49+08:00*%
%TF.ProjectId,stlink_ex,73746c69-6e6b-45f6-9578-2e6b69636164,rev?*%
%TF.SameCoordinates,Original*%
%TF.FileFunction,Legend,Top*%
%TF.FilePolarity,Positive*%
%FSLAX46Y46*%
G04 Gerber Fmt 4.6, Leading zero omitted, Abs format (unit mm)*
G04 Created by KiCad (PCBNEW 9.0.0) date 2025-03-31 22:32:49*
%MOMM*%
%LPD*%
G01*
G04 APERTURE LIST*
%ADD10C,0.100000*%
%ADD11C,0.120000*%
G04 APERTURE END LIST*
D10*
X112765312Y-112879942D02*
X112689122Y-112851371D01*
X112689122Y-112851371D02*
X112574836Y-112851371D01*
X112574836Y-112851371D02*
X112460550Y-112879942D01*
X112460550Y-112879942D02*
X112384360Y-112937085D01*
X112384360Y-112937085D02*
X112346265Y-112994228D01*
X112346265Y-112994228D02*
X112308169Y-113108514D01*
X112308169Y-113108514D02*
X112308169Y-113194228D01*
X112308169Y-113194228D02*
X112346265Y-113308514D01*
X112346265Y-113308514D02*
X112384360Y-113365657D01*
X112384360Y-113365657D02*
X112460550Y-113422800D01*
X112460550Y-113422800D02*
X112574836Y-113451371D01*
X112574836Y-113451371D02*
X112651027Y-113451371D01*
X112651027Y-113451371D02*
X112765312Y-113422800D01*
X112765312Y-113422800D02*
X112803408Y-113394228D01*
X112803408Y-113394228D02*
X112803408Y-113194228D01*
X112803408Y-113194228D02*
X112651027Y-113194228D01*
X113146265Y-113451371D02*
X113146265Y-112851371D01*
X113146265Y-112851371D02*
X113603408Y-113451371D01*
X113603408Y-113451371D02*
X113603408Y-112851371D01*
X113984360Y-113451371D02*
X113984360Y-112851371D01*
X113984360Y-112851371D02*
X114174836Y-112851371D01*
X114174836Y-112851371D02*
X114289122Y-112879942D01*
X114289122Y-112879942D02*
X114365312Y-112937085D01*
X114365312Y-112937085D02*
X114403407Y-112994228D01*
X114403407Y-112994228D02*
X114441503Y-113108514D01*
X114441503Y-113108514D02*
X114441503Y-113194228D01*
X114441503Y-113194228D02*
X114403407Y-113308514D01*
X114403407Y-113308514D02*
X114365312Y-113365657D01*
X114365312Y-113365657D02*
X114289122Y-113422800D01*
X114289122Y-113422800D02*
X114174836Y-113451371D01*
X114174836Y-113451371D02*
X113984360Y-113451371D01*
X154788169Y-116032800D02*
X154902455Y-116061371D01*
X154902455Y-116061371D02*
X155092931Y-116061371D01*
X155092931Y-116061371D02*
X155169122Y-116032800D01*
X155169122Y-116032800D02*
X155207217Y-116004228D01*
X155207217Y-116004228D02*
X155245312Y-115947085D01*
X155245312Y-115947085D02*
X155245312Y-115889942D01*
X155245312Y-115889942D02*
X155207217Y-115832800D01*
X155207217Y-115832800D02*
X155169122Y-115804228D01*
X155169122Y-115804228D02*
X155092931Y-115775657D01*
X155092931Y-115775657D02*
X154940550Y-115747085D01*
X154940550Y-115747085D02*
X154864360Y-115718514D01*
X154864360Y-115718514D02*
X154826265Y-115689942D01*
X154826265Y-115689942D02*
X154788169Y-115632800D01*
X154788169Y-115632800D02*
X154788169Y-115575657D01*
X154788169Y-115575657D02*
X154826265Y-115518514D01*
X154826265Y-115518514D02*
X154864360Y-115489942D01*
X154864360Y-115489942D02*
X154940550Y-115461371D01*
X154940550Y-115461371D02*
X155131027Y-115461371D01*
X155131027Y-115461371D02*
X155245312Y-115489942D01*
X155511979Y-115461371D02*
X155702455Y-116061371D01*
X155702455Y-116061371D02*
X155854836Y-115632800D01*
X155854836Y-115632800D02*
X156007217Y-116061371D01*
X156007217Y-116061371D02*
X156197694Y-115461371D01*
X156502456Y-116061371D02*
X156502456Y-115461371D01*
X156502456Y-115461371D02*
X156692932Y-115461371D01*
X156692932Y-115461371D02*
X156807218Y-115489942D01*
X156807218Y-115489942D02*
X156883408Y-115547085D01*
X156883408Y-115547085D02*
X156921503Y-115604228D01*
X156921503Y-115604228D02*
X156959599Y-115718514D01*
X156959599Y-115718514D02*
X156959599Y-115804228D01*
X156959599Y-115804228D02*
X156921503Y-115918514D01*
X156921503Y-115918514D02*
X156883408Y-115975657D01*
X156883408Y-115975657D02*
X156807218Y-116032800D01*
X156807218Y-116032800D02*
X156692932Y-116061371D01*
X156692932Y-116061371D02*
X156502456Y-116061371D01*
X157302456Y-116061371D02*
X157302456Y-115461371D01*
X157835789Y-115461371D02*
X157988170Y-115461371D01*
X157988170Y-115461371D02*
X158064360Y-115489942D01*
X158064360Y-115489942D02*
X158140551Y-115547085D01*
X158140551Y-115547085D02*
X158178646Y-115661371D01*
X158178646Y-115661371D02*
X158178646Y-115861371D01*
X158178646Y-115861371D02*
X158140551Y-115975657D01*
X158140551Y-115975657D02*
X158064360Y-116032800D01*
X158064360Y-116032800D02*
X157988170Y-116061371D01*
X157988170Y-116061371D02*
X157835789Y-116061371D01*
X157835789Y-116061371D02*
X157759598Y-116032800D01*
X157759598Y-116032800D02*
X157683408Y-115975657D01*
X157683408Y-115975657D02*
X157645312Y-115861371D01*
X157645312Y-115861371D02*
X157645312Y-115661371D01*
X157645312Y-115661371D02*
X157683408Y-115547085D01*
X157683408Y-115547085D02*
X157759598Y-115489942D01*
X157759598Y-115489942D02*
X157835789Y-115461371D01*
X154826265Y-121141371D02*
X154826265Y-120541371D01*
X154826265Y-120541371D02*
X155283408Y-121141371D01*
X155283408Y-121141371D02*
X155283408Y-120541371D01*
X156121503Y-121141371D02*
X155854836Y-120855657D01*
X155664360Y-121141371D02*
X155664360Y-120541371D01*
X155664360Y-120541371D02*
X155969122Y-120541371D01*
X155969122Y-120541371D02*
X156045312Y-120569942D01*
X156045312Y-120569942D02*
X156083407Y-120598514D01*
X156083407Y-120598514D02*
X156121503Y-120655657D01*
X156121503Y-120655657D02*
X156121503Y-120741371D01*
X156121503Y-120741371D02*
X156083407Y-120798514D01*
X156083407Y-120798514D02*
X156045312Y-120827085D01*
X156045312Y-120827085D02*
X155969122Y-120855657D01*
X155969122Y-120855657D02*
X155664360Y-120855657D01*
X156426264Y-121112800D02*
X156540550Y-121141371D01*
X156540550Y-121141371D02*
X156731026Y-121141371D01*
X156731026Y-121141371D02*
X156807217Y-121112800D01*
X156807217Y-121112800D02*
X156845312Y-121084228D01*
X156845312Y-121084228D02*
X156883407Y-121027085D01*
X156883407Y-121027085D02*
X156883407Y-120969942D01*
X156883407Y-120969942D02*
X156845312Y-120912800D01*
X156845312Y-120912800D02*
X156807217Y-120884228D01*
X156807217Y-120884228D02*
X156731026Y-120855657D01*
X156731026Y-120855657D02*
X156578645Y-120827085D01*
X156578645Y-120827085D02*
X156502455Y-120798514D01*
X156502455Y-120798514D02*
X156464360Y-120769942D01*
X156464360Y-120769942D02*
X156426264Y-120712800D01*
X156426264Y-120712800D02*
X156426264Y-120655657D01*
X156426264Y-120655657D02*
X156464360Y-120598514D01*
X156464360Y-120598514D02*
X156502455Y-120569942D01*
X156502455Y-120569942D02*
X156578645Y-120541371D01*
X156578645Y-120541371D02*
X156769122Y-120541371D01*
X156769122Y-120541371D02*
X156883407Y-120569942D01*
X157111979Y-120541371D02*
X157569122Y-120541371D01*
X157340550Y-121141371D02*
X157340550Y-120541371D01*
X155245312Y-118029942D02*
X155169122Y-118001371D01*
X155169122Y-118001371D02*
X155054836Y-118001371D01*
X155054836Y-118001371D02*
X154940550Y-118029942D01*
X154940550Y-118029942D02*
X154864360Y-118087085D01*
X154864360Y-118087085D02*
X154826265Y-118144228D01*
X154826265Y-118144228D02*
X154788169Y-118258514D01*
X154788169Y-118258514D02*
X154788169Y-118344228D01*
X154788169Y-118344228D02*
X154826265Y-118458514D01*
X154826265Y-118458514D02*
X154864360Y-118515657D01*
X154864360Y-118515657D02*
X154940550Y-118572800D01*
X154940550Y-118572800D02*
X155054836Y-118601371D01*
X155054836Y-118601371D02*
X155131027Y-118601371D01*
X155131027Y-118601371D02*
X155245312Y-118572800D01*
X155245312Y-118572800D02*
X155283408Y-118544228D01*
X155283408Y-118544228D02*
X155283408Y-118344228D01*
X155283408Y-118344228D02*
X155131027Y-118344228D01*
X155626265Y-118601371D02*
X155626265Y-118001371D01*
X155626265Y-118001371D02*
X156083408Y-118601371D01*
X156083408Y-118601371D02*
X156083408Y-118001371D01*
X156464360Y-118601371D02*
X156464360Y-118001371D01*
X156464360Y-118001371D02*
X156654836Y-118001371D01*
X156654836Y-118001371D02*
X156769122Y-118029942D01*
X156769122Y-118029942D02*
X156845312Y-118087085D01*
X156845312Y-118087085D02*
X156883407Y-118144228D01*
X156883407Y-118144228D02*
X156921503Y-118258514D01*
X156921503Y-118258514D02*
X156921503Y-118344228D01*
X156921503Y-118344228D02*
X156883407Y-118458514D01*
X156883407Y-118458514D02*
X156845312Y-118515657D01*
X156845312Y-118515657D02*
X156769122Y-118572800D01*
X156769122Y-118572800D02*
X156654836Y-118601371D01*
X156654836Y-118601371D02*
X156464360Y-118601371D01*
X154826265Y-110981371D02*
X154826265Y-110381371D01*
X154826265Y-110381371D02*
X155092931Y-110809942D01*
X155092931Y-110809942D02*
X155359598Y-110381371D01*
X155359598Y-110381371D02*
X155359598Y-110981371D01*
X156197694Y-110924228D02*
X156159598Y-110952800D01*
X156159598Y-110952800D02*
X156045313Y-110981371D01*
X156045313Y-110981371D02*
X155969122Y-110981371D01*
X155969122Y-110981371D02*
X155854836Y-110952800D01*
X155854836Y-110952800D02*
X155778646Y-110895657D01*
X155778646Y-110895657D02*
X155740551Y-110838514D01*
X155740551Y-110838514D02*
X155702455Y-110724228D01*
X155702455Y-110724228D02*
X155702455Y-110638514D01*
X155702455Y-110638514D02*
X155740551Y-110524228D01*
X155740551Y-110524228D02*
X155778646Y-110467085D01*
X155778646Y-110467085D02*
X155854836Y-110409942D01*
X155854836Y-110409942D02*
X155969122Y-110381371D01*
X155969122Y-110381371D02*
X156045313Y-110381371D01*
X156045313Y-110381371D02*
X156159598Y-110409942D01*
X156159598Y-110409942D02*
X156197694Y-110438514D01*
X156540551Y-110381371D02*
X156540551Y-110867085D01*
X156540551Y-110867085D02*
X156578646Y-110924228D01*
X156578646Y-110924228D02*
X156616741Y-110952800D01*
X156616741Y-110952800D02*
X156692932Y-110981371D01*
X156692932Y-110981371D02*
X156845313Y-110981371D01*
X156845313Y-110981371D02*
X156921503Y-110952800D01*
X156921503Y-110952800D02*
X156959598Y-110924228D01*
X156959598Y-110924228D02*
X156997694Y-110867085D01*
X156997694Y-110867085D02*
X156997694Y-110381371D01*
X157188170Y-111038514D02*
X157797693Y-111038514D01*
X157873884Y-110381371D02*
X158140551Y-110981371D01*
X158140551Y-110981371D02*
X158407217Y-110381371D01*
X158673884Y-110981371D02*
X158673884Y-110381371D01*
X158673884Y-110381371D02*
X158864360Y-110381371D01*
X158864360Y-110381371D02*
X158978646Y-110409942D01*
X158978646Y-110409942D02*
X159054836Y-110467085D01*
X159054836Y-110467085D02*
X159092931Y-110524228D01*
X159092931Y-110524228D02*
X159131027Y-110638514D01*
X159131027Y-110638514D02*
X159131027Y-110724228D01*
X159131027Y-110724228D02*
X159092931Y-110838514D01*
X159092931Y-110838514D02*
X159054836Y-110895657D01*
X159054836Y-110895657D02*
X158978646Y-110952800D01*
X158978646Y-110952800D02*
X158864360Y-110981371D01*
X158864360Y-110981371D02*
X158673884Y-110981371D01*
X159473884Y-110981371D02*
X159473884Y-110381371D01*
X159473884Y-110381371D02*
X159664360Y-110381371D01*
X159664360Y-110381371D02*
X159778646Y-110409942D01*
X159778646Y-110409942D02*
X159854836Y-110467085D01*
X159854836Y-110467085D02*
X159892931Y-110524228D01*
X159892931Y-110524228D02*
X159931027Y-110638514D01*
X159931027Y-110638514D02*
X159931027Y-110724228D01*
X159931027Y-110724228D02*
X159892931Y-110838514D01*
X159892931Y-110838514D02*
X159854836Y-110895657D01*
X159854836Y-110895657D02*
X159778646Y-110952800D01*
X159778646Y-110952800D02*
X159664360Y-110981371D01*
X159664360Y-110981371D02*
X159473884Y-110981371D01*
X154788169Y-113492800D02*
X154902455Y-113521371D01*
X154902455Y-113521371D02*
X155092931Y-113521371D01*
X155092931Y-113521371D02*
X155169122Y-113492800D01*
X155169122Y-113492800D02*
X155207217Y-113464228D01*
X155207217Y-113464228D02*
X155245312Y-113407085D01*
X155245312Y-113407085D02*
X155245312Y-113349942D01*
X155245312Y-113349942D02*
X155207217Y-113292800D01*
X155207217Y-113292800D02*
X155169122Y-113264228D01*
X155169122Y-113264228D02*
X155092931Y-113235657D01*
X155092931Y-113235657D02*
X154940550Y-113207085D01*
X154940550Y-113207085D02*
X154864360Y-113178514D01*
X154864360Y-113178514D02*
X154826265Y-113149942D01*
X154826265Y-113149942D02*
X154788169Y-113092800D01*
X154788169Y-113092800D02*
X154788169Y-113035657D01*
X154788169Y-113035657D02*
X154826265Y-112978514D01*
X154826265Y-112978514D02*
X154864360Y-112949942D01*
X154864360Y-112949942D02*
X154940550Y-112921371D01*
X154940550Y-112921371D02*
X155131027Y-112921371D01*
X155131027Y-112921371D02*
X155245312Y-112949942D01*
X155511979Y-112921371D02*
X155702455Y-113521371D01*
X155702455Y-113521371D02*
X155854836Y-113092800D01*
X155854836Y-113092800D02*
X156007217Y-113521371D01*
X156007217Y-113521371D02*
X156197694Y-112921371D01*
X156959599Y-113464228D02*
X156921503Y-113492800D01*
X156921503Y-113492800D02*
X156807218Y-113521371D01*
X156807218Y-113521371D02*
X156731027Y-113521371D01*
X156731027Y-113521371D02*
X156616741Y-113492800D01*
X156616741Y-113492800D02*
X156540551Y-113435657D01*
X156540551Y-113435657D02*
X156502456Y-113378514D01*
X156502456Y-113378514D02*
X156464360Y-113264228D01*
X156464360Y-113264228D02*
X156464360Y-113178514D01*
X156464360Y-113178514D02*
X156502456Y-113064228D01*
X156502456Y-113064228D02*
X156540551Y-113007085D01*
X156540551Y-113007085D02*
X156616741Y-112949942D01*
X156616741Y-112949942D02*
X156731027Y-112921371D01*
X156731027Y-112921371D02*
X156807218Y-112921371D01*
X156807218Y-112921371D02*
X156921503Y-112949942D01*
X156921503Y-112949942D02*
X156959599Y-112978514D01*
X157683408Y-113521371D02*
X157302456Y-113521371D01*
X157302456Y-113521371D02*
X157302456Y-112921371D01*
X157950075Y-113521371D02*
X157950075Y-112921371D01*
X158407218Y-113521371D02*
X158064360Y-113178514D01*
X158407218Y-112921371D02*
X157950075Y-113264228D01*
X122084836Y-115291371D02*
X122084836Y-115719942D01*
X122084836Y-115719942D02*
X122046741Y-115805657D01*
X122046741Y-115805657D02*
X121970550Y-115862800D01*
X121970550Y-115862800D02*
X121856265Y-115891371D01*
X121856265Y-115891371D02*
X121780074Y-115891371D01*
X122351503Y-115291371D02*
X122808646Y-115291371D01*
X122580074Y-115891371D02*
X122580074Y-115291371D01*
X123075313Y-115891371D02*
X123075313Y-115291371D01*
X123075313Y-115291371D02*
X123265789Y-115291371D01*
X123265789Y-115291371D02*
X123380075Y-115319942D01*
X123380075Y-115319942D02*
X123456265Y-115377085D01*
X123456265Y-115377085D02*
X123494360Y-115434228D01*
X123494360Y-115434228D02*
X123532456Y-115548514D01*
X123532456Y-115548514D02*
X123532456Y-115634228D01*
X123532456Y-115634228D02*
X123494360Y-115748514D01*
X123494360Y-115748514D02*
X123456265Y-115805657D01*
X123456265Y-115805657D02*
X123380075Y-115862800D01*
X123380075Y-115862800D02*
X123265789Y-115891371D01*
X123265789Y-115891371D02*
X123075313Y-115891371D01*
X124027694Y-115291371D02*
X124180075Y-115291371D01*
X124180075Y-115291371D02*
X124256265Y-115319942D01*
X124256265Y-115319942D02*
X124332456Y-115377085D01*
X124332456Y-115377085D02*
X124370551Y-115491371D01*
X124370551Y-115491371D02*
X124370551Y-115691371D01*
X124370551Y-115691371D02*
X124332456Y-115805657D01*
X124332456Y-115805657D02*
X124256265Y-115862800D01*
X124256265Y-115862800D02*
X124180075Y-115891371D01*
X124180075Y-115891371D02*
X124027694Y-115891371D01*
X124027694Y-115891371D02*
X123951503Y-115862800D01*
X123951503Y-115862800D02*
X123875313Y-115805657D01*
X123875313Y-115805657D02*
X123837217Y-115691371D01*
X123837217Y-115691371D02*
X123837217Y-115491371D01*
X123837217Y-115491371D02*
X123875313Y-115377085D01*
X123875313Y-115377085D02*
X123951503Y-115319942D01*
X123951503Y-115319942D02*
X124027694Y-115291371D01*
X121856265Y-120971371D02*
X121856265Y-120371371D01*
X121856265Y-120371371D02*
X122313408Y-120971371D01*
X122313408Y-120971371D02*
X122313408Y-120371371D01*
X123151503Y-120971371D02*
X122884836Y-120685657D01*
X122694360Y-120971371D02*
X122694360Y-120371371D01*
X122694360Y-120371371D02*
X122999122Y-120371371D01*
X122999122Y-120371371D02*
X123075312Y-120399942D01*
X123075312Y-120399942D02*
X123113407Y-120428514D01*
X123113407Y-120428514D02*
X123151503Y-120485657D01*
X123151503Y-120485657D02*
X123151503Y-120571371D01*
X123151503Y-120571371D02*
X123113407Y-120628514D01*
X123113407Y-120628514D02*
X123075312Y-120657085D01*
X123075312Y-120657085D02*
X122999122Y-120685657D01*
X122999122Y-120685657D02*
X122694360Y-120685657D01*
X123456264Y-120942800D02*
X123570550Y-120971371D01*
X123570550Y-120971371D02*
X123761026Y-120971371D01*
X123761026Y-120971371D02*
X123837217Y-120942800D01*
X123837217Y-120942800D02*
X123875312Y-120914228D01*
X123875312Y-120914228D02*
X123913407Y-120857085D01*
X123913407Y-120857085D02*
X123913407Y-120799942D01*
X123913407Y-120799942D02*
X123875312Y-120742800D01*
X123875312Y-120742800D02*
X123837217Y-120714228D01*
X123837217Y-120714228D02*
X123761026Y-120685657D01*
X123761026Y-120685657D02*
X123608645Y-120657085D01*
X123608645Y-120657085D02*
X123532455Y-120628514D01*
X123532455Y-120628514D02*
X123494360Y-120599942D01*
X123494360Y-120599942D02*
X123456264Y-120542800D01*
X123456264Y-120542800D02*
X123456264Y-120485657D01*
X123456264Y-120485657D02*
X123494360Y-120428514D01*
X123494360Y-120428514D02*
X123532455Y-120399942D01*
X123532455Y-120399942D02*
X123608645Y-120371371D01*
X123608645Y-120371371D02*
X123799122Y-120371371D01*
X123799122Y-120371371D02*
X123913407Y-120399942D01*
X124141979Y-120371371D02*
X124599122Y-120371371D01*
X124370550Y-120971371D02*
X124370550Y-120371371D01*
X122084836Y-117831371D02*
X122084836Y-118259942D01*
X122084836Y-118259942D02*
X122046741Y-118345657D01*
X122046741Y-118345657D02*
X121970550Y-118402800D01*
X121970550Y-118402800D02*
X121856265Y-118431371D01*
X121856265Y-118431371D02*
X121780074Y-118431371D01*
X122351503Y-117831371D02*
X122808646Y-117831371D01*
X122580074Y-118431371D02*
X122580074Y-117831371D01*
X123075313Y-118431371D02*
X123075313Y-117831371D01*
X123075313Y-117831371D02*
X123265789Y-117831371D01*
X123265789Y-117831371D02*
X123380075Y-117859942D01*
X123380075Y-117859942D02*
X123456265Y-117917085D01*
X123456265Y-117917085D02*
X123494360Y-117974228D01*
X123494360Y-117974228D02*
X123532456Y-118088514D01*
X123532456Y-118088514D02*
X123532456Y-118174228D01*
X123532456Y-118174228D02*
X123494360Y-118288514D01*
X123494360Y-118288514D02*
X123456265Y-118345657D01*
X123456265Y-118345657D02*
X123380075Y-118402800D01*
X123380075Y-118402800D02*
X123265789Y-118431371D01*
X123265789Y-118431371D02*
X123075313Y-118431371D01*
X123875313Y-118431371D02*
X123875313Y-117831371D01*
X122084836Y-110211371D02*
X122084836Y-110639942D01*
X122084836Y-110639942D02*
X122046741Y-110725657D01*
X122046741Y-110725657D02*
X121970550Y-110782800D01*
X121970550Y-110782800D02*
X121856265Y-110811371D01*
X121856265Y-110811371D02*
X121780074Y-110811371D01*
X122351503Y-110211371D02*
X122808646Y-110211371D01*
X122580074Y-110811371D02*
X122580074Y-110211371D01*
X123075313Y-110811371D02*
X123075313Y-110211371D01*
X123075313Y-110211371D02*
X123341979Y-110639942D01*
X123341979Y-110639942D02*
X123608646Y-110211371D01*
X123608646Y-110211371D02*
X123608646Y-110811371D01*
X123951503Y-110782800D02*
X124065789Y-110811371D01*
X124065789Y-110811371D02*
X124256265Y-110811371D01*
X124256265Y-110811371D02*
X124332456Y-110782800D01*
X124332456Y-110782800D02*
X124370551Y-110754228D01*
X124370551Y-110754228D02*
X124408646Y-110697085D01*
X124408646Y-110697085D02*
X124408646Y-110639942D01*
X124408646Y-110639942D02*
X124370551Y-110582800D01*
X124370551Y-110582800D02*
X124332456Y-110554228D01*
X124332456Y-110554228D02*
X124256265Y-110525657D01*
X124256265Y-110525657D02*
X124103884Y-110497085D01*
X124103884Y-110497085D02*
X124027694Y-110468514D01*
X124027694Y-110468514D02*
X123989599Y-110439942D01*
X123989599Y-110439942D02*
X123951503Y-110382800D01*
X123951503Y-110382800D02*
X123951503Y-110325657D01*
X123951503Y-110325657D02*
X123989599Y-110268514D01*
X123989599Y-110268514D02*
X124027694Y-110239942D01*
X124027694Y-110239942D02*
X124103884Y-110211371D01*
X124103884Y-110211371D02*
X124294361Y-110211371D01*
X124294361Y-110211371D02*
X124408646Y-110239942D01*
X122084836Y-112751371D02*
X122084836Y-113179942D01*
X122084836Y-113179942D02*
X122046741Y-113265657D01*
X122046741Y-113265657D02*
X121970550Y-113322800D01*
X121970550Y-113322800D02*
X121856265Y-113351371D01*
X121856265Y-113351371D02*
X121780074Y-113351371D01*
X122351503Y-112751371D02*
X122808646Y-112751371D01*
X122580074Y-113351371D02*
X122580074Y-112751371D01*
X123532456Y-113294228D02*
X123494360Y-113322800D01*
X123494360Y-113322800D02*
X123380075Y-113351371D01*
X123380075Y-113351371D02*
X123303884Y-113351371D01*
X123303884Y-113351371D02*
X123189598Y-113322800D01*
X123189598Y-113322800D02*
X123113408Y-113265657D01*
X123113408Y-113265657D02*
X123075313Y-113208514D01*
X123075313Y-113208514D02*
X123037217Y-113094228D01*
X123037217Y-113094228D02*
X123037217Y-113008514D01*
X123037217Y-113008514D02*
X123075313Y-112894228D01*
X123075313Y-112894228D02*
X123113408Y-112837085D01*
X123113408Y-112837085D02*
X123189598Y-112779942D01*
X123189598Y-112779942D02*
X123303884Y-112751371D01*
X123303884Y-112751371D02*
X123380075Y-112751371D01*
X123380075Y-112751371D02*
X123494360Y-112779942D01*
X123494360Y-112779942D02*
X123532456Y-112808514D01*
X123875313Y-113351371D02*
X123875313Y-112751371D01*
X124332456Y-113351371D02*
X123989598Y-113008514D01*
X124332456Y-112751371D02*
X123875313Y-113094228D01*
X112765312Y-120499942D02*
X112689122Y-120471371D01*
X112689122Y-120471371D02*
X112574836Y-120471371D01*
X112574836Y-120471371D02*
X112460550Y-120499942D01*
X112460550Y-120499942D02*
X112384360Y-120557085D01*
X112384360Y-120557085D02*
X112346265Y-120614228D01*
X112346265Y-120614228D02*
X112308169Y-120728514D01*
X112308169Y-120728514D02*
X112308169Y-120814228D01*
X112308169Y-120814228D02*
X112346265Y-120928514D01*
X112346265Y-120928514D02*
X112384360Y-120985657D01*
X112384360Y-120985657D02*
X112460550Y-121042800D01*
X112460550Y-121042800D02*
X112574836Y-121071371D01*
X112574836Y-121071371D02*
X112651027Y-121071371D01*
X112651027Y-121071371D02*
X112765312Y-121042800D01*
X112765312Y-121042800D02*
X112803408Y-121014228D01*
X112803408Y-121014228D02*
X112803408Y-120814228D01*
X112803408Y-120814228D02*
X112651027Y-120814228D01*
X113146265Y-121071371D02*
X113146265Y-120471371D01*
X113146265Y-120471371D02*
X113603408Y-121071371D01*
X113603408Y-121071371D02*
X113603408Y-120471371D01*
X113984360Y-121071371D02*
X113984360Y-120471371D01*
X113984360Y-120471371D02*
X114174836Y-120471371D01*
X114174836Y-120471371D02*
X114289122Y-120499942D01*
X114289122Y-120499942D02*
X114365312Y-120557085D01*
X114365312Y-120557085D02*
X114403407Y-120614228D01*
X114403407Y-120614228D02*
X114441503Y-120728514D01*
X114441503Y-120728514D02*
X114441503Y-120814228D01*
X114441503Y-120814228D02*
X114403407Y-120928514D01*
X114403407Y-120928514D02*
X114365312Y-120985657D01*
X114365312Y-120985657D02*
X114289122Y-121042800D01*
X114289122Y-121042800D02*
X114174836Y-121071371D01*
X114174836Y-121071371D02*
X113984360Y-121071371D01*
X112765312Y-115419942D02*
X112689122Y-115391371D01*
X112689122Y-115391371D02*
X112574836Y-115391371D01*
X112574836Y-115391371D02*
X112460550Y-115419942D01*
X112460550Y-115419942D02*
X112384360Y-115477085D01*
X112384360Y-115477085D02*
X112346265Y-115534228D01*
X112346265Y-115534228D02*
X112308169Y-115648514D01*
X112308169Y-115648514D02*
X112308169Y-115734228D01*
X112308169Y-115734228D02*
X112346265Y-115848514D01*
X112346265Y-115848514D02*
X112384360Y-115905657D01*
X112384360Y-115905657D02*
X112460550Y-115962800D01*
X112460550Y-115962800D02*
X112574836Y-115991371D01*
X112574836Y-115991371D02*
X112651027Y-115991371D01*
X112651027Y-115991371D02*
X112765312Y-115962800D01*
X112765312Y-115962800D02*
X112803408Y-115934228D01*
X112803408Y-115934228D02*
X112803408Y-115734228D01*
X112803408Y-115734228D02*
X112651027Y-115734228D01*
X113146265Y-115991371D02*
X113146265Y-115391371D01*
X113146265Y-115391371D02*
X113603408Y-115991371D01*
X113603408Y-115991371D02*
X113603408Y-115391371D01*
X113984360Y-115991371D02*
X113984360Y-115391371D01*
X113984360Y-115391371D02*
X114174836Y-115391371D01*
X114174836Y-115391371D02*
X114289122Y-115419942D01*
X114289122Y-115419942D02*
X114365312Y-115477085D01*
X114365312Y-115477085D02*
X114403407Y-115534228D01*
X114403407Y-115534228D02*
X114441503Y-115648514D01*
X114441503Y-115648514D02*
X114441503Y-115734228D01*
X114441503Y-115734228D02*
X114403407Y-115848514D01*
X114403407Y-115848514D02*
X114365312Y-115905657D01*
X114365312Y-115905657D02*
X114289122Y-115962800D01*
X114289122Y-115962800D02*
X114174836Y-115991371D01*
X114174836Y-115991371D02*
X113984360Y-115991371D01*
X109336741Y-110761371D02*
X109336741Y-110161371D01*
X109336741Y-110161371D02*
X109603407Y-110589942D01*
X109603407Y-110589942D02*
X109870074Y-110161371D01*
X109870074Y-110161371D02*
X109870074Y-110761371D01*
X110708170Y-110704228D02*
X110670074Y-110732800D01*
X110670074Y-110732800D02*
X110555789Y-110761371D01*
X110555789Y-110761371D02*
X110479598Y-110761371D01*
X110479598Y-110761371D02*
X110365312Y-110732800D01*
X110365312Y-110732800D02*
X110289122Y-110675657D01*
X110289122Y-110675657D02*
X110251027Y-110618514D01*
X110251027Y-110618514D02*
X110212931Y-110504228D01*
X110212931Y-110504228D02*
X110212931Y-110418514D01*
X110212931Y-110418514D02*
X110251027Y-110304228D01*
X110251027Y-110304228D02*
X110289122Y-110247085D01*
X110289122Y-110247085D02*
X110365312Y-110189942D01*
X110365312Y-110189942D02*
X110479598Y-110161371D01*
X110479598Y-110161371D02*
X110555789Y-110161371D01*
X110555789Y-110161371D02*
X110670074Y-110189942D01*
X110670074Y-110189942D02*
X110708170Y-110218514D01*
X111051027Y-110161371D02*
X111051027Y-110647085D01*
X111051027Y-110647085D02*
X111089122Y-110704228D01*
X111089122Y-110704228D02*
X111127217Y-110732800D01*
X111127217Y-110732800D02*
X111203408Y-110761371D01*
X111203408Y-110761371D02*
X111355789Y-110761371D01*
X111355789Y-110761371D02*
X111431979Y-110732800D01*
X111431979Y-110732800D02*
X111470074Y-110704228D01*
X111470074Y-110704228D02*
X111508170Y-110647085D01*
X111508170Y-110647085D02*
X111508170Y-110161371D01*
X111698646Y-110818514D02*
X112308169Y-110818514D01*
X112384360Y-110161371D02*
X112651027Y-110761371D01*
X112651027Y-110761371D02*
X112917693Y-110161371D01*
X113184360Y-110761371D02*
X113184360Y-110161371D01*
X113184360Y-110161371D02*
X113374836Y-110161371D01*
X113374836Y-110161371D02*
X113489122Y-110189942D01*
X113489122Y-110189942D02*
X113565312Y-110247085D01*
X113565312Y-110247085D02*
X113603407Y-110304228D01*
X113603407Y-110304228D02*
X113641503Y-110418514D01*
X113641503Y-110418514D02*
X113641503Y-110504228D01*
X113641503Y-110504228D02*
X113603407Y-110618514D01*
X113603407Y-110618514D02*
X113565312Y-110675657D01*
X113565312Y-110675657D02*
X113489122Y-110732800D01*
X113489122Y-110732800D02*
X113374836Y-110761371D01*
X113374836Y-110761371D02*
X113184360Y-110761371D01*
X113984360Y-110761371D02*
X113984360Y-110161371D01*
X113984360Y-110161371D02*
X114174836Y-110161371D01*
X114174836Y-110161371D02*
X114289122Y-110189942D01*
X114289122Y-110189942D02*
X114365312Y-110247085D01*
X114365312Y-110247085D02*
X114403407Y-110304228D01*
X114403407Y-110304228D02*
X114441503Y-110418514D01*
X114441503Y-110418514D02*
X114441503Y-110504228D01*
X114441503Y-110504228D02*
X114403407Y-110618514D01*
X114403407Y-110618514D02*
X114365312Y-110675657D01*
X114365312Y-110675657D02*
X114289122Y-110732800D01*
X114289122Y-110732800D02*
X114174836Y-110761371D01*
X114174836Y-110761371D02*
X113984360Y-110761371D01*
X112765312Y-117959942D02*
X112689122Y-117931371D01*
X112689122Y-117931371D02*
X112574836Y-117931371D01*
X112574836Y-117931371D02*
X112460550Y-117959942D01*
X112460550Y-117959942D02*
X112384360Y-118017085D01*
X112384360Y-118017085D02*
X112346265Y-118074228D01*
X112346265Y-118074228D02*
X112308169Y-118188514D01*
X112308169Y-118188514D02*
X112308169Y-118274228D01*
X112308169Y-118274228D02*
X112346265Y-118388514D01*
X112346265Y-118388514D02*
X112384360Y-118445657D01*
X112384360Y-118445657D02*
X112460550Y-118502800D01*
X112460550Y-118502800D02*
X112574836Y-118531371D01*
X112574836Y-118531371D02*
X112651027Y-118531371D01*
X112651027Y-118531371D02*
X112765312Y-118502800D01*
X112765312Y-118502800D02*
X112803408Y-118474228D01*
X112803408Y-118474228D02*
X112803408Y-118274228D01*
X112803408Y-118274228D02*
X112651027Y-118274228D01*
X113146265Y-118531371D02*
X113146265Y-117931371D01*
X113146265Y-117931371D02*
X113603408Y-118531371D01*
X113603408Y-118531371D02*
X113603408Y-117931371D01*
X113984360Y-118531371D02*
X113984360Y-117931371D01*
X113984360Y-117931371D02*
X114174836Y-117931371D01*
X114174836Y-117931371D02*
X114289122Y-117959942D01*
X114289122Y-117959942D02*
X114365312Y-118017085D01*
X114365312Y-118017085D02*
X114403407Y-118074228D01*
X114403407Y-118074228D02*
X114441503Y-118188514D01*
X114441503Y-118188514D02*
X114441503Y-118274228D01*
X114441503Y-118274228D02*
X114403407Y-118388514D01*
X114403407Y-118388514D02*
X114365312Y-118445657D01*
X114365312Y-118445657D02*
X114289122Y-118502800D01*
X114289122Y-118502800D02*
X114174836Y-118531371D01*
X114174836Y-118531371D02*
X113984360Y-118531371D01*
X141395312Y-112649942D02*
X141319122Y-112621371D01*
X141319122Y-112621371D02*
X141204836Y-112621371D01*
X141204836Y-112621371D02*
X141090550Y-112649942D01*
X141090550Y-112649942D02*
X141014360Y-112707085D01*
X141014360Y-112707085D02*
X140976265Y-112764228D01*
X140976265Y-112764228D02*
X140938169Y-112878514D01*
X140938169Y-112878514D02*
X140938169Y-112964228D01*
X140938169Y-112964228D02*
X140976265Y-113078514D01*
X140976265Y-113078514D02*
X141014360Y-113135657D01*
X141014360Y-113135657D02*
X141090550Y-113192800D01*
X141090550Y-113192800D02*
X141204836Y-113221371D01*
X141204836Y-113221371D02*
X141281027Y-113221371D01*
X141281027Y-113221371D02*
X141395312Y-113192800D01*
X141395312Y-113192800D02*
X141433408Y-113164228D01*
X141433408Y-113164228D02*
X141433408Y-112964228D01*
X141433408Y-112964228D02*
X141281027Y-112964228D01*
X141776265Y-113221371D02*
X141776265Y-112621371D01*
X141776265Y-112621371D02*
X142233408Y-113221371D01*
X142233408Y-113221371D02*
X142233408Y-112621371D01*
X142614360Y-113221371D02*
X142614360Y-112621371D01*
X142614360Y-112621371D02*
X142804836Y-112621371D01*
X142804836Y-112621371D02*
X142919122Y-112649942D01*
X142919122Y-112649942D02*
X142995312Y-112707085D01*
X142995312Y-112707085D02*
X143033407Y-112764228D01*
X143033407Y-112764228D02*
X143071503Y-112878514D01*
X143071503Y-112878514D02*
X143071503Y-112964228D01*
X143071503Y-112964228D02*
X143033407Y-113078514D01*
X143033407Y-113078514D02*
X142995312Y-113135657D01*
X142995312Y-113135657D02*
X142919122Y-113192800D01*
X142919122Y-113192800D02*
X142804836Y-113221371D01*
X142804836Y-113221371D02*
X142614360Y-113221371D01*
X141395312Y-107569942D02*
X141319122Y-107541371D01*
X141319122Y-107541371D02*
X141204836Y-107541371D01*
X141204836Y-107541371D02*
X141090550Y-107569942D01*
X141090550Y-107569942D02*
X141014360Y-107627085D01*
X141014360Y-107627085D02*
X140976265Y-107684228D01*
X140976265Y-107684228D02*
X140938169Y-107798514D01*
X140938169Y-107798514D02*
X140938169Y-107884228D01*
X140938169Y-107884228D02*
X140976265Y-107998514D01*
X140976265Y-107998514D02*
X141014360Y-108055657D01*
X141014360Y-108055657D02*
X141090550Y-108112800D01*
X141090550Y-108112800D02*
X141204836Y-108141371D01*
X141204836Y-108141371D02*
X141281027Y-108141371D01*
X141281027Y-108141371D02*
X141395312Y-108112800D01*
X141395312Y-108112800D02*
X141433408Y-108084228D01*
X141433408Y-108084228D02*
X141433408Y-107884228D01*
X141433408Y-107884228D02*
X141281027Y-107884228D01*
X141776265Y-108141371D02*
X141776265Y-107541371D01*
X141776265Y-107541371D02*
X142233408Y-108141371D01*
X142233408Y-108141371D02*
X142233408Y-107541371D01*
X142614360Y-108141371D02*
X142614360Y-107541371D01*
X142614360Y-107541371D02*
X142804836Y-107541371D01*
X142804836Y-107541371D02*
X142919122Y-107569942D01*
X142919122Y-107569942D02*
X142995312Y-107627085D01*
X142995312Y-107627085D02*
X143033407Y-107684228D01*
X143033407Y-107684228D02*
X143071503Y-107798514D01*
X143071503Y-107798514D02*
X143071503Y-107884228D01*
X143071503Y-107884228D02*
X143033407Y-107998514D01*
X143033407Y-107998514D02*
X142995312Y-108055657D01*
X142995312Y-108055657D02*
X142919122Y-108112800D01*
X142919122Y-108112800D02*
X142804836Y-108141371D01*
X142804836Y-108141371D02*
X142614360Y-108141371D01*
X141395312Y-115189942D02*
X141319122Y-115161371D01*
X141319122Y-115161371D02*
X141204836Y-115161371D01*
X141204836Y-115161371D02*
X141090550Y-115189942D01*
X141090550Y-115189942D02*
X141014360Y-115247085D01*
X141014360Y-115247085D02*
X140976265Y-115304228D01*
X140976265Y-115304228D02*
X140938169Y-115418514D01*
X140938169Y-115418514D02*
X140938169Y-115504228D01*
X140938169Y-115504228D02*
X140976265Y-115618514D01*
X140976265Y-115618514D02*
X141014360Y-115675657D01*
X141014360Y-115675657D02*
X141090550Y-115732800D01*
X141090550Y-115732800D02*
X141204836Y-115761371D01*
X141204836Y-115761371D02*
X141281027Y-115761371D01*
X141281027Y-115761371D02*
X141395312Y-115732800D01*
X141395312Y-115732800D02*
X141433408Y-115704228D01*
X141433408Y-115704228D02*
X141433408Y-115504228D01*
X141433408Y-115504228D02*
X141281027Y-115504228D01*
X141776265Y-115761371D02*
X141776265Y-115161371D01*
X141776265Y-115161371D02*
X142233408Y-115761371D01*
X142233408Y-115761371D02*
X142233408Y-115161371D01*
X142614360Y-115761371D02*
X142614360Y-115161371D01*
X142614360Y-115161371D02*
X142804836Y-115161371D01*
X142804836Y-115161371D02*
X142919122Y-115189942D01*
X142919122Y-115189942D02*
X142995312Y-115247085D01*
X142995312Y-115247085D02*
X143033407Y-115304228D01*
X143033407Y-115304228D02*
X143071503Y-115418514D01*
X143071503Y-115418514D02*
X143071503Y-115504228D01*
X143071503Y-115504228D02*
X143033407Y-115618514D01*
X143033407Y-115618514D02*
X142995312Y-115675657D01*
X142995312Y-115675657D02*
X142919122Y-115732800D01*
X142919122Y-115732800D02*
X142804836Y-115761371D01*
X142804836Y-115761371D02*
X142614360Y-115761371D01*
X141395312Y-117729942D02*
X141319122Y-117701371D01*
X141319122Y-117701371D02*
X141204836Y-117701371D01*
X141204836Y-117701371D02*
X141090550Y-117729942D01*
X141090550Y-117729942D02*
X141014360Y-117787085D01*
X141014360Y-117787085D02*
X140976265Y-117844228D01*
X140976265Y-117844228D02*
X140938169Y-117958514D01*
X140938169Y-117958514D02*
X140938169Y-118044228D01*
X140938169Y-118044228D02*
X140976265Y-118158514D01*
X140976265Y-118158514D02*
X141014360Y-118215657D01*
X141014360Y-118215657D02*
X141090550Y-118272800D01*
X141090550Y-118272800D02*
X141204836Y-118301371D01*
X141204836Y-118301371D02*
X141281027Y-118301371D01*
X141281027Y-118301371D02*
X141395312Y-118272800D01*
X141395312Y-118272800D02*
X141433408Y-118244228D01*
X141433408Y-118244228D02*
X141433408Y-118044228D01*
X141433408Y-118044228D02*
X141281027Y-118044228D01*
X141776265Y-118301371D02*
X141776265Y-117701371D01*
X141776265Y-117701371D02*
X142233408Y-118301371D01*
X142233408Y-118301371D02*
X142233408Y-117701371D01*
X142614360Y-118301371D02*
X142614360Y-117701371D01*
X142614360Y-117701371D02*
X142804836Y-117701371D01*
X142804836Y-117701371D02*
X142919122Y-117729942D01*
X142919122Y-117729942D02*
X142995312Y-117787085D01*
X142995312Y-117787085D02*
X143033407Y-117844228D01*
X143033407Y-117844228D02*
X143071503Y-117958514D01*
X143071503Y-117958514D02*
X143071503Y-118044228D01*
X143071503Y-118044228D02*
X143033407Y-118158514D01*
X143033407Y-118158514D02*
X142995312Y-118215657D01*
X142995312Y-118215657D02*
X142919122Y-118272800D01*
X142919122Y-118272800D02*
X142804836Y-118301371D01*
X142804836Y-118301371D02*
X142614360Y-118301371D01*
X141395312Y-120269942D02*
X141319122Y-120241371D01*
X141319122Y-120241371D02*
X141204836Y-120241371D01*
X141204836Y-120241371D02*
X141090550Y-120269942D01*
X141090550Y-120269942D02*
X141014360Y-120327085D01*
X141014360Y-120327085D02*
X140976265Y-120384228D01*
X140976265Y-120384228D02*
X140938169Y-120498514D01*
X140938169Y-120498514D02*
X140938169Y-120584228D01*
X140938169Y-120584228D02*
X140976265Y-120698514D01*
X140976265Y-120698514D02*
X141014360Y-120755657D01*
X141014360Y-120755657D02*
X141090550Y-120812800D01*
X141090550Y-120812800D02*
X141204836Y-120841371D01*
X141204836Y-120841371D02*
X141281027Y-120841371D01*
X141281027Y-120841371D02*
X141395312Y-120812800D01*
X141395312Y-120812800D02*
X141433408Y-120784228D01*
X141433408Y-120784228D02*
X141433408Y-120584228D01*
X141433408Y-120584228D02*
X141281027Y-120584228D01*
X141776265Y-120841371D02*
X141776265Y-120241371D01*
X141776265Y-120241371D02*
X142233408Y-120841371D01*
X142233408Y-120841371D02*
X142233408Y-120241371D01*
X142614360Y-120841371D02*
X142614360Y-120241371D01*
X142614360Y-120241371D02*
X142804836Y-120241371D01*
X142804836Y-120241371D02*
X142919122Y-120269942D01*
X142919122Y-120269942D02*
X142995312Y-120327085D01*
X142995312Y-120327085D02*
X143033407Y-120384228D01*
X143033407Y-120384228D02*
X143071503Y-120498514D01*
X143071503Y-120498514D02*
X143071503Y-120584228D01*
X143071503Y-120584228D02*
X143033407Y-120698514D01*
X143033407Y-120698514D02*
X142995312Y-120755657D01*
X142995312Y-120755657D02*
X142919122Y-120812800D01*
X142919122Y-120812800D02*
X142804836Y-120841371D01*
X142804836Y-120841371D02*
X142614360Y-120841371D01*
X140976265Y-103061371D02*
X140976265Y-102461371D01*
X140976265Y-102461371D02*
X141242931Y-102889942D01*
X141242931Y-102889942D02*
X141509598Y-102461371D01*
X141509598Y-102461371D02*
X141509598Y-103061371D01*
X142347694Y-103004228D02*
X142309598Y-103032800D01*
X142309598Y-103032800D02*
X142195313Y-103061371D01*
X142195313Y-103061371D02*
X142119122Y-103061371D01*
X142119122Y-103061371D02*
X142004836Y-103032800D01*
X142004836Y-103032800D02*
X141928646Y-102975657D01*
X141928646Y-102975657D02*
X141890551Y-102918514D01*
X141890551Y-102918514D02*
X141852455Y-102804228D01*
X141852455Y-102804228D02*
X141852455Y-102718514D01*
X141852455Y-102718514D02*
X141890551Y-102604228D01*
X141890551Y-102604228D02*
X141928646Y-102547085D01*
X141928646Y-102547085D02*
X142004836Y-102489942D01*
X142004836Y-102489942D02*
X142119122Y-102461371D01*
X142119122Y-102461371D02*
X142195313Y-102461371D01*
X142195313Y-102461371D02*
X142309598Y-102489942D01*
X142309598Y-102489942D02*
X142347694Y-102518514D01*
X142690551Y-102461371D02*
X142690551Y-102947085D01*
X142690551Y-102947085D02*
X142728646Y-103004228D01*
X142728646Y-103004228D02*
X142766741Y-103032800D01*
X142766741Y-103032800D02*
X142842932Y-103061371D01*
X142842932Y-103061371D02*
X142995313Y-103061371D01*
X142995313Y-103061371D02*
X143071503Y-103032800D01*
X143071503Y-103032800D02*
X143109598Y-103004228D01*
X143109598Y-103004228D02*
X143147694Y-102947085D01*
X143147694Y-102947085D02*
X143147694Y-102461371D01*
X143338170Y-103118514D02*
X143947693Y-103118514D01*
X144023884Y-102461371D02*
X144290551Y-103061371D01*
X144290551Y-103061371D02*
X144557217Y-102461371D01*
X144823884Y-103061371D02*
X144823884Y-102461371D01*
X144823884Y-102461371D02*
X145014360Y-102461371D01*
X145014360Y-102461371D02*
X145128646Y-102489942D01*
X145128646Y-102489942D02*
X145204836Y-102547085D01*
X145204836Y-102547085D02*
X145242931Y-102604228D01*
X145242931Y-102604228D02*
X145281027Y-102718514D01*
X145281027Y-102718514D02*
X145281027Y-102804228D01*
X145281027Y-102804228D02*
X145242931Y-102918514D01*
X145242931Y-102918514D02*
X145204836Y-102975657D01*
X145204836Y-102975657D02*
X145128646Y-103032800D01*
X145128646Y-103032800D02*
X145014360Y-103061371D01*
X145014360Y-103061371D02*
X144823884Y-103061371D01*
X145623884Y-103061371D02*
X145623884Y-102461371D01*
X145623884Y-102461371D02*
X145814360Y-102461371D01*
X145814360Y-102461371D02*
X145928646Y-102489942D01*
X145928646Y-102489942D02*
X146004836Y-102547085D01*
X146004836Y-102547085D02*
X146042931Y-102604228D01*
X146042931Y-102604228D02*
X146081027Y-102718514D01*
X146081027Y-102718514D02*
X146081027Y-102804228D01*
X146081027Y-102804228D02*
X146042931Y-102918514D01*
X146042931Y-102918514D02*
X146004836Y-102975657D01*
X146004836Y-102975657D02*
X145928646Y-103032800D01*
X145928646Y-103032800D02*
X145814360Y-103061371D01*
X145814360Y-103061371D02*
X145623884Y-103061371D01*
X141395312Y-125349942D02*
X141319122Y-125321371D01*
X141319122Y-125321371D02*
X141204836Y-125321371D01*
X141204836Y-125321371D02*
X141090550Y-125349942D01*
X141090550Y-125349942D02*
X141014360Y-125407085D01*
X141014360Y-125407085D02*
X140976265Y-125464228D01*
X140976265Y-125464228D02*
X140938169Y-125578514D01*
X140938169Y-125578514D02*
X140938169Y-125664228D01*
X140938169Y-125664228D02*
X140976265Y-125778514D01*
X140976265Y-125778514D02*
X141014360Y-125835657D01*
X141014360Y-125835657D02*
X141090550Y-125892800D01*
X141090550Y-125892800D02*
X141204836Y-125921371D01*
X141204836Y-125921371D02*
X141281027Y-125921371D01*
X141281027Y-125921371D02*
X141395312Y-125892800D01*
X141395312Y-125892800D02*
X141433408Y-125864228D01*
X141433408Y-125864228D02*
X141433408Y-125664228D01*
X141433408Y-125664228D02*
X141281027Y-125664228D01*
X141776265Y-125921371D02*
X141776265Y-125321371D01*
X141776265Y-125321371D02*
X142233408Y-125921371D01*
X142233408Y-125921371D02*
X142233408Y-125321371D01*
X142614360Y-125921371D02*
X142614360Y-125321371D01*
X142614360Y-125321371D02*
X142804836Y-125321371D01*
X142804836Y-125321371D02*
X142919122Y-125349942D01*
X142919122Y-125349942D02*
X142995312Y-125407085D01*
X142995312Y-125407085D02*
X143033407Y-125464228D01*
X143033407Y-125464228D02*
X143071503Y-125578514D01*
X143071503Y-125578514D02*
X143071503Y-125664228D01*
X143071503Y-125664228D02*
X143033407Y-125778514D01*
X143033407Y-125778514D02*
X142995312Y-125835657D01*
X142995312Y-125835657D02*
X142919122Y-125892800D01*
X142919122Y-125892800D02*
X142804836Y-125921371D01*
X142804836Y-125921371D02*
X142614360Y-125921371D01*
X141395312Y-105029942D02*
X141319122Y-105001371D01*
X141319122Y-105001371D02*
X141204836Y-105001371D01*
X141204836Y-105001371D02*
X141090550Y-105029942D01*
X141090550Y-105029942D02*
X141014360Y-105087085D01*
X141014360Y-105087085D02*
X140976265Y-105144228D01*
X140976265Y-105144228D02*
X140938169Y-105258514D01*
X140938169Y-105258514D02*
X140938169Y-105344228D01*
X140938169Y-105344228D02*
X140976265Y-105458514D01*
X140976265Y-105458514D02*
X141014360Y-105515657D01*
X141014360Y-105515657D02*
X141090550Y-105572800D01*
X141090550Y-105572800D02*
X141204836Y-105601371D01*
X141204836Y-105601371D02*
X141281027Y-105601371D01*
X141281027Y-105601371D02*
X141395312Y-105572800D01*
X141395312Y-105572800D02*
X141433408Y-105544228D01*
X141433408Y-105544228D02*
X141433408Y-105344228D01*
X141433408Y-105344228D02*
X141281027Y-105344228D01*
X141776265Y-105601371D02*
X141776265Y-105001371D01*
X141776265Y-105001371D02*
X142233408Y-105601371D01*
X142233408Y-105601371D02*
X142233408Y-105001371D01*
X142614360Y-105601371D02*
X142614360Y-105001371D01*
X142614360Y-105001371D02*
X142804836Y-105001371D01*
X142804836Y-105001371D02*
X142919122Y-105029942D01*
X142919122Y-105029942D02*
X142995312Y-105087085D01*
X142995312Y-105087085D02*
X143033407Y-105144228D01*
X143033407Y-105144228D02*
X143071503Y-105258514D01*
X143071503Y-105258514D02*
X143071503Y-105344228D01*
X143071503Y-105344228D02*
X143033407Y-105458514D01*
X143033407Y-105458514D02*
X142995312Y-105515657D01*
X142995312Y-105515657D02*
X142919122Y-105572800D01*
X142919122Y-105572800D02*
X142804836Y-105601371D01*
X142804836Y-105601371D02*
X142614360Y-105601371D01*
X141395312Y-110109942D02*
X141319122Y-110081371D01*
X141319122Y-110081371D02*
X141204836Y-110081371D01*
X141204836Y-110081371D02*
X141090550Y-110109942D01*
X141090550Y-110109942D02*
X141014360Y-110167085D01*
X141014360Y-110167085D02*
X140976265Y-110224228D01*
X140976265Y-110224228D02*
X140938169Y-110338514D01*
X140938169Y-110338514D02*
X140938169Y-110424228D01*
X140938169Y-110424228D02*
X140976265Y-110538514D01*
X140976265Y-110538514D02*
X141014360Y-110595657D01*
X141014360Y-110595657D02*
X141090550Y-110652800D01*
X141090550Y-110652800D02*
X141204836Y-110681371D01*
X141204836Y-110681371D02*
X141281027Y-110681371D01*
X141281027Y-110681371D02*
X141395312Y-110652800D01*
X141395312Y-110652800D02*
X141433408Y-110624228D01*
X141433408Y-110624228D02*
X141433408Y-110424228D01*
X141433408Y-110424228D02*
X141281027Y-110424228D01*
X141776265Y-110681371D02*
X141776265Y-110081371D01*
X141776265Y-110081371D02*
X142233408Y-110681371D01*
X142233408Y-110681371D02*
X142233408Y-110081371D01*
X142614360Y-110681371D02*
X142614360Y-110081371D01*
X142614360Y-110081371D02*
X142804836Y-110081371D01*
X142804836Y-110081371D02*
X142919122Y-110109942D01*
X142919122Y-110109942D02*
X142995312Y-110167085D01*
X142995312Y-110167085D02*
X143033407Y-110224228D01*
X143033407Y-110224228D02*
X143071503Y-110338514D01*
X143071503Y-110338514D02*
X143071503Y-110424228D01*
X143071503Y-110424228D02*
X143033407Y-110538514D01*
X143033407Y-110538514D02*
X142995312Y-110595657D01*
X142995312Y-110595657D02*
X142919122Y-110652800D01*
X142919122Y-110652800D02*
X142804836Y-110681371D01*
X142804836Y-110681371D02*
X142614360Y-110681371D01*
X141395312Y-122809942D02*
X141319122Y-122781371D01*
X141319122Y-122781371D02*
X141204836Y-122781371D01*
X141204836Y-122781371D02*
X141090550Y-122809942D01*
X141090550Y-122809942D02*
X141014360Y-122867085D01*
X141014360Y-122867085D02*
X140976265Y-122924228D01*
X140976265Y-122924228D02*
X140938169Y-123038514D01*
X140938169Y-123038514D02*
X140938169Y-123124228D01*
X140938169Y-123124228D02*
X140976265Y-123238514D01*
X140976265Y-123238514D02*
X141014360Y-123295657D01*
X141014360Y-123295657D02*
X141090550Y-123352800D01*
X141090550Y-123352800D02*
X141204836Y-123381371D01*
X141204836Y-123381371D02*
X141281027Y-123381371D01*
X141281027Y-123381371D02*
X141395312Y-123352800D01*
X141395312Y-123352800D02*
X141433408Y-123324228D01*
X141433408Y-123324228D02*
X141433408Y-123124228D01*
X141433408Y-123124228D02*
X141281027Y-123124228D01*
X141776265Y-123381371D02*
X141776265Y-122781371D01*
X141776265Y-122781371D02*
X142233408Y-123381371D01*
X142233408Y-123381371D02*
X142233408Y-122781371D01*
X142614360Y-123381371D02*
X142614360Y-122781371D01*
X142614360Y-122781371D02*
X142804836Y-122781371D01*
X142804836Y-122781371D02*
X142919122Y-122809942D01*
X142919122Y-122809942D02*
X142995312Y-122867085D01*
X142995312Y-122867085D02*
X143033407Y-122924228D01*
X143033407Y-122924228D02*
X143071503Y-123038514D01*
X143071503Y-123038514D02*
X143071503Y-123124228D01*
X143071503Y-123124228D02*
X143033407Y-123238514D01*
X143033407Y-123238514D02*
X142995312Y-123295657D01*
X142995312Y-123295657D02*
X142919122Y-123352800D01*
X142919122Y-123352800D02*
X142804836Y-123381371D01*
X142804836Y-123381371D02*
X142614360Y-123381371D01*
X131337217Y-117671371D02*
X131337217Y-118099942D01*
X131337217Y-118099942D02*
X131299122Y-118185657D01*
X131299122Y-118185657D02*
X131222931Y-118242800D01*
X131222931Y-118242800D02*
X131108646Y-118271371D01*
X131108646Y-118271371D02*
X131032455Y-118271371D01*
X131603884Y-117671371D02*
X132061027Y-117671371D01*
X131832455Y-118271371D02*
X131832455Y-117671371D01*
X132327694Y-118271371D02*
X132327694Y-117671371D01*
X132327694Y-117671371D02*
X132518170Y-117671371D01*
X132518170Y-117671371D02*
X132632456Y-117699942D01*
X132632456Y-117699942D02*
X132708646Y-117757085D01*
X132708646Y-117757085D02*
X132746741Y-117814228D01*
X132746741Y-117814228D02*
X132784837Y-117928514D01*
X132784837Y-117928514D02*
X132784837Y-118014228D01*
X132784837Y-118014228D02*
X132746741Y-118128514D01*
X132746741Y-118128514D02*
X132708646Y-118185657D01*
X132708646Y-118185657D02*
X132632456Y-118242800D01*
X132632456Y-118242800D02*
X132518170Y-118271371D01*
X132518170Y-118271371D02*
X132327694Y-118271371D01*
X133280075Y-117671371D02*
X133432456Y-117671371D01*
X133432456Y-117671371D02*
X133508646Y-117699942D01*
X133508646Y-117699942D02*
X133584837Y-117757085D01*
X133584837Y-117757085D02*
X133622932Y-117871371D01*
X133622932Y-117871371D02*
X133622932Y-118071371D01*
X133622932Y-118071371D02*
X133584837Y-118185657D01*
X133584837Y-118185657D02*
X133508646Y-118242800D01*
X133508646Y-118242800D02*
X133432456Y-118271371D01*
X133432456Y-118271371D02*
X133280075Y-118271371D01*
X133280075Y-118271371D02*
X133203884Y-118242800D01*
X133203884Y-118242800D02*
X133127694Y-118185657D01*
X133127694Y-118185657D02*
X133089598Y-118071371D01*
X133089598Y-118071371D02*
X133089598Y-117871371D01*
X133089598Y-117871371D02*
X133127694Y-117757085D01*
X133127694Y-117757085D02*
X133203884Y-117699942D01*
X133203884Y-117699942D02*
X133280075Y-117671371D01*
X131375312Y-112591371D02*
X131375312Y-113019942D01*
X131375312Y-113019942D02*
X131337217Y-113105657D01*
X131337217Y-113105657D02*
X131261026Y-113162800D01*
X131261026Y-113162800D02*
X131146741Y-113191371D01*
X131146741Y-113191371D02*
X131070550Y-113191371D01*
X131641979Y-112591371D02*
X132099122Y-112591371D01*
X131870550Y-113191371D02*
X131870550Y-112591371D01*
X132822932Y-113134228D02*
X132784836Y-113162800D01*
X132784836Y-113162800D02*
X132670551Y-113191371D01*
X132670551Y-113191371D02*
X132594360Y-113191371D01*
X132594360Y-113191371D02*
X132480074Y-113162800D01*
X132480074Y-113162800D02*
X132403884Y-113105657D01*
X132403884Y-113105657D02*
X132365789Y-113048514D01*
X132365789Y-113048514D02*
X132327693Y-112934228D01*
X132327693Y-112934228D02*
X132327693Y-112848514D01*
X132327693Y-112848514D02*
X132365789Y-112734228D01*
X132365789Y-112734228D02*
X132403884Y-112677085D01*
X132403884Y-112677085D02*
X132480074Y-112619942D01*
X132480074Y-112619942D02*
X132594360Y-112591371D01*
X132594360Y-112591371D02*
X132670551Y-112591371D01*
X132670551Y-112591371D02*
X132784836Y-112619942D01*
X132784836Y-112619942D02*
X132822932Y-112648514D01*
X133165789Y-113191371D02*
X133165789Y-112591371D01*
X133622932Y-113191371D02*
X133280074Y-112848514D01*
X133622932Y-112591371D02*
X133165789Y-112934228D01*
X131299121Y-110051371D02*
X131299121Y-110479942D01*
X131299121Y-110479942D02*
X131261026Y-110565657D01*
X131261026Y-110565657D02*
X131184835Y-110622800D01*
X131184835Y-110622800D02*
X131070550Y-110651371D01*
X131070550Y-110651371D02*
X130994359Y-110651371D01*
X131565788Y-110051371D02*
X132022931Y-110051371D01*
X131794359Y-110651371D02*
X131794359Y-110051371D01*
X132289598Y-110651371D02*
X132289598Y-110051371D01*
X132289598Y-110051371D02*
X132556264Y-110479942D01*
X132556264Y-110479942D02*
X132822931Y-110051371D01*
X132822931Y-110051371D02*
X132822931Y-110651371D01*
X133165788Y-110622800D02*
X133280074Y-110651371D01*
X133280074Y-110651371D02*
X133470550Y-110651371D01*
X133470550Y-110651371D02*
X133546741Y-110622800D01*
X133546741Y-110622800D02*
X133584836Y-110594228D01*
X133584836Y-110594228D02*
X133622931Y-110537085D01*
X133622931Y-110537085D02*
X133622931Y-110479942D01*
X133622931Y-110479942D02*
X133584836Y-110422800D01*
X133584836Y-110422800D02*
X133546741Y-110394228D01*
X133546741Y-110394228D02*
X133470550Y-110365657D01*
X133470550Y-110365657D02*
X133318169Y-110337085D01*
X133318169Y-110337085D02*
X133241979Y-110308514D01*
X133241979Y-110308514D02*
X133203884Y-110279942D01*
X133203884Y-110279942D02*
X133165788Y-110222800D01*
X133165788Y-110222800D02*
X133165788Y-110165657D01*
X133165788Y-110165657D02*
X133203884Y-110108514D01*
X133203884Y-110108514D02*
X133241979Y-110079942D01*
X133241979Y-110079942D02*
X133318169Y-110051371D01*
X133318169Y-110051371D02*
X133508646Y-110051371D01*
X133508646Y-110051371D02*
X133622931Y-110079942D01*
X131794360Y-107511371D02*
X131794360Y-107939942D01*
X131794360Y-107939942D02*
X131756265Y-108025657D01*
X131756265Y-108025657D02*
X131680074Y-108082800D01*
X131680074Y-108082800D02*
X131565789Y-108111371D01*
X131565789Y-108111371D02*
X131489598Y-108111371D01*
X132061027Y-107511371D02*
X132518170Y-107511371D01*
X132289598Y-108111371D02*
X132289598Y-107511371D01*
X132784837Y-108111371D02*
X132784837Y-107511371D01*
X132784837Y-107511371D02*
X132975313Y-107511371D01*
X132975313Y-107511371D02*
X133089599Y-107539942D01*
X133089599Y-107539942D02*
X133165789Y-107597085D01*
X133165789Y-107597085D02*
X133203884Y-107654228D01*
X133203884Y-107654228D02*
X133241980Y-107768514D01*
X133241980Y-107768514D02*
X133241980Y-107854228D01*
X133241980Y-107854228D02*
X133203884Y-107968514D01*
X133203884Y-107968514D02*
X133165789Y-108025657D01*
X133165789Y-108025657D02*
X133089599Y-108082800D01*
X133089599Y-108082800D02*
X132975313Y-108111371D01*
X132975313Y-108111371D02*
X132784837Y-108111371D01*
X133584837Y-108111371D02*
X133584837Y-107511371D01*
X128518170Y-103051371D02*
X128518170Y-102451371D01*
X128518170Y-102451371D02*
X128784836Y-102879942D01*
X128784836Y-102879942D02*
X129051503Y-102451371D01*
X129051503Y-102451371D02*
X129051503Y-103051371D01*
X129889599Y-102994228D02*
X129851503Y-103022800D01*
X129851503Y-103022800D02*
X129737218Y-103051371D01*
X129737218Y-103051371D02*
X129661027Y-103051371D01*
X129661027Y-103051371D02*
X129546741Y-103022800D01*
X129546741Y-103022800D02*
X129470551Y-102965657D01*
X129470551Y-102965657D02*
X129432456Y-102908514D01*
X129432456Y-102908514D02*
X129394360Y-102794228D01*
X129394360Y-102794228D02*
X129394360Y-102708514D01*
X129394360Y-102708514D02*
X129432456Y-102594228D01*
X129432456Y-102594228D02*
X129470551Y-102537085D01*
X129470551Y-102537085D02*
X129546741Y-102479942D01*
X129546741Y-102479942D02*
X129661027Y-102451371D01*
X129661027Y-102451371D02*
X129737218Y-102451371D01*
X129737218Y-102451371D02*
X129851503Y-102479942D01*
X129851503Y-102479942D02*
X129889599Y-102508514D01*
X130232456Y-102451371D02*
X130232456Y-102937085D01*
X130232456Y-102937085D02*
X130270551Y-102994228D01*
X130270551Y-102994228D02*
X130308646Y-103022800D01*
X130308646Y-103022800D02*
X130384837Y-103051371D01*
X130384837Y-103051371D02*
X130537218Y-103051371D01*
X130537218Y-103051371D02*
X130613408Y-103022800D01*
X130613408Y-103022800D02*
X130651503Y-102994228D01*
X130651503Y-102994228D02*
X130689599Y-102937085D01*
X130689599Y-102937085D02*
X130689599Y-102451371D01*
X130880075Y-103108514D02*
X131489598Y-103108514D01*
X131565789Y-102451371D02*
X131832456Y-103051371D01*
X131832456Y-103051371D02*
X132099122Y-102451371D01*
X132365789Y-103051371D02*
X132365789Y-102451371D01*
X132365789Y-102451371D02*
X132556265Y-102451371D01*
X132556265Y-102451371D02*
X132670551Y-102479942D01*
X132670551Y-102479942D02*
X132746741Y-102537085D01*
X132746741Y-102537085D02*
X132784836Y-102594228D01*
X132784836Y-102594228D02*
X132822932Y-102708514D01*
X132822932Y-102708514D02*
X132822932Y-102794228D01*
X132822932Y-102794228D02*
X132784836Y-102908514D01*
X132784836Y-102908514D02*
X132746741Y-102965657D01*
X132746741Y-102965657D02*
X132670551Y-103022800D01*
X132670551Y-103022800D02*
X132556265Y-103051371D01*
X132556265Y-103051371D02*
X132365789Y-103051371D01*
X133165789Y-103051371D02*
X133165789Y-102451371D01*
X133165789Y-102451371D02*
X133356265Y-102451371D01*
X133356265Y-102451371D02*
X133470551Y-102479942D01*
X133470551Y-102479942D02*
X133546741Y-102537085D01*
X133546741Y-102537085D02*
X133584836Y-102594228D01*
X133584836Y-102594228D02*
X133622932Y-102708514D01*
X133622932Y-102708514D02*
X133622932Y-102794228D01*
X133622932Y-102794228D02*
X133584836Y-102908514D01*
X133584836Y-102908514D02*
X133546741Y-102965657D01*
X133546741Y-102965657D02*
X133470551Y-103022800D01*
X133470551Y-103022800D02*
X133356265Y-103051371D01*
X133356265Y-103051371D02*
X133165789Y-103051371D01*
X160768169Y-114552800D02*
X160882455Y-114581371D01*
X160882455Y-114581371D02*
X161072931Y-114581371D01*
X161072931Y-114581371D02*
X161149122Y-114552800D01*
X161149122Y-114552800D02*
X161187217Y-114524228D01*
X161187217Y-114524228D02*
X161225312Y-114467085D01*
X161225312Y-114467085D02*
X161225312Y-114409942D01*
X161225312Y-114409942D02*
X161187217Y-114352800D01*
X161187217Y-114352800D02*
X161149122Y-114324228D01*
X161149122Y-114324228D02*
X161072931Y-114295657D01*
X161072931Y-114295657D02*
X160920550Y-114267085D01*
X160920550Y-114267085D02*
X160844360Y-114238514D01*
X160844360Y-114238514D02*
X160806265Y-114209942D01*
X160806265Y-114209942D02*
X160768169Y-114152800D01*
X160768169Y-114152800D02*
X160768169Y-114095657D01*
X160768169Y-114095657D02*
X160806265Y-114038514D01*
X160806265Y-114038514D02*
X160844360Y-114009942D01*
X160844360Y-114009942D02*
X160920550Y-113981371D01*
X160920550Y-113981371D02*
X161111027Y-113981371D01*
X161111027Y-113981371D02*
X161225312Y-114009942D01*
X161491979Y-113981371D02*
X161682455Y-114581371D01*
X161682455Y-114581371D02*
X161834836Y-114152800D01*
X161834836Y-114152800D02*
X161987217Y-114581371D01*
X161987217Y-114581371D02*
X162177694Y-113981371D01*
X162939599Y-114524228D02*
X162901503Y-114552800D01*
X162901503Y-114552800D02*
X162787218Y-114581371D01*
X162787218Y-114581371D02*
X162711027Y-114581371D01*
X162711027Y-114581371D02*
X162596741Y-114552800D01*
X162596741Y-114552800D02*
X162520551Y-114495657D01*
X162520551Y-114495657D02*
X162482456Y-114438514D01*
X162482456Y-114438514D02*
X162444360Y-114324228D01*
X162444360Y-114324228D02*
X162444360Y-114238514D01*
X162444360Y-114238514D02*
X162482456Y-114124228D01*
X162482456Y-114124228D02*
X162520551Y-114067085D01*
X162520551Y-114067085D02*
X162596741Y-114009942D01*
X162596741Y-114009942D02*
X162711027Y-113981371D01*
X162711027Y-113981371D02*
X162787218Y-113981371D01*
X162787218Y-113981371D02*
X162901503Y-114009942D01*
X162901503Y-114009942D02*
X162939599Y-114038514D01*
X163663408Y-114581371D02*
X163282456Y-114581371D01*
X163282456Y-114581371D02*
X163282456Y-113981371D01*
X163930075Y-114581371D02*
X163930075Y-113981371D01*
X164387218Y-114581371D02*
X164044360Y-114238514D01*
X164387218Y-113981371D02*
X163930075Y-114324228D01*
X162711027Y-116509942D02*
X162634837Y-116481371D01*
X162634837Y-116481371D02*
X162520551Y-116481371D01*
X162520551Y-116481371D02*
X162406265Y-116509942D01*
X162406265Y-116509942D02*
X162330075Y-116567085D01*
X162330075Y-116567085D02*
X162291980Y-116624228D01*
X162291980Y-116624228D02*
X162253884Y-116738514D01*
X162253884Y-116738514D02*
X162253884Y-116824228D01*
X162253884Y-116824228D02*
X162291980Y-116938514D01*
X162291980Y-116938514D02*
X162330075Y-116995657D01*
X162330075Y-116995657D02*
X162406265Y-117052800D01*
X162406265Y-117052800D02*
X162520551Y-117081371D01*
X162520551Y-117081371D02*
X162596742Y-117081371D01*
X162596742Y-117081371D02*
X162711027Y-117052800D01*
X162711027Y-117052800D02*
X162749123Y-117024228D01*
X162749123Y-117024228D02*
X162749123Y-116824228D01*
X162749123Y-116824228D02*
X162596742Y-116824228D01*
X163091980Y-117081371D02*
X163091980Y-116481371D01*
X163091980Y-116481371D02*
X163549123Y-117081371D01*
X163549123Y-117081371D02*
X163549123Y-116481371D01*
X163930075Y-117081371D02*
X163930075Y-116481371D01*
X163930075Y-116481371D02*
X164120551Y-116481371D01*
X164120551Y-116481371D02*
X164234837Y-116509942D01*
X164234837Y-116509942D02*
X164311027Y-116567085D01*
X164311027Y-116567085D02*
X164349122Y-116624228D01*
X164349122Y-116624228D02*
X164387218Y-116738514D01*
X164387218Y-116738514D02*
X164387218Y-116824228D01*
X164387218Y-116824228D02*
X164349122Y-116938514D01*
X164349122Y-116938514D02*
X164311027Y-116995657D01*
X164311027Y-116995657D02*
X164234837Y-117052800D01*
X164234837Y-117052800D02*
X164120551Y-117081371D01*
X164120551Y-117081371D02*
X163930075Y-117081371D01*
X160996741Y-115802800D02*
X161111027Y-115831371D01*
X161111027Y-115831371D02*
X161301503Y-115831371D01*
X161301503Y-115831371D02*
X161377694Y-115802800D01*
X161377694Y-115802800D02*
X161415789Y-115774228D01*
X161415789Y-115774228D02*
X161453884Y-115717085D01*
X161453884Y-115717085D02*
X161453884Y-115659942D01*
X161453884Y-115659942D02*
X161415789Y-115602800D01*
X161415789Y-115602800D02*
X161377694Y-115574228D01*
X161377694Y-115574228D02*
X161301503Y-115545657D01*
X161301503Y-115545657D02*
X161149122Y-115517085D01*
X161149122Y-115517085D02*
X161072932Y-115488514D01*
X161072932Y-115488514D02*
X161034837Y-115459942D01*
X161034837Y-115459942D02*
X160996741Y-115402800D01*
X160996741Y-115402800D02*
X160996741Y-115345657D01*
X160996741Y-115345657D02*
X161034837Y-115288514D01*
X161034837Y-115288514D02*
X161072932Y-115259942D01*
X161072932Y-115259942D02*
X161149122Y-115231371D01*
X161149122Y-115231371D02*
X161339599Y-115231371D01*
X161339599Y-115231371D02*
X161453884Y-115259942D01*
X161720551Y-115231371D02*
X161911027Y-115831371D01*
X161911027Y-115831371D02*
X162063408Y-115402800D01*
X162063408Y-115402800D02*
X162215789Y-115831371D01*
X162215789Y-115831371D02*
X162406266Y-115231371D01*
X162711028Y-115831371D02*
X162711028Y-115231371D01*
X162711028Y-115231371D02*
X162901504Y-115231371D01*
X162901504Y-115231371D02*
X163015790Y-115259942D01*
X163015790Y-115259942D02*
X163091980Y-115317085D01*
X163091980Y-115317085D02*
X163130075Y-115374228D01*
X163130075Y-115374228D02*
X163168171Y-115488514D01*
X163168171Y-115488514D02*
X163168171Y-115574228D01*
X163168171Y-115574228D02*
X163130075Y-115688514D01*
X163130075Y-115688514D02*
X163091980Y-115745657D01*
X163091980Y-115745657D02*
X163015790Y-115802800D01*
X163015790Y-115802800D02*
X162901504Y-115831371D01*
X162901504Y-115831371D02*
X162711028Y-115831371D01*
X163511028Y-115831371D02*
X163511028Y-115231371D01*
X164044361Y-115231371D02*
X164196742Y-115231371D01*
X164196742Y-115231371D02*
X164272932Y-115259942D01*
X164272932Y-115259942D02*
X164349123Y-115317085D01*
X164349123Y-115317085D02*
X164387218Y-115431371D01*
X164387218Y-115431371D02*
X164387218Y-115631371D01*
X164387218Y-115631371D02*
X164349123Y-115745657D01*
X164349123Y-115745657D02*
X164272932Y-115802800D01*
X164272932Y-115802800D02*
X164196742Y-115831371D01*
X164196742Y-115831371D02*
X164044361Y-115831371D01*
X164044361Y-115831371D02*
X163968170Y-115802800D01*
X163968170Y-115802800D02*
X163891980Y-115745657D01*
X163891980Y-115745657D02*
X163853884Y-115631371D01*
X163853884Y-115631371D02*
X163853884Y-115431371D01*
X163853884Y-115431371D02*
X163891980Y-115317085D01*
X163891980Y-115317085D02*
X163968170Y-115259942D01*
X163968170Y-115259942D02*
X164044361Y-115231371D01*
X161720551Y-118331371D02*
X161720551Y-117731371D01*
X161720551Y-117731371D02*
X162177694Y-118331371D01*
X162177694Y-118331371D02*
X162177694Y-117731371D01*
X163015789Y-118331371D02*
X162749122Y-118045657D01*
X162558646Y-118331371D02*
X162558646Y-117731371D01*
X162558646Y-117731371D02*
X162863408Y-117731371D01*
X162863408Y-117731371D02*
X162939598Y-117759942D01*
X162939598Y-117759942D02*
X162977693Y-117788514D01*
X162977693Y-117788514D02*
X163015789Y-117845657D01*
X163015789Y-117845657D02*
X163015789Y-117931371D01*
X163015789Y-117931371D02*
X162977693Y-117988514D01*
X162977693Y-117988514D02*
X162939598Y-118017085D01*
X162939598Y-118017085D02*
X162863408Y-118045657D01*
X162863408Y-118045657D02*
X162558646Y-118045657D01*
X163320550Y-118302800D02*
X163434836Y-118331371D01*
X163434836Y-118331371D02*
X163625312Y-118331371D01*
X163625312Y-118331371D02*
X163701503Y-118302800D01*
X163701503Y-118302800D02*
X163739598Y-118274228D01*
X163739598Y-118274228D02*
X163777693Y-118217085D01*
X163777693Y-118217085D02*
X163777693Y-118159942D01*
X163777693Y-118159942D02*
X163739598Y-118102800D01*
X163739598Y-118102800D02*
X163701503Y-118074228D01*
X163701503Y-118074228D02*
X163625312Y-118045657D01*
X163625312Y-118045657D02*
X163472931Y-118017085D01*
X163472931Y-118017085D02*
X163396741Y-117988514D01*
X163396741Y-117988514D02*
X163358646Y-117959942D01*
X163358646Y-117959942D02*
X163320550Y-117902800D01*
X163320550Y-117902800D02*
X163320550Y-117845657D01*
X163320550Y-117845657D02*
X163358646Y-117788514D01*
X163358646Y-117788514D02*
X163396741Y-117759942D01*
X163396741Y-117759942D02*
X163472931Y-117731371D01*
X163472931Y-117731371D02*
X163663408Y-117731371D01*
X163663408Y-117731371D02*
X163777693Y-117759942D01*
X164006265Y-117731371D02*
X164463408Y-117731371D01*
X164234836Y-118331371D02*
X164234836Y-117731371D01*
X159282456Y-113331371D02*
X159282456Y-112731371D01*
X159282456Y-112731371D02*
X159549122Y-113159942D01*
X159549122Y-113159942D02*
X159815789Y-112731371D01*
X159815789Y-112731371D02*
X159815789Y-113331371D01*
X160653885Y-113274228D02*
X160615789Y-113302800D01*
X160615789Y-113302800D02*
X160501504Y-113331371D01*
X160501504Y-113331371D02*
X160425313Y-113331371D01*
X160425313Y-113331371D02*
X160311027Y-113302800D01*
X160311027Y-113302800D02*
X160234837Y-113245657D01*
X160234837Y-113245657D02*
X160196742Y-113188514D01*
X160196742Y-113188514D02*
X160158646Y-113074228D01*
X160158646Y-113074228D02*
X160158646Y-112988514D01*
X160158646Y-112988514D02*
X160196742Y-112874228D01*
X160196742Y-112874228D02*
X160234837Y-112817085D01*
X160234837Y-112817085D02*
X160311027Y-112759942D01*
X160311027Y-112759942D02*
X160425313Y-112731371D01*
X160425313Y-112731371D02*
X160501504Y-112731371D01*
X160501504Y-112731371D02*
X160615789Y-112759942D01*
X160615789Y-112759942D02*
X160653885Y-112788514D01*
X160996742Y-112731371D02*
X160996742Y-113217085D01*
X160996742Y-113217085D02*
X161034837Y-113274228D01*
X161034837Y-113274228D02*
X161072932Y-113302800D01*
X161072932Y-113302800D02*
X161149123Y-113331371D01*
X161149123Y-113331371D02*
X161301504Y-113331371D01*
X161301504Y-113331371D02*
X161377694Y-113302800D01*
X161377694Y-113302800D02*
X161415789Y-113274228D01*
X161415789Y-113274228D02*
X161453885Y-113217085D01*
X161453885Y-113217085D02*
X161453885Y-112731371D01*
X161644361Y-113388514D02*
X162253884Y-113388514D01*
X162330075Y-112731371D02*
X162596742Y-113331371D01*
X162596742Y-113331371D02*
X162863408Y-112731371D01*
X163130075Y-113331371D02*
X163130075Y-112731371D01*
X163130075Y-112731371D02*
X163320551Y-112731371D01*
X163320551Y-112731371D02*
X163434837Y-112759942D01*
X163434837Y-112759942D02*
X163511027Y-112817085D01*
X163511027Y-112817085D02*
X163549122Y-112874228D01*
X163549122Y-112874228D02*
X163587218Y-112988514D01*
X163587218Y-112988514D02*
X163587218Y-113074228D01*
X163587218Y-113074228D02*
X163549122Y-113188514D01*
X163549122Y-113188514D02*
X163511027Y-113245657D01*
X163511027Y-113245657D02*
X163434837Y-113302800D01*
X163434837Y-113302800D02*
X163320551Y-113331371D01*
X163320551Y-113331371D02*
X163130075Y-113331371D01*
X163930075Y-113331371D02*
X163930075Y-112731371D01*
X163930075Y-112731371D02*
X164120551Y-112731371D01*
X164120551Y-112731371D02*
X164234837Y-112759942D01*
X164234837Y-112759942D02*
X164311027Y-112817085D01*
X164311027Y-112817085D02*
X164349122Y-112874228D01*
X164349122Y-112874228D02*
X164387218Y-112988514D01*
X164387218Y-112988514D02*
X164387218Y-113074228D01*
X164387218Y-113074228D02*
X164349122Y-113188514D01*
X164349122Y-113188514D02*
X164311027Y-113245657D01*
X164311027Y-113245657D02*
X164234837Y-113302800D01*
X164234837Y-113302800D02*
X164120551Y-113331371D01*
X164120551Y-113331371D02*
X163930075Y-113331371D01*
X106264836Y-114021371D02*
X106264836Y-114449942D01*
X106264836Y-114449942D02*
X106226741Y-114535657D01*
X106226741Y-114535657D02*
X106150550Y-114592800D01*
X106150550Y-114592800D02*
X106036265Y-114621371D01*
X106036265Y-114621371D02*
X105960074Y-114621371D01*
X106531503Y-114021371D02*
X106988646Y-114021371D01*
X106760074Y-114621371D02*
X106760074Y-114021371D01*
X107712456Y-114564228D02*
X107674360Y-114592800D01*
X107674360Y-114592800D02*
X107560075Y-114621371D01*
X107560075Y-114621371D02*
X107483884Y-114621371D01*
X107483884Y-114621371D02*
X107369598Y-114592800D01*
X107369598Y-114592800D02*
X107293408Y-114535657D01*
X107293408Y-114535657D02*
X107255313Y-114478514D01*
X107255313Y-114478514D02*
X107217217Y-114364228D01*
X107217217Y-114364228D02*
X107217217Y-114278514D01*
X107217217Y-114278514D02*
X107255313Y-114164228D01*
X107255313Y-114164228D02*
X107293408Y-114107085D01*
X107293408Y-114107085D02*
X107369598Y-114049942D01*
X107369598Y-114049942D02*
X107483884Y-114021371D01*
X107483884Y-114021371D02*
X107560075Y-114021371D01*
X107560075Y-114021371D02*
X107674360Y-114049942D01*
X107674360Y-114049942D02*
X107712456Y-114078514D01*
X108055313Y-114621371D02*
X108055313Y-114021371D01*
X108512456Y-114621371D02*
X108169598Y-114278514D01*
X108512456Y-114021371D02*
X108055313Y-114364228D01*
X106264836Y-116521371D02*
X106264836Y-116949942D01*
X106264836Y-116949942D02*
X106226741Y-117035657D01*
X106226741Y-117035657D02*
X106150550Y-117092800D01*
X106150550Y-117092800D02*
X106036265Y-117121371D01*
X106036265Y-117121371D02*
X105960074Y-117121371D01*
X106531503Y-116521371D02*
X106988646Y-116521371D01*
X106760074Y-117121371D02*
X106760074Y-116521371D01*
X107255313Y-117121371D02*
X107255313Y-116521371D01*
X107255313Y-116521371D02*
X107445789Y-116521371D01*
X107445789Y-116521371D02*
X107560075Y-116549942D01*
X107560075Y-116549942D02*
X107636265Y-116607085D01*
X107636265Y-116607085D02*
X107674360Y-116664228D01*
X107674360Y-116664228D02*
X107712456Y-116778514D01*
X107712456Y-116778514D02*
X107712456Y-116864228D01*
X107712456Y-116864228D02*
X107674360Y-116978514D01*
X107674360Y-116978514D02*
X107636265Y-117035657D01*
X107636265Y-117035657D02*
X107560075Y-117092800D01*
X107560075Y-117092800D02*
X107445789Y-117121371D01*
X107445789Y-117121371D02*
X107255313Y-117121371D01*
X108055313Y-117121371D02*
X108055313Y-116521371D01*
X106264836Y-115271371D02*
X106264836Y-115699942D01*
X106264836Y-115699942D02*
X106226741Y-115785657D01*
X106226741Y-115785657D02*
X106150550Y-115842800D01*
X106150550Y-115842800D02*
X106036265Y-115871371D01*
X106036265Y-115871371D02*
X105960074Y-115871371D01*
X106531503Y-115271371D02*
X106988646Y-115271371D01*
X106760074Y-115871371D02*
X106760074Y-115271371D01*
X107255313Y-115871371D02*
X107255313Y-115271371D01*
X107255313Y-115271371D02*
X107445789Y-115271371D01*
X107445789Y-115271371D02*
X107560075Y-115299942D01*
X107560075Y-115299942D02*
X107636265Y-115357085D01*
X107636265Y-115357085D02*
X107674360Y-115414228D01*
X107674360Y-115414228D02*
X107712456Y-115528514D01*
X107712456Y-115528514D02*
X107712456Y-115614228D01*
X107712456Y-115614228D02*
X107674360Y-115728514D01*
X107674360Y-115728514D02*
X107636265Y-115785657D01*
X107636265Y-115785657D02*
X107560075Y-115842800D01*
X107560075Y-115842800D02*
X107445789Y-115871371D01*
X107445789Y-115871371D02*
X107255313Y-115871371D01*
X108207694Y-115271371D02*
X108360075Y-115271371D01*
X108360075Y-115271371D02*
X108436265Y-115299942D01*
X108436265Y-115299942D02*
X108512456Y-115357085D01*
X108512456Y-115357085D02*
X108550551Y-115471371D01*
X108550551Y-115471371D02*
X108550551Y-115671371D01*
X108550551Y-115671371D02*
X108512456Y-115785657D01*
X108512456Y-115785657D02*
X108436265Y-115842800D01*
X108436265Y-115842800D02*
X108360075Y-115871371D01*
X108360075Y-115871371D02*
X108207694Y-115871371D01*
X108207694Y-115871371D02*
X108131503Y-115842800D01*
X108131503Y-115842800D02*
X108055313Y-115785657D01*
X108055313Y-115785657D02*
X108017217Y-115671371D01*
X108017217Y-115671371D02*
X108017217Y-115471371D01*
X108017217Y-115471371D02*
X108055313Y-115357085D01*
X108055313Y-115357085D02*
X108131503Y-115299942D01*
X108131503Y-115299942D02*
X108207694Y-115271371D01*
X106036265Y-118371371D02*
X106036265Y-117771371D01*
X106036265Y-117771371D02*
X106493408Y-118371371D01*
X106493408Y-118371371D02*
X106493408Y-117771371D01*
X107331503Y-118371371D02*
X107064836Y-118085657D01*
X106874360Y-118371371D02*
X106874360Y-117771371D01*
X106874360Y-117771371D02*
X107179122Y-117771371D01*
X107179122Y-117771371D02*
X107255312Y-117799942D01*
X107255312Y-117799942D02*
X107293407Y-117828514D01*
X107293407Y-117828514D02*
X107331503Y-117885657D01*
X107331503Y-117885657D02*
X107331503Y-117971371D01*
X107331503Y-117971371D02*
X107293407Y-118028514D01*
X107293407Y-118028514D02*
X107255312Y-118057085D01*
X107255312Y-118057085D02*
X107179122Y-118085657D01*
X107179122Y-118085657D02*
X106874360Y-118085657D01*
X107636264Y-118342800D02*
X107750550Y-118371371D01*
X107750550Y-118371371D02*
X107941026Y-118371371D01*
X107941026Y-118371371D02*
X108017217Y-118342800D01*
X108017217Y-118342800D02*
X108055312Y-118314228D01*
X108055312Y-118314228D02*
X108093407Y-118257085D01*
X108093407Y-118257085D02*
X108093407Y-118199942D01*
X108093407Y-118199942D02*
X108055312Y-118142800D01*
X108055312Y-118142800D02*
X108017217Y-118114228D01*
X108017217Y-118114228D02*
X107941026Y-118085657D01*
X107941026Y-118085657D02*
X107788645Y-118057085D01*
X107788645Y-118057085D02*
X107712455Y-118028514D01*
X107712455Y-118028514D02*
X107674360Y-117999942D01*
X107674360Y-117999942D02*
X107636264Y-117942800D01*
X107636264Y-117942800D02*
X107636264Y-117885657D01*
X107636264Y-117885657D02*
X107674360Y-117828514D01*
X107674360Y-117828514D02*
X107712455Y-117799942D01*
X107712455Y-117799942D02*
X107788645Y-117771371D01*
X107788645Y-117771371D02*
X107979122Y-117771371D01*
X107979122Y-117771371D02*
X108093407Y-117799942D01*
X108321979Y-117771371D02*
X108779122Y-117771371D01*
X108550550Y-118371371D02*
X108550550Y-117771371D01*
X106264836Y-112771371D02*
X106264836Y-113199942D01*
X106264836Y-113199942D02*
X106226741Y-113285657D01*
X106226741Y-113285657D02*
X106150550Y-113342800D01*
X106150550Y-113342800D02*
X106036265Y-113371371D01*
X106036265Y-113371371D02*
X105960074Y-113371371D01*
X106531503Y-112771371D02*
X106988646Y-112771371D01*
X106760074Y-113371371D02*
X106760074Y-112771371D01*
X107255313Y-113371371D02*
X107255313Y-112771371D01*
X107255313Y-112771371D02*
X107521979Y-113199942D01*
X107521979Y-113199942D02*
X107788646Y-112771371D01*
X107788646Y-112771371D02*
X107788646Y-113371371D01*
X108131503Y-113342800D02*
X108245789Y-113371371D01*
X108245789Y-113371371D02*
X108436265Y-113371371D01*
X108436265Y-113371371D02*
X108512456Y-113342800D01*
X108512456Y-113342800D02*
X108550551Y-113314228D01*
X108550551Y-113314228D02*
X108588646Y-113257085D01*
X108588646Y-113257085D02*
X108588646Y-113199942D01*
X108588646Y-113199942D02*
X108550551Y-113142800D01*
X108550551Y-113142800D02*
X108512456Y-113114228D01*
X108512456Y-113114228D02*
X108436265Y-113085657D01*
X108436265Y-113085657D02*
X108283884Y-113057085D01*
X108283884Y-113057085D02*
X108207694Y-113028514D01*
X108207694Y-113028514D02*
X108169599Y-112999942D01*
X108169599Y-112999942D02*
X108131503Y-112942800D01*
X108131503Y-112942800D02*
X108131503Y-112885657D01*
X108131503Y-112885657D02*
X108169599Y-112828514D01*
X108169599Y-112828514D02*
X108207694Y-112799942D01*
X108207694Y-112799942D02*
X108283884Y-112771371D01*
X108283884Y-112771371D02*
X108474361Y-112771371D01*
X108474361Y-112771371D02*
X108588646Y-112799942D01*
X130956265Y-120811371D02*
X130956265Y-120211371D01*
X130956265Y-120211371D02*
X131413408Y-120811371D01*
X131413408Y-120811371D02*
X131413408Y-120211371D01*
X132251503Y-120811371D02*
X131984836Y-120525657D01*
X131794360Y-120811371D02*
X131794360Y-120211371D01*
X131794360Y-120211371D02*
X132099122Y-120211371D01*
X132099122Y-120211371D02*
X132175312Y-120239942D01*
X132175312Y-120239942D02*
X132213407Y-120268514D01*
X132213407Y-120268514D02*
X132251503Y-120325657D01*
X132251503Y-120325657D02*
X132251503Y-120411371D01*
X132251503Y-120411371D02*
X132213407Y-120468514D01*
X132213407Y-120468514D02*
X132175312Y-120497085D01*
X132175312Y-120497085D02*
X132099122Y-120525657D01*
X132099122Y-120525657D02*
X131794360Y-120525657D01*
X132556264Y-120782800D02*
X132670550Y-120811371D01*
X132670550Y-120811371D02*
X132861026Y-120811371D01*
X132861026Y-120811371D02*
X132937217Y-120782800D01*
X132937217Y-120782800D02*
X132975312Y-120754228D01*
X132975312Y-120754228D02*
X133013407Y-120697085D01*
X133013407Y-120697085D02*
X133013407Y-120639942D01*
X133013407Y-120639942D02*
X132975312Y-120582800D01*
X132975312Y-120582800D02*
X132937217Y-120554228D01*
X132937217Y-120554228D02*
X132861026Y-120525657D01*
X132861026Y-120525657D02*
X132708645Y-120497085D01*
X132708645Y-120497085D02*
X132632455Y-120468514D01*
X132632455Y-120468514D02*
X132594360Y-120439942D01*
X132594360Y-120439942D02*
X132556264Y-120382800D01*
X132556264Y-120382800D02*
X132556264Y-120325657D01*
X132556264Y-120325657D02*
X132594360Y-120268514D01*
X132594360Y-120268514D02*
X132632455Y-120239942D01*
X132632455Y-120239942D02*
X132708645Y-120211371D01*
X132708645Y-120211371D02*
X132899122Y-120211371D01*
X132899122Y-120211371D02*
X133013407Y-120239942D01*
X133241979Y-120211371D02*
X133699122Y-120211371D01*
X133470550Y-120811371D02*
X133470550Y-120211371D01*
D11*
%TO.C,J15*%
X105350000Y-112395000D02*
X105350000Y-118745000D01*
X103810000Y-112395000D02*
X105350000Y-112395000D01*
X101450000Y-112395000D02*
X103810000Y-112395000D01*
X99990000Y-112395000D02*
X101450000Y-112395000D01*
X99990000Y-112395000D02*
X99990000Y-118745000D01*
X103810000Y-118745000D02*
X105350000Y-118745000D01*
X101450000Y-118745000D02*
X103810000Y-118745000D01*
X99990000Y-118745000D02*
X101450000Y-118745000D01*
%TO.C,J14*%
X115510000Y-109165000D02*
X116840000Y-109165000D01*
X115510000Y-110495000D02*
X115510000Y-109165000D01*
X115510000Y-111765000D02*
X115510000Y-121985000D01*
X115510000Y-111765000D02*
X118110000Y-111765000D01*
X115510000Y-121985000D02*
X120710000Y-121985000D01*
X118110000Y-109165000D02*
X120710000Y-109165000D01*
X118110000Y-111765000D02*
X118110000Y-109165000D01*
X120710000Y-109165000D02*
X120710000Y-121985000D01*
%TO.C,J11*%
X151070000Y-109165000D02*
X152400000Y-109165000D01*
X151070000Y-110495000D02*
X151070000Y-109165000D01*
X151070000Y-111765000D02*
X151070000Y-121985000D01*
X151070000Y-111765000D02*
X153730000Y-111765000D01*
X151070000Y-121985000D02*
X153730000Y-121985000D01*
X153730000Y-111765000D02*
X153730000Y-121985000D01*
%TO.C,J10*%
X170120000Y-112400000D02*
X170120000Y-118750000D01*
X168580000Y-112400000D02*
X170120000Y-112400000D01*
X166220000Y-112400000D02*
X168580000Y-112400000D01*
X164760000Y-112400000D02*
X166220000Y-112400000D01*
X164760000Y-112400000D02*
X164760000Y-118750000D01*
X168580000Y-118750000D02*
X170120000Y-118750000D01*
X166220000Y-118750000D02*
X168580000Y-118750000D01*
X164760000Y-118750000D02*
X166220000Y-118750000D01*
%TO.C,J5*%
X134555000Y-101545000D02*
X135885000Y-101545000D01*
X134555000Y-102875000D02*
X134555000Y-101545000D01*
X134555000Y-104145000D02*
X134555000Y-127065000D01*
X134555000Y-104145000D02*
X137155000Y-104145000D01*
X134555000Y-127065000D02*
X139755000Y-127065000D01*
X137155000Y-101545000D02*
X139755000Y-101545000D01*
X137155000Y-104145000D02*
X137155000Y-101545000D01*
X139755000Y-101545000D02*
X139755000Y-127065000D01*
%TD*%
M02*
