M48
; DRILL file {KiCad 9.0.0} date 2025-03-31T22:32:46+0800
; FORMAT={-:-/ absolute / metric / decimal}
; #@! TF.CreationDate,2025-03-31T22:32:46+08:00
; #@! TF.GenerationSoftware,Kicad,Pcbnew,9.0.0
; #@! TF.FileFunction,Plated,1,2,PTH
FMAT,2
METRIC
; #@! TA.AperFunction,Plated,PTH,ViaDrill
T1C0.600
; #@! TA.AperFunction,Plated,PTH,ComponentDrill
T2C1.000
%
G90
G05
T1
X127.16Y-118.12
T2
X116.84Y-110.495
X116.84Y-113.035
X116.84Y-115.575
X116.84Y-118.115
X116.84Y-120.655
X119.38Y-110.495
X119.38Y-113.035
X119.38Y-115.575
X119.38Y-118.115
X119.38Y-120.655
X135.885Y-102.875
X135.885Y-105.415
X135.885Y-107.955
X135.885Y-110.495
X135.885Y-113.035
X135.885Y-115.575
X135.885Y-118.115
X135.885Y-120.655
X135.885Y-123.195
X135.885Y-125.735
X138.425Y-102.875
X138.425Y-105.415
X138.425Y-107.955
X138.425Y-110.495
X138.425Y-113.035
X138.425Y-115.575
X138.425Y-118.115
X138.425Y-120.655
X138.425Y-123.195
X138.425Y-125.735
X152.4Y-110.495
X152.4Y-113.035
X152.4Y-115.575
X152.4Y-118.115
X152.4Y-120.655
M30
