M48
; DRILL file {KiCad 8.0.5} date 2024-10-02T17:57:57+0800
; FORMAT={-:-/ absolute / inch / decimal}
; #@! TF.CreationDate,2024-10-02T17:57:57+08:00
; #@! TF.GenerationSoftware,Kicad,Pcbnew,8.0.5
; #@! TF.FileFunction,Plated,1,2,PTH
FMAT,2
INCH
; #@! TA.AperFunction,Plated,PTH,ViaDrill
T1C0.0118
; #@! TA.AperFunction,Plated,PTH,ComponentDrill
T2C0.0394
; #@! TA.AperFunction,Plated,PTH,ComponentDrill
T3C0.1260
%
G90
G05
T1
X3.5823Y-3.5579
X3.5823Y-3.7079
X3.5823Y-3.8579
X3.5823Y-4.0079
X3.5823Y-4.1579
X3.5823Y-4.3079
X3.6898Y-4.4602
X3.7492Y-3.7705
X3.7583Y-4.1087
X3.8205Y-3.6213
X3.8228Y-4.2575
X3.8398Y-4.4602
X3.9898Y-4.4602
X4.0449Y-4.252
X4.0484Y-3.6244
X4.098Y-4.1059
X4.1126Y-3.7709
X4.1398Y-4.4602
X4.2827Y-3.5736
X4.2827Y-3.7236
X4.2827Y-3.8736
X4.2827Y-4.0236
X4.2827Y-4.1736
X4.2827Y-4.3236
T2
X3.7402Y-3.4252
X4.1339Y-3.4252
T3
X3.937Y-3.937
M30
