G04 Layer: TopSilkscreenLayer*
G04 EasyEDA Pro v2.2.27.1, 2024-09-15 10:59:50*
G04 Gerber Generator version 0.3*
G04 Scale: 100 percent, Rotated: No, Reflected: No*
G04 Dimensions in millimeters*
G04 Leading zeros omitted, absolute positions, 3 integers and 5 decimals*
%TF.GenerationSoftware,KiCad,Pcbnew,8.0.7*%
%TF.CreationDate,2025-01-03T22:16:07+08:00*%
%TF.ProjectId,remote_fingers_ESP8266,72656d6f-7465-45f6-9669-6e676572735f,rev?*%
%TF.SameCoordinates,Original*%
%TF.FileFunction,Legend,Top*%
%TF.FilePolarity,Positive*%
%FSLAX46Y46*%
G04 Gerber Fmt 4.6, Leading zero omitted, Abs format (unit mm)*
G04 Created by KiCad (PCBNEW 8.0.7) date 2025-01-03 22:16:07*
%MOMM*%
%LPD*%
G01*
G04 APERTURE LIST*
%ADD10C,0.150000*%
%ADD11C,0.120000*%
G04 APERTURE END LIST*
D10*
X75289160Y-118322200D02*
X75384398Y-118369819D01*
X75384398Y-118369819D02*
X75574874Y-118369819D01*
X75574874Y-118369819D02*
X75670112Y-118322200D01*
X75670112Y-118322200D02*
X75717731Y-118226961D01*
X75717731Y-118226961D02*
X75717731Y-118179342D01*
X75717731Y-118179342D02*
X75670112Y-118084104D01*
X75670112Y-118084104D02*
X75574874Y-118036485D01*
X75574874Y-118036485D02*
X75432017Y-118036485D01*
X75432017Y-118036485D02*
X75336779Y-117988866D01*
X75336779Y-117988866D02*
X75289160Y-117893628D01*
X75289160Y-117893628D02*
X75289160Y-117846009D01*
X75289160Y-117846009D02*
X75336779Y-117750771D01*
X75336779Y-117750771D02*
X75432017Y-117703152D01*
X75432017Y-117703152D02*
X75574874Y-117703152D01*
X75574874Y-117703152D02*
X75670112Y-117750771D01*
X76527255Y-118322200D02*
X76432017Y-118369819D01*
X76432017Y-118369819D02*
X76241541Y-118369819D01*
X76241541Y-118369819D02*
X76146303Y-118322200D01*
X76146303Y-118322200D02*
X76098684Y-118226961D01*
X76098684Y-118226961D02*
X76098684Y-117846009D01*
X76098684Y-117846009D02*
X76146303Y-117750771D01*
X76146303Y-117750771D02*
X76241541Y-117703152D01*
X76241541Y-117703152D02*
X76432017Y-117703152D01*
X76432017Y-117703152D02*
X76527255Y-117750771D01*
X76527255Y-117750771D02*
X76574874Y-117846009D01*
X76574874Y-117846009D02*
X76574874Y-117941247D01*
X76574874Y-117941247D02*
X76098684Y-118036485D01*
X77003446Y-118369819D02*
X77003446Y-117703152D01*
X77003446Y-117893628D02*
X77051065Y-117798390D01*
X77051065Y-117798390D02*
X77098684Y-117750771D01*
X77098684Y-117750771D02*
X77193922Y-117703152D01*
X77193922Y-117703152D02*
X77289160Y-117703152D01*
X77527256Y-117703152D02*
X77765351Y-118369819D01*
X77765351Y-118369819D02*
X78003446Y-117703152D01*
X78527256Y-118369819D02*
X78432018Y-118322200D01*
X78432018Y-118322200D02*
X78384399Y-118274580D01*
X78384399Y-118274580D02*
X78336780Y-118179342D01*
X78336780Y-118179342D02*
X78336780Y-117893628D01*
X78336780Y-117893628D02*
X78384399Y-117798390D01*
X78384399Y-117798390D02*
X78432018Y-117750771D01*
X78432018Y-117750771D02*
X78527256Y-117703152D01*
X78527256Y-117703152D02*
X78670113Y-117703152D01*
X78670113Y-117703152D02*
X78765351Y-117750771D01*
X78765351Y-117750771D02*
X78812970Y-117798390D01*
X78812970Y-117798390D02*
X78860589Y-117893628D01*
X78860589Y-117893628D02*
X78860589Y-118179342D01*
X78860589Y-118179342D02*
X78812970Y-118274580D01*
X78812970Y-118274580D02*
X78765351Y-118322200D01*
X78765351Y-118322200D02*
X78670113Y-118369819D01*
X78670113Y-118369819D02*
X78527256Y-118369819D01*
X79241542Y-118322200D02*
X79336780Y-118369819D01*
X79336780Y-118369819D02*
X79527256Y-118369819D01*
X79527256Y-118369819D02*
X79622494Y-118322200D01*
X79622494Y-118322200D02*
X79670113Y-118226961D01*
X79670113Y-118226961D02*
X79670113Y-118179342D01*
X79670113Y-118179342D02*
X79622494Y-118084104D01*
X79622494Y-118084104D02*
X79527256Y-118036485D01*
X79527256Y-118036485D02*
X79384399Y-118036485D01*
X79384399Y-118036485D02*
X79289161Y-117988866D01*
X79289161Y-117988866D02*
X79241542Y-117893628D01*
X79241542Y-117893628D02*
X79241542Y-117846009D01*
X79241542Y-117846009D02*
X79289161Y-117750771D01*
X79289161Y-117750771D02*
X79384399Y-117703152D01*
X79384399Y-117703152D02*
X79527256Y-117703152D01*
X79527256Y-117703152D02*
X79622494Y-117750771D01*
X91336779Y-118369819D02*
X91336779Y-117703152D01*
X91336779Y-117798390D02*
X91384398Y-117750771D01*
X91384398Y-117750771D02*
X91479636Y-117703152D01*
X91479636Y-117703152D02*
X91622493Y-117703152D01*
X91622493Y-117703152D02*
X91717731Y-117750771D01*
X91717731Y-117750771D02*
X91765350Y-117846009D01*
X91765350Y-117846009D02*
X91765350Y-118369819D01*
X91765350Y-117846009D02*
X91812969Y-117750771D01*
X91812969Y-117750771D02*
X91908207Y-117703152D01*
X91908207Y-117703152D02*
X92051064Y-117703152D01*
X92051064Y-117703152D02*
X92146303Y-117750771D01*
X92146303Y-117750771D02*
X92193922Y-117846009D01*
X92193922Y-117846009D02*
X92193922Y-118369819D01*
X92812969Y-118369819D02*
X92717731Y-118322200D01*
X92717731Y-118322200D02*
X92670112Y-118274580D01*
X92670112Y-118274580D02*
X92622493Y-118179342D01*
X92622493Y-118179342D02*
X92622493Y-117893628D01*
X92622493Y-117893628D02*
X92670112Y-117798390D01*
X92670112Y-117798390D02*
X92717731Y-117750771D01*
X92717731Y-117750771D02*
X92812969Y-117703152D01*
X92812969Y-117703152D02*
X92955826Y-117703152D01*
X92955826Y-117703152D02*
X93051064Y-117750771D01*
X93051064Y-117750771D02*
X93098683Y-117798390D01*
X93098683Y-117798390D02*
X93146302Y-117893628D01*
X93146302Y-117893628D02*
X93146302Y-118179342D01*
X93146302Y-118179342D02*
X93098683Y-118274580D01*
X93098683Y-118274580D02*
X93051064Y-118322200D01*
X93051064Y-118322200D02*
X92955826Y-118369819D01*
X92955826Y-118369819D02*
X92812969Y-118369819D01*
X94003445Y-118369819D02*
X94003445Y-117369819D01*
X94003445Y-118322200D02*
X93908207Y-118369819D01*
X93908207Y-118369819D02*
X93717731Y-118369819D01*
X93717731Y-118369819D02*
X93622493Y-118322200D01*
X93622493Y-118322200D02*
X93574874Y-118274580D01*
X93574874Y-118274580D02*
X93527255Y-118179342D01*
X93527255Y-118179342D02*
X93527255Y-117893628D01*
X93527255Y-117893628D02*
X93574874Y-117798390D01*
X93574874Y-117798390D02*
X93622493Y-117750771D01*
X93622493Y-117750771D02*
X93717731Y-117703152D01*
X93717731Y-117703152D02*
X93908207Y-117703152D01*
X93908207Y-117703152D02*
X94003445Y-117750771D01*
X94860588Y-118322200D02*
X94765350Y-118369819D01*
X94765350Y-118369819D02*
X94574874Y-118369819D01*
X94574874Y-118369819D02*
X94479636Y-118322200D01*
X94479636Y-118322200D02*
X94432017Y-118226961D01*
X94432017Y-118226961D02*
X94432017Y-117846009D01*
X94432017Y-117846009D02*
X94479636Y-117750771D01*
X94479636Y-117750771D02*
X94574874Y-117703152D01*
X94574874Y-117703152D02*
X94765350Y-117703152D01*
X94765350Y-117703152D02*
X94860588Y-117750771D01*
X94860588Y-117750771D02*
X94908207Y-117846009D01*
X94908207Y-117846009D02*
X94908207Y-117941247D01*
X94908207Y-117941247D02*
X94432017Y-118036485D01*
X96765350Y-118369819D02*
X96765350Y-117369819D01*
X96765350Y-118322200D02*
X96670112Y-118369819D01*
X96670112Y-118369819D02*
X96479636Y-118369819D01*
X96479636Y-118369819D02*
X96384398Y-118322200D01*
X96384398Y-118322200D02*
X96336779Y-118274580D01*
X96336779Y-118274580D02*
X96289160Y-118179342D01*
X96289160Y-118179342D02*
X96289160Y-117893628D01*
X96289160Y-117893628D02*
X96336779Y-117798390D01*
X96336779Y-117798390D02*
X96384398Y-117750771D01*
X96384398Y-117750771D02*
X96479636Y-117703152D01*
X96479636Y-117703152D02*
X96670112Y-117703152D01*
X96670112Y-117703152D02*
X96765350Y-117750771D01*
X97384398Y-118369819D02*
X97289160Y-118322200D01*
X97289160Y-118322200D02*
X97241541Y-118274580D01*
X97241541Y-118274580D02*
X97193922Y-118179342D01*
X97193922Y-118179342D02*
X97193922Y-117893628D01*
X97193922Y-117893628D02*
X97241541Y-117798390D01*
X97241541Y-117798390D02*
X97289160Y-117750771D01*
X97289160Y-117750771D02*
X97384398Y-117703152D01*
X97384398Y-117703152D02*
X97527255Y-117703152D01*
X97527255Y-117703152D02*
X97622493Y-117750771D01*
X97622493Y-117750771D02*
X97670112Y-117798390D01*
X97670112Y-117798390D02*
X97717731Y-117893628D01*
X97717731Y-117893628D02*
X97717731Y-118179342D01*
X97717731Y-118179342D02*
X97670112Y-118274580D01*
X97670112Y-118274580D02*
X97622493Y-118322200D01*
X97622493Y-118322200D02*
X97527255Y-118369819D01*
X97527255Y-118369819D02*
X97384398Y-118369819D01*
X98051065Y-117703152D02*
X98241541Y-118369819D01*
X98241541Y-118369819D02*
X98432017Y-117893628D01*
X98432017Y-117893628D02*
X98622493Y-118369819D01*
X98622493Y-118369819D02*
X98812969Y-117703152D01*
X99193922Y-117703152D02*
X99193922Y-118369819D01*
X99193922Y-117798390D02*
X99241541Y-117750771D01*
X99241541Y-117750771D02*
X99336779Y-117703152D01*
X99336779Y-117703152D02*
X99479636Y-117703152D01*
X99479636Y-117703152D02*
X99574874Y-117750771D01*
X99574874Y-117750771D02*
X99622493Y-117846009D01*
X99622493Y-117846009D02*
X99622493Y-118369819D01*
X100241541Y-118369819D02*
X100146303Y-118322200D01*
X100146303Y-118322200D02*
X100098684Y-118226961D01*
X100098684Y-118226961D02*
X100098684Y-117369819D01*
X100765351Y-118369819D02*
X100670113Y-118322200D01*
X100670113Y-118322200D02*
X100622494Y-118274580D01*
X100622494Y-118274580D02*
X100574875Y-118179342D01*
X100574875Y-118179342D02*
X100574875Y-117893628D01*
X100574875Y-117893628D02*
X100622494Y-117798390D01*
X100622494Y-117798390D02*
X100670113Y-117750771D01*
X100670113Y-117750771D02*
X100765351Y-117703152D01*
X100765351Y-117703152D02*
X100908208Y-117703152D01*
X100908208Y-117703152D02*
X101003446Y-117750771D01*
X101003446Y-117750771D02*
X101051065Y-117798390D01*
X101051065Y-117798390D02*
X101098684Y-117893628D01*
X101098684Y-117893628D02*
X101098684Y-118179342D01*
X101098684Y-118179342D02*
X101051065Y-118274580D01*
X101051065Y-118274580D02*
X101003446Y-118322200D01*
X101003446Y-118322200D02*
X100908208Y-118369819D01*
X100908208Y-118369819D02*
X100765351Y-118369819D01*
X101955827Y-118369819D02*
X101955827Y-117846009D01*
X101955827Y-117846009D02*
X101908208Y-117750771D01*
X101908208Y-117750771D02*
X101812970Y-117703152D01*
X101812970Y-117703152D02*
X101622494Y-117703152D01*
X101622494Y-117703152D02*
X101527256Y-117750771D01*
X101955827Y-118322200D02*
X101860589Y-118369819D01*
X101860589Y-118369819D02*
X101622494Y-118369819D01*
X101622494Y-118369819D02*
X101527256Y-118322200D01*
X101527256Y-118322200D02*
X101479637Y-118226961D01*
X101479637Y-118226961D02*
X101479637Y-118131723D01*
X101479637Y-118131723D02*
X101527256Y-118036485D01*
X101527256Y-118036485D02*
X101622494Y-117988866D01*
X101622494Y-117988866D02*
X101860589Y-117988866D01*
X101860589Y-117988866D02*
X101955827Y-117941247D01*
X102860589Y-118369819D02*
X102860589Y-117369819D01*
X102860589Y-118322200D02*
X102765351Y-118369819D01*
X102765351Y-118369819D02*
X102574875Y-118369819D01*
X102574875Y-118369819D02*
X102479637Y-118322200D01*
X102479637Y-118322200D02*
X102432018Y-118274580D01*
X102432018Y-118274580D02*
X102384399Y-118179342D01*
X102384399Y-118179342D02*
X102384399Y-117893628D01*
X102384399Y-117893628D02*
X102432018Y-117798390D01*
X102432018Y-117798390D02*
X102479637Y-117750771D01*
X102479637Y-117750771D02*
X102574875Y-117703152D01*
X102574875Y-117703152D02*
X102765351Y-117703152D01*
X102765351Y-117703152D02*
X102860589Y-117750771D01*
X101170112Y-113650414D02*
X101598684Y-113650414D01*
X101384398Y-114400414D02*
X101384398Y-113650414D01*
X101777255Y-113650414D02*
X102277255Y-114400414D01*
X102277255Y-113650414D02*
X101777255Y-114400414D01*
X102562970Y-114400414D02*
X102562970Y-113650414D01*
X102562970Y-113650414D02*
X102741541Y-113650414D01*
X102741541Y-113650414D02*
X102848684Y-113686128D01*
X102848684Y-113686128D02*
X102920113Y-113757557D01*
X102920113Y-113757557D02*
X102955827Y-113828985D01*
X102955827Y-113828985D02*
X102991541Y-113971842D01*
X102991541Y-113971842D02*
X102991541Y-114078985D01*
X102991541Y-114078985D02*
X102955827Y-114221842D01*
X102955827Y-114221842D02*
X102920113Y-114293271D01*
X102920113Y-114293271D02*
X102848684Y-114364700D01*
X102848684Y-114364700D02*
X102741541Y-114400414D01*
X102741541Y-114400414D02*
X102562970Y-114400414D01*
X99205826Y-114400414D02*
X98955826Y-114043271D01*
X98777255Y-114400414D02*
X98777255Y-113650414D01*
X98777255Y-113650414D02*
X99062969Y-113650414D01*
X99062969Y-113650414D02*
X99134398Y-113686128D01*
X99134398Y-113686128D02*
X99170112Y-113721842D01*
X99170112Y-113721842D02*
X99205826Y-113793271D01*
X99205826Y-113793271D02*
X99205826Y-113900414D01*
X99205826Y-113900414D02*
X99170112Y-113971842D01*
X99170112Y-113971842D02*
X99134398Y-114007557D01*
X99134398Y-114007557D02*
X99062969Y-114043271D01*
X99062969Y-114043271D02*
X98777255Y-114043271D01*
X99455826Y-113650414D02*
X99955826Y-114400414D01*
X99955826Y-113650414D02*
X99455826Y-114400414D01*
X100241541Y-114400414D02*
X100241541Y-113650414D01*
X100241541Y-113650414D02*
X100420112Y-113650414D01*
X100420112Y-113650414D02*
X100527255Y-113686128D01*
X100527255Y-113686128D02*
X100598684Y-113757557D01*
X100598684Y-113757557D02*
X100634398Y-113828985D01*
X100634398Y-113828985D02*
X100670112Y-113971842D01*
X100670112Y-113971842D02*
X100670112Y-114078985D01*
X100670112Y-114078985D02*
X100634398Y-114221842D01*
X100634398Y-114221842D02*
X100598684Y-114293271D01*
X100598684Y-114293271D02*
X100527255Y-114364700D01*
X100527255Y-114364700D02*
X100420112Y-114400414D01*
X100420112Y-114400414D02*
X100241541Y-114400414D01*
X96670112Y-113686128D02*
X96598684Y-113650414D01*
X96598684Y-113650414D02*
X96491541Y-113650414D01*
X96491541Y-113650414D02*
X96384398Y-113686128D01*
X96384398Y-113686128D02*
X96312969Y-113757557D01*
X96312969Y-113757557D02*
X96277255Y-113828985D01*
X96277255Y-113828985D02*
X96241541Y-113971842D01*
X96241541Y-113971842D02*
X96241541Y-114078985D01*
X96241541Y-114078985D02*
X96277255Y-114221842D01*
X96277255Y-114221842D02*
X96312969Y-114293271D01*
X96312969Y-114293271D02*
X96384398Y-114364700D01*
X96384398Y-114364700D02*
X96491541Y-114400414D01*
X96491541Y-114400414D02*
X96562969Y-114400414D01*
X96562969Y-114400414D02*
X96670112Y-114364700D01*
X96670112Y-114364700D02*
X96705826Y-114328985D01*
X96705826Y-114328985D02*
X96705826Y-114078985D01*
X96705826Y-114078985D02*
X96562969Y-114078985D01*
X97027255Y-114400414D02*
X97027255Y-113650414D01*
X97027255Y-113650414D02*
X97455826Y-114400414D01*
X97455826Y-114400414D02*
X97455826Y-113650414D01*
X97812969Y-114400414D02*
X97812969Y-113650414D01*
X97812969Y-113650414D02*
X97991540Y-113650414D01*
X97991540Y-113650414D02*
X98098683Y-113686128D01*
X98098683Y-113686128D02*
X98170112Y-113757557D01*
X98170112Y-113757557D02*
X98205826Y-113828985D01*
X98205826Y-113828985D02*
X98241540Y-113971842D01*
X98241540Y-113971842D02*
X98241540Y-114078985D01*
X98241540Y-114078985D02*
X98205826Y-114221842D01*
X98205826Y-114221842D02*
X98170112Y-114293271D01*
X98170112Y-114293271D02*
X98098683Y-114364700D01*
X98098683Y-114364700D02*
X97991540Y-114400414D01*
X97991540Y-114400414D02*
X97812969Y-114400414D01*
X93777255Y-114400414D02*
X93777255Y-113650414D01*
X94277255Y-113650414D02*
X94420112Y-113650414D01*
X94420112Y-113650414D02*
X94491541Y-113686128D01*
X94491541Y-113686128D02*
X94562969Y-113757557D01*
X94562969Y-113757557D02*
X94598684Y-113900414D01*
X94598684Y-113900414D02*
X94598684Y-114150414D01*
X94598684Y-114150414D02*
X94562969Y-114293271D01*
X94562969Y-114293271D02*
X94491541Y-114364700D01*
X94491541Y-114364700D02*
X94420112Y-114400414D01*
X94420112Y-114400414D02*
X94277255Y-114400414D01*
X94277255Y-114400414D02*
X94205827Y-114364700D01*
X94205827Y-114364700D02*
X94134398Y-114293271D01*
X94134398Y-114293271D02*
X94098684Y-114150414D01*
X94098684Y-114150414D02*
X94098684Y-113900414D01*
X94098684Y-113900414D02*
X94134398Y-113757557D01*
X94134398Y-113757557D02*
X94205827Y-113686128D01*
X94205827Y-113686128D02*
X94277255Y-113650414D01*
X95062969Y-113650414D02*
X95134398Y-113650414D01*
X95134398Y-113650414D02*
X95205826Y-113686128D01*
X95205826Y-113686128D02*
X95241541Y-113721842D01*
X95241541Y-113721842D02*
X95277255Y-113793271D01*
X95277255Y-113793271D02*
X95312969Y-113936128D01*
X95312969Y-113936128D02*
X95312969Y-114114700D01*
X95312969Y-114114700D02*
X95277255Y-114257557D01*
X95277255Y-114257557D02*
X95241541Y-114328985D01*
X95241541Y-114328985D02*
X95205826Y-114364700D01*
X95205826Y-114364700D02*
X95134398Y-114400414D01*
X95134398Y-114400414D02*
X95062969Y-114400414D01*
X95062969Y-114400414D02*
X94991541Y-114364700D01*
X94991541Y-114364700D02*
X94955826Y-114328985D01*
X94955826Y-114328985D02*
X94920112Y-114257557D01*
X94920112Y-114257557D02*
X94884398Y-114114700D01*
X94884398Y-114114700D02*
X94884398Y-113936128D01*
X94884398Y-113936128D02*
X94920112Y-113793271D01*
X94920112Y-113793271D02*
X94955826Y-113721842D01*
X94955826Y-113721842D02*
X94991541Y-113686128D01*
X94991541Y-113686128D02*
X95062969Y-113650414D01*
X91170112Y-113686128D02*
X91098684Y-113650414D01*
X91098684Y-113650414D02*
X90991541Y-113650414D01*
X90991541Y-113650414D02*
X90884398Y-113686128D01*
X90884398Y-113686128D02*
X90812969Y-113757557D01*
X90812969Y-113757557D02*
X90777255Y-113828985D01*
X90777255Y-113828985D02*
X90741541Y-113971842D01*
X90741541Y-113971842D02*
X90741541Y-114078985D01*
X90741541Y-114078985D02*
X90777255Y-114221842D01*
X90777255Y-114221842D02*
X90812969Y-114293271D01*
X90812969Y-114293271D02*
X90884398Y-114364700D01*
X90884398Y-114364700D02*
X90991541Y-114400414D01*
X90991541Y-114400414D02*
X91062969Y-114400414D01*
X91062969Y-114400414D02*
X91170112Y-114364700D01*
X91170112Y-114364700D02*
X91205826Y-114328985D01*
X91205826Y-114328985D02*
X91205826Y-114078985D01*
X91205826Y-114078985D02*
X91062969Y-114078985D01*
X91527255Y-114400414D02*
X91527255Y-113650414D01*
X91527255Y-113650414D02*
X91955826Y-114400414D01*
X91955826Y-114400414D02*
X91955826Y-113650414D01*
X92312969Y-114400414D02*
X92312969Y-113650414D01*
X92312969Y-113650414D02*
X92491540Y-113650414D01*
X92491540Y-113650414D02*
X92598683Y-113686128D01*
X92598683Y-113686128D02*
X92670112Y-113757557D01*
X92670112Y-113757557D02*
X92705826Y-113828985D01*
X92705826Y-113828985D02*
X92741540Y-113971842D01*
X92741540Y-113971842D02*
X92741540Y-114078985D01*
X92741540Y-114078985D02*
X92705826Y-114221842D01*
X92705826Y-114221842D02*
X92670112Y-114293271D01*
X92670112Y-114293271D02*
X92598683Y-114364700D01*
X92598683Y-114364700D02*
X92491540Y-114400414D01*
X92491540Y-114400414D02*
X92312969Y-114400414D01*
X84277255Y-114400414D02*
X84277255Y-113650414D01*
X84777255Y-113650414D02*
X84920112Y-113650414D01*
X84920112Y-113650414D02*
X84991541Y-113686128D01*
X84991541Y-113686128D02*
X85062969Y-113757557D01*
X85062969Y-113757557D02*
X85098684Y-113900414D01*
X85098684Y-113900414D02*
X85098684Y-114150414D01*
X85098684Y-114150414D02*
X85062969Y-114293271D01*
X85062969Y-114293271D02*
X84991541Y-114364700D01*
X84991541Y-114364700D02*
X84920112Y-114400414D01*
X84920112Y-114400414D02*
X84777255Y-114400414D01*
X84777255Y-114400414D02*
X84705827Y-114364700D01*
X84705827Y-114364700D02*
X84634398Y-114293271D01*
X84634398Y-114293271D02*
X84598684Y-114150414D01*
X84598684Y-114150414D02*
X84598684Y-113900414D01*
X84598684Y-113900414D02*
X84634398Y-113757557D01*
X84634398Y-113757557D02*
X84705827Y-113686128D01*
X84705827Y-113686128D02*
X84777255Y-113650414D01*
X85777255Y-113650414D02*
X85420112Y-113650414D01*
X85420112Y-113650414D02*
X85384398Y-114007557D01*
X85384398Y-114007557D02*
X85420112Y-113971842D01*
X85420112Y-113971842D02*
X85491541Y-113936128D01*
X85491541Y-113936128D02*
X85670112Y-113936128D01*
X85670112Y-113936128D02*
X85741541Y-113971842D01*
X85741541Y-113971842D02*
X85777255Y-114007557D01*
X85777255Y-114007557D02*
X85812969Y-114078985D01*
X85812969Y-114078985D02*
X85812969Y-114257557D01*
X85812969Y-114257557D02*
X85777255Y-114328985D01*
X85777255Y-114328985D02*
X85741541Y-114364700D01*
X85741541Y-114364700D02*
X85670112Y-114400414D01*
X85670112Y-114400414D02*
X85491541Y-114400414D01*
X85491541Y-114400414D02*
X85420112Y-114364700D01*
X85420112Y-114364700D02*
X85384398Y-114328985D01*
X87170112Y-113686128D02*
X87098684Y-113650414D01*
X87098684Y-113650414D02*
X86991541Y-113650414D01*
X86991541Y-113650414D02*
X86884398Y-113686128D01*
X86884398Y-113686128D02*
X86812969Y-113757557D01*
X86812969Y-113757557D02*
X86777255Y-113828985D01*
X86777255Y-113828985D02*
X86741541Y-113971842D01*
X86741541Y-113971842D02*
X86741541Y-114078985D01*
X86741541Y-114078985D02*
X86777255Y-114221842D01*
X86777255Y-114221842D02*
X86812969Y-114293271D01*
X86812969Y-114293271D02*
X86884398Y-114364700D01*
X86884398Y-114364700D02*
X86991541Y-114400414D01*
X86991541Y-114400414D02*
X87062969Y-114400414D01*
X87062969Y-114400414D02*
X87170112Y-114364700D01*
X87170112Y-114364700D02*
X87205826Y-114328985D01*
X87205826Y-114328985D02*
X87205826Y-114078985D01*
X87205826Y-114078985D02*
X87062969Y-114078985D01*
X87527255Y-114400414D02*
X87527255Y-113650414D01*
X87527255Y-113650414D02*
X87955826Y-114400414D01*
X87955826Y-114400414D02*
X87955826Y-113650414D01*
X88312969Y-114400414D02*
X88312969Y-113650414D01*
X88312969Y-113650414D02*
X88491540Y-113650414D01*
X88491540Y-113650414D02*
X88598683Y-113686128D01*
X88598683Y-113686128D02*
X88670112Y-113757557D01*
X88670112Y-113757557D02*
X88705826Y-113828985D01*
X88705826Y-113828985D02*
X88741540Y-113971842D01*
X88741540Y-113971842D02*
X88741540Y-114078985D01*
X88741540Y-114078985D02*
X88705826Y-114221842D01*
X88705826Y-114221842D02*
X88670112Y-114293271D01*
X88670112Y-114293271D02*
X88598683Y-114364700D01*
X88598683Y-114364700D02*
X88491540Y-114400414D01*
X88491540Y-114400414D02*
X88312969Y-114400414D01*
X80170112Y-113686128D02*
X80098684Y-113650414D01*
X80098684Y-113650414D02*
X79991541Y-113650414D01*
X79991541Y-113650414D02*
X79884398Y-113686128D01*
X79884398Y-113686128D02*
X79812969Y-113757557D01*
X79812969Y-113757557D02*
X79777255Y-113828985D01*
X79777255Y-113828985D02*
X79741541Y-113971842D01*
X79741541Y-113971842D02*
X79741541Y-114078985D01*
X79741541Y-114078985D02*
X79777255Y-114221842D01*
X79777255Y-114221842D02*
X79812969Y-114293271D01*
X79812969Y-114293271D02*
X79884398Y-114364700D01*
X79884398Y-114364700D02*
X79991541Y-114400414D01*
X79991541Y-114400414D02*
X80062969Y-114400414D01*
X80062969Y-114400414D02*
X80170112Y-114364700D01*
X80170112Y-114364700D02*
X80205826Y-114328985D01*
X80205826Y-114328985D02*
X80205826Y-114078985D01*
X80205826Y-114078985D02*
X80062969Y-114078985D01*
X80527255Y-114400414D02*
X80527255Y-113650414D01*
X80527255Y-113650414D02*
X80955826Y-114400414D01*
X80955826Y-114400414D02*
X80955826Y-113650414D01*
X81312969Y-114400414D02*
X81312969Y-113650414D01*
X81312969Y-113650414D02*
X81491540Y-113650414D01*
X81491540Y-113650414D02*
X81598683Y-113686128D01*
X81598683Y-113686128D02*
X81670112Y-113757557D01*
X81670112Y-113757557D02*
X81705826Y-113828985D01*
X81705826Y-113828985D02*
X81741540Y-113971842D01*
X81741540Y-113971842D02*
X81741540Y-114078985D01*
X81741540Y-114078985D02*
X81705826Y-114221842D01*
X81705826Y-114221842D02*
X81670112Y-114293271D01*
X81670112Y-114293271D02*
X81598683Y-114364700D01*
X81598683Y-114364700D02*
X81491540Y-114400414D01*
X81491540Y-114400414D02*
X81312969Y-114400414D01*
X76777255Y-114400414D02*
X76777255Y-113650414D01*
X76777255Y-113650414D02*
X77062969Y-113650414D01*
X77062969Y-113650414D02*
X77134398Y-113686128D01*
X77134398Y-113686128D02*
X77170112Y-113721842D01*
X77170112Y-113721842D02*
X77205826Y-113793271D01*
X77205826Y-113793271D02*
X77205826Y-113900414D01*
X77205826Y-113900414D02*
X77170112Y-113971842D01*
X77170112Y-113971842D02*
X77134398Y-114007557D01*
X77134398Y-114007557D02*
X77062969Y-114043271D01*
X77062969Y-114043271D02*
X76777255Y-114043271D01*
X77455826Y-113650414D02*
X77634398Y-114400414D01*
X77634398Y-114400414D02*
X77777255Y-113864700D01*
X77777255Y-113864700D02*
X77920112Y-114400414D01*
X77920112Y-114400414D02*
X78098684Y-113650414D01*
X78384398Y-114400414D02*
X78384398Y-113650414D01*
X78384398Y-113650414D02*
X78634398Y-114186128D01*
X78634398Y-114186128D02*
X78884398Y-113650414D01*
X78884398Y-113650414D02*
X78884398Y-114400414D01*
X74170112Y-113650414D02*
X74420112Y-114400414D01*
X74420112Y-114400414D02*
X74670112Y-113650414D01*
X75348683Y-114328985D02*
X75312969Y-114364700D01*
X75312969Y-114364700D02*
X75205826Y-114400414D01*
X75205826Y-114400414D02*
X75134398Y-114400414D01*
X75134398Y-114400414D02*
X75027255Y-114364700D01*
X75027255Y-114364700D02*
X74955826Y-114293271D01*
X74955826Y-114293271D02*
X74920112Y-114221842D01*
X74920112Y-114221842D02*
X74884398Y-114078985D01*
X74884398Y-114078985D02*
X74884398Y-113971842D01*
X74884398Y-113971842D02*
X74920112Y-113828985D01*
X74920112Y-113828985D02*
X74955826Y-113757557D01*
X74955826Y-113757557D02*
X75027255Y-113686128D01*
X75027255Y-113686128D02*
X75134398Y-113650414D01*
X75134398Y-113650414D02*
X75205826Y-113650414D01*
X75205826Y-113650414D02*
X75312969Y-113686128D01*
X75312969Y-113686128D02*
X75348683Y-113721842D01*
X76098683Y-114328985D02*
X76062969Y-114364700D01*
X76062969Y-114364700D02*
X75955826Y-114400414D01*
X75955826Y-114400414D02*
X75884398Y-114400414D01*
X75884398Y-114400414D02*
X75777255Y-114364700D01*
X75777255Y-114364700D02*
X75705826Y-114293271D01*
X75705826Y-114293271D02*
X75670112Y-114221842D01*
X75670112Y-114221842D02*
X75634398Y-114078985D01*
X75634398Y-114078985D02*
X75634398Y-113971842D01*
X75634398Y-113971842D02*
X75670112Y-113828985D01*
X75670112Y-113828985D02*
X75705826Y-113757557D01*
X75705826Y-113757557D02*
X75777255Y-113686128D01*
X75777255Y-113686128D02*
X75884398Y-113650414D01*
X75884398Y-113650414D02*
X75955826Y-113650414D01*
X75955826Y-113650414D02*
X76062969Y-113686128D01*
X76062969Y-113686128D02*
X76098683Y-113721842D01*
X93947619Y-99943247D02*
X94214285Y-99943247D01*
X94328571Y-100362295D02*
X93947619Y-100362295D01*
X93947619Y-100362295D02*
X93947619Y-99562295D01*
X93947619Y-99562295D02*
X94328571Y-99562295D01*
X94633333Y-100324200D02*
X94747619Y-100362295D01*
X94747619Y-100362295D02*
X94938095Y-100362295D01*
X94938095Y-100362295D02*
X95014286Y-100324200D01*
X95014286Y-100324200D02*
X95052381Y-100286104D01*
X95052381Y-100286104D02*
X95090476Y-100209914D01*
X95090476Y-100209914D02*
X95090476Y-100133723D01*
X95090476Y-100133723D02*
X95052381Y-100057533D01*
X95052381Y-100057533D02*
X95014286Y-100019438D01*
X95014286Y-100019438D02*
X94938095Y-99981342D01*
X94938095Y-99981342D02*
X94785714Y-99943247D01*
X94785714Y-99943247D02*
X94709524Y-99905152D01*
X94709524Y-99905152D02*
X94671429Y-99867057D01*
X94671429Y-99867057D02*
X94633333Y-99790866D01*
X94633333Y-99790866D02*
X94633333Y-99714676D01*
X94633333Y-99714676D02*
X94671429Y-99638485D01*
X94671429Y-99638485D02*
X94709524Y-99600390D01*
X94709524Y-99600390D02*
X94785714Y-99562295D01*
X94785714Y-99562295D02*
X94976191Y-99562295D01*
X94976191Y-99562295D02*
X95090476Y-99600390D01*
X95433334Y-100362295D02*
X95433334Y-99562295D01*
X95433334Y-99562295D02*
X95738096Y-99562295D01*
X95738096Y-99562295D02*
X95814286Y-99600390D01*
X95814286Y-99600390D02*
X95852381Y-99638485D01*
X95852381Y-99638485D02*
X95890477Y-99714676D01*
X95890477Y-99714676D02*
X95890477Y-99828961D01*
X95890477Y-99828961D02*
X95852381Y-99905152D01*
X95852381Y-99905152D02*
X95814286Y-99943247D01*
X95814286Y-99943247D02*
X95738096Y-99981342D01*
X95738096Y-99981342D02*
X95433334Y-99981342D01*
X96233334Y-100057533D02*
X96842858Y-100057533D01*
X97642857Y-100362295D02*
X97185714Y-100362295D01*
X97414286Y-100362295D02*
X97414286Y-99562295D01*
X97414286Y-99562295D02*
X97338095Y-99676580D01*
X97338095Y-99676580D02*
X97261905Y-99752771D01*
X97261905Y-99752771D02*
X97185714Y-99790866D01*
X97947619Y-99638485D02*
X97985715Y-99600390D01*
X97985715Y-99600390D02*
X98061905Y-99562295D01*
X98061905Y-99562295D02*
X98252381Y-99562295D01*
X98252381Y-99562295D02*
X98328572Y-99600390D01*
X98328572Y-99600390D02*
X98366667Y-99638485D01*
X98366667Y-99638485D02*
X98404762Y-99714676D01*
X98404762Y-99714676D02*
X98404762Y-99790866D01*
X98404762Y-99790866D02*
X98366667Y-99905152D01*
X98366667Y-99905152D02*
X97909524Y-100362295D01*
X97909524Y-100362295D02*
X98404762Y-100362295D01*
X99014286Y-99943247D02*
X98747620Y-99943247D01*
X98747620Y-100362295D02*
X98747620Y-99562295D01*
X98747620Y-99562295D02*
X99128572Y-99562295D01*
X73999999Y-86633723D02*
X74380952Y-86633723D01*
X73923809Y-86862295D02*
X74190476Y-86062295D01*
X74190476Y-86062295D02*
X74457142Y-86862295D01*
X74723809Y-86862295D02*
X74723809Y-86062295D01*
X74723809Y-86062295D02*
X74990475Y-86633723D01*
X74990475Y-86633723D02*
X75257142Y-86062295D01*
X75257142Y-86062295D02*
X75257142Y-86862295D01*
X75599999Y-86824200D02*
X75714285Y-86862295D01*
X75714285Y-86862295D02*
X75904761Y-86862295D01*
X75904761Y-86862295D02*
X75980952Y-86824200D01*
X75980952Y-86824200D02*
X76019047Y-86786104D01*
X76019047Y-86786104D02*
X76057142Y-86709914D01*
X76057142Y-86709914D02*
X76057142Y-86633723D01*
X76057142Y-86633723D02*
X76019047Y-86557533D01*
X76019047Y-86557533D02*
X75980952Y-86519438D01*
X75980952Y-86519438D02*
X75904761Y-86481342D01*
X75904761Y-86481342D02*
X75752380Y-86443247D01*
X75752380Y-86443247D02*
X75676190Y-86405152D01*
X75676190Y-86405152D02*
X75638095Y-86367057D01*
X75638095Y-86367057D02*
X75599999Y-86290866D01*
X75599999Y-86290866D02*
X75599999Y-86214676D01*
X75599999Y-86214676D02*
X75638095Y-86138485D01*
X75638095Y-86138485D02*
X75676190Y-86100390D01*
X75676190Y-86100390D02*
X75752380Y-86062295D01*
X75752380Y-86062295D02*
X75942857Y-86062295D01*
X75942857Y-86062295D02*
X76057142Y-86100390D01*
X76819047Y-86862295D02*
X76361904Y-86862295D01*
X76590476Y-86862295D02*
X76590476Y-86062295D01*
X76590476Y-86062295D02*
X76514285Y-86176580D01*
X76514285Y-86176580D02*
X76438095Y-86252771D01*
X76438095Y-86252771D02*
X76361904Y-86290866D01*
X77580952Y-86862295D02*
X77123809Y-86862295D01*
X77352381Y-86862295D02*
X77352381Y-86062295D01*
X77352381Y-86062295D02*
X77276190Y-86176580D01*
X77276190Y-86176580D02*
X77200000Y-86252771D01*
X77200000Y-86252771D02*
X77123809Y-86290866D01*
X78342857Y-86862295D02*
X77885714Y-86862295D01*
X78114286Y-86862295D02*
X78114286Y-86062295D01*
X78114286Y-86062295D02*
X78038095Y-86176580D01*
X78038095Y-86176580D02*
X77961905Y-86252771D01*
X77961905Y-86252771D02*
X77885714Y-86290866D01*
X78609524Y-86062295D02*
X79142858Y-86062295D01*
X79142858Y-86062295D02*
X78800000Y-86862295D01*
X79447620Y-86557533D02*
X80057144Y-86557533D01*
X80361905Y-86062295D02*
X80857143Y-86062295D01*
X80857143Y-86062295D02*
X80590477Y-86367057D01*
X80590477Y-86367057D02*
X80704762Y-86367057D01*
X80704762Y-86367057D02*
X80780953Y-86405152D01*
X80780953Y-86405152D02*
X80819048Y-86443247D01*
X80819048Y-86443247D02*
X80857143Y-86519438D01*
X80857143Y-86519438D02*
X80857143Y-86709914D01*
X80857143Y-86709914D02*
X80819048Y-86786104D01*
X80819048Y-86786104D02*
X80780953Y-86824200D01*
X80780953Y-86824200D02*
X80704762Y-86862295D01*
X80704762Y-86862295D02*
X80476191Y-86862295D01*
X80476191Y-86862295D02*
X80400000Y-86824200D01*
X80400000Y-86824200D02*
X80361905Y-86786104D01*
X81200001Y-86786104D02*
X81238096Y-86824200D01*
X81238096Y-86824200D02*
X81200001Y-86862295D01*
X81200001Y-86862295D02*
X81161905Y-86824200D01*
X81161905Y-86824200D02*
X81200001Y-86786104D01*
X81200001Y-86786104D02*
X81200001Y-86862295D01*
X81504762Y-86062295D02*
X82000000Y-86062295D01*
X82000000Y-86062295D02*
X81733334Y-86367057D01*
X81733334Y-86367057D02*
X81847619Y-86367057D01*
X81847619Y-86367057D02*
X81923810Y-86405152D01*
X81923810Y-86405152D02*
X81961905Y-86443247D01*
X81961905Y-86443247D02*
X82000000Y-86519438D01*
X82000000Y-86519438D02*
X82000000Y-86709914D01*
X82000000Y-86709914D02*
X81961905Y-86786104D01*
X81961905Y-86786104D02*
X81923810Y-86824200D01*
X81923810Y-86824200D02*
X81847619Y-86862295D01*
X81847619Y-86862295D02*
X81619048Y-86862295D01*
X81619048Y-86862295D02*
X81542857Y-86824200D01*
X81542857Y-86824200D02*
X81504762Y-86786104D01*
X89447618Y-110362295D02*
X88990475Y-110362295D01*
X89219047Y-110362295D02*
X89219047Y-109562295D01*
X89219047Y-109562295D02*
X89142856Y-109676580D01*
X89142856Y-109676580D02*
X89066666Y-109752771D01*
X89066666Y-109752771D02*
X88990475Y-109790866D01*
X89942857Y-109562295D02*
X90019047Y-109562295D01*
X90019047Y-109562295D02*
X90095238Y-109600390D01*
X90095238Y-109600390D02*
X90133333Y-109638485D01*
X90133333Y-109638485D02*
X90171428Y-109714676D01*
X90171428Y-109714676D02*
X90209523Y-109867057D01*
X90209523Y-109867057D02*
X90209523Y-110057533D01*
X90209523Y-110057533D02*
X90171428Y-110209914D01*
X90171428Y-110209914D02*
X90133333Y-110286104D01*
X90133333Y-110286104D02*
X90095238Y-110324200D01*
X90095238Y-110324200D02*
X90019047Y-110362295D01*
X90019047Y-110362295D02*
X89942857Y-110362295D01*
X89942857Y-110362295D02*
X89866666Y-110324200D01*
X89866666Y-110324200D02*
X89828571Y-110286104D01*
X89828571Y-110286104D02*
X89790476Y-110209914D01*
X89790476Y-110209914D02*
X89752380Y-110057533D01*
X89752380Y-110057533D02*
X89752380Y-109867057D01*
X89752380Y-109867057D02*
X89790476Y-109714676D01*
X89790476Y-109714676D02*
X89828571Y-109638485D01*
X89828571Y-109638485D02*
X89866666Y-109600390D01*
X89866666Y-109600390D02*
X89942857Y-109562295D01*
X90552381Y-110362295D02*
X90552381Y-109562295D01*
X91009524Y-110362295D02*
X90666666Y-109905152D01*
X91009524Y-109562295D02*
X90552381Y-110019438D01*
X80947618Y-100362295D02*
X80490475Y-100362295D01*
X80719047Y-100362295D02*
X80719047Y-99562295D01*
X80719047Y-99562295D02*
X80642856Y-99676580D01*
X80642856Y-99676580D02*
X80566666Y-99752771D01*
X80566666Y-99752771D02*
X80490475Y-99790866D01*
X81442857Y-99562295D02*
X81519047Y-99562295D01*
X81519047Y-99562295D02*
X81595238Y-99600390D01*
X81595238Y-99600390D02*
X81633333Y-99638485D01*
X81633333Y-99638485D02*
X81671428Y-99714676D01*
X81671428Y-99714676D02*
X81709523Y-99867057D01*
X81709523Y-99867057D02*
X81709523Y-100057533D01*
X81709523Y-100057533D02*
X81671428Y-100209914D01*
X81671428Y-100209914D02*
X81633333Y-100286104D01*
X81633333Y-100286104D02*
X81595238Y-100324200D01*
X81595238Y-100324200D02*
X81519047Y-100362295D01*
X81519047Y-100362295D02*
X81442857Y-100362295D01*
X81442857Y-100362295D02*
X81366666Y-100324200D01*
X81366666Y-100324200D02*
X81328571Y-100286104D01*
X81328571Y-100286104D02*
X81290476Y-100209914D01*
X81290476Y-100209914D02*
X81252380Y-100057533D01*
X81252380Y-100057533D02*
X81252380Y-99867057D01*
X81252380Y-99867057D02*
X81290476Y-99714676D01*
X81290476Y-99714676D02*
X81328571Y-99638485D01*
X81328571Y-99638485D02*
X81366666Y-99600390D01*
X81366666Y-99600390D02*
X81442857Y-99562295D01*
X82052381Y-100362295D02*
X82052381Y-99562295D01*
X82509524Y-100362295D02*
X82166666Y-99905152D01*
X82509524Y-99562295D02*
X82052381Y-100019438D01*
X96447618Y-86362295D02*
X95990475Y-86362295D01*
X96219047Y-86362295D02*
X96219047Y-85562295D01*
X96219047Y-85562295D02*
X96142856Y-85676580D01*
X96142856Y-85676580D02*
X96066666Y-85752771D01*
X96066666Y-85752771D02*
X95990475Y-85790866D01*
X96942857Y-85562295D02*
X97019047Y-85562295D01*
X97019047Y-85562295D02*
X97095238Y-85600390D01*
X97095238Y-85600390D02*
X97133333Y-85638485D01*
X97133333Y-85638485D02*
X97171428Y-85714676D01*
X97171428Y-85714676D02*
X97209523Y-85867057D01*
X97209523Y-85867057D02*
X97209523Y-86057533D01*
X97209523Y-86057533D02*
X97171428Y-86209914D01*
X97171428Y-86209914D02*
X97133333Y-86286104D01*
X97133333Y-86286104D02*
X97095238Y-86324200D01*
X97095238Y-86324200D02*
X97019047Y-86362295D01*
X97019047Y-86362295D02*
X96942857Y-86362295D01*
X96942857Y-86362295D02*
X96866666Y-86324200D01*
X96866666Y-86324200D02*
X96828571Y-86286104D01*
X96828571Y-86286104D02*
X96790476Y-86209914D01*
X96790476Y-86209914D02*
X96752380Y-86057533D01*
X96752380Y-86057533D02*
X96752380Y-85867057D01*
X96752380Y-85867057D02*
X96790476Y-85714676D01*
X96790476Y-85714676D02*
X96828571Y-85638485D01*
X96828571Y-85638485D02*
X96866666Y-85600390D01*
X96866666Y-85600390D02*
X96942857Y-85562295D01*
X97552381Y-86362295D02*
X97552381Y-85562295D01*
X98009524Y-86362295D02*
X97666666Y-85905152D01*
X98009524Y-85562295D02*
X97552381Y-86019438D01*
X94447618Y-110362295D02*
X93990475Y-110362295D01*
X94219047Y-110362295D02*
X94219047Y-109562295D01*
X94219047Y-109562295D02*
X94142856Y-109676580D01*
X94142856Y-109676580D02*
X94066666Y-109752771D01*
X94066666Y-109752771D02*
X93990475Y-109790866D01*
X94942857Y-109562295D02*
X95019047Y-109562295D01*
X95019047Y-109562295D02*
X95095238Y-109600390D01*
X95095238Y-109600390D02*
X95133333Y-109638485D01*
X95133333Y-109638485D02*
X95171428Y-109714676D01*
X95171428Y-109714676D02*
X95209523Y-109867057D01*
X95209523Y-109867057D02*
X95209523Y-110057533D01*
X95209523Y-110057533D02*
X95171428Y-110209914D01*
X95171428Y-110209914D02*
X95133333Y-110286104D01*
X95133333Y-110286104D02*
X95095238Y-110324200D01*
X95095238Y-110324200D02*
X95019047Y-110362295D01*
X95019047Y-110362295D02*
X94942857Y-110362295D01*
X94942857Y-110362295D02*
X94866666Y-110324200D01*
X94866666Y-110324200D02*
X94828571Y-110286104D01*
X94828571Y-110286104D02*
X94790476Y-110209914D01*
X94790476Y-110209914D02*
X94752380Y-110057533D01*
X94752380Y-110057533D02*
X94752380Y-109867057D01*
X94752380Y-109867057D02*
X94790476Y-109714676D01*
X94790476Y-109714676D02*
X94828571Y-109638485D01*
X94828571Y-109638485D02*
X94866666Y-109600390D01*
X94866666Y-109600390D02*
X94942857Y-109562295D01*
X95552381Y-110362295D02*
X95552381Y-109562295D01*
X96009524Y-110362295D02*
X95666666Y-109905152D01*
X96009524Y-109562295D02*
X95552381Y-110019438D01*
X101447618Y-86362295D02*
X100990475Y-86362295D01*
X101219047Y-86362295D02*
X101219047Y-85562295D01*
X101219047Y-85562295D02*
X101142856Y-85676580D01*
X101142856Y-85676580D02*
X101066666Y-85752771D01*
X101066666Y-85752771D02*
X100990475Y-85790866D01*
X101942857Y-85562295D02*
X102019047Y-85562295D01*
X102019047Y-85562295D02*
X102095238Y-85600390D01*
X102095238Y-85600390D02*
X102133333Y-85638485D01*
X102133333Y-85638485D02*
X102171428Y-85714676D01*
X102171428Y-85714676D02*
X102209523Y-85867057D01*
X102209523Y-85867057D02*
X102209523Y-86057533D01*
X102209523Y-86057533D02*
X102171428Y-86209914D01*
X102171428Y-86209914D02*
X102133333Y-86286104D01*
X102133333Y-86286104D02*
X102095238Y-86324200D01*
X102095238Y-86324200D02*
X102019047Y-86362295D01*
X102019047Y-86362295D02*
X101942857Y-86362295D01*
X101942857Y-86362295D02*
X101866666Y-86324200D01*
X101866666Y-86324200D02*
X101828571Y-86286104D01*
X101828571Y-86286104D02*
X101790476Y-86209914D01*
X101790476Y-86209914D02*
X101752380Y-86057533D01*
X101752380Y-86057533D02*
X101752380Y-85867057D01*
X101752380Y-85867057D02*
X101790476Y-85714676D01*
X101790476Y-85714676D02*
X101828571Y-85638485D01*
X101828571Y-85638485D02*
X101866666Y-85600390D01*
X101866666Y-85600390D02*
X101942857Y-85562295D01*
X102552381Y-86362295D02*
X102552381Y-85562295D01*
X103009524Y-86362295D02*
X102666666Y-85905152D01*
X103009524Y-85562295D02*
X102552381Y-86019438D01*
X75633723Y-106476190D02*
X75633723Y-106095237D01*
X75862295Y-106552380D02*
X75062295Y-106285713D01*
X75062295Y-106285713D02*
X75862295Y-106019047D01*
X75062295Y-105599999D02*
X75062295Y-105447618D01*
X75062295Y-105447618D02*
X75100390Y-105371428D01*
X75100390Y-105371428D02*
X75176580Y-105295237D01*
X75176580Y-105295237D02*
X75328961Y-105257142D01*
X75328961Y-105257142D02*
X75595628Y-105257142D01*
X75595628Y-105257142D02*
X75748009Y-105295237D01*
X75748009Y-105295237D02*
X75824200Y-105371428D01*
X75824200Y-105371428D02*
X75862295Y-105447618D01*
X75862295Y-105447618D02*
X75862295Y-105599999D01*
X75862295Y-105599999D02*
X75824200Y-105676190D01*
X75824200Y-105676190D02*
X75748009Y-105752380D01*
X75748009Y-105752380D02*
X75595628Y-105790476D01*
X75595628Y-105790476D02*
X75328961Y-105790476D01*
X75328961Y-105790476D02*
X75176580Y-105752380D01*
X75176580Y-105752380D02*
X75100390Y-105676190D01*
X75100390Y-105676190D02*
X75062295Y-105599999D01*
X75062295Y-104990476D02*
X75062295Y-104495238D01*
X75062295Y-104495238D02*
X75367057Y-104761904D01*
X75367057Y-104761904D02*
X75367057Y-104647619D01*
X75367057Y-104647619D02*
X75405152Y-104571428D01*
X75405152Y-104571428D02*
X75443247Y-104533333D01*
X75443247Y-104533333D02*
X75519438Y-104495238D01*
X75519438Y-104495238D02*
X75709914Y-104495238D01*
X75709914Y-104495238D02*
X75786104Y-104533333D01*
X75786104Y-104533333D02*
X75824200Y-104571428D01*
X75824200Y-104571428D02*
X75862295Y-104647619D01*
X75862295Y-104647619D02*
X75862295Y-104876190D01*
X75862295Y-104876190D02*
X75824200Y-104952381D01*
X75824200Y-104952381D02*
X75786104Y-104990476D01*
X75328961Y-103809523D02*
X75862295Y-103809523D01*
X75024200Y-103999999D02*
X75595628Y-104190476D01*
X75595628Y-104190476D02*
X75595628Y-103695237D01*
X75062295Y-103238094D02*
X75062295Y-103161904D01*
X75062295Y-103161904D02*
X75100390Y-103085713D01*
X75100390Y-103085713D02*
X75138485Y-103047618D01*
X75138485Y-103047618D02*
X75214676Y-103009523D01*
X75214676Y-103009523D02*
X75367057Y-102971428D01*
X75367057Y-102971428D02*
X75557533Y-102971428D01*
X75557533Y-102971428D02*
X75709914Y-103009523D01*
X75709914Y-103009523D02*
X75786104Y-103047618D01*
X75786104Y-103047618D02*
X75824200Y-103085713D01*
X75824200Y-103085713D02*
X75862295Y-103161904D01*
X75862295Y-103161904D02*
X75862295Y-103238094D01*
X75862295Y-103238094D02*
X75824200Y-103314285D01*
X75824200Y-103314285D02*
X75786104Y-103352380D01*
X75786104Y-103352380D02*
X75709914Y-103390475D01*
X75709914Y-103390475D02*
X75557533Y-103428571D01*
X75557533Y-103428571D02*
X75367057Y-103428571D01*
X75367057Y-103428571D02*
X75214676Y-103390475D01*
X75214676Y-103390475D02*
X75138485Y-103352380D01*
X75138485Y-103352380D02*
X75100390Y-103314285D01*
X75100390Y-103314285D02*
X75062295Y-103238094D01*
X75062295Y-102476189D02*
X75062295Y-102399999D01*
X75062295Y-102399999D02*
X75100390Y-102323808D01*
X75100390Y-102323808D02*
X75138485Y-102285713D01*
X75138485Y-102285713D02*
X75214676Y-102247618D01*
X75214676Y-102247618D02*
X75367057Y-102209523D01*
X75367057Y-102209523D02*
X75557533Y-102209523D01*
X75557533Y-102209523D02*
X75709914Y-102247618D01*
X75709914Y-102247618D02*
X75786104Y-102285713D01*
X75786104Y-102285713D02*
X75824200Y-102323808D01*
X75824200Y-102323808D02*
X75862295Y-102399999D01*
X75862295Y-102399999D02*
X75862295Y-102476189D01*
X75862295Y-102476189D02*
X75824200Y-102552380D01*
X75824200Y-102552380D02*
X75786104Y-102590475D01*
X75786104Y-102590475D02*
X75709914Y-102628570D01*
X75709914Y-102628570D02*
X75557533Y-102666666D01*
X75557533Y-102666666D02*
X75367057Y-102666666D01*
X75367057Y-102666666D02*
X75214676Y-102628570D01*
X75214676Y-102628570D02*
X75138485Y-102590475D01*
X75138485Y-102590475D02*
X75100390Y-102552380D01*
X75100390Y-102552380D02*
X75062295Y-102476189D01*
X75633723Y-101904761D02*
X75633723Y-101523808D01*
X75862295Y-101980951D02*
X75062295Y-101714284D01*
X75062295Y-101714284D02*
X75862295Y-101447618D01*
X82285713Y-111362295D02*
X81828570Y-111362295D01*
X82057142Y-111362295D02*
X82057142Y-110562295D01*
X82057142Y-110562295D02*
X81980951Y-110676580D01*
X81980951Y-110676580D02*
X81904761Y-110752771D01*
X81904761Y-110752771D02*
X81828570Y-110790866D01*
X82628571Y-111362295D02*
X82628571Y-110562295D01*
X82628571Y-110562295D02*
X83085714Y-111362295D01*
X83085714Y-111362295D02*
X83085714Y-110562295D01*
X83809523Y-110828961D02*
X83809523Y-111362295D01*
X83619047Y-110524200D02*
X83428570Y-111095628D01*
X83428570Y-111095628D02*
X83923809Y-111095628D01*
X84380952Y-110562295D02*
X84457142Y-110562295D01*
X84457142Y-110562295D02*
X84533333Y-110600390D01*
X84533333Y-110600390D02*
X84571428Y-110638485D01*
X84571428Y-110638485D02*
X84609523Y-110714676D01*
X84609523Y-110714676D02*
X84647618Y-110867057D01*
X84647618Y-110867057D02*
X84647618Y-111057533D01*
X84647618Y-111057533D02*
X84609523Y-111209914D01*
X84609523Y-111209914D02*
X84571428Y-111286104D01*
X84571428Y-111286104D02*
X84533333Y-111324200D01*
X84533333Y-111324200D02*
X84457142Y-111362295D01*
X84457142Y-111362295D02*
X84380952Y-111362295D01*
X84380952Y-111362295D02*
X84304761Y-111324200D01*
X84304761Y-111324200D02*
X84266666Y-111286104D01*
X84266666Y-111286104D02*
X84228571Y-111209914D01*
X84228571Y-111209914D02*
X84190475Y-111057533D01*
X84190475Y-111057533D02*
X84190475Y-110867057D01*
X84190475Y-110867057D02*
X84228571Y-110714676D01*
X84228571Y-110714676D02*
X84266666Y-110638485D01*
X84266666Y-110638485D02*
X84304761Y-110600390D01*
X84304761Y-110600390D02*
X84380952Y-110562295D01*
X85142857Y-110562295D02*
X85219047Y-110562295D01*
X85219047Y-110562295D02*
X85295238Y-110600390D01*
X85295238Y-110600390D02*
X85333333Y-110638485D01*
X85333333Y-110638485D02*
X85371428Y-110714676D01*
X85371428Y-110714676D02*
X85409523Y-110867057D01*
X85409523Y-110867057D02*
X85409523Y-111057533D01*
X85409523Y-111057533D02*
X85371428Y-111209914D01*
X85371428Y-111209914D02*
X85333333Y-111286104D01*
X85333333Y-111286104D02*
X85295238Y-111324200D01*
X85295238Y-111324200D02*
X85219047Y-111362295D01*
X85219047Y-111362295D02*
X85142857Y-111362295D01*
X85142857Y-111362295D02*
X85066666Y-111324200D01*
X85066666Y-111324200D02*
X85028571Y-111286104D01*
X85028571Y-111286104D02*
X84990476Y-111209914D01*
X84990476Y-111209914D02*
X84952380Y-111057533D01*
X84952380Y-111057533D02*
X84952380Y-110867057D01*
X84952380Y-110867057D02*
X84990476Y-110714676D01*
X84990476Y-110714676D02*
X85028571Y-110638485D01*
X85028571Y-110638485D02*
X85066666Y-110600390D01*
X85066666Y-110600390D02*
X85142857Y-110562295D01*
X85676190Y-110562295D02*
X86209524Y-110562295D01*
X86209524Y-110562295D02*
X85866666Y-111362295D01*
X81119047Y-108362295D02*
X80661904Y-108362295D01*
X80890476Y-108362295D02*
X80890476Y-107562295D01*
X80890476Y-107562295D02*
X80814285Y-107676580D01*
X80814285Y-107676580D02*
X80738095Y-107752771D01*
X80738095Y-107752771D02*
X80661904Y-107790866D01*
X81614286Y-107562295D02*
X81690476Y-107562295D01*
X81690476Y-107562295D02*
X81766667Y-107600390D01*
X81766667Y-107600390D02*
X81804762Y-107638485D01*
X81804762Y-107638485D02*
X81842857Y-107714676D01*
X81842857Y-107714676D02*
X81880952Y-107867057D01*
X81880952Y-107867057D02*
X81880952Y-108057533D01*
X81880952Y-108057533D02*
X81842857Y-108209914D01*
X81842857Y-108209914D02*
X81804762Y-108286104D01*
X81804762Y-108286104D02*
X81766667Y-108324200D01*
X81766667Y-108324200D02*
X81690476Y-108362295D01*
X81690476Y-108362295D02*
X81614286Y-108362295D01*
X81614286Y-108362295D02*
X81538095Y-108324200D01*
X81538095Y-108324200D02*
X81500000Y-108286104D01*
X81500000Y-108286104D02*
X81461905Y-108209914D01*
X81461905Y-108209914D02*
X81423809Y-108057533D01*
X81423809Y-108057533D02*
X81423809Y-107867057D01*
X81423809Y-107867057D02*
X81461905Y-107714676D01*
X81461905Y-107714676D02*
X81500000Y-107638485D01*
X81500000Y-107638485D02*
X81538095Y-107600390D01*
X81538095Y-107600390D02*
X81614286Y-107562295D01*
X82376191Y-107562295D02*
X82452381Y-107562295D01*
X82452381Y-107562295D02*
X82528572Y-107600390D01*
X82528572Y-107600390D02*
X82566667Y-107638485D01*
X82566667Y-107638485D02*
X82604762Y-107714676D01*
X82604762Y-107714676D02*
X82642857Y-107867057D01*
X82642857Y-107867057D02*
X82642857Y-108057533D01*
X82642857Y-108057533D02*
X82604762Y-108209914D01*
X82604762Y-108209914D02*
X82566667Y-108286104D01*
X82566667Y-108286104D02*
X82528572Y-108324200D01*
X82528572Y-108324200D02*
X82452381Y-108362295D01*
X82452381Y-108362295D02*
X82376191Y-108362295D01*
X82376191Y-108362295D02*
X82300000Y-108324200D01*
X82300000Y-108324200D02*
X82261905Y-108286104D01*
X82261905Y-108286104D02*
X82223810Y-108209914D01*
X82223810Y-108209914D02*
X82185714Y-108057533D01*
X82185714Y-108057533D02*
X82185714Y-107867057D01*
X82185714Y-107867057D02*
X82223810Y-107714676D01*
X82223810Y-107714676D02*
X82261905Y-107638485D01*
X82261905Y-107638485D02*
X82300000Y-107600390D01*
X82300000Y-107600390D02*
X82376191Y-107562295D01*
X82985715Y-107828961D02*
X82985715Y-108362295D01*
X82985715Y-107905152D02*
X83023810Y-107867057D01*
X83023810Y-107867057D02*
X83100000Y-107828961D01*
X83100000Y-107828961D02*
X83214286Y-107828961D01*
X83214286Y-107828961D02*
X83290477Y-107867057D01*
X83290477Y-107867057D02*
X83328572Y-107943247D01*
X83328572Y-107943247D02*
X83328572Y-108362295D01*
X83976191Y-107943247D02*
X83709525Y-107943247D01*
X83709525Y-108362295D02*
X83709525Y-107562295D01*
X83709525Y-107562295D02*
X84090477Y-107562295D01*
X88761904Y-86362295D02*
X88304761Y-86362295D01*
X88533333Y-86362295D02*
X88533333Y-85562295D01*
X88533333Y-85562295D02*
X88457142Y-85676580D01*
X88457142Y-85676580D02*
X88380952Y-85752771D01*
X88380952Y-85752771D02*
X88304761Y-85790866D01*
X89257143Y-85562295D02*
X89333333Y-85562295D01*
X89333333Y-85562295D02*
X89409524Y-85600390D01*
X89409524Y-85600390D02*
X89447619Y-85638485D01*
X89447619Y-85638485D02*
X89485714Y-85714676D01*
X89485714Y-85714676D02*
X89523809Y-85867057D01*
X89523809Y-85867057D02*
X89523809Y-86057533D01*
X89523809Y-86057533D02*
X89485714Y-86209914D01*
X89485714Y-86209914D02*
X89447619Y-86286104D01*
X89447619Y-86286104D02*
X89409524Y-86324200D01*
X89409524Y-86324200D02*
X89333333Y-86362295D01*
X89333333Y-86362295D02*
X89257143Y-86362295D01*
X89257143Y-86362295D02*
X89180952Y-86324200D01*
X89180952Y-86324200D02*
X89142857Y-86286104D01*
X89142857Y-86286104D02*
X89104762Y-86209914D01*
X89104762Y-86209914D02*
X89066666Y-86057533D01*
X89066666Y-86057533D02*
X89066666Y-85867057D01*
X89066666Y-85867057D02*
X89104762Y-85714676D01*
X89104762Y-85714676D02*
X89142857Y-85638485D01*
X89142857Y-85638485D02*
X89180952Y-85600390D01*
X89180952Y-85600390D02*
X89257143Y-85562295D01*
X90019048Y-85562295D02*
X90095238Y-85562295D01*
X90095238Y-85562295D02*
X90171429Y-85600390D01*
X90171429Y-85600390D02*
X90209524Y-85638485D01*
X90209524Y-85638485D02*
X90247619Y-85714676D01*
X90247619Y-85714676D02*
X90285714Y-85867057D01*
X90285714Y-85867057D02*
X90285714Y-86057533D01*
X90285714Y-86057533D02*
X90247619Y-86209914D01*
X90247619Y-86209914D02*
X90209524Y-86286104D01*
X90209524Y-86286104D02*
X90171429Y-86324200D01*
X90171429Y-86324200D02*
X90095238Y-86362295D01*
X90095238Y-86362295D02*
X90019048Y-86362295D01*
X90019048Y-86362295D02*
X89942857Y-86324200D01*
X89942857Y-86324200D02*
X89904762Y-86286104D01*
X89904762Y-86286104D02*
X89866667Y-86209914D01*
X89866667Y-86209914D02*
X89828571Y-86057533D01*
X89828571Y-86057533D02*
X89828571Y-85867057D01*
X89828571Y-85867057D02*
X89866667Y-85714676D01*
X89866667Y-85714676D02*
X89904762Y-85638485D01*
X89904762Y-85638485D02*
X89942857Y-85600390D01*
X89942857Y-85600390D02*
X90019048Y-85562295D01*
X90628572Y-85828961D02*
X90628572Y-86362295D01*
X90628572Y-85905152D02*
X90666667Y-85867057D01*
X90666667Y-85867057D02*
X90742857Y-85828961D01*
X90742857Y-85828961D02*
X90857143Y-85828961D01*
X90857143Y-85828961D02*
X90933334Y-85867057D01*
X90933334Y-85867057D02*
X90971429Y-85943247D01*
X90971429Y-85943247D02*
X90971429Y-86362295D01*
X91619048Y-85943247D02*
X91352382Y-85943247D01*
X91352382Y-86362295D02*
X91352382Y-85562295D01*
X91352382Y-85562295D02*
X91733334Y-85562295D01*
X81023808Y-97362295D02*
X80566665Y-97362295D01*
X80795237Y-97362295D02*
X80795237Y-96562295D01*
X80795237Y-96562295D02*
X80719046Y-96676580D01*
X80719046Y-96676580D02*
X80642856Y-96752771D01*
X80642856Y-96752771D02*
X80566665Y-96790866D01*
X81519047Y-96562295D02*
X81595237Y-96562295D01*
X81595237Y-96562295D02*
X81671428Y-96600390D01*
X81671428Y-96600390D02*
X81709523Y-96638485D01*
X81709523Y-96638485D02*
X81747618Y-96714676D01*
X81747618Y-96714676D02*
X81785713Y-96867057D01*
X81785713Y-96867057D02*
X81785713Y-97057533D01*
X81785713Y-97057533D02*
X81747618Y-97209914D01*
X81747618Y-97209914D02*
X81709523Y-97286104D01*
X81709523Y-97286104D02*
X81671428Y-97324200D01*
X81671428Y-97324200D02*
X81595237Y-97362295D01*
X81595237Y-97362295D02*
X81519047Y-97362295D01*
X81519047Y-97362295D02*
X81442856Y-97324200D01*
X81442856Y-97324200D02*
X81404761Y-97286104D01*
X81404761Y-97286104D02*
X81366666Y-97209914D01*
X81366666Y-97209914D02*
X81328570Y-97057533D01*
X81328570Y-97057533D02*
X81328570Y-96867057D01*
X81328570Y-96867057D02*
X81366666Y-96714676D01*
X81366666Y-96714676D02*
X81404761Y-96638485D01*
X81404761Y-96638485D02*
X81442856Y-96600390D01*
X81442856Y-96600390D02*
X81519047Y-96562295D01*
X82471428Y-96828961D02*
X82471428Y-97362295D01*
X82128571Y-96828961D02*
X82128571Y-97248009D01*
X82128571Y-97248009D02*
X82166666Y-97324200D01*
X82166666Y-97324200D02*
X82242856Y-97362295D01*
X82242856Y-97362295D02*
X82357142Y-97362295D01*
X82357142Y-97362295D02*
X82433333Y-97324200D01*
X82433333Y-97324200D02*
X82471428Y-97286104D01*
X83119047Y-96943247D02*
X82852381Y-96943247D01*
X82852381Y-97362295D02*
X82852381Y-96562295D01*
X82852381Y-96562295D02*
X83233333Y-96562295D01*
X78362295Y-84261904D02*
X78362295Y-84719047D01*
X78362295Y-84490475D02*
X77562295Y-84490475D01*
X77562295Y-84490475D02*
X77676580Y-84566666D01*
X77676580Y-84566666D02*
X77752771Y-84642856D01*
X77752771Y-84642856D02*
X77790866Y-84719047D01*
X77562295Y-83766665D02*
X77562295Y-83690475D01*
X77562295Y-83690475D02*
X77600390Y-83614284D01*
X77600390Y-83614284D02*
X77638485Y-83576189D01*
X77638485Y-83576189D02*
X77714676Y-83538094D01*
X77714676Y-83538094D02*
X77867057Y-83499999D01*
X77867057Y-83499999D02*
X78057533Y-83499999D01*
X78057533Y-83499999D02*
X78209914Y-83538094D01*
X78209914Y-83538094D02*
X78286104Y-83576189D01*
X78286104Y-83576189D02*
X78324200Y-83614284D01*
X78324200Y-83614284D02*
X78362295Y-83690475D01*
X78362295Y-83690475D02*
X78362295Y-83766665D01*
X78362295Y-83766665D02*
X78324200Y-83842856D01*
X78324200Y-83842856D02*
X78286104Y-83880951D01*
X78286104Y-83880951D02*
X78209914Y-83919046D01*
X78209914Y-83919046D02*
X78057533Y-83957142D01*
X78057533Y-83957142D02*
X77867057Y-83957142D01*
X77867057Y-83957142D02*
X77714676Y-83919046D01*
X77714676Y-83919046D02*
X77638485Y-83880951D01*
X77638485Y-83880951D02*
X77600390Y-83842856D01*
X77600390Y-83842856D02*
X77562295Y-83766665D01*
X77562295Y-83004760D02*
X77562295Y-82928570D01*
X77562295Y-82928570D02*
X77600390Y-82852379D01*
X77600390Y-82852379D02*
X77638485Y-82814284D01*
X77638485Y-82814284D02*
X77714676Y-82776189D01*
X77714676Y-82776189D02*
X77867057Y-82738094D01*
X77867057Y-82738094D02*
X78057533Y-82738094D01*
X78057533Y-82738094D02*
X78209914Y-82776189D01*
X78209914Y-82776189D02*
X78286104Y-82814284D01*
X78286104Y-82814284D02*
X78324200Y-82852379D01*
X78324200Y-82852379D02*
X78362295Y-82928570D01*
X78362295Y-82928570D02*
X78362295Y-83004760D01*
X78362295Y-83004760D02*
X78324200Y-83080951D01*
X78324200Y-83080951D02*
X78286104Y-83119046D01*
X78286104Y-83119046D02*
X78209914Y-83157141D01*
X78209914Y-83157141D02*
X78057533Y-83195237D01*
X78057533Y-83195237D02*
X77867057Y-83195237D01*
X77867057Y-83195237D02*
X77714676Y-83157141D01*
X77714676Y-83157141D02*
X77638485Y-83119046D01*
X77638485Y-83119046D02*
X77600390Y-83080951D01*
X77600390Y-83080951D02*
X77562295Y-83004760D01*
X77828961Y-82395236D02*
X78362295Y-82395236D01*
X77905152Y-82395236D02*
X77867057Y-82357141D01*
X77867057Y-82357141D02*
X77828961Y-82280951D01*
X77828961Y-82280951D02*
X77828961Y-82166665D01*
X77828961Y-82166665D02*
X77867057Y-82090474D01*
X77867057Y-82090474D02*
X77943247Y-82052379D01*
X77943247Y-82052379D02*
X78362295Y-82052379D01*
X77943247Y-81404760D02*
X77943247Y-81671426D01*
X78362295Y-81671426D02*
X77562295Y-81671426D01*
X77562295Y-81671426D02*
X77562295Y-81290474D01*
X79862295Y-84357143D02*
X79862295Y-84814286D01*
X79862295Y-84585714D02*
X79062295Y-84585714D01*
X79062295Y-84585714D02*
X79176580Y-84661905D01*
X79176580Y-84661905D02*
X79252771Y-84738095D01*
X79252771Y-84738095D02*
X79290866Y-84814286D01*
X79062295Y-83861904D02*
X79062295Y-83785714D01*
X79062295Y-83785714D02*
X79100390Y-83709523D01*
X79100390Y-83709523D02*
X79138485Y-83671428D01*
X79138485Y-83671428D02*
X79214676Y-83633333D01*
X79214676Y-83633333D02*
X79367057Y-83595238D01*
X79367057Y-83595238D02*
X79557533Y-83595238D01*
X79557533Y-83595238D02*
X79709914Y-83633333D01*
X79709914Y-83633333D02*
X79786104Y-83671428D01*
X79786104Y-83671428D02*
X79824200Y-83709523D01*
X79824200Y-83709523D02*
X79862295Y-83785714D01*
X79862295Y-83785714D02*
X79862295Y-83861904D01*
X79862295Y-83861904D02*
X79824200Y-83938095D01*
X79824200Y-83938095D02*
X79786104Y-83976190D01*
X79786104Y-83976190D02*
X79709914Y-84014285D01*
X79709914Y-84014285D02*
X79557533Y-84052381D01*
X79557533Y-84052381D02*
X79367057Y-84052381D01*
X79367057Y-84052381D02*
X79214676Y-84014285D01*
X79214676Y-84014285D02*
X79138485Y-83976190D01*
X79138485Y-83976190D02*
X79100390Y-83938095D01*
X79100390Y-83938095D02*
X79062295Y-83861904D01*
X79328961Y-82909523D02*
X79862295Y-82909523D01*
X79328961Y-83252380D02*
X79748009Y-83252380D01*
X79748009Y-83252380D02*
X79824200Y-83214285D01*
X79824200Y-83214285D02*
X79862295Y-83138095D01*
X79862295Y-83138095D02*
X79862295Y-83023809D01*
X79862295Y-83023809D02*
X79824200Y-82947618D01*
X79824200Y-82947618D02*
X79786104Y-82909523D01*
X79443247Y-82261904D02*
X79443247Y-82528570D01*
X79862295Y-82528570D02*
X79062295Y-82528570D01*
X79062295Y-82528570D02*
X79062295Y-82147618D01*
D11*
%TO.C,U2*%
X112120000Y-91880000D02*
X112120000Y-108120000D01*
X104500000Y-91880000D02*
X112120000Y-91880000D01*
X87880000Y-91880000D02*
X88500000Y-91880000D01*
X87880000Y-94000000D02*
X87880000Y-91880000D01*
X112120000Y-108120000D02*
X104500000Y-108120000D01*
X88500000Y-108120000D02*
X87880000Y-108120000D01*
X87880000Y-108120000D02*
X87880000Y-106000000D01*
X104836000Y-91690000D02*
X104500000Y-91450000D01*
X104836000Y-91210000D01*
X104836000Y-91690000D01*
G36*
X104836000Y-91690000D02*
G01*
X104500000Y-91450000D01*
X104836000Y-91210000D01*
X104836000Y-91690000D01*
G37*
%TO.C,U1*%
X79850000Y-94410000D02*
X76090000Y-94410000D01*
X79850000Y-87590000D02*
X76090000Y-87590000D01*
X76090000Y-94410000D02*
X76090000Y-93150000D01*
X76090000Y-87590000D02*
X76090000Y-88850000D01*
X81370000Y-94640000D02*
X80890000Y-94640000D01*
X81130000Y-94310000D01*
X81370000Y-94640000D01*
G36*
X81370000Y-94640000D02*
G01*
X80890000Y-94640000D01*
X81130000Y-94310000D01*
X81370000Y-94640000D01*
G37*
%TO.C,SW1*%
X97200000Y-85300000D02*
X88600000Y-85300000D01*
X97200000Y-80700000D02*
X95000000Y-80700000D01*
X90900000Y-80700000D02*
X88600000Y-80700000D01*
%TO.C,R6*%
X91700000Y-113000000D02*
X91700000Y-111000000D01*
X88300000Y-111000000D02*
X88300000Y-113000000D01*
X91700000Y-111000000D02*
X88300000Y-111000000D01*
X88300000Y-113000000D02*
X91700000Y-113000000D01*
%TO.C,R5*%
X79700000Y-99000000D02*
X76300000Y-99000000D01*
X76300000Y-101000000D02*
X79700000Y-101000000D01*
X79700000Y-101000000D02*
X79700000Y-99000000D01*
X76300000Y-99000000D02*
X76300000Y-101000000D01*
%TO.C,R4*%
X95300000Y-89000000D02*
X98700000Y-89000000D01*
X98700000Y-87000000D02*
X95300000Y-87000000D01*
X95300000Y-87000000D02*
X95300000Y-89000000D01*
X98700000Y-89000000D02*
X98700000Y-87000000D01*
%TO.C,R3*%
X93300000Y-113000000D02*
X96700000Y-113000000D01*
X96700000Y-111000000D02*
X93300000Y-111000000D01*
X93300000Y-111000000D02*
X93300000Y-113000000D01*
X96700000Y-113000000D02*
X96700000Y-111000000D01*
%TO.C,R2*%
X103700000Y-87000000D02*
X100300000Y-87000000D01*
X100300000Y-89000000D02*
X103700000Y-89000000D01*
X103700000Y-89000000D02*
X103700000Y-87000000D01*
X100300000Y-87000000D02*
X100300000Y-89000000D01*
%TO.C,Q1*%
X76200000Y-102200000D02*
X76200000Y-105800000D01*
X79800000Y-102200000D02*
X76200000Y-102200000D01*
X76200000Y-105800000D02*
X79800000Y-105800000D01*
X79800000Y-105800000D02*
X79800000Y-102200000D01*
%TO.C,J4*%
X86270000Y-117330000D02*
X88870000Y-117330000D01*
X86270000Y-117330000D02*
X86270000Y-114670000D01*
X88870000Y-117330000D02*
X88870000Y-114670000D01*
X83670000Y-116000000D02*
X83670000Y-114670000D01*
X83670000Y-114670000D02*
X85000000Y-114670000D01*
X86270000Y-114670000D02*
X88870000Y-114670000D01*
%TO.C,J3*%
X93270000Y-117330000D02*
X103490000Y-117330000D01*
X93270000Y-117330000D02*
X93270000Y-114670000D01*
X103490000Y-117330000D02*
X103490000Y-114670000D01*
X90670000Y-116000000D02*
X90670000Y-114670000D01*
X90670000Y-114670000D02*
X92000000Y-114670000D01*
X93270000Y-114670000D02*
X103490000Y-114670000D01*
%TO.C,J2*%
X73670000Y-117330000D02*
X73670000Y-116000000D01*
X75000000Y-117330000D02*
X73670000Y-117330000D01*
X76270000Y-117330000D02*
X81410000Y-117330000D01*
X76270000Y-117330000D02*
X76270000Y-114670000D01*
X81410000Y-117330000D02*
X81410000Y-114670000D01*
X76270000Y-114670000D02*
X81410000Y-114670000D01*
%TO.C,J1*%
X101900000Y-81940000D02*
X99840000Y-81940000D01*
X101900000Y-81940000D02*
X101900000Y-84060000D01*
X99840000Y-81940000D02*
X99840000Y-84060000D01*
X103960000Y-83000000D02*
X103960000Y-84060000D01*
X103960000Y-84060000D02*
X102900000Y-84060000D01*
X101900000Y-84060000D02*
X99840000Y-84060000D01*
%TO.C,D1*%
X74490000Y-113150000D02*
X80000000Y-113150000D01*
X74490000Y-109850000D02*
X80000000Y-109850000D01*
X74490000Y-109850000D02*
X74490000Y-113150000D01*
%TO.C,C7*%
X79500000Y-107000000D02*
X76500000Y-107000000D01*
X76500000Y-109000000D02*
X79500000Y-109000000D01*
X79500000Y-107000000D02*
G75*
G02*
X79500000Y-109000000I-1122254J-1000000D01*
G01*
X76500000Y-109000000D02*
G75*
G02*
X76500000Y-107000000I1122254J1000000D01*
G01*
%TO.C,C6*%
X91500000Y-87000000D02*
X88500000Y-87000000D01*
X88500000Y-89000000D02*
X91500000Y-89000000D01*
X91500000Y-87000000D02*
G75*
G02*
X91500000Y-89000000I-1122254J-1000000D01*
G01*
X88500000Y-89000000D02*
G75*
G02*
X88500000Y-87000000I1122254J1000000D01*
G01*
%TO.C,C3*%
X76500000Y-98000000D02*
G75*
G02*
X76500000Y-96000000I1122254J1000000D01*
G01*
X79500000Y-96000000D02*
G75*
G02*
X79500000Y-98000000I-1122254J-1000000D01*
G01*
X76500000Y-98000000D02*
X79500000Y-98000000D01*
X79500000Y-96000000D02*
X76500000Y-96000000D01*
%TO.C,C2*%
X81500000Y-81500000D02*
X81500000Y-84500000D01*
X83500000Y-84500000D02*
X83500000Y-81500000D01*
X81500000Y-81500000D02*
G75*
G02*
X83500000Y-81500000I1000000J-1122254D01*
G01*
X83500000Y-84500000D02*
G75*
G02*
X81500000Y-84500000I-1000000J1122254D01*
G01*
%TO.C,C1*%
X86000000Y-84500000D02*
G75*
G02*
X84000000Y-84500000I-1000000J1122254D01*
G01*
X84000000Y-81500000D02*
G75*
G02*
X86000000Y-81500000I1000000J-1122254D01*
G01*
X86000000Y-84500000D02*
X86000000Y-81500000D01*
X84000000Y-81500000D02*
X84000000Y-84500000D01*
%TD*%
M02*
