G04 Layer: BottomSilkscreenLayer*
G04 EasyEDA Pro v2.2.27.1, 2024-09-15 10:59:50*
G04 Gerber Generator version 0.3*
G04 Scale: 100 percent, Rotated: No, Reflected: No*
G04 Dimensions in millimeters*
G04 Leading zeros omitted, absolute positions, 3 integers and 5 decimals*
%TF.GenerationSoftware,KiCad,Pcbnew,8.0.7*%
%TF.CreationDate,2025-01-03T22:16:07+08:00*%
%TF.ProjectId,remote_fingers_ESP8266,72656d6f-7465-45f6-9669-6e676572735f,rev?*%
%TF.SameCoordinates,Original*%
%TF.FileFunction,Legend,Bot*%
%TF.FilePolarity,Positive*%
%FSLAX46Y46*%
G04 Gerber Fmt 4.6, Leading zero omitted, Abs format (unit mm)*
G04 Created by KiCad (PCBNEW 8.0.7) date 2025-01-03 22:16:07*
%MOMM*%
%LPD*%
G01*
G04 APERTURE LIST*
%ADD10C,0.300000*%
G04 APERTURE END LIST*
D10*
X92802632Y-94229400D02*
X92945489Y-94300828D01*
X92945489Y-94300828D02*
X93231203Y-94300828D01*
X93231203Y-94300828D02*
X93374060Y-94229400D01*
X93374060Y-94229400D02*
X93445489Y-94157971D01*
X93445489Y-94157971D02*
X93516917Y-94015114D01*
X93516917Y-94015114D02*
X93516917Y-93586542D01*
X93516917Y-93586542D02*
X93445489Y-93443685D01*
X93445489Y-93443685D02*
X93374060Y-93372257D01*
X93374060Y-93372257D02*
X93231203Y-93300828D01*
X93231203Y-93300828D02*
X92945489Y-93300828D01*
X92945489Y-93300828D02*
X92802632Y-93372257D01*
X91516918Y-94300828D02*
X91516918Y-92800828D01*
X91516918Y-94229400D02*
X91659775Y-94300828D01*
X91659775Y-94300828D02*
X91945489Y-94300828D01*
X91945489Y-94300828D02*
X92088346Y-94229400D01*
X92088346Y-94229400D02*
X92159775Y-94157971D01*
X92159775Y-94157971D02*
X92231203Y-94015114D01*
X92231203Y-94015114D02*
X92231203Y-93586542D01*
X92231203Y-93586542D02*
X92159775Y-93443685D01*
X92159775Y-93443685D02*
X92088346Y-93372257D01*
X92088346Y-93372257D02*
X91945489Y-93300828D01*
X91945489Y-93300828D02*
X91659775Y-93300828D01*
X91659775Y-93300828D02*
X91516918Y-93372257D01*
X90159775Y-94229400D02*
X90302632Y-94300828D01*
X90302632Y-94300828D02*
X90588346Y-94300828D01*
X90588346Y-94300828D02*
X90731203Y-94229400D01*
X90731203Y-94229400D02*
X90802632Y-94157971D01*
X90802632Y-94157971D02*
X90874060Y-94015114D01*
X90874060Y-94015114D02*
X90874060Y-93586542D01*
X90874060Y-93586542D02*
X90802632Y-93443685D01*
X90802632Y-93443685D02*
X90731203Y-93372257D01*
X90731203Y-93372257D02*
X90588346Y-93300828D01*
X90588346Y-93300828D02*
X90302632Y-93300828D01*
X90302632Y-93300828D02*
X90159775Y-93372257D01*
X89659775Y-93300828D02*
X89302632Y-94300828D01*
X88945489Y-93300828D02*
X89302632Y-94300828D01*
X89302632Y-94300828D02*
X89445489Y-94657971D01*
X89445489Y-94657971D02*
X89516918Y-94729400D01*
X89516918Y-94729400D02*
X89659775Y-94800828D01*
X87231204Y-94300828D02*
X87231204Y-93300828D01*
X87231204Y-93586542D02*
X87159775Y-93443685D01*
X87159775Y-93443685D02*
X87088347Y-93372257D01*
X87088347Y-93372257D02*
X86945489Y-93300828D01*
X86945489Y-93300828D02*
X86802632Y-93300828D01*
X85731204Y-94229400D02*
X85874061Y-94300828D01*
X85874061Y-94300828D02*
X86159776Y-94300828D01*
X86159776Y-94300828D02*
X86302633Y-94229400D01*
X86302633Y-94229400D02*
X86374061Y-94086542D01*
X86374061Y-94086542D02*
X86374061Y-93515114D01*
X86374061Y-93515114D02*
X86302633Y-93372257D01*
X86302633Y-93372257D02*
X86159776Y-93300828D01*
X86159776Y-93300828D02*
X85874061Y-93300828D01*
X85874061Y-93300828D02*
X85731204Y-93372257D01*
X85731204Y-93372257D02*
X85659776Y-93515114D01*
X85659776Y-93515114D02*
X85659776Y-93657971D01*
X85659776Y-93657971D02*
X86374061Y-93800828D01*
X85016919Y-94300828D02*
X85016919Y-93300828D01*
X85016919Y-93443685D02*
X84945490Y-93372257D01*
X84945490Y-93372257D02*
X84802633Y-93300828D01*
X84802633Y-93300828D02*
X84588347Y-93300828D01*
X84588347Y-93300828D02*
X84445490Y-93372257D01*
X84445490Y-93372257D02*
X84374062Y-93515114D01*
X84374062Y-93515114D02*
X84374062Y-94300828D01*
X84374062Y-93515114D02*
X84302633Y-93372257D01*
X84302633Y-93372257D02*
X84159776Y-93300828D01*
X84159776Y-93300828D02*
X83945490Y-93300828D01*
X83945490Y-93300828D02*
X83802633Y-93372257D01*
X83802633Y-93372257D02*
X83731204Y-93515114D01*
X83731204Y-93515114D02*
X83731204Y-94300828D01*
X82802633Y-94300828D02*
X82945490Y-94229400D01*
X82945490Y-94229400D02*
X83016919Y-94157971D01*
X83016919Y-94157971D02*
X83088347Y-94015114D01*
X83088347Y-94015114D02*
X83088347Y-93586542D01*
X83088347Y-93586542D02*
X83016919Y-93443685D01*
X83016919Y-93443685D02*
X82945490Y-93372257D01*
X82945490Y-93372257D02*
X82802633Y-93300828D01*
X82802633Y-93300828D02*
X82588347Y-93300828D01*
X82588347Y-93300828D02*
X82445490Y-93372257D01*
X82445490Y-93372257D02*
X82374062Y-93443685D01*
X82374062Y-93443685D02*
X82302633Y-93586542D01*
X82302633Y-93586542D02*
X82302633Y-94015114D01*
X82302633Y-94015114D02*
X82374062Y-94157971D01*
X82374062Y-94157971D02*
X82445490Y-94229400D01*
X82445490Y-94229400D02*
X82588347Y-94300828D01*
X82588347Y-94300828D02*
X82802633Y-94300828D01*
X81874061Y-93300828D02*
X81302633Y-93300828D01*
X81659776Y-92800828D02*
X81659776Y-94086542D01*
X81659776Y-94086542D02*
X81588347Y-94229400D01*
X81588347Y-94229400D02*
X81445490Y-94300828D01*
X81445490Y-94300828D02*
X81302633Y-94300828D01*
X80231204Y-94229400D02*
X80374061Y-94300828D01*
X80374061Y-94300828D02*
X80659776Y-94300828D01*
X80659776Y-94300828D02*
X80802633Y-94229400D01*
X80802633Y-94229400D02*
X80874061Y-94086542D01*
X80874061Y-94086542D02*
X80874061Y-93515114D01*
X80874061Y-93515114D02*
X80802633Y-93372257D01*
X80802633Y-93372257D02*
X80659776Y-93300828D01*
X80659776Y-93300828D02*
X80374061Y-93300828D01*
X80374061Y-93300828D02*
X80231204Y-93372257D01*
X80231204Y-93372257D02*
X80159776Y-93515114D01*
X80159776Y-93515114D02*
X80159776Y-93657971D01*
X80159776Y-93657971D02*
X80874061Y-93800828D01*
X78588347Y-93300828D02*
X78016919Y-93300828D01*
X78374062Y-94300828D02*
X78374062Y-93015114D01*
X78374062Y-93015114D02*
X78302633Y-92872257D01*
X78302633Y-92872257D02*
X78159776Y-92800828D01*
X78159776Y-92800828D02*
X78016919Y-92800828D01*
X77516919Y-94300828D02*
X77516919Y-93300828D01*
X77516919Y-92800828D02*
X77588347Y-92872257D01*
X77588347Y-92872257D02*
X77516919Y-92943685D01*
X77516919Y-92943685D02*
X77445490Y-92872257D01*
X77445490Y-92872257D02*
X77516919Y-92800828D01*
X77516919Y-92800828D02*
X77516919Y-92943685D01*
X76802633Y-93300828D02*
X76802633Y-94300828D01*
X76802633Y-93443685D02*
X76731204Y-93372257D01*
X76731204Y-93372257D02*
X76588347Y-93300828D01*
X76588347Y-93300828D02*
X76374061Y-93300828D01*
X76374061Y-93300828D02*
X76231204Y-93372257D01*
X76231204Y-93372257D02*
X76159776Y-93515114D01*
X76159776Y-93515114D02*
X76159776Y-94300828D01*
X74802633Y-93300828D02*
X74802633Y-94515114D01*
X74802633Y-94515114D02*
X74874061Y-94657971D01*
X74874061Y-94657971D02*
X74945490Y-94729400D01*
X74945490Y-94729400D02*
X75088347Y-94800828D01*
X75088347Y-94800828D02*
X75302633Y-94800828D01*
X75302633Y-94800828D02*
X75445490Y-94729400D01*
X74802633Y-94229400D02*
X74945490Y-94300828D01*
X74945490Y-94300828D02*
X75231204Y-94300828D01*
X75231204Y-94300828D02*
X75374061Y-94229400D01*
X75374061Y-94229400D02*
X75445490Y-94157971D01*
X75445490Y-94157971D02*
X75516918Y-94015114D01*
X75516918Y-94015114D02*
X75516918Y-93586542D01*
X75516918Y-93586542D02*
X75445490Y-93443685D01*
X75445490Y-93443685D02*
X75374061Y-93372257D01*
X75374061Y-93372257D02*
X75231204Y-93300828D01*
X75231204Y-93300828D02*
X74945490Y-93300828D01*
X74945490Y-93300828D02*
X74802633Y-93372257D01*
X73516918Y-94229400D02*
X73659775Y-94300828D01*
X73659775Y-94300828D02*
X73945490Y-94300828D01*
X73945490Y-94300828D02*
X74088347Y-94229400D01*
X74088347Y-94229400D02*
X74159775Y-94086542D01*
X74159775Y-94086542D02*
X74159775Y-93515114D01*
X74159775Y-93515114D02*
X74088347Y-93372257D01*
X74088347Y-93372257D02*
X73945490Y-93300828D01*
X73945490Y-93300828D02*
X73659775Y-93300828D01*
X73659775Y-93300828D02*
X73516918Y-93372257D01*
X73516918Y-93372257D02*
X73445490Y-93515114D01*
X73445490Y-93515114D02*
X73445490Y-93657971D01*
X73445490Y-93657971D02*
X74159775Y-93800828D01*
X72802633Y-94300828D02*
X72802633Y-93300828D01*
X72802633Y-93586542D02*
X72731204Y-93443685D01*
X72731204Y-93443685D02*
X72659776Y-93372257D01*
X72659776Y-93372257D02*
X72516918Y-93300828D01*
X72516918Y-93300828D02*
X72374061Y-93300828D01*
M02*
