G04 Layer: TopLayer*
G04 EasyEDA Pro v2.2.27.1, 2024-09-15 10:59:50*
G04 Gerber Generator version 0.3*
G04 Scale: 100 percent, Rotated: No, Reflected: No*
G04 Dimensions in millimeters*
G04 Leading zeros omitted, absolute positions, 3 integers and 5 decimals*
%TF.GenerationSoftware,KiCad,Pcbnew,8.0.6*%
%TF.CreationDate,2024-11-06T22:38:32+08:00*%
%TF.ProjectId,lichuang-gekuo-star-stm32f103c8t6-development-board,6c696368-7561-46e6-972d-67656b756f2d,rev?*%
%TF.SameCoordinates,Original*%
%TF.FileFunction,Copper,L1,Top*%
%TF.FilePolarity,Positive*%
%FSLAX46Y46*%
G04 Gerber Fmt 4.6, Leading zero omitted, Abs format (unit mm)*
G04 Created by KiCad (PCBNEW 8.0.6) date 2024-11-06 22:38:32*
%MOMM*%
%LPD*%
G01*
G04 APERTURE LIST*
%TA.AperFunction,ComponentPad*%
%ADD10C,1.600000*%
%TD*%
%TA.AperFunction,ComponentPad*%
%ADD11O,1.600000X1.600000*%
%TD*%
%TA.AperFunction,ComponentPad*%
%ADD12R,1.700000X1.700000*%
%TD*%
%TA.AperFunction,ComponentPad*%
%ADD13O,1.700000X1.700000*%
%TD*%
%TA.AperFunction,ComponentPad*%
%ADD14R,1.800000X1.400000*%
%TD*%
%TA.AperFunction,ComponentPad*%
%ADD15O,1.800000X1.400000*%
%TD*%
%TA.AperFunction,ComponentPad*%
%ADD16C,0.800000*%
%TD*%
%TA.AperFunction,ComponentPad*%
%ADD17O,1.700000X1.200000*%
%TD*%
%TA.AperFunction,ComponentPad*%
%ADD18C,2.000000*%
%TD*%
%TA.AperFunction,ComponentPad*%
%ADD19C,1.500000*%
%TD*%
%TA.AperFunction,ComponentPad*%
%ADD20C,1.000000*%
%TD*%
%TA.AperFunction,ComponentPad*%
%ADD21R,1.000000X1.000000*%
%TD*%
%TA.AperFunction,SMDPad,CuDef*%
%ADD22R,2.500000X6.000000*%
%TD*%
%TA.AperFunction,ViaPad*%
%ADD23C,0.500000*%
%TD*%
%TA.AperFunction,Conductor*%
%ADD24C,1.500000*%
%TD*%
%TA.AperFunction,Conductor*%
%ADD25C,0.800000*%
%TD*%
%TA.AperFunction,Conductor*%
%ADD26C,0.180000*%
%TD*%
%TA.AperFunction,Conductor*%
%ADD27C,0.500000*%
%TD*%
%TA.AperFunction,Conductor*%
%ADD28C,0.300000*%
%TD*%
%TA.AperFunction,Conductor*%
%ADD29C,0.438400*%
%TD*%
%TA.AperFunction,Conductor*%
%ADD30C,0.130000*%
%TD*%
G04 APERTURE END LIST*
D10*
%TO.P,C5,1*%
%TO.N,+3.3V*%
X83310000Y-135000000D03*
%TO.P,C5,2*%
%TO.N,GND*%
X83310000Y-130000000D03*
%TD*%
%TO.P,R4,1*%
%TO.N,Net-(LED1-K)*%
X113000000Y-72000000D03*
D11*
%TO.P,R4,2*%
%TO.N,GND*%
X113000000Y-74540000D03*
%TD*%
D10*
%TO.P,R8,1*%
%TO.N,Net-(J3-Pin_4)*%
X105000000Y-72000000D03*
D11*
%TO.P,R8,2*%
%TO.N,/PB2_BOOT1*%
X105000000Y-74540000D03*
%TD*%
D10*
%TO.P,C3,1*%
%TO.N,+3.3V*%
X105000000Y-121000000D03*
%TO.P,C3,2*%
%TO.N,GND*%
X105000000Y-126000000D03*
%TD*%
D12*
%TO.P,J2,1,Pin_1*%
%TO.N,/PA9_USART1_TX*%
X87695000Y-134250000D03*
D13*
%TO.P,J2,2,Pin_2*%
%TO.N,/PA13_SWDIO*%
X87695000Y-131710000D03*
%TO.P,J2,3,Pin_3*%
%TO.N,/PA10_USART1_RX*%
X90235000Y-134250000D03*
%TO.P,J2,4,Pin_4*%
%TO.N,/PA14_SWCLK*%
X90235000Y-131710000D03*
%TO.P,J2,5,Pin_5*%
%TO.N,/PB3_SWO*%
X92775000Y-134250000D03*
%TO.P,J2,6,Pin_6*%
%TO.N,+3.3V*%
X92775000Y-131710000D03*
%TO.P,J2,7,Pin_7*%
%TO.N,/NRST*%
X95315000Y-134250000D03*
%TO.P,J2,8,Pin_8*%
%TO.N,GND*%
X95315000Y-131710000D03*
%TD*%
D10*
%TO.P,R7,1*%
%TO.N,Net-(J3-Pin_3)*%
X92000000Y-72000000D03*
D11*
%TO.P,R7,2*%
%TO.N,/BOOT0*%
X92000000Y-74540000D03*
%TD*%
D10*
%TO.P,C6,1*%
%TO.N,/NRST*%
X99680000Y-130000000D03*
%TO.P,C6,2*%
%TO.N,GND*%
X99680000Y-135000000D03*
%TD*%
%TO.P,C4,1*%
%TO.N,+3.3V*%
X109000000Y-121000000D03*
%TO.P,C4,2*%
%TO.N,GND*%
X109000000Y-126000000D03*
%TD*%
%TO.P,C1,1*%
%TO.N,+5V*%
X88000000Y-121000000D03*
%TO.P,C1,2*%
%TO.N,GND*%
X88000000Y-126000000D03*
%TD*%
%TO.P,R6,1*%
%TO.N,/NRST*%
X114000000Y-131000000D03*
D11*
%TO.P,R6,2*%
%TO.N,+3.3V*%
X114000000Y-133540000D03*
%TD*%
D10*
%TO.P,R1,1*%
%TO.N,Net-(LED2-A)*%
X84000000Y-72000000D03*
D11*
%TO.P,R1,2*%
%TO.N,/PC13*%
X84000000Y-74540000D03*
%TD*%
D10*
%TO.P,R5,1*%
%TO.N,/D+*%
X90500000Y-108000000D03*
D11*
%TO.P,R5,2*%
%TO.N,+3.3V*%
X90500000Y-105460000D03*
%TD*%
D14*
%TO.P,LED2,1,K*%
%TO.N,GND*%
X88000000Y-74000000D03*
D15*
%TO.P,LED2,2,A*%
%TO.N,Net-(LED2-A)*%
X88000000Y-71460000D03*
%TD*%
D16*
%TO.P,J1,A1,GND*%
%TO.N,GND*%
X95150000Y-113375000D03*
%TO.P,J1,A4,VBUS*%
%TO.N,/VBUS*%
X96250000Y-113375000D03*
%TO.P,J1,A5,CC1*%
%TO.N,Net-(J1-CC1)*%
X97350000Y-113375000D03*
%TO.P,J1,A6,D+*%
%TO.N,/D+*%
X98450000Y-113375000D03*
%TO.P,J1,A7,D-*%
%TO.N,/D-*%
X99550000Y-113375000D03*
%TO.P,J1,A8,SBU1*%
%TO.N,unconnected-(J1-SBU1-PadA8)*%
X100650000Y-113375000D03*
%TO.P,J1,A9,VBUS*%
%TO.N,/VBUS*%
X101750000Y-113375000D03*
%TO.P,J1,A12,GND*%
%TO.N,GND*%
X102850000Y-113375000D03*
%TO.P,J1,B1,GND*%
X102850000Y-114625000D03*
%TO.P,J1,B4,VBUS*%
%TO.N,/VBUS*%
X101750000Y-114625000D03*
%TO.P,J1,B5,CC2*%
%TO.N,Net-(J1-CC2)*%
X100650000Y-114625000D03*
%TO.P,J1,B6,D+*%
%TO.N,/D+*%
X99550000Y-114625000D03*
%TO.P,J1,B7,D-*%
%TO.N,/D-*%
X98450000Y-114625000D03*
%TO.P,J1,B8,SBU2*%
%TO.N,unconnected-(J1-SBU2-PadB8)*%
X97350000Y-114625000D03*
%TO.P,J1,B9,VBUS*%
%TO.N,/VBUS*%
X96250000Y-114625000D03*
%TO.P,J1,B12,GND*%
%TO.N,GND*%
X95150000Y-114625000D03*
D17*
%TO.P,J1,S1,SHIELD*%
X96330000Y-111850000D03*
X96330000Y-116150000D03*
X101670000Y-111850000D03*
X101670000Y-116150000D03*
%TD*%
D12*
%TO.P,J4,1,Pin_1*%
%TO.N,/PA0*%
X113740410Y-78000000D03*
D13*
%TO.P,J4,2,Pin_2*%
%TO.N,/PA1*%
X113740410Y-80540000D03*
%TO.P,J4,3,Pin_3*%
%TO.N,/PA2*%
X113740410Y-83080000D03*
%TO.P,J4,4,Pin_4*%
%TO.N,/PA3*%
X113740410Y-85620000D03*
%TO.P,J4,5,Pin_5*%
%TO.N,/PA4*%
X113740410Y-88160000D03*
%TO.P,J4,6,Pin_6*%
%TO.N,/PA5*%
X113740410Y-90700000D03*
%TO.P,J4,7,Pin_7*%
%TO.N,/PA6*%
X113740410Y-93240000D03*
%TO.P,J4,8,Pin_8*%
%TO.N,/PA7*%
X113740410Y-95780000D03*
%TO.P,J4,9,Pin_9*%
%TO.N,/PB0*%
X113740410Y-98320000D03*
%TO.P,J4,10,Pin_10*%
%TO.N,/PB1*%
X113740410Y-100860000D03*
%TO.P,J4,11,Pin_11*%
%TO.N,/PB10*%
X113740410Y-103400000D03*
%TO.P,J4,12,Pin_12*%
%TO.N,/PB11*%
X113740410Y-105940000D03*
%TO.P,J4,13,Pin_13*%
%TO.N,/PB12*%
X113740410Y-108480000D03*
%TO.P,J4,14,Pin_14*%
%TO.N,/PB13*%
X113740410Y-111020000D03*
%TO.P,J4,15,Pin_15*%
%TO.N,/PB14*%
X113740410Y-113560000D03*
%TO.P,J4,16,Pin_16*%
%TO.N,/PB15*%
X113740410Y-116100000D03*
%TO.P,J4,17,Pin_17*%
%TO.N,+5V*%
X113740410Y-118640000D03*
%TO.P,J4,18,Pin_18*%
%TO.N,+3.3V*%
X113740410Y-121180000D03*
%TO.P,J4,19,Pin_19*%
%TO.N,GND*%
X113740410Y-123720000D03*
%TO.P,J4,20,Pin_20*%
X113740410Y-126260000D03*
%TD*%
D10*
%TO.P,C11,1*%
%TO.N,/OSC+*%
X100600000Y-82000000D03*
%TO.P,C11,2*%
%TO.N,GND*%
X100600000Y-77000000D03*
%TD*%
D18*
%TO.P,SW1,1*%
%TO.N,GND*%
X110265000Y-135000000D03*
X103765000Y-135000000D03*
%TO.P,SW1,2*%
%TO.N,/NRST*%
X110265000Y-130500000D03*
X103765000Y-130500000D03*
%TD*%
D12*
%TO.P,J3,1,Pin_1*%
%TO.N,+3.3V*%
X96000000Y-74000000D03*
D13*
%TO.P,J3,2,Pin_2*%
X96000000Y-71460000D03*
%TO.P,J3,3,Pin_3*%
%TO.N,Net-(J3-Pin_3)*%
X98540000Y-74000000D03*
%TO.P,J3,4,Pin_4*%
%TO.N,Net-(J3-Pin_4)*%
X98540000Y-71460000D03*
%TO.P,J3,5,Pin_5*%
%TO.N,GND*%
X101080000Y-74000000D03*
%TO.P,J3,6,Pin_6*%
X101080000Y-71460000D03*
%TD*%
D10*
%TO.P,C15,1*%
%TO.N,+BATT*%
X89000000Y-89000000D03*
%TO.P,C15,2*%
%TO.N,GND*%
X94000000Y-89000000D03*
%TD*%
D12*
%TO.P,J5,1,Pin_1*%
%TO.N,+BATT*%
X83259590Y-78000000D03*
D13*
%TO.P,J5,2,Pin_2*%
%TO.N,/NRST*%
X83259590Y-80540000D03*
%TO.P,J5,3,Pin_3*%
%TO.N,/PC13*%
X83259590Y-83080000D03*
%TO.P,J5,4,Pin_4*%
%TO.N,/PB9*%
X83259590Y-85620000D03*
%TO.P,J5,5,Pin_5*%
%TO.N,/PB8*%
X83259590Y-88160000D03*
%TO.P,J5,6,Pin_6*%
%TO.N,/PB7*%
X83259590Y-90700000D03*
%TO.P,J5,7,Pin_7*%
%TO.N,/PB6*%
X83259590Y-93240000D03*
%TO.P,J5,8,Pin_8*%
%TO.N,/PB5*%
X83259590Y-95780000D03*
%TO.P,J5,9,Pin_9*%
%TO.N,/PB4*%
X83259590Y-98320000D03*
%TO.P,J5,10,Pin_10*%
%TO.N,/PB3_SWO*%
X83259590Y-100860000D03*
%TO.P,J5,11,Pin_11*%
%TO.N,/PA15*%
X83259590Y-103400000D03*
%TO.P,J5,12,Pin_12*%
%TO.N,/PA14_SWCLK*%
X83259590Y-105940000D03*
%TO.P,J5,13,Pin_13*%
%TO.N,/PA13_SWDIO*%
X83259590Y-108480000D03*
%TO.P,J5,14,Pin_14*%
%TO.N,/PA10_USART1_RX*%
X83259590Y-111020000D03*
%TO.P,J5,15,Pin_15*%
%TO.N,/PA9_USART1_TX*%
X83259590Y-113560000D03*
%TO.P,J5,16,Pin_16*%
%TO.N,/PA8*%
X83259590Y-116100000D03*
%TO.P,J5,17,Pin_17*%
%TO.N,+5V*%
X83259590Y-118640000D03*
%TO.P,J5,18,Pin_18*%
%TO.N,+3.3V*%
X83259590Y-121180000D03*
%TO.P,J5,19,Pin_19*%
%TO.N,GND*%
X83259590Y-123720000D03*
%TO.P,J5,20,Pin_20*%
X83259590Y-126260000D03*
%TD*%
D10*
%TO.P,C12,1*%
%TO.N,/OSC-*%
X104280000Y-82000000D03*
%TO.P,C12,2*%
%TO.N,GND*%
X104280000Y-77000000D03*
%TD*%
%TO.P,C2,1*%
%TO.N,+5V*%
X92000000Y-121000000D03*
%TO.P,C2,2*%
%TO.N,GND*%
X92000000Y-126000000D03*
%TD*%
%TO.P,C7,1*%
%TO.N,/OSC32+*%
X91000000Y-82000000D03*
%TO.P,C7,2*%
%TO.N,GND*%
X91000000Y-77000000D03*
%TD*%
%TO.P,R3,1*%
%TO.N,GND*%
X92000000Y-115000000D03*
D11*
%TO.P,R3,2*%
%TO.N,Net-(J1-CC2)*%
X92000000Y-112460000D03*
%TD*%
D10*
%TO.P,C17,1*%
%TO.N,+3.3V*%
X94000000Y-104000000D03*
%TO.P,C17,2*%
%TO.N,GND*%
X94000000Y-109000000D03*
%TD*%
%TO.P,C19,1*%
%TO.N,+3.3V*%
X106000000Y-95000000D03*
%TO.P,C19,2*%
%TO.N,GND*%
X106000000Y-90000000D03*
%TD*%
%TO.P,R2,1*%
%TO.N,GND*%
X89000000Y-115000000D03*
D11*
%TO.P,R2,2*%
%TO.N,Net-(J1-CC1)*%
X89000000Y-112460000D03*
%TD*%
D14*
%TO.P,LED1,1,K*%
%TO.N,Net-(LED1-K)*%
X109000000Y-74000000D03*
D15*
%TO.P,LED1,2,A*%
%TO.N,+3.3V*%
X109000000Y-71460000D03*
%TD*%
D10*
%TO.P,C8,1*%
%TO.N,/OSC32-*%
X97000000Y-82000000D03*
%TO.P,C8,2*%
%TO.N,GND*%
X97000000Y-77000000D03*
%TD*%
%TO.P,C18,1*%
%TO.N,+3.3V*%
X95000000Y-95000000D03*
%TO.P,C18,2*%
%TO.N,GND*%
X90000000Y-95000000D03*
%TD*%
D19*
%TO.P,X2,1,1*%
%TO.N,/OSC+*%
X100000000Y-86250000D03*
%TO.P,X2,2,2*%
%TO.N,GND*%
X102440000Y-86250000D03*
%TO.P,X2,3,3*%
%TO.N,/OSC-*%
X104880000Y-86250000D03*
%TD*%
D20*
%TO.P,X1,1,1*%
%TO.N,/OSC32-*%
X95000000Y-85500000D03*
%TO.P,X1,2,2*%
%TO.N,/OSC32+*%
X93100000Y-85500000D03*
D21*
%TO.P,X1,3,3*%
%TO.N,GND*%
X95550000Y-80000000D03*
D22*
X94050000Y-80000000D03*
D21*
X92550000Y-80000000D03*
%TD*%
D10*
%TO.P,C16,1*%
%TO.N,+3.3V*%
X104000000Y-106000000D03*
%TO.P,C16,2*%
%TO.N,GND*%
X109000000Y-106000000D03*
%TD*%
D23*
%TO.N,GND*%
X97856800Y-106220000D03*
X100143200Y-106330000D03*
%TO.N,/NRST*%
X100250000Y-97000000D03*
%TO.N,/VBUS*%
X98000000Y-117000000D03*
X98000000Y-116000000D03*
X99000000Y-116000000D03*
X99000000Y-117000000D03*
%TO.N,/D+*%
X96340000Y-110150000D03*
%TO.N,/PA13_SWDIO*%
X98250000Y-102500000D03*
%TO.N,/PA10_USART1_RX*%
X99250000Y-102500000D03*
%TO.N,/PA9_USART1_TX*%
X100250000Y-102500000D03*
%TO.N,/PA0*%
X101750000Y-97000000D03*
X106265000Y-92485000D03*
%TO.N,/PC13*%
X97750000Y-97000000D03*
%TO.N,/PA8*%
X101250000Y-102500000D03*
%TD*%
D24*
%TO.N,GND*%
X88000000Y-74000000D02*
X91000000Y-77000000D01*
D25*
X102850000Y-113375000D02*
X102850000Y-114625000D01*
X95150000Y-113375000D02*
X95150000Y-114625000D01*
%TO.N,+3.3V*%
X84970000Y-136660000D02*
X111630000Y-136660000D01*
X112060000Y-131600000D02*
X112060000Y-122860410D01*
D24*
X95000000Y-95000000D02*
X95000000Y-99460000D01*
D25*
X106410000Y-123590000D02*
X109000000Y-121000000D01*
D24*
X109000000Y-111000000D02*
X104000000Y-106000000D01*
D25*
X111150000Y-73610000D02*
X109000000Y-71460000D01*
X114000000Y-133540000D02*
X112060000Y-131600000D01*
D24*
X96000000Y-71460000D02*
X96000000Y-74000000D01*
X92540000Y-105460000D02*
X94000000Y-104000000D01*
D25*
X97510000Y-69950000D02*
X107490000Y-69950000D01*
X100895000Y-123590000D02*
X106410000Y-123590000D01*
D24*
X95000000Y-103000000D02*
X94000000Y-104000000D01*
X106000000Y-99510000D02*
X106000000Y-104000000D01*
X95000000Y-99460000D02*
X105950000Y-99460000D01*
X106000000Y-104000000D02*
X104000000Y-106000000D01*
X109000000Y-121000000D02*
X109000000Y-111000000D01*
D25*
X111630000Y-136660000D02*
X114000000Y-134290000D01*
D24*
X106000000Y-95000000D02*
X106000000Y-99510000D01*
D25*
X112060000Y-122860410D02*
X113740410Y-121180000D01*
D24*
X105950000Y-99460000D02*
X106000000Y-99510000D01*
D25*
X96000000Y-71460000D02*
X97510000Y-69950000D01*
D24*
X95000000Y-99460000D02*
X95000000Y-103000000D01*
D25*
X114000000Y-134290000D02*
X114000000Y-133540000D01*
X107490000Y-69950000D02*
X109000000Y-71460000D01*
X83310000Y-135000000D02*
X84970000Y-136660000D01*
X92775000Y-131710000D02*
X100895000Y-123590000D01*
X111150000Y-89850000D02*
X111150000Y-73610000D01*
D24*
X90500000Y-105460000D02*
X92540000Y-105460000D01*
D25*
X106000000Y-95000000D02*
X111150000Y-89850000D01*
D26*
%TO.N,/NRST*%
X98350000Y-97000000D02*
X98350000Y-96101400D01*
X85665000Y-82945410D02*
X83259590Y-80540000D01*
D27*
X95430000Y-134250000D02*
X95315000Y-134250000D01*
D26*
X95658600Y-93410000D02*
X90572254Y-93410000D01*
X98350000Y-96101400D02*
X95658600Y-93410000D01*
X100250000Y-97000000D02*
X98350000Y-97000000D01*
X85665000Y-88502746D02*
X85665000Y-82945410D01*
D27*
X99680000Y-130000000D02*
X95430000Y-134250000D01*
D26*
X90572254Y-93410000D02*
X85665000Y-88502746D01*
D25*
%TO.N,+BATT*%
X89000000Y-89000000D02*
X86415000Y-86415000D01*
X86415000Y-86415000D02*
X86415000Y-81155410D01*
X86415000Y-81155410D02*
X83259590Y-78000000D01*
D28*
%TO.N,/VBUS*%
X97143334Y-115380000D02*
X99920000Y-115380000D01*
X96250000Y-114625000D02*
X96388334Y-114625000D01*
X96388334Y-114625000D02*
X97143334Y-115380000D01*
D29*
%TO.N,/D-*%
X99550000Y-113375000D02*
X99550000Y-113438050D01*
X99550000Y-113438050D02*
X98450000Y-114538050D01*
X98450000Y-114538050D02*
X98450000Y-114625000D01*
D26*
%TO.N,/D+*%
X98450000Y-112260000D02*
X98450000Y-113375000D01*
X96340000Y-110150000D02*
X98450000Y-112260000D01*
%TO.N,Net-(J1-CC2)*%
X93690000Y-115990000D02*
X95510000Y-117810000D01*
X99930000Y-117810000D02*
X100526800Y-117213200D01*
X92020000Y-112460000D02*
X93690000Y-114130000D01*
X95510000Y-117810000D02*
X99930000Y-117810000D01*
X100526800Y-117213200D02*
X100526800Y-114748200D01*
X100526800Y-114748200D02*
X100650000Y-114625000D01*
X93690000Y-114130000D02*
X93690000Y-115990000D01*
X92000000Y-112460000D02*
X92020000Y-112460000D01*
D30*
%TO.N,Net-(J1-CC1)*%
X96730000Y-112755000D02*
X97350000Y-113375000D01*
X95721824Y-112755000D02*
X96730000Y-112755000D01*
X94346824Y-111380000D02*
X95721824Y-112755000D01*
X89000000Y-112460000D02*
X90080000Y-111380000D01*
X90080000Y-111380000D02*
X94346824Y-111380000D01*
D26*
%TO.N,/PA13_SWDIO*%
X85129590Y-106610000D02*
X83259590Y-108480000D01*
X94140000Y-106610000D02*
X85129590Y-106610000D01*
X98250000Y-102500000D02*
X94140000Y-106610000D01*
%TO.N,/PA10_USART1_RX*%
X94700000Y-107050000D02*
X93447746Y-107050000D01*
X99250000Y-102500000D02*
X94700000Y-107050000D01*
D28*
X90235000Y-134250000D02*
X88975000Y-135510000D01*
D26*
X84194590Y-110085000D02*
X83259590Y-111020000D01*
D28*
X81439590Y-112840000D02*
X83259590Y-111020000D01*
X86316841Y-135510000D02*
X81439590Y-130632749D01*
D26*
X90412746Y-110085000D02*
X84194590Y-110085000D01*
D28*
X81439590Y-130632749D02*
X81439590Y-112840000D01*
D26*
X93447746Y-107050000D02*
X90412746Y-110085000D01*
D28*
X88975000Y-135510000D02*
X86316841Y-135510000D01*
%TO.N,/PA9_USART1_TX*%
X81999590Y-114820000D02*
X83259590Y-113560000D01*
D26*
X86294590Y-110525000D02*
X83259590Y-113560000D01*
X93630000Y-107490000D02*
X90595000Y-110525000D01*
X100250000Y-102500000D02*
X95260000Y-107490000D01*
D28*
X81999590Y-130400789D02*
X81999590Y-114820000D01*
D26*
X95260000Y-107490000D02*
X93630000Y-107490000D01*
D28*
X87695000Y-134250000D02*
X85848801Y-134250000D01*
D26*
X90595000Y-110525000D02*
X86294590Y-110525000D01*
D28*
X85848801Y-134250000D02*
X81999590Y-130400789D01*
D26*
%TO.N,/PA0*%
X101750000Y-97000000D02*
X106265000Y-92485000D01*
%TO.N,/PC13*%
X97750000Y-97000000D02*
X97750000Y-96123654D01*
X90390000Y-93850000D02*
X85225000Y-88685000D01*
D28*
X83730000Y-74540000D02*
X81530000Y-76740000D01*
D26*
X85225000Y-88685000D02*
X85225000Y-85045410D01*
X97750000Y-96123654D02*
X95476346Y-93850000D01*
D28*
X81530000Y-76740000D02*
X81530000Y-81350410D01*
X81530000Y-81350410D02*
X83259590Y-83080000D01*
X84000000Y-74540000D02*
X83730000Y-74540000D01*
D26*
X95476346Y-93850000D02*
X90390000Y-93850000D01*
X85225000Y-85045410D02*
X83259590Y-83080000D01*
%TO.N,/PA8*%
X101250000Y-102500000D02*
X101250000Y-103675329D01*
X101250000Y-103675329D02*
X93960329Y-110965000D01*
X93960329Y-110965000D02*
X88394590Y-110965000D01*
X88394590Y-110965000D02*
X83259590Y-116100000D01*
%TD*%
%TA.AperFunction,Conductor*%
%TO.N,GND*%
G36*
X104792539Y-100630185D02*
G01*
X104838294Y-100682989D01*
X104849500Y-100734500D01*
X104849500Y-103472084D01*
X104829815Y-103539123D01*
X104813181Y-103559765D01*
X103445451Y-104927494D01*
X103423048Y-104945239D01*
X103273442Y-105037872D01*
X103273437Y-105037876D01*
X103109020Y-105187761D01*
X102974943Y-105365308D01*
X102974938Y-105365316D01*
X102875775Y-105564461D01*
X102875769Y-105564476D01*
X102814885Y-105778462D01*
X102814884Y-105778464D01*
X102794357Y-105999999D01*
X102794357Y-106000000D01*
X102814884Y-106221535D01*
X102814885Y-106221537D01*
X102875769Y-106435523D01*
X102875775Y-106435538D01*
X102974938Y-106634683D01*
X102974943Y-106634691D01*
X103109020Y-106812238D01*
X103273437Y-106962123D01*
X103273439Y-106962125D01*
X103423045Y-107054756D01*
X103445449Y-107072502D01*
X107813181Y-111440234D01*
X107846666Y-111501557D01*
X107849500Y-111527915D01*
X107849500Y-120639508D01*
X107844766Y-120673442D01*
X107814885Y-120778462D01*
X107794357Y-120999998D01*
X107795225Y-121009370D01*
X107781806Y-121077939D01*
X107759434Y-121108486D01*
X106114741Y-122753181D01*
X106053418Y-122786666D01*
X106027060Y-122789500D01*
X100816155Y-122789500D01*
X100661510Y-122820261D01*
X100661498Y-122820264D01*
X100515827Y-122880602D01*
X100515814Y-122880609D01*
X100384711Y-122968210D01*
X100384707Y-122968213D01*
X92929173Y-130423747D01*
X92867850Y-130457232D01*
X92830686Y-130459594D01*
X92775004Y-130454723D01*
X92774998Y-130454723D01*
X92629682Y-130467436D01*
X92557023Y-130473793D01*
X92557020Y-130473793D01*
X92345677Y-130530422D01*
X92345668Y-130530426D01*
X92147361Y-130622898D01*
X92147357Y-130622900D01*
X91968121Y-130748402D01*
X91813402Y-130903121D01*
X91687900Y-131082357D01*
X91687898Y-131082361D01*
X91617382Y-131233583D01*
X91571209Y-131286022D01*
X91504016Y-131305174D01*
X91437135Y-131284958D01*
X91392618Y-131233583D01*
X91358127Y-131159617D01*
X91322102Y-131082362D01*
X91322100Y-131082359D01*
X91322099Y-131082357D01*
X91196599Y-130903124D01*
X91134773Y-130841298D01*
X91041877Y-130748402D01*
X90879481Y-130634691D01*
X90862638Y-130622897D01*
X90763484Y-130576661D01*
X90664330Y-130530425D01*
X90664326Y-130530424D01*
X90664322Y-130530422D01*
X90452977Y-130473793D01*
X90235002Y-130454723D01*
X90234998Y-130454723D01*
X90089682Y-130467436D01*
X90017023Y-130473793D01*
X90017020Y-130473793D01*
X89805677Y-130530422D01*
X89805668Y-130530426D01*
X89607361Y-130622898D01*
X89607357Y-130622900D01*
X89428121Y-130748402D01*
X89273402Y-130903121D01*
X89147900Y-131082357D01*
X89147898Y-131082361D01*
X89077382Y-131233583D01*
X89031209Y-131286022D01*
X88964016Y-131305174D01*
X88897135Y-131284958D01*
X88852618Y-131233583D01*
X88818127Y-131159617D01*
X88782102Y-131082362D01*
X88782100Y-131082359D01*
X88782099Y-131082357D01*
X88656599Y-130903124D01*
X88594773Y-130841298D01*
X88501877Y-130748402D01*
X88339481Y-130634691D01*
X88322638Y-130622897D01*
X88223484Y-130576661D01*
X88124330Y-130530425D01*
X88124326Y-130530424D01*
X88124322Y-130530422D01*
X87912977Y-130473793D01*
X87695002Y-130454723D01*
X87694998Y-130454723D01*
X87549682Y-130467436D01*
X87477023Y-130473793D01*
X87477020Y-130473793D01*
X87265677Y-130530422D01*
X87265668Y-130530426D01*
X87067361Y-130622898D01*
X87067357Y-130622900D01*
X86888121Y-130748402D01*
X86733402Y-130903121D01*
X86607900Y-131082357D01*
X86607898Y-131082361D01*
X86515426Y-131280668D01*
X86515422Y-131280677D01*
X86458793Y-131492020D01*
X86458793Y-131492024D01*
X86439723Y-131709997D01*
X86439723Y-131710002D01*
X86458793Y-131927975D01*
X86458793Y-131927979D01*
X86515422Y-132139322D01*
X86515424Y-132139326D01*
X86515425Y-132139330D01*
X86533638Y-132178387D01*
X86607897Y-132337638D01*
X86632998Y-132373486D01*
X86733402Y-132516877D01*
X86888123Y-132671598D01*
X87034263Y-132773926D01*
X87077887Y-132828502D01*
X87085081Y-132898000D01*
X87053558Y-132960355D01*
X86993328Y-132995769D01*
X86963140Y-132999500D01*
X86813482Y-132999500D01*
X86732519Y-133012323D01*
X86719696Y-133014354D01*
X86606658Y-133071950D01*
X86606657Y-133071951D01*
X86606652Y-133071954D01*
X86516954Y-133161652D01*
X86516951Y-133161657D01*
X86516950Y-133161658D01*
X86497751Y-133199337D01*
X86459352Y-133274698D01*
X86444500Y-133368475D01*
X86444500Y-133575500D01*
X86424815Y-133642539D01*
X86372011Y-133688294D01*
X86320500Y-133699500D01*
X86128188Y-133699500D01*
X86061149Y-133679815D01*
X86040507Y-133663181D01*
X82586409Y-130209083D01*
X82552924Y-130147760D01*
X82550090Y-130121402D01*
X82550090Y-122423570D01*
X82569775Y-122356531D01*
X82622579Y-122310776D01*
X82691737Y-122300832D01*
X82726491Y-122311186D01*
X82830260Y-122359575D01*
X83041613Y-122416207D01*
X83224516Y-122432208D01*
X83259588Y-122435277D01*
X83259590Y-122435277D01*
X83259592Y-122435277D01*
X83288292Y-122432766D01*
X83477567Y-122416207D01*
X83688920Y-122359575D01*
X83887229Y-122267102D01*
X84066467Y-122141598D01*
X84221188Y-121986877D01*
X84346692Y-121807639D01*
X84439165Y-121609330D01*
X84495797Y-121397977D01*
X84514867Y-121180000D01*
X84499119Y-120999999D01*
X86794357Y-120999999D01*
X86794357Y-121000000D01*
X86814884Y-121221535D01*
X86814885Y-121221537D01*
X86875769Y-121435523D01*
X86875775Y-121435538D01*
X86974938Y-121634683D01*
X86974943Y-121634691D01*
X87109020Y-121812238D01*
X87273437Y-121962123D01*
X87273439Y-121962125D01*
X87462595Y-122079245D01*
X87462596Y-122079245D01*
X87462599Y-122079247D01*
X87670060Y-122159618D01*
X87888757Y-122200500D01*
X87888759Y-122200500D01*
X88111241Y-122200500D01*
X88111243Y-122200500D01*
X88329940Y-122159618D01*
X88537401Y-122079247D01*
X88726562Y-121962124D01*
X88890981Y-121812236D01*
X89025058Y-121634689D01*
X89124229Y-121435528D01*
X89185115Y-121221536D01*
X89205643Y-121000000D01*
X89205643Y-120999999D01*
X90794357Y-120999999D01*
X90794357Y-121000000D01*
X90814884Y-121221535D01*
X90814885Y-121221537D01*
X90875769Y-121435523D01*
X90875775Y-121435538D01*
X90974938Y-121634683D01*
X90974943Y-121634691D01*
X91109020Y-121812238D01*
X91273437Y-121962123D01*
X91273439Y-121962125D01*
X91462595Y-122079245D01*
X91462596Y-122079245D01*
X91462599Y-122079247D01*
X91670060Y-122159618D01*
X91888757Y-122200500D01*
X91888759Y-122200500D01*
X92111241Y-122200500D01*
X92111243Y-122200500D01*
X92329940Y-122159618D01*
X92537401Y-122079247D01*
X92726562Y-121962124D01*
X92890981Y-121812236D01*
X93025058Y-121634689D01*
X93124229Y-121435528D01*
X93185115Y-121221536D01*
X93205643Y-121000000D01*
X93205643Y-120999999D01*
X103794357Y-120999999D01*
X103794357Y-121000000D01*
X103814884Y-121221535D01*
X103814885Y-121221537D01*
X103875769Y-121435523D01*
X103875775Y-121435538D01*
X103974938Y-121634683D01*
X103974943Y-121634691D01*
X104109020Y-121812238D01*
X104273437Y-121962123D01*
X104273439Y-121962125D01*
X104462595Y-122079245D01*
X104462596Y-122079245D01*
X104462599Y-122079247D01*
X104670060Y-122159618D01*
X104888757Y-122200500D01*
X104888759Y-122200500D01*
X105111241Y-122200500D01*
X105111243Y-122200500D01*
X105329940Y-122159618D01*
X105537401Y-122079247D01*
X105726562Y-121962124D01*
X105890981Y-121812236D01*
X106025058Y-121634689D01*
X106124229Y-121435528D01*
X106185115Y-121221536D01*
X106205643Y-121000000D01*
X106185115Y-120778464D01*
X106124229Y-120564472D01*
X106118199Y-120552362D01*
X106025061Y-120365316D01*
X106025056Y-120365308D01*
X105890979Y-120187761D01*
X105726562Y-120037876D01*
X105726560Y-120037874D01*
X105537404Y-119920754D01*
X105537398Y-119920752D01*
X105507104Y-119909016D01*
X105329940Y-119840382D01*
X105111243Y-119799500D01*
X104888757Y-119799500D01*
X104670060Y-119840382D01*
X104538864Y-119891207D01*
X104462601Y-119920752D01*
X104462595Y-119920754D01*
X104273439Y-120037874D01*
X104273437Y-120037876D01*
X104109020Y-120187761D01*
X103974943Y-120365308D01*
X103974938Y-120365316D01*
X103875775Y-120564461D01*
X103875769Y-120564476D01*
X103814885Y-120778462D01*
X103814884Y-120778464D01*
X103794357Y-120999999D01*
X93205643Y-120999999D01*
X93185115Y-120778464D01*
X93124229Y-120564472D01*
X93118199Y-120552362D01*
X93025061Y-120365316D01*
X93025056Y-120365308D01*
X92890979Y-120187761D01*
X92726562Y-120037876D01*
X92726560Y-120037874D01*
X92537404Y-119920754D01*
X92537398Y-119920752D01*
X92507104Y-119909016D01*
X92329940Y-119840382D01*
X92111243Y-119799500D01*
X91888757Y-119799500D01*
X91670060Y-119840382D01*
X91538864Y-119891207D01*
X91462601Y-119920752D01*
X91462595Y-119920754D01*
X91273439Y-120037874D01*
X91273437Y-120037876D01*
X91109020Y-120187761D01*
X90974943Y-120365308D01*
X90974938Y-120365316D01*
X90875775Y-120564461D01*
X90875769Y-120564476D01*
X90814885Y-120778462D01*
X90814884Y-120778464D01*
X90794357Y-120999999D01*
X89205643Y-120999999D01*
X89185115Y-120778464D01*
X89124229Y-120564472D01*
X89118199Y-120552362D01*
X89025061Y-120365316D01*
X89025056Y-120365308D01*
X88890979Y-120187761D01*
X88726562Y-120037876D01*
X88726560Y-120037874D01*
X88537404Y-119920754D01*
X88537398Y-119920752D01*
X88507104Y-119909016D01*
X88329940Y-119840382D01*
X88111243Y-119799500D01*
X87888757Y-119799500D01*
X87670060Y-119840382D01*
X87538864Y-119891207D01*
X87462601Y-119920752D01*
X87462595Y-119920754D01*
X87273439Y-120037874D01*
X87273437Y-120037876D01*
X87109020Y-120187761D01*
X86974943Y-120365308D01*
X86974938Y-120365316D01*
X86875775Y-120564461D01*
X86875769Y-120564476D01*
X86814885Y-120778462D01*
X86814884Y-120778464D01*
X86794357Y-120999999D01*
X84499119Y-120999999D01*
X84495797Y-120962023D01*
X84439165Y-120750670D01*
X84346692Y-120552362D01*
X84346690Y-120552359D01*
X84346689Y-120552357D01*
X84221189Y-120373124D01*
X84213373Y-120365308D01*
X84066467Y-120218402D01*
X83887229Y-120092898D01*
X83736004Y-120022381D01*
X83683567Y-119976210D01*
X83664415Y-119909016D01*
X83684631Y-119842135D01*
X83736004Y-119797618D01*
X83887229Y-119727102D01*
X84066467Y-119601598D01*
X84221188Y-119446877D01*
X84346692Y-119267639D01*
X84439165Y-119069330D01*
X84495797Y-118857977D01*
X84514867Y-118640000D01*
X84495797Y-118422023D01*
X84439165Y-118210670D01*
X84346692Y-118012362D01*
X84346690Y-118012359D01*
X84346689Y-118012357D01*
X84221189Y-117833124D01*
X84221186Y-117833121D01*
X84066467Y-117678402D01*
X83887229Y-117552898D01*
X83736004Y-117482381D01*
X83683567Y-117436210D01*
X83664415Y-117369016D01*
X83684631Y-117302135D01*
X83736004Y-117257618D01*
X83887229Y-117187102D01*
X84066467Y-117061598D01*
X84221188Y-116906877D01*
X84346692Y-116727639D01*
X84439165Y-116529330D01*
X84495797Y-116317977D01*
X84512395Y-116128254D01*
X84514867Y-116100002D01*
X84514867Y-116099997D01*
X84508440Y-116026541D01*
X84495797Y-115882023D01*
X84445738Y-115695200D01*
X84447401Y-115625353D01*
X84477830Y-115575430D01*
X87590525Y-112462734D01*
X87651846Y-112429251D01*
X87721538Y-112434235D01*
X87777471Y-112476107D01*
X87801675Y-112538976D01*
X87814884Y-112681535D01*
X87814885Y-112681537D01*
X87875769Y-112895523D01*
X87875775Y-112895538D01*
X87974938Y-113094683D01*
X87974943Y-113094691D01*
X88109020Y-113272238D01*
X88273437Y-113422123D01*
X88273439Y-113422125D01*
X88462595Y-113539245D01*
X88462596Y-113539245D01*
X88462599Y-113539247D01*
X88670060Y-113619618D01*
X88888757Y-113660500D01*
X88888759Y-113660500D01*
X89111241Y-113660500D01*
X89111243Y-113660500D01*
X89329940Y-113619618D01*
X89537401Y-113539247D01*
X89726562Y-113422124D01*
X89890981Y-113272236D01*
X90025058Y-113094689D01*
X90124229Y-112895528D01*
X90185115Y-112681536D01*
X90205643Y-112460000D01*
X90202571Y-112426852D01*
X90185115Y-112238464D01*
X90174050Y-112199575D01*
X90137440Y-112070903D01*
X90138026Y-112001039D01*
X90169023Y-111949292D01*
X90236500Y-111881817D01*
X90297824Y-111848333D01*
X90324180Y-111845500D01*
X90764621Y-111845500D01*
X90831660Y-111865185D01*
X90877415Y-111917989D01*
X90887359Y-111987147D01*
X90877435Y-112018957D01*
X90877846Y-112019116D01*
X90875769Y-112024476D01*
X90814885Y-112238462D01*
X90814884Y-112238464D01*
X90794357Y-112459999D01*
X90794357Y-112460000D01*
X90814884Y-112681535D01*
X90814885Y-112681537D01*
X90875769Y-112895523D01*
X90875775Y-112895538D01*
X90974938Y-113094683D01*
X90974943Y-113094691D01*
X91109020Y-113272238D01*
X91273437Y-113422123D01*
X91273439Y-113422125D01*
X91462595Y-113539245D01*
X91462596Y-113539245D01*
X91462599Y-113539247D01*
X91670060Y-113619618D01*
X91888757Y-113660500D01*
X91888759Y-113660500D01*
X92111241Y-113660500D01*
X92111243Y-113660500D01*
X92329940Y-113619618D01*
X92367043Y-113605243D01*
X92436663Y-113599381D01*
X92498404Y-113632089D01*
X92499517Y-113633189D01*
X93163181Y-114296853D01*
X93196666Y-114358176D01*
X93199500Y-114384534D01*
X93199500Y-115925424D01*
X93199500Y-116054576D01*
X93211670Y-116099997D01*
X93232926Y-116179327D01*
X93265214Y-116235250D01*
X93297502Y-116291174D01*
X95117502Y-118111174D01*
X95208826Y-118202498D01*
X95320674Y-118267074D01*
X95445424Y-118300500D01*
X95445426Y-118300500D01*
X99994574Y-118300500D01*
X99994576Y-118300500D01*
X100119326Y-118267074D01*
X100231174Y-118202498D01*
X100919298Y-117514374D01*
X100983874Y-117402526D01*
X101017300Y-117277776D01*
X101017300Y-117148624D01*
X101017300Y-115408150D01*
X101036985Y-115341111D01*
X101075326Y-115303157D01*
X101134030Y-115266271D01*
X101201262Y-115247272D01*
X101265971Y-115266273D01*
X101400473Y-115350787D01*
X101400477Y-115350788D01*
X101400478Y-115350789D01*
X101564406Y-115408150D01*
X101570745Y-115410368D01*
X101570750Y-115410369D01*
X101749996Y-115430565D01*
X101750000Y-115430565D01*
X101750004Y-115430565D01*
X101929249Y-115410369D01*
X101929252Y-115410368D01*
X101929255Y-115410368D01*
X102099522Y-115350789D01*
X102252262Y-115254816D01*
X102379816Y-115127262D01*
X102475789Y-114974522D01*
X102535368Y-114804255D01*
X102536275Y-114796207D01*
X102555565Y-114625003D01*
X102555565Y-114624996D01*
X102535369Y-114445750D01*
X102535368Y-114445745D01*
X102475788Y-114275476D01*
X102379815Y-114122737D01*
X102344759Y-114087681D01*
X102311274Y-114026358D01*
X102316258Y-113956666D01*
X102344759Y-113912319D01*
X102349488Y-113907590D01*
X102379816Y-113877262D01*
X102475789Y-113724522D01*
X102535368Y-113554255D01*
X102537059Y-113539247D01*
X102555565Y-113375003D01*
X102555565Y-113374996D01*
X102535369Y-113195750D01*
X102535368Y-113195745D01*
X102521182Y-113155203D01*
X102475789Y-113025478D01*
X102379816Y-112872738D01*
X102252262Y-112745184D01*
X102199765Y-112712198D01*
X102099523Y-112649211D01*
X101929254Y-112589631D01*
X101929249Y-112589630D01*
X101750004Y-112569435D01*
X101749996Y-112569435D01*
X101570750Y-112589630D01*
X101570745Y-112589631D01*
X101400476Y-112649211D01*
X101265972Y-112733727D01*
X101198736Y-112752727D01*
X101134028Y-112733727D01*
X100999523Y-112649211D01*
X100829254Y-112589631D01*
X100829249Y-112589630D01*
X100650004Y-112569435D01*
X100649996Y-112569435D01*
X100470750Y-112589630D01*
X100470745Y-112589631D01*
X100300476Y-112649211D01*
X100165972Y-112733727D01*
X100098736Y-112752727D01*
X100034028Y-112733727D01*
X99899523Y-112649211D01*
X99729254Y-112589631D01*
X99729249Y-112589630D01*
X99550004Y-112569435D01*
X99549996Y-112569435D01*
X99370750Y-112589630D01*
X99370745Y-112589631D01*
X99200476Y-112649211D01*
X99130472Y-112693198D01*
X99063235Y-112712198D01*
X98996400Y-112691830D01*
X98951186Y-112638562D01*
X98940500Y-112588204D01*
X98940500Y-112195426D01*
X98940500Y-112195424D01*
X98907074Y-112070674D01*
X98842498Y-111958826D01*
X98751174Y-111867502D01*
X98746843Y-111863171D01*
X98746832Y-111863161D01*
X97020228Y-110136557D01*
X96986743Y-110075234D01*
X96984813Y-110063820D01*
X96976237Y-109993182D01*
X96920220Y-109845477D01*
X96830483Y-109715470D01*
X96712240Y-109610717D01*
X96712238Y-109610716D01*
X96712237Y-109610715D01*
X96572365Y-109537303D01*
X96418986Y-109499500D01*
X96418985Y-109499500D01*
X96418862Y-109499500D01*
X96418774Y-109499474D01*
X96411540Y-109498596D01*
X96411686Y-109497392D01*
X96351823Y-109479815D01*
X96306068Y-109427011D01*
X96296124Y-109357853D01*
X96325149Y-109294297D01*
X96331181Y-109287819D01*
X97619001Y-107999999D01*
X101540964Y-104078034D01*
X101540969Y-104078031D01*
X101551172Y-104067827D01*
X101551174Y-104067827D01*
X101642498Y-103976503D01*
X101707074Y-103864655D01*
X101740500Y-103739905D01*
X101740500Y-102973144D01*
X101760185Y-102906105D01*
X101762432Y-102902729D01*
X101830220Y-102804523D01*
X101886237Y-102656818D01*
X101905278Y-102500000D01*
X101901889Y-102472084D01*
X101886237Y-102343181D01*
X101864992Y-102287164D01*
X101830220Y-102195477D01*
X101740483Y-102065470D01*
X101622240Y-101960717D01*
X101622238Y-101960716D01*
X101622237Y-101960715D01*
X101482365Y-101887303D01*
X101328986Y-101849500D01*
X101328985Y-101849500D01*
X101171015Y-101849500D01*
X101171014Y-101849500D01*
X101017634Y-101887303D01*
X100877761Y-101960715D01*
X100877759Y-101960717D01*
X100832226Y-102001055D01*
X100768992Y-102030776D01*
X100699729Y-102021592D01*
X100667774Y-102001055D01*
X100622240Y-101960717D01*
X100622238Y-101960715D01*
X100482365Y-101887303D01*
X100328986Y-101849500D01*
X100328985Y-101849500D01*
X100171015Y-101849500D01*
X100171014Y-101849500D01*
X100017634Y-101887303D01*
X99877761Y-101960715D01*
X99877759Y-101960717D01*
X99832226Y-102001055D01*
X99768992Y-102030776D01*
X99699729Y-102021592D01*
X99667774Y-102001055D01*
X99622240Y-101960717D01*
X99622238Y-101960715D01*
X99482365Y-101887303D01*
X99328986Y-101849500D01*
X99328985Y-101849500D01*
X99171015Y-101849500D01*
X99171014Y-101849500D01*
X99017634Y-101887303D01*
X98877761Y-101960715D01*
X98877759Y-101960717D01*
X98832226Y-102001055D01*
X98768992Y-102030776D01*
X98699729Y-102021592D01*
X98667774Y-102001055D01*
X98622240Y-101960717D01*
X98622238Y-101960715D01*
X98482365Y-101887303D01*
X98328986Y-101849500D01*
X98328985Y-101849500D01*
X98171015Y-101849500D01*
X98171014Y-101849500D01*
X98017634Y-101887303D01*
X97877762Y-101960715D01*
X97877760Y-101960717D01*
X97763282Y-102062135D01*
X97759516Y-102065471D01*
X97669781Y-102195475D01*
X97669780Y-102195476D01*
X97613763Y-102343178D01*
X97613762Y-102343183D01*
X97605185Y-102413823D01*
X97577563Y-102478000D01*
X97569770Y-102486556D01*
X93973147Y-106083181D01*
X93911824Y-106116666D01*
X93885466Y-106119500D01*
X93806915Y-106119500D01*
X93739876Y-106099815D01*
X93694121Y-106047011D01*
X93684177Y-105977853D01*
X93713202Y-105914297D01*
X93719234Y-105907819D01*
X93905033Y-105722020D01*
X94554553Y-105072498D01*
X94576947Y-105054760D01*
X94726562Y-104962124D01*
X94876633Y-104825316D01*
X94890979Y-104812238D01*
X94890981Y-104812236D01*
X95025058Y-104634689D01*
X95048470Y-104587668D01*
X95071785Y-104555266D01*
X95745878Y-103881174D01*
X95745891Y-103881162D01*
X95749497Y-103877555D01*
X95749501Y-103877553D01*
X95877553Y-103749501D01*
X95983996Y-103602994D01*
X96066211Y-103441639D01*
X96088138Y-103374155D01*
X96122172Y-103269409D01*
X96150501Y-103090551D01*
X96150501Y-102905052D01*
X96150500Y-102905037D01*
X96150500Y-100734500D01*
X96170185Y-100667461D01*
X96222989Y-100621706D01*
X96274500Y-100610500D01*
X104725500Y-100610500D01*
X104792539Y-100630185D01*
G37*
%TD.AperFunction*%
%TA.AperFunction,Conductor*%
G36*
X94169684Y-111865185D02*
G01*
X94190326Y-111881819D01*
X95426418Y-113117911D01*
X95459903Y-113179234D01*
X95461957Y-113219475D01*
X95444435Y-113374995D01*
X95444435Y-113375003D01*
X95464630Y-113554249D01*
X95464631Y-113554254D01*
X95524211Y-113724523D01*
X95620184Y-113877262D01*
X95655241Y-113912319D01*
X95688726Y-113973642D01*
X95683742Y-114043334D01*
X95655241Y-114087681D01*
X95620184Y-114122737D01*
X95524211Y-114275476D01*
X95464631Y-114445745D01*
X95464630Y-114445750D01*
X95444435Y-114624996D01*
X95444435Y-114625003D01*
X95464630Y-114804249D01*
X95464631Y-114804254D01*
X95524211Y-114974523D01*
X95570396Y-115048025D01*
X95620184Y-115127262D01*
X95747738Y-115254816D01*
X95765972Y-115266273D01*
X95900474Y-115350787D01*
X95900478Y-115350789D01*
X96064406Y-115408150D01*
X96070745Y-115410368D01*
X96070750Y-115410369D01*
X96249997Y-115430565D01*
X96250000Y-115430565D01*
X96250001Y-115430565D01*
X96268609Y-115428468D01*
X96339287Y-115420504D01*
X96408108Y-115432558D01*
X96440852Y-115456043D01*
X96805319Y-115820510D01*
X96911864Y-115882023D01*
X96911865Y-115882024D01*
X96911866Y-115882024D01*
X96930849Y-115892984D01*
X97070859Y-115930500D01*
X97070863Y-115930500D01*
X97072576Y-115930959D01*
X97132236Y-115967324D01*
X97162099Y-116026541D01*
X97172617Y-116079414D01*
X97175000Y-116103607D01*
X97175000Y-116196392D01*
X97172617Y-116220584D01*
X97154518Y-116311572D01*
X97147462Y-116334834D01*
X97111953Y-116420558D01*
X97100494Y-116441994D01*
X97048951Y-116519134D01*
X97033530Y-116537925D01*
X96967925Y-116603530D01*
X96949135Y-116618951D01*
X96871997Y-116670493D01*
X96850561Y-116681951D01*
X96791777Y-116706301D01*
X96791767Y-116706306D01*
X96709772Y-116752034D01*
X96709758Y-116752043D01*
X96663517Y-116785387D01*
X96663504Y-116785398D01*
X96601939Y-116840105D01*
X96531830Y-116945843D01*
X96502804Y-117009403D01*
X96502803Y-117009408D01*
X96472098Y-117108710D01*
X96472098Y-117108712D01*
X96470835Y-117197269D01*
X96450196Y-117264021D01*
X96396745Y-117309018D01*
X96346848Y-117319500D01*
X95764534Y-117319500D01*
X95697495Y-117299815D01*
X95676853Y-117283181D01*
X94216819Y-115823147D01*
X94183334Y-115761824D01*
X94180500Y-115735466D01*
X94180500Y-114065426D01*
X94180500Y-114065424D01*
X94147074Y-113940674D01*
X94082498Y-113828826D01*
X93991174Y-113737502D01*
X93181286Y-112927614D01*
X93147801Y-112866291D01*
X93149700Y-112806003D01*
X93185115Y-112681536D01*
X93205643Y-112460000D01*
X93202571Y-112426852D01*
X93185115Y-112238464D01*
X93185114Y-112238462D01*
X93180939Y-112223790D01*
X93124229Y-112024472D01*
X93124226Y-112024467D01*
X93122154Y-112019116D01*
X93123291Y-112018675D01*
X93112118Y-111955985D01*
X93138992Y-111891490D01*
X93196468Y-111851763D01*
X93235379Y-111845500D01*
X94102645Y-111845500D01*
X94169684Y-111865185D01*
G37*
%TD.AperFunction*%
%TA.AperFunction,Conductor*%
G36*
X95612299Y-110109214D02*
G01*
X95668232Y-110151086D01*
X95692061Y-110210449D01*
X95703763Y-110306819D01*
X95736205Y-110392361D01*
X95759780Y-110454523D01*
X95849517Y-110584530D01*
X95967760Y-110689283D01*
X95967762Y-110689284D01*
X96107634Y-110762696D01*
X96268297Y-110802295D01*
X96267879Y-110803987D01*
X96323465Y-110827903D01*
X96332034Y-110835706D01*
X97923181Y-112426852D01*
X97956666Y-112488175D01*
X97959500Y-112514533D01*
X97959500Y-112588204D01*
X97939815Y-112655243D01*
X97887011Y-112700998D01*
X97817853Y-112710942D01*
X97769528Y-112693198D01*
X97699523Y-112649211D01*
X97529254Y-112589631D01*
X97529249Y-112589630D01*
X97350004Y-112569435D01*
X97349997Y-112569435D01*
X97277001Y-112577659D01*
X97208179Y-112565604D01*
X97175437Y-112542120D01*
X97015826Y-112382509D01*
X97015824Y-112382507D01*
X96945059Y-112341651D01*
X96909679Y-112321224D01*
X96909678Y-112321223D01*
X96909677Y-112321223D01*
X96791284Y-112289500D01*
X96791283Y-112289500D01*
X95966003Y-112289500D01*
X95898964Y-112269815D01*
X95878322Y-112253181D01*
X94709751Y-111084610D01*
X94676266Y-111023287D01*
X94681250Y-110953595D01*
X94709749Y-110909250D01*
X95481286Y-110137713D01*
X95542607Y-110104230D01*
X95612299Y-110109214D01*
G37*
%TD.AperFunction*%
%TA.AperFunction,Conductor*%
G36*
X100711435Y-103074334D02*
G01*
X100752379Y-103130949D01*
X100759500Y-103172364D01*
X100759500Y-103420795D01*
X100739815Y-103487834D01*
X100723181Y-103508476D01*
X93793476Y-110438181D01*
X93732153Y-110471666D01*
X93705795Y-110474500D01*
X91638534Y-110474500D01*
X91571495Y-110454815D01*
X91525740Y-110402011D01*
X91515796Y-110332853D01*
X91544821Y-110269297D01*
X91550853Y-110262819D01*
X93796853Y-108016819D01*
X93858176Y-107983334D01*
X93884534Y-107980500D01*
X95324574Y-107980500D01*
X95324576Y-107980500D01*
X95449326Y-107947074D01*
X95561174Y-107882498D01*
X100257967Y-103185704D01*
X100319288Y-103152221D01*
X100327929Y-103150760D01*
X100328984Y-103150500D01*
X100328985Y-103150500D01*
X100482365Y-103112696D01*
X100577875Y-103062567D01*
X100646381Y-103048842D01*
X100711435Y-103074334D01*
G37*
%TD.AperFunction*%
%TA.AperFunction,Conductor*%
G36*
X84659312Y-88315010D02*
G01*
X84713190Y-88359495D01*
X84734465Y-88426047D01*
X84734500Y-88428998D01*
X84734500Y-88620424D01*
X84734500Y-88749576D01*
X84744699Y-88787639D01*
X84767926Y-88874327D01*
X84777848Y-88891512D01*
X84832502Y-88986174D01*
X89997502Y-94151174D01*
X90088826Y-94242498D01*
X90200674Y-94307074D01*
X90325424Y-94340500D01*
X93787029Y-94340500D01*
X93854068Y-94360185D01*
X93899823Y-94412989D01*
X93909767Y-94482147D01*
X93898029Y-94519773D01*
X93875773Y-94564466D01*
X93875769Y-94564476D01*
X93814885Y-94778462D01*
X93814884Y-94778464D01*
X93794357Y-94999999D01*
X93794357Y-95000000D01*
X93814884Y-95221535D01*
X93844766Y-95326555D01*
X93849500Y-95360490D01*
X93849500Y-102472084D01*
X93829815Y-102539123D01*
X93813181Y-102559765D01*
X93445451Y-102927494D01*
X93423048Y-102945239D01*
X93273442Y-103037872D01*
X93273437Y-103037876D01*
X93109020Y-103187761D01*
X92974943Y-103365309D01*
X92951528Y-103412329D01*
X92928211Y-103444734D01*
X92099766Y-104273181D01*
X92038443Y-104306666D01*
X92012085Y-104309500D01*
X90876655Y-104309500D01*
X90835496Y-104301805D01*
X90835455Y-104301951D01*
X90833889Y-104301505D01*
X90831861Y-104301126D01*
X90829940Y-104300382D01*
X90611243Y-104259500D01*
X90388757Y-104259500D01*
X90170060Y-104300382D01*
X90038864Y-104351207D01*
X89962601Y-104380752D01*
X89962595Y-104380754D01*
X89773439Y-104497874D01*
X89773437Y-104497876D01*
X89609020Y-104647761D01*
X89474943Y-104825308D01*
X89474938Y-104825316D01*
X89375775Y-105024461D01*
X89375769Y-105024476D01*
X89314885Y-105238462D01*
X89314884Y-105238464D01*
X89294357Y-105459999D01*
X89294357Y-105460000D01*
X89314884Y-105681535D01*
X89314885Y-105681537D01*
X89375769Y-105895523D01*
X89375773Y-105895533D01*
X89398029Y-105940227D01*
X89410291Y-106009013D01*
X89383418Y-106073508D01*
X89325942Y-106113236D01*
X89287029Y-106119500D01*
X85194166Y-106119500D01*
X85065014Y-106119500D01*
X85023430Y-106130642D01*
X84940261Y-106152926D01*
X84828416Y-106217501D01*
X84679492Y-106366425D01*
X84618168Y-106399909D01*
X84548477Y-106394924D01*
X84492543Y-106353053D01*
X84468127Y-106287588D01*
X84472036Y-106246651D01*
X84495797Y-106157977D01*
X84514867Y-105940000D01*
X84495797Y-105722023D01*
X84439165Y-105510670D01*
X84346692Y-105312362D01*
X84346690Y-105312359D01*
X84346689Y-105312357D01*
X84221189Y-105133124D01*
X84150395Y-105062330D01*
X84066467Y-104978402D01*
X83887229Y-104852898D01*
X83736004Y-104782381D01*
X83683567Y-104736210D01*
X83664415Y-104669016D01*
X83684631Y-104602135D01*
X83736004Y-104557618D01*
X83887229Y-104487102D01*
X84066467Y-104361598D01*
X84221188Y-104206877D01*
X84346692Y-104027639D01*
X84439165Y-103829330D01*
X84495797Y-103617977D01*
X84514867Y-103400000D01*
X84495797Y-103182023D01*
X84439165Y-102970670D01*
X84346692Y-102772362D01*
X84346690Y-102772359D01*
X84346689Y-102772357D01*
X84221189Y-102593124D01*
X84151512Y-102523447D01*
X84066467Y-102438402D01*
X83887229Y-102312898D01*
X83736004Y-102242381D01*
X83683567Y-102196210D01*
X83664415Y-102129016D01*
X83684631Y-102062135D01*
X83736004Y-102017618D01*
X83887229Y-101947102D01*
X84066467Y-101821598D01*
X84221188Y-101666877D01*
X84346692Y-101487639D01*
X84439165Y-101289330D01*
X84495797Y-101077977D01*
X84514867Y-100860000D01*
X84495797Y-100642023D01*
X84439165Y-100430670D01*
X84346692Y-100232362D01*
X84346690Y-100232359D01*
X84346689Y-100232357D01*
X84221189Y-100053124D01*
X84221186Y-100053121D01*
X84066467Y-99898402D01*
X83887229Y-99772898D01*
X83736004Y-99702381D01*
X83683567Y-99656210D01*
X83664415Y-99589016D01*
X83684631Y-99522135D01*
X83736004Y-99477618D01*
X83887229Y-99407102D01*
X84066467Y-99281598D01*
X84221188Y-99126877D01*
X84346692Y-98947639D01*
X84439165Y-98749330D01*
X84495797Y-98537977D01*
X84514867Y-98320000D01*
X84513948Y-98309500D01*
X84508965Y-98252539D01*
X84495797Y-98102023D01*
X84439165Y-97890670D01*
X84346692Y-97692362D01*
X84346690Y-97692359D01*
X84346689Y-97692357D01*
X84221189Y-97513124D01*
X84176322Y-97468257D01*
X84066467Y-97358402D01*
X83887229Y-97232898D01*
X83736004Y-97162381D01*
X83683567Y-97116210D01*
X83664415Y-97049016D01*
X83684631Y-96982135D01*
X83736004Y-96937618D01*
X83887229Y-96867102D01*
X84066467Y-96741598D01*
X84221188Y-96586877D01*
X84346692Y-96407639D01*
X84439165Y-96209330D01*
X84495797Y-95997977D01*
X84514867Y-95780000D01*
X84495797Y-95562023D01*
X84439165Y-95350670D01*
X84346692Y-95152362D01*
X84346690Y-95152359D01*
X84346689Y-95152357D01*
X84221189Y-94973124D01*
X84170129Y-94922064D01*
X84066467Y-94818402D01*
X83887229Y-94692898D01*
X83736004Y-94622381D01*
X83683567Y-94576210D01*
X83664415Y-94509016D01*
X83684631Y-94442135D01*
X83736004Y-94397618D01*
X83887229Y-94327102D01*
X84066467Y-94201598D01*
X84221188Y-94046877D01*
X84346692Y-93867639D01*
X84439165Y-93669330D01*
X84495797Y-93457977D01*
X84514867Y-93240000D01*
X84495797Y-93022023D01*
X84439165Y-92810670D01*
X84346692Y-92612362D01*
X84346690Y-92612359D01*
X84346689Y-92612357D01*
X84221189Y-92433124D01*
X84186888Y-92398823D01*
X84066467Y-92278402D01*
X83887229Y-92152898D01*
X83736004Y-92082381D01*
X83683567Y-92036210D01*
X83664415Y-91969016D01*
X83684631Y-91902135D01*
X83736004Y-91857618D01*
X83887229Y-91787102D01*
X84066467Y-91661598D01*
X84221188Y-91506877D01*
X84346692Y-91327639D01*
X84439165Y-91129330D01*
X84495797Y-90917977D01*
X84514867Y-90700000D01*
X84495797Y-90482023D01*
X84439165Y-90270670D01*
X84346692Y-90072362D01*
X84346690Y-90072359D01*
X84346689Y-90072357D01*
X84221189Y-89893124D01*
X84221186Y-89893121D01*
X84066467Y-89738402D01*
X83887229Y-89612898D01*
X83736004Y-89542381D01*
X83683567Y-89496210D01*
X83664415Y-89429016D01*
X83684631Y-89362135D01*
X83736004Y-89317618D01*
X83887229Y-89247102D01*
X84066467Y-89121598D01*
X84221188Y-88966877D01*
X84346692Y-88787639D01*
X84439165Y-88589330D01*
X84490725Y-88396904D01*
X84527090Y-88337244D01*
X84589937Y-88306715D01*
X84659312Y-88315010D01*
G37*
%TD.AperFunction*%
%TA.AperFunction,Conductor*%
G36*
X113002702Y-68200617D02*
G01*
X113412917Y-68218528D01*
X113423654Y-68219468D01*
X113828057Y-68272708D01*
X113838695Y-68274583D01*
X114236925Y-68362869D01*
X114247365Y-68365667D01*
X114636363Y-68488317D01*
X114646524Y-68492015D01*
X115023363Y-68648108D01*
X115033155Y-68652674D01*
X115394965Y-68841020D01*
X115404305Y-68846413D01*
X115689636Y-69028189D01*
X115748309Y-69065568D01*
X115757170Y-69071772D01*
X116080766Y-69320076D01*
X116089053Y-69327030D01*
X116389767Y-69602583D01*
X116397416Y-69610232D01*
X116672969Y-69910946D01*
X116679923Y-69919233D01*
X116928227Y-70242829D01*
X116934431Y-70251690D01*
X117153578Y-70595680D01*
X117158983Y-70605042D01*
X117285004Y-70847126D01*
X117347322Y-70966838D01*
X117351894Y-70976642D01*
X117507983Y-71353473D01*
X117511683Y-71363639D01*
X117634331Y-71752630D01*
X117637131Y-71763078D01*
X117725414Y-72161296D01*
X117727292Y-72171950D01*
X117780529Y-72576326D01*
X117781472Y-72587102D01*
X117799382Y-72997297D01*
X117799500Y-73002706D01*
X117799500Y-132997293D01*
X117799382Y-133002702D01*
X117781472Y-133412897D01*
X117780529Y-133423673D01*
X117727292Y-133828049D01*
X117725414Y-133838703D01*
X117637131Y-134236921D01*
X117634331Y-134247369D01*
X117511683Y-134636360D01*
X117507983Y-134646526D01*
X117351894Y-135023357D01*
X117347322Y-135033161D01*
X117158987Y-135394951D01*
X117153578Y-135404319D01*
X116934431Y-135748309D01*
X116928227Y-135757170D01*
X116679923Y-136080766D01*
X116672969Y-136089053D01*
X116397416Y-136389767D01*
X116389767Y-136397416D01*
X116089053Y-136672969D01*
X116080766Y-136679923D01*
X115757170Y-136928227D01*
X115748309Y-136934431D01*
X115404319Y-137153578D01*
X115394951Y-137158987D01*
X115033161Y-137347322D01*
X115023357Y-137351894D01*
X114646526Y-137507983D01*
X114636360Y-137511683D01*
X114247369Y-137634331D01*
X114236921Y-137637131D01*
X113838703Y-137725414D01*
X113828049Y-137727292D01*
X113423673Y-137780529D01*
X113412897Y-137781472D01*
X113002703Y-137799382D01*
X112997294Y-137799500D01*
X83002706Y-137799500D01*
X82997297Y-137799382D01*
X82587102Y-137781472D01*
X82576326Y-137780529D01*
X82171950Y-137727292D01*
X82161296Y-137725414D01*
X81763078Y-137637131D01*
X81752630Y-137634331D01*
X81363639Y-137511683D01*
X81353473Y-137507983D01*
X80976642Y-137351894D01*
X80966838Y-137347322D01*
X80840944Y-137281786D01*
X80605042Y-137158983D01*
X80595686Y-137153582D01*
X80423685Y-137044004D01*
X80251690Y-136934431D01*
X80242829Y-136928227D01*
X79919233Y-136679923D01*
X79910946Y-136672969D01*
X79610232Y-136397416D01*
X79602583Y-136389767D01*
X79327030Y-136089053D01*
X79320076Y-136080766D01*
X79071772Y-135757170D01*
X79065568Y-135748309D01*
X79012070Y-135664334D01*
X78846413Y-135404305D01*
X78841020Y-135394965D01*
X78652674Y-135033155D01*
X78648105Y-135023357D01*
X78638430Y-135000000D01*
X78492015Y-134646524D01*
X78488316Y-134636360D01*
X78465646Y-134564461D01*
X78365667Y-134247365D01*
X78362868Y-134236921D01*
X78351970Y-134187764D01*
X78274583Y-133838695D01*
X78272707Y-133828049D01*
X78219468Y-133423654D01*
X78218528Y-133412917D01*
X78200618Y-133002702D01*
X78200500Y-132997293D01*
X78200500Y-112767525D01*
X80889090Y-112767525D01*
X80889090Y-130705224D01*
X80925551Y-130841298D01*
X80925552Y-130841300D01*
X80926606Y-130845236D01*
X80926607Y-130845238D01*
X80999075Y-130970757D01*
X80999079Y-130970762D01*
X80999080Y-130970764D01*
X83441213Y-133412897D01*
X83638143Y-133609826D01*
X83671628Y-133671149D01*
X83666644Y-133740841D01*
X83624772Y-133796774D01*
X83559308Y-133821191D01*
X83527677Y-133819396D01*
X83493139Y-133812939D01*
X83421243Y-133799500D01*
X83198757Y-133799500D01*
X82980060Y-133840382D01*
X82848864Y-133891207D01*
X82772601Y-133920752D01*
X82772595Y-133920754D01*
X82583439Y-134037874D01*
X82583437Y-134037876D01*
X82419020Y-134187761D01*
X82284943Y-134365308D01*
X82284938Y-134365316D01*
X82185775Y-134564461D01*
X82185769Y-134564476D01*
X82124885Y-134778462D01*
X82124884Y-134778464D01*
X82104357Y-134999999D01*
X82104357Y-135000000D01*
X82124884Y-135221535D01*
X82124885Y-135221537D01*
X82185769Y-135435523D01*
X82185775Y-135435538D01*
X82284938Y-135634683D01*
X82284943Y-135634691D01*
X82419020Y-135812238D01*
X82583437Y-135962123D01*
X82583439Y-135962125D01*
X82772595Y-136079245D01*
X82772596Y-136079245D01*
X82772599Y-136079247D01*
X82980060Y-136159618D01*
X83198757Y-136200500D01*
X83327060Y-136200500D01*
X83394099Y-136220185D01*
X83414741Y-136236819D01*
X84459707Y-137281786D01*
X84459711Y-137281789D01*
X84590814Y-137369390D01*
X84590818Y-137369392D01*
X84590821Y-137369394D01*
X84736503Y-137429738D01*
X84891153Y-137460499D01*
X84891157Y-137460500D01*
X84891158Y-137460500D01*
X111708844Y-137460500D01*
X111708845Y-137460499D01*
X111863497Y-137429737D01*
X112009179Y-137369394D01*
X112140289Y-137281789D01*
X114621789Y-134800289D01*
X114651865Y-134755277D01*
X114709394Y-134669179D01*
X114769737Y-134523497D01*
X114773988Y-134502124D01*
X114776540Y-134489294D01*
X114808921Y-134427386D01*
X114814574Y-134421889D01*
X114890981Y-134352236D01*
X115025058Y-134174689D01*
X115124229Y-133975528D01*
X115185115Y-133761536D01*
X115205643Y-133540000D01*
X115201272Y-133492834D01*
X115185115Y-133318464D01*
X115185114Y-133318462D01*
X115176561Y-133288402D01*
X115124229Y-133104472D01*
X115108037Y-133071954D01*
X115025061Y-132905316D01*
X115025056Y-132905308D01*
X114890979Y-132727761D01*
X114726562Y-132577876D01*
X114726560Y-132577874D01*
X114537404Y-132460754D01*
X114537395Y-132460750D01*
X114443956Y-132424552D01*
X114343475Y-132385625D01*
X114288075Y-132343054D01*
X114264484Y-132277288D01*
X114280195Y-132209207D01*
X114330219Y-132160428D01*
X114343466Y-132154377D01*
X114537401Y-132079247D01*
X114726562Y-131962124D01*
X114890981Y-131812236D01*
X115025058Y-131634689D01*
X115124229Y-131435528D01*
X115185115Y-131221536D01*
X115205643Y-131000000D01*
X115185115Y-130778464D01*
X115124229Y-130564472D01*
X115092126Y-130500000D01*
X115025061Y-130365316D01*
X115025056Y-130365308D01*
X114890979Y-130187761D01*
X114726562Y-130037876D01*
X114726560Y-130037874D01*
X114537404Y-129920754D01*
X114537398Y-129920752D01*
X114329940Y-129840382D01*
X114111243Y-129799500D01*
X113888757Y-129799500D01*
X113670060Y-129840382D01*
X113538864Y-129891207D01*
X113462601Y-129920752D01*
X113462595Y-129920754D01*
X113273439Y-130037874D01*
X113273437Y-130037876D01*
X113109019Y-130187762D01*
X113083453Y-130221618D01*
X113027344Y-130263253D01*
X112957632Y-130267944D01*
X112896451Y-130234201D01*
X112863224Y-130172738D01*
X112860500Y-130146890D01*
X112860500Y-123243349D01*
X112880185Y-123176310D01*
X112896815Y-123155672D01*
X113586237Y-122466249D01*
X113647558Y-122432766D01*
X113684719Y-122430404D01*
X113740410Y-122435277D01*
X113740410Y-122435276D01*
X113740411Y-122435277D01*
X113740412Y-122435277D01*
X113769112Y-122432766D01*
X113958387Y-122416207D01*
X114169740Y-122359575D01*
X114368049Y-122267102D01*
X114547287Y-122141598D01*
X114702008Y-121986877D01*
X114827512Y-121807639D01*
X114919985Y-121609330D01*
X114976617Y-121397977D01*
X114995687Y-121180000D01*
X114976617Y-120962023D01*
X114919985Y-120750670D01*
X114827512Y-120552362D01*
X114827510Y-120552359D01*
X114827509Y-120552357D01*
X114702009Y-120373124D01*
X114694193Y-120365308D01*
X114547287Y-120218402D01*
X114368049Y-120092898D01*
X114216824Y-120022381D01*
X114164387Y-119976210D01*
X114145235Y-119909016D01*
X114165451Y-119842135D01*
X114216824Y-119797618D01*
X114368049Y-119727102D01*
X114547287Y-119601598D01*
X114702008Y-119446877D01*
X114827512Y-119267639D01*
X114919985Y-119069330D01*
X114976617Y-118857977D01*
X114995687Y-118640000D01*
X114976617Y-118422023D01*
X114919985Y-118210670D01*
X114827512Y-118012362D01*
X114827510Y-118012359D01*
X114827509Y-118012357D01*
X114702009Y-117833124D01*
X114702006Y-117833121D01*
X114547287Y-117678402D01*
X114368049Y-117552898D01*
X114216824Y-117482381D01*
X114164387Y-117436210D01*
X114145235Y-117369016D01*
X114165451Y-117302135D01*
X114216824Y-117257618D01*
X114368049Y-117187102D01*
X114547287Y-117061598D01*
X114702008Y-116906877D01*
X114827512Y-116727639D01*
X114919985Y-116529330D01*
X114976617Y-116317977D01*
X114993215Y-116128254D01*
X114995687Y-116100002D01*
X114995687Y-116099997D01*
X114989260Y-116026541D01*
X114976617Y-115882023D01*
X114919985Y-115670670D01*
X114827512Y-115472362D01*
X114827510Y-115472359D01*
X114827509Y-115472357D01*
X114702009Y-115293124D01*
X114656157Y-115247272D01*
X114547287Y-115138402D01*
X114368049Y-115012898D01*
X114216824Y-114942381D01*
X114164387Y-114896210D01*
X114145235Y-114829016D01*
X114165451Y-114762135D01*
X114216824Y-114717618D01*
X114368049Y-114647102D01*
X114547287Y-114521598D01*
X114702008Y-114366877D01*
X114827512Y-114187639D01*
X114919985Y-113989330D01*
X114976617Y-113777977D01*
X114995687Y-113560000D01*
X114995184Y-113554255D01*
X114991979Y-113517618D01*
X114976617Y-113342023D01*
X114919985Y-113130670D01*
X114827512Y-112932362D01*
X114827510Y-112932359D01*
X114827509Y-112932357D01*
X114702009Y-112753124D01*
X114630419Y-112681534D01*
X114547287Y-112598402D01*
X114368049Y-112472898D01*
X114216824Y-112402381D01*
X114164387Y-112356210D01*
X114145235Y-112289016D01*
X114165451Y-112222135D01*
X114216824Y-112177618D01*
X114368049Y-112107102D01*
X114547287Y-111981598D01*
X114702008Y-111826877D01*
X114827512Y-111647639D01*
X114919985Y-111449330D01*
X114976617Y-111237977D01*
X114994359Y-111035185D01*
X114995687Y-111020002D01*
X114995687Y-111019997D01*
X114989877Y-110953595D01*
X114976617Y-110802023D01*
X114919985Y-110590670D01*
X114827512Y-110392362D01*
X114827510Y-110392359D01*
X114827509Y-110392357D01*
X114702009Y-110213124D01*
X114625442Y-110136557D01*
X114547287Y-110058402D01*
X114368049Y-109932898D01*
X114216824Y-109862381D01*
X114164387Y-109816210D01*
X114145235Y-109749016D01*
X114165451Y-109682135D01*
X114216824Y-109637618D01*
X114368049Y-109567102D01*
X114547287Y-109441598D01*
X114702008Y-109286877D01*
X114827512Y-109107639D01*
X114919985Y-108909330D01*
X114976617Y-108697977D01*
X114995687Y-108480000D01*
X114976617Y-108262023D01*
X114919985Y-108050670D01*
X114827512Y-107852362D01*
X114827510Y-107852359D01*
X114827509Y-107852357D01*
X114702009Y-107673124D01*
X114702006Y-107673121D01*
X114547287Y-107518402D01*
X114368049Y-107392898D01*
X114216824Y-107322381D01*
X114164387Y-107276210D01*
X114145235Y-107209016D01*
X114165451Y-107142135D01*
X114216824Y-107097618D01*
X114368049Y-107027102D01*
X114547287Y-106901598D01*
X114702008Y-106746877D01*
X114827512Y-106567639D01*
X114919985Y-106369330D01*
X114976617Y-106157977D01*
X114995687Y-105940000D01*
X114976617Y-105722023D01*
X114919985Y-105510670D01*
X114827512Y-105312362D01*
X114827510Y-105312359D01*
X114827509Y-105312357D01*
X114702009Y-105133124D01*
X114631215Y-105062330D01*
X114547287Y-104978402D01*
X114368049Y-104852898D01*
X114216824Y-104782381D01*
X114164387Y-104736210D01*
X114145235Y-104669016D01*
X114165451Y-104602135D01*
X114216824Y-104557618D01*
X114368049Y-104487102D01*
X114547287Y-104361598D01*
X114702008Y-104206877D01*
X114827512Y-104027639D01*
X114919985Y-103829330D01*
X114976617Y-103617977D01*
X114995687Y-103400000D01*
X114976617Y-103182023D01*
X114919985Y-102970670D01*
X114827512Y-102772362D01*
X114827510Y-102772359D01*
X114827509Y-102772357D01*
X114702009Y-102593124D01*
X114632332Y-102523447D01*
X114547287Y-102438402D01*
X114368049Y-102312898D01*
X114216824Y-102242381D01*
X114164387Y-102196210D01*
X114145235Y-102129016D01*
X114165451Y-102062135D01*
X114216824Y-102017618D01*
X114368049Y-101947102D01*
X114547287Y-101821598D01*
X114702008Y-101666877D01*
X114827512Y-101487639D01*
X114919985Y-101289330D01*
X114976617Y-101077977D01*
X114995687Y-100860000D01*
X114976617Y-100642023D01*
X114919985Y-100430670D01*
X114827512Y-100232362D01*
X114827510Y-100232359D01*
X114827509Y-100232357D01*
X114702009Y-100053124D01*
X114702006Y-100053121D01*
X114547287Y-99898402D01*
X114368049Y-99772898D01*
X114216824Y-99702381D01*
X114164387Y-99656210D01*
X114145235Y-99589016D01*
X114165451Y-99522135D01*
X114216824Y-99477618D01*
X114368049Y-99407102D01*
X114547287Y-99281598D01*
X114702008Y-99126877D01*
X114827512Y-98947639D01*
X114919985Y-98749330D01*
X114976617Y-98537977D01*
X114995687Y-98320000D01*
X114994768Y-98309500D01*
X114989785Y-98252539D01*
X114976617Y-98102023D01*
X114919985Y-97890670D01*
X114827512Y-97692362D01*
X114827510Y-97692359D01*
X114827509Y-97692357D01*
X114702009Y-97513124D01*
X114657142Y-97468257D01*
X114547287Y-97358402D01*
X114368049Y-97232898D01*
X114216824Y-97162381D01*
X114164387Y-97116210D01*
X114145235Y-97049016D01*
X114165451Y-96982135D01*
X114216824Y-96937618D01*
X114368049Y-96867102D01*
X114547287Y-96741598D01*
X114702008Y-96586877D01*
X114827512Y-96407639D01*
X114919985Y-96209330D01*
X114976617Y-95997977D01*
X114995687Y-95780000D01*
X114976617Y-95562023D01*
X114919985Y-95350670D01*
X114827512Y-95152362D01*
X114827510Y-95152359D01*
X114827509Y-95152357D01*
X114702009Y-94973124D01*
X114650949Y-94922064D01*
X114547287Y-94818402D01*
X114368049Y-94692898D01*
X114216824Y-94622381D01*
X114164387Y-94576210D01*
X114145235Y-94509016D01*
X114165451Y-94442135D01*
X114216824Y-94397618D01*
X114368049Y-94327102D01*
X114547287Y-94201598D01*
X114702008Y-94046877D01*
X114827512Y-93867639D01*
X114919985Y-93669330D01*
X114976617Y-93457977D01*
X114995687Y-93240000D01*
X114976617Y-93022023D01*
X114919985Y-92810670D01*
X114827512Y-92612362D01*
X114827510Y-92612359D01*
X114827509Y-92612357D01*
X114702009Y-92433124D01*
X114667708Y-92398823D01*
X114547287Y-92278402D01*
X114368049Y-92152898D01*
X114216824Y-92082381D01*
X114164387Y-92036210D01*
X114145235Y-91969016D01*
X114165451Y-91902135D01*
X114216824Y-91857618D01*
X114368049Y-91787102D01*
X114547287Y-91661598D01*
X114702008Y-91506877D01*
X114827512Y-91327639D01*
X114919985Y-91129330D01*
X114976617Y-90917977D01*
X114995687Y-90700000D01*
X114976617Y-90482023D01*
X114919985Y-90270670D01*
X114827512Y-90072362D01*
X114827510Y-90072359D01*
X114827509Y-90072357D01*
X114702009Y-89893124D01*
X114702006Y-89893121D01*
X114547287Y-89738402D01*
X114368049Y-89612898D01*
X114216824Y-89542381D01*
X114164387Y-89496210D01*
X114145235Y-89429016D01*
X114165451Y-89362135D01*
X114216824Y-89317618D01*
X114368049Y-89247102D01*
X114547287Y-89121598D01*
X114702008Y-88966877D01*
X114827512Y-88787639D01*
X114919985Y-88589330D01*
X114976617Y-88377977D01*
X114995687Y-88160000D01*
X114976617Y-87942023D01*
X114919985Y-87730670D01*
X114827512Y-87532362D01*
X114827510Y-87532359D01*
X114827509Y-87532357D01*
X114702009Y-87353124D01*
X114633182Y-87284297D01*
X114547287Y-87198402D01*
X114368049Y-87072898D01*
X114216824Y-87002381D01*
X114164387Y-86956210D01*
X114145235Y-86889016D01*
X114165451Y-86822135D01*
X114216824Y-86777618D01*
X114368049Y-86707102D01*
X114547287Y-86581598D01*
X114702008Y-86426877D01*
X114827512Y-86247639D01*
X114919985Y-86049330D01*
X114976617Y-85837977D01*
X114995687Y-85620000D01*
X114976617Y-85402023D01*
X114919985Y-85190670D01*
X114827512Y-84992362D01*
X114827510Y-84992359D01*
X114827509Y-84992357D01*
X114702009Y-84813124D01*
X114702006Y-84813121D01*
X114547287Y-84658402D01*
X114368049Y-84532898D01*
X114216824Y-84462381D01*
X114164387Y-84416210D01*
X114145235Y-84349016D01*
X114165451Y-84282135D01*
X114216824Y-84237618D01*
X114368049Y-84167102D01*
X114547287Y-84041598D01*
X114702008Y-83886877D01*
X114827512Y-83707639D01*
X114919985Y-83509330D01*
X114976617Y-83297977D01*
X114995687Y-83080000D01*
X114976617Y-82862023D01*
X114919985Y-82650670D01*
X114827512Y-82452362D01*
X114827510Y-82452359D01*
X114827509Y-82452357D01*
X114702009Y-82273124D01*
X114630123Y-82201238D01*
X114547287Y-82118402D01*
X114368049Y-81992898D01*
X114216824Y-81922381D01*
X114164387Y-81876210D01*
X114145235Y-81809016D01*
X114165451Y-81742135D01*
X114216824Y-81697618D01*
X114368049Y-81627102D01*
X114547287Y-81501598D01*
X114702008Y-81346877D01*
X114827512Y-81167639D01*
X114919985Y-80969330D01*
X114976617Y-80757977D01*
X114995687Y-80540000D01*
X114976617Y-80322023D01*
X114919985Y-80110670D01*
X114827512Y-79912362D01*
X114827510Y-79912359D01*
X114827509Y-79912357D01*
X114702009Y-79733124D01*
X114640108Y-79671223D01*
X114547287Y-79578402D01*
X114401143Y-79476071D01*
X114357522Y-79421497D01*
X114350329Y-79351998D01*
X114381851Y-79289644D01*
X114442081Y-79254230D01*
X114472269Y-79250499D01*
X114621928Y-79250499D01*
X114715714Y-79235646D01*
X114828752Y-79178050D01*
X114918460Y-79088342D01*
X114976056Y-78975304D01*
X114976056Y-78975302D01*
X114976057Y-78975301D01*
X114990909Y-78881524D01*
X114990910Y-78881519D01*
X114990909Y-77118482D01*
X114976056Y-77024696D01*
X114918460Y-76911658D01*
X114918456Y-76911654D01*
X114918455Y-76911652D01*
X114828757Y-76821954D01*
X114828754Y-76821952D01*
X114828752Y-76821950D01*
X114715948Y-76764473D01*
X114715711Y-76764352D01*
X114621934Y-76749500D01*
X112858892Y-76749500D01*
X112777929Y-76762323D01*
X112765106Y-76764354D01*
X112652068Y-76821950D01*
X112652067Y-76821951D01*
X112652062Y-76821954D01*
X112562364Y-76911652D01*
X112562361Y-76911657D01*
X112504762Y-77024698D01*
X112489910Y-77118475D01*
X112489910Y-78881517D01*
X112500702Y-78949657D01*
X112504764Y-78975304D01*
X112562360Y-79088342D01*
X112562362Y-79088344D01*
X112562364Y-79088347D01*
X112652062Y-79178045D01*
X112652064Y-79178046D01*
X112652068Y-79178050D01*
X112741616Y-79223677D01*
X112765108Y-79235647D01*
X112858885Y-79250499D01*
X112858891Y-79250500D01*
X113008550Y-79250499D01*
X113075587Y-79270183D01*
X113121342Y-79322987D01*
X113131286Y-79392145D01*
X113102261Y-79455701D01*
X113079672Y-79476074D01*
X112933528Y-79578405D01*
X112778812Y-79733121D01*
X112653310Y-79912357D01*
X112653308Y-79912361D01*
X112560836Y-80110668D01*
X112560832Y-80110677D01*
X112504203Y-80322020D01*
X112504203Y-80322024D01*
X112485133Y-80539997D01*
X112485133Y-80540002D01*
X112504203Y-80757975D01*
X112504203Y-80757979D01*
X112560832Y-80969322D01*
X112560834Y-80969326D01*
X112560835Y-80969330D01*
X112561320Y-80970370D01*
X112653307Y-81167638D01*
X112667400Y-81187764D01*
X112778812Y-81346877D01*
X112933533Y-81501598D01*
X113112770Y-81627101D01*
X113112771Y-81627102D01*
X113263993Y-81697618D01*
X113316432Y-81743790D01*
X113335584Y-81810984D01*
X113315368Y-81877865D01*
X113263993Y-81922382D01*
X113112771Y-81992898D01*
X113112767Y-81992900D01*
X112933531Y-82118402D01*
X112778812Y-82273121D01*
X112653310Y-82452357D01*
X112653308Y-82452361D01*
X112560836Y-82650668D01*
X112560832Y-82650677D01*
X112504203Y-82862020D01*
X112504203Y-82862024D01*
X112485133Y-83079997D01*
X112485133Y-83080002D01*
X112504203Y-83297975D01*
X112504203Y-83297979D01*
X112560832Y-83509322D01*
X112560834Y-83509326D01*
X112560835Y-83509330D01*
X112576651Y-83543247D01*
X112653307Y-83707638D01*
X112653308Y-83707639D01*
X112778812Y-83886877D01*
X112933533Y-84041598D01*
X113112770Y-84167101D01*
X113112771Y-84167102D01*
X113263993Y-84237618D01*
X113316432Y-84283790D01*
X113335584Y-84350984D01*
X113315368Y-84417865D01*
X113263993Y-84462382D01*
X113112771Y-84532898D01*
X113112767Y-84532900D01*
X112933531Y-84658402D01*
X112778812Y-84813121D01*
X112653310Y-84992357D01*
X112653308Y-84992361D01*
X112560836Y-85190668D01*
X112560832Y-85190677D01*
X112504203Y-85402020D01*
X112504203Y-85402023D01*
X112485133Y-85620000D01*
X112500639Y-85797244D01*
X112504203Y-85837975D01*
X112504203Y-85837979D01*
X112560832Y-86049322D01*
X112560834Y-86049326D01*
X112560835Y-86049330D01*
X112593668Y-86119741D01*
X112653307Y-86247638D01*
X112653308Y-86247639D01*
X112778812Y-86426877D01*
X112933533Y-86581598D01*
X113112770Y-86707101D01*
X113112771Y-86707102D01*
X113263993Y-86777618D01*
X113316432Y-86823790D01*
X113335584Y-86890984D01*
X113315368Y-86957865D01*
X113263993Y-87002382D01*
X113112771Y-87072898D01*
X113112767Y-87072900D01*
X112933531Y-87198402D01*
X112778812Y-87353121D01*
X112653310Y-87532357D01*
X112653308Y-87532361D01*
X112560836Y-87730668D01*
X112560832Y-87730677D01*
X112504203Y-87942020D01*
X112504203Y-87942023D01*
X112485133Y-88160000D01*
X112500639Y-88337244D01*
X112504203Y-88377975D01*
X112504203Y-88377979D01*
X112560832Y-88589322D01*
X112560834Y-88589326D01*
X112560835Y-88589330D01*
X112607071Y-88688484D01*
X112653307Y-88787638D01*
X112653308Y-88787639D01*
X112778812Y-88966877D01*
X112933533Y-89121598D01*
X113112770Y-89247101D01*
X113112771Y-89247102D01*
X113263993Y-89317618D01*
X113316432Y-89363790D01*
X113335584Y-89430984D01*
X113315368Y-89497865D01*
X113263993Y-89542382D01*
X113112771Y-89612898D01*
X113112767Y-89612900D01*
X112933531Y-89738402D01*
X112778812Y-89893121D01*
X112653310Y-90072357D01*
X112653308Y-90072361D01*
X112560836Y-90270668D01*
X112560832Y-90270677D01*
X112504203Y-90482020D01*
X112504203Y-90482024D01*
X112485133Y-90699997D01*
X112485133Y-90700002D01*
X112504203Y-90917975D01*
X112504203Y-90917979D01*
X112560832Y-91129322D01*
X112560834Y-91129326D01*
X112560835Y-91129330D01*
X112607071Y-91228484D01*
X112653307Y-91327638D01*
X112653308Y-91327639D01*
X112778812Y-91506877D01*
X112933533Y-91661598D01*
X113112770Y-91787101D01*
X113112771Y-91787102D01*
X113263993Y-91857618D01*
X113316432Y-91903790D01*
X113335584Y-91970984D01*
X113315368Y-92037865D01*
X113263993Y-92082382D01*
X113112771Y-92152898D01*
X113112767Y-92152900D01*
X112933531Y-92278402D01*
X112778812Y-92433121D01*
X112653310Y-92612357D01*
X112653308Y-92612361D01*
X112560836Y-92810668D01*
X112560832Y-92810677D01*
X112504203Y-93022020D01*
X112504203Y-93022024D01*
X112485133Y-93239997D01*
X112485133Y-93240002D01*
X112504203Y-93457975D01*
X112504203Y-93457979D01*
X112560832Y-93669322D01*
X112560834Y-93669326D01*
X112560835Y-93669330D01*
X112587732Y-93727011D01*
X112653307Y-93867638D01*
X112653308Y-93867639D01*
X112778812Y-94046877D01*
X112933533Y-94201598D01*
X113084167Y-94307073D01*
X113112771Y-94327102D01*
X113263993Y-94397618D01*
X113316432Y-94443790D01*
X113335584Y-94510984D01*
X113315368Y-94577865D01*
X113263993Y-94622382D01*
X113112771Y-94692898D01*
X113112767Y-94692900D01*
X112933531Y-94818402D01*
X112778812Y-94973121D01*
X112653310Y-95152357D01*
X112653308Y-95152361D01*
X112560836Y-95350668D01*
X112560832Y-95350677D01*
X112504203Y-95562020D01*
X112504203Y-95562024D01*
X112485133Y-95779997D01*
X112485133Y-95780002D01*
X112504203Y-95997975D01*
X112504203Y-95997979D01*
X112560832Y-96209322D01*
X112560834Y-96209326D01*
X112560835Y-96209330D01*
X112607071Y-96308484D01*
X112653307Y-96407638D01*
X112678408Y-96443486D01*
X112778812Y-96586877D01*
X112933533Y-96741598D01*
X113078610Y-96843182D01*
X113112771Y-96867102D01*
X113263993Y-96937618D01*
X113316432Y-96983790D01*
X113335584Y-97050984D01*
X113315368Y-97117865D01*
X113263993Y-97162382D01*
X113112771Y-97232898D01*
X113112767Y-97232900D01*
X112933531Y-97358402D01*
X112778812Y-97513121D01*
X112653310Y-97692357D01*
X112653308Y-97692361D01*
X112560836Y-97890668D01*
X112560832Y-97890677D01*
X112504203Y-98102020D01*
X112504203Y-98102024D01*
X112485133Y-98319997D01*
X112485133Y-98320002D01*
X112504203Y-98537975D01*
X112504203Y-98537979D01*
X112560832Y-98749322D01*
X112560834Y-98749326D01*
X112560835Y-98749330D01*
X112607071Y-98848484D01*
X112653307Y-98947638D01*
X112653308Y-98947639D01*
X112778812Y-99126877D01*
X112933533Y-99281598D01*
X113112770Y-99407101D01*
X113112771Y-99407102D01*
X113263993Y-99477618D01*
X113316432Y-99523790D01*
X113335584Y-99590984D01*
X113315368Y-99657865D01*
X113263993Y-99702382D01*
X113112771Y-99772898D01*
X113112767Y-99772900D01*
X112933531Y-99898402D01*
X112778812Y-100053121D01*
X112653310Y-100232357D01*
X112653308Y-100232361D01*
X112560836Y-100430668D01*
X112560832Y-100430677D01*
X112504203Y-100642020D01*
X112504203Y-100642024D01*
X112485133Y-100859997D01*
X112485133Y-100860002D01*
X112504203Y-101077975D01*
X112504203Y-101077979D01*
X112560832Y-101289322D01*
X112560834Y-101289326D01*
X112560835Y-101289330D01*
X112607071Y-101388484D01*
X112653307Y-101487638D01*
X112653308Y-101487639D01*
X112778812Y-101666877D01*
X112933533Y-101821598D01*
X113112770Y-101947101D01*
X113112771Y-101947102D01*
X113263993Y-102017618D01*
X113316432Y-102063790D01*
X113335584Y-102130984D01*
X113315368Y-102197865D01*
X113263993Y-102242382D01*
X113112771Y-102312898D01*
X113112767Y-102312900D01*
X112933531Y-102438402D01*
X112778812Y-102593121D01*
X112653310Y-102772357D01*
X112653308Y-102772361D01*
X112560836Y-102970668D01*
X112560832Y-102970677D01*
X112504203Y-103182020D01*
X112504203Y-103182024D01*
X112485133Y-103399997D01*
X112485133Y-103400002D01*
X112486952Y-103420795D01*
X112502892Y-103602997D01*
X112504203Y-103617975D01*
X112504203Y-103617979D01*
X112560832Y-103829322D01*
X112560834Y-103829326D01*
X112560835Y-103829330D01*
X112607071Y-103928484D01*
X112653307Y-104027638D01*
X112653308Y-104027639D01*
X112778812Y-104206877D01*
X112933533Y-104361598D01*
X113112770Y-104487101D01*
X113112771Y-104487102D01*
X113263993Y-104557618D01*
X113316432Y-104603790D01*
X113335584Y-104670984D01*
X113315368Y-104737865D01*
X113263993Y-104782382D01*
X113112771Y-104852898D01*
X113112767Y-104852900D01*
X112933531Y-104978402D01*
X112778812Y-105133121D01*
X112653310Y-105312357D01*
X112653308Y-105312361D01*
X112560836Y-105510668D01*
X112560832Y-105510677D01*
X112504203Y-105722020D01*
X112504203Y-105722024D01*
X112485133Y-105939997D01*
X112485133Y-105940002D01*
X112504203Y-106157975D01*
X112504203Y-106157979D01*
X112560832Y-106369322D01*
X112560834Y-106369326D01*
X112560835Y-106369330D01*
X112591701Y-106435523D01*
X112653307Y-106567638D01*
X112653308Y-106567639D01*
X112778812Y-106746877D01*
X112933533Y-106901598D01*
X113112770Y-107027101D01*
X113112771Y-107027102D01*
X113263993Y-107097618D01*
X113316432Y-107143790D01*
X113335584Y-107210984D01*
X113315368Y-107277865D01*
X113263993Y-107322382D01*
X113112771Y-107392898D01*
X113112767Y-107392900D01*
X112933531Y-107518402D01*
X112778812Y-107673121D01*
X112653310Y-107852357D01*
X112653308Y-107852361D01*
X112560836Y-108050668D01*
X112560832Y-108050677D01*
X112504203Y-108262020D01*
X112504203Y-108262024D01*
X112485133Y-108479997D01*
X112485133Y-108480002D01*
X112504203Y-108697975D01*
X112504203Y-108697979D01*
X112560832Y-108909322D01*
X112560834Y-108909326D01*
X112560835Y-108909330D01*
X112585453Y-108962123D01*
X112653307Y-109107638D01*
X112653308Y-109107639D01*
X112778812Y-109286877D01*
X112933533Y-109441598D01*
X113100031Y-109558181D01*
X113112771Y-109567102D01*
X113263993Y-109637618D01*
X113316432Y-109683790D01*
X113335584Y-109750984D01*
X113315368Y-109817865D01*
X113263993Y-109862382D01*
X113112771Y-109932898D01*
X113112767Y-109932900D01*
X112933531Y-110058402D01*
X112778812Y-110213121D01*
X112653310Y-110392357D01*
X112653308Y-110392361D01*
X112560836Y-110590668D01*
X112560832Y-110590677D01*
X112504203Y-110802020D01*
X112504203Y-110802024D01*
X112485133Y-111019997D01*
X112485133Y-111020002D01*
X112486461Y-111035185D01*
X112503258Y-111227181D01*
X112504203Y-111237975D01*
X112504203Y-111237979D01*
X112560832Y-111449322D01*
X112560834Y-111449326D01*
X112560835Y-111449330D01*
X112585189Y-111501557D01*
X112653307Y-111647638D01*
X112653308Y-111647639D01*
X112778812Y-111826877D01*
X112933533Y-111981598D01*
X113112770Y-112107101D01*
X113112771Y-112107102D01*
X113263993Y-112177618D01*
X113316432Y-112223790D01*
X113335584Y-112290984D01*
X113315368Y-112357865D01*
X113263993Y-112402382D01*
X113112771Y-112472898D01*
X113112767Y-112472900D01*
X112933531Y-112598402D01*
X112778812Y-112753121D01*
X112653310Y-112932357D01*
X112653308Y-112932361D01*
X112653308Y-112932362D01*
X112562317Y-113127493D01*
X112560836Y-113130668D01*
X112560832Y-113130677D01*
X112504203Y-113342020D01*
X112504203Y-113342024D01*
X112485636Y-113554255D01*
X112485133Y-113560000D01*
X112499526Y-113724522D01*
X112504203Y-113777975D01*
X112504203Y-113777979D01*
X112560832Y-113989322D01*
X112560834Y-113989326D01*
X112560835Y-113989330D01*
X112589581Y-114050975D01*
X112653307Y-114187638D01*
X112653308Y-114187639D01*
X112778812Y-114366877D01*
X112933533Y-114521598D01*
X113112770Y-114647101D01*
X113112771Y-114647102D01*
X113263993Y-114717618D01*
X113316432Y-114763790D01*
X113335584Y-114830984D01*
X113315368Y-114897865D01*
X113263993Y-114942382D01*
X113112771Y-115012898D01*
X113112767Y-115012900D01*
X112933531Y-115138402D01*
X112778812Y-115293121D01*
X112653310Y-115472357D01*
X112653308Y-115472361D01*
X112560836Y-115670668D01*
X112560832Y-115670677D01*
X112504203Y-115882020D01*
X112504203Y-115882024D01*
X112485133Y-116099997D01*
X112485133Y-116100002D01*
X112504203Y-116317975D01*
X112504203Y-116317979D01*
X112560832Y-116529322D01*
X112560834Y-116529326D01*
X112560835Y-116529330D01*
X112564843Y-116537925D01*
X112653307Y-116727638D01*
X112670396Y-116752043D01*
X112778812Y-116906877D01*
X112933533Y-117061598D01*
X113057819Y-117148624D01*
X113112771Y-117187102D01*
X113263993Y-117257618D01*
X113316432Y-117303790D01*
X113335584Y-117370984D01*
X113315368Y-117437865D01*
X113263993Y-117482382D01*
X113112771Y-117552898D01*
X113112767Y-117552900D01*
X112933531Y-117678402D01*
X112778812Y-117833121D01*
X112653310Y-118012357D01*
X112653308Y-118012361D01*
X112560836Y-118210668D01*
X112560832Y-118210677D01*
X112504203Y-118422020D01*
X112504203Y-118422024D01*
X112485133Y-118639997D01*
X112485133Y-118640002D01*
X112504203Y-118857975D01*
X112504203Y-118857979D01*
X112560832Y-119069322D01*
X112560834Y-119069326D01*
X112560835Y-119069330D01*
X112607071Y-119168484D01*
X112653307Y-119267638D01*
X112653308Y-119267639D01*
X112778812Y-119446877D01*
X112933533Y-119601598D01*
X113112770Y-119727101D01*
X113112771Y-119727102D01*
X113263993Y-119797618D01*
X113316432Y-119843790D01*
X113335584Y-119910984D01*
X113315368Y-119977865D01*
X113263993Y-120022382D01*
X113112771Y-120092898D01*
X113112767Y-120092900D01*
X112933531Y-120218402D01*
X112778812Y-120373121D01*
X112653310Y-120552357D01*
X112653308Y-120552361D01*
X112560836Y-120750668D01*
X112560832Y-120750677D01*
X112504203Y-120962020D01*
X112504203Y-120962024D01*
X112485133Y-121179997D01*
X112485133Y-121180003D01*
X112490004Y-121235686D01*
X112476237Y-121304186D01*
X112454157Y-121334173D01*
X111709087Y-122079245D01*
X111549711Y-122238621D01*
X111521230Y-122267102D01*
X111438209Y-122350122D01*
X111350609Y-122481224D01*
X111350602Y-122481237D01*
X111290264Y-122626908D01*
X111290261Y-122626920D01*
X111259500Y-122781563D01*
X111259500Y-129245688D01*
X111239815Y-129312727D01*
X111187011Y-129358482D01*
X111117853Y-129368426D01*
X111059338Y-129343542D01*
X111033627Y-129323531D01*
X111033626Y-129323530D01*
X110889787Y-129245688D01*
X110829504Y-129213064D01*
X110829495Y-129213061D01*
X110609984Y-129137702D01*
X110438282Y-129109050D01*
X110381049Y-129099500D01*
X110148951Y-129099500D01*
X110103164Y-129107140D01*
X109920015Y-129137702D01*
X109700504Y-129213061D01*
X109700495Y-129213064D01*
X109496371Y-129323531D01*
X109496365Y-129323535D01*
X109313222Y-129466081D01*
X109313219Y-129466084D01*
X109156016Y-129636852D01*
X109029075Y-129831151D01*
X108935842Y-130043699D01*
X108878866Y-130268691D01*
X108878864Y-130268702D01*
X108859700Y-130499993D01*
X108859700Y-130500006D01*
X108878864Y-130731297D01*
X108878866Y-130731308D01*
X108935842Y-130956300D01*
X109029075Y-131168848D01*
X109156016Y-131363147D01*
X109156019Y-131363151D01*
X109156021Y-131363153D01*
X109313216Y-131533913D01*
X109313219Y-131533915D01*
X109313222Y-131533918D01*
X109496365Y-131676464D01*
X109496371Y-131676468D01*
X109496374Y-131676470D01*
X109700497Y-131786936D01*
X109814487Y-131826068D01*
X109920015Y-131862297D01*
X109920017Y-131862297D01*
X109920019Y-131862298D01*
X110148951Y-131900500D01*
X110148952Y-131900500D01*
X110381048Y-131900500D01*
X110381049Y-131900500D01*
X110609981Y-131862298D01*
X110829503Y-131786936D01*
X111033626Y-131676470D01*
X111070233Y-131647977D01*
X111135225Y-131622335D01*
X111203765Y-131635901D01*
X111254091Y-131684369D01*
X111268012Y-131721639D01*
X111290261Y-131833491D01*
X111290264Y-131833501D01*
X111350602Y-131979172D01*
X111350609Y-131979185D01*
X111438210Y-132110288D01*
X111438213Y-132110292D01*
X112759434Y-133431511D01*
X112792919Y-133492834D01*
X112795225Y-133530625D01*
X112794357Y-133539998D01*
X112794357Y-133540000D01*
X112814884Y-133761535D01*
X112814885Y-133761537D01*
X112875769Y-133975523D01*
X112875775Y-133975538D01*
X112937929Y-134100357D01*
X112950191Y-134169142D01*
X112923317Y-134233637D01*
X112914610Y-134243310D01*
X111334741Y-135823181D01*
X111273418Y-135856666D01*
X111247060Y-135859500D01*
X89703387Y-135859500D01*
X89636348Y-135839815D01*
X89590593Y-135787011D01*
X89580649Y-135717853D01*
X89609674Y-135654297D01*
X89615698Y-135647826D01*
X89777352Y-135486171D01*
X89838671Y-135452689D01*
X89897123Y-135454080D01*
X89926567Y-135461969D01*
X90017023Y-135486207D01*
X90199926Y-135502208D01*
X90234998Y-135505277D01*
X90235000Y-135505277D01*
X90235002Y-135505277D01*
X90263254Y-135502805D01*
X90452977Y-135486207D01*
X90664330Y-135429575D01*
X90862639Y-135337102D01*
X91041877Y-135211598D01*
X91196598Y-135056877D01*
X91322102Y-134877639D01*
X91392618Y-134726414D01*
X91438790Y-134673977D01*
X91505984Y-134654825D01*
X91572865Y-134675041D01*
X91617381Y-134726414D01*
X91687898Y-134877639D01*
X91813402Y-135056877D01*
X91968123Y-135211598D01*
X92147361Y-135337102D01*
X92345670Y-135429575D01*
X92557023Y-135486207D01*
X92739926Y-135502208D01*
X92774998Y-135505277D01*
X92775000Y-135505277D01*
X92775002Y-135505277D01*
X92803254Y-135502805D01*
X92992977Y-135486207D01*
X93204330Y-135429575D01*
X93402639Y-135337102D01*
X93581877Y-135211598D01*
X93736598Y-135056877D01*
X93862102Y-134877639D01*
X93932618Y-134726414D01*
X93978790Y-134673977D01*
X94045984Y-134654825D01*
X94112865Y-134675041D01*
X94157381Y-134726414D01*
X94227898Y-134877639D01*
X94353402Y-135056877D01*
X94508123Y-135211598D01*
X94687361Y-135337102D01*
X94885670Y-135429575D01*
X95097023Y-135486207D01*
X95279926Y-135502208D01*
X95314998Y-135505277D01*
X95315000Y-135505277D01*
X95315002Y-135505277D01*
X95343254Y-135502805D01*
X95532977Y-135486207D01*
X95744330Y-135429575D01*
X95942639Y-135337102D01*
X96121877Y-135211598D01*
X96276598Y-135056877D01*
X96402102Y-134877639D01*
X96494575Y-134679330D01*
X96551207Y-134467977D01*
X96570277Y-134250000D01*
X96557590Y-134104993D01*
X96571356Y-134036496D01*
X96593434Y-134006510D01*
X99379894Y-131220050D01*
X99441215Y-131186567D01*
X99490356Y-131185844D01*
X99568757Y-131200500D01*
X99568759Y-131200500D01*
X99791241Y-131200500D01*
X99791243Y-131200500D01*
X100009940Y-131159618D01*
X100217401Y-131079247D01*
X100406562Y-130962124D01*
X100570981Y-130812236D01*
X100705058Y-130634689D01*
X100772129Y-130499993D01*
X102359700Y-130499993D01*
X102359700Y-130500006D01*
X102378864Y-130731297D01*
X102378866Y-130731308D01*
X102435842Y-130956300D01*
X102529075Y-131168848D01*
X102656016Y-131363147D01*
X102656019Y-131363151D01*
X102656021Y-131363153D01*
X102813216Y-131533913D01*
X102813219Y-131533915D01*
X102813222Y-131533918D01*
X102996365Y-131676464D01*
X102996371Y-131676468D01*
X102996374Y-131676470D01*
X103200497Y-131786936D01*
X103314487Y-131826068D01*
X103420015Y-131862297D01*
X103420017Y-131862297D01*
X103420019Y-131862298D01*
X103648951Y-131900500D01*
X103648952Y-131900500D01*
X103881048Y-131900500D01*
X103881049Y-131900500D01*
X104109981Y-131862298D01*
X104329503Y-131786936D01*
X104533626Y-131676470D01*
X104716784Y-131533913D01*
X104873979Y-131363153D01*
X105000924Y-131168849D01*
X105094157Y-130956300D01*
X105151134Y-130731305D01*
X105153295Y-130705224D01*
X105170300Y-130500006D01*
X105170300Y-130499993D01*
X105151135Y-130268702D01*
X105151133Y-130268691D01*
X105094157Y-130043699D01*
X105000924Y-129831151D01*
X104873983Y-129636852D01*
X104873980Y-129636849D01*
X104873979Y-129636847D01*
X104716784Y-129466087D01*
X104716779Y-129466083D01*
X104716777Y-129466081D01*
X104533634Y-129323535D01*
X104533628Y-129323531D01*
X104329504Y-129213064D01*
X104329495Y-129213061D01*
X104109984Y-129137702D01*
X103938282Y-129109050D01*
X103881049Y-129099500D01*
X103648951Y-129099500D01*
X103603164Y-129107140D01*
X103420015Y-129137702D01*
X103200504Y-129213061D01*
X103200495Y-129213064D01*
X102996371Y-129323531D01*
X102996365Y-129323535D01*
X102813222Y-129466081D01*
X102813219Y-129466084D01*
X102656016Y-129636852D01*
X102529075Y-129831151D01*
X102435842Y-130043699D01*
X102378866Y-130268691D01*
X102378864Y-130268702D01*
X102359700Y-130499993D01*
X100772129Y-130499993D01*
X100804229Y-130435528D01*
X100865115Y-130221536D01*
X100885643Y-130000000D01*
X100865115Y-129778464D01*
X100804229Y-129564472D01*
X100804224Y-129564461D01*
X100705061Y-129365316D01*
X100705056Y-129365308D01*
X100570979Y-129187761D01*
X100406562Y-129037876D01*
X100406560Y-129037874D01*
X100217404Y-128920754D01*
X100217398Y-128920752D01*
X100009940Y-128840382D01*
X99791243Y-128799500D01*
X99568757Y-128799500D01*
X99350060Y-128840382D01*
X99218864Y-128891207D01*
X99142601Y-128920752D01*
X99142595Y-128920754D01*
X98953439Y-129037874D01*
X98953437Y-129037876D01*
X98789020Y-129187761D01*
X98654943Y-129365308D01*
X98654938Y-129365316D01*
X98555775Y-129564461D01*
X98555769Y-129564476D01*
X98494885Y-129778462D01*
X98494884Y-129778464D01*
X98474357Y-129999999D01*
X98474357Y-130000000D01*
X98493214Y-130203506D01*
X98479799Y-130272076D01*
X98457424Y-130302628D01*
X95751811Y-133008241D01*
X95690488Y-133041726D01*
X95632038Y-133040335D01*
X95532982Y-133013794D01*
X95532979Y-133013793D01*
X95532977Y-133013793D01*
X95406203Y-133002702D01*
X95315002Y-132994723D01*
X95314998Y-132994723D01*
X95169682Y-133007436D01*
X95097023Y-133013793D01*
X95097020Y-133013793D01*
X94885677Y-133070422D01*
X94885670Y-133070424D01*
X94885670Y-133070425D01*
X94882391Y-133071954D01*
X94687361Y-133162898D01*
X94687357Y-133162900D01*
X94508121Y-133288402D01*
X94353402Y-133443121D01*
X94227900Y-133622357D01*
X94227898Y-133622361D01*
X94157382Y-133773583D01*
X94111209Y-133826022D01*
X94044016Y-133845174D01*
X93977135Y-133824958D01*
X93932618Y-133773583D01*
X93881136Y-133663181D01*
X93862102Y-133622362D01*
X93862100Y-133622359D01*
X93862099Y-133622357D01*
X93736599Y-133443124D01*
X93661950Y-133368475D01*
X93581877Y-133288402D01*
X93402639Y-133162898D01*
X93251414Y-133092381D01*
X93198977Y-133046210D01*
X93179825Y-132979016D01*
X93200041Y-132912135D01*
X93251414Y-132867618D01*
X93402639Y-132797102D01*
X93581877Y-132671598D01*
X93736598Y-132516877D01*
X93862102Y-132337639D01*
X93954575Y-132139330D01*
X94011207Y-131927977D01*
X94030277Y-131710000D01*
X94025404Y-131654312D01*
X94039169Y-131585816D01*
X94061248Y-131555828D01*
X101190259Y-124426819D01*
X101251582Y-124393334D01*
X101277940Y-124390500D01*
X106488844Y-124390500D01*
X106488845Y-124390499D01*
X106643497Y-124359737D01*
X106789179Y-124299394D01*
X106920289Y-124211789D01*
X108895259Y-122236819D01*
X108956582Y-122203334D01*
X108982940Y-122200500D01*
X109111241Y-122200500D01*
X109111243Y-122200500D01*
X109329940Y-122159618D01*
X109537401Y-122079247D01*
X109726562Y-121962124D01*
X109890981Y-121812236D01*
X110025058Y-121634689D01*
X110124229Y-121435528D01*
X110185115Y-121221536D01*
X110205643Y-121000000D01*
X110185115Y-120778464D01*
X110155234Y-120673442D01*
X110150500Y-120639508D01*
X110150500Y-111095682D01*
X110150501Y-111095657D01*
X110150501Y-110909448D01*
X110122172Y-110730590D01*
X110074713Y-110584528D01*
X110066211Y-110558361D01*
X110066209Y-110558358D01*
X110066209Y-110558356D01*
X110013303Y-110454524D01*
X109983996Y-110397006D01*
X109939436Y-110335674D01*
X109918471Y-110306818D01*
X109877558Y-110250505D01*
X109877555Y-110250502D01*
X109877553Y-110250499D01*
X109749501Y-110122447D01*
X109749500Y-110122446D01*
X109746389Y-110119335D01*
X109746374Y-110119321D01*
X105714733Y-106087680D01*
X105681248Y-106026357D01*
X105686232Y-105956665D01*
X105714729Y-105912323D01*
X106742432Y-104884619D01*
X106742439Y-104884614D01*
X106749499Y-104877554D01*
X106749501Y-104877553D01*
X106877553Y-104749501D01*
X106983996Y-104602994D01*
X107066211Y-104441639D01*
X107122171Y-104269409D01*
X107127859Y-104233497D01*
X107150501Y-104090547D01*
X107150501Y-103909454D01*
X107150501Y-103905053D01*
X107150500Y-103905038D01*
X107150500Y-99605682D01*
X107150501Y-99605657D01*
X107150501Y-99415053D01*
X107150500Y-99415038D01*
X107150500Y-95360490D01*
X107155234Y-95326555D01*
X107178270Y-95245595D01*
X107185115Y-95221536D01*
X107205643Y-95000000D01*
X107204775Y-94990633D01*
X107218190Y-94922064D01*
X107240562Y-94891514D01*
X111771789Y-90360289D01*
X111859394Y-90229179D01*
X111919737Y-90083497D01*
X111950500Y-89928842D01*
X111950500Y-89771157D01*
X111950500Y-73531158D01*
X111936495Y-73460753D01*
X111936494Y-73460750D01*
X111930857Y-73432412D01*
X111919737Y-73376503D01*
X111904410Y-73339500D01*
X111904311Y-73339262D01*
X111859397Y-73230827D01*
X111859390Y-73230814D01*
X111771790Y-73099712D01*
X111733730Y-73061652D01*
X111660289Y-72988211D01*
X110672077Y-71999999D01*
X111794357Y-71999999D01*
X111794357Y-72000000D01*
X111814884Y-72221535D01*
X111814885Y-72221537D01*
X111875769Y-72435523D01*
X111875775Y-72435538D01*
X111974938Y-72634683D01*
X111974943Y-72634691D01*
X112109020Y-72812238D01*
X112273437Y-72962123D01*
X112273439Y-72962125D01*
X112462595Y-73079245D01*
X112462596Y-73079245D01*
X112462599Y-73079247D01*
X112670060Y-73159618D01*
X112888757Y-73200500D01*
X112888759Y-73200500D01*
X113111241Y-73200500D01*
X113111243Y-73200500D01*
X113329940Y-73159618D01*
X113537401Y-73079247D01*
X113726562Y-72962124D01*
X113890981Y-72812236D01*
X114025058Y-72634689D01*
X114054120Y-72576326D01*
X114124224Y-72435538D01*
X114124223Y-72435538D01*
X114124229Y-72435528D01*
X114185115Y-72221536D01*
X114205643Y-72000000D01*
X114200645Y-71946067D01*
X114185115Y-71778464D01*
X114185114Y-71778462D01*
X114177764Y-71752630D01*
X114124229Y-71564472D01*
X114124224Y-71564461D01*
X114025061Y-71365316D01*
X114025056Y-71365308D01*
X113890979Y-71187761D01*
X113726562Y-71037876D01*
X113726560Y-71037874D01*
X113537404Y-70920754D01*
X113537398Y-70920752D01*
X113329940Y-70840382D01*
X113111243Y-70799500D01*
X112888757Y-70799500D01*
X112670060Y-70840382D01*
X112559506Y-70883211D01*
X112462601Y-70920752D01*
X112462595Y-70920754D01*
X112273439Y-71037874D01*
X112273437Y-71037876D01*
X112109020Y-71187761D01*
X111974943Y-71365308D01*
X111974938Y-71365316D01*
X111875775Y-71564461D01*
X111875769Y-71564476D01*
X111814885Y-71778462D01*
X111814884Y-71778464D01*
X111794357Y-71999999D01*
X110672077Y-71999999D01*
X110333989Y-71661911D01*
X110300504Y-71600588D01*
X110299198Y-71554830D01*
X110300500Y-71546611D01*
X110300500Y-71373389D01*
X110273402Y-71202299D01*
X110219873Y-71037555D01*
X110141232Y-70883212D01*
X110039414Y-70743072D01*
X109916928Y-70620586D01*
X109776788Y-70518768D01*
X109622445Y-70440127D01*
X109457701Y-70386598D01*
X109457699Y-70386597D01*
X109457698Y-70386597D01*
X109326271Y-70365781D01*
X109286611Y-70359500D01*
X109286610Y-70359500D01*
X109082940Y-70359500D01*
X109015901Y-70339815D01*
X108995259Y-70323181D01*
X108000291Y-69328212D01*
X108000288Y-69328210D01*
X107869185Y-69240609D01*
X107869172Y-69240602D01*
X107723501Y-69180264D01*
X107723489Y-69180261D01*
X107568845Y-69149500D01*
X107568842Y-69149500D01*
X97588842Y-69149500D01*
X97431157Y-69149500D01*
X97431154Y-69149500D01*
X97276509Y-69180261D01*
X97276497Y-69180264D01*
X97233832Y-69197936D01*
X97233833Y-69197937D01*
X97130823Y-69240604D01*
X97130814Y-69240609D01*
X96999712Y-69328209D01*
X96999710Y-69328212D01*
X96154173Y-70173747D01*
X96092850Y-70207232D01*
X96055686Y-70209594D01*
X96000004Y-70204723D01*
X95999998Y-70204723D01*
X95854682Y-70217436D01*
X95782023Y-70223793D01*
X95782020Y-70223793D01*
X95570677Y-70280422D01*
X95570668Y-70280426D01*
X95372361Y-70372898D01*
X95372357Y-70372900D01*
X95193121Y-70498402D01*
X95038402Y-70653121D01*
X94912900Y-70832357D01*
X94912898Y-70832361D01*
X94820426Y-71030668D01*
X94820422Y-71030677D01*
X94763793Y-71242020D01*
X94763793Y-71242024D01*
X94753007Y-71365316D01*
X94744723Y-71460000D01*
X94762387Y-71661911D01*
X94763793Y-71677975D01*
X94763793Y-71677979D01*
X94820422Y-71889322D01*
X94820424Y-71889326D01*
X94820425Y-71889330D01*
X94837882Y-71926766D01*
X94849500Y-71979171D01*
X94849500Y-72833448D01*
X94829815Y-72900487D01*
X94825821Y-72906329D01*
X94821953Y-72911653D01*
X94821950Y-72911657D01*
X94821950Y-72911658D01*
X94803773Y-72947330D01*
X94764352Y-73024698D01*
X94749500Y-73118475D01*
X94749500Y-74881517D01*
X94758500Y-74938342D01*
X94764354Y-74975304D01*
X94821950Y-75088342D01*
X94821952Y-75088344D01*
X94821954Y-75088347D01*
X94911652Y-75178045D01*
X94911654Y-75178046D01*
X94911658Y-75178050D01*
X95024694Y-75235645D01*
X95024698Y-75235647D01*
X95118475Y-75250499D01*
X95118481Y-75250500D01*
X96881518Y-75250499D01*
X96975304Y-75235646D01*
X97088342Y-75178050D01*
X97178050Y-75088342D01*
X97235646Y-74975304D01*
X97235646Y-74975302D01*
X97235647Y-74975301D01*
X97250499Y-74881524D01*
X97250500Y-74881519D01*
X97250499Y-74731859D01*
X97270183Y-74664823D01*
X97322987Y-74619068D01*
X97392145Y-74609124D01*
X97455701Y-74638149D01*
X97476073Y-74660738D01*
X97578402Y-74806877D01*
X97733123Y-74961598D01*
X97912361Y-75087102D01*
X98110670Y-75179575D01*
X98322023Y-75236207D01*
X98504926Y-75252208D01*
X98539998Y-75255277D01*
X98540000Y-75255277D01*
X98540002Y-75255277D01*
X98568254Y-75252805D01*
X98757977Y-75236207D01*
X98969330Y-75179575D01*
X99167639Y-75087102D01*
X99346877Y-74961598D01*
X99501598Y-74806877D01*
X99627102Y-74627639D01*
X99719575Y-74429330D01*
X99776207Y-74217977D01*
X99795277Y-74000000D01*
X99776207Y-73782023D01*
X99719575Y-73570670D01*
X99627102Y-73372362D01*
X99627100Y-73372359D01*
X99627099Y-73372357D01*
X99501599Y-73193124D01*
X99426950Y-73118475D01*
X99346877Y-73038402D01*
X99167639Y-72912898D01*
X99016414Y-72842381D01*
X98963977Y-72796210D01*
X98944825Y-72729016D01*
X98965041Y-72662135D01*
X99016414Y-72617618D01*
X99167639Y-72547102D01*
X99346877Y-72421598D01*
X99501598Y-72266877D01*
X99627102Y-72087639D01*
X99719575Y-71889330D01*
X99776207Y-71677977D01*
X99795277Y-71460000D01*
X99776207Y-71242023D01*
X99719575Y-71030670D01*
X99671187Y-70926903D01*
X99660696Y-70857828D01*
X99689216Y-70794044D01*
X99747692Y-70755804D01*
X99783570Y-70750500D01*
X104301752Y-70750500D01*
X104368791Y-70770185D01*
X104414546Y-70822989D01*
X104424490Y-70892147D01*
X104395465Y-70955703D01*
X104367029Y-70979927D01*
X104273439Y-71037874D01*
X104273437Y-71037876D01*
X104109020Y-71187761D01*
X103974943Y-71365308D01*
X103974938Y-71365316D01*
X103875775Y-71564461D01*
X103875769Y-71564476D01*
X103814885Y-71778462D01*
X103814884Y-71778464D01*
X103794357Y-71999999D01*
X103794357Y-72000000D01*
X103814884Y-72221535D01*
X103814885Y-72221537D01*
X103875769Y-72435523D01*
X103875775Y-72435538D01*
X103974938Y-72634683D01*
X103974943Y-72634691D01*
X104109020Y-72812238D01*
X104273437Y-72962123D01*
X104273439Y-72962125D01*
X104462595Y-73079245D01*
X104462596Y-73079245D01*
X104462599Y-73079247D01*
X104656524Y-73154374D01*
X104711924Y-73196946D01*
X104735515Y-73262713D01*
X104719804Y-73330793D01*
X104669780Y-73379572D01*
X104656533Y-73385622D01*
X104508488Y-73442975D01*
X104462601Y-73460752D01*
X104462595Y-73460754D01*
X104273439Y-73577874D01*
X104273437Y-73577876D01*
X104109020Y-73727761D01*
X103974943Y-73905308D01*
X103974938Y-73905316D01*
X103875775Y-74104461D01*
X103875769Y-74104476D01*
X103814885Y-74318462D01*
X103814884Y-74318464D01*
X103794357Y-74539999D01*
X103794357Y-74540000D01*
X103814884Y-74761535D01*
X103814885Y-74761537D01*
X103875769Y-74975523D01*
X103875775Y-74975538D01*
X103974938Y-75174683D01*
X103974943Y-75174691D01*
X104109020Y-75352238D01*
X104273437Y-75502123D01*
X104273439Y-75502125D01*
X104462595Y-75619245D01*
X104462596Y-75619245D01*
X104462599Y-75619247D01*
X104670060Y-75699618D01*
X104888757Y-75740500D01*
X104888759Y-75740500D01*
X105111241Y-75740500D01*
X105111243Y-75740500D01*
X105329940Y-75699618D01*
X105537401Y-75619247D01*
X105726562Y-75502124D01*
X105890981Y-75352236D01*
X106025058Y-75174689D01*
X106124229Y-74975528D01*
X106185115Y-74761536D01*
X106205643Y-74540000D01*
X106185115Y-74318464D01*
X106124229Y-74104472D01*
X106072208Y-74000000D01*
X106025061Y-73905316D01*
X106025056Y-73905308D01*
X105890979Y-73727761D01*
X105726562Y-73577876D01*
X105726560Y-73577874D01*
X105537404Y-73460754D01*
X105537395Y-73460750D01*
X105443956Y-73424552D01*
X105343475Y-73385625D01*
X105288075Y-73343054D01*
X105264484Y-73277288D01*
X105280195Y-73209207D01*
X105330219Y-73160428D01*
X105343466Y-73154377D01*
X105537401Y-73079247D01*
X105726562Y-72962124D01*
X105890981Y-72812236D01*
X106025058Y-72634689D01*
X106054120Y-72576326D01*
X106124224Y-72435538D01*
X106124223Y-72435538D01*
X106124229Y-72435528D01*
X106185115Y-72221536D01*
X106205643Y-72000000D01*
X106200645Y-71946067D01*
X106185115Y-71778464D01*
X106185114Y-71778462D01*
X106177764Y-71752630D01*
X106124229Y-71564472D01*
X106124224Y-71564461D01*
X106025061Y-71365316D01*
X106025056Y-71365308D01*
X105890979Y-71187761D01*
X105726562Y-71037876D01*
X105726560Y-71037874D01*
X105632971Y-70979927D01*
X105586335Y-70927900D01*
X105575231Y-70858918D01*
X105603184Y-70794883D01*
X105661319Y-70756127D01*
X105698248Y-70750500D01*
X107107060Y-70750500D01*
X107174099Y-70770185D01*
X107194741Y-70786819D01*
X107666009Y-71258087D01*
X107699494Y-71319410D01*
X107700802Y-71365159D01*
X107699500Y-71373381D01*
X107699500Y-71546610D01*
X107720306Y-71677979D01*
X107726598Y-71717701D01*
X107780127Y-71882445D01*
X107858768Y-72036788D01*
X107960586Y-72176928D01*
X108083072Y-72299414D01*
X108223212Y-72401232D01*
X108377555Y-72479873D01*
X108542299Y-72533402D01*
X108713389Y-72560500D01*
X108917060Y-72560500D01*
X108984099Y-72580185D01*
X109004741Y-72596819D01*
X109095741Y-72687819D01*
X109129226Y-72749142D01*
X109124242Y-72818834D01*
X109082370Y-72874767D01*
X109016906Y-72899184D01*
X109008060Y-72899500D01*
X108068482Y-72899500D01*
X107991751Y-72911653D01*
X107974696Y-72914354D01*
X107861658Y-72971950D01*
X107861657Y-72971951D01*
X107861652Y-72971954D01*
X107771954Y-73061652D01*
X107771951Y-73061657D01*
X107714352Y-73174698D01*
X107699500Y-73268475D01*
X107699500Y-74731517D01*
X107704255Y-74761536D01*
X107714354Y-74825304D01*
X107771950Y-74938342D01*
X107771952Y-74938344D01*
X107771954Y-74938347D01*
X107861652Y-75028045D01*
X107861654Y-75028046D01*
X107861658Y-75028050D01*
X107974694Y-75085645D01*
X107974698Y-75085647D01*
X108068475Y-75100499D01*
X108068481Y-75100500D01*
X109931518Y-75100499D01*
X110025304Y-75085646D01*
X110138342Y-75028050D01*
X110138349Y-75028042D01*
X110146241Y-75022311D01*
X110147106Y-75023502D01*
X110199142Y-74995089D01*
X110268834Y-75000073D01*
X110324767Y-75041945D01*
X110349184Y-75107409D01*
X110349500Y-75116255D01*
X110349500Y-89467060D01*
X110329815Y-89534099D01*
X110313181Y-89554741D01*
X107109500Y-92758421D01*
X107048177Y-92791906D01*
X106978485Y-92786922D01*
X106922552Y-92745050D01*
X106898135Y-92679586D01*
X106900719Y-92649310D01*
X106900333Y-92649264D01*
X106920278Y-92485000D01*
X106920278Y-92484999D01*
X106901237Y-92328181D01*
X106879992Y-92272164D01*
X106845220Y-92180477D01*
X106755483Y-92050470D01*
X106637240Y-91945717D01*
X106637238Y-91945716D01*
X106637237Y-91945715D01*
X106497365Y-91872303D01*
X106343986Y-91834500D01*
X106343985Y-91834500D01*
X106186015Y-91834500D01*
X106186014Y-91834500D01*
X106032634Y-91872303D01*
X105892762Y-91945715D01*
X105774516Y-92050471D01*
X105684781Y-92180475D01*
X105684780Y-92180476D01*
X105628763Y-92328178D01*
X105628762Y-92328183D01*
X105620185Y-92398823D01*
X105592563Y-92463000D01*
X105584770Y-92471556D01*
X101742034Y-96314293D01*
X101680711Y-96347778D01*
X101672075Y-96349238D01*
X101517634Y-96387303D01*
X101377762Y-96460715D01*
X101259516Y-96565471D01*
X101169781Y-96695474D01*
X101115942Y-96837436D01*
X101073764Y-96893138D01*
X101008166Y-96917195D01*
X100939976Y-96901968D01*
X100890843Y-96852292D01*
X100884058Y-96837436D01*
X100847709Y-96741593D01*
X100830220Y-96695477D01*
X100740483Y-96565470D01*
X100622240Y-96460717D01*
X100622238Y-96460716D01*
X100622237Y-96460715D01*
X100482365Y-96387303D01*
X100328986Y-96349500D01*
X100328985Y-96349500D01*
X100171015Y-96349500D01*
X100171014Y-96349500D01*
X100017634Y-96387303D01*
X99877761Y-96460715D01*
X99877759Y-96460717D01*
X99857894Y-96478316D01*
X99794661Y-96508037D01*
X99775668Y-96509500D01*
X98964500Y-96509500D01*
X98897461Y-96489815D01*
X98851706Y-96437011D01*
X98840500Y-96385500D01*
X98840500Y-96036826D01*
X98840500Y-96036824D01*
X98807074Y-95912074D01*
X98807074Y-95912073D01*
X98742498Y-95800226D01*
X95959774Y-93017502D01*
X95903850Y-92985214D01*
X95847927Y-92952926D01*
X95785551Y-92936213D01*
X95723176Y-92919500D01*
X95723175Y-92919500D01*
X90826788Y-92919500D01*
X90759749Y-92899815D01*
X90739107Y-92883181D01*
X86191819Y-88335893D01*
X86158334Y-88274570D01*
X86155500Y-88248212D01*
X86155500Y-87586940D01*
X86175185Y-87519901D01*
X86227989Y-87474146D01*
X86297147Y-87464202D01*
X86360703Y-87493227D01*
X86367181Y-87499259D01*
X87759434Y-88891512D01*
X87792919Y-88952835D01*
X87795225Y-88990627D01*
X87794357Y-89000000D01*
X87814884Y-89221535D01*
X87814885Y-89221537D01*
X87875769Y-89435523D01*
X87875775Y-89435538D01*
X87974938Y-89634683D01*
X87974943Y-89634691D01*
X88109020Y-89812238D01*
X88273437Y-89962123D01*
X88273439Y-89962125D01*
X88462595Y-90079245D01*
X88462596Y-90079245D01*
X88462599Y-90079247D01*
X88670060Y-90159618D01*
X88888757Y-90200500D01*
X88888759Y-90200500D01*
X89111241Y-90200500D01*
X89111243Y-90200500D01*
X89329940Y-90159618D01*
X89537401Y-90079247D01*
X89726562Y-89962124D01*
X89890981Y-89812236D01*
X90025058Y-89634689D01*
X90124229Y-89435528D01*
X90185115Y-89221536D01*
X90205643Y-89000000D01*
X90204774Y-88990627D01*
X90185115Y-88778464D01*
X90185114Y-88778462D01*
X90176895Y-88749576D01*
X90124229Y-88564472D01*
X90056771Y-88428998D01*
X90025061Y-88365316D01*
X90025056Y-88365308D01*
X89890979Y-88187761D01*
X89726562Y-88037876D01*
X89726560Y-88037874D01*
X89537404Y-87920754D01*
X89537398Y-87920752D01*
X89329940Y-87840382D01*
X89111243Y-87799500D01*
X89111241Y-87799500D01*
X88982940Y-87799500D01*
X88915901Y-87779815D01*
X88895259Y-87763181D01*
X87251819Y-86119741D01*
X87218334Y-86058418D01*
X87215500Y-86032060D01*
X87215500Y-85500000D01*
X92194540Y-85500000D01*
X92214326Y-85688256D01*
X92214327Y-85688259D01*
X92272818Y-85868277D01*
X92272821Y-85868284D01*
X92367467Y-86032216D01*
X92446275Y-86119741D01*
X92494129Y-86172888D01*
X92647265Y-86284148D01*
X92647270Y-86284151D01*
X92820192Y-86361142D01*
X92820197Y-86361144D01*
X93005354Y-86400500D01*
X93005355Y-86400500D01*
X93194644Y-86400500D01*
X93194646Y-86400500D01*
X93379803Y-86361144D01*
X93552730Y-86284151D01*
X93705871Y-86172888D01*
X93832533Y-86032216D01*
X93927179Y-85868284D01*
X93932069Y-85853235D01*
X93971506Y-85795560D01*
X94035865Y-85768361D01*
X94104711Y-85780275D01*
X94156187Y-85827520D01*
X94167931Y-85853235D01*
X94172818Y-85868278D01*
X94172821Y-85868284D01*
X94267467Y-86032216D01*
X94346275Y-86119741D01*
X94394129Y-86172888D01*
X94547265Y-86284148D01*
X94547270Y-86284151D01*
X94720192Y-86361142D01*
X94720197Y-86361144D01*
X94905354Y-86400500D01*
X94905355Y-86400500D01*
X95094644Y-86400500D01*
X95094646Y-86400500D01*
X95279803Y-86361144D01*
X95452730Y-86284151D01*
X95499736Y-86249999D01*
X98844571Y-86249999D01*
X98844571Y-86250000D01*
X98864244Y-86462310D01*
X98922596Y-86667392D01*
X98922596Y-86667394D01*
X99017632Y-86858253D01*
X99146127Y-87028406D01*
X99146128Y-87028407D01*
X99303698Y-87172052D01*
X99484981Y-87284298D01*
X99683802Y-87361321D01*
X99893390Y-87400500D01*
X99893392Y-87400500D01*
X100106608Y-87400500D01*
X100106610Y-87400500D01*
X100316198Y-87361321D01*
X100515019Y-87284298D01*
X100696302Y-87172052D01*
X100853872Y-87028407D01*
X100982366Y-86858255D01*
X100999527Y-86823790D01*
X101077403Y-86667394D01*
X101077403Y-86667393D01*
X101077405Y-86667389D01*
X101135756Y-86462310D01*
X101155429Y-86250000D01*
X101155429Y-86249999D01*
X103724571Y-86249999D01*
X103724571Y-86250000D01*
X103744244Y-86462310D01*
X103802596Y-86667392D01*
X103802596Y-86667394D01*
X103897632Y-86858253D01*
X104026127Y-87028406D01*
X104026128Y-87028407D01*
X104183698Y-87172052D01*
X104364981Y-87284298D01*
X104563802Y-87361321D01*
X104773390Y-87400500D01*
X104773392Y-87400500D01*
X104986608Y-87400500D01*
X104986610Y-87400500D01*
X105196198Y-87361321D01*
X105395019Y-87284298D01*
X105576302Y-87172052D01*
X105733872Y-87028407D01*
X105862366Y-86858255D01*
X105879527Y-86823790D01*
X105957403Y-86667394D01*
X105957403Y-86667393D01*
X105957405Y-86667389D01*
X106015756Y-86462310D01*
X106035429Y-86250000D01*
X106015756Y-86037690D01*
X105957405Y-85832611D01*
X105957403Y-85832606D01*
X105957403Y-85832605D01*
X105862367Y-85641746D01*
X105733872Y-85471593D01*
X105657559Y-85402024D01*
X105576302Y-85327948D01*
X105395019Y-85215702D01*
X105395017Y-85215701D01*
X105217073Y-85146766D01*
X105196198Y-85138679D01*
X104986610Y-85099500D01*
X104773390Y-85099500D01*
X104563802Y-85138679D01*
X104563799Y-85138679D01*
X104563799Y-85138680D01*
X104364982Y-85215701D01*
X104364980Y-85215702D01*
X104183699Y-85327947D01*
X104026127Y-85471593D01*
X103897632Y-85641746D01*
X103802596Y-85832605D01*
X103802596Y-85832607D01*
X103744244Y-86037689D01*
X103724571Y-86249999D01*
X101155429Y-86249999D01*
X101135756Y-86037690D01*
X101077405Y-85832611D01*
X101077403Y-85832606D01*
X101077403Y-85832605D01*
X100982367Y-85641746D01*
X100853872Y-85471593D01*
X100777559Y-85402024D01*
X100696302Y-85327948D01*
X100515019Y-85215702D01*
X100515017Y-85215701D01*
X100337073Y-85146766D01*
X100316198Y-85138679D01*
X100106610Y-85099500D01*
X99893390Y-85099500D01*
X99683802Y-85138679D01*
X99683799Y-85138679D01*
X99683799Y-85138680D01*
X99484982Y-85215701D01*
X99484980Y-85215702D01*
X99303699Y-85327947D01*
X99146127Y-85471593D01*
X99017632Y-85641746D01*
X98922596Y-85832605D01*
X98922596Y-85832607D01*
X98864244Y-86037689D01*
X98844571Y-86249999D01*
X95499736Y-86249999D01*
X95605871Y-86172888D01*
X95732533Y-86032216D01*
X95827179Y-85868284D01*
X95885674Y-85688256D01*
X95905460Y-85500000D01*
X95885674Y-85311744D01*
X95827179Y-85131716D01*
X95732533Y-84967784D01*
X95605871Y-84827112D01*
X95605870Y-84827111D01*
X95452734Y-84715851D01*
X95452729Y-84715848D01*
X95279807Y-84638857D01*
X95279802Y-84638855D01*
X95134001Y-84607865D01*
X95094646Y-84599500D01*
X94905354Y-84599500D01*
X94872897Y-84606398D01*
X94720197Y-84638855D01*
X94720192Y-84638857D01*
X94547270Y-84715848D01*
X94547265Y-84715851D01*
X94394129Y-84827111D01*
X94267466Y-84967785D01*
X94172821Y-85131715D01*
X94172820Y-85131717D01*
X94167931Y-85146766D01*
X94128492Y-85204440D01*
X94064133Y-85231638D01*
X93995287Y-85219723D01*
X93943812Y-85172478D01*
X93932069Y-85146766D01*
X93927179Y-85131717D01*
X93927178Y-85131715D01*
X93846723Y-84992362D01*
X93832533Y-84967784D01*
X93705871Y-84827112D01*
X93705870Y-84827111D01*
X93552734Y-84715851D01*
X93552729Y-84715848D01*
X93379807Y-84638857D01*
X93379802Y-84638855D01*
X93234001Y-84607865D01*
X93194646Y-84599500D01*
X93005354Y-84599500D01*
X92972897Y-84606398D01*
X92820197Y-84638855D01*
X92820192Y-84638857D01*
X92647270Y-84715848D01*
X92647265Y-84715851D01*
X92494129Y-84827111D01*
X92367466Y-84967785D01*
X92272821Y-85131715D01*
X92272818Y-85131722D01*
X92214327Y-85311740D01*
X92214326Y-85311744D01*
X92194540Y-85500000D01*
X87215500Y-85500000D01*
X87215500Y-81999999D01*
X89794357Y-81999999D01*
X89794357Y-82000000D01*
X89814884Y-82221535D01*
X89814885Y-82221537D01*
X89875769Y-82435523D01*
X89875775Y-82435538D01*
X89974938Y-82634683D01*
X89974943Y-82634691D01*
X90109020Y-82812238D01*
X90273437Y-82962123D01*
X90273439Y-82962125D01*
X90462595Y-83079245D01*
X90462596Y-83079245D01*
X90462599Y-83079247D01*
X90670060Y-83159618D01*
X90888757Y-83200500D01*
X90888759Y-83200500D01*
X91111241Y-83200500D01*
X91111243Y-83200500D01*
X91329940Y-83159618D01*
X91537401Y-83079247D01*
X91726562Y-82962124D01*
X91890981Y-82812236D01*
X92025058Y-82634689D01*
X92124229Y-82435528D01*
X92185115Y-82221536D01*
X92205643Y-82000000D01*
X92205643Y-81999999D01*
X95794357Y-81999999D01*
X95794357Y-82000000D01*
X95814884Y-82221535D01*
X95814885Y-82221537D01*
X95875769Y-82435523D01*
X95875775Y-82435538D01*
X95974938Y-82634683D01*
X95974943Y-82634691D01*
X96109020Y-82812238D01*
X96273437Y-82962123D01*
X96273439Y-82962125D01*
X96462595Y-83079245D01*
X96462596Y-83079245D01*
X96462599Y-83079247D01*
X96670060Y-83159618D01*
X96888757Y-83200500D01*
X96888759Y-83200500D01*
X97111241Y-83200500D01*
X97111243Y-83200500D01*
X97329940Y-83159618D01*
X97537401Y-83079247D01*
X97726562Y-82962124D01*
X97890981Y-82812236D01*
X98025058Y-82634689D01*
X98124229Y-82435528D01*
X98185115Y-82221536D01*
X98205643Y-82000000D01*
X98205643Y-81999999D01*
X99394357Y-81999999D01*
X99394357Y-82000000D01*
X99414884Y-82221535D01*
X99414885Y-82221537D01*
X99475769Y-82435523D01*
X99475775Y-82435538D01*
X99574938Y-82634683D01*
X99574943Y-82634691D01*
X99709020Y-82812238D01*
X99873437Y-82962123D01*
X99873439Y-82962125D01*
X100062595Y-83079245D01*
X100062596Y-83079245D01*
X100062599Y-83079247D01*
X100270060Y-83159618D01*
X100488757Y-83200500D01*
X100488759Y-83200500D01*
X100711241Y-83200500D01*
X100711243Y-83200500D01*
X100929940Y-83159618D01*
X101137401Y-83079247D01*
X101326562Y-82962124D01*
X101490981Y-82812236D01*
X101625058Y-82634689D01*
X101724229Y-82435528D01*
X101785115Y-82221536D01*
X101805643Y-82000000D01*
X101805643Y-81999999D01*
X103074357Y-81999999D01*
X103074357Y-82000000D01*
X103094884Y-82221535D01*
X103094885Y-82221537D01*
X103155769Y-82435523D01*
X103155775Y-82435538D01*
X103254938Y-82634683D01*
X103254943Y-82634691D01*
X103389020Y-82812238D01*
X103553437Y-82962123D01*
X103553439Y-82962125D01*
X103742595Y-83079245D01*
X103742596Y-83079245D01*
X103742599Y-83079247D01*
X103950060Y-83159618D01*
X104168757Y-83200500D01*
X104168759Y-83200500D01*
X104391241Y-83200500D01*
X104391243Y-83200500D01*
X104609940Y-83159618D01*
X104817401Y-83079247D01*
X105006562Y-82962124D01*
X105170981Y-82812236D01*
X105305058Y-82634689D01*
X105404229Y-82435528D01*
X105465115Y-82221536D01*
X105485643Y-82000000D01*
X105465115Y-81778464D01*
X105404229Y-81564472D01*
X105378097Y-81511992D01*
X105305061Y-81365316D01*
X105305056Y-81365308D01*
X105170979Y-81187761D01*
X105006562Y-81037876D01*
X105006560Y-81037874D01*
X104817404Y-80920754D01*
X104817398Y-80920752D01*
X104609940Y-80840382D01*
X104391243Y-80799500D01*
X104168757Y-80799500D01*
X103950060Y-80840382D01*
X103818864Y-80891207D01*
X103742601Y-80920752D01*
X103742595Y-80920754D01*
X103553439Y-81037874D01*
X103553437Y-81037876D01*
X103389020Y-81187761D01*
X103254943Y-81365308D01*
X103254938Y-81365316D01*
X103155775Y-81564461D01*
X103155769Y-81564476D01*
X103094885Y-81778462D01*
X103094884Y-81778464D01*
X103074357Y-81999999D01*
X101805643Y-81999999D01*
X101785115Y-81778464D01*
X101724229Y-81564472D01*
X101698097Y-81511992D01*
X101625061Y-81365316D01*
X101625056Y-81365308D01*
X101490979Y-81187761D01*
X101326562Y-81037876D01*
X101326560Y-81037874D01*
X101137404Y-80920754D01*
X101137398Y-80920752D01*
X100929940Y-80840382D01*
X100711243Y-80799500D01*
X100488757Y-80799500D01*
X100270060Y-80840382D01*
X100138864Y-80891207D01*
X100062601Y-80920752D01*
X100062595Y-80920754D01*
X99873439Y-81037874D01*
X99873437Y-81037876D01*
X99709020Y-81187761D01*
X99574943Y-81365308D01*
X99574938Y-81365316D01*
X99475775Y-81564461D01*
X99475769Y-81564476D01*
X99414885Y-81778462D01*
X99414884Y-81778464D01*
X99394357Y-81999999D01*
X98205643Y-81999999D01*
X98185115Y-81778464D01*
X98124229Y-81564472D01*
X98098097Y-81511992D01*
X98025061Y-81365316D01*
X98025056Y-81365308D01*
X97890979Y-81187761D01*
X97726562Y-81037876D01*
X97726560Y-81037874D01*
X97537404Y-80920754D01*
X97537398Y-80920752D01*
X97329940Y-80840382D01*
X97111243Y-80799500D01*
X96888757Y-80799500D01*
X96670060Y-80840382D01*
X96538864Y-80891207D01*
X96462601Y-80920752D01*
X96462595Y-80920754D01*
X96273439Y-81037874D01*
X96273437Y-81037876D01*
X96109020Y-81187761D01*
X95974943Y-81365308D01*
X95974938Y-81365316D01*
X95875775Y-81564461D01*
X95875769Y-81564476D01*
X95814885Y-81778462D01*
X95814884Y-81778464D01*
X95794357Y-81999999D01*
X92205643Y-81999999D01*
X92185115Y-81778464D01*
X92124229Y-81564472D01*
X92098097Y-81511992D01*
X92025061Y-81365316D01*
X92025056Y-81365308D01*
X91890979Y-81187761D01*
X91726562Y-81037876D01*
X91726560Y-81037874D01*
X91537404Y-80920754D01*
X91537398Y-80920752D01*
X91329940Y-80840382D01*
X91111243Y-80799500D01*
X90888757Y-80799500D01*
X90670060Y-80840382D01*
X90538864Y-80891207D01*
X90462601Y-80920752D01*
X90462595Y-80920754D01*
X90273439Y-81037874D01*
X90273437Y-81037876D01*
X90109020Y-81187761D01*
X89974943Y-81365308D01*
X89974938Y-81365316D01*
X89875775Y-81564461D01*
X89875769Y-81564476D01*
X89814885Y-81778462D01*
X89814884Y-81778464D01*
X89794357Y-81999999D01*
X87215500Y-81999999D01*
X87215500Y-81076569D01*
X87213113Y-81064570D01*
X87207804Y-81037876D01*
X87184738Y-80921913D01*
X87124394Y-80776231D01*
X87124392Y-80776228D01*
X87124390Y-80776224D01*
X87036789Y-80645121D01*
X87036786Y-80645117D01*
X84546408Y-78154739D01*
X84512923Y-78093416D01*
X84510089Y-78067058D01*
X84510089Y-77118482D01*
X84510088Y-77118475D01*
X84495236Y-77024696D01*
X84437640Y-76911658D01*
X84437636Y-76911654D01*
X84437635Y-76911652D01*
X84347937Y-76821954D01*
X84347934Y-76821952D01*
X84347932Y-76821950D01*
X84235128Y-76764473D01*
X84234891Y-76764352D01*
X84141114Y-76749500D01*
X82598385Y-76749500D01*
X82531346Y-76729815D01*
X82485591Y-76677011D01*
X82475647Y-76607853D01*
X82504672Y-76544297D01*
X82510690Y-76537833D01*
X83381450Y-75667073D01*
X83442771Y-75633590D01*
X83512463Y-75638574D01*
X83513775Y-75639073D01*
X83670060Y-75699618D01*
X83888757Y-75740500D01*
X83888759Y-75740500D01*
X84111241Y-75740500D01*
X84111243Y-75740500D01*
X84329940Y-75699618D01*
X84537401Y-75619247D01*
X84726562Y-75502124D01*
X84890981Y-75352236D01*
X85025058Y-75174689D01*
X85124229Y-74975528D01*
X85185115Y-74761536D01*
X85205643Y-74540000D01*
X85185115Y-74318464D01*
X85124229Y-74104472D01*
X85072208Y-74000000D01*
X85025061Y-73905316D01*
X85025056Y-73905308D01*
X84890979Y-73727761D01*
X84726562Y-73577876D01*
X84726560Y-73577874D01*
X84537404Y-73460754D01*
X84537395Y-73460750D01*
X84443956Y-73424552D01*
X84343475Y-73385625D01*
X84288075Y-73343054D01*
X84264484Y-73277288D01*
X84280195Y-73209207D01*
X84330219Y-73160428D01*
X84343466Y-73154377D01*
X84537401Y-73079247D01*
X84726562Y-72962124D01*
X84890981Y-72812236D01*
X85025058Y-72634689D01*
X85054120Y-72576326D01*
X85124224Y-72435538D01*
X85124223Y-72435538D01*
X85124229Y-72435528D01*
X85185115Y-72221536D01*
X85205643Y-72000000D01*
X85200645Y-71946067D01*
X85185115Y-71778464D01*
X85185114Y-71778462D01*
X85177764Y-71752630D01*
X85124229Y-71564472D01*
X85124224Y-71564461D01*
X85029081Y-71373389D01*
X86699500Y-71373389D01*
X86699500Y-71546610D01*
X86720306Y-71677979D01*
X86726598Y-71717701D01*
X86780127Y-71882445D01*
X86858768Y-72036788D01*
X86960586Y-72176928D01*
X87083072Y-72299414D01*
X87223212Y-72401232D01*
X87377555Y-72479873D01*
X87542299Y-72533402D01*
X87713389Y-72560500D01*
X87713390Y-72560500D01*
X88286610Y-72560500D01*
X88286611Y-72560500D01*
X88457701Y-72533402D01*
X88622445Y-72479873D01*
X88776788Y-72401232D01*
X88916928Y-72299414D01*
X89039414Y-72176928D01*
X89141232Y-72036788D01*
X89159977Y-71999999D01*
X90794357Y-71999999D01*
X90794357Y-72000000D01*
X90814884Y-72221535D01*
X90814885Y-72221537D01*
X90875769Y-72435523D01*
X90875775Y-72435538D01*
X90974938Y-72634683D01*
X90974943Y-72634691D01*
X91109020Y-72812238D01*
X91273437Y-72962123D01*
X91273439Y-72962125D01*
X91462595Y-73079245D01*
X91462596Y-73079245D01*
X91462599Y-73079247D01*
X91656524Y-73154374D01*
X91711924Y-73196946D01*
X91735515Y-73262713D01*
X91719804Y-73330793D01*
X91669780Y-73379572D01*
X91656533Y-73385622D01*
X91508488Y-73442975D01*
X91462601Y-73460752D01*
X91462595Y-73460754D01*
X91273439Y-73577874D01*
X91273437Y-73577876D01*
X91109020Y-73727761D01*
X90974943Y-73905308D01*
X90974938Y-73905316D01*
X90875775Y-74104461D01*
X90875769Y-74104476D01*
X90814885Y-74318462D01*
X90814884Y-74318464D01*
X90794357Y-74539999D01*
X90794357Y-74540000D01*
X90814884Y-74761535D01*
X90814885Y-74761537D01*
X90875769Y-74975523D01*
X90875775Y-74975538D01*
X90974938Y-75174683D01*
X90974943Y-75174691D01*
X91109020Y-75352238D01*
X91273437Y-75502123D01*
X91273439Y-75502125D01*
X91462595Y-75619245D01*
X91462596Y-75619245D01*
X91462599Y-75619247D01*
X91670060Y-75699618D01*
X91888757Y-75740500D01*
X91888759Y-75740500D01*
X92111241Y-75740500D01*
X92111243Y-75740500D01*
X92329940Y-75699618D01*
X92537401Y-75619247D01*
X92726562Y-75502124D01*
X92890981Y-75352236D01*
X93025058Y-75174689D01*
X93124229Y-74975528D01*
X93185115Y-74761536D01*
X93205643Y-74540000D01*
X93185115Y-74318464D01*
X93124229Y-74104472D01*
X93072208Y-74000000D01*
X93025061Y-73905316D01*
X93025056Y-73905308D01*
X92890979Y-73727761D01*
X92726562Y-73577876D01*
X92726560Y-73577874D01*
X92537404Y-73460754D01*
X92537395Y-73460750D01*
X92443956Y-73424552D01*
X92343475Y-73385625D01*
X92288075Y-73343054D01*
X92264484Y-73277288D01*
X92280195Y-73209207D01*
X92330219Y-73160428D01*
X92343466Y-73154377D01*
X92537401Y-73079247D01*
X92726562Y-72962124D01*
X92890981Y-72812236D01*
X93025058Y-72634689D01*
X93054120Y-72576326D01*
X93124224Y-72435538D01*
X93124223Y-72435538D01*
X93124229Y-72435528D01*
X93185115Y-72221536D01*
X93205643Y-72000000D01*
X93200645Y-71946067D01*
X93185115Y-71778464D01*
X93185114Y-71778462D01*
X93177764Y-71752630D01*
X93124229Y-71564472D01*
X93124224Y-71564461D01*
X93025061Y-71365316D01*
X93025056Y-71365308D01*
X92890979Y-71187761D01*
X92726562Y-71037876D01*
X92726560Y-71037874D01*
X92537404Y-70920754D01*
X92537398Y-70920752D01*
X92329940Y-70840382D01*
X92111243Y-70799500D01*
X91888757Y-70799500D01*
X91670060Y-70840382D01*
X91559506Y-70883211D01*
X91462601Y-70920752D01*
X91462595Y-70920754D01*
X91273439Y-71037874D01*
X91273437Y-71037876D01*
X91109020Y-71187761D01*
X90974943Y-71365308D01*
X90974938Y-71365316D01*
X90875775Y-71564461D01*
X90875769Y-71564476D01*
X90814885Y-71778462D01*
X90814884Y-71778464D01*
X90794357Y-71999999D01*
X89159977Y-71999999D01*
X89219873Y-71882445D01*
X89273402Y-71717701D01*
X89300500Y-71546611D01*
X89300500Y-71373389D01*
X89273402Y-71202299D01*
X89219873Y-71037555D01*
X89141232Y-70883212D01*
X89039414Y-70743072D01*
X88916928Y-70620586D01*
X88776788Y-70518768D01*
X88622445Y-70440127D01*
X88457701Y-70386598D01*
X88457699Y-70386597D01*
X88457698Y-70386597D01*
X88326271Y-70365781D01*
X88286611Y-70359500D01*
X87713389Y-70359500D01*
X87673728Y-70365781D01*
X87542302Y-70386597D01*
X87377552Y-70440128D01*
X87223211Y-70518768D01*
X87143256Y-70576859D01*
X87083072Y-70620586D01*
X87083070Y-70620588D01*
X87083069Y-70620588D01*
X86960588Y-70743069D01*
X86960588Y-70743070D01*
X86960586Y-70743072D01*
X86951336Y-70755804D01*
X86858768Y-70883211D01*
X86780128Y-71037552D01*
X86726597Y-71202302D01*
X86699500Y-71373389D01*
X85029081Y-71373389D01*
X85025061Y-71365316D01*
X85025056Y-71365308D01*
X84890979Y-71187761D01*
X84726562Y-71037876D01*
X84726560Y-71037874D01*
X84537404Y-70920754D01*
X84537398Y-70920752D01*
X84329940Y-70840382D01*
X84111243Y-70799500D01*
X83888757Y-70799500D01*
X83670060Y-70840382D01*
X83559506Y-70883211D01*
X83462601Y-70920752D01*
X83462595Y-70920754D01*
X83273439Y-71037874D01*
X83273437Y-71037876D01*
X83109020Y-71187761D01*
X82974943Y-71365308D01*
X82974938Y-71365316D01*
X82875775Y-71564461D01*
X82875769Y-71564476D01*
X82814885Y-71778462D01*
X82814884Y-71778464D01*
X82794357Y-71999999D01*
X82794357Y-72000000D01*
X82814884Y-72221535D01*
X82814885Y-72221537D01*
X82875769Y-72435523D01*
X82875775Y-72435538D01*
X82974938Y-72634683D01*
X82974943Y-72634691D01*
X83109020Y-72812238D01*
X83273437Y-72962123D01*
X83273439Y-72962125D01*
X83462595Y-73079245D01*
X83462596Y-73079245D01*
X83462599Y-73079247D01*
X83656524Y-73154374D01*
X83711924Y-73196946D01*
X83735515Y-73262713D01*
X83719804Y-73330793D01*
X83669780Y-73379572D01*
X83656533Y-73385622D01*
X83508488Y-73442975D01*
X83462601Y-73460752D01*
X83462595Y-73460754D01*
X83273439Y-73577874D01*
X83273437Y-73577876D01*
X83109020Y-73727761D01*
X82974943Y-73905308D01*
X82974938Y-73905316D01*
X82875775Y-74104461D01*
X82875769Y-74104476D01*
X82814885Y-74318462D01*
X82814884Y-74318464D01*
X82794357Y-74539999D01*
X82794357Y-74540001D01*
X82802310Y-74625831D01*
X82788895Y-74694401D01*
X82766520Y-74724953D01*
X81089491Y-76401983D01*
X81089489Y-76401986D01*
X81017016Y-76527514D01*
X81017016Y-76527515D01*
X80979500Y-76667525D01*
X80979500Y-81277936D01*
X80979500Y-81422884D01*
X81003377Y-81511992D01*
X81017016Y-81562895D01*
X81089489Y-81688423D01*
X81089491Y-81688426D01*
X82023415Y-82622350D01*
X82056900Y-82683673D01*
X82055509Y-82742124D01*
X82023383Y-82862020D01*
X82023383Y-82862024D01*
X82004313Y-83079997D01*
X82004313Y-83080002D01*
X82023383Y-83297975D01*
X82023383Y-83297979D01*
X82080012Y-83509322D01*
X82080014Y-83509326D01*
X82080015Y-83509330D01*
X82095831Y-83543247D01*
X82172487Y-83707638D01*
X82172488Y-83707639D01*
X82297992Y-83886877D01*
X82452713Y-84041598D01*
X82631950Y-84167101D01*
X82631951Y-84167102D01*
X82783173Y-84237618D01*
X82835612Y-84283790D01*
X82854764Y-84350984D01*
X82834548Y-84417865D01*
X82783173Y-84462382D01*
X82631951Y-84532898D01*
X82631947Y-84532900D01*
X82452711Y-84658402D01*
X82297992Y-84813121D01*
X82172490Y-84992357D01*
X82172488Y-84992361D01*
X82080016Y-85190668D01*
X82080012Y-85190677D01*
X82023383Y-85402020D01*
X82023383Y-85402023D01*
X82004313Y-85620000D01*
X82019819Y-85797244D01*
X82023383Y-85837975D01*
X82023383Y-85837979D01*
X82080012Y-86049322D01*
X82080014Y-86049326D01*
X82080015Y-86049330D01*
X82112848Y-86119741D01*
X82172487Y-86247638D01*
X82172488Y-86247639D01*
X82297992Y-86426877D01*
X82452713Y-86581598D01*
X82631950Y-86707101D01*
X82631951Y-86707102D01*
X82783173Y-86777618D01*
X82835612Y-86823790D01*
X82854764Y-86890984D01*
X82834548Y-86957865D01*
X82783173Y-87002382D01*
X82631951Y-87072898D01*
X82631947Y-87072900D01*
X82452711Y-87198402D01*
X82297992Y-87353121D01*
X82172490Y-87532357D01*
X82172488Y-87532361D01*
X82080016Y-87730668D01*
X82080012Y-87730677D01*
X82023383Y-87942020D01*
X82023383Y-87942023D01*
X82004313Y-88160000D01*
X82019819Y-88337244D01*
X82023383Y-88377975D01*
X82023383Y-88377979D01*
X82080012Y-88589322D01*
X82080014Y-88589326D01*
X82080015Y-88589330D01*
X82126251Y-88688484D01*
X82172487Y-88787638D01*
X82172488Y-88787639D01*
X82297992Y-88966877D01*
X82452713Y-89121598D01*
X82631950Y-89247101D01*
X82631951Y-89247102D01*
X82783173Y-89317618D01*
X82835612Y-89363790D01*
X82854764Y-89430984D01*
X82834548Y-89497865D01*
X82783173Y-89542382D01*
X82631951Y-89612898D01*
X82631947Y-89612900D01*
X82452711Y-89738402D01*
X82297992Y-89893121D01*
X82172490Y-90072357D01*
X82172488Y-90072361D01*
X82080016Y-90270668D01*
X82080012Y-90270677D01*
X82023383Y-90482020D01*
X82023383Y-90482024D01*
X82004313Y-90699997D01*
X82004313Y-90700002D01*
X82023383Y-90917975D01*
X82023383Y-90917979D01*
X82080012Y-91129322D01*
X82080014Y-91129326D01*
X82080015Y-91129330D01*
X82126251Y-91228484D01*
X82172487Y-91327638D01*
X82172488Y-91327639D01*
X82297992Y-91506877D01*
X82452713Y-91661598D01*
X82631950Y-91787101D01*
X82631951Y-91787102D01*
X82783173Y-91857618D01*
X82835612Y-91903790D01*
X82854764Y-91970984D01*
X82834548Y-92037865D01*
X82783173Y-92082382D01*
X82631951Y-92152898D01*
X82631947Y-92152900D01*
X82452711Y-92278402D01*
X82297992Y-92433121D01*
X82172490Y-92612357D01*
X82172488Y-92612361D01*
X82080016Y-92810668D01*
X82080012Y-92810677D01*
X82023383Y-93022020D01*
X82023383Y-93022024D01*
X82004313Y-93239997D01*
X82004313Y-93240002D01*
X82023383Y-93457975D01*
X82023383Y-93457979D01*
X82080012Y-93669322D01*
X82080014Y-93669326D01*
X82080015Y-93669330D01*
X82106912Y-93727011D01*
X82172487Y-93867638D01*
X82172488Y-93867639D01*
X82297992Y-94046877D01*
X82452713Y-94201598D01*
X82603347Y-94307073D01*
X82631951Y-94327102D01*
X82783173Y-94397618D01*
X82835612Y-94443790D01*
X82854764Y-94510984D01*
X82834548Y-94577865D01*
X82783173Y-94622382D01*
X82631951Y-94692898D01*
X82631947Y-94692900D01*
X82452711Y-94818402D01*
X82297992Y-94973121D01*
X82172490Y-95152357D01*
X82172488Y-95152361D01*
X82080016Y-95350668D01*
X82080012Y-95350677D01*
X82023383Y-95562020D01*
X82023383Y-95562024D01*
X82004313Y-95779997D01*
X82004313Y-95780002D01*
X82023383Y-95997975D01*
X82023383Y-95997979D01*
X82080012Y-96209322D01*
X82080014Y-96209326D01*
X82080015Y-96209330D01*
X82126251Y-96308484D01*
X82172487Y-96407638D01*
X82197588Y-96443486D01*
X82297992Y-96586877D01*
X82452713Y-96741598D01*
X82597790Y-96843182D01*
X82631951Y-96867102D01*
X82783173Y-96937618D01*
X82835612Y-96983790D01*
X82854764Y-97050984D01*
X82834548Y-97117865D01*
X82783173Y-97162382D01*
X82631951Y-97232898D01*
X82631947Y-97232900D01*
X82452711Y-97358402D01*
X82297992Y-97513121D01*
X82172490Y-97692357D01*
X82172488Y-97692361D01*
X82080016Y-97890668D01*
X82080012Y-97890677D01*
X82023383Y-98102020D01*
X82023383Y-98102024D01*
X82004313Y-98319997D01*
X82004313Y-98320002D01*
X82023383Y-98537975D01*
X82023383Y-98537979D01*
X82080012Y-98749322D01*
X82080014Y-98749326D01*
X82080015Y-98749330D01*
X82126251Y-98848484D01*
X82172487Y-98947638D01*
X82172488Y-98947639D01*
X82297992Y-99126877D01*
X82452713Y-99281598D01*
X82631950Y-99407101D01*
X82631951Y-99407102D01*
X82783173Y-99477618D01*
X82835612Y-99523790D01*
X82854764Y-99590984D01*
X82834548Y-99657865D01*
X82783173Y-99702382D01*
X82631951Y-99772898D01*
X82631947Y-99772900D01*
X82452711Y-99898402D01*
X82297992Y-100053121D01*
X82172490Y-100232357D01*
X82172488Y-100232361D01*
X82080016Y-100430668D01*
X82080012Y-100430677D01*
X82023383Y-100642020D01*
X82023383Y-100642024D01*
X82004313Y-100859997D01*
X82004313Y-100860002D01*
X82023383Y-101077975D01*
X82023383Y-101077979D01*
X82080012Y-101289322D01*
X82080014Y-101289326D01*
X82080015Y-101289330D01*
X82126251Y-101388484D01*
X82172487Y-101487638D01*
X82172488Y-101487639D01*
X82297992Y-101666877D01*
X82452713Y-101821598D01*
X82631950Y-101947101D01*
X82631951Y-101947102D01*
X82783173Y-102017618D01*
X82835612Y-102063790D01*
X82854764Y-102130984D01*
X82834548Y-102197865D01*
X82783173Y-102242382D01*
X82631951Y-102312898D01*
X82631947Y-102312900D01*
X82452711Y-102438402D01*
X82297992Y-102593121D01*
X82172490Y-102772357D01*
X82172488Y-102772361D01*
X82080016Y-102970668D01*
X82080012Y-102970677D01*
X82023383Y-103182020D01*
X82023383Y-103182024D01*
X82004313Y-103399997D01*
X82004313Y-103400002D01*
X82006132Y-103420795D01*
X82022072Y-103602997D01*
X82023383Y-103617975D01*
X82023383Y-103617979D01*
X82080012Y-103829322D01*
X82080014Y-103829326D01*
X82080015Y-103829330D01*
X82126251Y-103928484D01*
X82172487Y-104027638D01*
X82172488Y-104027639D01*
X82297992Y-104206877D01*
X82452713Y-104361598D01*
X82631950Y-104487101D01*
X82631951Y-104487102D01*
X82783173Y-104557618D01*
X82835612Y-104603790D01*
X82854764Y-104670984D01*
X82834548Y-104737865D01*
X82783173Y-104782382D01*
X82631951Y-104852898D01*
X82631947Y-104852900D01*
X82452711Y-104978402D01*
X82297992Y-105133121D01*
X82172490Y-105312357D01*
X82172488Y-105312361D01*
X82080016Y-105510668D01*
X82080012Y-105510677D01*
X82023383Y-105722020D01*
X82023383Y-105722024D01*
X82004313Y-105939997D01*
X82004313Y-105940002D01*
X82023383Y-106157975D01*
X82023383Y-106157979D01*
X82080012Y-106369322D01*
X82080014Y-106369326D01*
X82080015Y-106369330D01*
X82110881Y-106435523D01*
X82172487Y-106567638D01*
X82172488Y-106567639D01*
X82297992Y-106746877D01*
X82452713Y-106901598D01*
X82631950Y-107027101D01*
X82631951Y-107027102D01*
X82783173Y-107097618D01*
X82835612Y-107143790D01*
X82854764Y-107210984D01*
X82834548Y-107277865D01*
X82783173Y-107322382D01*
X82631951Y-107392898D01*
X82631947Y-107392900D01*
X82452711Y-107518402D01*
X82297992Y-107673121D01*
X82172490Y-107852357D01*
X82172488Y-107852361D01*
X82080016Y-108050668D01*
X82080012Y-108050677D01*
X82023383Y-108262020D01*
X82023383Y-108262024D01*
X82004313Y-108479997D01*
X82004313Y-108480002D01*
X82023383Y-108697975D01*
X82023383Y-108697979D01*
X82080012Y-108909322D01*
X82080014Y-108909326D01*
X82080015Y-108909330D01*
X82104633Y-108962123D01*
X82172487Y-109107638D01*
X82172488Y-109107639D01*
X82297992Y-109286877D01*
X82452713Y-109441598D01*
X82619211Y-109558181D01*
X82631951Y-109567102D01*
X82783173Y-109637618D01*
X82835612Y-109683790D01*
X82854764Y-109750984D01*
X82834548Y-109817865D01*
X82783173Y-109862382D01*
X82631951Y-109932898D01*
X82631947Y-109932900D01*
X82452711Y-110058402D01*
X82297992Y-110213121D01*
X82172490Y-110392357D01*
X82172488Y-110392361D01*
X82080016Y-110590668D01*
X82080012Y-110590677D01*
X82023383Y-110802020D01*
X82023383Y-110802024D01*
X82004313Y-111019997D01*
X82004313Y-111020002D01*
X82005641Y-111035185D01*
X82022438Y-111227181D01*
X82023383Y-111237975D01*
X82023383Y-111237979D01*
X82055509Y-111357874D01*
X82053846Y-111427724D01*
X82023415Y-111477648D01*
X80999081Y-112501983D01*
X80999079Y-112501986D01*
X80948479Y-112589630D01*
X80948478Y-112589631D01*
X80926607Y-112627511D01*
X80926606Y-112627515D01*
X80889090Y-112767525D01*
X78200500Y-112767525D01*
X78200500Y-73002706D01*
X78200618Y-72997297D01*
X78201015Y-72988211D01*
X78218528Y-72587080D01*
X78219468Y-72576347D01*
X78272709Y-72171938D01*
X78274582Y-72161308D01*
X78362870Y-71763068D01*
X78365668Y-71752630D01*
X78376681Y-71717701D01*
X78488319Y-71363629D01*
X78492016Y-71353473D01*
X78494817Y-71346712D01*
X78648111Y-70976627D01*
X78652669Y-70966853D01*
X78841025Y-70605024D01*
X78846407Y-70595703D01*
X79065574Y-70251680D01*
X79071765Y-70242837D01*
X79320083Y-69919224D01*
X79327021Y-69910955D01*
X79602594Y-69610220D01*
X79610220Y-69602594D01*
X79910955Y-69327021D01*
X79919224Y-69320083D01*
X80242837Y-69071765D01*
X80251680Y-69065574D01*
X80595703Y-68846407D01*
X80605024Y-68841025D01*
X80966853Y-68652669D01*
X80976627Y-68648111D01*
X81353482Y-68492012D01*
X81363629Y-68488319D01*
X81752639Y-68365665D01*
X81763068Y-68362870D01*
X82161308Y-68274582D01*
X82171938Y-68272709D01*
X82576347Y-68219468D01*
X82587080Y-68218528D01*
X82997297Y-68200617D01*
X83002706Y-68200500D01*
X83039882Y-68200500D01*
X112960118Y-68200500D01*
X112997294Y-68200500D01*
X113002702Y-68200617D01*
G37*
%TD.AperFunction*%
%TD*%
%TA.AperFunction,Conductor*%
%TO.N,/VBUS*%
G36*
X99065970Y-115266272D02*
G01*
X99130720Y-115306957D01*
X99200475Y-115350788D01*
X99370745Y-115410368D01*
X99370750Y-115410369D01*
X99549996Y-115430565D01*
X99550000Y-115430565D01*
X99550004Y-115430565D01*
X99729249Y-115410369D01*
X99729251Y-115410368D01*
X99729255Y-115410368D01*
X99729258Y-115410366D01*
X99729262Y-115410366D01*
X99871345Y-115360649D01*
X99941124Y-115357087D01*
X100001751Y-115391815D01*
X100033979Y-115453809D01*
X100036300Y-115477690D01*
X100036300Y-116958666D01*
X100016615Y-117025705D01*
X99999981Y-117046347D01*
X99763147Y-117283181D01*
X99701824Y-117316666D01*
X99675466Y-117319500D01*
X96994399Y-117319500D01*
X96927360Y-117299815D01*
X96881605Y-117247011D01*
X96871661Y-117177853D01*
X96900686Y-117114297D01*
X96946947Y-117080939D01*
X97053907Y-117036635D01*
X97053907Y-117036634D01*
X97053914Y-117036632D01*
X97217782Y-116927139D01*
X97357139Y-116787782D01*
X97466632Y-116623914D01*
X97542051Y-116441835D01*
X97580500Y-116248541D01*
X97580500Y-116051459D01*
X97580500Y-116051456D01*
X97542052Y-115858170D01*
X97542051Y-115858169D01*
X97542051Y-115858165D01*
X97542049Y-115858160D01*
X97466635Y-115676092D01*
X97466633Y-115676088D01*
X97466632Y-115676086D01*
X97419031Y-115604846D01*
X97398153Y-115538169D01*
X97416637Y-115470789D01*
X97468616Y-115424098D01*
X97508247Y-115412734D01*
X97529255Y-115410368D01*
X97699522Y-115350789D01*
X97834029Y-115266272D01*
X97901264Y-115247272D01*
X97965970Y-115266272D01*
X98030720Y-115306957D01*
X98100475Y-115350788D01*
X98270745Y-115410368D01*
X98270750Y-115410369D01*
X98449996Y-115430565D01*
X98450000Y-115430565D01*
X98450004Y-115430565D01*
X98629249Y-115410369D01*
X98629252Y-115410368D01*
X98629255Y-115410368D01*
X98799522Y-115350789D01*
X98934029Y-115266272D01*
X99001264Y-115247272D01*
X99065970Y-115266272D01*
G37*
%TD.AperFunction*%
%TD*%
M02*
