G04 Layer: BottomLayer*
G04 EasyEDA Pro v2.2.27.1, 2024-09-15 10:59:50*
G04 Gerber Generator version 0.3*
G04 Scale: 100 percent, Rotated: No, Reflected: No*
G04 Dimensions in millimeters*
G04 Leading zeros omitted, absolute positions, 3 integers and 5 decimals*
%TF.GenerationSoftware,KiCad,Pcbnew,8.0.6*%
%TF.CreationDate,2024-11-06T22:38:32+08:00*%
%TF.ProjectId,lichuang-gekuo-star-stm32f103c8t6-development-board,6c696368-7561-46e6-972d-67656b756f2d,rev?*%
%TF.SameCoordinates,Original*%
%TF.FileFunction,Copper,L2,Bot*%
%TF.FilePolarity,Positive*%
%FSLAX46Y46*%
G04 Gerber Fmt 4.6, Leading zero omitted, Abs format (unit mm)*
G04 Created by KiCad (PCBNEW 8.0.6) date 2024-11-06 22:38:32*
%MOMM*%
%LPD*%
G01*
G04 APERTURE LIST*
G04 Aperture macros list*
%AMRoundRect*
0 Rectangle with rounded corners*
0 $1 Rounding radius*
0 $2 $3 $4 $5 $6 $7 $8 $9 X,Y pos of 4 corners*
0 Add a 4 corners polygon primitive as box body*
4,1,4,$2,$3,$4,$5,$6,$7,$8,$9,$2,$3,0*
0 Add four circle primitives for the rounded corners*
1,1,$1+$1,$2,$3*
1,1,$1+$1,$4,$5*
1,1,$1+$1,$6,$7*
1,1,$1+$1,$8,$9*
0 Add four rect primitives between the rounded corners*
20,1,$1+$1,$2,$3,$4,$5,0*
20,1,$1+$1,$4,$5,$6,$7,0*
20,1,$1+$1,$6,$7,$8,$9,0*
20,1,$1+$1,$8,$9,$2,$3,0*%
G04 Aperture macros list end*
%TA.AperFunction,ComponentPad*%
%ADD10C,1.600000*%
%TD*%
%TA.AperFunction,ComponentPad*%
%ADD11O,1.600000X1.600000*%
%TD*%
%TA.AperFunction,ComponentPad*%
%ADD12R,1.700000X1.700000*%
%TD*%
%TA.AperFunction,ComponentPad*%
%ADD13O,1.700000X1.700000*%
%TD*%
%TA.AperFunction,ComponentPad*%
%ADD14R,1.800000X1.400000*%
%TD*%
%TA.AperFunction,ComponentPad*%
%ADD15O,1.800000X1.400000*%
%TD*%
%TA.AperFunction,ComponentPad*%
%ADD16C,0.800000*%
%TD*%
%TA.AperFunction,ComponentPad*%
%ADD17O,1.700000X1.200000*%
%TD*%
%TA.AperFunction,ComponentPad*%
%ADD18C,2.000000*%
%TD*%
%TA.AperFunction,ComponentPad*%
%ADD19C,1.500000*%
%TD*%
%TA.AperFunction,ComponentPad*%
%ADD20C,1.000000*%
%TD*%
%TA.AperFunction,ComponentPad*%
%ADD21R,1.000000X1.000000*%
%TD*%
%TA.AperFunction,SMDPad,CuDef*%
%ADD22RoundRect,0.225000X-0.250000X0.225000X-0.250000X-0.225000X0.250000X-0.225000X0.250000X0.225000X0*%
%TD*%
%TA.AperFunction,SMDPad,CuDef*%
%ADD23RoundRect,0.225000X0.250000X-0.225000X0.250000X0.225000X-0.250000X0.225000X-0.250000X-0.225000X0*%
%TD*%
%TA.AperFunction,SMDPad,CuDef*%
%ADD24RoundRect,0.375000X-0.625000X-0.375000X0.625000X-0.375000X0.625000X0.375000X-0.625000X0.375000X0*%
%TD*%
%TA.AperFunction,SMDPad,CuDef*%
%ADD25RoundRect,0.500000X-0.500000X-1.400000X0.500000X-1.400000X0.500000X1.400000X-0.500000X1.400000X0*%
%TD*%
%TA.AperFunction,SMDPad,CuDef*%
%ADD26RoundRect,0.250000X0.375000X0.625000X-0.375000X0.625000X-0.375000X-0.625000X0.375000X-0.625000X0*%
%TD*%
%TA.AperFunction,SMDPad,CuDef*%
%ADD27RoundRect,0.225000X-0.225000X-0.250000X0.225000X-0.250000X0.225000X0.250000X-0.225000X0.250000X0*%
%TD*%
%TA.AperFunction,SMDPad,CuDef*%
%ADD28RoundRect,0.075000X-0.075000X0.662500X-0.075000X-0.662500X0.075000X-0.662500X0.075000X0.662500X0*%
%TD*%
%TA.AperFunction,SMDPad,CuDef*%
%ADD29RoundRect,0.075000X-0.662500X0.075000X-0.662500X-0.075000X0.662500X-0.075000X0.662500X0.075000X0*%
%TD*%
%TA.AperFunction,SMDPad,CuDef*%
%ADD30RoundRect,0.225000X0.225000X0.250000X-0.225000X0.250000X-0.225000X-0.250000X0.225000X-0.250000X0*%
%TD*%
%TA.AperFunction,ViaPad*%
%ADD31C,0.500000*%
%TD*%
%TA.AperFunction,Conductor*%
%ADD32C,1.500000*%
%TD*%
%TA.AperFunction,Conductor*%
%ADD33C,0.300000*%
%TD*%
%TA.AperFunction,Conductor*%
%ADD34C,0.800000*%
%TD*%
%TA.AperFunction,Conductor*%
%ADD35C,1.000000*%
%TD*%
%TA.AperFunction,Conductor*%
%ADD36C,0.500000*%
%TD*%
%TA.AperFunction,Conductor*%
%ADD37C,0.180000*%
%TD*%
%TA.AperFunction,Conductor*%
%ADD38C,0.200000*%
%TD*%
%TA.AperFunction,Conductor*%
%ADD39C,0.438400*%
%TD*%
%TA.AperFunction,Conductor*%
%ADD40C,0.130000*%
%TD*%
G04 APERTURE END LIST*
D10*
%TO.P,C5,1*%
%TO.N,+3.3V*%
X83310000Y-135000000D03*
%TO.P,C5,2*%
%TO.N,GND*%
X83310000Y-130000000D03*
%TD*%
%TO.P,R4,1*%
%TO.N,Net-(LED1-K)*%
X113000000Y-72000000D03*
D11*
%TO.P,R4,2*%
%TO.N,GND*%
X113000000Y-74540000D03*
%TD*%
D10*
%TO.P,R8,1*%
%TO.N,Net-(J3-Pin_4)*%
X105000000Y-72000000D03*
D11*
%TO.P,R8,2*%
%TO.N,/PB2_BOOT1*%
X105000000Y-74540000D03*
%TD*%
D10*
%TO.P,C3,1*%
%TO.N,+3.3V*%
X105000000Y-121000000D03*
%TO.P,C3,2*%
%TO.N,GND*%
X105000000Y-126000000D03*
%TD*%
D12*
%TO.P,J2,1,Pin_1*%
%TO.N,/PA9_USART1_TX*%
X87695000Y-134250000D03*
D13*
%TO.P,J2,2,Pin_2*%
%TO.N,/PA13_SWDIO*%
X87695000Y-131710000D03*
%TO.P,J2,3,Pin_3*%
%TO.N,/PA10_USART1_RX*%
X90235000Y-134250000D03*
%TO.P,J2,4,Pin_4*%
%TO.N,/PA14_SWCLK*%
X90235000Y-131710000D03*
%TO.P,J2,5,Pin_5*%
%TO.N,/PB3_SWO*%
X92775000Y-134250000D03*
%TO.P,J2,6,Pin_6*%
%TO.N,+3.3V*%
X92775000Y-131710000D03*
%TO.P,J2,7,Pin_7*%
%TO.N,/NRST*%
X95315000Y-134250000D03*
%TO.P,J2,8,Pin_8*%
%TO.N,GND*%
X95315000Y-131710000D03*
%TD*%
D10*
%TO.P,R7,1*%
%TO.N,Net-(J3-Pin_3)*%
X92000000Y-72000000D03*
D11*
%TO.P,R7,2*%
%TO.N,/BOOT0*%
X92000000Y-74540000D03*
%TD*%
D10*
%TO.P,C6,1*%
%TO.N,/NRST*%
X99680000Y-130000000D03*
%TO.P,C6,2*%
%TO.N,GND*%
X99680000Y-135000000D03*
%TD*%
%TO.P,C4,1*%
%TO.N,+3.3V*%
X109000000Y-121000000D03*
%TO.P,C4,2*%
%TO.N,GND*%
X109000000Y-126000000D03*
%TD*%
%TO.P,C1,1*%
%TO.N,+5V*%
X88000000Y-121000000D03*
%TO.P,C1,2*%
%TO.N,GND*%
X88000000Y-126000000D03*
%TD*%
%TO.P,R6,1*%
%TO.N,/NRST*%
X114000000Y-131000000D03*
D11*
%TO.P,R6,2*%
%TO.N,+3.3V*%
X114000000Y-133540000D03*
%TD*%
D10*
%TO.P,R1,1*%
%TO.N,Net-(LED2-A)*%
X84000000Y-72000000D03*
D11*
%TO.P,R1,2*%
%TO.N,/PC13*%
X84000000Y-74540000D03*
%TD*%
D10*
%TO.P,R5,1*%
%TO.N,/D+*%
X90500000Y-108000000D03*
D11*
%TO.P,R5,2*%
%TO.N,+3.3V*%
X90500000Y-105460000D03*
%TD*%
D14*
%TO.P,LED2,1,K*%
%TO.N,GND*%
X88000000Y-74000000D03*
D15*
%TO.P,LED2,2,A*%
%TO.N,Net-(LED2-A)*%
X88000000Y-71460000D03*
%TD*%
D16*
%TO.P,J1,A1,GND*%
%TO.N,GND*%
X95150000Y-113375000D03*
%TO.P,J1,A4,VBUS*%
%TO.N,/VBUS*%
X96250000Y-113375000D03*
%TO.P,J1,A5,CC1*%
%TO.N,Net-(J1-CC1)*%
X97350000Y-113375000D03*
%TO.P,J1,A6,D+*%
%TO.N,/D+*%
X98450000Y-113375000D03*
%TO.P,J1,A7,D-*%
%TO.N,/D-*%
X99550000Y-113375000D03*
%TO.P,J1,A8,SBU1*%
%TO.N,unconnected-(J1-SBU1-PadA8)*%
X100650000Y-113375000D03*
%TO.P,J1,A9,VBUS*%
%TO.N,/VBUS*%
X101750000Y-113375000D03*
%TO.P,J1,A12,GND*%
%TO.N,GND*%
X102850000Y-113375000D03*
%TO.P,J1,B1,GND*%
X102850000Y-114625000D03*
%TO.P,J1,B4,VBUS*%
%TO.N,/VBUS*%
X101750000Y-114625000D03*
%TO.P,J1,B5,CC2*%
%TO.N,Net-(J1-CC2)*%
X100650000Y-114625000D03*
%TO.P,J1,B6,D+*%
%TO.N,/D+*%
X99550000Y-114625000D03*
%TO.P,J1,B7,D-*%
%TO.N,/D-*%
X98450000Y-114625000D03*
%TO.P,J1,B8,SBU2*%
%TO.N,unconnected-(J1-SBU2-PadB8)*%
X97350000Y-114625000D03*
%TO.P,J1,B9,VBUS*%
%TO.N,/VBUS*%
X96250000Y-114625000D03*
%TO.P,J1,B12,GND*%
%TO.N,GND*%
X95150000Y-114625000D03*
D17*
%TO.P,J1,S1,SHIELD*%
X96330000Y-111850000D03*
X96330000Y-116150000D03*
X101670000Y-111850000D03*
X101670000Y-116150000D03*
%TD*%
D12*
%TO.P,J4,1,Pin_1*%
%TO.N,/PA0*%
X113740410Y-78000000D03*
D13*
%TO.P,J4,2,Pin_2*%
%TO.N,/PA1*%
X113740410Y-80540000D03*
%TO.P,J4,3,Pin_3*%
%TO.N,/PA2*%
X113740410Y-83080000D03*
%TO.P,J4,4,Pin_4*%
%TO.N,/PA3*%
X113740410Y-85620000D03*
%TO.P,J4,5,Pin_5*%
%TO.N,/PA4*%
X113740410Y-88160000D03*
%TO.P,J4,6,Pin_6*%
%TO.N,/PA5*%
X113740410Y-90700000D03*
%TO.P,J4,7,Pin_7*%
%TO.N,/PA6*%
X113740410Y-93240000D03*
%TO.P,J4,8,Pin_8*%
%TO.N,/PA7*%
X113740410Y-95780000D03*
%TO.P,J4,9,Pin_9*%
%TO.N,/PB0*%
X113740410Y-98320000D03*
%TO.P,J4,10,Pin_10*%
%TO.N,/PB1*%
X113740410Y-100860000D03*
%TO.P,J4,11,Pin_11*%
%TO.N,/PB10*%
X113740410Y-103400000D03*
%TO.P,J4,12,Pin_12*%
%TO.N,/PB11*%
X113740410Y-105940000D03*
%TO.P,J4,13,Pin_13*%
%TO.N,/PB12*%
X113740410Y-108480000D03*
%TO.P,J4,14,Pin_14*%
%TO.N,/PB13*%
X113740410Y-111020000D03*
%TO.P,J4,15,Pin_15*%
%TO.N,/PB14*%
X113740410Y-113560000D03*
%TO.P,J4,16,Pin_16*%
%TO.N,/PB15*%
X113740410Y-116100000D03*
%TO.P,J4,17,Pin_17*%
%TO.N,+5V*%
X113740410Y-118640000D03*
%TO.P,J4,18,Pin_18*%
%TO.N,+3.3V*%
X113740410Y-121180000D03*
%TO.P,J4,19,Pin_19*%
%TO.N,GND*%
X113740410Y-123720000D03*
%TO.P,J4,20,Pin_20*%
X113740410Y-126260000D03*
%TD*%
D10*
%TO.P,C11,1*%
%TO.N,/OSC+*%
X100600000Y-82000000D03*
%TO.P,C11,2*%
%TO.N,GND*%
X100600000Y-77000000D03*
%TD*%
D18*
%TO.P,SW1,1*%
%TO.N,GND*%
X110265000Y-135000000D03*
X103765000Y-135000000D03*
%TO.P,SW1,2*%
%TO.N,/NRST*%
X110265000Y-130500000D03*
X103765000Y-130500000D03*
%TD*%
D12*
%TO.P,J3,1,Pin_1*%
%TO.N,+3.3V*%
X96000000Y-74000000D03*
D13*
%TO.P,J3,2,Pin_2*%
X96000000Y-71460000D03*
%TO.P,J3,3,Pin_3*%
%TO.N,Net-(J3-Pin_3)*%
X98540000Y-74000000D03*
%TO.P,J3,4,Pin_4*%
%TO.N,Net-(J3-Pin_4)*%
X98540000Y-71460000D03*
%TO.P,J3,5,Pin_5*%
%TO.N,GND*%
X101080000Y-74000000D03*
%TO.P,J3,6,Pin_6*%
X101080000Y-71460000D03*
%TD*%
D10*
%TO.P,C15,1*%
%TO.N,+BATT*%
X89000000Y-89000000D03*
%TO.P,C15,2*%
%TO.N,GND*%
X94000000Y-89000000D03*
%TD*%
D12*
%TO.P,J5,1,Pin_1*%
%TO.N,+BATT*%
X83259590Y-78000000D03*
D13*
%TO.P,J5,2,Pin_2*%
%TO.N,/NRST*%
X83259590Y-80540000D03*
%TO.P,J5,3,Pin_3*%
%TO.N,/PC13*%
X83259590Y-83080000D03*
%TO.P,J5,4,Pin_4*%
%TO.N,/PB9*%
X83259590Y-85620000D03*
%TO.P,J5,5,Pin_5*%
%TO.N,/PB8*%
X83259590Y-88160000D03*
%TO.P,J5,6,Pin_6*%
%TO.N,/PB7*%
X83259590Y-90700000D03*
%TO.P,J5,7,Pin_7*%
%TO.N,/PB6*%
X83259590Y-93240000D03*
%TO.P,J5,8,Pin_8*%
%TO.N,/PB5*%
X83259590Y-95780000D03*
%TO.P,J5,9,Pin_9*%
%TO.N,/PB4*%
X83259590Y-98320000D03*
%TO.P,J5,10,Pin_10*%
%TO.N,/PB3_SWO*%
X83259590Y-100860000D03*
%TO.P,J5,11,Pin_11*%
%TO.N,/PA15*%
X83259590Y-103400000D03*
%TO.P,J5,12,Pin_12*%
%TO.N,/PA14_SWCLK*%
X83259590Y-105940000D03*
%TO.P,J5,13,Pin_13*%
%TO.N,/PA13_SWDIO*%
X83259590Y-108480000D03*
%TO.P,J5,14,Pin_14*%
%TO.N,/PA10_USART1_RX*%
X83259590Y-111020000D03*
%TO.P,J5,15,Pin_15*%
%TO.N,/PA9_USART1_TX*%
X83259590Y-113560000D03*
%TO.P,J5,16,Pin_16*%
%TO.N,/PA8*%
X83259590Y-116100000D03*
%TO.P,J5,17,Pin_17*%
%TO.N,+5V*%
X83259590Y-118640000D03*
%TO.P,J5,18,Pin_18*%
%TO.N,+3.3V*%
X83259590Y-121180000D03*
%TO.P,J5,19,Pin_19*%
%TO.N,GND*%
X83259590Y-123720000D03*
%TO.P,J5,20,Pin_20*%
X83259590Y-126260000D03*
%TD*%
D10*
%TO.P,C12,1*%
%TO.N,/OSC-*%
X104280000Y-82000000D03*
%TO.P,C12,2*%
%TO.N,GND*%
X104280000Y-77000000D03*
%TD*%
%TO.P,C2,1*%
%TO.N,+5V*%
X92000000Y-121000000D03*
%TO.P,C2,2*%
%TO.N,GND*%
X92000000Y-126000000D03*
%TD*%
%TO.P,C7,1*%
%TO.N,/OSC32+*%
X91000000Y-82000000D03*
%TO.P,C7,2*%
%TO.N,GND*%
X91000000Y-77000000D03*
%TD*%
%TO.P,R3,1*%
%TO.N,GND*%
X92000000Y-115000000D03*
D11*
%TO.P,R3,2*%
%TO.N,Net-(J1-CC2)*%
X92000000Y-112460000D03*
%TD*%
D10*
%TO.P,C17,1*%
%TO.N,+3.3V*%
X94000000Y-104000000D03*
%TO.P,C17,2*%
%TO.N,GND*%
X94000000Y-109000000D03*
%TD*%
%TO.P,C19,1*%
%TO.N,+3.3V*%
X106000000Y-95000000D03*
%TO.P,C19,2*%
%TO.N,GND*%
X106000000Y-90000000D03*
%TD*%
%TO.P,R2,1*%
%TO.N,GND*%
X89000000Y-115000000D03*
D11*
%TO.P,R2,2*%
%TO.N,Net-(J1-CC1)*%
X89000000Y-112460000D03*
%TD*%
D14*
%TO.P,LED1,1,K*%
%TO.N,Net-(LED1-K)*%
X109000000Y-74000000D03*
D15*
%TO.P,LED1,2,A*%
%TO.N,+3.3V*%
X109000000Y-71460000D03*
%TD*%
D10*
%TO.P,C8,1*%
%TO.N,/OSC32-*%
X97000000Y-82000000D03*
%TO.P,C8,2*%
%TO.N,GND*%
X97000000Y-77000000D03*
%TD*%
%TO.P,C18,1*%
%TO.N,+3.3V*%
X95000000Y-95000000D03*
%TO.P,C18,2*%
%TO.N,GND*%
X90000000Y-95000000D03*
%TD*%
D19*
%TO.P,X2,1,1*%
%TO.N,/OSC+*%
X100000000Y-86250000D03*
%TO.P,X2,2,2*%
%TO.N,GND*%
X102440000Y-86250000D03*
%TO.P,X2,3,3*%
%TO.N,/OSC-*%
X104880000Y-86250000D03*
%TD*%
D20*
%TO.P,X1,1,1*%
%TO.N,/OSC32-*%
X95000000Y-85500000D03*
%TO.P,X1,2,2*%
%TO.N,/OSC32+*%
X93100000Y-85500000D03*
D21*
%TO.P,X1,3,3*%
%TO.N,GND*%
X95550000Y-80000000D03*
X92550000Y-80000000D03*
%TD*%
D10*
%TO.P,C16,1*%
%TO.N,+3.3V*%
X104000000Y-106000000D03*
%TO.P,C16,2*%
%TO.N,GND*%
X109000000Y-106000000D03*
%TD*%
D22*
%TO.P,C20,1*%
%TO.N,+3.3V*%
X96000000Y-104725000D03*
%TO.P,C20,2*%
%TO.N,GND*%
X96000000Y-106275000D03*
%TD*%
D23*
%TO.P,C24,1*%
%TO.N,+BATT*%
X94000000Y-92775000D03*
%TO.P,C24,2*%
%TO.N,GND*%
X94000000Y-91225000D03*
%TD*%
%TO.P,C22,1*%
%TO.N,+3.3V*%
X104000000Y-92775000D03*
%TO.P,C22,2*%
%TO.N,GND*%
X104000000Y-91225000D03*
%TD*%
D24*
%TO.P,U1,1,GND*%
%TO.N,GND*%
X95570000Y-125850000D03*
%TO.P,U1,2,VO*%
%TO.N,+3.3V*%
X95570000Y-123550000D03*
D25*
X101870000Y-123550000D03*
D24*
%TO.P,U1,3,VI*%
%TO.N,+5V*%
X95570000Y-121250000D03*
%TD*%
D26*
%TO.P,F1,1*%
%TO.N,/VBUS*%
X98400000Y-118500000D03*
%TO.P,F1,2*%
%TO.N,+5V*%
X95600000Y-118500000D03*
%TD*%
D23*
%TO.P,C9,1*%
%TO.N,/OSC32+*%
X96000000Y-92775000D03*
%TO.P,C9,2*%
%TO.N,GND*%
X96000000Y-91225000D03*
%TD*%
%TO.P,C13,1*%
%TO.N,/OSC+*%
X100000000Y-92775000D03*
%TO.P,C13,2*%
%TO.N,GND*%
X100000000Y-91225000D03*
%TD*%
D27*
%TO.P,C23,1*%
%TO.N,+3.3V*%
X104725000Y-104000000D03*
%TO.P,C23,2*%
%TO.N,GND*%
X106275000Y-104000000D03*
%TD*%
D28*
%TO.P,U2,1,VBAT*%
%TO.N,+BATT*%
X97250000Y-95837500D03*
%TO.P,U2,2,PC13*%
%TO.N,/PC13*%
X97750000Y-95837500D03*
%TO.P,U2,3,PC14*%
%TO.N,/OSC32+*%
X98250000Y-95837500D03*
%TO.P,U2,4,PC15*%
%TO.N,/OSC32-*%
X98750000Y-95837500D03*
%TO.P,U2,5,PD0*%
%TO.N,/OSC+*%
X99250000Y-95837500D03*
%TO.P,U2,6,PD1*%
%TO.N,/OSC-*%
X99750000Y-95837500D03*
%TO.P,U2,7,NRST*%
%TO.N,/NRST*%
X100250000Y-95837500D03*
%TO.P,U2,8,VSSA*%
%TO.N,GND*%
X100750000Y-95837500D03*
%TO.P,U2,9,VDDA*%
%TO.N,+3.3V*%
X101250000Y-95837500D03*
%TO.P,U2,10,PA0*%
%TO.N,/PA0*%
X101750000Y-95837500D03*
%TO.P,U2,11,PA1*%
%TO.N,/PA1*%
X102250000Y-95837500D03*
%TO.P,U2,12,PA2*%
%TO.N,/PA2*%
X102750000Y-95837500D03*
D29*
%TO.P,U2,13,PA3*%
%TO.N,/PA3*%
X104162500Y-97250000D03*
%TO.P,U2,14,PA4*%
%TO.N,/PA4*%
X104162500Y-97750000D03*
%TO.P,U2,15,PA5*%
%TO.N,/PA5*%
X104162500Y-98250000D03*
%TO.P,U2,16,PA6*%
%TO.N,/PA6*%
X104162500Y-98750000D03*
%TO.P,U2,17,PA7*%
%TO.N,/PA7*%
X104162500Y-99250000D03*
%TO.P,U2,18,PB0*%
%TO.N,/PB0*%
X104162500Y-99750000D03*
%TO.P,U2,19,PB1*%
%TO.N,/PB1*%
X104162500Y-100250000D03*
%TO.P,U2,20,PB2*%
%TO.N,/PB2_BOOT1*%
X104162500Y-100750000D03*
%TO.P,U2,21,PB10*%
%TO.N,/PB10*%
X104162500Y-101250000D03*
%TO.P,U2,22,PB11*%
%TO.N,/PB11*%
X104162500Y-101750000D03*
%TO.P,U2,23,VSS*%
%TO.N,GND*%
X104162500Y-102250000D03*
%TO.P,U2,24,VDD*%
%TO.N,+3.3V*%
X104162500Y-102750000D03*
D28*
%TO.P,U2,25,PB12*%
%TO.N,/PB12*%
X102750000Y-104162500D03*
%TO.P,U2,26,PB13*%
%TO.N,/PB13*%
X102250000Y-104162500D03*
%TO.P,U2,27,PB14*%
%TO.N,/PB14*%
X101750000Y-104162500D03*
%TO.P,U2,28,PB15*%
%TO.N,/PB15*%
X101250000Y-104162500D03*
%TO.P,U2,29,PA8*%
%TO.N,/PA8*%
X100750000Y-104162500D03*
%TO.P,U2,30,PA9*%
%TO.N,/PA9_USART1_TX*%
X100250000Y-104162500D03*
%TO.P,U2,31,PA10*%
%TO.N,/PA10_USART1_RX*%
X99750000Y-104162500D03*
%TO.P,U2,32,PA11*%
%TO.N,/D-*%
X99250000Y-104162500D03*
%TO.P,U2,33,PA12*%
%TO.N,/D+*%
X98750000Y-104162500D03*
%TO.P,U2,34,PA13*%
%TO.N,/PA13_SWDIO*%
X98250000Y-104162500D03*
%TO.P,U2,35,VSS*%
%TO.N,GND*%
X97750000Y-104162500D03*
%TO.P,U2,36,VDD*%
%TO.N,+3.3V*%
X97250000Y-104162500D03*
D29*
%TO.P,U2,37,PA14*%
%TO.N,/PA14_SWCLK*%
X95837500Y-102750000D03*
%TO.P,U2,38,PA15*%
%TO.N,/PA15*%
X95837500Y-102250000D03*
%TO.P,U2,39,PB3*%
%TO.N,/PB3_SWO*%
X95837500Y-101750000D03*
%TO.P,U2,40,PB4*%
%TO.N,/PB4*%
X95837500Y-101250000D03*
%TO.P,U2,41,PB5*%
%TO.N,/PB5*%
X95837500Y-100750000D03*
%TO.P,U2,42,PB6*%
%TO.N,/PB6*%
X95837500Y-100250000D03*
%TO.P,U2,43,PB7*%
%TO.N,/PB7*%
X95837500Y-99750000D03*
%TO.P,U2,44,BOOT0*%
%TO.N,/BOOT0*%
X95837500Y-99250000D03*
%TO.P,U2,45,PB8*%
%TO.N,/PB8*%
X95837500Y-98750000D03*
%TO.P,U2,46,PB9*%
%TO.N,/PB9*%
X95837500Y-98250000D03*
%TO.P,U2,47,VSS*%
%TO.N,GND*%
X95837500Y-97750000D03*
%TO.P,U2,48,VDD*%
%TO.N,+3.3V*%
X95837500Y-97250000D03*
%TD*%
D23*
%TO.P,C14,1*%
%TO.N,/OSC-*%
X102000000Y-92775000D03*
%TO.P,C14,2*%
%TO.N,GND*%
X102000000Y-91225000D03*
%TD*%
%TO.P,C10,1*%
%TO.N,/OSC32-*%
X98000000Y-92775000D03*
%TO.P,C10,2*%
%TO.N,GND*%
X98000000Y-91225000D03*
%TD*%
D30*
%TO.P,C21,1*%
%TO.N,+3.3V*%
X93775000Y-97000000D03*
%TO.P,C21,2*%
%TO.N,GND*%
X92225000Y-97000000D03*
%TD*%
D31*
%TO.N,GND*%
X97856800Y-106220000D03*
X100143200Y-106330000D03*
%TO.N,/NRST*%
X100250000Y-97000000D03*
%TO.N,/VBUS*%
X98000000Y-117000000D03*
X98000000Y-116000000D03*
X99000000Y-116000000D03*
X99000000Y-117000000D03*
%TO.N,/D+*%
X96340000Y-110150000D03*
%TO.N,/PA13_SWDIO*%
X98250000Y-102500000D03*
%TO.N,/PA10_USART1_RX*%
X99250000Y-102500000D03*
%TO.N,/PA9_USART1_TX*%
X100250000Y-102500000D03*
%TO.N,/PA0*%
X101750000Y-97000000D03*
X106265000Y-92485000D03*
%TO.N,/PC13*%
X97750000Y-97000000D03*
%TO.N,/PA8*%
X101250000Y-102500000D03*
%TD*%
D32*
%TO.N,+5V*%
X96500000Y-121250000D02*
X97110000Y-120640000D01*
X85640000Y-118640000D02*
X88000000Y-121000000D01*
X92000000Y-121000000D02*
X88000000Y-121000000D01*
X95570000Y-121250000D02*
X96500000Y-121250000D01*
X95570000Y-121250000D02*
X92250000Y-121250000D01*
X92250000Y-121250000D02*
X92000000Y-121000000D01*
X88000000Y-119490000D02*
X88000000Y-121000000D01*
X83259590Y-118640000D02*
X85640000Y-118640000D01*
X104280000Y-118640000D02*
X113740410Y-118640000D01*
X95600000Y-118500000D02*
X88990000Y-118500000D01*
X102280000Y-120640000D02*
X104280000Y-118640000D01*
X97110000Y-120640000D02*
X102280000Y-120640000D01*
X88990000Y-118500000D02*
X88000000Y-119490000D01*
D33*
%TO.N,GND*%
X100750000Y-94900000D02*
X100750000Y-95837500D01*
D32*
X92000000Y-115000000D02*
X93178577Y-116178577D01*
X89000000Y-115000000D02*
X92000000Y-115000000D01*
X101080000Y-76520000D02*
X100600000Y-77000000D01*
D34*
X101670000Y-111850000D02*
X100143200Y-111850000D01*
D32*
X92150000Y-125850000D02*
X92000000Y-126000000D01*
X99680000Y-135000000D02*
X103765000Y-135000000D01*
X113740410Y-123720000D02*
X113740410Y-126260000D01*
X113480410Y-126000000D02*
X113740410Y-126260000D01*
D34*
X100143200Y-111850000D02*
X100143200Y-106330000D01*
D33*
X95837500Y-97750000D02*
X95832500Y-97755000D01*
D32*
X88000000Y-126000000D02*
X83519590Y-126000000D01*
X101080000Y-74000000D02*
X101080000Y-71460000D01*
X95570000Y-125850000D02*
X96180000Y-126460000D01*
D34*
X90000000Y-95000000D02*
X90225000Y-95000000D01*
X95150000Y-113030000D02*
X96330000Y-111850000D01*
D33*
X97750000Y-105000000D02*
X96475000Y-106275000D01*
X103060000Y-91225000D02*
X103060000Y-93060000D01*
D32*
X93178577Y-116178577D02*
X96301423Y-116178577D01*
X95570000Y-131455000D02*
X95315000Y-131710000D01*
D33*
X104904124Y-102250000D02*
X106275000Y-103620876D01*
X96475000Y-106275000D02*
X96000000Y-106275000D01*
D34*
X96330000Y-111850000D02*
X97800000Y-111850000D01*
X95150000Y-114970000D02*
X96330000Y-116150000D01*
D35*
X96000000Y-107000000D02*
X94000000Y-109000000D01*
D34*
X104000000Y-91225000D02*
X104775000Y-91225000D01*
D32*
X101080000Y-74000000D02*
X101080000Y-76520000D01*
D34*
X97856800Y-111843200D02*
X97856800Y-106220000D01*
X97800000Y-111850000D02*
X97800000Y-111843200D01*
D32*
X96180000Y-126460000D02*
X104540000Y-126460000D01*
D34*
X102850000Y-113030000D02*
X101670000Y-111850000D01*
D32*
X109000000Y-126000000D02*
X113480410Y-126000000D01*
D33*
X104162500Y-102250000D02*
X104904124Y-102250000D01*
X92980000Y-97755000D02*
X92225000Y-97000000D01*
D36*
X103060000Y-91225000D02*
X102000000Y-91225000D01*
D33*
X95832500Y-97755000D02*
X92980000Y-97755000D01*
D32*
X96390000Y-131710000D02*
X99680000Y-135000000D01*
X91000000Y-77000000D02*
X104280000Y-77000000D01*
X95570000Y-125850000D02*
X92150000Y-125850000D01*
D34*
X95150000Y-113375000D02*
X95150000Y-113030000D01*
D32*
X110265000Y-135000000D02*
X103765000Y-135000000D01*
D36*
X104000000Y-91225000D02*
X103060000Y-91225000D01*
D32*
X83519590Y-126000000D02*
X83259590Y-126260000D01*
D33*
X102030000Y-93620000D02*
X100750000Y-94900000D01*
D32*
X95550000Y-78450000D02*
X97000000Y-77000000D01*
D33*
X103060000Y-93060000D02*
X102500000Y-93620000D01*
D36*
X98000000Y-91225000D02*
X100000000Y-91225000D01*
D34*
X102850000Y-113375000D02*
X102850000Y-114970000D01*
D32*
X83259590Y-123720000D02*
X83259590Y-126260000D01*
D34*
X90225000Y-95000000D02*
X92225000Y-97000000D01*
D33*
X97750000Y-104162500D02*
X97750000Y-105000000D01*
D32*
X83259590Y-129949590D02*
X83310000Y-130000000D01*
X95570000Y-125850000D02*
X95570000Y-131455000D01*
D33*
X102500000Y-93620000D02*
X102030000Y-93620000D01*
D36*
X94000000Y-91225000D02*
X96000000Y-91225000D01*
D32*
X92550000Y-78550000D02*
X91000000Y-77000000D01*
D35*
X108275000Y-106000000D02*
X106275000Y-104000000D01*
D34*
X104775000Y-91225000D02*
X106000000Y-90000000D01*
D32*
X104540000Y-126460000D02*
X105000000Y-126000000D01*
X105000000Y-126000000D02*
X109000000Y-126000000D01*
X95315000Y-131710000D02*
X96390000Y-131710000D01*
D34*
X95150000Y-113375000D02*
X95150000Y-114970000D01*
D35*
X96000000Y-106275000D02*
X96000000Y-107000000D01*
X109000000Y-106000000D02*
X108275000Y-106000000D01*
D33*
X106275000Y-103620876D02*
X106275000Y-104000000D01*
D32*
X92550000Y-80000000D02*
X92550000Y-78550000D01*
D34*
X94000000Y-89000000D02*
X94000000Y-91225000D01*
X102850000Y-113375000D02*
X102850000Y-113030000D01*
D32*
X83259590Y-126260000D02*
X83259590Y-129949590D01*
X95550000Y-80000000D02*
X95550000Y-78450000D01*
D34*
X102850000Y-114970000D02*
X101670000Y-116150000D01*
D32*
X92000000Y-126000000D02*
X88000000Y-126000000D01*
%TO.N,+3.3V*%
X85280000Y-121180000D02*
X83259590Y-121180000D01*
X105000000Y-121000000D02*
X104420000Y-121000000D01*
X95570000Y-123550000D02*
X101870000Y-123550000D01*
D33*
X94025000Y-97250000D02*
X93775000Y-97000000D01*
D34*
X106000000Y-95000000D02*
X106000000Y-94775000D01*
D32*
X87650000Y-123550000D02*
X85280000Y-121180000D01*
D34*
X96000000Y-104725000D02*
X94725000Y-104725000D01*
D33*
X95837500Y-97250000D02*
X94025000Y-97250000D01*
D32*
X95570000Y-123550000D02*
X87650000Y-123550000D01*
X113560410Y-121000000D02*
X113740410Y-121180000D01*
D34*
X93775000Y-97000000D02*
X93775000Y-96225000D01*
D33*
X104162500Y-102750000D02*
X104162500Y-103437500D01*
X102725000Y-94050000D02*
X102260000Y-94050000D01*
D34*
X93775000Y-96225000D02*
X95000000Y-95000000D01*
D33*
X101250000Y-95060000D02*
X101250000Y-95837500D01*
D34*
X94725000Y-104725000D02*
X94000000Y-104000000D01*
D33*
X96562500Y-104162500D02*
X96000000Y-104725000D01*
X104000000Y-92775000D02*
X102725000Y-94050000D01*
D35*
X104725000Y-105275000D02*
X104000000Y-106000000D01*
X104725000Y-104000000D02*
X104725000Y-105275000D01*
D33*
X104162500Y-103437500D02*
X104725000Y-104000000D01*
X97250000Y-104162500D02*
X96562500Y-104162500D01*
D32*
X105000000Y-121000000D02*
X109000000Y-121000000D01*
X109000000Y-121000000D02*
X113560410Y-121000000D01*
X104420000Y-121000000D02*
X101870000Y-123550000D01*
D34*
X106000000Y-94775000D02*
X104000000Y-92775000D01*
D33*
X102260000Y-94050000D02*
X101250000Y-95060000D01*
D36*
%TO.N,/NRST*%
X114000000Y-131000000D02*
X110830000Y-131000000D01*
D33*
X95315000Y-134250000D02*
X93395000Y-136170000D01*
X82808801Y-136210000D02*
X80319590Y-133720789D01*
D36*
X100180000Y-130500000D02*
X99680000Y-130000000D01*
D33*
X93395000Y-136170000D02*
X86191199Y-136170000D01*
D36*
X103765000Y-130500000D02*
X100180000Y-130500000D01*
D33*
X80319590Y-83480000D02*
X83259590Y-80540000D01*
X86151199Y-136210000D02*
X82808801Y-136210000D01*
X86191199Y-136170000D02*
X86151199Y-136210000D01*
D36*
X103765000Y-130500000D02*
X110265000Y-130500000D01*
D33*
X80319590Y-133720789D02*
X80319590Y-83480000D01*
D37*
X100250000Y-95837500D02*
X100250000Y-97000000D01*
D36*
X110830000Y-131000000D02*
X110250000Y-130420000D01*
D38*
%TO.N,/OSC32+*%
X96000000Y-92775000D02*
X96000000Y-92800000D01*
X98274999Y-95064608D02*
X98274999Y-95812501D01*
X98323223Y-94507922D02*
X98323223Y-95016384D01*
X93835000Y-86743200D02*
X96775000Y-89683200D01*
X93835000Y-86510000D02*
X93835000Y-86743200D01*
X96775000Y-93575000D02*
X96775000Y-93850927D01*
X98323223Y-95016384D02*
X98274999Y-95064608D01*
D37*
X91000000Y-83400000D02*
X93100000Y-85500000D01*
D38*
X96775000Y-91975000D02*
X96000000Y-92750000D01*
X96775000Y-93850927D02*
X97257038Y-94332965D01*
D37*
X93100000Y-85500000D02*
X93835000Y-86235000D01*
D38*
X96000000Y-92800000D02*
X96775000Y-93575000D01*
X97257038Y-94332965D02*
X98148266Y-94332965D01*
X98274999Y-95812501D02*
X98250000Y-95837500D01*
X96775000Y-89683200D02*
X96775000Y-91975000D01*
D37*
X91000000Y-82000000D02*
X91000000Y-83400000D01*
D38*
X98148266Y-94332965D02*
X98323223Y-94507922D01*
D37*
X93835000Y-86235000D02*
X93835000Y-86510000D01*
D38*
X96000000Y-92750000D02*
X96000000Y-92775000D01*
%TO.N,/OSC32-*%
X98000000Y-92800000D02*
X97225000Y-93575000D01*
X97225000Y-91975000D02*
X98000000Y-92750000D01*
X97225000Y-89496800D02*
X97225000Y-91975000D01*
X98725001Y-95236812D02*
X98725001Y-95812501D01*
X98000000Y-92775000D02*
X98000000Y-92800000D01*
D37*
X97000000Y-82000000D02*
X97000000Y-83500000D01*
X94265000Y-86235000D02*
X94265000Y-86510000D01*
X97000000Y-83500000D02*
X95000000Y-85500000D01*
D38*
X97443438Y-93882965D02*
X98334666Y-93882965D01*
X98725001Y-95812501D02*
X98750000Y-95837500D01*
X94265000Y-86510000D02*
X94265000Y-86536800D01*
X98773223Y-94321522D02*
X98773223Y-95188590D01*
X98773223Y-95188590D02*
X98725001Y-95236812D01*
X97225000Y-93575000D02*
X97225000Y-93664527D01*
X97225000Y-93664527D02*
X97443438Y-93882965D01*
X98000000Y-92750000D02*
X98000000Y-92775000D01*
X94265000Y-86536800D02*
X97225000Y-89496800D01*
X98334666Y-93882965D02*
X98773223Y-94321522D01*
D37*
X95000000Y-85500000D02*
X94265000Y-86235000D01*
D38*
%TO.N,/OSC+*%
X100000000Y-92800000D02*
X100775000Y-93575000D01*
X100000000Y-92775000D02*
X100000000Y-92800000D01*
X99275000Y-95225000D02*
X99250000Y-95250000D01*
X100775000Y-93575000D02*
X100775000Y-93692311D01*
X100000000Y-86250000D02*
X100000000Y-82600000D01*
X100775000Y-93692311D02*
X100469062Y-93998249D01*
X99934467Y-93998249D02*
X99250000Y-94682716D01*
X100775000Y-89926800D02*
X102214999Y-88486801D01*
X100000000Y-92775000D02*
X100775000Y-92000000D01*
X102214999Y-88486801D02*
X102214999Y-88464999D01*
X100469062Y-93998249D02*
X99934467Y-93998249D01*
X102214999Y-88464999D02*
X100000000Y-86250000D01*
X100000000Y-82600000D02*
X100600000Y-82000000D01*
X100775000Y-92000000D02*
X100775000Y-89926800D01*
X99250000Y-94682716D02*
X99250000Y-95837500D01*
X99250000Y-95250000D02*
X99250000Y-95837500D01*
%TO.N,/OSC-*%
X101225000Y-90113200D02*
X102665001Y-88673199D01*
X100120867Y-94448249D02*
X99750000Y-94819116D01*
X102665001Y-88673199D02*
X102665001Y-88464999D01*
X100655462Y-94448249D02*
X100120867Y-94448249D01*
X104880000Y-82600000D02*
X104280000Y-82000000D01*
X101225000Y-93878711D02*
X100655462Y-94448249D01*
X101225000Y-92000000D02*
X101225000Y-90113200D01*
X102000000Y-92775000D02*
X101225000Y-92000000D01*
X99750000Y-94819116D02*
X99750000Y-95837500D01*
X99725000Y-95225000D02*
X99750000Y-95250000D01*
X102000000Y-92800000D02*
X101225000Y-93575000D01*
X102665001Y-88464999D02*
X104880000Y-86250000D01*
X102000000Y-92775000D02*
X102000000Y-92800000D01*
X104880000Y-86250000D02*
X104880000Y-82600000D01*
X99750000Y-95250000D02*
X99750000Y-95837500D01*
X101225000Y-93575000D02*
X101225000Y-93878711D01*
D34*
%TO.N,+BATT*%
X92775000Y-92775000D02*
X89000000Y-89000000D01*
D33*
X97250000Y-95410000D02*
X94615000Y-92775000D01*
D34*
X94000000Y-92775000D02*
X92775000Y-92775000D01*
D33*
X94615000Y-92775000D02*
X94000000Y-92775000D01*
X97250000Y-95837500D02*
X97250000Y-95410000D01*
D32*
%TO.N,/VBUS*%
X98400000Y-118500000D02*
X98400000Y-117600000D01*
D33*
X99000000Y-117000000D02*
X99000000Y-115398200D01*
X98980000Y-115378200D02*
X100858466Y-115378200D01*
X99000000Y-115398200D02*
X98980000Y-115378200D01*
X100858466Y-115378200D02*
X101611666Y-114625000D01*
D36*
X96250000Y-113375000D02*
X96250000Y-114625000D01*
D33*
X96388334Y-114625000D02*
X97141534Y-115378200D01*
X101611666Y-114625000D02*
X101750000Y-114625000D01*
D36*
X101750000Y-113375000D02*
X101750000Y-114625000D01*
D32*
X98400000Y-117600000D02*
X99000000Y-117000000D01*
D33*
X96250000Y-114625000D02*
X96388334Y-114625000D01*
X97141534Y-115378200D02*
X98980000Y-115378200D01*
D37*
%TO.N,/D-*%
X99250000Y-105599200D02*
X99320800Y-105670000D01*
D39*
X99550000Y-113375000D02*
X99320800Y-113145800D01*
X99320800Y-113145800D02*
X99320800Y-105670000D01*
D37*
X99250000Y-104162500D02*
X99250000Y-105599200D01*
D39*
%TO.N,/D+*%
X98679200Y-113145800D02*
X98679200Y-105670000D01*
D37*
X92650000Y-110150000D02*
X96340000Y-110150000D01*
D39*
X99550000Y-114538050D02*
X99550000Y-114625000D01*
D37*
X98750000Y-105599200D02*
X98679200Y-105670000D01*
D39*
X98450000Y-113375000D02*
X98679200Y-113145800D01*
X98450000Y-113375000D02*
X98450000Y-113438050D01*
D37*
X98750000Y-104162500D02*
X98750000Y-105599200D01*
D39*
X98450000Y-113438050D02*
X99550000Y-114538050D01*
D37*
X90500000Y-108000000D02*
X92650000Y-110150000D01*
D40*
%TO.N,/PB3_SWO*%
X95837500Y-101750000D02*
X84149590Y-101750000D01*
D33*
X92775000Y-134250000D02*
X91515000Y-135510000D01*
X84455000Y-133530000D02*
X83544881Y-133530000D01*
X83544881Y-133530000D02*
X80879590Y-130864709D01*
X86435000Y-135510000D02*
X84455000Y-133530000D01*
X91515000Y-135510000D02*
X86435000Y-135510000D01*
X80879590Y-130864709D02*
X80879590Y-103240000D01*
X80879590Y-103240000D02*
X83259590Y-100860000D01*
D40*
X84149590Y-101750000D02*
X83259590Y-100860000D01*
D33*
%TO.N,/PA13_SWDIO*%
X81999590Y-109740000D02*
X83259590Y-108480000D01*
X81999590Y-130400789D02*
X81999590Y-109740000D01*
D37*
X98250000Y-102500000D02*
X98250000Y-104162500D01*
D33*
X83308801Y-131710000D02*
X81999590Y-130400789D01*
X87695000Y-131710000D02*
X83308801Y-131710000D01*
D37*
%TO.N,/PA10_USART1_RX*%
X99750000Y-103000000D02*
X99750000Y-104162500D01*
X99250000Y-102500000D02*
X99750000Y-103000000D01*
%TO.N,/PA9_USART1_TX*%
X100250000Y-102500000D02*
X100250000Y-104162500D01*
D33*
%TO.N,/PA14_SWCLK*%
X81439590Y-107760000D02*
X83259590Y-105940000D01*
X83776841Y-132970000D02*
X81439590Y-130632749D01*
X90235000Y-131710000D02*
X88975000Y-132970000D01*
D40*
X86449590Y-102750000D02*
X83259590Y-105940000D01*
D33*
X88975000Y-132970000D02*
X83776841Y-132970000D01*
D40*
X95837500Y-102750000D02*
X86449590Y-102750000D01*
D33*
X81439590Y-130632749D02*
X81439590Y-107760000D01*
D37*
%TO.N,Net-(J3-Pin_4)*%
X103050000Y-70050000D02*
X105000000Y-72000000D01*
X98540000Y-71460000D02*
X99950000Y-70050000D01*
X99950000Y-70050000D02*
X103050000Y-70050000D01*
D40*
%TO.N,Net-(J3-Pin_3)*%
X97230000Y-72690000D02*
X98540000Y-74000000D01*
X92690000Y-72690000D02*
X97230000Y-72690000D01*
X92000000Y-72000000D02*
X92690000Y-72690000D01*
%TO.N,/PA7*%
X110270410Y-99250000D02*
X113740410Y-95780000D01*
X104162500Y-99250000D02*
X110270410Y-99250000D01*
%TO.N,/PB11*%
X104162500Y-101750000D02*
X104187500Y-101775000D01*
X104187500Y-101775000D02*
X109575410Y-101775000D01*
X109575410Y-101775000D02*
X113740410Y-105940000D01*
D37*
%TO.N,/PA0*%
X101750000Y-95837500D02*
X101750000Y-97000000D01*
X110005000Y-81735410D02*
X113740410Y-78000000D01*
X106265000Y-92485000D02*
X110005000Y-88745000D01*
X110005000Y-88745000D02*
X110005000Y-81735410D01*
D40*
%TO.N,/PA1*%
X113408709Y-84290000D02*
X114490000Y-84290000D01*
X103592236Y-96515000D02*
X109495000Y-96515000D01*
X115060000Y-83720000D02*
X115060000Y-81859590D01*
X110810000Y-95200000D02*
X110810000Y-86888709D01*
X115060000Y-81859590D02*
X113740410Y-80540000D01*
X110810000Y-86888709D02*
X113408709Y-84290000D01*
X114490000Y-84290000D02*
X115060000Y-83720000D01*
X103077236Y-97030000D02*
X103592236Y-96515000D01*
X109495000Y-96515000D02*
X110810000Y-95200000D01*
X102250000Y-95837500D02*
X102250000Y-96642764D01*
X102637236Y-97030000D02*
X103077236Y-97030000D01*
X102250000Y-96642764D02*
X102637236Y-97030000D01*
%TO.N,/PA2*%
X102750000Y-95837500D02*
X103234096Y-96321596D01*
X103430692Y-96125000D02*
X109333456Y-96125000D01*
X103234096Y-96321596D02*
X103430692Y-96125000D01*
X110420000Y-86400410D02*
X113740410Y-83080000D01*
X110420000Y-95038456D02*
X110420000Y-86400410D01*
X109333456Y-96125000D02*
X110420000Y-95038456D01*
D37*
%TO.N,/PC13*%
X97750000Y-95837500D02*
X97750000Y-97000000D01*
D40*
%TO.N,/PB1*%
X104162500Y-100250000D02*
X113130410Y-100250000D01*
X113130410Y-100250000D02*
X113740410Y-100860000D01*
%TO.N,/PA3*%
X110064234Y-97250000D02*
X111200000Y-96114234D01*
X111200000Y-96114234D02*
X111200000Y-88160410D01*
X104162500Y-97250000D02*
X110064234Y-97250000D01*
X111200000Y-88160410D02*
X113740410Y-85620000D01*
%TO.N,/PB10*%
X111590410Y-101250000D02*
X113740410Y-103400000D01*
X104162500Y-101250000D02*
X111590410Y-101250000D01*
%TO.N,/PA6*%
X112370000Y-96598866D02*
X112370000Y-94610410D01*
X112370000Y-94610410D02*
X113740410Y-93240000D01*
X104162500Y-98750000D02*
X110218866Y-98750000D01*
X110218866Y-98750000D02*
X112370000Y-96598866D01*
%TO.N,/PA4*%
X104162500Y-97750000D02*
X110115778Y-97750000D01*
X111590000Y-90310410D02*
X113740410Y-88160000D01*
X111590000Y-96275778D02*
X111590000Y-90310410D01*
X110115778Y-97750000D02*
X111590000Y-96275778D01*
%TO.N,/PB0*%
X112310410Y-99750000D02*
X113740410Y-98320000D01*
X104162500Y-99750000D02*
X112310410Y-99750000D01*
%TO.N,/PA5*%
X110167322Y-98250000D02*
X111980000Y-96437322D01*
X111980000Y-92460410D02*
X113740410Y-90700000D01*
X104162500Y-98250000D02*
X110167322Y-98250000D01*
X111980000Y-96437322D02*
X111980000Y-92460410D01*
%TO.N,/PB12*%
X103770000Y-107720000D02*
X112980410Y-107720000D01*
X102750000Y-106700000D02*
X103770000Y-107720000D01*
X112980410Y-107720000D02*
X113740410Y-108480000D01*
X102750000Y-104162500D02*
X102750000Y-106700000D01*
%TO.N,/PB8*%
X95837500Y-98750000D02*
X88510708Y-98750000D01*
X86440000Y-91340410D02*
X83259590Y-88160000D01*
X86440000Y-96679292D02*
X86440000Y-91340410D01*
X88510708Y-98750000D02*
X86440000Y-96679292D01*
D37*
%TO.N,/PA8*%
X101250000Y-102500000D02*
X100750000Y-103000000D01*
X100750000Y-103000000D02*
X100750000Y-104162500D01*
D40*
%TO.N,/PB9*%
X86830000Y-89190410D02*
X83259590Y-85620000D01*
X88562252Y-98250000D02*
X86830000Y-96517748D01*
X95837500Y-98250000D02*
X88562252Y-98250000D01*
X86830000Y-96517748D02*
X86830000Y-89190410D01*
%TO.N,/PB7*%
X85610000Y-97023088D02*
X85610000Y-93050410D01*
X95837500Y-99750000D02*
X88336912Y-99750000D01*
X85610000Y-93050410D02*
X83259590Y-90700000D01*
X88336912Y-99750000D02*
X85610000Y-97023088D01*
%TO.N,/PB14*%
X110440000Y-108500000D02*
X112020000Y-110080000D01*
X112020000Y-110080000D02*
X112020000Y-111839590D01*
X101750000Y-106803088D02*
X103446912Y-108500000D01*
X112020000Y-111839590D02*
X113740410Y-113560000D01*
X101750000Y-104162500D02*
X101750000Y-106803088D01*
X103446912Y-108500000D02*
X110440000Y-108500000D01*
%TO.N,/PB4*%
X86189590Y-101250000D02*
X83259590Y-98320000D01*
X95837500Y-101250000D02*
X86189590Y-101250000D01*
%TO.N,/PB15*%
X111630000Y-110500000D02*
X111630000Y-113989590D01*
X110020000Y-108890000D02*
X111630000Y-110500000D01*
X101250000Y-104162500D02*
X101250000Y-106854632D01*
X103285368Y-108890000D02*
X110020000Y-108890000D01*
X111630000Y-113989590D02*
X113740410Y-116100000D01*
X101250000Y-106854632D02*
X103285368Y-108890000D01*
%TO.N,/PB13*%
X102250000Y-106751544D02*
X103608456Y-108110000D01*
X110830410Y-108110000D02*
X113740410Y-111020000D01*
X102250000Y-104162500D02*
X102250000Y-106751544D01*
X103608456Y-108110000D02*
X110830410Y-108110000D01*
%TO.N,/PB6*%
X95812500Y-100225000D02*
X88260368Y-100225000D01*
X88260368Y-100225000D02*
X85220000Y-97184632D01*
X95837500Y-100250000D02*
X95812500Y-100225000D01*
X85220000Y-97184632D02*
X85220000Y-95200410D01*
X85220000Y-95200410D02*
X83259590Y-93240000D01*
%TO.N,/PB5*%
X83263824Y-95780000D02*
X83259590Y-95780000D01*
X88233824Y-100750000D02*
X83263824Y-95780000D01*
X95837500Y-100750000D02*
X88233824Y-100750000D01*
%TO.N,/PA15*%
X84409590Y-102250000D02*
X83259590Y-103400000D01*
X95837500Y-102250000D02*
X84409590Y-102250000D01*
D34*
%TO.N,Net-(LED1-K)*%
X111000000Y-74000000D02*
X113000000Y-72000000D01*
X109000000Y-74000000D02*
X111000000Y-74000000D01*
%TO.N,Net-(LED2-A)*%
X84000000Y-72000000D02*
X87460000Y-72000000D01*
X87460000Y-72000000D02*
X88000000Y-71460000D01*
D37*
%TO.N,/BOOT0*%
X81570000Y-88650000D02*
X81570000Y-85220000D01*
X83922692Y-89410000D02*
X82330000Y-89410000D01*
X81570000Y-85220000D02*
X82440000Y-84350000D01*
X82330000Y-89410000D02*
X81570000Y-88650000D01*
X86025000Y-96851190D02*
X86025000Y-91512308D01*
X88423810Y-99250000D02*
X86025000Y-96851190D01*
X82440000Y-84350000D02*
X85920000Y-84350000D01*
X86025000Y-91512308D02*
X83922692Y-89410000D01*
X85920000Y-84350000D02*
X88670000Y-81600000D01*
X88670000Y-81600000D02*
X88670000Y-77280000D01*
X95837500Y-99250000D02*
X88423810Y-99250000D01*
X91410000Y-74540000D02*
X92000000Y-74540000D01*
X88670000Y-77280000D02*
X91410000Y-74540000D01*
%TO.N,/PB2_BOOT1*%
X114400000Y-102160000D02*
X115670000Y-100890000D01*
X106410000Y-75950000D02*
X105000000Y-74540000D01*
X104162500Y-100750000D02*
X111933353Y-100750000D01*
X115670000Y-77300000D02*
X114320000Y-75950000D01*
X115670000Y-100890000D02*
X115670000Y-77300000D01*
X114320000Y-75950000D02*
X106410000Y-75950000D01*
X111933353Y-100750000D02*
X113343353Y-102160000D01*
X113343353Y-102160000D02*
X114400000Y-102160000D01*
%TD*%
%TA.AperFunction,Conductor*%
%TO.N,GND*%
G36*
X100543319Y-105283383D02*
G01*
X100572886Y-105294412D01*
X100629515Y-105300500D01*
X100660498Y-105300499D01*
X100727536Y-105320182D01*
X100773293Y-105372984D01*
X100784500Y-105424499D01*
X100784500Y-106793348D01*
X100784500Y-106915916D01*
X100816223Y-107034309D01*
X100877507Y-107140456D01*
X102999544Y-109262493D01*
X103105691Y-109323777D01*
X103224084Y-109355500D01*
X103346652Y-109355500D01*
X109775821Y-109355500D01*
X109842860Y-109375185D01*
X109863502Y-109391819D01*
X111128181Y-110656498D01*
X111161666Y-110717821D01*
X111164500Y-110744179D01*
X111164500Y-113928306D01*
X111164500Y-114050874D01*
X111166564Y-114058575D01*
X111196223Y-114169266D01*
X111196224Y-114169269D01*
X111206830Y-114187639D01*
X111257507Y-114275414D01*
X111257509Y-114275416D01*
X112529638Y-115547545D01*
X112563123Y-115608868D01*
X112561732Y-115667319D01*
X112504203Y-115882020D01*
X112504203Y-115882024D01*
X112485133Y-116099997D01*
X112485133Y-116100002D01*
X112504203Y-116317975D01*
X112504203Y-116317979D01*
X112560832Y-116529322D01*
X112560834Y-116529326D01*
X112560835Y-116529330D01*
X112599461Y-116612163D01*
X112653307Y-116727638D01*
X112653308Y-116727639D01*
X112778812Y-116906877D01*
X112933533Y-117061598D01*
X113112771Y-117187102D01*
X113199192Y-117227401D01*
X113254343Y-117253118D01*
X113306782Y-117299290D01*
X113325934Y-117366484D01*
X113305718Y-117433365D01*
X113252553Y-117478700D01*
X113201938Y-117489500D01*
X104375681Y-117489500D01*
X104375657Y-117489499D01*
X104370546Y-117489499D01*
X104189453Y-117489499D01*
X104105780Y-117502752D01*
X104022106Y-117516005D01*
X104010589Y-117517829D01*
X103838363Y-117573787D01*
X103838360Y-117573788D01*
X103677002Y-117656006D01*
X103530505Y-117762441D01*
X103530500Y-117762445D01*
X103402444Y-117890502D01*
X101839766Y-119453181D01*
X101778443Y-119486666D01*
X101752085Y-119489500D01*
X99511652Y-119489500D01*
X99444613Y-119469815D01*
X99398858Y-119417011D01*
X99388914Y-119347853D01*
X99392576Y-119330905D01*
X99422597Y-119227573D01*
X99422598Y-119227567D01*
X99425499Y-119190701D01*
X99425500Y-119190694D01*
X99425500Y-119051308D01*
X99439016Y-118995012D01*
X99466209Y-118941643D01*
X99466212Y-118941636D01*
X99493394Y-118857977D01*
X99522171Y-118769409D01*
X99542667Y-118640002D01*
X99550500Y-118590551D01*
X99550500Y-118127915D01*
X99570185Y-118060876D01*
X99586819Y-118040234D01*
X99675234Y-117951819D01*
X99736557Y-117918334D01*
X99762915Y-117915500D01*
X100875991Y-117915500D01*
X100876000Y-117915500D01*
X100962199Y-117906232D01*
X101013710Y-117895026D01*
X101085360Y-117872310D01*
X101193057Y-117805250D01*
X101245861Y-117759495D01*
X101315042Y-117681923D01*
X101369389Y-117567285D01*
X101389074Y-117500246D01*
X101405500Y-117386000D01*
X101405500Y-117138935D01*
X101405500Y-117138927D01*
X101396988Y-117056292D01*
X101396987Y-117056281D01*
X101386683Y-117006791D01*
X101365969Y-116938288D01*
X101304344Y-116835264D01*
X101300841Y-116829407D01*
X101300838Y-116829404D01*
X101278247Y-116802373D01*
X101256038Y-116775799D01*
X101170174Y-116698671D01*
X101050855Y-116618945D01*
X101032069Y-116603527D01*
X100966469Y-116537927D01*
X100951048Y-116519137D01*
X100899500Y-116441990D01*
X100888041Y-116420551D01*
X100852537Y-116334836D01*
X100845481Y-116311575D01*
X100845480Y-116311572D01*
X100827383Y-116220589D01*
X100825000Y-116196398D01*
X100825000Y-116103601D01*
X100827382Y-116079414D01*
X100838176Y-116025148D01*
X100870559Y-115963242D01*
X100927699Y-115929568D01*
X100930938Y-115928700D01*
X100930940Y-115928700D01*
X100930941Y-115928700D01*
X101070951Y-115891184D01*
X101086818Y-115882023D01*
X101196481Y-115818710D01*
X101559148Y-115456040D01*
X101620467Y-115422558D01*
X101660709Y-115420504D01*
X101720231Y-115427210D01*
X101749999Y-115430565D01*
X101750000Y-115430565D01*
X101750003Y-115430565D01*
X101929249Y-115410369D01*
X101929252Y-115410368D01*
X101929255Y-115410368D01*
X102099522Y-115350789D01*
X102252262Y-115254816D01*
X102379816Y-115127262D01*
X102475789Y-114974522D01*
X102535368Y-114804255D01*
X102555565Y-114625000D01*
X102535368Y-114445745D01*
X102535367Y-114445743D01*
X102535366Y-114445737D01*
X102475790Y-114275481D01*
X102475789Y-114275478D01*
X102454008Y-114240814D01*
X102419506Y-114185903D01*
X102400500Y-114119931D01*
X102400500Y-113880067D01*
X102419507Y-113814094D01*
X102475788Y-113724524D01*
X102533357Y-113560002D01*
X102535368Y-113554255D01*
X102537059Y-113539247D01*
X102555565Y-113375003D01*
X102555565Y-113374996D01*
X102535369Y-113195750D01*
X102535368Y-113195745D01*
X102512597Y-113130670D01*
X102475789Y-113025478D01*
X102379816Y-112872738D01*
X102252262Y-112745184D01*
X102234027Y-112733726D01*
X102099523Y-112649211D01*
X101929254Y-112589631D01*
X101929249Y-112589630D01*
X101750004Y-112569435D01*
X101749996Y-112569435D01*
X101570750Y-112589630D01*
X101570745Y-112589631D01*
X101400476Y-112649211D01*
X101283891Y-112722467D01*
X101265974Y-112733726D01*
X101265972Y-112733727D01*
X101198736Y-112752727D01*
X101134028Y-112733727D01*
X101134026Y-112733726D01*
X101098525Y-112711419D01*
X100999523Y-112649211D01*
X100829254Y-112589631D01*
X100829249Y-112589630D01*
X100650004Y-112569435D01*
X100649996Y-112569435D01*
X100470750Y-112589630D01*
X100470745Y-112589631D01*
X100300476Y-112649211D01*
X100183891Y-112722467D01*
X100165974Y-112733726D01*
X100165972Y-112733727D01*
X100098736Y-112752727D01*
X100034027Y-112733726D01*
X99998526Y-112711419D01*
X99952236Y-112659083D01*
X99940500Y-112606426D01*
X99940500Y-105608962D01*
X99916686Y-105489245D01*
X99916685Y-105489244D01*
X99916685Y-105489240D01*
X99901711Y-105453091D01*
X99894243Y-105383624D01*
X99925518Y-105321145D01*
X99985606Y-105285492D01*
X100055432Y-105287985D01*
X100059610Y-105289460D01*
X100072880Y-105294410D01*
X100072881Y-105294410D01*
X100072886Y-105294412D01*
X100129515Y-105300500D01*
X100370484Y-105300499D01*
X100427114Y-105294412D01*
X100456664Y-105283389D01*
X100526353Y-105278403D01*
X100543319Y-105283383D01*
G37*
%TD.AperFunction*%
%TA.AperFunction,Conductor*%
G36*
X92916311Y-103235185D02*
G01*
X92962066Y-103287989D01*
X92972010Y-103357147D01*
X92960272Y-103394772D01*
X92875775Y-103564461D01*
X92875769Y-103564476D01*
X92814885Y-103778462D01*
X92814884Y-103778464D01*
X92794357Y-103999999D01*
X92794357Y-104000000D01*
X92814884Y-104221535D01*
X92814885Y-104221537D01*
X92875769Y-104435523D01*
X92875775Y-104435538D01*
X92974938Y-104634683D01*
X92974943Y-104634691D01*
X93109020Y-104812238D01*
X93273437Y-104962123D01*
X93273439Y-104962125D01*
X93462595Y-105079245D01*
X93462596Y-105079245D01*
X93462599Y-105079247D01*
X93670060Y-105159618D01*
X93888757Y-105200500D01*
X94017060Y-105200500D01*
X94084099Y-105220185D01*
X94104736Y-105236814D01*
X94162332Y-105294410D01*
X94214712Y-105346790D01*
X94345814Y-105434390D01*
X94345827Y-105434397D01*
X94478232Y-105489240D01*
X94491503Y-105494737D01*
X94646153Y-105525499D01*
X94646156Y-105525500D01*
X94646158Y-105525500D01*
X94803843Y-105525500D01*
X95471229Y-105525500D01*
X95505822Y-105530422D01*
X95651373Y-105572709D01*
X95686837Y-105575500D01*
X96313162Y-105575499D01*
X96348627Y-105572709D01*
X96500390Y-105528618D01*
X96636420Y-105448170D01*
X96748170Y-105336420D01*
X96775308Y-105290532D01*
X96826374Y-105242849D01*
X96895116Y-105230344D01*
X96941468Y-105244822D01*
X96944766Y-105246622D01*
X96944774Y-105246628D01*
X97072886Y-105294412D01*
X97129515Y-105300500D01*
X97370484Y-105300499D01*
X97427114Y-105294412D01*
X97555226Y-105246628D01*
X97664687Y-105164687D01*
X97664688Y-105164685D01*
X97671786Y-105159372D01*
X97673121Y-105161156D01*
X97723642Y-105133570D01*
X97793334Y-105138554D01*
X97827405Y-105160451D01*
X97828214Y-105159372D01*
X97835311Y-105164685D01*
X97835313Y-105164687D01*
X97883007Y-105200390D01*
X97931670Y-105236819D01*
X97944774Y-105246628D01*
X98031417Y-105278944D01*
X98087348Y-105320815D01*
X98111765Y-105386279D01*
X98102643Y-105442575D01*
X98083316Y-105489236D01*
X98083313Y-105489245D01*
X98059500Y-105608962D01*
X98059500Y-112606426D01*
X98039815Y-112673465D01*
X98001472Y-112711419D01*
X97965971Y-112733726D01*
X97898735Y-112752727D01*
X97834027Y-112733726D01*
X97798525Y-112711419D01*
X97699524Y-112649211D01*
X97529254Y-112589631D01*
X97529249Y-112589630D01*
X97350004Y-112569435D01*
X97349996Y-112569435D01*
X97170750Y-112589630D01*
X97170745Y-112589631D01*
X97000476Y-112649211D01*
X96883891Y-112722467D01*
X96865974Y-112733726D01*
X96865972Y-112733727D01*
X96798736Y-112752727D01*
X96734028Y-112733727D01*
X96734026Y-112733726D01*
X96698525Y-112711419D01*
X96599523Y-112649211D01*
X96429254Y-112589631D01*
X96429249Y-112589630D01*
X96250004Y-112569435D01*
X96249996Y-112569435D01*
X96070750Y-112589630D01*
X96070745Y-112589631D01*
X95900476Y-112649211D01*
X95747737Y-112745184D01*
X95620184Y-112872737D01*
X95524211Y-113025476D01*
X95464631Y-113195745D01*
X95464630Y-113195750D01*
X95444435Y-113374996D01*
X95444435Y-113375003D01*
X95464630Y-113554249D01*
X95464631Y-113554254D01*
X95524211Y-113724524D01*
X95580493Y-113814094D01*
X95599500Y-113880067D01*
X95599500Y-114119931D01*
X95580494Y-114185903D01*
X95524211Y-114275477D01*
X95524209Y-114275481D01*
X95464633Y-114445737D01*
X95464630Y-114445750D01*
X95444435Y-114624996D01*
X95444435Y-114625003D01*
X95464630Y-114804249D01*
X95464631Y-114804254D01*
X95524211Y-114974523D01*
X95548324Y-115012898D01*
X95620184Y-115127262D01*
X95747738Y-115254816D01*
X95900478Y-115350789D01*
X96070745Y-115410368D01*
X96070750Y-115410369D01*
X96249997Y-115430565D01*
X96250000Y-115430565D01*
X96250001Y-115430565D01*
X96270299Y-115428277D01*
X96339288Y-115420504D01*
X96408109Y-115432558D01*
X96440853Y-115456043D01*
X96803520Y-115818710D01*
X96913182Y-115882023D01*
X96929049Y-115891184D01*
X97069059Y-115928700D01*
X97069060Y-115928700D01*
X97069062Y-115928700D01*
X97072298Y-115929567D01*
X97131959Y-115965932D01*
X97161822Y-116025149D01*
X97172617Y-116079414D01*
X97175000Y-116103607D01*
X97175000Y-116196392D01*
X97172617Y-116220584D01*
X97154518Y-116311572D01*
X97147462Y-116334834D01*
X97111953Y-116420558D01*
X97100494Y-116441994D01*
X97048951Y-116519134D01*
X97033530Y-116537925D01*
X96967924Y-116603531D01*
X96949133Y-116618952D01*
X96888528Y-116659446D01*
X96856569Y-116683149D01*
X96856554Y-116683161D01*
X96837790Y-116698560D01*
X96837779Y-116698569D01*
X96808284Y-116725304D01*
X96793654Y-116739934D01*
X96778861Y-116752569D01*
X96699784Y-116810021D01*
X96683200Y-116820184D01*
X96653606Y-116835264D01*
X96565663Y-116895860D01*
X96565652Y-116895868D01*
X96517634Y-116939311D01*
X96454958Y-117011125D01*
X96400610Y-117125764D01*
X96382554Y-117187253D01*
X96344778Y-117246030D01*
X96281221Y-117275053D01*
X96228983Y-117271391D01*
X96077573Y-117227402D01*
X96077567Y-117227401D01*
X96040701Y-117224500D01*
X96040694Y-117224500D01*
X95159306Y-117224500D01*
X95159298Y-117224500D01*
X95122432Y-117227401D01*
X95122426Y-117227402D01*
X94964606Y-117273254D01*
X94964603Y-117273255D01*
X94864879Y-117332232D01*
X94801758Y-117349500D01*
X89085681Y-117349500D01*
X89085657Y-117349499D01*
X89080546Y-117349499D01*
X88899453Y-117349499D01*
X88839832Y-117358942D01*
X88720589Y-117377829D01*
X88548363Y-117433787D01*
X88548360Y-117433788D01*
X88387004Y-117516005D01*
X88240505Y-117622441D01*
X88240500Y-117622445D01*
X88112444Y-117750502D01*
X87332680Y-118530265D01*
X87271357Y-118563750D01*
X87201665Y-118558766D01*
X87157318Y-118530265D01*
X86521893Y-117894840D01*
X86521884Y-117894830D01*
X86460177Y-117833123D01*
X86389501Y-117762447D01*
X86389497Y-117762444D01*
X86389493Y-117762440D01*
X86242997Y-117656006D01*
X86242996Y-117656005D01*
X86242994Y-117656004D01*
X86177131Y-117622445D01*
X86081639Y-117573788D01*
X86081636Y-117573787D01*
X85909409Y-117517828D01*
X85897894Y-117516005D01*
X85897893Y-117516005D01*
X85730546Y-117489499D01*
X85549454Y-117489499D01*
X85544343Y-117489499D01*
X85544319Y-117489500D01*
X83798062Y-117489500D01*
X83731023Y-117469815D01*
X83685268Y-117417011D01*
X83675324Y-117347853D01*
X83704349Y-117284297D01*
X83745657Y-117253118D01*
X83800805Y-117227402D01*
X83887229Y-117187102D01*
X84066467Y-117061598D01*
X84221188Y-116906877D01*
X84346692Y-116727639D01*
X84439165Y-116529330D01*
X84495797Y-116317977D01*
X84512395Y-116128254D01*
X84514867Y-116100002D01*
X84514867Y-116099997D01*
X84508319Y-116025153D01*
X84495797Y-115882023D01*
X84439165Y-115670670D01*
X84346692Y-115472362D01*
X84346690Y-115472359D01*
X84346689Y-115472357D01*
X84221189Y-115293124D01*
X84182880Y-115254815D01*
X84066467Y-115138402D01*
X83887229Y-115012898D01*
X83736004Y-114942381D01*
X83683567Y-114896210D01*
X83664415Y-114829016D01*
X83684631Y-114762135D01*
X83736004Y-114717618D01*
X83887229Y-114647102D01*
X84066467Y-114521598D01*
X84221188Y-114366877D01*
X84346692Y-114187639D01*
X84439165Y-113989330D01*
X84495797Y-113777977D01*
X84514867Y-113560000D01*
X84514364Y-113554255D01*
X84511159Y-113517618D01*
X84495797Y-113342023D01*
X84439165Y-113130670D01*
X84346692Y-112932362D01*
X84346690Y-112932359D01*
X84346689Y-112932357D01*
X84221189Y-112753124D01*
X84149600Y-112681535D01*
X84066467Y-112598402D01*
X83887229Y-112472898D01*
X83859567Y-112459999D01*
X87794357Y-112459999D01*
X87794357Y-112460000D01*
X87814884Y-112681535D01*
X87814885Y-112681537D01*
X87875769Y-112895523D01*
X87875775Y-112895538D01*
X87974938Y-113094683D01*
X87974943Y-113094691D01*
X88109020Y-113272238D01*
X88273437Y-113422123D01*
X88273439Y-113422125D01*
X88462595Y-113539245D01*
X88462596Y-113539245D01*
X88462599Y-113539247D01*
X88670060Y-113619618D01*
X88888757Y-113660500D01*
X88888759Y-113660500D01*
X89111241Y-113660500D01*
X89111243Y-113660500D01*
X89329940Y-113619618D01*
X89537401Y-113539247D01*
X89726562Y-113422124D01*
X89890981Y-113272236D01*
X90025058Y-113094689D01*
X90124229Y-112895528D01*
X90185115Y-112681536D01*
X90205643Y-112460000D01*
X90205643Y-112459999D01*
X90794357Y-112459999D01*
X90794357Y-112460000D01*
X90814884Y-112681535D01*
X90814885Y-112681537D01*
X90875769Y-112895523D01*
X90875775Y-112895538D01*
X90974938Y-113094683D01*
X90974943Y-113094691D01*
X91109020Y-113272238D01*
X91273437Y-113422123D01*
X91273439Y-113422125D01*
X91462595Y-113539245D01*
X91462596Y-113539245D01*
X91462599Y-113539247D01*
X91670060Y-113619618D01*
X91888757Y-113660500D01*
X91888759Y-113660500D01*
X92111241Y-113660500D01*
X92111243Y-113660500D01*
X92329940Y-113619618D01*
X92537401Y-113539247D01*
X92726562Y-113422124D01*
X92890981Y-113272236D01*
X93025058Y-113094689D01*
X93124229Y-112895528D01*
X93185115Y-112681536D01*
X93205643Y-112460000D01*
X93185115Y-112238464D01*
X93124229Y-112024472D01*
X93124224Y-112024461D01*
X93025061Y-111825316D01*
X93025056Y-111825308D01*
X92890979Y-111647761D01*
X92726562Y-111497876D01*
X92726560Y-111497874D01*
X92537404Y-111380754D01*
X92537398Y-111380752D01*
X92329940Y-111300382D01*
X92111243Y-111259500D01*
X91888757Y-111259500D01*
X91670060Y-111300382D01*
X91538864Y-111351207D01*
X91462601Y-111380752D01*
X91462595Y-111380754D01*
X91273439Y-111497874D01*
X91273437Y-111497876D01*
X91109020Y-111647761D01*
X90974943Y-111825308D01*
X90974938Y-111825316D01*
X90875775Y-112024461D01*
X90875769Y-112024476D01*
X90814885Y-112238462D01*
X90814884Y-112238464D01*
X90794357Y-112459999D01*
X90205643Y-112459999D01*
X90185115Y-112238464D01*
X90124229Y-112024472D01*
X90124224Y-112024461D01*
X90025061Y-111825316D01*
X90025056Y-111825308D01*
X89890979Y-111647761D01*
X89726562Y-111497876D01*
X89726560Y-111497874D01*
X89537404Y-111380754D01*
X89537398Y-111380752D01*
X89329940Y-111300382D01*
X89111243Y-111259500D01*
X88888757Y-111259500D01*
X88670060Y-111300382D01*
X88538864Y-111351207D01*
X88462601Y-111380752D01*
X88462595Y-111380754D01*
X88273439Y-111497874D01*
X88273437Y-111497876D01*
X88109020Y-111647761D01*
X87974943Y-111825308D01*
X87974938Y-111825316D01*
X87875775Y-112024461D01*
X87875769Y-112024476D01*
X87814885Y-112238462D01*
X87814884Y-112238464D01*
X87794357Y-112459999D01*
X83859567Y-112459999D01*
X83736004Y-112402381D01*
X83683567Y-112356210D01*
X83664415Y-112289016D01*
X83684631Y-112222135D01*
X83736004Y-112177618D01*
X83887229Y-112107102D01*
X84066467Y-111981598D01*
X84221188Y-111826877D01*
X84346692Y-111647639D01*
X84439165Y-111449330D01*
X84495797Y-111237977D01*
X84514867Y-111020000D01*
X84495797Y-110802023D01*
X84452517Y-110640499D01*
X84439167Y-110590677D01*
X84439166Y-110590676D01*
X84439165Y-110590670D01*
X84346692Y-110392362D01*
X84346690Y-110392359D01*
X84346689Y-110392357D01*
X84221189Y-110213124D01*
X84158064Y-110149999D01*
X84066467Y-110058402D01*
X83887229Y-109932898D01*
X83736004Y-109862381D01*
X83683567Y-109816210D01*
X83664415Y-109749016D01*
X83684631Y-109682135D01*
X83736004Y-109637618D01*
X83887229Y-109567102D01*
X84066467Y-109441598D01*
X84221188Y-109286877D01*
X84346692Y-109107639D01*
X84439165Y-108909330D01*
X84495797Y-108697977D01*
X84512395Y-108508254D01*
X84514867Y-108480002D01*
X84514867Y-108479997D01*
X84507621Y-108397181D01*
X84495797Y-108262023D01*
X84439165Y-108050670D01*
X84346692Y-107852362D01*
X84346690Y-107852359D01*
X84346689Y-107852357D01*
X84221189Y-107673124D01*
X84221188Y-107673123D01*
X84066467Y-107518402D01*
X83887229Y-107392898D01*
X83736004Y-107322381D01*
X83683567Y-107276210D01*
X83664415Y-107209016D01*
X83684631Y-107142135D01*
X83736004Y-107097618D01*
X83887229Y-107027102D01*
X84066467Y-106901598D01*
X84221188Y-106746877D01*
X84346692Y-106567639D01*
X84439165Y-106369330D01*
X84495797Y-106157977D01*
X84514867Y-105940000D01*
X84495797Y-105722023D01*
X84446399Y-105537666D01*
X84438267Y-105507318D01*
X84439394Y-105459999D01*
X89294357Y-105459999D01*
X89294357Y-105460000D01*
X89314884Y-105681535D01*
X89314885Y-105681537D01*
X89375769Y-105895523D01*
X89375775Y-105895538D01*
X89474938Y-106094683D01*
X89474943Y-106094691D01*
X89609020Y-106272238D01*
X89773437Y-106422123D01*
X89773439Y-106422125D01*
X89962595Y-106539245D01*
X89962596Y-106539245D01*
X89962599Y-106539247D01*
X90156524Y-106614374D01*
X90211924Y-106656946D01*
X90235515Y-106722713D01*
X90219804Y-106790793D01*
X90169780Y-106839572D01*
X90156533Y-106845622D01*
X90012057Y-106901593D01*
X89962601Y-106920752D01*
X89962595Y-106920754D01*
X89773439Y-107037874D01*
X89773437Y-107037876D01*
X89609020Y-107187761D01*
X89474943Y-107365308D01*
X89474938Y-107365316D01*
X89375775Y-107564461D01*
X89375769Y-107564476D01*
X89314885Y-107778462D01*
X89314884Y-107778464D01*
X89294357Y-107999999D01*
X89294357Y-108000000D01*
X89314884Y-108221535D01*
X89314885Y-108221537D01*
X89375769Y-108435523D01*
X89375775Y-108435538D01*
X89474938Y-108634683D01*
X89474943Y-108634691D01*
X89609020Y-108812238D01*
X89773437Y-108962123D01*
X89773439Y-108962125D01*
X89962595Y-109079245D01*
X89962596Y-109079245D01*
X89962599Y-109079247D01*
X90170060Y-109159618D01*
X90388757Y-109200500D01*
X90388759Y-109200500D01*
X90611241Y-109200500D01*
X90611243Y-109200500D01*
X90829940Y-109159618D01*
X90852627Y-109150828D01*
X90922249Y-109144966D01*
X90983990Y-109177675D01*
X90985102Y-109178774D01*
X92348826Y-110542498D01*
X92460673Y-110607074D01*
X92585424Y-110640500D01*
X92714576Y-110640500D01*
X95865668Y-110640500D01*
X95932707Y-110660185D01*
X95947894Y-110671684D01*
X95967759Y-110689282D01*
X95967761Y-110689284D01*
X96107634Y-110762696D01*
X96261014Y-110800500D01*
X96261015Y-110800500D01*
X96418985Y-110800500D01*
X96572365Y-110762696D01*
X96712240Y-110689283D01*
X96830483Y-110584530D01*
X96920220Y-110454523D01*
X96976237Y-110306818D01*
X96995278Y-110150000D01*
X96976237Y-109993182D01*
X96920220Y-109845477D01*
X96830483Y-109715470D01*
X96712240Y-109610717D01*
X96712238Y-109610716D01*
X96712237Y-109610715D01*
X96572365Y-109537303D01*
X96418986Y-109499500D01*
X96418985Y-109499500D01*
X96261015Y-109499500D01*
X96261014Y-109499500D01*
X96107634Y-109537303D01*
X95967761Y-109610715D01*
X95967759Y-109610717D01*
X95947894Y-109628316D01*
X95884661Y-109658037D01*
X95865668Y-109659500D01*
X92904534Y-109659500D01*
X92837495Y-109639815D01*
X92816853Y-109623181D01*
X91676856Y-108483184D01*
X91643371Y-108421861D01*
X91645270Y-108361573D01*
X91685115Y-108221536D01*
X91705643Y-108000000D01*
X91685115Y-107778464D01*
X91624229Y-107564472D01*
X91624224Y-107564461D01*
X91525061Y-107365316D01*
X91525056Y-107365308D01*
X91390979Y-107187761D01*
X91226562Y-107037876D01*
X91226560Y-107037874D01*
X91037404Y-106920754D01*
X91037395Y-106920750D01*
X90943956Y-106884552D01*
X90843475Y-106845625D01*
X90788075Y-106803054D01*
X90764484Y-106737288D01*
X90780195Y-106669207D01*
X90830219Y-106620428D01*
X90843466Y-106614377D01*
X91037401Y-106539247D01*
X91226562Y-106422124D01*
X91366282Y-106294751D01*
X91390979Y-106272238D01*
X91429268Y-106221536D01*
X91525058Y-106094689D01*
X91624229Y-105895528D01*
X91685115Y-105681536D01*
X91705643Y-105460000D01*
X91704611Y-105448868D01*
X91685115Y-105238464D01*
X91685114Y-105238462D01*
X91682804Y-105230344D01*
X91624229Y-105024472D01*
X91624224Y-105024461D01*
X91525061Y-104825316D01*
X91525056Y-104825308D01*
X91390979Y-104647761D01*
X91226562Y-104497876D01*
X91226560Y-104497874D01*
X91037404Y-104380754D01*
X91037398Y-104380752D01*
X90829940Y-104300382D01*
X90611243Y-104259500D01*
X90388757Y-104259500D01*
X90170060Y-104300382D01*
X90038864Y-104351207D01*
X89962601Y-104380752D01*
X89962595Y-104380754D01*
X89773439Y-104497874D01*
X89773437Y-104497876D01*
X89609020Y-104647761D01*
X89474943Y-104825308D01*
X89474938Y-104825316D01*
X89375775Y-105024461D01*
X89375769Y-105024476D01*
X89314885Y-105238462D01*
X89314884Y-105238464D01*
X89294357Y-105459999D01*
X84439394Y-105459999D01*
X84439930Y-105437469D01*
X84470359Y-105387546D01*
X86606087Y-103251819D01*
X86667410Y-103218334D01*
X86693768Y-103215500D01*
X92849272Y-103215500D01*
X92916311Y-103235185D01*
G37*
%TD.AperFunction*%
%TA.AperFunction,Conductor*%
G36*
X109398270Y-102260185D02*
G01*
X109418912Y-102276819D01*
X112529638Y-105387545D01*
X112563123Y-105448868D01*
X112561732Y-105507319D01*
X112504203Y-105722020D01*
X112504203Y-105722024D01*
X112485133Y-105939997D01*
X112485133Y-105940002D01*
X112504203Y-106157975D01*
X112504203Y-106157979D01*
X112560832Y-106369322D01*
X112560834Y-106369326D01*
X112560835Y-106369330D01*
X112574040Y-106397648D01*
X112653307Y-106567638D01*
X112653308Y-106567639D01*
X112778812Y-106746877D01*
X112933533Y-106901598D01*
X113112771Y-107027102D01*
X113112772Y-107027102D01*
X113115375Y-107028925D01*
X113159000Y-107083503D01*
X113166192Y-107153001D01*
X113134670Y-107215356D01*
X113074440Y-107250769D01*
X113044251Y-107254500D01*
X104690173Y-107254500D01*
X104623134Y-107234815D01*
X104577379Y-107182011D01*
X104567435Y-107112853D01*
X104596460Y-107049297D01*
X104624896Y-107025073D01*
X104726560Y-106962125D01*
X104726559Y-106962125D01*
X104726562Y-106962124D01*
X104866282Y-106834751D01*
X104890979Y-106812238D01*
X104897915Y-106803054D01*
X105025058Y-106634689D01*
X105124229Y-106435528D01*
X105185115Y-106221536D01*
X105194582Y-106119366D01*
X105220368Y-106054430D01*
X105230363Y-106043135D01*
X105424464Y-105849036D01*
X105444490Y-105819063D01*
X105483740Y-105760324D01*
X105483740Y-105760323D01*
X105523013Y-105701547D01*
X105542895Y-105653547D01*
X105590895Y-105537666D01*
X105625500Y-105363692D01*
X105625500Y-105186308D01*
X105625500Y-103911309D01*
X105625500Y-103911306D01*
X105625499Y-103911304D01*
X105590895Y-103737336D01*
X105589597Y-103734202D01*
X105584309Y-103721435D01*
X105575252Y-103683709D01*
X105572709Y-103651373D01*
X105572169Y-103649516D01*
X105528619Y-103499614D01*
X105528618Y-103499610D01*
X105448170Y-103363580D01*
X105448168Y-103363578D01*
X105448165Y-103363574D01*
X105336425Y-103251834D01*
X105336422Y-103251832D01*
X105336420Y-103251830D01*
X105290531Y-103224691D01*
X105242849Y-103173622D01*
X105230346Y-103104881D01*
X105244821Y-103058534D01*
X105246620Y-103055235D01*
X105246628Y-103055226D01*
X105294412Y-102927114D01*
X105300167Y-102873587D01*
X105300499Y-102870500D01*
X105300499Y-102870493D01*
X105300500Y-102870485D01*
X105300499Y-102629516D01*
X105294412Y-102572886D01*
X105294411Y-102572884D01*
X105274685Y-102519996D01*
X105246628Y-102444774D01*
X105242163Y-102438810D01*
X105217747Y-102373347D01*
X105232598Y-102305074D01*
X105282003Y-102255668D01*
X105341431Y-102240500D01*
X109331231Y-102240500D01*
X109398270Y-102260185D01*
G37*
%TD.AperFunction*%
%TA.AperFunction,Conductor*%
G36*
X102862505Y-70560185D02*
G01*
X102883147Y-70576819D01*
X103823141Y-71516813D01*
X103856626Y-71578136D01*
X103854727Y-71638426D01*
X103814885Y-71778464D01*
X103794357Y-71999999D01*
X103794357Y-72000000D01*
X103814884Y-72221535D01*
X103814885Y-72221537D01*
X103875769Y-72435523D01*
X103875775Y-72435538D01*
X103974938Y-72634683D01*
X103974943Y-72634691D01*
X104109020Y-72812238D01*
X104273437Y-72962123D01*
X104273439Y-72962125D01*
X104462595Y-73079245D01*
X104462596Y-73079245D01*
X104462599Y-73079247D01*
X104656524Y-73154374D01*
X104711924Y-73196946D01*
X104735515Y-73262713D01*
X104719804Y-73330793D01*
X104669780Y-73379572D01*
X104656533Y-73385622D01*
X104508488Y-73442975D01*
X104462601Y-73460752D01*
X104462595Y-73460754D01*
X104273439Y-73577874D01*
X104273437Y-73577876D01*
X104109020Y-73727761D01*
X103974943Y-73905308D01*
X103974938Y-73905316D01*
X103875775Y-74104461D01*
X103875769Y-74104476D01*
X103814885Y-74318462D01*
X103814884Y-74318464D01*
X103794357Y-74539999D01*
X103794357Y-74540000D01*
X103814884Y-74761535D01*
X103814885Y-74761537D01*
X103875769Y-74975523D01*
X103875775Y-74975538D01*
X103974938Y-75174683D01*
X103974943Y-75174691D01*
X104109020Y-75352238D01*
X104273437Y-75502123D01*
X104273439Y-75502125D01*
X104462595Y-75619245D01*
X104462596Y-75619245D01*
X104462599Y-75619247D01*
X104670060Y-75699618D01*
X104888757Y-75740500D01*
X104888759Y-75740500D01*
X105111241Y-75740500D01*
X105111243Y-75740500D01*
X105329940Y-75699618D01*
X105352627Y-75690828D01*
X105422249Y-75684966D01*
X105483990Y-75717675D01*
X105485102Y-75718774D01*
X106108826Y-76342498D01*
X106220673Y-76407074D01*
X106345424Y-76440500D01*
X114065466Y-76440500D01*
X114132505Y-76460185D01*
X114153147Y-76476819D01*
X114214147Y-76537819D01*
X114247632Y-76599142D01*
X114242648Y-76668834D01*
X114200776Y-76724767D01*
X114135312Y-76749184D01*
X114126466Y-76749500D01*
X112858892Y-76749500D01*
X112777929Y-76762323D01*
X112765106Y-76764354D01*
X112652068Y-76821950D01*
X112652067Y-76821951D01*
X112652062Y-76821954D01*
X112562364Y-76911652D01*
X112562361Y-76911657D01*
X112504762Y-77024698D01*
X112489910Y-77118475D01*
X112489910Y-78505465D01*
X112470225Y-78572504D01*
X112453591Y-78593146D01*
X109703826Y-81342912D01*
X109612504Y-81434233D01*
X109612502Y-81434236D01*
X109547926Y-81546082D01*
X109514500Y-81670834D01*
X109514500Y-88490466D01*
X109494815Y-88557505D01*
X109478181Y-88578147D01*
X106257034Y-91799293D01*
X106195711Y-91832778D01*
X106187075Y-91834238D01*
X106032634Y-91872303D01*
X105892762Y-91945715D01*
X105774516Y-92050471D01*
X105684781Y-92180475D01*
X105684780Y-92180476D01*
X105628762Y-92328181D01*
X105609722Y-92484999D01*
X105609722Y-92485000D01*
X105628762Y-92641818D01*
X105662144Y-92729837D01*
X105684780Y-92789523D01*
X105774517Y-92919530D01*
X105892760Y-93024283D01*
X105892762Y-93024284D01*
X106032634Y-93097696D01*
X106186014Y-93135500D01*
X106186015Y-93135500D01*
X106343985Y-93135500D01*
X106497365Y-93097696D01*
X106563138Y-93063175D01*
X106637240Y-93024283D01*
X106755483Y-92919530D01*
X106845220Y-92789523D01*
X106901237Y-92641818D01*
X106909813Y-92571177D01*
X106937433Y-92507000D01*
X106945217Y-92498453D01*
X109742821Y-89700850D01*
X109804142Y-89667367D01*
X109873834Y-89672351D01*
X109929767Y-89714223D01*
X109954184Y-89779687D01*
X109954500Y-89788533D01*
X109954500Y-94794277D01*
X109934815Y-94861316D01*
X109918181Y-94881958D01*
X109176958Y-95623181D01*
X109115635Y-95656666D01*
X109089277Y-95659500D01*
X107212971Y-95659500D01*
X107145932Y-95639815D01*
X107100177Y-95587011D01*
X107090233Y-95517853D01*
X107101971Y-95480227D01*
X107106550Y-95471031D01*
X107124229Y-95435528D01*
X107185115Y-95221536D01*
X107205643Y-95000000D01*
X107187409Y-94803226D01*
X107185115Y-94778464D01*
X107185114Y-94778462D01*
X107177975Y-94753372D01*
X107124229Y-94564472D01*
X107124224Y-94564461D01*
X107025061Y-94365316D01*
X107025056Y-94365308D01*
X106890979Y-94187761D01*
X106726562Y-94037876D01*
X106726560Y-94037874D01*
X106537404Y-93920754D01*
X106537398Y-93920752D01*
X106329940Y-93840382D01*
X106329934Y-93840381D01*
X106329928Y-93840379D01*
X106204743Y-93816977D01*
X106142462Y-93785309D01*
X106139848Y-93782770D01*
X104910544Y-92553466D01*
X104877059Y-92492143D01*
X104874608Y-92475515D01*
X104872709Y-92451373D01*
X104828618Y-92299610D01*
X104748170Y-92163580D01*
X104748168Y-92163578D01*
X104748165Y-92163574D01*
X104636425Y-92051834D01*
X104636416Y-92051827D01*
X104500390Y-91971382D01*
X104500385Y-91971380D01*
X104348633Y-91927292D01*
X104348620Y-91927290D01*
X104313163Y-91924500D01*
X103686849Y-91924500D01*
X103686824Y-91924501D01*
X103651372Y-91927291D01*
X103499614Y-91971380D01*
X103499609Y-91971382D01*
X103363583Y-92051827D01*
X103363574Y-92051834D01*
X103251834Y-92163574D01*
X103251827Y-92163583D01*
X103171382Y-92299609D01*
X103171380Y-92299614D01*
X103127292Y-92451366D01*
X103127290Y-92451379D01*
X103124500Y-92486829D01*
X103124500Y-92820612D01*
X103104815Y-92887651D01*
X103088137Y-92908337D01*
X103087136Y-92909337D01*
X103025797Y-92942791D01*
X102956107Y-92937772D01*
X102900195Y-92895873D01*
X102875811Y-92830396D01*
X102875499Y-92821628D01*
X102875499Y-92486838D01*
X102872709Y-92451373D01*
X102828618Y-92299610D01*
X102748170Y-92163580D01*
X102748168Y-92163578D01*
X102748165Y-92163574D01*
X102636425Y-92051834D01*
X102636416Y-92051827D01*
X102500390Y-91971382D01*
X102500385Y-91971380D01*
X102348633Y-91927292D01*
X102348620Y-91927290D01*
X102313170Y-91924500D01*
X102313163Y-91924500D01*
X101908676Y-91924500D01*
X101841637Y-91904815D01*
X101820995Y-91888181D01*
X101761819Y-91829005D01*
X101728334Y-91767682D01*
X101725500Y-91741324D01*
X101725500Y-90371876D01*
X101745185Y-90304837D01*
X101761819Y-90284195D01*
X102411331Y-89634683D01*
X103065501Y-88980513D01*
X103131393Y-88866385D01*
X103165501Y-88739091D01*
X103165501Y-88723674D01*
X103185186Y-88656635D01*
X103201815Y-88635998D01*
X104444306Y-87393506D01*
X104505627Y-87360023D01*
X104557902Y-87361675D01*
X104558166Y-87360267D01*
X104563799Y-87361320D01*
X104563802Y-87361321D01*
X104773390Y-87400500D01*
X104773392Y-87400500D01*
X104986608Y-87400500D01*
X104986610Y-87400500D01*
X105196198Y-87361321D01*
X105395019Y-87284298D01*
X105576302Y-87172052D01*
X105733872Y-87028407D01*
X105862366Y-86858255D01*
X105879527Y-86823790D01*
X105957403Y-86667394D01*
X105957403Y-86667393D01*
X105957405Y-86667389D01*
X106015756Y-86462310D01*
X106035429Y-86250000D01*
X106015756Y-86037690D01*
X105957405Y-85832611D01*
X105957403Y-85832606D01*
X105957403Y-85832605D01*
X105862367Y-85641746D01*
X105733872Y-85471593D01*
X105715573Y-85454911D01*
X105576302Y-85327948D01*
X105477112Y-85266532D01*
X105439222Y-85243071D01*
X105392587Y-85191043D01*
X105380500Y-85137644D01*
X105380500Y-82534113D01*
X105380500Y-82534108D01*
X105380498Y-82534103D01*
X105380141Y-82531387D01*
X105380500Y-82529084D01*
X105380500Y-82525980D01*
X105380984Y-82525980D01*
X105390905Y-82462351D01*
X105392081Y-82459923D01*
X105395847Y-82452361D01*
X105404229Y-82435528D01*
X105465115Y-82221536D01*
X105485643Y-82000000D01*
X105476485Y-81901173D01*
X105465115Y-81778464D01*
X105465114Y-81778462D01*
X105464472Y-81776207D01*
X105404229Y-81564472D01*
X105389765Y-81535424D01*
X105305061Y-81365316D01*
X105305056Y-81365308D01*
X105170979Y-81187761D01*
X105006562Y-81037876D01*
X105006560Y-81037874D01*
X104817404Y-80920754D01*
X104817398Y-80920752D01*
X104609940Y-80840382D01*
X104391243Y-80799500D01*
X104168757Y-80799500D01*
X103950060Y-80840382D01*
X103853282Y-80877874D01*
X103742601Y-80920752D01*
X103742595Y-80920754D01*
X103553439Y-81037874D01*
X103553437Y-81037876D01*
X103389020Y-81187761D01*
X103254943Y-81365308D01*
X103254938Y-81365316D01*
X103155775Y-81564461D01*
X103155769Y-81564476D01*
X103094885Y-81778462D01*
X103094884Y-81778464D01*
X103074357Y-81999999D01*
X103074357Y-82000000D01*
X103094884Y-82221535D01*
X103094885Y-82221537D01*
X103155769Y-82435523D01*
X103155775Y-82435538D01*
X103254938Y-82634683D01*
X103254943Y-82634691D01*
X103389020Y-82812238D01*
X103553437Y-82962123D01*
X103553439Y-82962125D01*
X103742595Y-83079245D01*
X103742596Y-83079245D01*
X103742599Y-83079247D01*
X103950060Y-83159618D01*
X104168757Y-83200500D01*
X104255500Y-83200500D01*
X104322539Y-83220185D01*
X104368294Y-83272989D01*
X104379500Y-83324500D01*
X104379500Y-85137644D01*
X104359815Y-85204683D01*
X104320778Y-85243071D01*
X104183699Y-85327947D01*
X104026127Y-85471593D01*
X103897632Y-85641746D01*
X103802596Y-85832605D01*
X103802596Y-85832607D01*
X103744244Y-86037689D01*
X103724571Y-86249999D01*
X103724571Y-86250000D01*
X103744243Y-86462309D01*
X103748202Y-86476222D01*
X103772064Y-86560088D01*
X103772065Y-86560089D01*
X103771479Y-86629957D01*
X103740480Y-86681705D01*
X102527680Y-87894504D01*
X102466357Y-87927989D01*
X102396665Y-87923005D01*
X102352318Y-87894504D01*
X101139519Y-86681705D01*
X101106034Y-86620382D01*
X101107933Y-86560091D01*
X101135756Y-86462310D01*
X101155429Y-86250000D01*
X101135756Y-86037690D01*
X101077405Y-85832611D01*
X101077403Y-85832606D01*
X101077403Y-85832605D01*
X100982367Y-85641746D01*
X100853872Y-85471593D01*
X100835573Y-85454911D01*
X100696302Y-85327948D01*
X100597112Y-85266532D01*
X100559222Y-85243071D01*
X100512587Y-85191043D01*
X100500500Y-85137644D01*
X100500500Y-83324500D01*
X100520185Y-83257461D01*
X100572989Y-83211706D01*
X100624500Y-83200500D01*
X100711241Y-83200500D01*
X100711243Y-83200500D01*
X100929940Y-83159618D01*
X101137401Y-83079247D01*
X101326562Y-82962124D01*
X101490981Y-82812236D01*
X101625058Y-82634689D01*
X101724229Y-82435528D01*
X101785115Y-82221536D01*
X101805643Y-82000000D01*
X101796485Y-81901173D01*
X101785115Y-81778464D01*
X101785114Y-81778462D01*
X101784472Y-81776207D01*
X101724229Y-81564472D01*
X101709765Y-81535424D01*
X101625061Y-81365316D01*
X101625056Y-81365308D01*
X101490979Y-81187761D01*
X101326562Y-81037876D01*
X101326560Y-81037874D01*
X101137404Y-80920754D01*
X101137398Y-80920752D01*
X100929940Y-80840382D01*
X100711243Y-80799500D01*
X100488757Y-80799500D01*
X100270060Y-80840382D01*
X100173282Y-80877874D01*
X100062601Y-80920752D01*
X100062595Y-80920754D01*
X99873439Y-81037874D01*
X99873437Y-81037876D01*
X99709020Y-81187761D01*
X99574943Y-81365308D01*
X99574938Y-81365316D01*
X99475775Y-81564461D01*
X99475769Y-81564476D01*
X99414885Y-81778462D01*
X99414884Y-81778464D01*
X99394357Y-81999999D01*
X99394357Y-82000000D01*
X99414884Y-82221535D01*
X99414885Y-82221538D01*
X99475768Y-82435523D01*
X99475771Y-82435529D01*
X99487919Y-82459925D01*
X99500181Y-82528710D01*
X99499859Y-82531374D01*
X99499500Y-82534102D01*
X99499500Y-85137644D01*
X99479815Y-85204683D01*
X99440778Y-85243071D01*
X99303699Y-85327947D01*
X99146127Y-85471593D01*
X99017632Y-85641746D01*
X98922596Y-85832605D01*
X98922596Y-85832607D01*
X98865802Y-86032216D01*
X98864244Y-86037690D01*
X98844571Y-86250000D01*
X98864244Y-86462310D01*
X98911944Y-86629957D01*
X98922596Y-86667392D01*
X98922596Y-86667394D01*
X99017632Y-86858253D01*
X99146127Y-87028406D01*
X99146128Y-87028407D01*
X99303698Y-87172052D01*
X99484981Y-87284298D01*
X99683802Y-87361321D01*
X99893390Y-87400500D01*
X99893392Y-87400500D01*
X100106608Y-87400500D01*
X100106610Y-87400500D01*
X100316198Y-87361321D01*
X100316200Y-87361320D01*
X100321834Y-87360267D01*
X100322156Y-87361991D01*
X100383946Y-87362510D01*
X100435695Y-87393509D01*
X101430405Y-88388219D01*
X101463890Y-88449542D01*
X101458906Y-88519234D01*
X101430405Y-88563581D01*
X100374502Y-89619483D01*
X100374500Y-89619486D01*
X100308608Y-89733612D01*
X100274500Y-89860908D01*
X100274500Y-91741322D01*
X100254815Y-91808361D01*
X100238181Y-91829003D01*
X100179003Y-91888181D01*
X100117680Y-91921666D01*
X100091322Y-91924500D01*
X99686849Y-91924500D01*
X99686824Y-91924501D01*
X99651372Y-91927291D01*
X99499614Y-91971380D01*
X99499609Y-91971382D01*
X99363583Y-92051827D01*
X99363574Y-92051834D01*
X99251834Y-92163574D01*
X99251827Y-92163583D01*
X99171382Y-92299609D01*
X99171380Y-92299614D01*
X99127292Y-92451366D01*
X99127290Y-92451379D01*
X99124500Y-92486829D01*
X99124500Y-93063150D01*
X99124501Y-93063175D01*
X99127291Y-93098627D01*
X99171380Y-93250385D01*
X99171382Y-93250390D01*
X99251827Y-93386416D01*
X99251834Y-93386425D01*
X99363574Y-93498165D01*
X99363578Y-93498168D01*
X99363580Y-93498170D01*
X99454179Y-93551750D01*
X99501861Y-93602818D01*
X99514365Y-93671559D01*
X99487720Y-93736149D01*
X99478738Y-93746162D01*
X99279889Y-93945012D01*
X99218566Y-93978497D01*
X99148875Y-93973513D01*
X99104527Y-93945012D01*
X98734733Y-93575218D01*
X98701248Y-93513895D01*
X98706232Y-93444203D01*
X98734731Y-93399858D01*
X98748170Y-93386420D01*
X98828618Y-93250390D01*
X98872709Y-93098627D01*
X98875500Y-93063163D01*
X98875499Y-92486838D01*
X98872709Y-92451373D01*
X98828618Y-92299610D01*
X98748170Y-92163580D01*
X98748168Y-92163578D01*
X98748165Y-92163574D01*
X98636425Y-92051834D01*
X98636416Y-92051827D01*
X98500390Y-91971382D01*
X98500385Y-91971380D01*
X98348633Y-91927292D01*
X98348620Y-91927290D01*
X98313170Y-91924500D01*
X98313163Y-91924500D01*
X97933676Y-91924500D01*
X97866637Y-91904815D01*
X97845995Y-91888181D01*
X97761819Y-91804005D01*
X97728334Y-91742682D01*
X97725500Y-91716324D01*
X97725500Y-89430909D01*
X97724263Y-89426293D01*
X97724263Y-89426292D01*
X97715453Y-89393412D01*
X97691392Y-89303614D01*
X97625500Y-89189486D01*
X95043251Y-86607237D01*
X95009766Y-86545914D01*
X95014750Y-86476222D01*
X95056622Y-86420289D01*
X95105144Y-86398268D01*
X95279803Y-86361144D01*
X95279807Y-86361142D01*
X95279808Y-86361142D01*
X95338058Y-86335206D01*
X95452730Y-86284151D01*
X95605871Y-86172888D01*
X95732533Y-86032216D01*
X95827179Y-85868284D01*
X95885674Y-85688256D01*
X95905460Y-85500000D01*
X95891499Y-85367171D01*
X95904068Y-85298444D01*
X95927136Y-85266534D01*
X97392498Y-83801174D01*
X97457074Y-83689327D01*
X97490500Y-83564576D01*
X97490500Y-83435424D01*
X97490500Y-83177354D01*
X97510185Y-83110315D01*
X97549223Y-83071927D01*
X97726562Y-82962124D01*
X97890981Y-82812236D01*
X98025058Y-82634689D01*
X98124229Y-82435528D01*
X98185115Y-82221536D01*
X98205643Y-82000000D01*
X98196485Y-81901173D01*
X98185115Y-81778464D01*
X98185114Y-81778462D01*
X98184472Y-81776207D01*
X98124229Y-81564472D01*
X98109765Y-81535424D01*
X98025061Y-81365316D01*
X98025056Y-81365308D01*
X97890979Y-81187761D01*
X97726562Y-81037876D01*
X97726560Y-81037874D01*
X97537404Y-80920754D01*
X97537398Y-80920752D01*
X97329940Y-80840382D01*
X97111243Y-80799500D01*
X96888757Y-80799500D01*
X96670060Y-80840382D01*
X96573282Y-80877874D01*
X96462601Y-80920752D01*
X96462595Y-80920754D01*
X96273439Y-81037874D01*
X96273437Y-81037876D01*
X96109020Y-81187761D01*
X95974943Y-81365308D01*
X95974938Y-81365316D01*
X95875775Y-81564461D01*
X95875769Y-81564476D01*
X95814885Y-81778462D01*
X95814884Y-81778464D01*
X95794357Y-81999999D01*
X95794357Y-82000000D01*
X95814884Y-82221535D01*
X95814885Y-82221537D01*
X95875769Y-82435523D01*
X95875775Y-82435538D01*
X95974938Y-82634683D01*
X95974943Y-82634691D01*
X96109020Y-82812238D01*
X96273437Y-82962123D01*
X96273439Y-82962125D01*
X96398132Y-83039331D01*
X96441031Y-83065893D01*
X96450777Y-83071927D01*
X96497413Y-83123954D01*
X96509500Y-83177354D01*
X96509500Y-83245465D01*
X96489815Y-83312504D01*
X96473181Y-83333146D01*
X95234769Y-84571557D01*
X95173446Y-84605042D01*
X95121308Y-84605166D01*
X95094646Y-84599500D01*
X94905354Y-84599500D01*
X94879281Y-84605042D01*
X94720197Y-84638855D01*
X94720192Y-84638857D01*
X94547270Y-84715848D01*
X94547265Y-84715851D01*
X94394129Y-84827111D01*
X94267466Y-84967785D01*
X94172821Y-85131715D01*
X94172820Y-85131717D01*
X94167931Y-85146766D01*
X94128492Y-85204440D01*
X94064133Y-85231638D01*
X93995287Y-85219723D01*
X93943812Y-85172478D01*
X93932069Y-85146766D01*
X93927179Y-85131717D01*
X93927178Y-85131715D01*
X93888415Y-85064575D01*
X93832533Y-84967784D01*
X93705871Y-84827112D01*
X93678290Y-84807073D01*
X93552734Y-84715851D01*
X93552729Y-84715848D01*
X93379807Y-84638857D01*
X93379802Y-84638855D01*
X93220719Y-84605042D01*
X93194646Y-84599500D01*
X93005354Y-84599500D01*
X93005352Y-84599500D01*
X92978688Y-84605167D01*
X92909021Y-84599849D01*
X92865229Y-84571557D01*
X91546513Y-83252841D01*
X91513028Y-83191518D01*
X91518012Y-83121826D01*
X91559884Y-83065893D01*
X91568917Y-83059733D01*
X91726560Y-82962125D01*
X91726559Y-82962125D01*
X91726562Y-82962124D01*
X91890981Y-82812236D01*
X92025058Y-82634689D01*
X92124229Y-82435528D01*
X92185115Y-82221536D01*
X92205643Y-82000000D01*
X92196485Y-81901173D01*
X92185115Y-81778464D01*
X92185114Y-81778462D01*
X92184472Y-81776207D01*
X92124229Y-81564472D01*
X92109765Y-81535424D01*
X92025061Y-81365316D01*
X92025056Y-81365308D01*
X91890979Y-81187761D01*
X91726562Y-81037876D01*
X91726560Y-81037874D01*
X91537404Y-80920754D01*
X91537398Y-80920752D01*
X91329940Y-80840382D01*
X91111243Y-80799500D01*
X90888757Y-80799500D01*
X90670060Y-80840382D01*
X90573282Y-80877874D01*
X90462601Y-80920752D01*
X90462595Y-80920754D01*
X90273439Y-81037874D01*
X90273437Y-81037876D01*
X90109020Y-81187761D01*
X89974943Y-81365308D01*
X89974938Y-81365316D01*
X89875775Y-81564461D01*
X89875769Y-81564476D01*
X89814885Y-81778462D01*
X89814884Y-81778464D01*
X89794357Y-81999999D01*
X89794357Y-82000000D01*
X89814884Y-82221535D01*
X89814885Y-82221537D01*
X89875769Y-82435523D01*
X89875775Y-82435538D01*
X89974938Y-82634683D01*
X89974943Y-82634691D01*
X90109020Y-82812238D01*
X90273437Y-82962123D01*
X90273439Y-82962125D01*
X90398132Y-83039331D01*
X90441031Y-83065893D01*
X90450777Y-83071927D01*
X90497413Y-83123954D01*
X90509500Y-83177354D01*
X90509500Y-83464575D01*
X90542926Y-83589327D01*
X90575214Y-83645250D01*
X90607502Y-83701174D01*
X90607504Y-83701176D01*
X92172860Y-85266532D01*
X92206345Y-85327855D01*
X92208500Y-85367174D01*
X92194540Y-85499999D01*
X92194540Y-85500000D01*
X92214326Y-85688256D01*
X92214327Y-85688259D01*
X92272818Y-85868277D01*
X92272821Y-85868284D01*
X92367467Y-86032216D01*
X92438522Y-86111130D01*
X92494129Y-86172888D01*
X92647265Y-86284148D01*
X92647270Y-86284151D01*
X92820192Y-86361142D01*
X92820197Y-86361144D01*
X93005354Y-86400500D01*
X93005355Y-86400500D01*
X93194639Y-86400500D01*
X93194646Y-86400500D01*
X93194652Y-86400498D01*
X93197529Y-86400196D01*
X93199192Y-86400500D01*
X93201145Y-86400500D01*
X93201145Y-86400857D01*
X93266259Y-86412760D01*
X93317287Y-86460488D01*
X93334500Y-86523516D01*
X93334500Y-86809091D01*
X93368608Y-86936387D01*
X93380053Y-86956210D01*
X93434500Y-87050514D01*
X93434502Y-87050516D01*
X96238181Y-89854195D01*
X96271666Y-89915518D01*
X96274500Y-89941876D01*
X96274500Y-91716322D01*
X96254815Y-91783361D01*
X96238181Y-91804003D01*
X96154003Y-91888181D01*
X96092680Y-91921666D01*
X96066322Y-91924500D01*
X95686849Y-91924500D01*
X95686824Y-91924501D01*
X95651372Y-91927291D01*
X95499614Y-91971380D01*
X95499609Y-91971382D01*
X95363583Y-92051827D01*
X95363574Y-92051834D01*
X95251834Y-92163574D01*
X95251827Y-92163583D01*
X95171382Y-92299609D01*
X95168283Y-92306772D01*
X95165739Y-92305671D01*
X95135230Y-92353410D01*
X95071748Y-92382596D01*
X95002564Y-92372827D01*
X94966109Y-92347584D01*
X94953016Y-92334491D01*
X94953008Y-92334485D01*
X94823617Y-92259782D01*
X94778885Y-92215517D01*
X94748170Y-92163580D01*
X94748167Y-92163577D01*
X94748165Y-92163574D01*
X94636425Y-92051834D01*
X94636416Y-92051827D01*
X94500390Y-91971382D01*
X94500385Y-91971380D01*
X94348633Y-91927292D01*
X94348620Y-91927290D01*
X94313163Y-91924500D01*
X93686849Y-91924500D01*
X93686824Y-91924501D01*
X93651375Y-91927290D01*
X93505823Y-91969577D01*
X93471229Y-91974500D01*
X93157940Y-91974500D01*
X93090901Y-91954815D01*
X93070259Y-91938181D01*
X90240565Y-89108487D01*
X90207080Y-89047164D01*
X90204775Y-89009362D01*
X90205643Y-89000000D01*
X90185115Y-88778464D01*
X90124229Y-88564472D01*
X90124224Y-88564461D01*
X90025061Y-88365316D01*
X90025056Y-88365308D01*
X89890979Y-88187761D01*
X89726562Y-88037876D01*
X89726560Y-88037874D01*
X89537404Y-87920754D01*
X89537398Y-87920752D01*
X89329940Y-87840382D01*
X89111243Y-87799500D01*
X88888757Y-87799500D01*
X88670060Y-87840382D01*
X88567650Y-87880056D01*
X88462601Y-87920752D01*
X88462595Y-87920754D01*
X88273439Y-88037874D01*
X88273437Y-88037876D01*
X88109020Y-88187761D01*
X87974943Y-88365308D01*
X87974938Y-88365316D01*
X87875775Y-88564461D01*
X87875769Y-88564476D01*
X87814885Y-88778462D01*
X87814884Y-88778464D01*
X87794357Y-88999999D01*
X87794357Y-89000000D01*
X87814884Y-89221535D01*
X87814885Y-89221537D01*
X87875769Y-89435523D01*
X87875775Y-89435538D01*
X87974938Y-89634683D01*
X87974943Y-89634691D01*
X88109020Y-89812238D01*
X88273437Y-89962123D01*
X88273439Y-89962125D01*
X88462595Y-90079245D01*
X88462596Y-90079245D01*
X88462599Y-90079247D01*
X88670060Y-90159618D01*
X88888757Y-90200500D01*
X89017060Y-90200500D01*
X89084099Y-90220185D01*
X89104741Y-90236819D01*
X92153211Y-93285289D01*
X92254336Y-93386414D01*
X92264712Y-93396790D01*
X92395814Y-93484390D01*
X92395816Y-93484391D01*
X92395821Y-93484394D01*
X92495843Y-93525824D01*
X92495846Y-93525825D01*
X92495847Y-93525826D01*
X92502769Y-93528693D01*
X92541503Y-93544737D01*
X92541507Y-93544737D01*
X92541508Y-93544738D01*
X92696154Y-93575500D01*
X92696157Y-93575500D01*
X92696158Y-93575500D01*
X93471229Y-93575500D01*
X93505822Y-93580422D01*
X93651373Y-93622709D01*
X93686837Y-93625500D01*
X94313162Y-93625499D01*
X94348627Y-93622709D01*
X94500390Y-93578618D01*
X94505381Y-93575666D01*
X94573101Y-93558479D01*
X94639365Y-93580634D01*
X94656188Y-93594713D01*
X94702570Y-93641095D01*
X94736055Y-93702418D01*
X94731071Y-93772110D01*
X94689199Y-93828043D01*
X94659688Y-93844399D01*
X94501363Y-93905735D01*
X94462601Y-93920752D01*
X94462595Y-93920754D01*
X94273439Y-94037874D01*
X94273437Y-94037876D01*
X94109020Y-94187761D01*
X93974943Y-94365308D01*
X93974938Y-94365316D01*
X93875775Y-94564461D01*
X93875769Y-94564476D01*
X93814885Y-94778462D01*
X93814884Y-94778464D01*
X93794357Y-94999998D01*
X93795225Y-95009370D01*
X93781806Y-95077939D01*
X93759434Y-95108486D01*
X93387695Y-95480227D01*
X93264711Y-95603211D01*
X93233239Y-95634683D01*
X93153209Y-95714712D01*
X93065609Y-95845814D01*
X93065602Y-95845827D01*
X93005264Y-95991498D01*
X93005261Y-95991510D01*
X92974500Y-96146153D01*
X92974500Y-96471231D01*
X92969576Y-96505826D01*
X92927292Y-96651366D01*
X92927290Y-96651379D01*
X92924500Y-96686829D01*
X92924500Y-97313150D01*
X92924501Y-97313175D01*
X92927291Y-97348627D01*
X92971380Y-97500385D01*
X92971382Y-97500390D01*
X93028741Y-97597379D01*
X93045924Y-97665103D01*
X93023764Y-97731366D01*
X92969298Y-97775129D01*
X92922009Y-97784500D01*
X88806430Y-97784500D01*
X88739391Y-97764815D01*
X88718749Y-97748181D01*
X87331819Y-96361250D01*
X87298334Y-96299927D01*
X87295500Y-96273569D01*
X87295500Y-89129127D01*
X87295500Y-89129126D01*
X87286704Y-89096300D01*
X87263777Y-89010733D01*
X87262985Y-89009362D01*
X87229390Y-88951174D01*
X87219663Y-88934326D01*
X87202493Y-88904586D01*
X87115824Y-88817917D01*
X87115823Y-88817916D01*
X87111493Y-88813586D01*
X87111482Y-88813576D01*
X84470360Y-86172453D01*
X84436875Y-86111130D01*
X84438266Y-86052678D01*
X84439160Y-86049339D01*
X84439165Y-86049330D01*
X84495797Y-85837977D01*
X84514867Y-85620000D01*
X84495797Y-85402023D01*
X84439165Y-85190670D01*
X84358135Y-85016902D01*
X84347644Y-84947828D01*
X84376163Y-84884044D01*
X84434640Y-84845804D01*
X84470518Y-84840500D01*
X85984574Y-84840500D01*
X85984576Y-84840500D01*
X86109326Y-84807074D01*
X86221174Y-84742498D01*
X89062498Y-81901174D01*
X89127074Y-81789327D01*
X89160500Y-81664576D01*
X89160500Y-81535424D01*
X89160500Y-77534533D01*
X89180185Y-77467494D01*
X89196814Y-77446857D01*
X91122532Y-75521138D01*
X91183853Y-75487655D01*
X91253545Y-75492639D01*
X91275488Y-75503394D01*
X91462595Y-75619245D01*
X91462596Y-75619245D01*
X91462599Y-75619247D01*
X91670060Y-75699618D01*
X91888757Y-75740500D01*
X91888759Y-75740500D01*
X92111241Y-75740500D01*
X92111243Y-75740500D01*
X92329940Y-75699618D01*
X92537401Y-75619247D01*
X92726562Y-75502124D01*
X92890981Y-75352236D01*
X93025058Y-75174689D01*
X93124229Y-74975528D01*
X93185115Y-74761536D01*
X93205643Y-74540000D01*
X93199560Y-74474358D01*
X93185115Y-74318464D01*
X93185114Y-74318462D01*
X93156524Y-74217979D01*
X93124229Y-74104472D01*
X93072208Y-74000000D01*
X93025061Y-73905316D01*
X93025056Y-73905308D01*
X92890979Y-73727761D01*
X92726562Y-73577876D01*
X92726560Y-73577874D01*
X92537404Y-73460754D01*
X92537395Y-73460750D01*
X92443956Y-73424552D01*
X92343475Y-73385625D01*
X92288075Y-73343054D01*
X92264484Y-73277288D01*
X92280195Y-73209207D01*
X92330219Y-73160428D01*
X92343462Y-73154379D01*
X92421523Y-73124137D01*
X92491143Y-73118275D01*
X92502454Y-73121739D01*
X92502472Y-73121673D01*
X92510321Y-73123776D01*
X92510323Y-73123777D01*
X92628716Y-73155500D01*
X92751284Y-73155500D01*
X94625500Y-73155500D01*
X94692539Y-73175185D01*
X94738294Y-73227989D01*
X94749500Y-73279500D01*
X94749500Y-74881517D01*
X94752676Y-74901568D01*
X94764354Y-74975304D01*
X94821950Y-75088342D01*
X94821952Y-75088344D01*
X94821954Y-75088347D01*
X94911652Y-75178045D01*
X94911654Y-75178046D01*
X94911658Y-75178050D01*
X95024694Y-75235645D01*
X95024698Y-75235647D01*
X95118475Y-75250499D01*
X95118481Y-75250500D01*
X96881518Y-75250499D01*
X96975304Y-75235646D01*
X97088342Y-75178050D01*
X97178050Y-75088342D01*
X97235646Y-74975304D01*
X97235646Y-74975302D01*
X97235647Y-74975301D01*
X97250499Y-74881524D01*
X97250500Y-74881519D01*
X97250499Y-74731859D01*
X97270183Y-74664823D01*
X97322987Y-74619068D01*
X97392145Y-74609124D01*
X97455701Y-74638149D01*
X97476073Y-74660738D01*
X97552395Y-74769735D01*
X97578402Y-74806877D01*
X97733123Y-74961598D01*
X97912361Y-75087102D01*
X98110670Y-75179575D01*
X98322023Y-75236207D01*
X98504926Y-75252208D01*
X98539998Y-75255277D01*
X98540000Y-75255277D01*
X98540002Y-75255277D01*
X98568254Y-75252805D01*
X98757977Y-75236207D01*
X98969330Y-75179575D01*
X99167639Y-75087102D01*
X99346877Y-74961598D01*
X99501598Y-74806877D01*
X99627102Y-74627639D01*
X99719575Y-74429330D01*
X99776207Y-74217977D01*
X99795277Y-74000000D01*
X99776207Y-73782023D01*
X99719575Y-73570670D01*
X99627102Y-73372362D01*
X99627100Y-73372359D01*
X99627099Y-73372357D01*
X99501599Y-73193124D01*
X99426750Y-73118275D01*
X99346877Y-73038402D01*
X99167639Y-72912898D01*
X99016414Y-72842381D01*
X98963977Y-72796210D01*
X98944825Y-72729016D01*
X98965041Y-72662135D01*
X99016414Y-72617618D01*
X99167639Y-72547102D01*
X99346877Y-72421598D01*
X99501598Y-72266877D01*
X99627102Y-72087639D01*
X99719575Y-71889330D01*
X99776207Y-71677977D01*
X99795277Y-71460000D01*
X99776207Y-71242023D01*
X99726148Y-71055200D01*
X99727811Y-70985353D01*
X99758240Y-70935430D01*
X100116853Y-70576819D01*
X100178176Y-70543334D01*
X100204534Y-70540500D01*
X102795466Y-70540500D01*
X102862505Y-70560185D01*
G37*
%TD.AperFunction*%
%TA.AperFunction,Conductor*%
G36*
X113002702Y-68200617D02*
G01*
X113412917Y-68218528D01*
X113423654Y-68219468D01*
X113828057Y-68272708D01*
X113838695Y-68274583D01*
X114236925Y-68362869D01*
X114247365Y-68365667D01*
X114636363Y-68488317D01*
X114646524Y-68492015D01*
X115023363Y-68648108D01*
X115033155Y-68652674D01*
X115394965Y-68841020D01*
X115404305Y-68846413D01*
X115689636Y-69028189D01*
X115748309Y-69065568D01*
X115757170Y-69071772D01*
X116080766Y-69320076D01*
X116089053Y-69327030D01*
X116389767Y-69602583D01*
X116397416Y-69610232D01*
X116672969Y-69910946D01*
X116679923Y-69919233D01*
X116928227Y-70242829D01*
X116934431Y-70251690D01*
X117011651Y-70372900D01*
X117120229Y-70543334D01*
X117153578Y-70595680D01*
X117158983Y-70605042D01*
X117281494Y-70840383D01*
X117347322Y-70966838D01*
X117351894Y-70976642D01*
X117507983Y-71353473D01*
X117511683Y-71363639D01*
X117634331Y-71752630D01*
X117637131Y-71763078D01*
X117725414Y-72161296D01*
X117727292Y-72171950D01*
X117780529Y-72576326D01*
X117781472Y-72587102D01*
X117799382Y-72997297D01*
X117799500Y-73002706D01*
X117799500Y-132997293D01*
X117799382Y-133002702D01*
X117781472Y-133412897D01*
X117780529Y-133423673D01*
X117727292Y-133828049D01*
X117725414Y-133838703D01*
X117637131Y-134236921D01*
X117634331Y-134247369D01*
X117511683Y-134636360D01*
X117507983Y-134646526D01*
X117351894Y-135023357D01*
X117347322Y-135033161D01*
X117158987Y-135394951D01*
X117153578Y-135404319D01*
X116934431Y-135748309D01*
X116928227Y-135757170D01*
X116679923Y-136080766D01*
X116672969Y-136089053D01*
X116397416Y-136389767D01*
X116389767Y-136397416D01*
X116089053Y-136672969D01*
X116080766Y-136679923D01*
X115757170Y-136928227D01*
X115748309Y-136934431D01*
X115404319Y-137153578D01*
X115394951Y-137158987D01*
X115033161Y-137347322D01*
X115023357Y-137351894D01*
X114646526Y-137507983D01*
X114636360Y-137511683D01*
X114247369Y-137634331D01*
X114236921Y-137637131D01*
X113838703Y-137725414D01*
X113828049Y-137727292D01*
X113423673Y-137780529D01*
X113412897Y-137781472D01*
X113002703Y-137799382D01*
X112997294Y-137799500D01*
X83002706Y-137799500D01*
X82997297Y-137799382D01*
X82587102Y-137781472D01*
X82576326Y-137780529D01*
X82171950Y-137727292D01*
X82161296Y-137725414D01*
X81763078Y-137637131D01*
X81752630Y-137634331D01*
X81363639Y-137511683D01*
X81353473Y-137507983D01*
X80976642Y-137351894D01*
X80966838Y-137347322D01*
X80847126Y-137285004D01*
X80605042Y-137158983D01*
X80595686Y-137153582D01*
X80423685Y-137044004D01*
X80251690Y-136934431D01*
X80242829Y-136928227D01*
X79919233Y-136679923D01*
X79910946Y-136672969D01*
X79610232Y-136397416D01*
X79602583Y-136389767D01*
X79327030Y-136089053D01*
X79320076Y-136080766D01*
X79071772Y-135757170D01*
X79065568Y-135748309D01*
X79008789Y-135659184D01*
X78846413Y-135404305D01*
X78841020Y-135394965D01*
X78652674Y-135033155D01*
X78648105Y-135023357D01*
X78638430Y-135000000D01*
X78492015Y-134646524D01*
X78488316Y-134636360D01*
X78485096Y-134626149D01*
X78365667Y-134247365D01*
X78362868Y-134236921D01*
X78351970Y-134187764D01*
X78274583Y-133838695D01*
X78272707Y-133828049D01*
X78219468Y-133423654D01*
X78218528Y-133412917D01*
X78200618Y-133002702D01*
X78200500Y-132997293D01*
X78200500Y-83407525D01*
X79769090Y-83407525D01*
X79769090Y-133793264D01*
X79789120Y-133868015D01*
X79806606Y-133933274D01*
X79879080Y-134058804D01*
X82470786Y-136650510D01*
X82592014Y-136720500D01*
X82596316Y-136722984D01*
X82736326Y-136760500D01*
X82736327Y-136760500D01*
X82736328Y-136760500D01*
X86223672Y-136760500D01*
X86223673Y-136760500D01*
X86223674Y-136760500D01*
X86357187Y-136724725D01*
X86389280Y-136720500D01*
X93467472Y-136720500D01*
X93467474Y-136720500D01*
X93467475Y-136720500D01*
X93607485Y-136682984D01*
X93611869Y-136680453D01*
X93733015Y-136610510D01*
X94857351Y-135486172D01*
X94918672Y-135452689D01*
X94977123Y-135454080D01*
X95006567Y-135461969D01*
X95097023Y-135486207D01*
X95279926Y-135502208D01*
X95314998Y-135505277D01*
X95315000Y-135505277D01*
X95315002Y-135505277D01*
X95343254Y-135502805D01*
X95532977Y-135486207D01*
X95744330Y-135429575D01*
X95942639Y-135337102D01*
X96121877Y-135211598D01*
X96276598Y-135056877D01*
X96402102Y-134877639D01*
X96494575Y-134679330D01*
X96551207Y-134467977D01*
X96570277Y-134250000D01*
X96551207Y-134032023D01*
X96499407Y-133838703D01*
X96494577Y-133820677D01*
X96494576Y-133820676D01*
X96494575Y-133820670D01*
X96402102Y-133622362D01*
X96402100Y-133622359D01*
X96402099Y-133622357D01*
X96276599Y-133443124D01*
X96246372Y-133412897D01*
X96121877Y-133288402D01*
X95942639Y-133162898D01*
X95942640Y-133162898D01*
X95942638Y-133162897D01*
X95843484Y-133116661D01*
X95744330Y-133070425D01*
X95744326Y-133070424D01*
X95744322Y-133070422D01*
X95532977Y-133013793D01*
X95315002Y-132994723D01*
X95314998Y-132994723D01*
X95169682Y-133007436D01*
X95097023Y-133013793D01*
X95097020Y-133013793D01*
X94885677Y-133070422D01*
X94885668Y-133070426D01*
X94687361Y-133162898D01*
X94687357Y-133162900D01*
X94508121Y-133288402D01*
X94353402Y-133443121D01*
X94227900Y-133622357D01*
X94227898Y-133622361D01*
X94157382Y-133773583D01*
X94111209Y-133826022D01*
X94044016Y-133845174D01*
X93977135Y-133824958D01*
X93932618Y-133773583D01*
X93872425Y-133644500D01*
X93862102Y-133622362D01*
X93862100Y-133622359D01*
X93862099Y-133622357D01*
X93736599Y-133443124D01*
X93706372Y-133412897D01*
X93581877Y-133288402D01*
X93402639Y-133162898D01*
X93251414Y-133092381D01*
X93198977Y-133046210D01*
X93179825Y-132979016D01*
X93200041Y-132912135D01*
X93251414Y-132867618D01*
X93402639Y-132797102D01*
X93581877Y-132671598D01*
X93736598Y-132516877D01*
X93862102Y-132337639D01*
X93954575Y-132139330D01*
X94011207Y-131927977D01*
X94030277Y-131710000D01*
X94011207Y-131492023D01*
X93954575Y-131280670D01*
X93862102Y-131082362D01*
X93862100Y-131082359D01*
X93862099Y-131082357D01*
X93736599Y-130903124D01*
X93736595Y-130903120D01*
X93581877Y-130748402D01*
X93419481Y-130634691D01*
X93402638Y-130622897D01*
X93303484Y-130576661D01*
X93204330Y-130530425D01*
X93204326Y-130530424D01*
X93204322Y-130530422D01*
X92992977Y-130473793D01*
X92775002Y-130454723D01*
X92774998Y-130454723D01*
X92629682Y-130467436D01*
X92557023Y-130473793D01*
X92557020Y-130473793D01*
X92345677Y-130530422D01*
X92345668Y-130530426D01*
X92147361Y-130622898D01*
X92147357Y-130622900D01*
X91968121Y-130748402D01*
X91813402Y-130903121D01*
X91687900Y-131082357D01*
X91687898Y-131082361D01*
X91617382Y-131233583D01*
X91571209Y-131286022D01*
X91504016Y-131305174D01*
X91437135Y-131284958D01*
X91392618Y-131233583D01*
X91353875Y-131150500D01*
X91322102Y-131082362D01*
X91322100Y-131082359D01*
X91322099Y-131082357D01*
X91196599Y-130903124D01*
X91196595Y-130903120D01*
X91041877Y-130748402D01*
X90879481Y-130634691D01*
X90862638Y-130622897D01*
X90763484Y-130576661D01*
X90664330Y-130530425D01*
X90664326Y-130530424D01*
X90664322Y-130530422D01*
X90452977Y-130473793D01*
X90235002Y-130454723D01*
X90234998Y-130454723D01*
X90089682Y-130467436D01*
X90017023Y-130473793D01*
X90017020Y-130473793D01*
X89805677Y-130530422D01*
X89805668Y-130530426D01*
X89607361Y-130622898D01*
X89607357Y-130622900D01*
X89428121Y-130748402D01*
X89273402Y-130903121D01*
X89147900Y-131082357D01*
X89147898Y-131082361D01*
X89077382Y-131233583D01*
X89031209Y-131286022D01*
X88964016Y-131305174D01*
X88897135Y-131284958D01*
X88852618Y-131233583D01*
X88813875Y-131150500D01*
X88782102Y-131082362D01*
X88782100Y-131082359D01*
X88782099Y-131082357D01*
X88656599Y-130903124D01*
X88656595Y-130903120D01*
X88501877Y-130748402D01*
X88339481Y-130634691D01*
X88322638Y-130622897D01*
X88223484Y-130576661D01*
X88124330Y-130530425D01*
X88124326Y-130530424D01*
X88124322Y-130530422D01*
X87912977Y-130473793D01*
X87695002Y-130454723D01*
X87694998Y-130454723D01*
X87549682Y-130467436D01*
X87477023Y-130473793D01*
X87477020Y-130473793D01*
X87265677Y-130530422D01*
X87265668Y-130530426D01*
X87067361Y-130622898D01*
X87067357Y-130622900D01*
X86888121Y-130748402D01*
X86733403Y-130903120D01*
X86607899Y-131082360D01*
X86607898Y-131082362D01*
X86605314Y-131087903D01*
X86559145Y-131140342D01*
X86492932Y-131159500D01*
X83588188Y-131159500D01*
X83521149Y-131139815D01*
X83500507Y-131123181D01*
X82586409Y-130209083D01*
X82552924Y-130147760D01*
X82550090Y-130121402D01*
X82550090Y-129999999D01*
X98474357Y-129999999D01*
X98474357Y-130000000D01*
X98494884Y-130221535D01*
X98494885Y-130221537D01*
X98555769Y-130435523D01*
X98555775Y-130435538D01*
X98654938Y-130634683D01*
X98654943Y-130634691D01*
X98789020Y-130812238D01*
X98953437Y-130962123D01*
X98953439Y-130962125D01*
X99142595Y-131079245D01*
X99142596Y-131079245D01*
X99142599Y-131079247D01*
X99350060Y-131159618D01*
X99568757Y-131200500D01*
X99568759Y-131200500D01*
X99791241Y-131200500D01*
X99791243Y-131200500D01*
X100009940Y-131159618D01*
X100027825Y-131152688D01*
X100096818Y-131146698D01*
X100115928Y-131150500D01*
X100115931Y-131150500D01*
X100244069Y-131150500D01*
X102449983Y-131150500D01*
X102517022Y-131170185D01*
X102553790Y-131206677D01*
X102563498Y-131221536D01*
X102656016Y-131363147D01*
X102656019Y-131363151D01*
X102656021Y-131363153D01*
X102813216Y-131533913D01*
X102813219Y-131533915D01*
X102813222Y-131533918D01*
X102996365Y-131676464D01*
X102996371Y-131676468D01*
X102996374Y-131676470D01*
X103200497Y-131786936D01*
X103274211Y-131812242D01*
X103420015Y-131862297D01*
X103420017Y-131862297D01*
X103420019Y-131862298D01*
X103648951Y-131900500D01*
X103648952Y-131900500D01*
X103881048Y-131900500D01*
X103881049Y-131900500D01*
X104109981Y-131862298D01*
X104329503Y-131786936D01*
X104533626Y-131676470D01*
X104566993Y-131650500D01*
X104595129Y-131628600D01*
X104716784Y-131533913D01*
X104873979Y-131363153D01*
X104976209Y-131206678D01*
X105029354Y-131161322D01*
X105080017Y-131150500D01*
X108949983Y-131150500D01*
X109017022Y-131170185D01*
X109053790Y-131206677D01*
X109063498Y-131221536D01*
X109156016Y-131363147D01*
X109156019Y-131363151D01*
X109156021Y-131363153D01*
X109313216Y-131533913D01*
X109313219Y-131533915D01*
X109313222Y-131533918D01*
X109496365Y-131676464D01*
X109496371Y-131676468D01*
X109496374Y-131676470D01*
X109700497Y-131786936D01*
X109774211Y-131812242D01*
X109920015Y-131862297D01*
X109920017Y-131862297D01*
X109920019Y-131862298D01*
X110148951Y-131900500D01*
X110148952Y-131900500D01*
X110381048Y-131900500D01*
X110381049Y-131900500D01*
X110609981Y-131862298D01*
X110829503Y-131786936D01*
X111033626Y-131676470D01*
X111033634Y-131676464D01*
X111037912Y-131673669D01*
X111038533Y-131674619D01*
X111098397Y-131651004D01*
X111109561Y-131650500D01*
X112925137Y-131650500D01*
X112992176Y-131670185D01*
X113024091Y-131699773D01*
X113107600Y-131810357D01*
X113109021Y-131812238D01*
X113109025Y-131812242D01*
X113273437Y-131962123D01*
X113273439Y-131962125D01*
X113462595Y-132079245D01*
X113462596Y-132079245D01*
X113462599Y-132079247D01*
X113656524Y-132154374D01*
X113711924Y-132196946D01*
X113735515Y-132262713D01*
X113719804Y-132330793D01*
X113669780Y-132379572D01*
X113656533Y-132385622D01*
X113508488Y-132442975D01*
X113462601Y-132460752D01*
X113462595Y-132460754D01*
X113273439Y-132577874D01*
X113273437Y-132577876D01*
X113109020Y-132727761D01*
X112974943Y-132905308D01*
X112974938Y-132905316D01*
X112875775Y-133104461D01*
X112875769Y-133104476D01*
X112814885Y-133318462D01*
X112814884Y-133318464D01*
X112794357Y-133539999D01*
X112794357Y-133540000D01*
X112814884Y-133761535D01*
X112814885Y-133761537D01*
X112875769Y-133975523D01*
X112875775Y-133975538D01*
X112974938Y-134174683D01*
X112974943Y-134174691D01*
X113109020Y-134352238D01*
X113273437Y-134502123D01*
X113273439Y-134502125D01*
X113462595Y-134619245D01*
X113462596Y-134619245D01*
X113462599Y-134619247D01*
X113670060Y-134699618D01*
X113888757Y-134740500D01*
X113888759Y-134740500D01*
X114111241Y-134740500D01*
X114111243Y-134740500D01*
X114329940Y-134699618D01*
X114537401Y-134619247D01*
X114726562Y-134502124D01*
X114876629Y-134365320D01*
X114890979Y-134352238D01*
X114968186Y-134250000D01*
X115025058Y-134174689D01*
X115124229Y-133975528D01*
X115185115Y-133761536D01*
X115205643Y-133540000D01*
X115185115Y-133318464D01*
X115124229Y-133104472D01*
X115079076Y-133013793D01*
X115025061Y-132905316D01*
X115025056Y-132905308D01*
X114890979Y-132727761D01*
X114726562Y-132577876D01*
X114726560Y-132577874D01*
X114537404Y-132460754D01*
X114537395Y-132460750D01*
X114430915Y-132419500D01*
X114343475Y-132385625D01*
X114288075Y-132343054D01*
X114264484Y-132277288D01*
X114280195Y-132209207D01*
X114330219Y-132160428D01*
X114343466Y-132154377D01*
X114537401Y-132079247D01*
X114726562Y-131962124D01*
X114882134Y-131820301D01*
X114890979Y-131812238D01*
X114892400Y-131810357D01*
X115025058Y-131634689D01*
X115124229Y-131435528D01*
X115185115Y-131221536D01*
X115205643Y-131000000D01*
X115185115Y-130778464D01*
X115124229Y-130564472D01*
X115079076Y-130473793D01*
X115025061Y-130365316D01*
X115025056Y-130365308D01*
X114890979Y-130187761D01*
X114726562Y-130037876D01*
X114726560Y-130037874D01*
X114537404Y-129920754D01*
X114537398Y-129920752D01*
X114329940Y-129840382D01*
X114111243Y-129799500D01*
X113888757Y-129799500D01*
X113670060Y-129840382D01*
X113538864Y-129891207D01*
X113462601Y-129920752D01*
X113462595Y-129920754D01*
X113273439Y-130037874D01*
X113273437Y-130037876D01*
X113109025Y-130187757D01*
X113109021Y-130187761D01*
X113024091Y-130300227D01*
X112967982Y-130341863D01*
X112925137Y-130349500D01*
X111768110Y-130349500D01*
X111701071Y-130329815D01*
X111655316Y-130277011D01*
X111647904Y-130255940D01*
X111594157Y-130043699D01*
X111500924Y-129831151D01*
X111373983Y-129636852D01*
X111373980Y-129636849D01*
X111373979Y-129636847D01*
X111216784Y-129466087D01*
X111216779Y-129466083D01*
X111216777Y-129466081D01*
X111033634Y-129323535D01*
X111033628Y-129323531D01*
X110829504Y-129213064D01*
X110829495Y-129213061D01*
X110609984Y-129137702D01*
X110438282Y-129109050D01*
X110381049Y-129099500D01*
X110148951Y-129099500D01*
X110103164Y-129107140D01*
X109920015Y-129137702D01*
X109700504Y-129213061D01*
X109700495Y-129213064D01*
X109496371Y-129323531D01*
X109496365Y-129323535D01*
X109313222Y-129466081D01*
X109313219Y-129466084D01*
X109156016Y-129636852D01*
X109075930Y-129759435D01*
X109063500Y-129778462D01*
X109053792Y-129793321D01*
X109000646Y-129838678D01*
X108949983Y-129849500D01*
X105080017Y-129849500D01*
X105012978Y-129829815D01*
X104976208Y-129793321D01*
X104966500Y-129778462D01*
X104937093Y-129733450D01*
X104873983Y-129636852D01*
X104873980Y-129636849D01*
X104873979Y-129636847D01*
X104716784Y-129466087D01*
X104716779Y-129466083D01*
X104716777Y-129466081D01*
X104533634Y-129323535D01*
X104533628Y-129323531D01*
X104329504Y-129213064D01*
X104329495Y-129213061D01*
X104109984Y-129137702D01*
X103938282Y-129109050D01*
X103881049Y-129099500D01*
X103648951Y-129099500D01*
X103603164Y-129107140D01*
X103420015Y-129137702D01*
X103200504Y-129213061D01*
X103200495Y-129213064D01*
X102996371Y-129323531D01*
X102996365Y-129323535D01*
X102813222Y-129466081D01*
X102813219Y-129466084D01*
X102656016Y-129636852D01*
X102575930Y-129759435D01*
X102563500Y-129778462D01*
X102553792Y-129793321D01*
X102500646Y-129838678D01*
X102449983Y-129849500D01*
X100978967Y-129849500D01*
X100911928Y-129829815D01*
X100866173Y-129777011D01*
X100859701Y-129759435D01*
X100804230Y-129564476D01*
X100804229Y-129564472D01*
X100755239Y-129466087D01*
X100705061Y-129365316D01*
X100705056Y-129365308D01*
X100570979Y-129187761D01*
X100406562Y-129037876D01*
X100406560Y-129037874D01*
X100217404Y-128920754D01*
X100217398Y-128920752D01*
X100009940Y-128840382D01*
X99791243Y-128799500D01*
X99568757Y-128799500D01*
X99350060Y-128840382D01*
X99218864Y-128891207D01*
X99142601Y-128920752D01*
X99142595Y-128920754D01*
X98953439Y-129037874D01*
X98953437Y-129037876D01*
X98789020Y-129187761D01*
X98654943Y-129365308D01*
X98654938Y-129365316D01*
X98555775Y-129564461D01*
X98555769Y-129564476D01*
X98494885Y-129778462D01*
X98494884Y-129778464D01*
X98474357Y-129999999D01*
X82550090Y-129999999D01*
X82550090Y-122423570D01*
X82569775Y-122356531D01*
X82622579Y-122310776D01*
X82691737Y-122300832D01*
X82726491Y-122311186D01*
X82830260Y-122359575D01*
X82830265Y-122359576D01*
X82830267Y-122359577D01*
X82857295Y-122366819D01*
X83041613Y-122416207D01*
X83224516Y-122432208D01*
X83259588Y-122435277D01*
X83259590Y-122435277D01*
X83259592Y-122435277D01*
X83287844Y-122432805D01*
X83477567Y-122416207D01*
X83688920Y-122359575D01*
X83726357Y-122342117D01*
X83778761Y-122330500D01*
X84752085Y-122330500D01*
X84819124Y-122350185D01*
X84839766Y-122366819D01*
X86769321Y-124296374D01*
X86769335Y-124296389D01*
X86772446Y-124299500D01*
X86772447Y-124299501D01*
X86900499Y-124427553D01*
X86900502Y-124427555D01*
X86900506Y-124427559D01*
X87033364Y-124524084D01*
X87047006Y-124533996D01*
X87152484Y-124587740D01*
X87208360Y-124616211D01*
X87208363Y-124616212D01*
X87294476Y-124644191D01*
X87380591Y-124672171D01*
X87559453Y-124700501D01*
X87559454Y-124700501D01*
X87745657Y-124700501D01*
X87745681Y-124700500D01*
X94901448Y-124700500D01*
X95479454Y-124700500D01*
X100345501Y-124700500D01*
X100412540Y-124720185D01*
X100458295Y-124772989D01*
X100469501Y-124824500D01*
X100469501Y-125013029D01*
X100475687Y-125091643D01*
X100475688Y-125091645D01*
X100524680Y-125274488D01*
X100546783Y-125317868D01*
X100610614Y-125443146D01*
X100659859Y-125503958D01*
X100729743Y-125590257D01*
X100836311Y-125676554D01*
X100876853Y-125709385D01*
X100960371Y-125751938D01*
X101045512Y-125795320D01*
X101228355Y-125844312D01*
X101306979Y-125850500D01*
X102433020Y-125850499D01*
X102511645Y-125844312D01*
X102694488Y-125795320D01*
X102823008Y-125729835D01*
X102863146Y-125709385D01*
X102863147Y-125709383D01*
X102863149Y-125709383D01*
X103010257Y-125590257D01*
X103129383Y-125443149D01*
X103215320Y-125274488D01*
X103264312Y-125091645D01*
X103270500Y-125013021D01*
X103270499Y-123827913D01*
X103290184Y-123760875D01*
X103306813Y-123740238D01*
X104810233Y-122236819D01*
X104871556Y-122203334D01*
X104897914Y-122200500D01*
X105111241Y-122200500D01*
X105111243Y-122200500D01*
X105329940Y-122159618D01*
X105331861Y-122158873D01*
X105333889Y-122158494D01*
X105335455Y-122158049D01*
X105335496Y-122158194D01*
X105376655Y-122150500D01*
X108623345Y-122150500D01*
X108664503Y-122158194D01*
X108664545Y-122158049D01*
X108666110Y-122158494D01*
X108668138Y-122158873D01*
X108670060Y-122159618D01*
X108888757Y-122200500D01*
X108888759Y-122200500D01*
X109111241Y-122200500D01*
X109111243Y-122200500D01*
X109329940Y-122159618D01*
X109331861Y-122158873D01*
X109333889Y-122158494D01*
X109335455Y-122158049D01*
X109335496Y-122158194D01*
X109376655Y-122150500D01*
X112907149Y-122150500D01*
X112974188Y-122170185D01*
X112978254Y-122172912D01*
X113112771Y-122267102D01*
X113311080Y-122359575D01*
X113311086Y-122359576D01*
X113311087Y-122359577D01*
X113338115Y-122366819D01*
X113522433Y-122416207D01*
X113705336Y-122432208D01*
X113740408Y-122435277D01*
X113740410Y-122435277D01*
X113740412Y-122435277D01*
X113768664Y-122432805D01*
X113958387Y-122416207D01*
X114169740Y-122359575D01*
X114368049Y-122267102D01*
X114547287Y-122141598D01*
X114702008Y-121986877D01*
X114827512Y-121807639D01*
X114919985Y-121609330D01*
X114976617Y-121397977D01*
X114995687Y-121180000D01*
X114976617Y-120962023D01*
X114919985Y-120750670D01*
X114827512Y-120552362D01*
X114827510Y-120552359D01*
X114827509Y-120552357D01*
X114702009Y-120373124D01*
X114702008Y-120373123D01*
X114547287Y-120218402D01*
X114368049Y-120092898D01*
X114216824Y-120022381D01*
X114164387Y-119976210D01*
X114145235Y-119909016D01*
X114165451Y-119842135D01*
X114216824Y-119797618D01*
X114368049Y-119727102D01*
X114547287Y-119601598D01*
X114702008Y-119446877D01*
X114827512Y-119267639D01*
X114919985Y-119069330D01*
X114976617Y-118857977D01*
X114995687Y-118640000D01*
X114993276Y-118612447D01*
X114988580Y-118558766D01*
X114976617Y-118422023D01*
X114919985Y-118210670D01*
X114827512Y-118012362D01*
X114827510Y-118012359D01*
X114827509Y-118012357D01*
X114702009Y-117833124D01*
X114628380Y-117759495D01*
X114547287Y-117678402D01*
X114368049Y-117552898D01*
X114216824Y-117482381D01*
X114164387Y-117436210D01*
X114145235Y-117369016D01*
X114165451Y-117302135D01*
X114216824Y-117257618D01*
X114368049Y-117187102D01*
X114547287Y-117061598D01*
X114702008Y-116906877D01*
X114827512Y-116727639D01*
X114919985Y-116529330D01*
X114976617Y-116317977D01*
X114993215Y-116128254D01*
X114995687Y-116100002D01*
X114995687Y-116099997D01*
X114989139Y-116025153D01*
X114976617Y-115882023D01*
X114919985Y-115670670D01*
X114827512Y-115472362D01*
X114827510Y-115472359D01*
X114827509Y-115472357D01*
X114702009Y-115293124D01*
X114663700Y-115254815D01*
X114547287Y-115138402D01*
X114368049Y-115012898D01*
X114216824Y-114942381D01*
X114164387Y-114896210D01*
X114145235Y-114829016D01*
X114165451Y-114762135D01*
X114216824Y-114717618D01*
X114368049Y-114647102D01*
X114547287Y-114521598D01*
X114702008Y-114366877D01*
X114827512Y-114187639D01*
X114919985Y-113989330D01*
X114976617Y-113777977D01*
X114995687Y-113560000D01*
X114995184Y-113554255D01*
X114991979Y-113517618D01*
X114976617Y-113342023D01*
X114919985Y-113130670D01*
X114827512Y-112932362D01*
X114827510Y-112932359D01*
X114827509Y-112932357D01*
X114702009Y-112753124D01*
X114630420Y-112681535D01*
X114547287Y-112598402D01*
X114368049Y-112472898D01*
X114216824Y-112402381D01*
X114164387Y-112356210D01*
X114145235Y-112289016D01*
X114165451Y-112222135D01*
X114216824Y-112177618D01*
X114368049Y-112107102D01*
X114547287Y-111981598D01*
X114702008Y-111826877D01*
X114827512Y-111647639D01*
X114919985Y-111449330D01*
X114976617Y-111237977D01*
X114995687Y-111020000D01*
X114976617Y-110802023D01*
X114933337Y-110640499D01*
X114919987Y-110590677D01*
X114919986Y-110590676D01*
X114919985Y-110590670D01*
X114827512Y-110392362D01*
X114827510Y-110392359D01*
X114827509Y-110392357D01*
X114702009Y-110213124D01*
X114638884Y-110149999D01*
X114547287Y-110058402D01*
X114368049Y-109932898D01*
X114216824Y-109862381D01*
X114164387Y-109816210D01*
X114145235Y-109749016D01*
X114165451Y-109682135D01*
X114216824Y-109637618D01*
X114368049Y-109567102D01*
X114547287Y-109441598D01*
X114702008Y-109286877D01*
X114827512Y-109107639D01*
X114919985Y-108909330D01*
X114976617Y-108697977D01*
X114993215Y-108508254D01*
X114995687Y-108480002D01*
X114995687Y-108479997D01*
X114988441Y-108397181D01*
X114976617Y-108262023D01*
X114919985Y-108050670D01*
X114827512Y-107852362D01*
X114827510Y-107852359D01*
X114827509Y-107852357D01*
X114702009Y-107673124D01*
X114702008Y-107673123D01*
X114547287Y-107518402D01*
X114368049Y-107392898D01*
X114216824Y-107322381D01*
X114164387Y-107276210D01*
X114145235Y-107209016D01*
X114165451Y-107142135D01*
X114216824Y-107097618D01*
X114368049Y-107027102D01*
X114547287Y-106901598D01*
X114702008Y-106746877D01*
X114827512Y-106567639D01*
X114919985Y-106369330D01*
X114976617Y-106157977D01*
X114995687Y-105940000D01*
X114976617Y-105722023D01*
X114927219Y-105537666D01*
X114919987Y-105510677D01*
X114919986Y-105510676D01*
X114919985Y-105510670D01*
X114827512Y-105312362D01*
X114827510Y-105312359D01*
X114827509Y-105312357D01*
X114702009Y-105133124D01*
X114646438Y-105077553D01*
X114547287Y-104978402D01*
X114368049Y-104852898D01*
X114216824Y-104782381D01*
X114164387Y-104736210D01*
X114145235Y-104669016D01*
X114165451Y-104602135D01*
X114216824Y-104557618D01*
X114368049Y-104487102D01*
X114547287Y-104361598D01*
X114702008Y-104206877D01*
X114827512Y-104027639D01*
X114919985Y-103829330D01*
X114976617Y-103617977D01*
X114995687Y-103400000D01*
X114993323Y-103372984D01*
X114988704Y-103320182D01*
X114976617Y-103182023D01*
X114919985Y-102970670D01*
X114827512Y-102772362D01*
X114827510Y-102772359D01*
X114827509Y-102772357D01*
X114744613Y-102653969D01*
X114722286Y-102587763D01*
X114739296Y-102519996D01*
X114758507Y-102495165D01*
X115404172Y-101849500D01*
X116062498Y-101191174D01*
X116127074Y-101079327D01*
X116160500Y-100954576D01*
X116160500Y-100825424D01*
X116160500Y-77235424D01*
X116151541Y-77201987D01*
X116127074Y-77110673D01*
X116062498Y-76998826D01*
X114621174Y-75557502D01*
X114558194Y-75521140D01*
X114509327Y-75492926D01*
X114446951Y-75476213D01*
X114384576Y-75459500D01*
X114384575Y-75459500D01*
X106664534Y-75459500D01*
X106597495Y-75439815D01*
X106576853Y-75423181D01*
X106176856Y-75023184D01*
X106143371Y-74961861D01*
X106145270Y-74901573D01*
X106185115Y-74761536D01*
X106205643Y-74540000D01*
X106199560Y-74474358D01*
X106185115Y-74318464D01*
X106185114Y-74318462D01*
X106156524Y-74217979D01*
X106124229Y-74104472D01*
X106072208Y-74000000D01*
X106025061Y-73905316D01*
X106025056Y-73905308D01*
X105890979Y-73727761D01*
X105726562Y-73577876D01*
X105726560Y-73577874D01*
X105537404Y-73460754D01*
X105537395Y-73460750D01*
X105443956Y-73424552D01*
X105343475Y-73385625D01*
X105288075Y-73343054D01*
X105264484Y-73277288D01*
X105266518Y-73268475D01*
X107699500Y-73268475D01*
X107699500Y-74731517D01*
X107705554Y-74769738D01*
X107714354Y-74825304D01*
X107771950Y-74938342D01*
X107771952Y-74938344D01*
X107771954Y-74938347D01*
X107861652Y-75028045D01*
X107861654Y-75028046D01*
X107861658Y-75028050D01*
X107974694Y-75085645D01*
X107974698Y-75085647D01*
X108068475Y-75100499D01*
X108068481Y-75100500D01*
X109931518Y-75100499D01*
X110025304Y-75085646D01*
X110138342Y-75028050D01*
X110228050Y-74938342D01*
X110263787Y-74868203D01*
X110311761Y-74817409D01*
X110374271Y-74800500D01*
X111078844Y-74800500D01*
X111078845Y-74800499D01*
X111233497Y-74769737D01*
X111379179Y-74709394D01*
X111510289Y-74621789D01*
X112895259Y-73236819D01*
X112956582Y-73203334D01*
X112982940Y-73200500D01*
X113111241Y-73200500D01*
X113111243Y-73200500D01*
X113329940Y-73159618D01*
X113537401Y-73079247D01*
X113726562Y-72962124D01*
X113890981Y-72812236D01*
X114025058Y-72634689D01*
X114054120Y-72576326D01*
X114124224Y-72435538D01*
X114124223Y-72435538D01*
X114124229Y-72435528D01*
X114185115Y-72221536D01*
X114205643Y-72000000D01*
X114199329Y-71931865D01*
X114185115Y-71778464D01*
X114185114Y-71778462D01*
X114177764Y-71752630D01*
X114124229Y-71564472D01*
X114124224Y-71564461D01*
X114025061Y-71365316D01*
X114025056Y-71365308D01*
X113890979Y-71187761D01*
X113726562Y-71037876D01*
X113726560Y-71037874D01*
X113537404Y-70920754D01*
X113537398Y-70920752D01*
X113329940Y-70840382D01*
X113111243Y-70799500D01*
X112888757Y-70799500D01*
X112670060Y-70840382D01*
X112572033Y-70878358D01*
X112462601Y-70920752D01*
X112462595Y-70920754D01*
X112273439Y-71037874D01*
X112273437Y-71037876D01*
X112109020Y-71187761D01*
X111974943Y-71365308D01*
X111974938Y-71365316D01*
X111875775Y-71564461D01*
X111875769Y-71564476D01*
X111814885Y-71778462D01*
X111814884Y-71778464D01*
X111794357Y-71999998D01*
X111795225Y-72009370D01*
X111781806Y-72077939D01*
X111759434Y-72108486D01*
X110704741Y-73163181D01*
X110643418Y-73196666D01*
X110617060Y-73199500D01*
X110374272Y-73199500D01*
X110307233Y-73179815D01*
X110263788Y-73131796D01*
X110237011Y-73079245D01*
X110228050Y-73061658D01*
X110228047Y-73061655D01*
X110228045Y-73061652D01*
X110138347Y-72971954D01*
X110138344Y-72971952D01*
X110138342Y-72971950D01*
X110061517Y-72932805D01*
X110025301Y-72914352D01*
X109931524Y-72899500D01*
X108068482Y-72899500D01*
X107987519Y-72912323D01*
X107974696Y-72914354D01*
X107861658Y-72971950D01*
X107861657Y-72971951D01*
X107861652Y-72971954D01*
X107771954Y-73061652D01*
X107771951Y-73061657D01*
X107771950Y-73061658D01*
X107762989Y-73079245D01*
X107714352Y-73174698D01*
X107699500Y-73268475D01*
X105266518Y-73268475D01*
X105280195Y-73209207D01*
X105330219Y-73160428D01*
X105343466Y-73154377D01*
X105537401Y-73079247D01*
X105726562Y-72962124D01*
X105890981Y-72812236D01*
X106025058Y-72634689D01*
X106054120Y-72576326D01*
X106124224Y-72435538D01*
X106124223Y-72435538D01*
X106124229Y-72435528D01*
X106185115Y-72221536D01*
X106205643Y-72000000D01*
X106199329Y-71931865D01*
X106185115Y-71778464D01*
X106185114Y-71778462D01*
X106177764Y-71752630D01*
X106124229Y-71564472D01*
X106124224Y-71564461D01*
X106029081Y-71373389D01*
X107699500Y-71373389D01*
X107699500Y-71546610D01*
X107720306Y-71677979D01*
X107726598Y-71717701D01*
X107780127Y-71882445D01*
X107858768Y-72036788D01*
X107960586Y-72176928D01*
X108083072Y-72299414D01*
X108223212Y-72401232D01*
X108377555Y-72479873D01*
X108542299Y-72533402D01*
X108713389Y-72560500D01*
X108713390Y-72560500D01*
X109286610Y-72560500D01*
X109286611Y-72560500D01*
X109457701Y-72533402D01*
X109622445Y-72479873D01*
X109776788Y-72401232D01*
X109916928Y-72299414D01*
X110039414Y-72176928D01*
X110141232Y-72036788D01*
X110219873Y-71882445D01*
X110273402Y-71717701D01*
X110300500Y-71546611D01*
X110300500Y-71373389D01*
X110273402Y-71202299D01*
X110219873Y-71037555D01*
X110141232Y-70883212D01*
X110039414Y-70743072D01*
X109916928Y-70620586D01*
X109776788Y-70518768D01*
X109622445Y-70440127D01*
X109457701Y-70386598D01*
X109457699Y-70386597D01*
X109457698Y-70386597D01*
X109326271Y-70365781D01*
X109286611Y-70359500D01*
X108713389Y-70359500D01*
X108673728Y-70365781D01*
X108542302Y-70386597D01*
X108377552Y-70440128D01*
X108223211Y-70518768D01*
X108143312Y-70576819D01*
X108083072Y-70620586D01*
X108083070Y-70620588D01*
X108083069Y-70620588D01*
X107960588Y-70743069D01*
X107960588Y-70743070D01*
X107960586Y-70743072D01*
X107919589Y-70799500D01*
X107858768Y-70883211D01*
X107780128Y-71037552D01*
X107726597Y-71202302D01*
X107699500Y-71373389D01*
X106029081Y-71373389D01*
X106025061Y-71365316D01*
X106025056Y-71365308D01*
X105890979Y-71187761D01*
X105726562Y-71037876D01*
X105726560Y-71037874D01*
X105537404Y-70920754D01*
X105537398Y-70920752D01*
X105329940Y-70840382D01*
X105111243Y-70799500D01*
X104888757Y-70799500D01*
X104779408Y-70819941D01*
X104670058Y-70840382D01*
X104670056Y-70840383D01*
X104647369Y-70849172D01*
X104577746Y-70855032D01*
X104516006Y-70822321D01*
X104514897Y-70821225D01*
X103351176Y-69657504D01*
X103351174Y-69657502D01*
X103269301Y-69610232D01*
X103239327Y-69592926D01*
X103176951Y-69576213D01*
X103114576Y-69559500D01*
X100014576Y-69559500D01*
X99885424Y-69559500D01*
X99843840Y-69570642D01*
X99760671Y-69592926D01*
X99648826Y-69657502D01*
X99648823Y-69657504D01*
X99064569Y-70241757D01*
X99003246Y-70275242D01*
X98944795Y-70273851D01*
X98757977Y-70223793D01*
X98648988Y-70214258D01*
X98540002Y-70204723D01*
X98539998Y-70204723D01*
X98394682Y-70217436D01*
X98322023Y-70223793D01*
X98322020Y-70223793D01*
X98110677Y-70280422D01*
X98110668Y-70280426D01*
X97912361Y-70372898D01*
X97912357Y-70372900D01*
X97733121Y-70498402D01*
X97578402Y-70653121D01*
X97452900Y-70832357D01*
X97452898Y-70832361D01*
X97382382Y-70983583D01*
X97336209Y-71036022D01*
X97269016Y-71055174D01*
X97202135Y-71034958D01*
X97157618Y-70983583D01*
X97128320Y-70920754D01*
X97087102Y-70832362D01*
X97087100Y-70832359D01*
X97087099Y-70832357D01*
X96961599Y-70653124D01*
X96885294Y-70576819D01*
X96806877Y-70498402D01*
X96627639Y-70372898D01*
X96627640Y-70372898D01*
X96627638Y-70372897D01*
X96528484Y-70326661D01*
X96429330Y-70280425D01*
X96429326Y-70280424D01*
X96429322Y-70280422D01*
X96217977Y-70223793D01*
X96000002Y-70204723D01*
X95999998Y-70204723D01*
X95854682Y-70217436D01*
X95782023Y-70223793D01*
X95782020Y-70223793D01*
X95570677Y-70280422D01*
X95570668Y-70280426D01*
X95372361Y-70372898D01*
X95372357Y-70372900D01*
X95193121Y-70498402D01*
X95038402Y-70653121D01*
X94912900Y-70832357D01*
X94912898Y-70832361D01*
X94820426Y-71030668D01*
X94820422Y-71030677D01*
X94763793Y-71242020D01*
X94763793Y-71242024D01*
X94744723Y-71459997D01*
X94744723Y-71460002D01*
X94763793Y-71677975D01*
X94763793Y-71677979D01*
X94820422Y-71889322D01*
X94820424Y-71889326D01*
X94820425Y-71889330D01*
X94894459Y-72048097D01*
X94904951Y-72117172D01*
X94876431Y-72180956D01*
X94817955Y-72219196D01*
X94782077Y-72224500D01*
X93320862Y-72224500D01*
X93253823Y-72204815D01*
X93208068Y-72152011D01*
X93197391Y-72089059D01*
X93205643Y-72000001D01*
X93205643Y-71999999D01*
X93185115Y-71778464D01*
X93185114Y-71778462D01*
X93177764Y-71752630D01*
X93124229Y-71564472D01*
X93124224Y-71564461D01*
X93025061Y-71365316D01*
X93025056Y-71365308D01*
X92890979Y-71187761D01*
X92726562Y-71037876D01*
X92726560Y-71037874D01*
X92537404Y-70920754D01*
X92537398Y-70920752D01*
X92329940Y-70840382D01*
X92111243Y-70799500D01*
X91888757Y-70799500D01*
X91670060Y-70840382D01*
X91572033Y-70878358D01*
X91462601Y-70920752D01*
X91462595Y-70920754D01*
X91273439Y-71037874D01*
X91273437Y-71037876D01*
X91109020Y-71187761D01*
X90974943Y-71365308D01*
X90974938Y-71365316D01*
X90875775Y-71564461D01*
X90875769Y-71564476D01*
X90814885Y-71778462D01*
X90814884Y-71778464D01*
X90794357Y-71999999D01*
X90794357Y-72000000D01*
X90814884Y-72221535D01*
X90814885Y-72221537D01*
X90875769Y-72435523D01*
X90875775Y-72435538D01*
X90974938Y-72634683D01*
X90974943Y-72634691D01*
X91109020Y-72812238D01*
X91273437Y-72962123D01*
X91273439Y-72962125D01*
X91462595Y-73079245D01*
X91462596Y-73079245D01*
X91462599Y-73079247D01*
X91656524Y-73154374D01*
X91711924Y-73196946D01*
X91735515Y-73262713D01*
X91719804Y-73330793D01*
X91669780Y-73379572D01*
X91656533Y-73385622D01*
X91508488Y-73442975D01*
X91462601Y-73460752D01*
X91462595Y-73460754D01*
X91273439Y-73577874D01*
X91273437Y-73577876D01*
X91109020Y-73727761D01*
X90974943Y-73905308D01*
X90974938Y-73905316D01*
X90875775Y-74104461D01*
X90875769Y-74104476D01*
X90814885Y-74318462D01*
X90814885Y-74318464D01*
X90806456Y-74409421D01*
X90780669Y-74474358D01*
X90770666Y-74485660D01*
X88368826Y-76887502D01*
X88277504Y-76978823D01*
X88277502Y-76978826D01*
X88212926Y-77090672D01*
X88179500Y-77215424D01*
X88179500Y-81345466D01*
X88159815Y-81412505D01*
X88143181Y-81433147D01*
X85753147Y-83823181D01*
X85691824Y-83856666D01*
X85665466Y-83859500D01*
X84470519Y-83859500D01*
X84403480Y-83839815D01*
X84357725Y-83787011D01*
X84347781Y-83717853D01*
X84358137Y-83683095D01*
X84363448Y-83671705D01*
X84439165Y-83509330D01*
X84495797Y-83297977D01*
X84514867Y-83080000D01*
X84495797Y-82862023D01*
X84439165Y-82650670D01*
X84346692Y-82452362D01*
X84346690Y-82452359D01*
X84346689Y-82452357D01*
X84221189Y-82273124D01*
X84169600Y-82221535D01*
X84066467Y-82118402D01*
X83887229Y-81992898D01*
X83736004Y-81922381D01*
X83683567Y-81876210D01*
X83664415Y-81809016D01*
X83684631Y-81742135D01*
X83736004Y-81697618D01*
X83887229Y-81627102D01*
X84066467Y-81501598D01*
X84221188Y-81346877D01*
X84346692Y-81167639D01*
X84439165Y-80969330D01*
X84495797Y-80757977D01*
X84514867Y-80540000D01*
X84495797Y-80322023D01*
X84439165Y-80110670D01*
X84346692Y-79912362D01*
X84346690Y-79912359D01*
X84346689Y-79912357D01*
X84221189Y-79733124D01*
X84221186Y-79733121D01*
X84066467Y-79578402D01*
X83920323Y-79476071D01*
X83876702Y-79421497D01*
X83869509Y-79351998D01*
X83901031Y-79289644D01*
X83961261Y-79254230D01*
X83991449Y-79250499D01*
X84141108Y-79250499D01*
X84234894Y-79235646D01*
X84347932Y-79178050D01*
X84437640Y-79088342D01*
X84495236Y-78975304D01*
X84495236Y-78975302D01*
X84495237Y-78975301D01*
X84510089Y-78881524D01*
X84510090Y-78881519D01*
X84510089Y-77118482D01*
X84495236Y-77024696D01*
X84437640Y-76911658D01*
X84437636Y-76911654D01*
X84437635Y-76911652D01*
X84347937Y-76821954D01*
X84347934Y-76821952D01*
X84347932Y-76821950D01*
X84271107Y-76782805D01*
X84234891Y-76764352D01*
X84141114Y-76749500D01*
X82378072Y-76749500D01*
X82297109Y-76762323D01*
X82284286Y-76764354D01*
X82171248Y-76821950D01*
X82171247Y-76821951D01*
X82171242Y-76821954D01*
X82081544Y-76911652D01*
X82081541Y-76911657D01*
X82023942Y-77024698D01*
X82009090Y-77118475D01*
X82009090Y-78881517D01*
X82019882Y-78949657D01*
X82023944Y-78975304D01*
X82081540Y-79088342D01*
X82081542Y-79088344D01*
X82081544Y-79088347D01*
X82171242Y-79178045D01*
X82171244Y-79178046D01*
X82171248Y-79178050D01*
X82284284Y-79235645D01*
X82284288Y-79235647D01*
X82378065Y-79250499D01*
X82378071Y-79250500D01*
X82527730Y-79250499D01*
X82594767Y-79270183D01*
X82640522Y-79322987D01*
X82650466Y-79392145D01*
X82621441Y-79455701D01*
X82598852Y-79476074D01*
X82452708Y-79578405D01*
X82297992Y-79733121D01*
X82172490Y-79912357D01*
X82172488Y-79912361D01*
X82080016Y-80110668D01*
X82080012Y-80110677D01*
X82023383Y-80322020D01*
X82023383Y-80322024D01*
X82004313Y-80539997D01*
X82004313Y-80540002D01*
X82023383Y-80757975D01*
X82023383Y-80757979D01*
X82055509Y-80877874D01*
X82053846Y-80947724D01*
X82023415Y-80997648D01*
X79879081Y-83141983D01*
X79879079Y-83141985D01*
X79845298Y-83200499D01*
X79845297Y-83200500D01*
X79806607Y-83267512D01*
X79806606Y-83267513D01*
X79798443Y-83297979D01*
X79769090Y-83407525D01*
X78200500Y-83407525D01*
X78200500Y-73002706D01*
X78200618Y-72997297D01*
X78218528Y-72587080D01*
X78219468Y-72576347D01*
X78272709Y-72171938D01*
X78274582Y-72161308D01*
X78310343Y-71999999D01*
X82794357Y-71999999D01*
X82794357Y-72000000D01*
X82814884Y-72221535D01*
X82814885Y-72221537D01*
X82875769Y-72435523D01*
X82875775Y-72435538D01*
X82974938Y-72634683D01*
X82974943Y-72634691D01*
X83109020Y-72812238D01*
X83273437Y-72962123D01*
X83273439Y-72962125D01*
X83462595Y-73079245D01*
X83462596Y-73079245D01*
X83462599Y-73079247D01*
X83656524Y-73154374D01*
X83711924Y-73196946D01*
X83735515Y-73262713D01*
X83719804Y-73330793D01*
X83669780Y-73379572D01*
X83656533Y-73385622D01*
X83508488Y-73442975D01*
X83462601Y-73460752D01*
X83462595Y-73460754D01*
X83273439Y-73577874D01*
X83273437Y-73577876D01*
X83109020Y-73727761D01*
X82974943Y-73905308D01*
X82974938Y-73905316D01*
X82875775Y-74104461D01*
X82875769Y-74104476D01*
X82814885Y-74318462D01*
X82814884Y-74318464D01*
X82794357Y-74539999D01*
X82794357Y-74540000D01*
X82814884Y-74761535D01*
X82814885Y-74761537D01*
X82875769Y-74975523D01*
X82875775Y-74975538D01*
X82974938Y-75174683D01*
X82974943Y-75174691D01*
X83109020Y-75352238D01*
X83273437Y-75502123D01*
X83273439Y-75502125D01*
X83462595Y-75619245D01*
X83462596Y-75619245D01*
X83462599Y-75619247D01*
X83670060Y-75699618D01*
X83888757Y-75740500D01*
X83888759Y-75740500D01*
X84111241Y-75740500D01*
X84111243Y-75740500D01*
X84329940Y-75699618D01*
X84537401Y-75619247D01*
X84726562Y-75502124D01*
X84890981Y-75352236D01*
X85025058Y-75174689D01*
X85124229Y-74975528D01*
X85185115Y-74761536D01*
X85205643Y-74540000D01*
X85199560Y-74474358D01*
X85185115Y-74318464D01*
X85185114Y-74318462D01*
X85156524Y-74217979D01*
X85124229Y-74104472D01*
X85072208Y-74000000D01*
X85025061Y-73905316D01*
X85025056Y-73905308D01*
X84890979Y-73727761D01*
X84726562Y-73577876D01*
X84726560Y-73577874D01*
X84537404Y-73460754D01*
X84537395Y-73460750D01*
X84443956Y-73424552D01*
X84343475Y-73385625D01*
X84288075Y-73343054D01*
X84264484Y-73277288D01*
X84280195Y-73209207D01*
X84330219Y-73160428D01*
X84343466Y-73154377D01*
X84537401Y-73079247D01*
X84726562Y-72962124D01*
X84868355Y-72832861D01*
X84931157Y-72802246D01*
X84951892Y-72800500D01*
X87538844Y-72800500D01*
X87538845Y-72800499D01*
X87693497Y-72769737D01*
X87839179Y-72709394D01*
X87970289Y-72621789D01*
X87974460Y-72617618D01*
X87995260Y-72596819D01*
X88056583Y-72563334D01*
X88082941Y-72560500D01*
X88286610Y-72560500D01*
X88286611Y-72560500D01*
X88457701Y-72533402D01*
X88622445Y-72479873D01*
X88776788Y-72401232D01*
X88916928Y-72299414D01*
X89039414Y-72176928D01*
X89141232Y-72036788D01*
X89219873Y-71882445D01*
X89273402Y-71717701D01*
X89300500Y-71546611D01*
X89300500Y-71373389D01*
X89273402Y-71202299D01*
X89219873Y-71037555D01*
X89141232Y-70883212D01*
X89039414Y-70743072D01*
X88916928Y-70620586D01*
X88776788Y-70518768D01*
X88622445Y-70440127D01*
X88457701Y-70386598D01*
X88457699Y-70386597D01*
X88457698Y-70386597D01*
X88326271Y-70365781D01*
X88286611Y-70359500D01*
X87713389Y-70359500D01*
X87673728Y-70365781D01*
X87542302Y-70386597D01*
X87377552Y-70440128D01*
X87223211Y-70518768D01*
X87143312Y-70576819D01*
X87083072Y-70620586D01*
X87083070Y-70620588D01*
X87083069Y-70620588D01*
X86960588Y-70743069D01*
X86960588Y-70743070D01*
X86960586Y-70743072D01*
X86919589Y-70799500D01*
X86858768Y-70883211D01*
X86780128Y-71037550D01*
X86755347Y-71113819D01*
X86715909Y-71171494D01*
X86651550Y-71198692D01*
X86637416Y-71199500D01*
X84951892Y-71199500D01*
X84884853Y-71179815D01*
X84868361Y-71167143D01*
X84726562Y-71037876D01*
X84726559Y-71037874D01*
X84726558Y-71037873D01*
X84537404Y-70920754D01*
X84537398Y-70920752D01*
X84329940Y-70840382D01*
X84111243Y-70799500D01*
X83888757Y-70799500D01*
X83670060Y-70840382D01*
X83572033Y-70878358D01*
X83462601Y-70920752D01*
X83462595Y-70920754D01*
X83273439Y-71037874D01*
X83273437Y-71037876D01*
X83109020Y-71187761D01*
X82974943Y-71365308D01*
X82974938Y-71365316D01*
X82875775Y-71564461D01*
X82875769Y-71564476D01*
X82814885Y-71778462D01*
X82814884Y-71778464D01*
X82794357Y-71999999D01*
X78310343Y-71999999D01*
X78362870Y-71763068D01*
X78365668Y-71752630D01*
X78376681Y-71717701D01*
X78488319Y-71363629D01*
X78492016Y-71353473D01*
X78538180Y-71242024D01*
X78648111Y-70976627D01*
X78652669Y-70966853D01*
X78841025Y-70605024D01*
X78846407Y-70595703D01*
X79065574Y-70251680D01*
X79071765Y-70242837D01*
X79320083Y-69919224D01*
X79327021Y-69910955D01*
X79602594Y-69610220D01*
X79610220Y-69602594D01*
X79910955Y-69327021D01*
X79919224Y-69320083D01*
X80242837Y-69071765D01*
X80251680Y-69065574D01*
X80595703Y-68846407D01*
X80605024Y-68841025D01*
X80966853Y-68652669D01*
X80976627Y-68648111D01*
X81353482Y-68492012D01*
X81363629Y-68488319D01*
X81752639Y-68365665D01*
X81763068Y-68362870D01*
X82161308Y-68274582D01*
X82171938Y-68272709D01*
X82576347Y-68219468D01*
X82587080Y-68218528D01*
X82997297Y-68200617D01*
X83002706Y-68200500D01*
X83039882Y-68200500D01*
X112960118Y-68200500D01*
X112997294Y-68200500D01*
X113002702Y-68200617D01*
G37*
%TD.AperFunction*%
%TD*%
%TA.AperFunction,Conductor*%
%TO.N,/VBUS*%
G36*
X100165970Y-115266272D02*
G01*
X100221278Y-115301024D01*
X100300475Y-115350788D01*
X100470745Y-115410368D01*
X100470750Y-115410369D01*
X100491748Y-115412735D01*
X100556163Y-115439801D01*
X100595718Y-115497395D01*
X100597857Y-115567232D01*
X100580968Y-115604845D01*
X100533374Y-115676074D01*
X100533364Y-115676092D01*
X100457950Y-115858160D01*
X100457947Y-115858170D01*
X100419500Y-116051456D01*
X100419500Y-116051459D01*
X100419500Y-116248541D01*
X100419500Y-116248543D01*
X100419499Y-116248543D01*
X100457947Y-116441829D01*
X100457950Y-116441839D01*
X100533364Y-116623907D01*
X100533371Y-116623920D01*
X100642860Y-116787781D01*
X100642863Y-116787785D01*
X100782215Y-116927137D01*
X100782218Y-116927139D01*
X100944891Y-117035833D01*
X100989696Y-117089445D01*
X101000000Y-117138935D01*
X101000000Y-117386000D01*
X100980315Y-117453039D01*
X100927511Y-117498794D01*
X100876000Y-117510000D01*
X96894000Y-117510000D01*
X96826961Y-117490315D01*
X96781206Y-117437511D01*
X96770000Y-117386000D01*
X96770000Y-117307049D01*
X96789685Y-117240010D01*
X96837706Y-117196564D01*
X96904417Y-117162573D01*
X97050924Y-117056130D01*
X97095028Y-117012024D01*
X97113809Y-116996610D01*
X97217782Y-116927139D01*
X97357139Y-116787782D01*
X97466632Y-116623914D01*
X97542051Y-116441835D01*
X97580500Y-116248541D01*
X97580500Y-116051459D01*
X97580500Y-116051456D01*
X97542052Y-115858170D01*
X97542051Y-115858169D01*
X97542051Y-115858165D01*
X97491838Y-115736938D01*
X97466635Y-115676092D01*
X97466633Y-115676088D01*
X97466632Y-115676086D01*
X97419031Y-115604846D01*
X97398153Y-115538169D01*
X97416637Y-115470789D01*
X97468616Y-115424098D01*
X97508247Y-115412734D01*
X97529255Y-115410368D01*
X97699522Y-115350789D01*
X97702085Y-115349179D01*
X97778722Y-115301024D01*
X97834029Y-115266272D01*
X97901264Y-115247272D01*
X97965970Y-115266272D01*
X98021278Y-115301024D01*
X98100475Y-115350788D01*
X98270745Y-115410368D01*
X98270750Y-115410369D01*
X98449996Y-115430565D01*
X98450000Y-115430565D01*
X98450004Y-115430565D01*
X98629249Y-115410369D01*
X98629252Y-115410368D01*
X98629255Y-115410368D01*
X98799522Y-115350789D01*
X98802085Y-115349179D01*
X98878722Y-115301024D01*
X98934029Y-115266272D01*
X99001264Y-115247272D01*
X99065970Y-115266272D01*
X99121278Y-115301024D01*
X99200475Y-115350788D01*
X99370745Y-115410368D01*
X99370750Y-115410369D01*
X99549996Y-115430565D01*
X99550000Y-115430565D01*
X99550004Y-115430565D01*
X99729249Y-115410369D01*
X99729252Y-115410368D01*
X99729255Y-115410368D01*
X99899522Y-115350789D01*
X99902085Y-115349179D01*
X99978722Y-115301024D01*
X100034029Y-115266272D01*
X100101264Y-115247272D01*
X100165970Y-115266272D01*
G37*
%TD.AperFunction*%
%TD*%
M02*
