M48
; DRILL file {KiCad 8.0.6} date 2024-11-16T11:12:29+0800
; FORMAT={-:-/ absolute / inch / decimal}
; #@! TF.CreationDate,2024-11-16T11:12:29+08:00
; #@! TF.GenerationSoftware,Kicad,Pcbnew,8.0.6
; #@! TF.FileFunction,Plated,1,2,PTH
FMAT,2
INCH
; #@! TA.AperFunction,Plated,PTH,ViaDrill
T1C0.0118
; #@! TA.AperFunction,Plated,PTH,ComponentDrill
T2C0.0236
; #@! TA.AperFunction,Plated,PTH,ComponentDrill
T3C0.0315
; #@! TA.AperFunction,Plated,PTH,ComponentDrill
T4C0.0394
; #@! TA.AperFunction,Plated,PTH,ComponentDrill
T5C0.0433
; #@! TA.AperFunction,Plated,PTH,ComponentDrill
T6C0.0591
%
G90
G05
T1
X3.9862Y-4.2047
X3.9862Y-4.3547
X3.9862Y-4.5047
X3.9862Y-4.6547
X3.9862Y-4.8047
X3.9862Y-4.9547
X4.0669Y-4.7598
X4.0807Y-4.9213
X4.1457Y-5.0728
X4.1594Y-4.1634
X4.2787Y-4.2185
X4.2957Y-5.0728
X4.4272Y-4.1614
X4.4311Y-4.374
X4.4457Y-5.0728
X4.5177Y-3.9685
X4.5945Y-4.0256
X4.5957Y-5.0728
X4.6004Y-4.9744
X4.6339Y-4.5925
X4.7323Y-4.126
X4.7457Y-5.0728
X4.7618Y-4.0079
X4.811Y-4.4606
X4.8189Y-4.8819
X4.878Y-4.6063
X4.8957Y-5.0728
X4.9547Y-4.3976
X4.9685Y-4.0394
X5.0232Y-5.0787
X5.0394Y-4.7736
X5.1074Y-4.0088
X5.1122Y-4.7264
X5.126Y-4.3228
X5.1732Y-5.0787
X5.2622Y-4.7264
X5.3232Y-5.0787
X5.4122Y-4.7264
X5.4154Y-4.3287
X5.4732Y-5.0787
X5.4941Y-4.0118
X5.5709Y-4.5276
X5.6232Y-5.0787
X5.6512Y-3.9882
X5.7067Y-4.5354
X5.7732Y-5.0787
X5.8012Y-3.9882
X5.872Y-4.5039
X5.8799Y-4.7756
X5.9232Y-5.0787
X5.9252Y-4.5079
X5.9409Y-4.9094
X5.9512Y-3.9882
X5.9626Y-4.5472
X5.9744Y-4.6909
X5.9843Y-4.1476
X6.0421Y-5.0236
X6.061Y-4.8012
X6.1012Y-3.9882
X6.1921Y-5.0236
X6.2067Y-4.3307
X6.2512Y-3.9882
X6.2598Y-4.687
X6.2598Y-4.8031
X6.3421Y-5.0236
X6.4012Y-3.9882
X6.4921Y-5.0236
X6.5512Y-3.9882
X6.6102Y-4.0551
X6.6102Y-4.2051
X6.6102Y-4.3551
X6.6102Y-4.5051
X6.6102Y-4.6551
X6.6102Y-4.8051
X6.6102Y-4.9551
T3
X4.0551Y-4.1126
X4.0551Y-4.2126
X4.0732Y-4.8425
X4.0732Y-5.0
X4.1732Y-4.8425
X4.1732Y-5.0
X4.2126Y-4.1126
X4.2126Y-4.2126
X4.3701Y-4.0157
X4.3701Y-4.1157
X4.3701Y-4.211
X4.3701Y-4.311
X4.3701Y-4.4291
X4.3701Y-4.626
X4.5276Y-4.1126
X4.5276Y-4.2126
X4.5276Y-4.4291
X4.5276Y-4.626
X4.7421Y-4.7362
X4.7421Y-4.9331
X4.8819Y-4.8309
X4.8819Y-4.9309
X5.1181Y-4.4291
X5.1181Y-4.626
X5.2756Y-4.4291
X5.2756Y-4.626
X5.4331Y-4.4291
X5.4331Y-4.626
X6.1811Y-4.6457
X6.1811Y-4.8378
X6.2992Y-4.1339
X6.2992Y-4.3307
X6.3386Y-4.6457
X6.3386Y-4.8425
X6.5354Y-4.6457
X6.5354Y-4.8425
T4
X5.0394Y-4.077
X5.0394Y-4.977
X5.1394Y-4.077
X5.1394Y-4.977
X5.2394Y-4.077
X5.2394Y-4.977
X5.3394Y-4.077
X5.3394Y-4.977
X5.4394Y-4.077
X5.4394Y-4.977
X5.5394Y-4.077
X5.5394Y-4.977
X5.6394Y-4.077
X5.6394Y-4.977
X5.7394Y-4.077
X5.7394Y-4.977
X5.8394Y-4.077
X5.8394Y-4.977
X5.9394Y-4.077
X5.9394Y-4.977
X6.1417Y-4.1094
X6.1417Y-4.2094
X6.1417Y-4.3094
X6.1417Y-4.4094
T5
X4.3504Y-4.7638
X4.3504Y-5.0197
X4.5276Y-4.7638
X4.5276Y-5.0197
X4.685Y-4.0354
X4.685Y-4.2913
X4.8622Y-4.0354
X4.8622Y-4.2913
T6
X6.1811Y-4.7417
T2
G00X4.0748Y-4.3575
M15
G01X4.0512Y-4.3575
M16
G05
G00X4.0748Y-4.6976
M15
G01X4.0512Y-4.6976
M16
G05
G00X4.2244Y-4.3575
M15
G01X4.2008Y-4.3575
M16
G05
G00X4.2244Y-4.6976
M15
G01X4.2008Y-4.6976
M16
G05
M30
