%TF.GenerationSoftware,KiCad,Pcbnew,8.0.6*%
%TF.CreationDate,2024-11-16T11:12:32+08:00*%
%TF.ProjectId,PY32F002AW15S_mini_system,50593332-4630-4303-9241-573135535f6d,rev?*%
%TF.SameCoordinates,Original*%
%TF.FileFunction,Copper,L2,Bot*%
%TF.FilePolarity,Positive*%
%FSLAX46Y46*%
G04 Gerber Fmt 4.6, Leading zero omitted, Abs format (unit mm)*
G04 Created by KiCad (PCBNEW 8.0.6) date 2024-11-16 11:12:32*
%MOMM*%
%LPD*%
G01*
G04 APERTURE LIST*
G04 Aperture macros list*
%AMRoundRect*
0 Rectangle with rounded corners*
0 $1 Rounding radius*
0 $2 $3 $4 $5 $6 $7 $8 $9 X,Y pos of 4 corners*
0 Add a 4 corners polygon primitive as box body*
4,1,4,$2,$3,$4,$5,$6,$7,$8,$9,$2,$3,0*
0 Add four circle primitives for the rounded corners*
1,1,$1+$1,$2,$3*
1,1,$1+$1,$4,$5*
1,1,$1+$1,$6,$7*
1,1,$1+$1,$8,$9*
0 Add four rect primitives between the rounded corners*
20,1,$1+$1,$2,$3,$4,$5,0*
20,1,$1+$1,$4,$5,$6,$7,0*
20,1,$1+$1,$6,$7,$8,$9,0*
20,1,$1+$1,$8,$9,$2,$3,0*%
G04 Aperture macros list end*
%TA.AperFunction,ComponentPad*%
%ADD10C,1.600000*%
%TD*%
%TA.AperFunction,ComponentPad*%
%ADD11O,1.700000X1.100000*%
%TD*%
%TA.AperFunction,ComponentPad*%
%ADD12R,1.800000X1.400000*%
%TD*%
%TA.AperFunction,ComponentPad*%
%ADD13O,1.800000X1.400000*%
%TD*%
%TA.AperFunction,ComponentPad*%
%ADD14C,1.500000*%
%TD*%
%TA.AperFunction,ComponentPad*%
%ADD15C,2.000000*%
%TD*%
%TA.AperFunction,ComponentPad*%
%ADD16O,1.600000X1.600000*%
%TD*%
%TA.AperFunction,ComponentPad*%
%ADD17R,1.700000X1.700000*%
%TD*%
%TA.AperFunction,ComponentPad*%
%ADD18O,1.700000X1.700000*%
%TD*%
%TA.AperFunction,SMDPad,CuDef*%
%ADD19RoundRect,0.250000X-0.750000X-0.500000X0.750000X-0.500000X0.750000X0.500000X-0.750000X0.500000X0*%
%TD*%
%TA.AperFunction,SMDPad,CuDef*%
%ADD20RoundRect,0.250000X-0.750000X-1.650000X0.750000X-1.650000X0.750000X1.650000X-0.750000X1.650000X0*%
%TD*%
%TA.AperFunction,SMDPad,CuDef*%
%ADD21RoundRect,0.150000X-0.150000X0.850000X-0.150000X-0.850000X0.150000X-0.850000X0.150000X0.850000X0*%
%TD*%
%TA.AperFunction,SMDPad,CuDef*%
%ADD22RoundRect,0.250000X-0.475000X0.250000X-0.475000X-0.250000X0.475000X-0.250000X0.475000X0.250000X0*%
%TD*%
%TA.AperFunction,ViaPad*%
%ADD23C,0.500000*%
%TD*%
%TA.AperFunction,Conductor*%
%ADD24C,1.500000*%
%TD*%
%TA.AperFunction,Conductor*%
%ADD25C,0.500000*%
%TD*%
%TA.AperFunction,Conductor*%
%ADD26C,2.000000*%
%TD*%
%TA.AperFunction,Conductor*%
%ADD27C,3.000000*%
%TD*%
%TA.AperFunction,Conductor*%
%ADD28C,1.000000*%
%TD*%
%TA.AperFunction,Conductor*%
%ADD29C,0.300000*%
%TD*%
%TA.AperFunction,Conductor*%
%ADD30C,0.200000*%
%TD*%
G04 APERTURE END LIST*
D10*
%TO.P,C10,1*%
%TO.N,/NRST*%
X120450000Y-125300000D03*
%TO.P,C10,2*%
%TO.N,GND*%
X120450000Y-120300000D03*
%TD*%
D11*
%TO.P,J1,S1,SHIELD*%
%TO.N,GND*%
X107000000Y-110680000D03*
X103200000Y-110680000D03*
X107000000Y-119320000D03*
X103200000Y-119320000D03*
%TD*%
D12*
%TO.P,LED1,1,K*%
%TO.N,GND*%
X103000000Y-107000000D03*
D13*
%TO.P,LED1,2,A*%
%TO.N,Net-(LED1-A)*%
X103000000Y-104460000D03*
%TD*%
D14*
%TO.P,X1,1,1*%
%TO.N,/OSC+*%
X157000000Y-118000000D03*
D15*
%TO.P,X1,2,2*%
%TO.N,GND*%
X157000000Y-120440000D03*
D14*
%TO.P,X1,3,3*%
%TO.N,/OSC-*%
X157000000Y-122880000D03*
%TD*%
D10*
%TO.P,R1,1*%
%TO.N,VCC*%
X107000000Y-107000000D03*
D16*
%TO.P,R1,2*%
%TO.N,Net-(LED1-A)*%
X107000000Y-104460000D03*
%TD*%
D15*
%TO.P,SW2,1*%
%TO.N,Net-(R6-Pad2)*%
X119000000Y-109000000D03*
X119000000Y-102500000D03*
%TO.P,SW2,2*%
%TO.N,GND*%
X123500000Y-109000000D03*
X123500000Y-102500000D03*
%TD*%
D12*
%TO.P,LED2,1,K*%
%TO.N,GND*%
X111000000Y-102000000D03*
D13*
%TO.P,LED2,2,A*%
%TO.N,Net-(LED2-A)*%
X111000000Y-104540000D03*
%TD*%
D10*
%TO.P,R4,1*%
%TO.N,GND*%
X106000000Y-123000000D03*
D16*
%TO.P,R4,2*%
%TO.N,Net-(J1-CC1)*%
X103460000Y-123000000D03*
%TD*%
D10*
%TO.P,R3,1*%
%TO.N,GND*%
X106000000Y-127000000D03*
D16*
%TO.P,R3,2*%
%TO.N,Net-(J1-CC2)*%
X103460000Y-127000000D03*
%TD*%
D10*
%TO.P,C1,1*%
%TO.N,VBUS*%
X111000000Y-112500000D03*
%TO.P,C1,2*%
%TO.N,GND*%
X111000000Y-117500000D03*
%TD*%
D15*
%TO.P,SW1,1*%
%TO.N,/NRST*%
X115000000Y-121000000D03*
X115000000Y-127500000D03*
%TO.P,SW1,2*%
%TO.N,GND*%
X110500000Y-121000000D03*
X110500000Y-127500000D03*
%TD*%
D10*
%TO.P,C2,1*%
%TO.N,VBUS*%
X115000000Y-112500000D03*
%TO.P,C2,2*%
%TO.N,GND*%
X115000000Y-117500000D03*
%TD*%
D17*
%TO.P,J2,1,Pin_1*%
%TO.N,VCC*%
X156000000Y-112000000D03*
D18*
%TO.P,J2,2,Pin_2*%
%TO.N,/SWDIO*%
X156000000Y-109460000D03*
%TO.P,J2,3,Pin_3*%
%TO.N,/SWCLK*%
X156000000Y-106920000D03*
%TO.P,J2,4,Pin_4*%
%TO.N,GND*%
X156000000Y-104380000D03*
%TD*%
D10*
%TO.P,R6,1*%
%TO.N,VCC*%
X115000000Y-107000000D03*
D16*
%TO.P,R6,2*%
%TO.N,Net-(R6-Pad2)*%
X115000000Y-104460000D03*
%TD*%
D10*
%TO.P,C8,1*%
%TO.N,/OSC-*%
X161000000Y-123000000D03*
%TO.P,C8,2*%
%TO.N,GND*%
X166000000Y-123000000D03*
%TD*%
%TO.P,R2,1*%
%TO.N,/PA9*%
X111000000Y-109500000D03*
D16*
%TO.P,R2,2*%
%TO.N,Net-(LED2-A)*%
X111000000Y-106960000D03*
%TD*%
D10*
%TO.P,R5,1*%
%TO.N,VCC*%
X124000000Y-122705000D03*
D16*
%TO.P,R5,2*%
%TO.N,/NRST*%
X124000000Y-125245000D03*
%TD*%
D17*
%TO.P,J3,1,Pin_1*%
%TO.N,VCC*%
X128000000Y-126415800D03*
D18*
%TO.P,J3,2,Pin_2*%
%TO.N,GND*%
X130540000Y-126415800D03*
%TO.P,J3,3,Pin_3*%
%TO.N,/PA6*%
X133080000Y-126415800D03*
%TO.P,J3,4,Pin_4*%
%TO.N,/PA3*%
X135620000Y-126415800D03*
%TO.P,J3,5,Pin_5*%
%TO.N,/PA2*%
X138160000Y-126415800D03*
%TO.P,J3,6,Pin_6*%
%TO.N,GND*%
X140700000Y-126415800D03*
%TO.P,J3,7,Pin_7*%
%TO.N,/PA1*%
X143240000Y-126415800D03*
%TO.P,J3,8,Pin_8*%
%TO.N,/PA0*%
X145780000Y-126415800D03*
%TO.P,J3,9,Pin_9*%
%TO.N,/OSC+*%
X148320000Y-126415800D03*
%TO.P,J3,10,Pin_10*%
%TO.N,/OSC-*%
X150860000Y-126415800D03*
%TD*%
D17*
%TO.P,J5,1,Pin_1*%
%TO.N,VCC*%
X128000000Y-103555800D03*
D18*
%TO.P,J5,2,Pin_2*%
%TO.N,GND*%
X130540000Y-103555800D03*
%TO.P,J5,3,Pin_3*%
%TO.N,/PA7*%
X133080000Y-103555800D03*
%TO.P,J5,4,Pin_4*%
%TO.N,/PB0*%
X135620000Y-103555800D03*
%TO.P,J5,5,Pin_5*%
%TO.N,/PB1*%
X138160000Y-103555800D03*
%TO.P,J5,6,Pin_6*%
%TO.N,VCC*%
X140700000Y-103555800D03*
%TO.P,J5,7,Pin_7*%
%TO.N,/PA9*%
X143240000Y-103555800D03*
%TO.P,J5,8,Pin_8*%
%TO.N,/SWDIO*%
X145780000Y-103555800D03*
%TO.P,J5,9,Pin_9*%
%TO.N,/SWCLK*%
X148320000Y-103555800D03*
%TO.P,J5,10,Pin_10*%
%TO.N,/NRST*%
X150860000Y-103555800D03*
%TD*%
D10*
%TO.P,C9,1*%
%TO.N,VCC*%
X160000000Y-110000000D03*
%TO.P,C9,2*%
%TO.N,GND*%
X160000000Y-105000000D03*
%TD*%
%TO.P,C5,1*%
%TO.N,VCC*%
X134000000Y-112500000D03*
%TO.P,C5,2*%
%TO.N,GND*%
X134000000Y-117500000D03*
%TD*%
%TO.P,C7,1*%
%TO.N,/OSC+*%
X161000000Y-118000000D03*
%TO.P,C7,2*%
%TO.N,GND*%
X166000000Y-118000000D03*
%TD*%
%TO.P,C6,1*%
%TO.N,VCC*%
X138000000Y-112500000D03*
%TO.P,C6,2*%
%TO.N,GND*%
X138000000Y-117500000D03*
%TD*%
%TO.P,C4,1*%
%TO.N,VCC*%
X130000000Y-112500000D03*
%TO.P,C4,2*%
%TO.N,GND*%
X130000000Y-117500000D03*
%TD*%
D19*
%TO.P,U1,1*%
%TO.N,GND*%
X119850000Y-117300000D03*
%TO.P,U1,2,OUT*%
%TO.N,VCC*%
X119850000Y-115000000D03*
D20*
X126150000Y-115000000D03*
D19*
%TO.P,U1,3,IN*%
%TO.N,VBUS*%
X119850000Y-112700000D03*
%TD*%
D21*
%TO.P,U2,1,PA7*%
%TO.N,/PA7*%
X141555000Y-112500000D03*
%TO.P,U2,2,PB0*%
%TO.N,/PB0*%
X142825000Y-112500000D03*
%TO.P,U2,3,PB1*%
%TO.N,/PB1*%
X144095000Y-112500000D03*
%TO.P,U2,4,VCC*%
%TO.N,VCC*%
X145365000Y-112500000D03*
%TO.P,U2,5,PA9*%
%TO.N,/PA9*%
X146635000Y-112500000D03*
%TO.P,U2,6,PA13-SWD*%
%TO.N,/SWDIO*%
X147905000Y-112500000D03*
%TO.P,U2,7,PA14-SWC*%
%TO.N,/SWCLK*%
X149175000Y-112500000D03*
%TO.P,U2,8,PF2-NRST*%
%TO.N,/NRST*%
X150445000Y-112500000D03*
%TO.P,U2,9,PF0-OSCIN*%
%TO.N,/OSC+*%
X150445000Y-117500000D03*
%TO.P,U2,10,PF1-OSCOUT*%
%TO.N,/OSC-*%
X149175000Y-117500000D03*
%TO.P,U2,11,PA0*%
%TO.N,/PA0*%
X147905000Y-117500000D03*
%TO.P,U2,12,PA1*%
%TO.N,/PA1*%
X146635000Y-117500000D03*
%TO.P,U2,13,VSS*%
%TO.N,GND*%
X145365000Y-117500000D03*
%TO.P,U2,14,PA2*%
%TO.N,/PA2*%
X144095000Y-117500000D03*
%TO.P,U2,15,PA3*%
%TO.N,/PA3*%
X142825000Y-117500000D03*
%TO.P,U2,16,PA6*%
%TO.N,/PA6*%
X141555000Y-117500000D03*
%TD*%
D22*
%TO.P,C3,1*%
%TO.N,VBUS*%
X117000000Y-114050000D03*
%TO.P,C3,2*%
%TO.N,GND*%
X117000000Y-115950000D03*
%TD*%
D23*
%TO.N,GND*%
X108680000Y-107150000D03*
X157280000Y-127600000D03*
X167900000Y-122050000D03*
X120950000Y-101800000D03*
X147350000Y-101300000D03*
X149150000Y-114400000D03*
X151160000Y-101300000D03*
X122200000Y-113300000D03*
X161090000Y-127600000D03*
X167900000Y-110620000D03*
X153950000Y-121950000D03*
X159000000Y-122000000D03*
X124350000Y-128850000D03*
X116730000Y-128850000D03*
X116850000Y-126350000D03*
X103650000Y-125000000D03*
X158780000Y-101300000D03*
X133660000Y-120050000D03*
X151750000Y-119150000D03*
X101250000Y-114420000D03*
X154970000Y-101300000D03*
X120200000Y-104800000D03*
X167900000Y-125860000D03*
X128000000Y-121250000D03*
X167900000Y-118240000D03*
X112920000Y-128850000D03*
X151450000Y-115500000D03*
X130200000Y-109800000D03*
X159000000Y-119050000D03*
X144950000Y-115200000D03*
X120540000Y-128850000D03*
X101250000Y-118230000D03*
X125850000Y-111700000D03*
X164900000Y-127600000D03*
X129727100Y-101822900D03*
X153470000Y-127600000D03*
X143540000Y-101300000D03*
X141500000Y-115000000D03*
X112550000Y-111100000D03*
X167900000Y-114430000D03*
X166400000Y-101300000D03*
X139020000Y-129000000D03*
X105650000Y-105750000D03*
X109110000Y-128850000D03*
X137470000Y-120050000D03*
X152000000Y-105350000D03*
X142830000Y-129000000D03*
X146640000Y-129000000D03*
X101250000Y-125850000D03*
X126200000Y-102600000D03*
X167900000Y-103000000D03*
X123900000Y-117000000D03*
X101250000Y-110610000D03*
X105300000Y-128850000D03*
X135210000Y-129000000D03*
X114750000Y-100800000D03*
X117700000Y-116650000D03*
X139550000Y-101900000D03*
X131400000Y-129000000D03*
X149350000Y-121300000D03*
X150450000Y-129000000D03*
X122400000Y-124000000D03*
X103300000Y-120900000D03*
X157650000Y-110000000D03*
X116700000Y-102250000D03*
X162590000Y-101300000D03*
X167900000Y-106810000D03*
X101250000Y-122040000D03*
X129850000Y-120050000D03*
X112450000Y-105700000D03*
X127590000Y-129000000D03*
X137550000Y-109950000D03*
X101250000Y-106800000D03*
X150900000Y-124700000D03*
%TO.N,/NRST*%
X150500000Y-114500000D03*
%TD*%
D24*
%TO.N,VBUS*%
X111000000Y-112500000D02*
X115000000Y-112500000D01*
X115450000Y-112500000D02*
X117000000Y-114050000D01*
X117000000Y-114050000D02*
X118350000Y-112700000D01*
X118350000Y-112700000D02*
X119850000Y-112700000D01*
X115000000Y-112500000D02*
X115450000Y-112500000D01*
%TO.N,GND*%
X129727100Y-101822900D02*
X129404200Y-101500000D01*
D25*
X145365000Y-121750800D02*
X140700000Y-126415800D01*
D26*
X103200000Y-110680000D02*
X103200000Y-107200000D01*
D24*
X117700000Y-116650000D02*
X118350000Y-117300000D01*
D25*
X145365000Y-117500000D02*
X145365000Y-121750800D01*
D26*
X110500000Y-127500000D02*
X110500000Y-121000000D01*
D27*
X130000000Y-117500000D02*
X138000000Y-117500000D01*
D24*
X119850000Y-119700000D02*
X120450000Y-120300000D01*
X159380000Y-104380000D02*
X160000000Y-105000000D01*
X115000000Y-117500000D02*
X115450000Y-117500000D01*
D26*
X166000000Y-120450000D02*
X166000000Y-118000000D01*
X130540000Y-126415800D02*
X130540000Y-118040000D01*
D24*
X117000000Y-115950000D02*
X117700000Y-116650000D01*
D28*
X107000000Y-110680000D02*
X103200000Y-110680000D01*
D26*
X166000000Y-123000000D02*
X166000000Y-120450000D01*
D24*
X130540000Y-103555800D02*
X130540000Y-102635800D01*
X115450000Y-117500000D02*
X117000000Y-115950000D01*
X107000000Y-119320000D02*
X107000000Y-122000000D01*
X156000000Y-104380000D02*
X159380000Y-104380000D01*
X130540000Y-102635800D02*
X129727100Y-101822900D01*
D26*
X123500000Y-102500000D02*
X123500000Y-109000000D01*
D24*
X111000000Y-117500000D02*
X115000000Y-117500000D01*
X107000000Y-122000000D02*
X106000000Y-123000000D01*
D26*
X157000000Y-120440000D02*
X165990000Y-120440000D01*
D24*
X129404200Y-101500000D02*
X124500000Y-101500000D01*
D26*
X130540000Y-118040000D02*
X130000000Y-117500000D01*
D24*
X118350000Y-117300000D02*
X119850000Y-117300000D01*
D26*
X165990000Y-120440000D02*
X166000000Y-120450000D01*
D24*
X124500000Y-101500000D02*
X123500000Y-102500000D01*
X106000000Y-127000000D02*
X106000000Y-123000000D01*
X119850000Y-117300000D02*
X119850000Y-119700000D01*
D26*
X110500000Y-118000000D02*
X111000000Y-117500000D01*
X103200000Y-107200000D02*
X103000000Y-107000000D01*
X110500000Y-121000000D02*
X110500000Y-118000000D01*
D28*
X103200000Y-119320000D02*
X107000000Y-119320000D01*
D25*
%TO.N,VCC*%
X145365000Y-108220800D02*
X140700000Y-103555800D01*
D24*
X126150000Y-115000000D02*
X126150000Y-120555000D01*
X156000000Y-112000000D02*
X158000000Y-112000000D01*
X124000000Y-122705000D02*
X124289200Y-122705000D01*
D26*
X130000000Y-112500000D02*
X128000000Y-110500000D01*
D24*
X119850000Y-115000000D02*
X126150000Y-115000000D01*
D25*
X145365000Y-112500000D02*
X145365000Y-108220800D01*
D27*
X130000000Y-112500000D02*
X138000000Y-112500000D01*
X130000000Y-112500000D02*
X128650000Y-112500000D01*
D29*
X108250000Y-108250000D02*
X113750000Y-108250000D01*
X113750000Y-108250000D02*
X115000000Y-107000000D01*
D24*
X158000000Y-112000000D02*
X160000000Y-110000000D01*
D29*
X107000000Y-107000000D02*
X108250000Y-108250000D01*
D24*
X126150000Y-120555000D02*
X124000000Y-122705000D01*
X124289200Y-122705000D02*
X128000000Y-126415800D01*
D27*
X128650000Y-112500000D02*
X126150000Y-115000000D01*
D26*
X128000000Y-110500000D02*
X128000000Y-103555800D01*
D30*
%TO.N,/OSC+*%
X157000000Y-118000000D02*
X161000000Y-118000000D01*
X154785001Y-120214999D02*
X150633199Y-120214999D01*
X150633199Y-120214999D02*
X150035000Y-119616800D01*
X157000000Y-118000000D02*
X154785001Y-120214999D01*
X150445000Y-119000001D02*
X150445000Y-117500000D01*
X150035000Y-119410001D02*
X150445000Y-119000001D01*
X150035000Y-119616800D02*
X150035000Y-119410001D01*
%TO.N,/OSC-*%
X149585000Y-119803200D02*
X149585000Y-119410001D01*
X149585000Y-119410001D02*
X149175000Y-119000001D01*
X157000000Y-122880000D02*
X160880000Y-122880000D01*
X157000000Y-122880000D02*
X154785001Y-120665001D01*
X150446801Y-120665001D02*
X149585000Y-119803200D01*
X154785001Y-120665001D02*
X150446801Y-120665001D01*
X160880000Y-122880000D02*
X161000000Y-123000000D01*
X149175000Y-119000001D02*
X149175000Y-117500000D01*
D29*
%TO.N,/NRST*%
X150500000Y-114500000D02*
X150500000Y-112555000D01*
X150445000Y-103970800D02*
X150860000Y-103555800D01*
X123945000Y-125300000D02*
X124000000Y-125245000D01*
X150500000Y-112555000D02*
X150445000Y-112500000D01*
X115000000Y-127500000D02*
X118250000Y-127500000D01*
X115000000Y-121000000D02*
X115000000Y-127500000D01*
X118250000Y-127500000D02*
X120450000Y-125300000D01*
X120450000Y-125300000D02*
X123945000Y-125300000D01*
X150445000Y-112500000D02*
X150445000Y-103970800D01*
%TO.N,/SWCLK*%
X149175000Y-112500000D02*
X149175000Y-104410800D01*
X149175000Y-104410800D02*
X148320000Y-103555800D01*
%TO.N,/SWDIO*%
X147905000Y-105680800D02*
X145780000Y-103555800D01*
X147905000Y-112500000D02*
X147905000Y-105680800D01*
%TO.N,Net-(LED1-A)*%
X103000000Y-104460000D02*
X107000000Y-104460000D01*
%TO.N,Net-(LED2-A)*%
X111000000Y-106960000D02*
X111000000Y-104540000D01*
%TO.N,/PA9*%
X146635000Y-112500000D02*
X146635000Y-106950800D01*
X146635000Y-106950800D02*
X143240000Y-103555800D01*
%TO.N,/PB1*%
X144095000Y-112500000D02*
X144095000Y-109490800D01*
X144095000Y-109490800D02*
X138160000Y-103555800D01*
%TO.N,/PA6*%
X133086700Y-126415800D02*
X133080000Y-126415800D01*
X141555000Y-117947500D02*
X133086700Y-126415800D01*
X141555000Y-117500000D02*
X141555000Y-117947500D01*
%TO.N,/PA2*%
X144095000Y-117500000D02*
X144095000Y-120480800D01*
X144095000Y-120480800D02*
X138160000Y-126415800D01*
%TO.N,/PB0*%
X142825000Y-110760800D02*
X135620000Y-103555800D01*
X142825000Y-112500000D02*
X142825000Y-110760800D01*
%TO.N,/PA1*%
X146635000Y-117500000D02*
X146635000Y-123020800D01*
X146635000Y-123020800D02*
X143240000Y-126415800D01*
%TO.N,/PA0*%
X147905000Y-124290800D02*
X145780000Y-126415800D01*
X147905000Y-117500000D02*
X147905000Y-124290800D01*
%TO.N,/PA7*%
X141555000Y-112500000D02*
X141555000Y-112005000D01*
X133105800Y-103555800D02*
X133080000Y-103555800D01*
X141555000Y-112005000D02*
X133105800Y-103555800D01*
%TO.N,/PA3*%
X142825000Y-119210800D02*
X135620000Y-126415800D01*
X142825000Y-117500000D02*
X142825000Y-119210800D01*
%TO.N,Net-(R6-Pad2)*%
X115000000Y-104460000D02*
X117040000Y-104460000D01*
X119000000Y-102500000D02*
X119000000Y-109000000D01*
X117040000Y-104460000D02*
X119000000Y-102500000D01*
%TD*%
%TA.AperFunction,Conductor*%
%TO.N,GND*%
G36*
X165002702Y-100200617D02*
G01*
X165412917Y-100218528D01*
X165423654Y-100219468D01*
X165828057Y-100272708D01*
X165838695Y-100274583D01*
X166236925Y-100362869D01*
X166247365Y-100365667D01*
X166636363Y-100488317D01*
X166646524Y-100492015D01*
X167023363Y-100648108D01*
X167033155Y-100652674D01*
X167394965Y-100841020D01*
X167404305Y-100846413D01*
X167689636Y-101028189D01*
X167748309Y-101065568D01*
X167757170Y-101071772D01*
X168080766Y-101320076D01*
X168089053Y-101327030D01*
X168389767Y-101602583D01*
X168397416Y-101610232D01*
X168672969Y-101910946D01*
X168679923Y-101919233D01*
X168928227Y-102242829D01*
X168934431Y-102251690D01*
X168978048Y-102320154D01*
X169143904Y-102580496D01*
X169153578Y-102595680D01*
X169158987Y-102605048D01*
X169347322Y-102966838D01*
X169351894Y-102976642D01*
X169507983Y-103353473D01*
X169511683Y-103363639D01*
X169634331Y-103752630D01*
X169637131Y-103763078D01*
X169725414Y-104161296D01*
X169727292Y-104171950D01*
X169780529Y-104576326D01*
X169781472Y-104587102D01*
X169799382Y-104997297D01*
X169799500Y-105002706D01*
X169799500Y-124997293D01*
X169799382Y-125002702D01*
X169781472Y-125412897D01*
X169780529Y-125423673D01*
X169727292Y-125828049D01*
X169725414Y-125838703D01*
X169637131Y-126236921D01*
X169634331Y-126247369D01*
X169511683Y-126636360D01*
X169507983Y-126646526D01*
X169351894Y-127023357D01*
X169347322Y-127033161D01*
X169158987Y-127394951D01*
X169153578Y-127404319D01*
X168934431Y-127748309D01*
X168928227Y-127757170D01*
X168679923Y-128080766D01*
X168672969Y-128089053D01*
X168397416Y-128389767D01*
X168389767Y-128397416D01*
X168089053Y-128672969D01*
X168080766Y-128679923D01*
X167757170Y-128928227D01*
X167748309Y-128934431D01*
X167404319Y-129153578D01*
X167394951Y-129158987D01*
X167033161Y-129347322D01*
X167023357Y-129351894D01*
X166646526Y-129507983D01*
X166636360Y-129511683D01*
X166247369Y-129634331D01*
X166236921Y-129637131D01*
X165838703Y-129725414D01*
X165828049Y-129727292D01*
X165423673Y-129780529D01*
X165412897Y-129781472D01*
X165002703Y-129799382D01*
X164997294Y-129799500D01*
X105002706Y-129799500D01*
X104997297Y-129799382D01*
X104587102Y-129781472D01*
X104576326Y-129780529D01*
X104171950Y-129727292D01*
X104161296Y-129725414D01*
X103763078Y-129637131D01*
X103752630Y-129634331D01*
X103363639Y-129511683D01*
X103353473Y-129507983D01*
X102976642Y-129351894D01*
X102966838Y-129347322D01*
X102847126Y-129285004D01*
X102605042Y-129158983D01*
X102595686Y-129153582D01*
X102423685Y-129044004D01*
X102251690Y-128934431D01*
X102242829Y-128928227D01*
X101919233Y-128679923D01*
X101910946Y-128672969D01*
X101610232Y-128397416D01*
X101602583Y-128389767D01*
X101327030Y-128089053D01*
X101320076Y-128080766D01*
X101071772Y-127757170D01*
X101065568Y-127748309D01*
X101003859Y-127651446D01*
X100846413Y-127404305D01*
X100841020Y-127394965D01*
X100652674Y-127033155D01*
X100648105Y-127023357D01*
X100638430Y-127000000D01*
X100638430Y-126999999D01*
X102254357Y-126999999D01*
X102254357Y-127000000D01*
X102274884Y-127221535D01*
X102274885Y-127221537D01*
X102335769Y-127435523D01*
X102335775Y-127435538D01*
X102434938Y-127634683D01*
X102434943Y-127634691D01*
X102569020Y-127812238D01*
X102733437Y-127962123D01*
X102733439Y-127962125D01*
X102922595Y-128079245D01*
X102922596Y-128079245D01*
X102922599Y-128079247D01*
X103130060Y-128159618D01*
X103348757Y-128200500D01*
X103348759Y-128200500D01*
X103571241Y-128200500D01*
X103571243Y-128200500D01*
X103789940Y-128159618D01*
X103997401Y-128079247D01*
X104186562Y-127962124D01*
X104350981Y-127812236D01*
X104485058Y-127634689D01*
X104584229Y-127435528D01*
X104645115Y-127221536D01*
X104665643Y-127000000D01*
X104664468Y-126987324D01*
X104645115Y-126778464D01*
X104645114Y-126778462D01*
X104603948Y-126633779D01*
X104584229Y-126564472D01*
X104567392Y-126530658D01*
X104485061Y-126365316D01*
X104485056Y-126365308D01*
X104350979Y-126187761D01*
X104186562Y-126037876D01*
X104186560Y-126037874D01*
X103997404Y-125920754D01*
X103997398Y-125920752D01*
X103789940Y-125840382D01*
X103571243Y-125799500D01*
X103348757Y-125799500D01*
X103130060Y-125840382D01*
X103075169Y-125861647D01*
X102922601Y-125920752D01*
X102922595Y-125920754D01*
X102733439Y-126037874D01*
X102733437Y-126037876D01*
X102569020Y-126187761D01*
X102434943Y-126365308D01*
X102434938Y-126365316D01*
X102335775Y-126564461D01*
X102335769Y-126564476D01*
X102274885Y-126778462D01*
X102274884Y-126778464D01*
X102254357Y-126999999D01*
X100638430Y-126999999D01*
X100492015Y-126646524D01*
X100488316Y-126636360D01*
X100465646Y-126564461D01*
X100365667Y-126247365D01*
X100362868Y-126236921D01*
X100274583Y-125838695D01*
X100272707Y-125828049D01*
X100219468Y-125423654D01*
X100218528Y-125412917D01*
X100200618Y-125002702D01*
X100200500Y-124997293D01*
X100200500Y-122999999D01*
X102254357Y-122999999D01*
X102254357Y-123000000D01*
X102274884Y-123221535D01*
X102274885Y-123221537D01*
X102335769Y-123435523D01*
X102335775Y-123435538D01*
X102434938Y-123634683D01*
X102434943Y-123634691D01*
X102569020Y-123812238D01*
X102733437Y-123962123D01*
X102733439Y-123962125D01*
X102922595Y-124079245D01*
X102922596Y-124079245D01*
X102922599Y-124079247D01*
X103130060Y-124159618D01*
X103348757Y-124200500D01*
X103348759Y-124200500D01*
X103571241Y-124200500D01*
X103571243Y-124200500D01*
X103789940Y-124159618D01*
X103997401Y-124079247D01*
X104186562Y-123962124D01*
X104350981Y-123812236D01*
X104485058Y-123634689D01*
X104584229Y-123435528D01*
X104645115Y-123221536D01*
X104665643Y-123000000D01*
X104645115Y-122778464D01*
X104584229Y-122564472D01*
X104584224Y-122564461D01*
X104485061Y-122365316D01*
X104485056Y-122365308D01*
X104350979Y-122187761D01*
X104186562Y-122037876D01*
X104186560Y-122037874D01*
X103997404Y-121920754D01*
X103997398Y-121920752D01*
X103789940Y-121840382D01*
X103571243Y-121799500D01*
X103348757Y-121799500D01*
X103130060Y-121840382D01*
X103021388Y-121882482D01*
X102922601Y-121920752D01*
X102922595Y-121920754D01*
X102733439Y-122037874D01*
X102733437Y-122037876D01*
X102569020Y-122187761D01*
X102434943Y-122365308D01*
X102434938Y-122365316D01*
X102335775Y-122564461D01*
X102335769Y-122564476D01*
X102274885Y-122778462D01*
X102274884Y-122778464D01*
X102254357Y-122999999D01*
X100200500Y-122999999D01*
X100200500Y-112499999D01*
X109794357Y-112499999D01*
X109794357Y-112500000D01*
X109814884Y-112721535D01*
X109814885Y-112721537D01*
X109875769Y-112935523D01*
X109875775Y-112935538D01*
X109974938Y-113134683D01*
X109974943Y-113134691D01*
X110109020Y-113312238D01*
X110261088Y-113450866D01*
X110271542Y-113460396D01*
X110273437Y-113462123D01*
X110273439Y-113462125D01*
X110462595Y-113579245D01*
X110462596Y-113579245D01*
X110462599Y-113579247D01*
X110670060Y-113659618D01*
X110888757Y-113700500D01*
X110888759Y-113700500D01*
X111111241Y-113700500D01*
X111111243Y-113700500D01*
X111329940Y-113659618D01*
X111331861Y-113658873D01*
X111333889Y-113658494D01*
X111335455Y-113658049D01*
X111335496Y-113658194D01*
X111376655Y-113650500D01*
X114623345Y-113650500D01*
X114664503Y-113658194D01*
X114664545Y-113658049D01*
X114666110Y-113658494D01*
X114668138Y-113658873D01*
X114670060Y-113659618D01*
X114888757Y-113700500D01*
X114972085Y-113700500D01*
X115039124Y-113720185D01*
X115059766Y-113736819D01*
X115969943Y-114646996D01*
X115988994Y-114671556D01*
X116006916Y-114701861D01*
X116006923Y-114701870D01*
X116123129Y-114818076D01*
X116123132Y-114818078D01*
X116123135Y-114818081D01*
X116153444Y-114836005D01*
X116178002Y-114855055D01*
X116250499Y-114927552D01*
X116397006Y-115033996D01*
X116476145Y-115074319D01*
X116558360Y-115116211D01*
X116558363Y-115116212D01*
X116644476Y-115144191D01*
X116730591Y-115172171D01*
X116909454Y-115200501D01*
X116909455Y-115200501D01*
X117090545Y-115200501D01*
X117090546Y-115200501D01*
X117269409Y-115172171D01*
X117441639Y-115116211D01*
X117602994Y-115033996D01*
X117749501Y-114927552D01*
X117821997Y-114855054D01*
X117846553Y-114836006D01*
X117876865Y-114818081D01*
X117993081Y-114701865D01*
X118011005Y-114671556D01*
X118030052Y-114646999D01*
X118237819Y-114439232D01*
X118299142Y-114405748D01*
X118368834Y-114410732D01*
X118424767Y-114452604D01*
X118449184Y-114518068D01*
X118449500Y-114526914D01*
X118449500Y-115565701D01*
X118452401Y-115602567D01*
X118452402Y-115602573D01*
X118498254Y-115760393D01*
X118498255Y-115760396D01*
X118581917Y-115901862D01*
X118581923Y-115901870D01*
X118698129Y-116018076D01*
X118698133Y-116018079D01*
X118698135Y-116018081D01*
X118839602Y-116101744D01*
X118881224Y-116113836D01*
X118997426Y-116147597D01*
X118997429Y-116147597D01*
X118997431Y-116147598D01*
X119034306Y-116150500D01*
X119759454Y-116150500D01*
X124064816Y-116150500D01*
X124094890Y-116154202D01*
X124655575Y-116294372D01*
X124715838Y-116329728D01*
X124747420Y-116392053D01*
X124749500Y-116414670D01*
X124749500Y-116715701D01*
X124752401Y-116752567D01*
X124752402Y-116752573D01*
X124767682Y-116805165D01*
X124771729Y-116825039D01*
X124772258Y-116829469D01*
X124997090Y-117953118D01*
X124999500Y-117977447D01*
X124999500Y-120027084D01*
X124979815Y-120094123D01*
X124963181Y-120114765D01*
X123445451Y-121632494D01*
X123423048Y-121650239D01*
X123273442Y-121742872D01*
X123273437Y-121742876D01*
X123109020Y-121892761D01*
X122974943Y-122070308D01*
X122974938Y-122070316D01*
X122875775Y-122269461D01*
X122875769Y-122269476D01*
X122814885Y-122483462D01*
X122814884Y-122483464D01*
X122794357Y-122704999D01*
X122794357Y-122705000D01*
X122814884Y-122926535D01*
X122814885Y-122926537D01*
X122875769Y-123140523D01*
X122875775Y-123140538D01*
X122974938Y-123339683D01*
X122974943Y-123339691D01*
X123109020Y-123517238D01*
X123273437Y-123667123D01*
X123273439Y-123667125D01*
X123462595Y-123784245D01*
X123462596Y-123784245D01*
X123462599Y-123784247D01*
X123656523Y-123859373D01*
X123711922Y-123901945D01*
X123735513Y-123967712D01*
X123719802Y-124035792D01*
X123669778Y-124084571D01*
X123656521Y-124090626D01*
X123531132Y-124139202D01*
X123523958Y-124141730D01*
X123500689Y-124149138D01*
X123500671Y-124149145D01*
X123489775Y-124154616D01*
X123478941Y-124159421D01*
X123462601Y-124165751D01*
X123445874Y-124176107D01*
X123436243Y-124181492D01*
X123358046Y-124220752D01*
X122331156Y-124736317D01*
X122275521Y-124749500D01*
X122175852Y-124749500D01*
X122124469Y-124738353D01*
X120935192Y-124196863D01*
X120928502Y-124193889D01*
X120928169Y-124193744D01*
X120928160Y-124193740D01*
X120928154Y-124193738D01*
X120892578Y-124180253D01*
X120892573Y-124180251D01*
X120889026Y-124179685D01*
X120863786Y-124172864D01*
X120779940Y-124140382D01*
X120561243Y-124099500D01*
X120338757Y-124099500D01*
X120120060Y-124140382D01*
X120013943Y-124181492D01*
X119912601Y-124220752D01*
X119912595Y-124220754D01*
X119723439Y-124337874D01*
X119723437Y-124337876D01*
X119559020Y-124487761D01*
X119424943Y-124665308D01*
X119424936Y-124665320D01*
X119325771Y-124864470D01*
X119325315Y-124866075D01*
X119322183Y-124875597D01*
X118868827Y-126086882D01*
X118840376Y-126131097D01*
X118058294Y-126913181D01*
X117996971Y-126946666D01*
X117970613Y-126949500D01*
X117130606Y-126949500D01*
X117077084Y-126937354D01*
X117056864Y-126927679D01*
X116442649Y-126633779D01*
X116092226Y-126466103D01*
X116040249Y-126419411D01*
X116033894Y-126407771D01*
X116032651Y-126405174D01*
X115761598Y-125838703D01*
X115562646Y-125422914D01*
X115550500Y-125369392D01*
X115550500Y-123130606D01*
X115562646Y-123077084D01*
X115705535Y-122778462D01*
X116284338Y-121568832D01*
X116288916Y-121558923D01*
X116289167Y-121558360D01*
X116304334Y-121518938D01*
X116304335Y-121518933D01*
X116306018Y-121512675D01*
X116306956Y-121512927D01*
X116312243Y-121494858D01*
X116329155Y-121456305D01*
X116329157Y-121456299D01*
X116329158Y-121456298D01*
X116386134Y-121231305D01*
X116388577Y-121201820D01*
X116405300Y-121000006D01*
X116405300Y-120999993D01*
X116386135Y-120768702D01*
X116386133Y-120768691D01*
X116329157Y-120543699D01*
X116235924Y-120331151D01*
X116108983Y-120136852D01*
X116108980Y-120136849D01*
X116108979Y-120136847D01*
X115951784Y-119966087D01*
X115951779Y-119966083D01*
X115951777Y-119966081D01*
X115768634Y-119823535D01*
X115768628Y-119823531D01*
X115564504Y-119713064D01*
X115564495Y-119713061D01*
X115344984Y-119637702D01*
X115125523Y-119601081D01*
X115116049Y-119599500D01*
X114883951Y-119599500D01*
X114874477Y-119601081D01*
X114655015Y-119637702D01*
X114435504Y-119713061D01*
X114435495Y-119713064D01*
X114231371Y-119823531D01*
X114231365Y-119823535D01*
X114048222Y-119966081D01*
X114048219Y-119966084D01*
X113891016Y-120136852D01*
X113764075Y-120331151D01*
X113670842Y-120543699D01*
X113613866Y-120768691D01*
X113613864Y-120768702D01*
X113594700Y-120999993D01*
X113594700Y-121000006D01*
X113613864Y-121231297D01*
X113613866Y-121231308D01*
X113670842Y-121456298D01*
X113670843Y-121456302D01*
X113702981Y-121529569D01*
X113708274Y-121544009D01*
X113715661Y-121568832D01*
X114400469Y-123000000D01*
X114437354Y-123077084D01*
X114449500Y-123130606D01*
X114449500Y-125369392D01*
X114437354Y-125422914D01*
X113715683Y-126931119D01*
X113711073Y-126941097D01*
X113710833Y-126941636D01*
X113695665Y-126981059D01*
X113693981Y-126987324D01*
X113693097Y-126987086D01*
X113687759Y-127005132D01*
X113670843Y-127043697D01*
X113670842Y-127043701D01*
X113613866Y-127268691D01*
X113613864Y-127268702D01*
X113594700Y-127499993D01*
X113594700Y-127500006D01*
X113613864Y-127731297D01*
X113613866Y-127731308D01*
X113670842Y-127956300D01*
X113764075Y-128168848D01*
X113891016Y-128363147D01*
X113891019Y-128363151D01*
X113891021Y-128363153D01*
X114048216Y-128533913D01*
X114048219Y-128533915D01*
X114048222Y-128533918D01*
X114231365Y-128676464D01*
X114231371Y-128676468D01*
X114231374Y-128676470D01*
X114398860Y-128767109D01*
X114429818Y-128783863D01*
X114435497Y-128786936D01*
X114549487Y-128826068D01*
X114655015Y-128862297D01*
X114655017Y-128862297D01*
X114655019Y-128862298D01*
X114883951Y-128900500D01*
X114883952Y-128900500D01*
X115116048Y-128900500D01*
X115116049Y-128900500D01*
X115344981Y-128862298D01*
X115564503Y-128786936D01*
X115570223Y-128783840D01*
X115575661Y-128781069D01*
X117077082Y-128062645D01*
X117130604Y-128050500D01*
X118322472Y-128050500D01*
X118322474Y-128050500D01*
X118322475Y-128050500D01*
X118462485Y-128012984D01*
X118588015Y-127940510D01*
X119618904Y-126909619D01*
X119663113Y-126881172D01*
X120886956Y-126423116D01*
X120893088Y-126420764D01*
X120893452Y-126420621D01*
X120919208Y-126409049D01*
X120930643Y-126404924D01*
X120930600Y-126404806D01*
X120935180Y-126403140D01*
X120935180Y-126403139D01*
X120935187Y-126403138D01*
X122124467Y-125861647D01*
X122175850Y-125850500D01*
X122293113Y-125850500D01*
X122340771Y-125860023D01*
X123527192Y-126353957D01*
X123527192Y-126353956D01*
X123551920Y-126364251D01*
X123557267Y-126365104D01*
X123557271Y-126365106D01*
X123562651Y-126365964D01*
X123587898Y-126372787D01*
X123670060Y-126404618D01*
X123888757Y-126445500D01*
X123888759Y-126445500D01*
X124111241Y-126445500D01*
X124111243Y-126445500D01*
X124329940Y-126404618D01*
X124537401Y-126324247D01*
X124726562Y-126207124D01*
X124890981Y-126057236D01*
X125025058Y-125879689D01*
X125124229Y-125680528D01*
X125180214Y-125483760D01*
X125217493Y-125424667D01*
X125280803Y-125395110D01*
X125350042Y-125404472D01*
X125387161Y-125430014D01*
X125700924Y-125743777D01*
X125717663Y-125764582D01*
X125722882Y-125772732D01*
X126718179Y-126892443D01*
X126748005Y-126955626D01*
X126749500Y-126974823D01*
X126749500Y-127297317D01*
X126760292Y-127365457D01*
X126764354Y-127391104D01*
X126821950Y-127504142D01*
X126821952Y-127504144D01*
X126821954Y-127504147D01*
X126911652Y-127593845D01*
X126911654Y-127593846D01*
X126911658Y-127593850D01*
X126991813Y-127634691D01*
X127024698Y-127651447D01*
X127118475Y-127666299D01*
X127118481Y-127666300D01*
X128881518Y-127666299D01*
X128975304Y-127651446D01*
X129088342Y-127593850D01*
X129178050Y-127504142D01*
X129235646Y-127391104D01*
X129235646Y-127391102D01*
X129235647Y-127391101D01*
X129250499Y-127297324D01*
X129250500Y-127297319D01*
X129250499Y-126415797D01*
X131824723Y-126415797D01*
X131824723Y-126415802D01*
X131843793Y-126633775D01*
X131843793Y-126633779D01*
X131900422Y-126845122D01*
X131900424Y-126845126D01*
X131900425Y-126845130D01*
X131923502Y-126894618D01*
X131992897Y-127043438D01*
X131993081Y-127043701D01*
X132118402Y-127222677D01*
X132273123Y-127377398D01*
X132452361Y-127502902D01*
X132650670Y-127595375D01*
X132862023Y-127652007D01*
X133044926Y-127668008D01*
X133079998Y-127671077D01*
X133080000Y-127671077D01*
X133080002Y-127671077D01*
X133108254Y-127668605D01*
X133297977Y-127652007D01*
X133509330Y-127595375D01*
X133707639Y-127502902D01*
X133886877Y-127377398D01*
X134041598Y-127222677D01*
X134167102Y-127043439D01*
X134235655Y-126896424D01*
X134239930Y-126888093D01*
X134242087Y-126884257D01*
X134292089Y-126835463D01*
X134360539Y-126821446D01*
X134425700Y-126846661D01*
X134462564Y-126892608D01*
X134532897Y-127043438D01*
X134533081Y-127043701D01*
X134658402Y-127222677D01*
X134813123Y-127377398D01*
X134992361Y-127502902D01*
X135190670Y-127595375D01*
X135402023Y-127652007D01*
X135584926Y-127668008D01*
X135619998Y-127671077D01*
X135620000Y-127671077D01*
X135620002Y-127671077D01*
X135648254Y-127668605D01*
X135837977Y-127652007D01*
X136049330Y-127595375D01*
X136247639Y-127502902D01*
X136426877Y-127377398D01*
X136581598Y-127222677D01*
X136707102Y-127043439D01*
X136776513Y-126894583D01*
X136780631Y-126886537D01*
X136781867Y-126884325D01*
X136831762Y-126835417D01*
X136900180Y-126821247D01*
X136965397Y-126846316D01*
X137002482Y-126892432D01*
X137072897Y-127043438D01*
X137073081Y-127043701D01*
X137198402Y-127222677D01*
X137353123Y-127377398D01*
X137532361Y-127502902D01*
X137730670Y-127595375D01*
X137942023Y-127652007D01*
X138124926Y-127668008D01*
X138159998Y-127671077D01*
X138160000Y-127671077D01*
X138160002Y-127671077D01*
X138188254Y-127668605D01*
X138377977Y-127652007D01*
X138589330Y-127595375D01*
X138787639Y-127502902D01*
X138966877Y-127377398D01*
X139121598Y-127222677D01*
X139247102Y-127043439D01*
X139316513Y-126894583D01*
X139320627Y-126886543D01*
X139330064Y-126869659D01*
X139335471Y-126854958D01*
X139339472Y-126845350D01*
X139339575Y-126845130D01*
X139339576Y-126845124D01*
X139339580Y-126845117D01*
X139339791Y-126844537D01*
X139342828Y-126834959D01*
X139347799Y-126821446D01*
X139497024Y-126415797D01*
X141984723Y-126415797D01*
X141984723Y-126415802D01*
X142003793Y-126633775D01*
X142003793Y-126633779D01*
X142060422Y-126845122D01*
X142060424Y-126845126D01*
X142060425Y-126845130D01*
X142083502Y-126894618D01*
X142152897Y-127043438D01*
X142153081Y-127043701D01*
X142278402Y-127222677D01*
X142433123Y-127377398D01*
X142612361Y-127502902D01*
X142810670Y-127595375D01*
X143022023Y-127652007D01*
X143204926Y-127668008D01*
X143239998Y-127671077D01*
X143240000Y-127671077D01*
X143240002Y-127671077D01*
X143268254Y-127668605D01*
X143457977Y-127652007D01*
X143669330Y-127595375D01*
X143867639Y-127502902D01*
X144046877Y-127377398D01*
X144201598Y-127222677D01*
X144327102Y-127043439D01*
X144396513Y-126894583D01*
X144400631Y-126886537D01*
X144401867Y-126884325D01*
X144451762Y-126835417D01*
X144520180Y-126821247D01*
X144585397Y-126846316D01*
X144622482Y-126892432D01*
X144692897Y-127043438D01*
X144693081Y-127043701D01*
X144818402Y-127222677D01*
X144973123Y-127377398D01*
X145152361Y-127502902D01*
X145350670Y-127595375D01*
X145562023Y-127652007D01*
X145744926Y-127668008D01*
X145779998Y-127671077D01*
X145780000Y-127671077D01*
X145780002Y-127671077D01*
X145808254Y-127668605D01*
X145997977Y-127652007D01*
X146209330Y-127595375D01*
X146407639Y-127502902D01*
X146586877Y-127377398D01*
X146741598Y-127222677D01*
X146867102Y-127043439D01*
X146936513Y-126894583D01*
X146940631Y-126886537D01*
X146941867Y-126884325D01*
X146991762Y-126835417D01*
X147060180Y-126821247D01*
X147125397Y-126846316D01*
X147162482Y-126892432D01*
X147232897Y-127043438D01*
X147233081Y-127043701D01*
X147358402Y-127222677D01*
X147513123Y-127377398D01*
X147692361Y-127502902D01*
X147890670Y-127595375D01*
X148102023Y-127652007D01*
X148284926Y-127668008D01*
X148319998Y-127671077D01*
X148320000Y-127671077D01*
X148320002Y-127671077D01*
X148348254Y-127668605D01*
X148537977Y-127652007D01*
X148749330Y-127595375D01*
X148947639Y-127502902D01*
X149126877Y-127377398D01*
X149281598Y-127222677D01*
X149407102Y-127043439D01*
X149477618Y-126892214D01*
X149523790Y-126839777D01*
X149590984Y-126820625D01*
X149657865Y-126840841D01*
X149702381Y-126892214D01*
X149772898Y-127043439D01*
X149898402Y-127222677D01*
X150053123Y-127377398D01*
X150232361Y-127502902D01*
X150430670Y-127595375D01*
X150642023Y-127652007D01*
X150824926Y-127668008D01*
X150859998Y-127671077D01*
X150860000Y-127671077D01*
X150860002Y-127671077D01*
X150888254Y-127668605D01*
X151077977Y-127652007D01*
X151289330Y-127595375D01*
X151487639Y-127502902D01*
X151666877Y-127377398D01*
X151821598Y-127222677D01*
X151947102Y-127043439D01*
X152039575Y-126845130D01*
X152096207Y-126633777D01*
X152114855Y-126420621D01*
X152115277Y-126415802D01*
X152115277Y-126415797D01*
X152110767Y-126364251D01*
X152096207Y-126197823D01*
X152039575Y-125986470D01*
X151947102Y-125788162D01*
X151947100Y-125788159D01*
X151947099Y-125788157D01*
X151821599Y-125608924D01*
X151744957Y-125532282D01*
X151666877Y-125454202D01*
X151487642Y-125328700D01*
X151487638Y-125328697D01*
X151370656Y-125274148D01*
X151289330Y-125236225D01*
X151289326Y-125236224D01*
X151289322Y-125236222D01*
X151077977Y-125179593D01*
X150860002Y-125160523D01*
X150859998Y-125160523D01*
X150714682Y-125173236D01*
X150642023Y-125179593D01*
X150642020Y-125179593D01*
X150430677Y-125236222D01*
X150430670Y-125236224D01*
X150430670Y-125236225D01*
X150427391Y-125237754D01*
X150232361Y-125328698D01*
X150232357Y-125328700D01*
X150053121Y-125454202D01*
X149898402Y-125608921D01*
X149772900Y-125788157D01*
X149772898Y-125788161D01*
X149702382Y-125939383D01*
X149656209Y-125991822D01*
X149589016Y-126010974D01*
X149522135Y-125990758D01*
X149477618Y-125939383D01*
X149436171Y-125850500D01*
X149407102Y-125788162D01*
X149407100Y-125788159D01*
X149407099Y-125788157D01*
X149281599Y-125608924D01*
X149204957Y-125532282D01*
X149126877Y-125454202D01*
X148947642Y-125328700D01*
X148947638Y-125328697D01*
X148830656Y-125274148D01*
X148749330Y-125236225D01*
X148749326Y-125236224D01*
X148749322Y-125236222D01*
X148537977Y-125179593D01*
X148320002Y-125160523D01*
X148319998Y-125160523D01*
X148104659Y-125179362D01*
X148036159Y-125165595D01*
X147985976Y-125116980D01*
X147970043Y-125048951D01*
X147993419Y-124983108D01*
X148006167Y-124968156D01*
X148345510Y-124628815D01*
X148417984Y-124503285D01*
X148425493Y-124475263D01*
X148455500Y-124363275D01*
X148455500Y-119190447D01*
X148475185Y-119123408D01*
X148527989Y-119077653D01*
X148597147Y-119067709D01*
X148660703Y-119096734D01*
X148698477Y-119155512D01*
X148699266Y-119158323D01*
X148704780Y-119178902D01*
X148708608Y-119193188D01*
X148712830Y-119200500D01*
X148774500Y-119307315D01*
X148774501Y-119307316D01*
X148774502Y-119307317D01*
X149048181Y-119580996D01*
X149081666Y-119642319D01*
X149084500Y-119668677D01*
X149084500Y-119869091D01*
X149118608Y-119996387D01*
X149151554Y-120053450D01*
X149184500Y-120110514D01*
X150046301Y-120972315D01*
X150139487Y-121065501D01*
X150253615Y-121131393D01*
X150380909Y-121165501D01*
X154526325Y-121165501D01*
X154593364Y-121185186D01*
X154614006Y-121201820D01*
X155491589Y-122079403D01*
X155521187Y-122126815D01*
X155825898Y-123014249D01*
X155918989Y-123285369D01*
X155920973Y-123291691D01*
X155922593Y-123297384D01*
X155922597Y-123297395D01*
X155926250Y-123304731D01*
X155928686Y-123309920D01*
X155941770Y-123339559D01*
X155942329Y-123340533D01*
X155952166Y-123356778D01*
X156017632Y-123488253D01*
X156039521Y-123517238D01*
X156146128Y-123658407D01*
X156303698Y-123802052D01*
X156484981Y-123914298D01*
X156683802Y-123991321D01*
X156893390Y-124030500D01*
X156893392Y-124030500D01*
X157106608Y-124030500D01*
X157106610Y-124030500D01*
X157316198Y-123991321D01*
X157441866Y-123942636D01*
X157450246Y-123939732D01*
X157476257Y-123931756D01*
X157495616Y-123922292D01*
X157505243Y-123918084D01*
X157515019Y-123914298D01*
X157521173Y-123910486D01*
X157531989Y-123904513D01*
X158491451Y-123435528D01*
X158578260Y-123393096D01*
X158632714Y-123380500D01*
X159269318Y-123380500D01*
X159332936Y-123398063D01*
X160256691Y-123950216D01*
X160268578Y-123959048D01*
X160268865Y-123958670D01*
X160273434Y-123962120D01*
X160273438Y-123962124D01*
X160273440Y-123962125D01*
X160273444Y-123962128D01*
X160462595Y-124079245D01*
X160462601Y-124079248D01*
X160469736Y-124082012D01*
X160488661Y-124089343D01*
X160499599Y-124094201D01*
X160500016Y-124094411D01*
X160500031Y-124094419D01*
X160501544Y-124095180D01*
X160501553Y-124095183D01*
X160501560Y-124095187D01*
X160557968Y-124118420D01*
X160557969Y-124118420D01*
X160557971Y-124118421D01*
X160557972Y-124118421D01*
X160564917Y-124120377D01*
X160564844Y-124120634D01*
X160580013Y-124124733D01*
X160670060Y-124159618D01*
X160888757Y-124200500D01*
X160888759Y-124200500D01*
X161111241Y-124200500D01*
X161111243Y-124200500D01*
X161329940Y-124159618D01*
X161537401Y-124079247D01*
X161726562Y-123962124D01*
X161890981Y-123812236D01*
X162025058Y-123634689D01*
X162124229Y-123435528D01*
X162185115Y-123221536D01*
X162205643Y-123000000D01*
X162185115Y-122778464D01*
X162124229Y-122564472D01*
X162124224Y-122564461D01*
X162025061Y-122365316D01*
X162025056Y-122365308D01*
X161890979Y-122187761D01*
X161726562Y-122037876D01*
X161726560Y-122037874D01*
X161537404Y-121920754D01*
X161537398Y-121920752D01*
X161329940Y-121840382D01*
X161111243Y-121799500D01*
X160888757Y-121799500D01*
X160763735Y-121822871D01*
X160670054Y-121840383D01*
X160569411Y-121879372D01*
X160553008Y-121884451D01*
X160529661Y-121889942D01*
X159950154Y-122126815D01*
X159366676Y-122365311D01*
X159354514Y-122370282D01*
X159307597Y-122379500D01*
X158632716Y-122379500D01*
X158578262Y-122366904D01*
X157990086Y-122079403D01*
X157531986Y-121855483D01*
X157521164Y-121849507D01*
X157515018Y-121845701D01*
X157505256Y-121841919D01*
X157495606Y-121837700D01*
X157476262Y-121828245D01*
X157465471Y-121823165D01*
X157464822Y-121822871D01*
X157419860Y-121805416D01*
X157407940Y-121799963D01*
X157406942Y-121799530D01*
X156246815Y-121401187D01*
X156199403Y-121371589D01*
X155355494Y-120527680D01*
X155322009Y-120466357D01*
X155326993Y-120396665D01*
X155355490Y-120352323D01*
X156199405Y-119508407D01*
X156246811Y-119478813D01*
X157057365Y-119200500D01*
X157406916Y-119080478D01*
X157406941Y-119080469D01*
X157418636Y-119076252D01*
X157419300Y-119076001D01*
X157459555Y-119058231D01*
X157459557Y-119058229D01*
X157462888Y-119056759D01*
X157475206Y-119052170D01*
X157476252Y-119051758D01*
X157476254Y-119051756D01*
X157476257Y-119051756D01*
X157495613Y-119042293D01*
X157505238Y-119038086D01*
X157515019Y-119034298D01*
X157521173Y-119030486D01*
X157531989Y-119024513D01*
X158510786Y-118546077D01*
X158578260Y-118513096D01*
X158632714Y-118500500D01*
X159266234Y-118500500D01*
X159321149Y-118513322D01*
X160440522Y-119066241D01*
X160450860Y-119071978D01*
X160462599Y-119079247D01*
X160462604Y-119079249D01*
X160462606Y-119079250D01*
X160477159Y-119084888D01*
X160487262Y-119089329D01*
X160503073Y-119097139D01*
X160515102Y-119102837D01*
X160515794Y-119103151D01*
X160515811Y-119103157D01*
X160515812Y-119103158D01*
X160557564Y-119119385D01*
X160557565Y-119119385D01*
X160557570Y-119119387D01*
X160559279Y-119119659D01*
X160584525Y-119126481D01*
X160670060Y-119159618D01*
X160888757Y-119200500D01*
X160888759Y-119200500D01*
X161111241Y-119200500D01*
X161111243Y-119200500D01*
X161329940Y-119159618D01*
X161537401Y-119079247D01*
X161726562Y-118962124D01*
X161890981Y-118812236D01*
X162025058Y-118634689D01*
X162124229Y-118435528D01*
X162185115Y-118221536D01*
X162205643Y-118000000D01*
X162185115Y-117778464D01*
X162124229Y-117564472D01*
X162091877Y-117499500D01*
X162025061Y-117365316D01*
X162025056Y-117365308D01*
X161890979Y-117187761D01*
X161726562Y-117037876D01*
X161726560Y-117037874D01*
X161537404Y-116920754D01*
X161537398Y-116920752D01*
X161534458Y-116919613D01*
X161329940Y-116840382D01*
X161111243Y-116799500D01*
X160888757Y-116799500D01*
X160781570Y-116819537D01*
X160670054Y-116840383D01*
X160536052Y-116892295D01*
X160528115Y-116895064D01*
X160503082Y-116902856D01*
X160503076Y-116902858D01*
X160503074Y-116902859D01*
X160487245Y-116910677D01*
X160477147Y-116915117D01*
X160462593Y-116920755D01*
X160450866Y-116928016D01*
X160440511Y-116933761D01*
X159321150Y-117486676D01*
X159266234Y-117499500D01*
X158632716Y-117499500D01*
X158578262Y-117486904D01*
X158035483Y-117221593D01*
X157531986Y-116975483D01*
X157521164Y-116969507D01*
X157515018Y-116965701D01*
X157505256Y-116961919D01*
X157495606Y-116957700D01*
X157476262Y-116948245D01*
X157465471Y-116943165D01*
X157464817Y-116942869D01*
X157423319Y-116926759D01*
X157423317Y-116926758D01*
X157423316Y-116926758D01*
X157421281Y-116926433D01*
X157396050Y-116919613D01*
X157316202Y-116888680D01*
X157316199Y-116888679D01*
X157316198Y-116888679D01*
X157106610Y-116849500D01*
X156893390Y-116849500D01*
X156683802Y-116888679D01*
X156683799Y-116888679D01*
X156683799Y-116888680D01*
X156484982Y-116965701D01*
X156484980Y-116965702D01*
X156303699Y-117077947D01*
X156146127Y-117221593D01*
X156017632Y-117391746D01*
X155922598Y-117582603D01*
X155922593Y-117582616D01*
X155920967Y-117588329D01*
X155918984Y-117594649D01*
X155521186Y-118753184D01*
X155491588Y-118800596D01*
X154614006Y-119678180D01*
X154552683Y-119711665D01*
X154526325Y-119714499D01*
X150891875Y-119714499D01*
X150824836Y-119694814D01*
X150804194Y-119678180D01*
X150727095Y-119601081D01*
X150693610Y-119539758D01*
X150698594Y-119470066D01*
X150727092Y-119425721D01*
X150845500Y-119307315D01*
X150911392Y-119193187D01*
X150945500Y-119065893D01*
X150945500Y-118934108D01*
X150945500Y-118930986D01*
X150957726Y-118877296D01*
X150964306Y-118863598D01*
X151097090Y-118587161D01*
X151107490Y-118563623D01*
X151112465Y-118542106D01*
X151117921Y-118524559D01*
X151134875Y-118481568D01*
X151134877Y-118481564D01*
X151145500Y-118393102D01*
X151145500Y-116606898D01*
X151134877Y-116518436D01*
X151079361Y-116377658D01*
X151079360Y-116377657D01*
X151079360Y-116377656D01*
X150987922Y-116257077D01*
X150867343Y-116165639D01*
X150726561Y-116110122D01*
X150680926Y-116104642D01*
X150638102Y-116099500D01*
X150251898Y-116099500D01*
X150212853Y-116104188D01*
X150163438Y-116110122D01*
X150022656Y-116165639D01*
X149902075Y-116257079D01*
X149897681Y-116261474D01*
X149836358Y-116294959D01*
X149766666Y-116289975D01*
X149722319Y-116261474D01*
X149717924Y-116257079D01*
X149597343Y-116165639D01*
X149456561Y-116110122D01*
X149410926Y-116104642D01*
X149368102Y-116099500D01*
X148981898Y-116099500D01*
X148942853Y-116104188D01*
X148893438Y-116110122D01*
X148752656Y-116165639D01*
X148632075Y-116257079D01*
X148627681Y-116261474D01*
X148566358Y-116294959D01*
X148496666Y-116289975D01*
X148452319Y-116261474D01*
X148447924Y-116257079D01*
X148327343Y-116165639D01*
X148186561Y-116110122D01*
X148140926Y-116104642D01*
X148098102Y-116099500D01*
X147711898Y-116099500D01*
X147672853Y-116104188D01*
X147623438Y-116110122D01*
X147482656Y-116165639D01*
X147362075Y-116257079D01*
X147357681Y-116261474D01*
X147296358Y-116294959D01*
X147226666Y-116289975D01*
X147182319Y-116261474D01*
X147177924Y-116257079D01*
X147057343Y-116165639D01*
X146916561Y-116110122D01*
X146870926Y-116104642D01*
X146828102Y-116099500D01*
X146441898Y-116099500D01*
X146402853Y-116104188D01*
X146353438Y-116110122D01*
X146212656Y-116165639D01*
X146092077Y-116257077D01*
X146000639Y-116377656D01*
X145945122Y-116518438D01*
X145939188Y-116567853D01*
X145934500Y-116606898D01*
X145934500Y-118393102D01*
X145939595Y-118435528D01*
X145945123Y-118481564D01*
X145956357Y-118510055D01*
X145962946Y-118533059D01*
X145965346Y-118546077D01*
X145996626Y-118634691D01*
X146067107Y-118834360D01*
X146077429Y-118863600D01*
X146084500Y-118904875D01*
X146084500Y-122741412D01*
X146064815Y-122808451D01*
X146048181Y-122829093D01*
X144142798Y-124734475D01*
X144097928Y-124763169D01*
X142820817Y-125232977D01*
X142811252Y-125236012D01*
X142810667Y-125236225D01*
X142810428Y-125236337D01*
X142800862Y-125240318D01*
X142795251Y-125242382D01*
X142786059Y-125245764D01*
X142778059Y-125248804D01*
X142777651Y-125248965D01*
X142777616Y-125248979D01*
X142742017Y-125264961D01*
X142742010Y-125264965D01*
X142738939Y-125267191D01*
X142718587Y-125279162D01*
X142612367Y-125328694D01*
X142612360Y-125328698D01*
X142433121Y-125454202D01*
X142278402Y-125608921D01*
X142152900Y-125788157D01*
X142152898Y-125788161D01*
X142060426Y-125986468D01*
X142060422Y-125986477D01*
X142003793Y-126197820D01*
X142003793Y-126197824D01*
X141984723Y-126415797D01*
X139497024Y-126415797D01*
X139812629Y-125557868D01*
X139841320Y-125513003D01*
X144535509Y-120818815D01*
X144607984Y-120693285D01*
X144608734Y-120690484D01*
X144616372Y-120661984D01*
X144627033Y-120622193D01*
X144645500Y-120553275D01*
X144645500Y-118904873D01*
X144652571Y-118863598D01*
X144764653Y-118546075D01*
X144765893Y-118542511D01*
X144767738Y-118531944D01*
X144774535Y-118507787D01*
X144784877Y-118481564D01*
X144795500Y-118393102D01*
X144795500Y-116606898D01*
X144784877Y-116518436D01*
X144729361Y-116377658D01*
X144729360Y-116377657D01*
X144729360Y-116377656D01*
X144637922Y-116257077D01*
X144517343Y-116165639D01*
X144376561Y-116110122D01*
X144330926Y-116104642D01*
X144288102Y-116099500D01*
X143901898Y-116099500D01*
X143862853Y-116104188D01*
X143813438Y-116110122D01*
X143672656Y-116165639D01*
X143552075Y-116257079D01*
X143547681Y-116261474D01*
X143486358Y-116294959D01*
X143416666Y-116289975D01*
X143372319Y-116261474D01*
X143367924Y-116257079D01*
X143247343Y-116165639D01*
X143106561Y-116110122D01*
X143060926Y-116104642D01*
X143018102Y-116099500D01*
X142631898Y-116099500D01*
X142592853Y-116104188D01*
X142543438Y-116110122D01*
X142402656Y-116165639D01*
X142282075Y-116257079D01*
X142277681Y-116261474D01*
X142216358Y-116294959D01*
X142146666Y-116289975D01*
X142102319Y-116261474D01*
X142097924Y-116257079D01*
X141977343Y-116165639D01*
X141836561Y-116110122D01*
X141790926Y-116104642D01*
X141748102Y-116099500D01*
X141361898Y-116099500D01*
X141322853Y-116104188D01*
X141273438Y-116110122D01*
X141132656Y-116165639D01*
X141012077Y-116257077D01*
X140920639Y-116377656D01*
X140865122Y-116518438D01*
X140859188Y-116567853D01*
X140854500Y-116606898D01*
X140854500Y-116606903D01*
X140854500Y-117322691D01*
X140847797Y-117362909D01*
X140589298Y-118116828D01*
X140559682Y-118164291D01*
X133986030Y-124737943D01*
X133940799Y-124766770D01*
X132662094Y-125232671D01*
X132651774Y-125235928D01*
X132650679Y-125236221D01*
X132650663Y-125236227D01*
X132649564Y-125236740D01*
X132639628Y-125240857D01*
X132627355Y-125245329D01*
X132618975Y-125248487D01*
X132618527Y-125248661D01*
X132582032Y-125264994D01*
X132582031Y-125264995D01*
X132579123Y-125267103D01*
X132558761Y-125279082D01*
X132452359Y-125328699D01*
X132273121Y-125454202D01*
X132118402Y-125608921D01*
X131992900Y-125788157D01*
X131992898Y-125788161D01*
X131900426Y-125986468D01*
X131900422Y-125986477D01*
X131843793Y-126197820D01*
X131843793Y-126197824D01*
X131824723Y-126415797D01*
X129250499Y-126415797D01*
X129250499Y-125534282D01*
X129235646Y-125440496D01*
X129178050Y-125327458D01*
X129178046Y-125327454D01*
X129178045Y-125327452D01*
X129088347Y-125237754D01*
X129088344Y-125237752D01*
X129088342Y-125237750D01*
X129011517Y-125198605D01*
X128975301Y-125180152D01*
X128881524Y-125165300D01*
X128881519Y-125165300D01*
X128559023Y-125165300D01*
X128491984Y-125145615D01*
X128476642Y-125133979D01*
X127356932Y-124138681D01*
X127353885Y-124136104D01*
X127341695Y-124125795D01*
X127341685Y-124125789D01*
X127337081Y-124122563D01*
X127337517Y-124121939D01*
X127319123Y-124107870D01*
X125859333Y-122648080D01*
X125825848Y-122586757D01*
X125830832Y-122517065D01*
X125859331Y-122472720D01*
X126892432Y-121439620D01*
X126892439Y-121439614D01*
X126899499Y-121432554D01*
X126899501Y-121432553D01*
X127027553Y-121304501D01*
X127133996Y-121157994D01*
X127216211Y-120996639D01*
X127272171Y-120824409D01*
X127273057Y-120818815D01*
X127300501Y-120645547D01*
X127300501Y-120464454D01*
X127300501Y-120460053D01*
X127300500Y-120460038D01*
X127300500Y-117977446D01*
X127302910Y-117953117D01*
X127527740Y-116829472D01*
X127530578Y-116813623D01*
X127533557Y-116800893D01*
X127547598Y-116752569D01*
X127550500Y-116715694D01*
X127550500Y-116338575D01*
X127570185Y-116271536D01*
X127586819Y-116250894D01*
X129400894Y-114436819D01*
X129462217Y-114403334D01*
X129488575Y-114400500D01*
X138124558Y-114400500D01*
X138124565Y-114400500D01*
X138371565Y-114367982D01*
X138612207Y-114303502D01*
X138842373Y-114208164D01*
X139058127Y-114083599D01*
X139255776Y-113931938D01*
X139431938Y-113755776D01*
X139583599Y-113558127D01*
X139708164Y-113342373D01*
X139803502Y-113112207D01*
X139867982Y-112871565D01*
X139900500Y-112624565D01*
X139900500Y-112375435D01*
X139867982Y-112128435D01*
X139803502Y-111887793D01*
X139746633Y-111750499D01*
X139708169Y-111657638D01*
X139708162Y-111657623D01*
X139583599Y-111441873D01*
X139431939Y-111244225D01*
X139431933Y-111244218D01*
X139255781Y-111068066D01*
X139255774Y-111068060D01*
X139058126Y-110916400D01*
X138842376Y-110791837D01*
X138842361Y-110791830D01*
X138612207Y-110696498D01*
X138474569Y-110659618D01*
X138371565Y-110632018D01*
X138371564Y-110632017D01*
X138371561Y-110632017D01*
X138124575Y-110599501D01*
X138124570Y-110599500D01*
X138124565Y-110599500D01*
X138124558Y-110599500D01*
X130131468Y-110599500D01*
X130064429Y-110579815D01*
X130043787Y-110563181D01*
X129436819Y-109956213D01*
X129403334Y-109894890D01*
X129400500Y-109868532D01*
X129400500Y-103555797D01*
X131824723Y-103555797D01*
X131824723Y-103555802D01*
X131828363Y-103597406D01*
X131841106Y-103743069D01*
X131843793Y-103773775D01*
X131843793Y-103773779D01*
X131900422Y-103985122D01*
X131900424Y-103985126D01*
X131900425Y-103985130D01*
X131924870Y-104037552D01*
X131992897Y-104183438D01*
X131992898Y-104183439D01*
X132118402Y-104362677D01*
X132273123Y-104517398D01*
X132452361Y-104642902D01*
X132610843Y-104716803D01*
X132617628Y-104720224D01*
X132630867Y-104727417D01*
X132636677Y-104729476D01*
X132647662Y-104733972D01*
X132650670Y-104735375D01*
X132656817Y-104737022D01*
X132666132Y-104739915D01*
X133948981Y-105194568D01*
X133995238Y-105223763D01*
X140557158Y-111785683D01*
X140587327Y-111834797D01*
X140662486Y-112064461D01*
X140846524Y-112626827D01*
X140846525Y-112626830D01*
X140848349Y-112632405D01*
X140854500Y-112670972D01*
X140854500Y-113393102D01*
X140860126Y-113439954D01*
X140865122Y-113481561D01*
X140865122Y-113481563D01*
X140865123Y-113481564D01*
X140870547Y-113495319D01*
X140920639Y-113622343D01*
X141012077Y-113742922D01*
X141132656Y-113834360D01*
X141132657Y-113834360D01*
X141132658Y-113834361D01*
X141273436Y-113889877D01*
X141361898Y-113900500D01*
X141361903Y-113900500D01*
X141748097Y-113900500D01*
X141748102Y-113900500D01*
X141836564Y-113889877D01*
X141977342Y-113834361D01*
X142097922Y-113742922D01*
X142097924Y-113742920D01*
X142102319Y-113738526D01*
X142163642Y-113705041D01*
X142233334Y-113710025D01*
X142277681Y-113738526D01*
X142282075Y-113742920D01*
X142402656Y-113834360D01*
X142402657Y-113834360D01*
X142402658Y-113834361D01*
X142543436Y-113889877D01*
X142631898Y-113900500D01*
X142631903Y-113900500D01*
X143018097Y-113900500D01*
X143018102Y-113900500D01*
X143106564Y-113889877D01*
X143247342Y-113834361D01*
X143367922Y-113742922D01*
X143367924Y-113742920D01*
X143372319Y-113738526D01*
X143433642Y-113705041D01*
X143503334Y-113710025D01*
X143547681Y-113738526D01*
X143552075Y-113742920D01*
X143672656Y-113834360D01*
X143672657Y-113834360D01*
X143672658Y-113834361D01*
X143813436Y-113889877D01*
X143901898Y-113900500D01*
X143901903Y-113900500D01*
X144288097Y-113900500D01*
X144288102Y-113900500D01*
X144376564Y-113889877D01*
X144517342Y-113834361D01*
X144637922Y-113742922D01*
X144637924Y-113742920D01*
X144642319Y-113738526D01*
X144703642Y-113705041D01*
X144773334Y-113710025D01*
X144817681Y-113738526D01*
X144822075Y-113742920D01*
X144942656Y-113834360D01*
X144942657Y-113834360D01*
X144942658Y-113834361D01*
X145083436Y-113889877D01*
X145171898Y-113900500D01*
X145171903Y-113900500D01*
X145558097Y-113900500D01*
X145558102Y-113900500D01*
X145646564Y-113889877D01*
X145787342Y-113834361D01*
X145907922Y-113742922D01*
X145907924Y-113742920D01*
X145912319Y-113738526D01*
X145973642Y-113705041D01*
X146043334Y-113710025D01*
X146087681Y-113738526D01*
X146092075Y-113742920D01*
X146212656Y-113834360D01*
X146212657Y-113834360D01*
X146212658Y-113834361D01*
X146353436Y-113889877D01*
X146441898Y-113900500D01*
X146441903Y-113900500D01*
X146828097Y-113900500D01*
X146828102Y-113900500D01*
X146916564Y-113889877D01*
X147057342Y-113834361D01*
X147177922Y-113742922D01*
X147177924Y-113742920D01*
X147182319Y-113738526D01*
X147243642Y-113705041D01*
X147313334Y-113710025D01*
X147357681Y-113738526D01*
X147362075Y-113742920D01*
X147482656Y-113834360D01*
X147482657Y-113834360D01*
X147482658Y-113834361D01*
X147623436Y-113889877D01*
X147711898Y-113900500D01*
X147711903Y-113900500D01*
X148098097Y-113900500D01*
X148098102Y-113900500D01*
X148186564Y-113889877D01*
X148327342Y-113834361D01*
X148447922Y-113742922D01*
X148447924Y-113742920D01*
X148452319Y-113738526D01*
X148513642Y-113705041D01*
X148583334Y-113710025D01*
X148627681Y-113738526D01*
X148632075Y-113742920D01*
X148752656Y-113834360D01*
X148752657Y-113834360D01*
X148752658Y-113834361D01*
X148893436Y-113889877D01*
X148981898Y-113900500D01*
X148981903Y-113900500D01*
X149368097Y-113900500D01*
X149368102Y-113900500D01*
X149456564Y-113889877D01*
X149597342Y-113834361D01*
X149711572Y-113747736D01*
X149776883Y-113722913D01*
X149845247Y-113737341D01*
X149894959Y-113786438D01*
X149898646Y-113793636D01*
X149936708Y-113874323D01*
X149947507Y-113943351D01*
X149946146Y-113951574D01*
X149874165Y-114311012D01*
X149868524Y-114330627D01*
X149863762Y-114343183D01*
X149844722Y-114499999D01*
X149844722Y-114500000D01*
X149863762Y-114656818D01*
X149919780Y-114804523D01*
X150009517Y-114934530D01*
X150127760Y-115039283D01*
X150127762Y-115039284D01*
X150267634Y-115112696D01*
X150421014Y-115150500D01*
X150421015Y-115150500D01*
X150578985Y-115150500D01*
X150732365Y-115112696D01*
X150872240Y-115039283D01*
X150990483Y-114934530D01*
X151080220Y-114804523D01*
X151136237Y-114656818D01*
X151155278Y-114500000D01*
X151147606Y-114436819D01*
X151136237Y-114343182D01*
X151131476Y-114330627D01*
X151125832Y-114311007D01*
X151124329Y-114303502D01*
X151052914Y-113946882D01*
X151050500Y-113922534D01*
X151050500Y-113879225D01*
X151053218Y-113853405D01*
X151074001Y-113755781D01*
X151127307Y-113505394D01*
X151133233Y-113485731D01*
X151134877Y-113481564D01*
X151145500Y-113393102D01*
X151145500Y-111606898D01*
X151134877Y-111518436D01*
X151123641Y-111489946D01*
X151117050Y-111466930D01*
X151114653Y-111453923D01*
X151002570Y-111136398D01*
X150995500Y-111095124D01*
X150995500Y-106919997D01*
X154744723Y-106919997D01*
X154744723Y-106920002D01*
X154763793Y-107137975D01*
X154763793Y-107137979D01*
X154820422Y-107349322D01*
X154820424Y-107349326D01*
X154820425Y-107349330D01*
X154866661Y-107448484D01*
X154912897Y-107547638D01*
X154912898Y-107547639D01*
X155038402Y-107726877D01*
X155193123Y-107881598D01*
X155372360Y-108007101D01*
X155372361Y-108007102D01*
X155523583Y-108077618D01*
X155576022Y-108123790D01*
X155595174Y-108190984D01*
X155574958Y-108257865D01*
X155523583Y-108302382D01*
X155372361Y-108372898D01*
X155372357Y-108372900D01*
X155193121Y-108498402D01*
X155038402Y-108653121D01*
X154912900Y-108832357D01*
X154912898Y-108832361D01*
X154820426Y-109030668D01*
X154820422Y-109030677D01*
X154763793Y-109242020D01*
X154763793Y-109242024D01*
X154745047Y-109456300D01*
X154744723Y-109460000D01*
X154762994Y-109668849D01*
X154763793Y-109677975D01*
X154763793Y-109677979D01*
X154820422Y-109889322D01*
X154820424Y-109889326D01*
X154820425Y-109889330D01*
X154841972Y-109935538D01*
X154912897Y-110087638D01*
X154912898Y-110087639D01*
X155038402Y-110266877D01*
X155193123Y-110421598D01*
X155339263Y-110523926D01*
X155382887Y-110578502D01*
X155390081Y-110648000D01*
X155358558Y-110710355D01*
X155298328Y-110745769D01*
X155268140Y-110749500D01*
X155118482Y-110749500D01*
X155037519Y-110762323D01*
X155024696Y-110764354D01*
X154911658Y-110821950D01*
X154911657Y-110821951D01*
X154911652Y-110821954D01*
X154821954Y-110911652D01*
X154821951Y-110911657D01*
X154821950Y-110911658D01*
X154802751Y-110949337D01*
X154764352Y-111024698D01*
X154749500Y-111118475D01*
X154749500Y-112881517D01*
X154758056Y-112935538D01*
X154764354Y-112975304D01*
X154821950Y-113088342D01*
X154821952Y-113088344D01*
X154821954Y-113088347D01*
X154911652Y-113178045D01*
X154911654Y-113178046D01*
X154911658Y-113178050D01*
X155024696Y-113235646D01*
X155024698Y-113235647D01*
X155118475Y-113250499D01*
X155118481Y-113250500D01*
X156861469Y-113250499D01*
X156866425Y-113250598D01*
X156903000Y-113252061D01*
X156903000Y-113252060D01*
X156903005Y-113252061D01*
X157737046Y-113153938D01*
X157745101Y-113152908D01*
X157745103Y-113152907D01*
X157750234Y-113152251D01*
X157750269Y-113152530D01*
X157769470Y-113150500D01*
X157904319Y-113150500D01*
X157904343Y-113150501D01*
X157909454Y-113150501D01*
X158090545Y-113150501D01*
X158090546Y-113150501D01*
X158269409Y-113122171D01*
X158441639Y-113066211D01*
X158602994Y-112983996D01*
X158749501Y-112877553D01*
X158877553Y-112749501D01*
X158877554Y-112749499D01*
X158884614Y-112742439D01*
X158884620Y-112742432D01*
X160554553Y-111072498D01*
X160576947Y-111054760D01*
X160726562Y-110962124D01*
X160873739Y-110827954D01*
X160890979Y-110812238D01*
X160904374Y-110794501D01*
X161025058Y-110634689D01*
X161124229Y-110435528D01*
X161185115Y-110221536D01*
X161205643Y-110000000D01*
X161185115Y-109778464D01*
X161124229Y-109564472D01*
X161092126Y-109500000D01*
X161025061Y-109365316D01*
X161025056Y-109365308D01*
X160890979Y-109187761D01*
X160726562Y-109037876D01*
X160726560Y-109037874D01*
X160537404Y-108920754D01*
X160537398Y-108920752D01*
X160329940Y-108840382D01*
X160111243Y-108799500D01*
X159888757Y-108799500D01*
X159670060Y-108840382D01*
X159605711Y-108865311D01*
X159462601Y-108920752D01*
X159462595Y-108920754D01*
X159273439Y-109037874D01*
X159273437Y-109037876D01*
X159109020Y-109187761D01*
X158974943Y-109365309D01*
X158951528Y-109412329D01*
X158928211Y-109444734D01*
X157591498Y-110781447D01*
X157530175Y-110814932D01*
X157489329Y-110816917D01*
X156902988Y-110747936D01*
X156879381Y-110745857D01*
X156878053Y-110745779D01*
X156878020Y-110745778D01*
X156822694Y-110746311D01*
X156815754Y-110747165D01*
X156815736Y-110747021D01*
X156794739Y-110749500D01*
X156731862Y-110749500D01*
X156664823Y-110729815D01*
X156619068Y-110677011D01*
X156609124Y-110607853D01*
X156638149Y-110544297D01*
X156660734Y-110523928D01*
X156806877Y-110421598D01*
X156961598Y-110266877D01*
X157087102Y-110087639D01*
X157179575Y-109889330D01*
X157236207Y-109677977D01*
X157255277Y-109460000D01*
X157254953Y-109456300D01*
X157246993Y-109365309D01*
X157236207Y-109242023D01*
X157188629Y-109064461D01*
X157179577Y-109030677D01*
X157179576Y-109030676D01*
X157179575Y-109030670D01*
X157087102Y-108832362D01*
X157087100Y-108832359D01*
X157087099Y-108832357D01*
X156961599Y-108653124D01*
X156889645Y-108581170D01*
X156806877Y-108498402D01*
X156627639Y-108372898D01*
X156476414Y-108302381D01*
X156423977Y-108256210D01*
X156404825Y-108189016D01*
X156425041Y-108122135D01*
X156476414Y-108077618D01*
X156627639Y-108007102D01*
X156806877Y-107881598D01*
X156961598Y-107726877D01*
X157087102Y-107547639D01*
X157179575Y-107349330D01*
X157236207Y-107137977D01*
X157255277Y-106920000D01*
X157236207Y-106702023D01*
X157184555Y-106509257D01*
X157179577Y-106490677D01*
X157179576Y-106490676D01*
X157179575Y-106490670D01*
X157087102Y-106292362D01*
X157087100Y-106292359D01*
X157087099Y-106292357D01*
X156961599Y-106113124D01*
X156886349Y-106037874D01*
X156806877Y-105958402D01*
X156645818Y-105845627D01*
X156627638Y-105832897D01*
X156528484Y-105786661D01*
X156429330Y-105740425D01*
X156429326Y-105740424D01*
X156429322Y-105740422D01*
X156217977Y-105683793D01*
X156000002Y-105664723D01*
X155999998Y-105664723D01*
X155854682Y-105677436D01*
X155782023Y-105683793D01*
X155782020Y-105683793D01*
X155570677Y-105740422D01*
X155570668Y-105740426D01*
X155372361Y-105832898D01*
X155372357Y-105832900D01*
X155193121Y-105958402D01*
X155038402Y-106113121D01*
X154912900Y-106292357D01*
X154912898Y-106292361D01*
X154820426Y-106490668D01*
X154820422Y-106490677D01*
X154763793Y-106702020D01*
X154763793Y-106702024D01*
X154744723Y-106919997D01*
X150995500Y-106919997D01*
X150995500Y-105338088D01*
X151015185Y-105271049D01*
X151026821Y-105255708D01*
X151055216Y-105223763D01*
X151756794Y-104434476D01*
X151769535Y-104419420D01*
X151769537Y-104419417D01*
X151772775Y-104414801D01*
X151773385Y-104415229D01*
X151787497Y-104396776D01*
X151821598Y-104362677D01*
X151947102Y-104183439D01*
X152039575Y-103985130D01*
X152096207Y-103773777D01*
X152112805Y-103584054D01*
X152115277Y-103555802D01*
X152115277Y-103555797D01*
X152105102Y-103439500D01*
X152096207Y-103337823D01*
X152040159Y-103128648D01*
X152039577Y-103126477D01*
X152039576Y-103126476D01*
X152039575Y-103126470D01*
X151947102Y-102928162D01*
X151947099Y-102928158D01*
X151947099Y-102928157D01*
X151821599Y-102748924D01*
X151746950Y-102674275D01*
X151666877Y-102594202D01*
X151487639Y-102468698D01*
X151487640Y-102468698D01*
X151487638Y-102468697D01*
X151388484Y-102422461D01*
X151289330Y-102376225D01*
X151289326Y-102376224D01*
X151289322Y-102376222D01*
X151077977Y-102319593D01*
X150860002Y-102300523D01*
X150859998Y-102300523D01*
X150714682Y-102313236D01*
X150642023Y-102319593D01*
X150642020Y-102319593D01*
X150430677Y-102376222D01*
X150430670Y-102376224D01*
X150430670Y-102376225D01*
X150427391Y-102377754D01*
X150232361Y-102468698D01*
X150232357Y-102468700D01*
X150053121Y-102594202D01*
X149898402Y-102748921D01*
X149772900Y-102928157D01*
X149772898Y-102928161D01*
X149702382Y-103079383D01*
X149656209Y-103131822D01*
X149589016Y-103150974D01*
X149522135Y-103130758D01*
X149477618Y-103079383D01*
X149438203Y-102994858D01*
X149407102Y-102928162D01*
X149407099Y-102928158D01*
X149407099Y-102928157D01*
X149281599Y-102748924D01*
X149206950Y-102674275D01*
X149126877Y-102594202D01*
X148947639Y-102468698D01*
X148947640Y-102468698D01*
X148947638Y-102468697D01*
X148848484Y-102422461D01*
X148749330Y-102376225D01*
X148749326Y-102376224D01*
X148749322Y-102376222D01*
X148537977Y-102319593D01*
X148320002Y-102300523D01*
X148319998Y-102300523D01*
X148174682Y-102313236D01*
X148102023Y-102319593D01*
X148102020Y-102319593D01*
X147890677Y-102376222D01*
X147890670Y-102376224D01*
X147890670Y-102376225D01*
X147887391Y-102377754D01*
X147692361Y-102468698D01*
X147692357Y-102468700D01*
X147513121Y-102594202D01*
X147358402Y-102748921D01*
X147232900Y-102928157D01*
X147232898Y-102928162D01*
X147163862Y-103076209D01*
X147117689Y-103128648D01*
X147050496Y-103147800D01*
X146983615Y-103127584D01*
X146938332Y-103074534D01*
X146930837Y-103057817D01*
X146928619Y-103054757D01*
X146916636Y-103034388D01*
X146913550Y-103027770D01*
X146867102Y-102928162D01*
X146741598Y-102748923D01*
X146586877Y-102594202D01*
X146407639Y-102468698D01*
X146407640Y-102468698D01*
X146407638Y-102468697D01*
X146308484Y-102422461D01*
X146209330Y-102376225D01*
X146209326Y-102376224D01*
X146209322Y-102376222D01*
X145997977Y-102319593D01*
X145780002Y-102300523D01*
X145779998Y-102300523D01*
X145634682Y-102313236D01*
X145562023Y-102319593D01*
X145562020Y-102319593D01*
X145350677Y-102376222D01*
X145350670Y-102376224D01*
X145350670Y-102376225D01*
X145347391Y-102377754D01*
X145152361Y-102468698D01*
X145152357Y-102468700D01*
X144973121Y-102594202D01*
X144818402Y-102748921D01*
X144692900Y-102928157D01*
X144692898Y-102928162D01*
X144623862Y-103076209D01*
X144577689Y-103128648D01*
X144510496Y-103147800D01*
X144443615Y-103127584D01*
X144398332Y-103074534D01*
X144390837Y-103057817D01*
X144388619Y-103054757D01*
X144376636Y-103034388D01*
X144373550Y-103027770D01*
X144327102Y-102928162D01*
X144201598Y-102748923D01*
X144046877Y-102594202D01*
X143867639Y-102468698D01*
X143867640Y-102468698D01*
X143867638Y-102468697D01*
X143768484Y-102422461D01*
X143669330Y-102376225D01*
X143669326Y-102376224D01*
X143669322Y-102376222D01*
X143457977Y-102319593D01*
X143240002Y-102300523D01*
X143239998Y-102300523D01*
X143094682Y-102313236D01*
X143022023Y-102319593D01*
X143022020Y-102319593D01*
X142810677Y-102376222D01*
X142810670Y-102376224D01*
X142810670Y-102376225D01*
X142807391Y-102377754D01*
X142612361Y-102468698D01*
X142612357Y-102468700D01*
X142433121Y-102594202D01*
X142278402Y-102748921D01*
X142152900Y-102928157D01*
X142152900Y-102928158D01*
X142152898Y-102928161D01*
X142152898Y-102928162D01*
X142141922Y-102951700D01*
X142084481Y-103074881D01*
X142038308Y-103127320D01*
X141971114Y-103146471D01*
X141904233Y-103126255D01*
X141860319Y-103076152D01*
X141860247Y-103076003D01*
X141849332Y-103053272D01*
X141846353Y-103049257D01*
X141833550Y-103027770D01*
X141818203Y-102994858D01*
X141787102Y-102928162D01*
X141661598Y-102748923D01*
X141506877Y-102594202D01*
X141327639Y-102468698D01*
X141327640Y-102468698D01*
X141327638Y-102468697D01*
X141228484Y-102422461D01*
X141129330Y-102376225D01*
X141129326Y-102376224D01*
X141129322Y-102376222D01*
X140917977Y-102319593D01*
X140700002Y-102300523D01*
X140699998Y-102300523D01*
X140554682Y-102313236D01*
X140482023Y-102319593D01*
X140482020Y-102319593D01*
X140270677Y-102376222D01*
X140270670Y-102376224D01*
X140270670Y-102376225D01*
X140267391Y-102377754D01*
X140072361Y-102468698D01*
X140072357Y-102468700D01*
X139893121Y-102594202D01*
X139738402Y-102748921D01*
X139612900Y-102928157D01*
X139612898Y-102928162D01*
X139543862Y-103076209D01*
X139497689Y-103128648D01*
X139430496Y-103147800D01*
X139363615Y-103127584D01*
X139318332Y-103074534D01*
X139310837Y-103057817D01*
X139308619Y-103054757D01*
X139296636Y-103034388D01*
X139293550Y-103027770D01*
X139247102Y-102928162D01*
X139121598Y-102748923D01*
X138966877Y-102594202D01*
X138787639Y-102468698D01*
X138787640Y-102468698D01*
X138787638Y-102468697D01*
X138688484Y-102422461D01*
X138589330Y-102376225D01*
X138589326Y-102376224D01*
X138589322Y-102376222D01*
X138377977Y-102319593D01*
X138160002Y-102300523D01*
X138159998Y-102300523D01*
X138014682Y-102313236D01*
X137942023Y-102319593D01*
X137942020Y-102319593D01*
X137730677Y-102376222D01*
X137730670Y-102376224D01*
X137730670Y-102376225D01*
X137727391Y-102377754D01*
X137532361Y-102468698D01*
X137532357Y-102468700D01*
X137353121Y-102594202D01*
X137198402Y-102748921D01*
X137072900Y-102928157D01*
X137072898Y-102928162D01*
X137003862Y-103076209D01*
X136957689Y-103128648D01*
X136890496Y-103147800D01*
X136823615Y-103127584D01*
X136778332Y-103074534D01*
X136770837Y-103057817D01*
X136768619Y-103054757D01*
X136756636Y-103034388D01*
X136753550Y-103027770D01*
X136707102Y-102928162D01*
X136581598Y-102748923D01*
X136426877Y-102594202D01*
X136247639Y-102468698D01*
X136247640Y-102468698D01*
X136247638Y-102468697D01*
X136148484Y-102422461D01*
X136049330Y-102376225D01*
X136049326Y-102376224D01*
X136049322Y-102376222D01*
X135837977Y-102319593D01*
X135620002Y-102300523D01*
X135619998Y-102300523D01*
X135474682Y-102313236D01*
X135402023Y-102319593D01*
X135402020Y-102319593D01*
X135190677Y-102376222D01*
X135190670Y-102376224D01*
X135190670Y-102376225D01*
X135187391Y-102377754D01*
X134992361Y-102468698D01*
X134992357Y-102468700D01*
X134813121Y-102594202D01*
X134658402Y-102748921D01*
X134532900Y-102928157D01*
X134532898Y-102928162D01*
X134463958Y-103076003D01*
X134417785Y-103128442D01*
X134350592Y-103147594D01*
X134283711Y-103127378D01*
X134238569Y-103074641D01*
X134235945Y-103068832D01*
X134230949Y-103057770D01*
X134228353Y-103054189D01*
X134216371Y-103033820D01*
X134167104Y-102928167D01*
X134167101Y-102928161D01*
X134041599Y-102748924D01*
X133966950Y-102674275D01*
X133886877Y-102594202D01*
X133707639Y-102468698D01*
X133707640Y-102468698D01*
X133707638Y-102468697D01*
X133608484Y-102422461D01*
X133509330Y-102376225D01*
X133509326Y-102376224D01*
X133509322Y-102376222D01*
X133297977Y-102319593D01*
X133080002Y-102300523D01*
X133079998Y-102300523D01*
X132934682Y-102313236D01*
X132862023Y-102319593D01*
X132862020Y-102319593D01*
X132650677Y-102376222D01*
X132650670Y-102376224D01*
X132650670Y-102376225D01*
X132647391Y-102377754D01*
X132452361Y-102468698D01*
X132452357Y-102468700D01*
X132273121Y-102594202D01*
X132118402Y-102748921D01*
X131992900Y-102928157D01*
X131992898Y-102928161D01*
X131900426Y-103126468D01*
X131900422Y-103126477D01*
X131843793Y-103337820D01*
X131843793Y-103337823D01*
X131842128Y-103356858D01*
X131824723Y-103555797D01*
X129400500Y-103555797D01*
X129400500Y-103445578D01*
X129390233Y-103380754D01*
X129366015Y-103227849D01*
X129316745Y-103076209D01*
X129297896Y-103018196D01*
X129297895Y-103018193D01*
X129264014Y-102951699D01*
X129250499Y-102895404D01*
X129250499Y-102674282D01*
X129250498Y-102674275D01*
X129235646Y-102580496D01*
X129178050Y-102467458D01*
X129178046Y-102467454D01*
X129178045Y-102467452D01*
X129088347Y-102377754D01*
X129088344Y-102377752D01*
X129088342Y-102377750D01*
X129005748Y-102335666D01*
X128975301Y-102320152D01*
X128881524Y-102305300D01*
X128881519Y-102305300D01*
X128660394Y-102305300D01*
X128604099Y-102291785D01*
X128537606Y-102257904D01*
X128537603Y-102257903D01*
X128327952Y-102189785D01*
X128219086Y-102172542D01*
X128110222Y-102155300D01*
X127889778Y-102155300D01*
X127817201Y-102166795D01*
X127672047Y-102189785D01*
X127462394Y-102257904D01*
X127395899Y-102291785D01*
X127339606Y-102305300D01*
X127118482Y-102305300D01*
X127037519Y-102318123D01*
X127024696Y-102320154D01*
X126911658Y-102377750D01*
X126911657Y-102377751D01*
X126911652Y-102377754D01*
X126821954Y-102467452D01*
X126821951Y-102467457D01*
X126821950Y-102467458D01*
X126805373Y-102499993D01*
X126764352Y-102580498D01*
X126749500Y-102674275D01*
X126749500Y-102895405D01*
X126735985Y-102951700D01*
X126702105Y-103018193D01*
X126702103Y-103018196D01*
X126633985Y-103227847D01*
X126599500Y-103445578D01*
X126599500Y-110385362D01*
X126599499Y-110385377D01*
X126599499Y-110389778D01*
X126599499Y-110610222D01*
X126603375Y-110634691D01*
X126628687Y-110794501D01*
X126633985Y-110827951D01*
X126633985Y-110827954D01*
X126702103Y-111037603D01*
X126702104Y-111037606D01*
X126758277Y-111147848D01*
X126800326Y-111230374D01*
X126802187Y-111234025D01*
X126919232Y-111395125D01*
X126942712Y-111460931D01*
X126926886Y-111528985D01*
X126906595Y-111555691D01*
X125799106Y-112663181D01*
X125737783Y-112696666D01*
X125711425Y-112699500D01*
X125334298Y-112699500D01*
X125297432Y-112702401D01*
X125297426Y-112702402D01*
X125139606Y-112748254D01*
X125139603Y-112748255D01*
X124998137Y-112831917D01*
X124998129Y-112831923D01*
X124881923Y-112948129D01*
X124881917Y-112948137D01*
X124798255Y-113089603D01*
X124798254Y-113089606D01*
X124752402Y-113247426D01*
X124752401Y-113247432D01*
X124749500Y-113284298D01*
X124749500Y-113585327D01*
X124729815Y-113652366D01*
X124677011Y-113698121D01*
X124655575Y-113705625D01*
X124506396Y-113742920D01*
X124094883Y-113845798D01*
X124064810Y-113849500D01*
X121169809Y-113849500D01*
X121102770Y-113829815D01*
X121057015Y-113777011D01*
X121047071Y-113707853D01*
X121076096Y-113644297D01*
X121082128Y-113637819D01*
X121118076Y-113601870D01*
X121118081Y-113601865D01*
X121201744Y-113460398D01*
X121244789Y-113312238D01*
X121247597Y-113302573D01*
X121247598Y-113302567D01*
X121250499Y-113265701D01*
X121250500Y-113265694D01*
X121250500Y-112134306D01*
X121247598Y-112097431D01*
X121238022Y-112064472D01*
X121201745Y-111939606D01*
X121201744Y-111939603D01*
X121201744Y-111939602D01*
X121118081Y-111798135D01*
X121118079Y-111798133D01*
X121118076Y-111798129D01*
X121001870Y-111681923D01*
X121001862Y-111681917D01*
X120860396Y-111598255D01*
X120860393Y-111598254D01*
X120702573Y-111552402D01*
X120702567Y-111552401D01*
X120665701Y-111549500D01*
X120665694Y-111549500D01*
X119940546Y-111549500D01*
X118445681Y-111549500D01*
X118445657Y-111549499D01*
X118440546Y-111549499D01*
X118259453Y-111549499D01*
X118220360Y-111555691D01*
X118080589Y-111577829D01*
X117908363Y-111633787D01*
X117908360Y-111633788D01*
X117747002Y-111716006D01*
X117600505Y-111822441D01*
X117600500Y-111822445D01*
X117472444Y-111950502D01*
X117087680Y-112335265D01*
X117026357Y-112368750D01*
X116956665Y-112363766D01*
X116912318Y-112335265D01*
X116331893Y-111754840D01*
X116331884Y-111754830D01*
X116293058Y-111716004D01*
X116199501Y-111622447D01*
X116199497Y-111622444D01*
X116199493Y-111622440D01*
X116052997Y-111516006D01*
X116052996Y-111516005D01*
X116052994Y-111516004D01*
X115965547Y-111471447D01*
X115891639Y-111433788D01*
X115891633Y-111433786D01*
X115719415Y-111377830D01*
X115719409Y-111377829D01*
X115718335Y-111377658D01*
X115718330Y-111377656D01*
X115718330Y-111377658D01*
X115629437Y-111363578D01*
X115540546Y-111349499D01*
X115376652Y-111349499D01*
X115335496Y-111341804D01*
X115335455Y-111341951D01*
X115333878Y-111341502D01*
X115331856Y-111341124D01*
X115329940Y-111340382D01*
X115111243Y-111299500D01*
X114888757Y-111299500D01*
X114742959Y-111326754D01*
X114670059Y-111340382D01*
X114669280Y-111340684D01*
X114668138Y-111341126D01*
X114666110Y-111341505D01*
X114664545Y-111341951D01*
X114664503Y-111341805D01*
X114623345Y-111349500D01*
X111376655Y-111349500D01*
X111335496Y-111341805D01*
X111335455Y-111341951D01*
X111333889Y-111341505D01*
X111331861Y-111341126D01*
X111329940Y-111340382D01*
X111111243Y-111299500D01*
X110888757Y-111299500D01*
X110670060Y-111340382D01*
X110573396Y-111377830D01*
X110462601Y-111420752D01*
X110462595Y-111420754D01*
X110273439Y-111537874D01*
X110273437Y-111537876D01*
X110109020Y-111687761D01*
X109974943Y-111865308D01*
X109974938Y-111865316D01*
X109875775Y-112064461D01*
X109875769Y-112064476D01*
X109814885Y-112278462D01*
X109814884Y-112278464D01*
X109794357Y-112499999D01*
X100200500Y-112499999D01*
X100200500Y-105002706D01*
X100200618Y-104997297D01*
X100201232Y-104983238D01*
X100218528Y-104587080D01*
X100219468Y-104576347D01*
X100246188Y-104373389D01*
X101699500Y-104373389D01*
X101699500Y-104546611D01*
X101705057Y-104581696D01*
X101726046Y-104714219D01*
X101726598Y-104717701D01*
X101776937Y-104872628D01*
X101780128Y-104882447D01*
X101826259Y-104972984D01*
X101858768Y-105036788D01*
X101960586Y-105176928D01*
X102083072Y-105299414D01*
X102223212Y-105401232D01*
X102377555Y-105479873D01*
X102542299Y-105533402D01*
X102713389Y-105560500D01*
X102713390Y-105560500D01*
X103286610Y-105560500D01*
X103286611Y-105560500D01*
X103457701Y-105533402D01*
X103622445Y-105479873D01*
X103756082Y-105411781D01*
X103763052Y-105408500D01*
X104658546Y-105020710D01*
X104707822Y-105010500D01*
X105274150Y-105010500D01*
X105325533Y-105021647D01*
X106514812Y-105563138D01*
X106519857Y-105565385D01*
X106520878Y-105565841D01*
X106521212Y-105565986D01*
X106521246Y-105566000D01*
X106557414Y-105579744D01*
X106557416Y-105579744D01*
X106557421Y-105579746D01*
X106560963Y-105580311D01*
X106586213Y-105587135D01*
X106656524Y-105614374D01*
X106711925Y-105656947D01*
X106735515Y-105722714D01*
X106719804Y-105790794D01*
X106669779Y-105839573D01*
X106656533Y-105845622D01*
X106508488Y-105902975D01*
X106462601Y-105920752D01*
X106462595Y-105920754D01*
X106273439Y-106037874D01*
X106273437Y-106037876D01*
X106109020Y-106187761D01*
X105974943Y-106365308D01*
X105974938Y-106365316D01*
X105875775Y-106564461D01*
X105875769Y-106564476D01*
X105814885Y-106778462D01*
X105814884Y-106778464D01*
X105794357Y-106999999D01*
X105794357Y-107000000D01*
X105814884Y-107221535D01*
X105814885Y-107221537D01*
X105875769Y-107435523D01*
X105875775Y-107435538D01*
X105974938Y-107634683D01*
X105974943Y-107634691D01*
X106109020Y-107812238D01*
X106273437Y-107962123D01*
X106273439Y-107962125D01*
X106462595Y-108079245D01*
X106462597Y-108079246D01*
X106462599Y-108079247D01*
X106526887Y-108104152D01*
X106543186Y-108111874D01*
X106563037Y-108123113D01*
X106563043Y-108123116D01*
X107786883Y-108581172D01*
X107831097Y-108609622D01*
X107911985Y-108690510D01*
X108033275Y-108760536D01*
X108033276Y-108760537D01*
X108037511Y-108762982D01*
X108037512Y-108762982D01*
X108037515Y-108762984D01*
X108177525Y-108800500D01*
X108177526Y-108800500D01*
X108322474Y-108800500D01*
X109806946Y-108800500D01*
X109873985Y-108820185D01*
X109919740Y-108872989D01*
X109929684Y-108942147D01*
X109917946Y-108979772D01*
X109875775Y-109064461D01*
X109875769Y-109064476D01*
X109814885Y-109278462D01*
X109814884Y-109278464D01*
X109794357Y-109499999D01*
X109794357Y-109500000D01*
X109814884Y-109721535D01*
X109814885Y-109721537D01*
X109875769Y-109935523D01*
X109875775Y-109935538D01*
X109974938Y-110134683D01*
X109974943Y-110134691D01*
X110109020Y-110312238D01*
X110273437Y-110462123D01*
X110273439Y-110462125D01*
X110462595Y-110579245D01*
X110462596Y-110579245D01*
X110462599Y-110579247D01*
X110670060Y-110659618D01*
X110888757Y-110700500D01*
X110888759Y-110700500D01*
X111111241Y-110700500D01*
X111111243Y-110700500D01*
X111329940Y-110659618D01*
X111537401Y-110579247D01*
X111726562Y-110462124D01*
X111890981Y-110312236D01*
X112025058Y-110134689D01*
X112124229Y-109935528D01*
X112185115Y-109721536D01*
X112205643Y-109500000D01*
X112185115Y-109278464D01*
X112124229Y-109064472D01*
X112110985Y-109037874D01*
X112082054Y-108979772D01*
X112069793Y-108910986D01*
X112096666Y-108846491D01*
X112154142Y-108806764D01*
X112193054Y-108800500D01*
X113822472Y-108800500D01*
X113822474Y-108800500D01*
X113822475Y-108800500D01*
X113962485Y-108762984D01*
X113966725Y-108760536D01*
X114088015Y-108690510D01*
X114168903Y-108609620D01*
X114213119Y-108581170D01*
X115436956Y-108123116D01*
X115443088Y-108120764D01*
X115443452Y-108120621D01*
X115478874Y-108104707D01*
X115478883Y-108104699D01*
X115484386Y-108101516D01*
X115484857Y-108102331D01*
X115502109Y-108092918D01*
X115537401Y-108079247D01*
X115726562Y-107962124D01*
X115890981Y-107812236D01*
X116025058Y-107634689D01*
X116124229Y-107435528D01*
X116185115Y-107221536D01*
X116205643Y-107000000D01*
X116185115Y-106778464D01*
X116124229Y-106564472D01*
X116120637Y-106557258D01*
X116025061Y-106365316D01*
X116025056Y-106365308D01*
X115890979Y-106187761D01*
X115726562Y-106037876D01*
X115726560Y-106037874D01*
X115537404Y-105920754D01*
X115537395Y-105920750D01*
X115412861Y-105872506D01*
X115343475Y-105845625D01*
X115288075Y-105803054D01*
X115264484Y-105737288D01*
X115280195Y-105669207D01*
X115330219Y-105620428D01*
X115343468Y-105614376D01*
X115446287Y-105574544D01*
X115457955Y-105570679D01*
X115479120Y-105564817D01*
X115485184Y-105563139D01*
X115485184Y-105563138D01*
X115485187Y-105563138D01*
X116674467Y-105021647D01*
X116725850Y-105010500D01*
X117112472Y-105010500D01*
X117112474Y-105010500D01*
X117112475Y-105010500D01*
X117252485Y-104972984D01*
X117273278Y-104960979D01*
X117378015Y-104900510D01*
X117882698Y-104395824D01*
X117929128Y-104366569D01*
X118172750Y-104280637D01*
X118242519Y-104276902D01*
X118303233Y-104311479D01*
X118325850Y-104344055D01*
X118437354Y-104577084D01*
X118449500Y-104630606D01*
X118449500Y-106869392D01*
X118437354Y-106922914D01*
X117715683Y-108431119D01*
X117711073Y-108441097D01*
X117710833Y-108441636D01*
X117695665Y-108481059D01*
X117693981Y-108487324D01*
X117693097Y-108487086D01*
X117687759Y-108505132D01*
X117670843Y-108543697D01*
X117670842Y-108543701D01*
X117613866Y-108768691D01*
X117613864Y-108768702D01*
X117594700Y-108999993D01*
X117594700Y-109000006D01*
X117613864Y-109231297D01*
X117613866Y-109231308D01*
X117670842Y-109456300D01*
X117764075Y-109668848D01*
X117891016Y-109863147D01*
X117891019Y-109863151D01*
X117891021Y-109863153D01*
X118048216Y-110033913D01*
X118048219Y-110033915D01*
X118048222Y-110033918D01*
X118231365Y-110176464D01*
X118231371Y-110176468D01*
X118231374Y-110176470D01*
X118435497Y-110286936D01*
X118549487Y-110326068D01*
X118655015Y-110362297D01*
X118655017Y-110362297D01*
X118655019Y-110362298D01*
X118883951Y-110400500D01*
X118883952Y-110400500D01*
X119116048Y-110400500D01*
X119116049Y-110400500D01*
X119344981Y-110362298D01*
X119564503Y-110286936D01*
X119768626Y-110176470D01*
X119951784Y-110033913D01*
X120108979Y-109863153D01*
X120235924Y-109668849D01*
X120329157Y-109456300D01*
X120386134Y-109231305D01*
X120392444Y-109155152D01*
X120405300Y-109000006D01*
X120405300Y-108999993D01*
X120386135Y-108768702D01*
X120386133Y-108768691D01*
X120329157Y-108543699D01*
X120297014Y-108470421D01*
X120291720Y-108455974D01*
X120284341Y-108431175D01*
X120284338Y-108431168D01*
X120256456Y-108372898D01*
X119766680Y-107349322D01*
X119562646Y-106922914D01*
X119550500Y-106869392D01*
X119550500Y-104630606D01*
X119562646Y-104577084D01*
X119583383Y-104533747D01*
X120284338Y-103068832D01*
X120288916Y-103058923D01*
X120289167Y-103058360D01*
X120304334Y-103018938D01*
X120304335Y-103018933D01*
X120306018Y-103012675D01*
X120306956Y-103012927D01*
X120312243Y-102994858D01*
X120329155Y-102956305D01*
X120329157Y-102956299D01*
X120336283Y-102928162D01*
X120386134Y-102731305D01*
X120386135Y-102731297D01*
X120405300Y-102500006D01*
X120405300Y-102499993D01*
X120386135Y-102268702D01*
X120386133Y-102268691D01*
X120329157Y-102043699D01*
X120235924Y-101831151D01*
X120108983Y-101636852D01*
X120108980Y-101636849D01*
X120108979Y-101636847D01*
X119951784Y-101466087D01*
X119951779Y-101466083D01*
X119951777Y-101466081D01*
X119768634Y-101323535D01*
X119768628Y-101323531D01*
X119564504Y-101213064D01*
X119564495Y-101213061D01*
X119344984Y-101137702D01*
X119173282Y-101109050D01*
X119116049Y-101099500D01*
X118883951Y-101099500D01*
X118838164Y-101107140D01*
X118655015Y-101137702D01*
X118435504Y-101213061D01*
X118435495Y-101213064D01*
X118231371Y-101323531D01*
X118231365Y-101323535D01*
X118048222Y-101466081D01*
X118048219Y-101466084D01*
X117891016Y-101636852D01*
X117764073Y-101831154D01*
X117707523Y-101960073D01*
X117703017Y-101969291D01*
X117689607Y-101994063D01*
X117678788Y-102024735D01*
X117675412Y-102033280D01*
X117670845Y-102043694D01*
X117670838Y-102043712D01*
X117669027Y-102050864D01*
X117665765Y-102061654D01*
X117282728Y-103147594D01*
X117231406Y-103293097D01*
X117209963Y-103353889D01*
X117133427Y-103570871D01*
X117104169Y-103617304D01*
X116848292Y-103873182D01*
X116786972Y-103906666D01*
X116760613Y-103909500D01*
X116725852Y-103909500D01*
X116674469Y-103898353D01*
X115485192Y-103356863D01*
X115478502Y-103353889D01*
X115478169Y-103353744D01*
X115478160Y-103353740D01*
X115478154Y-103353738D01*
X115442578Y-103340253D01*
X115442573Y-103340251D01*
X115439026Y-103339685D01*
X115413786Y-103332864D01*
X115329940Y-103300382D01*
X115111243Y-103259500D01*
X114888757Y-103259500D01*
X114670060Y-103300382D01*
X114553750Y-103345441D01*
X114462601Y-103380752D01*
X114462595Y-103380754D01*
X114273439Y-103497874D01*
X114273437Y-103497876D01*
X114109020Y-103647761D01*
X113974943Y-103825308D01*
X113974938Y-103825316D01*
X113875775Y-104024461D01*
X113875769Y-104024476D01*
X113814885Y-104238462D01*
X113814884Y-104238464D01*
X113794357Y-104459999D01*
X113794357Y-104460000D01*
X113814884Y-104681535D01*
X113814885Y-104681537D01*
X113875769Y-104895523D01*
X113875775Y-104895538D01*
X113974938Y-105094683D01*
X113974943Y-105094691D01*
X114109020Y-105272238D01*
X114273437Y-105422123D01*
X114273439Y-105422125D01*
X114462595Y-105539245D01*
X114462596Y-105539245D01*
X114462599Y-105539247D01*
X114656524Y-105614374D01*
X114711924Y-105656946D01*
X114735515Y-105722713D01*
X114719804Y-105790793D01*
X114669780Y-105839572D01*
X114656533Y-105845622D01*
X114508488Y-105902975D01*
X114462601Y-105920752D01*
X114462595Y-105920754D01*
X114273439Y-106037874D01*
X114273437Y-106037876D01*
X114109020Y-106187761D01*
X113974943Y-106365308D01*
X113974936Y-106365320D01*
X113875771Y-106564470D01*
X113875315Y-106566075D01*
X113872183Y-106575597D01*
X113481675Y-107618966D01*
X113439741Y-107674852D01*
X113374248Y-107699194D01*
X113365543Y-107699500D01*
X112173136Y-107699500D01*
X112106097Y-107679815D01*
X112060342Y-107627011D01*
X112050398Y-107557853D01*
X112062136Y-107520228D01*
X112124224Y-107395538D01*
X112124223Y-107395538D01*
X112124229Y-107395528D01*
X112185115Y-107181536D01*
X112205643Y-106960000D01*
X112199854Y-106897531D01*
X112185115Y-106738464D01*
X112185114Y-106738462D01*
X112185072Y-106738315D01*
X112135610Y-106564472D01*
X112124229Y-106524471D01*
X112113458Y-106502843D01*
X112113013Y-106501949D01*
X112104508Y-106479761D01*
X112103138Y-106474812D01*
X111782793Y-105771238D01*
X111772929Y-105702069D01*
X111788943Y-105656688D01*
X111997585Y-105304244D01*
X112016602Y-105279738D01*
X112039414Y-105256928D01*
X112141232Y-105116788D01*
X112219873Y-104962445D01*
X112273402Y-104797701D01*
X112300500Y-104626611D01*
X112300500Y-104453389D01*
X112273402Y-104282299D01*
X112219873Y-104117555D01*
X112141232Y-103963212D01*
X112039414Y-103823072D01*
X111916928Y-103700586D01*
X111776788Y-103598768D01*
X111622445Y-103520127D01*
X111457701Y-103466598D01*
X111457699Y-103466597D01*
X111457698Y-103466597D01*
X111324986Y-103445578D01*
X111286611Y-103439500D01*
X110713389Y-103439500D01*
X110675014Y-103445578D01*
X110542302Y-103466597D01*
X110377552Y-103520128D01*
X110223211Y-103598768D01*
X110197699Y-103617304D01*
X110083072Y-103700586D01*
X110083070Y-103700588D01*
X110083069Y-103700588D01*
X109960588Y-103823069D01*
X109960588Y-103823070D01*
X109960586Y-103823072D01*
X109958956Y-103825316D01*
X109858768Y-103963211D01*
X109780128Y-104117552D01*
X109726597Y-104282302D01*
X109699500Y-104453389D01*
X109699500Y-104626610D01*
X109716726Y-104735375D01*
X109726598Y-104797701D01*
X109769117Y-104928561D01*
X109780128Y-104962447D01*
X109797477Y-104996496D01*
X109858768Y-105116788D01*
X109960586Y-105256928D01*
X109960588Y-105256930D01*
X109983389Y-105279731D01*
X110002409Y-105304239D01*
X110211055Y-105656688D01*
X110228267Y-105724405D01*
X110217203Y-105771239D01*
X109896829Y-106474882D01*
X109893893Y-106481486D01*
X109893720Y-106481886D01*
X109885540Y-106503469D01*
X109880593Y-106514786D01*
X109875774Y-106524465D01*
X109875766Y-106524483D01*
X109814885Y-106738461D01*
X109814884Y-106738464D01*
X109794357Y-106959999D01*
X109794357Y-106960000D01*
X109814884Y-107181535D01*
X109814885Y-107181537D01*
X109875769Y-107395523D01*
X109875775Y-107395538D01*
X109937864Y-107520228D01*
X109950125Y-107589014D01*
X109923252Y-107653509D01*
X109865776Y-107693236D01*
X109826864Y-107699500D01*
X108634457Y-107699500D01*
X108567418Y-107679815D01*
X108521663Y-107627011D01*
X108518325Y-107618966D01*
X108127823Y-106575620D01*
X108124686Y-106566080D01*
X108124228Y-106564470D01*
X108124225Y-106564462D01*
X108120920Y-106557258D01*
X108120629Y-106556569D01*
X108120621Y-106556547D01*
X108104707Y-106521125D01*
X108104706Y-106521123D01*
X108104143Y-106520346D01*
X108093541Y-106502843D01*
X108079618Y-106474882D01*
X108025058Y-106365311D01*
X107890981Y-106187764D01*
X107890979Y-106187761D01*
X107726562Y-106037876D01*
X107726560Y-106037874D01*
X107537404Y-105920754D01*
X107537395Y-105920750D01*
X107412861Y-105872506D01*
X107343475Y-105845625D01*
X107288075Y-105803054D01*
X107264484Y-105737288D01*
X107280195Y-105669207D01*
X107330219Y-105620428D01*
X107343466Y-105614377D01*
X107537401Y-105539247D01*
X107726562Y-105422124D01*
X107882757Y-105279733D01*
X107890979Y-105272238D01*
X107902540Y-105256930D01*
X108025058Y-105094689D01*
X108124229Y-104895528D01*
X108185115Y-104681536D01*
X108205643Y-104460000D01*
X108205030Y-104453389D01*
X108185115Y-104238464D01*
X108185114Y-104238462D01*
X108173691Y-104198315D01*
X108124229Y-104024472D01*
X108124224Y-104024461D01*
X108025061Y-103825316D01*
X108025056Y-103825308D01*
X107890979Y-103647761D01*
X107726562Y-103497876D01*
X107726560Y-103497874D01*
X107537404Y-103380754D01*
X107537398Y-103380752D01*
X107329940Y-103300382D01*
X107111243Y-103259500D01*
X106888757Y-103259500D01*
X106723731Y-103290348D01*
X106670054Y-103300383D01*
X106553745Y-103345441D01*
X106542054Y-103349314D01*
X106514817Y-103356858D01*
X106514808Y-103356861D01*
X105325531Y-103898353D01*
X105274148Y-103909500D01*
X104707823Y-103909500D01*
X104658547Y-103899289D01*
X103763055Y-103511499D01*
X103756048Y-103508200D01*
X103622445Y-103440127D01*
X103457701Y-103386598D01*
X103457699Y-103386597D01*
X103457698Y-103386597D01*
X103326271Y-103365781D01*
X103286611Y-103359500D01*
X102713389Y-103359500D01*
X102673728Y-103365781D01*
X102542302Y-103386597D01*
X102377552Y-103440128D01*
X102223211Y-103518768D01*
X102172246Y-103555797D01*
X102083072Y-103620586D01*
X102083070Y-103620588D01*
X102083069Y-103620588D01*
X101960588Y-103743069D01*
X101960588Y-103743070D01*
X101960586Y-103743072D01*
X101938276Y-103773779D01*
X101858768Y-103883211D01*
X101780128Y-104037552D01*
X101726597Y-104202302D01*
X101701197Y-104362677D01*
X101699500Y-104373389D01*
X100246188Y-104373389D01*
X100272709Y-104171938D01*
X100274582Y-104161308D01*
X100362870Y-103763068D01*
X100365668Y-103752630D01*
X100368682Y-103743072D01*
X100488319Y-103363629D01*
X100492016Y-103353473D01*
X100497493Y-103340251D01*
X100648111Y-102976627D01*
X100652669Y-102966853D01*
X100841025Y-102605024D01*
X100846407Y-102595703D01*
X101065574Y-102251680D01*
X101071765Y-102242837D01*
X101320083Y-101919224D01*
X101327021Y-101910955D01*
X101602594Y-101610220D01*
X101610220Y-101602594D01*
X101910955Y-101327021D01*
X101919224Y-101320083D01*
X102242837Y-101071765D01*
X102251680Y-101065574D01*
X102595703Y-100846407D01*
X102605024Y-100841025D01*
X102966853Y-100652669D01*
X102976627Y-100648111D01*
X103353482Y-100492012D01*
X103363629Y-100488319D01*
X103752639Y-100365665D01*
X103763068Y-100362870D01*
X104161308Y-100274582D01*
X104171938Y-100272709D01*
X104576347Y-100219468D01*
X104587080Y-100218528D01*
X104997297Y-100200617D01*
X105002706Y-100200500D01*
X105039882Y-100200500D01*
X164960118Y-100200500D01*
X164997294Y-100200500D01*
X165002702Y-100200617D01*
G37*
%TD.AperFunction*%
%TD*%
%TA.AperFunction,Conductor*%
%TO.N,Net-(LED1-A)*%
G36*
X103596142Y-103881107D02*
G01*
X104579499Y-104306947D01*
X104585729Y-104313379D01*
X104586550Y-104317683D01*
X104586550Y-104602316D01*
X104583123Y-104610589D01*
X104579499Y-104613053D01*
X103596144Y-105038891D01*
X103587191Y-105039033D01*
X103583278Y-105036483D01*
X103007440Y-104468327D01*
X103003958Y-104460079D01*
X103007329Y-104451783D01*
X103007395Y-104451716D01*
X103583279Y-103883515D01*
X103591574Y-103880145D01*
X103596142Y-103881107D01*
G37*
%TD.AperFunction*%
%TD*%
%TA.AperFunction,Conductor*%
%TO.N,/PA3*%
G36*
X136717940Y-125110595D02*
G01*
X136721305Y-125112943D01*
X136922856Y-125314494D01*
X136926283Y-125322767D01*
X136925564Y-125326806D01*
X136409498Y-126729661D01*
X136403425Y-126736243D01*
X136394478Y-126736603D01*
X136394051Y-126736436D01*
X135623785Y-126418362D01*
X135617447Y-126412038D01*
X135299363Y-125641748D01*
X135299372Y-125632793D01*
X135305711Y-125626468D01*
X135306124Y-125626306D01*
X136708995Y-125110235D01*
X136717940Y-125110595D01*
G37*
%TD.AperFunction*%
%TD*%
%TA.AperFunction,Conductor*%
%TO.N,VCC*%
G36*
X114272046Y-106698456D02*
G01*
X114996212Y-106997437D01*
X115002551Y-107003762D01*
X115002562Y-107003787D01*
X115301530Y-107727921D01*
X115301519Y-107736876D01*
X115295180Y-107743201D01*
X115294816Y-107743344D01*
X113981746Y-108234797D01*
X113972797Y-108234487D01*
X113969372Y-108232112D01*
X113767887Y-108030627D01*
X113764460Y-108022354D01*
X113765201Y-108018258D01*
X114256655Y-106705182D01*
X114262765Y-106698636D01*
X114271714Y-106698326D01*
X114272046Y-106698456D01*
G37*
%TD.AperFunction*%
%TD*%
%TA.AperFunction,Conductor*%
%TO.N,/PA2*%
G36*
X139257940Y-125110595D02*
G01*
X139261305Y-125112943D01*
X139462856Y-125314494D01*
X139466283Y-125322767D01*
X139465564Y-125326806D01*
X138949498Y-126729661D01*
X138943425Y-126736243D01*
X138934478Y-126736603D01*
X138934051Y-126736436D01*
X138163785Y-126418362D01*
X138157447Y-126412038D01*
X137839363Y-125641748D01*
X137839372Y-125632793D01*
X137845711Y-125626468D01*
X137846124Y-125626306D01*
X139248995Y-125110235D01*
X139257940Y-125110595D01*
G37*
%TD.AperFunction*%
%TD*%
%TA.AperFunction,Conductor*%
%TO.N,/OSC+*%
G36*
X156318565Y-117717723D02*
G01*
X156996211Y-117997437D01*
X157002551Y-118003761D01*
X157002562Y-118003788D01*
X157282269Y-118681417D01*
X157282258Y-118690372D01*
X157275918Y-118696696D01*
X157275254Y-118696947D01*
X156016959Y-119128998D01*
X156008021Y-119128443D01*
X156004886Y-119126205D01*
X155873794Y-118995113D01*
X155870367Y-118986840D01*
X155870999Y-118983047D01*
X156303053Y-117724743D01*
X156308980Y-117718034D01*
X156317918Y-117717479D01*
X156318565Y-117717723D01*
G37*
%TD.AperFunction*%
%TD*%
%TA.AperFunction,Conductor*%
%TO.N,/NRST*%
G36*
X150863415Y-103558221D02*
G01*
X151453253Y-104149040D01*
X151456673Y-104157316D01*
X151453717Y-104165079D01*
X150603549Y-105121533D01*
X150598491Y-105127223D01*
X150590433Y-105131130D01*
X150589746Y-105131150D01*
X150304773Y-105131150D01*
X150296500Y-105127723D01*
X150293260Y-105121533D01*
X150120226Y-104165079D01*
X150012490Y-103569564D01*
X150014389Y-103560815D01*
X150021920Y-103555970D01*
X150023982Y-103555783D01*
X150855141Y-103554805D01*
X150863415Y-103558221D01*
G37*
%TD.AperFunction*%
%TD*%
%TA.AperFunction,Conductor*%
%TO.N,Net-(R6-Pad2)*%
G36*
X119912489Y-102877952D02*
G01*
X119918816Y-102884290D01*
X119918807Y-102893244D01*
X119918556Y-102893807D01*
X119153182Y-104493350D01*
X119146520Y-104499334D01*
X119142628Y-104500000D01*
X118857372Y-104500000D01*
X118849099Y-104496573D01*
X118846818Y-104493350D01*
X118081443Y-102893807D01*
X118080963Y-102884865D01*
X118086947Y-102878203D01*
X118087484Y-102877963D01*
X118995514Y-102500862D01*
X119004464Y-102500854D01*
X119912489Y-102877952D01*
G37*
%TD.AperFunction*%
%TD*%
%TA.AperFunction,Conductor*%
%TO.N,/PA3*%
G36*
X142835390Y-117532263D02*
G01*
X142836151Y-117534101D01*
X143112394Y-118403665D01*
X143112276Y-118411101D01*
X142977755Y-118792194D01*
X142971770Y-118798855D01*
X142966722Y-118800000D01*
X142683278Y-118800000D01*
X142675005Y-118796573D01*
X142672245Y-118792194D01*
X142537723Y-118411101D01*
X142537605Y-118403665D01*
X142813849Y-117534101D01*
X142819620Y-117527253D01*
X142828542Y-117526492D01*
X142835390Y-117532263D01*
G37*
%TD.AperFunction*%
%TD*%
%TA.AperFunction,Conductor*%
%TO.N,/PA0*%
G36*
X147915390Y-117532263D02*
G01*
X147916151Y-117534101D01*
X148192394Y-118403665D01*
X148192276Y-118411101D01*
X148057755Y-118792194D01*
X148051770Y-118798855D01*
X148046722Y-118800000D01*
X147763278Y-118800000D01*
X147755005Y-118796573D01*
X147752245Y-118792194D01*
X147617723Y-118411101D01*
X147617605Y-118403665D01*
X147893849Y-117534101D01*
X147899620Y-117527253D01*
X147908542Y-117526492D01*
X147915390Y-117532263D01*
G37*
%TD.AperFunction*%
%TD*%
%TA.AperFunction,Conductor*%
%TO.N,/NRST*%
G36*
X120766798Y-124565752D02*
G01*
X120767130Y-124565896D01*
X122043148Y-125146880D01*
X122049258Y-125153427D01*
X122050000Y-125157528D01*
X122050000Y-125442471D01*
X122046573Y-125450744D01*
X122043148Y-125453119D01*
X120767156Y-126034091D01*
X120758207Y-126034401D01*
X120751660Y-126028291D01*
X120751519Y-126027967D01*
X120450864Y-125304487D01*
X120450854Y-125295538D01*
X120751505Y-124572064D01*
X120757843Y-124565741D01*
X120766798Y-124565752D01*
G37*
%TD.AperFunction*%
%TD*%
%TA.AperFunction,Conductor*%
%TO.N,/NRST*%
G36*
X150456002Y-112534490D02*
G01*
X150456991Y-112536746D01*
X150732644Y-113404452D01*
X150732937Y-113410430D01*
X150651972Y-113790736D01*
X150646897Y-113798115D01*
X150640528Y-113800000D01*
X150357418Y-113800000D01*
X150349145Y-113796573D01*
X150346836Y-113793292D01*
X150186782Y-113453996D01*
X150186078Y-113445921D01*
X150434554Y-112537201D01*
X150440042Y-112530126D01*
X150448926Y-112529002D01*
X150456002Y-112534490D01*
G37*
%TD.AperFunction*%
%TD*%
%TA.AperFunction,Conductor*%
%TO.N,/PB0*%
G36*
X136403006Y-103235172D02*
G01*
X136409331Y-103241511D01*
X136409498Y-103241938D01*
X136925564Y-104644793D01*
X136925204Y-104653740D01*
X136922856Y-104657105D01*
X136721305Y-104858656D01*
X136713032Y-104862083D01*
X136708993Y-104861364D01*
X135306138Y-104345298D01*
X135299556Y-104339225D01*
X135299196Y-104330278D01*
X135299363Y-104329851D01*
X135617438Y-103559583D01*
X135623759Y-103553248D01*
X136394051Y-103235163D01*
X136403006Y-103235172D01*
G37*
%TD.AperFunction*%
%TD*%
%TA.AperFunction,Conductor*%
%TO.N,/PB0*%
G36*
X142974995Y-111203427D02*
G01*
X142977755Y-111207806D01*
X143112276Y-111588898D01*
X143112394Y-111596334D01*
X142836151Y-112465898D01*
X142830380Y-112472746D01*
X142821458Y-112473507D01*
X142814610Y-112467736D01*
X142813849Y-112465898D01*
X142537605Y-111596334D01*
X142537722Y-111588900D01*
X142672245Y-111207806D01*
X142678230Y-111201145D01*
X142683278Y-111200000D01*
X142966722Y-111200000D01*
X142974995Y-111203427D01*
G37*
%TD.AperFunction*%
%TD*%
%TA.AperFunction,Conductor*%
%TO.N,/PA9*%
G36*
X146784995Y-111203427D02*
G01*
X146787755Y-111207806D01*
X146922276Y-111588898D01*
X146922394Y-111596334D01*
X146646151Y-112465898D01*
X146640380Y-112472746D01*
X146631458Y-112473507D01*
X146624610Y-112467736D01*
X146623849Y-112465898D01*
X146347605Y-111596334D01*
X146347722Y-111588900D01*
X146482245Y-111207806D01*
X146488230Y-111201145D01*
X146493278Y-111200000D01*
X146776722Y-111200000D01*
X146784995Y-111203427D01*
G37*
%TD.AperFunction*%
%TD*%
%TA.AperFunction,Conductor*%
%TO.N,/PB1*%
G36*
X144244995Y-111203427D02*
G01*
X144247755Y-111207806D01*
X144382276Y-111588898D01*
X144382394Y-111596334D01*
X144106151Y-112465898D01*
X144100380Y-112472746D01*
X144091458Y-112473507D01*
X144084610Y-112467736D01*
X144083849Y-112465898D01*
X143807605Y-111596334D01*
X143807722Y-111588900D01*
X143942245Y-111207806D01*
X143948230Y-111201145D01*
X143953278Y-111200000D01*
X144236722Y-111200000D01*
X144244995Y-111203427D01*
G37*
%TD.AperFunction*%
%TD*%
%TA.AperFunction,Conductor*%
%TO.N,/SWCLK*%
G36*
X149159583Y-103555787D02*
G01*
X149167851Y-103559224D01*
X149171191Y-103566148D01*
X149323498Y-104888609D01*
X149321040Y-104897220D01*
X149313214Y-104901571D01*
X149311875Y-104901648D01*
X149027977Y-104901648D01*
X149022385Y-104900225D01*
X148003959Y-104346125D01*
X147998330Y-104339161D01*
X147998739Y-104331378D01*
X148317006Y-103562035D01*
X148323335Y-103555702D01*
X148327829Y-103554809D01*
X149159583Y-103555787D01*
G37*
%TD.AperFunction*%
%TD*%
%TA.AperFunction,Conductor*%
%TO.N,/OSC-*%
G36*
X149185390Y-117532263D02*
G01*
X149186151Y-117534101D01*
X149462176Y-118402979D01*
X149461571Y-118411587D01*
X149278187Y-118793366D01*
X149271516Y-118799340D01*
X149267641Y-118800000D01*
X149082359Y-118800000D01*
X149074086Y-118796573D01*
X149071813Y-118793366D01*
X148888428Y-118411587D01*
X148887823Y-118402979D01*
X149163849Y-117534101D01*
X149169620Y-117527253D01*
X149178542Y-117526492D01*
X149185390Y-117532263D01*
G37*
%TD.AperFunction*%
%TD*%
%TA.AperFunction,Conductor*%
%TO.N,/NRST*%
G36*
X115150901Y-125503427D02*
G01*
X115153182Y-125506650D01*
X115918556Y-127106192D01*
X115919036Y-127115134D01*
X115913052Y-127121796D01*
X115912489Y-127122047D01*
X115004487Y-127499136D01*
X114995533Y-127499145D01*
X114995513Y-127499136D01*
X114087510Y-127122047D01*
X114081183Y-127115709D01*
X114081192Y-127106755D01*
X114081443Y-127106192D01*
X114846818Y-125506650D01*
X114853480Y-125500666D01*
X114857372Y-125500000D01*
X115142628Y-125500000D01*
X115150901Y-125503427D01*
G37*
%TD.AperFunction*%
%TD*%
%TA.AperFunction,Conductor*%
%TO.N,/NRST*%
G36*
X115912489Y-121377952D02*
G01*
X115918816Y-121384290D01*
X115918807Y-121393244D01*
X115918556Y-121393807D01*
X115153182Y-122993350D01*
X115146520Y-122999334D01*
X115142628Y-123000000D01*
X114857372Y-123000000D01*
X114849099Y-122996573D01*
X114846818Y-122993350D01*
X114081443Y-121393807D01*
X114080963Y-121384865D01*
X114086947Y-121378203D01*
X114087484Y-121377963D01*
X114995514Y-121000862D01*
X115004464Y-121000854D01*
X115912489Y-121377952D01*
G37*
%TD.AperFunction*%
%TD*%
%TA.AperFunction,Conductor*%
%TO.N,VCC*%
G36*
X125152435Y-114002923D02*
G01*
X125154684Y-114004679D01*
X126142714Y-114991723D01*
X126146145Y-114999994D01*
X126142722Y-115008269D01*
X126142714Y-115008277D01*
X125154684Y-115995320D01*
X125146409Y-115998743D01*
X125143577Y-115998394D01*
X124158862Y-115752215D01*
X124151667Y-115746884D01*
X124150000Y-115740864D01*
X124150000Y-114259135D01*
X124153427Y-114250862D01*
X124158860Y-114247784D01*
X125143578Y-114001605D01*
X125152435Y-114002923D01*
G37*
%TD.AperFunction*%
%TD*%
%TA.AperFunction,Conductor*%
%TO.N,/PA7*%
G36*
X133863118Y-103235125D02*
G01*
X133869443Y-103241464D01*
X133869569Y-103241781D01*
X134395798Y-104629276D01*
X134395527Y-104638227D01*
X134393131Y-104641698D01*
X134191570Y-104843259D01*
X134183297Y-104846686D01*
X134179389Y-104846014D01*
X132766324Y-104345211D01*
X132759670Y-104339217D01*
X132759204Y-104330275D01*
X132759409Y-104329740D01*
X133077438Y-103559583D01*
X133083759Y-103553248D01*
X133854165Y-103235116D01*
X133863118Y-103235125D01*
G37*
%TD.AperFunction*%
%TD*%
%TA.AperFunction,Conductor*%
%TO.N,Net-(R6-Pad2)*%
G36*
X118087518Y-102122026D02*
G01*
X118104273Y-102128948D01*
X118996215Y-102497437D01*
X119002553Y-102503764D01*
X119002562Y-102503784D01*
X119377973Y-103412481D01*
X119377964Y-103421435D01*
X119371626Y-103427762D01*
X119371051Y-103427982D01*
X117698804Y-104017826D01*
X117689862Y-104017346D01*
X117686639Y-104015065D01*
X117484934Y-103813360D01*
X117481507Y-103805087D01*
X117482173Y-103801195D01*
X117613815Y-103427982D01*
X118072017Y-102128947D01*
X118078001Y-102122286D01*
X118086943Y-102121806D01*
X118087518Y-102122026D01*
G37*
%TD.AperFunction*%
%TD*%
%TA.AperFunction,Conductor*%
%TO.N,/PA1*%
G36*
X146645390Y-117532263D02*
G01*
X146646151Y-117534101D01*
X146922394Y-118403665D01*
X146922276Y-118411101D01*
X146787755Y-118792194D01*
X146781770Y-118798855D01*
X146776722Y-118800000D01*
X146493278Y-118800000D01*
X146485005Y-118796573D01*
X146482245Y-118792194D01*
X146347723Y-118411101D01*
X146347605Y-118403665D01*
X146623849Y-117534101D01*
X146629620Y-117527253D01*
X146638542Y-117526492D01*
X146645390Y-117532263D01*
G37*
%TD.AperFunction*%
%TD*%
%TA.AperFunction,Conductor*%
%TO.N,/PA0*%
G36*
X146877940Y-125110595D02*
G01*
X146881305Y-125112943D01*
X147082856Y-125314494D01*
X147086283Y-125322767D01*
X147085564Y-125326806D01*
X146569498Y-126729661D01*
X146563425Y-126736243D01*
X146554478Y-126736603D01*
X146554051Y-126736436D01*
X145783785Y-126418362D01*
X145777447Y-126412038D01*
X145459363Y-125641748D01*
X145459372Y-125632793D01*
X145465711Y-125626468D01*
X145466124Y-125626306D01*
X146868995Y-125110235D01*
X146877940Y-125110595D01*
G37*
%TD.AperFunction*%
%TD*%
%TA.AperFunction,Conductor*%
%TO.N,/SWCLK*%
G36*
X149324995Y-111203427D02*
G01*
X149327755Y-111207806D01*
X149462276Y-111588898D01*
X149462394Y-111596334D01*
X149186151Y-112465898D01*
X149180380Y-112472746D01*
X149171458Y-112473507D01*
X149164610Y-112467736D01*
X149163849Y-112465898D01*
X148887605Y-111596334D01*
X148887722Y-111588900D01*
X149022245Y-111207806D01*
X149028230Y-111201145D01*
X149033278Y-111200000D01*
X149316722Y-111200000D01*
X149324995Y-111203427D01*
G37*
%TD.AperFunction*%
%TD*%
%TA.AperFunction,Conductor*%
%TO.N,/OSC-*%
G36*
X157297536Y-122192257D02*
G01*
X157298183Y-122192550D01*
X158493438Y-122776792D01*
X158499366Y-122783503D01*
X158500000Y-122787303D01*
X158500000Y-122972696D01*
X158496573Y-122980969D01*
X158493438Y-122983207D01*
X157298183Y-123567449D01*
X157289245Y-123568004D01*
X157282534Y-123562076D01*
X157282241Y-123561429D01*
X157230915Y-123437948D01*
X157000865Y-122884489D01*
X157000855Y-122875536D01*
X157282241Y-122198569D01*
X157288581Y-122192246D01*
X157297536Y-122192257D01*
G37*
%TD.AperFunction*%
%TD*%
%TA.AperFunction,Conductor*%
%TO.N,VCC*%
G36*
X141483678Y-103234894D02*
G01*
X141489900Y-103240992D01*
X142075639Y-104573781D01*
X142075831Y-104582733D01*
X142073201Y-104586761D01*
X141730961Y-104929001D01*
X141722688Y-104932428D01*
X141717981Y-104931439D01*
X140385192Y-104345700D01*
X140378996Y-104339234D01*
X140379084Y-104330525D01*
X140697438Y-103559583D01*
X140703759Y-103553248D01*
X141474725Y-103234885D01*
X141483678Y-103234894D01*
G37*
%TD.AperFunction*%
%TD*%
%TA.AperFunction,Conductor*%
%TO.N,/NRST*%
G36*
X150648684Y-114003427D02*
G01*
X150651883Y-114009403D01*
X150729089Y-114394937D01*
X150727354Y-114403722D01*
X150722134Y-114408027D01*
X150504517Y-114499109D01*
X150495563Y-114499142D01*
X150495483Y-114499109D01*
X150277865Y-114408027D01*
X150271556Y-114401672D01*
X150270910Y-114394939D01*
X150348117Y-114009403D01*
X150353101Y-114001963D01*
X150359589Y-114000000D01*
X150640411Y-114000000D01*
X150648684Y-114003427D01*
G37*
%TD.AperFunction*%
%TD*%
%TA.AperFunction,Conductor*%
%TO.N,VCC*%
G36*
X126155729Y-115012691D02*
G01*
X126160201Y-115017163D01*
X127128848Y-116741893D01*
X127130120Y-116749918D01*
X126901882Y-117890596D01*
X126896898Y-117898036D01*
X126890409Y-117900000D01*
X125409591Y-117900000D01*
X125401318Y-117896573D01*
X125398118Y-117890596D01*
X125169879Y-116749915D01*
X125171150Y-116741895D01*
X126139799Y-115017162D01*
X126146838Y-115011627D01*
X126155729Y-115012691D01*
G37*
%TD.AperFunction*%
%TD*%
%TA.AperFunction,Conductor*%
%TO.N,VCC*%
G36*
X127087533Y-124441757D02*
G01*
X128345866Y-125560275D01*
X128349773Y-125568332D01*
X128348907Y-125573486D01*
X128002562Y-126412015D01*
X127996236Y-126418353D01*
X127996215Y-126418362D01*
X127157686Y-126764707D01*
X127148731Y-126764698D01*
X127144475Y-126761667D01*
X126025957Y-125503333D01*
X126023023Y-125494875D01*
X126026429Y-125487290D01*
X127071490Y-124442229D01*
X127079762Y-124438803D01*
X127087533Y-124441757D01*
G37*
%TD.AperFunction*%
%TD*%
%TA.AperFunction,Conductor*%
%TO.N,/SWDIO*%
G36*
X148054995Y-111203427D02*
G01*
X148057755Y-111207806D01*
X148192276Y-111588898D01*
X148192394Y-111596334D01*
X147916151Y-112465898D01*
X147910380Y-112472746D01*
X147901458Y-112473507D01*
X147894610Y-112467736D01*
X147893849Y-112465898D01*
X147617605Y-111596334D01*
X147617722Y-111588900D01*
X147752245Y-111207806D01*
X147758230Y-111201145D01*
X147763278Y-111200000D01*
X148046722Y-111200000D01*
X148054995Y-111203427D01*
G37*
%TD.AperFunction*%
%TD*%
%TA.AperFunction,Conductor*%
%TO.N,/PA7*%
G36*
X141156460Y-111390535D02*
G01*
X141379785Y-111501311D01*
X141385674Y-111508057D01*
X141386118Y-111509818D01*
X141553849Y-112489856D01*
X141551867Y-112498589D01*
X141544989Y-112503221D01*
X141265452Y-112568802D01*
X141256615Y-112567355D01*
X141251660Y-112561050D01*
X141231912Y-112500707D01*
X140939037Y-111605763D01*
X140939721Y-111596834D01*
X140941881Y-111593854D01*
X141142992Y-111392743D01*
X141151264Y-111389317D01*
X141156460Y-111390535D01*
G37*
%TD.AperFunction*%
%TD*%
%TA.AperFunction,Conductor*%
%TO.N,VCC*%
G36*
X156855611Y-111150660D02*
G01*
X157689667Y-111248784D01*
X157697483Y-111253154D01*
X157700000Y-111260404D01*
X157700000Y-112739595D01*
X157696573Y-112747868D01*
X157689667Y-112751215D01*
X156855626Y-112849338D01*
X156847009Y-112846901D01*
X156845991Y-112845996D01*
X156007286Y-112008276D01*
X156003855Y-112000007D01*
X156007276Y-111991733D01*
X156845993Y-111154002D01*
X156854266Y-111150581D01*
X156855611Y-111150660D01*
G37*
%TD.AperFunction*%
%TD*%
%TA.AperFunction,Conductor*%
%TO.N,/PA1*%
G36*
X144337940Y-125110595D02*
G01*
X144341305Y-125112943D01*
X144542856Y-125314494D01*
X144546283Y-125322767D01*
X144545564Y-125326806D01*
X144029498Y-126729661D01*
X144023425Y-126736243D01*
X144014478Y-126736603D01*
X144014051Y-126736436D01*
X143243785Y-126418362D01*
X143237447Y-126412038D01*
X142919363Y-125641748D01*
X142919372Y-125632793D01*
X142925711Y-125626468D01*
X142926124Y-125626306D01*
X144328995Y-125110235D01*
X144337940Y-125110595D01*
G37*
%TD.AperFunction*%
%TD*%
%TA.AperFunction,Conductor*%
%TO.N,Net-(LED2-A)*%
G36*
X111150745Y-105363427D02*
G01*
X111153120Y-105366852D01*
X111734091Y-106642843D01*
X111734401Y-106651792D01*
X111728291Y-106658339D01*
X111727933Y-106658495D01*
X111004490Y-106959134D01*
X110995536Y-106959144D01*
X110272065Y-106658494D01*
X110265741Y-106652156D01*
X110265752Y-106643201D01*
X110265886Y-106642892D01*
X110846880Y-105366851D01*
X110853427Y-105360742D01*
X110857528Y-105360000D01*
X111142472Y-105360000D01*
X111150745Y-105363427D01*
G37*
%TD.AperFunction*%
%TD*%
%TA.AperFunction,Conductor*%
%TO.N,/OSC+*%
G36*
X157297536Y-117312257D02*
G01*
X157298183Y-117312550D01*
X158493438Y-117896792D01*
X158499366Y-117903503D01*
X158500000Y-117907303D01*
X158500000Y-118092696D01*
X158496573Y-118100969D01*
X158493438Y-118103207D01*
X157298183Y-118687449D01*
X157289245Y-118688004D01*
X157282534Y-118682076D01*
X157282241Y-118681429D01*
X157230915Y-118557948D01*
X157000865Y-118004489D01*
X157000855Y-117995536D01*
X157282241Y-117318569D01*
X157288581Y-117312246D01*
X157297536Y-117312257D01*
G37*
%TD.AperFunction*%
%TD*%
%TA.AperFunction,Conductor*%
%TO.N,Net-(LED1-A)*%
G36*
X106698339Y-103731708D02*
G01*
X106698495Y-103732066D01*
X106999134Y-104455510D01*
X106999144Y-104464463D01*
X106999135Y-104464485D01*
X106999134Y-104464490D01*
X106698495Y-105187933D01*
X106692156Y-105194258D01*
X106683201Y-105194247D01*
X106682843Y-105194091D01*
X105406852Y-104613119D01*
X105400742Y-104606572D01*
X105400000Y-104602471D01*
X105400000Y-104317528D01*
X105403427Y-104309255D01*
X105406852Y-104306880D01*
X106682845Y-103725907D01*
X106691792Y-103725598D01*
X106698339Y-103731708D01*
G37*
%TD.AperFunction*%
%TD*%
%TA.AperFunction,Conductor*%
%TO.N,/PA9*%
G36*
X144023006Y-103235172D02*
G01*
X144029331Y-103241511D01*
X144029498Y-103241938D01*
X144545564Y-104644793D01*
X144545204Y-104653740D01*
X144542856Y-104657105D01*
X144341305Y-104858656D01*
X144333032Y-104862083D01*
X144328993Y-104861364D01*
X142926138Y-104345298D01*
X142919556Y-104339225D01*
X142919196Y-104330278D01*
X142919363Y-104329851D01*
X143237438Y-103559583D01*
X143243759Y-103553248D01*
X144014051Y-103235163D01*
X144023006Y-103235172D01*
G37*
%TD.AperFunction*%
%TD*%
%TA.AperFunction,Conductor*%
%TO.N,/OSC+*%
G36*
X160698330Y-117271733D02*
G01*
X160698644Y-117272425D01*
X160999134Y-117995510D01*
X160999144Y-118004463D01*
X160999135Y-118004485D01*
X160999134Y-118004490D01*
X160698644Y-118727574D01*
X160692305Y-118733899D01*
X160683350Y-118733888D01*
X160682658Y-118733574D01*
X159406518Y-118103219D01*
X159400618Y-118096483D01*
X159400000Y-118092729D01*
X159400000Y-117907270D01*
X159403427Y-117898997D01*
X159406516Y-117896781D01*
X160682659Y-117266424D01*
X160691594Y-117265833D01*
X160698330Y-117271733D01*
G37*
%TD.AperFunction*%
%TD*%
%TA.AperFunction,Conductor*%
%TO.N,/PA6*%
G36*
X141544912Y-117496645D02*
G01*
X141552131Y-117501944D01*
X141553616Y-117510208D01*
X141366873Y-118485471D01*
X141361952Y-118492952D01*
X141359142Y-118494350D01*
X141155822Y-118563359D01*
X141146887Y-118562773D01*
X141143789Y-118560553D01*
X140941964Y-118358728D01*
X140938537Y-118350455D01*
X140939168Y-118346664D01*
X141251532Y-117435643D01*
X141257456Y-117428931D01*
X141265384Y-117428077D01*
X141544912Y-117496645D01*
G37*
%TD.AperFunction*%
%TD*%
%TA.AperFunction,Conductor*%
%TO.N,/NRST*%
G36*
X150594995Y-111203427D02*
G01*
X150597755Y-111207806D01*
X150732276Y-111588898D01*
X150732394Y-111596334D01*
X150456151Y-112465898D01*
X150450380Y-112472746D01*
X150441458Y-112473507D01*
X150434610Y-112467736D01*
X150433849Y-112465898D01*
X150157605Y-111596334D01*
X150157722Y-111588900D01*
X150292245Y-111207806D01*
X150298230Y-111201145D01*
X150303278Y-111200000D01*
X150586722Y-111200000D01*
X150594995Y-111203427D01*
G37*
%TD.AperFunction*%
%TD*%
%TA.AperFunction,Conductor*%
%TO.N,/PA6*%
G36*
X134180639Y-125114609D02*
G01*
X134183971Y-125116941D01*
X134385525Y-125318495D01*
X134388952Y-125326768D01*
X134388222Y-125330836D01*
X133869516Y-126729703D01*
X133863427Y-126736268D01*
X133854478Y-126736605D01*
X133854097Y-126736456D01*
X133083784Y-126418361D01*
X133077447Y-126412038D01*
X132759377Y-125641782D01*
X132759386Y-125632827D01*
X132765725Y-125626502D01*
X132766146Y-125626338D01*
X134171694Y-125114221D01*
X134180639Y-125114609D01*
G37*
%TD.AperFunction*%
%TD*%
%TA.AperFunction,Conductor*%
%TO.N,Net-(R6-Pad2)*%
G36*
X115316798Y-103725752D02*
G01*
X115317130Y-103725896D01*
X116593148Y-104306880D01*
X116599258Y-104313427D01*
X116600000Y-104317528D01*
X116600000Y-104602471D01*
X116596573Y-104610744D01*
X116593148Y-104613119D01*
X115317156Y-105194091D01*
X115308207Y-105194401D01*
X115301660Y-105188291D01*
X115301519Y-105187967D01*
X115000864Y-104464487D01*
X115000854Y-104455538D01*
X115301505Y-103732064D01*
X115307843Y-103725741D01*
X115316798Y-103725752D01*
G37*
%TD.AperFunction*%
%TD*%
%TA.AperFunction,Conductor*%
%TO.N,/NRST*%
G36*
X123698327Y-124516740D02*
G01*
X123698675Y-124517500D01*
X123999134Y-125240510D01*
X123999144Y-125249463D01*
X123999135Y-125249485D01*
X123999134Y-125249490D01*
X123698345Y-125973293D01*
X123692006Y-125979618D01*
X123683051Y-125979607D01*
X123683044Y-125979604D01*
X122418143Y-125452998D01*
X122411823Y-125446655D01*
X122410940Y-125442197D01*
X122410940Y-125157217D01*
X122414367Y-125148944D01*
X122417386Y-125146763D01*
X123682623Y-124511533D01*
X123691553Y-124510884D01*
X123698327Y-124516740D01*
G37*
%TD.AperFunction*%
%TD*%
%TA.AperFunction,Conductor*%
%TO.N,Net-(LED2-A)*%
G36*
X111006540Y-104543409D02*
G01*
X111690851Y-105004760D01*
X111695796Y-105012226D01*
X111694379Y-105020421D01*
X111153398Y-105934260D01*
X111146235Y-105939634D01*
X111143330Y-105940000D01*
X110856670Y-105940000D01*
X110848397Y-105936573D01*
X110846602Y-105934260D01*
X110305620Y-105020421D01*
X110304354Y-105011556D01*
X110309147Y-105004761D01*
X110993460Y-104543408D01*
X111002235Y-104541625D01*
X111006540Y-104543409D01*
G37*
%TD.AperFunction*%
%TD*%
%TA.AperFunction,Conductor*%
%TO.N,VCC*%
G36*
X107736876Y-106698480D02*
G01*
X107743201Y-106704819D01*
X107743344Y-106705183D01*
X108234797Y-108018253D01*
X108234487Y-108027202D01*
X108232112Y-108030627D01*
X108030627Y-108232112D01*
X108022354Y-108235539D01*
X108018253Y-108234797D01*
X106705183Y-107743344D01*
X106698636Y-107737234D01*
X106698326Y-107728285D01*
X106698448Y-107727972D01*
X106997438Y-107003785D01*
X107003762Y-106997448D01*
X107003764Y-106997446D01*
X107727923Y-106698469D01*
X107736876Y-106698480D01*
G37*
%TD.AperFunction*%
%TD*%
%TA.AperFunction,Conductor*%
%TO.N,/PB1*%
G36*
X138943006Y-103235172D02*
G01*
X138949331Y-103241511D01*
X138949498Y-103241938D01*
X139465564Y-104644793D01*
X139465204Y-104653740D01*
X139462856Y-104657105D01*
X139261305Y-104858656D01*
X139253032Y-104862083D01*
X139248993Y-104861364D01*
X137846138Y-104345298D01*
X137839556Y-104339225D01*
X137839196Y-104330278D01*
X137839363Y-104329851D01*
X138157438Y-103559583D01*
X138163759Y-103553248D01*
X138934051Y-103235163D01*
X138943006Y-103235172D01*
G37*
%TD.AperFunction*%
%TD*%
%TA.AperFunction,Conductor*%
%TO.N,/PA2*%
G36*
X144105390Y-117532263D02*
G01*
X144106151Y-117534101D01*
X144382394Y-118403665D01*
X144382276Y-118411101D01*
X144247755Y-118792194D01*
X144241770Y-118798855D01*
X144236722Y-118800000D01*
X143953278Y-118800000D01*
X143945005Y-118796573D01*
X143942245Y-118792194D01*
X143807723Y-118411101D01*
X143807605Y-118403665D01*
X144083849Y-117534101D01*
X144089620Y-117527253D01*
X144098542Y-117526492D01*
X144105390Y-117532263D01*
G37*
%TD.AperFunction*%
%TD*%
%TA.AperFunction,Conductor*%
%TO.N,/OSC-*%
G36*
X160692040Y-122265339D02*
G01*
X160698316Y-122271637D01*
X160999134Y-122995510D01*
X160999144Y-123004463D01*
X160999135Y-123004485D01*
X160999134Y-123004490D01*
X160699045Y-123726608D01*
X160692706Y-123732933D01*
X160683751Y-123732922D01*
X160682238Y-123732161D01*
X159429566Y-122983405D01*
X159424223Y-122976219D01*
X159423869Y-122973362D01*
X159423869Y-122787857D01*
X159427296Y-122779584D01*
X159431142Y-122777027D01*
X160683085Y-122265297D01*
X160692040Y-122265339D01*
G37*
%TD.AperFunction*%
%TD*%
%TA.AperFunction,Conductor*%
%TO.N,/OSC+*%
G36*
X150455390Y-117532263D02*
G01*
X150456151Y-117534101D01*
X150732176Y-118402979D01*
X150731571Y-118411587D01*
X150548187Y-118793366D01*
X150541516Y-118799340D01*
X150537641Y-118800000D01*
X150352359Y-118800000D01*
X150344086Y-118796573D01*
X150341813Y-118793366D01*
X150158428Y-118411587D01*
X150157823Y-118402979D01*
X150433849Y-117534101D01*
X150439620Y-117527253D01*
X150448542Y-117526492D01*
X150455390Y-117532263D01*
G37*
%TD.AperFunction*%
%TD*%
%TA.AperFunction,Conductor*%
%TO.N,Net-(R6-Pad2)*%
G36*
X119150901Y-107003427D02*
G01*
X119153182Y-107006650D01*
X119918556Y-108606192D01*
X119919036Y-108615134D01*
X119913052Y-108621796D01*
X119912489Y-108622047D01*
X119004487Y-108999136D01*
X118995533Y-108999145D01*
X118995513Y-108999136D01*
X118087510Y-108622047D01*
X118081183Y-108615709D01*
X118081192Y-108606755D01*
X118081443Y-108606192D01*
X118846818Y-107006650D01*
X118853480Y-107000666D01*
X118857372Y-107000000D01*
X119142628Y-107000000D01*
X119150901Y-107003427D01*
G37*
%TD.AperFunction*%
%TD*%
%TA.AperFunction,Conductor*%
%TO.N,/SWDIO*%
G36*
X146563006Y-103235172D02*
G01*
X146569331Y-103241511D01*
X146569498Y-103241938D01*
X147085564Y-104644793D01*
X147085204Y-104653740D01*
X147082856Y-104657105D01*
X146881305Y-104858656D01*
X146873032Y-104862083D01*
X146868993Y-104861364D01*
X145466138Y-104345298D01*
X145459556Y-104339225D01*
X145459196Y-104330278D01*
X145459363Y-104329851D01*
X145777438Y-103559583D01*
X145783759Y-103553248D01*
X146554051Y-103235163D01*
X146563006Y-103235172D01*
G37*
%TD.AperFunction*%
%TD*%
%TA.AperFunction,Conductor*%
%TO.N,/NRST*%
G36*
X115393244Y-126581192D02*
G01*
X115393807Y-126581443D01*
X116993350Y-127346818D01*
X116999334Y-127353480D01*
X117000000Y-127357372D01*
X117000000Y-127642627D01*
X116996573Y-127650900D01*
X116993350Y-127653181D01*
X115393807Y-128418556D01*
X115384865Y-128419036D01*
X115378203Y-128413052D01*
X115377952Y-128412489D01*
X115000863Y-127504487D01*
X115000854Y-127495535D01*
X115377953Y-126587508D01*
X115384290Y-126581183D01*
X115393244Y-126581192D01*
G37*
%TD.AperFunction*%
%TD*%
%TA.AperFunction,Conductor*%
%TO.N,/OSC-*%
G36*
X156016953Y-121751000D02*
G01*
X157275254Y-122183052D01*
X157281965Y-122188980D01*
X157282520Y-122197918D01*
X157282269Y-122198582D01*
X157002562Y-122876211D01*
X156996238Y-122882551D01*
X156996211Y-122882562D01*
X156318582Y-123162269D01*
X156309627Y-123162258D01*
X156303303Y-123155918D01*
X156303052Y-123155254D01*
X156209420Y-122882562D01*
X155871001Y-121896956D01*
X155871556Y-121888021D01*
X155873791Y-121884889D01*
X156004887Y-121753793D01*
X156013159Y-121750367D01*
X156016953Y-121751000D01*
G37*
%TD.AperFunction*%
%TD*%
%TA.AperFunction,Conductor*%
%TO.N,VCC*%
G36*
X145612801Y-111203427D02*
G01*
X145616156Y-111210408D01*
X145664704Y-111647341D01*
X145664110Y-111652523D01*
X145376034Y-112469700D01*
X145370052Y-112476363D01*
X145361110Y-112476844D01*
X145354447Y-112470862D01*
X145353966Y-112469700D01*
X145065889Y-111652523D01*
X145065295Y-111647341D01*
X145113844Y-111210408D01*
X145118163Y-111202564D01*
X145125472Y-111200000D01*
X145604528Y-111200000D01*
X145612801Y-111203427D01*
G37*
%TD.AperFunction*%
%TD*%
%TA.AperFunction,Conductor*%
%TO.N,/NRST*%
G36*
X119722046Y-124998456D02*
G01*
X120446212Y-125297437D01*
X120452551Y-125303762D01*
X120452562Y-125303787D01*
X120751530Y-126027921D01*
X120751519Y-126036876D01*
X120745180Y-126043201D01*
X120744816Y-126043344D01*
X119431746Y-126534797D01*
X119422797Y-126534487D01*
X119419372Y-126532112D01*
X119217887Y-126330627D01*
X119214460Y-126322354D01*
X119215201Y-126318258D01*
X119706655Y-125005182D01*
X119712765Y-124998636D01*
X119721714Y-124998326D01*
X119722046Y-124998456D01*
G37*
%TD.AperFunction*%
%TD*%
M02*
