%TF.GenerationSoftware,KiCad,Pcbnew,8.0.5*%
%TF.CreationDate,2024-10-31T22:01:25+08:00*%
%TF.ProjectId,AMS1117_TP4056_Lithium_battery_charging,414d5331-3131-4375-9f54-50343035365f,rev?*%
%TF.SameCoordinates,Original*%
%TF.FileFunction,Legend,Bot*%
%TF.FilePolarity,Positive*%
%FSLAX46Y46*%
G04 Gerber Fmt 4.6, Leading zero omitted, Abs format (unit mm)*
G04 Created by KiCad (PCBNEW 8.0.5) date 2024-10-31 22:01:25*
%MOMM*%
%LPD*%
G01*
G04 APERTURE LIST*
%ADD10C,0.300000*%
%ADD11C,0.150000*%
%ADD12C,0.120000*%
G04 APERTURE END LIST*
D10*
X120007394Y-132215114D02*
X119793108Y-132286542D01*
X119793108Y-132286542D02*
X119721679Y-132357971D01*
X119721679Y-132357971D02*
X119650251Y-132500828D01*
X119650251Y-132500828D02*
X119650251Y-132715114D01*
X119650251Y-132715114D02*
X119721679Y-132857971D01*
X119721679Y-132857971D02*
X119793108Y-132929400D01*
X119793108Y-132929400D02*
X119935965Y-133000828D01*
X119935965Y-133000828D02*
X120507394Y-133000828D01*
X120507394Y-133000828D02*
X120507394Y-131500828D01*
X120507394Y-131500828D02*
X120007394Y-131500828D01*
X120007394Y-131500828D02*
X119864537Y-131572257D01*
X119864537Y-131572257D02*
X119793108Y-131643685D01*
X119793108Y-131643685D02*
X119721679Y-131786542D01*
X119721679Y-131786542D02*
X119721679Y-131929400D01*
X119721679Y-131929400D02*
X119793108Y-132072257D01*
X119793108Y-132072257D02*
X119864537Y-132143685D01*
X119864537Y-132143685D02*
X120007394Y-132215114D01*
X120007394Y-132215114D02*
X120507394Y-132215114D01*
X119078822Y-132572257D02*
X118364537Y-132572257D01*
X119221679Y-133000828D02*
X118721679Y-131500828D01*
X118721679Y-131500828D02*
X118221679Y-133000828D01*
X117935965Y-131500828D02*
X117078823Y-131500828D01*
X117507394Y-133000828D02*
X117507394Y-131500828D01*
X116578823Y-132429400D02*
X115435966Y-132429400D01*
X109059774Y-131500828D02*
X108559774Y-133000828D01*
X108559774Y-133000828D02*
X108059774Y-131500828D01*
X107559775Y-133000828D02*
X107559775Y-131500828D01*
X106845489Y-133000828D02*
X106845489Y-131500828D01*
X106845489Y-131500828D02*
X105988346Y-133000828D01*
X105988346Y-133000828D02*
X105988346Y-131500828D01*
X113283584Y-131572257D02*
X113426442Y-131500828D01*
X113426442Y-131500828D02*
X113640727Y-131500828D01*
X113640727Y-131500828D02*
X113855013Y-131572257D01*
X113855013Y-131572257D02*
X113997870Y-131715114D01*
X113997870Y-131715114D02*
X114069299Y-131857971D01*
X114069299Y-131857971D02*
X114140727Y-132143685D01*
X114140727Y-132143685D02*
X114140727Y-132357971D01*
X114140727Y-132357971D02*
X114069299Y-132643685D01*
X114069299Y-132643685D02*
X113997870Y-132786542D01*
X113997870Y-132786542D02*
X113855013Y-132929400D01*
X113855013Y-132929400D02*
X113640727Y-133000828D01*
X113640727Y-133000828D02*
X113497870Y-133000828D01*
X113497870Y-133000828D02*
X113283584Y-132929400D01*
X113283584Y-132929400D02*
X113212156Y-132857971D01*
X113212156Y-132857971D02*
X113212156Y-132357971D01*
X113212156Y-132357971D02*
X113497870Y-132357971D01*
X112569299Y-133000828D02*
X112569299Y-131500828D01*
X112569299Y-131500828D02*
X111712156Y-133000828D01*
X111712156Y-133000828D02*
X111712156Y-131500828D01*
X110997870Y-133000828D02*
X110997870Y-131500828D01*
X110997870Y-131500828D02*
X110640727Y-131500828D01*
X110640727Y-131500828D02*
X110426441Y-131572257D01*
X110426441Y-131572257D02*
X110283584Y-131715114D01*
X110283584Y-131715114D02*
X110212155Y-131857971D01*
X110212155Y-131857971D02*
X110140727Y-132143685D01*
X110140727Y-132143685D02*
X110140727Y-132357971D01*
X110140727Y-132357971D02*
X110212155Y-132643685D01*
X110212155Y-132643685D02*
X110283584Y-132786542D01*
X110283584Y-132786542D02*
X110426441Y-132929400D01*
X110426441Y-132929400D02*
X110640727Y-133000828D01*
X110640727Y-133000828D02*
X110997870Y-133000828D01*
X126445489Y-132215114D02*
X126231203Y-132286542D01*
X126231203Y-132286542D02*
X126159774Y-132357971D01*
X126159774Y-132357971D02*
X126088346Y-132500828D01*
X126088346Y-132500828D02*
X126088346Y-132715114D01*
X126088346Y-132715114D02*
X126159774Y-132857971D01*
X126159774Y-132857971D02*
X126231203Y-132929400D01*
X126231203Y-132929400D02*
X126374060Y-133000828D01*
X126374060Y-133000828D02*
X126945489Y-133000828D01*
X126945489Y-133000828D02*
X126945489Y-131500828D01*
X126945489Y-131500828D02*
X126445489Y-131500828D01*
X126445489Y-131500828D02*
X126302632Y-131572257D01*
X126302632Y-131572257D02*
X126231203Y-131643685D01*
X126231203Y-131643685D02*
X126159774Y-131786542D01*
X126159774Y-131786542D02*
X126159774Y-131929400D01*
X126159774Y-131929400D02*
X126231203Y-132072257D01*
X126231203Y-132072257D02*
X126302632Y-132143685D01*
X126302632Y-132143685D02*
X126445489Y-132215114D01*
X126445489Y-132215114D02*
X126945489Y-132215114D01*
X125516917Y-132572257D02*
X124802632Y-132572257D01*
X125659774Y-133000828D02*
X125159774Y-131500828D01*
X125159774Y-131500828D02*
X124659774Y-133000828D01*
X124374060Y-131500828D02*
X123516918Y-131500828D01*
X123945489Y-133000828D02*
X123945489Y-131500828D01*
X123016918Y-132429400D02*
X121874061Y-132429400D01*
X122445489Y-133000828D02*
X122445489Y-131857971D01*
D11*
X105999999Y-107069104D02*
X105523809Y-107069104D01*
X106095237Y-107354819D02*
X105761904Y-106354819D01*
X105761904Y-106354819D02*
X105428571Y-107354819D01*
X105095237Y-107354819D02*
X105095237Y-106354819D01*
X105095237Y-106354819D02*
X104761904Y-107069104D01*
X104761904Y-107069104D02*
X104428571Y-106354819D01*
X104428571Y-106354819D02*
X104428571Y-107354819D01*
X103999999Y-107307200D02*
X103857142Y-107354819D01*
X103857142Y-107354819D02*
X103619047Y-107354819D01*
X103619047Y-107354819D02*
X103523809Y-107307200D01*
X103523809Y-107307200D02*
X103476190Y-107259580D01*
X103476190Y-107259580D02*
X103428571Y-107164342D01*
X103428571Y-107164342D02*
X103428571Y-107069104D01*
X103428571Y-107069104D02*
X103476190Y-106973866D01*
X103476190Y-106973866D02*
X103523809Y-106926247D01*
X103523809Y-106926247D02*
X103619047Y-106878628D01*
X103619047Y-106878628D02*
X103809523Y-106831009D01*
X103809523Y-106831009D02*
X103904761Y-106783390D01*
X103904761Y-106783390D02*
X103952380Y-106735771D01*
X103952380Y-106735771D02*
X103999999Y-106640533D01*
X103999999Y-106640533D02*
X103999999Y-106545295D01*
X103999999Y-106545295D02*
X103952380Y-106450057D01*
X103952380Y-106450057D02*
X103904761Y-106402438D01*
X103904761Y-106402438D02*
X103809523Y-106354819D01*
X103809523Y-106354819D02*
X103571428Y-106354819D01*
X103571428Y-106354819D02*
X103428571Y-106402438D01*
X102476190Y-107354819D02*
X103047618Y-107354819D01*
X102761904Y-107354819D02*
X102761904Y-106354819D01*
X102761904Y-106354819D02*
X102857142Y-106497676D01*
X102857142Y-106497676D02*
X102952380Y-106592914D01*
X102952380Y-106592914D02*
X103047618Y-106640533D01*
X101523809Y-107354819D02*
X102095237Y-107354819D01*
X101809523Y-107354819D02*
X101809523Y-106354819D01*
X101809523Y-106354819D02*
X101904761Y-106497676D01*
X101904761Y-106497676D02*
X101999999Y-106592914D01*
X101999999Y-106592914D02*
X102095237Y-106640533D01*
X100571428Y-107354819D02*
X101142856Y-107354819D01*
X100857142Y-107354819D02*
X100857142Y-106354819D01*
X100857142Y-106354819D02*
X100952380Y-106497676D01*
X100952380Y-106497676D02*
X101047618Y-106592914D01*
X101047618Y-106592914D02*
X101142856Y-106640533D01*
X100238094Y-106354819D02*
X99571428Y-106354819D01*
X99571428Y-106354819D02*
X99999999Y-107354819D01*
X99190475Y-106973866D02*
X98428571Y-106973866D01*
X97476190Y-106354819D02*
X97952380Y-106354819D01*
X97952380Y-106354819D02*
X97999999Y-106831009D01*
X97999999Y-106831009D02*
X97952380Y-106783390D01*
X97952380Y-106783390D02*
X97857142Y-106735771D01*
X97857142Y-106735771D02*
X97619047Y-106735771D01*
X97619047Y-106735771D02*
X97523809Y-106783390D01*
X97523809Y-106783390D02*
X97476190Y-106831009D01*
X97476190Y-106831009D02*
X97428571Y-106926247D01*
X97428571Y-106926247D02*
X97428571Y-107164342D01*
X97428571Y-107164342D02*
X97476190Y-107259580D01*
X97476190Y-107259580D02*
X97523809Y-107307200D01*
X97523809Y-107307200D02*
X97619047Y-107354819D01*
X97619047Y-107354819D02*
X97857142Y-107354819D01*
X97857142Y-107354819D02*
X97952380Y-107307200D01*
X97952380Y-107307200D02*
X97999999Y-107259580D01*
X96999999Y-107259580D02*
X96952380Y-107307200D01*
X96952380Y-107307200D02*
X96999999Y-107354819D01*
X96999999Y-107354819D02*
X97047618Y-107307200D01*
X97047618Y-107307200D02*
X96999999Y-107259580D01*
X96999999Y-107259580D02*
X96999999Y-107354819D01*
X96333333Y-106354819D02*
X96238095Y-106354819D01*
X96238095Y-106354819D02*
X96142857Y-106402438D01*
X96142857Y-106402438D02*
X96095238Y-106450057D01*
X96095238Y-106450057D02*
X96047619Y-106545295D01*
X96047619Y-106545295D02*
X96000000Y-106735771D01*
X96000000Y-106735771D02*
X96000000Y-106973866D01*
X96000000Y-106973866D02*
X96047619Y-107164342D01*
X96047619Y-107164342D02*
X96095238Y-107259580D01*
X96095238Y-107259580D02*
X96142857Y-107307200D01*
X96142857Y-107307200D02*
X96238095Y-107354819D01*
X96238095Y-107354819D02*
X96333333Y-107354819D01*
X96333333Y-107354819D02*
X96428571Y-107307200D01*
X96428571Y-107307200D02*
X96476190Y-107259580D01*
X96476190Y-107259580D02*
X96523809Y-107164342D01*
X96523809Y-107164342D02*
X96571428Y-106973866D01*
X96571428Y-106973866D02*
X96571428Y-106735771D01*
X96571428Y-106735771D02*
X96523809Y-106545295D01*
X96523809Y-106545295D02*
X96476190Y-106450057D01*
X96476190Y-106450057D02*
X96428571Y-106402438D01*
X96428571Y-106402438D02*
X96333333Y-106354819D01*
X114347619Y-107154819D02*
X114919047Y-107154819D01*
X114633333Y-107154819D02*
X114633333Y-106154819D01*
X114633333Y-106154819D02*
X114728571Y-106297676D01*
X114728571Y-106297676D02*
X114823809Y-106392914D01*
X114823809Y-106392914D02*
X114919047Y-106440533D01*
X113728571Y-106154819D02*
X113633333Y-106154819D01*
X113633333Y-106154819D02*
X113538095Y-106202438D01*
X113538095Y-106202438D02*
X113490476Y-106250057D01*
X113490476Y-106250057D02*
X113442857Y-106345295D01*
X113442857Y-106345295D02*
X113395238Y-106535771D01*
X113395238Y-106535771D02*
X113395238Y-106773866D01*
X113395238Y-106773866D02*
X113442857Y-106964342D01*
X113442857Y-106964342D02*
X113490476Y-107059580D01*
X113490476Y-107059580D02*
X113538095Y-107107200D01*
X113538095Y-107107200D02*
X113633333Y-107154819D01*
X113633333Y-107154819D02*
X113728571Y-107154819D01*
X113728571Y-107154819D02*
X113823809Y-107107200D01*
X113823809Y-107107200D02*
X113871428Y-107059580D01*
X113871428Y-107059580D02*
X113919047Y-106964342D01*
X113919047Y-106964342D02*
X113966666Y-106773866D01*
X113966666Y-106773866D02*
X113966666Y-106535771D01*
X113966666Y-106535771D02*
X113919047Y-106345295D01*
X113919047Y-106345295D02*
X113871428Y-106250057D01*
X113871428Y-106250057D02*
X113823809Y-106202438D01*
X113823809Y-106202438D02*
X113728571Y-106154819D01*
X112776190Y-106154819D02*
X112680952Y-106154819D01*
X112680952Y-106154819D02*
X112585714Y-106202438D01*
X112585714Y-106202438D02*
X112538095Y-106250057D01*
X112538095Y-106250057D02*
X112490476Y-106345295D01*
X112490476Y-106345295D02*
X112442857Y-106535771D01*
X112442857Y-106535771D02*
X112442857Y-106773866D01*
X112442857Y-106773866D02*
X112490476Y-106964342D01*
X112490476Y-106964342D02*
X112538095Y-107059580D01*
X112538095Y-107059580D02*
X112585714Y-107107200D01*
X112585714Y-107107200D02*
X112680952Y-107154819D01*
X112680952Y-107154819D02*
X112776190Y-107154819D01*
X112776190Y-107154819D02*
X112871428Y-107107200D01*
X112871428Y-107107200D02*
X112919047Y-107059580D01*
X112919047Y-107059580D02*
X112966666Y-106964342D01*
X112966666Y-106964342D02*
X113014285Y-106773866D01*
X113014285Y-106773866D02*
X113014285Y-106535771D01*
X113014285Y-106535771D02*
X112966666Y-106345295D01*
X112966666Y-106345295D02*
X112919047Y-106250057D01*
X112919047Y-106250057D02*
X112871428Y-106202438D01*
X112871428Y-106202438D02*
X112776190Y-106154819D01*
X112014285Y-106488152D02*
X112014285Y-107154819D01*
X112014285Y-106583390D02*
X111966666Y-106535771D01*
X111966666Y-106535771D02*
X111871428Y-106488152D01*
X111871428Y-106488152D02*
X111728571Y-106488152D01*
X111728571Y-106488152D02*
X111633333Y-106535771D01*
X111633333Y-106535771D02*
X111585714Y-106631009D01*
X111585714Y-106631009D02*
X111585714Y-107154819D01*
X110776190Y-106631009D02*
X111109523Y-106631009D01*
X111109523Y-107154819D02*
X111109523Y-106154819D01*
X111109523Y-106154819D02*
X110633333Y-106154819D01*
X124947619Y-124754819D02*
X125519047Y-124754819D01*
X125233333Y-124754819D02*
X125233333Y-123754819D01*
X125233333Y-123754819D02*
X125328571Y-123897676D01*
X125328571Y-123897676D02*
X125423809Y-123992914D01*
X125423809Y-123992914D02*
X125519047Y-124040533D01*
X124328571Y-123754819D02*
X124233333Y-123754819D01*
X124233333Y-123754819D02*
X124138095Y-123802438D01*
X124138095Y-123802438D02*
X124090476Y-123850057D01*
X124090476Y-123850057D02*
X124042857Y-123945295D01*
X124042857Y-123945295D02*
X123995238Y-124135771D01*
X123995238Y-124135771D02*
X123995238Y-124373866D01*
X123995238Y-124373866D02*
X124042857Y-124564342D01*
X124042857Y-124564342D02*
X124090476Y-124659580D01*
X124090476Y-124659580D02*
X124138095Y-124707200D01*
X124138095Y-124707200D02*
X124233333Y-124754819D01*
X124233333Y-124754819D02*
X124328571Y-124754819D01*
X124328571Y-124754819D02*
X124423809Y-124707200D01*
X124423809Y-124707200D02*
X124471428Y-124659580D01*
X124471428Y-124659580D02*
X124519047Y-124564342D01*
X124519047Y-124564342D02*
X124566666Y-124373866D01*
X124566666Y-124373866D02*
X124566666Y-124135771D01*
X124566666Y-124135771D02*
X124519047Y-123945295D01*
X124519047Y-123945295D02*
X124471428Y-123850057D01*
X124471428Y-123850057D02*
X124423809Y-123802438D01*
X124423809Y-123802438D02*
X124328571Y-123754819D01*
X123376190Y-123754819D02*
X123280952Y-123754819D01*
X123280952Y-123754819D02*
X123185714Y-123802438D01*
X123185714Y-123802438D02*
X123138095Y-123850057D01*
X123138095Y-123850057D02*
X123090476Y-123945295D01*
X123090476Y-123945295D02*
X123042857Y-124135771D01*
X123042857Y-124135771D02*
X123042857Y-124373866D01*
X123042857Y-124373866D02*
X123090476Y-124564342D01*
X123090476Y-124564342D02*
X123138095Y-124659580D01*
X123138095Y-124659580D02*
X123185714Y-124707200D01*
X123185714Y-124707200D02*
X123280952Y-124754819D01*
X123280952Y-124754819D02*
X123376190Y-124754819D01*
X123376190Y-124754819D02*
X123471428Y-124707200D01*
X123471428Y-124707200D02*
X123519047Y-124659580D01*
X123519047Y-124659580D02*
X123566666Y-124564342D01*
X123566666Y-124564342D02*
X123614285Y-124373866D01*
X123614285Y-124373866D02*
X123614285Y-124135771D01*
X123614285Y-124135771D02*
X123566666Y-123945295D01*
X123566666Y-123945295D02*
X123519047Y-123850057D01*
X123519047Y-123850057D02*
X123471428Y-123802438D01*
X123471428Y-123802438D02*
X123376190Y-123754819D01*
X122614285Y-124088152D02*
X122614285Y-124754819D01*
X122614285Y-124183390D02*
X122566666Y-124135771D01*
X122566666Y-124135771D02*
X122471428Y-124088152D01*
X122471428Y-124088152D02*
X122328571Y-124088152D01*
X122328571Y-124088152D02*
X122233333Y-124135771D01*
X122233333Y-124135771D02*
X122185714Y-124231009D01*
X122185714Y-124231009D02*
X122185714Y-124754819D01*
X121376190Y-124231009D02*
X121709523Y-124231009D01*
X121709523Y-124754819D02*
X121709523Y-123754819D01*
X121709523Y-123754819D02*
X121233333Y-123754819D01*
X122761904Y-110987819D02*
X122761904Y-111797342D01*
X122761904Y-111797342D02*
X122714285Y-111892580D01*
X122714285Y-111892580D02*
X122666666Y-111940200D01*
X122666666Y-111940200D02*
X122571428Y-111987819D01*
X122571428Y-111987819D02*
X122380952Y-111987819D01*
X122380952Y-111987819D02*
X122285714Y-111940200D01*
X122285714Y-111940200D02*
X122238095Y-111892580D01*
X122238095Y-111892580D02*
X122190476Y-111797342D01*
X122190476Y-111797342D02*
X122190476Y-110987819D01*
X121190476Y-111987819D02*
X121761904Y-111987819D01*
X121476190Y-111987819D02*
X121476190Y-110987819D01*
X121476190Y-110987819D02*
X121571428Y-111130676D01*
X121571428Y-111130676D02*
X121666666Y-111225914D01*
X121666666Y-111225914D02*
X121761904Y-111273533D01*
D12*
%TO.C,U2*%
X99090000Y-110590000D02*
X102850000Y-110590000D01*
X99090000Y-111850000D02*
X99090000Y-110590000D01*
X99090000Y-116150000D02*
X99090000Y-117410000D01*
X99090000Y-117410000D02*
X102850000Y-117410000D01*
X104130000Y-110690000D02*
X103890000Y-110360000D01*
X104370000Y-110360000D01*
X104130000Y-110690000D01*
G36*
X104130000Y-110690000D02*
G01*
X103890000Y-110360000D01*
X104370000Y-110360000D01*
X104130000Y-110690000D01*
G37*
%TO.C,C6*%
X116000000Y-105000000D02*
X116000000Y-108000000D01*
X118000000Y-108000000D02*
X118000000Y-105000000D01*
X116000000Y-105000000D02*
G75*
G02*
X118000000Y-105000000I1000000J-1122254D01*
G01*
X118000000Y-108000000D02*
G75*
G02*
X116000000Y-108000000I-1000000J1122254D01*
G01*
%TO.C,C3*%
X122000000Y-123000000D02*
X125000000Y-123000000D01*
X125000000Y-121000000D02*
X122000000Y-121000000D01*
X122000000Y-123000000D02*
G75*
G02*
X122000000Y-121000000I1122254J1000000D01*
G01*
X125000000Y-121000000D02*
G75*
G02*
X125000000Y-123000000I-1122254J-1000000D01*
G01*
%TO.C,U1*%
X118200000Y-105200000D02*
X125800000Y-105200000D01*
X118200000Y-110200000D02*
X118200000Y-105200000D01*
X125800000Y-105200000D02*
X125800000Y-110800000D01*
X125800000Y-110800000D02*
X118800000Y-110800000D01*
D10*
X118463500Y-110600000D02*
G75*
G02*
X118336500Y-110600000I-63500J0D01*
G01*
X118336500Y-110600000D02*
G75*
G02*
X118463500Y-110600000I63500J0D01*
G01*
%TD*%
M02*
