%TF.GenerationSoftware,KiCad,Pcbnew,8.0.5*%
%TF.CreationDate,2024-10-31T22:01:25+08:00*%
%TF.ProjectId,AMS1117_TP4056_Lithium_battery_charging,414d5331-3131-4375-9f54-50343035365f,rev?*%
%TF.SameCoordinates,Original*%
%TF.FileFunction,Soldermask,Top*%
%TF.FilePolarity,Negative*%
%FSLAX46Y46*%
G04 Gerber Fmt 4.6, Leading zero omitted, Abs format (unit mm)*
G04 Created by KiCad (PCBNEW 8.0.5) date 2024-10-31 22:01:25*
%MOMM*%
%LPD*%
G01*
G04 APERTURE LIST*
%ADD10R,1.400000X1.800000*%
%ADD11O,1.400000X1.800000*%
%ADD12C,1.600000*%
%ADD13O,1.600000X1.600000*%
%ADD14R,2.600000X2.600000*%
%ADD15C,2.600000*%
%ADD16C,6.000000*%
%ADD17C,0.400000*%
G04 APERTURE END LIST*
D10*
%TO.C,LED1*%
X116000000Y-120000000D03*
D11*
X113460000Y-120000000D03*
%TD*%
D12*
%TO.C,R1*%
X123245000Y-102200000D03*
D13*
X120705000Y-102200000D03*
%TD*%
D14*
%TO.C,P2*%
X108000000Y-129000000D03*
D15*
X113000000Y-129000000D03*
%TD*%
D12*
%TO.C,C1*%
X126000000Y-115000000D03*
X121000000Y-115000000D03*
%TD*%
%TO.C,C9*%
X103000000Y-104000000D03*
X103000000Y-109000000D03*
%TD*%
%TO.C,C8*%
X104000000Y-120000000D03*
X99000000Y-120000000D03*
%TD*%
D16*
%TO.C,H1*%
X100000000Y-130000000D03*
%TD*%
D12*
%TO.C,C5*%
X115000000Y-104000000D03*
X115000000Y-109000000D03*
%TD*%
%TO.C,R2*%
X108000000Y-120000000D03*
D13*
X110540000Y-120000000D03*
%TD*%
D12*
%TO.C,C10*%
X107000000Y-104000000D03*
X107000000Y-109000000D03*
%TD*%
D14*
%TO.C,P1*%
X119000000Y-129000000D03*
D15*
X124000000Y-129000000D03*
%TD*%
D12*
%TO.C,C2*%
X126000000Y-120000000D03*
X121000000Y-120000000D03*
%TD*%
%TO.C,C4*%
X111000000Y-104000000D03*
X111000000Y-109000000D03*
%TD*%
%TO.C,R5*%
X108000000Y-116000000D03*
D13*
X110540000Y-116000000D03*
%TD*%
D12*
%TO.C,C7*%
X104000000Y-124000000D03*
X99000000Y-124000000D03*
%TD*%
D10*
%TO.C,LED2*%
X116000000Y-115000000D03*
D11*
X113460000Y-115000000D03*
%TD*%
D17*
%TO.C,U1*%
X121000000Y-106150000D03*
X121000000Y-108000000D03*
X121000000Y-109850000D03*
X122000000Y-106150000D03*
X122000000Y-108000000D03*
X122000000Y-109850000D03*
X123000000Y-106150000D03*
X123000000Y-108000000D03*
X123000000Y-109850000D03*
%TD*%
M02*
