%TF.GenerationSoftware,KiCad,Pcbnew,8.0.5*%
%TF.CreationDate,2024-10-31T22:01:25+08:00*%
%TF.ProjectId,AMS1117_TP4056_Lithium_battery_charging,414d5331-3131-4375-9f54-50343035365f,rev?*%
%TF.SameCoordinates,Original*%
%TF.FileFunction,Copper,L2,Bot*%
%TF.FilePolarity,Positive*%
%FSLAX46Y46*%
G04 Gerber Fmt 4.6, Leading zero omitted, Abs format (unit mm)*
G04 Created by KiCad (PCBNEW 8.0.5) date 2024-10-31 22:01:25*
%MOMM*%
%LPD*%
G01*
G04 APERTURE LIST*
G04 Aperture macros list*
%AMRoundRect*
0 Rectangle with rounded corners*
0 $1 Rounding radius*
0 $2 $3 $4 $5 $6 $7 $8 $9 X,Y pos of 4 corners*
0 Add a 4 corners polygon primitive as box body*
4,1,4,$2,$3,$4,$5,$6,$7,$8,$9,$2,$3,0*
0 Add four circle primitives for the rounded corners*
1,1,$1+$1,$2,$3*
1,1,$1+$1,$4,$5*
1,1,$1+$1,$6,$7*
1,1,$1+$1,$8,$9*
0 Add four rect primitives between the rounded corners*
20,1,$1+$1,$2,$3,$4,$5,0*
20,1,$1+$1,$4,$5,$6,$7,0*
20,1,$1+$1,$6,$7,$8,$9,0*
20,1,$1+$1,$8,$9,$2,$3,0*%
G04 Aperture macros list end*
%TA.AperFunction,ComponentPad*%
%ADD10R,1.400000X1.800000*%
%TD*%
%TA.AperFunction,ComponentPad*%
%ADD11O,1.400000X1.800000*%
%TD*%
%TA.AperFunction,ComponentPad*%
%ADD12C,1.600000*%
%TD*%
%TA.AperFunction,ComponentPad*%
%ADD13O,1.600000X1.600000*%
%TD*%
%TA.AperFunction,ComponentPad*%
%ADD14R,2.600000X2.600000*%
%TD*%
%TA.AperFunction,ComponentPad*%
%ADD15C,2.600000*%
%TD*%
%TA.AperFunction,ComponentPad*%
%ADD16C,6.000000*%
%TD*%
%TA.AperFunction,SMDPad,CuDef*%
%ADD17RoundRect,0.375000X0.625000X0.375000X-0.625000X0.375000X-0.625000X-0.375000X0.625000X-0.375000X0*%
%TD*%
%TA.AperFunction,SMDPad,CuDef*%
%ADD18RoundRect,0.500000X0.500000X1.400000X-0.500000X1.400000X-0.500000X-1.400000X0.500000X-1.400000X0*%
%TD*%
%TA.AperFunction,SMDPad,CuDef*%
%ADD19RoundRect,0.250000X-0.475000X0.250000X-0.475000X-0.250000X0.475000X-0.250000X0.475000X0.250000X0*%
%TD*%
%TA.AperFunction,SMDPad,CuDef*%
%ADD20RoundRect,0.250000X0.250000X0.475000X-0.250000X0.475000X-0.250000X-0.475000X0.250000X-0.475000X0*%
%TD*%
%TA.AperFunction,SMDPad,CuDef*%
%ADD21RoundRect,0.150000X-0.650000X-0.150000X0.650000X-0.150000X0.650000X0.150000X-0.650000X0.150000X0*%
%TD*%
%TA.AperFunction,HeatsinkPad*%
%ADD22C,0.600000*%
%TD*%
%TA.AperFunction,SMDPad,CuDef*%
%ADD23RoundRect,0.250000X-1.050000X-1.800000X1.050000X-1.800000X1.050000X1.800000X-1.050000X1.800000X0*%
%TD*%
%TA.AperFunction,ViaPad*%
%ADD24C,0.500000*%
%TD*%
%TA.AperFunction,Conductor*%
%ADD25C,1.000000*%
%TD*%
%TA.AperFunction,Conductor*%
%ADD26C,2.000000*%
%TD*%
%TA.AperFunction,Conductor*%
%ADD27C,1.500000*%
%TD*%
%TA.AperFunction,Conductor*%
%ADD28C,0.300000*%
%TD*%
%TA.AperFunction,Conductor*%
%ADD29C,0.500000*%
%TD*%
G04 APERTURE END LIST*
D10*
%TO.P,LED1,1,K*%
%TO.N,Net-(LED1-K)*%
X116000000Y-120000000D03*
D11*
%TO.P,LED1,2,A*%
%TO.N,Net-(LED1-A)*%
X113460000Y-120000000D03*
%TD*%
D12*
%TO.P,R1,1*%
%TO.N,GND*%
X123245000Y-102200000D03*
D13*
%TO.P,R1,2*%
%TO.N,Net-(U1-PROG)*%
X120705000Y-102200000D03*
%TD*%
D14*
%TO.P,P2,1*%
%TO.N,VIN*%
X108000000Y-129000000D03*
D15*
%TO.P,P2,2*%
%TO.N,GND*%
X113000000Y-129000000D03*
%TD*%
D12*
%TO.P,C1,1*%
%TO.N,BAT*%
X126000000Y-115000000D03*
%TO.P,C1,2*%
%TO.N,GND*%
X121000000Y-115000000D03*
%TD*%
%TO.P,C9,1*%
%TO.N,VCC*%
X103000000Y-104000000D03*
%TO.P,C9,2*%
%TO.N,GND*%
X103000000Y-109000000D03*
%TD*%
%TO.P,C8,1*%
%TO.N,VIN*%
X104000000Y-120000000D03*
%TO.P,C8,2*%
%TO.N,GND*%
X99000000Y-120000000D03*
%TD*%
D16*
%TO.P,H1,1,1*%
%TO.N,GND*%
X100000000Y-130000000D03*
%TD*%
D12*
%TO.P,C5,1*%
%TO.N,VCC*%
X115000000Y-104000000D03*
%TO.P,C5,2*%
%TO.N,GND*%
X115000000Y-109000000D03*
%TD*%
%TO.P,R2,1*%
%TO.N,VCC*%
X108000000Y-120000000D03*
D13*
%TO.P,R2,2*%
%TO.N,Net-(LED1-A)*%
X110540000Y-120000000D03*
%TD*%
D12*
%TO.P,C10,1*%
%TO.N,VCC*%
X107000000Y-104000000D03*
%TO.P,C10,2*%
%TO.N,GND*%
X107000000Y-109000000D03*
%TD*%
D14*
%TO.P,P1,1*%
%TO.N,GND*%
X119000000Y-129000000D03*
D15*
%TO.P,P1,2*%
%TO.N,BAT*%
X124000000Y-129000000D03*
%TD*%
D12*
%TO.P,C2,1*%
%TO.N,BAT*%
X126000000Y-120000000D03*
%TO.P,C2,2*%
%TO.N,GND*%
X121000000Y-120000000D03*
%TD*%
%TO.P,C4,1*%
%TO.N,VCC*%
X111000000Y-104000000D03*
%TO.P,C4,2*%
%TO.N,GND*%
X111000000Y-109000000D03*
%TD*%
%TO.P,R5,1*%
%TO.N,VCC*%
X108000000Y-116000000D03*
D13*
%TO.P,R5,2*%
%TO.N,Net-(LED2-A)*%
X110540000Y-116000000D03*
%TD*%
D12*
%TO.P,C7,1*%
%TO.N,VIN*%
X104000000Y-124000000D03*
%TO.P,C7,2*%
%TO.N,GND*%
X99000000Y-124000000D03*
%TD*%
D10*
%TO.P,LED2,1,K*%
%TO.N,Net-(LED2-K)*%
X116000000Y-115000000D03*
D11*
%TO.P,LED2,2,A*%
%TO.N,Net-(LED2-A)*%
X113460000Y-115000000D03*
%TD*%
D17*
%TO.P,U2,1,GND*%
%TO.N,GND*%
X104150000Y-111700000D03*
%TO.P,U2,2,VO*%
%TO.N,VCC*%
X104150000Y-114000000D03*
D18*
X97850000Y-114000000D03*
D17*
%TO.P,U2,3,VI*%
%TO.N,VIN*%
X104150000Y-116300000D03*
%TD*%
D19*
%TO.P,C6,1*%
%TO.N,VCC*%
X117000000Y-105550000D03*
%TO.P,C6,2*%
%TO.N,GND*%
X117000000Y-107450000D03*
%TD*%
D20*
%TO.P,C3,1*%
%TO.N,BAT*%
X124450000Y-122000000D03*
%TO.P,C3,2*%
%TO.N,GND*%
X122550000Y-122000000D03*
%TD*%
D21*
%TO.P,U1,1,TEMP*%
%TO.N,GND*%
X119350000Y-109905000D03*
%TO.P,U1,2,PROG*%
%TO.N,Net-(U1-PROG)*%
X119350000Y-108635000D03*
%TO.P,U1,3,GND*%
%TO.N,GND*%
X119350000Y-107365000D03*
%TO.P,U1,4,VCC*%
%TO.N,VCC*%
X119350000Y-106095000D03*
%TO.P,U1,5,BAT*%
%TO.N,BAT*%
X124650000Y-106095000D03*
%TO.P,U1,6,STDBY#*%
%TO.N,Net-(LED2-K)*%
X124650000Y-107365000D03*
%TO.P,U1,7,CHRG#*%
%TO.N,Net-(LED1-K)*%
X124650000Y-108635000D03*
%TO.P,U1,8,CE*%
%TO.N,VCC*%
X124650000Y-109905000D03*
D22*
%TO.P,U1,9,EP*%
%TO.N,GND*%
X121000000Y-106150000D03*
X121000000Y-108000000D03*
X121000000Y-109850000D03*
X122000000Y-106150000D03*
X122000000Y-108000000D03*
D23*
X122000000Y-108000000D03*
D22*
X122000000Y-109850000D03*
X123000000Y-106150000D03*
X123000000Y-108000000D03*
X123000000Y-109850000D03*
%TD*%
D24*
%TO.N,GND*%
X108270000Y-125500000D03*
X112080000Y-125500000D03*
X96900000Y-122110000D03*
X119700000Y-122700000D03*
X106260000Y-133600000D03*
X118300000Y-111200000D03*
X106870000Y-111200000D03*
X128600000Y-127040000D03*
X110680000Y-111200000D03*
X120800000Y-103800000D03*
X124970000Y-101500000D03*
X96900000Y-118300000D03*
X109730000Y-101500000D03*
X103570000Y-106800000D03*
X114490000Y-111200000D03*
X115890000Y-125500000D03*
X115000000Y-106800000D03*
X128600000Y-119420000D03*
X128600000Y-130850000D03*
X105920000Y-101500000D03*
X128600000Y-111800000D03*
X117350000Y-101500000D03*
X98300000Y-101500000D03*
X113880000Y-133600000D03*
X96900000Y-125920000D03*
X102110000Y-101500000D03*
X102450000Y-133600000D03*
X108270000Y-122700000D03*
X128600000Y-115610000D03*
X121500000Y-133600000D03*
X115890000Y-122700000D03*
X101500000Y-125770000D03*
X119700000Y-125500000D03*
X113540000Y-101500000D03*
X101500000Y-118150000D03*
X128600000Y-123230000D03*
X111190000Y-106800000D03*
X107380000Y-106800000D03*
X117690000Y-133600000D03*
X112080000Y-122700000D03*
X101500000Y-121960000D03*
X110070000Y-133600000D03*
%TO.N,VCC*%
X99940000Y-110580000D03*
X97400000Y-115660000D03*
X97400000Y-113120000D03*
X97400000Y-108040000D03*
X119900000Y-104600000D03*
X97400000Y-110580000D03*
X99940000Y-108040000D03*
X99940000Y-105500000D03*
X125800000Y-109900000D03*
X99940000Y-115660000D03*
X97400000Y-105500000D03*
X99940000Y-113120000D03*
%TO.N,Net-(LED1-K)*%
X125865000Y-108635000D03*
%TO.N,Net-(LED2-K)*%
X125900000Y-107365000D03*
%TO.N,Net-(U1-PROG)*%
X118035000Y-108635000D03*
%TD*%
D25*
%TO.N,GND*%
X119091500Y-109905000D02*
X120095000Y-109905000D01*
D26*
X109000000Y-133000000D02*
X103000000Y-133000000D01*
D25*
X119091500Y-107365000D02*
X121365000Y-107365000D01*
D26*
X122000000Y-114000000D02*
X121000000Y-115000000D01*
X103000000Y-133000000D02*
X100000000Y-130000000D01*
D25*
X121365000Y-107365000D02*
X122000000Y-108000000D01*
X122000000Y-103445000D02*
X123245000Y-102200000D01*
D26*
X99000000Y-120000000D02*
X99000000Y-129000000D01*
D25*
X119006500Y-107450000D02*
X119091500Y-107365000D01*
D27*
X103000000Y-110550000D02*
X104150000Y-111700000D01*
D25*
X122550000Y-122000000D02*
X122550000Y-125450000D01*
X122550000Y-125450000D02*
X119000000Y-129000000D01*
D26*
X99000000Y-129000000D02*
X100000000Y-130000000D01*
D25*
X116550000Y-107450000D02*
X115000000Y-109000000D01*
D26*
X113000000Y-129000000D02*
X119000000Y-129000000D01*
D27*
X107000000Y-109000000D02*
X103000000Y-109000000D01*
D25*
X122000000Y-108000000D02*
X122000000Y-103445000D01*
X122550000Y-122000000D02*
X122550000Y-121550000D01*
X117000000Y-107450000D02*
X119006500Y-107450000D01*
X117000000Y-107450000D02*
X116550000Y-107450000D01*
D27*
X111000000Y-109000000D02*
X107000000Y-109000000D01*
D26*
X113000000Y-129000000D02*
X109000000Y-133000000D01*
D27*
X103000000Y-109000000D02*
X103000000Y-110550000D01*
D25*
X120095000Y-109905000D02*
X122000000Y-108000000D01*
D26*
X122000000Y-108000000D02*
X122000000Y-114000000D01*
X121000000Y-120000000D02*
X121000000Y-115000000D01*
D27*
X111000000Y-109000000D02*
X115000000Y-109000000D01*
D25*
X122550000Y-121550000D02*
X121000000Y-120000000D01*
%TO.N,BAT*%
X124908500Y-106095000D02*
X126295000Y-106095000D01*
X124450000Y-121550000D02*
X126000000Y-120000000D01*
X124450000Y-122000000D02*
X124450000Y-121550000D01*
X124450000Y-128550000D02*
X124000000Y-129000000D01*
X127200000Y-107000000D02*
X127200000Y-113800000D01*
X126295000Y-106095000D02*
X127200000Y-107000000D01*
X124450000Y-122000000D02*
X124450000Y-128550000D01*
D26*
X126000000Y-115000000D02*
X126000000Y-120000000D01*
D25*
X127200000Y-113800000D02*
X126000000Y-115000000D01*
%TO.N,VCC*%
X116550000Y-105550000D02*
X115000000Y-104000000D01*
D26*
X103000000Y-104000000D02*
X115000000Y-104000000D01*
D27*
X104150000Y-114000000D02*
X106000000Y-114000000D01*
D26*
X97850000Y-109150000D02*
X103000000Y-104000000D01*
D27*
X106000000Y-114000000D02*
X108000000Y-116000000D01*
D25*
X118546500Y-105550000D02*
X119091500Y-106095000D01*
X117000000Y-105550000D02*
X116550000Y-105550000D01*
X117000000Y-105550000D02*
X118546500Y-105550000D01*
D27*
X108000000Y-120000000D02*
X108000000Y-116000000D01*
D28*
X119900000Y-104600000D02*
X119496500Y-104600000D01*
D29*
X124908500Y-109905000D02*
X125800000Y-109900000D01*
D28*
X119496500Y-104600000D02*
X118546500Y-105550000D01*
D29*
X125800000Y-109900000D02*
X125795000Y-109905000D01*
D26*
X97850000Y-114000000D02*
X97850000Y-109150000D01*
D27*
X111000000Y-104000000D02*
X115000000Y-104000000D01*
D26*
X104150000Y-114000000D02*
X97850000Y-114000000D01*
D29*
%TO.N,Net-(LED1-K)*%
X124908500Y-108635000D02*
X125865000Y-108635000D01*
%TO.N,Net-(LED2-K)*%
X124908500Y-107365000D02*
X125900000Y-107365000D01*
%TO.N,Net-(U1-PROG)*%
X119091500Y-108635000D02*
X118035000Y-108635000D01*
D26*
%TO.N,VIN*%
X108000000Y-128000000D02*
X104000000Y-124000000D01*
X104000000Y-124000000D02*
X104000000Y-120000000D01*
X104000000Y-120000000D02*
X104000000Y-116450000D01*
D27*
X108000000Y-129000000D02*
X108000000Y-128000000D01*
X104000000Y-116450000D02*
X104150000Y-116300000D01*
%TD*%
%TA.AperFunction,Conductor*%
%TO.N,VCC*%
G36*
X99906061Y-104800597D02*
G01*
X100082941Y-104818018D01*
X100106769Y-104822757D01*
X100271001Y-104872576D01*
X100293453Y-104881877D01*
X100444798Y-104962772D01*
X100465010Y-104976277D01*
X100597666Y-105085145D01*
X100614854Y-105102333D01*
X100723722Y-105234989D01*
X100737227Y-105255201D01*
X100818121Y-105406543D01*
X100827424Y-105429001D01*
X100877240Y-105593224D01*
X100881982Y-105617065D01*
X100899403Y-105793938D01*
X100900000Y-105806092D01*
X100900000Y-115493907D01*
X100899403Y-115506061D01*
X100881982Y-115682934D01*
X100877240Y-115706775D01*
X100827424Y-115870998D01*
X100818121Y-115893456D01*
X100737227Y-116044798D01*
X100723722Y-116065010D01*
X100614854Y-116197666D01*
X100597666Y-116214854D01*
X100465010Y-116323722D01*
X100444798Y-116337227D01*
X100293456Y-116418121D01*
X100270998Y-116427424D01*
X100106775Y-116477240D01*
X100082934Y-116481982D01*
X99906061Y-116499403D01*
X99893907Y-116500000D01*
X97806093Y-116500000D01*
X97793939Y-116499403D01*
X97617065Y-116481982D01*
X97593224Y-116477240D01*
X97429001Y-116427424D01*
X97406543Y-116418121D01*
X97255201Y-116337227D01*
X97234989Y-116323722D01*
X97102333Y-116214854D01*
X97085145Y-116197666D01*
X96976277Y-116065010D01*
X96962772Y-116044798D01*
X96881878Y-115893456D01*
X96872575Y-115870998D01*
X96822757Y-115706769D01*
X96818018Y-115682941D01*
X96800597Y-115506061D01*
X96800000Y-115493907D01*
X96800000Y-105806092D01*
X96800597Y-105793938D01*
X96818018Y-105617056D01*
X96822757Y-105593232D01*
X96872577Y-105428994D01*
X96881875Y-105406549D01*
X96962775Y-105255195D01*
X96976272Y-105234995D01*
X97085149Y-105102328D01*
X97102328Y-105085149D01*
X97234995Y-104976272D01*
X97255195Y-104962775D01*
X97406549Y-104881875D01*
X97428994Y-104872577D01*
X97593232Y-104822757D01*
X97617056Y-104818018D01*
X97793939Y-104800597D01*
X97806093Y-104800000D01*
X99893907Y-104800000D01*
X99906061Y-104800597D01*
G37*
%TD.AperFunction*%
%TD*%
%TA.AperFunction,Conductor*%
%TO.N,GND*%
G36*
X125002702Y-100200617D02*
G01*
X125412917Y-100218528D01*
X125423654Y-100219468D01*
X125828057Y-100272708D01*
X125838695Y-100274583D01*
X126236925Y-100362869D01*
X126247365Y-100365667D01*
X126636363Y-100488317D01*
X126646524Y-100492015D01*
X127023363Y-100648108D01*
X127033155Y-100652674D01*
X127394965Y-100841020D01*
X127404305Y-100846413D01*
X127689636Y-101028189D01*
X127748309Y-101065568D01*
X127757170Y-101071772D01*
X128080766Y-101320076D01*
X128089053Y-101327030D01*
X128389767Y-101602583D01*
X128397416Y-101610232D01*
X128672969Y-101910946D01*
X128679923Y-101919233D01*
X128928227Y-102242829D01*
X128934431Y-102251690D01*
X129153578Y-102595680D01*
X129158983Y-102605042D01*
X129278527Y-102834683D01*
X129347322Y-102966838D01*
X129351894Y-102976642D01*
X129507983Y-103353473D01*
X129511683Y-103363639D01*
X129634331Y-103752630D01*
X129637131Y-103763078D01*
X129725414Y-104161296D01*
X129727292Y-104171950D01*
X129780529Y-104576326D01*
X129781472Y-104587102D01*
X129799382Y-104997297D01*
X129799500Y-105002706D01*
X129799500Y-129997293D01*
X129799382Y-130002702D01*
X129781472Y-130412897D01*
X129780529Y-130423673D01*
X129727292Y-130828049D01*
X129725414Y-130838703D01*
X129637131Y-131236921D01*
X129634331Y-131247369D01*
X129511683Y-131636360D01*
X129507983Y-131646526D01*
X129351894Y-132023357D01*
X129347322Y-132033161D01*
X129158987Y-132394951D01*
X129153578Y-132404319D01*
X128934431Y-132748309D01*
X128928227Y-132757170D01*
X128679923Y-133080766D01*
X128672969Y-133089053D01*
X128397416Y-133389767D01*
X128389767Y-133397416D01*
X128089053Y-133672969D01*
X128080766Y-133679923D01*
X127757170Y-133928227D01*
X127748309Y-133934431D01*
X127404319Y-134153578D01*
X127394951Y-134158987D01*
X127033161Y-134347322D01*
X127023357Y-134351894D01*
X126646526Y-134507983D01*
X126636360Y-134511683D01*
X126247369Y-134634331D01*
X126236921Y-134637131D01*
X125838703Y-134725414D01*
X125828049Y-134727292D01*
X125423673Y-134780529D01*
X125412897Y-134781472D01*
X125002703Y-134799382D01*
X124997294Y-134799500D01*
X100002706Y-134799500D01*
X99997297Y-134799382D01*
X99587102Y-134781472D01*
X99576326Y-134780529D01*
X99171950Y-134727292D01*
X99161296Y-134725414D01*
X98763078Y-134637131D01*
X98752630Y-134634331D01*
X98363639Y-134511683D01*
X98353473Y-134507983D01*
X97976642Y-134351894D01*
X97966838Y-134347322D01*
X97847126Y-134285004D01*
X97605042Y-134158983D01*
X97595686Y-134153582D01*
X97423685Y-134044004D01*
X97251690Y-133934431D01*
X97242829Y-133928227D01*
X96919233Y-133679923D01*
X96910946Y-133672969D01*
X96610232Y-133397416D01*
X96602583Y-133389767D01*
X96327030Y-133089053D01*
X96320076Y-133080766D01*
X96071772Y-132757170D01*
X96065568Y-132748309D01*
X96012070Y-132664334D01*
X95846413Y-132404305D01*
X95841020Y-132394965D01*
X95652674Y-132033155D01*
X95648105Y-132023357D01*
X95492016Y-131646526D01*
X95488316Y-131636360D01*
X95365668Y-131247369D01*
X95362868Y-131236921D01*
X95274585Y-130838703D01*
X95272707Y-130828049D01*
X95255915Y-130700499D01*
X95219468Y-130423654D01*
X95218528Y-130412917D01*
X95200618Y-130002702D01*
X95200500Y-129997293D01*
X95200500Y-105806106D01*
X96394500Y-105806106D01*
X96394500Y-115493892D01*
X96394988Y-115513810D01*
X96395584Y-115525951D01*
X96397050Y-115545815D01*
X96414472Y-115722699D01*
X96420306Y-115762036D01*
X96420307Y-115762041D01*
X96425041Y-115785845D01*
X96425050Y-115785884D01*
X96434714Y-115824469D01*
X96434715Y-115824473D01*
X96484534Y-115988706D01*
X96497950Y-116026198D01*
X96507248Y-116048645D01*
X96524248Y-116084585D01*
X96524267Y-116084623D01*
X96605141Y-116235928D01*
X96605143Y-116235931D01*
X96605153Y-116235949D01*
X96625192Y-116269384D01*
X96625600Y-116270064D01*
X96625615Y-116270088D01*
X96639112Y-116290288D01*
X96662815Y-116322249D01*
X96662827Y-116322265D01*
X96771693Y-116454918D01*
X96798405Y-116484390D01*
X96815608Y-116501593D01*
X96845080Y-116528305D01*
X96974711Y-116634691D01*
X96977742Y-116637178D01*
X97009708Y-116660885D01*
X97029920Y-116674390D01*
X97064050Y-116694846D01*
X97064067Y-116694855D01*
X97064070Y-116694857D01*
X97108412Y-116718558D01*
X97215392Y-116775740D01*
X97215410Y-116775748D01*
X97215413Y-116775750D01*
X97251353Y-116792750D01*
X97263641Y-116797840D01*
X97273814Y-116802054D01*
X97311292Y-116815464D01*
X97475515Y-116865280D01*
X97514119Y-116874949D01*
X97537960Y-116879691D01*
X97537973Y-116879693D01*
X97537971Y-116879693D01*
X97549850Y-116881454D01*
X97577318Y-116885529D01*
X97754192Y-116902950D01*
X97774045Y-116904415D01*
X97786199Y-116905012D01*
X97806093Y-116905500D01*
X97806108Y-116905500D01*
X99893892Y-116905500D01*
X99893907Y-116905500D01*
X99913801Y-116905012D01*
X99925955Y-116904415D01*
X99945808Y-116902950D01*
X100122681Y-116885529D01*
X100162039Y-116879691D01*
X100185880Y-116874949D01*
X100224484Y-116865280D01*
X100388707Y-116815464D01*
X100426185Y-116802054D01*
X100448643Y-116792751D01*
X100484607Y-116775740D01*
X100635949Y-116694846D01*
X100670079Y-116674390D01*
X100690291Y-116660885D01*
X100722257Y-116637178D01*
X100854913Y-116528310D01*
X100884398Y-116501586D01*
X100901586Y-116484398D01*
X100928310Y-116454913D01*
X101037178Y-116322257D01*
X101060885Y-116290291D01*
X101074390Y-116270079D01*
X101094846Y-116235949D01*
X101175740Y-116084607D01*
X101192751Y-116048643D01*
X101202054Y-116026185D01*
X101215464Y-115988707D01*
X101265280Y-115824484D01*
X101274949Y-115785880D01*
X101279691Y-115762039D01*
X101285529Y-115722681D01*
X101302950Y-115545808D01*
X101304415Y-115525955D01*
X101304785Y-115518416D01*
X101327735Y-115452424D01*
X101382719Y-115409315D01*
X101428636Y-115400500D01*
X102714322Y-115400500D01*
X102781361Y-115420185D01*
X102827116Y-115472989D01*
X102837060Y-115542147D01*
X102823385Y-115579388D01*
X102824900Y-115580118D01*
X102821878Y-115586392D01*
X102764157Y-115751346D01*
X102760998Y-115779391D01*
X102748263Y-115821803D01*
X102702105Y-115912393D01*
X102702103Y-115912396D01*
X102633985Y-116122047D01*
X102599500Y-116339778D01*
X102599500Y-123885362D01*
X102599499Y-123885377D01*
X102599499Y-124110220D01*
X102633985Y-124327952D01*
X102702103Y-124537603D01*
X102702104Y-124537606D01*
X102802187Y-124734025D01*
X102931751Y-124912357D01*
X102931755Y-124912361D01*
X102931758Y-124912365D01*
X103087635Y-125068242D01*
X103091965Y-125072572D01*
X103091976Y-125072582D01*
X106263181Y-128243787D01*
X106296666Y-128305110D01*
X106299500Y-128331468D01*
X106299500Y-130331517D01*
X106299772Y-130333232D01*
X106314354Y-130425304D01*
X106371950Y-130538342D01*
X106371952Y-130538344D01*
X106371954Y-130538347D01*
X106461652Y-130628045D01*
X106461654Y-130628046D01*
X106461658Y-130628050D01*
X106574694Y-130685645D01*
X106574698Y-130685647D01*
X106668475Y-130700499D01*
X106668481Y-130700500D01*
X109331518Y-130700499D01*
X109425304Y-130685646D01*
X109538342Y-130628050D01*
X109628050Y-130538342D01*
X109685646Y-130425304D01*
X109685646Y-130425302D01*
X109685647Y-130425301D01*
X109696282Y-130358147D01*
X109700500Y-130331519D01*
X109700499Y-128999995D01*
X122294732Y-128999995D01*
X122294732Y-129000004D01*
X122313777Y-129254154D01*
X122313778Y-129254157D01*
X122370492Y-129502637D01*
X122463607Y-129739888D01*
X122591041Y-129960612D01*
X122749950Y-130159877D01*
X122936783Y-130333232D01*
X123147366Y-130476805D01*
X123147371Y-130476807D01*
X123147372Y-130476808D01*
X123147373Y-130476809D01*
X123269328Y-130535538D01*
X123376992Y-130587387D01*
X123376993Y-130587387D01*
X123376996Y-130587389D01*
X123620542Y-130662513D01*
X123872565Y-130700500D01*
X124127435Y-130700500D01*
X124379458Y-130662513D01*
X124623004Y-130587389D01*
X124852634Y-130476805D01*
X125063217Y-130333232D01*
X125250050Y-130159877D01*
X125408959Y-129960612D01*
X125536393Y-129739888D01*
X125629508Y-129502637D01*
X125686222Y-129254157D01*
X125705268Y-129000000D01*
X125686222Y-128745843D01*
X125629508Y-128497363D01*
X125536393Y-128260112D01*
X125534698Y-128255793D01*
X125535564Y-128255453D01*
X125526290Y-128223598D01*
X125462832Y-127686298D01*
X125353921Y-126764140D01*
X125352904Y-126756200D01*
X125352903Y-126756198D01*
X125352246Y-126751065D01*
X125352529Y-126751028D01*
X125350500Y-126731846D01*
X125350500Y-121974362D01*
X125370185Y-121907323D01*
X125386815Y-121886684D01*
X125451741Y-121821757D01*
X125469390Y-121807110D01*
X126032010Y-121422161D01*
X126098454Y-121400552D01*
X126102031Y-121400500D01*
X126110221Y-121400500D01*
X126110222Y-121400500D01*
X126327951Y-121366015D01*
X126537606Y-121297895D01*
X126734022Y-121197815D01*
X126912365Y-121068242D01*
X127068242Y-120912365D01*
X127197815Y-120734022D01*
X127297895Y-120537606D01*
X127366015Y-120327951D01*
X127400500Y-120110222D01*
X127400500Y-115102030D01*
X127420185Y-115034991D01*
X127422162Y-115032009D01*
X127493672Y-114927494D01*
X127807112Y-114469387D01*
X127821759Y-114451738D01*
X127899463Y-114374036D01*
X127907021Y-114362724D01*
X127921630Y-114340862D01*
X127921630Y-114340861D01*
X127998013Y-114226547D01*
X128057442Y-114083072D01*
X128065890Y-114062676D01*
X128065890Y-114062675D01*
X128065894Y-114062666D01*
X128072148Y-114031223D01*
X128100500Y-113888692D01*
X128100500Y-113711308D01*
X128100500Y-106911309D01*
X128096860Y-106893012D01*
X128065894Y-106737334D01*
X128063121Y-106730639D01*
X128063121Y-106730638D01*
X128063121Y-106730637D01*
X127998016Y-106573459D01*
X127998009Y-106573446D01*
X127899465Y-106425966D01*
X127850060Y-106376561D01*
X127774035Y-106300536D01*
X127722960Y-106249461D01*
X126869039Y-105395538D01*
X126869038Y-105395537D01*
X126836209Y-105373602D01*
X126782201Y-105337515D01*
X126782199Y-105337514D01*
X126782199Y-105337513D01*
X126721544Y-105296985D01*
X126721542Y-105296984D01*
X126639607Y-105263046D01*
X126639606Y-105263046D01*
X126557666Y-105229105D01*
X126557658Y-105229103D01*
X126383696Y-105194500D01*
X126383692Y-105194500D01*
X126383691Y-105194500D01*
X124819809Y-105194500D01*
X124819806Y-105194500D01*
X124645841Y-105229103D01*
X124645832Y-105229106D01*
X124481952Y-105296987D01*
X124481950Y-105296988D01*
X124367291Y-105373602D01*
X124300614Y-105394480D01*
X124298400Y-105394500D01*
X123956898Y-105394500D01*
X123917853Y-105399188D01*
X123868438Y-105405122D01*
X123727656Y-105460639D01*
X123607077Y-105552077D01*
X123515639Y-105672656D01*
X123460122Y-105813438D01*
X123454188Y-105862853D01*
X123449500Y-105901898D01*
X123449500Y-106288102D01*
X123455126Y-106334954D01*
X123460122Y-106376561D01*
X123515639Y-106517343D01*
X123607079Y-106637924D01*
X123611474Y-106642319D01*
X123644959Y-106703642D01*
X123639975Y-106773334D01*
X123611474Y-106817681D01*
X123607079Y-106822075D01*
X123515639Y-106942656D01*
X123460122Y-107083438D01*
X123454188Y-107132853D01*
X123449500Y-107171898D01*
X123449500Y-107558102D01*
X123455126Y-107604954D01*
X123460122Y-107646561D01*
X123515639Y-107787343D01*
X123607079Y-107907924D01*
X123611474Y-107912319D01*
X123644959Y-107973642D01*
X123639975Y-108043334D01*
X123611474Y-108087681D01*
X123607079Y-108092075D01*
X123515639Y-108212656D01*
X123460122Y-108353438D01*
X123455323Y-108393410D01*
X123449500Y-108441898D01*
X123449500Y-108828102D01*
X123454903Y-108873092D01*
X123460122Y-108916561D01*
X123515639Y-109057343D01*
X123607079Y-109177924D01*
X123611474Y-109182319D01*
X123644959Y-109243642D01*
X123639975Y-109313334D01*
X123611474Y-109357681D01*
X123607079Y-109362075D01*
X123515639Y-109482656D01*
X123460122Y-109623438D01*
X123454188Y-109672853D01*
X123449500Y-109711898D01*
X123449500Y-110098102D01*
X123455126Y-110144954D01*
X123460122Y-110186561D01*
X123515639Y-110327343D01*
X123607077Y-110447922D01*
X123727656Y-110539360D01*
X123727657Y-110539360D01*
X123727658Y-110539361D01*
X123868436Y-110594877D01*
X123956898Y-110605500D01*
X123956903Y-110605500D01*
X125343097Y-110605500D01*
X125343102Y-110605500D01*
X125431564Y-110594877D01*
X125518794Y-110560476D01*
X125563580Y-110551834D01*
X125695868Y-110551093D01*
X125720756Y-110553475D01*
X125730929Y-110555499D01*
X125730931Y-110555499D01*
X125859070Y-110555499D01*
X125859071Y-110555498D01*
X125984744Y-110530501D01*
X126012247Y-110519107D01*
X126030036Y-110513269D01*
X126032365Y-110512696D01*
X126044748Y-110506195D01*
X126054912Y-110501435D01*
X126103127Y-110481465D01*
X126106603Y-110479141D01*
X126173276Y-110458259D01*
X126240658Y-110476738D01*
X126287352Y-110528713D01*
X126299500Y-110582239D01*
X126299500Y-113285608D01*
X126279815Y-113352647D01*
X126245521Y-113387946D01*
X125967987Y-113577838D01*
X125901543Y-113599448D01*
X125897966Y-113599500D01*
X125889778Y-113599500D01*
X125817201Y-113610995D01*
X125672047Y-113633985D01*
X125462396Y-113702103D01*
X125462393Y-113702104D01*
X125265974Y-113802187D01*
X125087641Y-113931752D01*
X125087636Y-113931756D01*
X124931756Y-114087636D01*
X124931752Y-114087641D01*
X124802187Y-114265974D01*
X124702104Y-114462393D01*
X124702103Y-114462396D01*
X124633985Y-114672047D01*
X124599500Y-114889778D01*
X124599500Y-119897966D01*
X124579815Y-119965005D01*
X124577838Y-119967987D01*
X124320118Y-120344656D01*
X124192884Y-120530611D01*
X124178227Y-120548271D01*
X123750537Y-120975961D01*
X123711063Y-121035040D01*
X123651988Y-121123449D01*
X123621186Y-121197814D01*
X123621186Y-121197815D01*
X123584105Y-121287334D01*
X123584103Y-121287340D01*
X123568768Y-121364435D01*
X123566228Y-121374836D01*
X123552403Y-121422424D01*
X123552401Y-121422436D01*
X123549500Y-121459298D01*
X123549500Y-126639929D01*
X123530263Y-126706267D01*
X122909685Y-127686298D01*
X122889263Y-127710858D01*
X122749958Y-127840113D01*
X122749955Y-127840116D01*
X122591041Y-128039388D01*
X122463608Y-128260109D01*
X122370492Y-128497362D01*
X122370490Y-128497369D01*
X122313777Y-128745845D01*
X122294732Y-128999995D01*
X109700499Y-128999995D01*
X109700499Y-127668482D01*
X109685646Y-127574696D01*
X109628050Y-127461658D01*
X109628046Y-127461654D01*
X109628045Y-127461652D01*
X109538347Y-127371954D01*
X109538344Y-127371952D01*
X109538342Y-127371950D01*
X109461517Y-127332805D01*
X109425301Y-127314352D01*
X109331524Y-127299500D01*
X109331519Y-127299500D01*
X109285352Y-127299500D01*
X109218313Y-127279815D01*
X109185034Y-127248386D01*
X109164424Y-127220019D01*
X109068242Y-127087636D01*
X105436819Y-123456213D01*
X105403334Y-123394890D01*
X105400500Y-123368532D01*
X105400500Y-117172865D01*
X105419506Y-117106893D01*
X105436878Y-117079245D01*
X105478122Y-117013606D01*
X105535841Y-116848657D01*
X105550500Y-116718552D01*
X105550500Y-115881448D01*
X105535841Y-115751343D01*
X105478122Y-115586394D01*
X105385147Y-115438424D01*
X105308904Y-115362181D01*
X105275419Y-115300858D01*
X105280403Y-115231166D01*
X105322275Y-115175233D01*
X105387739Y-115150816D01*
X105396585Y-115150500D01*
X105472085Y-115150500D01*
X105539124Y-115170185D01*
X105559766Y-115186819D01*
X106813181Y-116440234D01*
X106846666Y-116501557D01*
X106849500Y-116527915D01*
X106849500Y-119639508D01*
X106844766Y-119673442D01*
X106814885Y-119778462D01*
X106794357Y-119999999D01*
X106794357Y-120000000D01*
X106814884Y-120221535D01*
X106814885Y-120221537D01*
X106875769Y-120435523D01*
X106875775Y-120435538D01*
X106974938Y-120634683D01*
X106974943Y-120634691D01*
X107109020Y-120812238D01*
X107273437Y-120962123D01*
X107273439Y-120962125D01*
X107462595Y-121079245D01*
X107462596Y-121079245D01*
X107462599Y-121079247D01*
X107670060Y-121159618D01*
X107888757Y-121200500D01*
X107888759Y-121200500D01*
X108111241Y-121200500D01*
X108111243Y-121200500D01*
X108329940Y-121159618D01*
X108537401Y-121079247D01*
X108726562Y-120962124D01*
X108890981Y-120812236D01*
X109025058Y-120634689D01*
X109124229Y-120435528D01*
X109150734Y-120342371D01*
X109188013Y-120283278D01*
X109251323Y-120253721D01*
X109320562Y-120263083D01*
X109373749Y-120308393D01*
X109389266Y-120342372D01*
X109415769Y-120435523D01*
X109415775Y-120435538D01*
X109514938Y-120634683D01*
X109514943Y-120634691D01*
X109649020Y-120812238D01*
X109813437Y-120962123D01*
X109813439Y-120962125D01*
X110002595Y-121079245D01*
X110002596Y-121079245D01*
X110002599Y-121079247D01*
X110210060Y-121159618D01*
X110428757Y-121200500D01*
X110428759Y-121200500D01*
X110651241Y-121200500D01*
X110651243Y-121200500D01*
X110869940Y-121159618D01*
X111077401Y-121079247D01*
X111266562Y-120962124D01*
X111430981Y-120812236D01*
X111565058Y-120634689D01*
X111664229Y-120435528D01*
X111725115Y-120221536D01*
X111745643Y-120000000D01*
X111725115Y-119778464D01*
X111706600Y-119713389D01*
X112359500Y-119713389D01*
X112359500Y-120286610D01*
X112383087Y-120435538D01*
X112386598Y-120457701D01*
X112440127Y-120622445D01*
X112518768Y-120776788D01*
X112620586Y-120916928D01*
X112743072Y-121039414D01*
X112883212Y-121141232D01*
X113037555Y-121219873D01*
X113202299Y-121273402D01*
X113373389Y-121300500D01*
X113373390Y-121300500D01*
X113546610Y-121300500D01*
X113546611Y-121300500D01*
X113717701Y-121273402D01*
X113882445Y-121219873D01*
X114036788Y-121141232D01*
X114176928Y-121039414D01*
X114299414Y-120916928D01*
X114401232Y-120776788D01*
X114479873Y-120622445D01*
X114533402Y-120457701D01*
X114560500Y-120286611D01*
X114560500Y-119713389D01*
X114533402Y-119542299D01*
X114479873Y-119377555D01*
X114401232Y-119223212D01*
X114299414Y-119083072D01*
X114284817Y-119068475D01*
X114899500Y-119068475D01*
X114899500Y-120931517D01*
X114904348Y-120962124D01*
X114914354Y-121025304D01*
X114971950Y-121138342D01*
X114971952Y-121138344D01*
X114971954Y-121138347D01*
X115061652Y-121228045D01*
X115061654Y-121228046D01*
X115061658Y-121228050D01*
X115174694Y-121285645D01*
X115174698Y-121285647D01*
X115268475Y-121300499D01*
X115268481Y-121300500D01*
X116731518Y-121300499D01*
X116825304Y-121285646D01*
X116938342Y-121228050D01*
X117028050Y-121138342D01*
X117085646Y-121025304D01*
X117085646Y-121025302D01*
X117085647Y-121025301D01*
X117100499Y-120931524D01*
X117100500Y-120931519D01*
X117100499Y-119068482D01*
X117085646Y-118974696D01*
X117028050Y-118861658D01*
X117028046Y-118861654D01*
X117028045Y-118861652D01*
X116938347Y-118771954D01*
X116938344Y-118771952D01*
X116938342Y-118771950D01*
X116849332Y-118726597D01*
X116825301Y-118714352D01*
X116731524Y-118699500D01*
X115268482Y-118699500D01*
X115187519Y-118712323D01*
X115174696Y-118714354D01*
X115061658Y-118771950D01*
X115061657Y-118771951D01*
X115061652Y-118771954D01*
X114971954Y-118861652D01*
X114971951Y-118861657D01*
X114914352Y-118974698D01*
X114899500Y-119068475D01*
X114284817Y-119068475D01*
X114176928Y-118960586D01*
X114036788Y-118858768D01*
X113882445Y-118780127D01*
X113717701Y-118726598D01*
X113717699Y-118726597D01*
X113717698Y-118726597D01*
X113586271Y-118705781D01*
X113546611Y-118699500D01*
X113373389Y-118699500D01*
X113333728Y-118705781D01*
X113202302Y-118726597D01*
X113037552Y-118780128D01*
X112883211Y-118858768D01*
X112803256Y-118916859D01*
X112743072Y-118960586D01*
X112743070Y-118960588D01*
X112743069Y-118960588D01*
X112620588Y-119083069D01*
X112620588Y-119083070D01*
X112620586Y-119083072D01*
X112576859Y-119143256D01*
X112518768Y-119223211D01*
X112440128Y-119377552D01*
X112386597Y-119542302D01*
X112359500Y-119713389D01*
X111706600Y-119713389D01*
X111664229Y-119564472D01*
X111653190Y-119542302D01*
X111565061Y-119365316D01*
X111565056Y-119365308D01*
X111430979Y-119187761D01*
X111266562Y-119037876D01*
X111266560Y-119037874D01*
X111077404Y-118920754D01*
X111077398Y-118920752D01*
X110869940Y-118840382D01*
X110651243Y-118799500D01*
X110428757Y-118799500D01*
X110210060Y-118840382D01*
X110078864Y-118891207D01*
X110002601Y-118920752D01*
X110002595Y-118920754D01*
X109813439Y-119037874D01*
X109813437Y-119037876D01*
X109649020Y-119187761D01*
X109514943Y-119365308D01*
X109514938Y-119365316D01*
X109415775Y-119564461D01*
X109415770Y-119564474D01*
X109403421Y-119607877D01*
X109394422Y-119639508D01*
X109393766Y-119641812D01*
X109356487Y-119700905D01*
X109293177Y-119730462D01*
X109223937Y-119721100D01*
X109170751Y-119675790D01*
X109150504Y-119608918D01*
X109150500Y-119607877D01*
X109150500Y-116392122D01*
X109170185Y-116325083D01*
X109222989Y-116279328D01*
X109292147Y-116269384D01*
X109355703Y-116298409D01*
X109393477Y-116357187D01*
X109393766Y-116358188D01*
X109415769Y-116435523D01*
X109415775Y-116435538D01*
X109514938Y-116634683D01*
X109514943Y-116634691D01*
X109649020Y-116812238D01*
X109813437Y-116962123D01*
X109813439Y-116962125D01*
X110002595Y-117079245D01*
X110002596Y-117079245D01*
X110002599Y-117079247D01*
X110210060Y-117159618D01*
X110428757Y-117200500D01*
X110428759Y-117200500D01*
X110651241Y-117200500D01*
X110651243Y-117200500D01*
X110869940Y-117159618D01*
X111077401Y-117079247D01*
X111266562Y-116962124D01*
X111430981Y-116812236D01*
X111565058Y-116634689D01*
X111664229Y-116435528D01*
X111725115Y-116221536D01*
X111745643Y-116000000D01*
X111744596Y-115988706D01*
X111725115Y-115778464D01*
X111725114Y-115778462D01*
X111720441Y-115762039D01*
X111664229Y-115564472D01*
X111654938Y-115545813D01*
X111565061Y-115365316D01*
X111565056Y-115365308D01*
X111430979Y-115187761D01*
X111266562Y-115037876D01*
X111266560Y-115037874D01*
X111077404Y-114920754D01*
X111077398Y-114920752D01*
X110869940Y-114840382D01*
X110651243Y-114799500D01*
X110428757Y-114799500D01*
X110210060Y-114840382D01*
X110082555Y-114889778D01*
X110002601Y-114920752D01*
X110002595Y-114920754D01*
X109813439Y-115037874D01*
X109813437Y-115037876D01*
X109649020Y-115187761D01*
X109514943Y-115365308D01*
X109514938Y-115365316D01*
X109415775Y-115564461D01*
X109415769Y-115564476D01*
X109389266Y-115657627D01*
X109351987Y-115716721D01*
X109288677Y-115746278D01*
X109219438Y-115736916D01*
X109166251Y-115691606D01*
X109150734Y-115657627D01*
X109124230Y-115564476D01*
X109124229Y-115564472D01*
X109114938Y-115545813D01*
X109025061Y-115365316D01*
X109025056Y-115365308D01*
X108890979Y-115187761D01*
X108726563Y-115037877D01*
X108726562Y-115037876D01*
X108576950Y-114945240D01*
X108554547Y-114927494D01*
X108340442Y-114713389D01*
X112359500Y-114713389D01*
X112359500Y-115286610D01*
X112383544Y-115438423D01*
X112386598Y-115457701D01*
X112440127Y-115622445D01*
X112518768Y-115776788D01*
X112620586Y-115916928D01*
X112743072Y-116039414D01*
X112883212Y-116141232D01*
X113037555Y-116219873D01*
X113202299Y-116273402D01*
X113373389Y-116300500D01*
X113373390Y-116300500D01*
X113546610Y-116300500D01*
X113546611Y-116300500D01*
X113717701Y-116273402D01*
X113882445Y-116219873D01*
X114036788Y-116141232D01*
X114176928Y-116039414D01*
X114299414Y-115916928D01*
X114401232Y-115776788D01*
X114479873Y-115622445D01*
X114533402Y-115457701D01*
X114560500Y-115286611D01*
X114560500Y-114713389D01*
X114533402Y-114542299D01*
X114479873Y-114377555D01*
X114401232Y-114223212D01*
X114299414Y-114083072D01*
X114284817Y-114068475D01*
X114899500Y-114068475D01*
X114899500Y-115931517D01*
X114910292Y-115999657D01*
X114914354Y-116025304D01*
X114971950Y-116138342D01*
X114971952Y-116138344D01*
X114971954Y-116138347D01*
X115061652Y-116228045D01*
X115061654Y-116228046D01*
X115061658Y-116228050D01*
X115174694Y-116285645D01*
X115174698Y-116285647D01*
X115268475Y-116300499D01*
X115268481Y-116300500D01*
X116731518Y-116300499D01*
X116825304Y-116285646D01*
X116938342Y-116228050D01*
X117028050Y-116138342D01*
X117085646Y-116025304D01*
X117085646Y-116025302D01*
X117085647Y-116025301D01*
X117100499Y-115931524D01*
X117100500Y-115931519D01*
X117100499Y-114068482D01*
X117085646Y-113974696D01*
X117028050Y-113861658D01*
X117028046Y-113861654D01*
X117028045Y-113861652D01*
X116938347Y-113771954D01*
X116938344Y-113771952D01*
X116938342Y-113771950D01*
X116849332Y-113726597D01*
X116825301Y-113714352D01*
X116731524Y-113699500D01*
X115268482Y-113699500D01*
X115193929Y-113711308D01*
X115174696Y-113714354D01*
X115061658Y-113771950D01*
X115061657Y-113771951D01*
X115061652Y-113771954D01*
X114971954Y-113861652D01*
X114971951Y-113861657D01*
X114971950Y-113861658D01*
X114958175Y-113888693D01*
X114914352Y-113974698D01*
X114899500Y-114068475D01*
X114284817Y-114068475D01*
X114176928Y-113960586D01*
X114036788Y-113858768D01*
X113882445Y-113780127D01*
X113717701Y-113726598D01*
X113717699Y-113726597D01*
X113717698Y-113726597D01*
X113563058Y-113702105D01*
X113546611Y-113699500D01*
X113373389Y-113699500D01*
X113356942Y-113702105D01*
X113202302Y-113726597D01*
X113037552Y-113780128D01*
X112883211Y-113858768D01*
X112803256Y-113916859D01*
X112743072Y-113960586D01*
X112743070Y-113960588D01*
X112743069Y-113960588D01*
X112620588Y-114083069D01*
X112620588Y-114083070D01*
X112620586Y-114083072D01*
X112576859Y-114143256D01*
X112518768Y-114223211D01*
X112440128Y-114377552D01*
X112386597Y-114542302D01*
X112359500Y-114713389D01*
X108340442Y-114713389D01*
X106881893Y-113254840D01*
X106881884Y-113254830D01*
X106877553Y-113250499D01*
X106749501Y-113122447D01*
X106749497Y-113122444D01*
X106749493Y-113122440D01*
X106602997Y-113016006D01*
X106602996Y-113016005D01*
X106602994Y-113016004D01*
X106551300Y-112989664D01*
X106441639Y-112933788D01*
X106441636Y-112933787D01*
X106269410Y-112877829D01*
X106179977Y-112863664D01*
X106090546Y-112849499D01*
X105909454Y-112849499D01*
X105904343Y-112849499D01*
X105904319Y-112849500D01*
X104989436Y-112849500D01*
X104922397Y-112829815D01*
X104916551Y-112825818D01*
X104884025Y-112802187D01*
X104884024Y-112802186D01*
X104884022Y-112802185D01*
X104821096Y-112770122D01*
X104687606Y-112702104D01*
X104687603Y-112702103D01*
X104477952Y-112633985D01*
X104369086Y-112616742D01*
X104260222Y-112599500D01*
X104260221Y-112599500D01*
X101429500Y-112599500D01*
X101362461Y-112579815D01*
X101316706Y-112527011D01*
X101305500Y-112475500D01*
X101305500Y-108634999D01*
X117379722Y-108634999D01*
X117383596Y-108666904D01*
X117384500Y-108681851D01*
X117384500Y-108699071D01*
X117391289Y-108733207D01*
X117392767Y-108742445D01*
X117398763Y-108791819D01*
X117403906Y-108805381D01*
X117408847Y-108822594D01*
X117409498Y-108824741D01*
X117409499Y-108824744D01*
X117410890Y-108828102D01*
X117429525Y-108873092D01*
X117430900Y-108876560D01*
X117446071Y-108916561D01*
X117454780Y-108939522D01*
X117454780Y-108939523D01*
X117496363Y-108999766D01*
X117497415Y-109001315D01*
X117529722Y-109049666D01*
X117533278Y-109053999D01*
X117539470Y-109062218D01*
X117544518Y-109069532D01*
X117586142Y-109106407D01*
X117591581Y-109111526D01*
X117620330Y-109140275D01*
X117629760Y-109146576D01*
X117643095Y-109156862D01*
X117655219Y-109167602D01*
X117662760Y-109174283D01*
X117696435Y-109191957D01*
X117707669Y-109198633D01*
X117726873Y-109211465D01*
X117753621Y-109222544D01*
X117763776Y-109227300D01*
X117802635Y-109247696D01*
X117816344Y-109251075D01*
X117822434Y-109252576D01*
X117840213Y-109258412D01*
X117845254Y-109260500D01*
X117845256Y-109260501D01*
X117890912Y-109269583D01*
X117896320Y-109270787D01*
X117956015Y-109285500D01*
X117970931Y-109285500D01*
X118445018Y-109285500D01*
X118490506Y-109294145D01*
X118568436Y-109324877D01*
X118656898Y-109335500D01*
X118656903Y-109335500D01*
X120043097Y-109335500D01*
X120043102Y-109335500D01*
X120131564Y-109324877D01*
X120272342Y-109269361D01*
X120392922Y-109177922D01*
X120484361Y-109057342D01*
X120539877Y-108916564D01*
X120550500Y-108828102D01*
X120550500Y-108441898D01*
X120539877Y-108353436D01*
X120484361Y-108212658D01*
X120484360Y-108212657D01*
X120484360Y-108212656D01*
X120392922Y-108092077D01*
X120272343Y-108000639D01*
X120131561Y-107945122D01*
X120085926Y-107939642D01*
X120043102Y-107934500D01*
X118656898Y-107934500D01*
X118623713Y-107938485D01*
X118568436Y-107945122D01*
X118516876Y-107965455D01*
X118490506Y-107975854D01*
X118445018Y-107984500D01*
X118113985Y-107984500D01*
X117956015Y-107984500D01*
X117896354Y-107999203D01*
X117890890Y-108000419D01*
X117845259Y-108009497D01*
X117845253Y-108009499D01*
X117840194Y-108011594D01*
X117822444Y-108017420D01*
X117802637Y-108022303D01*
X117802634Y-108022304D01*
X117763776Y-108042698D01*
X117753608Y-108047460D01*
X117726872Y-108058534D01*
X117707677Y-108071360D01*
X117696418Y-108078051D01*
X117662761Y-108095716D01*
X117662754Y-108095721D01*
X117643094Y-108113138D01*
X117629768Y-108123418D01*
X117620332Y-108129723D01*
X117620324Y-108129729D01*
X117591583Y-108158469D01*
X117586135Y-108163598D01*
X117544517Y-108200469D01*
X117539465Y-108207788D01*
X117533284Y-108215991D01*
X117529730Y-108220322D01*
X117497424Y-108268670D01*
X117496374Y-108270216D01*
X117454778Y-108330478D01*
X117430911Y-108393410D01*
X117429533Y-108396886D01*
X117409497Y-108445261D01*
X117408843Y-108447416D01*
X117403908Y-108464613D01*
X117398763Y-108478179D01*
X117398762Y-108478183D01*
X117392767Y-108527555D01*
X117391289Y-108536793D01*
X117384500Y-108570928D01*
X117384500Y-108588148D01*
X117383596Y-108603094D01*
X117379722Y-108634999D01*
X101305500Y-108634999D01*
X101305500Y-107726468D01*
X101325185Y-107659429D01*
X101341819Y-107638787D01*
X103543787Y-105436819D01*
X103605110Y-105403334D01*
X103631468Y-105400500D01*
X114897968Y-105400500D01*
X114965007Y-105420185D01*
X114967986Y-105422160D01*
X115529139Y-105806106D01*
X115530607Y-105807110D01*
X115548267Y-105821767D01*
X115975960Y-106249461D01*
X115975961Y-106249462D01*
X115975964Y-106249464D01*
X116033781Y-106288096D01*
X116033789Y-106288101D01*
X116033790Y-106288102D01*
X116123448Y-106348010D01*
X116123449Y-106348010D01*
X116123453Y-106348013D01*
X116192382Y-106376564D01*
X116287334Y-106415895D01*
X116364453Y-106431234D01*
X116374845Y-106433772D01*
X116422431Y-106447598D01*
X116459306Y-106450500D01*
X116461308Y-106450500D01*
X116461309Y-106450500D01*
X116911309Y-106450500D01*
X118105520Y-106450500D01*
X118172559Y-106470185D01*
X118213604Y-106513723D01*
X118215639Y-106517342D01*
X118307077Y-106637922D01*
X118427655Y-106729359D01*
X118427658Y-106729361D01*
X118442267Y-106735122D01*
X118444478Y-106735994D01*
X118486667Y-106763667D01*
X118517460Y-106794460D01*
X118517464Y-106794463D01*
X118664946Y-106893008D01*
X118664952Y-106893011D01*
X118664953Y-106893012D01*
X118828834Y-106960894D01*
X118828838Y-106960894D01*
X118828839Y-106960895D01*
X119002805Y-106995500D01*
X119002808Y-106995500D01*
X119180193Y-106995500D01*
X119180194Y-106995499D01*
X119354166Y-106960894D01*
X119518046Y-106893012D01*
X119632707Y-106816398D01*
X119699384Y-106795520D01*
X119701598Y-106795500D01*
X120043097Y-106795500D01*
X120043102Y-106795500D01*
X120131564Y-106784877D01*
X120272342Y-106729361D01*
X120392922Y-106637922D01*
X120484361Y-106517342D01*
X120539877Y-106376564D01*
X120550500Y-106288102D01*
X120550500Y-105901898D01*
X120539877Y-105813436D01*
X120484361Y-105672658D01*
X120484360Y-105672657D01*
X120484360Y-105672656D01*
X120392922Y-105552077D01*
X120272341Y-105460638D01*
X120272339Y-105460637D01*
X120174551Y-105422074D01*
X120119407Y-105379168D01*
X120096214Y-105313260D01*
X120112335Y-105245276D01*
X120162411Y-105196925D01*
X120272240Y-105139283D01*
X120390483Y-105034530D01*
X120480220Y-104904523D01*
X120536237Y-104756818D01*
X120555278Y-104600000D01*
X120552404Y-104576326D01*
X120536237Y-104443181D01*
X120503244Y-104356187D01*
X120480220Y-104295477D01*
X120390483Y-104165470D01*
X120272240Y-104060717D01*
X120272238Y-104060716D01*
X120272237Y-104060715D01*
X120132365Y-103987303D01*
X119978986Y-103949500D01*
X119978985Y-103949500D01*
X119821015Y-103949500D01*
X119667631Y-103987304D01*
X119660620Y-103989964D01*
X119660545Y-103989766D01*
X119647249Y-103994686D01*
X119647486Y-103995445D01*
X119642836Y-103996895D01*
X119533722Y-104040607D01*
X119487610Y-104049500D01*
X119424025Y-104049500D01*
X119319017Y-104077637D01*
X119284014Y-104087016D01*
X119158486Y-104159489D01*
X119158483Y-104159491D01*
X118704793Y-104613181D01*
X118643470Y-104646666D01*
X118617112Y-104649500D01*
X116974362Y-104649500D01*
X116907323Y-104629815D01*
X116886681Y-104613181D01*
X116821767Y-104548267D01*
X116807110Y-104530607D01*
X116791121Y-104507239D01*
X116713985Y-104394500D01*
X116422162Y-103967988D01*
X116400552Y-103901544D01*
X116400500Y-103897967D01*
X116400500Y-103889778D01*
X116366015Y-103672049D01*
X116331955Y-103567221D01*
X116297896Y-103462396D01*
X116297895Y-103462393D01*
X116245527Y-103359617D01*
X116197815Y-103265978D01*
X116122362Y-103162125D01*
X116068245Y-103087638D01*
X115912363Y-102931756D01*
X115912358Y-102931752D01*
X115734025Y-102802187D01*
X115734024Y-102802186D01*
X115734022Y-102802185D01*
X115671096Y-102770122D01*
X115537606Y-102702104D01*
X115537603Y-102702103D01*
X115327952Y-102633985D01*
X115219086Y-102616742D01*
X115110222Y-102599500D01*
X115110221Y-102599500D01*
X103115357Y-102599500D01*
X103115333Y-102599499D01*
X103110222Y-102599499D01*
X102889778Y-102599499D01*
X102817201Y-102610994D01*
X102672047Y-102633985D01*
X102462396Y-102702103D01*
X102462393Y-102702104D01*
X102265974Y-102802187D01*
X102087641Y-102931752D01*
X102087636Y-102931756D01*
X101931755Y-103087638D01*
X100551867Y-104467525D01*
X100490544Y-104501010D01*
X100422411Y-104496595D01*
X100388716Y-104484538D01*
X100224476Y-104434717D01*
X100185863Y-104425045D01*
X100162041Y-104420307D01*
X100162036Y-104420306D01*
X100122699Y-104414472D01*
X99945815Y-104397050D01*
X99925951Y-104395584D01*
X99913810Y-104394988D01*
X99906340Y-104394805D01*
X99893907Y-104394500D01*
X97806093Y-104394500D01*
X97792528Y-104394832D01*
X97786192Y-104394988D01*
X97774032Y-104395585D01*
X97754200Y-104397048D01*
X97577308Y-104414470D01*
X97577304Y-104414470D01*
X97537950Y-104420309D01*
X97537947Y-104420309D01*
X97514114Y-104425050D01*
X97475508Y-104434721D01*
X97311292Y-104484535D01*
X97311288Y-104484536D01*
X97311286Y-104484537D01*
X97305284Y-104486684D01*
X97273825Y-104497941D01*
X97273770Y-104497962D01*
X97251378Y-104507239D01*
X97251355Y-104507248D01*
X97215417Y-104524246D01*
X97215414Y-104524248D01*
X97215406Y-104524251D01*
X97215398Y-104524256D01*
X97127311Y-104571339D01*
X97064047Y-104605154D01*
X97029928Y-104625603D01*
X97029893Y-104625625D01*
X97009745Y-104639086D01*
X97009713Y-104639109D01*
X96977762Y-104662805D01*
X96977735Y-104662827D01*
X96845081Y-104771693D01*
X96845069Y-104771703D01*
X96815590Y-104798421D01*
X96798421Y-104815590D01*
X96771703Y-104845069D01*
X96771693Y-104845081D01*
X96662827Y-104977735D01*
X96662805Y-104977762D01*
X96639109Y-105009713D01*
X96639086Y-105009745D01*
X96625625Y-105029893D01*
X96625603Y-105029928D01*
X96622845Y-105034530D01*
X96605156Y-105064044D01*
X96524256Y-105215398D01*
X96524251Y-105215406D01*
X96524248Y-105215414D01*
X96524246Y-105215417D01*
X96507248Y-105251355D01*
X96507239Y-105251378D01*
X96497962Y-105273770D01*
X96497941Y-105273825D01*
X96484535Y-105311292D01*
X96434721Y-105475508D01*
X96425050Y-105514117D01*
X96420307Y-105537958D01*
X96414471Y-105577304D01*
X96414469Y-105577324D01*
X96397050Y-105754184D01*
X96395584Y-105774047D01*
X96394988Y-105786188D01*
X96394500Y-105806106D01*
X95200500Y-105806106D01*
X95200500Y-105002706D01*
X95200618Y-104997297D01*
X95201471Y-104977762D01*
X95218528Y-104587080D01*
X95219468Y-104576347D01*
X95272709Y-104171938D01*
X95274582Y-104161308D01*
X95362870Y-103763068D01*
X95365668Y-103752630D01*
X95440643Y-103514840D01*
X95488319Y-103363629D01*
X95492016Y-103353473D01*
X95522762Y-103279247D01*
X95648111Y-102976627D01*
X95652669Y-102966853D01*
X95841025Y-102605024D01*
X95846407Y-102595703D01*
X96065574Y-102251680D01*
X96071765Y-102242837D01*
X96104636Y-102199999D01*
X119499357Y-102199999D01*
X119499357Y-102200000D01*
X119519884Y-102421535D01*
X119519885Y-102421537D01*
X119580769Y-102635523D01*
X119580775Y-102635538D01*
X119679938Y-102834683D01*
X119679943Y-102834691D01*
X119814020Y-103012238D01*
X119978437Y-103162123D01*
X119978439Y-103162125D01*
X120167595Y-103279245D01*
X120167596Y-103279245D01*
X120167599Y-103279247D01*
X120375060Y-103359618D01*
X120593757Y-103400500D01*
X120593759Y-103400500D01*
X120816241Y-103400500D01*
X120816243Y-103400500D01*
X121034940Y-103359618D01*
X121242401Y-103279247D01*
X121431562Y-103162124D01*
X121595981Y-103012236D01*
X121730058Y-102834689D01*
X121829229Y-102635528D01*
X121890115Y-102421536D01*
X121910643Y-102200000D01*
X121890115Y-101978464D01*
X121829229Y-101764472D01*
X121765281Y-101636047D01*
X121730061Y-101565316D01*
X121730056Y-101565308D01*
X121595979Y-101387761D01*
X121431562Y-101237876D01*
X121431560Y-101237874D01*
X121242404Y-101120754D01*
X121242398Y-101120752D01*
X121034940Y-101040382D01*
X120816243Y-100999500D01*
X120593757Y-100999500D01*
X120375060Y-101040382D01*
X120243864Y-101091207D01*
X120167601Y-101120752D01*
X120167595Y-101120754D01*
X119978439Y-101237874D01*
X119978437Y-101237876D01*
X119814020Y-101387761D01*
X119679943Y-101565308D01*
X119679938Y-101565316D01*
X119580775Y-101764461D01*
X119580769Y-101764476D01*
X119519885Y-101978462D01*
X119519884Y-101978464D01*
X119499357Y-102199999D01*
X96104636Y-102199999D01*
X96320083Y-101919224D01*
X96327021Y-101910955D01*
X96602594Y-101610220D01*
X96610220Y-101602594D01*
X96910955Y-101327021D01*
X96919224Y-101320083D01*
X97242837Y-101071765D01*
X97251680Y-101065574D01*
X97595703Y-100846407D01*
X97605024Y-100841025D01*
X97966853Y-100652669D01*
X97976627Y-100648111D01*
X98353482Y-100492012D01*
X98363629Y-100488319D01*
X98752639Y-100365665D01*
X98763068Y-100362870D01*
X99161308Y-100274582D01*
X99171938Y-100272709D01*
X99576347Y-100219468D01*
X99587080Y-100218528D01*
X99997297Y-100200617D01*
X100002706Y-100200500D01*
X100039882Y-100200500D01*
X124960118Y-100200500D01*
X124997294Y-100200500D01*
X125002702Y-100200617D01*
G37*
%TD.AperFunction*%
%TD*%
%TA.AperFunction,Conductor*%
%TO.N,VCC*%
G36*
X115572262Y-103444278D02*
G01*
X115573635Y-103445934D01*
X116479439Y-104769803D01*
X116481283Y-104778566D01*
X116478056Y-104784683D01*
X115784683Y-105478056D01*
X115776410Y-105481483D01*
X115769803Y-105479439D01*
X114445934Y-104573635D01*
X114441041Y-104566135D01*
X114442885Y-104557372D01*
X114444252Y-104555722D01*
X114999293Y-103999293D01*
X115555717Y-103444257D01*
X115563994Y-103440841D01*
X115572262Y-103444278D01*
G37*
%TD.AperFunction*%
%TD*%
%TA.AperFunction,Conductor*%
%TO.N,VCC*%
G36*
X119802587Y-104373419D02*
G01*
X119808777Y-104379658D01*
X119898821Y-104594789D01*
X119898854Y-104603743D01*
X119898831Y-104603800D01*
X119808051Y-104822022D01*
X119801709Y-104828344D01*
X119794845Y-104828979D01*
X119537737Y-104775016D01*
X119531867Y-104771838D01*
X119334738Y-104574709D01*
X119331311Y-104566436D01*
X119334738Y-104558163D01*
X119338657Y-104555576D01*
X119793634Y-104373314D01*
X119802587Y-104373419D01*
G37*
%TD.AperFunction*%
%TD*%
%TA.AperFunction,Conductor*%
%TO.N,BAT*%
G36*
X126784683Y-113521943D02*
G01*
X127478056Y-114215316D01*
X127481483Y-114223589D01*
X127479439Y-114230196D01*
X126573635Y-115554065D01*
X126566135Y-115558958D01*
X126557372Y-115557114D01*
X126555716Y-115555741D01*
X125999293Y-115000707D01*
X125999273Y-115000687D01*
X125444258Y-114444283D01*
X125440841Y-114436005D01*
X125444278Y-114427737D01*
X125445925Y-114426370D01*
X126769803Y-113520559D01*
X126778566Y-113518716D01*
X126784683Y-113521943D01*
G37*
%TD.AperFunction*%
%TD*%
%TA.AperFunction,Conductor*%
%TO.N,BAT*%
G36*
X125442627Y-119442885D02*
G01*
X125444283Y-119444258D01*
X126000707Y-119999293D01*
X126000727Y-119999313D01*
X126555741Y-120555716D01*
X126559158Y-120563994D01*
X126555721Y-120572262D01*
X126554065Y-120573635D01*
X125230196Y-121479439D01*
X125221433Y-121481283D01*
X125215316Y-121478056D01*
X124521943Y-120784683D01*
X124518516Y-120776410D01*
X124520560Y-120769803D01*
X124654780Y-120573635D01*
X125426366Y-119445932D01*
X125433864Y-119441041D01*
X125442627Y-119442885D01*
G37*
%TD.AperFunction*%
%TD*%
%TA.AperFunction,Conductor*%
%TO.N,BAT*%
G36*
X124947874Y-126804800D02*
G01*
X124951220Y-126811701D01*
X125139632Y-128406984D01*
X125137199Y-128415602D01*
X125133359Y-128418763D01*
X124008342Y-128996714D01*
X123999418Y-128997446D01*
X123994001Y-128993789D01*
X123513032Y-128415602D01*
X123186208Y-128022717D01*
X123183553Y-128014167D01*
X123185317Y-128008980D01*
X123946555Y-126806814D01*
X123953876Y-126801657D01*
X123956440Y-126801373D01*
X124939601Y-126801373D01*
X124947874Y-126804800D01*
G37*
%TD.AperFunction*%
%TD*%
M02*
