;TYPE=PLATED
;Layer: PTH_Through
;EasyEDA Pro Client v2.2.27.1, 2024-09-15 10:59:51
;Gerber Generator version 0.3
M48
; DRILL file {KiCad 8.0.5} date 2024-10-25T21:21:57+0800
; FORMAT={-:-/ absolute / inch / decimal}
; #@! TF.CreationDate,2024-10-25T21:21:57+08:00
; #@! TF.GenerationSoftware,Kicad,Pcbnew,8.0.5
; #@! TF.FileFunction,Plated,1,2,PTH
FMAT,2
INCH
; #@! TA.AperFunction,Plated,PTH,ViaDrill
T1C0.0118
; #@! TA.AperFunction,Plated,PTH,ComponentDrill
T2C0.0236
; #@! TA.AperFunction,Plated,PTH,ComponentDrill
T3C0.0315
; #@! TA.AperFunction,Plated,PTH,ComponentDrill
T4C0.0374
; #@! TA.AperFunction,Plated,PTH,ComponentDrill
T5C0.0787
; #@! TA.AperFunction,Plated,PTH,ComponentDrill
T6C0.0906
; #@! TA.AperFunction,Plated,PTH,ComponentDrill
T7C0.1181
%
G90
G05
T1
X4.037Y-4.037
X4.037Y-4.6457
X4.037Y-4.8457
X4.037Y-5.0457
X4.237Y-4.037
X4.237Y-4.6457
X4.237Y-4.8457
X4.237Y-5.0457
X4.437Y-4.037
X4.437Y-4.6457
X4.437Y-4.8457
X4.437Y-5.0457
X4.437Y-5.2457
X4.498Y-4.3987
X4.6146Y-4.539
X4.637Y-4.037
X4.637Y-4.8457
X4.637Y-5.0457
X4.637Y-5.2457
X4.837Y-4.037
X4.837Y-4.8457
X4.837Y-5.0457
X4.837Y-5.2457
X4.9961Y-4.724
X4.9961Y-4.924
X5.037Y-4.037
X5.1961Y-4.724
X5.1961Y-4.924
X5.237Y-4.037
X5.365Y-4.5618
X5.3961Y-4.724
X5.3961Y-4.924
X5.437Y-4.037
X5.4626Y-5.0315
X5.5169Y-4.9815
X5.5228Y-4.6618
X5.5906Y-5.0386
X5.637Y-4.037
X5.6547Y-4.8169
X5.7402Y-4.5894
X5.7748Y-4.8169
X5.7783Y-5.0299
X5.837Y-4.037
X6.037Y-4.037
X6.172Y-4.9657
X6.237Y-4.037
X6.2902Y-5.1224
X6.2906Y-4.5528
X6.437Y-4.037
X6.4547Y-4.6913
X6.4547Y-4.8913
X6.4559Y-5.0433
X6.637Y-4.037
X6.6547Y-4.6913
X6.6547Y-4.8913
X6.6559Y-5.0433
X6.837Y-4.037
X6.8547Y-4.6913
X6.8701Y-5.1012
X6.8701Y-5.3012
X7.0154Y-4.5472
X7.037Y-4.037
X7.037Y-4.6772
X7.0701Y-5.1012
X7.0701Y-5.3012
X7.1898Y-4.5398
X7.2114Y-4.7661
X7.2114Y-4.9661
X7.237Y-4.037
X7.4114Y-4.7661
X7.4114Y-4.9661
T3
X4.0551Y-4.2496
X4.0551Y-4.4465
X4.9381Y-4.2496
X4.9381Y-4.4465
X5.1181Y-5.1163
X5.1181Y-5.2163
X5.2362Y-5.1163
X5.2362Y-5.2163
X5.8211Y-4.2496
X5.8211Y-4.4465
X5.8268Y-5.0984
X5.8268Y-5.2953
X6.0236Y-5.0984
X6.0236Y-5.2953
X6.1079Y-4.7732
X6.2205Y-5.0984
X6.2205Y-5.2953
X6.3Y-4.7732
X6.7042Y-4.2496
X6.7042Y-4.4465
T4
X4.3616Y-4.4709
X4.46Y-4.4709
X4.5388Y-4.4709
X4.6372Y-4.4709
X5.2437Y-4.4709
X5.3421Y-4.4709
X5.4208Y-4.4709
X5.5193Y-4.4709
X6.1258Y-4.4709
X6.2242Y-4.4709
X6.3029Y-4.4709
X6.4014Y-4.4709
X7.0079Y-4.4709
X7.1063Y-4.4709
X7.185Y-4.4709
X7.2835Y-4.4709
T5
X6.2039Y-4.7732
T6
X4.2407Y-4.3642
X4.758Y-4.3642
X5.1228Y-4.3642
X5.6401Y-4.3642
X6.0049Y-4.3642
X6.5222Y-4.3642
X6.887Y-4.3642
X7.4043Y-4.3642
T7
X4.1339Y-5.1969
X7.2835Y-5.1969
T2
G00X5.3417Y-5.0923
M15
G01X5.3417Y-5.1356
M16
G05
G00X5.3417Y-5.2667
M15
G01X5.3417Y-5.2904
M16
G05
G00X5.6819Y-5.0923
M15
G01X5.6819Y-5.1356
M16
G05
G00X5.6819Y-5.2667
M15
G01X5.6819Y-5.2904
M16
G05
M30
