G04 Layer: TopLayer*
G04 EasyEDA Pro v2.2.27.1, 2024-09-15 10:59:50*
G04 Gerber Generator version 0.3*
G04 Scale: 100 percent, Rotated: No, Reflected: No*
G04 Dimensions in millimeters*
G04 Leading zeros omitted, absolute positions, 3 integers and 5 decimals*
%TF.GenerationSoftware,KiCad,Pcbnew,8.0.5*%
%TF.CreationDate,2024-10-25T21:21:59+08:00*%
%TF.ProjectId,USB_HUB_SL2_1A,5553425f-4855-4425-9f53-4c325f31412e,rev?*%
%TF.SameCoordinates,Original*%
%TF.FileFunction,Copper,L1,Top*%
%TF.FilePolarity,Positive*%
%FSLAX46Y46*%
G04 Gerber Fmt 4.6, Leading zero omitted, Abs format (unit mm)*
G04 Created by KiCad (PCBNEW 8.0.5) date 2024-10-25 21:21:59*
%MOMM*%
%LPD*%
G01*
G04 APERTURE LIST*
G04 Aperture macros list*
%AMRoundRect*
0 Rectangle with rounded corners*
0 $1 Rounding radius*
0 $2 $3 $4 $5 $6 $7 $8 $9 X,Y pos of 4 corners*
0 Add a 4 corners polygon primitive as box body*
4,1,4,$2,$3,$4,$5,$6,$7,$8,$9,$2,$3,0*
0 Add four circle primitives for the rounded corners*
1,1,$1+$1,$2,$3*
1,1,$1+$1,$4,$5*
1,1,$1+$1,$6,$7*
1,1,$1+$1,$8,$9*
0 Add four rect primitives between the rounded corners*
20,1,$1+$1,$2,$3,$4,$5,0*
20,1,$1+$1,$4,$5,$6,$7,0*
20,1,$1+$1,$6,$7,$8,$9,0*
20,1,$1+$1,$8,$9,$2,$3,0*%
G04 Aperture macros list end*
%TA.AperFunction,ComponentPad*%
%ADD10C,1.600000*%
%TD*%
%TA.AperFunction,ComponentPad*%
%ADD11C,6.000000*%
%TD*%
%TA.AperFunction,ComponentPad*%
%ADD12O,1.600000X1.600000*%
%TD*%
%TA.AperFunction,ComponentPad*%
%ADD13R,1.600000X1.500000*%
%TD*%
%TA.AperFunction,ComponentPad*%
%ADD14C,3.000000*%
%TD*%
%TA.AperFunction,ComponentPad*%
%ADD15C,1.500000*%
%TD*%
%TA.AperFunction,ComponentPad*%
%ADD16C,2.500000*%
%TD*%
%TA.AperFunction,SMDPad,CuDef*%
%ADD17RoundRect,0.150000X-0.150000X0.850000X-0.150000X-0.850000X0.150000X-0.850000X0.150000X0.850000X0*%
%TD*%
%TA.AperFunction,SMDPad,CuDef*%
%ADD18RoundRect,0.150000X-0.150000X-0.500000X0.150000X-0.500000X0.150000X0.500000X-0.150000X0.500000X0*%
%TD*%
%TA.AperFunction,SMDPad,CuDef*%
%ADD19RoundRect,0.075000X-0.075000X-0.575000X0.075000X-0.575000X0.075000X0.575000X-0.075000X0.575000X0*%
%TD*%
%TA.AperFunction,ComponentPad*%
%ADD20O,1.000000X2.100000*%
%TD*%
%TA.AperFunction,ComponentPad*%
%ADD21O,1.000000X1.600000*%
%TD*%
%TA.AperFunction,ViaPad*%
%ADD22C,0.500000*%
%TD*%
%TA.AperFunction,Conductor*%
%ADD23C,0.180000*%
%TD*%
%TA.AperFunction,Conductor*%
%ADD24C,1.000000*%
%TD*%
%TA.AperFunction,Conductor*%
%ADD25C,1.500000*%
%TD*%
%TA.AperFunction,Conductor*%
%ADD26C,0.500000*%
%TD*%
%TA.AperFunction,Conductor*%
%ADD27C,0.300000*%
%TD*%
%TA.AperFunction,Conductor*%
%ADD28C,0.200000*%
%TD*%
G04 APERTURE END LIST*
D10*
%TO.P,C4,1*%
%TO.N,VBUS*%
X103000000Y-107940000D03*
%TO.P,C4,2*%
%TO.N,GND*%
X103000000Y-112940000D03*
%TD*%
%TO.P,C8,1*%
%TO.N,VBUS*%
X125428570Y-107940000D03*
%TO.P,C8,2*%
%TO.N,GND*%
X125428570Y-112940000D03*
%TD*%
D11*
%TO.P,H1,1,1*%
%TO.N,GND*%
X185000000Y-132000000D03*
%TD*%
D10*
%TO.P,C7,1*%
%TO.N,VBUS*%
X148000000Y-129500000D03*
%TO.P,C7,2*%
%TO.N,GND*%
X148000000Y-134500000D03*
%TD*%
%TO.P,C6,1*%
%TO.N,VBUS*%
X147857140Y-107940000D03*
%TO.P,C6,2*%
%TO.N,GND*%
X147857140Y-112940000D03*
%TD*%
D11*
%TO.P,H2,1,1*%
%TO.N,GND*%
X105000000Y-132000000D03*
%TD*%
D10*
%TO.P,R1,1*%
%TO.N,GND*%
X133000000Y-129955000D03*
D12*
%TO.P,R1,2*%
%TO.N,Net-(USB2-CC2)*%
X133000000Y-132495000D03*
%TD*%
D13*
%TO.P,USB1,1,VBUS*%
%TO.N,VBUS*%
X185000000Y-113560000D03*
D10*
%TO.P,USB1,2,D-*%
%TO.N,/USBA1_D-*%
X182500000Y-113560000D03*
%TO.P,USB1,3,D+*%
%TO.N,/USBA1_D+*%
X180500000Y-113560000D03*
%TO.P,USB1,4,GND*%
%TO.N,GND*%
X178000000Y-113560000D03*
D14*
%TO.P,USB1,5,Shield*%
X188070000Y-110850000D03*
X174930000Y-110850000D03*
%TD*%
D10*
%TO.P,C3,1*%
%TO.N,/VDD18*%
X158000000Y-129500000D03*
%TO.P,C3,2*%
%TO.N,GND*%
X158000000Y-134500000D03*
%TD*%
D13*
%TO.P,USB3,1,VBUS*%
%TO.N,VBUS*%
X162594761Y-113560000D03*
D10*
%TO.P,USB3,2,D-*%
%TO.N,/USBA2_D-*%
X160094761Y-113560000D03*
%TO.P,USB3,3,D+*%
%TO.N,/USBA2_D+*%
X158094761Y-113560000D03*
%TO.P,USB3,4,GND*%
%TO.N,GND*%
X155594761Y-113560000D03*
D14*
%TO.P,USB3,5,Shield*%
X165664761Y-110850000D03*
X152524761Y-110850000D03*
%TD*%
D10*
%TO.P,C2,1*%
%TO.N,/VDD33*%
X153000000Y-129500000D03*
%TO.P,C2,2*%
%TO.N,GND*%
X153000000Y-134500000D03*
%TD*%
D15*
%TO.P,X1,1,1*%
%TO.N,Net-(U1-XIN)*%
X160020000Y-121240000D03*
D16*
%TO.P,X1,2,2*%
%TO.N,GND*%
X157580000Y-121240000D03*
D15*
%TO.P,X1,3,3*%
%TO.N,Net-(U1-XOUT)*%
X155140000Y-121240000D03*
%TD*%
D13*
%TO.P,USB4,1,VBUS*%
%TO.N,VBUS*%
X140189523Y-113560000D03*
D10*
%TO.P,USB4,2,D-*%
%TO.N,/USBA3_D-*%
X137689523Y-113560000D03*
%TO.P,USB4,3,D+*%
%TO.N,/USBA3_D+*%
X135689523Y-113560000D03*
%TO.P,USB4,4,GND*%
%TO.N,GND*%
X133189523Y-113560000D03*
D14*
%TO.P,USB4,5,Shield*%
X143259523Y-110850000D03*
X130119523Y-110850000D03*
%TD*%
D10*
%TO.P,C1,1*%
%TO.N,VBUS*%
X170285710Y-107940000D03*
%TO.P,C1,2*%
%TO.N,GND*%
X170285710Y-112940000D03*
%TD*%
D13*
%TO.P,USB5,1,VBUS*%
%TO.N,VBUS*%
X117784285Y-113560000D03*
D10*
%TO.P,USB5,2,D-*%
%TO.N,/USBA4_D-*%
X115284285Y-113560000D03*
%TO.P,USB5,3,D+*%
%TO.N,/USBA4_D+*%
X113284285Y-113560000D03*
%TO.P,USB5,4,GND*%
%TO.N,GND*%
X110784285Y-113560000D03*
D14*
%TO.P,USB5,5,Shield*%
X120854285Y-110850000D03*
X107714285Y-110850000D03*
%TD*%
D17*
%TO.P,U1,1,DM4*%
%TO.N,/USBA1_D-*%
X150445000Y-120000000D03*
%TO.P,U1,2,DP4*%
%TO.N,/USBA1_D+*%
X149175000Y-120000000D03*
%TO.P,U1,3,DM3*%
%TO.N,/USBA2_D-*%
X147905000Y-120000000D03*
%TO.P,U1,4,DP3*%
%TO.N,/USBA2_D+*%
X146635000Y-120000000D03*
%TO.P,U1,5,DM2*%
%TO.N,/USBA3_D-*%
X145365000Y-120000000D03*
%TO.P,U1,6,DP2*%
%TO.N,/USBA3_D+*%
X144095000Y-120000000D03*
%TO.P,U1,7,DM1*%
%TO.N,/USBA4_D-*%
X142825000Y-120000000D03*
%TO.P,U1,8,DP1*%
%TO.N,/USBA4_D+*%
X141555000Y-120000000D03*
%TO.P,U1,9,DM*%
%TO.N,/USBC_D-*%
X141555000Y-125000000D03*
%TO.P,U1,10,DP*%
%TO.N,/USBC_D+*%
X142825000Y-125000000D03*
%TO.P,U1,11,VDD5*%
%TO.N,VBUS*%
X144095000Y-125000000D03*
%TO.P,U1,12,GND*%
%TO.N,GND*%
X145365000Y-125000000D03*
%TO.P,U1,13,VDD33*%
%TO.N,/VDD33*%
X146635000Y-125000000D03*
%TO.P,U1,14,VDD18*%
%TO.N,/VDD18*%
X147905000Y-125000000D03*
%TO.P,U1,15,XOUT*%
%TO.N,Net-(U1-XOUT)*%
X149175000Y-125000000D03*
%TO.P,U1,16,XIN*%
%TO.N,Net-(U1-XIN)*%
X150445000Y-125000000D03*
%TD*%
D10*
%TO.P,R2,1*%
%TO.N,GND*%
X130000000Y-129955000D03*
D12*
%TO.P,R2,2*%
%TO.N,Net-(USB2-CC1)*%
X130000000Y-132495000D03*
%TD*%
D18*
%TO.P,USB2,A1,GND*%
%TO.N,GND*%
X136800000Y-129255000D03*
%TO.P,USB2,A4,VBUS*%
%TO.N,VBUS*%
X137600000Y-129255000D03*
D19*
%TO.P,USB2,A5,CC1*%
%TO.N,Net-(USB2-CC1)*%
X138750000Y-129255000D03*
%TO.P,USB2,A6,D+*%
%TO.N,/USBC_D+*%
X139750000Y-129255000D03*
%TO.P,USB2,A7,D-*%
%TO.N,/USBC_D-*%
X140250000Y-129255000D03*
%TO.P,USB2,A8,SBU1*%
%TO.N,unconnected-(USB2-SBU1-PadA8)*%
X141250000Y-129255000D03*
D18*
%TO.P,USB2,A9,VBUS*%
%TO.N,VBUS*%
X142400000Y-129255000D03*
%TO.P,USB2,A12,GND*%
%TO.N,GND*%
X143200000Y-129255000D03*
%TO.P,USB2,B1,GND*%
X143200000Y-129255000D03*
%TO.P,USB2,B4,VBUS*%
%TO.N,VBUS*%
X142400000Y-129255000D03*
D19*
%TO.P,USB2,B5,CC2*%
%TO.N,Net-(USB2-CC2)*%
X141750000Y-129255000D03*
%TO.P,USB2,B6,D+*%
%TO.N,/USBC_D+*%
X140750000Y-129255000D03*
%TO.P,USB2,B7,D-*%
%TO.N,/USBC_D-*%
X139250000Y-129255000D03*
%TO.P,USB2,B8,SBU2*%
%TO.N,unconnected-(USB2-SBU2-PadB8)*%
X138250000Y-129255000D03*
D18*
%TO.P,USB2,B9,VBUS*%
%TO.N,VBUS*%
X137600000Y-129255000D03*
%TO.P,USB2,B12,GND*%
%TO.N,GND*%
X136800000Y-129255000D03*
D20*
%TO.P,USB2,S1,SHIELD*%
X135680000Y-129895000D03*
D21*
X135680000Y-134075000D03*
D20*
X144320000Y-129895000D03*
D21*
X144320000Y-134075000D03*
%TD*%
D22*
%TO.N,GND*%
X114250000Y-111728000D03*
X169030000Y-119160000D03*
%TO.N,Net-(USB2-CC1)*%
X138750000Y-127800000D03*
%TO.N,GND*%
X122860000Y-123080000D03*
X168580000Y-102540000D03*
X163980000Y-128100000D03*
X112700000Y-102540000D03*
X133020000Y-102540000D03*
X183820000Y-102540000D03*
X117780000Y-102540000D03*
X178740000Y-102540000D03*
X188250000Y-126140000D03*
X183170000Y-121060000D03*
X137060000Y-119990000D03*
X102540000Y-118000000D03*
X174500000Y-129570000D03*
X122860000Y-102540000D03*
X122860000Y-128160000D03*
X183170000Y-126140000D03*
X107620000Y-102540000D03*
X188250000Y-121060000D03*
X112700000Y-123080000D03*
X146680000Y-122350000D03*
X131980000Y-119990000D03*
X126900000Y-119990000D03*
X107620000Y-128160000D03*
X138100000Y-102540000D03*
X159780000Y-115640000D03*
X117780000Y-128160000D03*
X178740000Y-118800000D03*
X137060000Y-125070000D03*
X174500000Y-134650000D03*
X163950000Y-119160000D03*
X143630000Y-122350000D03*
X102540000Y-128160000D03*
X156770000Y-126130000D03*
X122860000Y-133240000D03*
X158420000Y-102540000D03*
X107620000Y-118000000D03*
X145800000Y-116570000D03*
X107620000Y-123080000D03*
X163500000Y-102540000D03*
X143180000Y-102540000D03*
X169060000Y-128100000D03*
X148260000Y-102540000D03*
X140130000Y-126530000D03*
X126900000Y-125070000D03*
X178190000Y-115500000D03*
X159770000Y-130110000D03*
X153340000Y-102540000D03*
X102540000Y-123080000D03*
X112700000Y-128160000D03*
X131980000Y-125070000D03*
X136270000Y-115870000D03*
X182620000Y-115310000D03*
X179580000Y-129570000D03*
X112700000Y-118000000D03*
X127940000Y-102540000D03*
X117780000Y-133240000D03*
X117780000Y-123080000D03*
X102540000Y-102540000D03*
X163950000Y-124240000D03*
X112700000Y-133240000D03*
X117210000Y-115290000D03*
X169030000Y-124240000D03*
X140280000Y-118410000D03*
X173660000Y-102540000D03*
X146770000Y-127760000D03*
X174110000Y-119160000D03*
X179580000Y-134650000D03*
%TO.N,Net-(USB2-CC2)*%
X142000000Y-127980000D03*
%TD*%
D23*
%TO.N,Net-(U1-XOUT)*%
X149675001Y-123500000D02*
X152880000Y-123500000D01*
X152880000Y-123500000D02*
X155140000Y-121240000D01*
X149175000Y-124000001D02*
X149675001Y-123500000D01*
X149175000Y-125000000D02*
X149175000Y-124000001D01*
D24*
%TO.N,GND*%
X154200000Y-119500000D02*
X151350000Y-122350000D01*
X151350000Y-122350000D02*
X146680000Y-122350000D01*
X155840000Y-119500000D02*
X154200000Y-119500000D01*
X157580000Y-121240000D02*
X155840000Y-119500000D01*
D25*
%TO.N,VBUS*%
X185000000Y-115810000D02*
X185000000Y-113560000D01*
X168810000Y-132000000D02*
X185000000Y-115810000D01*
X148000000Y-129500000D02*
X150500000Y-132000000D01*
X150500000Y-132000000D02*
X168810000Y-132000000D01*
%TO.N,GND*%
X135675000Y-133786500D02*
X147246500Y-133786500D01*
X130000000Y-129955000D02*
X128868630Y-129955000D01*
D24*
X141110000Y-122350000D02*
X135675000Y-127785000D01*
D25*
X182460000Y-134540000D02*
X185000000Y-132000000D01*
X147246500Y-133786500D02*
X148000000Y-134540000D01*
D23*
%TO.N,Net-(USB2-CC1)*%
X138750000Y-129036500D02*
X138750000Y-127800000D01*
D25*
%TO.N,GND*%
X135675000Y-133786500D02*
X135156500Y-134305000D01*
X158000000Y-134540000D02*
X182460000Y-134540000D01*
D26*
X145365000Y-125372500D02*
X145365000Y-122395000D01*
D25*
X135675000Y-129586500D02*
X133368500Y-129586500D01*
D24*
X145410000Y-122350000D02*
X143630000Y-122350000D01*
D26*
X136800000Y-129036500D02*
X136225000Y-129036500D01*
X143775000Y-129036500D02*
X144325000Y-129586500D01*
D25*
X107305000Y-134305000D02*
X105000000Y-132000000D01*
D26*
X145365000Y-122395000D02*
X145410000Y-122350000D01*
X136225000Y-129036500D02*
X135675000Y-129586500D01*
D25*
X148000000Y-134540000D02*
X158000000Y-134540000D01*
X128868630Y-129955000D02*
X126900000Y-131923630D01*
D24*
X146680000Y-122350000D02*
X145410000Y-122350000D01*
D25*
X126900000Y-134305000D02*
X107305000Y-134305000D01*
X130000000Y-129955000D02*
X133000000Y-129955000D01*
D24*
X143630000Y-122350000D02*
X141110000Y-122350000D01*
D25*
X126900000Y-131923630D02*
X126900000Y-134305000D01*
D24*
X135675000Y-127785000D02*
X135675000Y-129586500D01*
D25*
X133368500Y-129586500D02*
X133000000Y-129955000D01*
D26*
X143200000Y-129036500D02*
X143775000Y-129036500D01*
D25*
X135156500Y-134305000D02*
X126900000Y-134305000D01*
X144325000Y-129586500D02*
X144325000Y-133786500D01*
D27*
%TO.N,VBUS*%
X137600000Y-129904999D02*
X138695001Y-131000000D01*
X137600000Y-129255000D02*
X137600000Y-129904999D01*
D25*
X162600000Y-107940000D02*
X182040000Y-107940000D01*
X140200000Y-107940000D02*
X162600000Y-107940000D01*
X140189523Y-113560000D02*
X140189523Y-107950477D01*
X117800000Y-107940000D02*
X140200000Y-107940000D01*
D26*
X142400000Y-128600000D02*
X144095000Y-126905000D01*
D27*
X142400000Y-129930406D02*
X142400000Y-129255000D01*
D25*
X117784285Y-107955715D02*
X117800000Y-107940000D01*
D26*
X144095000Y-126905000D02*
X144095000Y-125000000D01*
D25*
X103000000Y-107940000D02*
X117800000Y-107940000D01*
D27*
X141330406Y-131000000D02*
X142400000Y-129930406D01*
D25*
X182040000Y-107940000D02*
X185000000Y-110900000D01*
X162594761Y-113560000D02*
X162594761Y-107945239D01*
D26*
X144095000Y-126905000D02*
X144105000Y-126905000D01*
D27*
X138695001Y-131000000D02*
X141330406Y-131000000D01*
D25*
X117784285Y-113560000D02*
X117784285Y-107955715D01*
D26*
X144105000Y-126905000D02*
X146700000Y-129500000D01*
X146700000Y-129500000D02*
X148000000Y-129500000D01*
D25*
X162594761Y-107945239D02*
X162600000Y-107940000D01*
D26*
X142400000Y-129255000D02*
X142400000Y-128600000D01*
D25*
X185000000Y-110900000D02*
X185000000Y-113560000D01*
X140189523Y-107950477D02*
X140200000Y-107940000D01*
D23*
%TO.N,Net-(USB2-CC2)*%
X141750000Y-129036500D02*
X141750000Y-128230000D01*
X141750000Y-128230000D02*
X142000000Y-127980000D01*
D28*
%TO.N,/USBA3_D+*%
X144095000Y-117913200D02*
X144095000Y-119627500D01*
X135712855Y-113500000D02*
X138437855Y-116225000D01*
X142406800Y-116225000D02*
X144095000Y-117913200D01*
X138437855Y-116225000D02*
X142406800Y-116225000D01*
%TO.N,/USBA2_D+*%
X157230028Y-115775000D02*
X158141425Y-114863603D01*
X146635000Y-118046800D02*
X148906800Y-115775000D01*
X148906800Y-115775000D02*
X157230028Y-115775000D01*
X146635000Y-119627500D02*
X146635000Y-118046800D01*
X158141425Y-114863603D02*
X158141425Y-113500000D01*
%TO.N,/USBA4_D-*%
X141093200Y-116775000D02*
X142825000Y-118506800D01*
X117195682Y-116775000D02*
X141093200Y-116775000D01*
X115284285Y-113560000D02*
X115284285Y-114863603D01*
X142825000Y-118506800D02*
X142825000Y-119627500D01*
X115284285Y-114863603D02*
X117195682Y-116775000D01*
%TO.N,/USBC_D+*%
X140725000Y-128293200D02*
X142415000Y-126603200D01*
X140750000Y-128755000D02*
X140725000Y-128730000D01*
D23*
X139750000Y-129255000D02*
X139750000Y-130250000D01*
D28*
X142415000Y-126110000D02*
X142825000Y-125700000D01*
D23*
X140000000Y-130500000D02*
X140500000Y-130500000D01*
D28*
X142415000Y-126603200D02*
X142415000Y-126110000D01*
D23*
X140500000Y-130500000D02*
X140750000Y-130250000D01*
D28*
X140725000Y-128730000D02*
X140725000Y-128293200D01*
X142825000Y-125700000D02*
X142825000Y-125000000D01*
D23*
X140750000Y-130250000D02*
X140750000Y-129255000D01*
X139750000Y-130250000D02*
X140000000Y-130500000D01*
D28*
X140750000Y-129255000D02*
X140750000Y-128755000D01*
%TO.N,/USBA1_D+*%
X178658603Y-116775000D02*
X150906800Y-116775000D01*
X149175000Y-118506800D02*
X149175000Y-119627500D01*
X180500000Y-114933603D02*
X178658603Y-116775000D01*
X180500000Y-113560000D02*
X180500000Y-114933603D01*
X150906800Y-116775000D02*
X149175000Y-118506800D01*
%TO.N,/USBA1_D-*%
X182500000Y-113560000D02*
X182500000Y-113570000D01*
X150445000Y-117873200D02*
X150445000Y-119627500D01*
X182500000Y-113570000D02*
X178845000Y-117225000D01*
X178845000Y-117225000D02*
X151093200Y-117225000D01*
X151093200Y-117225000D02*
X150445000Y-117873200D01*
%TO.N,/USBA2_D-*%
X149093200Y-116225000D02*
X147905000Y-117413200D01*
X157416425Y-116225000D02*
X149093200Y-116225000D01*
X147905000Y-117413200D02*
X147905000Y-119627500D01*
X160141425Y-113500000D02*
X157416425Y-116225000D01*
%TO.N,/USBC_D-*%
X140275000Y-128730000D02*
X140275000Y-128106800D01*
D23*
X139250000Y-129255000D02*
X139250000Y-128350000D01*
D28*
X141555000Y-125700000D02*
X141555000Y-125000000D01*
X140250000Y-129255000D02*
X140250000Y-128755000D01*
D23*
X139250000Y-128350000D02*
X139493200Y-128106800D01*
D28*
X141965000Y-126110000D02*
X141555000Y-125700000D01*
X140250000Y-128755000D02*
X140275000Y-128730000D01*
X141965000Y-126416800D02*
X141965000Y-126110000D01*
X140275000Y-128106800D02*
X141965000Y-126416800D01*
D23*
X139493200Y-128106800D02*
X140275000Y-128106800D01*
D28*
%TO.N,/USBA3_D-*%
X142593200Y-115775000D02*
X138624252Y-115775000D01*
X137712855Y-114863603D02*
X137712855Y-113500000D01*
X145365000Y-119627500D02*
X145365000Y-118546800D01*
X138624252Y-115775000D02*
X137712855Y-114863603D01*
X145365000Y-118546800D02*
X142593200Y-115775000D01*
%TO.N,/USBA4_D+*%
X117009285Y-117225000D02*
X140906800Y-117225000D01*
X113344285Y-113560000D02*
X117009285Y-117225000D01*
X140906800Y-117225000D02*
X141555000Y-117873200D01*
X113284285Y-113560000D02*
X113344285Y-113560000D01*
X141555000Y-117873200D02*
X141555000Y-119627500D01*
D26*
%TO.N,/VDD33*%
X153000000Y-129460000D02*
X151320000Y-127780000D01*
X148230000Y-127780000D02*
X146635000Y-126185000D01*
X151320000Y-127780000D02*
X148230000Y-127780000D01*
X146635000Y-126185000D02*
X146635000Y-125372500D01*
%TO.N,/VDD18*%
X147905000Y-125372500D02*
X147905000Y-126185000D01*
X147905000Y-126185000D02*
X148870000Y-127150000D01*
X155690000Y-127150000D02*
X158000000Y-129460000D01*
X148870000Y-127150000D02*
X155690000Y-127150000D01*
D23*
%TO.N,Net-(U1-XIN)*%
X155827500Y-125372500D02*
X159960000Y-121240000D01*
X150445000Y-125372500D02*
X155827500Y-125372500D01*
%TD*%
%TA.AperFunction,Conductor*%
%TO.N,GND*%
G36*
X147521643Y-109098194D02*
G01*
X147521685Y-109098049D01*
X147523250Y-109098494D01*
X147525278Y-109098873D01*
X147527200Y-109099618D01*
X147745897Y-109140500D01*
X147745899Y-109140500D01*
X147968381Y-109140500D01*
X147968383Y-109140500D01*
X148187080Y-109099618D01*
X148189001Y-109098873D01*
X148191029Y-109098494D01*
X148192595Y-109098049D01*
X148192636Y-109098194D01*
X148233795Y-109090500D01*
X161320261Y-109090500D01*
X161387300Y-109110185D01*
X161433055Y-109162989D01*
X161444261Y-109214500D01*
X161444261Y-112585948D01*
X161430746Y-112642242D01*
X161409113Y-112684698D01*
X161394261Y-112778475D01*
X161394261Y-112949247D01*
X161374576Y-113016286D01*
X161321772Y-113062041D01*
X161252614Y-113071985D01*
X161189058Y-113042960D01*
X161159261Y-113004519D01*
X161119822Y-112925316D01*
X161119817Y-112925308D01*
X160985740Y-112747761D01*
X160821323Y-112597876D01*
X160821321Y-112597874D01*
X160632165Y-112480754D01*
X160632159Y-112480752D01*
X160424701Y-112400382D01*
X160206004Y-112359500D01*
X159983518Y-112359500D01*
X159764821Y-112400382D01*
X159633625Y-112451207D01*
X159557362Y-112480752D01*
X159557356Y-112480754D01*
X159368200Y-112597874D01*
X159368198Y-112597876D01*
X159203780Y-112747762D01*
X159193714Y-112761093D01*
X159137605Y-112802728D01*
X159067893Y-112807419D01*
X159006711Y-112773676D01*
X158995808Y-112761093D01*
X158985741Y-112747762D01*
X158821323Y-112597876D01*
X158821321Y-112597874D01*
X158632165Y-112480754D01*
X158632159Y-112480752D01*
X158424701Y-112400382D01*
X158206004Y-112359500D01*
X157983518Y-112359500D01*
X157764821Y-112400382D01*
X157633625Y-112451207D01*
X157557362Y-112480752D01*
X157557356Y-112480754D01*
X157368200Y-112597874D01*
X157368198Y-112597876D01*
X157203781Y-112747761D01*
X157069704Y-112925308D01*
X157069699Y-112925316D01*
X156970536Y-113124461D01*
X156970530Y-113124476D01*
X156909646Y-113338462D01*
X156909645Y-113338464D01*
X156889118Y-113559999D01*
X156889118Y-113560000D01*
X156909645Y-113781535D01*
X156909646Y-113781537D01*
X156970530Y-113995523D01*
X156970536Y-113995538D01*
X157069699Y-114194683D01*
X157069704Y-114194691D01*
X157203781Y-114372238D01*
X157368198Y-114522123D01*
X157368200Y-114522125D01*
X157486394Y-114595307D01*
X157533030Y-114647334D01*
X157544134Y-114716316D01*
X157516181Y-114780351D01*
X157508798Y-114788415D01*
X157059033Y-115238181D01*
X156997710Y-115271666D01*
X156971352Y-115274500D01*
X148840907Y-115274500D01*
X148713612Y-115308608D01*
X148599486Y-115374500D01*
X148599483Y-115374502D01*
X146660305Y-117313681D01*
X146598982Y-117347166D01*
X146572624Y-117350000D01*
X144964487Y-117350000D01*
X144959365Y-117352797D01*
X144889673Y-117347813D01*
X144845326Y-117319312D01*
X142900516Y-115374502D01*
X142900514Y-115374500D01*
X142843450Y-115341554D01*
X142786387Y-115308608D01*
X142722739Y-115291554D01*
X142659092Y-115274500D01*
X142659091Y-115274500D01*
X138882928Y-115274500D01*
X138815889Y-115254815D01*
X138795247Y-115238181D01*
X138318715Y-114761649D01*
X138285230Y-114700326D01*
X138290214Y-114630634D01*
X138332086Y-114574701D01*
X138341119Y-114568541D01*
X138416083Y-114522125D01*
X138416082Y-114522125D01*
X138416085Y-114522124D01*
X138580504Y-114372236D01*
X138714581Y-114194689D01*
X138754024Y-114115476D01*
X138801525Y-114064242D01*
X138869188Y-114046820D01*
X138935528Y-114068745D01*
X138979484Y-114123056D01*
X138989023Y-114170749D01*
X138989023Y-114341517D01*
X138993889Y-114372238D01*
X139003877Y-114435304D01*
X139061473Y-114548342D01*
X139061475Y-114548344D01*
X139061477Y-114548347D01*
X139151175Y-114638045D01*
X139151177Y-114638046D01*
X139151181Y-114638050D01*
X139264217Y-114695645D01*
X139264221Y-114695647D01*
X139357998Y-114710499D01*
X139358004Y-114710500D01*
X140088974Y-114710499D01*
X140088988Y-114710500D01*
X140098977Y-114710500D01*
X140290059Y-114710500D01*
X140290071Y-114710499D01*
X141021040Y-114710499D01*
X141021041Y-114710499D01*
X141114827Y-114695646D01*
X141227865Y-114638050D01*
X141317573Y-114548342D01*
X141375169Y-114435304D01*
X141375169Y-114435302D01*
X141375170Y-114435301D01*
X141390022Y-114341524D01*
X141390023Y-114341519D01*
X141390022Y-112778482D01*
X141375169Y-112684696D01*
X141375168Y-112684694D01*
X141375168Y-112684692D01*
X141353538Y-112642241D01*
X141340023Y-112585947D01*
X141340023Y-109214500D01*
X141359708Y-109147461D01*
X141412512Y-109101706D01*
X141464023Y-109090500D01*
X147480485Y-109090500D01*
X147521643Y-109098194D01*
G37*
%TD.AperFunction*%
%TA.AperFunction,Conductor*%
G36*
X125093073Y-109098194D02*
G01*
X125093115Y-109098049D01*
X125094680Y-109098494D01*
X125096708Y-109098873D01*
X125098630Y-109099618D01*
X125317327Y-109140500D01*
X125317329Y-109140500D01*
X125539811Y-109140500D01*
X125539813Y-109140500D01*
X125758510Y-109099618D01*
X125760431Y-109098873D01*
X125762459Y-109098494D01*
X125764025Y-109098049D01*
X125764066Y-109098194D01*
X125805225Y-109090500D01*
X138915023Y-109090500D01*
X138982062Y-109110185D01*
X139027817Y-109162989D01*
X139039023Y-109214500D01*
X139039023Y-112585948D01*
X139025508Y-112642242D01*
X139003875Y-112684698D01*
X138989023Y-112778475D01*
X138989023Y-112949247D01*
X138969338Y-113016286D01*
X138916534Y-113062041D01*
X138847376Y-113071985D01*
X138783820Y-113042960D01*
X138754023Y-113004519D01*
X138714584Y-112925316D01*
X138714579Y-112925308D01*
X138580502Y-112747761D01*
X138416085Y-112597876D01*
X138416083Y-112597874D01*
X138226927Y-112480754D01*
X138226921Y-112480752D01*
X138019463Y-112400382D01*
X137800766Y-112359500D01*
X137578280Y-112359500D01*
X137359583Y-112400382D01*
X137228387Y-112451207D01*
X137152124Y-112480752D01*
X137152118Y-112480754D01*
X136962962Y-112597874D01*
X136962960Y-112597876D01*
X136798542Y-112747762D01*
X136788476Y-112761093D01*
X136732367Y-112802728D01*
X136662655Y-112807419D01*
X136601473Y-112773676D01*
X136590570Y-112761093D01*
X136580503Y-112747762D01*
X136416085Y-112597876D01*
X136416083Y-112597874D01*
X136226927Y-112480754D01*
X136226921Y-112480752D01*
X136019463Y-112400382D01*
X135800766Y-112359500D01*
X135578280Y-112359500D01*
X135359583Y-112400382D01*
X135228387Y-112451207D01*
X135152124Y-112480752D01*
X135152118Y-112480754D01*
X134962962Y-112597874D01*
X134962960Y-112597876D01*
X134798543Y-112747761D01*
X134664466Y-112925308D01*
X134664461Y-112925316D01*
X134565298Y-113124461D01*
X134565292Y-113124476D01*
X134504408Y-113338462D01*
X134504407Y-113338464D01*
X134483880Y-113559999D01*
X134483880Y-113560000D01*
X134504407Y-113781535D01*
X134504408Y-113781537D01*
X134565292Y-113995523D01*
X134565298Y-113995538D01*
X134664461Y-114194683D01*
X134664466Y-114194691D01*
X134798543Y-114372238D01*
X134962960Y-114522123D01*
X134962962Y-114522125D01*
X135152118Y-114639245D01*
X135152119Y-114639245D01*
X135152122Y-114639247D01*
X135359583Y-114719618D01*
X135578280Y-114760500D01*
X135578282Y-114760500D01*
X135800764Y-114760500D01*
X135800766Y-114760500D01*
X136019463Y-114719618D01*
X136092020Y-114691508D01*
X136161643Y-114685646D01*
X136223383Y-114718355D01*
X136224495Y-114719454D01*
X137567860Y-116062819D01*
X137601345Y-116124142D01*
X137596361Y-116193834D01*
X137554489Y-116249767D01*
X137489025Y-116274184D01*
X137480179Y-116274500D01*
X117454358Y-116274500D01*
X117387319Y-116254815D01*
X117366677Y-116238181D01*
X115899067Y-114770571D01*
X115865582Y-114709248D01*
X115870566Y-114639556D01*
X115912438Y-114583623D01*
X115921471Y-114577463D01*
X116010845Y-114522125D01*
X116010844Y-114522125D01*
X116010847Y-114522124D01*
X116175266Y-114372236D01*
X116309343Y-114194689D01*
X116348786Y-114115476D01*
X116396287Y-114064242D01*
X116463950Y-114046820D01*
X116530290Y-114068745D01*
X116574246Y-114123056D01*
X116583785Y-114170749D01*
X116583785Y-114341517D01*
X116588651Y-114372238D01*
X116598639Y-114435304D01*
X116656235Y-114548342D01*
X116656237Y-114548344D01*
X116656239Y-114548347D01*
X116745937Y-114638045D01*
X116745939Y-114638046D01*
X116745943Y-114638050D01*
X116858979Y-114695645D01*
X116858983Y-114695647D01*
X116952760Y-114710499D01*
X116952766Y-114710500D01*
X117683736Y-114710499D01*
X117683750Y-114710500D01*
X117693739Y-114710500D01*
X117884821Y-114710500D01*
X117884833Y-114710499D01*
X118615802Y-114710499D01*
X118615803Y-114710499D01*
X118709589Y-114695646D01*
X118822627Y-114638050D01*
X118912335Y-114548342D01*
X118969931Y-114435304D01*
X118969931Y-114435302D01*
X118969932Y-114435301D01*
X118984784Y-114341524D01*
X118984785Y-114341519D01*
X118984784Y-112778482D01*
X118969931Y-112684696D01*
X118969930Y-112684694D01*
X118969930Y-112684692D01*
X118948300Y-112642241D01*
X118934785Y-112585947D01*
X118934785Y-109214500D01*
X118954470Y-109147461D01*
X119007274Y-109101706D01*
X119058785Y-109090500D01*
X125051915Y-109090500D01*
X125093073Y-109098194D01*
G37*
%TD.AperFunction*%
%TA.AperFunction,Conductor*%
G36*
X169950213Y-109098194D02*
G01*
X169950255Y-109098049D01*
X169951820Y-109098494D01*
X169953848Y-109098873D01*
X169955770Y-109099618D01*
X170174467Y-109140500D01*
X170174469Y-109140500D01*
X170396951Y-109140500D01*
X170396953Y-109140500D01*
X170615650Y-109099618D01*
X170617571Y-109098873D01*
X170619599Y-109098494D01*
X170621165Y-109098049D01*
X170621206Y-109098194D01*
X170662365Y-109090500D01*
X181512085Y-109090500D01*
X181579124Y-109110185D01*
X181599766Y-109126819D01*
X183813181Y-111340234D01*
X183846666Y-111401557D01*
X183849500Y-111427915D01*
X183849500Y-112585948D01*
X183835985Y-112642242D01*
X183814352Y-112684698D01*
X183799500Y-112778475D01*
X183799500Y-112949247D01*
X183779815Y-113016286D01*
X183727011Y-113062041D01*
X183657853Y-113071985D01*
X183594297Y-113042960D01*
X183564500Y-113004519D01*
X183525061Y-112925316D01*
X183525056Y-112925308D01*
X183390979Y-112747761D01*
X183226562Y-112597876D01*
X183226560Y-112597874D01*
X183037404Y-112480754D01*
X183037398Y-112480752D01*
X182829940Y-112400382D01*
X182611243Y-112359500D01*
X182388757Y-112359500D01*
X182170060Y-112400382D01*
X182038864Y-112451207D01*
X181962601Y-112480752D01*
X181962595Y-112480754D01*
X181773439Y-112597874D01*
X181773437Y-112597876D01*
X181609019Y-112747762D01*
X181598953Y-112761093D01*
X181542844Y-112802728D01*
X181473132Y-112807419D01*
X181411950Y-112773676D01*
X181401047Y-112761093D01*
X181390980Y-112747762D01*
X181226562Y-112597876D01*
X181226560Y-112597874D01*
X181037404Y-112480754D01*
X181037398Y-112480752D01*
X180829940Y-112400382D01*
X180611243Y-112359500D01*
X180388757Y-112359500D01*
X180170060Y-112400382D01*
X180038864Y-112451207D01*
X179962601Y-112480752D01*
X179962595Y-112480754D01*
X179773439Y-112597874D01*
X179773437Y-112597876D01*
X179609020Y-112747761D01*
X179474943Y-112925308D01*
X179474938Y-112925316D01*
X179375775Y-113124461D01*
X179375769Y-113124476D01*
X179314885Y-113338462D01*
X179314884Y-113338464D01*
X179294357Y-113559999D01*
X179294357Y-113560000D01*
X179314884Y-113781535D01*
X179314885Y-113781537D01*
X179375769Y-113995523D01*
X179375775Y-113995538D01*
X179474938Y-114194683D01*
X179474943Y-114194691D01*
X179609020Y-114372238D01*
X179773437Y-114522123D01*
X179773439Y-114522125D01*
X179906045Y-114604231D01*
X179952681Y-114656259D01*
X179963785Y-114725240D01*
X179935832Y-114789275D01*
X179928449Y-114797339D01*
X178487608Y-116238181D01*
X178426285Y-116271666D01*
X178399927Y-116274500D01*
X158374101Y-116274500D01*
X158307062Y-116254815D01*
X158261307Y-116202011D01*
X158251363Y-116132853D01*
X158280388Y-116069297D01*
X158286420Y-116062819D01*
X158448693Y-115900546D01*
X159610241Y-114738996D01*
X159671562Y-114705513D01*
X159741253Y-114710497D01*
X159742517Y-114710977D01*
X159764821Y-114719618D01*
X159983518Y-114760500D01*
X159983520Y-114760500D01*
X160206002Y-114760500D01*
X160206004Y-114760500D01*
X160424701Y-114719618D01*
X160632162Y-114639247D01*
X160821323Y-114522124D01*
X160985742Y-114372236D01*
X161119819Y-114194689D01*
X161159262Y-114115476D01*
X161206763Y-114064242D01*
X161274426Y-114046820D01*
X161340766Y-114068745D01*
X161384722Y-114123056D01*
X161394261Y-114170749D01*
X161394261Y-114341517D01*
X161399127Y-114372238D01*
X161409115Y-114435304D01*
X161466711Y-114548342D01*
X161466713Y-114548344D01*
X161466715Y-114548347D01*
X161556413Y-114638045D01*
X161556415Y-114638046D01*
X161556419Y-114638050D01*
X161669455Y-114695645D01*
X161669459Y-114695647D01*
X161763236Y-114710499D01*
X161763242Y-114710500D01*
X162494212Y-114710499D01*
X162494226Y-114710500D01*
X162504215Y-114710500D01*
X162695297Y-114710500D01*
X162695309Y-114710499D01*
X163426278Y-114710499D01*
X163426279Y-114710499D01*
X163520065Y-114695646D01*
X163633103Y-114638050D01*
X163722811Y-114548342D01*
X163780407Y-114435304D01*
X163780407Y-114435302D01*
X163780408Y-114435301D01*
X163795260Y-114341524D01*
X163795261Y-114341519D01*
X163795260Y-112778482D01*
X163780407Y-112684696D01*
X163780406Y-112684694D01*
X163780406Y-112684692D01*
X163758776Y-112642241D01*
X163745261Y-112585947D01*
X163745261Y-109214500D01*
X163764946Y-109147461D01*
X163817750Y-109101706D01*
X163869261Y-109090500D01*
X169909055Y-109090500D01*
X169950213Y-109098194D01*
G37*
%TD.AperFunction*%
%TA.AperFunction,Conductor*%
G36*
X187003472Y-100200695D02*
G01*
X187306503Y-100217713D01*
X187320301Y-100219267D01*
X187616080Y-100269522D01*
X187629636Y-100272616D01*
X187917927Y-100355672D01*
X187931051Y-100360265D01*
X188208222Y-100475072D01*
X188220744Y-100481101D01*
X188423184Y-100592986D01*
X188483328Y-100626227D01*
X188495102Y-100633625D01*
X188739789Y-100807239D01*
X188750657Y-100815907D01*
X188974352Y-101015815D01*
X188984184Y-101025647D01*
X189184092Y-101249342D01*
X189192763Y-101260214D01*
X189366374Y-101504897D01*
X189373772Y-101516671D01*
X189518894Y-101779248D01*
X189524927Y-101791777D01*
X189639734Y-102068948D01*
X189644327Y-102082072D01*
X189727383Y-102370363D01*
X189730477Y-102383920D01*
X189780730Y-102679688D01*
X189782287Y-102693506D01*
X189799305Y-102996527D01*
X189799500Y-103003480D01*
X189799500Y-133996519D01*
X189799305Y-134003472D01*
X189782287Y-134306493D01*
X189780730Y-134320311D01*
X189730477Y-134616079D01*
X189727383Y-134629636D01*
X189644327Y-134917927D01*
X189639734Y-134931051D01*
X189524927Y-135208222D01*
X189518894Y-135220751D01*
X189373772Y-135483328D01*
X189366374Y-135495102D01*
X189192763Y-135739785D01*
X189184092Y-135750657D01*
X188984184Y-135974352D01*
X188974352Y-135984184D01*
X188750657Y-136184092D01*
X188739785Y-136192763D01*
X188495102Y-136366374D01*
X188483328Y-136373772D01*
X188220751Y-136518894D01*
X188208222Y-136524927D01*
X187931051Y-136639734D01*
X187917927Y-136644327D01*
X187629636Y-136727383D01*
X187616079Y-136730477D01*
X187320311Y-136780730D01*
X187306493Y-136782287D01*
X187003472Y-136799305D01*
X186996519Y-136799500D01*
X103003481Y-136799500D01*
X102996528Y-136799305D01*
X102693506Y-136782287D01*
X102679688Y-136780730D01*
X102383920Y-136730477D01*
X102370363Y-136727383D01*
X102082072Y-136644327D01*
X102068948Y-136639734D01*
X101791777Y-136524927D01*
X101779248Y-136518894D01*
X101516671Y-136373772D01*
X101504897Y-136366374D01*
X101260214Y-136192763D01*
X101249342Y-136184092D01*
X101025647Y-135984184D01*
X101015815Y-135974352D01*
X100815907Y-135750657D01*
X100807236Y-135739785D01*
X100633625Y-135495102D01*
X100626227Y-135483328D01*
X100481105Y-135220751D01*
X100475072Y-135208222D01*
X100360265Y-134931051D01*
X100355672Y-134917927D01*
X100272616Y-134629636D01*
X100269522Y-134616079D01*
X100250030Y-134501356D01*
X100219267Y-134320301D01*
X100217713Y-134306503D01*
X100200695Y-134003472D01*
X100200500Y-133996519D01*
X100200500Y-132494999D01*
X128794357Y-132494999D01*
X128794357Y-132495000D01*
X128814884Y-132716535D01*
X128814885Y-132716537D01*
X128875769Y-132930523D01*
X128875775Y-132930538D01*
X128974938Y-133129683D01*
X128974943Y-133129691D01*
X129109020Y-133307238D01*
X129273437Y-133457123D01*
X129273439Y-133457125D01*
X129462595Y-133574245D01*
X129462596Y-133574245D01*
X129462599Y-133574247D01*
X129670060Y-133654618D01*
X129888757Y-133695500D01*
X129888759Y-133695500D01*
X130111241Y-133695500D01*
X130111243Y-133695500D01*
X130329940Y-133654618D01*
X130537401Y-133574247D01*
X130726562Y-133457124D01*
X130890981Y-133307236D01*
X131025058Y-133129689D01*
X131124229Y-132930528D01*
X131185115Y-132716536D01*
X131205643Y-132495000D01*
X131205643Y-132494999D01*
X131794357Y-132494999D01*
X131794357Y-132495000D01*
X131814884Y-132716535D01*
X131814885Y-132716537D01*
X131875769Y-132930523D01*
X131875775Y-132930538D01*
X131974938Y-133129683D01*
X131974943Y-133129691D01*
X132109020Y-133307238D01*
X132273437Y-133457123D01*
X132273439Y-133457125D01*
X132462595Y-133574245D01*
X132462596Y-133574245D01*
X132462599Y-133574247D01*
X132670060Y-133654618D01*
X132888757Y-133695500D01*
X132888759Y-133695500D01*
X133111241Y-133695500D01*
X133111243Y-133695500D01*
X133329940Y-133654618D01*
X133537401Y-133574247D01*
X133726562Y-133457124D01*
X133890981Y-133307236D01*
X134025058Y-133129689D01*
X134124229Y-132930528D01*
X134185115Y-132716536D01*
X134205643Y-132495000D01*
X134185115Y-132273464D01*
X134124229Y-132059472D01*
X134124224Y-132059461D01*
X134025061Y-131860316D01*
X134025056Y-131860308D01*
X133890979Y-131682761D01*
X133726562Y-131532876D01*
X133726560Y-131532874D01*
X133537404Y-131415754D01*
X133537398Y-131415752D01*
X133329940Y-131335382D01*
X133111243Y-131294500D01*
X132888757Y-131294500D01*
X132670060Y-131335382D01*
X132538864Y-131386207D01*
X132462601Y-131415752D01*
X132462595Y-131415754D01*
X132273439Y-131532874D01*
X132273437Y-131532876D01*
X132109020Y-131682761D01*
X131974943Y-131860308D01*
X131974938Y-131860316D01*
X131875775Y-132059461D01*
X131875769Y-132059476D01*
X131814885Y-132273462D01*
X131814884Y-132273464D01*
X131794357Y-132494999D01*
X131205643Y-132494999D01*
X131185115Y-132273464D01*
X131124229Y-132059472D01*
X131124224Y-132059461D01*
X131025061Y-131860316D01*
X131025056Y-131860308D01*
X130890979Y-131682761D01*
X130726562Y-131532876D01*
X130726560Y-131532874D01*
X130537404Y-131415754D01*
X130537398Y-131415752D01*
X130329940Y-131335382D01*
X130111243Y-131294500D01*
X129888757Y-131294500D01*
X129670060Y-131335382D01*
X129538864Y-131386207D01*
X129462601Y-131415752D01*
X129462595Y-131415754D01*
X129273439Y-131532874D01*
X129273437Y-131532876D01*
X129109020Y-131682761D01*
X128974943Y-131860308D01*
X128974938Y-131860316D01*
X128875775Y-132059461D01*
X128875769Y-132059476D01*
X128814885Y-132273462D01*
X128814884Y-132273464D01*
X128794357Y-132494999D01*
X100200500Y-132494999D01*
X100200500Y-107939999D01*
X101794357Y-107939999D01*
X101794357Y-107940000D01*
X101814884Y-108161535D01*
X101814885Y-108161537D01*
X101875769Y-108375523D01*
X101875775Y-108375538D01*
X101974938Y-108574683D01*
X101974943Y-108574691D01*
X102109020Y-108752238D01*
X102273437Y-108902123D01*
X102273439Y-108902125D01*
X102462595Y-109019245D01*
X102462596Y-109019245D01*
X102462599Y-109019247D01*
X102670060Y-109099618D01*
X102888757Y-109140500D01*
X102888759Y-109140500D01*
X103111241Y-109140500D01*
X103111243Y-109140500D01*
X103329940Y-109099618D01*
X103331861Y-109098873D01*
X103333889Y-109098494D01*
X103335455Y-109098049D01*
X103335496Y-109098194D01*
X103376655Y-109090500D01*
X116509785Y-109090500D01*
X116576824Y-109110185D01*
X116622579Y-109162989D01*
X116633785Y-109214500D01*
X116633785Y-112585948D01*
X116620270Y-112642242D01*
X116598637Y-112684698D01*
X116583785Y-112778475D01*
X116583785Y-112949247D01*
X116564100Y-113016286D01*
X116511296Y-113062041D01*
X116442138Y-113071985D01*
X116378582Y-113042960D01*
X116348785Y-113004519D01*
X116309346Y-112925316D01*
X116309341Y-112925308D01*
X116175264Y-112747761D01*
X116010847Y-112597876D01*
X116010845Y-112597874D01*
X115821689Y-112480754D01*
X115821683Y-112480752D01*
X115614225Y-112400382D01*
X115395528Y-112359500D01*
X115173042Y-112359500D01*
X114954345Y-112400382D01*
X114823149Y-112451207D01*
X114746886Y-112480752D01*
X114746880Y-112480754D01*
X114557724Y-112597874D01*
X114557722Y-112597876D01*
X114393304Y-112747762D01*
X114383238Y-112761093D01*
X114327129Y-112802728D01*
X114257417Y-112807419D01*
X114196235Y-112773676D01*
X114185332Y-112761093D01*
X114175265Y-112747762D01*
X114010847Y-112597876D01*
X114010845Y-112597874D01*
X113821689Y-112480754D01*
X113821683Y-112480752D01*
X113614225Y-112400382D01*
X113395528Y-112359500D01*
X113173042Y-112359500D01*
X112954345Y-112400382D01*
X112823149Y-112451207D01*
X112746886Y-112480752D01*
X112746880Y-112480754D01*
X112557724Y-112597874D01*
X112557722Y-112597876D01*
X112393305Y-112747761D01*
X112259228Y-112925308D01*
X112259223Y-112925316D01*
X112160060Y-113124461D01*
X112160054Y-113124476D01*
X112099170Y-113338462D01*
X112099169Y-113338464D01*
X112078642Y-113559999D01*
X112078642Y-113560000D01*
X112099169Y-113781535D01*
X112099170Y-113781537D01*
X112160054Y-113995523D01*
X112160060Y-113995538D01*
X112259223Y-114194683D01*
X112259228Y-114194691D01*
X112393305Y-114372238D01*
X112557722Y-114522123D01*
X112557724Y-114522125D01*
X112746880Y-114639245D01*
X112746881Y-114639245D01*
X112746884Y-114639247D01*
X112954345Y-114719618D01*
X113173042Y-114760500D01*
X113173044Y-114760500D01*
X113395526Y-114760500D01*
X113395528Y-114760500D01*
X113614225Y-114719618D01*
X113669965Y-114698023D01*
X113739587Y-114692161D01*
X113801328Y-114724870D01*
X113802440Y-114725969D01*
X116701971Y-117625500D01*
X116816099Y-117691392D01*
X116943393Y-117725500D01*
X117075178Y-117725500D01*
X140648124Y-117725500D01*
X140715163Y-117745185D01*
X140735805Y-117761819D01*
X141018181Y-118044194D01*
X141051666Y-118105517D01*
X141054500Y-118131875D01*
X141054500Y-118663319D01*
X141034815Y-118730358D01*
X141016842Y-118749855D01*
X141018072Y-118751085D01*
X141012074Y-118757082D01*
X140920639Y-118877656D01*
X140865122Y-119018438D01*
X140859188Y-119067853D01*
X140854500Y-119106898D01*
X140854500Y-120893102D01*
X140860126Y-120939954D01*
X140865122Y-120981561D01*
X140920639Y-121122343D01*
X141012077Y-121242922D01*
X141132656Y-121334360D01*
X141132657Y-121334360D01*
X141132658Y-121334361D01*
X141273436Y-121389877D01*
X141361898Y-121400500D01*
X141361903Y-121400500D01*
X141748097Y-121400500D01*
X141748102Y-121400500D01*
X141836564Y-121389877D01*
X141977342Y-121334361D01*
X142097922Y-121242922D01*
X142097924Y-121242920D01*
X142102319Y-121238526D01*
X142163642Y-121205041D01*
X142233334Y-121210025D01*
X142277681Y-121238526D01*
X142282075Y-121242920D01*
X142402656Y-121334360D01*
X142402657Y-121334360D01*
X142402658Y-121334361D01*
X142543436Y-121389877D01*
X142631898Y-121400500D01*
X142631903Y-121400500D01*
X143018097Y-121400500D01*
X143018102Y-121400500D01*
X143106564Y-121389877D01*
X143247342Y-121334361D01*
X143367922Y-121242922D01*
X143367924Y-121242920D01*
X143372319Y-121238526D01*
X143433642Y-121205041D01*
X143503334Y-121210025D01*
X143547681Y-121238526D01*
X143552075Y-121242920D01*
X143672656Y-121334360D01*
X143672657Y-121334360D01*
X143672658Y-121334361D01*
X143813436Y-121389877D01*
X143901898Y-121400500D01*
X143901903Y-121400500D01*
X144288097Y-121400500D01*
X144288102Y-121400500D01*
X144376564Y-121389877D01*
X144517342Y-121334361D01*
X144637922Y-121242922D01*
X144637924Y-121242920D01*
X144642319Y-121238526D01*
X144703642Y-121205041D01*
X144773334Y-121210025D01*
X144817681Y-121238526D01*
X144822075Y-121242920D01*
X144942656Y-121334360D01*
X144942657Y-121334360D01*
X144942658Y-121334361D01*
X145083436Y-121389877D01*
X145171898Y-121400500D01*
X145171903Y-121400500D01*
X145558097Y-121400500D01*
X145558102Y-121400500D01*
X145646564Y-121389877D01*
X145787342Y-121334361D01*
X145907922Y-121242922D01*
X145907924Y-121242920D01*
X145912319Y-121238526D01*
X145973642Y-121205041D01*
X146043334Y-121210025D01*
X146087681Y-121238526D01*
X146092075Y-121242920D01*
X146212656Y-121334360D01*
X146212657Y-121334360D01*
X146212658Y-121334361D01*
X146353436Y-121389877D01*
X146441898Y-121400500D01*
X146441903Y-121400500D01*
X146828097Y-121400500D01*
X146828102Y-121400500D01*
X146916564Y-121389877D01*
X147057342Y-121334361D01*
X147177922Y-121242922D01*
X147177924Y-121242920D01*
X147182319Y-121238526D01*
X147243642Y-121205041D01*
X147313334Y-121210025D01*
X147357681Y-121238526D01*
X147362075Y-121242920D01*
X147482656Y-121334360D01*
X147482657Y-121334360D01*
X147482658Y-121334361D01*
X147623436Y-121389877D01*
X147711898Y-121400500D01*
X147711903Y-121400500D01*
X148098097Y-121400500D01*
X148098102Y-121400500D01*
X148186564Y-121389877D01*
X148327342Y-121334361D01*
X148447922Y-121242922D01*
X148447924Y-121242920D01*
X148452319Y-121238526D01*
X148513642Y-121205041D01*
X148583334Y-121210025D01*
X148627681Y-121238526D01*
X148632075Y-121242920D01*
X148752656Y-121334360D01*
X148752657Y-121334360D01*
X148752658Y-121334361D01*
X148893436Y-121389877D01*
X148981898Y-121400500D01*
X148981903Y-121400500D01*
X149368097Y-121400500D01*
X149368102Y-121400500D01*
X149456564Y-121389877D01*
X149597342Y-121334361D01*
X149717922Y-121242922D01*
X149717924Y-121242920D01*
X149722319Y-121238526D01*
X149783642Y-121205041D01*
X149853334Y-121210025D01*
X149897681Y-121238526D01*
X149902075Y-121242920D01*
X150022656Y-121334360D01*
X150022657Y-121334360D01*
X150022658Y-121334361D01*
X150163436Y-121389877D01*
X150251898Y-121400500D01*
X150251903Y-121400500D01*
X150638097Y-121400500D01*
X150638102Y-121400500D01*
X150726564Y-121389877D01*
X150867342Y-121334361D01*
X150987922Y-121242922D01*
X151079361Y-121122342D01*
X151134877Y-120981564D01*
X151145500Y-120893102D01*
X151145500Y-119106898D01*
X151134877Y-119018436D01*
X151079361Y-118877658D01*
X151079360Y-118877657D01*
X151079360Y-118877656D01*
X150987925Y-118757082D01*
X150987922Y-118757078D01*
X150987917Y-118757074D01*
X150981928Y-118751085D01*
X150984462Y-118748550D01*
X150952895Y-118705501D01*
X150945500Y-118663319D01*
X150945500Y-118131875D01*
X150965185Y-118064836D01*
X150981819Y-118044194D01*
X151264194Y-117761819D01*
X151325517Y-117728334D01*
X151351875Y-117725500D01*
X178910890Y-117725500D01*
X178910892Y-117725500D01*
X179038186Y-117691392D01*
X179152314Y-117625500D01*
X182032300Y-114745512D01*
X182093621Y-114712029D01*
X182163313Y-114717013D01*
X182164565Y-114717489D01*
X182170060Y-114719618D01*
X182388757Y-114760500D01*
X182388759Y-114760500D01*
X182611241Y-114760500D01*
X182611243Y-114760500D01*
X182829940Y-114719618D01*
X183037401Y-114639247D01*
X183226562Y-114522124D01*
X183390981Y-114372236D01*
X183525058Y-114194689D01*
X183564501Y-114115476D01*
X183612002Y-114064242D01*
X183679665Y-114046820D01*
X183746005Y-114068745D01*
X183789961Y-114123056D01*
X183799500Y-114170749D01*
X183799500Y-114341517D01*
X183814354Y-114435304D01*
X183835985Y-114477756D01*
X183849500Y-114534051D01*
X183849500Y-115282085D01*
X183829815Y-115349124D01*
X183813181Y-115369766D01*
X168369766Y-130813181D01*
X168308443Y-130846666D01*
X168282085Y-130849500D01*
X158503139Y-130849500D01*
X158436100Y-130829815D01*
X158390345Y-130777011D01*
X158380401Y-130707853D01*
X158409426Y-130644297D01*
X158458346Y-130609873D01*
X158489417Y-130597836D01*
X158537401Y-130579247D01*
X158726562Y-130462124D01*
X158888414Y-130314576D01*
X158890979Y-130312238D01*
X158891627Y-130311381D01*
X159025058Y-130134689D01*
X159124229Y-129935528D01*
X159185115Y-129721536D01*
X159205643Y-129500000D01*
X159185115Y-129278464D01*
X159124229Y-129064472D01*
X159124224Y-129064461D01*
X159025061Y-128865316D01*
X159025056Y-128865308D01*
X158890979Y-128687761D01*
X158726562Y-128537876D01*
X158726560Y-128537874D01*
X158537404Y-128420754D01*
X158537398Y-128420752D01*
X158329940Y-128340382D01*
X158111243Y-128299500D01*
X157888757Y-128299500D01*
X157888753Y-128299500D01*
X157844056Y-128307855D01*
X157774542Y-128300823D01*
X157733593Y-128273647D01*
X156146319Y-126686373D01*
X156112834Y-126625050D01*
X156110000Y-126598692D01*
X156110000Y-125835034D01*
X156129685Y-125767995D01*
X156146319Y-125747353D01*
X157786773Y-124106898D01*
X159530299Y-122363370D01*
X159591620Y-122329887D01*
X159661312Y-122334871D01*
X159662768Y-122335424D01*
X159703802Y-122351321D01*
X159913390Y-122390500D01*
X159913392Y-122390500D01*
X160126608Y-122390500D01*
X160126610Y-122390500D01*
X160336198Y-122351321D01*
X160535019Y-122274298D01*
X160716302Y-122162052D01*
X160873872Y-122018407D01*
X161002366Y-121848255D01*
X161097405Y-121657389D01*
X161155756Y-121452310D01*
X161175429Y-121240000D01*
X161175292Y-121238526D01*
X161172190Y-121205041D01*
X161155756Y-121027690D01*
X161097405Y-120822611D01*
X161097403Y-120822606D01*
X161097403Y-120822605D01*
X161002367Y-120631746D01*
X160873872Y-120461593D01*
X160716302Y-120317948D01*
X160535019Y-120205702D01*
X160535017Y-120205701D01*
X160435608Y-120167190D01*
X160336198Y-120128679D01*
X160126610Y-120089500D01*
X159913390Y-120089500D01*
X159703802Y-120128679D01*
X159703799Y-120128679D01*
X159703799Y-120128680D01*
X159504982Y-120205701D01*
X159504980Y-120205702D01*
X159323699Y-120317947D01*
X159166127Y-120461593D01*
X159037632Y-120631746D01*
X158942596Y-120822605D01*
X158942596Y-120822607D01*
X158884244Y-121027689D01*
X158864571Y-121239999D01*
X158864571Y-121240000D01*
X158884244Y-121452311D01*
X158901907Y-121514389D01*
X158901321Y-121584256D01*
X158870322Y-121636004D01*
X156162647Y-124343681D01*
X156101324Y-124377166D01*
X156074966Y-124380000D01*
X151269500Y-124380000D01*
X151202461Y-124360315D01*
X151156706Y-124307511D01*
X151145500Y-124256000D01*
X151145500Y-124114500D01*
X151165185Y-124047461D01*
X151217989Y-124001706D01*
X151269500Y-123990500D01*
X152944574Y-123990500D01*
X152944576Y-123990500D01*
X153069326Y-123957074D01*
X153181174Y-123892498D01*
X154693546Y-122380124D01*
X154754867Y-122346641D01*
X154817883Y-122351147D01*
X154818281Y-122349751D01*
X154823790Y-122351318D01*
X154823798Y-122351319D01*
X154823802Y-122351321D01*
X155033390Y-122390500D01*
X155033392Y-122390500D01*
X155246608Y-122390500D01*
X155246610Y-122390500D01*
X155456198Y-122351321D01*
X155655019Y-122274298D01*
X155836302Y-122162052D01*
X155993872Y-122018407D01*
X156122366Y-121848255D01*
X156217405Y-121657389D01*
X156275756Y-121452310D01*
X156295429Y-121240000D01*
X156295292Y-121238526D01*
X156292190Y-121205041D01*
X156275756Y-121027690D01*
X156217405Y-120822611D01*
X156217403Y-120822606D01*
X156217403Y-120822605D01*
X156122367Y-120631746D01*
X155993872Y-120461593D01*
X155836302Y-120317948D01*
X155655019Y-120205702D01*
X155655017Y-120205701D01*
X155555608Y-120167190D01*
X155456198Y-120128679D01*
X155246610Y-120089500D01*
X155033390Y-120089500D01*
X154823802Y-120128679D01*
X154823799Y-120128679D01*
X154823799Y-120128680D01*
X154624982Y-120205701D01*
X154624980Y-120205702D01*
X154443699Y-120317947D01*
X154286127Y-120461593D01*
X154157632Y-120631746D01*
X154062596Y-120822605D01*
X154062596Y-120822607D01*
X154004244Y-121027689D01*
X153984571Y-121239999D01*
X153984571Y-121240000D01*
X154004244Y-121452312D01*
X154035197Y-121561099D01*
X154034611Y-121630966D01*
X154003612Y-121682714D01*
X152713147Y-122973181D01*
X152651824Y-123006666D01*
X152625466Y-123009500D01*
X149739577Y-123009500D01*
X149610425Y-123009500D01*
X149568841Y-123020642D01*
X149485672Y-123042926D01*
X149373827Y-123107502D01*
X149373824Y-123107504D01*
X148874953Y-123606375D01*
X148832763Y-123634048D01*
X148752658Y-123665638D01*
X148632075Y-123757079D01*
X148627681Y-123761474D01*
X148566358Y-123794959D01*
X148496666Y-123789975D01*
X148452319Y-123761474D01*
X148447924Y-123757079D01*
X148327343Y-123665639D01*
X148186561Y-123610122D01*
X148140926Y-123604642D01*
X148098102Y-123599500D01*
X147711898Y-123599500D01*
X147672853Y-123604188D01*
X147623438Y-123610122D01*
X147482656Y-123665639D01*
X147362075Y-123757079D01*
X147357681Y-123761474D01*
X147296358Y-123794959D01*
X147226666Y-123789975D01*
X147182319Y-123761474D01*
X147177924Y-123757079D01*
X147057343Y-123665639D01*
X146916561Y-123610122D01*
X146870926Y-123604642D01*
X146828102Y-123599500D01*
X146441898Y-123599500D01*
X146402853Y-123604188D01*
X146353438Y-123610122D01*
X146212656Y-123665639D01*
X146092077Y-123757077D01*
X146000639Y-123877656D01*
X145945122Y-124018438D01*
X145939188Y-124067853D01*
X145934500Y-124106898D01*
X145934500Y-125893102D01*
X145939282Y-125932923D01*
X145945122Y-125981563D01*
X145960585Y-126020774D01*
X145975854Y-126059492D01*
X145984500Y-126104981D01*
X145984500Y-126249069D01*
X145984500Y-126249071D01*
X145984499Y-126249071D01*
X146009497Y-126374738D01*
X146009499Y-126374744D01*
X146020167Y-126400500D01*
X146058535Y-126493127D01*
X146129723Y-126599669D01*
X146129726Y-126599673D01*
X146129727Y-126599674D01*
X147679922Y-128149868D01*
X147713407Y-128211191D01*
X147708423Y-128280883D01*
X147666551Y-128336816D01*
X147637035Y-128353176D01*
X147462601Y-128420751D01*
X147462595Y-128420754D01*
X147273439Y-128537874D01*
X147273437Y-128537876D01*
X147109025Y-128687757D01*
X147109019Y-128687763D01*
X147065252Y-128745720D01*
X147009143Y-128787355D01*
X146939431Y-128792046D01*
X146878618Y-128758673D01*
X144781819Y-126661873D01*
X144748334Y-126600550D01*
X144745500Y-126574192D01*
X144745500Y-126104981D01*
X144754145Y-126059492D01*
X144784877Y-125981564D01*
X144795500Y-125893102D01*
X144795500Y-124106898D01*
X144784877Y-124018436D01*
X144729361Y-123877658D01*
X144729360Y-123877657D01*
X144729360Y-123877656D01*
X144637922Y-123757077D01*
X144517343Y-123665639D01*
X144376561Y-123610122D01*
X144330926Y-123604642D01*
X144288102Y-123599500D01*
X143901898Y-123599500D01*
X143862853Y-123604188D01*
X143813438Y-123610122D01*
X143672656Y-123665639D01*
X143552075Y-123757079D01*
X143547681Y-123761474D01*
X143486358Y-123794959D01*
X143416666Y-123789975D01*
X143372319Y-123761474D01*
X143367924Y-123757079D01*
X143247343Y-123665639D01*
X143106561Y-123610122D01*
X143060926Y-123604642D01*
X143018102Y-123599500D01*
X142631898Y-123599500D01*
X142592853Y-123604188D01*
X142543438Y-123610122D01*
X142402656Y-123665639D01*
X142282075Y-123757079D01*
X142277681Y-123761474D01*
X142216358Y-123794959D01*
X142146666Y-123789975D01*
X142102319Y-123761474D01*
X142097924Y-123757079D01*
X141977343Y-123665639D01*
X141836561Y-123610122D01*
X141790926Y-123604642D01*
X141748102Y-123599500D01*
X141361898Y-123599500D01*
X141322853Y-123604188D01*
X141273438Y-123610122D01*
X141132656Y-123665639D01*
X141012077Y-123757077D01*
X140920639Y-123877656D01*
X140865122Y-124018438D01*
X140859188Y-124067853D01*
X140854500Y-124106898D01*
X140854500Y-125893102D01*
X140860126Y-125939954D01*
X140865122Y-125981561D01*
X140920639Y-126122343D01*
X141012077Y-126242922D01*
X141099319Y-126309079D01*
X141132655Y-126334359D01*
X141137051Y-126337692D01*
X141178574Y-126393884D01*
X141183126Y-126463606D01*
X141149807Y-126524177D01*
X140094005Y-127579981D01*
X140032682Y-127613466D01*
X140006324Y-127616300D01*
X139461633Y-127616300D01*
X139394594Y-127596615D01*
X139348839Y-127543811D01*
X139345691Y-127536271D01*
X139338433Y-127517133D01*
X139330220Y-127495477D01*
X139240483Y-127365470D01*
X139122240Y-127260717D01*
X139122238Y-127260716D01*
X139122237Y-127260715D01*
X138982365Y-127187303D01*
X138828986Y-127149500D01*
X138828985Y-127149500D01*
X138671015Y-127149500D01*
X138671014Y-127149500D01*
X138517634Y-127187303D01*
X138377762Y-127260715D01*
X138259516Y-127365471D01*
X138169781Y-127495475D01*
X138169780Y-127495476D01*
X138113762Y-127643181D01*
X138094722Y-127799999D01*
X138094722Y-127800000D01*
X138113763Y-127956818D01*
X138148799Y-128049202D01*
X138154166Y-128118866D01*
X138121018Y-128180372D01*
X138076191Y-128209355D01*
X138013221Y-128232842D01*
X137943530Y-128237826D01*
X137924397Y-128232014D01*
X137881565Y-128215123D01*
X137866820Y-128213352D01*
X137793102Y-128204500D01*
X137406898Y-128204500D01*
X137367853Y-128209188D01*
X137318438Y-128215122D01*
X137177656Y-128270639D01*
X137057077Y-128362077D01*
X136965639Y-128482656D01*
X136910122Y-128623438D01*
X136907397Y-128646137D01*
X136899500Y-128711898D01*
X136899500Y-128711903D01*
X136899500Y-129798100D01*
X136902279Y-129821249D01*
X136890726Y-129890157D01*
X136843752Y-129941879D01*
X136841164Y-129943415D01*
X136787341Y-129974490D01*
X136787333Y-129974496D01*
X136689496Y-130072333D01*
X136689492Y-130072338D01*
X136620313Y-130192161D01*
X136620312Y-130192164D01*
X136584500Y-130325817D01*
X136584500Y-130464183D01*
X136610799Y-130562330D01*
X136620312Y-130597835D01*
X136620313Y-130597838D01*
X136689492Y-130717661D01*
X136689494Y-130717664D01*
X136689495Y-130717665D01*
X136787335Y-130815505D01*
X136787336Y-130815506D01*
X136787338Y-130815507D01*
X136821226Y-130835072D01*
X136907164Y-130884688D01*
X137040817Y-130920500D01*
X137040819Y-130920500D01*
X137179181Y-130920500D01*
X137179183Y-130920500D01*
X137312836Y-130884688D01*
X137432665Y-130815505D01*
X137494642Y-130753528D01*
X137555965Y-130720043D01*
X137625657Y-130725027D01*
X137670004Y-130753528D01*
X138356986Y-131440510D01*
X138482516Y-131512984D01*
X138622526Y-131550500D01*
X138622529Y-131550500D01*
X141402878Y-131550500D01*
X141402880Y-131550500D01*
X141402881Y-131550500D01*
X141542891Y-131512984D01*
X141668421Y-131440510D01*
X142342699Y-130766230D01*
X142404022Y-130732746D01*
X142473713Y-130737730D01*
X142518061Y-130766231D01*
X142567335Y-130815505D01*
X142567336Y-130815506D01*
X142567338Y-130815507D01*
X142601226Y-130835072D01*
X142687164Y-130884688D01*
X142820817Y-130920500D01*
X142820819Y-130920500D01*
X142959181Y-130920500D01*
X142959183Y-130920500D01*
X143092836Y-130884688D01*
X143212665Y-130815505D01*
X143310505Y-130717665D01*
X143379688Y-130597836D01*
X143415500Y-130464183D01*
X143415500Y-130325817D01*
X143379688Y-130192164D01*
X143312890Y-130076466D01*
X143310507Y-130072338D01*
X143310503Y-130072333D01*
X143212664Y-129974494D01*
X143158835Y-129943416D01*
X143110620Y-129892849D01*
X143097398Y-129824241D01*
X143097721Y-129821244D01*
X143100500Y-129798102D01*
X143100500Y-128870807D01*
X143120185Y-128803768D01*
X143136815Y-128783130D01*
X144012319Y-127907625D01*
X144073642Y-127874141D01*
X144143334Y-127879125D01*
X144187681Y-127907626D01*
X146194724Y-129914669D01*
X146254545Y-129974490D01*
X146285332Y-130005277D01*
X146391866Y-130076461D01*
X146391872Y-130076464D01*
X146391873Y-130076465D01*
X146510256Y-130125501D01*
X146510260Y-130125501D01*
X146510261Y-130125502D01*
X146635928Y-130150500D01*
X146635931Y-130150500D01*
X146925137Y-130150500D01*
X146992176Y-130170185D01*
X147024091Y-130199773D01*
X147108373Y-130311381D01*
X147109021Y-130312238D01*
X147109025Y-130312242D01*
X147273437Y-130462123D01*
X147273439Y-130462125D01*
X147423045Y-130554756D01*
X147445449Y-130572502D01*
X149619321Y-132746374D01*
X149619335Y-132746389D01*
X149622446Y-132749500D01*
X149622447Y-132749501D01*
X149750499Y-132877553D01*
X149750502Y-132877555D01*
X149750506Y-132877559D01*
X149883364Y-132974084D01*
X149897006Y-132983996D01*
X150002484Y-133037740D01*
X150058360Y-133066211D01*
X150058363Y-133066212D01*
X150144476Y-133094191D01*
X150230591Y-133122171D01*
X150409454Y-133150501D01*
X150409455Y-133150501D01*
X150595658Y-133150501D01*
X150595682Y-133150500D01*
X168714319Y-133150500D01*
X168714343Y-133150501D01*
X168719454Y-133150501D01*
X168900545Y-133150501D01*
X168900546Y-133150501D01*
X169079409Y-133122171D01*
X169251639Y-133066211D01*
X169412994Y-132983996D01*
X169559501Y-132877553D01*
X169687553Y-132749501D01*
X169687554Y-132749499D01*
X169694614Y-132742439D01*
X169694620Y-132742431D01*
X185744518Y-116692532D01*
X185744537Y-116692516D01*
X185749498Y-116687554D01*
X185749501Y-116687553D01*
X185877553Y-116559501D01*
X185983996Y-116412994D01*
X186066211Y-116251639D01*
X186066820Y-116249767D01*
X186096276Y-116159109D01*
X186096276Y-116159108D01*
X186107637Y-116124142D01*
X186122172Y-116079409D01*
X186134762Y-115999914D01*
X186150501Y-115900551D01*
X186150501Y-115715052D01*
X186150500Y-115715037D01*
X186150500Y-114534051D01*
X186164015Y-114477756D01*
X186185646Y-114435304D01*
X186185646Y-114435302D01*
X186185647Y-114435301D01*
X186200499Y-114341524D01*
X186200500Y-114341519D01*
X186200499Y-112778482D01*
X186185646Y-112684696D01*
X186185645Y-112684694D01*
X186185645Y-112684692D01*
X186164015Y-112642241D01*
X186150500Y-112585947D01*
X186150500Y-110995681D01*
X186150501Y-110995656D01*
X186150501Y-110809454D01*
X186150501Y-110809453D01*
X186122171Y-110630591D01*
X186066211Y-110458361D01*
X186066211Y-110458360D01*
X186037740Y-110402484D01*
X185983996Y-110297006D01*
X185974084Y-110283364D01*
X185877559Y-110150506D01*
X185877555Y-110150502D01*
X185877553Y-110150499D01*
X185749501Y-110022447D01*
X185749500Y-110022446D01*
X185746389Y-110019335D01*
X185746374Y-110019321D01*
X182921893Y-107194840D01*
X182921884Y-107194830D01*
X182917553Y-107190499D01*
X182789501Y-107062447D01*
X182789497Y-107062444D01*
X182789493Y-107062440D01*
X182642997Y-106956006D01*
X182642996Y-106956005D01*
X182642994Y-106956004D01*
X182591300Y-106929664D01*
X182481639Y-106873788D01*
X182481633Y-106873786D01*
X182309410Y-106817829D01*
X182309353Y-106817819D01*
X182153404Y-106793119D01*
X182130546Y-106789499D01*
X181949454Y-106789499D01*
X181944343Y-106789499D01*
X181944319Y-106789500D01*
X170662365Y-106789500D01*
X170621206Y-106781805D01*
X170621165Y-106781951D01*
X170619599Y-106781505D01*
X170617571Y-106781126D01*
X170615650Y-106780382D01*
X170396953Y-106739500D01*
X170174467Y-106739500D01*
X170028669Y-106766754D01*
X169955769Y-106780382D01*
X169954990Y-106780684D01*
X169953848Y-106781126D01*
X169951820Y-106781505D01*
X169950255Y-106781951D01*
X169950213Y-106781805D01*
X169909055Y-106789500D01*
X162695681Y-106789500D01*
X162695657Y-106789499D01*
X162690546Y-106789499D01*
X162509454Y-106789499D01*
X162504343Y-106789499D01*
X162504319Y-106789500D01*
X148233795Y-106789500D01*
X148192636Y-106781805D01*
X148192595Y-106781951D01*
X148191029Y-106781505D01*
X148189001Y-106781126D01*
X148187080Y-106780382D01*
X147968383Y-106739500D01*
X147745897Y-106739500D01*
X147600099Y-106766754D01*
X147527199Y-106780382D01*
X147526420Y-106780684D01*
X147525278Y-106781126D01*
X147523250Y-106781505D01*
X147521685Y-106781951D01*
X147521643Y-106781805D01*
X147480485Y-106789500D01*
X140295682Y-106789500D01*
X140295658Y-106789499D01*
X140290547Y-106789499D01*
X140109454Y-106789499D01*
X140104343Y-106789499D01*
X140104319Y-106789500D01*
X125805225Y-106789500D01*
X125764066Y-106781805D01*
X125764025Y-106781951D01*
X125762459Y-106781505D01*
X125760431Y-106781126D01*
X125758510Y-106780382D01*
X125539813Y-106739500D01*
X125317327Y-106739500D01*
X125171529Y-106766754D01*
X125098629Y-106780382D01*
X125097850Y-106780684D01*
X125096708Y-106781126D01*
X125094680Y-106781505D01*
X125093115Y-106781951D01*
X125093073Y-106781805D01*
X125051915Y-106789500D01*
X117895681Y-106789500D01*
X117895657Y-106789499D01*
X117890546Y-106789499D01*
X117709453Y-106789499D01*
X117704342Y-106789499D01*
X117704318Y-106789500D01*
X103376655Y-106789500D01*
X103335496Y-106781805D01*
X103335455Y-106781951D01*
X103333889Y-106781505D01*
X103331861Y-106781126D01*
X103329940Y-106780382D01*
X103111243Y-106739500D01*
X102888757Y-106739500D01*
X102670060Y-106780382D01*
X102538864Y-106831207D01*
X102462601Y-106860752D01*
X102462595Y-106860754D01*
X102273439Y-106977874D01*
X102273437Y-106977876D01*
X102109020Y-107127761D01*
X101974943Y-107305308D01*
X101974938Y-107305316D01*
X101875775Y-107504461D01*
X101875769Y-107504476D01*
X101814885Y-107718462D01*
X101814884Y-107718464D01*
X101794357Y-107939999D01*
X100200500Y-107939999D01*
X100200500Y-103003480D01*
X100200695Y-102996527D01*
X100202740Y-102960118D01*
X100217713Y-102693494D01*
X100219267Y-102679700D01*
X100269523Y-102383915D01*
X100272616Y-102370363D01*
X100330193Y-102170513D01*
X100355673Y-102082068D01*
X100360265Y-102068948D01*
X100450347Y-101851469D01*
X100475075Y-101791768D01*
X100481097Y-101779262D01*
X100626230Y-101516665D01*
X100633625Y-101504897D01*
X100807245Y-101260201D01*
X100815896Y-101249354D01*
X101015816Y-101025645D01*
X101025647Y-101015815D01*
X101249354Y-100815896D01*
X101260201Y-100807245D01*
X101504902Y-100633621D01*
X101516665Y-100626230D01*
X101779262Y-100481097D01*
X101791768Y-100475075D01*
X102068948Y-100360265D01*
X102082068Y-100355673D01*
X102370369Y-100272614D01*
X102383915Y-100269523D01*
X102679700Y-100219267D01*
X102693494Y-100217713D01*
X102996528Y-100200695D01*
X103003481Y-100200500D01*
X103039882Y-100200500D01*
X186960118Y-100200500D01*
X186996519Y-100200500D01*
X187003472Y-100200695D01*
G37*
%TD.AperFunction*%
%TD*%
M02*
