G04 Layer: TopSilkscreenLayer*
G04 EasyEDA Pro v2.2.27.1, 2024-09-15 10:59:50*
G04 Gerber Generator version 0.3*
G04 Scale: 100 percent, Rotated: No, Reflected: No*
G04 Dimensions in millimeters*
G04 Leading zeros omitted, absolute positions, 3 integers and 5 decimals*
%TF.GenerationSoftware,KiCad,Pcbnew,8.0.5*%
%TF.CreationDate,2024-10-25T21:21:59+08:00*%
%TF.ProjectId,USB_HUB_SL2_1A,5553425f-4855-4425-9f53-4c325f31412e,rev?*%
%TF.SameCoordinates,Original*%
%TF.FileFunction,Legend,Top*%
%TF.FilePolarity,Positive*%
%FSLAX46Y46*%
G04 Gerber Fmt 4.6, Leading zero omitted, Abs format (unit mm)*
G04 Created by KiCad (PCBNEW 8.0.5) date 2024-10-25 21:21:59*
%MOMM*%
%LPD*%
G01*
G04 APERTURE LIST*
%ADD10C,0.150000*%
%ADD11C,0.120000*%
G04 APERTURE END LIST*
D10*
X108041541Y-123897550D02*
X109184398Y-123897550D01*
X108327255Y-124040407D02*
X108946303Y-124040407D01*
X108327255Y-124230883D02*
X108946303Y-124230883D01*
X107993922Y-124373740D02*
X109232017Y-124373740D01*
X108279636Y-124611835D02*
X108946303Y-124611835D01*
X108089160Y-124849931D02*
X109136779Y-124849931D01*
X108612969Y-124468978D02*
X108612969Y-124849931D01*
X108327255Y-123707073D02*
X108327255Y-124373740D01*
X108327255Y-124373740D02*
X108089160Y-124659454D01*
X108946303Y-123707073D02*
X108946303Y-124373740D01*
X108946303Y-124373740D02*
X109041541Y-124564216D01*
X109041541Y-124564216D02*
X109279636Y-124659454D01*
X109565350Y-123849931D02*
X110612969Y-123849931D01*
X109470112Y-124278502D02*
X110708207Y-124278502D01*
X109803445Y-124849931D02*
X110089159Y-124849931D01*
X110089159Y-123849931D02*
X110089159Y-124849931D01*
X111041540Y-124802312D02*
X111184397Y-124849931D01*
X111184397Y-124849931D02*
X111422492Y-124849931D01*
X111422492Y-124849931D02*
X111517730Y-124802312D01*
X111517730Y-124802312D02*
X111565349Y-124754692D01*
X111565349Y-124754692D02*
X111612968Y-124659454D01*
X111612968Y-124659454D02*
X111612968Y-124564216D01*
X111612968Y-124564216D02*
X111565349Y-124468978D01*
X111565349Y-124468978D02*
X111517730Y-124421359D01*
X111517730Y-124421359D02*
X111422492Y-124373740D01*
X111422492Y-124373740D02*
X111232016Y-124326121D01*
X111232016Y-124326121D02*
X111136778Y-124278502D01*
X111136778Y-124278502D02*
X111089159Y-124230883D01*
X111089159Y-124230883D02*
X111041540Y-124135645D01*
X111041540Y-124135645D02*
X111041540Y-124040407D01*
X111041540Y-124040407D02*
X111089159Y-123945169D01*
X111089159Y-123945169D02*
X111136778Y-123897550D01*
X111136778Y-123897550D02*
X111232016Y-123849931D01*
X111232016Y-123849931D02*
X111470111Y-123849931D01*
X111470111Y-123849931D02*
X111612968Y-123897550D01*
X112517730Y-124849931D02*
X112041540Y-124849931D01*
X112041540Y-124849931D02*
X112041540Y-123849931D01*
X112803445Y-123945169D02*
X112851064Y-123897550D01*
X112851064Y-123897550D02*
X112946302Y-123849931D01*
X112946302Y-123849931D02*
X113184397Y-123849931D01*
X113184397Y-123849931D02*
X113279635Y-123897550D01*
X113279635Y-123897550D02*
X113327254Y-123945169D01*
X113327254Y-123945169D02*
X113374873Y-124040407D01*
X113374873Y-124040407D02*
X113374873Y-124135645D01*
X113374873Y-124135645D02*
X113327254Y-124278502D01*
X113327254Y-124278502D02*
X112755826Y-124849931D01*
X112755826Y-124849931D02*
X113374873Y-124849931D01*
X113803445Y-124754692D02*
X113851064Y-124802312D01*
X113851064Y-124802312D02*
X113803445Y-124849931D01*
X113803445Y-124849931D02*
X113755826Y-124802312D01*
X113755826Y-124802312D02*
X113803445Y-124754692D01*
X113803445Y-124754692D02*
X113803445Y-124849931D01*
X114470111Y-123849931D02*
X114565349Y-123849931D01*
X114565349Y-123849931D02*
X114660587Y-123897550D01*
X114660587Y-123897550D02*
X114708206Y-123945169D01*
X114708206Y-123945169D02*
X114755825Y-124040407D01*
X114755825Y-124040407D02*
X114803444Y-124230883D01*
X114803444Y-124230883D02*
X114803444Y-124468978D01*
X114803444Y-124468978D02*
X114755825Y-124659454D01*
X114755825Y-124659454D02*
X114708206Y-124754692D01*
X114708206Y-124754692D02*
X114660587Y-124802312D01*
X114660587Y-124802312D02*
X114565349Y-124849931D01*
X114565349Y-124849931D02*
X114470111Y-124849931D01*
X114470111Y-124849931D02*
X114374873Y-124802312D01*
X114374873Y-124802312D02*
X114327254Y-124754692D01*
X114327254Y-124754692D02*
X114279635Y-124659454D01*
X114279635Y-124659454D02*
X114232016Y-124468978D01*
X114232016Y-124468978D02*
X114232016Y-124230883D01*
X114232016Y-124230883D02*
X114279635Y-124040407D01*
X114279635Y-124040407D02*
X114327254Y-123945169D01*
X114327254Y-123945169D02*
X114374873Y-123897550D01*
X114374873Y-123897550D02*
X114470111Y-123849931D01*
X115184397Y-124564216D02*
X115660587Y-124564216D01*
X115089159Y-124849931D02*
X115422492Y-123849931D01*
X115422492Y-123849931D02*
X115755825Y-124849931D01*
X115946302Y-124326121D02*
X116422492Y-124326121D01*
X115946302Y-124754692D02*
X116422492Y-124754692D01*
X116803444Y-124849931D02*
X117089159Y-124849931D01*
X115946302Y-123945169D02*
X115946302Y-124849931D01*
X115946302Y-123945169D02*
X116422492Y-123945169D01*
X116422492Y-123945169D02*
X116422492Y-124754692D01*
X116708206Y-124230883D02*
X116946302Y-124516597D01*
X116184397Y-123707073D02*
X116089159Y-123945169D01*
X116755825Y-123707073D02*
X116517730Y-124183264D01*
X116660587Y-123945169D02*
X117184397Y-123945169D01*
X117184397Y-123945169D02*
X117184397Y-124421359D01*
X117184397Y-124421359D02*
X117089159Y-124849931D01*
X117565349Y-123849931D02*
X117565349Y-124659454D01*
X117565349Y-124659454D02*
X117612968Y-124754692D01*
X117612968Y-124754692D02*
X117660587Y-124802312D01*
X117660587Y-124802312D02*
X117755825Y-124849931D01*
X117755825Y-124849931D02*
X117946301Y-124849931D01*
X117946301Y-124849931D02*
X118041539Y-124802312D01*
X118041539Y-124802312D02*
X118089158Y-124754692D01*
X118089158Y-124754692D02*
X118136777Y-124659454D01*
X118136777Y-124659454D02*
X118136777Y-123849931D01*
X118565349Y-124802312D02*
X118708206Y-124849931D01*
X118708206Y-124849931D02*
X118946301Y-124849931D01*
X118946301Y-124849931D02*
X119041539Y-124802312D01*
X119041539Y-124802312D02*
X119089158Y-124754692D01*
X119089158Y-124754692D02*
X119136777Y-124659454D01*
X119136777Y-124659454D02*
X119136777Y-124564216D01*
X119136777Y-124564216D02*
X119089158Y-124468978D01*
X119089158Y-124468978D02*
X119041539Y-124421359D01*
X119041539Y-124421359D02*
X118946301Y-124373740D01*
X118946301Y-124373740D02*
X118755825Y-124326121D01*
X118755825Y-124326121D02*
X118660587Y-124278502D01*
X118660587Y-124278502D02*
X118612968Y-124230883D01*
X118612968Y-124230883D02*
X118565349Y-124135645D01*
X118565349Y-124135645D02*
X118565349Y-124040407D01*
X118565349Y-124040407D02*
X118612968Y-123945169D01*
X118612968Y-123945169D02*
X118660587Y-123897550D01*
X118660587Y-123897550D02*
X118755825Y-123849931D01*
X118755825Y-123849931D02*
X118993920Y-123849931D01*
X118993920Y-123849931D02*
X119136777Y-123897550D01*
X119898682Y-124326121D02*
X120041539Y-124373740D01*
X120041539Y-124373740D02*
X120089158Y-124421359D01*
X120089158Y-124421359D02*
X120136777Y-124516597D01*
X120136777Y-124516597D02*
X120136777Y-124659454D01*
X120136777Y-124659454D02*
X120089158Y-124754692D01*
X120089158Y-124754692D02*
X120041539Y-124802312D01*
X120041539Y-124802312D02*
X119946301Y-124849931D01*
X119946301Y-124849931D02*
X119565349Y-124849931D01*
X119565349Y-124849931D02*
X119565349Y-123849931D01*
X119565349Y-123849931D02*
X119898682Y-123849931D01*
X119898682Y-123849931D02*
X119993920Y-123897550D01*
X119993920Y-123897550D02*
X120041539Y-123945169D01*
X120041539Y-123945169D02*
X120089158Y-124040407D01*
X120089158Y-124040407D02*
X120089158Y-124135645D01*
X120089158Y-124135645D02*
X120041539Y-124230883D01*
X120041539Y-124230883D02*
X119993920Y-124278502D01*
X119993920Y-124278502D02*
X119898682Y-124326121D01*
X119898682Y-124326121D02*
X119565349Y-124326121D01*
X120517730Y-123945169D02*
X120565349Y-123897550D01*
X120565349Y-123897550D02*
X120660587Y-123849931D01*
X120660587Y-123849931D02*
X120898682Y-123849931D01*
X120898682Y-123849931D02*
X120993920Y-123897550D01*
X120993920Y-123897550D02*
X121041539Y-123945169D01*
X121041539Y-123945169D02*
X121089158Y-124040407D01*
X121089158Y-124040407D02*
X121089158Y-124135645D01*
X121089158Y-124135645D02*
X121041539Y-124278502D01*
X121041539Y-124278502D02*
X120470111Y-124849931D01*
X120470111Y-124849931D02*
X121089158Y-124849931D01*
X121517730Y-124754692D02*
X121565349Y-124802312D01*
X121565349Y-124802312D02*
X121517730Y-124849931D01*
X121517730Y-124849931D02*
X121470111Y-124802312D01*
X121470111Y-124802312D02*
X121517730Y-124754692D01*
X121517730Y-124754692D02*
X121517730Y-124849931D01*
X122184396Y-123849931D02*
X122279634Y-123849931D01*
X122279634Y-123849931D02*
X122374872Y-123897550D01*
X122374872Y-123897550D02*
X122422491Y-123945169D01*
X122422491Y-123945169D02*
X122470110Y-124040407D01*
X122470110Y-124040407D02*
X122517729Y-124230883D01*
X122517729Y-124230883D02*
X122517729Y-124468978D01*
X122517729Y-124468978D02*
X122470110Y-124659454D01*
X122470110Y-124659454D02*
X122422491Y-124754692D01*
X122422491Y-124754692D02*
X122374872Y-124802312D01*
X122374872Y-124802312D02*
X122279634Y-124849931D01*
X122279634Y-124849931D02*
X122184396Y-124849931D01*
X122184396Y-124849931D02*
X122089158Y-124802312D01*
X122089158Y-124802312D02*
X122041539Y-124754692D01*
X122041539Y-124754692D02*
X121993920Y-124659454D01*
X121993920Y-124659454D02*
X121946301Y-124468978D01*
X121946301Y-124468978D02*
X121946301Y-124230883D01*
X121946301Y-124230883D02*
X121993920Y-124040407D01*
X121993920Y-124040407D02*
X122041539Y-123945169D01*
X122041539Y-123945169D02*
X122089158Y-123897550D01*
X122089158Y-123897550D02*
X122184396Y-123849931D01*
X122946301Y-124849931D02*
X122946301Y-123849931D01*
X123374872Y-124849931D02*
X123374872Y-124326121D01*
X123374872Y-124326121D02*
X123327253Y-124230883D01*
X123327253Y-124230883D02*
X123232015Y-124183264D01*
X123232015Y-124183264D02*
X123089158Y-124183264D01*
X123089158Y-124183264D02*
X122993920Y-124230883D01*
X122993920Y-124230883D02*
X122946301Y-124278502D01*
X124279634Y-124183264D02*
X124279634Y-124849931D01*
X123851063Y-124183264D02*
X123851063Y-124707073D01*
X123851063Y-124707073D02*
X123898682Y-124802312D01*
X123898682Y-124802312D02*
X123993920Y-124849931D01*
X123993920Y-124849931D02*
X124136777Y-124849931D01*
X124136777Y-124849931D02*
X124232015Y-124802312D01*
X124232015Y-124802312D02*
X124279634Y-124754692D01*
X124755825Y-124849931D02*
X124755825Y-123849931D01*
X124755825Y-124230883D02*
X124851063Y-124183264D01*
X124851063Y-124183264D02*
X125041539Y-124183264D01*
X125041539Y-124183264D02*
X125136777Y-124230883D01*
X125136777Y-124230883D02*
X125184396Y-124278502D01*
X125184396Y-124278502D02*
X125232015Y-124373740D01*
X125232015Y-124373740D02*
X125232015Y-124659454D01*
X125232015Y-124659454D02*
X125184396Y-124754692D01*
X125184396Y-124754692D02*
X125136777Y-124802312D01*
X125136777Y-124802312D02*
X125041539Y-124849931D01*
X125041539Y-124849931D02*
X124851063Y-124849931D01*
X124851063Y-124849931D02*
X124755825Y-124802312D01*
X107993922Y-125793208D02*
X108374874Y-125793208D01*
X108136779Y-125459875D02*
X108136779Y-126317017D01*
X108136779Y-126317017D02*
X108184398Y-126412256D01*
X108184398Y-126412256D02*
X108279636Y-126459875D01*
X108279636Y-126459875D02*
X108374874Y-126459875D01*
X108612970Y-125793208D02*
X108851065Y-126459875D01*
X109089160Y-125793208D02*
X108851065Y-126459875D01*
X108851065Y-126459875D02*
X108755827Y-126697970D01*
X108755827Y-126697970D02*
X108708208Y-126745589D01*
X108708208Y-126745589D02*
X108612970Y-126793208D01*
X109470113Y-125793208D02*
X109470113Y-126793208D01*
X109470113Y-125840827D02*
X109565351Y-125793208D01*
X109565351Y-125793208D02*
X109755827Y-125793208D01*
X109755827Y-125793208D02*
X109851065Y-125840827D01*
X109851065Y-125840827D02*
X109898684Y-125888446D01*
X109898684Y-125888446D02*
X109946303Y-125983684D01*
X109946303Y-125983684D02*
X109946303Y-126269398D01*
X109946303Y-126269398D02*
X109898684Y-126364636D01*
X109898684Y-126364636D02*
X109851065Y-126412256D01*
X109851065Y-126412256D02*
X109755827Y-126459875D01*
X109755827Y-126459875D02*
X109565351Y-126459875D01*
X109565351Y-126459875D02*
X109470113Y-126412256D01*
X110755827Y-126412256D02*
X110660589Y-126459875D01*
X110660589Y-126459875D02*
X110470113Y-126459875D01*
X110470113Y-126459875D02*
X110374875Y-126412256D01*
X110374875Y-126412256D02*
X110327256Y-126317017D01*
X110327256Y-126317017D02*
X110327256Y-125936065D01*
X110327256Y-125936065D02*
X110374875Y-125840827D01*
X110374875Y-125840827D02*
X110470113Y-125793208D01*
X110470113Y-125793208D02*
X110660589Y-125793208D01*
X110660589Y-125793208D02*
X110755827Y-125840827D01*
X110755827Y-125840827D02*
X110803446Y-125936065D01*
X110803446Y-125936065D02*
X110803446Y-126031303D01*
X110803446Y-126031303D02*
X110327256Y-126126541D01*
X111803446Y-126364636D02*
X111755827Y-126412256D01*
X111755827Y-126412256D02*
X111612970Y-126459875D01*
X111612970Y-126459875D02*
X111517732Y-126459875D01*
X111517732Y-126459875D02*
X111374875Y-126412256D01*
X111374875Y-126412256D02*
X111279637Y-126317017D01*
X111279637Y-126317017D02*
X111232018Y-126221779D01*
X111232018Y-126221779D02*
X111184399Y-126031303D01*
X111184399Y-126031303D02*
X111184399Y-125888446D01*
X111184399Y-125888446D02*
X111232018Y-125697970D01*
X111232018Y-125697970D02*
X111279637Y-125602732D01*
X111279637Y-125602732D02*
X111374875Y-125507494D01*
X111374875Y-125507494D02*
X111517732Y-125459875D01*
X111517732Y-125459875D02*
X111612970Y-125459875D01*
X111612970Y-125459875D02*
X111755827Y-125507494D01*
X111755827Y-125507494D02*
X111803446Y-125555113D01*
X112089161Y-126364636D02*
X113327256Y-126364636D01*
X112089161Y-125459875D02*
X112089161Y-126459875D01*
X112089161Y-125459875D02*
X113327256Y-125459875D01*
X113327256Y-125459875D02*
X113327256Y-126459875D01*
X113565351Y-125507494D02*
X114803446Y-125507494D01*
X114422493Y-126364636D02*
X114612970Y-126364636D01*
X113612970Y-125793208D02*
X113612970Y-125983684D01*
X113803446Y-125983684D02*
X113803446Y-126364636D01*
X113803446Y-125317017D02*
X113803446Y-125650351D01*
X114184398Y-125317017D02*
X114184398Y-125650351D01*
X114184398Y-125793208D02*
X114184398Y-126459875D01*
X114565351Y-125317017D02*
X114565351Y-125650351D01*
X113803446Y-125983684D02*
X114612970Y-125983684D01*
X114612970Y-125983684D02*
X114612970Y-126317017D01*
X113612970Y-125793208D02*
X114755827Y-125793208D01*
X114755827Y-125793208D02*
X114755827Y-125983684D01*
X115612969Y-125793208D02*
X115612969Y-126459875D01*
X115374874Y-125412256D02*
X115136779Y-126126541D01*
X115136779Y-126126541D02*
X115755826Y-126126541D01*
X116612969Y-125745589D02*
X116612969Y-126459875D01*
X116136779Y-125793208D02*
X115993922Y-125840827D01*
X116612969Y-125317017D02*
X116184398Y-125745589D01*
X116612969Y-125317017D02*
X116993922Y-125745589D01*
X116993922Y-125745589D02*
X117232017Y-125840827D01*
X117470112Y-125793208D02*
X117851064Y-125793208D01*
X117612969Y-125459875D02*
X117612969Y-126317017D01*
X117612969Y-126317017D02*
X117660588Y-126412256D01*
X117660588Y-126412256D02*
X117755826Y-126459875D01*
X117755826Y-126459875D02*
X117851064Y-126459875D01*
X118089160Y-125793208D02*
X118327255Y-126459875D01*
X118565350Y-125793208D02*
X118327255Y-126459875D01*
X118327255Y-126459875D02*
X118232017Y-126697970D01*
X118232017Y-126697970D02*
X118184398Y-126745589D01*
X118184398Y-126745589D02*
X118089160Y-126793208D01*
X118946303Y-125793208D02*
X118946303Y-126793208D01*
X118946303Y-125840827D02*
X119041541Y-125793208D01*
X119041541Y-125793208D02*
X119232017Y-125793208D01*
X119232017Y-125793208D02*
X119327255Y-125840827D01*
X119327255Y-125840827D02*
X119374874Y-125888446D01*
X119374874Y-125888446D02*
X119422493Y-125983684D01*
X119422493Y-125983684D02*
X119422493Y-126269398D01*
X119422493Y-126269398D02*
X119374874Y-126364636D01*
X119374874Y-126364636D02*
X119327255Y-126412256D01*
X119327255Y-126412256D02*
X119232017Y-126459875D01*
X119232017Y-126459875D02*
X119041541Y-126459875D01*
X119041541Y-126459875D02*
X118946303Y-126412256D01*
X120232017Y-126412256D02*
X120136779Y-126459875D01*
X120136779Y-126459875D02*
X119946303Y-126459875D01*
X119946303Y-126459875D02*
X119851065Y-126412256D01*
X119851065Y-126412256D02*
X119803446Y-126317017D01*
X119803446Y-126317017D02*
X119803446Y-125936065D01*
X119803446Y-125936065D02*
X119851065Y-125840827D01*
X119851065Y-125840827D02*
X119946303Y-125793208D01*
X119946303Y-125793208D02*
X120136779Y-125793208D01*
X120136779Y-125793208D02*
X120232017Y-125840827D01*
X120232017Y-125840827D02*
X120279636Y-125936065D01*
X120279636Y-125936065D02*
X120279636Y-126031303D01*
X120279636Y-126031303D02*
X119803446Y-126126541D01*
X120660589Y-126174160D02*
X121136779Y-126174160D01*
X120565351Y-126459875D02*
X120898684Y-125459875D01*
X120898684Y-125459875D02*
X121232017Y-126459875D01*
X121422494Y-126364636D02*
X122660589Y-126364636D01*
X121422494Y-125459875D02*
X121422494Y-126459875D01*
X121422494Y-125459875D02*
X122660589Y-125459875D01*
X122660589Y-125459875D02*
X122660589Y-126459875D01*
X111898683Y-127688866D02*
X112660588Y-127688866D01*
X113136778Y-127688866D02*
X113898683Y-127688866D01*
X114279635Y-127403152D02*
X114470111Y-128069819D01*
X114470111Y-128069819D02*
X114660587Y-127593628D01*
X114660587Y-127593628D02*
X114851063Y-128069819D01*
X114851063Y-128069819D02*
X115041539Y-127403152D01*
X115374873Y-128022200D02*
X115470111Y-128069819D01*
X115470111Y-128069819D02*
X115660587Y-128069819D01*
X115660587Y-128069819D02*
X115755825Y-128022200D01*
X115755825Y-128022200D02*
X115803444Y-127926961D01*
X115803444Y-127926961D02*
X115803444Y-127879342D01*
X115803444Y-127879342D02*
X115755825Y-127784104D01*
X115755825Y-127784104D02*
X115660587Y-127736485D01*
X115660587Y-127736485D02*
X115517730Y-127736485D01*
X115517730Y-127736485D02*
X115422492Y-127688866D01*
X115422492Y-127688866D02*
X115374873Y-127593628D01*
X115374873Y-127593628D02*
X115374873Y-127546009D01*
X115374873Y-127546009D02*
X115422492Y-127450771D01*
X115422492Y-127450771D02*
X115517730Y-127403152D01*
X115517730Y-127403152D02*
X115660587Y-127403152D01*
X115660587Y-127403152D02*
X115755825Y-127450771D01*
X116136778Y-127403152D02*
X116374873Y-128069819D01*
X116612968Y-127403152D02*
X116374873Y-128069819D01*
X116374873Y-128069819D02*
X116279635Y-128307914D01*
X116279635Y-128307914D02*
X116232016Y-128355533D01*
X116232016Y-128355533D02*
X116136778Y-128403152D01*
X101666670Y-115654819D02*
X101095242Y-115654819D01*
X101380956Y-115654819D02*
X101380956Y-114654819D01*
X101380956Y-114654819D02*
X101285718Y-114797676D01*
X101285718Y-114797676D02*
X101190480Y-114892914D01*
X101190480Y-114892914D02*
X101095242Y-114940533D01*
X102285718Y-114654819D02*
X102380956Y-114654819D01*
X102380956Y-114654819D02*
X102476194Y-114702438D01*
X102476194Y-114702438D02*
X102523813Y-114750057D01*
X102523813Y-114750057D02*
X102571432Y-114845295D01*
X102571432Y-114845295D02*
X102619051Y-115035771D01*
X102619051Y-115035771D02*
X102619051Y-115273866D01*
X102619051Y-115273866D02*
X102571432Y-115464342D01*
X102571432Y-115464342D02*
X102523813Y-115559580D01*
X102523813Y-115559580D02*
X102476194Y-115607200D01*
X102476194Y-115607200D02*
X102380956Y-115654819D01*
X102380956Y-115654819D02*
X102285718Y-115654819D01*
X102285718Y-115654819D02*
X102190480Y-115607200D01*
X102190480Y-115607200D02*
X102142861Y-115559580D01*
X102142861Y-115559580D02*
X102095242Y-115464342D01*
X102095242Y-115464342D02*
X102047623Y-115273866D01*
X102047623Y-115273866D02*
X102047623Y-115035771D01*
X102047623Y-115035771D02*
X102095242Y-114845295D01*
X102095242Y-114845295D02*
X102142861Y-114750057D01*
X102142861Y-114750057D02*
X102190480Y-114702438D01*
X102190480Y-114702438D02*
X102285718Y-114654819D01*
X103238099Y-114654819D02*
X103333337Y-114654819D01*
X103333337Y-114654819D02*
X103428575Y-114702438D01*
X103428575Y-114702438D02*
X103476194Y-114750057D01*
X103476194Y-114750057D02*
X103523813Y-114845295D01*
X103523813Y-114845295D02*
X103571432Y-115035771D01*
X103571432Y-115035771D02*
X103571432Y-115273866D01*
X103571432Y-115273866D02*
X103523813Y-115464342D01*
X103523813Y-115464342D02*
X103476194Y-115559580D01*
X103476194Y-115559580D02*
X103428575Y-115607200D01*
X103428575Y-115607200D02*
X103333337Y-115654819D01*
X103333337Y-115654819D02*
X103238099Y-115654819D01*
X103238099Y-115654819D02*
X103142861Y-115607200D01*
X103142861Y-115607200D02*
X103095242Y-115559580D01*
X103095242Y-115559580D02*
X103047623Y-115464342D01*
X103047623Y-115464342D02*
X103000004Y-115273866D01*
X103000004Y-115273866D02*
X103000004Y-115035771D01*
X103000004Y-115035771D02*
X103047623Y-114845295D01*
X103047623Y-114845295D02*
X103095242Y-114750057D01*
X103095242Y-114750057D02*
X103142861Y-114702438D01*
X103142861Y-114702438D02*
X103238099Y-114654819D01*
X104000004Y-114988152D02*
X104000004Y-115654819D01*
X104000004Y-115083390D02*
X104047623Y-115035771D01*
X104047623Y-115035771D02*
X104142861Y-114988152D01*
X104142861Y-114988152D02*
X104285718Y-114988152D01*
X104285718Y-114988152D02*
X104380956Y-115035771D01*
X104380956Y-115035771D02*
X104428575Y-115131009D01*
X104428575Y-115131009D02*
X104428575Y-115654819D01*
X105238099Y-115131009D02*
X104904766Y-115131009D01*
X104904766Y-115654819D02*
X104904766Y-114654819D01*
X104904766Y-114654819D02*
X105380956Y-114654819D01*
X124095240Y-115654819D02*
X123523812Y-115654819D01*
X123809526Y-115654819D02*
X123809526Y-114654819D01*
X123809526Y-114654819D02*
X123714288Y-114797676D01*
X123714288Y-114797676D02*
X123619050Y-114892914D01*
X123619050Y-114892914D02*
X123523812Y-114940533D01*
X124714288Y-114654819D02*
X124809526Y-114654819D01*
X124809526Y-114654819D02*
X124904764Y-114702438D01*
X124904764Y-114702438D02*
X124952383Y-114750057D01*
X124952383Y-114750057D02*
X125000002Y-114845295D01*
X125000002Y-114845295D02*
X125047621Y-115035771D01*
X125047621Y-115035771D02*
X125047621Y-115273866D01*
X125047621Y-115273866D02*
X125000002Y-115464342D01*
X125000002Y-115464342D02*
X124952383Y-115559580D01*
X124952383Y-115559580D02*
X124904764Y-115607200D01*
X124904764Y-115607200D02*
X124809526Y-115654819D01*
X124809526Y-115654819D02*
X124714288Y-115654819D01*
X124714288Y-115654819D02*
X124619050Y-115607200D01*
X124619050Y-115607200D02*
X124571431Y-115559580D01*
X124571431Y-115559580D02*
X124523812Y-115464342D01*
X124523812Y-115464342D02*
X124476193Y-115273866D01*
X124476193Y-115273866D02*
X124476193Y-115035771D01*
X124476193Y-115035771D02*
X124523812Y-114845295D01*
X124523812Y-114845295D02*
X124571431Y-114750057D01*
X124571431Y-114750057D02*
X124619050Y-114702438D01*
X124619050Y-114702438D02*
X124714288Y-114654819D01*
X125666669Y-114654819D02*
X125761907Y-114654819D01*
X125761907Y-114654819D02*
X125857145Y-114702438D01*
X125857145Y-114702438D02*
X125904764Y-114750057D01*
X125904764Y-114750057D02*
X125952383Y-114845295D01*
X125952383Y-114845295D02*
X126000002Y-115035771D01*
X126000002Y-115035771D02*
X126000002Y-115273866D01*
X126000002Y-115273866D02*
X125952383Y-115464342D01*
X125952383Y-115464342D02*
X125904764Y-115559580D01*
X125904764Y-115559580D02*
X125857145Y-115607200D01*
X125857145Y-115607200D02*
X125761907Y-115654819D01*
X125761907Y-115654819D02*
X125666669Y-115654819D01*
X125666669Y-115654819D02*
X125571431Y-115607200D01*
X125571431Y-115607200D02*
X125523812Y-115559580D01*
X125523812Y-115559580D02*
X125476193Y-115464342D01*
X125476193Y-115464342D02*
X125428574Y-115273866D01*
X125428574Y-115273866D02*
X125428574Y-115035771D01*
X125428574Y-115035771D02*
X125476193Y-114845295D01*
X125476193Y-114845295D02*
X125523812Y-114750057D01*
X125523812Y-114750057D02*
X125571431Y-114702438D01*
X125571431Y-114702438D02*
X125666669Y-114654819D01*
X126428574Y-114988152D02*
X126428574Y-115654819D01*
X126428574Y-115083390D02*
X126476193Y-115035771D01*
X126476193Y-115035771D02*
X126571431Y-114988152D01*
X126571431Y-114988152D02*
X126714288Y-114988152D01*
X126714288Y-114988152D02*
X126809526Y-115035771D01*
X126809526Y-115035771D02*
X126857145Y-115131009D01*
X126857145Y-115131009D02*
X126857145Y-115654819D01*
X127666669Y-115131009D02*
X127333336Y-115131009D01*
X127333336Y-115654819D02*
X127333336Y-114654819D01*
X127333336Y-114654819D02*
X127809526Y-114654819D01*
X161754819Y-133547619D02*
X161754819Y-134119047D01*
X161754819Y-133833333D02*
X160754819Y-133833333D01*
X160754819Y-133833333D02*
X160897676Y-133928571D01*
X160897676Y-133928571D02*
X160992914Y-134023809D01*
X160992914Y-134023809D02*
X161040533Y-134119047D01*
X160754819Y-132928571D02*
X160754819Y-132833333D01*
X160754819Y-132833333D02*
X160802438Y-132738095D01*
X160802438Y-132738095D02*
X160850057Y-132690476D01*
X160850057Y-132690476D02*
X160945295Y-132642857D01*
X160945295Y-132642857D02*
X161135771Y-132595238D01*
X161135771Y-132595238D02*
X161373866Y-132595238D01*
X161373866Y-132595238D02*
X161564342Y-132642857D01*
X161564342Y-132642857D02*
X161659580Y-132690476D01*
X161659580Y-132690476D02*
X161707200Y-132738095D01*
X161707200Y-132738095D02*
X161754819Y-132833333D01*
X161754819Y-132833333D02*
X161754819Y-132928571D01*
X161754819Y-132928571D02*
X161707200Y-133023809D01*
X161707200Y-133023809D02*
X161659580Y-133071428D01*
X161659580Y-133071428D02*
X161564342Y-133119047D01*
X161564342Y-133119047D02*
X161373866Y-133166666D01*
X161373866Y-133166666D02*
X161135771Y-133166666D01*
X161135771Y-133166666D02*
X160945295Y-133119047D01*
X160945295Y-133119047D02*
X160850057Y-133071428D01*
X160850057Y-133071428D02*
X160802438Y-133023809D01*
X160802438Y-133023809D02*
X160754819Y-132928571D01*
X160754819Y-131976190D02*
X160754819Y-131880952D01*
X160754819Y-131880952D02*
X160802438Y-131785714D01*
X160802438Y-131785714D02*
X160850057Y-131738095D01*
X160850057Y-131738095D02*
X160945295Y-131690476D01*
X160945295Y-131690476D02*
X161135771Y-131642857D01*
X161135771Y-131642857D02*
X161373866Y-131642857D01*
X161373866Y-131642857D02*
X161564342Y-131690476D01*
X161564342Y-131690476D02*
X161659580Y-131738095D01*
X161659580Y-131738095D02*
X161707200Y-131785714D01*
X161707200Y-131785714D02*
X161754819Y-131880952D01*
X161754819Y-131880952D02*
X161754819Y-131976190D01*
X161754819Y-131976190D02*
X161707200Y-132071428D01*
X161707200Y-132071428D02*
X161659580Y-132119047D01*
X161659580Y-132119047D02*
X161564342Y-132166666D01*
X161564342Y-132166666D02*
X161373866Y-132214285D01*
X161373866Y-132214285D02*
X161135771Y-132214285D01*
X161135771Y-132214285D02*
X160945295Y-132166666D01*
X160945295Y-132166666D02*
X160850057Y-132119047D01*
X160850057Y-132119047D02*
X160802438Y-132071428D01*
X160802438Y-132071428D02*
X160754819Y-131976190D01*
X161088152Y-131214285D02*
X161754819Y-131214285D01*
X161183390Y-131214285D02*
X161135771Y-131166666D01*
X161135771Y-131166666D02*
X161088152Y-131071428D01*
X161088152Y-131071428D02*
X161088152Y-130928571D01*
X161088152Y-130928571D02*
X161135771Y-130833333D01*
X161135771Y-130833333D02*
X161231009Y-130785714D01*
X161231009Y-130785714D02*
X161754819Y-130785714D01*
X161231009Y-129976190D02*
X161231009Y-130309523D01*
X161754819Y-130309523D02*
X160754819Y-130309523D01*
X160754819Y-130309523D02*
X160754819Y-129833333D01*
X146523810Y-115654819D02*
X145952382Y-115654819D01*
X146238096Y-115654819D02*
X146238096Y-114654819D01*
X146238096Y-114654819D02*
X146142858Y-114797676D01*
X146142858Y-114797676D02*
X146047620Y-114892914D01*
X146047620Y-114892914D02*
X145952382Y-114940533D01*
X147142858Y-114654819D02*
X147238096Y-114654819D01*
X147238096Y-114654819D02*
X147333334Y-114702438D01*
X147333334Y-114702438D02*
X147380953Y-114750057D01*
X147380953Y-114750057D02*
X147428572Y-114845295D01*
X147428572Y-114845295D02*
X147476191Y-115035771D01*
X147476191Y-115035771D02*
X147476191Y-115273866D01*
X147476191Y-115273866D02*
X147428572Y-115464342D01*
X147428572Y-115464342D02*
X147380953Y-115559580D01*
X147380953Y-115559580D02*
X147333334Y-115607200D01*
X147333334Y-115607200D02*
X147238096Y-115654819D01*
X147238096Y-115654819D02*
X147142858Y-115654819D01*
X147142858Y-115654819D02*
X147047620Y-115607200D01*
X147047620Y-115607200D02*
X147000001Y-115559580D01*
X147000001Y-115559580D02*
X146952382Y-115464342D01*
X146952382Y-115464342D02*
X146904763Y-115273866D01*
X146904763Y-115273866D02*
X146904763Y-115035771D01*
X146904763Y-115035771D02*
X146952382Y-114845295D01*
X146952382Y-114845295D02*
X147000001Y-114750057D01*
X147000001Y-114750057D02*
X147047620Y-114702438D01*
X147047620Y-114702438D02*
X147142858Y-114654819D01*
X148095239Y-114654819D02*
X148190477Y-114654819D01*
X148190477Y-114654819D02*
X148285715Y-114702438D01*
X148285715Y-114702438D02*
X148333334Y-114750057D01*
X148333334Y-114750057D02*
X148380953Y-114845295D01*
X148380953Y-114845295D02*
X148428572Y-115035771D01*
X148428572Y-115035771D02*
X148428572Y-115273866D01*
X148428572Y-115273866D02*
X148380953Y-115464342D01*
X148380953Y-115464342D02*
X148333334Y-115559580D01*
X148333334Y-115559580D02*
X148285715Y-115607200D01*
X148285715Y-115607200D02*
X148190477Y-115654819D01*
X148190477Y-115654819D02*
X148095239Y-115654819D01*
X148095239Y-115654819D02*
X148000001Y-115607200D01*
X148000001Y-115607200D02*
X147952382Y-115559580D01*
X147952382Y-115559580D02*
X147904763Y-115464342D01*
X147904763Y-115464342D02*
X147857144Y-115273866D01*
X147857144Y-115273866D02*
X147857144Y-115035771D01*
X147857144Y-115035771D02*
X147904763Y-114845295D01*
X147904763Y-114845295D02*
X147952382Y-114750057D01*
X147952382Y-114750057D02*
X148000001Y-114702438D01*
X148000001Y-114702438D02*
X148095239Y-114654819D01*
X148857144Y-114988152D02*
X148857144Y-115654819D01*
X148857144Y-115083390D02*
X148904763Y-115035771D01*
X148904763Y-115035771D02*
X149000001Y-114988152D01*
X149000001Y-114988152D02*
X149142858Y-114988152D01*
X149142858Y-114988152D02*
X149238096Y-115035771D01*
X149238096Y-115035771D02*
X149285715Y-115131009D01*
X149285715Y-115131009D02*
X149285715Y-115654819D01*
X150095239Y-115131009D02*
X149761906Y-115131009D01*
X149761906Y-115654819D02*
X149761906Y-114654819D01*
X149761906Y-114654819D02*
X150238096Y-114654819D01*
X126954819Y-132647618D02*
X126954819Y-133123808D01*
X126954819Y-133123808D02*
X127431009Y-133171427D01*
X127431009Y-133171427D02*
X127383390Y-133123808D01*
X127383390Y-133123808D02*
X127335771Y-133028570D01*
X127335771Y-133028570D02*
X127335771Y-132790475D01*
X127335771Y-132790475D02*
X127383390Y-132695237D01*
X127383390Y-132695237D02*
X127431009Y-132647618D01*
X127431009Y-132647618D02*
X127526247Y-132599999D01*
X127526247Y-132599999D02*
X127764342Y-132599999D01*
X127764342Y-132599999D02*
X127859580Y-132647618D01*
X127859580Y-132647618D02*
X127907200Y-132695237D01*
X127907200Y-132695237D02*
X127954819Y-132790475D01*
X127954819Y-132790475D02*
X127954819Y-133028570D01*
X127954819Y-133028570D02*
X127907200Y-133123808D01*
X127907200Y-133123808D02*
X127859580Y-133171427D01*
X127859580Y-132171427D02*
X127907200Y-132123808D01*
X127907200Y-132123808D02*
X127954819Y-132171427D01*
X127954819Y-132171427D02*
X127907200Y-132219046D01*
X127907200Y-132219046D02*
X127859580Y-132171427D01*
X127859580Y-132171427D02*
X127954819Y-132171427D01*
X127954819Y-131171428D02*
X127954819Y-131742856D01*
X127954819Y-131457142D02*
X126954819Y-131457142D01*
X126954819Y-131457142D02*
X127097676Y-131552380D01*
X127097676Y-131552380D02*
X127192914Y-131647618D01*
X127192914Y-131647618D02*
X127240533Y-131742856D01*
X127954819Y-130742856D02*
X126954819Y-130742856D01*
X127954819Y-130171428D02*
X127383390Y-130599999D01*
X126954819Y-130171428D02*
X127526247Y-130742856D01*
X127954819Y-129790475D02*
X127954819Y-129552380D01*
X127954819Y-129552380D02*
X127764342Y-129552380D01*
X127764342Y-129552380D02*
X127716723Y-129647618D01*
X127716723Y-129647618D02*
X127621485Y-129742856D01*
X127621485Y-129742856D02*
X127478628Y-129790475D01*
X127478628Y-129790475D02*
X127240533Y-129790475D01*
X127240533Y-129790475D02*
X127097676Y-129742856D01*
X127097676Y-129742856D02*
X127002438Y-129647618D01*
X127002438Y-129647618D02*
X126954819Y-129504761D01*
X126954819Y-129504761D02*
X126954819Y-129314285D01*
X126954819Y-129314285D02*
X127002438Y-129171428D01*
X127002438Y-129171428D02*
X127097676Y-129076190D01*
X127097676Y-129076190D02*
X127240533Y-129028571D01*
X127240533Y-129028571D02*
X127478628Y-129028571D01*
X127478628Y-129028571D02*
X127621485Y-129076190D01*
X127621485Y-129076190D02*
X127716723Y-129171428D01*
X127716723Y-129171428D02*
X127764342Y-129266666D01*
X127764342Y-129266666D02*
X127954819Y-129266666D01*
X127954819Y-129266666D02*
X127954819Y-129028571D01*
X165054819Y-133547619D02*
X165054819Y-134119047D01*
X165054819Y-133833333D02*
X164054819Y-133833333D01*
X164054819Y-133833333D02*
X164197676Y-133928571D01*
X164197676Y-133928571D02*
X164292914Y-134023809D01*
X164292914Y-134023809D02*
X164340533Y-134119047D01*
X164054819Y-132928571D02*
X164054819Y-132833333D01*
X164054819Y-132833333D02*
X164102438Y-132738095D01*
X164102438Y-132738095D02*
X164150057Y-132690476D01*
X164150057Y-132690476D02*
X164245295Y-132642857D01*
X164245295Y-132642857D02*
X164435771Y-132595238D01*
X164435771Y-132595238D02*
X164673866Y-132595238D01*
X164673866Y-132595238D02*
X164864342Y-132642857D01*
X164864342Y-132642857D02*
X164959580Y-132690476D01*
X164959580Y-132690476D02*
X165007200Y-132738095D01*
X165007200Y-132738095D02*
X165054819Y-132833333D01*
X165054819Y-132833333D02*
X165054819Y-132928571D01*
X165054819Y-132928571D02*
X165007200Y-133023809D01*
X165007200Y-133023809D02*
X164959580Y-133071428D01*
X164959580Y-133071428D02*
X164864342Y-133119047D01*
X164864342Y-133119047D02*
X164673866Y-133166666D01*
X164673866Y-133166666D02*
X164435771Y-133166666D01*
X164435771Y-133166666D02*
X164245295Y-133119047D01*
X164245295Y-133119047D02*
X164150057Y-133071428D01*
X164150057Y-133071428D02*
X164102438Y-133023809D01*
X164102438Y-133023809D02*
X164054819Y-132928571D01*
X164054819Y-131976190D02*
X164054819Y-131880952D01*
X164054819Y-131880952D02*
X164102438Y-131785714D01*
X164102438Y-131785714D02*
X164150057Y-131738095D01*
X164150057Y-131738095D02*
X164245295Y-131690476D01*
X164245295Y-131690476D02*
X164435771Y-131642857D01*
X164435771Y-131642857D02*
X164673866Y-131642857D01*
X164673866Y-131642857D02*
X164864342Y-131690476D01*
X164864342Y-131690476D02*
X164959580Y-131738095D01*
X164959580Y-131738095D02*
X165007200Y-131785714D01*
X165007200Y-131785714D02*
X165054819Y-131880952D01*
X165054819Y-131880952D02*
X165054819Y-131976190D01*
X165054819Y-131976190D02*
X165007200Y-132071428D01*
X165007200Y-132071428D02*
X164959580Y-132119047D01*
X164959580Y-132119047D02*
X164864342Y-132166666D01*
X164864342Y-132166666D02*
X164673866Y-132214285D01*
X164673866Y-132214285D02*
X164435771Y-132214285D01*
X164435771Y-132214285D02*
X164245295Y-132166666D01*
X164245295Y-132166666D02*
X164150057Y-132119047D01*
X164150057Y-132119047D02*
X164102438Y-132071428D01*
X164102438Y-132071428D02*
X164054819Y-131976190D01*
X164388152Y-131214285D02*
X165054819Y-131214285D01*
X164483390Y-131214285D02*
X164435771Y-131166666D01*
X164435771Y-131166666D02*
X164388152Y-131071428D01*
X164388152Y-131071428D02*
X164388152Y-130928571D01*
X164388152Y-130928571D02*
X164435771Y-130833333D01*
X164435771Y-130833333D02*
X164531009Y-130785714D01*
X164531009Y-130785714D02*
X165054819Y-130785714D01*
X164531009Y-129976190D02*
X164531009Y-130309523D01*
X165054819Y-130309523D02*
X164054819Y-130309523D01*
X164054819Y-130309523D02*
X164054819Y-129833333D01*
X163404819Y-133547619D02*
X163404819Y-134119047D01*
X163404819Y-133833333D02*
X162404819Y-133833333D01*
X162404819Y-133833333D02*
X162547676Y-133928571D01*
X162547676Y-133928571D02*
X162642914Y-134023809D01*
X162642914Y-134023809D02*
X162690533Y-134119047D01*
X162404819Y-132928571D02*
X162404819Y-132833333D01*
X162404819Y-132833333D02*
X162452438Y-132738095D01*
X162452438Y-132738095D02*
X162500057Y-132690476D01*
X162500057Y-132690476D02*
X162595295Y-132642857D01*
X162595295Y-132642857D02*
X162785771Y-132595238D01*
X162785771Y-132595238D02*
X163023866Y-132595238D01*
X163023866Y-132595238D02*
X163214342Y-132642857D01*
X163214342Y-132642857D02*
X163309580Y-132690476D01*
X163309580Y-132690476D02*
X163357200Y-132738095D01*
X163357200Y-132738095D02*
X163404819Y-132833333D01*
X163404819Y-132833333D02*
X163404819Y-132928571D01*
X163404819Y-132928571D02*
X163357200Y-133023809D01*
X163357200Y-133023809D02*
X163309580Y-133071428D01*
X163309580Y-133071428D02*
X163214342Y-133119047D01*
X163214342Y-133119047D02*
X163023866Y-133166666D01*
X163023866Y-133166666D02*
X162785771Y-133166666D01*
X162785771Y-133166666D02*
X162595295Y-133119047D01*
X162595295Y-133119047D02*
X162500057Y-133071428D01*
X162500057Y-133071428D02*
X162452438Y-133023809D01*
X162452438Y-133023809D02*
X162404819Y-132928571D01*
X162404819Y-131976190D02*
X162404819Y-131880952D01*
X162404819Y-131880952D02*
X162452438Y-131785714D01*
X162452438Y-131785714D02*
X162500057Y-131738095D01*
X162500057Y-131738095D02*
X162595295Y-131690476D01*
X162595295Y-131690476D02*
X162785771Y-131642857D01*
X162785771Y-131642857D02*
X163023866Y-131642857D01*
X163023866Y-131642857D02*
X163214342Y-131690476D01*
X163214342Y-131690476D02*
X163309580Y-131738095D01*
X163309580Y-131738095D02*
X163357200Y-131785714D01*
X163357200Y-131785714D02*
X163404819Y-131880952D01*
X163404819Y-131880952D02*
X163404819Y-131976190D01*
X163404819Y-131976190D02*
X163357200Y-132071428D01*
X163357200Y-132071428D02*
X163309580Y-132119047D01*
X163309580Y-132119047D02*
X163214342Y-132166666D01*
X163214342Y-132166666D02*
X163023866Y-132214285D01*
X163023866Y-132214285D02*
X162785771Y-132214285D01*
X162785771Y-132214285D02*
X162595295Y-132166666D01*
X162595295Y-132166666D02*
X162500057Y-132119047D01*
X162500057Y-132119047D02*
X162452438Y-132071428D01*
X162452438Y-132071428D02*
X162404819Y-131976190D01*
X162738152Y-131214285D02*
X163404819Y-131214285D01*
X162833390Y-131214285D02*
X162785771Y-131166666D01*
X162785771Y-131166666D02*
X162738152Y-131071428D01*
X162738152Y-131071428D02*
X162738152Y-130928571D01*
X162738152Y-130928571D02*
X162785771Y-130833333D01*
X162785771Y-130833333D02*
X162881009Y-130785714D01*
X162881009Y-130785714D02*
X163404819Y-130785714D01*
X162881009Y-129976190D02*
X162881009Y-130309523D01*
X163404819Y-130309523D02*
X162404819Y-130309523D01*
X162404819Y-130309523D02*
X162404819Y-129833333D01*
X165254819Y-122890476D02*
X165254819Y-123461904D01*
X165254819Y-123176190D02*
X164254819Y-123176190D01*
X164254819Y-123176190D02*
X164397676Y-123271428D01*
X164397676Y-123271428D02*
X164492914Y-123366666D01*
X164492914Y-123366666D02*
X164540533Y-123461904D01*
X164350057Y-122509523D02*
X164302438Y-122461904D01*
X164302438Y-122461904D02*
X164254819Y-122366666D01*
X164254819Y-122366666D02*
X164254819Y-122128571D01*
X164254819Y-122128571D02*
X164302438Y-122033333D01*
X164302438Y-122033333D02*
X164350057Y-121985714D01*
X164350057Y-121985714D02*
X164445295Y-121938095D01*
X164445295Y-121938095D02*
X164540533Y-121938095D01*
X164540533Y-121938095D02*
X164683390Y-121985714D01*
X164683390Y-121985714D02*
X165254819Y-122557142D01*
X165254819Y-122557142D02*
X165254819Y-121938095D01*
X165254819Y-121509523D02*
X164254819Y-121509523D01*
X164254819Y-121509523D02*
X164969104Y-121176190D01*
X164969104Y-121176190D02*
X164254819Y-120842857D01*
X164254819Y-120842857D02*
X165254819Y-120842857D01*
X165254819Y-120366666D02*
X164254819Y-120366666D01*
X164731009Y-120366666D02*
X164731009Y-119795238D01*
X165254819Y-119795238D02*
X164254819Y-119795238D01*
X164588152Y-119414285D02*
X164588152Y-118890476D01*
X164588152Y-118890476D02*
X165254819Y-119414285D01*
X165254819Y-119414285D02*
X165254819Y-118890476D01*
X168952380Y-115654819D02*
X168380952Y-115654819D01*
X168666666Y-115654819D02*
X168666666Y-114654819D01*
X168666666Y-114654819D02*
X168571428Y-114797676D01*
X168571428Y-114797676D02*
X168476190Y-114892914D01*
X168476190Y-114892914D02*
X168380952Y-114940533D01*
X169571428Y-114654819D02*
X169666666Y-114654819D01*
X169666666Y-114654819D02*
X169761904Y-114702438D01*
X169761904Y-114702438D02*
X169809523Y-114750057D01*
X169809523Y-114750057D02*
X169857142Y-114845295D01*
X169857142Y-114845295D02*
X169904761Y-115035771D01*
X169904761Y-115035771D02*
X169904761Y-115273866D01*
X169904761Y-115273866D02*
X169857142Y-115464342D01*
X169857142Y-115464342D02*
X169809523Y-115559580D01*
X169809523Y-115559580D02*
X169761904Y-115607200D01*
X169761904Y-115607200D02*
X169666666Y-115654819D01*
X169666666Y-115654819D02*
X169571428Y-115654819D01*
X169571428Y-115654819D02*
X169476190Y-115607200D01*
X169476190Y-115607200D02*
X169428571Y-115559580D01*
X169428571Y-115559580D02*
X169380952Y-115464342D01*
X169380952Y-115464342D02*
X169333333Y-115273866D01*
X169333333Y-115273866D02*
X169333333Y-115035771D01*
X169333333Y-115035771D02*
X169380952Y-114845295D01*
X169380952Y-114845295D02*
X169428571Y-114750057D01*
X169428571Y-114750057D02*
X169476190Y-114702438D01*
X169476190Y-114702438D02*
X169571428Y-114654819D01*
X170523809Y-114654819D02*
X170619047Y-114654819D01*
X170619047Y-114654819D02*
X170714285Y-114702438D01*
X170714285Y-114702438D02*
X170761904Y-114750057D01*
X170761904Y-114750057D02*
X170809523Y-114845295D01*
X170809523Y-114845295D02*
X170857142Y-115035771D01*
X170857142Y-115035771D02*
X170857142Y-115273866D01*
X170857142Y-115273866D02*
X170809523Y-115464342D01*
X170809523Y-115464342D02*
X170761904Y-115559580D01*
X170761904Y-115559580D02*
X170714285Y-115607200D01*
X170714285Y-115607200D02*
X170619047Y-115654819D01*
X170619047Y-115654819D02*
X170523809Y-115654819D01*
X170523809Y-115654819D02*
X170428571Y-115607200D01*
X170428571Y-115607200D02*
X170380952Y-115559580D01*
X170380952Y-115559580D02*
X170333333Y-115464342D01*
X170333333Y-115464342D02*
X170285714Y-115273866D01*
X170285714Y-115273866D02*
X170285714Y-115035771D01*
X170285714Y-115035771D02*
X170333333Y-114845295D01*
X170333333Y-114845295D02*
X170380952Y-114750057D01*
X170380952Y-114750057D02*
X170428571Y-114702438D01*
X170428571Y-114702438D02*
X170523809Y-114654819D01*
X171285714Y-114988152D02*
X171285714Y-115654819D01*
X171285714Y-115083390D02*
X171333333Y-115035771D01*
X171333333Y-115035771D02*
X171428571Y-114988152D01*
X171428571Y-114988152D02*
X171571428Y-114988152D01*
X171571428Y-114988152D02*
X171666666Y-115035771D01*
X171666666Y-115035771D02*
X171714285Y-115131009D01*
X171714285Y-115131009D02*
X171714285Y-115654819D01*
X172523809Y-115131009D02*
X172190476Y-115131009D01*
X172190476Y-115654819D02*
X172190476Y-114654819D01*
X172190476Y-114654819D02*
X172666666Y-114654819D01*
X140007200Y-124809523D02*
X140054819Y-124666666D01*
X140054819Y-124666666D02*
X140054819Y-124428571D01*
X140054819Y-124428571D02*
X140007200Y-124333333D01*
X140007200Y-124333333D02*
X139959580Y-124285714D01*
X139959580Y-124285714D02*
X139864342Y-124238095D01*
X139864342Y-124238095D02*
X139769104Y-124238095D01*
X139769104Y-124238095D02*
X139673866Y-124285714D01*
X139673866Y-124285714D02*
X139626247Y-124333333D01*
X139626247Y-124333333D02*
X139578628Y-124428571D01*
X139578628Y-124428571D02*
X139531009Y-124619047D01*
X139531009Y-124619047D02*
X139483390Y-124714285D01*
X139483390Y-124714285D02*
X139435771Y-124761904D01*
X139435771Y-124761904D02*
X139340533Y-124809523D01*
X139340533Y-124809523D02*
X139245295Y-124809523D01*
X139245295Y-124809523D02*
X139150057Y-124761904D01*
X139150057Y-124761904D02*
X139102438Y-124714285D01*
X139102438Y-124714285D02*
X139054819Y-124619047D01*
X139054819Y-124619047D02*
X139054819Y-124380952D01*
X139054819Y-124380952D02*
X139102438Y-124238095D01*
X140054819Y-123333333D02*
X140054819Y-123809523D01*
X140054819Y-123809523D02*
X139054819Y-123809523D01*
X139150057Y-123047618D02*
X139102438Y-122999999D01*
X139102438Y-122999999D02*
X139054819Y-122904761D01*
X139054819Y-122904761D02*
X139054819Y-122666666D01*
X139054819Y-122666666D02*
X139102438Y-122571428D01*
X139102438Y-122571428D02*
X139150057Y-122523809D01*
X139150057Y-122523809D02*
X139245295Y-122476190D01*
X139245295Y-122476190D02*
X139340533Y-122476190D01*
X139340533Y-122476190D02*
X139483390Y-122523809D01*
X139483390Y-122523809D02*
X140054819Y-123095237D01*
X140054819Y-123095237D02*
X140054819Y-122476190D01*
X139959580Y-122047618D02*
X140007200Y-121999999D01*
X140007200Y-121999999D02*
X140054819Y-122047618D01*
X140054819Y-122047618D02*
X140007200Y-122095237D01*
X140007200Y-122095237D02*
X139959580Y-122047618D01*
X139959580Y-122047618D02*
X140054819Y-122047618D01*
X140054819Y-121047619D02*
X140054819Y-121619047D01*
X140054819Y-121333333D02*
X139054819Y-121333333D01*
X139054819Y-121333333D02*
X139197676Y-121428571D01*
X139197676Y-121428571D02*
X139292914Y-121523809D01*
X139292914Y-121523809D02*
X139340533Y-121619047D01*
X139769104Y-120666666D02*
X139769104Y-120190476D01*
X140054819Y-120761904D02*
X139054819Y-120428571D01*
X139054819Y-120428571D02*
X140054819Y-120095238D01*
X125154819Y-132647618D02*
X125154819Y-133123808D01*
X125154819Y-133123808D02*
X125631009Y-133171427D01*
X125631009Y-133171427D02*
X125583390Y-133123808D01*
X125583390Y-133123808D02*
X125535771Y-133028570D01*
X125535771Y-133028570D02*
X125535771Y-132790475D01*
X125535771Y-132790475D02*
X125583390Y-132695237D01*
X125583390Y-132695237D02*
X125631009Y-132647618D01*
X125631009Y-132647618D02*
X125726247Y-132599999D01*
X125726247Y-132599999D02*
X125964342Y-132599999D01*
X125964342Y-132599999D02*
X126059580Y-132647618D01*
X126059580Y-132647618D02*
X126107200Y-132695237D01*
X126107200Y-132695237D02*
X126154819Y-132790475D01*
X126154819Y-132790475D02*
X126154819Y-133028570D01*
X126154819Y-133028570D02*
X126107200Y-133123808D01*
X126107200Y-133123808D02*
X126059580Y-133171427D01*
X126059580Y-132171427D02*
X126107200Y-132123808D01*
X126107200Y-132123808D02*
X126154819Y-132171427D01*
X126154819Y-132171427D02*
X126107200Y-132219046D01*
X126107200Y-132219046D02*
X126059580Y-132171427D01*
X126059580Y-132171427D02*
X126154819Y-132171427D01*
X126154819Y-131171428D02*
X126154819Y-131742856D01*
X126154819Y-131457142D02*
X125154819Y-131457142D01*
X125154819Y-131457142D02*
X125297676Y-131552380D01*
X125297676Y-131552380D02*
X125392914Y-131647618D01*
X125392914Y-131647618D02*
X125440533Y-131742856D01*
X126154819Y-130742856D02*
X125154819Y-130742856D01*
X126154819Y-130171428D02*
X125583390Y-130599999D01*
X125154819Y-130171428D02*
X125726247Y-130742856D01*
X126154819Y-129790475D02*
X126154819Y-129552380D01*
X126154819Y-129552380D02*
X125964342Y-129552380D01*
X125964342Y-129552380D02*
X125916723Y-129647618D01*
X125916723Y-129647618D02*
X125821485Y-129742856D01*
X125821485Y-129742856D02*
X125678628Y-129790475D01*
X125678628Y-129790475D02*
X125440533Y-129790475D01*
X125440533Y-129790475D02*
X125297676Y-129742856D01*
X125297676Y-129742856D02*
X125202438Y-129647618D01*
X125202438Y-129647618D02*
X125154819Y-129504761D01*
X125154819Y-129504761D02*
X125154819Y-129314285D01*
X125154819Y-129314285D02*
X125202438Y-129171428D01*
X125202438Y-129171428D02*
X125297676Y-129076190D01*
X125297676Y-129076190D02*
X125440533Y-129028571D01*
X125440533Y-129028571D02*
X125678628Y-129028571D01*
X125678628Y-129028571D02*
X125821485Y-129076190D01*
X125821485Y-129076190D02*
X125916723Y-129171428D01*
X125916723Y-129171428D02*
X125964342Y-129266666D01*
X125964342Y-129266666D02*
X126154819Y-129266666D01*
X126154819Y-129266666D02*
X126154819Y-129028571D01*
D11*
%TO.C,C4*%
X103000000Y-109140000D02*
X103000000Y-110140000D01*
X103000000Y-110140000D02*
X104000000Y-110140000D01*
X103000000Y-110140000D02*
X102000000Y-110140000D01*
X104000000Y-110740000D02*
X102000000Y-110740000D01*
X103000000Y-110740000D02*
X103000000Y-111740000D01*
X104333500Y-108201356D02*
G75*
G02*
X104353676Y-112575500I-6075820J-2215144D01*
G01*
X101686677Y-112568144D02*
G75*
G02*
X101666501Y-108194000I6075823J2215144D01*
G01*
%TO.C,C8*%
X125428570Y-109140000D02*
X125428570Y-110140000D01*
X125428570Y-110140000D02*
X126428570Y-110140000D01*
X125428570Y-110140000D02*
X124428570Y-110140000D01*
X126428570Y-110740000D02*
X124428570Y-110740000D01*
X125428570Y-110740000D02*
X125428570Y-111740000D01*
X126762070Y-108201356D02*
G75*
G02*
X126782246Y-112575500I-6075820J-2215144D01*
G01*
X124115247Y-112568144D02*
G75*
G02*
X124095071Y-108194000I6075823J2215144D01*
G01*
%TO.C,C7*%
X148000000Y-130700000D02*
X148000000Y-131700000D01*
X148000000Y-131700000D02*
X149000000Y-131700000D01*
X148000000Y-131700000D02*
X147000000Y-131700000D01*
X149000000Y-132300000D02*
X147000000Y-132300000D01*
X148000000Y-132300000D02*
X148000000Y-133300000D01*
X149333500Y-129761356D02*
G75*
G02*
X149353676Y-134135500I-6075820J-2215144D01*
G01*
X146686677Y-134128144D02*
G75*
G02*
X146666501Y-129754000I6075823J2215144D01*
G01*
%TO.C,C6*%
X147857140Y-109140000D02*
X147857140Y-110140000D01*
X147857140Y-110140000D02*
X148857140Y-110140000D01*
X147857140Y-110140000D02*
X146857140Y-110140000D01*
X148857140Y-110740000D02*
X146857140Y-110740000D01*
X147857140Y-110740000D02*
X147857140Y-111740000D01*
X149190640Y-108201356D02*
G75*
G02*
X149210816Y-112575500I-6075820J-2215144D01*
G01*
X146543817Y-112568144D02*
G75*
G02*
X146523641Y-108194000I6075823J2215144D01*
G01*
%TO.C,R1*%
X133000000Y-131325000D02*
X133000000Y-131395000D01*
X134370000Y-129955000D02*
G75*
G02*
X131630000Y-129955000I-1370000J0D01*
G01*
X131630000Y-129955000D02*
G75*
G02*
X134370000Y-129955000I1370000J0D01*
G01*
%TO.C,USB1*%
X188810000Y-100980000D02*
X188810000Y-100460000D01*
X188810000Y-100460000D02*
X174190000Y-100460000D01*
X188160000Y-115940000D02*
X188160000Y-112610000D01*
X188160000Y-115940000D02*
X174840000Y-115940000D01*
X188160000Y-100980000D02*
X188810000Y-100980000D01*
X188160000Y-100980000D02*
X188160000Y-109090000D01*
X185900000Y-116160000D02*
X184100000Y-116160000D01*
X174840000Y-115940000D02*
X174840000Y-112610000D01*
X174840000Y-109090000D02*
X174840000Y-100980000D01*
X174190000Y-100980000D02*
X174840000Y-100980000D01*
X174190000Y-100460000D02*
X174190000Y-100980000D01*
%TO.C,C3*%
X158000000Y-130700000D02*
X158000000Y-131700000D01*
X158000000Y-131700000D02*
X159000000Y-131700000D01*
X158000000Y-131700000D02*
X157000000Y-131700000D01*
X159000000Y-132300000D02*
X157000000Y-132300000D01*
X158000000Y-132300000D02*
X158000000Y-133300000D01*
X159333500Y-129761356D02*
G75*
G02*
X159353676Y-134135500I-6075820J-2215144D01*
G01*
X156686677Y-134128144D02*
G75*
G02*
X156666501Y-129754000I6075823J2215144D01*
G01*
%TO.C,USB3*%
X166404761Y-100980000D02*
X166404761Y-100460000D01*
X166404761Y-100460000D02*
X151784761Y-100460000D01*
X165754761Y-115940000D02*
X165754761Y-112610000D01*
X165754761Y-115940000D02*
X152434761Y-115940000D01*
X165754761Y-100980000D02*
X166404761Y-100980000D01*
X165754761Y-100980000D02*
X165754761Y-109090000D01*
X163494761Y-116160000D02*
X161694761Y-116160000D01*
X152434761Y-115940000D02*
X152434761Y-112610000D01*
X152434761Y-109090000D02*
X152434761Y-100980000D01*
X151784761Y-100980000D02*
X152434761Y-100980000D01*
X151784761Y-100460000D02*
X151784761Y-100980000D01*
%TO.C,C2*%
X153000000Y-130700000D02*
X153000000Y-131700000D01*
X153000000Y-131700000D02*
X154000000Y-131700000D01*
X153000000Y-131700000D02*
X152000000Y-131700000D01*
X154000000Y-132300000D02*
X152000000Y-132300000D01*
X153000000Y-132300000D02*
X153000000Y-133300000D01*
X154333500Y-129761356D02*
G75*
G02*
X154353676Y-134135500I-6075820J-2215144D01*
G01*
X151686677Y-134128144D02*
G75*
G02*
X151666501Y-129754000I6075823J2215144D01*
G01*
%TO.C,X1*%
X160705000Y-123765000D02*
X154455000Y-123765000D01*
X160705000Y-118715000D02*
X154455000Y-118715000D01*
X160705000Y-118715000D02*
G75*
G02*
X160705000Y-123765000I0J-2525000D01*
G01*
X154455000Y-123765000D02*
G75*
G02*
X154455000Y-118715000I0J2525000D01*
G01*
%TO.C,USB4*%
X143999523Y-100980000D02*
X143999523Y-100460000D01*
X143999523Y-100460000D02*
X129379523Y-100460000D01*
X143349523Y-115940000D02*
X143349523Y-112610000D01*
X143349523Y-115940000D02*
X130029523Y-115940000D01*
X143349523Y-100980000D02*
X143999523Y-100980000D01*
X143349523Y-100980000D02*
X143349523Y-109090000D01*
X141089523Y-116160000D02*
X139289523Y-116160000D01*
X130029523Y-115940000D02*
X130029523Y-112610000D01*
X130029523Y-109090000D02*
X130029523Y-100980000D01*
X129379523Y-100980000D02*
X130029523Y-100980000D01*
X129379523Y-100460000D02*
X129379523Y-100980000D01*
%TO.C,C1*%
X170285710Y-109140000D02*
X170285710Y-110140000D01*
X170285710Y-110140000D02*
X171285710Y-110140000D01*
X170285710Y-110140000D02*
X169285710Y-110140000D01*
X171285710Y-110740000D02*
X169285710Y-110740000D01*
X170285710Y-110740000D02*
X170285710Y-111740000D01*
X171619210Y-108201356D02*
G75*
G02*
X171639386Y-112575500I-6075820J-2215144D01*
G01*
X168972387Y-112568144D02*
G75*
G02*
X168952211Y-108194000I6075823J2215144D01*
G01*
%TO.C,USB5*%
X121594285Y-100980000D02*
X121594285Y-100460000D01*
X121594285Y-100460000D02*
X106974285Y-100460000D01*
X120944285Y-115940000D02*
X120944285Y-112610000D01*
X120944285Y-115940000D02*
X107624285Y-115940000D01*
X120944285Y-100980000D02*
X121594285Y-100980000D01*
X120944285Y-100980000D02*
X120944285Y-109090000D01*
X118684285Y-116160000D02*
X116884285Y-116160000D01*
X107624285Y-115940000D02*
X107624285Y-112610000D01*
X107624285Y-109090000D02*
X107624285Y-100980000D01*
X106974285Y-100980000D02*
X107624285Y-100980000D01*
X106974285Y-100460000D02*
X106974285Y-100980000D01*
%TO.C,U1*%
X151060000Y-122500000D02*
X151060000Y-120550000D01*
X151060000Y-122500000D02*
X151060000Y-124450000D01*
X140940000Y-122500000D02*
X140940000Y-120550000D01*
X140940000Y-122500000D02*
X140940000Y-124450000D01*
X151335000Y-120015000D02*
X151005000Y-119775000D01*
X151335000Y-119535000D01*
X151335000Y-120015000D01*
G36*
X151335000Y-120015000D02*
G01*
X151005000Y-119775000D01*
X151335000Y-119535000D01*
X151335000Y-120015000D01*
G37*
%TO.C,R2*%
X130000000Y-131325000D02*
X130000000Y-131395000D01*
X131370000Y-129955000D02*
G75*
G02*
X128630000Y-129955000I-1370000J0D01*
G01*
X128630000Y-129955000D02*
G75*
G02*
X131370000Y-129955000I1370000J0D01*
G01*
%TO.C,USB2*%
X135300000Y-131220000D02*
X135300000Y-133000000D01*
X137200000Y-128300000D02*
X136400000Y-128300000D01*
X144700000Y-131220000D02*
X144700000Y-133000000D01*
%TD*%
M02*
