%TF.GenerationSoftware,KiCad,Pcbnew,8.0.5*%
%TF.CreationDate,2024-10-26T00:27:54+08:00*%
%TF.ProjectId,BISS0001_SOP-16_TH,42495353-3030-4303-915f-534f502d3136,rev?*%
%TF.SameCoordinates,Original*%
%TF.FileFunction,Copper,L2,Bot*%
%TF.FilePolarity,Positive*%
%FSLAX46Y46*%
G04 Gerber Fmt 4.6, Leading zero omitted, Abs format (unit mm)*
G04 Created by KiCad (PCBNEW 8.0.5) date 2024-10-26 00:27:54*
%MOMM*%
%LPD*%
G01*
G04 APERTURE LIST*
G04 Aperture macros list*
%AMRoundRect*
0 Rectangle with rounded corners*
0 $1 Rounding radius*
0 $2 $3 $4 $5 $6 $7 $8 $9 X,Y pos of 4 corners*
0 Add a 4 corners polygon primitive as box body*
4,1,4,$2,$3,$4,$5,$6,$7,$8,$9,$2,$3,0*
0 Add four circle primitives for the rounded corners*
1,1,$1+$1,$2,$3*
1,1,$1+$1,$4,$5*
1,1,$1+$1,$6,$7*
1,1,$1+$1,$8,$9*
0 Add four rect primitives between the rounded corners*
20,1,$1+$1,$2,$3,$4,$5,0*
20,1,$1+$1,$4,$5,$6,$7,0*
20,1,$1+$1,$6,$7,$8,$9,0*
20,1,$1+$1,$8,$9,$2,$3,0*%
G04 Aperture macros list end*
%TA.AperFunction,ComponentPad*%
%ADD10C,6.000000*%
%TD*%
%TA.AperFunction,SMDPad,CuDef*%
%ADD11RoundRect,0.150000X-0.850000X-0.150000X0.850000X-0.150000X0.850000X0.150000X-0.850000X0.150000X0*%
%TD*%
%TA.AperFunction,ComponentPad*%
%ADD12O,1.600000X1.200000*%
%TD*%
%TA.AperFunction,ComponentPad*%
%ADD13O,1.200000X1.200000*%
%TD*%
%TA.AperFunction,ComponentPad*%
%ADD14C,1.500000*%
%TD*%
%TA.AperFunction,ComponentPad*%
%ADD15C,1.600000*%
%TD*%
%TA.AperFunction,ComponentPad*%
%ADD16O,1.600000X1.600000*%
%TD*%
%TA.AperFunction,ComponentPad*%
%ADD17C,1.440000*%
%TD*%
%TA.AperFunction,ComponentPad*%
%ADD18R,1.700000X1.700000*%
%TD*%
%TA.AperFunction,ComponentPad*%
%ADD19O,1.700000X1.700000*%
%TD*%
%TA.AperFunction,ViaPad*%
%ADD20C,0.500000*%
%TD*%
%TA.AperFunction,Conductor*%
%ADD21C,0.500000*%
%TD*%
%TA.AperFunction,Conductor*%
%ADD22C,1.000000*%
%TD*%
%TA.AperFunction,Conductor*%
%ADD23C,0.300000*%
%TD*%
G04 APERTURE END LIST*
D10*
%TO.P,H2,1,1*%
%TO.N,GND*%
X80000000Y-70000000D03*
%TD*%
D11*
%TO.P,U1,1,A*%
%TO.N,Net-(H1-Pin_2)*%
X83000000Y-87445000D03*
%TO.P,U1,2,VO*%
%TO.N,Net-(U1-VO)*%
X83000000Y-86175000D03*
%TO.P,U1,3,RR1*%
%TO.N,Net-(U1-RR1)*%
X83000000Y-84905000D03*
%TO.P,U1,4,RC1*%
%TO.N,Net-(U1-RC1)*%
X83000000Y-83635000D03*
%TO.P,U1,5,RC2*%
%TO.N,Net-(U1-RC2)*%
X83000000Y-82365000D03*
%TO.P,U1,6,RR2*%
%TO.N,Net-(U1-RR2)*%
X83000000Y-81095000D03*
%TO.P,U1,7,VSS*%
%TO.N,GND*%
X83000000Y-79825000D03*
%TO.P,U1,8,VRF/RESET*%
X83000000Y-78555000D03*
%TO.P,U1,9,VC*%
%TO.N,Net-(U1-VC)*%
X88000000Y-78555000D03*
%TO.P,U1,10,IB*%
%TO.N,Net-(U1-IB)*%
X88000000Y-79825000D03*
%TO.P,U1,11,VDD*%
%TO.N,3V3*%
X88000000Y-81095000D03*
%TO.P,U1,12,2OUT*%
%TO.N,Net-(U1-2OUT)*%
X88000000Y-82365000D03*
%TO.P,U1,13,2IN-*%
%TO.N,Net-(U1-2IN-)*%
X88000000Y-83635000D03*
%TO.P,U1,14,1IN+*%
%TO.N,Net-(S1-S)*%
X88000000Y-84905000D03*
%TO.P,U1,15,1IN-*%
%TO.N,Net-(U1-1IN-)*%
X88000000Y-86175000D03*
%TO.P,U1,16,1OUT*%
%TO.N,Net-(U1-1OUT)*%
X88000000Y-87445000D03*
%TD*%
D12*
%TO.P,S1,1,D*%
%TO.N,3V3*%
X96500000Y-95000000D03*
D13*
%TO.P,S1,2,S*%
%TO.N,Net-(S1-S)*%
X93960000Y-97540000D03*
%TO.P,S1,3,G*%
%TO.N,GND*%
X91420000Y-95000000D03*
%TD*%
D14*
%TO.P,R9,2*%
%TO.N,GND*%
X93020000Y-70000000D03*
%TO.P,R9,1*%
%TO.N,Net-(U1-VC)*%
X96420000Y-70000000D03*
%TD*%
D15*
%TO.P,R8,1*%
%TO.N,GND*%
X99500000Y-72500000D03*
D16*
%TO.P,R8,2*%
%TO.N,Net-(U1-IB)*%
X102040000Y-72500000D03*
%TD*%
D15*
%TO.P,R7,1*%
%TO.N,Net-(C12-Pad2)*%
X99500000Y-87400000D03*
D16*
%TO.P,R7,2*%
%TO.N,Net-(U1-1IN-)*%
X102040000Y-87400000D03*
%TD*%
D15*
%TO.P,R6,1*%
%TO.N,GND*%
X92000000Y-103000000D03*
D16*
%TO.P,R6,2*%
%TO.N,Net-(S1-S)*%
X94540000Y-103000000D03*
%TD*%
D15*
%TO.P,R5,1*%
%TO.N,Net-(H3-Pin_2)*%
X84000000Y-91000000D03*
D16*
%TO.P,R5,2*%
%TO.N,Net-(U1-VO)*%
X86540000Y-91000000D03*
%TD*%
D15*
%TO.P,R4,1*%
%TO.N,Net-(U1-VC)*%
X99500000Y-69500000D03*
D16*
%TO.P,R4,2*%
%TO.N,3V3*%
X102040000Y-69500000D03*
%TD*%
%TO.P,R3,2*%
%TO.N,Net-(U1-1OUT)*%
X102040000Y-83600000D03*
D15*
%TO.P,R3,1*%
%TO.N,Net-(U1-1IN-)*%
X99500000Y-83600000D03*
%TD*%
%TO.P,R2,1*%
%TO.N,Net-(C2-Pad2)*%
X99500000Y-79800000D03*
D16*
%TO.P,R2,2*%
%TO.N,Net-(U1-2IN-)*%
X102040000Y-79800000D03*
%TD*%
D15*
%TO.P,R1,1*%
%TO.N,Net-(U1-2OUT)*%
X99500000Y-76000000D03*
D16*
%TO.P,R1,2*%
%TO.N,Net-(U1-2IN-)*%
X102040000Y-76000000D03*
%TD*%
D17*
%TO.P,PR2,1,1*%
%TO.N,Net-(U1-RR2)*%
X78000000Y-87000000D03*
%TO.P,PR2,2,2*%
%TO.N,Net-(U1-RC2)*%
X78000000Y-89540000D03*
%TO.P,PR2,3,3*%
X78000000Y-92080000D03*
%TD*%
%TO.P,PR1,1,1*%
%TO.N,Net-(U1-RC1)*%
X78000000Y-103000000D03*
%TO.P,PR1,2,2*%
X78000000Y-100460000D03*
%TO.P,PR1,3,3*%
%TO.N,Net-(U1-RR1)*%
X78000000Y-97920000D03*
%TD*%
D18*
%TO.P,H3,1,Pin_1*%
%TO.N,GND*%
X78000000Y-77000000D03*
D19*
%TO.P,H3,2,Pin_2*%
%TO.N,Net-(H3-Pin_2)*%
X78000000Y-79540000D03*
%TO.P,H3,3,Pin_3*%
%TO.N,3V3*%
X78000000Y-82080000D03*
%TD*%
D18*
%TO.P,H1,1,Pin_1*%
%TO.N,GND*%
X88000000Y-103000000D03*
D19*
%TO.P,H1,2,Pin_2*%
%TO.N,Net-(H1-Pin_2)*%
X85460000Y-103000000D03*
%TO.P,H1,3,Pin_3*%
%TO.N,3V3*%
X82920000Y-103000000D03*
%TD*%
D15*
%TO.P,C12,1*%
%TO.N,GND*%
X91500000Y-87000000D03*
%TO.P,C12,2*%
%TO.N,Net-(C12-Pad2)*%
X96500000Y-87000000D03*
%TD*%
%TO.P,C11,2*%
%TO.N,Net-(U1-RC2)*%
X82500000Y-95000000D03*
%TO.P,C11,1*%
%TO.N,GND*%
X87500000Y-95000000D03*
%TD*%
%TO.P,C10,1*%
%TO.N,GND*%
X102000000Y-103000000D03*
%TO.P,C10,2*%
%TO.N,Net-(S1-S)*%
X97000000Y-103000000D03*
%TD*%
%TO.P,C9,2*%
%TO.N,3V3*%
X88000000Y-75000000D03*
%TO.P,C9,1*%
%TO.N,GND*%
X83000000Y-75000000D03*
%TD*%
%TO.P,C6,2*%
%TO.N,Net-(U1-RC1)*%
X82500000Y-99000000D03*
%TO.P,C6,1*%
%TO.N,GND*%
X87500000Y-99000000D03*
%TD*%
%TO.P,C5,1*%
%TO.N,GND*%
X101000000Y-100000000D03*
%TO.P,C5,2*%
%TO.N,3V3*%
X101000000Y-95000000D03*
%TD*%
%TO.P,C3,1*%
%TO.N,Net-(U1-1OUT)*%
X91500000Y-83000000D03*
%TO.P,C3,2*%
%TO.N,Net-(U1-1IN-)*%
X96500000Y-83000000D03*
%TD*%
%TO.P,C2,1*%
%TO.N,Net-(U1-1OUT)*%
X91500000Y-79000000D03*
%TO.P,C2,2*%
%TO.N,Net-(C2-Pad2)*%
X96500000Y-79000000D03*
%TD*%
%TO.P,C1,1*%
%TO.N,Net-(U1-2IN-)*%
X91500000Y-75000000D03*
%TO.P,C1,2*%
%TO.N,Net-(U1-2OUT)*%
X96500000Y-75000000D03*
%TD*%
D20*
%TO.N,GND*%
X100650000Y-86300000D03*
X100850000Y-80950000D03*
X101550000Y-74250000D03*
X92850000Y-72350000D03*
X95100000Y-69200000D03*
X89237943Y-73463469D03*
X84450000Y-98450000D03*
X81800000Y-96500000D03*
X86750000Y-89350000D03*
X88650000Y-88650000D03*
%TO.N,Net-(U1-RC1)*%
X84650000Y-83650000D03*
%TO.N,Net-(U1-2OUT)*%
X86500000Y-82350000D03*
%TD*%
D21*
%TO.N,3V3*%
X86100000Y-76000000D02*
X87100000Y-75000000D01*
X86100000Y-80194999D02*
X86100000Y-76000000D01*
X87100000Y-75000000D02*
X88000000Y-75000000D01*
X87000001Y-81095000D02*
X86100000Y-80194999D01*
X88000000Y-81095000D02*
X87000001Y-81095000D01*
D22*
X96500000Y-95000000D02*
X101000000Y-95000000D01*
D23*
%TO.N,Net-(U1-VO)*%
X85900000Y-88075001D02*
X85900000Y-90360000D01*
X83999999Y-86175000D02*
X85900000Y-88075001D01*
X85900000Y-90360000D02*
X86540000Y-91000000D01*
X83000000Y-86175000D02*
X83999999Y-86175000D01*
%TO.N,Net-(U1-RC1)*%
X83015000Y-83650000D02*
X83000000Y-83635000D01*
X84650000Y-83650000D02*
X83015000Y-83650000D01*
%TO.N,Net-(U1-RR1)*%
X84000000Y-95700000D02*
X81780000Y-97920000D01*
X84000000Y-93650000D02*
X84000000Y-95700000D01*
X81780000Y-97920000D02*
X78000000Y-97920000D01*
X81250000Y-90900000D02*
X84000000Y-93650000D01*
X82000001Y-84905000D02*
X81250000Y-85655001D01*
X83000000Y-84905000D02*
X82000001Y-84905000D01*
X81250000Y-85655001D02*
X81250000Y-90900000D01*
%TO.N,GND*%
X102000000Y-101000000D02*
X101000000Y-100000000D01*
X102000000Y-103000000D02*
X102000000Y-101000000D01*
X100790000Y-104210000D02*
X102000000Y-103000000D01*
X93210000Y-104210000D02*
X100790000Y-104210000D01*
X92000000Y-103000000D02*
X93210000Y-104210000D01*
%TO.N,Net-(H1-Pin_2)*%
X84045000Y-87445000D02*
X83000000Y-87445000D01*
X85330000Y-102870000D02*
X85330000Y-88730000D01*
X85330000Y-88730000D02*
X84045000Y-87445000D01*
X85460000Y-103000000D02*
X85330000Y-102870000D01*
%TO.N,GND*%
X92000000Y-103000000D02*
X88000000Y-103000000D01*
X91420000Y-95000000D02*
X87500000Y-95000000D01*
X87500000Y-102500000D02*
X88000000Y-103000000D01*
%TO.N,Net-(U1-RC1)*%
X78000000Y-100460000D02*
X78000000Y-103000000D01*
X79460000Y-99000000D02*
X78000000Y-100460000D01*
X82500000Y-99000000D02*
X79460000Y-99000000D01*
%TO.N,Net-(U1-RC2)*%
X80920000Y-95000000D02*
X78000000Y-92080000D01*
X82500000Y-95000000D02*
X80920000Y-95000000D01*
X78000000Y-89540000D02*
X78000000Y-92080000D01*
X81176960Y-82365000D02*
X83000000Y-82365000D01*
X79130000Y-84411960D02*
X81176960Y-82365000D01*
X78000000Y-89540000D02*
X79130000Y-88410000D01*
X79130000Y-88410000D02*
X79130000Y-84411960D01*
%TO.N,Net-(U1-RR2)*%
X81655000Y-81095000D02*
X83000000Y-81095000D01*
X78000000Y-84750000D02*
X81655000Y-81095000D01*
X78000000Y-87000000D02*
X78000000Y-84750000D01*
%TO.N,Net-(U1-2OUT)*%
X87985000Y-82350000D02*
X88000000Y-82365000D01*
X86500000Y-82350000D02*
X87985000Y-82350000D01*
%TO.N,GND*%
X83000000Y-75000000D02*
X83000000Y-79825000D01*
%TO.N,Net-(U1-VC)*%
X95260000Y-71160000D02*
X96420000Y-70000000D01*
X92836841Y-71160000D02*
X95260000Y-71160000D01*
X89730000Y-75186080D02*
X89730000Y-74266841D01*
X88000000Y-76916080D02*
X89730000Y-75186080D01*
X89730000Y-74266841D02*
X92836841Y-71160000D01*
X88000000Y-78555000D02*
X88000000Y-76916080D01*
%TO.N,Net-(U1-IB)*%
X88999999Y-79825000D02*
X88000000Y-79825000D01*
X89500000Y-79324999D02*
X88999999Y-79825000D01*
X89500000Y-76208040D02*
X89500000Y-79324999D01*
X90290000Y-75418040D02*
X89500000Y-76208040D01*
X97274580Y-73130000D02*
X91658801Y-73130000D01*
X98374580Y-74230000D02*
X97274580Y-73130000D01*
X91658801Y-73130000D02*
X90290000Y-74498801D01*
X100310000Y-74230000D02*
X98374580Y-74230000D01*
X102040000Y-72500000D02*
X100310000Y-74230000D01*
X90290000Y-74498801D02*
X90290000Y-75418040D01*
%TO.N,Net-(U1-2IN-)*%
X92810000Y-73690000D02*
X91500000Y-75000000D01*
X98202620Y-74850000D02*
X97042620Y-73690000D01*
X97042620Y-73690000D02*
X92810000Y-73690000D01*
X98938801Y-74850000D02*
X98202620Y-74850000D01*
X98998801Y-74790000D02*
X98938801Y-74850000D01*
X102040000Y-76000000D02*
X100830000Y-74790000D01*
X100830000Y-74790000D02*
X98998801Y-74790000D01*
%TO.N,Net-(S1-S)*%
X97000000Y-103000000D02*
X94540000Y-103000000D01*
X93960000Y-97540000D02*
X93960000Y-102420000D01*
X93960000Y-102420000D02*
X94540000Y-103000000D01*
X93960000Y-95410000D02*
X93960000Y-97540000D01*
X86490000Y-87940000D02*
X93960000Y-95410000D01*
X88000000Y-84905000D02*
X87000001Y-84905000D01*
X87000001Y-84905000D02*
X86490000Y-85415001D01*
X86490000Y-85415001D02*
X86490000Y-87940000D01*
%TO.N,Net-(U1-2IN-)*%
X89215000Y-83635000D02*
X88000000Y-83635000D01*
X90190000Y-82660000D02*
X89215000Y-83635000D01*
X90190000Y-76310000D02*
X90190000Y-82660000D01*
X91500000Y-75000000D02*
X90190000Y-76310000D01*
%TO.N,Net-(U1-1OUT)*%
X103350000Y-84910000D02*
X102040000Y-83600000D01*
X103350000Y-88300000D02*
X103350000Y-84910000D01*
X102650000Y-89000000D02*
X103350000Y-88300000D01*
X90500000Y-89000000D02*
X102650000Y-89000000D01*
X88945000Y-87445000D02*
X90500000Y-89000000D01*
X88000000Y-87445000D02*
X88945000Y-87445000D01*
X91500000Y-83000000D02*
X91500000Y-79000000D01*
X92810000Y-81690000D02*
X91500000Y-83000000D01*
X100130000Y-81690000D02*
X92810000Y-81690000D01*
X102040000Y-83600000D02*
X100130000Y-81690000D01*
%TO.N,Net-(U1-1IN-)*%
X90472380Y-86175000D02*
X88000000Y-86175000D01*
X93647380Y-83000000D02*
X90472380Y-86175000D01*
X96500000Y-83000000D02*
X93647380Y-83000000D01*
X102040000Y-86140000D02*
X99500000Y-83600000D01*
X102040000Y-87400000D02*
X102040000Y-86140000D01*
%TO.N,Net-(U1-2IN-)*%
X102040000Y-76000000D02*
X102040000Y-79800000D01*
%TO.N,Net-(U1-VC)*%
X99500000Y-69500000D02*
X96920000Y-69500000D01*
X96920000Y-69500000D02*
X96420000Y-70000000D01*
%TO.N,Net-(U1-2OUT)*%
X97500000Y-76000000D02*
X96500000Y-75000000D01*
X99500000Y-76000000D02*
X97500000Y-76000000D01*
%TO.N,Net-(C12-Pad2)*%
X96900000Y-87400000D02*
X96500000Y-87000000D01*
X99500000Y-87400000D02*
X96900000Y-87400000D01*
%TO.N,Net-(U1-1IN-)*%
X97100000Y-83600000D02*
X96500000Y-83000000D01*
X99500000Y-83600000D02*
X97100000Y-83600000D01*
%TO.N,Net-(C2-Pad2)*%
X97300000Y-79800000D02*
X96500000Y-79000000D01*
X99500000Y-79800000D02*
X97300000Y-79800000D01*
%TD*%
%TA.AperFunction,Conductor*%
%TO.N,GND*%
G36*
X99002702Y-65200617D02*
G01*
X99412917Y-65218528D01*
X99423654Y-65219468D01*
X99828057Y-65272708D01*
X99838695Y-65274583D01*
X100236925Y-65362869D01*
X100247365Y-65365667D01*
X100636363Y-65488317D01*
X100646524Y-65492015D01*
X101023363Y-65648108D01*
X101033155Y-65652674D01*
X101394965Y-65841020D01*
X101404305Y-65846413D01*
X101689636Y-66028189D01*
X101748309Y-66065568D01*
X101757170Y-66071772D01*
X102080766Y-66320076D01*
X102089053Y-66327030D01*
X102389767Y-66602583D01*
X102397416Y-66610232D01*
X102672969Y-66910946D01*
X102679923Y-66919233D01*
X102928227Y-67242829D01*
X102934431Y-67251690D01*
X103153578Y-67595680D01*
X103158987Y-67605048D01*
X103347322Y-67966838D01*
X103351894Y-67976642D01*
X103507983Y-68353473D01*
X103511683Y-68363639D01*
X103634331Y-68752630D01*
X103637131Y-68763078D01*
X103725414Y-69161296D01*
X103727292Y-69171950D01*
X103780529Y-69576326D01*
X103781472Y-69587102D01*
X103799382Y-69997297D01*
X103799500Y-70002706D01*
X103799500Y-84281613D01*
X103779815Y-84348652D01*
X103727011Y-84394407D01*
X103657853Y-84404351D01*
X103594297Y-84375326D01*
X103587819Y-84369294D01*
X103235651Y-84017126D01*
X103202166Y-83955803D01*
X103204065Y-83895515D01*
X103225115Y-83821536D01*
X103245643Y-83600000D01*
X103234836Y-83483377D01*
X103225115Y-83378464D01*
X103225114Y-83378462D01*
X103207554Y-83316746D01*
X103164229Y-83164472D01*
X103164224Y-83164461D01*
X103065061Y-82965316D01*
X103065056Y-82965308D01*
X102930979Y-82787761D01*
X102766562Y-82637876D01*
X102766560Y-82637874D01*
X102577404Y-82520754D01*
X102577398Y-82520752D01*
X102547917Y-82509331D01*
X102369940Y-82440382D01*
X102151243Y-82399500D01*
X101928757Y-82399500D01*
X101820313Y-82419772D01*
X101731211Y-82436428D01*
X101661696Y-82429397D01*
X101620745Y-82402220D01*
X100468016Y-81249491D01*
X100468015Y-81249490D01*
X100342485Y-81177016D01*
X100342480Y-81177014D01*
X100306875Y-81167473D01*
X100306875Y-81167474D01*
X100254674Y-81153487D01*
X100202475Y-81139500D01*
X100028953Y-81139500D01*
X99961914Y-81119815D01*
X99916159Y-81067011D01*
X99906215Y-80997853D01*
X99935240Y-80934297D01*
X99984159Y-80899873D01*
X100037401Y-80879247D01*
X100226562Y-80762124D01*
X100390981Y-80612236D01*
X100525058Y-80434689D01*
X100624229Y-80235528D01*
X100650734Y-80142371D01*
X100688013Y-80083278D01*
X100751323Y-80053721D01*
X100820562Y-80063083D01*
X100873749Y-80108393D01*
X100889266Y-80142372D01*
X100915769Y-80235523D01*
X100915775Y-80235538D01*
X101014938Y-80434683D01*
X101014943Y-80434691D01*
X101149020Y-80612238D01*
X101313437Y-80762123D01*
X101313439Y-80762125D01*
X101502595Y-80879245D01*
X101502596Y-80879245D01*
X101502599Y-80879247D01*
X101710060Y-80959618D01*
X101928757Y-81000500D01*
X101928759Y-81000500D01*
X102151241Y-81000500D01*
X102151243Y-81000500D01*
X102369940Y-80959618D01*
X102577401Y-80879247D01*
X102766562Y-80762124D01*
X102930981Y-80612236D01*
X103065058Y-80434689D01*
X103164229Y-80235528D01*
X103225115Y-80021536D01*
X103245643Y-79800000D01*
X103225115Y-79578464D01*
X103164229Y-79364472D01*
X103164224Y-79364461D01*
X103065061Y-79165316D01*
X103065056Y-79165308D01*
X102930979Y-78987761D01*
X102766563Y-78837877D01*
X102766562Y-78837876D01*
X102649222Y-78765222D01*
X102602587Y-78713194D01*
X102590500Y-78659795D01*
X102590500Y-77140203D01*
X102610185Y-77073164D01*
X102649221Y-77034777D01*
X102766562Y-76962124D01*
X102930981Y-76812236D01*
X103065058Y-76634689D01*
X103164229Y-76435528D01*
X103225115Y-76221536D01*
X103245643Y-76000000D01*
X103225115Y-75778464D01*
X103164229Y-75564472D01*
X103164224Y-75564461D01*
X103065061Y-75365316D01*
X103065056Y-75365308D01*
X102930979Y-75187761D01*
X102766562Y-75037876D01*
X102766560Y-75037874D01*
X102577404Y-74920754D01*
X102577398Y-74920752D01*
X102369940Y-74840382D01*
X102151243Y-74799500D01*
X101928757Y-74799500D01*
X101787715Y-74825865D01*
X101731211Y-74836428D01*
X101661696Y-74829397D01*
X101620745Y-74802220D01*
X101168014Y-74349489D01*
X101167598Y-74349170D01*
X101167335Y-74348810D01*
X101162268Y-74343743D01*
X101163058Y-74342952D01*
X101126397Y-74292741D01*
X101122245Y-74222995D01*
X101155405Y-74163118D01*
X101620746Y-73697777D01*
X101682067Y-73664294D01*
X101731206Y-73663571D01*
X101928757Y-73700500D01*
X101928759Y-73700500D01*
X102151241Y-73700500D01*
X102151243Y-73700500D01*
X102369940Y-73659618D01*
X102577401Y-73579247D01*
X102766562Y-73462124D01*
X102930981Y-73312236D01*
X103065058Y-73134689D01*
X103164229Y-72935528D01*
X103225115Y-72721536D01*
X103245643Y-72500000D01*
X103225115Y-72278464D01*
X103164229Y-72064472D01*
X103164224Y-72064461D01*
X103065061Y-71865316D01*
X103065056Y-71865308D01*
X102930979Y-71687761D01*
X102766562Y-71537876D01*
X102766560Y-71537874D01*
X102577404Y-71420754D01*
X102577398Y-71420752D01*
X102369940Y-71340382D01*
X102151243Y-71299500D01*
X101928757Y-71299500D01*
X101710060Y-71340382D01*
X101578864Y-71391207D01*
X101502601Y-71420752D01*
X101502595Y-71420754D01*
X101313439Y-71537874D01*
X101313437Y-71537876D01*
X101149020Y-71687761D01*
X101014943Y-71865308D01*
X101014938Y-71865316D01*
X100915775Y-72064461D01*
X100915769Y-72064476D01*
X100854885Y-72278462D01*
X100854884Y-72278464D01*
X100834357Y-72499999D01*
X100834357Y-72500000D01*
X100854884Y-72721533D01*
X100875933Y-72795513D01*
X100875345Y-72865380D01*
X100844347Y-72917127D01*
X100118294Y-73643181D01*
X100056971Y-73676666D01*
X100030613Y-73679500D01*
X98653967Y-73679500D01*
X98586928Y-73659815D01*
X98566286Y-73643181D01*
X97612596Y-72689491D01*
X97612595Y-72689490D01*
X97487065Y-72617016D01*
X97487066Y-72617016D01*
X97452062Y-72607637D01*
X97347055Y-72579500D01*
X97347052Y-72579500D01*
X92495227Y-72579500D01*
X92428188Y-72559815D01*
X92382433Y-72507011D01*
X92372489Y-72437853D01*
X92401514Y-72374297D01*
X92407546Y-72367819D01*
X93028546Y-71746819D01*
X93089869Y-71713334D01*
X93116227Y-71710500D01*
X95332472Y-71710500D01*
X95332474Y-71710500D01*
X95332475Y-71710500D01*
X95472485Y-71672984D01*
X95598015Y-71600510D01*
X96043601Y-71154922D01*
X96104922Y-71121439D01*
X96154060Y-71120716D01*
X96313390Y-71150500D01*
X96313392Y-71150500D01*
X96526608Y-71150500D01*
X96526610Y-71150500D01*
X96736198Y-71111321D01*
X96935019Y-71034298D01*
X97116302Y-70922052D01*
X97273872Y-70778407D01*
X97402366Y-70608255D01*
X97419831Y-70573181D01*
X97497403Y-70417394D01*
X97497403Y-70417393D01*
X97497405Y-70417389D01*
X97555756Y-70212310D01*
X97560320Y-70163058D01*
X97586106Y-70098121D01*
X97642907Y-70057434D01*
X97683791Y-70050500D01*
X98356244Y-70050500D01*
X98423283Y-70070185D01*
X98467243Y-70119228D01*
X98474942Y-70134689D01*
X98474943Y-70134690D01*
X98474944Y-70134692D01*
X98609020Y-70312238D01*
X98773437Y-70462123D01*
X98773439Y-70462125D01*
X98962595Y-70579245D01*
X98962596Y-70579245D01*
X98962599Y-70579247D01*
X99170060Y-70659618D01*
X99388757Y-70700500D01*
X99388759Y-70700500D01*
X99611241Y-70700500D01*
X99611243Y-70700500D01*
X99829940Y-70659618D01*
X100037401Y-70579247D01*
X100226562Y-70462124D01*
X100390981Y-70312236D01*
X100525058Y-70134689D01*
X100624229Y-69935528D01*
X100650734Y-69842371D01*
X100688013Y-69783278D01*
X100751323Y-69753721D01*
X100820562Y-69763083D01*
X100873749Y-69808393D01*
X100889266Y-69842372D01*
X100915769Y-69935523D01*
X100915775Y-69935538D01*
X101014938Y-70134683D01*
X101014943Y-70134691D01*
X101149020Y-70312238D01*
X101313437Y-70462123D01*
X101313439Y-70462125D01*
X101502595Y-70579245D01*
X101502596Y-70579245D01*
X101502599Y-70579247D01*
X101710060Y-70659618D01*
X101928757Y-70700500D01*
X101928759Y-70700500D01*
X102151241Y-70700500D01*
X102151243Y-70700500D01*
X102369940Y-70659618D01*
X102577401Y-70579247D01*
X102766562Y-70462124D01*
X102930981Y-70312236D01*
X103065058Y-70134689D01*
X103164229Y-69935528D01*
X103225115Y-69721536D01*
X103245643Y-69500000D01*
X103225115Y-69278464D01*
X103164229Y-69064472D01*
X103164224Y-69064461D01*
X103065061Y-68865316D01*
X103065056Y-68865308D01*
X102930979Y-68687761D01*
X102766562Y-68537876D01*
X102766560Y-68537874D01*
X102577404Y-68420754D01*
X102577398Y-68420752D01*
X102369940Y-68340382D01*
X102151243Y-68299500D01*
X101928757Y-68299500D01*
X101710060Y-68340382D01*
X101650027Y-68363639D01*
X101502601Y-68420752D01*
X101502595Y-68420754D01*
X101313439Y-68537874D01*
X101313437Y-68537876D01*
X101149020Y-68687761D01*
X101014943Y-68865308D01*
X101014938Y-68865316D01*
X100915775Y-69064461D01*
X100915769Y-69064476D01*
X100889266Y-69157627D01*
X100851987Y-69216721D01*
X100788677Y-69246278D01*
X100719438Y-69236916D01*
X100666251Y-69191606D01*
X100650734Y-69157627D01*
X100624230Y-69064476D01*
X100624229Y-69064472D01*
X100624224Y-69064461D01*
X100525061Y-68865316D01*
X100525056Y-68865308D01*
X100390979Y-68687761D01*
X100226562Y-68537876D01*
X100226560Y-68537874D01*
X100037404Y-68420754D01*
X100037398Y-68420752D01*
X99829940Y-68340382D01*
X99611243Y-68299500D01*
X99388757Y-68299500D01*
X99170060Y-68340382D01*
X99110027Y-68363639D01*
X98962601Y-68420752D01*
X98962595Y-68420754D01*
X98773439Y-68537874D01*
X98773437Y-68537876D01*
X98609020Y-68687761D01*
X98474944Y-68865307D01*
X98474944Y-68865308D01*
X98474942Y-68865311D01*
X98467243Y-68880771D01*
X98419744Y-68932007D01*
X98356244Y-68949500D01*
X96916377Y-68949500D01*
X96871583Y-68941127D01*
X96822699Y-68922189D01*
X96736198Y-68888679D01*
X96526610Y-68849500D01*
X96313390Y-68849500D01*
X96103802Y-68888679D01*
X96103799Y-68888679D01*
X96103799Y-68888680D01*
X95904982Y-68965701D01*
X95904980Y-68965702D01*
X95723699Y-69077947D01*
X95566127Y-69221593D01*
X95437632Y-69391746D01*
X95342596Y-69582605D01*
X95342596Y-69582607D01*
X95284244Y-69787689D01*
X95264571Y-69999999D01*
X95264571Y-70000000D01*
X95284244Y-70212311D01*
X95296402Y-70255041D01*
X95295816Y-70324908D01*
X95264817Y-70376656D01*
X95068292Y-70573182D01*
X95006972Y-70606666D01*
X94980613Y-70609500D01*
X92764366Y-70609500D01*
X92680360Y-70632009D01*
X92624354Y-70647016D01*
X92624353Y-70647017D01*
X92498830Y-70719487D01*
X92498825Y-70719491D01*
X89289491Y-73928824D01*
X89289489Y-73928826D01*
X89266362Y-73968884D01*
X89256587Y-73985817D01*
X89217016Y-74054356D01*
X89179500Y-74194366D01*
X89179500Y-74194368D01*
X89179500Y-74199859D01*
X89159815Y-74266898D01*
X89107011Y-74312653D01*
X89037853Y-74322597D01*
X88974297Y-74293572D01*
X88956546Y-74274586D01*
X88890979Y-74187761D01*
X88726562Y-74037876D01*
X88726560Y-74037874D01*
X88537404Y-73920754D01*
X88537398Y-73920752D01*
X88329940Y-73840382D01*
X88111243Y-73799500D01*
X87888757Y-73799500D01*
X87670060Y-73840382D01*
X87538864Y-73891207D01*
X87462601Y-73920752D01*
X87462595Y-73920754D01*
X87273439Y-74037874D01*
X87273437Y-74037876D01*
X87109020Y-74187762D01*
X87006664Y-74323302D01*
X86950554Y-74364938D01*
X86931905Y-74370192D01*
X86910256Y-74374498D01*
X86910253Y-74374499D01*
X86861220Y-74394810D01*
X86791881Y-74423530D01*
X86791863Y-74423540D01*
X86685332Y-74494721D01*
X86685325Y-74494727D01*
X85594724Y-75585328D01*
X85543504Y-75661986D01*
X85523535Y-75691871D01*
X85474499Y-75810255D01*
X85474497Y-75810261D01*
X85449500Y-75935928D01*
X85449500Y-80259070D01*
X85467687Y-80350500D01*
X85471153Y-80367922D01*
X85472027Y-80372314D01*
X85474499Y-80384743D01*
X85523534Y-80503126D01*
X85526198Y-80507112D01*
X85547074Y-80573790D01*
X85528588Y-80641170D01*
X85476608Y-80687858D01*
X85423094Y-80700000D01*
X84416685Y-80700000D01*
X84349646Y-80680315D01*
X84317881Y-80650926D01*
X84286594Y-80609668D01*
X84242922Y-80552078D01*
X84242920Y-80552077D01*
X84242920Y-80552076D01*
X84122343Y-80460639D01*
X83981561Y-80405122D01*
X83935926Y-80399642D01*
X83893102Y-80394500D01*
X82106898Y-80394500D01*
X82067853Y-80399188D01*
X82018438Y-80405122D01*
X81877658Y-80460638D01*
X81843744Y-80486357D01*
X81800295Y-80519304D01*
X81734986Y-80544127D01*
X81725372Y-80544500D01*
X81582525Y-80544500D01*
X81498519Y-80567009D01*
X81442513Y-80582016D01*
X81442512Y-80582017D01*
X81316989Y-80654487D01*
X81316984Y-80654491D01*
X79403377Y-82568097D01*
X79342054Y-82601582D01*
X79272362Y-82596598D01*
X79216429Y-82554726D01*
X79192012Y-82489262D01*
X79195920Y-82448328D01*
X79236207Y-82297977D01*
X79254976Y-82083437D01*
X79255277Y-82080002D01*
X79255277Y-82079997D01*
X79243261Y-81942656D01*
X79236207Y-81862023D01*
X79179575Y-81650670D01*
X79087102Y-81452362D01*
X79087100Y-81452359D01*
X79087099Y-81452357D01*
X78961599Y-81273124D01*
X78937964Y-81249489D01*
X78806877Y-81118402D01*
X78627639Y-80992898D01*
X78476414Y-80922381D01*
X78423977Y-80876210D01*
X78404825Y-80809016D01*
X78425041Y-80742135D01*
X78476414Y-80697618D01*
X78627639Y-80627102D01*
X78806877Y-80501598D01*
X78961598Y-80346877D01*
X79087102Y-80167639D01*
X79179575Y-79969330D01*
X79236207Y-79757977D01*
X79255277Y-79540000D01*
X79253240Y-79516721D01*
X79246137Y-79435528D01*
X79236207Y-79322023D01*
X79179575Y-79110670D01*
X79087102Y-78912362D01*
X79087100Y-78912359D01*
X79087099Y-78912357D01*
X78961599Y-78733124D01*
X78888270Y-78659795D01*
X78806877Y-78578402D01*
X78627639Y-78452898D01*
X78627640Y-78452898D01*
X78627638Y-78452897D01*
X78528484Y-78406661D01*
X78429330Y-78360425D01*
X78429326Y-78360424D01*
X78429322Y-78360422D01*
X78217977Y-78303793D01*
X78000002Y-78284723D01*
X77999998Y-78284723D01*
X77854682Y-78297436D01*
X77782023Y-78303793D01*
X77782020Y-78303793D01*
X77570677Y-78360422D01*
X77570670Y-78360424D01*
X77570670Y-78360425D01*
X77560192Y-78365311D01*
X77372361Y-78452898D01*
X77372357Y-78452900D01*
X77193121Y-78578402D01*
X77038402Y-78733121D01*
X76912900Y-78912357D01*
X76912898Y-78912361D01*
X76820426Y-79110668D01*
X76820422Y-79110677D01*
X76763793Y-79322020D01*
X76763793Y-79322024D01*
X76744723Y-79539997D01*
X76744723Y-79540002D01*
X76763793Y-79757975D01*
X76763793Y-79757979D01*
X76820422Y-79969322D01*
X76820424Y-79969326D01*
X76820425Y-79969330D01*
X76844769Y-80021535D01*
X76912897Y-80167638D01*
X76918546Y-80175705D01*
X77038402Y-80346877D01*
X77193123Y-80501598D01*
X77347463Y-80609668D01*
X77372361Y-80627102D01*
X77523583Y-80697618D01*
X77576022Y-80743790D01*
X77595174Y-80810984D01*
X77574958Y-80877865D01*
X77523583Y-80922382D01*
X77372361Y-80992898D01*
X77372357Y-80992900D01*
X77193121Y-81118402D01*
X77038402Y-81273121D01*
X76912900Y-81452357D01*
X76912898Y-81452361D01*
X76820426Y-81650668D01*
X76820422Y-81650677D01*
X76763793Y-81862020D01*
X76763793Y-81862024D01*
X76744723Y-82079997D01*
X76744723Y-82080002D01*
X76745024Y-82083437D01*
X76759012Y-82243334D01*
X76763793Y-82297975D01*
X76763793Y-82297979D01*
X76820422Y-82509322D01*
X76820424Y-82509326D01*
X76820425Y-82509330D01*
X76846133Y-82564461D01*
X76912897Y-82707638D01*
X76912898Y-82707639D01*
X77038402Y-82886877D01*
X77193123Y-83041598D01*
X77372361Y-83167102D01*
X77570670Y-83259575D01*
X77782023Y-83316207D01*
X77964926Y-83332208D01*
X77999998Y-83335277D01*
X78000000Y-83335277D01*
X78000002Y-83335277D01*
X78028254Y-83332805D01*
X78217977Y-83316207D01*
X78368325Y-83275921D01*
X78438172Y-83277584D01*
X78496034Y-83316746D01*
X78523539Y-83380974D01*
X78511953Y-83449877D01*
X78488097Y-83483377D01*
X77559489Y-84411985D01*
X77539511Y-84446590D01*
X77517662Y-84484434D01*
X77504149Y-84507838D01*
X77487017Y-84537512D01*
X77487016Y-84537513D01*
X77473607Y-84587556D01*
X77449500Y-84677525D01*
X77449500Y-84677527D01*
X77449500Y-85953889D01*
X77429815Y-86020928D01*
X77390777Y-86059316D01*
X77321856Y-86101989D01*
X77321854Y-86101991D01*
X77168392Y-86241889D01*
X77168390Y-86241892D01*
X77043252Y-86407602D01*
X76950693Y-86593484D01*
X76950688Y-86593497D01*
X76893859Y-86793227D01*
X76874700Y-86999999D01*
X76874700Y-87000000D01*
X76893859Y-87206772D01*
X76950688Y-87406502D01*
X76950693Y-87406515D01*
X77043252Y-87592397D01*
X77168390Y-87758107D01*
X77168392Y-87758110D01*
X77321850Y-87898005D01*
X77321852Y-87898006D01*
X77321855Y-87898009D01*
X77406632Y-87950500D01*
X77498407Y-88007325D01*
X77498409Y-88007326D01*
X77498411Y-88007327D01*
X77692047Y-88082342D01*
X77896170Y-88120500D01*
X77896172Y-88120500D01*
X78103828Y-88120500D01*
X78103830Y-88120500D01*
X78307953Y-88082342D01*
X78365738Y-88059955D01*
X78435358Y-88054094D01*
X78497098Y-88086804D01*
X78531353Y-88147700D01*
X78527248Y-88217449D01*
X78498210Y-88263264D01*
X78350686Y-88410788D01*
X78289363Y-88444273D01*
X78240220Y-88444995D01*
X78103830Y-88419500D01*
X77896170Y-88419500D01*
X77692047Y-88457658D01*
X77498416Y-88532670D01*
X77498407Y-88532674D01*
X77321856Y-88641990D01*
X77321850Y-88641994D01*
X77168392Y-88781889D01*
X77168390Y-88781892D01*
X77043252Y-88947602D01*
X76950693Y-89133484D01*
X76950688Y-89133497D01*
X76893859Y-89333227D01*
X76874700Y-89539999D01*
X76874700Y-89540000D01*
X76893859Y-89746772D01*
X76950688Y-89946502D01*
X76950693Y-89946515D01*
X77043252Y-90132397D01*
X77168390Y-90298107D01*
X77168392Y-90298110D01*
X77321851Y-90438006D01*
X77321853Y-90438007D01*
X77321855Y-90438009D01*
X77390778Y-90480683D01*
X77437412Y-90532708D01*
X77449500Y-90586109D01*
X77449500Y-91033889D01*
X77429815Y-91100928D01*
X77390777Y-91139316D01*
X77321856Y-91181989D01*
X77321854Y-91181991D01*
X77168392Y-91321889D01*
X77168390Y-91321892D01*
X77043252Y-91487602D01*
X76950693Y-91673484D01*
X76950688Y-91673497D01*
X76893859Y-91873227D01*
X76874700Y-92079999D01*
X76874700Y-92080000D01*
X76893859Y-92286772D01*
X76950688Y-92486502D01*
X76950693Y-92486515D01*
X77043252Y-92672397D01*
X77168390Y-92838107D01*
X77168392Y-92838110D01*
X77321850Y-92978005D01*
X77321852Y-92978006D01*
X77321855Y-92978009D01*
X77421609Y-93039774D01*
X77498407Y-93087325D01*
X77498409Y-93087326D01*
X77498411Y-93087327D01*
X77692047Y-93162342D01*
X77896170Y-93200500D01*
X77896172Y-93200500D01*
X78103827Y-93200500D01*
X78103830Y-93200500D01*
X78240221Y-93175003D01*
X78309734Y-93182034D01*
X78350686Y-93209211D01*
X80581986Y-95440510D01*
X80581987Y-95440511D01*
X80581989Y-95440512D01*
X80639854Y-95473920D01*
X80702847Y-95510289D01*
X80707515Y-95512984D01*
X80847525Y-95550500D01*
X80847526Y-95550500D01*
X80992474Y-95550500D01*
X81356244Y-95550500D01*
X81423283Y-95570185D01*
X81467243Y-95619228D01*
X81474942Y-95634689D01*
X81474943Y-95634690D01*
X81474944Y-95634692D01*
X81609020Y-95812238D01*
X81773437Y-95962123D01*
X81773439Y-95962125D01*
X81962595Y-96079245D01*
X81962596Y-96079245D01*
X81962599Y-96079247D01*
X82170060Y-96159618D01*
X82388757Y-96200500D01*
X82388759Y-96200500D01*
X82421612Y-96200500D01*
X82488651Y-96220185D01*
X82534406Y-96272989D01*
X82544350Y-96342147D01*
X82515325Y-96405703D01*
X82509293Y-96412181D01*
X81588294Y-97333181D01*
X81526971Y-97366666D01*
X81500613Y-97369500D01*
X79050131Y-97369500D01*
X78983092Y-97349815D01*
X78951177Y-97320226D01*
X78831609Y-97161892D01*
X78831607Y-97161889D01*
X78678149Y-97021994D01*
X78678143Y-97021990D01*
X78501592Y-96912674D01*
X78501583Y-96912670D01*
X78411389Y-96877729D01*
X78307953Y-96837658D01*
X78103830Y-96799500D01*
X77896170Y-96799500D01*
X77692047Y-96837658D01*
X77498416Y-96912670D01*
X77498407Y-96912674D01*
X77321856Y-97021990D01*
X77321850Y-97021994D01*
X77168392Y-97161889D01*
X77168390Y-97161892D01*
X77043252Y-97327602D01*
X76950693Y-97513484D01*
X76950688Y-97513497D01*
X76893859Y-97713227D01*
X76874700Y-97919999D01*
X76874700Y-97920000D01*
X76893859Y-98126772D01*
X76950688Y-98326502D01*
X76950693Y-98326515D01*
X77043252Y-98512397D01*
X77168390Y-98678107D01*
X77168392Y-98678110D01*
X77321850Y-98818005D01*
X77321852Y-98818006D01*
X77321855Y-98818009D01*
X77421609Y-98879774D01*
X77498407Y-98927325D01*
X77498409Y-98927326D01*
X77498411Y-98927327D01*
X77692047Y-99002342D01*
X77896170Y-99040500D01*
X77896172Y-99040500D01*
X78103828Y-99040500D01*
X78103830Y-99040500D01*
X78307953Y-99002342D01*
X78365735Y-98979956D01*
X78435357Y-98974094D01*
X78497097Y-99006803D01*
X78531352Y-99067700D01*
X78527247Y-99137449D01*
X78498209Y-99183264D01*
X78350684Y-99330789D01*
X78289364Y-99364273D01*
X78240220Y-99364995D01*
X78103830Y-99339500D01*
X77896170Y-99339500D01*
X77692047Y-99377658D01*
X77498416Y-99452670D01*
X77498407Y-99452674D01*
X77321856Y-99561990D01*
X77321850Y-99561994D01*
X77168392Y-99701889D01*
X77168390Y-99701892D01*
X77043252Y-99867602D01*
X76950693Y-100053484D01*
X76950688Y-100053497D01*
X76893859Y-100253227D01*
X76874700Y-100459999D01*
X76874700Y-100460000D01*
X76893859Y-100666772D01*
X76950688Y-100866502D01*
X76950693Y-100866515D01*
X77043252Y-101052397D01*
X77168390Y-101218107D01*
X77168392Y-101218110D01*
X77321851Y-101358006D01*
X77321853Y-101358007D01*
X77321855Y-101358009D01*
X77390778Y-101400683D01*
X77437412Y-101452708D01*
X77449500Y-101506109D01*
X77449500Y-101953889D01*
X77429815Y-102020928D01*
X77390777Y-102059316D01*
X77321856Y-102101989D01*
X77321854Y-102101991D01*
X77168392Y-102241889D01*
X77168390Y-102241892D01*
X77043252Y-102407602D01*
X76950693Y-102593484D01*
X76950688Y-102593497D01*
X76893859Y-102793227D01*
X76874700Y-102999999D01*
X76874700Y-103000000D01*
X76893859Y-103206772D01*
X76950688Y-103406502D01*
X76950693Y-103406515D01*
X77043252Y-103592397D01*
X77168390Y-103758107D01*
X77168392Y-103758110D01*
X77321850Y-103898005D01*
X77321852Y-103898006D01*
X77321855Y-103898009D01*
X77421609Y-103959774D01*
X77498407Y-104007325D01*
X77498409Y-104007326D01*
X77498411Y-104007327D01*
X77692047Y-104082342D01*
X77896170Y-104120500D01*
X77896172Y-104120500D01*
X78103828Y-104120500D01*
X78103830Y-104120500D01*
X78307953Y-104082342D01*
X78501589Y-104007327D01*
X78678145Y-103898009D01*
X78831607Y-103758110D01*
X78924814Y-103634683D01*
X78956747Y-103592397D01*
X78956747Y-103592395D01*
X78956749Y-103592394D01*
X79049311Y-103406505D01*
X79106140Y-103206773D01*
X79125300Y-103000000D01*
X79106140Y-102793227D01*
X79049311Y-102593495D01*
X79040610Y-102576022D01*
X78956747Y-102407602D01*
X78831609Y-102241892D01*
X78831607Y-102241889D01*
X78678145Y-102101991D01*
X78678143Y-102101989D01*
X78609223Y-102059316D01*
X78562587Y-102007288D01*
X78550500Y-101953889D01*
X78550500Y-101506109D01*
X78570185Y-101439070D01*
X78609220Y-101400684D01*
X78678145Y-101358009D01*
X78831607Y-101218110D01*
X78956749Y-101052394D01*
X79049311Y-100866505D01*
X79106140Y-100666773D01*
X79125300Y-100460000D01*
X79106140Y-100253227D01*
X79099315Y-100229239D01*
X79099899Y-100159376D01*
X79130897Y-100107626D01*
X79651706Y-99586819D01*
X79713029Y-99553334D01*
X79739387Y-99550500D01*
X81356244Y-99550500D01*
X81423283Y-99570185D01*
X81467243Y-99619228D01*
X81474942Y-99634689D01*
X81474943Y-99634690D01*
X81474944Y-99634692D01*
X81609020Y-99812238D01*
X81773437Y-99962123D01*
X81773439Y-99962125D01*
X81962595Y-100079245D01*
X81962596Y-100079245D01*
X81962599Y-100079247D01*
X82170060Y-100159618D01*
X82388757Y-100200500D01*
X82388759Y-100200500D01*
X82611241Y-100200500D01*
X82611243Y-100200500D01*
X82829940Y-100159618D01*
X83037401Y-100079247D01*
X83226562Y-99962124D01*
X83390981Y-99812236D01*
X83525058Y-99634689D01*
X83624229Y-99435528D01*
X83685115Y-99221536D01*
X83705643Y-99000000D01*
X83703242Y-98974094D01*
X83685115Y-98778464D01*
X83685114Y-98778462D01*
X83624230Y-98564476D01*
X83624229Y-98564472D01*
X83624224Y-98564461D01*
X83525061Y-98365316D01*
X83525056Y-98365308D01*
X83390979Y-98187761D01*
X83226562Y-98037876D01*
X83226560Y-98037874D01*
X83037404Y-97920754D01*
X83037398Y-97920751D01*
X82869147Y-97855571D01*
X82813745Y-97812998D01*
X82790155Y-97747231D01*
X82805866Y-97679151D01*
X82826256Y-97652267D01*
X84440510Y-96038015D01*
X84512984Y-95912485D01*
X84535725Y-95827614D01*
X84572091Y-95767954D01*
X84634938Y-95737426D01*
X84704313Y-95745721D01*
X84758191Y-95790207D01*
X84779465Y-95856759D01*
X84779500Y-95859709D01*
X84779500Y-101885361D01*
X84759815Y-101952400D01*
X84726624Y-101986936D01*
X84653118Y-102038405D01*
X84498402Y-102193121D01*
X84372900Y-102372357D01*
X84372898Y-102372361D01*
X84302382Y-102523583D01*
X84256209Y-102576022D01*
X84189016Y-102595174D01*
X84122135Y-102574958D01*
X84077618Y-102523583D01*
X84033893Y-102429815D01*
X84007102Y-102372362D01*
X84007100Y-102372359D01*
X84007099Y-102372357D01*
X83881599Y-102193124D01*
X83876236Y-102187761D01*
X83726877Y-102038402D01*
X83547639Y-101912898D01*
X83547640Y-101912898D01*
X83547638Y-101912897D01*
X83412095Y-101849693D01*
X83349330Y-101820425D01*
X83349326Y-101820424D01*
X83349322Y-101820422D01*
X83137977Y-101763793D01*
X82920002Y-101744723D01*
X82919998Y-101744723D01*
X82774682Y-101757436D01*
X82702023Y-101763793D01*
X82702020Y-101763793D01*
X82490677Y-101820422D01*
X82490668Y-101820426D01*
X82292361Y-101912898D01*
X82292357Y-101912900D01*
X82113121Y-102038402D01*
X81958402Y-102193121D01*
X81832900Y-102372357D01*
X81832898Y-102372361D01*
X81740426Y-102570668D01*
X81740422Y-102570677D01*
X81683793Y-102782020D01*
X81683793Y-102782024D01*
X81664723Y-102999997D01*
X81664723Y-103000002D01*
X81683793Y-103217975D01*
X81683793Y-103217979D01*
X81740422Y-103429322D01*
X81740424Y-103429326D01*
X81740425Y-103429330D01*
X81743320Y-103435538D01*
X81832897Y-103627638D01*
X81857998Y-103663486D01*
X81958402Y-103806877D01*
X82113123Y-103961598D01*
X82292361Y-104087102D01*
X82490670Y-104179575D01*
X82702023Y-104236207D01*
X82884926Y-104252208D01*
X82919998Y-104255277D01*
X82920000Y-104255277D01*
X82920002Y-104255277D01*
X82948254Y-104252805D01*
X83137977Y-104236207D01*
X83349330Y-104179575D01*
X83547639Y-104087102D01*
X83726877Y-103961598D01*
X83881598Y-103806877D01*
X84007102Y-103627639D01*
X84077618Y-103476414D01*
X84123790Y-103423977D01*
X84190984Y-103404825D01*
X84257865Y-103425041D01*
X84302381Y-103476414D01*
X84372898Y-103627639D01*
X84498402Y-103806877D01*
X84653123Y-103961598D01*
X84832361Y-104087102D01*
X85030670Y-104179575D01*
X85242023Y-104236207D01*
X85424926Y-104252208D01*
X85459998Y-104255277D01*
X85460000Y-104255277D01*
X85460002Y-104255277D01*
X85488254Y-104252805D01*
X85677977Y-104236207D01*
X85889330Y-104179575D01*
X86087639Y-104087102D01*
X86266877Y-103961598D01*
X86421598Y-103806877D01*
X86547102Y-103627639D01*
X86639575Y-103429330D01*
X86696207Y-103217977D01*
X86715277Y-103000000D01*
X86696207Y-102782023D01*
X86646141Y-102595174D01*
X86639577Y-102570677D01*
X86639576Y-102570676D01*
X86639575Y-102570670D01*
X86547102Y-102372362D01*
X86547100Y-102372359D01*
X86547099Y-102372357D01*
X86421599Y-102193124D01*
X86416236Y-102187761D01*
X86266877Y-102038402D01*
X86087639Y-101912898D01*
X86087640Y-101912898D01*
X86087638Y-101912897D01*
X85952095Y-101849693D01*
X85899656Y-101803521D01*
X85880500Y-101737311D01*
X85880500Y-92212963D01*
X85900185Y-92145924D01*
X85952989Y-92100169D01*
X86022147Y-92090225D01*
X86049287Y-92097334D01*
X86210060Y-92159618D01*
X86428757Y-92200500D01*
X86428759Y-92200500D01*
X86651241Y-92200500D01*
X86651243Y-92200500D01*
X86869940Y-92159618D01*
X87077401Y-92079247D01*
X87266562Y-91962124D01*
X87430981Y-91812236D01*
X87565058Y-91634689D01*
X87664229Y-91435528D01*
X87725115Y-91221536D01*
X87745643Y-91000000D01*
X87743092Y-90972475D01*
X87725115Y-90778464D01*
X87725114Y-90778462D01*
X87664230Y-90564476D01*
X87664229Y-90564472D01*
X87664224Y-90564461D01*
X87565061Y-90365316D01*
X87565056Y-90365308D01*
X87430979Y-90187761D01*
X87266562Y-90037876D01*
X87266560Y-90037874D01*
X87077404Y-89920754D01*
X87077398Y-89920752D01*
X86869940Y-89840382D01*
X86651243Y-89799500D01*
X86651241Y-89799500D01*
X86574500Y-89799500D01*
X86507461Y-89779815D01*
X86461706Y-89727011D01*
X86450500Y-89675500D01*
X86450500Y-88978387D01*
X86470185Y-88911348D01*
X86522989Y-88865593D01*
X86592147Y-88855649D01*
X86655703Y-88884674D01*
X86662181Y-88890706D01*
X93373181Y-95601706D01*
X93406666Y-95663029D01*
X93409500Y-95689387D01*
X93409500Y-96638845D01*
X93389815Y-96705884D01*
X93364165Y-96734698D01*
X93249116Y-96829116D01*
X93124090Y-96981460D01*
X93124086Y-96981467D01*
X93031188Y-97155266D01*
X92973975Y-97343870D01*
X92954659Y-97540000D01*
X92973975Y-97736129D01*
X92973976Y-97736132D01*
X93029980Y-97920753D01*
X93031188Y-97924733D01*
X93124086Y-98098532D01*
X93124090Y-98098539D01*
X93197316Y-98187764D01*
X93249117Y-98250883D01*
X93364165Y-98345301D01*
X93403499Y-98403045D01*
X93409500Y-98441153D01*
X93409500Y-102347526D01*
X93409500Y-102492474D01*
X93412596Y-102504030D01*
X93413613Y-102507825D01*
X93413103Y-102573845D01*
X93354884Y-102778466D01*
X93334357Y-102999999D01*
X93334357Y-103000000D01*
X93354884Y-103221535D01*
X93354885Y-103221537D01*
X93415769Y-103435523D01*
X93415775Y-103435538D01*
X93514938Y-103634683D01*
X93514943Y-103634691D01*
X93649020Y-103812238D01*
X93813437Y-103962123D01*
X93813439Y-103962125D01*
X94002595Y-104079245D01*
X94002596Y-104079245D01*
X94002599Y-104079247D01*
X94210060Y-104159618D01*
X94428757Y-104200500D01*
X94428759Y-104200500D01*
X94651241Y-104200500D01*
X94651243Y-104200500D01*
X94869940Y-104159618D01*
X95077401Y-104079247D01*
X95266562Y-103962124D01*
X95430981Y-103812236D01*
X95565058Y-103634689D01*
X95572756Y-103619228D01*
X95620256Y-103567993D01*
X95683756Y-103550500D01*
X95856244Y-103550500D01*
X95923283Y-103570185D01*
X95967243Y-103619228D01*
X95974942Y-103634689D01*
X95974943Y-103634690D01*
X95974944Y-103634692D01*
X96109020Y-103812238D01*
X96273437Y-103962123D01*
X96273439Y-103962125D01*
X96462595Y-104079245D01*
X96462596Y-104079245D01*
X96462599Y-104079247D01*
X96670060Y-104159618D01*
X96888757Y-104200500D01*
X96888759Y-104200500D01*
X97111241Y-104200500D01*
X97111243Y-104200500D01*
X97329940Y-104159618D01*
X97537401Y-104079247D01*
X97726562Y-103962124D01*
X97890981Y-103812236D01*
X98025058Y-103634689D01*
X98124229Y-103435528D01*
X98185115Y-103221536D01*
X98205643Y-103000000D01*
X98185115Y-102778464D01*
X98124229Y-102564472D01*
X98124224Y-102564461D01*
X98025061Y-102365316D01*
X98025056Y-102365308D01*
X97890979Y-102187761D01*
X97726562Y-102037876D01*
X97726560Y-102037874D01*
X97537404Y-101920754D01*
X97537398Y-101920752D01*
X97329940Y-101840382D01*
X97111243Y-101799500D01*
X96888757Y-101799500D01*
X96670060Y-101840382D01*
X96646026Y-101849693D01*
X96462601Y-101920752D01*
X96462595Y-101920754D01*
X96273439Y-102037874D01*
X96273437Y-102037876D01*
X96109020Y-102187761D01*
X95974944Y-102365307D01*
X95974944Y-102365308D01*
X95974942Y-102365311D01*
X95967243Y-102380771D01*
X95919744Y-102432007D01*
X95856244Y-102449500D01*
X95683756Y-102449500D01*
X95616717Y-102429815D01*
X95572756Y-102380771D01*
X95565058Y-102365311D01*
X95472091Y-102242202D01*
X95430979Y-102187761D01*
X95266562Y-102037876D01*
X95266560Y-102037874D01*
X95077404Y-101920754D01*
X95077398Y-101920752D01*
X94869940Y-101840382D01*
X94651243Y-101799500D01*
X94651241Y-101799500D01*
X94634500Y-101799500D01*
X94567461Y-101779815D01*
X94521706Y-101727011D01*
X94510500Y-101675500D01*
X94510500Y-98441153D01*
X94530185Y-98374114D01*
X94555832Y-98345303D01*
X94670883Y-98250883D01*
X94795910Y-98098538D01*
X94888814Y-97924727D01*
X94946024Y-97736132D01*
X94965341Y-97540000D01*
X94946024Y-97343868D01*
X94888814Y-97155273D01*
X94888811Y-97155269D01*
X94888811Y-97155266D01*
X94795913Y-96981467D01*
X94795909Y-96981460D01*
X94670883Y-96829116D01*
X94555835Y-96734698D01*
X94516501Y-96676952D01*
X94510500Y-96638845D01*
X94510500Y-95337527D01*
X94510500Y-95337525D01*
X94472984Y-95197515D01*
X94466924Y-95187020D01*
X94466923Y-95187015D01*
X94466922Y-95187016D01*
X94415843Y-95098543D01*
X95299499Y-95098543D01*
X95337947Y-95291829D01*
X95337950Y-95291839D01*
X95413364Y-95473907D01*
X95413371Y-95473920D01*
X95522860Y-95637781D01*
X95522863Y-95637785D01*
X95662214Y-95777136D01*
X95662218Y-95777139D01*
X95826079Y-95886628D01*
X95826092Y-95886635D01*
X95937698Y-95932863D01*
X96008165Y-95962051D01*
X96008169Y-95962051D01*
X96008170Y-95962052D01*
X96201456Y-96000500D01*
X96201459Y-96000500D01*
X96798543Y-96000500D01*
X96928582Y-95974632D01*
X96991835Y-95962051D01*
X97053007Y-95936712D01*
X97117646Y-95909939D01*
X97165098Y-95900500D01*
X100157802Y-95900500D01*
X100224841Y-95920185D01*
X100241336Y-95932859D01*
X100273438Y-95962124D01*
X100273440Y-95962125D01*
X100273441Y-95962126D01*
X100462595Y-96079245D01*
X100462596Y-96079245D01*
X100462599Y-96079247D01*
X100670060Y-96159618D01*
X100888757Y-96200500D01*
X100888759Y-96200500D01*
X101111241Y-96200500D01*
X101111243Y-96200500D01*
X101329940Y-96159618D01*
X101537401Y-96079247D01*
X101726562Y-95962124D01*
X101890981Y-95812236D01*
X102025058Y-95634689D01*
X102124229Y-95435528D01*
X102185115Y-95221536D01*
X102205643Y-95000000D01*
X102185115Y-94778464D01*
X102124229Y-94564472D01*
X102105115Y-94526086D01*
X102025061Y-94365316D01*
X102025056Y-94365308D01*
X101890979Y-94187761D01*
X101726562Y-94037876D01*
X101726560Y-94037874D01*
X101537404Y-93920754D01*
X101537398Y-93920752D01*
X101329940Y-93840382D01*
X101111243Y-93799500D01*
X100888757Y-93799500D01*
X100670060Y-93840382D01*
X100538864Y-93891207D01*
X100462601Y-93920752D01*
X100462595Y-93920754D01*
X100273441Y-94037873D01*
X100273438Y-94037876D01*
X100241339Y-94067137D01*
X100178536Y-94097754D01*
X100157802Y-94099500D01*
X97165098Y-94099500D01*
X97117646Y-94090061D01*
X96991839Y-94037950D01*
X96991829Y-94037947D01*
X96798543Y-93999500D01*
X96798541Y-93999500D01*
X96201459Y-93999500D01*
X96201457Y-93999500D01*
X96008170Y-94037947D01*
X96008160Y-94037950D01*
X95826092Y-94113364D01*
X95826079Y-94113371D01*
X95662218Y-94222860D01*
X95662214Y-94222863D01*
X95522863Y-94362214D01*
X95522860Y-94362218D01*
X95413371Y-94526079D01*
X95413364Y-94526092D01*
X95337950Y-94708160D01*
X95337947Y-94708170D01*
X95299500Y-94901456D01*
X95299500Y-94901459D01*
X95299500Y-95098541D01*
X95299500Y-95098543D01*
X95299499Y-95098543D01*
X94415843Y-95098543D01*
X94400510Y-95071985D01*
X87685706Y-88357181D01*
X87652221Y-88295858D01*
X87657205Y-88226166D01*
X87699077Y-88170233D01*
X87764541Y-88145816D01*
X87773387Y-88145500D01*
X88815613Y-88145500D01*
X88882652Y-88165185D01*
X88903294Y-88181819D01*
X90161985Y-89440510D01*
X90287515Y-89512984D01*
X90427525Y-89550500D01*
X90427526Y-89550500D01*
X90427528Y-89550500D01*
X102722472Y-89550500D01*
X102722474Y-89550500D01*
X102722475Y-89550500D01*
X102862485Y-89512984D01*
X102988015Y-89440510D01*
X103587819Y-88840704D01*
X103649142Y-88807220D01*
X103718833Y-88812204D01*
X103774767Y-88854075D01*
X103799184Y-88919540D01*
X103799500Y-88928386D01*
X103799500Y-100997293D01*
X103799382Y-101002702D01*
X103781472Y-101412897D01*
X103780529Y-101423673D01*
X103727292Y-101828049D01*
X103725414Y-101838703D01*
X103637131Y-102236921D01*
X103634331Y-102247369D01*
X103511683Y-102636360D01*
X103507983Y-102646526D01*
X103351894Y-103023357D01*
X103347322Y-103033161D01*
X103158987Y-103394951D01*
X103153578Y-103404319D01*
X102934431Y-103748309D01*
X102928227Y-103757170D01*
X102679923Y-104080766D01*
X102672969Y-104089053D01*
X102397416Y-104389767D01*
X102389767Y-104397416D01*
X102089053Y-104672969D01*
X102080766Y-104679923D01*
X101757170Y-104928227D01*
X101748309Y-104934431D01*
X101404319Y-105153578D01*
X101394951Y-105158987D01*
X101033161Y-105347322D01*
X101023357Y-105351894D01*
X100646526Y-105507983D01*
X100636360Y-105511683D01*
X100247369Y-105634331D01*
X100236921Y-105637131D01*
X99838703Y-105725414D01*
X99828049Y-105727292D01*
X99423673Y-105780529D01*
X99412897Y-105781472D01*
X99002703Y-105799382D01*
X98997294Y-105799500D01*
X80002706Y-105799500D01*
X79997297Y-105799382D01*
X79587102Y-105781472D01*
X79576326Y-105780529D01*
X79171950Y-105727292D01*
X79161296Y-105725414D01*
X78763078Y-105637131D01*
X78752630Y-105634331D01*
X78363639Y-105511683D01*
X78353473Y-105507983D01*
X77976642Y-105351894D01*
X77966838Y-105347322D01*
X77847126Y-105285004D01*
X77605042Y-105158983D01*
X77595686Y-105153582D01*
X77423685Y-105044004D01*
X77251690Y-104934431D01*
X77242829Y-104928227D01*
X76919233Y-104679923D01*
X76910946Y-104672969D01*
X76610232Y-104397416D01*
X76602583Y-104389767D01*
X76327030Y-104089053D01*
X76320076Y-104080766D01*
X76071772Y-103757170D01*
X76065568Y-103748309D01*
X75993180Y-103634683D01*
X75846413Y-103404305D01*
X75841020Y-103394965D01*
X75652674Y-103033155D01*
X75648105Y-103023357D01*
X75638430Y-103000000D01*
X75492015Y-102646524D01*
X75488316Y-102636360D01*
X75474801Y-102593497D01*
X75365667Y-102247365D01*
X75362868Y-102236921D01*
X75274583Y-101838695D01*
X75272707Y-101828049D01*
X75219468Y-101423654D01*
X75218528Y-101412917D01*
X75200618Y-101002702D01*
X75200500Y-100997293D01*
X75200500Y-70002706D01*
X75200618Y-69997297D01*
X75202241Y-69960118D01*
X75218528Y-69587080D01*
X75219468Y-69576347D01*
X75272709Y-69171938D01*
X75274582Y-69161308D01*
X75362870Y-68763068D01*
X75365668Y-68752630D01*
X75488319Y-68363629D01*
X75492016Y-68353473D01*
X75648111Y-67976627D01*
X75652669Y-67966853D01*
X75841025Y-67605024D01*
X75846407Y-67595703D01*
X76065574Y-67251680D01*
X76071765Y-67242837D01*
X76320083Y-66919224D01*
X76327021Y-66910955D01*
X76602594Y-66610220D01*
X76610220Y-66602594D01*
X76910955Y-66327021D01*
X76919224Y-66320083D01*
X77242837Y-66071765D01*
X77251680Y-66065574D01*
X77595703Y-65846407D01*
X77605024Y-65841025D01*
X77966853Y-65652669D01*
X77976627Y-65648111D01*
X78353482Y-65492012D01*
X78363629Y-65488319D01*
X78752639Y-65365665D01*
X78763068Y-65362870D01*
X79161308Y-65274582D01*
X79171938Y-65272709D01*
X79576347Y-65219468D01*
X79587080Y-65218528D01*
X79997297Y-65200617D01*
X80002706Y-65200500D01*
X80039882Y-65200500D01*
X98960118Y-65200500D01*
X98997294Y-65200500D01*
X99002702Y-65200617D01*
G37*
%TD.AperFunction*%
%TA.AperFunction,Conductor*%
G36*
X95423283Y-83570185D02*
G01*
X95467243Y-83619228D01*
X95474942Y-83634689D01*
X95474943Y-83634690D01*
X95474944Y-83634692D01*
X95609020Y-83812238D01*
X95773437Y-83962123D01*
X95773439Y-83962125D01*
X95962595Y-84079245D01*
X95962596Y-84079245D01*
X95962599Y-84079247D01*
X96170060Y-84159618D01*
X96388757Y-84200500D01*
X96388759Y-84200500D01*
X96611241Y-84200500D01*
X96611243Y-84200500D01*
X96829940Y-84159618D01*
X96886872Y-84137561D01*
X96956492Y-84131699D01*
X96963739Y-84133408D01*
X97027525Y-84150500D01*
X97027526Y-84150500D01*
X97172474Y-84150500D01*
X98356244Y-84150500D01*
X98423283Y-84170185D01*
X98467243Y-84219228D01*
X98474942Y-84234689D01*
X98474943Y-84234690D01*
X98474944Y-84234692D01*
X98609020Y-84412238D01*
X98773437Y-84562123D01*
X98773439Y-84562125D01*
X98962595Y-84679245D01*
X98962596Y-84679245D01*
X98962599Y-84679247D01*
X99170060Y-84759618D01*
X99388757Y-84800500D01*
X99388759Y-84800500D01*
X99611240Y-84800500D01*
X99611243Y-84800500D01*
X99808791Y-84763571D01*
X99878302Y-84770602D01*
X99919254Y-84797779D01*
X101354617Y-86233142D01*
X101388102Y-86294465D01*
X101383118Y-86364157D01*
X101341246Y-86420090D01*
X101332215Y-86426249D01*
X101313438Y-86437875D01*
X101313437Y-86437876D01*
X101149020Y-86587761D01*
X101014943Y-86765308D01*
X101014938Y-86765316D01*
X100915775Y-86964461D01*
X100915769Y-86964476D01*
X100889266Y-87057627D01*
X100851987Y-87116721D01*
X100788677Y-87146278D01*
X100719438Y-87136916D01*
X100666251Y-87091606D01*
X100650734Y-87057627D01*
X100624230Y-86964476D01*
X100624229Y-86964472D01*
X100604288Y-86924425D01*
X100525061Y-86765316D01*
X100525056Y-86765308D01*
X100390979Y-86587761D01*
X100226562Y-86437876D01*
X100226560Y-86437874D01*
X100037404Y-86320754D01*
X100037398Y-86320752D01*
X99829940Y-86240382D01*
X99611243Y-86199500D01*
X99388757Y-86199500D01*
X99170060Y-86240382D01*
X99038864Y-86291207D01*
X98962601Y-86320752D01*
X98962595Y-86320754D01*
X98773439Y-86437874D01*
X98773437Y-86437876D01*
X98609020Y-86587761D01*
X98474944Y-86765307D01*
X98474944Y-86765308D01*
X98474942Y-86765311D01*
X98467243Y-86780771D01*
X98419744Y-86832007D01*
X98356244Y-86849500D01*
X97798967Y-86849500D01*
X97731928Y-86829815D01*
X97686173Y-86777011D01*
X97679701Y-86759435D01*
X97659371Y-86687983D01*
X97624229Y-86564472D01*
X97624224Y-86564461D01*
X97525061Y-86365316D01*
X97525056Y-86365308D01*
X97390979Y-86187761D01*
X97226562Y-86037876D01*
X97226560Y-86037874D01*
X97037404Y-85920754D01*
X97037398Y-85920752D01*
X96829940Y-85840382D01*
X96611243Y-85799500D01*
X96388757Y-85799500D01*
X96170060Y-85840382D01*
X96038864Y-85891207D01*
X95962601Y-85920752D01*
X95962595Y-85920754D01*
X95773439Y-86037874D01*
X95773437Y-86037876D01*
X95609020Y-86187761D01*
X95474943Y-86365308D01*
X95474938Y-86365316D01*
X95375775Y-86564461D01*
X95375769Y-86564476D01*
X95314885Y-86778462D01*
X95314884Y-86778464D01*
X95294357Y-86999999D01*
X95294357Y-87000000D01*
X95314884Y-87221535D01*
X95314885Y-87221537D01*
X95375769Y-87435523D01*
X95375775Y-87435538D01*
X95474938Y-87634683D01*
X95474943Y-87634691D01*
X95609020Y-87812238D01*
X95703107Y-87898009D01*
X95770105Y-87959086D01*
X95773437Y-87962123D01*
X95773439Y-87962125D01*
X95962595Y-88079245D01*
X95962596Y-88079245D01*
X95962599Y-88079247D01*
X96170060Y-88159618D01*
X96388757Y-88200500D01*
X96388759Y-88200500D01*
X96611241Y-88200500D01*
X96611243Y-88200500D01*
X96829940Y-88159618D01*
X97037401Y-88079247D01*
X97134331Y-88019231D01*
X97215340Y-87969073D01*
X97280617Y-87950500D01*
X98356244Y-87950500D01*
X98423283Y-87970185D01*
X98467243Y-88019228D01*
X98474942Y-88034689D01*
X98474943Y-88034690D01*
X98474944Y-88034692D01*
X98609020Y-88212238D01*
X98632742Y-88233863D01*
X98669024Y-88293574D01*
X98667263Y-88363422D01*
X98628019Y-88421229D01*
X98563753Y-88448644D01*
X98549204Y-88449500D01*
X90779387Y-88449500D01*
X90712348Y-88429815D01*
X90691706Y-88413181D01*
X89374184Y-87095659D01*
X89346510Y-87053467D01*
X89334361Y-87022658D01*
X89317178Y-86999999D01*
X89259869Y-86924425D01*
X89235046Y-86859114D01*
X89249474Y-86790750D01*
X89298572Y-86741039D01*
X89358673Y-86725500D01*
X90544852Y-86725500D01*
X90544854Y-86725500D01*
X90544855Y-86725500D01*
X90684865Y-86687984D01*
X90810395Y-86615510D01*
X93839086Y-83586819D01*
X93900409Y-83553334D01*
X93926767Y-83550500D01*
X95356244Y-83550500D01*
X95423283Y-83570185D01*
G37*
%TD.AperFunction*%
%TD*%
M02*
