%TF.GenerationSoftware,KiCad,Pcbnew,8.0.5*%
%TF.CreationDate,2024-10-26T00:27:54+08:00*%
%TF.ProjectId,BISS0001_SOP-16_TH,42495353-3030-4303-915f-534f502d3136,rev?*%
%TF.SameCoordinates,Original*%
%TF.FileFunction,Copper,L1,Top*%
%TF.FilePolarity,Positive*%
%FSLAX46Y46*%
G04 Gerber Fmt 4.6, Leading zero omitted, Abs format (unit mm)*
G04 Created by KiCad (PCBNEW 8.0.5) date 2024-10-26 00:27:54*
%MOMM*%
%LPD*%
G01*
G04 APERTURE LIST*
%TA.AperFunction,ComponentPad*%
%ADD10C,6.000000*%
%TD*%
%TA.AperFunction,ComponentPad*%
%ADD11O,1.600000X1.200000*%
%TD*%
%TA.AperFunction,ComponentPad*%
%ADD12O,1.200000X1.200000*%
%TD*%
%TA.AperFunction,ComponentPad*%
%ADD13C,1.500000*%
%TD*%
%TA.AperFunction,ComponentPad*%
%ADD14C,1.600000*%
%TD*%
%TA.AperFunction,ComponentPad*%
%ADD15O,1.600000X1.600000*%
%TD*%
%TA.AperFunction,ComponentPad*%
%ADD16C,1.440000*%
%TD*%
%TA.AperFunction,ComponentPad*%
%ADD17R,1.700000X1.700000*%
%TD*%
%TA.AperFunction,ComponentPad*%
%ADD18O,1.700000X1.700000*%
%TD*%
%TA.AperFunction,ViaPad*%
%ADD19C,0.500000*%
%TD*%
%TA.AperFunction,Conductor*%
%ADD20C,1.000000*%
%TD*%
%TA.AperFunction,Conductor*%
%ADD21C,0.300000*%
%TD*%
G04 APERTURE END LIST*
D10*
%TO.P,H2,1,1*%
%TO.N,GND*%
X80000000Y-70000000D03*
%TD*%
D11*
%TO.P,S1,1,D*%
%TO.N,3V3*%
X96500000Y-95000000D03*
D12*
%TO.P,S1,2,S*%
%TO.N,Net-(S1-S)*%
X93960000Y-97540000D03*
%TO.P,S1,3,G*%
%TO.N,GND*%
X91420000Y-95000000D03*
%TD*%
D13*
%TO.P,R9,2*%
%TO.N,GND*%
X93020000Y-70000000D03*
%TO.P,R9,1*%
%TO.N,Net-(U1-VC)*%
X96420000Y-70000000D03*
%TD*%
D14*
%TO.P,R8,1*%
%TO.N,GND*%
X99500000Y-72500000D03*
D15*
%TO.P,R8,2*%
%TO.N,Net-(U1-IB)*%
X102040000Y-72500000D03*
%TD*%
D14*
%TO.P,R7,1*%
%TO.N,Net-(C12-Pad2)*%
X99500000Y-87400000D03*
D15*
%TO.P,R7,2*%
%TO.N,Net-(U1-1IN-)*%
X102040000Y-87400000D03*
%TD*%
D14*
%TO.P,R6,1*%
%TO.N,GND*%
X92000000Y-103000000D03*
D15*
%TO.P,R6,2*%
%TO.N,Net-(S1-S)*%
X94540000Y-103000000D03*
%TD*%
D14*
%TO.P,R5,1*%
%TO.N,Net-(H3-Pin_2)*%
X84000000Y-91000000D03*
D15*
%TO.P,R5,2*%
%TO.N,Net-(U1-VO)*%
X86540000Y-91000000D03*
%TD*%
D14*
%TO.P,R4,1*%
%TO.N,Net-(U1-VC)*%
X99500000Y-69500000D03*
D15*
%TO.P,R4,2*%
%TO.N,3V3*%
X102040000Y-69500000D03*
%TD*%
%TO.P,R3,2*%
%TO.N,Net-(U1-1OUT)*%
X102040000Y-83600000D03*
D14*
%TO.P,R3,1*%
%TO.N,Net-(U1-1IN-)*%
X99500000Y-83600000D03*
%TD*%
%TO.P,R2,1*%
%TO.N,Net-(C2-Pad2)*%
X99500000Y-79800000D03*
D15*
%TO.P,R2,2*%
%TO.N,Net-(U1-2IN-)*%
X102040000Y-79800000D03*
%TD*%
D14*
%TO.P,R1,1*%
%TO.N,Net-(U1-2OUT)*%
X99500000Y-76000000D03*
D15*
%TO.P,R1,2*%
%TO.N,Net-(U1-2IN-)*%
X102040000Y-76000000D03*
%TD*%
D16*
%TO.P,PR2,1,1*%
%TO.N,Net-(U1-RR2)*%
X78000000Y-87000000D03*
%TO.P,PR2,2,2*%
%TO.N,Net-(U1-RC2)*%
X78000000Y-89540000D03*
%TO.P,PR2,3,3*%
X78000000Y-92080000D03*
%TD*%
%TO.P,PR1,1,1*%
%TO.N,Net-(U1-RC1)*%
X78000000Y-103000000D03*
%TO.P,PR1,2,2*%
X78000000Y-100460000D03*
%TO.P,PR1,3,3*%
%TO.N,Net-(U1-RR1)*%
X78000000Y-97920000D03*
%TD*%
D17*
%TO.P,H3,1,Pin_1*%
%TO.N,GND*%
X78000000Y-77000000D03*
D18*
%TO.P,H3,2,Pin_2*%
%TO.N,Net-(H3-Pin_2)*%
X78000000Y-79540000D03*
%TO.P,H3,3,Pin_3*%
%TO.N,3V3*%
X78000000Y-82080000D03*
%TD*%
D17*
%TO.P,H1,1,Pin_1*%
%TO.N,GND*%
X88000000Y-103000000D03*
D18*
%TO.P,H1,2,Pin_2*%
%TO.N,Net-(H1-Pin_2)*%
X85460000Y-103000000D03*
%TO.P,H1,3,Pin_3*%
%TO.N,3V3*%
X82920000Y-103000000D03*
%TD*%
D14*
%TO.P,C12,1*%
%TO.N,GND*%
X91500000Y-87000000D03*
%TO.P,C12,2*%
%TO.N,Net-(C12-Pad2)*%
X96500000Y-87000000D03*
%TD*%
%TO.P,C11,2*%
%TO.N,Net-(U1-RC2)*%
X82500000Y-95000000D03*
%TO.P,C11,1*%
%TO.N,GND*%
X87500000Y-95000000D03*
%TD*%
%TO.P,C10,1*%
%TO.N,GND*%
X102000000Y-103000000D03*
%TO.P,C10,2*%
%TO.N,Net-(S1-S)*%
X97000000Y-103000000D03*
%TD*%
%TO.P,C9,2*%
%TO.N,3V3*%
X88000000Y-75000000D03*
%TO.P,C9,1*%
%TO.N,GND*%
X83000000Y-75000000D03*
%TD*%
%TO.P,C6,2*%
%TO.N,Net-(U1-RC1)*%
X82500000Y-99000000D03*
%TO.P,C6,1*%
%TO.N,GND*%
X87500000Y-99000000D03*
%TD*%
%TO.P,C5,1*%
%TO.N,GND*%
X101000000Y-100000000D03*
%TO.P,C5,2*%
%TO.N,3V3*%
X101000000Y-95000000D03*
%TD*%
%TO.P,C3,1*%
%TO.N,Net-(U1-1OUT)*%
X91500000Y-83000000D03*
%TO.P,C3,2*%
%TO.N,Net-(U1-1IN-)*%
X96500000Y-83000000D03*
%TD*%
%TO.P,C2,1*%
%TO.N,Net-(U1-1OUT)*%
X91500000Y-79000000D03*
%TO.P,C2,2*%
%TO.N,Net-(C2-Pad2)*%
X96500000Y-79000000D03*
%TD*%
%TO.P,C1,1*%
%TO.N,Net-(U1-2IN-)*%
X91500000Y-75000000D03*
%TO.P,C1,2*%
%TO.N,Net-(U1-2OUT)*%
X96500000Y-75000000D03*
%TD*%
D19*
%TO.N,GND*%
X100650000Y-86300000D03*
X100850000Y-80950000D03*
X101550000Y-74250000D03*
X92850000Y-72350000D03*
X95100000Y-69200000D03*
X89237943Y-73463469D03*
X84450000Y-98450000D03*
X81800000Y-96500000D03*
X86750000Y-89350000D03*
X88650000Y-88650000D03*
%TO.N,Net-(U1-RC1)*%
X84650000Y-83650000D03*
%TO.N,Net-(U1-2OUT)*%
X86500000Y-82350000D03*
%TD*%
D20*
%TO.N,3V3*%
X93600000Y-100800000D02*
X96500000Y-97900000D01*
X85120000Y-100800000D02*
X93600000Y-100800000D01*
X82920000Y-103000000D02*
X85120000Y-100800000D01*
X96500000Y-97900000D02*
X96500000Y-95000000D01*
X102040000Y-68540000D02*
X102040000Y-69500000D01*
X92850000Y-66850000D02*
X100350000Y-66850000D01*
X100350000Y-66850000D02*
X102040000Y-68540000D01*
X88000000Y-71700000D02*
X92850000Y-66850000D01*
X88000000Y-75000000D02*
X88000000Y-71700000D01*
X88000000Y-78588356D02*
X88000000Y-75000000D01*
X84508356Y-82080000D02*
X88000000Y-78588356D01*
X85660000Y-83231644D02*
X84508356Y-82080000D01*
X96500000Y-94213066D02*
X85660000Y-83373066D01*
X96500000Y-95000000D02*
X96500000Y-94213066D01*
X85660000Y-83373066D02*
X85660000Y-83231644D01*
X84508356Y-82080000D02*
X78000000Y-82080000D01*
D21*
%TO.N,Net-(U1-RC1)*%
X85330000Y-84330000D02*
X84650000Y-83650000D01*
X85330000Y-96170000D02*
X85330000Y-84330000D01*
X82500000Y-99000000D02*
X85330000Y-96170000D01*
%TO.N,Net-(H3-Pin_2)*%
X76740000Y-83740000D02*
X84000000Y-91000000D01*
X76740000Y-80800000D02*
X76740000Y-83740000D01*
X78000000Y-79540000D02*
X76740000Y-80800000D01*
%TO.N,GND*%
X81000000Y-77000000D02*
X83000000Y-75000000D01*
X78000000Y-77000000D02*
X81000000Y-77000000D01*
X95520000Y-72500000D02*
X93020000Y-70000000D01*
X99500000Y-72500000D02*
X95520000Y-72500000D01*
%TO.N,Net-(U1-2OUT)*%
X90281370Y-82350000D02*
X86500000Y-82350000D01*
X96500000Y-76131370D02*
X90281370Y-82350000D01*
X96500000Y-75000000D02*
X96500000Y-76131370D01*
%TD*%
%TA.AperFunction,Conductor*%
%TO.N,GND*%
G36*
X99002702Y-65200617D02*
G01*
X99412917Y-65218528D01*
X99423654Y-65219468D01*
X99828057Y-65272708D01*
X99838695Y-65274583D01*
X100236925Y-65362869D01*
X100247365Y-65365667D01*
X100636363Y-65488317D01*
X100646524Y-65492015D01*
X101023363Y-65648108D01*
X101033155Y-65652674D01*
X101394965Y-65841020D01*
X101404305Y-65846413D01*
X101620435Y-65984103D01*
X101748309Y-66065568D01*
X101757170Y-66071772D01*
X102080766Y-66320076D01*
X102089053Y-66327030D01*
X102389767Y-66602583D01*
X102397416Y-66610232D01*
X102672969Y-66910946D01*
X102679923Y-66919233D01*
X102928227Y-67242829D01*
X102934431Y-67251690D01*
X103153578Y-67595680D01*
X103158983Y-67605042D01*
X103285004Y-67847126D01*
X103347322Y-67966838D01*
X103351894Y-67976642D01*
X103507983Y-68353473D01*
X103511683Y-68363639D01*
X103634331Y-68752630D01*
X103637131Y-68763078D01*
X103725414Y-69161296D01*
X103727292Y-69171950D01*
X103780529Y-69576326D01*
X103781472Y-69587102D01*
X103799382Y-69997297D01*
X103799500Y-70002706D01*
X103799500Y-100997293D01*
X103799382Y-101002702D01*
X103781472Y-101412897D01*
X103780529Y-101423673D01*
X103727292Y-101828049D01*
X103725414Y-101838703D01*
X103637131Y-102236921D01*
X103634331Y-102247369D01*
X103511683Y-102636360D01*
X103507983Y-102646526D01*
X103351894Y-103023357D01*
X103347322Y-103033161D01*
X103158987Y-103394951D01*
X103153578Y-103404319D01*
X102934431Y-103748309D01*
X102928227Y-103757170D01*
X102679923Y-104080766D01*
X102672969Y-104089053D01*
X102397416Y-104389767D01*
X102389767Y-104397416D01*
X102089053Y-104672969D01*
X102080766Y-104679923D01*
X101757170Y-104928227D01*
X101748309Y-104934431D01*
X101404319Y-105153578D01*
X101394951Y-105158987D01*
X101033161Y-105347322D01*
X101023357Y-105351894D01*
X100646526Y-105507983D01*
X100636360Y-105511683D01*
X100247369Y-105634331D01*
X100236921Y-105637131D01*
X99838703Y-105725414D01*
X99828049Y-105727292D01*
X99423673Y-105780529D01*
X99412897Y-105781472D01*
X99002703Y-105799382D01*
X98997294Y-105799500D01*
X80002706Y-105799500D01*
X79997297Y-105799382D01*
X79587102Y-105781472D01*
X79576326Y-105780529D01*
X79171950Y-105727292D01*
X79161296Y-105725414D01*
X78763078Y-105637131D01*
X78752630Y-105634331D01*
X78363639Y-105511683D01*
X78353473Y-105507983D01*
X77976642Y-105351894D01*
X77966838Y-105347322D01*
X77847126Y-105285004D01*
X77605042Y-105158983D01*
X77595686Y-105153582D01*
X77423685Y-105044004D01*
X77251690Y-104934431D01*
X77242829Y-104928227D01*
X76919233Y-104679923D01*
X76910946Y-104672969D01*
X76610232Y-104397416D01*
X76602583Y-104389767D01*
X76327030Y-104089053D01*
X76320076Y-104080766D01*
X76071772Y-103757170D01*
X76065568Y-103748309D01*
X75993180Y-103634683D01*
X75846413Y-103404305D01*
X75841020Y-103394965D01*
X75652674Y-103033155D01*
X75648105Y-103023357D01*
X75638430Y-103000000D01*
X75638430Y-102999999D01*
X76874700Y-102999999D01*
X76874700Y-103000000D01*
X76893859Y-103206772D01*
X76950688Y-103406502D01*
X76950693Y-103406515D01*
X77043252Y-103592397D01*
X77168390Y-103758107D01*
X77168392Y-103758110D01*
X77321850Y-103898005D01*
X77321852Y-103898006D01*
X77321855Y-103898009D01*
X77421609Y-103959774D01*
X77498407Y-104007325D01*
X77498409Y-104007326D01*
X77498411Y-104007327D01*
X77692047Y-104082342D01*
X77896170Y-104120500D01*
X77896172Y-104120500D01*
X78103828Y-104120500D01*
X78103830Y-104120500D01*
X78307953Y-104082342D01*
X78501589Y-104007327D01*
X78678145Y-103898009D01*
X78831607Y-103758110D01*
X78924814Y-103634683D01*
X78956747Y-103592397D01*
X78956747Y-103592395D01*
X78956749Y-103592394D01*
X79049311Y-103406505D01*
X79106140Y-103206773D01*
X79125300Y-103000000D01*
X79106140Y-102793227D01*
X79049311Y-102593495D01*
X79037945Y-102570670D01*
X78956747Y-102407602D01*
X78831609Y-102241892D01*
X78831607Y-102241889D01*
X78678149Y-102101994D01*
X78678143Y-102101990D01*
X78501592Y-101992674D01*
X78501583Y-101992670D01*
X78411389Y-101957729D01*
X78307953Y-101917658D01*
X78103830Y-101879500D01*
X77896170Y-101879500D01*
X77692047Y-101917658D01*
X77498416Y-101992670D01*
X77498407Y-101992674D01*
X77321856Y-102101990D01*
X77321850Y-102101994D01*
X77168392Y-102241889D01*
X77168390Y-102241892D01*
X77043252Y-102407602D01*
X76950693Y-102593484D01*
X76950688Y-102593497D01*
X76893859Y-102793227D01*
X76874700Y-102999999D01*
X75638430Y-102999999D01*
X75492015Y-102646524D01*
X75488316Y-102636360D01*
X75474801Y-102593497D01*
X75365667Y-102247365D01*
X75362868Y-102236921D01*
X75274583Y-101838695D01*
X75272707Y-101828049D01*
X75219468Y-101423654D01*
X75218528Y-101412917D01*
X75200618Y-101002702D01*
X75200500Y-100997293D01*
X75200500Y-100459999D01*
X76874700Y-100459999D01*
X76874700Y-100460000D01*
X76893859Y-100666772D01*
X76950688Y-100866502D01*
X76950693Y-100866515D01*
X77043252Y-101052397D01*
X77168390Y-101218107D01*
X77168392Y-101218110D01*
X77321850Y-101358005D01*
X77321852Y-101358006D01*
X77321855Y-101358009D01*
X77410503Y-101412897D01*
X77498407Y-101467325D01*
X77498409Y-101467326D01*
X77498411Y-101467327D01*
X77692047Y-101542342D01*
X77896170Y-101580500D01*
X77896172Y-101580500D01*
X78103828Y-101580500D01*
X78103830Y-101580500D01*
X78307953Y-101542342D01*
X78501589Y-101467327D01*
X78678145Y-101358009D01*
X78831607Y-101218110D01*
X78956749Y-101052394D01*
X79049311Y-100866505D01*
X79106140Y-100666773D01*
X79125300Y-100460000D01*
X79106140Y-100253227D01*
X79049311Y-100053495D01*
X79048199Y-100051262D01*
X78956747Y-99867602D01*
X78831609Y-99701892D01*
X78831607Y-99701889D01*
X78678149Y-99561994D01*
X78678143Y-99561990D01*
X78501592Y-99452674D01*
X78501583Y-99452670D01*
X78411389Y-99417729D01*
X78307953Y-99377658D01*
X78103830Y-99339500D01*
X77896170Y-99339500D01*
X77692047Y-99377658D01*
X77498416Y-99452670D01*
X77498407Y-99452674D01*
X77321856Y-99561990D01*
X77321850Y-99561994D01*
X77168392Y-99701889D01*
X77168390Y-99701892D01*
X77043252Y-99867602D01*
X76950693Y-100053484D01*
X76950688Y-100053497D01*
X76893859Y-100253227D01*
X76874700Y-100459999D01*
X75200500Y-100459999D01*
X75200500Y-97919999D01*
X76874700Y-97919999D01*
X76874700Y-97920000D01*
X76893859Y-98126772D01*
X76950688Y-98326502D01*
X76950693Y-98326515D01*
X77043252Y-98512397D01*
X77168390Y-98678107D01*
X77168392Y-98678110D01*
X77321850Y-98818005D01*
X77321852Y-98818006D01*
X77321855Y-98818009D01*
X77421609Y-98879774D01*
X77498407Y-98927325D01*
X77498409Y-98927326D01*
X77498411Y-98927327D01*
X77692047Y-99002342D01*
X77896170Y-99040500D01*
X77896172Y-99040500D01*
X78103828Y-99040500D01*
X78103830Y-99040500D01*
X78307953Y-99002342D01*
X78501589Y-98927327D01*
X78678145Y-98818009D01*
X78831607Y-98678110D01*
X78956749Y-98512394D01*
X79049311Y-98326505D01*
X79106140Y-98126773D01*
X79125300Y-97920000D01*
X79115228Y-97811309D01*
X79106140Y-97713227D01*
X79056852Y-97540000D01*
X79049311Y-97513495D01*
X79030460Y-97475638D01*
X78956747Y-97327602D01*
X78831609Y-97161892D01*
X78831607Y-97161889D01*
X78678149Y-97021994D01*
X78678143Y-97021990D01*
X78501592Y-96912674D01*
X78501583Y-96912670D01*
X78411389Y-96877729D01*
X78307953Y-96837658D01*
X78103830Y-96799500D01*
X77896170Y-96799500D01*
X77692047Y-96837658D01*
X77498416Y-96912670D01*
X77498407Y-96912674D01*
X77321856Y-97021990D01*
X77321850Y-97021994D01*
X77168392Y-97161889D01*
X77168390Y-97161892D01*
X77043252Y-97327602D01*
X76950693Y-97513484D01*
X76950688Y-97513497D01*
X76893859Y-97713227D01*
X76874700Y-97919999D01*
X75200500Y-97919999D01*
X75200500Y-94999999D01*
X81294357Y-94999999D01*
X81294357Y-95000000D01*
X81314884Y-95221535D01*
X81314885Y-95221537D01*
X81375769Y-95435523D01*
X81375775Y-95435538D01*
X81474938Y-95634683D01*
X81474943Y-95634691D01*
X81609020Y-95812238D01*
X81773437Y-95962123D01*
X81773439Y-95962125D01*
X81962595Y-96079245D01*
X81962596Y-96079245D01*
X81962599Y-96079247D01*
X82170060Y-96159618D01*
X82388757Y-96200500D01*
X82388759Y-96200500D01*
X82611241Y-96200500D01*
X82611243Y-96200500D01*
X82829940Y-96159618D01*
X83037401Y-96079247D01*
X83226562Y-95962124D01*
X83390981Y-95812236D01*
X83525058Y-95634689D01*
X83624229Y-95435528D01*
X83685115Y-95221536D01*
X83705643Y-95000000D01*
X83685115Y-94778464D01*
X83624229Y-94564472D01*
X83605115Y-94526086D01*
X83525061Y-94365316D01*
X83525056Y-94365308D01*
X83390979Y-94187761D01*
X83226562Y-94037876D01*
X83226560Y-94037874D01*
X83037404Y-93920754D01*
X83037398Y-93920752D01*
X82829940Y-93840382D01*
X82611243Y-93799500D01*
X82388757Y-93799500D01*
X82170060Y-93840382D01*
X82038864Y-93891207D01*
X81962601Y-93920752D01*
X81962595Y-93920754D01*
X81773439Y-94037874D01*
X81773437Y-94037876D01*
X81609020Y-94187761D01*
X81474943Y-94365308D01*
X81474938Y-94365316D01*
X81375775Y-94564461D01*
X81375769Y-94564476D01*
X81314885Y-94778462D01*
X81314884Y-94778464D01*
X81294357Y-94999999D01*
X75200500Y-94999999D01*
X75200500Y-92079999D01*
X76874700Y-92079999D01*
X76874700Y-92080000D01*
X76893859Y-92286772D01*
X76950688Y-92486502D01*
X76950693Y-92486515D01*
X77043252Y-92672397D01*
X77168390Y-92838107D01*
X77168392Y-92838110D01*
X77321850Y-92978005D01*
X77321852Y-92978006D01*
X77321855Y-92978009D01*
X77421609Y-93039774D01*
X77498407Y-93087325D01*
X77498409Y-93087326D01*
X77498411Y-93087327D01*
X77692047Y-93162342D01*
X77896170Y-93200500D01*
X77896172Y-93200500D01*
X78103828Y-93200500D01*
X78103830Y-93200500D01*
X78307953Y-93162342D01*
X78501589Y-93087327D01*
X78678145Y-92978009D01*
X78831607Y-92838110D01*
X78956749Y-92672394D01*
X79049311Y-92486505D01*
X79106140Y-92286773D01*
X79125300Y-92080000D01*
X79114377Y-91962125D01*
X79106140Y-91873227D01*
X79088786Y-91812236D01*
X79049311Y-91673495D01*
X78956749Y-91487606D01*
X78956748Y-91487605D01*
X78956747Y-91487602D01*
X78831609Y-91321892D01*
X78831607Y-91321889D01*
X78678149Y-91181994D01*
X78678143Y-91181990D01*
X78501592Y-91072674D01*
X78501583Y-91072670D01*
X78411389Y-91037729D01*
X78307953Y-90997658D01*
X78103830Y-90959500D01*
X77896170Y-90959500D01*
X77692047Y-90997658D01*
X77498416Y-91072670D01*
X77498407Y-91072674D01*
X77321856Y-91181990D01*
X77321850Y-91181994D01*
X77168392Y-91321889D01*
X77168390Y-91321892D01*
X77043252Y-91487602D01*
X76950693Y-91673484D01*
X76950688Y-91673497D01*
X76893859Y-91873227D01*
X76874700Y-92079999D01*
X75200500Y-92079999D01*
X75200500Y-89539999D01*
X76874700Y-89539999D01*
X76874700Y-89540000D01*
X76893859Y-89746772D01*
X76950688Y-89946502D01*
X76950693Y-89946515D01*
X77043252Y-90132397D01*
X77168390Y-90298107D01*
X77168392Y-90298110D01*
X77321850Y-90438005D01*
X77321852Y-90438006D01*
X77321855Y-90438009D01*
X77421609Y-90499774D01*
X77498407Y-90547325D01*
X77498409Y-90547326D01*
X77498411Y-90547327D01*
X77692047Y-90622342D01*
X77896170Y-90660500D01*
X77896172Y-90660500D01*
X78103828Y-90660500D01*
X78103830Y-90660500D01*
X78307953Y-90622342D01*
X78501589Y-90547327D01*
X78678145Y-90438009D01*
X78831607Y-90298110D01*
X78956749Y-90132394D01*
X79049311Y-89946505D01*
X79106140Y-89746773D01*
X79125300Y-89540000D01*
X79106140Y-89333227D01*
X79049311Y-89133495D01*
X78956749Y-88947606D01*
X78956748Y-88947605D01*
X78956747Y-88947602D01*
X78831609Y-88781892D01*
X78831607Y-88781889D01*
X78678149Y-88641994D01*
X78678143Y-88641990D01*
X78501592Y-88532674D01*
X78501583Y-88532670D01*
X78411389Y-88497729D01*
X78307953Y-88457658D01*
X78103830Y-88419500D01*
X77896170Y-88419500D01*
X77692047Y-88457658D01*
X77498416Y-88532670D01*
X77498407Y-88532674D01*
X77321856Y-88641990D01*
X77321850Y-88641994D01*
X77168392Y-88781889D01*
X77168390Y-88781892D01*
X77043252Y-88947602D01*
X76950693Y-89133484D01*
X76950688Y-89133497D01*
X76893859Y-89333227D01*
X76874700Y-89539999D01*
X75200500Y-89539999D01*
X75200500Y-80727525D01*
X76189500Y-80727525D01*
X76189500Y-83667526D01*
X76189500Y-83812474D01*
X76227016Y-83952485D01*
X76274957Y-84035523D01*
X76299489Y-84078013D01*
X76299491Y-84078016D01*
X77902376Y-85680901D01*
X77935861Y-85742224D01*
X77930877Y-85811916D01*
X77889005Y-85867849D01*
X77837481Y-85890470D01*
X77692057Y-85917655D01*
X77692047Y-85917658D01*
X77498416Y-85992670D01*
X77498407Y-85992674D01*
X77321856Y-86101990D01*
X77321850Y-86101994D01*
X77168392Y-86241889D01*
X77168390Y-86241892D01*
X77043252Y-86407602D01*
X76950693Y-86593484D01*
X76950688Y-86593497D01*
X76893859Y-86793227D01*
X76874700Y-86999999D01*
X76874700Y-87000000D01*
X76893859Y-87206772D01*
X76950688Y-87406502D01*
X76950693Y-87406515D01*
X77043252Y-87592397D01*
X77168390Y-87758107D01*
X77168392Y-87758110D01*
X77321850Y-87898005D01*
X77321852Y-87898006D01*
X77321855Y-87898009D01*
X77421609Y-87959774D01*
X77498407Y-88007325D01*
X77498409Y-88007326D01*
X77498411Y-88007327D01*
X77692047Y-88082342D01*
X77896170Y-88120500D01*
X77896172Y-88120500D01*
X78103828Y-88120500D01*
X78103830Y-88120500D01*
X78307953Y-88082342D01*
X78501589Y-88007327D01*
X78678145Y-87898009D01*
X78831607Y-87758110D01*
X78924814Y-87634683D01*
X78956747Y-87592397D01*
X78956747Y-87592395D01*
X78956749Y-87592394D01*
X79049311Y-87406505D01*
X79106140Y-87206773D01*
X79109084Y-87175000D01*
X79134870Y-87110064D01*
X79191670Y-87069376D01*
X79261451Y-87065856D01*
X79320236Y-87098761D01*
X82804347Y-90582872D01*
X82837832Y-90644195D01*
X82835933Y-90704486D01*
X82814884Y-90778466D01*
X82794357Y-90999999D01*
X82794357Y-91000000D01*
X82814884Y-91221535D01*
X82814885Y-91221537D01*
X82875769Y-91435523D01*
X82875775Y-91435538D01*
X82974938Y-91634683D01*
X82974943Y-91634691D01*
X83109020Y-91812238D01*
X83273437Y-91962123D01*
X83273439Y-91962125D01*
X83462595Y-92079245D01*
X83462596Y-92079245D01*
X83462599Y-92079247D01*
X83670060Y-92159618D01*
X83888757Y-92200500D01*
X83888759Y-92200500D01*
X84111241Y-92200500D01*
X84111243Y-92200500D01*
X84329940Y-92159618D01*
X84537401Y-92079247D01*
X84590224Y-92046540D01*
X84657583Y-92027985D01*
X84724282Y-92048793D01*
X84769144Y-92102358D01*
X84779500Y-92151968D01*
X84779500Y-95890612D01*
X84759815Y-95957651D01*
X84743181Y-95978293D01*
X82919253Y-97802220D01*
X82857930Y-97835705D01*
X82808788Y-97836427D01*
X82611243Y-97799500D01*
X82388757Y-97799500D01*
X82170060Y-97840382D01*
X82038864Y-97891207D01*
X81962601Y-97920752D01*
X81962595Y-97920754D01*
X81773439Y-98037874D01*
X81773437Y-98037876D01*
X81609020Y-98187761D01*
X81474943Y-98365308D01*
X81474938Y-98365316D01*
X81375775Y-98564461D01*
X81375769Y-98564476D01*
X81314885Y-98778462D01*
X81314884Y-98778464D01*
X81294357Y-98999999D01*
X81294357Y-99000000D01*
X81314884Y-99221535D01*
X81314885Y-99221537D01*
X81375769Y-99435523D01*
X81375775Y-99435538D01*
X81474938Y-99634683D01*
X81474943Y-99634691D01*
X81609020Y-99812238D01*
X81773437Y-99962123D01*
X81773439Y-99962125D01*
X81962595Y-100079245D01*
X81962596Y-100079245D01*
X81962599Y-100079247D01*
X82170060Y-100159618D01*
X82388757Y-100200500D01*
X82388759Y-100200500D01*
X82611241Y-100200500D01*
X82611243Y-100200500D01*
X82829940Y-100159618D01*
X83037401Y-100079247D01*
X83226562Y-99962124D01*
X83390981Y-99812236D01*
X83525058Y-99634689D01*
X83624229Y-99435528D01*
X83685115Y-99221536D01*
X83705643Y-99000000D01*
X83685115Y-98778464D01*
X83664066Y-98704484D01*
X83664652Y-98634621D01*
X83695649Y-98582874D01*
X85770510Y-96508015D01*
X85842984Y-96382485D01*
X85880500Y-96242475D01*
X85880500Y-92212963D01*
X85900185Y-92145924D01*
X85952989Y-92100169D01*
X86022147Y-92090225D01*
X86049287Y-92097334D01*
X86210060Y-92159618D01*
X86428757Y-92200500D01*
X86428759Y-92200500D01*
X86651241Y-92200500D01*
X86651243Y-92200500D01*
X86869940Y-92159618D01*
X87077401Y-92079247D01*
X87266562Y-91962124D01*
X87430981Y-91812236D01*
X87565058Y-91634689D01*
X87664229Y-91435528D01*
X87725115Y-91221536D01*
X87745643Y-91000000D01*
X87725115Y-90778464D01*
X87664229Y-90564472D01*
X87601256Y-90438005D01*
X87565061Y-90365316D01*
X87565056Y-90365308D01*
X87430979Y-90187761D01*
X87266562Y-90037876D01*
X87266560Y-90037874D01*
X87077404Y-89920754D01*
X87077398Y-89920752D01*
X86869940Y-89840382D01*
X86651243Y-89799500D01*
X86428757Y-89799500D01*
X86210060Y-89840382D01*
X86210057Y-89840382D01*
X86210057Y-89840383D01*
X86049293Y-89902663D01*
X85979670Y-89908525D01*
X85917930Y-89875815D01*
X85883675Y-89814918D01*
X85880500Y-89787036D01*
X85880500Y-85166428D01*
X85900185Y-85099389D01*
X85952989Y-85053634D01*
X86022147Y-85043690D01*
X86085703Y-85072715D01*
X86092181Y-85078747D01*
X95392281Y-94378847D01*
X95425766Y-94440170D01*
X95420782Y-94509862D01*
X95413962Y-94524974D01*
X95413368Y-94526085D01*
X95337950Y-94708160D01*
X95337947Y-94708170D01*
X95299500Y-94901456D01*
X95299500Y-94901459D01*
X95299500Y-95098541D01*
X95299500Y-95098543D01*
X95299499Y-95098543D01*
X95337947Y-95291829D01*
X95337950Y-95291839D01*
X95413364Y-95473907D01*
X95413371Y-95473920D01*
X95522860Y-95637781D01*
X95522863Y-95637785D01*
X95563180Y-95678101D01*
X95596666Y-95739424D01*
X95599500Y-95765783D01*
X95599500Y-97475638D01*
X95579815Y-97542677D01*
X95563181Y-97563319D01*
X95102583Y-98023916D01*
X95041260Y-98057401D01*
X94971568Y-98052417D01*
X94915635Y-98010545D01*
X94891218Y-97945081D01*
X94896242Y-97900239D01*
X94910067Y-97854665D01*
X94946024Y-97736132D01*
X94965341Y-97540000D01*
X94946024Y-97343868D01*
X94888814Y-97155273D01*
X94888811Y-97155269D01*
X94888811Y-97155266D01*
X94795913Y-96981467D01*
X94795909Y-96981460D01*
X94670883Y-96829116D01*
X94518539Y-96704090D01*
X94518532Y-96704086D01*
X94344733Y-96611188D01*
X94344727Y-96611186D01*
X94156132Y-96553976D01*
X94156129Y-96553975D01*
X93960000Y-96534659D01*
X93763870Y-96553975D01*
X93575266Y-96611188D01*
X93401467Y-96704086D01*
X93401460Y-96704090D01*
X93249116Y-96829116D01*
X93124090Y-96981460D01*
X93124086Y-96981467D01*
X93031188Y-97155266D01*
X92973975Y-97343870D01*
X92954659Y-97540000D01*
X92973975Y-97736129D01*
X92973976Y-97736132D01*
X93029980Y-97920753D01*
X93031188Y-97924733D01*
X93124086Y-98098532D01*
X93124089Y-98098537D01*
X93249116Y-98250883D01*
X93401460Y-98375909D01*
X93401467Y-98375913D01*
X93575266Y-98468811D01*
X93575269Y-98468811D01*
X93575273Y-98468814D01*
X93763868Y-98526024D01*
X93960000Y-98545341D01*
X94156132Y-98526024D01*
X94320240Y-98476241D01*
X94390106Y-98475618D01*
X94449219Y-98512866D01*
X94478810Y-98576159D01*
X94469485Y-98645404D01*
X94443916Y-98682583D01*
X93263319Y-99863181D01*
X93201996Y-99896666D01*
X93175638Y-99899500D01*
X85031303Y-99899500D01*
X84857339Y-99934103D01*
X84857323Y-99934108D01*
X84741453Y-99982102D01*
X84741454Y-99982103D01*
X84693453Y-100001987D01*
X84619708Y-100051262D01*
X84545963Y-100100535D01*
X82931942Y-101714556D01*
X82870619Y-101748041D01*
X82855069Y-101750403D01*
X82702027Y-101763792D01*
X82702017Y-101763794D01*
X82490677Y-101820422D01*
X82490668Y-101820426D01*
X82292361Y-101912898D01*
X82292357Y-101912900D01*
X82113121Y-102038402D01*
X81958402Y-102193121D01*
X81832900Y-102372357D01*
X81832898Y-102372361D01*
X81740426Y-102570668D01*
X81740422Y-102570677D01*
X81683793Y-102782020D01*
X81683793Y-102782024D01*
X81664723Y-102999997D01*
X81664723Y-103000002D01*
X81683793Y-103217975D01*
X81683793Y-103217979D01*
X81740422Y-103429322D01*
X81740424Y-103429326D01*
X81740425Y-103429330D01*
X81762382Y-103476416D01*
X81832897Y-103627638D01*
X81832898Y-103627639D01*
X81958402Y-103806877D01*
X82113123Y-103961598D01*
X82292361Y-104087102D01*
X82490670Y-104179575D01*
X82702023Y-104236207D01*
X82884926Y-104252208D01*
X82919998Y-104255277D01*
X82920000Y-104255277D01*
X82920002Y-104255277D01*
X82948254Y-104252805D01*
X83137977Y-104236207D01*
X83349330Y-104179575D01*
X83547639Y-104087102D01*
X83726877Y-103961598D01*
X83881598Y-103806877D01*
X84007102Y-103627639D01*
X84077618Y-103476414D01*
X84123790Y-103423977D01*
X84190984Y-103404825D01*
X84257865Y-103425041D01*
X84302381Y-103476414D01*
X84372898Y-103627639D01*
X84498402Y-103806877D01*
X84653123Y-103961598D01*
X84832361Y-104087102D01*
X85030670Y-104179575D01*
X85242023Y-104236207D01*
X85424926Y-104252208D01*
X85459998Y-104255277D01*
X85460000Y-104255277D01*
X85460002Y-104255277D01*
X85488254Y-104252805D01*
X85677977Y-104236207D01*
X85889330Y-104179575D01*
X86087639Y-104087102D01*
X86266877Y-103961598D01*
X86421598Y-103806877D01*
X86547102Y-103627639D01*
X86639575Y-103429330D01*
X86696207Y-103217977D01*
X86715277Y-103000000D01*
X86715277Y-102999999D01*
X93334357Y-102999999D01*
X93334357Y-103000000D01*
X93354884Y-103221535D01*
X93354885Y-103221537D01*
X93415769Y-103435523D01*
X93415775Y-103435538D01*
X93514938Y-103634683D01*
X93514943Y-103634691D01*
X93649020Y-103812238D01*
X93813437Y-103962123D01*
X93813439Y-103962125D01*
X94002595Y-104079245D01*
X94002596Y-104079245D01*
X94002599Y-104079247D01*
X94210060Y-104159618D01*
X94428757Y-104200500D01*
X94428759Y-104200500D01*
X94651241Y-104200500D01*
X94651243Y-104200500D01*
X94869940Y-104159618D01*
X95077401Y-104079247D01*
X95266562Y-103962124D01*
X95430981Y-103812236D01*
X95565058Y-103634689D01*
X95659000Y-103446030D01*
X95706503Y-103394793D01*
X95774166Y-103377372D01*
X95840506Y-103399298D01*
X95881000Y-103446030D01*
X95974938Y-103634683D01*
X95974943Y-103634691D01*
X96109020Y-103812238D01*
X96273437Y-103962123D01*
X96273439Y-103962125D01*
X96462595Y-104079245D01*
X96462596Y-104079245D01*
X96462599Y-104079247D01*
X96670060Y-104159618D01*
X96888757Y-104200500D01*
X96888759Y-104200500D01*
X97111241Y-104200500D01*
X97111243Y-104200500D01*
X97329940Y-104159618D01*
X97537401Y-104079247D01*
X97726562Y-103962124D01*
X97890981Y-103812236D01*
X98025058Y-103634689D01*
X98124229Y-103435528D01*
X98185115Y-103221536D01*
X98205643Y-103000000D01*
X98185115Y-102778464D01*
X98124229Y-102564472D01*
X98124224Y-102564461D01*
X98025061Y-102365316D01*
X98025056Y-102365308D01*
X97890979Y-102187761D01*
X97726562Y-102037876D01*
X97726560Y-102037874D01*
X97537404Y-101920754D01*
X97537398Y-101920752D01*
X97329940Y-101840382D01*
X97111243Y-101799500D01*
X96888757Y-101799500D01*
X96670060Y-101840382D01*
X96589743Y-101871497D01*
X96462601Y-101920752D01*
X96462595Y-101920754D01*
X96273439Y-102037874D01*
X96273437Y-102037876D01*
X96109020Y-102187761D01*
X95974943Y-102365308D01*
X95974938Y-102365316D01*
X95881000Y-102553969D01*
X95833497Y-102605206D01*
X95765834Y-102622627D01*
X95699494Y-102600701D01*
X95659000Y-102553969D01*
X95565061Y-102365316D01*
X95565056Y-102365308D01*
X95430979Y-102187761D01*
X95266562Y-102037876D01*
X95266560Y-102037874D01*
X95077404Y-101920754D01*
X95077398Y-101920752D01*
X94869940Y-101840382D01*
X94651243Y-101799500D01*
X94428757Y-101799500D01*
X94210060Y-101840382D01*
X94129743Y-101871497D01*
X94002601Y-101920752D01*
X94002595Y-101920754D01*
X93813439Y-102037874D01*
X93813437Y-102037876D01*
X93649020Y-102187761D01*
X93514943Y-102365308D01*
X93514938Y-102365316D01*
X93415775Y-102564461D01*
X93415769Y-102564476D01*
X93354885Y-102778462D01*
X93354884Y-102778464D01*
X93334357Y-102999999D01*
X86715277Y-102999999D01*
X86696207Y-102782023D01*
X86647622Y-102600701D01*
X86639577Y-102570677D01*
X86639576Y-102570676D01*
X86639575Y-102570670D01*
X86547102Y-102372362D01*
X86547100Y-102372359D01*
X86547099Y-102372357D01*
X86421599Y-102193124D01*
X86416236Y-102187761D01*
X86266877Y-102038402D01*
X86106456Y-101926073D01*
X86062832Y-101871497D01*
X86055640Y-101801999D01*
X86087162Y-101739644D01*
X86147392Y-101704231D01*
X86177581Y-101700500D01*
X93688693Y-101700500D01*
X93688694Y-101700499D01*
X93862666Y-101665895D01*
X93944606Y-101631953D01*
X94026547Y-101598013D01*
X94026549Y-101598011D01*
X94026552Y-101598010D01*
X94114955Y-101538939D01*
X94114955Y-101538938D01*
X94114959Y-101538936D01*
X94174036Y-101499464D01*
X97199463Y-98474036D01*
X97199464Y-98474035D01*
X97298013Y-98326547D01*
X97365894Y-98162666D01*
X97378650Y-98098538D01*
X97390717Y-98037874D01*
X97400500Y-97988694D01*
X97400500Y-95765783D01*
X97420185Y-95698744D01*
X97436820Y-95678101D01*
X97477136Y-95637785D01*
X97477139Y-95637782D01*
X97586632Y-95473914D01*
X97662051Y-95291835D01*
X97676034Y-95221537D01*
X97700500Y-95098543D01*
X97700500Y-94999999D01*
X99794357Y-94999999D01*
X99794357Y-95000000D01*
X99814884Y-95221535D01*
X99814885Y-95221537D01*
X99875769Y-95435523D01*
X99875775Y-95435538D01*
X99974938Y-95634683D01*
X99974943Y-95634691D01*
X100109020Y-95812238D01*
X100273437Y-95962123D01*
X100273439Y-95962125D01*
X100462595Y-96079245D01*
X100462596Y-96079245D01*
X100462599Y-96079247D01*
X100670060Y-96159618D01*
X100888757Y-96200500D01*
X100888759Y-96200500D01*
X101111241Y-96200500D01*
X101111243Y-96200500D01*
X101329940Y-96159618D01*
X101537401Y-96079247D01*
X101726562Y-95962124D01*
X101890981Y-95812236D01*
X102025058Y-95634689D01*
X102124229Y-95435528D01*
X102185115Y-95221536D01*
X102205643Y-95000000D01*
X102185115Y-94778464D01*
X102124229Y-94564472D01*
X102105115Y-94526086D01*
X102025061Y-94365316D01*
X102025056Y-94365308D01*
X101890979Y-94187761D01*
X101726562Y-94037876D01*
X101726560Y-94037874D01*
X101537404Y-93920754D01*
X101537398Y-93920752D01*
X101329940Y-93840382D01*
X101111243Y-93799500D01*
X100888757Y-93799500D01*
X100670060Y-93840382D01*
X100538864Y-93891207D01*
X100462601Y-93920752D01*
X100462595Y-93920754D01*
X100273439Y-94037874D01*
X100273437Y-94037876D01*
X100109020Y-94187761D01*
X99974943Y-94365308D01*
X99974938Y-94365316D01*
X99875775Y-94564461D01*
X99875769Y-94564476D01*
X99814885Y-94778462D01*
X99814884Y-94778464D01*
X99794357Y-94999999D01*
X97700500Y-94999999D01*
X97700500Y-94901456D01*
X97662052Y-94708170D01*
X97662051Y-94708169D01*
X97662051Y-94708165D01*
X97602532Y-94564472D01*
X97586635Y-94526092D01*
X97586628Y-94526079D01*
X97477139Y-94362218D01*
X97477136Y-94362214D01*
X97436819Y-94321897D01*
X97403334Y-94260574D01*
X97400500Y-94234216D01*
X97400500Y-94124374D01*
X97400499Y-94124373D01*
X97383309Y-94037949D01*
X97383309Y-94037946D01*
X97365896Y-93950407D01*
X97365895Y-93950400D01*
X97331953Y-93868459D01*
X97298013Y-93786519D01*
X97298011Y-93786516D01*
X97238936Y-93698105D01*
X97238936Y-93698104D01*
X97238933Y-93698102D01*
X97199466Y-93639032D01*
X90560433Y-86999999D01*
X95294357Y-86999999D01*
X95294357Y-87000000D01*
X95314884Y-87221535D01*
X95314885Y-87221537D01*
X95375769Y-87435523D01*
X95375775Y-87435538D01*
X95474938Y-87634683D01*
X95474943Y-87634691D01*
X95609020Y-87812238D01*
X95773437Y-87962123D01*
X95773439Y-87962125D01*
X95962595Y-88079245D01*
X95962596Y-88079245D01*
X95962599Y-88079247D01*
X96170060Y-88159618D01*
X96388757Y-88200500D01*
X96388759Y-88200500D01*
X96611241Y-88200500D01*
X96611243Y-88200500D01*
X96829940Y-88159618D01*
X97037401Y-88079247D01*
X97226562Y-87962124D01*
X97390981Y-87812236D01*
X97525058Y-87634689D01*
X97624229Y-87435528D01*
X97634338Y-87399999D01*
X98294357Y-87399999D01*
X98294357Y-87400000D01*
X98314884Y-87621535D01*
X98314885Y-87621537D01*
X98375769Y-87835523D01*
X98375775Y-87835538D01*
X98474938Y-88034683D01*
X98474943Y-88034691D01*
X98609020Y-88212238D01*
X98773437Y-88362123D01*
X98773439Y-88362125D01*
X98962595Y-88479245D01*
X98962596Y-88479245D01*
X98962599Y-88479247D01*
X99170060Y-88559618D01*
X99388757Y-88600500D01*
X99388759Y-88600500D01*
X99611241Y-88600500D01*
X99611243Y-88600500D01*
X99829940Y-88559618D01*
X100037401Y-88479247D01*
X100226562Y-88362124D01*
X100390981Y-88212236D01*
X100525058Y-88034689D01*
X100624229Y-87835528D01*
X100650734Y-87742371D01*
X100688013Y-87683278D01*
X100751323Y-87653721D01*
X100820562Y-87663083D01*
X100873749Y-87708393D01*
X100889266Y-87742372D01*
X100915769Y-87835523D01*
X100915775Y-87835538D01*
X101014938Y-88034683D01*
X101014943Y-88034691D01*
X101149020Y-88212238D01*
X101313437Y-88362123D01*
X101313439Y-88362125D01*
X101502595Y-88479245D01*
X101502596Y-88479245D01*
X101502599Y-88479247D01*
X101710060Y-88559618D01*
X101928757Y-88600500D01*
X101928759Y-88600500D01*
X102151241Y-88600500D01*
X102151243Y-88600500D01*
X102369940Y-88559618D01*
X102577401Y-88479247D01*
X102766562Y-88362124D01*
X102930981Y-88212236D01*
X103065058Y-88034689D01*
X103164229Y-87835528D01*
X103225115Y-87621536D01*
X103245643Y-87400000D01*
X103225115Y-87178464D01*
X103164229Y-86964472D01*
X103164224Y-86964461D01*
X103065061Y-86765316D01*
X103065056Y-86765308D01*
X102930979Y-86587761D01*
X102766562Y-86437876D01*
X102766560Y-86437874D01*
X102577404Y-86320754D01*
X102577398Y-86320752D01*
X102369940Y-86240382D01*
X102151243Y-86199500D01*
X101928757Y-86199500D01*
X101710060Y-86240382D01*
X101578864Y-86291207D01*
X101502601Y-86320752D01*
X101502595Y-86320754D01*
X101313439Y-86437874D01*
X101313437Y-86437876D01*
X101149020Y-86587761D01*
X101014943Y-86765308D01*
X101014938Y-86765316D01*
X100915775Y-86964461D01*
X100915769Y-86964476D01*
X100889266Y-87057627D01*
X100851987Y-87116721D01*
X100788677Y-87146278D01*
X100719438Y-87136916D01*
X100666251Y-87091606D01*
X100650734Y-87057627D01*
X100624230Y-86964476D01*
X100624229Y-86964472D01*
X100624224Y-86964461D01*
X100525061Y-86765316D01*
X100525056Y-86765308D01*
X100390979Y-86587761D01*
X100226562Y-86437876D01*
X100226560Y-86437874D01*
X100037404Y-86320754D01*
X100037398Y-86320752D01*
X99829940Y-86240382D01*
X99611243Y-86199500D01*
X99388757Y-86199500D01*
X99170060Y-86240382D01*
X99038864Y-86291207D01*
X98962601Y-86320752D01*
X98962595Y-86320754D01*
X98773439Y-86437874D01*
X98773437Y-86437876D01*
X98609020Y-86587761D01*
X98474943Y-86765308D01*
X98474938Y-86765316D01*
X98375775Y-86964461D01*
X98375769Y-86964476D01*
X98314885Y-87178462D01*
X98314884Y-87178464D01*
X98294357Y-87399999D01*
X97634338Y-87399999D01*
X97685115Y-87221536D01*
X97705643Y-87000000D01*
X97685115Y-86778464D01*
X97624229Y-86564472D01*
X97624224Y-86564461D01*
X97525061Y-86365316D01*
X97525056Y-86365308D01*
X97390979Y-86187761D01*
X97226562Y-86037876D01*
X97226560Y-86037874D01*
X97037404Y-85920754D01*
X97037398Y-85920752D01*
X96829940Y-85840382D01*
X96611243Y-85799500D01*
X96388757Y-85799500D01*
X96170060Y-85840382D01*
X96099160Y-85867849D01*
X95962601Y-85920752D01*
X95962595Y-85920754D01*
X95773439Y-86037874D01*
X95773437Y-86037876D01*
X95609020Y-86187761D01*
X95474943Y-86365308D01*
X95474938Y-86365316D01*
X95375775Y-86564461D01*
X95375769Y-86564476D01*
X95314885Y-86778462D01*
X95314884Y-86778464D01*
X95294357Y-86999999D01*
X90560433Y-86999999D01*
X86714309Y-83153875D01*
X86680824Y-83092552D01*
X86685808Y-83022860D01*
X86727680Y-82966927D01*
X86744360Y-82956400D01*
X86823805Y-82914704D01*
X86881431Y-82900500D01*
X90172096Y-82900500D01*
X90239135Y-82920185D01*
X90284890Y-82972989D01*
X90295567Y-83013059D01*
X90314884Y-83221535D01*
X90314885Y-83221537D01*
X90375769Y-83435523D01*
X90375775Y-83435538D01*
X90474938Y-83634683D01*
X90474943Y-83634691D01*
X90609020Y-83812238D01*
X90773437Y-83962123D01*
X90773439Y-83962125D01*
X90962595Y-84079245D01*
X90962596Y-84079245D01*
X90962599Y-84079247D01*
X91170060Y-84159618D01*
X91388757Y-84200500D01*
X91388759Y-84200500D01*
X91611241Y-84200500D01*
X91611243Y-84200500D01*
X91829940Y-84159618D01*
X92037401Y-84079247D01*
X92226562Y-83962124D01*
X92380778Y-83821537D01*
X92390979Y-83812238D01*
X92500261Y-83667526D01*
X92525058Y-83634689D01*
X92624229Y-83435528D01*
X92685115Y-83221536D01*
X92705643Y-83000000D01*
X92705643Y-82999999D01*
X95294357Y-82999999D01*
X95294357Y-83000000D01*
X95314884Y-83221535D01*
X95314885Y-83221537D01*
X95375769Y-83435523D01*
X95375775Y-83435538D01*
X95474938Y-83634683D01*
X95474943Y-83634691D01*
X95609020Y-83812238D01*
X95773437Y-83962123D01*
X95773439Y-83962125D01*
X95962595Y-84079245D01*
X95962596Y-84079245D01*
X95962599Y-84079247D01*
X96170060Y-84159618D01*
X96388757Y-84200500D01*
X96388759Y-84200500D01*
X96611241Y-84200500D01*
X96611243Y-84200500D01*
X96829940Y-84159618D01*
X97037401Y-84079247D01*
X97226562Y-83962124D01*
X97380778Y-83821537D01*
X97390979Y-83812238D01*
X97500261Y-83667526D01*
X97525058Y-83634689D01*
X97542332Y-83599999D01*
X98294357Y-83599999D01*
X98294357Y-83600000D01*
X98314884Y-83821535D01*
X98314885Y-83821537D01*
X98375769Y-84035523D01*
X98375775Y-84035538D01*
X98474938Y-84234683D01*
X98474943Y-84234691D01*
X98609020Y-84412238D01*
X98773437Y-84562123D01*
X98773439Y-84562125D01*
X98962595Y-84679245D01*
X98962596Y-84679245D01*
X98962599Y-84679247D01*
X99170060Y-84759618D01*
X99388757Y-84800500D01*
X99388759Y-84800500D01*
X99611241Y-84800500D01*
X99611243Y-84800500D01*
X99829940Y-84759618D01*
X100037401Y-84679247D01*
X100226562Y-84562124D01*
X100390981Y-84412236D01*
X100525058Y-84234689D01*
X100624229Y-84035528D01*
X100650734Y-83942371D01*
X100688013Y-83883278D01*
X100751323Y-83853721D01*
X100820562Y-83863083D01*
X100873749Y-83908393D01*
X100889266Y-83942372D01*
X100915769Y-84035523D01*
X100915775Y-84035538D01*
X101014938Y-84234683D01*
X101014943Y-84234691D01*
X101149020Y-84412238D01*
X101313437Y-84562123D01*
X101313439Y-84562125D01*
X101502595Y-84679245D01*
X101502596Y-84679245D01*
X101502599Y-84679247D01*
X101710060Y-84759618D01*
X101928757Y-84800500D01*
X101928759Y-84800500D01*
X102151241Y-84800500D01*
X102151243Y-84800500D01*
X102369940Y-84759618D01*
X102577401Y-84679247D01*
X102766562Y-84562124D01*
X102930981Y-84412236D01*
X103065058Y-84234689D01*
X103164229Y-84035528D01*
X103225115Y-83821536D01*
X103245643Y-83600000D01*
X103235169Y-83486971D01*
X103225115Y-83378464D01*
X103225114Y-83378462D01*
X103215728Y-83345475D01*
X103164229Y-83164472D01*
X103164224Y-83164461D01*
X103065061Y-82965316D01*
X103065056Y-82965308D01*
X102930979Y-82787761D01*
X102766562Y-82637876D01*
X102766560Y-82637874D01*
X102577404Y-82520754D01*
X102577398Y-82520752D01*
X102369940Y-82440382D01*
X102151243Y-82399500D01*
X101928757Y-82399500D01*
X101710060Y-82440382D01*
X101578864Y-82491207D01*
X101502601Y-82520752D01*
X101502595Y-82520754D01*
X101313439Y-82637874D01*
X101313437Y-82637876D01*
X101149020Y-82787761D01*
X101014943Y-82965308D01*
X101014938Y-82965316D01*
X100915775Y-83164461D01*
X100915769Y-83164476D01*
X100889266Y-83257627D01*
X100851987Y-83316721D01*
X100788677Y-83346278D01*
X100719438Y-83336916D01*
X100666251Y-83291606D01*
X100650734Y-83257627D01*
X100624230Y-83164476D01*
X100624229Y-83164472D01*
X100624224Y-83164461D01*
X100525061Y-82965316D01*
X100525056Y-82965308D01*
X100390979Y-82787761D01*
X100226562Y-82637876D01*
X100226560Y-82637874D01*
X100037404Y-82520754D01*
X100037398Y-82520752D01*
X99829940Y-82440382D01*
X99611243Y-82399500D01*
X99388757Y-82399500D01*
X99170060Y-82440382D01*
X99038864Y-82491207D01*
X98962601Y-82520752D01*
X98962595Y-82520754D01*
X98773439Y-82637874D01*
X98773437Y-82637876D01*
X98609020Y-82787761D01*
X98474943Y-82965308D01*
X98474938Y-82965316D01*
X98375775Y-83164461D01*
X98375769Y-83164476D01*
X98314885Y-83378462D01*
X98314884Y-83378464D01*
X98294357Y-83599999D01*
X97542332Y-83599999D01*
X97624229Y-83435528D01*
X97685115Y-83221536D01*
X97705643Y-83000000D01*
X97685115Y-82778464D01*
X97624229Y-82564472D01*
X97602460Y-82520754D01*
X97525061Y-82365316D01*
X97525056Y-82365308D01*
X97390979Y-82187761D01*
X97226562Y-82037876D01*
X97226560Y-82037874D01*
X97037404Y-81920754D01*
X97037398Y-81920752D01*
X96829940Y-81840382D01*
X96611243Y-81799500D01*
X96388757Y-81799500D01*
X96170060Y-81840382D01*
X96038864Y-81891207D01*
X95962601Y-81920752D01*
X95962595Y-81920754D01*
X95773439Y-82037874D01*
X95773437Y-82037876D01*
X95609020Y-82187761D01*
X95474943Y-82365308D01*
X95474938Y-82365316D01*
X95375775Y-82564461D01*
X95375769Y-82564476D01*
X95314885Y-82778462D01*
X95314884Y-82778464D01*
X95294357Y-82999999D01*
X92705643Y-82999999D01*
X92685115Y-82778464D01*
X92624229Y-82564472D01*
X92602460Y-82520754D01*
X92525061Y-82365316D01*
X92525056Y-82365308D01*
X92390979Y-82187761D01*
X92226562Y-82037876D01*
X92226560Y-82037874D01*
X92037404Y-81920754D01*
X92037398Y-81920752D01*
X91829940Y-81840382D01*
X91829934Y-81840381D01*
X91824594Y-81838312D01*
X91825021Y-81837208D01*
X91771053Y-81803162D01*
X91741496Y-81739852D01*
X91750858Y-81670612D01*
X91776397Y-81633497D01*
X94409896Y-78999999D01*
X95294357Y-78999999D01*
X95294357Y-79000000D01*
X95314884Y-79221535D01*
X95314885Y-79221537D01*
X95375769Y-79435523D01*
X95375775Y-79435538D01*
X95474938Y-79634683D01*
X95474943Y-79634691D01*
X95609020Y-79812238D01*
X95773437Y-79962123D01*
X95773439Y-79962125D01*
X95962595Y-80079245D01*
X95962596Y-80079245D01*
X95962599Y-80079247D01*
X96170060Y-80159618D01*
X96388757Y-80200500D01*
X96388759Y-80200500D01*
X96611241Y-80200500D01*
X96611243Y-80200500D01*
X96829940Y-80159618D01*
X97037401Y-80079247D01*
X97226562Y-79962124D01*
X97390981Y-79812236D01*
X97400222Y-79799999D01*
X98294357Y-79799999D01*
X98294357Y-79800000D01*
X98314884Y-80021535D01*
X98314885Y-80021537D01*
X98375769Y-80235523D01*
X98375775Y-80235538D01*
X98474938Y-80434683D01*
X98474943Y-80434691D01*
X98609020Y-80612238D01*
X98773437Y-80762123D01*
X98773439Y-80762125D01*
X98962595Y-80879245D01*
X98962596Y-80879245D01*
X98962599Y-80879247D01*
X99170060Y-80959618D01*
X99388757Y-81000500D01*
X99388759Y-81000500D01*
X99611241Y-81000500D01*
X99611243Y-81000500D01*
X99829940Y-80959618D01*
X100037401Y-80879247D01*
X100226562Y-80762124D01*
X100390981Y-80612236D01*
X100525058Y-80434689D01*
X100624229Y-80235528D01*
X100650734Y-80142371D01*
X100688013Y-80083278D01*
X100751323Y-80053721D01*
X100820562Y-80063083D01*
X100873749Y-80108393D01*
X100889266Y-80142372D01*
X100915769Y-80235523D01*
X100915775Y-80235538D01*
X101014938Y-80434683D01*
X101014943Y-80434691D01*
X101149020Y-80612238D01*
X101313437Y-80762123D01*
X101313439Y-80762125D01*
X101502595Y-80879245D01*
X101502596Y-80879245D01*
X101502599Y-80879247D01*
X101710060Y-80959618D01*
X101928757Y-81000500D01*
X101928759Y-81000500D01*
X102151241Y-81000500D01*
X102151243Y-81000500D01*
X102369940Y-80959618D01*
X102577401Y-80879247D01*
X102766562Y-80762124D01*
X102930981Y-80612236D01*
X103065058Y-80434689D01*
X103164229Y-80235528D01*
X103225115Y-80021536D01*
X103245643Y-79800000D01*
X103225115Y-79578464D01*
X103164229Y-79364472D01*
X103164224Y-79364461D01*
X103065061Y-79165316D01*
X103065056Y-79165308D01*
X102930979Y-78987761D01*
X102766562Y-78837876D01*
X102766560Y-78837874D01*
X102577404Y-78720754D01*
X102577398Y-78720752D01*
X102369940Y-78640382D01*
X102151243Y-78599500D01*
X101928757Y-78599500D01*
X101710060Y-78640382D01*
X101615417Y-78677047D01*
X101502601Y-78720752D01*
X101502595Y-78720754D01*
X101313439Y-78837874D01*
X101313437Y-78837876D01*
X101149020Y-78987761D01*
X101014943Y-79165308D01*
X101014938Y-79165316D01*
X100915775Y-79364461D01*
X100915769Y-79364476D01*
X100889266Y-79457627D01*
X100851987Y-79516721D01*
X100788677Y-79546278D01*
X100719438Y-79536916D01*
X100666251Y-79491606D01*
X100650734Y-79457627D01*
X100624230Y-79364476D01*
X100624229Y-79364472D01*
X100624224Y-79364461D01*
X100525061Y-79165316D01*
X100525056Y-79165308D01*
X100390979Y-78987761D01*
X100226562Y-78837876D01*
X100226560Y-78837874D01*
X100037404Y-78720754D01*
X100037398Y-78720752D01*
X99829940Y-78640382D01*
X99611243Y-78599500D01*
X99388757Y-78599500D01*
X99170060Y-78640382D01*
X99075417Y-78677047D01*
X98962601Y-78720752D01*
X98962595Y-78720754D01*
X98773439Y-78837874D01*
X98773437Y-78837876D01*
X98609020Y-78987761D01*
X98474943Y-79165308D01*
X98474938Y-79165316D01*
X98375775Y-79364461D01*
X98375769Y-79364476D01*
X98314885Y-79578462D01*
X98314884Y-79578464D01*
X98294357Y-79799999D01*
X97400222Y-79799999D01*
X97525058Y-79634689D01*
X97624229Y-79435528D01*
X97685115Y-79221536D01*
X97705643Y-79000000D01*
X97691838Y-78851023D01*
X97685115Y-78778464D01*
X97685114Y-78778462D01*
X97672214Y-78733124D01*
X97624229Y-78564472D01*
X97624224Y-78564461D01*
X97525061Y-78365316D01*
X97525056Y-78365308D01*
X97390979Y-78187761D01*
X97226562Y-78037876D01*
X97226560Y-78037874D01*
X97037404Y-77920754D01*
X97037398Y-77920752D01*
X96829940Y-77840382D01*
X96611243Y-77799500D01*
X96388757Y-77799500D01*
X96170060Y-77840382D01*
X96038864Y-77891207D01*
X95962601Y-77920752D01*
X95962595Y-77920754D01*
X95773439Y-78037874D01*
X95773437Y-78037876D01*
X95609020Y-78187761D01*
X95474943Y-78365308D01*
X95474938Y-78365316D01*
X95375775Y-78564461D01*
X95375769Y-78564476D01*
X95314885Y-78778462D01*
X95314884Y-78778464D01*
X95294357Y-78999999D01*
X94409896Y-78999999D01*
X96940510Y-76469385D01*
X97012984Y-76343855D01*
X97050500Y-76203845D01*
X97050500Y-76140203D01*
X97070185Y-76073164D01*
X97109221Y-76034777D01*
X97165391Y-75999999D01*
X98294357Y-75999999D01*
X98294357Y-76000000D01*
X98314884Y-76221535D01*
X98314885Y-76221537D01*
X98375769Y-76435523D01*
X98375775Y-76435538D01*
X98474938Y-76634683D01*
X98474943Y-76634691D01*
X98609020Y-76812238D01*
X98773437Y-76962123D01*
X98773439Y-76962125D01*
X98962595Y-77079245D01*
X98962596Y-77079245D01*
X98962599Y-77079247D01*
X99170060Y-77159618D01*
X99388757Y-77200500D01*
X99388759Y-77200500D01*
X99611241Y-77200500D01*
X99611243Y-77200500D01*
X99829940Y-77159618D01*
X100037401Y-77079247D01*
X100226562Y-76962124D01*
X100390981Y-76812236D01*
X100525058Y-76634689D01*
X100624229Y-76435528D01*
X100650734Y-76342371D01*
X100688013Y-76283278D01*
X100751323Y-76253721D01*
X100820562Y-76263083D01*
X100873749Y-76308393D01*
X100889266Y-76342372D01*
X100915769Y-76435523D01*
X100915775Y-76435538D01*
X101014938Y-76634683D01*
X101014943Y-76634691D01*
X101149020Y-76812238D01*
X101313437Y-76962123D01*
X101313439Y-76962125D01*
X101502595Y-77079245D01*
X101502596Y-77079245D01*
X101502599Y-77079247D01*
X101710060Y-77159618D01*
X101928757Y-77200500D01*
X101928759Y-77200500D01*
X102151241Y-77200500D01*
X102151243Y-77200500D01*
X102369940Y-77159618D01*
X102577401Y-77079247D01*
X102766562Y-76962124D01*
X102930981Y-76812236D01*
X103065058Y-76634689D01*
X103164229Y-76435528D01*
X103225115Y-76221536D01*
X103245643Y-76000000D01*
X103225115Y-75778464D01*
X103164229Y-75564472D01*
X103164224Y-75564461D01*
X103065061Y-75365316D01*
X103065056Y-75365308D01*
X102930979Y-75187761D01*
X102766562Y-75037876D01*
X102766560Y-75037874D01*
X102577404Y-74920754D01*
X102577398Y-74920752D01*
X102369940Y-74840382D01*
X102151243Y-74799500D01*
X101928757Y-74799500D01*
X101710060Y-74840382D01*
X101578864Y-74891207D01*
X101502601Y-74920752D01*
X101502595Y-74920754D01*
X101313439Y-75037874D01*
X101313437Y-75037876D01*
X101149020Y-75187761D01*
X101014943Y-75365308D01*
X101014938Y-75365316D01*
X100915775Y-75564461D01*
X100915769Y-75564476D01*
X100889266Y-75657627D01*
X100851987Y-75716721D01*
X100788677Y-75746278D01*
X100719438Y-75736916D01*
X100666251Y-75691606D01*
X100650734Y-75657627D01*
X100624230Y-75564476D01*
X100624229Y-75564472D01*
X100624224Y-75564461D01*
X100525061Y-75365316D01*
X100525056Y-75365308D01*
X100390979Y-75187761D01*
X100226562Y-75037876D01*
X100226560Y-75037874D01*
X100037404Y-74920754D01*
X100037398Y-74920752D01*
X99829940Y-74840382D01*
X99611243Y-74799500D01*
X99388757Y-74799500D01*
X99170060Y-74840382D01*
X99038864Y-74891207D01*
X98962601Y-74920752D01*
X98962595Y-74920754D01*
X98773439Y-75037874D01*
X98773437Y-75037876D01*
X98609020Y-75187761D01*
X98474943Y-75365308D01*
X98474938Y-75365316D01*
X98375775Y-75564461D01*
X98375769Y-75564476D01*
X98314885Y-75778462D01*
X98314884Y-75778464D01*
X98294357Y-75999999D01*
X97165391Y-75999999D01*
X97226562Y-75962124D01*
X97390981Y-75812236D01*
X97525058Y-75634689D01*
X97624229Y-75435528D01*
X97685115Y-75221536D01*
X97705643Y-75000000D01*
X97685115Y-74778464D01*
X97624229Y-74564472D01*
X97624224Y-74564461D01*
X97525061Y-74365316D01*
X97525056Y-74365308D01*
X97390979Y-74187761D01*
X97226562Y-74037876D01*
X97226560Y-74037874D01*
X97037404Y-73920754D01*
X97037398Y-73920752D01*
X96829940Y-73840382D01*
X96611243Y-73799500D01*
X96388757Y-73799500D01*
X96170060Y-73840382D01*
X96038864Y-73891207D01*
X95962601Y-73920752D01*
X95962595Y-73920754D01*
X95773439Y-74037874D01*
X95773437Y-74037876D01*
X95609020Y-74187761D01*
X95474943Y-74365308D01*
X95474938Y-74365316D01*
X95375775Y-74564461D01*
X95375769Y-74564476D01*
X95314885Y-74778462D01*
X95314884Y-74778464D01*
X95294357Y-74999999D01*
X95294357Y-75000000D01*
X95314884Y-75221535D01*
X95314885Y-75221537D01*
X95375769Y-75435523D01*
X95375775Y-75435538D01*
X95474938Y-75634683D01*
X95474943Y-75634691D01*
X95609020Y-75812238D01*
X95738818Y-75930564D01*
X95775100Y-75990275D01*
X95773339Y-76060123D01*
X95742961Y-76109882D01*
X92904906Y-78947937D01*
X92843583Y-78981422D01*
X92773891Y-78976438D01*
X92717958Y-78934566D01*
X92693754Y-78871697D01*
X92685115Y-78778464D01*
X92685114Y-78778462D01*
X92672214Y-78733124D01*
X92624229Y-78564472D01*
X92624224Y-78564461D01*
X92525061Y-78365316D01*
X92525056Y-78365308D01*
X92390979Y-78187761D01*
X92226562Y-78037876D01*
X92226560Y-78037874D01*
X92037404Y-77920754D01*
X92037398Y-77920752D01*
X91829940Y-77840382D01*
X91611243Y-77799500D01*
X91388757Y-77799500D01*
X91170060Y-77840382D01*
X91038864Y-77891207D01*
X90962601Y-77920752D01*
X90962595Y-77920754D01*
X90773439Y-78037874D01*
X90773437Y-78037876D01*
X90609020Y-78187761D01*
X90474943Y-78365308D01*
X90474938Y-78365316D01*
X90375775Y-78564461D01*
X90375769Y-78564476D01*
X90314885Y-78778462D01*
X90314884Y-78778464D01*
X90294357Y-78999999D01*
X90294357Y-79000000D01*
X90314884Y-79221535D01*
X90314885Y-79221537D01*
X90375769Y-79435523D01*
X90375775Y-79435538D01*
X90474938Y-79634683D01*
X90474943Y-79634691D01*
X90609020Y-79812238D01*
X90773437Y-79962123D01*
X90773439Y-79962125D01*
X90962595Y-80079245D01*
X90962596Y-80079245D01*
X90962599Y-80079247D01*
X91170060Y-80159618D01*
X91379592Y-80198786D01*
X91441872Y-80230454D01*
X91477145Y-80290767D01*
X91474211Y-80360575D01*
X91444487Y-80408356D01*
X90089664Y-81763181D01*
X90028341Y-81796666D01*
X90001983Y-81799500D01*
X86881431Y-81799500D01*
X86823805Y-81785296D01*
X86732365Y-81737304D01*
X86732364Y-81737303D01*
X86732363Y-81737303D01*
X86578986Y-81699500D01*
X86578985Y-81699500D01*
X86461717Y-81699500D01*
X86394678Y-81679815D01*
X86348923Y-81627011D01*
X86338979Y-81557853D01*
X86368004Y-81494297D01*
X86374036Y-81487819D01*
X88699463Y-79162392D01*
X88699465Y-79162389D01*
X88798009Y-79014909D01*
X88798009Y-79014908D01*
X88798013Y-79014903D01*
X88865894Y-78851022D01*
X88868510Y-78837874D01*
X88900499Y-78677051D01*
X88900500Y-78677049D01*
X88900500Y-75841190D01*
X88920185Y-75774151D01*
X88925538Y-75766473D01*
X89025058Y-75634689D01*
X89124229Y-75435528D01*
X89185115Y-75221536D01*
X89205643Y-75000000D01*
X89205643Y-74999999D01*
X90294357Y-74999999D01*
X90294357Y-75000000D01*
X90314884Y-75221535D01*
X90314885Y-75221537D01*
X90375769Y-75435523D01*
X90375775Y-75435538D01*
X90474938Y-75634683D01*
X90474943Y-75634691D01*
X90609020Y-75812238D01*
X90773437Y-75962123D01*
X90773439Y-75962125D01*
X90962595Y-76079245D01*
X90962596Y-76079245D01*
X90962599Y-76079247D01*
X91170060Y-76159618D01*
X91388757Y-76200500D01*
X91388759Y-76200500D01*
X91611241Y-76200500D01*
X91611243Y-76200500D01*
X91829940Y-76159618D01*
X92037401Y-76079247D01*
X92226562Y-75962124D01*
X92390981Y-75812236D01*
X92525058Y-75634689D01*
X92624229Y-75435528D01*
X92685115Y-75221536D01*
X92705643Y-75000000D01*
X92685115Y-74778464D01*
X92624229Y-74564472D01*
X92624224Y-74564461D01*
X92525061Y-74365316D01*
X92525056Y-74365308D01*
X92390979Y-74187761D01*
X92226562Y-74037876D01*
X92226560Y-74037874D01*
X92037404Y-73920754D01*
X92037398Y-73920752D01*
X91829940Y-73840382D01*
X91611243Y-73799500D01*
X91388757Y-73799500D01*
X91170060Y-73840382D01*
X91038864Y-73891207D01*
X90962601Y-73920752D01*
X90962595Y-73920754D01*
X90773439Y-74037874D01*
X90773437Y-74037876D01*
X90609020Y-74187761D01*
X90474943Y-74365308D01*
X90474938Y-74365316D01*
X90375775Y-74564461D01*
X90375769Y-74564476D01*
X90314885Y-74778462D01*
X90314884Y-74778464D01*
X90294357Y-74999999D01*
X89205643Y-74999999D01*
X89185115Y-74778464D01*
X89124229Y-74564472D01*
X89124224Y-74564461D01*
X89025061Y-74365316D01*
X89025052Y-74365302D01*
X88925546Y-74233534D01*
X88900854Y-74168173D01*
X88900500Y-74158808D01*
X88900500Y-72499999D01*
X100834357Y-72499999D01*
X100834357Y-72500000D01*
X100854884Y-72721535D01*
X100854885Y-72721537D01*
X100915769Y-72935523D01*
X100915775Y-72935538D01*
X101014938Y-73134683D01*
X101014943Y-73134691D01*
X101149020Y-73312238D01*
X101313437Y-73462123D01*
X101313439Y-73462125D01*
X101502595Y-73579245D01*
X101502596Y-73579245D01*
X101502599Y-73579247D01*
X101710060Y-73659618D01*
X101928757Y-73700500D01*
X101928759Y-73700500D01*
X102151241Y-73700500D01*
X102151243Y-73700500D01*
X102369940Y-73659618D01*
X102577401Y-73579247D01*
X102766562Y-73462124D01*
X102930981Y-73312236D01*
X103065058Y-73134689D01*
X103164229Y-72935528D01*
X103225115Y-72721536D01*
X103245643Y-72500000D01*
X103225115Y-72278464D01*
X103164229Y-72064472D01*
X103160669Y-72057322D01*
X103065061Y-71865316D01*
X103065056Y-71865308D01*
X102930979Y-71687761D01*
X102766562Y-71537876D01*
X102766560Y-71537874D01*
X102577404Y-71420754D01*
X102577398Y-71420752D01*
X102369940Y-71340382D01*
X102151243Y-71299500D01*
X101928757Y-71299500D01*
X101710060Y-71340382D01*
X101578864Y-71391207D01*
X101502601Y-71420752D01*
X101502595Y-71420754D01*
X101313439Y-71537874D01*
X101313437Y-71537876D01*
X101149020Y-71687761D01*
X101014943Y-71865308D01*
X101014938Y-71865316D01*
X100915775Y-72064461D01*
X100915769Y-72064476D01*
X100854885Y-72278462D01*
X100854884Y-72278464D01*
X100834357Y-72499999D01*
X88900500Y-72499999D01*
X88900500Y-72124361D01*
X88920185Y-72057322D01*
X88936819Y-72036680D01*
X90973499Y-70000000D01*
X95264571Y-70000000D01*
X95284244Y-70212310D01*
X95312676Y-70312238D01*
X95342596Y-70417392D01*
X95342596Y-70417394D01*
X95437632Y-70608253D01*
X95566127Y-70778406D01*
X95566128Y-70778407D01*
X95723698Y-70922052D01*
X95904981Y-71034298D01*
X96103802Y-71111321D01*
X96313390Y-71150500D01*
X96313392Y-71150500D01*
X96526608Y-71150500D01*
X96526610Y-71150500D01*
X96736198Y-71111321D01*
X96935019Y-71034298D01*
X97116302Y-70922052D01*
X97273872Y-70778407D01*
X97402366Y-70608255D01*
X97416811Y-70579245D01*
X97497403Y-70417394D01*
X97497403Y-70417393D01*
X97497405Y-70417389D01*
X97555756Y-70212310D01*
X97575429Y-70000000D01*
X97555756Y-69787690D01*
X97497405Y-69582611D01*
X97497403Y-69582606D01*
X97497403Y-69582605D01*
X97402367Y-69391746D01*
X97273872Y-69221593D01*
X97240978Y-69191606D01*
X97116302Y-69077948D01*
X96935019Y-68965702D01*
X96935017Y-68965701D01*
X96835608Y-68927190D01*
X96736198Y-68888679D01*
X96526610Y-68849500D01*
X96313390Y-68849500D01*
X96103802Y-68888679D01*
X96103799Y-68888679D01*
X96103799Y-68888680D01*
X95904982Y-68965701D01*
X95904980Y-68965702D01*
X95723699Y-69077947D01*
X95566127Y-69221593D01*
X95437632Y-69391746D01*
X95342596Y-69582605D01*
X95342596Y-69582607D01*
X95284244Y-69787689D01*
X95268267Y-69960118D01*
X95264571Y-70000000D01*
X90973499Y-70000000D01*
X93186680Y-67786819D01*
X93248003Y-67753334D01*
X93274361Y-67750500D01*
X99925638Y-67750500D01*
X99992677Y-67770185D01*
X100013319Y-67786819D01*
X100977406Y-68750906D01*
X101010891Y-68812229D01*
X101005907Y-68881921D01*
X101000725Y-68893858D01*
X100915777Y-69064456D01*
X100915769Y-69064476D01*
X100889266Y-69157627D01*
X100851987Y-69216721D01*
X100788677Y-69246278D01*
X100719438Y-69236916D01*
X100666251Y-69191606D01*
X100650734Y-69157627D01*
X100624230Y-69064476D01*
X100624229Y-69064472D01*
X100624224Y-69064461D01*
X100525061Y-68865316D01*
X100525056Y-68865308D01*
X100390979Y-68687761D01*
X100226562Y-68537876D01*
X100226560Y-68537874D01*
X100037404Y-68420754D01*
X100037398Y-68420752D01*
X99829940Y-68340382D01*
X99611243Y-68299500D01*
X99388757Y-68299500D01*
X99170060Y-68340382D01*
X99110027Y-68363639D01*
X98962601Y-68420752D01*
X98962595Y-68420754D01*
X98773439Y-68537874D01*
X98773437Y-68537876D01*
X98609020Y-68687761D01*
X98474943Y-68865308D01*
X98474938Y-68865316D01*
X98375775Y-69064461D01*
X98375769Y-69064476D01*
X98314885Y-69278462D01*
X98314884Y-69278464D01*
X98294357Y-69499999D01*
X98294357Y-69500000D01*
X98314884Y-69721535D01*
X98314885Y-69721537D01*
X98375769Y-69935523D01*
X98375775Y-69935538D01*
X98474938Y-70134683D01*
X98474943Y-70134691D01*
X98609020Y-70312238D01*
X98773437Y-70462123D01*
X98773439Y-70462125D01*
X98962595Y-70579245D01*
X98962596Y-70579245D01*
X98962599Y-70579247D01*
X99170060Y-70659618D01*
X99388757Y-70700500D01*
X99388759Y-70700500D01*
X99611241Y-70700500D01*
X99611243Y-70700500D01*
X99829940Y-70659618D01*
X100037401Y-70579247D01*
X100226562Y-70462124D01*
X100390981Y-70312236D01*
X100525058Y-70134689D01*
X100624229Y-69935528D01*
X100650734Y-69842371D01*
X100688013Y-69783278D01*
X100751323Y-69753721D01*
X100820562Y-69763083D01*
X100873749Y-69808393D01*
X100889266Y-69842372D01*
X100915769Y-69935523D01*
X100915775Y-69935538D01*
X101014938Y-70134683D01*
X101014943Y-70134691D01*
X101149020Y-70312238D01*
X101313437Y-70462123D01*
X101313439Y-70462125D01*
X101502595Y-70579245D01*
X101502596Y-70579245D01*
X101502599Y-70579247D01*
X101710060Y-70659618D01*
X101928757Y-70700500D01*
X101928759Y-70700500D01*
X102151241Y-70700500D01*
X102151243Y-70700500D01*
X102369940Y-70659618D01*
X102577401Y-70579247D01*
X102766562Y-70462124D01*
X102930981Y-70312236D01*
X103065058Y-70134689D01*
X103164229Y-69935528D01*
X103225115Y-69721536D01*
X103245643Y-69500000D01*
X103225115Y-69278464D01*
X103164229Y-69064472D01*
X103164224Y-69064461D01*
X103065061Y-68865316D01*
X103065052Y-68865302D01*
X102965546Y-68733534D01*
X102940854Y-68668173D01*
X102940500Y-68658808D01*
X102940500Y-68451308D01*
X102940499Y-68451307D01*
X102922034Y-68358474D01*
X102922034Y-68358471D01*
X102905896Y-68277341D01*
X102905895Y-68277334D01*
X102871953Y-68195393D01*
X102838013Y-68113453D01*
X102743259Y-67971644D01*
X102739464Y-67965964D01*
X100924036Y-66150536D01*
X100924035Y-66150535D01*
X100924030Y-66150531D01*
X100864961Y-66111064D01*
X100864960Y-66111063D01*
X100776544Y-66051985D01*
X100776542Y-66051984D01*
X100694607Y-66018046D01*
X100694606Y-66018046D01*
X100612666Y-65984105D01*
X100612658Y-65984103D01*
X100438696Y-65949500D01*
X100438692Y-65949500D01*
X100438691Y-65949500D01*
X92938692Y-65949500D01*
X92761308Y-65949500D01*
X92761303Y-65949500D01*
X92587341Y-65984103D01*
X92587333Y-65984105D01*
X92480907Y-66028189D01*
X92480906Y-66028189D01*
X92423457Y-66051984D01*
X92423452Y-66051987D01*
X92398768Y-66068479D01*
X92398769Y-66068480D01*
X92275965Y-66150535D01*
X92275961Y-66150538D01*
X87300533Y-71125966D01*
X87284144Y-71150497D01*
X87284142Y-71150500D01*
X87201985Y-71273455D01*
X87168046Y-71355393D01*
X87134106Y-71437329D01*
X87134103Y-71437341D01*
X87099500Y-71611303D01*
X87099500Y-74158808D01*
X87079815Y-74225847D01*
X87074454Y-74233534D01*
X86974947Y-74365302D01*
X86974938Y-74365316D01*
X86875775Y-74564461D01*
X86875769Y-74564476D01*
X86814885Y-74778462D01*
X86814884Y-74778464D01*
X86794357Y-74999999D01*
X86794357Y-75000000D01*
X86814884Y-75221535D01*
X86814885Y-75221537D01*
X86875769Y-75435523D01*
X86875775Y-75435538D01*
X86974938Y-75634683D01*
X86974943Y-75634691D01*
X86992264Y-75657627D01*
X87074454Y-75766464D01*
X87099146Y-75831824D01*
X87099500Y-75841190D01*
X87099500Y-78163994D01*
X87079815Y-78231033D01*
X87063181Y-78251675D01*
X84171675Y-81143181D01*
X84110352Y-81176666D01*
X84083994Y-81179500D01*
X78919337Y-81179500D01*
X78852298Y-81159815D01*
X78831656Y-81143181D01*
X78806881Y-81118406D01*
X78806877Y-81118402D01*
X78627639Y-80992898D01*
X78476414Y-80922381D01*
X78423977Y-80876210D01*
X78404825Y-80809016D01*
X78425041Y-80742135D01*
X78476414Y-80697618D01*
X78627639Y-80627102D01*
X78806877Y-80501598D01*
X78961598Y-80346877D01*
X79087102Y-80167639D01*
X79179575Y-79969330D01*
X79236207Y-79757977D01*
X79255277Y-79540000D01*
X79253240Y-79516721D01*
X79246137Y-79435528D01*
X79236207Y-79322023D01*
X79179575Y-79110670D01*
X79087102Y-78912362D01*
X79087100Y-78912359D01*
X79087099Y-78912357D01*
X78961599Y-78733124D01*
X78905522Y-78677047D01*
X78806877Y-78578402D01*
X78627639Y-78452898D01*
X78627640Y-78452898D01*
X78627638Y-78452897D01*
X78528484Y-78406661D01*
X78429330Y-78360425D01*
X78429326Y-78360424D01*
X78429322Y-78360422D01*
X78217977Y-78303793D01*
X78000002Y-78284723D01*
X77999998Y-78284723D01*
X77854682Y-78297436D01*
X77782023Y-78303793D01*
X77782020Y-78303793D01*
X77570677Y-78360422D01*
X77570670Y-78360424D01*
X77570670Y-78360425D01*
X77560192Y-78365311D01*
X77372361Y-78452898D01*
X77372357Y-78452900D01*
X77193121Y-78578402D01*
X77038402Y-78733121D01*
X76912900Y-78912357D01*
X76912898Y-78912361D01*
X76820426Y-79110668D01*
X76820422Y-79110677D01*
X76763793Y-79322020D01*
X76763793Y-79322024D01*
X76744723Y-79539997D01*
X76744723Y-79540002D01*
X76763793Y-79757975D01*
X76763793Y-79757979D01*
X76795919Y-79877874D01*
X76794256Y-79947724D01*
X76763825Y-79997648D01*
X76299491Y-80461983D01*
X76299487Y-80461988D01*
X76276621Y-80501596D01*
X76276620Y-80501598D01*
X76227017Y-80587512D01*
X76227016Y-80587513D01*
X76208258Y-80657520D01*
X76189500Y-80727525D01*
X75200500Y-80727525D01*
X75200500Y-70002706D01*
X75200618Y-69997297D01*
X75202241Y-69960118D01*
X75218528Y-69587080D01*
X75219468Y-69576347D01*
X75272709Y-69171938D01*
X75274582Y-69161308D01*
X75362870Y-68763068D01*
X75365668Y-68752630D01*
X75382146Y-68700369D01*
X75488319Y-68363629D01*
X75492016Y-68353473D01*
X75648111Y-67976627D01*
X75652669Y-67966853D01*
X75841025Y-67605024D01*
X75846407Y-67595703D01*
X76065574Y-67251680D01*
X76071765Y-67242837D01*
X76320083Y-66919224D01*
X76327021Y-66910955D01*
X76602594Y-66610220D01*
X76610220Y-66602594D01*
X76910955Y-66327021D01*
X76919224Y-66320083D01*
X77242837Y-66071765D01*
X77251680Y-66065574D01*
X77595703Y-65846407D01*
X77605024Y-65841025D01*
X77966853Y-65652669D01*
X77976627Y-65648111D01*
X78353482Y-65492012D01*
X78363629Y-65488319D01*
X78752639Y-65365665D01*
X78763068Y-65362870D01*
X79161308Y-65274582D01*
X79171938Y-65272709D01*
X79576347Y-65219468D01*
X79587080Y-65218528D01*
X79997297Y-65200617D01*
X80002706Y-65200500D01*
X80039882Y-65200500D01*
X98960118Y-65200500D01*
X98997294Y-65200500D01*
X99002702Y-65200617D01*
G37*
%TD.AperFunction*%
%TD*%
M02*
