G04 Layer: TopLayer*
G04 EasyEDA Pro v2.2.27.1, 2024-09-15 10:59:50*
G04 Gerber Generator version 0.3*
G04 Scale: 100 percent, Rotated: No, Reflected: No*
G04 Dimensions in millimeters*
G04 Leading zeros omitted, absolute positions, 3 integers and 5 decimals*
%TF.GenerationSoftware,KiCad,Pcbnew,9.0.1*%
%TF.CreationDate,2025-04-12T19:48:42+08:00*%
%TF.ProjectId,stlink_ex,73746c69-6e6b-45f6-9578-2e6b69636164,rev?*%
%TF.SameCoordinates,Original*%
%TF.FileFunction,Copper,L1,Top*%
%TF.FilePolarity,Positive*%
%FSLAX46Y46*%
G04 Gerber Fmt 4.6, Leading zero omitted, Abs format (unit mm)*
G04 Created by KiCad (PCBNEW 9.0.1) date 2025-04-12 19:48:42*
%MOMM*%
%LPD*%
G01*
G04 APERTURE LIST*
%TA.AperFunction,SMDPad,CuDef*%
%ADD10R,5.000000X0.700000*%
%TD*%
%TA.AperFunction,ComponentPad*%
%ADD11R,1.700000X1.700000*%
%TD*%
%TA.AperFunction,ComponentPad*%
%ADD12O,1.700000X1.700000*%
%TD*%
%TA.AperFunction,ViaPad*%
%ADD13C,1.270000*%
%TD*%
%TA.AperFunction,Conductor*%
%ADD14C,0.360000*%
%TD*%
%TA.AperFunction,Conductor*%
%ADD15C,0.200000*%
%TD*%
%TA.AperFunction,Conductor*%
%ADD16C,0.180000*%
%TD*%
%TA.AperFunction,Conductor*%
%ADD17C,0.130000*%
%TD*%
G04 APERTURE END LIST*
D10*
%TO.P,J15,2,Pin_2*%
%TO.N,/JTMS*%
X102670000Y-113030000D03*
%TO.P,J15,4,Pin_4*%
%TO.N,/JTCK*%
X102670000Y-114300000D03*
%TO.P,J15,6,Pin_6*%
%TO.N,/JTDO*%
X102670000Y-115570000D03*
%TO.P,J15,8,Pin_8*%
%TO.N,/JTDI*%
X102670000Y-116840000D03*
%TO.P,J15,10,Pin_10*%
%TO.N,/NRST*%
X102670000Y-118110000D03*
%TD*%
D11*
%TO.P,J5,1,Pin_1*%
%TO.N,/MCU VDD*%
X135885000Y-102875000D03*
D12*
%TO.P,J5,2,Pin_2*%
X138425000Y-102875000D03*
%TO.P,J5,3,Pin_3*%
%TO.N,/NJTRST*%
X135885000Y-105415000D03*
%TO.P,J5,4,Pin_4*%
%TO.N,/GND*%
X138425000Y-105415000D03*
%TO.P,J5,5,Pin_5*%
%TO.N,/JTDI*%
X135885000Y-107955000D03*
%TO.P,J5,6,Pin_6*%
%TO.N,/GND*%
X138425000Y-107955000D03*
%TO.P,J5,7,Pin_7*%
%TO.N,/JTMS*%
X135885000Y-110495000D03*
%TO.P,J5,8,Pin_8*%
%TO.N,/GND*%
X138425000Y-110495000D03*
%TO.P,J5,9,Pin_9*%
%TO.N,/JTCK*%
X135885000Y-113035000D03*
%TO.P,J5,10,Pin_10*%
%TO.N,/GND*%
X138425000Y-113035000D03*
%TO.P,J5,11,Pin_11*%
%TO.N,unconnected-(J5-Pin_11-Pad11)*%
X135885000Y-115575000D03*
%TO.P,J5,12,Pin_12*%
%TO.N,/GND*%
X138425000Y-115575000D03*
%TO.P,J5,13,Pin_13*%
%TO.N,/JTDO*%
X135885000Y-118115000D03*
%TO.P,J5,14,Pin_14*%
%TO.N,/GND*%
X138425000Y-118115000D03*
%TO.P,J5,15,Pin_15*%
%TO.N,/NRST*%
X135885000Y-120655000D03*
%TO.P,J5,16,Pin_16*%
%TO.N,/GND*%
X138425000Y-120655000D03*
%TO.P,J5,17,Pin_17*%
%TO.N,unconnected-(J5-Pin_17-Pad17)*%
X135885000Y-123195000D03*
%TO.P,J5,18,Pin_18*%
%TO.N,/GND*%
X138425000Y-123195000D03*
%TO.P,J5,19,Pin_19*%
%TO.N,unconnected-(J5-Pin_19-Pad19)*%
X135885000Y-125735000D03*
%TO.P,J5,20,Pin_20*%
%TO.N,/GND*%
X138425000Y-125735000D03*
%TD*%
D10*
%TO.P,J10,1*%
%TO.N,/MCU VDD*%
X167440000Y-113035000D03*
%TO.P,J10,2*%
%TO.N,/JTCK*%
X167440000Y-114305000D03*
%TO.P,J10,3*%
%TO.N,/JTMS*%
X167440000Y-115575000D03*
%TO.P,J10,4*%
%TO.N,/GND*%
X167440000Y-116845000D03*
%TO.P,J10,5*%
%TO.N,/NRST*%
X167440000Y-118115000D03*
%TD*%
D11*
%TO.P,J14,1,Pin_1*%
%TO.N,/MCU VDD*%
X116840000Y-110495000D03*
D12*
%TO.P,J14,2,Pin_2*%
%TO.N,/JTMS*%
X119380000Y-110495000D03*
%TO.P,J14,3,Pin_3*%
%TO.N,/GND*%
X116840000Y-113035000D03*
%TO.P,J14,4,Pin_4*%
%TO.N,/JTCK*%
X119380000Y-113035000D03*
%TO.P,J14,5,Pin_5*%
%TO.N,/GND*%
X116840000Y-115575000D03*
%TO.P,J14,6,Pin_6*%
%TO.N,/JTDO*%
X119380000Y-115575000D03*
%TO.P,J14,7,Pin_7*%
%TO.N,/GND*%
X116840000Y-118115000D03*
%TO.P,J14,8,Pin_8*%
%TO.N,/JTDI*%
X119380000Y-118115000D03*
%TO.P,J14,9,Pin_9*%
%TO.N,/GND*%
X116840000Y-120655000D03*
%TO.P,J14,10,Pin_10*%
%TO.N,/NRST*%
X119380000Y-120655000D03*
%TD*%
D11*
%TO.P,J11,1*%
%TO.N,/MCU VDD*%
X152400000Y-110495000D03*
D12*
%TO.P,J11,2*%
%TO.N,/JTCK*%
X152400000Y-113035000D03*
%TO.P,J11,3*%
%TO.N,/JTMS*%
X152400000Y-115575000D03*
%TO.P,J11,4*%
%TO.N,/GND*%
X152400000Y-118115000D03*
%TO.P,J11,5*%
%TO.N,/NRST*%
X152400000Y-120655000D03*
%TD*%
D13*
%TO.N,/JTDI*%
X127160000Y-118120000D03*
%TD*%
D14*
%TO.N,/GND*%
X152400000Y-118115000D02*
X138425000Y-118115000D01*
X153670000Y-116845000D02*
X152400000Y-118115000D01*
X167440000Y-116845000D02*
X153670000Y-116845000D01*
D15*
%TO.N,/NRST*%
X119380000Y-120655000D02*
X118035000Y-122000000D01*
D16*
X154940000Y-118115000D02*
X152400000Y-120655000D01*
D15*
X111500000Y-122000000D02*
X107610000Y-118110000D01*
D16*
X151125000Y-121930000D02*
X137160000Y-121930000D01*
X137160000Y-121930000D02*
X135885000Y-120655000D01*
X167440000Y-118115000D02*
X154940000Y-118115000D01*
X152400000Y-120655000D02*
X151125000Y-121930000D01*
D15*
X107610000Y-118110000D02*
X102670000Y-118110000D01*
X118035000Y-122000000D02*
X111500000Y-122000000D01*
D14*
%TO.N,/MCU VDD*%
X135885000Y-102875000D02*
X144780000Y-102875000D01*
X154940000Y-113035000D02*
X152400000Y-110495000D01*
X167440000Y-113035000D02*
X154940000Y-113035000D01*
X144780000Y-102875000D02*
X152400000Y-110495000D01*
D15*
%TO.N,/JTDI*%
X127160000Y-116680000D02*
X135885000Y-107955000D01*
X119380000Y-118115000D02*
X118105000Y-119390000D01*
X111140000Y-119390000D02*
X108590000Y-116840000D01*
X127160000Y-118120000D02*
X127160000Y-116680000D01*
X108590000Y-116840000D02*
X102670000Y-116840000D01*
X118105000Y-119390000D02*
X111140000Y-119390000D01*
D16*
%TO.N,/JTCK*%
X153670000Y-114305000D02*
X152400000Y-113035000D01*
D15*
X118115000Y-114300000D02*
X102670000Y-114300000D01*
D16*
X152400000Y-113035000D02*
X151115000Y-114320000D01*
D15*
X119380000Y-113035000D02*
X118115000Y-114300000D01*
D16*
X137170000Y-114320000D02*
X135885000Y-113035000D01*
X151115000Y-114320000D02*
X137170000Y-114320000D01*
X167440000Y-114305000D02*
X153670000Y-114305000D01*
D15*
%TO.N,/JTDO*%
X110560000Y-116810000D02*
X109320000Y-115570000D01*
X109320000Y-115570000D02*
X102670000Y-115570000D01*
X119380000Y-115575000D02*
X118145000Y-116810000D01*
X118145000Y-116810000D02*
X110560000Y-116810000D01*
%TO.N,/JTMS*%
X109470000Y-113030000D02*
X114250000Y-108250000D01*
D17*
X135170000Y-116850000D02*
X151125000Y-116850000D01*
X151125000Y-116850000D02*
X152400000Y-115575000D01*
X134280000Y-112100000D02*
X134280000Y-115960000D01*
D15*
X117135000Y-108250000D02*
X119380000Y-110495000D01*
D16*
X167440000Y-115575000D02*
X152400000Y-115575000D01*
D15*
X102670000Y-113030000D02*
X109470000Y-113030000D01*
D17*
X134280000Y-115960000D02*
X135170000Y-116850000D01*
D15*
X114250000Y-108250000D02*
X117135000Y-108250000D01*
D17*
X135885000Y-110495000D02*
X134280000Y-112100000D01*
%TD*%
M02*
