G04 Layer: BottomSolderMaskLayer*
G04 EasyEDA Pro v2.2.27.1, 2024-09-15 10:59:50*
G04 Gerber Generator version 0.3*
G04 Scale: 100 percent, Rotated: No, Reflected: No*
G04 Dimensions in millimeters*
G04 Leading zeros omitted, absolute positions, 3 integers and 5 decimals*
%TF.GenerationSoftware,KiCad,Pcbnew,9.0.1*%
%TF.CreationDate,2025-04-12T19:48:42+08:00*%
%TF.ProjectId,stlink_ex,73746c69-6e6b-45f6-9578-2e6b69636164,rev?*%
%TF.SameCoordinates,Original*%
%TF.FileFunction,Soldermask,Bot*%
%TF.FilePolarity,Negative*%
%FSLAX46Y46*%
G04 Gerber Fmt 4.6, Leading zero omitted, Abs format (unit mm)*
G04 Created by KiCad (PCBNEW 9.0.1) date 2025-04-12 19:48:42*
%MOMM*%
%LPD*%
G01*
G04 APERTURE LIST*
%ADD10R,5.000000X0.700000*%
%ADD11R,1.700000X1.700000*%
%ADD12O,1.700000X1.700000*%
G04 APERTURE END LIST*
D10*
%TO.C,J15*%
X102670000Y-113030000D03*
X102670000Y-114300000D03*
X102670000Y-115570000D03*
X102670000Y-116840000D03*
X102670000Y-118110000D03*
%TD*%
D11*
%TO.C,J5*%
X135885000Y-102875000D03*
D12*
X138425000Y-102875000D03*
X135885000Y-105415000D03*
X138425000Y-105415000D03*
X135885000Y-107955000D03*
X138425000Y-107955000D03*
X135885000Y-110495000D03*
X138425000Y-110495000D03*
X135885000Y-113035000D03*
X138425000Y-113035000D03*
X135885000Y-115575000D03*
X138425000Y-115575000D03*
X135885000Y-118115000D03*
X138425000Y-118115000D03*
X135885000Y-120655000D03*
X138425000Y-120655000D03*
X135885000Y-123195000D03*
X138425000Y-123195000D03*
X135885000Y-125735000D03*
X138425000Y-125735000D03*
%TD*%
D11*
%TO.C,J14*%
X116840000Y-110495000D03*
D12*
X119380000Y-110495000D03*
X116840000Y-113035000D03*
X119380000Y-113035000D03*
X116840000Y-115575000D03*
X119380000Y-115575000D03*
X116840000Y-118115000D03*
X119380000Y-118115000D03*
X116840000Y-120655000D03*
X119380000Y-120655000D03*
%TD*%
D11*
%TO.C,J11*%
X152400000Y-110495000D03*
D12*
X152400000Y-113035000D03*
X152400000Y-115575000D03*
X152400000Y-118115000D03*
X152400000Y-120655000D03*
%TD*%
M02*
