M48
; DRILL file {KiCad 8.0.6} date 2024-11-05T16:44:40+0800
; FORMAT={-:-/ absolute / inch / decimal}
; #@! TF.CreationDate,2024-11-05T16:44:40+08:00
; #@! TF.GenerationSoftware,Kicad,Pcbnew,8.0.6
; #@! TF.FileFunction,Plated,1,2,PTH
FMAT,2
INCH
; #@! TA.AperFunction,Plated,PTH,ViaDrill
T1C0.0118
; #@! TA.AperFunction,Plated,PTH,ComponentDrill
T2C0.0177
; #@! TA.AperFunction,Plated,PTH,ComponentDrill
T3C0.0197
; #@! TA.AperFunction,Plated,PTH,ComponentDrill
T4C0.0315
; #@! TA.AperFunction,Plated,PTH,ComponentDrill
T5C0.0394
; #@! TA.AperFunction,Plated,PTH,ComponentDrill
T6C0.0433
; #@! TA.AperFunction,Plated,PTH,ComponentDrill
T7C0.0787
; #@! TA.AperFunction,Plated,PTH,ComponentDrill
T8C0.1181
%
G90
G05
T1
X2.7165Y-2.7559
X2.7165Y-2.9059
X2.7165Y-3.0559
X2.7165Y-3.2059
X2.7165Y-3.3559
X2.7165Y-3.5059
X2.7165Y-3.6559
X2.7165Y-3.8059
X2.7165Y-3.9559
X2.7165Y-4.1059
X2.7165Y-4.2559
X2.7165Y-4.4059
X2.7165Y-4.5559
X2.7165Y-4.7059
X2.7165Y-4.8559
X2.7165Y-5.0059
X2.7165Y-5.1559
X2.7165Y-5.3059
X2.7165Y-5.4559
X2.7165Y-5.6059
X2.815Y-4.8031
X2.8346Y-4.6693
X2.8626Y-4.4291
X2.874Y-4.3465
X2.8976Y-3.0945
X2.9213Y-3.4252
X2.928Y-5.8346
X2.9528Y-5.2559
X2.9685Y-3.2756
X2.9685Y-3.748
X2.9709Y-4.4087
X2.9709Y-5.4693
X2.9709Y-5.5693
X2.9709Y-5.6693
X2.9921Y-5.2756
X3.0472Y-3.1417
X3.0709Y-5.4693
X3.0709Y-5.5693
X3.0709Y-5.6693
X3.078Y-5.8346
X3.1709Y-5.4693
X3.1709Y-5.5693
X3.1709Y-5.6693
X3.1992Y-2.6976
X3.1992Y-2.8976
X3.228Y-5.8346
X3.2709Y-5.4693
X3.2709Y-5.5693
X3.2709Y-5.6693
X3.285Y-5.2228
X3.2992Y-2.6976
X3.2992Y-2.7976
X3.2992Y-2.8976
X3.378Y-5.8346
X3.3992Y-2.6976
X3.3992Y-2.7976
X3.3992Y-2.8976
X3.4197Y-3.0205
X3.4197Y-3.1205
X3.4197Y-3.2205
X3.4646Y-3.6417
X3.4646Y-4.252
X3.4961Y-4.4173
X3.4992Y-2.6976
X3.4992Y-2.8976
X3.5197Y-3.0205
X3.5197Y-3.1205
X3.5197Y-3.2205
X3.5433Y-4.3622
X3.5591Y-3.5512
X3.6417Y-3.6417
X3.6457Y-5.4724
X3.6953Y-4.4461
X3.7008Y-3.7008
X3.7008Y-3.7598
X3.7008Y-3.8189
X3.7008Y-4.1535
X3.7087Y-3.8945
X3.7087Y-3.9945
X3.7087Y-4.0945
X3.7244Y-3.2362
X3.7244Y-3.2992
X3.7402Y-4.6929
X3.7402Y-4.7323
X3.7503Y-4.311
X3.7503Y-4.361
X3.7503Y-4.411
X3.7503Y-4.461
X3.7559Y-5.252
X3.7795Y-4.6929
X3.7795Y-4.7323
X3.8189Y-4.6929
X3.8189Y-4.7323
X3.8189Y-5.5591
X3.8285Y-4.311
X3.8285Y-4.361
X3.8285Y-4.411
X3.8285Y-4.461
X3.8285Y-4.511
X3.8285Y-4.561
X3.8346Y-3.8189
X3.8346Y-3.9189
X3.8346Y-4.0189
X3.8346Y-4.1189
X3.8504Y-3.2362
X3.8614Y-4.7524
X3.8661Y-5.4094
X3.9024Y-2.6378
X3.9024Y-2.7378
X3.9024Y-2.8378
X3.9346Y-3.8189
X3.9346Y-3.9189
X3.9346Y-4.0189
X3.9346Y-4.1189
X3.937Y-3.4055
X3.9528Y-5.6693
X3.9764Y-3.5669
X4.0024Y-2.6378
X4.0024Y-2.7378
X4.0024Y-2.8378
X4.0346Y-3.8189
X4.0346Y-3.9189
X4.0346Y-4.0189
X4.0346Y-4.1189
X4.1024Y-2.6378
X4.1024Y-2.7378
X4.1024Y-2.8378
X4.1024Y-5.4882
X4.1102Y-5.6063
X4.1142Y-3.7795
X4.1339Y-3.7598
X4.1346Y-3.9189
X4.1346Y-4.0189
X4.1535Y-3.7402
X4.1732Y-3.7205
X4.1732Y-4.1339
X4.1732Y-4.1732
X4.2024Y-2.6378
X4.2024Y-2.7378
X4.2024Y-2.8378
X4.2028Y-4.2421
X4.2598Y-4.3858
X4.2815Y-3.6713
X4.2913Y-3.6319
X4.2913Y-4.5512
X4.3094Y-5.2134
X4.3094Y-5.3134
X4.3307Y-3.622
X4.3543Y-3.4016
X4.4094Y-3.7008
X4.4094Y-5.2134
X4.4094Y-5.3134
X4.4094Y-5.4134
X4.4291Y-4.1339
X4.4291Y-4.1732
X4.4291Y-4.2126
X4.4291Y-4.252
X4.4488Y-4.5433
X4.4587Y-3.6713
X4.4587Y-3.7303
X4.4646Y-3.2205
X4.4646Y-3.2992
X4.4646Y-3.3858
X4.4685Y-3.5039
X4.4685Y-3.5433
X4.4882Y-3.622
X4.4882Y-3.7795
X4.5039Y-3.0079
X4.5079Y-3.3465
X4.5713Y-3.0276
X4.622Y-5.4961
X4.8031Y-3.0472
X4.8031Y-3.7087
X4.8622Y-3.7795
X4.8622Y-3.9295
X4.8622Y-4.0795
X4.8622Y-4.2295
X4.8622Y-4.3795
X4.8622Y-4.5295
X4.8622Y-4.6795
X4.8622Y-4.8295
X4.8622Y-4.9795
X4.8622Y-5.1295
X4.8622Y-5.2795
X4.8622Y-5.4295
T2
X3.6378Y-4.6014
X3.6378Y-4.6506
X3.6811Y-4.6014
X3.6811Y-4.6506
X3.7244Y-4.6014
X3.7244Y-4.6506
X3.7677Y-4.6014
X3.7677Y-4.6506
X3.811Y-4.6014
X3.811Y-4.6506
X3.8543Y-4.6014
X3.8543Y-4.6506
X3.8976Y-4.6014
X3.8976Y-4.6506
X3.9409Y-4.6014
X3.9409Y-4.6506
T3
X3.7894Y-3.0709
X3.811Y-3.2874
X3.8858Y-3.2874
X3.9075Y-3.0709
T4
X2.8528Y-3.0315
X2.8528Y-3.3465
X2.874Y-3.189
X2.874Y-3.5039
X2.874Y-3.6614
X2.9039Y-4.4882
X2.9039Y-4.6063
X2.9039Y-4.7244
X2.9039Y-4.8425
X2.9039Y-4.9604
X2.9039Y-5.0787
X2.9528Y-3.0315
X2.9528Y-3.3465
X2.974Y-3.189
X2.974Y-3.5039
X2.974Y-3.6614
X3.0039Y-4.4882
X3.0039Y-4.6063
X3.0039Y-4.7244
X3.0039Y-4.8425
X3.0039Y-4.9604
X3.0039Y-5.0787
X3.3858Y-4.585
X3.3858Y-4.685
X3.3858Y-5.0197
X3.3858Y-5.2165
X3.4252Y-4.3701
X3.4252Y-4.4701
X3.4449Y-3.4055
X3.4449Y-3.563
X3.5039Y-4.585
X3.5039Y-4.685
X3.5433Y-4.9213
X3.5433Y-5.1181
X3.5433Y-5.4134
X3.5531Y-4.2717
X3.5531Y-4.4685
X3.6417Y-3.4055
X3.6417Y-3.563
X3.7008Y-4.9213
X3.7008Y-5.1181
X3.7205Y-2.9528
X3.7205Y-3.1496
X3.7402Y-5.4134
X3.878Y-5.5118
X3.878Y-5.6118
X3.878Y-5.7283
X3.878Y-5.8283
X3.8976Y-5.2756
X3.9764Y-2.9528
X3.9764Y-3.1496
X3.9961Y-5.4134
X3.9976Y-5.2756
X4.0748Y-3.3071
X4.1142Y-5.2756
X4.1339Y-2.9528
X4.1339Y-3.1496
X4.1732Y-3.5039
X4.1929Y-5.4134
X4.2126Y-4.3307
X4.2126Y-4.9213
X4.2126Y-5.1181
X4.2142Y-5.2756
X4.2669Y-3.3071
X4.2913Y-2.9528
X4.2913Y-3.1496
X4.2913Y-4.4488
X4.2913Y-4.6457
X4.311Y-5.4134
X4.3701Y-3.5039
X4.3701Y-4.9213
X4.3701Y-5.1181
X4.4094Y-2.7559
X4.4094Y-4.3307
X4.4291Y-3.6024
X4.4291Y-3.7992
X4.439Y-4.4488
X4.439Y-4.6457
X4.5079Y-5.4134
X4.6063Y-2.7559
X4.6244Y-5.3937
X4.7244Y-5.3937
X4.7413Y-2.8738
X4.7413Y-2.9738
T5
X2.8528Y-3.8339
X2.8528Y-3.9339
X2.8528Y-4.0339
X2.8528Y-4.1339
X2.9528Y-3.8339
X2.9528Y-3.9339
X2.9528Y-4.0339
X2.9528Y-4.1339
X3.137Y-3.1496
X3.137Y-3.2496
X3.137Y-3.3496
X3.137Y-3.4496
X3.137Y-3.5496
X3.137Y-3.6496
X3.137Y-3.7496
X3.137Y-3.8496
X3.137Y-3.9496
X3.137Y-4.0496
X3.137Y-4.1496
X3.137Y-4.2496
X3.137Y-4.3496
X3.137Y-4.4496
X3.137Y-4.5496
X3.137Y-4.6496
X3.137Y-4.7496
X3.137Y-4.8496
X3.137Y-4.9496
X3.137Y-5.0496
X3.137Y-5.1496
X3.237Y-3.1496
X3.237Y-3.2496
X3.237Y-3.3496
X3.237Y-3.4496
X3.237Y-3.5496
X3.237Y-3.6496
X3.237Y-3.7496
X3.237Y-3.8496
X3.237Y-3.9496
X3.237Y-4.0496
X3.237Y-4.1496
X3.237Y-4.2496
X3.237Y-4.3496
X3.237Y-4.4496
X3.237Y-4.5496
X3.237Y-4.6496
X3.237Y-4.7496
X3.237Y-4.8496
X3.237Y-4.9496
X3.237Y-5.0496
X3.237Y-5.1496
X4.637Y-3.1496
X4.637Y-3.2496
X4.637Y-3.3496
X4.637Y-3.4496
X4.637Y-3.5496
X4.637Y-3.6496
X4.637Y-3.7496
X4.637Y-3.8496
X4.637Y-3.9496
X4.637Y-4.0496
X4.637Y-4.1496
X4.637Y-4.2496
X4.637Y-4.3496
X4.637Y-4.4496
X4.637Y-4.5496
X4.637Y-4.6496
X4.637Y-4.7496
X4.637Y-4.8496
X4.637Y-4.9496
X4.637Y-5.0496
X4.637Y-5.1496
X4.737Y-3.1496
X4.737Y-3.2496
X4.737Y-3.3496
X4.737Y-3.4496
X4.737Y-3.5496
X4.737Y-3.6496
X4.737Y-3.7496
X4.737Y-3.8496
X4.737Y-3.9496
X4.737Y-4.0496
X4.737Y-4.1496
X4.737Y-4.2496
X4.737Y-4.3496
X4.737Y-4.4496
X4.737Y-4.5496
X4.737Y-4.6496
X4.737Y-4.7496
X4.737Y-4.8496
X4.737Y-4.9496
X4.737Y-5.0496
X4.737Y-5.1496
T6
X3.563Y-5.5512
X3.563Y-5.8071
X3.7402Y-5.5512
X3.7402Y-5.8071
X4.0157Y-5.5512
X4.0157Y-5.8071
X4.1929Y-5.5512
X4.1929Y-5.8071
X4.3307Y-5.5512
X4.3307Y-5.8071
X4.5079Y-5.5512
X4.5079Y-5.8071
T7
X4.1709Y-3.3071
T8
X4.715Y-5.7051
T4
G00X3.6744Y-4.5413
M15
G01X3.6941Y-4.5413
M16
G05
G00X3.6764Y-4.7106
M15
G01X3.6921Y-4.7106
M16
G05
G00X3.8866Y-4.5413
M15
G01X3.9024Y-4.5413
M16
G05
G00X3.8866Y-4.7106
M15
G01X3.9024Y-4.7106
M16
G05
M30
