G04 Layer: BottomSolderMaskLayer*
G04 EasyEDA Pro v2.2.27.1, 2024-09-15 10:59:50*
G04 Gerber Generator version 0.3*
G04 Scale: 100 percent, Rotated: No, Reflected: No*
G04 Dimensions in millimeters*
G04 Leading zeros omitted, absolute positions, 3 integers and 5 decimals*
%TF.GenerationSoftware,KiCad,Pcbnew,8.0.6*%
%TF.CreationDate,2024-11-05T16:44:44+08:00*%
%TF.ProjectId,li-chuang-liang-shan-pai-tian-kong-xing-kai-fa-ban,6c692d63-6875-4616-9e67-2d6c69616e67,rev?*%
%TF.SameCoordinates,Original*%
%TF.FileFunction,Soldermask,Bot*%
%TF.FilePolarity,Negative*%
%FSLAX46Y46*%
G04 Gerber Fmt 4.6, Leading zero omitted, Abs format (unit mm)*
G04 Created by KiCad (PCBNEW 8.0.6) date 2024-11-05 16:44:44*
%MOMM*%
%LPD*%
G01*
G04 APERTURE LIST*
G04 Aperture macros list*
%AMRoundRect*
0 Rectangle with rounded corners*
0 $1 Rounding radius*
0 $2 $3 $4 $5 $6 $7 $8 $9 X,Y pos of 4 corners*
0 Add a 4 corners polygon primitive as box body*
4,1,4,$2,$3,$4,$5,$6,$7,$8,$9,$2,$3,0*
0 Add four circle primitives for the rounded corners*
1,1,$1+$1,$2,$3*
1,1,$1+$1,$4,$5*
1,1,$1+$1,$6,$7*
1,1,$1+$1,$8,$9*
0 Add four rect primitives between the rounded corners*
20,1,$1+$1,$2,$3,$4,$5,0*
20,1,$1+$1,$4,$5,$6,$7,0*
20,1,$1+$1,$6,$7,$8,$9,0*
20,1,$1+$1,$8,$9,$2,$3,0*%
%AMFreePoly0*
4,1,15,-0.400000,0.000000,-0.380423,0.123607,-0.323607,0.235114,-0.235114,0.323607,-0.123607,0.380423,0.000000,0.400000,0.400000,0.400000,0.400000,-0.400000,0.000000,-0.400000,-0.123607,-0.380423,-0.235114,-0.323607,-0.323607,-0.235114,-0.380423,-0.123607,-0.400000,0.000000,-0.400000,0.000000,-0.400000,0.000000,$1*%
%AMFreePoly1*
4,1,14,-0.400000,0.400000,0.000000,0.400000,0.123607,0.380423,0.235114,0.323607,0.323607,0.235114,0.380423,0.123607,0.400000,0.000000,0.380423,-0.123607,0.323607,-0.235114,0.235114,-0.323607,0.123607,-0.380423,0.000000,-0.400000,-0.400000,-0.400000,-0.400000,0.400000,-0.400000,0.400000,$1*%
G04 Aperture macros list end*
%ADD10C,1.600000*%
%ADD11O,1.600000X1.600000*%
%ADD12C,2.000000*%
%ADD13R,1.700000X1.700000*%
%ADD14O,1.700000X1.700000*%
%ADD15R,1.400000X1.800000*%
%ADD16O,1.400000X1.800000*%
%ADD17C,0.800000*%
%ADD18O,1.700000X1.200000*%
%ADD19O,1.700000X1.300000*%
%ADD20C,1.000000*%
%ADD21R,1.000000X1.000000*%
%ADD22C,1.500000*%
%ADD23C,2.500000*%
%ADD24C,6.000000*%
%ADD25RoundRect,0.225000X-0.250000X0.225000X-0.250000X-0.225000X0.250000X-0.225000X0.250000X0.225000X0*%
%ADD26RoundRect,0.225000X0.250000X-0.225000X0.250000X0.225000X-0.250000X0.225000X-0.250000X-0.225000X0*%
%ADD27RoundRect,0.075000X-0.075000X0.725000X-0.075000X-0.725000X0.075000X-0.725000X0.075000X0.725000X0*%
%ADD28RoundRect,0.075000X-0.725000X0.075000X-0.725000X-0.075000X0.725000X-0.075000X0.725000X0.075000X0*%
%ADD29RoundRect,0.225000X-0.225000X-0.250000X0.225000X-0.250000X0.225000X0.250000X-0.225000X0.250000X0*%
%ADD30R,0.700000X1.600000*%
%ADD31R,1.200000X2.200000*%
%ADD32R,1.200000X1.500000*%
%ADD33R,1.600000X1.500000*%
%ADD34FreePoly0,90.000000*%
%ADD35FreePoly1,90.000000*%
%ADD36FreePoly0,270.000000*%
%ADD37FreePoly1,270.000000*%
%ADD38RoundRect,0.250000X-0.750000X-0.500000X0.750000X-0.500000X0.750000X0.500000X-0.750000X0.500000X0*%
%ADD39RoundRect,0.250000X-0.750000X-1.650000X0.750000X-1.650000X0.750000X1.650000X-0.750000X1.650000X0*%
%ADD40RoundRect,0.150000X0.675000X0.150000X-0.675000X0.150000X-0.675000X-0.150000X0.675000X-0.150000X0*%
%ADD41RoundRect,0.225000X0.225000X0.250000X-0.225000X0.250000X-0.225000X-0.250000X0.225000X-0.250000X0*%
G04 APERTURE END LIST*
D10*
%TO.C,R7*%
X75000000Y-77000000D03*
D11*
X72460000Y-77000000D03*
%TD*%
D12*
%TO.C,SW2*%
X106500000Y-141000000D03*
X106500000Y-147500000D03*
X102000000Y-141000000D03*
X102000000Y-147500000D03*
%TD*%
D10*
%TO.C,R1*%
X73000000Y-89000000D03*
D11*
X75540000Y-89000000D03*
%TD*%
D13*
%TO.C,J2*%
X75000000Y-105000000D03*
D14*
X72460000Y-105000000D03*
X75000000Y-102460000D03*
X72460000Y-102460000D03*
X75000000Y-99920000D03*
X72460000Y-99920000D03*
X75000000Y-97380000D03*
X72460000Y-97380000D03*
%TD*%
D10*
%TO.C,R18*%
X73760000Y-123000000D03*
D11*
X76300000Y-123000000D03*
%TD*%
D10*
%TO.C,R12*%
X120430000Y-75535000D03*
D11*
X120430000Y-72995000D03*
%TD*%
D15*
%TO.C,LED1*%
X73000000Y-93000000D03*
D16*
X75540000Y-93000000D03*
%TD*%
D10*
%TO.C,C1*%
X90000000Y-125000000D03*
X90000000Y-130000000D03*
%TD*%
%TO.C,R6*%
X75000000Y-85000000D03*
D11*
X72460000Y-85000000D03*
%TD*%
D10*
%TO.C,C2*%
X94000000Y-125000000D03*
X94000000Y-130000000D03*
%TD*%
D13*
%TO.C,J5*%
X117780000Y-80000000D03*
D14*
X120320000Y-80000000D03*
X117780000Y-82540000D03*
X120320000Y-82540000D03*
X117780000Y-85080000D03*
X120320000Y-85080000D03*
X117780000Y-87620000D03*
X120320000Y-87620000D03*
X117780000Y-90160000D03*
X120320000Y-90160000D03*
X117780000Y-92700000D03*
X120320000Y-92700000D03*
X117780000Y-95240000D03*
X120320000Y-95240000D03*
X117780000Y-97780000D03*
X120320000Y-97780000D03*
X117780000Y-100320000D03*
X120320000Y-100320000D03*
X117780000Y-102860000D03*
X120320000Y-102860000D03*
X117780000Y-105400000D03*
X120320000Y-105400000D03*
X117780000Y-107940000D03*
X120320000Y-107940000D03*
X117780000Y-110480000D03*
X120320000Y-110480000D03*
X117780000Y-113020000D03*
X120320000Y-113020000D03*
X117780000Y-115560000D03*
X120320000Y-115560000D03*
X117780000Y-118100000D03*
X120320000Y-118100000D03*
X117780000Y-120640000D03*
X120320000Y-120640000D03*
X117780000Y-123180000D03*
X120320000Y-123180000D03*
X117780000Y-125720000D03*
X120320000Y-125720000D03*
X117780000Y-128260000D03*
X120320000Y-128260000D03*
X117780000Y-130800000D03*
X120320000Y-130800000D03*
%TD*%
D10*
%TO.C,C18*%
X101000000Y-80000000D03*
X101000000Y-75000000D03*
%TD*%
%TO.C,C19*%
X112000000Y-70000000D03*
X117000000Y-70000000D03*
%TD*%
%TO.C,R4*%
X87000000Y-111000000D03*
D11*
X87000000Y-113540000D03*
%TD*%
D10*
%TO.C,C9*%
X112500000Y-96500000D03*
X112500000Y-91500000D03*
%TD*%
%TO.C,C8*%
X107000000Y-110000000D03*
X112000000Y-110000000D03*
%TD*%
D17*
%TO.C,J1*%
X92400000Y-116875000D03*
X93500000Y-116875000D03*
X94600000Y-116875000D03*
X95700000Y-116875000D03*
X96800000Y-116875000D03*
X97900000Y-116875000D03*
X99000000Y-116875000D03*
X100100000Y-116875000D03*
X100100000Y-118125000D03*
X99000000Y-118125000D03*
X97900000Y-118125000D03*
X96800000Y-118125000D03*
X95700000Y-118125000D03*
X94600000Y-118125000D03*
X93500000Y-118125000D03*
X92400000Y-118125000D03*
D18*
X93580000Y-115350000D03*
D19*
X93580000Y-119650000D03*
X98920000Y-115350000D03*
X98920000Y-119650000D03*
%TD*%
D10*
%TO.C,C6*%
X92500000Y-90500000D03*
X87500000Y-90500000D03*
%TD*%
%TO.C,R9*%
X99000000Y-134000000D03*
D11*
X101540000Y-134000000D03*
%TD*%
D10*
%TO.C,C4*%
X111000000Y-125000000D03*
X111000000Y-130000000D03*
%TD*%
%TO.C,C10*%
X111000000Y-89000000D03*
X106000000Y-89000000D03*
%TD*%
%TO.C,C20*%
X86000000Y-127500000D03*
X86000000Y-132500000D03*
%TD*%
%TO.C,R11*%
X104500000Y-134000000D03*
D11*
X107040000Y-134000000D03*
%TD*%
D10*
%TO.C,C7*%
X90250000Y-108500000D03*
X90250000Y-113500000D03*
%TD*%
D20*
%TO.C,X2*%
X98700000Y-83500000D03*
X96800000Y-83500000D03*
D21*
X99250000Y-78000000D03*
X96250000Y-78000000D03*
%TD*%
D10*
%TO.C,R17*%
X73760000Y-120000000D03*
D11*
X76300000Y-120000000D03*
%TD*%
D10*
%TO.C,C5*%
X92500000Y-86500000D03*
X87500000Y-86500000D03*
%TD*%
D12*
%TO.C,SW3*%
X110000000Y-147500000D03*
X110000000Y-141000000D03*
X114500000Y-147500000D03*
X114500000Y-141000000D03*
%TD*%
D10*
%TO.C,R13*%
X73760000Y-114000000D03*
D11*
X76300000Y-114000000D03*
%TD*%
D10*
%TO.C,C14*%
X114500000Y-137500000D03*
X109500000Y-137500000D03*
%TD*%
D13*
%TO.C,J4*%
X79680000Y-80000000D03*
D14*
X82220000Y-80000000D03*
X79680000Y-82540000D03*
X82220000Y-82540000D03*
X79680000Y-85080000D03*
X82220000Y-85080000D03*
X79680000Y-87620000D03*
X82220000Y-87620000D03*
X79680000Y-90160000D03*
X82220000Y-90160000D03*
X79680000Y-92700000D03*
X82220000Y-92700000D03*
X79680000Y-95240000D03*
X82220000Y-95240000D03*
X79680000Y-97780000D03*
X82220000Y-97780000D03*
X79680000Y-100320000D03*
X82220000Y-100320000D03*
X79680000Y-102860000D03*
X82220000Y-102860000D03*
X79680000Y-105400000D03*
X82220000Y-105400000D03*
X79680000Y-107940000D03*
X82220000Y-107940000D03*
X79680000Y-110480000D03*
X82220000Y-110480000D03*
X79680000Y-113020000D03*
X82220000Y-113020000D03*
X79680000Y-115560000D03*
X82220000Y-115560000D03*
X79680000Y-118100000D03*
X82220000Y-118100000D03*
X79680000Y-120640000D03*
X82220000Y-120640000D03*
X79680000Y-123180000D03*
X82220000Y-123180000D03*
X79680000Y-125720000D03*
X82220000Y-125720000D03*
X79680000Y-128260000D03*
X82220000Y-128260000D03*
X79680000Y-130800000D03*
X82220000Y-130800000D03*
%TD*%
D22*
%TO.C,X1*%
X103500000Y-84000000D03*
D23*
X105940000Y-84000000D03*
D22*
X108380000Y-84000000D03*
%TD*%
D10*
%TO.C,C12*%
X90000000Y-137500000D03*
X95000000Y-137500000D03*
%TD*%
%TO.C,C13*%
X101500000Y-137500000D03*
X106500000Y-137500000D03*
%TD*%
%TO.C,R15*%
X73760000Y-129000000D03*
D11*
X76300000Y-129000000D03*
%TD*%
D12*
%TO.C,SW1*%
X95000000Y-141000000D03*
X95000000Y-147500000D03*
X90500000Y-141000000D03*
X90500000Y-147500000D03*
%TD*%
D10*
%TO.C,R8*%
X98500000Y-140000000D03*
D11*
X98500000Y-142540000D03*
%TD*%
D10*
%TO.C,R16*%
X73760000Y-117000000D03*
D11*
X76300000Y-117000000D03*
%TD*%
D10*
%TO.C,C17*%
X94500000Y-80000000D03*
X94500000Y-75000000D03*
%TD*%
%TO.C,C16*%
X109000000Y-80000000D03*
X109000000Y-75000000D03*
%TD*%
%TO.C,C22*%
X112750000Y-113000000D03*
X112750000Y-118000000D03*
%TD*%
%TO.C,R3*%
X89000000Y-119000000D03*
D11*
X89000000Y-116460000D03*
%TD*%
D10*
%TO.C,C15*%
X105000000Y-80000000D03*
X105000000Y-75000000D03*
%TD*%
D15*
%TO.C,LED2*%
X73000000Y-81000000D03*
D16*
X75540000Y-81000000D03*
%TD*%
D10*
%TO.C,R10*%
X98500000Y-145500000D03*
D11*
X98500000Y-148040000D03*
%TD*%
D10*
%TO.C,C3*%
X107000000Y-125000000D03*
X107000000Y-130000000D03*
%TD*%
D24*
%TO.C,H1*%
X119760000Y-144910000D03*
%TD*%
D10*
%TO.C,R2*%
X86000000Y-119000000D03*
D11*
X86000000Y-116460000D03*
%TD*%
D10*
%TO.C,R14*%
X73760000Y-125995200D03*
D11*
X76300000Y-125995200D03*
%TD*%
D10*
%TO.C,C24*%
X109000000Y-113000000D03*
X109000000Y-118000000D03*
%TD*%
%TO.C,R5*%
X120000000Y-137000000D03*
D11*
X117460000Y-137000000D03*
%TD*%
D25*
%TO.C,C35*%
X96500000Y-85225000D03*
X96500000Y-86775000D03*
%TD*%
D26*
%TO.C,C26*%
X96500000Y-89775000D03*
X96500000Y-88225000D03*
%TD*%
D27*
%TO.C,U3*%
X94000000Y-92325000D03*
X94500000Y-92325000D03*
X95000000Y-92325000D03*
X95500000Y-92325000D03*
X96000000Y-92325000D03*
X96500000Y-92325000D03*
X97000000Y-92325000D03*
X97500000Y-92325000D03*
X98000000Y-92325000D03*
X98500000Y-92325000D03*
X99000000Y-92325000D03*
X99500000Y-92325000D03*
X100000000Y-92325000D03*
X100500000Y-92325000D03*
X101000000Y-92325000D03*
X101500000Y-92325000D03*
X102000000Y-92325000D03*
X102500000Y-92325000D03*
X103000000Y-92325000D03*
X103500000Y-92325000D03*
X104000000Y-92325000D03*
X104500000Y-92325000D03*
X105000000Y-92325000D03*
X105500000Y-92325000D03*
X106000000Y-92325000D03*
D28*
X107675000Y-94000000D03*
X107675000Y-94500000D03*
X107675000Y-95000000D03*
X107675000Y-95500000D03*
X107675000Y-96000000D03*
X107675000Y-96500000D03*
X107675000Y-97000000D03*
X107675000Y-97500000D03*
X107675000Y-98000000D03*
X107675000Y-98500000D03*
X107675000Y-99000000D03*
X107675000Y-99500000D03*
X107675000Y-100000000D03*
X107675000Y-100500000D03*
X107675000Y-101000000D03*
X107675000Y-101500000D03*
X107675000Y-102000000D03*
X107675000Y-102500000D03*
X107675000Y-103000000D03*
X107675000Y-103500000D03*
X107675000Y-104000000D03*
X107675000Y-104500000D03*
X107675000Y-105000000D03*
X107675000Y-105500000D03*
X107675000Y-106000000D03*
D27*
X106000000Y-107675000D03*
X105500000Y-107675000D03*
X105000000Y-107675000D03*
X104500000Y-107675000D03*
X104000000Y-107675000D03*
X103500000Y-107675000D03*
X103000000Y-107675000D03*
X102500000Y-107675000D03*
X102000000Y-107675000D03*
X101500000Y-107675000D03*
X101000000Y-107675000D03*
X100500000Y-107675000D03*
X100000000Y-107675000D03*
X99500000Y-107675000D03*
X99000000Y-107675000D03*
X98500000Y-107675000D03*
X98000000Y-107675000D03*
X97500000Y-107675000D03*
X97000000Y-107675000D03*
X96500000Y-107675000D03*
X96000000Y-107675000D03*
X95500000Y-107675000D03*
X95000000Y-107675000D03*
X94500000Y-107675000D03*
X94000000Y-107675000D03*
D28*
X92325000Y-106000000D03*
X92325000Y-105500000D03*
X92325000Y-105000000D03*
X92325000Y-104500000D03*
X92325000Y-104000000D03*
X92325000Y-103500000D03*
X92325000Y-103000000D03*
X92325000Y-102500000D03*
X92325000Y-102000000D03*
X92325000Y-101500000D03*
X92325000Y-101000000D03*
X92325000Y-100500000D03*
X92325000Y-100000000D03*
X92325000Y-99500000D03*
X92325000Y-99000000D03*
X92325000Y-98500000D03*
X92325000Y-98000000D03*
X92325000Y-97500000D03*
X92325000Y-97000000D03*
X92325000Y-96500000D03*
X92325000Y-96000000D03*
X92325000Y-95500000D03*
X92325000Y-95000000D03*
X92325000Y-94500000D03*
X92325000Y-94000000D03*
%TD*%
D26*
%TO.C,C33*%
X101000000Y-86775000D03*
X101000000Y-85225000D03*
%TD*%
D29*
%TO.C,C27*%
X108225000Y-108000000D03*
X109775000Y-108000000D03*
%TD*%
D30*
%TO.C,J3*%
X77750000Y-134700000D03*
X78850000Y-134700000D03*
X79950000Y-134700000D03*
X81050000Y-134700000D03*
X82150000Y-134700000D03*
X83250000Y-134700000D03*
X84350000Y-134700000D03*
X85450000Y-134700000D03*
X86550000Y-134700000D03*
D31*
X87750000Y-145300000D03*
D32*
X87750000Y-135700000D03*
D33*
X73150000Y-135700000D03*
D31*
X72250000Y-145300000D03*
%TD*%
D34*
%TO.C,NT2*%
X103500000Y-90500000D03*
D35*
X103500000Y-89500000D03*
%TD*%
D25*
%TO.C,C25*%
X93750000Y-110225000D03*
X93750000Y-111775000D03*
%TD*%
%TO.C,C34*%
X101000000Y-88225000D03*
X101000000Y-89775000D03*
%TD*%
%TO.C,C30*%
X92000000Y-110225000D03*
X92000000Y-111775000D03*
%TD*%
D36*
%TO.C,NT1*%
X102500000Y-89500000D03*
D37*
X102500000Y-90500000D03*
%TD*%
D38*
%TO.C,U1*%
X97350000Y-129800000D03*
X97350000Y-127500000D03*
D39*
X103650000Y-127500000D03*
D38*
X97350000Y-125200000D03*
%TD*%
D36*
%TO.C,NT3*%
X110000000Y-105500000D03*
D37*
X110000000Y-106500000D03*
%TD*%
D29*
%TO.C,C31*%
X102725000Y-88250000D03*
X104275000Y-88250000D03*
%TD*%
D25*
%TO.C,C23*%
X111500000Y-105225000D03*
X111500000Y-106775000D03*
%TD*%
D26*
%TO.C,C28*%
X99000000Y-89775000D03*
X99000000Y-88225000D03*
%TD*%
D40*
%TO.C,U2*%
X117625000Y-73095000D03*
X117625000Y-74365000D03*
X117625000Y-75635000D03*
X117625000Y-76905000D03*
X112375000Y-76905000D03*
X112375000Y-75635000D03*
X112375000Y-74365000D03*
X112375000Y-73095000D03*
%TD*%
D41*
%TO.C,C29*%
X91275000Y-92500000D03*
X89725000Y-92500000D03*
%TD*%
D26*
%TO.C,C32*%
X110000000Y-94775000D03*
X110000000Y-93225000D03*
%TD*%
D25*
%TO.C,C36*%
X99000000Y-85225000D03*
X99000000Y-86775000D03*
%TD*%
M02*
