;TYPE=PLATED
;Layer: PTH_Through
;EasyEDA Pro Client v2.2.27.1, 2024-09-15 10:59:51
;Gerber Generator version 0.3
M48
; DRILL file {KiCad 8.0.5} date 2024-10-26T00:27:52+0800
; FORMAT={-:-/ absolute / inch / decimal}
; #@! TF.CreationDate,2024-10-26T00:27:52+08:00
; #@! TF.GenerationSoftware,Kicad,Pcbnew,8.0.5
; #@! TF.FileFunction,Plated,1,2,PTH
FMAT,2
INCH
; #@! TA.AperFunction,Plated,PTH,ViaDrill
T1C0.0118
; #@! TA.AperFunction,Plated,PTH,ComponentDrill
T2C0.0276
; #@! TA.AperFunction,Plated,PTH,ComponentDrill
T3C0.0315
; #@! TA.AperFunction,Plated,PTH,ComponentDrill
T4C0.0394
; #@! TA.AperFunction,Plated,PTH,ComponentDrill
T5C0.1181
%
G90
G05
T1
X3.2205Y-3.7992
X3.3248Y-3.876
X3.3327Y-3.2933
X3.4055Y-3.2421
X3.4154Y-3.5177
X3.4902Y-3.4902
X3.5133Y-2.8923
X3.6555Y-2.8484
X3.7441Y-2.7244
X3.9626Y-3.3976
X3.9705Y-3.187
X3.998Y-2.9232
T2
X3.5992Y-3.7402
X3.6992Y-3.8402
X3.7992Y-3.7402
T3
X3.0709Y-3.4252
X3.0709Y-3.5252
X3.0709Y-3.6252
X3.0709Y-3.8551
X3.0709Y-3.9551
X3.0709Y-4.0551
X3.248Y-3.7402
X3.248Y-3.8976
X3.2677Y-2.9528
X3.3071Y-3.5827
X3.4071Y-3.5827
X3.4449Y-3.7402
X3.4449Y-3.8976
X3.4646Y-2.9528
X3.6024Y-2.9528
X3.6024Y-3.1102
X3.6024Y-3.2677
X3.6024Y-3.4252
X3.622Y-4.0551
X3.6622Y-2.7559
X3.722Y-4.0551
X3.7961Y-2.7559
X3.7992Y-2.9528
X3.7992Y-3.1102
X3.7992Y-3.2677
X3.7992Y-3.4252
X3.8189Y-4.0551
X3.9173Y-2.7362
X3.9173Y-2.8543
X3.9173Y-2.9921
X3.9173Y-3.1417
X3.9173Y-3.2913
X3.9173Y-3.4409
X3.9764Y-3.7402
X3.9764Y-3.937
X4.0157Y-4.0551
X4.0173Y-2.7362
X4.0173Y-2.8543
X4.0173Y-2.9921
X4.0173Y-3.1417
X4.0173Y-3.2913
X4.0173Y-3.4409
T4
X3.0709Y-3.0315
X3.0709Y-3.1315
X3.0709Y-3.2315
X3.2646Y-4.0551
X3.3646Y-4.0551
X3.4646Y-4.0551
T5
X3.1496Y-2.7559
M30
