G04 Layer: BottomSolderMaskLayer*
G04 EasyEDA Pro v2.2.27.1, 2024-09-15 10:59:50*
G04 Gerber Generator version 0.3*
G04 Scale: 100 percent, Rotated: No, Reflected: No*
G04 Dimensions in millimeters*
G04 Leading zeros omitted, absolute positions, 3 integers and 5 decimals*
%TF.GenerationSoftware,KiCad,Pcbnew,8.0.5*%
%TF.CreationDate,2024-10-26T00:27:54+08:00*%
%TF.ProjectId,BISS0001_SOP-16_TH,42495353-3030-4303-915f-534f502d3136,rev?*%
%TF.SameCoordinates,Original*%
%TF.FileFunction,Soldermask,Bot*%
%TF.FilePolarity,Negative*%
%FSLAX46Y46*%
G04 Gerber Fmt 4.6, Leading zero omitted, Abs format (unit mm)*
G04 Created by KiCad (PCBNEW 8.0.5) date 2024-10-26 00:27:54*
%MOMM*%
%LPD*%
G01*
G04 APERTURE LIST*
G04 Aperture macros list*
%AMRoundRect*
0 Rectangle with rounded corners*
0 $1 Rounding radius*
0 $2 $3 $4 $5 $6 $7 $8 $9 X,Y pos of 4 corners*
0 Add a 4 corners polygon primitive as box body*
4,1,4,$2,$3,$4,$5,$6,$7,$8,$9,$2,$3,0*
0 Add four circle primitives for the rounded corners*
1,1,$1+$1,$2,$3*
1,1,$1+$1,$4,$5*
1,1,$1+$1,$6,$7*
1,1,$1+$1,$8,$9*
0 Add four rect primitives between the rounded corners*
20,1,$1+$1,$2,$3,$4,$5,0*
20,1,$1+$1,$4,$5,$6,$7,0*
20,1,$1+$1,$6,$7,$8,$9,0*
20,1,$1+$1,$8,$9,$2,$3,0*%
G04 Aperture macros list end*
%ADD10C,6.000000*%
%ADD11RoundRect,0.150000X-0.850000X-0.150000X0.850000X-0.150000X0.850000X0.150000X-0.850000X0.150000X0*%
%ADD12O,1.600000X1.200000*%
%ADD13O,1.200000X1.200000*%
%ADD14C,1.500000*%
%ADD15C,1.600000*%
%ADD16O,1.600000X1.600000*%
%ADD17C,1.440000*%
%ADD18R,1.700000X1.700000*%
%ADD19O,1.700000X1.700000*%
G04 APERTURE END LIST*
D10*
%TO.C,H2*%
X80000000Y-70000000D03*
%TD*%
D11*
%TO.C,U1*%
X83000000Y-87445000D03*
X83000000Y-86175000D03*
X83000000Y-84905000D03*
X83000000Y-83635000D03*
X83000000Y-82365000D03*
X83000000Y-81095000D03*
X83000000Y-79825000D03*
X83000000Y-78555000D03*
X88000000Y-78555000D03*
X88000000Y-79825000D03*
X88000000Y-81095000D03*
X88000000Y-82365000D03*
X88000000Y-83635000D03*
X88000000Y-84905000D03*
X88000000Y-86175000D03*
X88000000Y-87445000D03*
%TD*%
D12*
%TO.C,S1*%
X96500000Y-95000000D03*
D13*
X93960000Y-97540000D03*
X91420000Y-95000000D03*
%TD*%
D14*
%TO.C,R9*%
X93020000Y-70000000D03*
X96420000Y-70000000D03*
%TD*%
D15*
%TO.C,R8*%
X99500000Y-72500000D03*
D16*
X102040000Y-72500000D03*
%TD*%
D15*
%TO.C,R7*%
X99500000Y-87400000D03*
D16*
X102040000Y-87400000D03*
%TD*%
D15*
%TO.C,R6*%
X92000000Y-103000000D03*
D16*
X94540000Y-103000000D03*
%TD*%
D15*
%TO.C,R5*%
X84000000Y-91000000D03*
D16*
X86540000Y-91000000D03*
%TD*%
D15*
%TO.C,R4*%
X99500000Y-69500000D03*
D16*
X102040000Y-69500000D03*
%TD*%
%TO.C,R3*%
X102040000Y-83600000D03*
D15*
X99500000Y-83600000D03*
%TD*%
%TO.C,R2*%
X99500000Y-79800000D03*
D16*
X102040000Y-79800000D03*
%TD*%
D15*
%TO.C,R1*%
X99500000Y-76000000D03*
D16*
X102040000Y-76000000D03*
%TD*%
D17*
%TO.C,PR2*%
X78000000Y-87000000D03*
X78000000Y-89540000D03*
X78000000Y-92080000D03*
%TD*%
%TO.C,PR1*%
X78000000Y-103000000D03*
X78000000Y-100460000D03*
X78000000Y-97920000D03*
%TD*%
D18*
%TO.C,H3*%
X78000000Y-77000000D03*
D19*
X78000000Y-79540000D03*
X78000000Y-82080000D03*
%TD*%
D18*
%TO.C,H1*%
X88000000Y-103000000D03*
D19*
X85460000Y-103000000D03*
X82920000Y-103000000D03*
%TD*%
D15*
%TO.C,C12*%
X91500000Y-87000000D03*
X96500000Y-87000000D03*
%TD*%
%TO.C,C11*%
X82500000Y-95000000D03*
X87500000Y-95000000D03*
%TD*%
%TO.C,C10*%
X102000000Y-103000000D03*
X97000000Y-103000000D03*
%TD*%
%TO.C,C9*%
X88000000Y-75000000D03*
X83000000Y-75000000D03*
%TD*%
%TO.C,C6*%
X82500000Y-99000000D03*
X87500000Y-99000000D03*
%TD*%
%TO.C,C5*%
X101000000Y-100000000D03*
X101000000Y-95000000D03*
%TD*%
%TO.C,C3*%
X91500000Y-83000000D03*
X96500000Y-83000000D03*
%TD*%
%TO.C,C2*%
X91500000Y-79000000D03*
X96500000Y-79000000D03*
%TD*%
%TO.C,C1*%
X91500000Y-75000000D03*
X96500000Y-75000000D03*
%TD*%
M02*
