;TYPE=PLATED
;Layer: PTH_Through
;EasyEDA Pro Client v2.1.63.af010a1c.225d47, 2024-08-20 20:16:00
;Gerber Generator version 0.3
M48
; DRILL file {KiCad 8.0.4} date 2024-08-27T14:50:52+0800
; FORMAT={-:-/ absolute / inch / decimal}
; #@! TF.CreationDate,2024-08-27T14:50:52+08:00
; #@! TF.GenerationSoftware,Kicad,Pcbnew,8.0.4
; #@! TF.FileFunction,Plated,1,2,PTH
FMAT,2
INCH
; #@! TA.AperFunction,Plated,PTH,ViaDrill
T1C0.0098
; #@! TA.AperFunction,Plated,PTH,ComponentDrill
T2C0.0300
; #@! TA.AperFunction,Plated,PTH,ComponentDrill
T3C0.0394
; #@! TA.AperFunction,Plated,PTH,ComponentDrill
T4C0.0433
%
G90
G05
T1
X3.3728Y-2.4417
X3.3728Y-2.5417
X3.3728Y-2.8417
X3.4634Y-2.6843
X3.4728Y-2.4417
X3.5728Y-2.4417
X3.5728Y-2.6417
X3.5728Y-2.7417
X3.6429Y-2.6067
X3.6728Y-2.4417
X3.6972Y-2.822
X3.761Y-2.5996
X3.8504Y-2.4815
X3.9728Y-2.6417
X3.9728Y-2.7417
X3.9728Y-2.8417
X4.0728Y-2.4417
X4.1728Y-2.4417
X4.1728Y-2.6417
X4.1728Y-2.7417
X4.1728Y-2.8417
X4.2728Y-2.4417
X4.2728Y-2.8417
X4.372Y-2.7563
X4.3728Y-2.4417
X4.3728Y-2.6417
X4.3728Y-2.8417
T2
X3.6972Y-2.5567
X3.6972Y-2.6551
X3.6972Y-2.7535
T3
X3.3815Y-2.6811
X3.3815Y-2.7811
T4
X4.4382Y-2.4862
X4.4382Y-2.5862
X4.4382Y-2.6862
X4.4382Y-2.7862
M30
