G04 Layer: TopPasteMaskLayer*
G04 EasyEDA Pro v2.1.63.af010a1c.225d47, 2024-08-20 21:27:34*
G04 Gerber Generator version 0.3*
G04 Scale: 100 percent, Rotated: No, Reflected: No*
G04 Dimensions in millimeters*
G04 Leading zeros omitted, absolute positions, 3 integers and 5 decimals*
%TF.GenerationSoftware,KiCad,Pcbnew,8.0.4*%
%TF.CreationDate,2024-08-27T14:50:54+08:00*%
%TF.ProjectId,Raindrop_humidity_sensing_board,5261696e-6472-46f7-905f-68756d696469,rev?*%
%TF.SameCoordinates,Original*%
%TF.FileFunction,Paste,Top*%
%TF.FilePolarity,Positive*%
%FSLAX46Y46*%
G04 Gerber Fmt 4.6, Leading zero omitted, Abs format (unit mm)*
G04 Created by KiCad (PCBNEW 8.0.4) date 2024-08-27 14:50:54*
%MOMM*%
%LPD*%
G01*
G04 APERTURE LIST*
%ADD10C,0.000000*%
%ADD11O,1.950000X0.568500*%
%ADD12R,1.132500X1.377000*%
%ADD13R,1.377000X1.132500*%
%ADD14R,0.800000X0.800000*%
%ADD15R,1.350000X1.410000*%
G04 APERTURE END LIST*
D10*
%TO.C,R5*%
G36*
X102040000Y-62698750D02*
G01*
X102040000Y-63978750D01*
X101990000Y-64028750D01*
X100840000Y-64028750D01*
X100790000Y-63978750D01*
X100790000Y-63558750D01*
X101235000Y-63558750D01*
X101235000Y-63108750D01*
X100795000Y-63108750D01*
X100790000Y-62698750D01*
X100840000Y-62648750D01*
X101990000Y-62648750D01*
X102040000Y-62698750D01*
G37*
G36*
X99890000Y-62698750D02*
G01*
X99895000Y-63108750D01*
X99445000Y-63108750D01*
X99445000Y-63558750D01*
X99885000Y-63558750D01*
X99890000Y-63978750D01*
X99840000Y-64028750D01*
X98690000Y-64028750D01*
X98640000Y-63978750D01*
X98640000Y-62698750D01*
X98690000Y-62648750D01*
X99840000Y-62648750D01*
X99890000Y-62698750D01*
G37*
%TO.C,R4*%
G36*
X109285500Y-65585000D02*
G01*
X109735500Y-65585000D01*
X109735500Y-65145000D01*
X110155500Y-65140000D01*
X110205500Y-65190000D01*
X110205500Y-66340000D01*
X110155500Y-66390000D01*
X108875500Y-66390000D01*
X108825500Y-66340000D01*
X108825500Y-65190000D01*
X108875500Y-65140000D01*
X109285500Y-65135000D01*
X109285500Y-65585000D01*
G37*
G36*
X110205500Y-63040000D02*
G01*
X110205500Y-64190000D01*
X110155500Y-64240000D01*
X109735500Y-64240000D01*
X109735500Y-63795000D01*
X109285500Y-63795000D01*
X109285500Y-64235000D01*
X108875500Y-64240000D01*
X108825500Y-64190000D01*
X108825500Y-63040000D01*
X108875500Y-62990000D01*
X110155500Y-62990000D01*
X110205500Y-63040000D01*
G37*
%TO.C,R3*%
G36*
X106601000Y-65585000D02*
G01*
X107051000Y-65585000D01*
X107051000Y-65145000D01*
X107471000Y-65140000D01*
X107521000Y-65190000D01*
X107521000Y-66340000D01*
X107471000Y-66390000D01*
X106191000Y-66390000D01*
X106141000Y-66340000D01*
X106141000Y-65190000D01*
X106191000Y-65140000D01*
X106601000Y-65135000D01*
X106601000Y-65585000D01*
G37*
G36*
X107521000Y-63040000D02*
G01*
X107521000Y-64190000D01*
X107471000Y-64240000D01*
X107051000Y-64240000D01*
X107051000Y-63795000D01*
X106601000Y-63795000D01*
X106601000Y-64235000D01*
X106191000Y-64240000D01*
X106141000Y-64190000D01*
X106141000Y-63040000D01*
X106191000Y-62990000D01*
X107471000Y-62990000D01*
X107521000Y-63040000D01*
G37*
%TO.C,R1*%
G36*
X90064916Y-63580000D02*
G01*
X90064916Y-64730000D01*
X90014916Y-64780000D01*
X89594916Y-64780000D01*
X89594916Y-64335000D01*
X89144916Y-64335000D01*
X89144916Y-64775000D01*
X88734916Y-64780000D01*
X88684916Y-64730000D01*
X88684916Y-63580000D01*
X88734916Y-63530000D01*
X90014916Y-63530000D01*
X90064916Y-63580000D01*
G37*
G36*
X89144916Y-66125000D02*
G01*
X89594916Y-66125000D01*
X89594916Y-65685000D01*
X90014916Y-65680000D01*
X90064916Y-65730000D01*
X90064916Y-66880000D01*
X90014916Y-66930000D01*
X88734916Y-66930000D01*
X88684916Y-66880000D01*
X88684916Y-65730000D01*
X88734916Y-65680000D01*
X89144916Y-65675000D01*
X89144916Y-66125000D01*
G37*
%TO.C,C2*%
G36*
X104870000Y-62932750D02*
G01*
X104870000Y-64082750D01*
X104820000Y-64132750D01*
X104410000Y-64137750D01*
X104410000Y-63687750D01*
X103960000Y-63687750D01*
X103960000Y-64127750D01*
X103540000Y-64132750D01*
X103490000Y-64082750D01*
X103490000Y-62932750D01*
X103540000Y-62882750D01*
X104820000Y-62882750D01*
X104870000Y-62932750D01*
G37*
G36*
X103960000Y-65477750D02*
G01*
X104410000Y-65477750D01*
X104410000Y-65037750D01*
X104820000Y-65032750D01*
X104870000Y-65082750D01*
X104870000Y-66232750D01*
X104820000Y-66282750D01*
X103540000Y-66282750D01*
X103490000Y-66232750D01*
X103490000Y-65082750D01*
X103540000Y-65032750D01*
X103960000Y-65032750D01*
X103960000Y-65477750D01*
G37*
%TO.C,C1*%
G36*
X90031416Y-68662250D02*
G01*
X90031416Y-69812250D01*
X89981416Y-69862250D01*
X89561416Y-69862250D01*
X89561416Y-69417250D01*
X89111416Y-69417250D01*
X89111416Y-69857250D01*
X88701416Y-69862250D01*
X88651416Y-69812250D01*
X88651416Y-68662250D01*
X88701416Y-68612250D01*
X89981416Y-68612250D01*
X90031416Y-68662250D01*
G37*
G36*
X89111416Y-71207250D02*
G01*
X89561416Y-71207250D01*
X89561416Y-70767250D01*
X89981416Y-70762250D01*
X90031416Y-70812250D01*
X90031416Y-71962250D01*
X89981416Y-72012250D01*
X88701416Y-72012250D01*
X88651416Y-71962250D01*
X88651416Y-70812250D01*
X88701416Y-70762250D01*
X89111416Y-70757250D01*
X89111416Y-71207250D01*
G37*
%TD*%
D11*
%TO.C,U1*%
X98535000Y-67845000D03*
X98535000Y-69115000D03*
X98535000Y-70385000D03*
X98535000Y-71655000D03*
X103945000Y-71655000D03*
X103945000Y-70385000D03*
X103945000Y-69115000D03*
X103945000Y-67845000D03*
%TD*%
D12*
%TO.C,R5*%
X101340000Y-63338750D03*
X99340000Y-63338750D03*
%TD*%
D13*
%TO.C,R4*%
X109515500Y-65690000D03*
X109515500Y-63690000D03*
%TD*%
%TO.C,R3*%
X106831000Y-65690000D03*
X106831000Y-63690000D03*
%TD*%
%TO.C,R1*%
X89374916Y-64230000D03*
X89374916Y-66230000D03*
%TD*%
D14*
%TO.C,LED2*%
X99489000Y-65710000D03*
X101191000Y-65710000D03*
%TD*%
%TO.C,LED1*%
X108951000Y-67860000D03*
X107249000Y-67860000D03*
%TD*%
D15*
%TO.C,C2*%
X104160000Y-63557750D03*
X104160000Y-65557750D03*
%TD*%
%TO.C,C1*%
X89361416Y-69337250D03*
X89361416Y-71337250D03*
%TD*%
M02*
