G04 Layer: TopLayer*
G04 EasyEDA Pro v2.1.63.af010a1c.225d47, 2024-08-20 21:27:34*
G04 Gerber Generator version 0.3*
G04 Scale: 100 percent, Rotated: No, Reflected: No*
G04 Dimensions in millimeters*
G04 Leading zeros omitted, absolute positions, 3 integers and 5 decimals*
%TF.GenerationSoftware,KiCad,Pcbnew,8.0.4*%
%TF.CreationDate,2024-08-27T14:50:54+08:00*%
%TF.ProjectId,Raindrop_humidity_sensing_board,5261696e-6472-46f7-905f-68756d696469,rev?*%
%TF.SameCoordinates,Original*%
%TF.FileFunction,Copper,L1,Top*%
%TF.FilePolarity,Positive*%
%FSLAX46Y46*%
G04 Gerber Fmt 4.6, Leading zero omitted, Abs format (unit mm)*
G04 Created by KiCad (PCBNEW 8.0.4) date 2024-08-27 14:50:54*
%MOMM*%
%LPD*%
G01*
G04 APERTURE LIST*
%TA.AperFunction,SMDPad,CuDef*%
%ADD10O,1.950000X0.568500*%
%TD*%
%TA.AperFunction,SMDPad,CuDef*%
%ADD11R,1.132500X1.377000*%
%TD*%
%TA.AperFunction,SMDPad,CuDef*%
%ADD12R,1.377000X1.132500*%
%TD*%
%TA.AperFunction,ComponentPad*%
%ADD13C,1.524000*%
%TD*%
%TA.AperFunction,SMDPad,CuDef*%
%ADD14R,0.800000X0.800000*%
%TD*%
%TA.AperFunction,ComponentPad*%
%ADD15R,1.700000X1.700000*%
%TD*%
%TA.AperFunction,ComponentPad*%
%ADD16C,1.700000*%
%TD*%
%TA.AperFunction,SMDPad,CuDef*%
%ADD17R,1.350000X1.410000*%
%TD*%
%TA.AperFunction,ViaPad*%
%ADD18C,0.450000*%
%TD*%
%TA.AperFunction,Conductor*%
%ADD19C,0.180000*%
%TD*%
%TA.AperFunction,Conductor*%
%ADD20C,0.500000*%
%TD*%
%TA.AperFunction,Conductor*%
%ADD21C,0.300000*%
%TD*%
G04 APERTURE END LIST*
D10*
%TO.P,U1,1,OUTA*%
%TO.N,/LM393_OUTA*%
X98535000Y-67845000D03*
%TO.P,U1,2,INAN*%
%TO.N,/LM393_INAN*%
X98535000Y-69115000D03*
%TO.P,U1,3,INAP*%
%TO.N,/LM393_INAP*%
X98535000Y-70385000D03*
%TO.P,U1,4,GND*%
%TO.N,GND*%
X98535000Y-71655000D03*
%TO.P,U1,5,INBP*%
%TO.N,unconnected-(U1-INBP-Pad5)*%
X103945000Y-71655000D03*
%TO.P,U1,6,INBN*%
%TO.N,unconnected-(U1-INBN-Pad6)*%
X103945000Y-70385000D03*
%TO.P,U1,7,OUTB*%
%TO.N,unconnected-(U1-OUTB-Pad7)*%
X103945000Y-69115000D03*
%TO.P,U1,8,VCC*%
%TO.N,VCC*%
X103945000Y-67845000D03*
%TD*%
D11*
%TO.P,R5,2,2*%
%TO.N,VCC*%
X101340000Y-63338750D03*
%TO.P,R5,1,1*%
%TO.N,/LED2_K*%
X99340000Y-63338750D03*
%TD*%
D12*
%TO.P,R4,1,1*%
%TO.N,/LED3_K*%
X109515500Y-65690000D03*
%TO.P,R4,2,2*%
%TO.N,VCC*%
X109515500Y-63690000D03*
%TD*%
%TO.P,R3,1,1*%
%TO.N,/LM393_OUTA*%
X106831000Y-65690000D03*
%TO.P,R3,2,2*%
%TO.N,VCC*%
X106831000Y-63690000D03*
%TD*%
D13*
%TO.P,R2,1,1*%
%TO.N,GND*%
X93908332Y-69940000D03*
%TO.P,R2,2,2*%
%TO.N,/LM393_INAN*%
X93908332Y-67440000D03*
%TO.P,R2,3,3*%
%TO.N,VCC*%
X93908332Y-64940000D03*
%TD*%
D12*
%TO.P,R1,2,2*%
%TO.N,VCC*%
X89374916Y-64230000D03*
%TO.P,R1,1,1*%
%TO.N,/LM393_INAP*%
X89374916Y-66230000D03*
%TD*%
D14*
%TO.P,LED2,1,A*%
%TO.N,/LED2_K*%
X99489000Y-65710000D03*
%TO.P,LED2,2,K*%
%TO.N,GND*%
X101191000Y-65710000D03*
%TD*%
%TO.P,LED1,1,A*%
%TO.N,/LED3_K*%
X108951000Y-67860000D03*
%TO.P,LED1,2,K*%
%TO.N,/LM393_OUTA*%
X107249000Y-67860000D03*
%TD*%
D15*
%TO.P,H2,1,1*%
%TO.N,VCC*%
X112730000Y-63150000D03*
D16*
%TO.P,H2,2,2*%
%TO.N,GND*%
X112730000Y-65690000D03*
%TO.P,H2,3,3*%
%TO.N,/LM393_OUTA*%
X112730000Y-68230000D03*
%TO.P,H2,4,4*%
%TO.N,/LM393_INAP*%
X112730000Y-70770000D03*
%TD*%
D15*
%TO.P,H1,1,1*%
%TO.N,/LM393_INAP*%
X85890000Y-68100000D03*
D16*
%TO.P,H1,2,2*%
%TO.N,GND*%
X85890000Y-70640000D03*
%TD*%
D17*
%TO.P,C2,1,1*%
%TO.N,GND*%
X104160000Y-63557750D03*
%TO.P,C2,2,2*%
%TO.N,VCC*%
X104160000Y-65557750D03*
%TD*%
%TO.P,C1,2,2*%
%TO.N,/LM393_INAP*%
X89361416Y-69337250D03*
%TO.P,C1,1,1*%
%TO.N,GND*%
X89361416Y-71337250D03*
%TD*%
D18*
%TO.N,GND*%
X93910000Y-71680000D03*
X87970000Y-68180000D03*
X92530000Y-66210000D03*
X97800000Y-63030000D03*
X95530000Y-66030000D03*
X111050000Y-70010000D03*
X111070000Y-72180000D03*
X111070000Y-67100000D03*
X111070000Y-62020000D03*
X108530000Y-72180000D03*
X108530000Y-62020000D03*
X105990000Y-72180000D03*
X105990000Y-69640000D03*
X105990000Y-67100000D03*
X105990000Y-62020000D03*
X103450000Y-62020000D03*
X100910000Y-72180000D03*
X100910000Y-69640000D03*
X100910000Y-67100000D03*
X93290000Y-62020000D03*
X90750000Y-69640000D03*
X90750000Y-67100000D03*
X90750000Y-62020000D03*
X88210000Y-62020000D03*
X85670000Y-72180000D03*
X85670000Y-64560000D03*
X85670000Y-62020000D03*
%TD*%
D19*
%TO.N,/LED3_K*%
X108951000Y-67860000D02*
X108951000Y-66254500D01*
X108951000Y-66254500D02*
X109515500Y-65690000D01*
%TO.N,/LM393_INAP*%
X98535000Y-70385000D02*
X99545000Y-70385000D01*
X112490000Y-71010000D02*
X100170000Y-71010000D01*
X99545000Y-70385000D02*
X100170000Y-71010000D01*
X112730000Y-70770000D02*
X112490000Y-71010000D01*
%TO.N,/LM393_OUTA*%
X107240000Y-66099000D02*
X107240000Y-67851000D01*
X107240000Y-67851000D02*
X107249000Y-67860000D01*
X106831000Y-65690000D02*
X107240000Y-66099000D01*
X98540000Y-67840000D02*
X98535000Y-67845000D01*
X99560000Y-67840000D02*
X98540000Y-67840000D01*
X100190000Y-68470000D02*
X99560000Y-67840000D01*
X106639000Y-68470000D02*
X100190000Y-68470000D01*
X107249000Y-67860000D02*
X106639000Y-68470000D01*
X108469000Y-69080000D02*
X107249000Y-67860000D01*
X111880000Y-69080000D02*
X108469000Y-69080000D01*
X112730000Y-68230000D02*
X111880000Y-69080000D01*
D20*
%TO.N,VCC*%
X104160000Y-67630000D02*
X103945000Y-67845000D01*
X104160000Y-65557750D02*
X104160000Y-67630000D01*
D21*
%TO.N,/LED2_K*%
X99340000Y-65561000D02*
X99489000Y-65710000D01*
X99340000Y-63338750D02*
X99340000Y-65561000D01*
%TO.N,/LM393_INAN*%
X98535000Y-69115000D02*
X97645000Y-69115000D01*
D19*
X97645000Y-69115000D02*
X95970000Y-67440000D01*
X95970000Y-67440000D02*
X93908332Y-67440000D01*
%TO.N,/LM393_INAP*%
X89948666Y-68750000D02*
X96193500Y-68750000D01*
D21*
X97828500Y-70385000D02*
X98535000Y-70385000D01*
D19*
X89361416Y-69337250D02*
X89948666Y-68750000D01*
X96193500Y-68750000D02*
X97828500Y-70385000D01*
D21*
X89361416Y-66243500D02*
X89374916Y-66230000D01*
D19*
X89361416Y-69337250D02*
X89361416Y-66243500D01*
X87127250Y-69337250D02*
X85890000Y-68100000D01*
X89361416Y-69337250D02*
X87127250Y-69337250D01*
D20*
%TO.N,VCC*%
X97178332Y-61670000D02*
X93908332Y-64940000D01*
X100110000Y-61670000D02*
X97178332Y-61670000D01*
X101340000Y-62900000D02*
X100110000Y-61670000D01*
X101340000Y-63338750D02*
X101340000Y-62900000D01*
X93198332Y-64230000D02*
X93908332Y-64940000D01*
X89374916Y-64230000D02*
X93198332Y-64230000D01*
X103559000Y-65557750D02*
X101340000Y-63338750D01*
X104160000Y-65557750D02*
X103559000Y-65557750D01*
X106550000Y-63690000D02*
X106831000Y-63690000D01*
X104160000Y-65557750D02*
X104682250Y-65557750D01*
X104682250Y-65557750D02*
X106550000Y-63690000D01*
X112190000Y-63690000D02*
X112730000Y-63150000D01*
X109515500Y-63690000D02*
X112190000Y-63690000D01*
X106831000Y-63690000D02*
X109515500Y-63690000D01*
%TO.N,GND*%
X95623332Y-71655000D02*
X98535000Y-71655000D01*
X93908332Y-69940000D02*
X95623332Y-71655000D01*
X92511082Y-71337250D02*
X93908332Y-69940000D01*
X89361416Y-71337250D02*
X92511082Y-71337250D01*
X86587250Y-71337250D02*
X85890000Y-70640000D01*
X89361416Y-71337250D02*
X86587250Y-71337250D01*
%TD*%
%TA.AperFunction,Conductor*%
%TO.N,GND*%
G36*
X100066583Y-68944734D02*
G01*
X100125424Y-68960500D01*
X100125425Y-68960500D01*
X100254576Y-68960500D01*
X102445500Y-68960500D01*
X102512539Y-68980185D01*
X102558294Y-69032989D01*
X102569500Y-69084500D01*
X102569500Y-69182442D01*
X102569500Y-69182444D01*
X102569499Y-69182444D01*
X102595813Y-69314728D01*
X102595816Y-69314738D01*
X102647430Y-69439347D01*
X102722371Y-69551505D01*
X102817743Y-69646877D01*
X102817751Y-69646883D01*
X102817777Y-69646901D01*
X102817787Y-69646913D01*
X102822455Y-69650744D01*
X102821728Y-69651629D01*
X102862580Y-69700515D01*
X102871285Y-69769840D01*
X102841127Y-69832866D01*
X102822354Y-69849132D01*
X102822455Y-69849256D01*
X102817862Y-69853024D01*
X102817777Y-69853099D01*
X102817751Y-69853116D01*
X102817743Y-69853122D01*
X102722371Y-69948494D01*
X102647430Y-70060652D01*
X102595816Y-70185261D01*
X102595813Y-70185271D01*
X102569500Y-70317555D01*
X102569500Y-70395500D01*
X102549815Y-70462539D01*
X102497011Y-70508294D01*
X102445500Y-70519500D01*
X100424534Y-70519500D01*
X100357495Y-70499815D01*
X100336853Y-70483181D01*
X100052044Y-70198372D01*
X100046887Y-70192892D01*
X100028880Y-70172554D01*
X100028873Y-70172548D01*
X100018448Y-70163962D01*
X100009599Y-70155927D01*
X99846176Y-69992504D01*
X99846174Y-69992502D01*
X99754926Y-69939819D01*
X99729250Y-69920117D01*
X99662253Y-69853120D01*
X99662229Y-69853104D01*
X99662219Y-69853092D01*
X99657545Y-69849256D01*
X99658272Y-69848369D01*
X99617424Y-69799496D01*
X99608713Y-69730171D01*
X99638864Y-69667142D01*
X99657645Y-69650867D01*
X99657545Y-69650744D01*
X99662135Y-69646976D01*
X99662227Y-69646897D01*
X99662253Y-69646880D01*
X99757630Y-69551503D01*
X99832567Y-69439351D01*
X99853996Y-69387618D01*
X99869371Y-69350499D01*
X99884185Y-69314734D01*
X99908680Y-69191593D01*
X99910500Y-69182444D01*
X99910500Y-69064511D01*
X99930185Y-68997472D01*
X99982989Y-68951717D01*
X100052147Y-68941773D01*
X100066583Y-68944734D01*
G37*
%TD.AperFunction*%
%TA.AperFunction,Conductor*%
G36*
X107249019Y-68776400D02*
G01*
X107626534Y-68943051D01*
X107664137Y-68968808D01*
X108072161Y-69376832D01*
X108072171Y-69376843D01*
X108076502Y-69381174D01*
X108167826Y-69472498D01*
X108279674Y-69537074D01*
X108404424Y-69570500D01*
X108404425Y-69570500D01*
X108533576Y-69570500D01*
X111379947Y-69570500D01*
X111391140Y-69571006D01*
X111392840Y-69571160D01*
X111421575Y-69573765D01*
X111464403Y-69570905D01*
X111466357Y-69570775D01*
X111474617Y-69570500D01*
X111869604Y-69570500D01*
X111936643Y-69590185D01*
X111982398Y-69642989D01*
X111992342Y-69712147D01*
X111963317Y-69775703D01*
X111940728Y-69796075D01*
X111923123Y-69808401D01*
X111923119Y-69808405D01*
X111897951Y-69833572D01*
X111882357Y-69846783D01*
X111426382Y-70172554D01*
X111020496Y-70462539D01*
X110973108Y-70496395D01*
X110907117Y-70519350D01*
X110901024Y-70519500D01*
X105444500Y-70519500D01*
X105377461Y-70499815D01*
X105331706Y-70447011D01*
X105320500Y-70395500D01*
X105320500Y-70317555D01*
X105294186Y-70185271D01*
X105294185Y-70185270D01*
X105294185Y-70185266D01*
X105288917Y-70172548D01*
X105242569Y-70060652D01*
X105167628Y-69948494D01*
X105072258Y-69853124D01*
X105072254Y-69853121D01*
X105072253Y-69853120D01*
X105072229Y-69853104D01*
X105072219Y-69853092D01*
X105067545Y-69849256D01*
X105068272Y-69848369D01*
X105027424Y-69799496D01*
X105018713Y-69730171D01*
X105048864Y-69667142D01*
X105067645Y-69650867D01*
X105067545Y-69650744D01*
X105072135Y-69646976D01*
X105072227Y-69646897D01*
X105072253Y-69646880D01*
X105167630Y-69551503D01*
X105242567Y-69439351D01*
X105263996Y-69387618D01*
X105279371Y-69350499D01*
X105294185Y-69314734D01*
X105318680Y-69191593D01*
X105320500Y-69182444D01*
X105320500Y-69084500D01*
X105340185Y-69017461D01*
X105392989Y-68971706D01*
X105444500Y-68960500D01*
X106703574Y-68960500D01*
X106703576Y-68960500D01*
X106828326Y-68927074D01*
X106940174Y-68862498D01*
X106941341Y-68861330D01*
X106943281Y-68860113D01*
X106946625Y-68857548D01*
X106946867Y-68857864D01*
X106988253Y-68831903D01*
X107158176Y-68772738D01*
X107227960Y-68769283D01*
X107249019Y-68776400D01*
G37*
%TD.AperFunction*%
%TA.AperFunction,Conductor*%
G36*
X92464480Y-64900185D02*
G01*
X92499412Y-64933945D01*
X92876952Y-65479593D01*
X92885981Y-65494876D01*
X92915716Y-65554593D01*
X92915721Y-65554601D01*
X93045556Y-65726528D01*
X93045556Y-65726529D01*
X93081765Y-65759539D01*
X93086473Y-65764063D01*
X93092045Y-65769707D01*
X93099233Y-65776990D01*
X93099235Y-65776991D01*
X93099236Y-65776992D01*
X93105097Y-65781649D01*
X93104887Y-65781912D01*
X93113032Y-65788041D01*
X93204767Y-65871668D01*
X93204769Y-65871670D01*
X93387937Y-65985083D01*
X93387943Y-65985086D01*
X93430501Y-66001573D01*
X93588836Y-66062912D01*
X93616652Y-66068111D01*
X93678932Y-66099779D01*
X93714205Y-66160092D01*
X93711271Y-66229900D01*
X93671062Y-66287040D01*
X93616653Y-66311888D01*
X93588836Y-66317088D01*
X93588833Y-66317088D01*
X93588833Y-66317089D01*
X93387943Y-66394913D01*
X93387937Y-66394916D01*
X93204769Y-66508329D01*
X93204767Y-66508331D01*
X93045555Y-66653471D01*
X92915718Y-66825402D01*
X92819692Y-67018249D01*
X92819688Y-67018259D01*
X92782343Y-67149517D01*
X92761135Y-67224058D01*
X92760730Y-67225480D01*
X92740852Y-67440000D01*
X92760730Y-67654519D01*
X92760730Y-67654521D01*
X92760731Y-67654524D01*
X92786175Y-67743952D01*
X92819688Y-67861740D01*
X92819692Y-67861750D01*
X92915720Y-68054600D01*
X92920383Y-68060775D01*
X92945074Y-68126137D01*
X92930508Y-68194471D01*
X92881310Y-68244083D01*
X92821428Y-68259500D01*
X90754677Y-68259500D01*
X90730266Y-68257073D01*
X90716864Y-68254382D01*
X90716863Y-68254381D01*
X90716854Y-68254380D01*
X90716846Y-68254379D01*
X90716841Y-68254379D01*
X90281637Y-68236487D01*
X90215463Y-68214066D01*
X90193025Y-68193803D01*
X89882210Y-67835169D01*
X89853180Y-67771616D01*
X89851916Y-67753958D01*
X89851916Y-67563522D01*
X89871601Y-67496483D01*
X89881571Y-67483054D01*
X90100907Y-67225931D01*
X90159390Y-67187704D01*
X90175845Y-67183934D01*
X90188720Y-67181896D01*
X90301758Y-67124300D01*
X90391466Y-67034592D01*
X90449062Y-66921554D01*
X90449062Y-66921552D01*
X90449063Y-66921551D01*
X90463915Y-66827774D01*
X90463916Y-66827769D01*
X90463915Y-65632232D01*
X90449062Y-65538446D01*
X90391466Y-65425408D01*
X90391462Y-65425404D01*
X90391461Y-65425402D01*
X90301763Y-65335704D01*
X90301759Y-65335701D01*
X90301758Y-65335700D01*
X90301756Y-65335699D01*
X90296730Y-65332048D01*
X90254061Y-65276720D01*
X90248077Y-65207107D01*
X90280679Y-65145310D01*
X90309142Y-65123467D01*
X90715996Y-64896239D01*
X90776459Y-64880500D01*
X92397441Y-64880500D01*
X92464480Y-64900185D01*
G37*
%TD.AperFunction*%
%TA.AperFunction,Conductor*%
G36*
X98356964Y-62340185D02*
G01*
X98402719Y-62392989D01*
X98412663Y-62462147D01*
X98400410Y-62500795D01*
X98388102Y-62524948D01*
X98373250Y-62618725D01*
X98373250Y-63982569D01*
X98372921Y-63991597D01*
X98372576Y-63996320D01*
X98372813Y-63999135D01*
X98373250Y-64009531D01*
X98373250Y-64058768D01*
X98382361Y-64116297D01*
X98382884Y-64120611D01*
X98383889Y-64126726D01*
X98384464Y-64129576D01*
X98388102Y-64152549D01*
X98388102Y-64152550D01*
X98388103Y-64152553D01*
X98388104Y-64152554D01*
X98445700Y-64265592D01*
X98445702Y-64265594D01*
X98450907Y-64272758D01*
X98451207Y-64273108D01*
X98452413Y-64274749D01*
X98452414Y-64274750D01*
X98765410Y-64700537D01*
X98789256Y-64766209D01*
X98789500Y-64773979D01*
X98789500Y-64824381D01*
X98785727Y-64854738D01*
X98697463Y-65204295D01*
X98697457Y-65204324D01*
X98688250Y-65253307D01*
X98688247Y-65253332D01*
X98687891Y-65256178D01*
X98685977Y-65337740D01*
X98686820Y-65345693D01*
X98686478Y-65345729D01*
X98688500Y-65362898D01*
X98688500Y-66141517D01*
X98692095Y-66164214D01*
X98703354Y-66235304D01*
X98760950Y-66348342D01*
X98760952Y-66348344D01*
X98760954Y-66348347D01*
X98850652Y-66438045D01*
X98850654Y-66438046D01*
X98850658Y-66438050D01*
X98961637Y-66494597D01*
X98963698Y-66495647D01*
X99057475Y-66510499D01*
X99057481Y-66510500D01*
X99920518Y-66510499D01*
X100014304Y-66495646D01*
X100127342Y-66438050D01*
X100217050Y-66348342D01*
X100274646Y-66235304D01*
X100274646Y-66235302D01*
X100274647Y-66235301D01*
X100289499Y-66141524D01*
X100289500Y-66141519D01*
X100289499Y-65278482D01*
X100274646Y-65184696D01*
X100217050Y-65071658D01*
X100217046Y-65071654D01*
X100217045Y-65071652D01*
X100127343Y-64981950D01*
X100061526Y-64948414D01*
X100022321Y-64917022D01*
X99942680Y-64820857D01*
X99915080Y-64756669D01*
X99926564Y-64687750D01*
X99938271Y-64668321D01*
X100227585Y-64274750D01*
X100227587Y-64274745D01*
X100228786Y-64273115D01*
X100229092Y-64272759D01*
X100239686Y-64258180D01*
X100295018Y-64215517D01*
X100364631Y-64209541D01*
X100426425Y-64242150D01*
X100440319Y-64258186D01*
X100445701Y-64265594D01*
X100535402Y-64355295D01*
X100535404Y-64355296D01*
X100535408Y-64355300D01*
X100638025Y-64407586D01*
X100648448Y-64412897D01*
X100735866Y-64426741D01*
X100741536Y-64427640D01*
X100742225Y-64427749D01*
X100742231Y-64427750D01*
X101091834Y-64427749D01*
X101147665Y-64441029D01*
X101500963Y-64619181D01*
X101885660Y-64813167D01*
X101917509Y-64836205D01*
X102504357Y-65423053D01*
X102520682Y-65444225D01*
X102520903Y-65444073D01*
X102523679Y-65448073D01*
X102718166Y-65685980D01*
X103050868Y-66092960D01*
X103056503Y-66099852D01*
X103083693Y-66164214D01*
X103084500Y-66178333D01*
X103084500Y-66294268D01*
X103087112Y-66310757D01*
X103088629Y-66328642D01*
X103088644Y-66329922D01*
X103088645Y-66329933D01*
X103090150Y-66338744D01*
X103095040Y-66361862D01*
X103096195Y-66368112D01*
X103098324Y-66381554D01*
X103099354Y-66388052D01*
X103099354Y-66388054D01*
X103129951Y-66448105D01*
X103133440Y-66455554D01*
X103146709Y-66486518D01*
X103146713Y-66486526D01*
X103146714Y-66486528D01*
X103255789Y-66659765D01*
X103451236Y-66970181D01*
X103470298Y-67037401D01*
X103449992Y-67104254D01*
X103396766Y-67149517D01*
X103346303Y-67160250D01*
X103186806Y-67160250D01*
X103054521Y-67186563D01*
X103054511Y-67186566D01*
X102929902Y-67238180D01*
X102817744Y-67313121D01*
X102722371Y-67408494D01*
X102647430Y-67520652D01*
X102595816Y-67645261D01*
X102595813Y-67645271D01*
X102569500Y-67777555D01*
X102569500Y-67855500D01*
X102549815Y-67922539D01*
X102497011Y-67968294D01*
X102445500Y-67979500D01*
X100444533Y-67979500D01*
X100377494Y-67959815D01*
X100356852Y-67943181D01*
X100033567Y-67619895D01*
X100030549Y-67616770D01*
X100030449Y-67616663D01*
X100024701Y-67610497D01*
X100024694Y-67610491D01*
X100021114Y-67607209D01*
X100021240Y-67607071D01*
X100016911Y-67603239D01*
X99861176Y-67447504D01*
X99861174Y-67447502D01*
X99749326Y-67382926D01*
X99749323Y-67382924D01*
X99742639Y-67380156D01*
X99702407Y-67353274D01*
X99662256Y-67313122D01*
X99662255Y-67313121D01*
X99550097Y-67238180D01*
X99425488Y-67186566D01*
X99425478Y-67186563D01*
X99293194Y-67160250D01*
X99293192Y-67160250D01*
X97776808Y-67160250D01*
X97776806Y-67160250D01*
X97644521Y-67186563D01*
X97644511Y-67186566D01*
X97519902Y-67238180D01*
X97407744Y-67313121D01*
X97312371Y-67408494D01*
X97237430Y-67520652D01*
X97185816Y-67645261D01*
X97185814Y-67645268D01*
X97178499Y-67682042D01*
X97146113Y-67743952D01*
X97085396Y-67778525D01*
X97015627Y-67774784D01*
X96969201Y-67745529D01*
X96271176Y-67047504D01*
X96271174Y-67047502D01*
X96209089Y-67011657D01*
X96159327Y-66982926D01*
X96084788Y-66962954D01*
X96034576Y-66949500D01*
X96034575Y-66949500D01*
X95566966Y-66949500D01*
X95511670Y-66936488D01*
X94450660Y-66407878D01*
X94440682Y-66402319D01*
X94428726Y-66394917D01*
X94428722Y-66394914D01*
X94415720Y-66389877D01*
X94405228Y-66385243D01*
X94391979Y-66378642D01*
X94379616Y-66372741D01*
X94379423Y-66372653D01*
X94378869Y-66372400D01*
X94378863Y-66372397D01*
X94378855Y-66372394D01*
X94336204Y-66355759D01*
X94334630Y-66355508D01*
X94309397Y-66348687D01*
X94227833Y-66317089D01*
X94227828Y-66317088D01*
X94200009Y-66311887D01*
X94137731Y-66280221D01*
X94102458Y-66219909D01*
X94105392Y-66150101D01*
X94145600Y-66092960D01*
X94200009Y-66068112D01*
X94227828Y-66062912D01*
X94428723Y-65985085D01*
X94611896Y-65871669D01*
X94747193Y-65748328D01*
X94771108Y-65726528D01*
X94775927Y-65720147D01*
X94900944Y-65554599D01*
X94970045Y-65415820D01*
X94977979Y-65402151D01*
X94985206Y-65391348D01*
X95497401Y-64281683D01*
X95522300Y-64245976D01*
X97411459Y-62356819D01*
X97472782Y-62323334D01*
X97499140Y-62320500D01*
X98289925Y-62320500D01*
X98356964Y-62340185D01*
G37*
%TD.AperFunction*%
%TA.AperFunction,Conductor*%
G36*
X105706653Y-65720147D02*
G01*
X105739453Y-65781839D01*
X105742000Y-65806845D01*
X105742000Y-66287767D01*
X105750074Y-66338744D01*
X105756854Y-66381554D01*
X105814450Y-66494592D01*
X105814452Y-66494594D01*
X105814454Y-66494597D01*
X105904152Y-66584295D01*
X105904154Y-66584296D01*
X105904158Y-66584300D01*
X106017194Y-66641895D01*
X106017198Y-66641897D01*
X106110975Y-66656749D01*
X106110981Y-66656750D01*
X106243357Y-66656749D01*
X106310397Y-66676433D01*
X106320253Y-66683471D01*
X106604988Y-66908558D01*
X106645371Y-66965573D01*
X106648519Y-67035372D01*
X106627170Y-67080391D01*
X106531088Y-67208074D01*
X106526319Y-67214466D01*
X106525410Y-67215517D01*
X106520950Y-67221655D01*
X106463354Y-67334695D01*
X106460158Y-67354874D01*
X106459573Y-67357652D01*
X106459680Y-67357672D01*
X106458291Y-67365311D01*
X106457643Y-67370743D01*
X106448500Y-67428479D01*
X106448500Y-67484825D01*
X106448290Y-67490092D01*
X106448500Y-67495508D01*
X106448500Y-67552765D01*
X106437792Y-67603172D01*
X106414944Y-67654524D01*
X106322744Y-67861750D01*
X106303097Y-67905907D01*
X106257861Y-67959155D01*
X106191017Y-67979494D01*
X106189805Y-67979500D01*
X105444500Y-67979500D01*
X105377461Y-67959815D01*
X105331706Y-67907011D01*
X105320500Y-67855500D01*
X105320500Y-67777555D01*
X105294186Y-67645271D01*
X105294185Y-67645268D01*
X105294185Y-67645266D01*
X105278994Y-67608592D01*
X105242569Y-67520652D01*
X105167628Y-67408494D01*
X105072255Y-67313121D01*
X104960097Y-67238180D01*
X104889614Y-67208986D01*
X104835210Y-67165145D01*
X104813145Y-67098851D01*
X104830424Y-67031152D01*
X104832098Y-67028412D01*
X105173285Y-66486527D01*
X105195656Y-66437362D01*
X105198032Y-66432433D01*
X105220646Y-66388054D01*
X105222634Y-66375494D01*
X105223298Y-66371691D01*
X105223999Y-66368012D01*
X105224002Y-66368002D01*
X105224003Y-66367991D01*
X105224030Y-66367850D01*
X105224868Y-66361393D01*
X105225313Y-66358585D01*
X105235500Y-66294269D01*
X105235499Y-66260836D01*
X105236132Y-66248324D01*
X105236796Y-66241776D01*
X105236249Y-66232025D01*
X105236515Y-66232010D01*
X105235499Y-66222516D01*
X105235499Y-66144254D01*
X105255184Y-66077215D01*
X105261067Y-66068841D01*
X105519569Y-65731431D01*
X105575964Y-65690187D01*
X105645707Y-65685980D01*
X105706653Y-65720147D01*
G37*
%TD.AperFunction*%
%TA.AperFunction,Conductor*%
G36*
X115032539Y-59720185D02*
G01*
X115078294Y-59772989D01*
X115089500Y-59824500D01*
X115089500Y-74315500D01*
X115069815Y-74382539D01*
X115017011Y-74428294D01*
X114965500Y-74439500D01*
X83474500Y-74439500D01*
X83407461Y-74419815D01*
X83361706Y-74367011D01*
X83350500Y-74315500D01*
X83350500Y-67218475D01*
X84639500Y-67218475D01*
X84639500Y-68981517D01*
X84648268Y-69036877D01*
X84654354Y-69075304D01*
X84711950Y-69188342D01*
X84711952Y-69188344D01*
X84711954Y-69188347D01*
X84801652Y-69278045D01*
X84801654Y-69278046D01*
X84801658Y-69278050D01*
X84878302Y-69317102D01*
X84914698Y-69335647D01*
X85008475Y-69350499D01*
X85008481Y-69350500D01*
X85503097Y-69350499D01*
X85534235Y-69354472D01*
X85637164Y-69381174D01*
X86739198Y-69667067D01*
X86795740Y-69699412D01*
X86826076Y-69729748D01*
X86937924Y-69794324D01*
X87062674Y-69827750D01*
X87434734Y-69827750D01*
X87437733Y-69827786D01*
X87449720Y-69828076D01*
X87449721Y-69828075D01*
X87452101Y-69828133D01*
X87459354Y-69827750D01*
X87808127Y-69827750D01*
X87875166Y-69847435D01*
X87889335Y-69858043D01*
X88282022Y-70198372D01*
X88325428Y-70235990D01*
X88354701Y-70273399D01*
X88358365Y-70280590D01*
X88358370Y-70280597D01*
X88448068Y-70370295D01*
X88448070Y-70370296D01*
X88448074Y-70370300D01*
X88561110Y-70427895D01*
X88561114Y-70427897D01*
X88654891Y-70442749D01*
X88654897Y-70442750D01*
X90067934Y-70442749D01*
X90161720Y-70427896D01*
X90274758Y-70370300D01*
X90364466Y-70280592D01*
X90422062Y-70167554D01*
X90422062Y-70167552D01*
X90422063Y-70167551D01*
X90436915Y-70073774D01*
X90436916Y-70073769D01*
X90436915Y-69956881D01*
X90456599Y-69889842D01*
X90460205Y-69884539D01*
X90885860Y-69292143D01*
X90940964Y-69249187D01*
X90986560Y-69240500D01*
X95938966Y-69240500D01*
X96006005Y-69260185D01*
X96026647Y-69276819D01*
X97037093Y-70287265D01*
X97052266Y-70305686D01*
X97149119Y-70449517D01*
X97167882Y-70494585D01*
X97185813Y-70584728D01*
X97185815Y-70584736D01*
X97237430Y-70709347D01*
X97312371Y-70821505D01*
X97407744Y-70916878D01*
X97519902Y-70991819D01*
X97644511Y-71043433D01*
X97644516Y-71043435D01*
X97644520Y-71043435D01*
X97644521Y-71043436D01*
X97776805Y-71069750D01*
X97776808Y-71069750D01*
X99293188Y-71069750D01*
X99293192Y-71069750D01*
X99298590Y-71068675D01*
X99323263Y-71066293D01*
X99330244Y-71066320D01*
X99452322Y-71052306D01*
X99521168Y-71064216D01*
X99554144Y-71087816D01*
X99777501Y-71311173D01*
X99777502Y-71311174D01*
X99868826Y-71402498D01*
X99980674Y-71467074D01*
X100105424Y-71500500D01*
X100234575Y-71500500D01*
X102445500Y-71500500D01*
X102512539Y-71520185D01*
X102558294Y-71572989D01*
X102569500Y-71624500D01*
X102569500Y-71722442D01*
X102569500Y-71722444D01*
X102569499Y-71722444D01*
X102595813Y-71854728D01*
X102595816Y-71854738D01*
X102647430Y-71979347D01*
X102722371Y-72091505D01*
X102817744Y-72186878D01*
X102929902Y-72261819D01*
X103054511Y-72313433D01*
X103054516Y-72313435D01*
X103054520Y-72313435D01*
X103054521Y-72313436D01*
X103186805Y-72339750D01*
X103186808Y-72339750D01*
X104703194Y-72339750D01*
X104792191Y-72322046D01*
X104835484Y-72313435D01*
X104897792Y-72287626D01*
X104960097Y-72261819D01*
X104960098Y-72261818D01*
X104960101Y-72261817D01*
X105072253Y-72186880D01*
X105167630Y-72091503D01*
X105242567Y-71979351D01*
X105254902Y-71949573D01*
X105294183Y-71854738D01*
X105294185Y-71854734D01*
X105320500Y-71722442D01*
X105320500Y-71624500D01*
X105340185Y-71557461D01*
X105392989Y-71511706D01*
X105444500Y-71500500D01*
X110974858Y-71500500D01*
X111015101Y-71507212D01*
X111206810Y-71572989D01*
X112034866Y-71857102D01*
X112262745Y-71935289D01*
X112277877Y-71940088D01*
X112292797Y-71945904D01*
X112300665Y-71949573D01*
X112300666Y-71949573D01*
X112300670Y-71949575D01*
X112512023Y-72006207D01*
X112699787Y-72022633D01*
X112729998Y-72025277D01*
X112730000Y-72025277D01*
X112730002Y-72025277D01*
X112758254Y-72022805D01*
X112947977Y-72006207D01*
X113159330Y-71949575D01*
X113357639Y-71857102D01*
X113536877Y-71731598D01*
X113691598Y-71576877D01*
X113817102Y-71397639D01*
X113909575Y-71199330D01*
X113966207Y-70987977D01*
X113985277Y-70770000D01*
X113966207Y-70552023D01*
X113909575Y-70340670D01*
X113817102Y-70142362D01*
X113817100Y-70142359D01*
X113817099Y-70142357D01*
X113691599Y-69963124D01*
X113618317Y-69889842D01*
X113536877Y-69808402D01*
X113357639Y-69682898D01*
X113206414Y-69612381D01*
X113153977Y-69566210D01*
X113134825Y-69499016D01*
X113155041Y-69432135D01*
X113206414Y-69387618D01*
X113357639Y-69317102D01*
X113536877Y-69191598D01*
X113691598Y-69036877D01*
X113817102Y-68857639D01*
X113909575Y-68659330D01*
X113966207Y-68447977D01*
X113984418Y-68239815D01*
X113985277Y-68230002D01*
X113985277Y-68229997D01*
X113976190Y-68126137D01*
X113966207Y-68012023D01*
X113909575Y-67800670D01*
X113817102Y-67602362D01*
X113817100Y-67602359D01*
X113817099Y-67602357D01*
X113691599Y-67423124D01*
X113621749Y-67353274D01*
X113536877Y-67268402D01*
X113357639Y-67142898D01*
X113357640Y-67142898D01*
X113357638Y-67142897D01*
X113185692Y-67062718D01*
X113159330Y-67050425D01*
X113159326Y-67050424D01*
X113159322Y-67050422D01*
X112947977Y-66993793D01*
X112730002Y-66974723D01*
X112729998Y-66974723D01*
X112628018Y-66983645D01*
X112512023Y-66993793D01*
X112512020Y-66993793D01*
X112300677Y-67050422D01*
X112300668Y-67050426D01*
X112102361Y-67142898D01*
X112102357Y-67142900D01*
X111923121Y-67268402D01*
X111768402Y-67423121D01*
X111642898Y-67602360D01*
X111642894Y-67602367D01*
X111597854Y-67698954D01*
X111585286Y-67720123D01*
X111579764Y-67727613D01*
X111579760Y-67727620D01*
X111167651Y-68522570D01*
X111119321Y-68573027D01*
X111057565Y-68589500D01*
X109834952Y-68589500D01*
X109767913Y-68569815D01*
X109722158Y-68517011D01*
X109712214Y-68447853D01*
X109724468Y-68409204D01*
X109732262Y-68393908D01*
X109736646Y-68385304D01*
X109736646Y-68385302D01*
X109736647Y-68385301D01*
X109751499Y-68291524D01*
X109751500Y-68291519D01*
X109751499Y-67495175D01*
X109751639Y-67489275D01*
X109752090Y-67479785D01*
X109752092Y-67479778D01*
X109752091Y-67479770D01*
X109752126Y-67479037D01*
X109751499Y-67467588D01*
X109751499Y-67428482D01*
X109744284Y-67382926D01*
X109736646Y-67334696D01*
X109679050Y-67221658D01*
X109679045Y-67221653D01*
X109673676Y-67214261D01*
X109666527Y-67205477D01*
X109665208Y-67203468D01*
X109665205Y-67203462D01*
X109584967Y-67099930D01*
X109559460Y-67034884D01*
X109573169Y-66966372D01*
X109612785Y-66921753D01*
X109966973Y-66678530D01*
X110033379Y-66656807D01*
X110037167Y-66656749D01*
X110235517Y-66656749D01*
X110235518Y-66656749D01*
X110329304Y-66641896D01*
X110442342Y-66584300D01*
X110532050Y-66494592D01*
X110589646Y-66381554D01*
X110589646Y-66381552D01*
X110589647Y-66381551D01*
X110603470Y-66294271D01*
X110604500Y-66287769D01*
X110604499Y-65092232D01*
X110589646Y-64998446D01*
X110532050Y-64885408D01*
X110532046Y-64885404D01*
X110532045Y-64885402D01*
X110442347Y-64795704D01*
X110442343Y-64795701D01*
X110442342Y-64795700D01*
X110442340Y-64795699D01*
X110437314Y-64792048D01*
X110394645Y-64736720D01*
X110388661Y-64667107D01*
X110421263Y-64605310D01*
X110449726Y-64583467D01*
X110856580Y-64356239D01*
X110917043Y-64340500D01*
X110977593Y-64340500D01*
X111005568Y-64343696D01*
X111012323Y-64345261D01*
X111846122Y-64404118D01*
X111860271Y-64404868D01*
X111860288Y-64404868D01*
X111860296Y-64404869D01*
X111861113Y-64404898D01*
X111907078Y-64403921D01*
X111907124Y-64403910D01*
X111907649Y-64403847D01*
X111913664Y-64403073D01*
X111913672Y-64403136D01*
X111936010Y-64400499D01*
X113611517Y-64400499D01*
X113611518Y-64400499D01*
X113705304Y-64385646D01*
X113818342Y-64328050D01*
X113908050Y-64238342D01*
X113965646Y-64125304D01*
X113965646Y-64125302D01*
X113965647Y-64125301D01*
X113980499Y-64031524D01*
X113980500Y-64031519D01*
X113980499Y-62268482D01*
X113965646Y-62174696D01*
X113908050Y-62061658D01*
X113908046Y-62061654D01*
X113908045Y-62061652D01*
X113818347Y-61971954D01*
X113818344Y-61971952D01*
X113818342Y-61971950D01*
X113741517Y-61932805D01*
X113705301Y-61914352D01*
X113611524Y-61899500D01*
X111848482Y-61899500D01*
X111767519Y-61912323D01*
X111754696Y-61914354D01*
X111641658Y-61971950D01*
X111641657Y-61971951D01*
X111641652Y-61971954D01*
X111551954Y-62061652D01*
X111551951Y-62061657D01*
X111494352Y-62174698D01*
X111479500Y-62268475D01*
X111479500Y-62314437D01*
X111459815Y-62381476D01*
X111446194Y-62398998D01*
X111003806Y-62873471D01*
X111003805Y-62873472D01*
X110927537Y-62955269D01*
X110867422Y-62990878D01*
X110797598Y-62988333D01*
X110776381Y-62978967D01*
X110408690Y-62773612D01*
X110378950Y-62760814D01*
X110349978Y-62748346D01*
X110342721Y-62744940D01*
X110329304Y-62738104D01*
X110329303Y-62738103D01*
X110329300Y-62738102D01*
X110329301Y-62738102D01*
X110235522Y-62723249D01*
X110230669Y-62722868D01*
X110230694Y-62722543D01*
X110219501Y-62721638D01*
X110214267Y-62720785D01*
X110204947Y-62722077D01*
X110187933Y-62723250D01*
X108795469Y-62723250D01*
X108793152Y-62723433D01*
X108786625Y-62723558D01*
X108786629Y-62723663D01*
X108781768Y-62723847D01*
X108772905Y-62724885D01*
X108756648Y-62727440D01*
X108741391Y-62729838D01*
X108741389Y-62729838D01*
X108741386Y-62729839D01*
X108735494Y-62731369D01*
X108735444Y-62731179D01*
X108719947Y-62735212D01*
X108701697Y-62738103D01*
X108663699Y-62757464D01*
X108650197Y-62763360D01*
X108622313Y-62773611D01*
X108622309Y-62773613D01*
X108622304Y-62773615D01*
X108233712Y-62990643D01*
X108165584Y-63006146D01*
X108112786Y-62990643D01*
X107724190Y-62773612D01*
X107694450Y-62760814D01*
X107665478Y-62748346D01*
X107658221Y-62744940D01*
X107644804Y-62738104D01*
X107644803Y-62738103D01*
X107644800Y-62738102D01*
X107644801Y-62738102D01*
X107551022Y-62723249D01*
X107546169Y-62722868D01*
X107546194Y-62722543D01*
X107535001Y-62721638D01*
X107529767Y-62720785D01*
X107520447Y-62722077D01*
X107503433Y-62723250D01*
X106110982Y-62723250D01*
X106030019Y-62736073D01*
X106017196Y-62738104D01*
X105904158Y-62795700D01*
X105904157Y-62795701D01*
X105904152Y-62795704D01*
X105814454Y-62885402D01*
X105814451Y-62885407D01*
X105756852Y-62998448D01*
X105742000Y-63092225D01*
X105742000Y-63321715D01*
X105722315Y-63388754D01*
X105719624Y-63392768D01*
X105279532Y-64022210D01*
X105279531Y-64022211D01*
X105243213Y-64074154D01*
X105229271Y-64090781D01*
X104991664Y-64328388D01*
X104930341Y-64361873D01*
X104915489Y-64364172D01*
X104074502Y-64442543D01*
X104060311Y-64443049D01*
X103398620Y-64428718D01*
X103332023Y-64407586D01*
X103313624Y-64392428D01*
X102830575Y-63909379D01*
X102810223Y-63882565D01*
X102725710Y-63732564D01*
X102532003Y-63388754D01*
X102322716Y-63017292D01*
X102306749Y-62956425D01*
X102306749Y-62618732D01*
X102306748Y-62618725D01*
X102291896Y-62524946D01*
X102234300Y-62411908D01*
X102234296Y-62411904D01*
X102234295Y-62411902D01*
X102144597Y-62322204D01*
X102144594Y-62322202D01*
X102144592Y-62322200D01*
X102067767Y-62283055D01*
X102031551Y-62264602D01*
X101937774Y-62249750D01*
X101937769Y-62249750D01*
X101780494Y-62249750D01*
X101713455Y-62230065D01*
X101703065Y-62222604D01*
X101128034Y-61762900D01*
X101116508Y-61753903D01*
X101116607Y-61753775D01*
X101101256Y-61741310D01*
X100524674Y-61164727D01*
X100524673Y-61164726D01*
X100524669Y-61164723D01*
X100418127Y-61093535D01*
X100299744Y-61044499D01*
X100299738Y-61044497D01*
X100174071Y-61019500D01*
X100174069Y-61019500D01*
X97114263Y-61019500D01*
X97114261Y-61019500D01*
X96988593Y-61044497D01*
X96988587Y-61044499D01*
X96870202Y-61093535D01*
X96763663Y-61164722D01*
X96763656Y-61164728D01*
X94602359Y-63326025D01*
X94566645Y-63350929D01*
X93761987Y-63722341D01*
X93692869Y-63732564D01*
X93690309Y-63732179D01*
X93629858Y-63722446D01*
X93580680Y-63703126D01*
X93506460Y-63653535D01*
X93388076Y-63604499D01*
X93388070Y-63604497D01*
X93262403Y-63579500D01*
X93262401Y-63579500D01*
X92744453Y-63579500D01*
X92729636Y-63578612D01*
X92724364Y-63577977D01*
X92722882Y-63577858D01*
X92722513Y-63577829D01*
X92658300Y-63577784D01*
X92651013Y-63578644D01*
X92650904Y-63577723D01*
X92636475Y-63579500D01*
X90776460Y-63579500D01*
X90715997Y-63563760D01*
X90268106Y-63313612D01*
X90209400Y-63288349D01*
X90202137Y-63284940D01*
X90188720Y-63278104D01*
X90188719Y-63278103D01*
X90188716Y-63278102D01*
X90188717Y-63278102D01*
X90094938Y-63263249D01*
X90090085Y-63262868D01*
X90090110Y-63262543D01*
X90078917Y-63261638D01*
X90073683Y-63260785D01*
X90064363Y-63262077D01*
X90047349Y-63263250D01*
X88654898Y-63263250D01*
X88573935Y-63276073D01*
X88561112Y-63278104D01*
X88448074Y-63335700D01*
X88448073Y-63335701D01*
X88448068Y-63335704D01*
X88358370Y-63425402D01*
X88358367Y-63425407D01*
X88300768Y-63538448D01*
X88285916Y-63632225D01*
X88285916Y-64827767D01*
X88296708Y-64895907D01*
X88300770Y-64921554D01*
X88358366Y-65034592D01*
X88358368Y-65034594D01*
X88358370Y-65034597D01*
X88448071Y-65124298D01*
X88455480Y-65129681D01*
X88498147Y-65185010D01*
X88504127Y-65254624D01*
X88471521Y-65316419D01*
X88455480Y-65330319D01*
X88448071Y-65335701D01*
X88358370Y-65425402D01*
X88358367Y-65425407D01*
X88300768Y-65538448D01*
X88285916Y-65632225D01*
X88285916Y-66827767D01*
X88291711Y-66864354D01*
X88300770Y-66921554D01*
X88358366Y-67034592D01*
X88358368Y-67034594D01*
X88358370Y-67034597D01*
X88448068Y-67124295D01*
X88448071Y-67124297D01*
X88448074Y-67124300D01*
X88497565Y-67149517D01*
X88561107Y-67181894D01*
X88561109Y-67181894D01*
X88561112Y-67181896D01*
X88561114Y-67181896D01*
X88570390Y-67184910D01*
X88569348Y-67188115D01*
X88616909Y-67210653D01*
X88629841Y-67224057D01*
X88808905Y-67440000D01*
X88842368Y-67480354D01*
X88870008Y-67544524D01*
X88870916Y-67559505D01*
X88870916Y-67753957D01*
X88851231Y-67820996D01*
X88840622Y-67835168D01*
X88386944Y-68358644D01*
X88378665Y-68368509D01*
X88375582Y-68372905D01*
X88375158Y-68372607D01*
X88360175Y-68392097D01*
X88358370Y-68393901D01*
X88358360Y-68393915D01*
X88354699Y-68401101D01*
X88325430Y-68438505D01*
X88070643Y-68659322D01*
X87935551Y-68776403D01*
X87889337Y-68816455D01*
X87825784Y-68845486D01*
X87808125Y-68846750D01*
X87776139Y-68846750D01*
X87709100Y-68827065D01*
X87663345Y-68774261D01*
X87662797Y-68773046D01*
X87151157Y-67620074D01*
X87140499Y-67569778D01*
X87140499Y-67218482D01*
X87139863Y-67214466D01*
X87125646Y-67124696D01*
X87068050Y-67011658D01*
X87068046Y-67011654D01*
X87068045Y-67011652D01*
X86978347Y-66921954D01*
X86978344Y-66921952D01*
X86978342Y-66921950D01*
X86901517Y-66882805D01*
X86865301Y-66864352D01*
X86771524Y-66849500D01*
X85008482Y-66849500D01*
X84927519Y-66862323D01*
X84914696Y-66864354D01*
X84801658Y-66921950D01*
X84801657Y-66921951D01*
X84801652Y-66921954D01*
X84711954Y-67011652D01*
X84711951Y-67011657D01*
X84711950Y-67011658D01*
X84693685Y-67047504D01*
X84654352Y-67124698D01*
X84639500Y-67218475D01*
X83350500Y-67218475D01*
X83350500Y-59824500D01*
X83370185Y-59757461D01*
X83422989Y-59711706D01*
X83474500Y-59700500D01*
X114965500Y-59700500D01*
X115032539Y-59720185D01*
G37*
%TD.AperFunction*%
%TD*%
%TA.AperFunction,Conductor*%
%TO.N,/LED3_K*%
G36*
X109043538Y-67063427D02*
G01*
X109044513Y-67064533D01*
X109344692Y-67451860D01*
X109347051Y-67460498D01*
X109343727Y-67467290D01*
X108959283Y-67852696D01*
X108951015Y-67856133D01*
X108942737Y-67852716D01*
X108942717Y-67852696D01*
X108558272Y-67467290D01*
X108554855Y-67459012D01*
X108557305Y-67451863D01*
X108857487Y-67064533D01*
X108865264Y-67060093D01*
X108866735Y-67060000D01*
X109035265Y-67060000D01*
X109043538Y-67063427D01*
G37*
%TD.AperFunction*%
%TD*%
%TA.AperFunction,Conductor*%
%TO.N,/LED3_K*%
G36*
X109521618Y-65699118D02*
G01*
X109522544Y-65700413D01*
X109859733Y-66246767D01*
X109861162Y-66255607D01*
X109856400Y-66262557D01*
X109225834Y-66695572D01*
X109045991Y-66819073D01*
X109043993Y-66820445D01*
X109037370Y-66822500D01*
X108872019Y-66822500D01*
X108863746Y-66819073D01*
X108860340Y-66811501D01*
X108849769Y-66635459D01*
X108827356Y-66262191D01*
X108830281Y-66253731D01*
X108831586Y-66252471D01*
X109505149Y-65697527D01*
X109513712Y-65694912D01*
X109521618Y-65699118D01*
G37*
%TD.AperFunction*%
%TD*%
%TA.AperFunction,Conductor*%
%TO.N,/LM393_INAP*%
G36*
X99468088Y-70236029D02*
G01*
X99468686Y-70236490D01*
X99666882Y-70399733D01*
X99771076Y-70485551D01*
X99775284Y-70493456D01*
X99772669Y-70502020D01*
X99771911Y-70502855D01*
X99656629Y-70618137D01*
X99649690Y-70621488D01*
X99284000Y-70663466D01*
X99278566Y-70662800D01*
X98575556Y-70399733D01*
X98569008Y-70393624D01*
X98568698Y-70384675D01*
X98574807Y-70378127D01*
X98577773Y-70377227D01*
X99459372Y-70233973D01*
X99468088Y-70236029D01*
G37*
%TD.AperFunction*%
%TD*%
%TA.AperFunction,Conductor*%
%TO.N,/LM393_INAP*%
G36*
X112135968Y-70175956D02*
G01*
X112725455Y-70764464D01*
X112728889Y-70772734D01*
X112727994Y-70777233D01*
X112408932Y-71545155D01*
X112402593Y-71551480D01*
X112394330Y-71551733D01*
X111085642Y-71102711D01*
X111078929Y-71096784D01*
X111077739Y-71091644D01*
X111077739Y-70926020D01*
X111081166Y-70917747D01*
X111082632Y-70916504D01*
X112120901Y-70174715D01*
X112129624Y-70172695D01*
X112135968Y-70175956D01*
G37*
%TD.AperFunction*%
%TD*%
%TA.AperFunction,Conductor*%
%TO.N,/LM393_OUTA*%
G36*
X106840036Y-65696492D02*
G01*
X106840764Y-65697045D01*
X107513292Y-66251135D01*
X107517498Y-66259041D01*
X107516947Y-66263878D01*
X107332673Y-66814513D01*
X107326798Y-66821271D01*
X107321578Y-66822500D01*
X107154066Y-66822500D01*
X107146810Y-66819978D01*
X106442356Y-66263096D01*
X106437991Y-66255278D01*
X106440028Y-66247209D01*
X106823742Y-65699362D01*
X106831294Y-65694552D01*
X106840036Y-65696492D01*
G37*
%TD.AperFunction*%
%TD*%
%TA.AperFunction,Conductor*%
%TO.N,/LM393_OUTA*%
G36*
X107332589Y-67063427D02*
G01*
X107333513Y-67064468D01*
X107638145Y-67451893D01*
X107640565Y-67460515D01*
X107637278Y-67467341D01*
X107257283Y-67852602D01*
X107249034Y-67856086D01*
X107240737Y-67852716D01*
X107240670Y-67852649D01*
X106856169Y-67467187D01*
X106852752Y-67458909D01*
X106855102Y-67451890D01*
X107146490Y-67064665D01*
X107154203Y-67060115D01*
X107155839Y-67060000D01*
X107324316Y-67060000D01*
X107332589Y-67063427D01*
G37*
%TD.AperFunction*%
%TD*%
%TA.AperFunction,Conductor*%
%TO.N,/LM393_OUTA*%
G36*
X99458224Y-67682445D02*
G01*
X99458742Y-67682827D01*
X99587322Y-67783317D01*
X99774999Y-67929995D01*
X99779407Y-67937789D01*
X99777013Y-67946418D01*
X99776067Y-67947486D01*
X99660840Y-68062713D01*
X99654357Y-68066002D01*
X99284228Y-68123319D01*
X99278338Y-68122715D01*
X98574264Y-67859250D01*
X98567716Y-67853141D01*
X98567406Y-67844192D01*
X98573515Y-67837644D01*
X98576297Y-67836776D01*
X99449476Y-67680529D01*
X99458224Y-67682445D01*
G37*
%TD.AperFunction*%
%TD*%
%TA.AperFunction,Conductor*%
%TO.N,/LM393_OUTA*%
G36*
X106859639Y-67681354D02*
G01*
X107245576Y-67857975D01*
X107251673Y-67864534D01*
X107251684Y-67864564D01*
X107393473Y-68248819D01*
X107393122Y-68257767D01*
X107386546Y-68263846D01*
X107386343Y-68263918D01*
X106551531Y-68554586D01*
X106542591Y-68554070D01*
X106536635Y-68547384D01*
X106535984Y-68543537D01*
X106535984Y-68382485D01*
X106536994Y-68377729D01*
X106587633Y-68263918D01*
X106844193Y-67687287D01*
X106850687Y-67681122D01*
X106859639Y-67681354D01*
G37*
%TD.AperFunction*%
%TD*%
%TA.AperFunction,Conductor*%
%TO.N,/LM393_OUTA*%
G36*
X107647404Y-67698676D02*
G01*
X107653607Y-67704751D01*
X107992245Y-68471871D01*
X107992452Y-68480823D01*
X107989815Y-68484869D01*
X107873869Y-68600815D01*
X107865596Y-68604242D01*
X107860871Y-68603245D01*
X107093752Y-68264607D01*
X107087567Y-68258131D01*
X107087657Y-68249451D01*
X107246437Y-67863799D01*
X107252753Y-67857456D01*
X107638451Y-67698657D01*
X107647404Y-67698676D01*
G37*
%TD.AperFunction*%
%TD*%
%TA.AperFunction,Conductor*%
%TO.N,/LM393_OUTA*%
G36*
X111954620Y-67908821D02*
G01*
X112723763Y-68227006D01*
X112730097Y-68233335D01*
X112730990Y-68237831D01*
X112730012Y-69069068D01*
X112726575Y-69077337D01*
X112719091Y-69080728D01*
X111394560Y-69169166D01*
X111386077Y-69166298D01*
X111382107Y-69158271D01*
X111382081Y-69157492D01*
X111382081Y-68992852D01*
X111383394Y-68987467D01*
X111939762Y-67914246D01*
X111946611Y-67908481D01*
X111954620Y-67908821D01*
G37*
%TD.AperFunction*%
%TD*%
%TA.AperFunction,Conductor*%
%TO.N,VCC*%
G36*
X104168085Y-65565223D02*
G01*
X104168457Y-65565595D01*
X104828693Y-66256153D01*
X104831933Y-66264501D01*
X104830137Y-66270472D01*
X104413442Y-66932284D01*
X104406134Y-66937459D01*
X104403541Y-66937750D01*
X103916459Y-66937750D01*
X103908186Y-66934323D01*
X103906558Y-66932284D01*
X103489862Y-66270472D01*
X103488354Y-66261645D01*
X103491304Y-66256156D01*
X104151543Y-65565594D01*
X104159737Y-65561983D01*
X104168085Y-65565223D01*
G37*
%TD.AperFunction*%
%TD*%
%TA.AperFunction,Conductor*%
%TO.N,VCC*%
G36*
X104404167Y-67279927D02*
G01*
X104407594Y-67288200D01*
X104407392Y-67290363D01*
X104357407Y-67556031D01*
X104352574Y-67563484D01*
X103954651Y-67839309D01*
X103945900Y-67841205D01*
X103938370Y-67836358D01*
X103938345Y-67836322D01*
X103753004Y-67566781D01*
X103751140Y-67558022D01*
X103752467Y-67554382D01*
X103906638Y-67282430D01*
X103913699Y-67276923D01*
X103916816Y-67276500D01*
X104395894Y-67276500D01*
X104404167Y-67279927D01*
G37*
%TD.AperFunction*%
%TD*%
%TA.AperFunction,Conductor*%
%TO.N,/LED2_K*%
G36*
X99347425Y-63347143D02*
G01*
X99349042Y-63348760D01*
X99900478Y-64020222D01*
X99903080Y-64028790D01*
X99900863Y-64034577D01*
X99493506Y-64588730D01*
X99485845Y-64593366D01*
X99484079Y-64593500D01*
X99195921Y-64593500D01*
X99187648Y-64590073D01*
X99186494Y-64588730D01*
X98779136Y-64034577D01*
X98776997Y-64025881D01*
X98779520Y-64020223D01*
X99330958Y-63348759D01*
X99338857Y-63344541D01*
X99347425Y-63347143D01*
G37*
%TD.AperFunction*%
%TD*%
%TA.AperFunction,Conductor*%
%TO.N,/LED2_K*%
G36*
X99492771Y-64913427D02*
G01*
X99493509Y-64914237D01*
X99815086Y-65302535D01*
X99817724Y-65311093D01*
X99815084Y-65317463D01*
X99497207Y-65701094D01*
X99489290Y-65705278D01*
X99480733Y-65702638D01*
X99479915Y-65701892D01*
X99093684Y-65314696D01*
X99090267Y-65306418D01*
X99090622Y-65303575D01*
X99187769Y-64918836D01*
X99193117Y-64911653D01*
X99199113Y-64910000D01*
X99484498Y-64910000D01*
X99492771Y-64913427D01*
G37*
%TD.AperFunction*%
%TD*%
%TA.AperFunction,Conductor*%
%TO.N,/LM393_INAN*%
G36*
X97440304Y-68778122D02*
G01*
X98553337Y-68830170D01*
X98561440Y-68833979D01*
X98564476Y-68842404D01*
X98564425Y-68843083D01*
X98536738Y-69105914D01*
X98532463Y-69113782D01*
X98525881Y-69116362D01*
X97574961Y-69179807D01*
X97566478Y-69176939D01*
X97565705Y-69176197D01*
X97498848Y-69105914D01*
X97315745Y-68913427D01*
X97312527Y-68905073D01*
X97315949Y-68897093D01*
X97431506Y-68781536D01*
X97439778Y-68778110D01*
X97440304Y-68778122D01*
G37*
%TD.AperFunction*%
%TD*%
%TA.AperFunction,Conductor*%
%TO.N,/LM393_INAN*%
G36*
X94210422Y-66741258D02*
G01*
X94211149Y-66741590D01*
X95425849Y-67346770D01*
X95431726Y-67353526D01*
X95432332Y-67357242D01*
X95432332Y-67522757D01*
X95428905Y-67531030D01*
X95425849Y-67533229D01*
X94211149Y-68138409D01*
X94202216Y-68139031D01*
X94195460Y-68133154D01*
X94195133Y-68132439D01*
X93909197Y-67444489D01*
X93909187Y-67435536D01*
X93909198Y-67435510D01*
X93941729Y-67357242D01*
X94195129Y-66747570D01*
X94201468Y-66741247D01*
X94210422Y-66741258D01*
G37*
%TD.AperFunction*%
%TD*%
%TA.AperFunction,Conductor*%
%TO.N,/LM393_INAP*%
G36*
X90041664Y-68632465D02*
G01*
X90700198Y-68659538D01*
X90708322Y-68663302D01*
X90711416Y-68671228D01*
X90711416Y-68836232D01*
X90709218Y-68843059D01*
X90042950Y-69770324D01*
X90035339Y-69775043D01*
X90027043Y-69773288D01*
X89372211Y-69344965D01*
X89367164Y-69337569D01*
X89368825Y-69328769D01*
X89370171Y-69327076D01*
X90032765Y-68636056D01*
X90040962Y-68632459D01*
X90041664Y-68632465D01*
G37*
%TD.AperFunction*%
%TD*%
%TA.AperFunction,Conductor*%
%TO.N,/LM393_INAP*%
G36*
X97507758Y-69932029D02*
G01*
X98269481Y-70051572D01*
X98571187Y-70098921D01*
X98578829Y-70103590D01*
X98580932Y-70112294D01*
X98580916Y-70112389D01*
X98537402Y-70375458D01*
X98532671Y-70383061D01*
X98525330Y-70385237D01*
X97571347Y-70342081D01*
X97563237Y-70338284D01*
X97562171Y-70336928D01*
X97379989Y-70066379D01*
X97378212Y-70057604D01*
X97381420Y-70051574D01*
X97497679Y-69935315D01*
X97505951Y-69931889D01*
X97507758Y-69932029D01*
G37*
%TD.AperFunction*%
%TD*%
%TA.AperFunction,Conductor*%
%TO.N,/LM393_INAP*%
G36*
X89454346Y-67960677D02*
G01*
X89454911Y-67961282D01*
X90029440Y-68624201D01*
X90032268Y-68632697D01*
X90029055Y-68639948D01*
X89369873Y-69329404D01*
X89361679Y-69333016D01*
X89353331Y-69329776D01*
X89352959Y-69329404D01*
X88693776Y-68639948D01*
X88690536Y-68631600D01*
X88693389Y-68624203D01*
X89267917Y-67961286D01*
X89275925Y-67957280D01*
X89276759Y-67957250D01*
X89446073Y-67957250D01*
X89454346Y-67960677D01*
G37*
%TD.AperFunction*%
%TD*%
%TA.AperFunction,Conductor*%
%TO.N,/LM393_INAP*%
G36*
X89383132Y-66237329D02*
G01*
X89383147Y-66237344D01*
X89926912Y-66788608D01*
X89930282Y-66796904D01*
X89927483Y-66804417D01*
X89454919Y-67358393D01*
X89446943Y-67362463D01*
X89446018Y-67362500D01*
X89276913Y-67362500D01*
X89268640Y-67359073D01*
X89267907Y-67358268D01*
X88808708Y-66804496D01*
X88806065Y-66795940D01*
X88809482Y-66788714D01*
X89366587Y-66237244D01*
X89374876Y-66233860D01*
X89383132Y-66237329D01*
G37*
%TD.AperFunction*%
%TD*%
%TA.AperFunction,Conductor*%
%TO.N,/LM393_INAP*%
G36*
X86744743Y-67703958D02*
G01*
X86744878Y-67704250D01*
X87292778Y-68938934D01*
X87428590Y-69244982D01*
X87429596Y-69249728D01*
X87429596Y-69412127D01*
X87426169Y-69420400D01*
X87417896Y-69423827D01*
X87414958Y-69423452D01*
X85602260Y-68953197D01*
X85595112Y-68947803D01*
X85593873Y-68938934D01*
X85594154Y-68938009D01*
X85887389Y-68104577D01*
X85893365Y-68097913D01*
X86729143Y-67698446D01*
X86738084Y-67697971D01*
X86744743Y-67703958D01*
G37*
%TD.AperFunction*%
%TD*%
%TA.AperFunction,Conductor*%
%TO.N,/LM393_INAP*%
G36*
X88694119Y-68669942D02*
G01*
X89354124Y-69328971D01*
X89357557Y-69337241D01*
X89354136Y-69345517D01*
X89354124Y-69345529D01*
X88694119Y-70004557D01*
X88685843Y-70007978D01*
X88678189Y-70005120D01*
X88015453Y-69430748D01*
X88011446Y-69422740D01*
X88011416Y-69421906D01*
X88011416Y-69252593D01*
X88014843Y-69244320D01*
X88015453Y-69243751D01*
X88678190Y-68669378D01*
X88686686Y-68666551D01*
X88694119Y-68669942D01*
G37*
%TD.AperFunction*%
%TD*%
%TA.AperFunction,Conductor*%
%TO.N,VCC*%
G36*
X94814953Y-63691361D02*
G01*
X95156970Y-64033378D01*
X95160397Y-64041651D01*
X95159320Y-64046554D01*
X94617034Y-65221408D01*
X94610455Y-65227484D01*
X94601947Y-65227320D01*
X94390884Y-65140194D01*
X93912120Y-64942562D01*
X93905780Y-64936237D01*
X93905769Y-64936211D01*
X93621011Y-64246382D01*
X93621022Y-64237430D01*
X93626921Y-64231298D01*
X94801780Y-63689010D01*
X94810724Y-63688655D01*
X94814953Y-63691361D01*
G37*
%TD.AperFunction*%
%TD*%
%TA.AperFunction,Conductor*%
%TO.N,VCC*%
G36*
X100874804Y-62079611D02*
G01*
X101582066Y-62645025D01*
X101586388Y-62652868D01*
X101585770Y-62658123D01*
X101342765Y-63333734D01*
X101336741Y-63340359D01*
X101334843Y-63341060D01*
X100785350Y-63491344D01*
X100776465Y-63490221D01*
X100770977Y-63483145D01*
X100770915Y-63482906D01*
X100514635Y-62433020D01*
X100516002Y-62424172D01*
X100517724Y-62421978D01*
X100859226Y-62080476D01*
X100867498Y-62077050D01*
X100874804Y-62079611D01*
G37*
%TD.AperFunction*%
%TD*%
%TA.AperFunction,Conductor*%
%TO.N,VCC*%
G36*
X92691971Y-63982181D02*
G01*
X93898507Y-64176418D01*
X93906128Y-64181115D01*
X93908345Y-64187953D01*
X93909325Y-64935139D01*
X93905909Y-64943416D01*
X93905890Y-64943435D01*
X93379431Y-65468918D01*
X93371155Y-65472337D01*
X93362885Y-65468902D01*
X93361545Y-65467294D01*
X92680503Y-64483004D01*
X92678424Y-64476347D01*
X92678424Y-63993733D01*
X92681851Y-63985460D01*
X92690124Y-63982033D01*
X92691971Y-63982181D01*
G37*
%TD.AperFunction*%
%TD*%
%TA.AperFunction,Conductor*%
%TO.N,VCC*%
G36*
X90070377Y-63667637D02*
G01*
X90623672Y-63976652D01*
X90629223Y-63983677D01*
X90629666Y-63986866D01*
X90629666Y-64473133D01*
X90626239Y-64481406D01*
X90623671Y-64483348D01*
X90070381Y-64792360D01*
X90061487Y-64793402D01*
X90057251Y-64791187D01*
X89384926Y-64239042D01*
X89380707Y-64231143D01*
X89383309Y-64222575D01*
X89384926Y-64220958D01*
X90057252Y-63668811D01*
X90065819Y-63666210D01*
X90070377Y-63667637D01*
G37*
%TD.AperFunction*%
%TD*%
%TA.AperFunction,Conductor*%
%TO.N,VCC*%
G36*
X103189458Y-64829784D02*
G01*
X104236837Y-64852468D01*
X104245032Y-64856073D01*
X104248279Y-64864418D01*
X104248190Y-64865631D01*
X104161400Y-65552964D01*
X104156964Y-65560742D01*
X104156020Y-65561403D01*
X103493746Y-65977829D01*
X103484918Y-65979331D01*
X103478460Y-65975329D01*
X102837624Y-65191423D01*
X102835042Y-65182850D01*
X102838409Y-65175747D01*
X103180948Y-64833208D01*
X103189220Y-64829782D01*
X103189458Y-64829784D01*
G37*
%TD.AperFunction*%
%TD*%
%TA.AperFunction,Conductor*%
%TO.N,VCC*%
G36*
X101905633Y-63108161D02*
G01*
X101911332Y-63113221D01*
X102479065Y-64120885D01*
X102480141Y-64129775D01*
X102477145Y-64134901D01*
X102135856Y-64476190D01*
X102127583Y-64479617D01*
X102122315Y-64478364D01*
X101235352Y-64031108D01*
X101229508Y-64024323D01*
X101229070Y-64018793D01*
X101338248Y-63344495D01*
X101342954Y-63336877D01*
X101345337Y-63335550D01*
X101896680Y-63108148D01*
X101905633Y-63108161D01*
G37*
%TD.AperFunction*%
%TD*%
%TA.AperFunction,Conductor*%
%TO.N,VCC*%
G36*
X106150492Y-63497864D02*
G01*
X106825703Y-63687605D01*
X106832740Y-63693142D01*
X106833653Y-63695218D01*
X107014425Y-64245638D01*
X107013751Y-64254568D01*
X107007472Y-64260223D01*
X105925957Y-64671979D01*
X105917006Y-64671720D01*
X105913521Y-64669318D01*
X105572262Y-64328059D01*
X105568835Y-64319786D01*
X105570946Y-64313082D01*
X105611858Y-64254568D01*
X106137742Y-63502423D01*
X106145289Y-63497608D01*
X106150492Y-63497864D01*
G37*
%TD.AperFunction*%
%TD*%
%TA.AperFunction,Conductor*%
%TO.N,VCC*%
G36*
X105138603Y-64754081D02*
G01*
X105139406Y-64754813D01*
X105481822Y-65097229D01*
X105485249Y-65105502D01*
X105482837Y-65112618D01*
X104841312Y-65949971D01*
X104833560Y-65954454D01*
X104826067Y-65952925D01*
X104163991Y-65561236D01*
X104158615Y-65554074D01*
X104158404Y-65553071D01*
X104084561Y-65105502D01*
X104044905Y-64865138D01*
X104046939Y-64856418D01*
X104054544Y-64851690D01*
X104055336Y-64851587D01*
X105130049Y-64751436D01*
X105138603Y-64754081D01*
G37*
%TD.AperFunction*%
%TD*%
%TA.AperFunction,Conductor*%
%TO.N,VCC*%
G36*
X110210961Y-63127637D02*
G01*
X110764256Y-63436652D01*
X110769807Y-63443677D01*
X110770250Y-63446866D01*
X110770250Y-63933133D01*
X110766823Y-63941406D01*
X110764255Y-63943348D01*
X110210965Y-64252360D01*
X110202071Y-64253402D01*
X110197835Y-64251187D01*
X109525510Y-63699042D01*
X109521291Y-63691143D01*
X109523893Y-63682575D01*
X109525510Y-63680958D01*
X110197836Y-63128811D01*
X110206403Y-63126210D01*
X110210961Y-63127637D01*
G37*
%TD.AperFunction*%
%TD*%
%TA.AperFunction,Conductor*%
%TO.N,VCC*%
G36*
X111888378Y-62534474D02*
G01*
X112719960Y-63141935D01*
X112724620Y-63149583D01*
X112722507Y-63158284D01*
X112721327Y-63159661D01*
X111883772Y-63996231D01*
X111875497Y-63999653D01*
X111874680Y-63999624D01*
X111040876Y-63940767D01*
X111032865Y-63936766D01*
X111030000Y-63929096D01*
X111030000Y-63444608D01*
X111033143Y-63436629D01*
X111300390Y-63150000D01*
X111872924Y-62535943D01*
X111881070Y-62532230D01*
X111888378Y-62534474D01*
G37*
%TD.AperFunction*%
%TD*%
%TA.AperFunction,Conductor*%
%TO.N,VCC*%
G36*
X107526461Y-63127637D02*
G01*
X108079756Y-63436652D01*
X108085307Y-63443677D01*
X108085750Y-63446866D01*
X108085750Y-63933133D01*
X108082323Y-63941406D01*
X108079755Y-63943348D01*
X107526465Y-64252360D01*
X107517571Y-64253402D01*
X107513335Y-64251187D01*
X106841010Y-63699042D01*
X106836791Y-63691143D01*
X106839393Y-63682575D01*
X106841010Y-63680958D01*
X107513336Y-63128811D01*
X107521903Y-63126210D01*
X107526461Y-63127637D01*
G37*
%TD.AperFunction*%
%TD*%
%TA.AperFunction,Conductor*%
%TO.N,VCC*%
G36*
X108833164Y-63128812D02*
G01*
X109505489Y-63680958D01*
X109509708Y-63688857D01*
X109507106Y-63697425D01*
X109505489Y-63699042D01*
X108833164Y-64251187D01*
X108824596Y-64253789D01*
X108820036Y-64252360D01*
X108266745Y-63943348D01*
X108261193Y-63936322D01*
X108260750Y-63933133D01*
X108260750Y-63446866D01*
X108264177Y-63438593D01*
X108266740Y-63436654D01*
X108820037Y-63127638D01*
X108828928Y-63126597D01*
X108833164Y-63128812D01*
G37*
%TD.AperFunction*%
%TD*%
M02*
