%TF.GenerationSoftware,KiCad,Pcbnew,8.0.8*%
%TF.CreationDate,2025-02-03T12:57:40+08:00*%
%TF.ProjectId,vibration_detection_v02,76696272-6174-4696-9f6e-5f6465746563,rev?*%
%TF.SameCoordinates,Original*%
%TF.FileFunction,Paste,Top*%
%TF.FilePolarity,Positive*%
%FSLAX46Y46*%
G04 Gerber Fmt 4.6, Leading zero omitted, Abs format (unit mm)*
G04 Created by KiCad (PCBNEW 8.0.8) date 2025-02-03 12:57:40*
%MOMM*%
%LPD*%
G01*
G04 APERTURE LIST*
%ADD10C,0.000000*%
%ADD11R,0.900000X0.800000*%
%ADD12R,0.800000X0.900000*%
%ADD13R,2.000000X1.800000*%
%ADD14R,1.500000X0.900000*%
%ADD15R,0.280010X0.500000*%
%ADD16R,0.500000X0.280010*%
%ADD17R,0.600000X1.100000*%
%ADD18R,0.600000X1.000000*%
%ADD19O,1.950210X0.568400*%
G04 APERTURE END LIST*
D10*
%TO.C,Q2*%
G36*
X144797371Y-98559670D02*
G01*
X144797371Y-98559670D01*
G75*
G02*
X145027138Y-98654843I29J-324930D01*
G01*
X145027140Y-98654840D01*
X145050847Y-98678541D01*
G75*
G02*
X145138300Y-98889668I-211147J-211159D01*
G01*
X145138290Y-98889670D01*
X145138290Y-98922560D01*
X145138300Y-98922564D01*
G75*
G02*
X145044827Y-99148221I-319100J-36D01*
G01*
X145044820Y-99148210D01*
X145041700Y-99151340D01*
X145027020Y-99166020D01*
X145027017Y-99166017D01*
G75*
G02*
X144802149Y-99259160I-224817J224817D01*
G01*
X144802150Y-99259160D01*
X143570200Y-99259540D01*
G75*
G02*
X143353613Y-99169827I0J306340D01*
G01*
X143353610Y-99169830D01*
X143345590Y-99161800D01*
X143343558Y-99159766D01*
G75*
G02*
X143237640Y-98904063I255742J255666D01*
G01*
X143237640Y-98904070D01*
X143237640Y-98904065D01*
G75*
G02*
X143334871Y-98669321I331960J-35D01*
G01*
X143334870Y-98669320D01*
X143355750Y-98648440D01*
X143356083Y-98648112D01*
G75*
G02*
X143566546Y-98560940I210417J-210488D01*
G01*
X143566540Y-98560940D01*
X144797370Y-98559670D01*
X144797371Y-98559670D01*
G37*
G36*
X144797371Y-95557390D02*
G01*
X144797371Y-95557390D01*
G75*
G02*
X145027138Y-95652563I29J-324910D01*
G01*
X145027140Y-95652560D01*
X145050840Y-95676260D01*
X145050847Y-95676261D01*
G75*
G02*
X145138300Y-95887388I-211147J-211139D01*
G01*
X145138290Y-95887390D01*
X145138290Y-95920280D01*
X145138300Y-95920284D01*
G75*
G02*
X145044827Y-96145941I-319100J-16D01*
G01*
X145044820Y-96145930D01*
X145041700Y-96149060D01*
X145027020Y-96163740D01*
X145027017Y-96163737D01*
G75*
G02*
X144802149Y-96256880I-224817J224837D01*
G01*
X144802150Y-96256880D01*
X143570200Y-96257260D01*
G75*
G02*
X143353613Y-96167547I0J306260D01*
G01*
X143353610Y-96167550D01*
X143345590Y-96159520D01*
X143343558Y-96157486D01*
G75*
G02*
X143237640Y-95901783I255742J255686D01*
G01*
X143237640Y-95901790D01*
X143237640Y-95901785D01*
G75*
G02*
X143334871Y-95667041I331960J-15D01*
G01*
X143334870Y-95667040D01*
X143355750Y-95646160D01*
X143356080Y-95645830D01*
X143356083Y-95645832D01*
G75*
G02*
X143566546Y-95558660I210417J-210468D01*
G01*
X143566540Y-95558660D01*
X144797370Y-95557390D01*
X144797371Y-95557390D01*
G37*
G36*
X142488670Y-96410250D02*
G01*
X142538400Y-96413980D01*
X142587880Y-96420180D01*
X142636980Y-96428840D01*
X142685590Y-96439910D01*
X142733600Y-96453430D01*
X142780840Y-96469300D01*
X142827270Y-96487510D01*
X142872710Y-96508040D01*
X142917090Y-96530770D01*
X142960270Y-96555710D01*
X143002150Y-96582760D01*
X143042640Y-96611870D01*
X143081630Y-96642960D01*
X143118990Y-96675960D01*
X143154710Y-96710750D01*
X143188610Y-96747300D01*
X143220670Y-96785510D01*
X143250770Y-96825260D01*
X143278860Y-96866460D01*
X143304840Y-96909000D01*
X143328700Y-96952790D01*
X143350340Y-96997720D01*
X143369690Y-97043670D01*
X143375410Y-97059320D01*
X143389120Y-97058990D01*
X144789120Y-97058990D01*
X144806570Y-97059420D01*
X144823970Y-97060710D01*
X144841290Y-97062900D01*
X144858460Y-97065920D01*
X144875480Y-97069810D01*
X144892290Y-97074530D01*
X144908830Y-97080090D01*
X144925090Y-97086470D01*
X144940990Y-97093660D01*
X144956510Y-97101610D01*
X144971620Y-97110350D01*
X144986300Y-97119800D01*
X145000450Y-97130010D01*
X145014110Y-97140880D01*
X145027190Y-97152430D01*
X145039690Y-97164600D01*
X145051550Y-97177400D01*
X145062780Y-97190760D01*
X145073320Y-97204680D01*
X145083150Y-97219110D01*
X145092240Y-97233990D01*
X145100570Y-97249310D01*
X145108170Y-97265030D01*
X145114920Y-97281140D01*
X145120890Y-97297520D01*
X145126050Y-97314210D01*
X145130370Y-97331120D01*
X145133820Y-97348220D01*
X145136410Y-97365490D01*
X145138140Y-97382840D01*
X145139030Y-97400260D01*
X145139030Y-97417740D01*
X145138140Y-97435160D01*
X145136410Y-97452510D01*
X145133820Y-97469780D01*
X145130370Y-97486880D01*
X145126050Y-97503790D01*
X145120890Y-97520480D01*
X145114920Y-97536860D01*
X145108170Y-97552970D01*
X145100570Y-97568690D01*
X145092240Y-97584010D01*
X145083150Y-97598890D01*
X145073320Y-97613320D01*
X145062780Y-97627240D01*
X145051550Y-97640600D01*
X145039690Y-97653400D01*
X145027190Y-97665560D01*
X145014110Y-97677120D01*
X145000450Y-97687990D01*
X144986300Y-97698200D01*
X144971620Y-97707650D01*
X144956510Y-97716390D01*
X144940990Y-97724340D01*
X144925090Y-97731530D01*
X144908830Y-97737900D01*
X144892290Y-97743470D01*
X144875480Y-97748190D01*
X144858460Y-97752080D01*
X144841290Y-97755100D01*
X144823970Y-97757280D01*
X144806570Y-97758580D01*
X144789120Y-97759010D01*
X143389120Y-97759010D01*
X143375410Y-97758680D01*
X143369690Y-97774330D01*
X143350340Y-97820280D01*
X143328700Y-97865210D01*
X143304840Y-97909000D01*
X143278860Y-97951540D01*
X143250770Y-97992740D01*
X143220670Y-98032490D01*
X143188610Y-98070690D01*
X143154710Y-98107250D01*
X143118990Y-98142040D01*
X143081630Y-98175040D01*
X143042640Y-98206130D01*
X143002150Y-98235240D01*
X142960270Y-98262290D01*
X142917090Y-98287230D01*
X142872710Y-98309960D01*
X142827270Y-98330490D01*
X142780840Y-98348700D01*
X142733600Y-98364570D01*
X142685590Y-98378090D01*
X142636980Y-98389160D01*
X142587880Y-98397820D01*
X142538400Y-98404020D01*
X142488670Y-98407750D01*
X142438830Y-98409000D01*
X140938830Y-98409000D01*
X140889000Y-98407750D01*
X140839270Y-98404020D01*
X140789790Y-98397820D01*
X140740690Y-98389160D01*
X140692070Y-98378090D01*
X140644070Y-98364570D01*
X140596820Y-98348700D01*
X140550390Y-98330490D01*
X140504950Y-98309960D01*
X140460580Y-98287230D01*
X140417400Y-98262290D01*
X140375510Y-98235240D01*
X140335030Y-98206130D01*
X140296040Y-98175040D01*
X140258670Y-98142040D01*
X140222960Y-98107250D01*
X140189050Y-98070690D01*
X140157000Y-98032490D01*
X140126900Y-97992740D01*
X140098810Y-97951540D01*
X140072820Y-97909000D01*
X140048970Y-97865210D01*
X140027330Y-97820280D01*
X140007980Y-97774330D01*
X139990910Y-97727490D01*
X139976200Y-97679840D01*
X139963910Y-97631530D01*
X139954030Y-97582660D01*
X139946610Y-97533330D01*
X139941630Y-97483730D01*
X139939140Y-97433940D01*
X139939140Y-97384060D01*
X139941630Y-97334270D01*
X139946610Y-97284670D01*
X139954030Y-97235340D01*
X139963910Y-97186470D01*
X139976200Y-97138160D01*
X139990910Y-97090510D01*
X140007980Y-97043670D01*
X140027330Y-96997720D01*
X140048970Y-96952790D01*
X140072820Y-96909000D01*
X140098810Y-96866460D01*
X140126900Y-96825260D01*
X140157000Y-96785510D01*
X140189050Y-96747300D01*
X140222960Y-96710750D01*
X140258670Y-96675960D01*
X140296040Y-96642960D01*
X140335030Y-96611870D01*
X140375510Y-96582760D01*
X140417400Y-96555710D01*
X140460580Y-96530770D01*
X140504950Y-96508040D01*
X140550390Y-96487510D01*
X140596820Y-96469300D01*
X140644070Y-96453430D01*
X140692070Y-96439910D01*
X140740690Y-96428840D01*
X140789790Y-96420180D01*
X140839270Y-96413980D01*
X140889000Y-96410250D01*
X140938830Y-96409000D01*
X142438830Y-96409000D01*
X142488670Y-96410250D01*
G37*
%TO.C,R1*%
G36*
X166910510Y-99383190D02*
G01*
X167240510Y-99383190D01*
X167240510Y-99013190D01*
X167468470Y-99013190D01*
X167518490Y-99063200D01*
X167518490Y-99863200D01*
X167468470Y-99913190D01*
X166668480Y-99913190D01*
X166618490Y-99863200D01*
X166618490Y-99063200D01*
X166668480Y-99013190D01*
X166910510Y-99013190D01*
X166910510Y-99383190D01*
G37*
G36*
X167518510Y-97473160D02*
G01*
X167518510Y-98273160D01*
X167468530Y-98323170D01*
X167226490Y-98323170D01*
X167226490Y-97953170D01*
X166896490Y-97953170D01*
X166896490Y-98323170D01*
X166668530Y-98323170D01*
X166618510Y-98273160D01*
X166618510Y-97473160D01*
X166668530Y-97423170D01*
X167468530Y-97423170D01*
X167518510Y-97473160D01*
G37*
%TO.C,R2*%
G36*
X156115510Y-108284010D02*
G01*
X156445510Y-108284010D01*
X156445510Y-107914010D01*
X156673470Y-107914010D01*
X156723490Y-107964020D01*
X156723490Y-108764020D01*
X156673470Y-108814010D01*
X155873480Y-108814010D01*
X155823490Y-108764020D01*
X155823490Y-107964020D01*
X155873480Y-107914010D01*
X156115510Y-107914010D01*
X156115510Y-108284010D01*
G37*
G36*
X156723510Y-106373980D02*
G01*
X156723510Y-107173980D01*
X156673530Y-107223990D01*
X156431490Y-107223990D01*
X156431490Y-106853990D01*
X156101490Y-106853990D01*
X156101490Y-107223990D01*
X155873530Y-107223990D01*
X155823510Y-107173980D01*
X155823510Y-106373980D01*
X155873530Y-106323990D01*
X156673530Y-106323990D01*
X156723510Y-106373980D01*
G37*
%TO.C,R3*%
G36*
X163708510Y-93729610D02*
G01*
X163708510Y-94529600D01*
X163658530Y-94579620D01*
X163416490Y-94579620D01*
X163416490Y-94209620D01*
X163086490Y-94209620D01*
X163086490Y-94579620D01*
X162858530Y-94579620D01*
X162808510Y-94529600D01*
X162808510Y-93729610D01*
X162858530Y-93679620D01*
X163658530Y-93679620D01*
X163708510Y-93729610D01*
G37*
G36*
X163100510Y-95639640D02*
G01*
X163430510Y-95639640D01*
X163430510Y-95269630D01*
X163658470Y-95269630D01*
X163708490Y-95319650D01*
X163708490Y-96119640D01*
X163658470Y-96169630D01*
X162858480Y-96169630D01*
X162808490Y-96119640D01*
X162808490Y-95319650D01*
X162858480Y-95269630D01*
X163100510Y-95269630D01*
X163100510Y-95639640D01*
G37*
%TO.C,R4*%
G36*
X154818510Y-93673980D02*
G01*
X154818510Y-94473980D01*
X154768530Y-94523990D01*
X154526490Y-94523990D01*
X154526490Y-94153990D01*
X154196490Y-94153990D01*
X154196490Y-94523990D01*
X153968530Y-94523990D01*
X153918510Y-94473980D01*
X153918510Y-93673980D01*
X153968530Y-93623990D01*
X154768530Y-93623990D01*
X154818510Y-93673980D01*
G37*
G36*
X154210510Y-95584010D02*
G01*
X154540510Y-95584010D01*
X154540510Y-95214010D01*
X154768470Y-95214010D01*
X154818490Y-95264020D01*
X154818490Y-96064020D01*
X154768470Y-96114010D01*
X153968480Y-96114010D01*
X153918490Y-96064020D01*
X153918490Y-95264020D01*
X153968480Y-95214010D01*
X154210510Y-95214010D01*
X154210510Y-95584010D01*
G37*
%TO.C,R5*%
G36*
X152305510Y-95584010D02*
G01*
X152635510Y-95584010D01*
X152635510Y-95214010D01*
X152863470Y-95214010D01*
X152913490Y-95264020D01*
X152913490Y-96064020D01*
X152863470Y-96114010D01*
X152063480Y-96114010D01*
X152013490Y-96064020D01*
X152013490Y-95264020D01*
X152063480Y-95214010D01*
X152305510Y-95214010D01*
X152305510Y-95584010D01*
G37*
G36*
X152913510Y-93673980D02*
G01*
X152913510Y-94473980D01*
X152863530Y-94523990D01*
X152621490Y-94523990D01*
X152621490Y-94153990D01*
X152291490Y-94153990D01*
X152291490Y-94523990D01*
X152063530Y-94523990D01*
X152013510Y-94473980D01*
X152013510Y-93673980D01*
X152063530Y-93623990D01*
X152863530Y-93623990D01*
X152913510Y-93673980D01*
G37*
%TO.C,R6*%
G36*
X156723510Y-93673980D02*
G01*
X156723510Y-94473980D01*
X156673530Y-94523990D01*
X156431490Y-94523990D01*
X156431490Y-94153990D01*
X156101490Y-94153990D01*
X156101490Y-94523990D01*
X155873530Y-94523990D01*
X155823510Y-94473980D01*
X155823510Y-93673980D01*
X155873530Y-93623990D01*
X156673530Y-93623990D01*
X156723510Y-93673980D01*
G37*
G36*
X156115510Y-95584010D02*
G01*
X156445510Y-95584010D01*
X156445510Y-95214010D01*
X156673470Y-95214010D01*
X156723490Y-95264020D01*
X156723490Y-96064020D01*
X156673470Y-96114010D01*
X155873480Y-96114010D01*
X155823490Y-96064020D01*
X155823490Y-95264020D01*
X155873480Y-95214010D01*
X156115510Y-95214010D01*
X156115510Y-95584010D01*
G37*
%TO.C,R7*%
G36*
X150400510Y-95584010D02*
G01*
X150730510Y-95584010D01*
X150730510Y-95214010D01*
X150958470Y-95214010D01*
X151008490Y-95264020D01*
X151008490Y-96064020D01*
X150958470Y-96114010D01*
X150158480Y-96114010D01*
X150108490Y-96064020D01*
X150108490Y-95264020D01*
X150158480Y-95214010D01*
X150400510Y-95214010D01*
X150400510Y-95584010D01*
G37*
G36*
X151008510Y-93673980D02*
G01*
X151008510Y-94473980D01*
X150958530Y-94523990D01*
X150716490Y-94523990D01*
X150716490Y-94153990D01*
X150386490Y-94153990D01*
X150386490Y-94523990D01*
X150158530Y-94523990D01*
X150108510Y-94473980D01*
X150108510Y-93673980D01*
X150158530Y-93623990D01*
X150958530Y-93623990D01*
X151008510Y-93673980D01*
G37*
%TO.C,R8*%
G36*
X142711730Y-100818970D02*
G01*
X142711730Y-101061010D01*
X142341730Y-101061010D01*
X142341730Y-101391010D01*
X142711730Y-101391010D01*
X142711730Y-101618970D01*
X142661720Y-101668990D01*
X141861720Y-101668990D01*
X141811730Y-101618970D01*
X141811730Y-100818970D01*
X141861720Y-100768990D01*
X142661720Y-100768990D01*
X142711730Y-100818970D01*
G37*
G36*
X144301740Y-100819030D02*
G01*
X144301740Y-101619020D01*
X144251760Y-101669010D01*
X143451760Y-101669010D01*
X143401750Y-101619020D01*
X143401750Y-101376990D01*
X143771750Y-101376990D01*
X143771750Y-101046990D01*
X143401750Y-101046990D01*
X143401750Y-100819030D01*
X143451760Y-100769010D01*
X144251760Y-100769010D01*
X144301740Y-100819030D01*
G37*
%TO.C,R9*%
G36*
X148495510Y-95584010D02*
G01*
X148825510Y-95584010D01*
X148825510Y-95214010D01*
X149053470Y-95214010D01*
X149103490Y-95264020D01*
X149103490Y-96064020D01*
X149053470Y-96114010D01*
X148253480Y-96114010D01*
X148203490Y-96064020D01*
X148203490Y-95264020D01*
X148253480Y-95214010D01*
X148495510Y-95214010D01*
X148495510Y-95584010D01*
G37*
G36*
X149103510Y-93673980D02*
G01*
X149103510Y-94473980D01*
X149053530Y-94523990D01*
X148811490Y-94523990D01*
X148811490Y-94153990D01*
X148481490Y-94153990D01*
X148481490Y-94523990D01*
X148253530Y-94523990D01*
X148203510Y-94473980D01*
X148203510Y-93673980D01*
X148253530Y-93623990D01*
X149053530Y-93623990D01*
X149103510Y-93673980D01*
G37*
%TO.C,R10*%
G36*
X146590510Y-95584010D02*
G01*
X146920510Y-95584010D01*
X146920510Y-95214010D01*
X147148470Y-95214010D01*
X147198490Y-95264020D01*
X147198490Y-96064020D01*
X147148470Y-96114010D01*
X146348480Y-96114010D01*
X146298490Y-96064020D01*
X146298490Y-95264020D01*
X146348480Y-95214010D01*
X146590510Y-95214010D01*
X146590510Y-95584010D01*
G37*
G36*
X147198510Y-93673980D02*
G01*
X147198510Y-94473980D01*
X147148530Y-94523990D01*
X146906490Y-94523990D01*
X146906490Y-94153990D01*
X146576490Y-94153990D01*
X146576490Y-94523990D01*
X146348530Y-94523990D01*
X146298510Y-94473980D01*
X146298510Y-93673980D01*
X146348530Y-93623990D01*
X147148530Y-93623990D01*
X147198510Y-93673980D01*
G37*
%TO.C,U2*%
G36*
X163583440Y-105013810D02*
G01*
X162833430Y-105013810D01*
X162833430Y-104733800D01*
X163583440Y-104733800D01*
X163583440Y-105013810D01*
G37*
G36*
X163583440Y-104513940D02*
G01*
X162833430Y-104513940D01*
X162833430Y-104233930D01*
X163583440Y-104233930D01*
X163583440Y-104513940D01*
G37*
G36*
X163583440Y-104013810D02*
G01*
X162833430Y-104013810D01*
X162833430Y-103733800D01*
X163583440Y-103733800D01*
X163583440Y-104013810D01*
G37*
G36*
X163583440Y-103513940D02*
G01*
X162833430Y-103513940D01*
X162833430Y-103233930D01*
X163583440Y-103233930D01*
X163583440Y-103513940D01*
G37*
G36*
X163583440Y-103013810D02*
G01*
X162833430Y-103013810D01*
X162833430Y-102733800D01*
X163583440Y-102733800D01*
X163583440Y-103013810D01*
G37*
G36*
X163583440Y-102513940D02*
G01*
X162833430Y-102513940D01*
X162833430Y-102233930D01*
X163583440Y-102233930D01*
X163583440Y-102513940D01*
G37*
G36*
X163583440Y-102013820D02*
G01*
X162833430Y-102013820D01*
X162833430Y-101733810D01*
X163583440Y-101733810D01*
X163583440Y-102013820D01*
G37*
G36*
X163583440Y-101513940D02*
G01*
X162833430Y-101513940D01*
X162833430Y-101233930D01*
X163583440Y-101233930D01*
X163583440Y-101513940D01*
G37*
G36*
X158603520Y-105013810D02*
G01*
X157853510Y-105013810D01*
X157853510Y-104733800D01*
X158603520Y-104733800D01*
X158603520Y-105013810D01*
G37*
G36*
X158603520Y-104513940D02*
G01*
X157853510Y-104513940D01*
X157853510Y-104233930D01*
X158603520Y-104233930D01*
X158603520Y-104513940D01*
G37*
G36*
X158603520Y-104013810D02*
G01*
X157853510Y-104013810D01*
X157853510Y-103733800D01*
X158603520Y-103733800D01*
X158603520Y-104013810D01*
G37*
G36*
X158603520Y-103513940D02*
G01*
X157853510Y-103513940D01*
X157853510Y-103233930D01*
X158603520Y-103233930D01*
X158603520Y-103513940D01*
G37*
G36*
X158603520Y-103013810D02*
G01*
X157853510Y-103013810D01*
X157853510Y-102733800D01*
X158603520Y-102733800D01*
X158603520Y-103013810D01*
G37*
G36*
X158603520Y-102513940D02*
G01*
X157853510Y-102513940D01*
X157853510Y-102233930D01*
X158603520Y-102233930D01*
X158603520Y-102513940D01*
G37*
G36*
X158603520Y-102013820D02*
G01*
X157853510Y-102013820D01*
X157853510Y-101733810D01*
X158603520Y-101733810D01*
X158603520Y-102013820D01*
G37*
G36*
X158603520Y-101513940D02*
G01*
X157853510Y-101513940D01*
X157853510Y-101233930D01*
X158603520Y-101233930D01*
X158603520Y-101513940D01*
G37*
G36*
X159108700Y-105988940D02*
G01*
X158828690Y-105988940D01*
X158828690Y-105238930D01*
X159108700Y-105238930D01*
X159108700Y-105988940D01*
G37*
G36*
X159608570Y-105988940D02*
G01*
X159328560Y-105988940D01*
X159328560Y-105238930D01*
X159608570Y-105238930D01*
X159608570Y-105988940D01*
G37*
G36*
X160108700Y-105988940D02*
G01*
X159828690Y-105988940D01*
X159828690Y-105238930D01*
X160108700Y-105238930D01*
X160108700Y-105988940D01*
G37*
G36*
X160608570Y-105988940D02*
G01*
X160328560Y-105988940D01*
X160328560Y-105238930D01*
X160608570Y-105238930D01*
X160608570Y-105988940D01*
G37*
G36*
X161108700Y-105988940D02*
G01*
X160828690Y-105988940D01*
X160828690Y-105238930D01*
X161108700Y-105238930D01*
X161108700Y-105988940D01*
G37*
G36*
X161608570Y-105988940D02*
G01*
X161328560Y-105988940D01*
X161328560Y-105238930D01*
X161608570Y-105238930D01*
X161608570Y-105988940D01*
G37*
G36*
X162108690Y-105988940D02*
G01*
X161828680Y-105988940D01*
X161828680Y-105238930D01*
X162108690Y-105238930D01*
X162108690Y-105988940D01*
G37*
G36*
X162608570Y-105988940D02*
G01*
X162328560Y-105988940D01*
X162328560Y-105238930D01*
X162608570Y-105238930D01*
X162608570Y-105988940D01*
G37*
G36*
X159108700Y-101009020D02*
G01*
X158828690Y-101009020D01*
X158828690Y-100259010D01*
X159108700Y-100259010D01*
X159108700Y-101009020D01*
G37*
G36*
X159608570Y-101009020D02*
G01*
X159328560Y-101009020D01*
X159328560Y-100259010D01*
X159608570Y-100259010D01*
X159608570Y-101009020D01*
G37*
G36*
X160108700Y-101009020D02*
G01*
X159828690Y-101009020D01*
X159828690Y-100259010D01*
X160108700Y-100259010D01*
X160108700Y-101009020D01*
G37*
G36*
X160608570Y-101009020D02*
G01*
X160328560Y-101009020D01*
X160328560Y-100259010D01*
X160608570Y-100259010D01*
X160608570Y-101009020D01*
G37*
G36*
X161108700Y-101009020D02*
G01*
X160828690Y-101009020D01*
X160828690Y-100259010D01*
X161108700Y-100259010D01*
X161108700Y-101009020D01*
G37*
G36*
X161608570Y-101009020D02*
G01*
X161328560Y-101009020D01*
X161328560Y-100259010D01*
X161608570Y-100259010D01*
X161608570Y-101009020D01*
G37*
G36*
X162108690Y-101009020D02*
G01*
X161828680Y-101009020D01*
X161828680Y-100259010D01*
X162108690Y-100259010D01*
X162108690Y-101009020D01*
G37*
G36*
X162608570Y-101009020D02*
G01*
X162328560Y-101009020D01*
X162328560Y-100259010D01*
X162608570Y-100259010D01*
X162608570Y-101009020D01*
G37*
G36*
X162098430Y-104503930D02*
G01*
X159338570Y-104503930D01*
X159338570Y-101744070D01*
X162098430Y-101744070D01*
X162098430Y-104503930D01*
G37*
%TD*%
D11*
%TO.C,C1*%
X155003500Y-115253900D03*
X155003500Y-113854100D03*
%TD*%
%TO.C,C2*%
X152463500Y-115253900D03*
X152463500Y-113854100D03*
%TD*%
%TO.C,C3*%
X149855200Y-115253900D03*
X149855200Y-113854100D03*
%TD*%
D12*
%TO.C,C4*%
X158113600Y-110744000D03*
X159513400Y-110744000D03*
%TD*%
%TO.C,C5*%
X158113600Y-108204000D03*
X159513400Y-108204000D03*
%TD*%
%TO.C,C6*%
X164593400Y-98043920D03*
X163193600Y-98043920D03*
%TD*%
D11*
%TO.C,C7*%
X165163500Y-95568900D03*
X165163500Y-94169100D03*
%TD*%
D12*
%TO.C,C8*%
X159383600Y-95548880D03*
X160783400Y-95548880D03*
%TD*%
%TO.C,C9*%
X159383600Y-98044000D03*
X160783400Y-98044000D03*
%TD*%
D11*
%TO.C,C10*%
X137858500Y-105728900D03*
X137858500Y-104329100D03*
%TD*%
%TO.C,C11*%
X144208500Y-104329100D03*
X144208500Y-105728900D03*
%TD*%
%TO.C,C12*%
X137858500Y-115888900D03*
X137858500Y-114489100D03*
%TD*%
%TO.C,C13*%
X144208500Y-114489100D03*
X144208500Y-115888900D03*
%TD*%
%TO.C,C14*%
X144208500Y-110808900D03*
X144208500Y-109409100D03*
%TD*%
%TO.C,C15*%
X137858500Y-110808900D03*
X137858500Y-109409100D03*
%TD*%
D12*
%TO.C,C23*%
X149353400Y-104394000D03*
X147953600Y-104394000D03*
%TD*%
%TO.C,C24*%
X149353400Y-106934000D03*
X147953600Y-106934000D03*
%TD*%
D11*
%TO.C,C25*%
X128333500Y-97979100D03*
X128333500Y-99378900D03*
%TD*%
%TO.C,C26*%
X138493500Y-97979100D03*
X138493500Y-99378900D03*
%TD*%
D13*
%TO.C,D2*%
X131603500Y-103759000D03*
X127603500Y-103759000D03*
%TD*%
D14*
%TO.C,D3*%
X136513550Y-97428990D03*
X136513550Y-99929010D03*
X130313560Y-99928980D03*
X130313560Y-97428960D03*
%TD*%
D15*
%TO.C,U1*%
X153098500Y-109474000D03*
X152598500Y-109474000D03*
X152098480Y-109474000D03*
X151598480Y-109474000D03*
D16*
X151473460Y-110098940D03*
X151473460Y-110598970D03*
D15*
X151598480Y-111223910D03*
X152098480Y-111223910D03*
X152598500Y-111223910D03*
X153098500Y-111223910D03*
D16*
X153223520Y-110598970D03*
X153223520Y-110098940D03*
%TD*%
D17*
%TO.C,U3*%
X140083520Y-106328870D03*
X141033480Y-106328920D03*
X141983440Y-106328970D03*
X141983590Y-103728980D03*
X140083670Y-103728880D03*
%TD*%
D18*
%TO.C,U4*%
X140083490Y-108988780D03*
X141983490Y-108988780D03*
X140083570Y-111188930D03*
X141983410Y-111188960D03*
X141033500Y-111188960D03*
%TD*%
%TO.C,U5*%
X141983510Y-116289100D03*
X140083520Y-116289100D03*
X141983440Y-114088950D03*
X140083590Y-114088930D03*
X141033500Y-114088930D03*
%TD*%
D19*
%TO.C,U7*%
X147853400Y-98044000D03*
X147853400Y-99314000D03*
X147853400Y-100584000D03*
X147853400Y-101854000D03*
X153263600Y-98044000D03*
X153263600Y-99314000D03*
X153263600Y-100584000D03*
X153263600Y-101854000D03*
%TD*%
M02*
