%TF.GenerationSoftware,KiCad,Pcbnew,8.0.7*%
%TF.CreationDate,2025-01-03T22:16:04+08:00*%
%TF.ProjectId,remote_fingers_ESP8266,72656d6f-7465-45f6-9669-6e676572735f,rev?*%
%TF.SameCoordinates,Original*%
%TF.FileFunction,Drillmap*%
%TF.FilePolarity,Positive*%
%FSLAX45Y45*%
G04 Gerber Fmt 4.5, Leading zero omitted, Abs format (unit mm)*
G04 Created by KiCad (PCBNEW 8.0.7) date 2025-01-03 22:16:04*
%MOMM*%
%LPD*%
G01*
G04 APERTURE LIST*
%ADD10C,0.200000*%
G04 APERTURE END LIST*
D10*
X7400000Y-11900000D02*
G75*
G02*
X7100000Y-11600000I0J300000D01*
G01*
X10500000Y-11600000D02*
G75*
G02*
X10200000Y-11900000I-300000J0D01*
G01*
X7100000Y-8350000D02*
G75*
G02*
X7400000Y-8050000I300000J0D01*
G01*
X10200000Y-8050000D02*
G75*
G02*
X10500000Y-8350000I0J-300000D01*
G01*
X7100000Y-11600000D02*
X7100000Y-8350000D01*
X10200000Y-11900000D02*
X7400000Y-11900000D01*
X10500000Y-8350000D02*
X10500000Y-11600000D01*
X7400000Y-8050000D02*
X10200000Y-8050000D01*
X7350777Y-12221484D02*
X7350777Y-12021484D01*
X7350777Y-12021484D02*
X7398396Y-12021484D01*
X7398396Y-12021484D02*
X7426967Y-12031008D01*
X7426967Y-12031008D02*
X7446015Y-12050055D01*
X7446015Y-12050055D02*
X7455539Y-12069103D01*
X7455539Y-12069103D02*
X7465062Y-12107198D01*
X7465062Y-12107198D02*
X7465062Y-12135769D01*
X7465062Y-12135769D02*
X7455539Y-12173865D01*
X7455539Y-12173865D02*
X7446015Y-12192912D01*
X7446015Y-12192912D02*
X7426967Y-12211960D01*
X7426967Y-12211960D02*
X7398396Y-12221484D01*
X7398396Y-12221484D02*
X7350777Y-12221484D01*
X7550777Y-12221484D02*
X7550777Y-12088150D01*
X7550777Y-12126246D02*
X7560301Y-12107198D01*
X7560301Y-12107198D02*
X7569824Y-12097674D01*
X7569824Y-12097674D02*
X7588872Y-12088150D01*
X7588872Y-12088150D02*
X7607920Y-12088150D01*
X7674586Y-12221484D02*
X7674586Y-12088150D01*
X7674586Y-12021484D02*
X7665062Y-12031008D01*
X7665062Y-12031008D02*
X7674586Y-12040531D01*
X7674586Y-12040531D02*
X7684110Y-12031008D01*
X7684110Y-12031008D02*
X7674586Y-12021484D01*
X7674586Y-12021484D02*
X7674586Y-12040531D01*
X7798396Y-12221484D02*
X7779348Y-12211960D01*
X7779348Y-12211960D02*
X7769824Y-12192912D01*
X7769824Y-12192912D02*
X7769824Y-12021484D01*
X7903158Y-12221484D02*
X7884110Y-12211960D01*
X7884110Y-12211960D02*
X7874586Y-12192912D01*
X7874586Y-12192912D02*
X7874586Y-12021484D01*
X8131729Y-12221484D02*
X8131729Y-12021484D01*
X8131729Y-12021484D02*
X8198396Y-12164341D01*
X8198396Y-12164341D02*
X8265062Y-12021484D01*
X8265062Y-12021484D02*
X8265062Y-12221484D01*
X8446015Y-12221484D02*
X8446015Y-12116722D01*
X8446015Y-12116722D02*
X8436491Y-12097674D01*
X8436491Y-12097674D02*
X8417444Y-12088150D01*
X8417444Y-12088150D02*
X8379348Y-12088150D01*
X8379348Y-12088150D02*
X8360301Y-12097674D01*
X8446015Y-12211960D02*
X8426967Y-12221484D01*
X8426967Y-12221484D02*
X8379348Y-12221484D01*
X8379348Y-12221484D02*
X8360301Y-12211960D01*
X8360301Y-12211960D02*
X8350777Y-12192912D01*
X8350777Y-12192912D02*
X8350777Y-12173865D01*
X8350777Y-12173865D02*
X8360301Y-12154817D01*
X8360301Y-12154817D02*
X8379348Y-12145293D01*
X8379348Y-12145293D02*
X8426967Y-12145293D01*
X8426967Y-12145293D02*
X8446015Y-12135769D01*
X8541253Y-12088150D02*
X8541253Y-12288150D01*
X8541253Y-12097674D02*
X8560301Y-12088150D01*
X8560301Y-12088150D02*
X8598396Y-12088150D01*
X8598396Y-12088150D02*
X8617444Y-12097674D01*
X8617444Y-12097674D02*
X8626967Y-12107198D01*
X8626967Y-12107198D02*
X8636491Y-12126246D01*
X8636491Y-12126246D02*
X8636491Y-12183388D01*
X8636491Y-12183388D02*
X8626967Y-12202436D01*
X8626967Y-12202436D02*
X8617444Y-12211960D01*
X8617444Y-12211960D02*
X8598396Y-12221484D01*
X8598396Y-12221484D02*
X8560301Y-12221484D01*
X8560301Y-12221484D02*
X8541253Y-12211960D01*
X8722205Y-12202436D02*
X8731729Y-12211960D01*
X8731729Y-12211960D02*
X8722205Y-12221484D01*
X8722205Y-12221484D02*
X8712682Y-12211960D01*
X8712682Y-12211960D02*
X8722205Y-12202436D01*
X8722205Y-12202436D02*
X8722205Y-12221484D01*
X8722205Y-12097674D02*
X8731729Y-12107198D01*
X8731729Y-12107198D02*
X8722205Y-12116722D01*
X8722205Y-12116722D02*
X8712682Y-12107198D01*
X8712682Y-12107198D02*
X8722205Y-12097674D01*
X8722205Y-12097674D02*
X8722205Y-12116722D01*
M02*
