%TF.GenerationSoftware,KiCad,Pcbnew,8.0.5*%
%TF.CreationDate,2024-10-31T21:46:15+08:00*%
%TF.ProjectId,B626_VIN3.7V_VOUT16.5V_IO0.9A,42363236-5f56-4494-9e33-2e37565f564f,rev?*%
%TF.SameCoordinates,Original*%
%TF.FileFunction,Copper,L1,Top*%
%TF.FilePolarity,Positive*%
%FSLAX46Y46*%
G04 Gerber Fmt 4.6, Leading zero omitted, Abs format (unit mm)*
G04 Created by KiCad (PCBNEW 8.0.5) date 2024-10-31 21:46:15*
%MOMM*%
%LPD*%
G01*
G04 APERTURE LIST*
%TA.AperFunction,ComponentPad*%
%ADD10R,2.600000X2.600000*%
%TD*%
%TA.AperFunction,ComponentPad*%
%ADD11C,2.600000*%
%TD*%
%TA.AperFunction,ComponentPad*%
%ADD12R,1.600000X1.600000*%
%TD*%
%TA.AperFunction,ComponentPad*%
%ADD13C,1.600000*%
%TD*%
%TA.AperFunction,ComponentPad*%
%ADD14O,1.600000X1.600000*%
%TD*%
%TA.AperFunction,ComponentPad*%
%ADD15C,6.000000*%
%TD*%
%TA.AperFunction,ViaPad*%
%ADD16C,0.500000*%
%TD*%
%TA.AperFunction,Conductor*%
%ADD17C,1.500000*%
%TD*%
%TA.AperFunction,Conductor*%
%ADD18C,0.500000*%
%TD*%
G04 APERTURE END LIST*
D10*
%TO.P,H2,1*%
%TO.N,VIN*%
X102000000Y-112000000D03*
D11*
%TO.P,H2,2*%
%TO.N,GND*%
X102000000Y-117000000D03*
%TD*%
D12*
%TO.P,C1,1*%
%TO.N,VIN*%
X111500000Y-112500000D03*
D13*
%TO.P,C1,2*%
%TO.N,GND*%
X111500000Y-116000000D03*
%TD*%
D10*
%TO.P,H5,1*%
%TO.N,GND*%
X130040000Y-132920000D03*
D11*
%TO.P,H5,2*%
%TO.N,VOUT*%
X135040000Y-132920000D03*
%TD*%
D13*
%TO.P,R3,1*%
%TO.N,Net-(U2-FB)*%
X127000000Y-117000000D03*
D14*
%TO.P,R3,2*%
%TO.N,GND*%
X127000000Y-119540000D03*
%TD*%
D13*
%TO.P,C6,1*%
%TO.N,VIN*%
X115500000Y-121500000D03*
%TO.P,C6,2*%
%TO.N,GND*%
X120500000Y-121500000D03*
%TD*%
%TO.P,C5,1*%
%TO.N,Net-(U3-K)*%
X111000000Y-122000000D03*
%TO.P,C5,2*%
%TO.N,GND*%
X106000000Y-122000000D03*
%TD*%
%TO.P,C2,1*%
%TO.N,VIN*%
X118500000Y-111500000D03*
%TO.P,C2,2*%
%TO.N,GND*%
X118500000Y-116500000D03*
%TD*%
%TO.P,C7,1*%
%TO.N,VOUT*%
X135500000Y-116000000D03*
%TO.P,C7,2*%
%TO.N,GND*%
X130500000Y-116000000D03*
%TD*%
%TO.P,C8,1*%
%TO.N,VOUT*%
X135500000Y-121000000D03*
%TO.P,C8,2*%
%TO.N,GND*%
X130500000Y-121000000D03*
%TD*%
%TO.P,R1,1*%
%TO.N,VOUT*%
X124000000Y-122500000D03*
D14*
%TO.P,R1,2*%
%TO.N,Net-(U3-K)*%
X124000000Y-125040000D03*
%TD*%
D13*
%TO.P,C12,1*%
%TO.N,VOUT*%
X135500000Y-126000000D03*
%TO.P,C12,2*%
%TO.N,GND*%
X130500000Y-126000000D03*
%TD*%
D15*
%TO.P,H1,1,1*%
%TO.N,GND*%
X105000000Y-105000000D03*
%TD*%
D13*
%TO.P,R4,1*%
%TO.N,Net-(U3-K)*%
X111000000Y-126000000D03*
D14*
%TO.P,R4,2*%
%TO.N,Net-(U3-REF)*%
X111000000Y-128540000D03*
%TD*%
D13*
%TO.P,R2,1*%
%TO.N,Net-(U2-FB)*%
X124000000Y-117000000D03*
D14*
%TO.P,R2,2*%
%TO.N,VOUT*%
X124000000Y-119540000D03*
%TD*%
D13*
%TO.P,R5,1*%
%TO.N,Net-(U3-REF)*%
X111000000Y-132000000D03*
D14*
%TO.P,R5,2*%
%TO.N,GND*%
X111000000Y-134540000D03*
%TD*%
D16*
%TO.N,GND*%
X120350000Y-136100000D03*
X132500000Y-110700000D03*
X137900000Y-126160000D03*
X112800000Y-132600000D03*
X137900000Y-118540000D03*
X112730000Y-136100000D03*
X98600000Y-108010000D03*
X125500000Y-115500000D03*
X98600000Y-130870000D03*
X120000000Y-100900000D03*
X117500000Y-130300000D03*
X118500000Y-126500000D03*
X137900000Y-129970000D03*
X124000000Y-126800000D03*
X101300000Y-136100000D03*
X135590000Y-136100000D03*
X123100000Y-131700000D03*
X113800000Y-129500000D03*
X116540000Y-136100000D03*
X118500000Y-129200000D03*
X116500000Y-107600000D03*
X108920000Y-136100000D03*
X117000000Y-128000000D03*
X98600000Y-104200000D03*
X122100000Y-114500000D03*
X112530000Y-101800000D03*
X98600000Y-127060000D03*
X124160000Y-136100000D03*
X137900000Y-110920000D03*
X126500000Y-121800000D03*
X101100000Y-101800000D03*
X98600000Y-123250000D03*
X137900000Y-107110000D03*
X131900000Y-100800000D03*
X108720000Y-101800000D03*
X98600000Y-115630000D03*
X98600000Y-111820000D03*
X116340000Y-101800000D03*
X137900000Y-103300000D03*
X105110000Y-136100000D03*
X137900000Y-133780000D03*
X109100000Y-129500000D03*
X98600000Y-119440000D03*
X137900000Y-122350000D03*
X137900000Y-114730000D03*
X98600000Y-134680000D03*
%TD*%
D17*
%TO.N,VIN*%
X118500000Y-111460000D02*
X115460000Y-114500000D01*
X115460000Y-114500000D02*
X115460000Y-121500000D01*
D18*
%TO.N,GND*%
X118500000Y-129200000D02*
X118500000Y-126500000D01*
X118500000Y-123540000D02*
X120540000Y-121500000D01*
X118500000Y-125200000D02*
X118500000Y-123540000D01*
X118500000Y-129250000D02*
X118500000Y-129200000D01*
X118500000Y-126500000D02*
X118500000Y-125200000D01*
D17*
X111500000Y-116000000D02*
X105000000Y-109500000D01*
X105000000Y-109500000D02*
X105000000Y-105000000D01*
%TD*%
%TA.AperFunction,Conductor*%
%TO.N,GND*%
G36*
X135002702Y-100200617D02*
G01*
X135412917Y-100218528D01*
X135423654Y-100219468D01*
X135828057Y-100272708D01*
X135838695Y-100274583D01*
X136236925Y-100362869D01*
X136247365Y-100365667D01*
X136636363Y-100488317D01*
X136646524Y-100492015D01*
X137023363Y-100648108D01*
X137033155Y-100652674D01*
X137394965Y-100841020D01*
X137404305Y-100846413D01*
X137689636Y-101028189D01*
X137748309Y-101065568D01*
X137757170Y-101071772D01*
X138080766Y-101320076D01*
X138089053Y-101327030D01*
X138389767Y-101602583D01*
X138397416Y-101610232D01*
X138672969Y-101910946D01*
X138679923Y-101919233D01*
X138928227Y-102242829D01*
X138934431Y-102251690D01*
X139153578Y-102595680D01*
X139158987Y-102605048D01*
X139347322Y-102966838D01*
X139351894Y-102976642D01*
X139507983Y-103353473D01*
X139511683Y-103363639D01*
X139634331Y-103752630D01*
X139637131Y-103763078D01*
X139725414Y-104161296D01*
X139727292Y-104171950D01*
X139780529Y-104576326D01*
X139781472Y-104587102D01*
X139799382Y-104997297D01*
X139799500Y-105002706D01*
X139799500Y-132997293D01*
X139799382Y-133002702D01*
X139781472Y-133412897D01*
X139780529Y-133423673D01*
X139727292Y-133828049D01*
X139725414Y-133838703D01*
X139637131Y-134236921D01*
X139634331Y-134247369D01*
X139511683Y-134636360D01*
X139507983Y-134646526D01*
X139351894Y-135023357D01*
X139347322Y-135033161D01*
X139158987Y-135394951D01*
X139153578Y-135404319D01*
X138934431Y-135748309D01*
X138928227Y-135757170D01*
X138679923Y-136080766D01*
X138672969Y-136089053D01*
X138397416Y-136389767D01*
X138389767Y-136397416D01*
X138089053Y-136672969D01*
X138080766Y-136679923D01*
X137757170Y-136928227D01*
X137748309Y-136934431D01*
X137404319Y-137153578D01*
X137394951Y-137158987D01*
X137033161Y-137347322D01*
X137023357Y-137351894D01*
X136646526Y-137507983D01*
X136636360Y-137511683D01*
X136247369Y-137634331D01*
X136236921Y-137637131D01*
X135838703Y-137725414D01*
X135828049Y-137727292D01*
X135423673Y-137780529D01*
X135412897Y-137781472D01*
X135002703Y-137799382D01*
X134997294Y-137799500D01*
X102002706Y-137799500D01*
X101997297Y-137799382D01*
X101587102Y-137781472D01*
X101576326Y-137780529D01*
X101171950Y-137727292D01*
X101161296Y-137725414D01*
X100763078Y-137637131D01*
X100752630Y-137634331D01*
X100363639Y-137511683D01*
X100353473Y-137507983D01*
X99976642Y-137351894D01*
X99966838Y-137347322D01*
X99847126Y-137285004D01*
X99605042Y-137158983D01*
X99595686Y-137153582D01*
X99423685Y-137044004D01*
X99251690Y-136934431D01*
X99242829Y-136928227D01*
X98919233Y-136679923D01*
X98910946Y-136672969D01*
X98610232Y-136397416D01*
X98602583Y-136389767D01*
X98327030Y-136089053D01*
X98320076Y-136080766D01*
X98071772Y-135757170D01*
X98065568Y-135748309D01*
X98012070Y-135664334D01*
X97846413Y-135404305D01*
X97841020Y-135394965D01*
X97652674Y-135033155D01*
X97648105Y-135023357D01*
X97492016Y-134646526D01*
X97488316Y-134636360D01*
X97483315Y-134620500D01*
X97365667Y-134247365D01*
X97362868Y-134236921D01*
X97274583Y-133838695D01*
X97272707Y-133828049D01*
X97219468Y-133423654D01*
X97218528Y-133412917D01*
X97200618Y-133002702D01*
X97200500Y-132997293D01*
X97200500Y-131999999D01*
X109794357Y-131999999D01*
X109794357Y-132000000D01*
X109814884Y-132221535D01*
X109814885Y-132221537D01*
X109875769Y-132435523D01*
X109875775Y-132435538D01*
X109974938Y-132634683D01*
X109974943Y-132634691D01*
X110109020Y-132812238D01*
X110273437Y-132962123D01*
X110273439Y-132962125D01*
X110462595Y-133079245D01*
X110462596Y-133079245D01*
X110462599Y-133079247D01*
X110670060Y-133159618D01*
X110888757Y-133200500D01*
X110888759Y-133200500D01*
X111111241Y-133200500D01*
X111111243Y-133200500D01*
X111329940Y-133159618D01*
X111537401Y-133079247D01*
X111726562Y-132962124D01*
X111772775Y-132919995D01*
X133334732Y-132919995D01*
X133334732Y-132920004D01*
X133353777Y-133174154D01*
X133363121Y-133215094D01*
X133410492Y-133422637D01*
X133503607Y-133659888D01*
X133631041Y-133880612D01*
X133789950Y-134079877D01*
X133976783Y-134253232D01*
X134187366Y-134396805D01*
X134187371Y-134396807D01*
X134187372Y-134396808D01*
X134187373Y-134396809D01*
X134309328Y-134455538D01*
X134416992Y-134507387D01*
X134416993Y-134507387D01*
X134416996Y-134507389D01*
X134660542Y-134582513D01*
X134912565Y-134620500D01*
X135167435Y-134620500D01*
X135419458Y-134582513D01*
X135663004Y-134507389D01*
X135892634Y-134396805D01*
X136103217Y-134253232D01*
X136290050Y-134079877D01*
X136448959Y-133880612D01*
X136576393Y-133659888D01*
X136669508Y-133422637D01*
X136726222Y-133174157D01*
X136734384Y-133065232D01*
X136745268Y-132920004D01*
X136745268Y-132919995D01*
X136726222Y-132665845D01*
X136719111Y-132634691D01*
X136669508Y-132417363D01*
X136576393Y-132180112D01*
X136448959Y-131959388D01*
X136290050Y-131760123D01*
X136103217Y-131586768D01*
X135892634Y-131443195D01*
X135892630Y-131443193D01*
X135892627Y-131443191D01*
X135892626Y-131443190D01*
X135663006Y-131332612D01*
X135663008Y-131332612D01*
X135419466Y-131257489D01*
X135419462Y-131257488D01*
X135419458Y-131257487D01*
X135298231Y-131239214D01*
X135167440Y-131219500D01*
X135167435Y-131219500D01*
X134912565Y-131219500D01*
X134912559Y-131219500D01*
X134755609Y-131243157D01*
X134660542Y-131257487D01*
X134660539Y-131257488D01*
X134660533Y-131257489D01*
X134416992Y-131332612D01*
X134187373Y-131443190D01*
X134187372Y-131443191D01*
X133976782Y-131586768D01*
X133789952Y-131760121D01*
X133789950Y-131760123D01*
X133631041Y-131959388D01*
X133503608Y-132180109D01*
X133410492Y-132417362D01*
X133410490Y-132417369D01*
X133353777Y-132665845D01*
X133334732Y-132919995D01*
X111772775Y-132919995D01*
X111890981Y-132812236D01*
X112025058Y-132634689D01*
X112124229Y-132435528D01*
X112185115Y-132221536D01*
X112205643Y-132000000D01*
X112185115Y-131778464D01*
X112124229Y-131564472D01*
X112063838Y-131443191D01*
X112025061Y-131365316D01*
X112025056Y-131365308D01*
X111890979Y-131187761D01*
X111726562Y-131037876D01*
X111726560Y-131037874D01*
X111537404Y-130920754D01*
X111537398Y-130920752D01*
X111329940Y-130840382D01*
X111111243Y-130799500D01*
X110888757Y-130799500D01*
X110670060Y-130840382D01*
X110538864Y-130891207D01*
X110462601Y-130920752D01*
X110462595Y-130920754D01*
X110273439Y-131037874D01*
X110273437Y-131037876D01*
X110109020Y-131187761D01*
X109974943Y-131365308D01*
X109974938Y-131365316D01*
X109875775Y-131564461D01*
X109875769Y-131564476D01*
X109814885Y-131778462D01*
X109814884Y-131778464D01*
X109794357Y-131999999D01*
X97200500Y-131999999D01*
X97200500Y-125999999D01*
X109794357Y-125999999D01*
X109794357Y-126000000D01*
X109814884Y-126221535D01*
X109814885Y-126221537D01*
X109875769Y-126435523D01*
X109875775Y-126435538D01*
X109974938Y-126634683D01*
X109974943Y-126634691D01*
X110109020Y-126812238D01*
X110273437Y-126962123D01*
X110273439Y-126962125D01*
X110462595Y-127079245D01*
X110462596Y-127079245D01*
X110462599Y-127079247D01*
X110656524Y-127154374D01*
X110711924Y-127196946D01*
X110735515Y-127262713D01*
X110719804Y-127330793D01*
X110669780Y-127379572D01*
X110656533Y-127385622D01*
X110508488Y-127442975D01*
X110462601Y-127460752D01*
X110462595Y-127460754D01*
X110273439Y-127577874D01*
X110273437Y-127577876D01*
X110109020Y-127727761D01*
X109974943Y-127905308D01*
X109974938Y-127905316D01*
X109875775Y-128104461D01*
X109875769Y-128104476D01*
X109814885Y-128318462D01*
X109814884Y-128318464D01*
X109794357Y-128539999D01*
X109794357Y-128540000D01*
X109814884Y-128761535D01*
X109814885Y-128761537D01*
X109875769Y-128975523D01*
X109875775Y-128975538D01*
X109974938Y-129174683D01*
X109974943Y-129174691D01*
X110109020Y-129352238D01*
X110273437Y-129502123D01*
X110273439Y-129502125D01*
X110462595Y-129619245D01*
X110462596Y-129619245D01*
X110462599Y-129619247D01*
X110670060Y-129699618D01*
X110888757Y-129740500D01*
X110888759Y-129740500D01*
X111111241Y-129740500D01*
X111111243Y-129740500D01*
X111329940Y-129699618D01*
X111537401Y-129619247D01*
X111726562Y-129502124D01*
X111890981Y-129352236D01*
X112025058Y-129174689D01*
X112124229Y-128975528D01*
X112185115Y-128761536D01*
X112205643Y-128540000D01*
X112185115Y-128318464D01*
X112124229Y-128104472D01*
X112124224Y-128104461D01*
X112025061Y-127905316D01*
X112025056Y-127905308D01*
X111890979Y-127727761D01*
X111726562Y-127577876D01*
X111726560Y-127577874D01*
X111537404Y-127460754D01*
X111537395Y-127460750D01*
X111443956Y-127424552D01*
X111343475Y-127385625D01*
X111288075Y-127343054D01*
X111264484Y-127277288D01*
X111280195Y-127209207D01*
X111330219Y-127160428D01*
X111343466Y-127154377D01*
X111537401Y-127079247D01*
X111726562Y-126962124D01*
X111890981Y-126812236D01*
X112025058Y-126634689D01*
X112124229Y-126435528D01*
X112185115Y-126221536D01*
X112205643Y-126000000D01*
X112185115Y-125778464D01*
X112124229Y-125564472D01*
X112079940Y-125475528D01*
X112025061Y-125365316D01*
X112025056Y-125365308D01*
X111890979Y-125187761D01*
X111726562Y-125037876D01*
X111726560Y-125037874D01*
X111537404Y-124920754D01*
X111537398Y-124920752D01*
X111329940Y-124840382D01*
X111111243Y-124799500D01*
X110888757Y-124799500D01*
X110670060Y-124840382D01*
X110538864Y-124891207D01*
X110462601Y-124920752D01*
X110462595Y-124920754D01*
X110273439Y-125037874D01*
X110273437Y-125037876D01*
X110109020Y-125187761D01*
X109974943Y-125365308D01*
X109974938Y-125365316D01*
X109875775Y-125564461D01*
X109875769Y-125564476D01*
X109814885Y-125778462D01*
X109814884Y-125778464D01*
X109794357Y-125999999D01*
X97200500Y-125999999D01*
X97200500Y-121999999D01*
X109794357Y-121999999D01*
X109794357Y-122000000D01*
X109814884Y-122221535D01*
X109814885Y-122221537D01*
X109875769Y-122435523D01*
X109875775Y-122435538D01*
X109974938Y-122634683D01*
X109974943Y-122634691D01*
X110109020Y-122812238D01*
X110273437Y-122962123D01*
X110273439Y-122962125D01*
X110462595Y-123079245D01*
X110462596Y-123079245D01*
X110462599Y-123079247D01*
X110670060Y-123159618D01*
X110888757Y-123200500D01*
X110888759Y-123200500D01*
X111111241Y-123200500D01*
X111111243Y-123200500D01*
X111329940Y-123159618D01*
X111537401Y-123079247D01*
X111726562Y-122962124D01*
X111890981Y-122812236D01*
X112025058Y-122634689D01*
X112124229Y-122435528D01*
X112185115Y-122221536D01*
X112205643Y-122000000D01*
X112185115Y-121778464D01*
X112124229Y-121564472D01*
X112092126Y-121500000D01*
X112092126Y-121499999D01*
X114294357Y-121499999D01*
X114294357Y-121500000D01*
X114314884Y-121721535D01*
X114314885Y-121721537D01*
X114375769Y-121935523D01*
X114375775Y-121935538D01*
X114474938Y-122134683D01*
X114474943Y-122134691D01*
X114609020Y-122312238D01*
X114773437Y-122462123D01*
X114773439Y-122462125D01*
X114962595Y-122579245D01*
X114962596Y-122579245D01*
X114962599Y-122579247D01*
X115170060Y-122659618D01*
X115388757Y-122700500D01*
X115388759Y-122700500D01*
X115611241Y-122700500D01*
X115611243Y-122700500D01*
X115829940Y-122659618D01*
X116037401Y-122579247D01*
X116165391Y-122499999D01*
X122794357Y-122499999D01*
X122794357Y-122500000D01*
X122814884Y-122721535D01*
X122814885Y-122721537D01*
X122875769Y-122935523D01*
X122875775Y-122935538D01*
X122974938Y-123134683D01*
X122974943Y-123134691D01*
X123109020Y-123312238D01*
X123273437Y-123462123D01*
X123273439Y-123462125D01*
X123462595Y-123579245D01*
X123462596Y-123579245D01*
X123462599Y-123579247D01*
X123656524Y-123654374D01*
X123711924Y-123696946D01*
X123735515Y-123762713D01*
X123719804Y-123830793D01*
X123669780Y-123879572D01*
X123656533Y-123885622D01*
X123508488Y-123942975D01*
X123462601Y-123960752D01*
X123462595Y-123960754D01*
X123273439Y-124077874D01*
X123273437Y-124077876D01*
X123109020Y-124227761D01*
X122974943Y-124405308D01*
X122974938Y-124405316D01*
X122875775Y-124604461D01*
X122875769Y-124604476D01*
X122814885Y-124818462D01*
X122814884Y-124818464D01*
X122794357Y-125039999D01*
X122794357Y-125040000D01*
X122814884Y-125261535D01*
X122814885Y-125261537D01*
X122875769Y-125475523D01*
X122875775Y-125475538D01*
X122974938Y-125674683D01*
X122974943Y-125674691D01*
X123109020Y-125852238D01*
X123273437Y-126002123D01*
X123273439Y-126002125D01*
X123462595Y-126119245D01*
X123462596Y-126119245D01*
X123462599Y-126119247D01*
X123670060Y-126199618D01*
X123888757Y-126240500D01*
X123888759Y-126240500D01*
X124111241Y-126240500D01*
X124111243Y-126240500D01*
X124329940Y-126199618D01*
X124537401Y-126119247D01*
X124726562Y-126002124D01*
X124728893Y-125999999D01*
X134294357Y-125999999D01*
X134294357Y-126000000D01*
X134314884Y-126221535D01*
X134314885Y-126221537D01*
X134375769Y-126435523D01*
X134375775Y-126435538D01*
X134474938Y-126634683D01*
X134474943Y-126634691D01*
X134609020Y-126812238D01*
X134773437Y-126962123D01*
X134773439Y-126962125D01*
X134962595Y-127079245D01*
X134962596Y-127079245D01*
X134962599Y-127079247D01*
X135170060Y-127159618D01*
X135388757Y-127200500D01*
X135388759Y-127200500D01*
X135611241Y-127200500D01*
X135611243Y-127200500D01*
X135829940Y-127159618D01*
X136037401Y-127079247D01*
X136226562Y-126962124D01*
X136390981Y-126812236D01*
X136525058Y-126634689D01*
X136624229Y-126435528D01*
X136685115Y-126221536D01*
X136705643Y-126000000D01*
X136685115Y-125778464D01*
X136624229Y-125564472D01*
X136579940Y-125475528D01*
X136525061Y-125365316D01*
X136525056Y-125365308D01*
X136390979Y-125187761D01*
X136226562Y-125037876D01*
X136226560Y-125037874D01*
X136037404Y-124920754D01*
X136037398Y-124920752D01*
X135829940Y-124840382D01*
X135611243Y-124799500D01*
X135388757Y-124799500D01*
X135170060Y-124840382D01*
X135038864Y-124891207D01*
X134962601Y-124920752D01*
X134962595Y-124920754D01*
X134773439Y-125037874D01*
X134773437Y-125037876D01*
X134609020Y-125187761D01*
X134474943Y-125365308D01*
X134474938Y-125365316D01*
X134375775Y-125564461D01*
X134375769Y-125564476D01*
X134314885Y-125778462D01*
X134314884Y-125778464D01*
X134294357Y-125999999D01*
X124728893Y-125999999D01*
X124890981Y-125852236D01*
X125025058Y-125674689D01*
X125124229Y-125475528D01*
X125185115Y-125261536D01*
X125205643Y-125040000D01*
X125185115Y-124818464D01*
X125124229Y-124604472D01*
X125124224Y-124604461D01*
X125025061Y-124405316D01*
X125025056Y-124405308D01*
X124890979Y-124227761D01*
X124726562Y-124077876D01*
X124726560Y-124077874D01*
X124537404Y-123960754D01*
X124537395Y-123960750D01*
X124443956Y-123924552D01*
X124343475Y-123885625D01*
X124288075Y-123843054D01*
X124264484Y-123777288D01*
X124280195Y-123709207D01*
X124330219Y-123660428D01*
X124343466Y-123654377D01*
X124537401Y-123579247D01*
X124726562Y-123462124D01*
X124890981Y-123312236D01*
X125025058Y-123134689D01*
X125124229Y-122935528D01*
X125185115Y-122721536D01*
X125205643Y-122500000D01*
X125185115Y-122278464D01*
X125124229Y-122064472D01*
X125092126Y-122000000D01*
X125025061Y-121865316D01*
X125025056Y-121865308D01*
X124890979Y-121687761D01*
X124726562Y-121537876D01*
X124726560Y-121537874D01*
X124537404Y-121420754D01*
X124537398Y-121420752D01*
X124329940Y-121340382D01*
X124111243Y-121299500D01*
X123888757Y-121299500D01*
X123670060Y-121340382D01*
X123538864Y-121391207D01*
X123462601Y-121420752D01*
X123462595Y-121420754D01*
X123273439Y-121537874D01*
X123273437Y-121537876D01*
X123109020Y-121687761D01*
X122974943Y-121865308D01*
X122974938Y-121865316D01*
X122875775Y-122064461D01*
X122875769Y-122064476D01*
X122814885Y-122278462D01*
X122814884Y-122278464D01*
X122794357Y-122499999D01*
X116165391Y-122499999D01*
X116226562Y-122462124D01*
X116390981Y-122312236D01*
X116525058Y-122134689D01*
X116624229Y-121935528D01*
X116685115Y-121721536D01*
X116705643Y-121500000D01*
X116685115Y-121278464D01*
X116659308Y-121187761D01*
X116624233Y-121064483D01*
X116624226Y-121064465D01*
X116623497Y-121063001D01*
X116623247Y-121061938D01*
X116622159Y-121059130D01*
X116622550Y-121058978D01*
X116610500Y-121007735D01*
X116610500Y-116999999D01*
X122794357Y-116999999D01*
X122794357Y-117000000D01*
X122814884Y-117221535D01*
X122814885Y-117221537D01*
X122875769Y-117435523D01*
X122875775Y-117435538D01*
X122974938Y-117634683D01*
X122974943Y-117634691D01*
X123109020Y-117812238D01*
X123273437Y-117962123D01*
X123273439Y-117962125D01*
X123309709Y-117984582D01*
X123462599Y-118079247D01*
X123520793Y-118101791D01*
X123576195Y-118144363D01*
X123599786Y-118210130D01*
X123600000Y-118217418D01*
X123600000Y-118322581D01*
X123580315Y-118389620D01*
X123527511Y-118435375D01*
X123520796Y-118438207D01*
X123462595Y-118460754D01*
X123462595Y-118460755D01*
X123273439Y-118577874D01*
X123273437Y-118577876D01*
X123109020Y-118727761D01*
X122974943Y-118905308D01*
X122974938Y-118905316D01*
X122875775Y-119104461D01*
X122875769Y-119104476D01*
X122814885Y-119318462D01*
X122814884Y-119318464D01*
X122794357Y-119539999D01*
X122794357Y-119540000D01*
X122814884Y-119761535D01*
X122814885Y-119761537D01*
X122875769Y-119975523D01*
X122875775Y-119975538D01*
X122974938Y-120174683D01*
X122974943Y-120174691D01*
X123109020Y-120352238D01*
X123273437Y-120502123D01*
X123273439Y-120502125D01*
X123374116Y-120564461D01*
X123462599Y-120619247D01*
X123520793Y-120641791D01*
X123576195Y-120684363D01*
X123599786Y-120750130D01*
X123600000Y-120757418D01*
X123600000Y-121000000D01*
X128500000Y-121000000D01*
X128500000Y-120999999D01*
X134294357Y-120999999D01*
X134294357Y-121000000D01*
X134314884Y-121221535D01*
X134314885Y-121221537D01*
X134375769Y-121435523D01*
X134375775Y-121435538D01*
X134474938Y-121634683D01*
X134474943Y-121634691D01*
X134609020Y-121812238D01*
X134773437Y-121962123D01*
X134773439Y-121962125D01*
X134962595Y-122079245D01*
X134962596Y-122079245D01*
X134962599Y-122079247D01*
X135170060Y-122159618D01*
X135388757Y-122200500D01*
X135388759Y-122200500D01*
X135611241Y-122200500D01*
X135611243Y-122200500D01*
X135829940Y-122159618D01*
X136037401Y-122079247D01*
X136226562Y-121962124D01*
X136390981Y-121812236D01*
X136525058Y-121634689D01*
X136624229Y-121435528D01*
X136685115Y-121221536D01*
X136705643Y-121000000D01*
X136685115Y-120778464D01*
X136624229Y-120564472D01*
X136593184Y-120502125D01*
X136525061Y-120365316D01*
X136525056Y-120365308D01*
X136390979Y-120187761D01*
X136226562Y-120037876D01*
X136226560Y-120037874D01*
X136037404Y-119920754D01*
X136037398Y-119920752D01*
X135829940Y-119840382D01*
X135611243Y-119799500D01*
X135388757Y-119799500D01*
X135170060Y-119840382D01*
X135038864Y-119891207D01*
X134962601Y-119920752D01*
X134962595Y-119920754D01*
X134773439Y-120037874D01*
X134773437Y-120037876D01*
X134609020Y-120187761D01*
X134474943Y-120365308D01*
X134474938Y-120365316D01*
X134375775Y-120564461D01*
X134375769Y-120564476D01*
X134314885Y-120778462D01*
X134314884Y-120778464D01*
X134294357Y-120999999D01*
X128500000Y-120999999D01*
X128500000Y-118000000D01*
X127998214Y-118000000D01*
X127931175Y-117980315D01*
X127885420Y-117927511D01*
X127875476Y-117858353D01*
X127899260Y-117801273D01*
X128025056Y-117634691D01*
X128025058Y-117634689D01*
X128124229Y-117435528D01*
X128185115Y-117221536D01*
X128205643Y-117000000D01*
X128185115Y-116778464D01*
X128124229Y-116564472D01*
X128124224Y-116564461D01*
X128025061Y-116365316D01*
X128025056Y-116365308D01*
X127890979Y-116187761D01*
X127726562Y-116037876D01*
X127726560Y-116037874D01*
X127665390Y-115999999D01*
X134294357Y-115999999D01*
X134294357Y-116000000D01*
X134314884Y-116221535D01*
X134314885Y-116221537D01*
X134375769Y-116435523D01*
X134375775Y-116435538D01*
X134474938Y-116634683D01*
X134474943Y-116634691D01*
X134609020Y-116812238D01*
X134773437Y-116962123D01*
X134773439Y-116962125D01*
X134962595Y-117079245D01*
X134962596Y-117079245D01*
X134962599Y-117079247D01*
X135170060Y-117159618D01*
X135388757Y-117200500D01*
X135388759Y-117200500D01*
X135611241Y-117200500D01*
X135611243Y-117200500D01*
X135829940Y-117159618D01*
X136037401Y-117079247D01*
X136226562Y-116962124D01*
X136390981Y-116812236D01*
X136525058Y-116634689D01*
X136624229Y-116435528D01*
X136685115Y-116221536D01*
X136705643Y-116000000D01*
X136685115Y-115778464D01*
X136624229Y-115564472D01*
X136624224Y-115564461D01*
X136525061Y-115365316D01*
X136525056Y-115365308D01*
X136390979Y-115187761D01*
X136226562Y-115037876D01*
X136226560Y-115037874D01*
X136037404Y-114920754D01*
X136037398Y-114920752D01*
X135829940Y-114840382D01*
X135611243Y-114799500D01*
X135388757Y-114799500D01*
X135170060Y-114840382D01*
X135038864Y-114891207D01*
X134962601Y-114920752D01*
X134962595Y-114920754D01*
X134773439Y-115037874D01*
X134773437Y-115037876D01*
X134609020Y-115187761D01*
X134474943Y-115365308D01*
X134474938Y-115365316D01*
X134375775Y-115564461D01*
X134375769Y-115564476D01*
X134314885Y-115778462D01*
X134314884Y-115778464D01*
X134294357Y-115999999D01*
X127665390Y-115999999D01*
X127537404Y-115920754D01*
X127537398Y-115920752D01*
X127329940Y-115840382D01*
X127111243Y-115799500D01*
X126888757Y-115799500D01*
X126670060Y-115840382D01*
X126538864Y-115891207D01*
X126462601Y-115920752D01*
X126462595Y-115920754D01*
X126273439Y-116037874D01*
X126273437Y-116037876D01*
X126109020Y-116187761D01*
X125974943Y-116365308D01*
X125974938Y-116365316D01*
X125875775Y-116564461D01*
X125875769Y-116564476D01*
X125814885Y-116778462D01*
X125814884Y-116778464D01*
X125794357Y-116999999D01*
X125794357Y-117000000D01*
X125814884Y-117221535D01*
X125814885Y-117221537D01*
X125875769Y-117435523D01*
X125875775Y-117435538D01*
X125974938Y-117634683D01*
X125974943Y-117634691D01*
X126100740Y-117801273D01*
X126125432Y-117866635D01*
X126110867Y-117934969D01*
X126061669Y-117984582D01*
X126001786Y-118000000D01*
X124998214Y-118000000D01*
X124931175Y-117980315D01*
X124885420Y-117927511D01*
X124875476Y-117858353D01*
X124899260Y-117801273D01*
X125025056Y-117634691D01*
X125025058Y-117634689D01*
X125124229Y-117435528D01*
X125185115Y-117221536D01*
X125205643Y-117000000D01*
X125185115Y-116778464D01*
X125124229Y-116564472D01*
X125124224Y-116564461D01*
X125025061Y-116365316D01*
X125025056Y-116365308D01*
X124890979Y-116187761D01*
X124726562Y-116037876D01*
X124726560Y-116037874D01*
X124537404Y-115920754D01*
X124537398Y-115920752D01*
X124329940Y-115840382D01*
X124111243Y-115799500D01*
X123888757Y-115799500D01*
X123670060Y-115840382D01*
X123538864Y-115891207D01*
X123462601Y-115920752D01*
X123462595Y-115920754D01*
X123273439Y-116037874D01*
X123273437Y-116037876D01*
X123109020Y-116187761D01*
X122974943Y-116365308D01*
X122974938Y-116365316D01*
X122875775Y-116564461D01*
X122875769Y-116564476D01*
X122814885Y-116778462D01*
X122814884Y-116778464D01*
X122794357Y-116999999D01*
X116610500Y-116999999D01*
X116610500Y-115027914D01*
X116630185Y-114960875D01*
X116646814Y-114940238D01*
X118970595Y-112616456D01*
X119013482Y-112588512D01*
X119037401Y-112579247D01*
X119226562Y-112462124D01*
X119390981Y-112312236D01*
X119525058Y-112134689D01*
X119624229Y-111935528D01*
X119685115Y-111721536D01*
X119705643Y-111500000D01*
X119685115Y-111278464D01*
X119628647Y-111080000D01*
X120870000Y-111080000D01*
X131030000Y-111080000D01*
X131030000Y-100920000D01*
X120870000Y-100920000D01*
X120870000Y-111080000D01*
X119628647Y-111080000D01*
X119624229Y-111064472D01*
X119624224Y-111064461D01*
X119525061Y-110865316D01*
X119525056Y-110865308D01*
X119390979Y-110687761D01*
X119226562Y-110537876D01*
X119226560Y-110537874D01*
X119037404Y-110420754D01*
X119037398Y-110420752D01*
X118829940Y-110340382D01*
X118611243Y-110299500D01*
X118388757Y-110299500D01*
X118170060Y-110340382D01*
X118038864Y-110391207D01*
X117962601Y-110420752D01*
X117962595Y-110420754D01*
X117773439Y-110537874D01*
X117773437Y-110537876D01*
X117609020Y-110687762D01*
X117502660Y-110828604D01*
X117491387Y-110841558D01*
X114710502Y-113622444D01*
X114582445Y-113750500D01*
X114582441Y-113750505D01*
X114476006Y-113897002D01*
X114393788Y-114058360D01*
X114393787Y-114058363D01*
X114337829Y-114230589D01*
X114309499Y-114409455D01*
X114309499Y-114595656D01*
X114309500Y-114595681D01*
X114309500Y-121330845D01*
X114308971Y-121342286D01*
X114294357Y-121499999D01*
X112092126Y-121499999D01*
X112025061Y-121365316D01*
X112025056Y-121365308D01*
X111890979Y-121187761D01*
X111726562Y-121037876D01*
X111726560Y-121037874D01*
X111537404Y-120920754D01*
X111537398Y-120920752D01*
X111329940Y-120840382D01*
X111111243Y-120799500D01*
X110888757Y-120799500D01*
X110670060Y-120840382D01*
X110538864Y-120891207D01*
X110462601Y-120920752D01*
X110462595Y-120920754D01*
X110273439Y-121037874D01*
X110273437Y-121037876D01*
X110109020Y-121187761D01*
X109974943Y-121365308D01*
X109974938Y-121365316D01*
X109875775Y-121564461D01*
X109875769Y-121564476D01*
X109814885Y-121778462D01*
X109814884Y-121778464D01*
X109794357Y-121999999D01*
X97200500Y-121999999D01*
X97200500Y-110668475D01*
X100299500Y-110668475D01*
X100299500Y-113331517D01*
X100310292Y-113399657D01*
X100314354Y-113425304D01*
X100371950Y-113538342D01*
X100371952Y-113538344D01*
X100371954Y-113538347D01*
X100461652Y-113628045D01*
X100461654Y-113628046D01*
X100461658Y-113628050D01*
X100574694Y-113685645D01*
X100574698Y-113685647D01*
X100668475Y-113700499D01*
X100668481Y-113700500D01*
X103331518Y-113700499D01*
X103425304Y-113685646D01*
X103538342Y-113628050D01*
X103628050Y-113538342D01*
X103685646Y-113425304D01*
X103685646Y-113425302D01*
X103685647Y-113425301D01*
X103700499Y-113331524D01*
X103700500Y-113331519D01*
X103700499Y-111668475D01*
X110299500Y-111668475D01*
X110299500Y-113331517D01*
X110310292Y-113399657D01*
X110314354Y-113425304D01*
X110371950Y-113538342D01*
X110371952Y-113538344D01*
X110371954Y-113538347D01*
X110461652Y-113628045D01*
X110461654Y-113628046D01*
X110461658Y-113628050D01*
X110574694Y-113685645D01*
X110574698Y-113685647D01*
X110668475Y-113700499D01*
X110668481Y-113700500D01*
X112331518Y-113700499D01*
X112425304Y-113685646D01*
X112538342Y-113628050D01*
X112628050Y-113538342D01*
X112685646Y-113425304D01*
X112685646Y-113425302D01*
X112685647Y-113425301D01*
X112700499Y-113331524D01*
X112700500Y-113331519D01*
X112700499Y-111668482D01*
X112685646Y-111574696D01*
X112628050Y-111461658D01*
X112628046Y-111461654D01*
X112628045Y-111461652D01*
X112538347Y-111371954D01*
X112538344Y-111371952D01*
X112538342Y-111371950D01*
X112461517Y-111332805D01*
X112425301Y-111314352D01*
X112331524Y-111299500D01*
X110668482Y-111299500D01*
X110587519Y-111312323D01*
X110574696Y-111314354D01*
X110461658Y-111371950D01*
X110461657Y-111371951D01*
X110461652Y-111371954D01*
X110371954Y-111461652D01*
X110371951Y-111461657D01*
X110314352Y-111574698D01*
X110299500Y-111668475D01*
X103700499Y-111668475D01*
X103700499Y-110668482D01*
X103685646Y-110574696D01*
X103628050Y-110461658D01*
X103628046Y-110461654D01*
X103628045Y-110461652D01*
X103538347Y-110371954D01*
X103538344Y-110371952D01*
X103538342Y-110371950D01*
X103461517Y-110332805D01*
X103425301Y-110314352D01*
X103331524Y-110299500D01*
X100668482Y-110299500D01*
X100587519Y-110312323D01*
X100574696Y-110314354D01*
X100461658Y-110371950D01*
X100461657Y-110371951D01*
X100461652Y-110371954D01*
X100371954Y-110461652D01*
X100371951Y-110461657D01*
X100314352Y-110574698D01*
X100299500Y-110668475D01*
X97200500Y-110668475D01*
X97200500Y-105002706D01*
X97200618Y-104997297D01*
X97209891Y-104784906D01*
X97218528Y-104587080D01*
X97219468Y-104576347D01*
X97272709Y-104171938D01*
X97274582Y-104161308D01*
X97362870Y-103763068D01*
X97365668Y-103752630D01*
X97488316Y-103363639D01*
X97492016Y-103353473D01*
X97593711Y-103107961D01*
X97648111Y-102976627D01*
X97652669Y-102966853D01*
X97841025Y-102605024D01*
X97846407Y-102595703D01*
X98065574Y-102251680D01*
X98071765Y-102242837D01*
X98320083Y-101919224D01*
X98327021Y-101910955D01*
X98602594Y-101610220D01*
X98610220Y-101602594D01*
X98910955Y-101327021D01*
X98919224Y-101320083D01*
X99242837Y-101071765D01*
X99251680Y-101065574D01*
X99595703Y-100846407D01*
X99605024Y-100841025D01*
X99966853Y-100652669D01*
X99976627Y-100648111D01*
X100353482Y-100492012D01*
X100363629Y-100488319D01*
X100752639Y-100365665D01*
X100763068Y-100362870D01*
X101161308Y-100274582D01*
X101171938Y-100272709D01*
X101576347Y-100219468D01*
X101587080Y-100218528D01*
X101997297Y-100200617D01*
X102002706Y-100200500D01*
X102039882Y-100200500D01*
X134960118Y-100200500D01*
X134997294Y-100200500D01*
X135002702Y-100200617D01*
G37*
%TD.AperFunction*%
%TD*%
M02*
