%TF.GenerationSoftware,KiCad,Pcbnew,8.0.5*%
%TF.CreationDate,2024-10-31T21:46:15+08:00*%
%TF.ProjectId,B626_VIN3.7V_VOUT16.5V_IO0.9A,42363236-5f56-4494-9e33-2e37565f564f,rev?*%
%TF.SameCoordinates,Original*%
%TF.FileFunction,Copper,L2,Bot*%
%TF.FilePolarity,Positive*%
%FSLAX46Y46*%
G04 Gerber Fmt 4.6, Leading zero omitted, Abs format (unit mm)*
G04 Created by KiCad (PCBNEW 8.0.5) date 2024-10-31 21:46:15*
%MOMM*%
%LPD*%
G01*
G04 APERTURE LIST*
G04 Aperture macros list*
%AMRoundRect*
0 Rectangle with rounded corners*
0 $1 Rounding radius*
0 $2 $3 $4 $5 $6 $7 $8 $9 X,Y pos of 4 corners*
0 Add a 4 corners polygon primitive as box body*
4,1,4,$2,$3,$4,$5,$6,$7,$8,$9,$2,$3,0*
0 Add four circle primitives for the rounded corners*
1,1,$1+$1,$2,$3*
1,1,$1+$1,$4,$5*
1,1,$1+$1,$6,$7*
1,1,$1+$1,$8,$9*
0 Add four rect primitives between the rounded corners*
20,1,$1+$1,$2,$3,$4,$5,0*
20,1,$1+$1,$4,$5,$6,$7,0*
20,1,$1+$1,$6,$7,$8,$9,0*
20,1,$1+$1,$8,$9,$2,$3,0*%
G04 Aperture macros list end*
%TA.AperFunction,Conductor*%
%ADD10C,0.200000*%
%TD*%
%TA.AperFunction,ComponentPad*%
%ADD11R,2.600000X2.600000*%
%TD*%
%TA.AperFunction,ComponentPad*%
%ADD12C,2.600000*%
%TD*%
%TA.AperFunction,ComponentPad*%
%ADD13R,1.600000X1.600000*%
%TD*%
%TA.AperFunction,ComponentPad*%
%ADD14C,1.600000*%
%TD*%
%TA.AperFunction,ComponentPad*%
%ADD15O,1.600000X1.600000*%
%TD*%
%TA.AperFunction,ComponentPad*%
%ADD16C,6.000000*%
%TD*%
%TA.AperFunction,SMDPad,CuDef*%
%ADD17RoundRect,1.250000X-1.250000X-2.750000X1.250000X-2.750000X1.250000X2.750000X-1.250000X2.750000X0*%
%TD*%
%TA.AperFunction,SMDPad,CuDef*%
%ADD18RoundRect,0.250000X0.250000X0.475000X-0.250000X0.475000X-0.250000X-0.475000X0.250000X-0.475000X0*%
%TD*%
%TA.AperFunction,SMDPad,CuDef*%
%ADD19RoundRect,0.150000X0.587500X0.150000X-0.587500X0.150000X-0.587500X-0.150000X0.587500X-0.150000X0*%
%TD*%
%TA.AperFunction,SMDPad,CuDef*%
%ADD20RoundRect,0.150000X0.725000X0.150000X-0.725000X0.150000X-0.725000X-0.150000X0.725000X-0.150000X0*%
%TD*%
%TA.AperFunction,SMDPad,CuDef*%
%ADD21RoundRect,0.150000X0.512500X0.150000X-0.512500X0.150000X-0.512500X-0.150000X0.512500X-0.150000X0*%
%TD*%
%TA.AperFunction,SMDPad,CuDef*%
%ADD22RoundRect,0.250000X0.650000X-1.000000X0.650000X1.000000X-0.650000X1.000000X-0.650000X-1.000000X0*%
%TD*%
%TA.AperFunction,SMDPad,CuDef*%
%ADD23RoundRect,0.250000X-0.475000X0.250000X-0.475000X-0.250000X0.475000X-0.250000X0.475000X0.250000X0*%
%TD*%
%TA.AperFunction,ViaPad*%
%ADD24C,0.500000*%
%TD*%
%TA.AperFunction,Conductor*%
%ADD25C,1.000000*%
%TD*%
%TA.AperFunction,Conductor*%
%ADD26C,1.500000*%
%TD*%
%TA.AperFunction,Conductor*%
%ADD27C,0.500000*%
%TD*%
%TA.AperFunction,Conductor*%
%ADD28C,0.300000*%
%TD*%
G04 APERTURE END LIST*
%TO.N,VIN*%
D10*
X99770000Y-108750000D02*
X122750000Y-108750000D01*
X122750000Y-113500000D01*
X99770000Y-113500000D01*
X99770000Y-108750000D01*
%TA.AperFunction,Conductor*%
G36*
X99770000Y-108750000D02*
G01*
X122750000Y-108750000D01*
X122750000Y-113500000D01*
X99770000Y-113500000D01*
X99770000Y-108750000D01*
G37*
%TD.AperFunction*%
%TO.N,GND*%
X99770000Y-114500000D02*
X121250000Y-114500000D01*
X121250000Y-120250000D01*
X99770000Y-120250000D01*
X99770000Y-114500000D01*
%TA.AperFunction,Conductor*%
G36*
X99770000Y-114500000D02*
G01*
X121250000Y-114500000D01*
X121250000Y-120250000D01*
X99770000Y-120250000D01*
X99770000Y-114500000D01*
G37*
%TD.AperFunction*%
%TO.N,Net-(D1-A)*%
X135800000Y-105800000D02*
X135800000Y-108200000D01*
X134200000Y-108200000D01*
X127750000Y-112750000D01*
X126500000Y-112750000D01*
X126500000Y-112250000D01*
X127500000Y-109000000D01*
X131400000Y-102000000D01*
X135800000Y-105800000D01*
%TA.AperFunction,Conductor*%
G36*
X135800000Y-105800000D02*
G01*
X135800000Y-108200000D01*
X134200000Y-108200000D01*
X127750000Y-112750000D01*
X126500000Y-112750000D01*
X126500000Y-112250000D01*
X127500000Y-109000000D01*
X131400000Y-102000000D01*
X135800000Y-105800000D01*
G37*
%TD.AperFunction*%
%TO.N,GND*%
X128100000Y-113300000D02*
X132500000Y-113300000D01*
X132500000Y-113900000D01*
X128100000Y-113900000D01*
X128100000Y-113300000D01*
%TA.AperFunction,Conductor*%
G36*
X128100000Y-113300000D02*
G01*
X132500000Y-113300000D01*
X132500000Y-113900000D01*
X128100000Y-113900000D01*
X128100000Y-113300000D01*
G37*
%TD.AperFunction*%
X128570000Y-113500000D02*
X132500000Y-113500000D01*
X132500000Y-134270000D01*
X128570000Y-134270000D01*
X128570000Y-113500000D01*
%TA.AperFunction,Conductor*%
G36*
X128570000Y-113500000D02*
G01*
X132500000Y-113500000D01*
X132500000Y-134270000D01*
X128570000Y-134270000D01*
X128570000Y-113500000D01*
G37*
%TD.AperFunction*%
%TO.N,VOUT*%
X133600000Y-109800000D02*
X136400000Y-109800000D01*
X136400000Y-134450000D01*
X133600000Y-134450000D01*
X133600000Y-109800000D01*
%TA.AperFunction,Conductor*%
G36*
X133600000Y-109800000D02*
G01*
X136400000Y-109800000D01*
X136400000Y-134450000D01*
X133600000Y-134450000D01*
X133600000Y-109800000D01*
G37*
%TD.AperFunction*%
%TO.N,VIN*%
X117500000Y-102000000D02*
X123230000Y-102000000D01*
X123230000Y-113500000D01*
X117500000Y-113500000D01*
X117500000Y-102000000D01*
%TA.AperFunction,Conductor*%
G36*
X117500000Y-102000000D02*
G01*
X123230000Y-102000000D01*
X123230000Y-113500000D01*
X117500000Y-113500000D01*
X117500000Y-102000000D01*
G37*
%TD.AperFunction*%
%TD*%
D11*
%TO.P,H2,1*%
%TO.N,VIN*%
X102000000Y-112000000D03*
D12*
%TO.P,H2,2*%
%TO.N,GND*%
X102000000Y-117000000D03*
%TD*%
D13*
%TO.P,C1,1*%
%TO.N,VIN*%
X111500000Y-112500000D03*
D14*
%TO.P,C1,2*%
%TO.N,GND*%
X111500000Y-116000000D03*
%TD*%
D11*
%TO.P,H5,1*%
%TO.N,GND*%
X130040000Y-132920000D03*
D12*
%TO.P,H5,2*%
%TO.N,VOUT*%
X135040000Y-132920000D03*
%TD*%
D14*
%TO.P,R3,1*%
%TO.N,Net-(U2-FB)*%
X127000000Y-117000000D03*
D15*
%TO.P,R3,2*%
%TO.N,GND*%
X127000000Y-119540000D03*
%TD*%
D14*
%TO.P,C6,1*%
%TO.N,VIN*%
X115500000Y-121500000D03*
%TO.P,C6,2*%
%TO.N,GND*%
X120500000Y-121500000D03*
%TD*%
%TO.P,C5,1*%
%TO.N,Net-(U3-K)*%
X111000000Y-122000000D03*
%TO.P,C5,2*%
%TO.N,GND*%
X106000000Y-122000000D03*
%TD*%
%TO.P,C2,1*%
%TO.N,VIN*%
X118500000Y-111500000D03*
%TO.P,C2,2*%
%TO.N,GND*%
X118500000Y-116500000D03*
%TD*%
%TO.P,C7,1*%
%TO.N,VOUT*%
X135500000Y-116000000D03*
%TO.P,C7,2*%
%TO.N,GND*%
X130500000Y-116000000D03*
%TD*%
%TO.P,C8,1*%
%TO.N,VOUT*%
X135500000Y-121000000D03*
%TO.P,C8,2*%
%TO.N,GND*%
X130500000Y-121000000D03*
%TD*%
%TO.P,R1,1*%
%TO.N,VOUT*%
X124000000Y-122500000D03*
D15*
%TO.P,R1,2*%
%TO.N,Net-(U3-K)*%
X124000000Y-125040000D03*
%TD*%
D14*
%TO.P,C12,1*%
%TO.N,VOUT*%
X135500000Y-126000000D03*
%TO.P,C12,2*%
%TO.N,GND*%
X130500000Y-126000000D03*
%TD*%
D16*
%TO.P,H1,1,1*%
%TO.N,GND*%
X105000000Y-105000000D03*
%TD*%
D14*
%TO.P,R4,1*%
%TO.N,Net-(U3-K)*%
X111000000Y-126000000D03*
D15*
%TO.P,R4,2*%
%TO.N,Net-(U3-REF)*%
X111000000Y-128540000D03*
%TD*%
D14*
%TO.P,R2,1*%
%TO.N,Net-(U2-FB)*%
X124000000Y-117000000D03*
D15*
%TO.P,R2,2*%
%TO.N,VOUT*%
X124000000Y-119540000D03*
%TD*%
D14*
%TO.P,R5,1*%
%TO.N,Net-(U3-REF)*%
X111000000Y-132000000D03*
D15*
%TO.P,R5,2*%
%TO.N,GND*%
X111000000Y-134540000D03*
%TD*%
D17*
%TO.P,L1,1,+*%
%TO.N,VIN*%
X122250000Y-106000000D03*
%TO.P,L1,2,-*%
%TO.N,Net-(D1-A)*%
X129750000Y-106000000D03*
%TD*%
D18*
%TO.P,C13,1*%
%TO.N,VOUT*%
X133950000Y-128500000D03*
%TO.P,C13,2*%
%TO.N,GND*%
X132050000Y-128500000D03*
%TD*%
D19*
%TO.P,U3,1,K*%
%TO.N,Net-(U3-K)*%
X107937500Y-126050000D03*
%TO.P,U3,2,REF*%
%TO.N,Net-(U3-REF)*%
X107937500Y-127950000D03*
%TO.P,U3,3,A*%
%TO.N,GND*%
X106062500Y-127000000D03*
%TD*%
D20*
%TO.P,U4,1*%
%TO.N,/EN*%
X120575000Y-126095000D03*
%TO.P,U4,2,-*%
%TO.N,Net-(U3-K)*%
X120575000Y-127365000D03*
%TO.P,U4,3,+*%
%TO.N,VIN*%
X120575000Y-128635000D03*
%TO.P,U4,4,V-*%
%TO.N,GND*%
X120575000Y-129905000D03*
%TO.P,U4,5,+*%
%TO.N,unconnected-(U4B-+-Pad5)*%
X115425000Y-129905000D03*
%TO.P,U4,6,-*%
%TO.N,unconnected-(U4B---Pad6)*%
X115425000Y-128635000D03*
%TO.P,U4,7*%
%TO.N,unconnected-(U4-Pad7)*%
X115425000Y-127365000D03*
%TO.P,U4,8,V+*%
%TO.N,VIN*%
X115425000Y-126095000D03*
%TD*%
D21*
%TO.P,U2,1,SW*%
%TO.N,Net-(D1-A)*%
X126637500Y-112550000D03*
%TO.P,U2,2,GND*%
%TO.N,GND*%
X126637500Y-113500000D03*
%TO.P,U2,3,FB*%
%TO.N,Net-(U2-FB)*%
X126637500Y-114450000D03*
%TO.P,U2,4,EN*%
%TO.N,/EN*%
X124362500Y-114450000D03*
%TO.P,U2,5,IN*%
%TO.N,VIN*%
X124362500Y-113500000D03*
%TO.P,U2,6,NC*%
%TO.N,unconnected-(U2-NC-Pad6)*%
X124362500Y-112550000D03*
%TD*%
D22*
%TO.P,D1,1,K*%
%TO.N,VOUT*%
X135000000Y-111000000D03*
%TO.P,D1,2,A*%
%TO.N,Net-(D1-A)*%
X135000000Y-107000000D03*
%TD*%
D23*
%TO.P,C3,1*%
%TO.N,VIN*%
X121000000Y-113050000D03*
%TO.P,C3,2*%
%TO.N,GND*%
X121000000Y-114950000D03*
%TD*%
D24*
%TO.N,GND*%
X120350000Y-136100000D03*
X132500000Y-110700000D03*
X137900000Y-126160000D03*
X112800000Y-132600000D03*
X137900000Y-118540000D03*
X112730000Y-136100000D03*
X98600000Y-108010000D03*
X125500000Y-115500000D03*
X98600000Y-130870000D03*
X120000000Y-100900000D03*
X117500000Y-130300000D03*
X118500000Y-126500000D03*
X137900000Y-129970000D03*
X124000000Y-126800000D03*
X101300000Y-136100000D03*
X135590000Y-136100000D03*
X123100000Y-131700000D03*
X113800000Y-129500000D03*
X116540000Y-136100000D03*
X118500000Y-129200000D03*
X116500000Y-107600000D03*
X108920000Y-136100000D03*
X117000000Y-128000000D03*
X98600000Y-104200000D03*
X122100000Y-114500000D03*
X112530000Y-101800000D03*
X98600000Y-127060000D03*
X124160000Y-136100000D03*
X137900000Y-110920000D03*
X126500000Y-121800000D03*
X101100000Y-101800000D03*
X98600000Y-123250000D03*
X137900000Y-107110000D03*
X131900000Y-100800000D03*
X108720000Y-101800000D03*
X98600000Y-115630000D03*
X98600000Y-111820000D03*
X116340000Y-101800000D03*
X137900000Y-103300000D03*
X105110000Y-136100000D03*
X137900000Y-133780000D03*
X109100000Y-129500000D03*
X98600000Y-119440000D03*
X137900000Y-122350000D03*
X137900000Y-114730000D03*
X98600000Y-134680000D03*
%TD*%
D25*
%TO.N,VIN*%
X115500000Y-121500000D02*
X115500000Y-126020000D01*
D26*
X111270000Y-112730000D02*
X111500000Y-112500000D01*
D27*
X116695000Y-126095000D02*
X119235000Y-128635000D01*
D26*
X122250000Y-106000000D02*
X122250000Y-107710000D01*
D27*
X121500000Y-113500000D02*
X121000000Y-113000000D01*
D26*
X117460000Y-112500000D02*
X118500000Y-111460000D01*
D27*
X115425000Y-126095000D02*
X116695000Y-126095000D01*
D26*
X118500000Y-111460000D02*
X118790000Y-111460000D01*
X104000000Y-112730000D02*
X111270000Y-112730000D01*
D27*
X119235000Y-128635000D02*
X120575000Y-128635000D01*
D26*
X119460000Y-111460000D02*
X121000000Y-113000000D01*
X122250000Y-107710000D02*
X118500000Y-111460000D01*
D27*
X124351000Y-113500000D02*
X121500000Y-113500000D01*
D26*
X111500000Y-112500000D02*
X117460000Y-112500000D01*
D27*
X115500000Y-126020000D02*
X115425000Y-126095000D01*
D26*
X118500000Y-111460000D02*
X119460000Y-111460000D01*
%TO.N,GND*%
X118500000Y-116540000D02*
X119460000Y-116540000D01*
D27*
X119155000Y-129905000D02*
X118500000Y-129250000D01*
X130535000Y-116035000D02*
X130535000Y-123885000D01*
D25*
X106062500Y-122062500D02*
X106000000Y-122000000D01*
D27*
X129040000Y-119540000D02*
X130500000Y-121000000D01*
D26*
X110770000Y-115270000D02*
X111500000Y-116000000D01*
D27*
X128000000Y-113500000D02*
X130535000Y-116035000D01*
X126637500Y-113500000D02*
X128000000Y-113500000D01*
D25*
X106000000Y-117000000D02*
X102000000Y-117000000D01*
X106062500Y-127000000D02*
X106062500Y-122062500D01*
X109540000Y-134540000D02*
X106062500Y-131062500D01*
D26*
X111500000Y-116000000D02*
X117960000Y-116000000D01*
D25*
X106062500Y-131062500D02*
X106062500Y-127000000D01*
D26*
X117960000Y-116000000D02*
X118500000Y-116540000D01*
D27*
X126637500Y-113500000D02*
X125600000Y-113500000D01*
D26*
X120500000Y-121500000D02*
X120500000Y-118500000D01*
X120500000Y-118500000D02*
X118500000Y-116500000D01*
D27*
X125500000Y-113600000D02*
X125500000Y-115500000D01*
D26*
X119460000Y-116540000D02*
X121000000Y-115000000D01*
D27*
X127000000Y-119540000D02*
X129040000Y-119540000D01*
D25*
X106000000Y-122000000D02*
X106000000Y-117000000D01*
D27*
X125600000Y-113500000D02*
X125500000Y-113600000D01*
X120705000Y-129905000D02*
X119155000Y-129905000D01*
D25*
X111000000Y-134540000D02*
X109540000Y-134540000D01*
D28*
%TO.N,VOUT*%
X125600000Y-133010000D02*
X128130000Y-135540000D01*
X124000000Y-119540000D02*
X124000000Y-122500000D01*
X132420000Y-135540000D02*
X135040000Y-132920000D01*
X124000000Y-122500000D02*
X125600000Y-124100000D01*
X128130000Y-135540000D02*
X132420000Y-135540000D01*
X125600000Y-124100000D02*
X125600000Y-133010000D01*
D27*
%TO.N,Net-(D1-A)*%
X126649000Y-112550000D02*
X129750000Y-109449000D01*
X129750000Y-109449000D02*
X129750000Y-106000000D01*
D28*
%TO.N,Net-(U2-FB)*%
X124000000Y-117000000D02*
X127000000Y-117000000D01*
X126649000Y-116649000D02*
X127000000Y-117000000D01*
X126649000Y-114450000D02*
X126649000Y-116649000D01*
%TO.N,/EN*%
X122000000Y-124800000D02*
X120705000Y-126095000D01*
X123450500Y-114450000D02*
X122000000Y-115900500D01*
X122000000Y-115900500D02*
X122000000Y-124800000D01*
X124351000Y-114450000D02*
X123450500Y-114450000D01*
%TO.N,Net-(U3-K)*%
X121385000Y-127365000D02*
X120705000Y-127365000D01*
X122600000Y-130600000D02*
X121700000Y-131500000D01*
X120705000Y-127365000D02*
X119998500Y-127365000D01*
X113500000Y-131500000D02*
X112600000Y-130600000D01*
X112600000Y-127600000D02*
X111000000Y-126000000D01*
X121449999Y-127365000D02*
X122600000Y-128515001D01*
X123710000Y-125040000D02*
X121385000Y-127365000D01*
X112600000Y-130600000D02*
X112600000Y-127600000D01*
D26*
X111000000Y-122000000D02*
X111000000Y-126000000D01*
D25*
X107937500Y-126050000D02*
X110950000Y-126050000D01*
X110950000Y-126050000D02*
X111000000Y-126000000D01*
D28*
X121700000Y-131500000D02*
X113500000Y-131500000D01*
X120575000Y-127365000D02*
X121449999Y-127365000D01*
X122600000Y-128515001D02*
X122600000Y-130600000D01*
X124000000Y-125040000D02*
X123710000Y-125040000D01*
D25*
%TO.N,Net-(U3-REF)*%
X111000000Y-131941938D02*
X111029031Y-131970969D01*
X111000000Y-128540000D02*
X111000000Y-131941938D01*
X110410000Y-127950000D02*
X111000000Y-128540000D01*
X107937500Y-127950000D02*
X110410000Y-127950000D01*
%TD*%
%TA.AperFunction,Conductor*%
%TO.N,GND*%
G36*
X133037976Y-109727049D02*
G01*
X133085967Y-109777830D01*
X133099500Y-109834160D01*
X133099500Y-127742670D01*
X133094576Y-127777265D01*
X133052402Y-127922426D01*
X133052401Y-127922432D01*
X133049500Y-127959298D01*
X133049500Y-129040701D01*
X133052401Y-129077567D01*
X133052402Y-129077573D01*
X133094576Y-129222733D01*
X133099500Y-129257328D01*
X133099500Y-133669090D01*
X133095190Y-133701499D01*
X132960949Y-134197261D01*
X132928940Y-134252533D01*
X132228294Y-134953181D01*
X132166971Y-134986666D01*
X132140613Y-134989500D01*
X128409387Y-134989500D01*
X128342348Y-134969815D01*
X128321706Y-134953181D01*
X126186819Y-132818294D01*
X126153334Y-132756971D01*
X126150500Y-132730613D01*
X126150500Y-124027527D01*
X126150500Y-124027525D01*
X126112984Y-123887515D01*
X126108866Y-123880382D01*
X126040510Y-123761985D01*
X125609622Y-123331097D01*
X125581171Y-123286882D01*
X125524209Y-123134691D01*
X125127823Y-122075620D01*
X125124686Y-122066080D01*
X125124228Y-122064470D01*
X125124224Y-122064461D01*
X125120935Y-122057294D01*
X125120629Y-122056569D01*
X125120621Y-122056547D01*
X125109046Y-122030784D01*
X125104924Y-122019353D01*
X125104805Y-122019397D01*
X125103139Y-122014814D01*
X124720938Y-121175383D01*
X124711073Y-121106213D01*
X124740171Y-121042691D01*
X124798992Y-121004983D01*
X124833791Y-121000000D01*
X128500000Y-121000000D01*
X128500000Y-118000000D01*
X127998214Y-118000000D01*
X127931175Y-117980315D01*
X127885420Y-117927511D01*
X127875476Y-117858353D01*
X127899260Y-117801273D01*
X128025056Y-117634691D01*
X128025058Y-117634689D01*
X128124229Y-117435528D01*
X128185115Y-117221536D01*
X128205643Y-117000000D01*
X128185115Y-116778464D01*
X128124229Y-116564472D01*
X128124224Y-116564461D01*
X128025061Y-116365316D01*
X128025056Y-116365308D01*
X128001487Y-116334098D01*
X127890981Y-116187764D01*
X127885697Y-116182947D01*
X127873018Y-116169527D01*
X127227268Y-115374894D01*
X127200266Y-115310453D01*
X127199500Y-115296692D01*
X127199500Y-115256632D01*
X127219185Y-115189593D01*
X127271989Y-115143838D01*
X127278011Y-115141277D01*
X127281559Y-115139877D01*
X127281564Y-115139877D01*
X127422342Y-115084361D01*
X127542922Y-114992922D01*
X127634361Y-114872342D01*
X127689877Y-114731564D01*
X127700500Y-114643102D01*
X127700500Y-114256898D01*
X127689877Y-114168436D01*
X127634361Y-114027658D01*
X127634360Y-114027657D01*
X127634360Y-114027656D01*
X127542922Y-113907077D01*
X127422343Y-113815639D01*
X127281561Y-113760122D01*
X127235926Y-113754642D01*
X127193102Y-113749500D01*
X126081898Y-113749500D01*
X126042853Y-113754188D01*
X125993438Y-113760122D01*
X125852656Y-113815639D01*
X125732077Y-113907077D01*
X125640638Y-114027658D01*
X125640637Y-114027660D01*
X125615354Y-114091774D01*
X125572449Y-114146918D01*
X125506541Y-114170111D01*
X125438556Y-114153990D01*
X125390080Y-114103673D01*
X125384646Y-114091774D01*
X125356535Y-114020490D01*
X125350253Y-113950904D01*
X125356534Y-113929510D01*
X125365380Y-113907078D01*
X125414877Y-113781564D01*
X125425500Y-113693102D01*
X125425500Y-113306898D01*
X125414877Y-113218436D01*
X125359361Y-113077658D01*
X125359360Y-113077657D01*
X125356534Y-113070490D01*
X125350253Y-113000903D01*
X125356534Y-112979510D01*
X125359361Y-112972342D01*
X125384646Y-112908223D01*
X125427551Y-112853081D01*
X125493459Y-112829888D01*
X125561443Y-112846008D01*
X125609920Y-112896325D01*
X125615350Y-112908214D01*
X125630886Y-112947612D01*
X125640639Y-112972343D01*
X125732077Y-113092922D01*
X125852656Y-113184360D01*
X125852657Y-113184360D01*
X125852658Y-113184361D01*
X125993436Y-113239877D01*
X126081898Y-113250500D01*
X126456355Y-113250500D01*
X126474001Y-113251762D01*
X126500000Y-113255500D01*
X126500003Y-113255500D01*
X127750005Y-113255500D01*
X127771811Y-113255029D01*
X127913210Y-113228427D01*
X128041388Y-113163066D01*
X130006235Y-111777011D01*
X130962164Y-111102674D01*
X131028292Y-111080115D01*
X131029919Y-111080080D01*
X131029999Y-111080000D01*
X131030000Y-111080000D01*
X131030000Y-111079999D01*
X131046251Y-111063748D01*
X131049685Y-111052056D01*
X131082520Y-111017770D01*
X132904023Y-109732833D01*
X132970150Y-109710275D01*
X133037976Y-109727049D01*
G37*
%TD.AperFunction*%
%TA.AperFunction,Conductor*%
G36*
X125561443Y-114746008D02*
G01*
X125609920Y-114796325D01*
X125615350Y-114808214D01*
X125630886Y-114847612D01*
X125640639Y-114872343D01*
X125732077Y-114992922D01*
X125852656Y-115084360D01*
X125852657Y-115084360D01*
X125852658Y-115084361D01*
X125993436Y-115139877D01*
X125993438Y-115139877D01*
X125993443Y-115139879D01*
X126001148Y-115141827D01*
X126000545Y-115144209D01*
X126053490Y-115166908D01*
X126092628Y-115224787D01*
X126098500Y-115262494D01*
X126098500Y-115413675D01*
X126096136Y-115437774D01*
X125967008Y-116089513D01*
X125934669Y-116151449D01*
X125896755Y-116178267D01*
X125551381Y-116335519D01*
X125482211Y-116345384D01*
X125448615Y-116335519D01*
X124772617Y-116027730D01*
X124719761Y-115982035D01*
X124700000Y-115915018D01*
X124700000Y-115274500D01*
X124719685Y-115207461D01*
X124772489Y-115161706D01*
X124824000Y-115150500D01*
X124918097Y-115150500D01*
X124918102Y-115150500D01*
X125006564Y-115139877D01*
X125147342Y-115084361D01*
X125267922Y-114992922D01*
X125359361Y-114872342D01*
X125384646Y-114808223D01*
X125427551Y-114753081D01*
X125493459Y-114729888D01*
X125561443Y-114746008D01*
G37*
%TD.AperFunction*%
%TA.AperFunction,Conductor*%
G36*
X135002702Y-100200617D02*
G01*
X135412917Y-100218528D01*
X135423654Y-100219468D01*
X135828057Y-100272708D01*
X135838695Y-100274583D01*
X136236925Y-100362869D01*
X136247365Y-100365667D01*
X136636363Y-100488317D01*
X136646524Y-100492015D01*
X137023363Y-100648108D01*
X137033155Y-100652674D01*
X137394965Y-100841020D01*
X137404305Y-100846413D01*
X137689636Y-101028189D01*
X137748309Y-101065568D01*
X137757170Y-101071772D01*
X138080766Y-101320076D01*
X138089053Y-101327030D01*
X138389767Y-101602583D01*
X138397416Y-101610232D01*
X138672969Y-101910946D01*
X138679923Y-101919233D01*
X138928227Y-102242829D01*
X138934431Y-102251690D01*
X139153578Y-102595680D01*
X139158987Y-102605048D01*
X139347322Y-102966838D01*
X139351894Y-102976642D01*
X139507983Y-103353473D01*
X139511683Y-103363639D01*
X139634331Y-103752630D01*
X139637131Y-103763078D01*
X139725414Y-104161296D01*
X139727292Y-104171950D01*
X139780529Y-104576326D01*
X139781472Y-104587102D01*
X139799382Y-104997297D01*
X139799500Y-105002706D01*
X139799500Y-132997293D01*
X139799382Y-133002702D01*
X139781472Y-133412897D01*
X139780529Y-133423673D01*
X139727292Y-133828049D01*
X139725414Y-133838703D01*
X139637131Y-134236921D01*
X139634331Y-134247369D01*
X139511683Y-134636360D01*
X139507983Y-134646526D01*
X139351894Y-135023357D01*
X139347322Y-135033161D01*
X139158987Y-135394951D01*
X139153578Y-135404319D01*
X138934431Y-135748309D01*
X138928227Y-135757170D01*
X138679923Y-136080766D01*
X138672969Y-136089053D01*
X138397416Y-136389767D01*
X138389767Y-136397416D01*
X138089053Y-136672969D01*
X138080766Y-136679923D01*
X137757170Y-136928227D01*
X137748309Y-136934431D01*
X137404319Y-137153578D01*
X137394951Y-137158987D01*
X137033161Y-137347322D01*
X137023357Y-137351894D01*
X136646526Y-137507983D01*
X136636360Y-137511683D01*
X136247369Y-137634331D01*
X136236921Y-137637131D01*
X135838703Y-137725414D01*
X135828049Y-137727292D01*
X135423673Y-137780529D01*
X135412897Y-137781472D01*
X135002703Y-137799382D01*
X134997294Y-137799500D01*
X102002706Y-137799500D01*
X101997297Y-137799382D01*
X101587102Y-137781472D01*
X101576326Y-137780529D01*
X101171950Y-137727292D01*
X101161296Y-137725414D01*
X100763078Y-137637131D01*
X100752630Y-137634331D01*
X100363639Y-137511683D01*
X100353473Y-137507983D01*
X99976642Y-137351894D01*
X99966838Y-137347322D01*
X99847126Y-137285004D01*
X99605042Y-137158983D01*
X99595686Y-137153582D01*
X99423685Y-137044004D01*
X99251690Y-136934431D01*
X99242829Y-136928227D01*
X98919233Y-136679923D01*
X98910946Y-136672969D01*
X98610232Y-136397416D01*
X98602583Y-136389767D01*
X98327030Y-136089053D01*
X98320076Y-136080766D01*
X98071772Y-135757170D01*
X98065568Y-135748309D01*
X98012070Y-135664334D01*
X97846413Y-135404305D01*
X97841020Y-135394965D01*
X97652674Y-135033155D01*
X97648105Y-135023357D01*
X97641725Y-135007955D01*
X97492015Y-134646524D01*
X97488316Y-134636360D01*
X97450332Y-134515891D01*
X97365667Y-134247365D01*
X97362868Y-134236921D01*
X97274585Y-133838703D01*
X97272707Y-133828049D01*
X97219468Y-133423654D01*
X97218528Y-133412917D01*
X97200618Y-133002702D01*
X97200500Y-132997293D01*
X97200500Y-108684108D01*
X99269500Y-108684108D01*
X99269500Y-113565891D01*
X99303608Y-113693187D01*
X99336121Y-113749500D01*
X99369500Y-113807314D01*
X99462686Y-113900500D01*
X99576814Y-113966392D01*
X99704108Y-114000500D01*
X99835892Y-114000500D01*
X117434108Y-114000500D01*
X117565892Y-114000500D01*
X120399626Y-114000500D01*
X120455921Y-114014015D01*
X120558360Y-114066211D01*
X120558363Y-114066212D01*
X120637037Y-114091774D01*
X120730591Y-114122171D01*
X120909454Y-114150501D01*
X120909455Y-114150501D01*
X121090545Y-114150501D01*
X121090547Y-114150501D01*
X121260960Y-114123509D01*
X121304548Y-114124365D01*
X121310253Y-114125499D01*
X121310256Y-114125501D01*
X121402246Y-114143799D01*
X121435930Y-114150500D01*
X121435931Y-114150500D01*
X122051328Y-114150500D01*
X122066450Y-114151425D01*
X122070466Y-114151919D01*
X122072367Y-114152074D01*
X122137145Y-114152164D01*
X122137151Y-114152162D01*
X122144073Y-114151349D01*
X122158560Y-114150500D01*
X122672113Y-114150500D01*
X122739152Y-114170185D01*
X122784907Y-114222989D01*
X122794851Y-114292147D01*
X122765826Y-114355703D01*
X122759794Y-114362181D01*
X121559491Y-115562483D01*
X121559489Y-115562486D01*
X121487016Y-115688014D01*
X121487016Y-115688015D01*
X121449500Y-115828025D01*
X121449500Y-115828027D01*
X121449500Y-124520612D01*
X121429815Y-124587651D01*
X121413181Y-124608293D01*
X120899677Y-125121796D01*
X120867139Y-125145179D01*
X120476846Y-125338957D01*
X120434218Y-125360123D01*
X120391033Y-125381564D01*
X120335890Y-125394500D01*
X119806898Y-125394500D01*
X119767853Y-125399188D01*
X119718438Y-125405122D01*
X119577656Y-125460639D01*
X119457077Y-125552077D01*
X119365639Y-125672656D01*
X119310122Y-125813438D01*
X119305464Y-125852236D01*
X119299500Y-125901898D01*
X119299500Y-126288102D01*
X119304719Y-126331561D01*
X119310122Y-126376561D01*
X119365639Y-126517343D01*
X119457079Y-126637924D01*
X119461474Y-126642319D01*
X119494959Y-126703642D01*
X119489975Y-126773334D01*
X119461474Y-126817681D01*
X119457079Y-126822075D01*
X119365639Y-126942656D01*
X119310122Y-127083438D01*
X119306827Y-127110884D01*
X119299500Y-127171898D01*
X119299500Y-127171903D01*
X119299500Y-127480191D01*
X119279815Y-127547230D01*
X119227011Y-127592985D01*
X119157853Y-127602929D01*
X119094297Y-127573904D01*
X119087819Y-127567872D01*
X117109673Y-125589726D01*
X117053328Y-125552078D01*
X117003127Y-125518535D01*
X116975467Y-125507078D01*
X116884744Y-125469499D01*
X116884738Y-125469497D01*
X116759071Y-125444500D01*
X116759069Y-125444500D01*
X116664477Y-125444500D01*
X116639273Y-125441106D01*
X116639153Y-125441738D01*
X116634379Y-125440823D01*
X116510806Y-125427093D01*
X116446351Y-125400125D01*
X116406707Y-125342591D01*
X116400500Y-125303851D01*
X116400500Y-123175881D01*
X116402624Y-123153029D01*
X116642758Y-121872306D01*
X116645361Y-121861253D01*
X116685115Y-121721536D01*
X116700048Y-121560364D01*
X116700719Y-121554602D01*
X116701147Y-121551553D01*
X116701347Y-121549412D01*
X116701347Y-121549403D01*
X116701481Y-121546768D01*
X116701562Y-121546772D01*
X116701855Y-121540864D01*
X116705643Y-121500000D01*
X116685115Y-121278464D01*
X116624229Y-121064472D01*
X116624224Y-121064461D01*
X116525061Y-120865316D01*
X116525056Y-120865308D01*
X116390979Y-120687761D01*
X116226562Y-120537876D01*
X116226560Y-120537874D01*
X116037404Y-120420754D01*
X116037398Y-120420752D01*
X115829940Y-120340382D01*
X115611243Y-120299500D01*
X115388757Y-120299500D01*
X115170060Y-120340382D01*
X115038864Y-120391207D01*
X114962601Y-120420752D01*
X114962595Y-120420754D01*
X114773439Y-120537874D01*
X114773437Y-120537876D01*
X114609020Y-120687761D01*
X114474943Y-120865308D01*
X114474938Y-120865316D01*
X114375775Y-121064461D01*
X114375769Y-121064476D01*
X114314885Y-121278462D01*
X114314884Y-121278464D01*
X114294357Y-121499999D01*
X114294357Y-121500000D01*
X114314884Y-121721535D01*
X114314885Y-121721538D01*
X114354631Y-121861230D01*
X114357241Y-121872312D01*
X114422721Y-122221536D01*
X114593937Y-123134691D01*
X114597376Y-123153029D01*
X114599500Y-123175881D01*
X114599500Y-125308478D01*
X114579815Y-125375517D01*
X114527011Y-125421272D01*
X114520991Y-125423832D01*
X114427658Y-125460638D01*
X114307077Y-125552077D01*
X114215639Y-125672656D01*
X114160122Y-125813438D01*
X114155464Y-125852236D01*
X114149500Y-125901898D01*
X114149500Y-126288102D01*
X114154719Y-126331561D01*
X114160122Y-126376561D01*
X114215639Y-126517343D01*
X114307079Y-126637924D01*
X114311474Y-126642319D01*
X114344959Y-126703642D01*
X114339975Y-126773334D01*
X114311474Y-126817681D01*
X114307079Y-126822075D01*
X114215639Y-126942656D01*
X114160122Y-127083438D01*
X114156827Y-127110884D01*
X114149500Y-127171898D01*
X114149500Y-127558102D01*
X114151398Y-127573904D01*
X114160122Y-127646561D01*
X114215639Y-127787343D01*
X114307079Y-127907924D01*
X114311474Y-127912319D01*
X114344959Y-127973642D01*
X114339975Y-128043334D01*
X114311474Y-128087681D01*
X114307079Y-128092075D01*
X114215639Y-128212656D01*
X114160122Y-128353438D01*
X114154188Y-128402853D01*
X114149500Y-128441898D01*
X114149500Y-128828102D01*
X114152190Y-128850499D01*
X114160122Y-128916561D01*
X114215639Y-129057343D01*
X114307077Y-129177922D01*
X114311474Y-129182319D01*
X114344959Y-129243642D01*
X114339975Y-129313334D01*
X114311474Y-129357681D01*
X114307079Y-129362075D01*
X114215639Y-129482656D01*
X114160122Y-129623438D01*
X114154188Y-129672853D01*
X114149500Y-129711898D01*
X114149500Y-130098102D01*
X114155126Y-130144954D01*
X114160122Y-130186561D01*
X114215639Y-130327343D01*
X114307077Y-130447922D01*
X114427656Y-130539360D01*
X114427657Y-130539360D01*
X114427658Y-130539361D01*
X114568436Y-130594877D01*
X114656898Y-130605500D01*
X114656903Y-130605500D01*
X116193097Y-130605500D01*
X116193102Y-130605500D01*
X116281564Y-130594877D01*
X116422342Y-130539361D01*
X116542922Y-130447922D01*
X116634361Y-130327342D01*
X116689877Y-130186564D01*
X116700500Y-130098102D01*
X116700500Y-129711898D01*
X116689877Y-129623436D01*
X116634361Y-129482658D01*
X116634360Y-129482657D01*
X116634360Y-129482656D01*
X116542920Y-129362075D01*
X116538526Y-129357681D01*
X116505041Y-129296358D01*
X116510025Y-129226666D01*
X116538526Y-129182319D01*
X116542923Y-129177922D01*
X116634360Y-129057343D01*
X116634359Y-129057343D01*
X116634361Y-129057342D01*
X116689877Y-128916564D01*
X116700500Y-128828102D01*
X116700500Y-128441898D01*
X116689877Y-128353436D01*
X116634361Y-128212658D01*
X116634360Y-128212657D01*
X116634360Y-128212656D01*
X116542920Y-128092075D01*
X116538526Y-128087681D01*
X116505041Y-128026358D01*
X116510025Y-127956666D01*
X116538526Y-127912319D01*
X116542920Y-127907924D01*
X116634360Y-127787343D01*
X116634359Y-127787343D01*
X116634361Y-127787342D01*
X116689877Y-127646564D01*
X116700500Y-127558102D01*
X116700500Y-127319808D01*
X116720185Y-127252769D01*
X116772989Y-127207014D01*
X116842147Y-127197070D01*
X116905703Y-127226095D01*
X116912181Y-127232127D01*
X118820324Y-129140271D01*
X118820327Y-129140274D01*
X118820330Y-129140276D01*
X118876672Y-129177922D01*
X118926873Y-129211465D01*
X119045256Y-129260501D01*
X119045260Y-129260501D01*
X119045261Y-129260502D01*
X119170928Y-129285500D01*
X119170931Y-129285500D01*
X119335528Y-129285500D01*
X119360726Y-129288893D01*
X119360848Y-129288261D01*
X119365621Y-129289175D01*
X119365626Y-129289175D01*
X119365628Y-129289176D01*
X119802234Y-129337688D01*
X119894204Y-129336312D01*
X119903831Y-129336169D01*
X119907607Y-129335875D01*
X119917237Y-129335500D01*
X121343097Y-129335500D01*
X121343102Y-129335500D01*
X121431564Y-129324877D01*
X121572342Y-129269361D01*
X121692922Y-129177922D01*
X121784361Y-129057342D01*
X121810146Y-128991955D01*
X121853051Y-128936813D01*
X121918959Y-128913620D01*
X121986943Y-128929740D01*
X122035420Y-128980057D01*
X122049500Y-129037447D01*
X122049500Y-130320613D01*
X122029815Y-130387652D01*
X122013181Y-130408294D01*
X121508294Y-130913181D01*
X121446971Y-130946666D01*
X121420613Y-130949500D01*
X113779387Y-130949500D01*
X113712348Y-130929815D01*
X113691706Y-130913181D01*
X113186819Y-130408294D01*
X113153334Y-130346971D01*
X113150500Y-130320613D01*
X113150500Y-127527527D01*
X113150500Y-127527525D01*
X113112984Y-127387515D01*
X113095065Y-127356478D01*
X113040510Y-127261985D01*
X112609622Y-126831097D01*
X112581171Y-126786882D01*
X112576100Y-126773334D01*
X112281208Y-125985435D01*
X112158368Y-125657228D01*
X112150500Y-125613762D01*
X112150500Y-122360490D01*
X112155234Y-122326555D01*
X112168918Y-122278464D01*
X112185115Y-122221536D01*
X112205643Y-122000000D01*
X112185115Y-121778464D01*
X112124229Y-121564472D01*
X112122188Y-121560373D01*
X112025061Y-121365316D01*
X112025056Y-121365308D01*
X111890979Y-121187761D01*
X111726562Y-121037876D01*
X111726560Y-121037874D01*
X111537404Y-120920754D01*
X111537398Y-120920752D01*
X111329940Y-120840382D01*
X111111243Y-120799500D01*
X110888757Y-120799500D01*
X110670060Y-120840382D01*
X110538864Y-120891207D01*
X110462601Y-120920752D01*
X110462595Y-120920754D01*
X110273439Y-121037874D01*
X110273437Y-121037876D01*
X110109020Y-121187761D01*
X109974943Y-121365308D01*
X109974938Y-121365316D01*
X109875775Y-121564461D01*
X109875769Y-121564476D01*
X109814885Y-121778462D01*
X109814884Y-121778464D01*
X109794357Y-121999999D01*
X109794357Y-122000000D01*
X109814884Y-122221535D01*
X109844766Y-122326555D01*
X109849500Y-122360490D01*
X109849500Y-124936186D01*
X109829815Y-125003225D01*
X109777011Y-125048980D01*
X109752739Y-125057157D01*
X109361839Y-125145179D01*
X109356101Y-125146471D01*
X109328861Y-125149500D01*
X107848806Y-125149500D01*
X107674841Y-125184103D01*
X107674832Y-125184106D01*
X107510952Y-125251987D01*
X107510950Y-125251988D01*
X107396291Y-125328602D01*
X107329614Y-125349480D01*
X107327400Y-125349500D01*
X107306898Y-125349500D01*
X107267853Y-125354188D01*
X107218438Y-125360122D01*
X107077656Y-125415639D01*
X106957077Y-125507077D01*
X106865639Y-125627656D01*
X106810122Y-125768438D01*
X106805551Y-125806508D01*
X106799500Y-125856898D01*
X106799500Y-126243102D01*
X106804903Y-126288096D01*
X106810122Y-126331561D01*
X106865639Y-126472343D01*
X106957077Y-126592922D01*
X107077656Y-126684360D01*
X107077657Y-126684360D01*
X107077658Y-126684361D01*
X107218436Y-126739877D01*
X107306898Y-126750500D01*
X107327400Y-126750500D01*
X107394439Y-126770185D01*
X107396288Y-126771396D01*
X107510953Y-126848013D01*
X107584120Y-126878319D01*
X107601308Y-126885439D01*
X107655712Y-126929280D01*
X107677777Y-126995574D01*
X107660498Y-127063273D01*
X107609361Y-127110884D01*
X107601308Y-127114561D01*
X107510952Y-127151987D01*
X107510950Y-127151988D01*
X107396291Y-127228602D01*
X107329614Y-127249480D01*
X107327400Y-127249500D01*
X107306898Y-127249500D01*
X107267853Y-127254188D01*
X107218438Y-127260122D01*
X107077656Y-127315639D01*
X106957077Y-127407077D01*
X106865639Y-127527656D01*
X106810122Y-127668438D01*
X106804188Y-127717853D01*
X106799500Y-127756898D01*
X106799500Y-128143102D01*
X106803569Y-128176986D01*
X106810122Y-128231561D01*
X106865639Y-128372343D01*
X106957077Y-128492922D01*
X107077656Y-128584360D01*
X107077657Y-128584360D01*
X107077658Y-128584361D01*
X107218436Y-128639877D01*
X107306898Y-128650500D01*
X107327400Y-128650500D01*
X107394439Y-128670185D01*
X107396288Y-128671396D01*
X107510953Y-128748013D01*
X107674834Y-128815894D01*
X107674836Y-128815894D01*
X107674841Y-128815896D01*
X107848804Y-128850499D01*
X107848807Y-128850500D01*
X107848809Y-128850500D01*
X109447238Y-128850500D01*
X109514277Y-128870185D01*
X109526434Y-128879085D01*
X109876406Y-129169583D01*
X109915418Y-129227546D01*
X109919084Y-129242143D01*
X110097376Y-130193030D01*
X110099500Y-130215882D01*
X110099500Y-130324114D01*
X110097376Y-130346966D01*
X109857241Y-131627680D01*
X109854632Y-131638760D01*
X109814884Y-131778464D01*
X109799947Y-131939661D01*
X109799280Y-131945401D01*
X109798847Y-131948492D01*
X109798646Y-131950648D01*
X109798514Y-131953261D01*
X109798438Y-131953257D01*
X109798136Y-131959199D01*
X109794357Y-131999995D01*
X109794357Y-131999998D01*
X109814884Y-132221535D01*
X109814885Y-132221537D01*
X109875769Y-132435523D01*
X109875775Y-132435538D01*
X109974938Y-132634683D01*
X109974943Y-132634691D01*
X110109020Y-132812238D01*
X110273437Y-132962123D01*
X110273439Y-132962125D01*
X110462595Y-133079245D01*
X110462596Y-133079245D01*
X110462599Y-133079247D01*
X110670060Y-133159618D01*
X110888757Y-133200500D01*
X110888759Y-133200500D01*
X111111241Y-133200500D01*
X111111243Y-133200500D01*
X111329940Y-133159618D01*
X111537401Y-133079247D01*
X111726562Y-132962124D01*
X111890981Y-132812236D01*
X112025058Y-132634689D01*
X112124229Y-132435528D01*
X112185115Y-132221536D01*
X112205643Y-132000000D01*
X112185115Y-131778464D01*
X112145361Y-131638745D01*
X112142759Y-131627696D01*
X112053608Y-131152221D01*
X112060601Y-131082704D01*
X112104068Y-131028001D01*
X112170210Y-131005483D01*
X112238026Y-131022299D01*
X112263165Y-131041690D01*
X113161985Y-131940510D01*
X113161986Y-131940511D01*
X113161988Y-131940512D01*
X113179545Y-131950648D01*
X113265026Y-132000000D01*
X113287515Y-132012984D01*
X113427525Y-132050500D01*
X113427528Y-132050500D01*
X121772472Y-132050500D01*
X121772474Y-132050500D01*
X121772475Y-132050500D01*
X121912485Y-132012984D01*
X121934974Y-132000000D01*
X122038015Y-131940510D01*
X123040510Y-130938015D01*
X123112984Y-130812485D01*
X123116463Y-130799500D01*
X123150500Y-130672475D01*
X123150500Y-128442526D01*
X123112984Y-128302516D01*
X123077055Y-128240285D01*
X123040510Y-128176986D01*
X122283705Y-127420181D01*
X122250220Y-127358858D01*
X122255204Y-127289166D01*
X122283705Y-127244819D01*
X122643085Y-126885439D01*
X123027502Y-126501021D01*
X123088058Y-126467707D01*
X124088276Y-126243502D01*
X124105585Y-126241586D01*
X124105534Y-126241029D01*
X124111239Y-126240500D01*
X124111243Y-126240500D01*
X124329940Y-126199618D01*
X124391271Y-126175857D01*
X124403803Y-126171755D01*
X124410230Y-126170023D01*
X124414724Y-126168813D01*
X124416607Y-126168218D01*
X124416609Y-126168216D01*
X124416622Y-126168213D01*
X124478188Y-126143047D01*
X124478191Y-126143044D01*
X124481664Y-126141625D01*
X124491278Y-126137114D01*
X124537401Y-126119247D01*
X124726562Y-126002124D01*
X124823170Y-125914053D01*
X124841962Y-125896923D01*
X124904766Y-125866306D01*
X124974153Y-125874503D01*
X125028093Y-125918913D01*
X125049461Y-125985435D01*
X125049500Y-125988560D01*
X125049500Y-132937526D01*
X125049500Y-133082474D01*
X125087016Y-133222485D01*
X125159490Y-133348015D01*
X127791985Y-135980510D01*
X127917515Y-136052984D01*
X128057525Y-136090500D01*
X128057528Y-136090500D01*
X132492472Y-136090500D01*
X132492474Y-136090500D01*
X132492475Y-136090500D01*
X132632485Y-136052984D01*
X132758015Y-135980510D01*
X133707108Y-135031415D01*
X133762610Y-134999345D01*
X133851140Y-134975558D01*
X133928600Y-134954747D01*
X133960775Y-134950500D01*
X136465890Y-134950500D01*
X136465892Y-134950500D01*
X136593186Y-134916392D01*
X136707314Y-134850500D01*
X136800500Y-134757314D01*
X136866392Y-134643186D01*
X136900500Y-134515892D01*
X136900500Y-109734108D01*
X136866392Y-109606814D01*
X136800500Y-109492686D01*
X136707314Y-109399500D01*
X136641421Y-109361456D01*
X136593185Y-109333607D01*
X136593186Y-109333607D01*
X136591899Y-109333263D01*
X136590936Y-109332676D01*
X136585682Y-109330500D01*
X136586021Y-109329680D01*
X136532241Y-109296894D01*
X136501716Y-109234045D01*
X136500000Y-109213490D01*
X136500000Y-108300000D01*
X136429500Y-108300000D01*
X136362461Y-108280315D01*
X136316706Y-108227511D01*
X136305500Y-108176000D01*
X136305500Y-105800064D01*
X136305499Y-105799173D01*
X136305499Y-105799171D01*
X136284789Y-105656789D01*
X136224805Y-105526009D01*
X136130405Y-105417426D01*
X134688275Y-104171950D01*
X131730407Y-101617427D01*
X131706373Y-101597924D01*
X131706368Y-101597920D01*
X131580679Y-101527893D01*
X131440352Y-101496113D01*
X131440351Y-101496113D01*
X131296754Y-101505156D01*
X131196342Y-101541637D01*
X131126610Y-101546027D01*
X131065575Y-101512021D01*
X131032614Y-101450415D01*
X131030000Y-101425090D01*
X131030000Y-100920000D01*
X120870000Y-100920000D01*
X120870000Y-101375500D01*
X120850315Y-101442539D01*
X120797511Y-101488294D01*
X120746000Y-101499500D01*
X117434108Y-101499500D01*
X117306812Y-101533608D01*
X117192686Y-101599500D01*
X117192683Y-101599502D01*
X117099502Y-101692683D01*
X117099500Y-101692686D01*
X117033608Y-101806812D01*
X116999500Y-101934108D01*
X116999500Y-108125500D01*
X116979815Y-108192539D01*
X116927011Y-108238294D01*
X116875500Y-108249500D01*
X99704108Y-108249500D01*
X99576812Y-108283608D01*
X99462686Y-108349500D01*
X99462683Y-108349502D01*
X99369502Y-108442683D01*
X99369500Y-108442686D01*
X99303608Y-108556812D01*
X99269500Y-108684108D01*
X97200500Y-108684108D01*
X97200500Y-105002706D01*
X97200618Y-104997297D01*
X97209891Y-104784906D01*
X97218528Y-104587080D01*
X97219468Y-104576347D01*
X97272709Y-104171938D01*
X97274582Y-104161308D01*
X97362870Y-103763068D01*
X97365668Y-103752630D01*
X97488316Y-103363639D01*
X97492016Y-103353473D01*
X97593711Y-103107961D01*
X97648111Y-102976627D01*
X97652669Y-102966853D01*
X97841025Y-102605024D01*
X97846407Y-102595703D01*
X98065574Y-102251680D01*
X98071765Y-102242837D01*
X98320083Y-101919224D01*
X98327021Y-101910955D01*
X98602594Y-101610220D01*
X98610220Y-101602594D01*
X98910955Y-101327021D01*
X98919224Y-101320083D01*
X99242837Y-101071765D01*
X99251680Y-101065574D01*
X99595703Y-100846407D01*
X99605024Y-100841025D01*
X99966853Y-100652669D01*
X99976627Y-100648111D01*
X100353482Y-100492012D01*
X100363629Y-100488319D01*
X100752639Y-100365665D01*
X100763068Y-100362870D01*
X101161308Y-100274582D01*
X101171938Y-100272709D01*
X101576347Y-100219468D01*
X101587080Y-100218528D01*
X101997297Y-100200617D01*
X102002706Y-100200500D01*
X102039882Y-100200500D01*
X134960118Y-100200500D01*
X134997294Y-100200500D01*
X135002702Y-100200617D01*
G37*
%TD.AperFunction*%
%TD*%
%TA.AperFunction,Conductor*%
%TO.N,Net-(U3-K)*%
G36*
X112025304Y-127237436D02*
G01*
X112237436Y-127025304D01*
X111739104Y-125693853D01*
X110999293Y-125999293D01*
X110693853Y-126739104D01*
X112025304Y-127237436D01*
G37*
%TD.AperFunction*%
%TD*%
%TA.AperFunction,Conductor*%
%TO.N,VOUT*%
G36*
X125025304Y-123737436D02*
G01*
X125237436Y-123525304D01*
X124739104Y-122193853D01*
X123999293Y-122499293D01*
X123693853Y-123239104D01*
X125025304Y-123737436D01*
G37*
%TD.AperFunction*%
%TD*%
%TA.AperFunction,Conductor*%
%TO.N,VIN*%
G36*
X122235710Y-106027711D02*
G01*
X122238525Y-106036212D01*
X122237997Y-106038932D01*
X120970050Y-109993424D01*
X120967423Y-109997877D01*
X120066033Y-110954122D01*
X120057864Y-110957792D01*
X120049494Y-110954611D01*
X120049246Y-110954370D01*
X119002726Y-109907850D01*
X118999299Y-109899577D01*
X119000257Y-109894942D01*
X119748937Y-108162175D01*
X119752025Y-108157967D01*
X122219208Y-106026505D01*
X122227708Y-106023691D01*
X122235710Y-106027711D01*
G37*
%TD.AperFunction*%
%TD*%
%TA.AperFunction,Conductor*%
%TO.N,Net-(U3-REF)*%
G36*
X110500000Y-130140000D02*
G01*
X111500000Y-130140000D01*
X111800000Y-128540000D01*
X111000000Y-128539000D01*
X110200000Y-128540000D01*
X110500000Y-130140000D01*
G37*
%TD.AperFunction*%
%TD*%
%TA.AperFunction,Conductor*%
%TO.N,VOUT*%
G36*
X124727934Y-119841505D02*
G01*
X124734258Y-119847843D01*
X124734247Y-119856798D01*
X124734091Y-119857156D01*
X124153120Y-121133148D01*
X124146573Y-121139258D01*
X124142472Y-121140000D01*
X123857528Y-121140000D01*
X123849255Y-121136573D01*
X123846880Y-121133148D01*
X123265907Y-119857154D01*
X123265598Y-119848207D01*
X123271708Y-119841660D01*
X123272010Y-119841528D01*
X123995512Y-119540864D01*
X124004461Y-119540854D01*
X124727934Y-119841505D01*
G37*
%TD.AperFunction*%
%TD*%
%TA.AperFunction,Conductor*%
%TO.N,Net-(U2-FB)*%
G36*
X126698339Y-116271708D02*
G01*
X126698495Y-116272066D01*
X126999134Y-116995510D01*
X126999144Y-117004463D01*
X126999135Y-117004485D01*
X126999134Y-117004490D01*
X126698495Y-117727933D01*
X126692156Y-117734258D01*
X126683201Y-117734247D01*
X126682843Y-117734091D01*
X125406852Y-117153119D01*
X125400742Y-117146572D01*
X125400000Y-117142471D01*
X125400000Y-116857528D01*
X125403427Y-116849255D01*
X125406852Y-116846880D01*
X126682845Y-116265907D01*
X126691792Y-116265598D01*
X126698339Y-116271708D01*
G37*
%TD.AperFunction*%
%TD*%
%TA.AperFunction,Conductor*%
%TO.N,VIN*%
G36*
X116285920Y-121499982D02*
G01*
X116294188Y-121503419D01*
X116297605Y-121511697D01*
X116297405Y-121513838D01*
X116001790Y-123090456D01*
X115996897Y-123097956D01*
X115990290Y-123100000D01*
X115009710Y-123100000D01*
X115001437Y-123096573D01*
X114998210Y-123090456D01*
X114702594Y-121513836D01*
X114704438Y-121505075D01*
X114711938Y-121500182D01*
X114714074Y-121499982D01*
X115500000Y-121499000D01*
X116285920Y-121499982D01*
G37*
%TD.AperFunction*%
%TD*%
%TA.AperFunction,Conductor*%
%TO.N,VIN*%
G36*
X123853342Y-113201952D02*
G01*
X124149062Y-113374720D01*
X124346208Y-113489898D01*
X124351623Y-113497030D01*
X124350408Y-113505902D01*
X124346208Y-113510102D01*
X123853344Y-113798046D01*
X123846150Y-113799572D01*
X123410408Y-113751156D01*
X123402564Y-113746837D01*
X123400000Y-113739528D01*
X123400000Y-113260471D01*
X123403427Y-113252198D01*
X123410406Y-113248843D01*
X123846152Y-113200427D01*
X123853342Y-113201952D01*
G37*
%TD.AperFunction*%
%TD*%
%TA.AperFunction,Conductor*%
%TO.N,/EN*%
G36*
X123782255Y-114173860D02*
G01*
X124092470Y-114320935D01*
X124341650Y-114439073D01*
X124347658Y-114445714D01*
X124347210Y-114454657D01*
X124341929Y-114460080D01*
X123798060Y-114735811D01*
X123789131Y-114736496D01*
X123787208Y-114735670D01*
X123522359Y-114592585D01*
X123519647Y-114590564D01*
X123320777Y-114391694D01*
X123317350Y-114383421D01*
X123320777Y-114375148D01*
X123324298Y-114372729D01*
X123772505Y-114173741D01*
X123781455Y-114173518D01*
X123782255Y-114173860D01*
G37*
%TD.AperFunction*%
%TD*%
%TA.AperFunction,Conductor*%
%TO.N,Net-(D1-A)*%
G36*
X126991890Y-111868627D02*
G01*
X127332267Y-112209004D01*
X127335694Y-112217277D01*
X127334717Y-112221957D01*
X127286733Y-112331912D01*
X127280284Y-112338124D01*
X127279680Y-112338342D01*
X126647200Y-112547268D01*
X126638269Y-112546609D01*
X126632683Y-112540544D01*
X126518403Y-112257930D01*
X126518479Y-112248979D01*
X126521781Y-112244540D01*
X126976152Y-111867891D01*
X126984706Y-111865251D01*
X126991890Y-111868627D01*
G37*
%TD.AperFunction*%
%TD*%
%TA.AperFunction,Conductor*%
%TO.N,Net-(D1-A)*%
G36*
X129744211Y-106035600D02*
G01*
X129749829Y-106042573D01*
X129750303Y-106045970D01*
X129716143Y-109994625D01*
X129712644Y-110002868D01*
X129711989Y-110003466D01*
X128676886Y-110876949D01*
X128668353Y-110879665D01*
X128661067Y-110876280D01*
X128315769Y-110530982D01*
X128314572Y-110529579D01*
X127932909Y-110003466D01*
X127726814Y-109719369D01*
X127724730Y-109710661D01*
X127726014Y-109706895D01*
X129728335Y-106040259D01*
X129735307Y-106034643D01*
X129744211Y-106035600D01*
G37*
%TD.AperFunction*%
%TD*%
%TA.AperFunction,Conductor*%
%TO.N,Net-(U3-K)*%
G36*
X121559193Y-126984984D02*
G01*
X121559895Y-126985631D01*
X121759010Y-127184746D01*
X121762437Y-127193019D01*
X121759010Y-127201292D01*
X121758101Y-127202111D01*
X121453729Y-127448655D01*
X121445222Y-127451207D01*
X120583683Y-127366628D01*
X120575784Y-127362409D01*
X120573204Y-127356334D01*
X120553269Y-127184746D01*
X120540753Y-127077020D01*
X120543202Y-127068410D01*
X120551025Y-127064051D01*
X120551373Y-127064016D01*
X121550669Y-126982243D01*
X121559193Y-126984984D01*
G37*
%TD.AperFunction*%
%TD*%
%TA.AperFunction,Conductor*%
%TO.N,Net-(U3-REF)*%
G36*
X111500000Y-130400000D02*
G01*
X110500000Y-130400000D01*
X110200000Y-132000000D01*
X111000000Y-132001000D01*
X111800000Y-132000000D01*
X111500000Y-130400000D01*
G37*
%TD.AperFunction*%
%TD*%
%TA.AperFunction,Conductor*%
%TO.N,VIN*%
G36*
X121726533Y-112806330D02*
G01*
X121730156Y-112809108D01*
X122114115Y-113246688D01*
X122117021Y-113254405D01*
X122117021Y-113736215D01*
X122113594Y-113744488D01*
X122105321Y-113747915D01*
X122103420Y-113747760D01*
X120914025Y-113551954D01*
X120906419Y-113547228D01*
X120904381Y-113538508D01*
X120904430Y-113538234D01*
X120997708Y-113056665D01*
X121002646Y-113049197D01*
X121005427Y-113047815D01*
X121717597Y-112805747D01*
X121726533Y-112806330D01*
G37*
%TD.AperFunction*%
%TD*%
%TA.AperFunction,Conductor*%
%TO.N,Net-(U3-REF)*%
G36*
X109644386Y-127450000D02*
G01*
X109644386Y-128450000D01*
X110434315Y-129105685D01*
X111001000Y-128540000D01*
X111306147Y-127800896D01*
X109644386Y-127450000D01*
G37*
%TD.AperFunction*%
%TD*%
%TA.AperFunction,Conductor*%
%TO.N,VIN*%
G36*
X116589593Y-125843843D02*
G01*
X116597436Y-125848162D01*
X116600000Y-125855471D01*
X116600000Y-126334528D01*
X116596573Y-126342801D01*
X116589592Y-126346156D01*
X116152985Y-126394668D01*
X116147225Y-126393853D01*
X115450167Y-126105813D01*
X115443829Y-126099487D01*
X115443822Y-126090532D01*
X115450146Y-126084195D01*
X116147227Y-125796145D01*
X116152982Y-125795331D01*
X116589593Y-125843843D01*
G37*
%TD.AperFunction*%
%TD*%
%TA.AperFunction,Conductor*%
%TO.N,Net-(U3-K)*%
G36*
X122646406Y-125891462D02*
G01*
X122858538Y-126103594D01*
X124306147Y-125779104D01*
X124000707Y-125039293D01*
X123260896Y-124733853D01*
X122646406Y-125891462D01*
G37*
%TD.AperFunction*%
%TD*%
%TA.AperFunction,Conductor*%
%TO.N,VIN*%
G36*
X119852772Y-128336145D02*
G01*
X119996340Y-128395471D01*
X120549832Y-128624187D01*
X120556170Y-128630513D01*
X120556177Y-128639468D01*
X120549852Y-128645804D01*
X120549836Y-128645811D01*
X120549832Y-128645813D01*
X119852774Y-128933853D01*
X119847014Y-128934668D01*
X119410408Y-128886156D01*
X119402564Y-128881837D01*
X119400000Y-128874528D01*
X119400000Y-128395471D01*
X119403427Y-128387198D01*
X119410406Y-128383843D01*
X119847017Y-128335331D01*
X119852772Y-128336145D01*
G37*
%TD.AperFunction*%
%TD*%
%TA.AperFunction,Conductor*%
%TO.N,Net-(U2-FB)*%
G36*
X124316798Y-116265752D02*
G01*
X124317130Y-116265896D01*
X125593148Y-116846880D01*
X125599258Y-116853427D01*
X125600000Y-116857528D01*
X125600000Y-117142471D01*
X125596573Y-117150744D01*
X125593148Y-117153119D01*
X124317156Y-117734091D01*
X124308207Y-117734401D01*
X124301660Y-117728291D01*
X124301519Y-117727967D01*
X124000864Y-117004487D01*
X124000854Y-116995538D01*
X124301505Y-116272064D01*
X124307843Y-116265741D01*
X124316798Y-116265752D01*
G37*
%TD.AperFunction*%
%TD*%
%TA.AperFunction,Conductor*%
%TO.N,/EN*%
G36*
X121117011Y-125482747D02*
G01*
X121321791Y-125687527D01*
X121324060Y-125690725D01*
X121384566Y-125816403D01*
X121385067Y-125825344D01*
X121379099Y-125832020D01*
X121377666Y-125832597D01*
X120585226Y-126092126D01*
X120576297Y-126091444D01*
X120570528Y-126084836D01*
X120473542Y-125804727D01*
X120474073Y-125795789D01*
X120479393Y-125790422D01*
X121103535Y-125480540D01*
X121112469Y-125479931D01*
X121117011Y-125482747D01*
G37*
%TD.AperFunction*%
%TD*%
%TA.AperFunction,Conductor*%
%TO.N,VOUT*%
G36*
X124150000Y-120900000D02*
G01*
X123850000Y-120900000D01*
X123260896Y-122193853D01*
X124000000Y-122501000D01*
X124739104Y-122193853D01*
X124150000Y-120900000D01*
G37*
%TD.AperFunction*%
%TD*%
%TA.AperFunction,Conductor*%
%TO.N,Net-(U3-K)*%
G36*
X109409946Y-125550000D02*
G01*
X109409946Y-126550000D01*
X111000000Y-126800000D01*
X111001000Y-126000000D01*
X110693853Y-125260896D01*
X109409946Y-125550000D01*
G37*
%TD.AperFunction*%
%TD*%
%TA.AperFunction,Conductor*%
%TO.N,VOUT*%
G36*
X135031306Y-132918276D02*
G01*
X135039162Y-132922572D01*
X135041685Y-132928697D01*
X135172930Y-134190328D01*
X135170378Y-134198912D01*
X135164329Y-134202838D01*
X133536756Y-134640149D01*
X133527877Y-134638987D01*
X133525447Y-134637123D01*
X133322886Y-134434562D01*
X133319459Y-134426289D01*
X133319864Y-134423239D01*
X133761837Y-132790982D01*
X133767307Y-132783894D01*
X133774386Y-132782410D01*
X135031306Y-132918276D01*
G37*
%TD.AperFunction*%
%TD*%
%TA.AperFunction,Conductor*%
%TO.N,Net-(U3-K)*%
G36*
X121453803Y-127232823D02*
G01*
X121453946Y-127232930D01*
X121757499Y-127462960D01*
X121762023Y-127470688D01*
X121759758Y-127479351D01*
X121758706Y-127480558D01*
X121559580Y-127679684D01*
X121551307Y-127683111D01*
X121551096Y-127683109D01*
X120561334Y-127665225D01*
X120553124Y-127661649D01*
X120549847Y-127653316D01*
X120549885Y-127652568D01*
X120573515Y-127373471D01*
X120577627Y-127365518D01*
X120583395Y-127362896D01*
X121445108Y-127230690D01*
X121453803Y-127232823D01*
G37*
%TD.AperFunction*%
%TD*%
%TA.AperFunction,Conductor*%
%TO.N,Net-(U2-FB)*%
G36*
X126645837Y-114457207D02*
G01*
X126645865Y-114457234D01*
X126937349Y-114744129D01*
X126940842Y-114752375D01*
X126939686Y-114757540D01*
X126802188Y-115043372D01*
X126795513Y-115049342D01*
X126791644Y-115050000D01*
X126506107Y-115050000D01*
X126497834Y-115046573D01*
X126495724Y-115043692D01*
X126347108Y-114757515D01*
X126346336Y-114748594D01*
X126349123Y-114743946D01*
X126629293Y-114457393D01*
X126637526Y-114453874D01*
X126645837Y-114457207D01*
G37*
%TD.AperFunction*%
%TD*%
%TA.AperFunction,Conductor*%
%TO.N,Net-(U2-FB)*%
G36*
X126801704Y-115494293D02*
G01*
X126802511Y-115495187D01*
X127559035Y-116426132D01*
X127561593Y-116434714D01*
X127558235Y-116441777D01*
X127003434Y-116997559D01*
X126995164Y-117000993D01*
X126995139Y-117000993D01*
X126214227Y-117000017D01*
X126205959Y-116996580D01*
X126202542Y-116988302D01*
X126202765Y-116986043D01*
X126312077Y-116434315D01*
X126497132Y-115500291D01*
X126502101Y-115492843D01*
X126508609Y-115490866D01*
X126793431Y-115490866D01*
X126801704Y-115494293D01*
G37*
%TD.AperFunction*%
%TD*%
M02*
