%TF.GenerationSoftware,KiCad,Pcbnew,8.0.5*%
%TF.CreationDate,2024-10-31T21:46:15+08:00*%
%TF.ProjectId,B626_VIN3.7V_VOUT16.5V_IO0.9A,42363236-5f56-4494-9e33-2e37565f564f,rev?*%
%TF.SameCoordinates,Original*%
%TF.FileFunction,Legend,Bot*%
%TF.FilePolarity,Positive*%
%FSLAX46Y46*%
G04 Gerber Fmt 4.6, Leading zero omitted, Abs format (unit mm)*
G04 Created by KiCad (PCBNEW 8.0.5) date 2024-10-31 21:46:15*
%MOMM*%
%LPD*%
G01*
G04 APERTURE LIST*
%ADD10C,0.200000*%
%ADD11C,0.150000*%
%ADD12C,0.254000*%
%ADD13C,0.120000*%
%ADD14C,0.100000*%
G04 APERTURE END LIST*
D10*
X137173183Y-135467219D02*
X136839850Y-136467219D01*
X136839850Y-136467219D02*
X136506517Y-135467219D01*
X135982707Y-135467219D02*
X135792231Y-135467219D01*
X135792231Y-135467219D02*
X135696993Y-135514838D01*
X135696993Y-135514838D02*
X135601755Y-135610076D01*
X135601755Y-135610076D02*
X135554136Y-135800552D01*
X135554136Y-135800552D02*
X135554136Y-136133885D01*
X135554136Y-136133885D02*
X135601755Y-136324361D01*
X135601755Y-136324361D02*
X135696993Y-136419600D01*
X135696993Y-136419600D02*
X135792231Y-136467219D01*
X135792231Y-136467219D02*
X135982707Y-136467219D01*
X135982707Y-136467219D02*
X136077945Y-136419600D01*
X136077945Y-136419600D02*
X136173183Y-136324361D01*
X136173183Y-136324361D02*
X136220802Y-136133885D01*
X136220802Y-136133885D02*
X136220802Y-135800552D01*
X136220802Y-135800552D02*
X136173183Y-135610076D01*
X136173183Y-135610076D02*
X136077945Y-135514838D01*
X136077945Y-135514838D02*
X135982707Y-135467219D01*
X135125564Y-135467219D02*
X135125564Y-136276742D01*
X135125564Y-136276742D02*
X135077945Y-136371980D01*
X135077945Y-136371980D02*
X135030326Y-136419600D01*
X135030326Y-136419600D02*
X134935088Y-136467219D01*
X134935088Y-136467219D02*
X134744612Y-136467219D01*
X134744612Y-136467219D02*
X134649374Y-136419600D01*
X134649374Y-136419600D02*
X134601755Y-136371980D01*
X134601755Y-136371980D02*
X134554136Y-136276742D01*
X134554136Y-136276742D02*
X134554136Y-135467219D01*
X134220802Y-135467219D02*
X133649374Y-135467219D01*
X133935088Y-136467219D02*
X133935088Y-135467219D01*
X130606517Y-135514838D02*
X130701755Y-135467219D01*
X130701755Y-135467219D02*
X130844612Y-135467219D01*
X130844612Y-135467219D02*
X130987469Y-135514838D01*
X130987469Y-135514838D02*
X131082707Y-135610076D01*
X131082707Y-135610076D02*
X131130326Y-135705314D01*
X131130326Y-135705314D02*
X131177945Y-135895790D01*
X131177945Y-135895790D02*
X131177945Y-136038647D01*
X131177945Y-136038647D02*
X131130326Y-136229123D01*
X131130326Y-136229123D02*
X131082707Y-136324361D01*
X131082707Y-136324361D02*
X130987469Y-136419600D01*
X130987469Y-136419600D02*
X130844612Y-136467219D01*
X130844612Y-136467219D02*
X130749374Y-136467219D01*
X130749374Y-136467219D02*
X130606517Y-136419600D01*
X130606517Y-136419600D02*
X130558898Y-136371980D01*
X130558898Y-136371980D02*
X130558898Y-136038647D01*
X130558898Y-136038647D02*
X130749374Y-136038647D01*
X130130326Y-136467219D02*
X130130326Y-135467219D01*
X130130326Y-135467219D02*
X129558898Y-136467219D01*
X129558898Y-136467219D02*
X129558898Y-135467219D01*
X129082707Y-136467219D02*
X129082707Y-135467219D01*
X129082707Y-135467219D02*
X128844612Y-135467219D01*
X128844612Y-135467219D02*
X128701755Y-135514838D01*
X128701755Y-135514838D02*
X128606517Y-135610076D01*
X128606517Y-135610076D02*
X128558898Y-135705314D01*
X128558898Y-135705314D02*
X128511279Y-135895790D01*
X128511279Y-135895790D02*
X128511279Y-136038647D01*
X128511279Y-136038647D02*
X128558898Y-136229123D01*
X128558898Y-136229123D02*
X128606517Y-136324361D01*
X128606517Y-136324361D02*
X128701755Y-136419600D01*
X128701755Y-136419600D02*
X128844612Y-136467219D01*
X128844612Y-136467219D02*
X129082707Y-136467219D01*
X124296993Y-136043409D02*
X124154136Y-136091028D01*
X124154136Y-136091028D02*
X124106517Y-136138647D01*
X124106517Y-136138647D02*
X124058898Y-136233885D01*
X124058898Y-136233885D02*
X124058898Y-136376742D01*
X124058898Y-136376742D02*
X124106517Y-136471980D01*
X124106517Y-136471980D02*
X124154136Y-136519600D01*
X124154136Y-136519600D02*
X124249374Y-136567219D01*
X124249374Y-136567219D02*
X124630326Y-136567219D01*
X124630326Y-136567219D02*
X124630326Y-135567219D01*
X124630326Y-135567219D02*
X124296993Y-135567219D01*
X124296993Y-135567219D02*
X124201755Y-135614838D01*
X124201755Y-135614838D02*
X124154136Y-135662457D01*
X124154136Y-135662457D02*
X124106517Y-135757695D01*
X124106517Y-135757695D02*
X124106517Y-135852933D01*
X124106517Y-135852933D02*
X124154136Y-135948171D01*
X124154136Y-135948171D02*
X124201755Y-135995790D01*
X124201755Y-135995790D02*
X124296993Y-136043409D01*
X124296993Y-136043409D02*
X124630326Y-136043409D01*
X123201755Y-135567219D02*
X123392231Y-135567219D01*
X123392231Y-135567219D02*
X123487469Y-135614838D01*
X123487469Y-135614838D02*
X123535088Y-135662457D01*
X123535088Y-135662457D02*
X123630326Y-135805314D01*
X123630326Y-135805314D02*
X123677945Y-135995790D01*
X123677945Y-135995790D02*
X123677945Y-136376742D01*
X123677945Y-136376742D02*
X123630326Y-136471980D01*
X123630326Y-136471980D02*
X123582707Y-136519600D01*
X123582707Y-136519600D02*
X123487469Y-136567219D01*
X123487469Y-136567219D02*
X123296993Y-136567219D01*
X123296993Y-136567219D02*
X123201755Y-136519600D01*
X123201755Y-136519600D02*
X123154136Y-136471980D01*
X123154136Y-136471980D02*
X123106517Y-136376742D01*
X123106517Y-136376742D02*
X123106517Y-136138647D01*
X123106517Y-136138647D02*
X123154136Y-136043409D01*
X123154136Y-136043409D02*
X123201755Y-135995790D01*
X123201755Y-135995790D02*
X123296993Y-135948171D01*
X123296993Y-135948171D02*
X123487469Y-135948171D01*
X123487469Y-135948171D02*
X123582707Y-135995790D01*
X123582707Y-135995790D02*
X123630326Y-136043409D01*
X123630326Y-136043409D02*
X123677945Y-136138647D01*
X122725564Y-135662457D02*
X122677945Y-135614838D01*
X122677945Y-135614838D02*
X122582707Y-135567219D01*
X122582707Y-135567219D02*
X122344612Y-135567219D01*
X122344612Y-135567219D02*
X122249374Y-135614838D01*
X122249374Y-135614838D02*
X122201755Y-135662457D01*
X122201755Y-135662457D02*
X122154136Y-135757695D01*
X122154136Y-135757695D02*
X122154136Y-135852933D01*
X122154136Y-135852933D02*
X122201755Y-135995790D01*
X122201755Y-135995790D02*
X122773183Y-136567219D01*
X122773183Y-136567219D02*
X122154136Y-136567219D01*
X121296993Y-135567219D02*
X121487469Y-135567219D01*
X121487469Y-135567219D02*
X121582707Y-135614838D01*
X121582707Y-135614838D02*
X121630326Y-135662457D01*
X121630326Y-135662457D02*
X121725564Y-135805314D01*
X121725564Y-135805314D02*
X121773183Y-135995790D01*
X121773183Y-135995790D02*
X121773183Y-136376742D01*
X121773183Y-136376742D02*
X121725564Y-136471980D01*
X121725564Y-136471980D02*
X121677945Y-136519600D01*
X121677945Y-136519600D02*
X121582707Y-136567219D01*
X121582707Y-136567219D02*
X121392231Y-136567219D01*
X121392231Y-136567219D02*
X121296993Y-136519600D01*
X121296993Y-136519600D02*
X121249374Y-136471980D01*
X121249374Y-136471980D02*
X121201755Y-136376742D01*
X121201755Y-136376742D02*
X121201755Y-136138647D01*
X121201755Y-136138647D02*
X121249374Y-136043409D01*
X121249374Y-136043409D02*
X121296993Y-135995790D01*
X121296993Y-135995790D02*
X121392231Y-135948171D01*
X121392231Y-135948171D02*
X121582707Y-135948171D01*
X121582707Y-135948171D02*
X121677945Y-135995790D01*
X121677945Y-135995790D02*
X121725564Y-136043409D01*
X121725564Y-136043409D02*
X121773183Y-136138647D01*
X120154135Y-135567219D02*
X119820802Y-136567219D01*
X119820802Y-136567219D02*
X119487469Y-135567219D01*
X119154135Y-136567219D02*
X119154135Y-135567219D01*
X118677945Y-136567219D02*
X118677945Y-135567219D01*
X118677945Y-135567219D02*
X118106517Y-136567219D01*
X118106517Y-136567219D02*
X118106517Y-135567219D01*
X117725564Y-135567219D02*
X117106517Y-135567219D01*
X117106517Y-135567219D02*
X117439850Y-135948171D01*
X117439850Y-135948171D02*
X117296993Y-135948171D01*
X117296993Y-135948171D02*
X117201755Y-135995790D01*
X117201755Y-135995790D02*
X117154136Y-136043409D01*
X117154136Y-136043409D02*
X117106517Y-136138647D01*
X117106517Y-136138647D02*
X117106517Y-136376742D01*
X117106517Y-136376742D02*
X117154136Y-136471980D01*
X117154136Y-136471980D02*
X117201755Y-136519600D01*
X117201755Y-136519600D02*
X117296993Y-136567219D01*
X117296993Y-136567219D02*
X117582707Y-136567219D01*
X117582707Y-136567219D02*
X117677945Y-136519600D01*
X117677945Y-136519600D02*
X117725564Y-136471980D01*
X116677945Y-136471980D02*
X116630326Y-136519600D01*
X116630326Y-136519600D02*
X116677945Y-136567219D01*
X116677945Y-136567219D02*
X116725564Y-136519600D01*
X116725564Y-136519600D02*
X116677945Y-136471980D01*
X116677945Y-136471980D02*
X116677945Y-136567219D01*
X116296993Y-135567219D02*
X115630327Y-135567219D01*
X115630327Y-135567219D02*
X116058898Y-136567219D01*
X115392231Y-135567219D02*
X115058898Y-136567219D01*
X115058898Y-136567219D02*
X114725565Y-135567219D01*
X113773183Y-135567219D02*
X113439850Y-136567219D01*
X113439850Y-136567219D02*
X113106517Y-135567219D01*
X112582707Y-135567219D02*
X112392231Y-135567219D01*
X112392231Y-135567219D02*
X112296993Y-135614838D01*
X112296993Y-135614838D02*
X112201755Y-135710076D01*
X112201755Y-135710076D02*
X112154136Y-135900552D01*
X112154136Y-135900552D02*
X112154136Y-136233885D01*
X112154136Y-136233885D02*
X112201755Y-136424361D01*
X112201755Y-136424361D02*
X112296993Y-136519600D01*
X112296993Y-136519600D02*
X112392231Y-136567219D01*
X112392231Y-136567219D02*
X112582707Y-136567219D01*
X112582707Y-136567219D02*
X112677945Y-136519600D01*
X112677945Y-136519600D02*
X112773183Y-136424361D01*
X112773183Y-136424361D02*
X112820802Y-136233885D01*
X112820802Y-136233885D02*
X112820802Y-135900552D01*
X112820802Y-135900552D02*
X112773183Y-135710076D01*
X112773183Y-135710076D02*
X112677945Y-135614838D01*
X112677945Y-135614838D02*
X112582707Y-135567219D01*
X111725564Y-135567219D02*
X111725564Y-136376742D01*
X111725564Y-136376742D02*
X111677945Y-136471980D01*
X111677945Y-136471980D02*
X111630326Y-136519600D01*
X111630326Y-136519600D02*
X111535088Y-136567219D01*
X111535088Y-136567219D02*
X111344612Y-136567219D01*
X111344612Y-136567219D02*
X111249374Y-136519600D01*
X111249374Y-136519600D02*
X111201755Y-136471980D01*
X111201755Y-136471980D02*
X111154136Y-136376742D01*
X111154136Y-136376742D02*
X111154136Y-135567219D01*
X110820802Y-135567219D02*
X110249374Y-135567219D01*
X110535088Y-136567219D02*
X110535088Y-135567219D01*
X109392231Y-136567219D02*
X109963659Y-136567219D01*
X109677945Y-136567219D02*
X109677945Y-135567219D01*
X109677945Y-135567219D02*
X109773183Y-135710076D01*
X109773183Y-135710076D02*
X109868421Y-135805314D01*
X109868421Y-135805314D02*
X109963659Y-135852933D01*
X108535088Y-135567219D02*
X108725564Y-135567219D01*
X108725564Y-135567219D02*
X108820802Y-135614838D01*
X108820802Y-135614838D02*
X108868421Y-135662457D01*
X108868421Y-135662457D02*
X108963659Y-135805314D01*
X108963659Y-135805314D02*
X109011278Y-135995790D01*
X109011278Y-135995790D02*
X109011278Y-136376742D01*
X109011278Y-136376742D02*
X108963659Y-136471980D01*
X108963659Y-136471980D02*
X108916040Y-136519600D01*
X108916040Y-136519600D02*
X108820802Y-136567219D01*
X108820802Y-136567219D02*
X108630326Y-136567219D01*
X108630326Y-136567219D02*
X108535088Y-136519600D01*
X108535088Y-136519600D02*
X108487469Y-136471980D01*
X108487469Y-136471980D02*
X108439850Y-136376742D01*
X108439850Y-136376742D02*
X108439850Y-136138647D01*
X108439850Y-136138647D02*
X108487469Y-136043409D01*
X108487469Y-136043409D02*
X108535088Y-135995790D01*
X108535088Y-135995790D02*
X108630326Y-135948171D01*
X108630326Y-135948171D02*
X108820802Y-135948171D01*
X108820802Y-135948171D02*
X108916040Y-135995790D01*
X108916040Y-135995790D02*
X108963659Y-136043409D01*
X108963659Y-136043409D02*
X109011278Y-136138647D01*
X108154135Y-135567219D02*
X107820802Y-136567219D01*
X107820802Y-136567219D02*
X107487469Y-135567219D01*
X106392230Y-136567219D02*
X106392230Y-135567219D01*
X105725564Y-135567219D02*
X105535088Y-135567219D01*
X105535088Y-135567219D02*
X105439850Y-135614838D01*
X105439850Y-135614838D02*
X105344612Y-135710076D01*
X105344612Y-135710076D02*
X105296993Y-135900552D01*
X105296993Y-135900552D02*
X105296993Y-136233885D01*
X105296993Y-136233885D02*
X105344612Y-136424361D01*
X105344612Y-136424361D02*
X105439850Y-136519600D01*
X105439850Y-136519600D02*
X105535088Y-136567219D01*
X105535088Y-136567219D02*
X105725564Y-136567219D01*
X105725564Y-136567219D02*
X105820802Y-136519600D01*
X105820802Y-136519600D02*
X105916040Y-136424361D01*
X105916040Y-136424361D02*
X105963659Y-136233885D01*
X105963659Y-136233885D02*
X105963659Y-135900552D01*
X105963659Y-135900552D02*
X105916040Y-135710076D01*
X105916040Y-135710076D02*
X105820802Y-135614838D01*
X105820802Y-135614838D02*
X105725564Y-135567219D01*
X104677945Y-135567219D02*
X104582707Y-135567219D01*
X104582707Y-135567219D02*
X104487469Y-135614838D01*
X104487469Y-135614838D02*
X104439850Y-135662457D01*
X104439850Y-135662457D02*
X104392231Y-135757695D01*
X104392231Y-135757695D02*
X104344612Y-135948171D01*
X104344612Y-135948171D02*
X104344612Y-136186266D01*
X104344612Y-136186266D02*
X104392231Y-136376742D01*
X104392231Y-136376742D02*
X104439850Y-136471980D01*
X104439850Y-136471980D02*
X104487469Y-136519600D01*
X104487469Y-136519600D02*
X104582707Y-136567219D01*
X104582707Y-136567219D02*
X104677945Y-136567219D01*
X104677945Y-136567219D02*
X104773183Y-136519600D01*
X104773183Y-136519600D02*
X104820802Y-136471980D01*
X104820802Y-136471980D02*
X104868421Y-136376742D01*
X104868421Y-136376742D02*
X104916040Y-136186266D01*
X104916040Y-136186266D02*
X104916040Y-135948171D01*
X104916040Y-135948171D02*
X104868421Y-135757695D01*
X104868421Y-135757695D02*
X104820802Y-135662457D01*
X104820802Y-135662457D02*
X104773183Y-135614838D01*
X104773183Y-135614838D02*
X104677945Y-135567219D01*
X103916040Y-136471980D02*
X103868421Y-136519600D01*
X103868421Y-136519600D02*
X103916040Y-136567219D01*
X103916040Y-136567219D02*
X103963659Y-136519600D01*
X103963659Y-136519600D02*
X103916040Y-136471980D01*
X103916040Y-136471980D02*
X103916040Y-136567219D01*
X103392231Y-136567219D02*
X103201755Y-136567219D01*
X103201755Y-136567219D02*
X103106517Y-136519600D01*
X103106517Y-136519600D02*
X103058898Y-136471980D01*
X103058898Y-136471980D02*
X102963660Y-136329123D01*
X102963660Y-136329123D02*
X102916041Y-136138647D01*
X102916041Y-136138647D02*
X102916041Y-135757695D01*
X102916041Y-135757695D02*
X102963660Y-135662457D01*
X102963660Y-135662457D02*
X103011279Y-135614838D01*
X103011279Y-135614838D02*
X103106517Y-135567219D01*
X103106517Y-135567219D02*
X103296993Y-135567219D01*
X103296993Y-135567219D02*
X103392231Y-135614838D01*
X103392231Y-135614838D02*
X103439850Y-135662457D01*
X103439850Y-135662457D02*
X103487469Y-135757695D01*
X103487469Y-135757695D02*
X103487469Y-135995790D01*
X103487469Y-135995790D02*
X103439850Y-136091028D01*
X103439850Y-136091028D02*
X103392231Y-136138647D01*
X103392231Y-136138647D02*
X103296993Y-136186266D01*
X103296993Y-136186266D02*
X103106517Y-136186266D01*
X103106517Y-136186266D02*
X103011279Y-136138647D01*
X103011279Y-136138647D02*
X102963660Y-136091028D01*
X102963660Y-136091028D02*
X102916041Y-135995790D01*
X102535088Y-136281504D02*
X102058898Y-136281504D01*
X102630326Y-136567219D02*
X102296993Y-135567219D01*
X102296993Y-135567219D02*
X101963660Y-136567219D01*
D11*
X115928571Y-105788152D02*
X115928571Y-106454819D01*
X116166666Y-105407200D02*
X116404761Y-106121485D01*
X116404761Y-106121485D02*
X115785714Y-106121485D01*
X115404761Y-106359580D02*
X115357142Y-106407200D01*
X115357142Y-106407200D02*
X115404761Y-106454819D01*
X115404761Y-106454819D02*
X115452380Y-106407200D01*
X115452380Y-106407200D02*
X115404761Y-106359580D01*
X115404761Y-106359580D02*
X115404761Y-106454819D01*
X115023809Y-105454819D02*
X114357143Y-105454819D01*
X114357143Y-105454819D02*
X114785714Y-106454819D01*
X113547619Y-105788152D02*
X113547619Y-106454819D01*
X113976190Y-105788152D02*
X113976190Y-106311961D01*
X113976190Y-106311961D02*
X113928571Y-106407200D01*
X113928571Y-106407200D02*
X113833333Y-106454819D01*
X113833333Y-106454819D02*
X113690476Y-106454819D01*
X113690476Y-106454819D02*
X113595238Y-106407200D01*
X113595238Y-106407200D02*
X113547619Y-106359580D01*
X113071428Y-106454819D02*
X113071428Y-105454819D01*
X113071428Y-105931009D02*
X112500000Y-105931009D01*
X112500000Y-106454819D02*
X112500000Y-105454819D01*
X111309524Y-105407200D02*
X112166666Y-106692914D01*
X111023809Y-105550057D02*
X110976190Y-105502438D01*
X110976190Y-105502438D02*
X110880952Y-105454819D01*
X110880952Y-105454819D02*
X110642857Y-105454819D01*
X110642857Y-105454819D02*
X110547619Y-105502438D01*
X110547619Y-105502438D02*
X110500000Y-105550057D01*
X110500000Y-105550057D02*
X110452381Y-105645295D01*
X110452381Y-105645295D02*
X110452381Y-105740533D01*
X110452381Y-105740533D02*
X110500000Y-105883390D01*
X110500000Y-105883390D02*
X111071428Y-106454819D01*
X111071428Y-106454819D02*
X110452381Y-106454819D01*
X110071428Y-106169104D02*
X109595238Y-106169104D01*
X110166666Y-106454819D02*
X109833333Y-105454819D01*
X109833333Y-105454819D02*
X109500000Y-106454819D01*
X128587619Y-128874819D02*
X129159047Y-128874819D01*
X128873333Y-128874819D02*
X128873333Y-127874819D01*
X128873333Y-127874819D02*
X128968571Y-128017676D01*
X128968571Y-128017676D02*
X129063809Y-128112914D01*
X129063809Y-128112914D02*
X129159047Y-128160533D01*
X127968571Y-127874819D02*
X127873333Y-127874819D01*
X127873333Y-127874819D02*
X127778095Y-127922438D01*
X127778095Y-127922438D02*
X127730476Y-127970057D01*
X127730476Y-127970057D02*
X127682857Y-128065295D01*
X127682857Y-128065295D02*
X127635238Y-128255771D01*
X127635238Y-128255771D02*
X127635238Y-128493866D01*
X127635238Y-128493866D02*
X127682857Y-128684342D01*
X127682857Y-128684342D02*
X127730476Y-128779580D01*
X127730476Y-128779580D02*
X127778095Y-128827200D01*
X127778095Y-128827200D02*
X127873333Y-128874819D01*
X127873333Y-128874819D02*
X127968571Y-128874819D01*
X127968571Y-128874819D02*
X128063809Y-128827200D01*
X128063809Y-128827200D02*
X128111428Y-128779580D01*
X128111428Y-128779580D02*
X128159047Y-128684342D01*
X128159047Y-128684342D02*
X128206666Y-128493866D01*
X128206666Y-128493866D02*
X128206666Y-128255771D01*
X128206666Y-128255771D02*
X128159047Y-128065295D01*
X128159047Y-128065295D02*
X128111428Y-127970057D01*
X128111428Y-127970057D02*
X128063809Y-127922438D01*
X128063809Y-127922438D02*
X127968571Y-127874819D01*
X127016190Y-127874819D02*
X126920952Y-127874819D01*
X126920952Y-127874819D02*
X126825714Y-127922438D01*
X126825714Y-127922438D02*
X126778095Y-127970057D01*
X126778095Y-127970057D02*
X126730476Y-128065295D01*
X126730476Y-128065295D02*
X126682857Y-128255771D01*
X126682857Y-128255771D02*
X126682857Y-128493866D01*
X126682857Y-128493866D02*
X126730476Y-128684342D01*
X126730476Y-128684342D02*
X126778095Y-128779580D01*
X126778095Y-128779580D02*
X126825714Y-128827200D01*
X126825714Y-128827200D02*
X126920952Y-128874819D01*
X126920952Y-128874819D02*
X127016190Y-128874819D01*
X127016190Y-128874819D02*
X127111428Y-128827200D01*
X127111428Y-128827200D02*
X127159047Y-128779580D01*
X127159047Y-128779580D02*
X127206666Y-128684342D01*
X127206666Y-128684342D02*
X127254285Y-128493866D01*
X127254285Y-128493866D02*
X127254285Y-128255771D01*
X127254285Y-128255771D02*
X127206666Y-128065295D01*
X127206666Y-128065295D02*
X127159047Y-127970057D01*
X127159047Y-127970057D02*
X127111428Y-127922438D01*
X127111428Y-127922438D02*
X127016190Y-127874819D01*
X126254285Y-128208152D02*
X126254285Y-128874819D01*
X126254285Y-128303390D02*
X126206666Y-128255771D01*
X126206666Y-128255771D02*
X126111428Y-128208152D01*
X126111428Y-128208152D02*
X125968571Y-128208152D01*
X125968571Y-128208152D02*
X125873333Y-128255771D01*
X125873333Y-128255771D02*
X125825714Y-128351009D01*
X125825714Y-128351009D02*
X125825714Y-128874819D01*
X125016190Y-128351009D02*
X125349523Y-128351009D01*
X125349523Y-128874819D02*
X125349523Y-127874819D01*
X125349523Y-127874819D02*
X124873333Y-127874819D01*
X104795237Y-126454819D02*
X104223809Y-126454819D01*
X104509523Y-127454819D02*
X104509523Y-126454819D01*
X103414285Y-127454819D02*
X103890475Y-127454819D01*
X103890475Y-127454819D02*
X103890475Y-126454819D01*
X102652380Y-126788152D02*
X102652380Y-127454819D01*
X102890475Y-126407200D02*
X103128570Y-127121485D01*
X103128570Y-127121485D02*
X102509523Y-127121485D01*
X102223808Y-126454819D02*
X101604761Y-126454819D01*
X101604761Y-126454819D02*
X101938094Y-126835771D01*
X101938094Y-126835771D02*
X101795237Y-126835771D01*
X101795237Y-126835771D02*
X101699999Y-126883390D01*
X101699999Y-126883390D02*
X101652380Y-126931009D01*
X101652380Y-126931009D02*
X101604761Y-127026247D01*
X101604761Y-127026247D02*
X101604761Y-127264342D01*
X101604761Y-127264342D02*
X101652380Y-127359580D01*
X101652380Y-127359580D02*
X101699999Y-127407200D01*
X101699999Y-127407200D02*
X101795237Y-127454819D01*
X101795237Y-127454819D02*
X102080951Y-127454819D01*
X102080951Y-127454819D02*
X102176189Y-127407200D01*
X102176189Y-127407200D02*
X102223808Y-127359580D01*
X100652380Y-127454819D02*
X101223808Y-127454819D01*
X100938094Y-127454819D02*
X100938094Y-126454819D01*
X100938094Y-126454819D02*
X101033332Y-126597676D01*
X101033332Y-126597676D02*
X101128570Y-126692914D01*
X101128570Y-126692914D02*
X101223808Y-126740533D01*
X100223808Y-127454819D02*
X100223808Y-126454819D01*
X100223808Y-126454819D02*
X99985713Y-126454819D01*
X99985713Y-126454819D02*
X99842856Y-126502438D01*
X99842856Y-126502438D02*
X99747618Y-126597676D01*
X99747618Y-126597676D02*
X99699999Y-126692914D01*
X99699999Y-126692914D02*
X99652380Y-126883390D01*
X99652380Y-126883390D02*
X99652380Y-127026247D01*
X99652380Y-127026247D02*
X99699999Y-127216723D01*
X99699999Y-127216723D02*
X99747618Y-127311961D01*
X99747618Y-127311961D02*
X99842856Y-127407200D01*
X99842856Y-127407200D02*
X99985713Y-127454819D01*
X99985713Y-127454819D02*
X100223808Y-127454819D01*
X98890475Y-126931009D02*
X98747618Y-126978628D01*
X98747618Y-126978628D02*
X98699999Y-127026247D01*
X98699999Y-127026247D02*
X98652380Y-127121485D01*
X98652380Y-127121485D02*
X98652380Y-127264342D01*
X98652380Y-127264342D02*
X98699999Y-127359580D01*
X98699999Y-127359580D02*
X98747618Y-127407200D01*
X98747618Y-127407200D02*
X98842856Y-127454819D01*
X98842856Y-127454819D02*
X99223808Y-127454819D01*
X99223808Y-127454819D02*
X99223808Y-126454819D01*
X99223808Y-126454819D02*
X98890475Y-126454819D01*
X98890475Y-126454819D02*
X98795237Y-126502438D01*
X98795237Y-126502438D02*
X98747618Y-126550057D01*
X98747618Y-126550057D02*
X98699999Y-126645295D01*
X98699999Y-126645295D02*
X98699999Y-126740533D01*
X98699999Y-126740533D02*
X98747618Y-126835771D01*
X98747618Y-126835771D02*
X98795237Y-126883390D01*
X98795237Y-126883390D02*
X98890475Y-126931009D01*
X98890475Y-126931009D02*
X99223808Y-126931009D01*
X98319046Y-126454819D02*
X97652380Y-126454819D01*
X97652380Y-126454819D02*
X98319046Y-127454819D01*
X98319046Y-127454819D02*
X97652380Y-127454819D01*
X121666666Y-133254819D02*
X122142856Y-133254819D01*
X122142856Y-133254819D02*
X122142856Y-132254819D01*
X121333332Y-133254819D02*
X121333332Y-132254819D01*
X121333332Y-132254819D02*
X120999999Y-132969104D01*
X120999999Y-132969104D02*
X120666666Y-132254819D01*
X120666666Y-132254819D02*
X120666666Y-133254819D01*
X120285713Y-132254819D02*
X119666666Y-132254819D01*
X119666666Y-132254819D02*
X119999999Y-132635771D01*
X119999999Y-132635771D02*
X119857142Y-132635771D01*
X119857142Y-132635771D02*
X119761904Y-132683390D01*
X119761904Y-132683390D02*
X119714285Y-132731009D01*
X119714285Y-132731009D02*
X119666666Y-132826247D01*
X119666666Y-132826247D02*
X119666666Y-133064342D01*
X119666666Y-133064342D02*
X119714285Y-133159580D01*
X119714285Y-133159580D02*
X119761904Y-133207200D01*
X119761904Y-133207200D02*
X119857142Y-133254819D01*
X119857142Y-133254819D02*
X120142856Y-133254819D01*
X120142856Y-133254819D02*
X120238094Y-133207200D01*
X120238094Y-133207200D02*
X120285713Y-133159580D01*
X119190475Y-133254819D02*
X118999999Y-133254819D01*
X118999999Y-133254819D02*
X118904761Y-133207200D01*
X118904761Y-133207200D02*
X118857142Y-133159580D01*
X118857142Y-133159580D02*
X118761904Y-133016723D01*
X118761904Y-133016723D02*
X118714285Y-132826247D01*
X118714285Y-132826247D02*
X118714285Y-132445295D01*
X118714285Y-132445295D02*
X118761904Y-132350057D01*
X118761904Y-132350057D02*
X118809523Y-132302438D01*
X118809523Y-132302438D02*
X118904761Y-132254819D01*
X118904761Y-132254819D02*
X119095237Y-132254819D01*
X119095237Y-132254819D02*
X119190475Y-132302438D01*
X119190475Y-132302438D02*
X119238094Y-132350057D01*
X119238094Y-132350057D02*
X119285713Y-132445295D01*
X119285713Y-132445295D02*
X119285713Y-132683390D01*
X119285713Y-132683390D02*
X119238094Y-132778628D01*
X119238094Y-132778628D02*
X119190475Y-132826247D01*
X119190475Y-132826247D02*
X119095237Y-132873866D01*
X119095237Y-132873866D02*
X118904761Y-132873866D01*
X118904761Y-132873866D02*
X118809523Y-132826247D01*
X118809523Y-132826247D02*
X118761904Y-132778628D01*
X118761904Y-132778628D02*
X118714285Y-132683390D01*
X118380951Y-132254819D02*
X117761904Y-132254819D01*
X117761904Y-132254819D02*
X118095237Y-132635771D01*
X118095237Y-132635771D02*
X117952380Y-132635771D01*
X117952380Y-132635771D02*
X117857142Y-132683390D01*
X117857142Y-132683390D02*
X117809523Y-132731009D01*
X117809523Y-132731009D02*
X117761904Y-132826247D01*
X117761904Y-132826247D02*
X117761904Y-133064342D01*
X117761904Y-133064342D02*
X117809523Y-133159580D01*
X117809523Y-133159580D02*
X117857142Y-133207200D01*
X117857142Y-133207200D02*
X117952380Y-133254819D01*
X117952380Y-133254819D02*
X118238094Y-133254819D01*
X118238094Y-133254819D02*
X118333332Y-133207200D01*
X118333332Y-133207200D02*
X118380951Y-133159580D01*
X117333332Y-133254819D02*
X117333332Y-132254819D01*
X117333332Y-132254819D02*
X117095237Y-132254819D01*
X117095237Y-132254819D02*
X116952380Y-132302438D01*
X116952380Y-132302438D02*
X116857142Y-132397676D01*
X116857142Y-132397676D02*
X116809523Y-132492914D01*
X116809523Y-132492914D02*
X116761904Y-132683390D01*
X116761904Y-132683390D02*
X116761904Y-132826247D01*
X116761904Y-132826247D02*
X116809523Y-133016723D01*
X116809523Y-133016723D02*
X116857142Y-133111961D01*
X116857142Y-133111961D02*
X116952380Y-133207200D01*
X116952380Y-133207200D02*
X117095237Y-133254819D01*
X117095237Y-133254819D02*
X117333332Y-133254819D01*
X115761904Y-133254819D02*
X116095237Y-132778628D01*
X116333332Y-133254819D02*
X116333332Y-132254819D01*
X116333332Y-132254819D02*
X115952380Y-132254819D01*
X115952380Y-132254819D02*
X115857142Y-132302438D01*
X115857142Y-132302438D02*
X115809523Y-132350057D01*
X115809523Y-132350057D02*
X115761904Y-132445295D01*
X115761904Y-132445295D02*
X115761904Y-132588152D01*
X115761904Y-132588152D02*
X115809523Y-132683390D01*
X115809523Y-132683390D02*
X115857142Y-132731009D01*
X115857142Y-132731009D02*
X115952380Y-132778628D01*
X115952380Y-132778628D02*
X116333332Y-132778628D01*
X115380951Y-132350057D02*
X115333332Y-132302438D01*
X115333332Y-132302438D02*
X115238094Y-132254819D01*
X115238094Y-132254819D02*
X114999999Y-132254819D01*
X114999999Y-132254819D02*
X114904761Y-132302438D01*
X114904761Y-132302438D02*
X114857142Y-132350057D01*
X114857142Y-132350057D02*
X114809523Y-132445295D01*
X114809523Y-132445295D02*
X114809523Y-132540533D01*
X114809523Y-132540533D02*
X114857142Y-132683390D01*
X114857142Y-132683390D02*
X115428570Y-133254819D01*
X115428570Y-133254819D02*
X114809523Y-133254819D01*
X113857142Y-132302438D02*
X113952380Y-132254819D01*
X113952380Y-132254819D02*
X114095237Y-132254819D01*
X114095237Y-132254819D02*
X114238094Y-132302438D01*
X114238094Y-132302438D02*
X114333332Y-132397676D01*
X114333332Y-132397676D02*
X114380951Y-132492914D01*
X114380951Y-132492914D02*
X114428570Y-132683390D01*
X114428570Y-132683390D02*
X114428570Y-132826247D01*
X114428570Y-132826247D02*
X114380951Y-133016723D01*
X114380951Y-133016723D02*
X114333332Y-133111961D01*
X114333332Y-133111961D02*
X114238094Y-133207200D01*
X114238094Y-133207200D02*
X114095237Y-133254819D01*
X114095237Y-133254819D02*
X113999999Y-133254819D01*
X113999999Y-133254819D02*
X113857142Y-133207200D01*
X113857142Y-133207200D02*
X113809523Y-133159580D01*
X113809523Y-133159580D02*
X113809523Y-132826247D01*
X113809523Y-132826247D02*
X113999999Y-132826247D01*
X133201666Y-113907200D02*
X133058809Y-113954819D01*
X133058809Y-113954819D02*
X132820714Y-113954819D01*
X132820714Y-113954819D02*
X132725476Y-113907200D01*
X132725476Y-113907200D02*
X132677857Y-113859580D01*
X132677857Y-113859580D02*
X132630238Y-113764342D01*
X132630238Y-113764342D02*
X132630238Y-113669104D01*
X132630238Y-113669104D02*
X132677857Y-113573866D01*
X132677857Y-113573866D02*
X132725476Y-113526247D01*
X132725476Y-113526247D02*
X132820714Y-113478628D01*
X132820714Y-113478628D02*
X133011190Y-113431009D01*
X133011190Y-113431009D02*
X133106428Y-113383390D01*
X133106428Y-113383390D02*
X133154047Y-113335771D01*
X133154047Y-113335771D02*
X133201666Y-113240533D01*
X133201666Y-113240533D02*
X133201666Y-113145295D01*
X133201666Y-113145295D02*
X133154047Y-113050057D01*
X133154047Y-113050057D02*
X133106428Y-113002438D01*
X133106428Y-113002438D02*
X133011190Y-112954819D01*
X133011190Y-112954819D02*
X132773095Y-112954819D01*
X132773095Y-112954819D02*
X132630238Y-113002438D01*
X132296904Y-112954819D02*
X131630238Y-113954819D01*
X131630238Y-112954819D02*
X132296904Y-113954819D01*
X130725476Y-113954819D02*
X131296904Y-113954819D01*
X131011190Y-113954819D02*
X131011190Y-112954819D01*
X131011190Y-112954819D02*
X131106428Y-113097676D01*
X131106428Y-113097676D02*
X131201666Y-113192914D01*
X131201666Y-113192914D02*
X131296904Y-113240533D01*
X130392142Y-112954819D02*
X129773095Y-112954819D01*
X129773095Y-112954819D02*
X130106428Y-113335771D01*
X130106428Y-113335771D02*
X129963571Y-113335771D01*
X129963571Y-113335771D02*
X129868333Y-113383390D01*
X129868333Y-113383390D02*
X129820714Y-113431009D01*
X129820714Y-113431009D02*
X129773095Y-113526247D01*
X129773095Y-113526247D02*
X129773095Y-113764342D01*
X129773095Y-113764342D02*
X129820714Y-113859580D01*
X129820714Y-113859580D02*
X129868333Y-113907200D01*
X129868333Y-113907200D02*
X129963571Y-113954819D01*
X129963571Y-113954819D02*
X130249285Y-113954819D01*
X130249285Y-113954819D02*
X130344523Y-113907200D01*
X130344523Y-113907200D02*
X130392142Y-113859580D01*
X129154047Y-112954819D02*
X129058809Y-112954819D01*
X129058809Y-112954819D02*
X128963571Y-113002438D01*
X128963571Y-113002438D02*
X128915952Y-113050057D01*
X128915952Y-113050057D02*
X128868333Y-113145295D01*
X128868333Y-113145295D02*
X128820714Y-113335771D01*
X128820714Y-113335771D02*
X128820714Y-113573866D01*
X128820714Y-113573866D02*
X128868333Y-113764342D01*
X128868333Y-113764342D02*
X128915952Y-113859580D01*
X128915952Y-113859580D02*
X128963571Y-113907200D01*
X128963571Y-113907200D02*
X129058809Y-113954819D01*
X129058809Y-113954819D02*
X129154047Y-113954819D01*
X129154047Y-113954819D02*
X129249285Y-113907200D01*
X129249285Y-113907200D02*
X129296904Y-113859580D01*
X129296904Y-113859580D02*
X129344523Y-113764342D01*
X129344523Y-113764342D02*
X129392142Y-113573866D01*
X129392142Y-113573866D02*
X129392142Y-113335771D01*
X129392142Y-113335771D02*
X129344523Y-113145295D01*
X129344523Y-113145295D02*
X129296904Y-113050057D01*
X129296904Y-113050057D02*
X129249285Y-113002438D01*
X129249285Y-113002438D02*
X129154047Y-112954819D01*
X128249285Y-113383390D02*
X128344523Y-113335771D01*
X128344523Y-113335771D02*
X128392142Y-113288152D01*
X128392142Y-113288152D02*
X128439761Y-113192914D01*
X128439761Y-113192914D02*
X128439761Y-113145295D01*
X128439761Y-113145295D02*
X128392142Y-113050057D01*
X128392142Y-113050057D02*
X128344523Y-113002438D01*
X128344523Y-113002438D02*
X128249285Y-112954819D01*
X128249285Y-112954819D02*
X128058809Y-112954819D01*
X128058809Y-112954819D02*
X127963571Y-113002438D01*
X127963571Y-113002438D02*
X127915952Y-113050057D01*
X127915952Y-113050057D02*
X127868333Y-113145295D01*
X127868333Y-113145295D02*
X127868333Y-113192914D01*
X127868333Y-113192914D02*
X127915952Y-113288152D01*
X127915952Y-113288152D02*
X127963571Y-113335771D01*
X127963571Y-113335771D02*
X128058809Y-113383390D01*
X128058809Y-113383390D02*
X128249285Y-113383390D01*
X128249285Y-113383390D02*
X128344523Y-113431009D01*
X128344523Y-113431009D02*
X128392142Y-113478628D01*
X128392142Y-113478628D02*
X128439761Y-113573866D01*
X128439761Y-113573866D02*
X128439761Y-113764342D01*
X128439761Y-113764342D02*
X128392142Y-113859580D01*
X128392142Y-113859580D02*
X128344523Y-113907200D01*
X128344523Y-113907200D02*
X128249285Y-113954819D01*
X128249285Y-113954819D02*
X128058809Y-113954819D01*
X128058809Y-113954819D02*
X127963571Y-113907200D01*
X127963571Y-113907200D02*
X127915952Y-113859580D01*
X127915952Y-113859580D02*
X127868333Y-113764342D01*
X127868333Y-113764342D02*
X127868333Y-113573866D01*
X127868333Y-113573866D02*
X127915952Y-113478628D01*
X127915952Y-113478628D02*
X127963571Y-113431009D01*
X127963571Y-113431009D02*
X128058809Y-113383390D01*
X138214285Y-114007200D02*
X138071428Y-114054819D01*
X138071428Y-114054819D02*
X137833333Y-114054819D01*
X137833333Y-114054819D02*
X137738095Y-114007200D01*
X137738095Y-114007200D02*
X137690476Y-113959580D01*
X137690476Y-113959580D02*
X137642857Y-113864342D01*
X137642857Y-113864342D02*
X137642857Y-113769104D01*
X137642857Y-113769104D02*
X137690476Y-113673866D01*
X137690476Y-113673866D02*
X137738095Y-113626247D01*
X137738095Y-113626247D02*
X137833333Y-113578628D01*
X137833333Y-113578628D02*
X138023809Y-113531009D01*
X138023809Y-113531009D02*
X138119047Y-113483390D01*
X138119047Y-113483390D02*
X138166666Y-113435771D01*
X138166666Y-113435771D02*
X138214285Y-113340533D01*
X138214285Y-113340533D02*
X138214285Y-113245295D01*
X138214285Y-113245295D02*
X138166666Y-113150057D01*
X138166666Y-113150057D02*
X138119047Y-113102438D01*
X138119047Y-113102438D02*
X138023809Y-113054819D01*
X138023809Y-113054819D02*
X137785714Y-113054819D01*
X137785714Y-113054819D02*
X137642857Y-113102438D01*
X137261904Y-114007200D02*
X137119047Y-114054819D01*
X137119047Y-114054819D02*
X136880952Y-114054819D01*
X136880952Y-114054819D02*
X136785714Y-114007200D01*
X136785714Y-114007200D02*
X136738095Y-113959580D01*
X136738095Y-113959580D02*
X136690476Y-113864342D01*
X136690476Y-113864342D02*
X136690476Y-113769104D01*
X136690476Y-113769104D02*
X136738095Y-113673866D01*
X136738095Y-113673866D02*
X136785714Y-113626247D01*
X136785714Y-113626247D02*
X136880952Y-113578628D01*
X136880952Y-113578628D02*
X137071428Y-113531009D01*
X137071428Y-113531009D02*
X137166666Y-113483390D01*
X137166666Y-113483390D02*
X137214285Y-113435771D01*
X137214285Y-113435771D02*
X137261904Y-113340533D01*
X137261904Y-113340533D02*
X137261904Y-113245295D01*
X137261904Y-113245295D02*
X137214285Y-113150057D01*
X137214285Y-113150057D02*
X137166666Y-113102438D01*
X137166666Y-113102438D02*
X137071428Y-113054819D01*
X137071428Y-113054819D02*
X136833333Y-113054819D01*
X136833333Y-113054819D02*
X136690476Y-113102438D01*
X136357142Y-113054819D02*
X135738095Y-113054819D01*
X135738095Y-113054819D02*
X136071428Y-113435771D01*
X136071428Y-113435771D02*
X135928571Y-113435771D01*
X135928571Y-113435771D02*
X135833333Y-113483390D01*
X135833333Y-113483390D02*
X135785714Y-113531009D01*
X135785714Y-113531009D02*
X135738095Y-113626247D01*
X135738095Y-113626247D02*
X135738095Y-113864342D01*
X135738095Y-113864342D02*
X135785714Y-113959580D01*
X135785714Y-113959580D02*
X135833333Y-114007200D01*
X135833333Y-114007200D02*
X135928571Y-114054819D01*
X135928571Y-114054819D02*
X136214285Y-114054819D01*
X136214285Y-114054819D02*
X136309523Y-114007200D01*
X136309523Y-114007200D02*
X136357142Y-113959580D01*
X134880952Y-113388152D02*
X134880952Y-114054819D01*
X135119047Y-113007200D02*
X135357142Y-113721485D01*
X135357142Y-113721485D02*
X134738095Y-113721485D01*
X119047619Y-114754819D02*
X119619047Y-114754819D01*
X119333333Y-114754819D02*
X119333333Y-113754819D01*
X119333333Y-113754819D02*
X119428571Y-113897676D01*
X119428571Y-113897676D02*
X119523809Y-113992914D01*
X119523809Y-113992914D02*
X119619047Y-114040533D01*
X118428571Y-113754819D02*
X118333333Y-113754819D01*
X118333333Y-113754819D02*
X118238095Y-113802438D01*
X118238095Y-113802438D02*
X118190476Y-113850057D01*
X118190476Y-113850057D02*
X118142857Y-113945295D01*
X118142857Y-113945295D02*
X118095238Y-114135771D01*
X118095238Y-114135771D02*
X118095238Y-114373866D01*
X118095238Y-114373866D02*
X118142857Y-114564342D01*
X118142857Y-114564342D02*
X118190476Y-114659580D01*
X118190476Y-114659580D02*
X118238095Y-114707200D01*
X118238095Y-114707200D02*
X118333333Y-114754819D01*
X118333333Y-114754819D02*
X118428571Y-114754819D01*
X118428571Y-114754819D02*
X118523809Y-114707200D01*
X118523809Y-114707200D02*
X118571428Y-114659580D01*
X118571428Y-114659580D02*
X118619047Y-114564342D01*
X118619047Y-114564342D02*
X118666666Y-114373866D01*
X118666666Y-114373866D02*
X118666666Y-114135771D01*
X118666666Y-114135771D02*
X118619047Y-113945295D01*
X118619047Y-113945295D02*
X118571428Y-113850057D01*
X118571428Y-113850057D02*
X118523809Y-113802438D01*
X118523809Y-113802438D02*
X118428571Y-113754819D01*
X117476190Y-113754819D02*
X117380952Y-113754819D01*
X117380952Y-113754819D02*
X117285714Y-113802438D01*
X117285714Y-113802438D02*
X117238095Y-113850057D01*
X117238095Y-113850057D02*
X117190476Y-113945295D01*
X117190476Y-113945295D02*
X117142857Y-114135771D01*
X117142857Y-114135771D02*
X117142857Y-114373866D01*
X117142857Y-114373866D02*
X117190476Y-114564342D01*
X117190476Y-114564342D02*
X117238095Y-114659580D01*
X117238095Y-114659580D02*
X117285714Y-114707200D01*
X117285714Y-114707200D02*
X117380952Y-114754819D01*
X117380952Y-114754819D02*
X117476190Y-114754819D01*
X117476190Y-114754819D02*
X117571428Y-114707200D01*
X117571428Y-114707200D02*
X117619047Y-114659580D01*
X117619047Y-114659580D02*
X117666666Y-114564342D01*
X117666666Y-114564342D02*
X117714285Y-114373866D01*
X117714285Y-114373866D02*
X117714285Y-114135771D01*
X117714285Y-114135771D02*
X117666666Y-113945295D01*
X117666666Y-113945295D02*
X117619047Y-113850057D01*
X117619047Y-113850057D02*
X117571428Y-113802438D01*
X117571428Y-113802438D02*
X117476190Y-113754819D01*
X116714285Y-114088152D02*
X116714285Y-114754819D01*
X116714285Y-114183390D02*
X116666666Y-114135771D01*
X116666666Y-114135771D02*
X116571428Y-114088152D01*
X116571428Y-114088152D02*
X116428571Y-114088152D01*
X116428571Y-114088152D02*
X116333333Y-114135771D01*
X116333333Y-114135771D02*
X116285714Y-114231009D01*
X116285714Y-114231009D02*
X116285714Y-114754819D01*
X115476190Y-114231009D02*
X115809523Y-114231009D01*
X115809523Y-114754819D02*
X115809523Y-113754819D01*
X115809523Y-113754819D02*
X115333333Y-113754819D01*
D12*
%TO.C,L1*%
X120870000Y-100920000D02*
X120870000Y-103714000D01*
X120870000Y-108540000D02*
X120870000Y-111080000D01*
X131030000Y-100920000D02*
X120870000Y-100920000D01*
X131030000Y-103714000D02*
X131030000Y-100920000D01*
X131030000Y-108540000D02*
X131030000Y-111080000D01*
X131030000Y-111080000D02*
X120870000Y-111080000D01*
D13*
%TO.C,C13*%
X131500000Y-129500000D02*
X134500000Y-129500000D01*
X134500000Y-127500000D02*
X131500000Y-127500000D01*
X131500000Y-129500000D02*
G75*
G02*
X131500000Y-127500000I1122254J1000000D01*
G01*
X134500000Y-127500000D02*
G75*
G02*
X134500000Y-129500000I-1122254J-1000000D01*
G01*
%TO.C,U3*%
X106350000Y-125440000D02*
X107000000Y-125440000D01*
X106350000Y-128560000D02*
X107000000Y-128560000D01*
X107650000Y-125440000D02*
X107000000Y-125440000D01*
X107650000Y-128560000D02*
X107000000Y-128560000D01*
X108162500Y-125490000D02*
X107922500Y-125160000D01*
X108402500Y-125160000D01*
X108162500Y-125490000D01*
G36*
X108162500Y-125490000D02*
G01*
X107922500Y-125160000D01*
X108402500Y-125160000D01*
X108162500Y-125490000D01*
G37*
%TO.C,U4*%
X114200000Y-125200000D02*
X114200000Y-130800000D01*
X114200000Y-130800000D02*
X121800000Y-130800000D01*
X121300000Y-125200000D02*
X114200000Y-125200000D01*
X121800000Y-130800000D02*
X121800000Y-125700000D01*
D10*
X121663500Y-125400000D02*
G75*
G02*
X121536500Y-125400000I-63500J0D01*
G01*
X121536500Y-125400000D02*
G75*
G02*
X121663500Y-125400000I63500J0D01*
G01*
D13*
%TO.C,U2*%
X124700000Y-111940000D02*
X125500000Y-111940000D01*
X124700000Y-115060000D02*
X125500000Y-115060000D01*
X126300000Y-111940000D02*
X125500000Y-111940000D01*
X126300000Y-115060000D02*
X125500000Y-115060000D01*
X126800000Y-111990000D02*
X126560000Y-111660000D01*
X127040000Y-111660000D01*
X126800000Y-111990000D01*
G36*
X126800000Y-111990000D02*
G01*
X126560000Y-111660000D01*
X127040000Y-111660000D01*
X126800000Y-111990000D01*
G37*
%TO.C,D1*%
X133200000Y-105400000D02*
X133200000Y-112600000D01*
X133200000Y-112600000D02*
X136800000Y-112600000D01*
X136800000Y-105400000D02*
X133200000Y-105400000D01*
X136800000Y-112600000D02*
X136800000Y-105400000D01*
D14*
X133200000Y-111300000D02*
X132800000Y-111300000D01*
X132800000Y-110200000D01*
X133200000Y-110200000D01*
X133200000Y-111300000D01*
G36*
X133200000Y-111300000D02*
G01*
X132800000Y-111300000D01*
X132800000Y-110200000D01*
X133200000Y-110200000D01*
X133200000Y-111300000D01*
G37*
X137200000Y-111300000D02*
X136800000Y-111300000D01*
X136800000Y-110200000D01*
X137200000Y-110200000D01*
X137200000Y-111300000D01*
G36*
X137200000Y-111300000D02*
G01*
X136800000Y-111300000D01*
X136800000Y-110200000D01*
X137200000Y-110200000D01*
X137200000Y-111300000D01*
G37*
D13*
%TO.C,C3*%
X120000000Y-112500000D02*
X120000000Y-115500000D01*
X122000000Y-115500000D02*
X122000000Y-112500000D01*
X120000000Y-112500000D02*
G75*
G02*
X122000000Y-112500000I1000000J-1122254D01*
G01*
X122000000Y-115500000D02*
G75*
G02*
X120000000Y-115500000I-1000000J1122254D01*
G01*
%TD*%
M02*
