M48
; DRILL file {KiCad 8.0.5} date 2024-10-31T21:46:09+0800
; FORMAT={-:-/ absolute / inch / decimal}
; #@! TF.CreationDate,2024-10-31T21:46:09+08:00
; #@! TF.GenerationSoftware,Kicad,Pcbnew,8.0.5
; #@! TF.FileFunction,Plated,1,2,PTH
FMAT,2
INCH
; #@! TA.AperFunction,Plated,PTH,ViaDrill
T1C0.0118
; #@! TA.AperFunction,Plated,PTH,ComponentDrill
T2C0.0315
; #@! TA.AperFunction,Plated,PTH,ComponentDrill
T3C0.0512
; #@! TA.AperFunction,Plated,PTH,ComponentDrill
T4C0.1181
%
G90
G05
T1
X3.8819Y-4.1024
X3.8819Y-4.2524
X3.8819Y-4.4024
X3.8819Y-4.5524
X3.8819Y-4.7024
X3.8819Y-4.8524
X3.8819Y-5.0024
X3.8819Y-5.1524
X3.8819Y-5.3024
X3.9803Y-4.0079
X3.9882Y-5.3583
X4.1382Y-5.3583
X4.2803Y-4.0079
X4.2882Y-5.3583
X4.2953Y-5.0984
X4.4303Y-4.0079
X4.4382Y-5.3583
X4.4409Y-5.2205
X4.4803Y-5.0984
X4.5803Y-4.0079
X4.5866Y-4.2362
X4.5882Y-5.3583
X4.6063Y-5.0394
X4.626Y-5.1299
X4.6654Y-4.9803
X4.6654Y-5.0866
X4.7244Y-3.9724
X4.7382Y-5.3583
X4.8071Y-4.5079
X4.8465Y-5.185
X4.8819Y-4.9921
X4.8882Y-5.3583
X4.9409Y-4.5472
X4.9803Y-4.7953
X5.1929Y-3.9685
X5.2165Y-4.3583
X5.3382Y-5.3583
X5.4291Y-4.0669
X5.4291Y-4.2169
X5.4291Y-4.3669
X5.4291Y-4.5169
X5.4291Y-4.6669
X5.4291Y-4.8169
X5.4291Y-4.9669
X5.4291Y-5.1169
X5.4291Y-5.2669
T2
X4.1732Y-4.8031
X4.3701Y-4.8031
X4.3701Y-4.9606
X4.3701Y-5.0606
X4.3701Y-5.1969
X4.3701Y-5.2969
X4.3898Y-4.4291
X4.3898Y-4.5669
X4.5472Y-4.7835
X4.6654Y-4.3898
X4.6654Y-4.5866
X4.7441Y-4.7835
X4.8819Y-4.6063
X4.8819Y-4.7063
X4.8819Y-4.8228
X4.8819Y-4.9228
X5.0Y-4.6063
X5.0Y-4.7063
X5.1378Y-4.5669
X5.1378Y-4.7638
X5.1378Y-4.9606
X5.3346Y-4.5669
X5.3346Y-4.7638
X5.3346Y-4.9606
T3
X4.0157Y-4.4094
X4.0157Y-4.6063
X5.1197Y-5.2331
X5.3165Y-5.2331
T4
X4.1339Y-4.1339
M30
