;TYPE=PLATED
;Layer: PTH_Through
;EasyEDA Pro Client v2.2.27.1, 2024-09-15 10:59:51
;Gerber Generator version 0.3
M48
; DRILL file {KiCad 8.0.5} date 2024-10-25T22:44:04+0800
; FORMAT={-:-/ absolute / inch / decimal}
; #@! TF.CreationDate,2024-10-25T22:44:04+08:00
; #@! TF.GenerationSoftware,Kicad,Pcbnew,8.0.5
; #@! TF.FileFunction,Plated,1,2,PTH
FMAT,2
INCH
; #@! TA.AperFunction,Plated,PTH,ViaDrill
T1C0.0118
; #@! TA.AperFunction,Plated,PTH,ComponentDrill
T2C0.0236
; #@! TA.AperFunction,Plated,PTH,ComponentDrill
T3C0.0315
; #@! TA.AperFunction,Plated,PTH,ComponentDrill
T4C0.0512
; #@! TA.AperFunction,Plated,PTH,ComponentDrill
T5C0.1181
%
G90
G05
T1
X4.6864Y-4.277
X4.7598Y-4.1181
X4.9921Y-4.3268
X4.9947Y-4.277
X4.9961Y-4.227
T3
X4.0551Y-4.5669
X4.0551Y-4.7244
X4.1551Y-4.5669
X4.1551Y-4.7244
X4.2913Y-4.5669
X4.2913Y-4.7244
X4.3913Y-4.5669
X4.3913Y-4.7244
X4.4094Y-4.0945
X4.4094Y-4.2913
X4.5063Y-4.5276
X4.5063Y-4.7244
X4.5669Y-4.0945
X4.5669Y-4.2913
X4.6063Y-4.5276
X4.6063Y-4.7244
X4.7915Y-4.0236
X4.8031Y-4.5276
X4.8031Y-4.7244
X4.8915Y-4.0236
X5.0Y-4.5276
X5.0Y-4.7244
T4
X4.7638Y-5.0787
X4.9606Y-5.0787
T5
X4.1339Y-5.1181
T2
G00X4.0748Y-4.0031
M15
G01X4.0512Y-4.0031
M16
G05
G00X4.0748Y-4.3433
M15
G01X4.0512Y-4.3433
M16
G05
G00X4.2244Y-4.0031
M15
G01X4.2008Y-4.0031
M16
G05
G00X4.2244Y-4.3433
M15
G01X4.2008Y-4.3433
M16
G05
M30
