G04 Layer: TopSilkscreenLayer*
G04 EasyEDA Pro v2.2.27.1, 2024-09-15 10:59:50*
G04 Gerber Generator version 0.3*
G04 Scale: 100 percent, Rotated: No, Reflected: No*
G04 Dimensions in millimeters*
G04 Leading zeros omitted, absolute positions, 3 integers and 5 decimals*
%TF.GenerationSoftware,KiCad,Pcbnew,8.0.5*%
%TF.CreationDate,2024-10-25T22:44:06+08:00*%
%TF.ProjectId,TP4056_Lithium_battery_charging,54503430-3536-45f4-9c69-746869756d5f,rev?*%
%TF.SameCoordinates,Original*%
%TF.FileFunction,Legend,Top*%
%TF.FilePolarity,Positive*%
%FSLAX46Y46*%
G04 Gerber Fmt 4.6, Leading zero omitted, Abs format (unit mm)*
G04 Created by KiCad (PCBNEW 8.0.5) date 2024-10-25 22:44:06*
%MOMM*%
%LPD*%
G01*
G04 APERTURE LIST*
%ADD10C,0.150000*%
%ADD11C,0.120000*%
G04 APERTURE END LIST*
D10*
X108738095Y-122854819D02*
X108166667Y-122854819D01*
X108452381Y-122854819D02*
X108452381Y-121854819D01*
X108452381Y-121854819D02*
X108357143Y-121997676D01*
X108357143Y-121997676D02*
X108261905Y-122092914D01*
X108261905Y-122092914D02*
X108166667Y-122140533D01*
X109357143Y-121854819D02*
X109452381Y-121854819D01*
X109452381Y-121854819D02*
X109547619Y-121902438D01*
X109547619Y-121902438D02*
X109595238Y-121950057D01*
X109595238Y-121950057D02*
X109642857Y-122045295D01*
X109642857Y-122045295D02*
X109690476Y-122235771D01*
X109690476Y-122235771D02*
X109690476Y-122473866D01*
X109690476Y-122473866D02*
X109642857Y-122664342D01*
X109642857Y-122664342D02*
X109595238Y-122759580D01*
X109595238Y-122759580D02*
X109547619Y-122807200D01*
X109547619Y-122807200D02*
X109452381Y-122854819D01*
X109452381Y-122854819D02*
X109357143Y-122854819D01*
X109357143Y-122854819D02*
X109261905Y-122807200D01*
X109261905Y-122807200D02*
X109214286Y-122759580D01*
X109214286Y-122759580D02*
X109166667Y-122664342D01*
X109166667Y-122664342D02*
X109119048Y-122473866D01*
X109119048Y-122473866D02*
X109119048Y-122235771D01*
X109119048Y-122235771D02*
X109166667Y-122045295D01*
X109166667Y-122045295D02*
X109214286Y-121950057D01*
X109214286Y-121950057D02*
X109261905Y-121902438D01*
X109261905Y-121902438D02*
X109357143Y-121854819D01*
X110119048Y-122854819D02*
X110119048Y-121854819D01*
X110690476Y-122854819D02*
X110261905Y-122283390D01*
X110690476Y-121854819D02*
X110119048Y-122426247D01*
X111071429Y-122854819D02*
X111309524Y-122854819D01*
X111309524Y-122854819D02*
X111309524Y-122664342D01*
X111309524Y-122664342D02*
X111214286Y-122616723D01*
X111214286Y-122616723D02*
X111119048Y-122521485D01*
X111119048Y-122521485D02*
X111071429Y-122378628D01*
X111071429Y-122378628D02*
X111071429Y-122140533D01*
X111071429Y-122140533D02*
X111119048Y-121997676D01*
X111119048Y-121997676D02*
X111214286Y-121902438D01*
X111214286Y-121902438D02*
X111357143Y-121854819D01*
X111357143Y-121854819D02*
X111547619Y-121854819D01*
X111547619Y-121854819D02*
X111690476Y-121902438D01*
X111690476Y-121902438D02*
X111785714Y-121997676D01*
X111785714Y-121997676D02*
X111833333Y-122140533D01*
X111833333Y-122140533D02*
X111833333Y-122378628D01*
X111833333Y-122378628D02*
X111785714Y-122521485D01*
X111785714Y-122521485D02*
X111690476Y-122616723D01*
X111690476Y-122616723D02*
X111595238Y-122664342D01*
X111595238Y-122664342D02*
X111595238Y-122854819D01*
X111595238Y-122854819D02*
X111833333Y-122854819D01*
X102552381Y-123554819D02*
X102076191Y-123554819D01*
X102076191Y-123554819D02*
X102028572Y-124031009D01*
X102028572Y-124031009D02*
X102076191Y-123983390D01*
X102076191Y-123983390D02*
X102171429Y-123935771D01*
X102171429Y-123935771D02*
X102409524Y-123935771D01*
X102409524Y-123935771D02*
X102504762Y-123983390D01*
X102504762Y-123983390D02*
X102552381Y-124031009D01*
X102552381Y-124031009D02*
X102600000Y-124126247D01*
X102600000Y-124126247D02*
X102600000Y-124364342D01*
X102600000Y-124364342D02*
X102552381Y-124459580D01*
X102552381Y-124459580D02*
X102504762Y-124507200D01*
X102504762Y-124507200D02*
X102409524Y-124554819D01*
X102409524Y-124554819D02*
X102171429Y-124554819D01*
X102171429Y-124554819D02*
X102076191Y-124507200D01*
X102076191Y-124507200D02*
X102028572Y-124459580D01*
X103028572Y-124459580D02*
X103076191Y-124507200D01*
X103076191Y-124507200D02*
X103028572Y-124554819D01*
X103028572Y-124554819D02*
X102980953Y-124507200D01*
X102980953Y-124507200D02*
X103028572Y-124459580D01*
X103028572Y-124459580D02*
X103028572Y-124554819D01*
X104028571Y-124554819D02*
X103457143Y-124554819D01*
X103742857Y-124554819D02*
X103742857Y-123554819D01*
X103742857Y-123554819D02*
X103647619Y-123697676D01*
X103647619Y-123697676D02*
X103552381Y-123792914D01*
X103552381Y-123792914D02*
X103457143Y-123840533D01*
X104457143Y-124554819D02*
X104457143Y-123554819D01*
X105028571Y-124554819D02*
X104600000Y-123983390D01*
X105028571Y-123554819D02*
X104457143Y-124126247D01*
X105409524Y-124554819D02*
X105647619Y-124554819D01*
X105647619Y-124554819D02*
X105647619Y-124364342D01*
X105647619Y-124364342D02*
X105552381Y-124316723D01*
X105552381Y-124316723D02*
X105457143Y-124221485D01*
X105457143Y-124221485D02*
X105409524Y-124078628D01*
X105409524Y-124078628D02*
X105409524Y-123840533D01*
X105409524Y-123840533D02*
X105457143Y-123697676D01*
X105457143Y-123697676D02*
X105552381Y-123602438D01*
X105552381Y-123602438D02*
X105695238Y-123554819D01*
X105695238Y-123554819D02*
X105885714Y-123554819D01*
X105885714Y-123554819D02*
X106028571Y-123602438D01*
X106028571Y-123602438D02*
X106123809Y-123697676D01*
X106123809Y-123697676D02*
X106171428Y-123840533D01*
X106171428Y-123840533D02*
X106171428Y-124078628D01*
X106171428Y-124078628D02*
X106123809Y-124221485D01*
X106123809Y-124221485D02*
X106028571Y-124316723D01*
X106028571Y-124316723D02*
X105933333Y-124364342D01*
X105933333Y-124364342D02*
X105933333Y-124554819D01*
X105933333Y-124554819D02*
X106171428Y-124554819D01*
X102652381Y-121854819D02*
X102176191Y-121854819D01*
X102176191Y-121854819D02*
X102128572Y-122331009D01*
X102128572Y-122331009D02*
X102176191Y-122283390D01*
X102176191Y-122283390D02*
X102271429Y-122235771D01*
X102271429Y-122235771D02*
X102509524Y-122235771D01*
X102509524Y-122235771D02*
X102604762Y-122283390D01*
X102604762Y-122283390D02*
X102652381Y-122331009D01*
X102652381Y-122331009D02*
X102700000Y-122426247D01*
X102700000Y-122426247D02*
X102700000Y-122664342D01*
X102700000Y-122664342D02*
X102652381Y-122759580D01*
X102652381Y-122759580D02*
X102604762Y-122807200D01*
X102604762Y-122807200D02*
X102509524Y-122854819D01*
X102509524Y-122854819D02*
X102271429Y-122854819D01*
X102271429Y-122854819D02*
X102176191Y-122807200D01*
X102176191Y-122807200D02*
X102128572Y-122759580D01*
X103128572Y-122759580D02*
X103176191Y-122807200D01*
X103176191Y-122807200D02*
X103128572Y-122854819D01*
X103128572Y-122854819D02*
X103080953Y-122807200D01*
X103080953Y-122807200D02*
X103128572Y-122759580D01*
X103128572Y-122759580D02*
X103128572Y-122854819D01*
X104128571Y-122854819D02*
X103557143Y-122854819D01*
X103842857Y-122854819D02*
X103842857Y-121854819D01*
X103842857Y-121854819D02*
X103747619Y-121997676D01*
X103747619Y-121997676D02*
X103652381Y-122092914D01*
X103652381Y-122092914D02*
X103557143Y-122140533D01*
X104557143Y-122854819D02*
X104557143Y-121854819D01*
X105128571Y-122854819D02*
X104700000Y-122283390D01*
X105128571Y-121854819D02*
X104557143Y-122426247D01*
X105509524Y-122854819D02*
X105747619Y-122854819D01*
X105747619Y-122854819D02*
X105747619Y-122664342D01*
X105747619Y-122664342D02*
X105652381Y-122616723D01*
X105652381Y-122616723D02*
X105557143Y-122521485D01*
X105557143Y-122521485D02*
X105509524Y-122378628D01*
X105509524Y-122378628D02*
X105509524Y-122140533D01*
X105509524Y-122140533D02*
X105557143Y-121997676D01*
X105557143Y-121997676D02*
X105652381Y-121902438D01*
X105652381Y-121902438D02*
X105795238Y-121854819D01*
X105795238Y-121854819D02*
X105985714Y-121854819D01*
X105985714Y-121854819D02*
X106128571Y-121902438D01*
X106128571Y-121902438D02*
X106223809Y-121997676D01*
X106223809Y-121997676D02*
X106271428Y-122140533D01*
X106271428Y-122140533D02*
X106271428Y-122378628D01*
X106271428Y-122378628D02*
X106223809Y-122521485D01*
X106223809Y-122521485D02*
X106128571Y-122616723D01*
X106128571Y-122616723D02*
X106033333Y-122664342D01*
X106033333Y-122664342D02*
X106033333Y-122854819D01*
X106033333Y-122854819D02*
X106271428Y-122854819D01*
X108638095Y-124554819D02*
X108066667Y-124554819D01*
X108352381Y-124554819D02*
X108352381Y-123554819D01*
X108352381Y-123554819D02*
X108257143Y-123697676D01*
X108257143Y-123697676D02*
X108161905Y-123792914D01*
X108161905Y-123792914D02*
X108066667Y-123840533D01*
X109257143Y-123554819D02*
X109352381Y-123554819D01*
X109352381Y-123554819D02*
X109447619Y-123602438D01*
X109447619Y-123602438D02*
X109495238Y-123650057D01*
X109495238Y-123650057D02*
X109542857Y-123745295D01*
X109542857Y-123745295D02*
X109590476Y-123935771D01*
X109590476Y-123935771D02*
X109590476Y-124173866D01*
X109590476Y-124173866D02*
X109542857Y-124364342D01*
X109542857Y-124364342D02*
X109495238Y-124459580D01*
X109495238Y-124459580D02*
X109447619Y-124507200D01*
X109447619Y-124507200D02*
X109352381Y-124554819D01*
X109352381Y-124554819D02*
X109257143Y-124554819D01*
X109257143Y-124554819D02*
X109161905Y-124507200D01*
X109161905Y-124507200D02*
X109114286Y-124459580D01*
X109114286Y-124459580D02*
X109066667Y-124364342D01*
X109066667Y-124364342D02*
X109019048Y-124173866D01*
X109019048Y-124173866D02*
X109019048Y-123935771D01*
X109019048Y-123935771D02*
X109066667Y-123745295D01*
X109066667Y-123745295D02*
X109114286Y-123650057D01*
X109114286Y-123650057D02*
X109161905Y-123602438D01*
X109161905Y-123602438D02*
X109257143Y-123554819D01*
X110019048Y-124554819D02*
X110019048Y-123554819D01*
X110590476Y-124554819D02*
X110161905Y-123983390D01*
X110590476Y-123554819D02*
X110019048Y-124126247D01*
X110971429Y-124554819D02*
X111209524Y-124554819D01*
X111209524Y-124554819D02*
X111209524Y-124364342D01*
X111209524Y-124364342D02*
X111114286Y-124316723D01*
X111114286Y-124316723D02*
X111019048Y-124221485D01*
X111019048Y-124221485D02*
X110971429Y-124078628D01*
X110971429Y-124078628D02*
X110971429Y-123840533D01*
X110971429Y-123840533D02*
X111019048Y-123697676D01*
X111019048Y-123697676D02*
X111114286Y-123602438D01*
X111114286Y-123602438D02*
X111257143Y-123554819D01*
X111257143Y-123554819D02*
X111447619Y-123554819D01*
X111447619Y-123554819D02*
X111590476Y-123602438D01*
X111590476Y-123602438D02*
X111685714Y-123697676D01*
X111685714Y-123697676D02*
X111733333Y-123840533D01*
X111733333Y-123840533D02*
X111733333Y-124078628D01*
X111733333Y-124078628D02*
X111685714Y-124221485D01*
X111685714Y-124221485D02*
X111590476Y-124316723D01*
X111590476Y-124316723D02*
X111495238Y-124364342D01*
X111495238Y-124364342D02*
X111495238Y-124554819D01*
X111495238Y-124554819D02*
X111733333Y-124554819D01*
X121500000Y-105904819D02*
X120928572Y-105904819D01*
X121214286Y-105904819D02*
X121214286Y-104904819D01*
X121214286Y-104904819D02*
X121119048Y-105047676D01*
X121119048Y-105047676D02*
X121023810Y-105142914D01*
X121023810Y-105142914D02*
X120928572Y-105190533D01*
X121928572Y-105809580D02*
X121976191Y-105857200D01*
X121976191Y-105857200D02*
X121928572Y-105904819D01*
X121928572Y-105904819D02*
X121880953Y-105857200D01*
X121880953Y-105857200D02*
X121928572Y-105809580D01*
X121928572Y-105809580D02*
X121928572Y-105904819D01*
X122357143Y-105000057D02*
X122404762Y-104952438D01*
X122404762Y-104952438D02*
X122500000Y-104904819D01*
X122500000Y-104904819D02*
X122738095Y-104904819D01*
X122738095Y-104904819D02*
X122833333Y-104952438D01*
X122833333Y-104952438D02*
X122880952Y-105000057D01*
X122880952Y-105000057D02*
X122928571Y-105095295D01*
X122928571Y-105095295D02*
X122928571Y-105190533D01*
X122928571Y-105190533D02*
X122880952Y-105333390D01*
X122880952Y-105333390D02*
X122309524Y-105904819D01*
X122309524Y-105904819D02*
X122928571Y-105904819D01*
X123357143Y-105904819D02*
X123357143Y-104904819D01*
X123928571Y-105904819D02*
X123500000Y-105333390D01*
X123928571Y-104904819D02*
X123357143Y-105476247D01*
X124309524Y-105904819D02*
X124547619Y-105904819D01*
X124547619Y-105904819D02*
X124547619Y-105714342D01*
X124547619Y-105714342D02*
X124452381Y-105666723D01*
X124452381Y-105666723D02*
X124357143Y-105571485D01*
X124357143Y-105571485D02*
X124309524Y-105428628D01*
X124309524Y-105428628D02*
X124309524Y-105190533D01*
X124309524Y-105190533D02*
X124357143Y-105047676D01*
X124357143Y-105047676D02*
X124452381Y-104952438D01*
X124452381Y-104952438D02*
X124595238Y-104904819D01*
X124595238Y-104904819D02*
X124785714Y-104904819D01*
X124785714Y-104904819D02*
X124928571Y-104952438D01*
X124928571Y-104952438D02*
X125023809Y-105047676D01*
X125023809Y-105047676D02*
X125071428Y-105190533D01*
X125071428Y-105190533D02*
X125071428Y-105428628D01*
X125071428Y-105428628D02*
X125023809Y-105571485D01*
X125023809Y-105571485D02*
X124928571Y-105666723D01*
X124928571Y-105666723D02*
X124833333Y-105714342D01*
X124833333Y-105714342D02*
X124833333Y-105904819D01*
X124833333Y-105904819D02*
X125071428Y-105904819D01*
X114920476Y-111637676D02*
X115444286Y-111637676D01*
X114872857Y-111828152D02*
X115587143Y-111828152D01*
X115063333Y-112494819D02*
X115206190Y-112494819D01*
X115206190Y-111828152D02*
X115206190Y-112494819D01*
X114920476Y-111447200D02*
X115444286Y-111447200D01*
X115444286Y-111447200D02*
X115491905Y-111828152D01*
X114920476Y-111971009D02*
X115063333Y-112113866D01*
X115206190Y-112066247D02*
X115491905Y-112351961D01*
X115396667Y-112066247D02*
X115301429Y-112161485D01*
X115539524Y-111971009D02*
X115349048Y-112113866D01*
X114587143Y-111875771D02*
X114349048Y-112113866D01*
X114587143Y-111351961D02*
X114396667Y-111828152D01*
X115158571Y-112209104D02*
X114872857Y-112351961D01*
X114730000Y-112304342D02*
X114349048Y-112399580D01*
X114682381Y-111685295D02*
X114634762Y-111828152D01*
X114634762Y-111828152D02*
X114349048Y-111828152D01*
X114682381Y-112066247D02*
X114349048Y-112161485D01*
X116396666Y-111494819D02*
X117063333Y-111494819D01*
X116491904Y-112494819D02*
X116777619Y-112494819D01*
X116777619Y-111494819D02*
X116777619Y-112494819D01*
X116301428Y-111637676D02*
X116206190Y-111828152D01*
X115920476Y-111637676D02*
X115872857Y-111875771D01*
X116063333Y-111351961D02*
X116063333Y-111923390D01*
X116063333Y-111923390D02*
X116063333Y-112161485D01*
X116063333Y-112161485D02*
X115872857Y-112447200D01*
X116063333Y-112113866D02*
X116301428Y-112304342D01*
X114642857Y-122802438D02*
X115309524Y-122802438D01*
X114642857Y-123754819D02*
X115357143Y-123754819D01*
X114976190Y-122802438D02*
X114976190Y-123754819D01*
X114214286Y-122945295D02*
X114166667Y-123135771D01*
X114404762Y-123135771D02*
X114119048Y-123469104D01*
X114404762Y-122659580D02*
X114214286Y-123040533D01*
X114547619Y-123421485D02*
X114119048Y-123469104D01*
X114547619Y-123659580D02*
X114119048Y-123707200D01*
X114547619Y-122945295D02*
X114452381Y-123088152D01*
X114452381Y-123088152D02*
X114119048Y-123135771D01*
X116166666Y-122754819D02*
X116833333Y-122754819D01*
X116261904Y-123754819D02*
X116547619Y-123754819D01*
X116547619Y-122754819D02*
X116547619Y-123754819D01*
X116071428Y-122897676D02*
X115976190Y-123088152D01*
X115690476Y-122897676D02*
X115642857Y-123135771D01*
X115833333Y-122611961D02*
X115833333Y-123183390D01*
X115833333Y-123183390D02*
X115833333Y-123421485D01*
X115833333Y-123421485D02*
X115642857Y-123707200D01*
X115833333Y-123373866D02*
X116071428Y-123564342D01*
X114452380Y-102054819D02*
X113880952Y-102054819D01*
X114166666Y-102054819D02*
X114166666Y-101054819D01*
X114166666Y-101054819D02*
X114071428Y-101197676D01*
X114071428Y-101197676D02*
X113976190Y-101292914D01*
X113976190Y-101292914D02*
X113880952Y-101340533D01*
X115071428Y-101054819D02*
X115166666Y-101054819D01*
X115166666Y-101054819D02*
X115261904Y-101102438D01*
X115261904Y-101102438D02*
X115309523Y-101150057D01*
X115309523Y-101150057D02*
X115357142Y-101245295D01*
X115357142Y-101245295D02*
X115404761Y-101435771D01*
X115404761Y-101435771D02*
X115404761Y-101673866D01*
X115404761Y-101673866D02*
X115357142Y-101864342D01*
X115357142Y-101864342D02*
X115309523Y-101959580D01*
X115309523Y-101959580D02*
X115261904Y-102007200D01*
X115261904Y-102007200D02*
X115166666Y-102054819D01*
X115166666Y-102054819D02*
X115071428Y-102054819D01*
X115071428Y-102054819D02*
X114976190Y-102007200D01*
X114976190Y-102007200D02*
X114928571Y-101959580D01*
X114928571Y-101959580D02*
X114880952Y-101864342D01*
X114880952Y-101864342D02*
X114833333Y-101673866D01*
X114833333Y-101673866D02*
X114833333Y-101435771D01*
X114833333Y-101435771D02*
X114880952Y-101245295D01*
X114880952Y-101245295D02*
X114928571Y-101150057D01*
X114928571Y-101150057D02*
X114976190Y-101102438D01*
X114976190Y-101102438D02*
X115071428Y-101054819D01*
X116023809Y-101054819D02*
X116119047Y-101054819D01*
X116119047Y-101054819D02*
X116214285Y-101102438D01*
X116214285Y-101102438D02*
X116261904Y-101150057D01*
X116261904Y-101150057D02*
X116309523Y-101245295D01*
X116309523Y-101245295D02*
X116357142Y-101435771D01*
X116357142Y-101435771D02*
X116357142Y-101673866D01*
X116357142Y-101673866D02*
X116309523Y-101864342D01*
X116309523Y-101864342D02*
X116261904Y-101959580D01*
X116261904Y-101959580D02*
X116214285Y-102007200D01*
X116214285Y-102007200D02*
X116119047Y-102054819D01*
X116119047Y-102054819D02*
X116023809Y-102054819D01*
X116023809Y-102054819D02*
X115928571Y-102007200D01*
X115928571Y-102007200D02*
X115880952Y-101959580D01*
X115880952Y-101959580D02*
X115833333Y-101864342D01*
X115833333Y-101864342D02*
X115785714Y-101673866D01*
X115785714Y-101673866D02*
X115785714Y-101435771D01*
X115785714Y-101435771D02*
X115833333Y-101245295D01*
X115833333Y-101245295D02*
X115880952Y-101150057D01*
X115880952Y-101150057D02*
X115928571Y-101102438D01*
X115928571Y-101102438D02*
X116023809Y-101054819D01*
X116785714Y-101388152D02*
X116785714Y-102054819D01*
X116785714Y-101483390D02*
X116833333Y-101435771D01*
X116833333Y-101435771D02*
X116928571Y-101388152D01*
X116928571Y-101388152D02*
X117071428Y-101388152D01*
X117071428Y-101388152D02*
X117166666Y-101435771D01*
X117166666Y-101435771D02*
X117214285Y-101531009D01*
X117214285Y-101531009D02*
X117214285Y-102054819D01*
X118023809Y-101531009D02*
X117690476Y-101531009D01*
X117690476Y-102054819D02*
X117690476Y-101054819D01*
X117690476Y-101054819D02*
X118166666Y-101054819D01*
X110228571Y-102054819D02*
X109657143Y-102054819D01*
X109942857Y-102054819D02*
X109942857Y-101054819D01*
X109942857Y-101054819D02*
X109847619Y-101197676D01*
X109847619Y-101197676D02*
X109752381Y-101292914D01*
X109752381Y-101292914D02*
X109657143Y-101340533D01*
X110847619Y-101054819D02*
X110942857Y-101054819D01*
X110942857Y-101054819D02*
X111038095Y-101102438D01*
X111038095Y-101102438D02*
X111085714Y-101150057D01*
X111085714Y-101150057D02*
X111133333Y-101245295D01*
X111133333Y-101245295D02*
X111180952Y-101435771D01*
X111180952Y-101435771D02*
X111180952Y-101673866D01*
X111180952Y-101673866D02*
X111133333Y-101864342D01*
X111133333Y-101864342D02*
X111085714Y-101959580D01*
X111085714Y-101959580D02*
X111038095Y-102007200D01*
X111038095Y-102007200D02*
X110942857Y-102054819D01*
X110942857Y-102054819D02*
X110847619Y-102054819D01*
X110847619Y-102054819D02*
X110752381Y-102007200D01*
X110752381Y-102007200D02*
X110704762Y-101959580D01*
X110704762Y-101959580D02*
X110657143Y-101864342D01*
X110657143Y-101864342D02*
X110609524Y-101673866D01*
X110609524Y-101673866D02*
X110609524Y-101435771D01*
X110609524Y-101435771D02*
X110657143Y-101245295D01*
X110657143Y-101245295D02*
X110704762Y-101150057D01*
X110704762Y-101150057D02*
X110752381Y-101102438D01*
X110752381Y-101102438D02*
X110847619Y-101054819D01*
X112038095Y-101388152D02*
X112038095Y-102054819D01*
X111609524Y-101388152D02*
X111609524Y-101911961D01*
X111609524Y-101911961D02*
X111657143Y-102007200D01*
X111657143Y-102007200D02*
X111752381Y-102054819D01*
X111752381Y-102054819D02*
X111895238Y-102054819D01*
X111895238Y-102054819D02*
X111990476Y-102007200D01*
X111990476Y-102007200D02*
X112038095Y-101959580D01*
X112847619Y-101531009D02*
X112514286Y-101531009D01*
X112514286Y-102054819D02*
X112514286Y-101054819D01*
X112514286Y-101054819D02*
X112990476Y-101054819D01*
X122952380Y-123079819D02*
X122380952Y-123079819D01*
X122666666Y-123079819D02*
X122666666Y-122079819D01*
X122666666Y-122079819D02*
X122571428Y-122222676D01*
X122571428Y-122222676D02*
X122476190Y-122317914D01*
X122476190Y-122317914D02*
X122380952Y-122365533D01*
X123571428Y-122079819D02*
X123666666Y-122079819D01*
X123666666Y-122079819D02*
X123761904Y-122127438D01*
X123761904Y-122127438D02*
X123809523Y-122175057D01*
X123809523Y-122175057D02*
X123857142Y-122270295D01*
X123857142Y-122270295D02*
X123904761Y-122460771D01*
X123904761Y-122460771D02*
X123904761Y-122698866D01*
X123904761Y-122698866D02*
X123857142Y-122889342D01*
X123857142Y-122889342D02*
X123809523Y-122984580D01*
X123809523Y-122984580D02*
X123761904Y-123032200D01*
X123761904Y-123032200D02*
X123666666Y-123079819D01*
X123666666Y-123079819D02*
X123571428Y-123079819D01*
X123571428Y-123079819D02*
X123476190Y-123032200D01*
X123476190Y-123032200D02*
X123428571Y-122984580D01*
X123428571Y-122984580D02*
X123380952Y-122889342D01*
X123380952Y-122889342D02*
X123333333Y-122698866D01*
X123333333Y-122698866D02*
X123333333Y-122460771D01*
X123333333Y-122460771D02*
X123380952Y-122270295D01*
X123380952Y-122270295D02*
X123428571Y-122175057D01*
X123428571Y-122175057D02*
X123476190Y-122127438D01*
X123476190Y-122127438D02*
X123571428Y-122079819D01*
X124523809Y-122079819D02*
X124619047Y-122079819D01*
X124619047Y-122079819D02*
X124714285Y-122127438D01*
X124714285Y-122127438D02*
X124761904Y-122175057D01*
X124761904Y-122175057D02*
X124809523Y-122270295D01*
X124809523Y-122270295D02*
X124857142Y-122460771D01*
X124857142Y-122460771D02*
X124857142Y-122698866D01*
X124857142Y-122698866D02*
X124809523Y-122889342D01*
X124809523Y-122889342D02*
X124761904Y-122984580D01*
X124761904Y-122984580D02*
X124714285Y-123032200D01*
X124714285Y-123032200D02*
X124619047Y-123079819D01*
X124619047Y-123079819D02*
X124523809Y-123079819D01*
X124523809Y-123079819D02*
X124428571Y-123032200D01*
X124428571Y-123032200D02*
X124380952Y-122984580D01*
X124380952Y-122984580D02*
X124333333Y-122889342D01*
X124333333Y-122889342D02*
X124285714Y-122698866D01*
X124285714Y-122698866D02*
X124285714Y-122460771D01*
X124285714Y-122460771D02*
X124333333Y-122270295D01*
X124333333Y-122270295D02*
X124380952Y-122175057D01*
X124380952Y-122175057D02*
X124428571Y-122127438D01*
X124428571Y-122127438D02*
X124523809Y-122079819D01*
X125285714Y-122413152D02*
X125285714Y-123079819D01*
X125285714Y-122508390D02*
X125333333Y-122460771D01*
X125333333Y-122460771D02*
X125428571Y-122413152D01*
X125428571Y-122413152D02*
X125571428Y-122413152D01*
X125571428Y-122413152D02*
X125666666Y-122460771D01*
X125666666Y-122460771D02*
X125714285Y-122556009D01*
X125714285Y-122556009D02*
X125714285Y-123079819D01*
X126523809Y-122556009D02*
X126190476Y-122556009D01*
X126190476Y-123079819D02*
X126190476Y-122079819D01*
X126190476Y-122079819D02*
X126666666Y-122079819D01*
X123428571Y-112604819D02*
X122857143Y-112604819D01*
X123142857Y-112604819D02*
X123142857Y-111604819D01*
X123142857Y-111604819D02*
X123047619Y-111747676D01*
X123047619Y-111747676D02*
X122952381Y-111842914D01*
X122952381Y-111842914D02*
X122857143Y-111890533D01*
X124047619Y-111604819D02*
X124142857Y-111604819D01*
X124142857Y-111604819D02*
X124238095Y-111652438D01*
X124238095Y-111652438D02*
X124285714Y-111700057D01*
X124285714Y-111700057D02*
X124333333Y-111795295D01*
X124333333Y-111795295D02*
X124380952Y-111985771D01*
X124380952Y-111985771D02*
X124380952Y-112223866D01*
X124380952Y-112223866D02*
X124333333Y-112414342D01*
X124333333Y-112414342D02*
X124285714Y-112509580D01*
X124285714Y-112509580D02*
X124238095Y-112557200D01*
X124238095Y-112557200D02*
X124142857Y-112604819D01*
X124142857Y-112604819D02*
X124047619Y-112604819D01*
X124047619Y-112604819D02*
X123952381Y-112557200D01*
X123952381Y-112557200D02*
X123904762Y-112509580D01*
X123904762Y-112509580D02*
X123857143Y-112414342D01*
X123857143Y-112414342D02*
X123809524Y-112223866D01*
X123809524Y-112223866D02*
X123809524Y-111985771D01*
X123809524Y-111985771D02*
X123857143Y-111795295D01*
X123857143Y-111795295D02*
X123904762Y-111700057D01*
X123904762Y-111700057D02*
X123952381Y-111652438D01*
X123952381Y-111652438D02*
X124047619Y-111604819D01*
X125238095Y-111938152D02*
X125238095Y-112604819D01*
X124809524Y-111938152D02*
X124809524Y-112461961D01*
X124809524Y-112461961D02*
X124857143Y-112557200D01*
X124857143Y-112557200D02*
X124952381Y-112604819D01*
X124952381Y-112604819D02*
X125095238Y-112604819D01*
X125095238Y-112604819D02*
X125190476Y-112557200D01*
X125190476Y-112557200D02*
X125238095Y-112509580D01*
X126047619Y-112081009D02*
X125714286Y-112081009D01*
X125714286Y-112604819D02*
X125714286Y-111604819D01*
X125714286Y-111604819D02*
X126190476Y-111604819D01*
D11*
%TO.C,USB1*%
X104250000Y-110670000D02*
X105950000Y-110670000D01*
X104250000Y-101330000D02*
X105950000Y-101330000D01*
%TO.C,R5*%
X110370000Y-116000000D02*
X110440000Y-116000000D01*
X110370000Y-116000000D02*
G75*
G02*
X107630000Y-116000000I-1370000J0D01*
G01*
X107630000Y-116000000D02*
G75*
G02*
X110370000Y-116000000I1370000J0D01*
G01*
%TO.C,R4*%
X104370000Y-120000000D02*
G75*
G02*
X101630000Y-120000000I-1370000J0D01*
G01*
X101630000Y-120000000D02*
G75*
G02*
X104370000Y-120000000I1370000J0D01*
G01*
X104370000Y-120000000D02*
X104440000Y-120000000D01*
%TO.C,R3*%
X104370000Y-116000000D02*
X104440000Y-116000000D01*
X104370000Y-116000000D02*
G75*
G02*
X101630000Y-116000000I-1370000J0D01*
G01*
X101630000Y-116000000D02*
G75*
G02*
X104370000Y-116000000I1370000J0D01*
G01*
%TO.C,R2*%
X110370000Y-120000000D02*
X110440000Y-120000000D01*
X110370000Y-120000000D02*
G75*
G02*
X107630000Y-120000000I-1370000J0D01*
G01*
X107630000Y-120000000D02*
G75*
G02*
X110370000Y-120000000I1370000J0D01*
G01*
%TO.C,R1*%
X122875000Y-102200000D02*
X122805000Y-102200000D01*
X125615000Y-102200000D02*
G75*
G02*
X122875000Y-102200000I-1370000J0D01*
G01*
X122875000Y-102200000D02*
G75*
G02*
X125615000Y-102200000I1370000J0D01*
G01*
%TO.C,P1*%
X118200000Y-133660000D02*
X118200000Y-134300000D01*
X118200000Y-134300000D02*
X118600000Y-134300000D01*
X118440000Y-124940000D02*
X118440000Y-134060000D01*
X118440000Y-124940000D02*
X128560000Y-124940000D01*
X118440000Y-132500000D02*
X128560000Y-132500000D01*
X118440000Y-133600000D02*
X128560000Y-133600000D01*
X118440000Y-134060000D02*
X128560000Y-134060000D01*
X119452000Y-130281000D02*
X119346000Y-130388000D01*
X119718000Y-130547000D02*
X119612000Y-130654000D01*
X122388000Y-127346000D02*
X122281000Y-127453000D01*
X122654000Y-127612000D02*
X122547000Y-127719000D01*
X124742000Y-129992000D02*
X124347000Y-130388000D01*
X124993000Y-130274000D02*
X124613000Y-130654000D01*
X127388000Y-127346000D02*
X127008000Y-127726000D01*
X127654000Y-127612000D02*
X127259000Y-128008000D01*
X128560000Y-124940000D02*
X128560000Y-134060000D01*
X123180000Y-129000000D02*
G75*
G02*
X118820000Y-129000000I-2180000J0D01*
G01*
X118820000Y-129000000D02*
G75*
G02*
X123180000Y-129000000I2180000J0D01*
G01*
X128180000Y-129000000D02*
G75*
G02*
X123820000Y-129000000I-2180000J0D01*
G01*
X123820000Y-129000000D02*
G75*
G02*
X128180000Y-129000000I2180000J0D01*
G01*
%TO.C,LED2*%
X117290000Y-116236000D02*
X117290000Y-116050000D01*
X117290000Y-113950000D02*
X117290000Y-113764000D01*
X116301500Y-116143000D02*
X115793500Y-116651000D01*
X116047500Y-115571500D02*
X116047500Y-114428500D01*
X115666500Y-116143000D02*
X115158500Y-116651000D01*
X117290000Y-116235516D02*
G75*
G02*
X114057665Y-116078608I-1560000J1235516D01*
G01*
X114057665Y-113921392D02*
G75*
G02*
X117290000Y-113764484I1672335J-1078608D01*
G01*
X116047500Y-116651000D02*
X115793500Y-116651000D01*
X115793500Y-116397000D01*
X116047500Y-116651000D01*
G36*
X116047500Y-116651000D02*
G01*
X115793500Y-116651000D01*
X115793500Y-116397000D01*
X116047500Y-116651000D01*
G37*
X116047500Y-115000000D02*
X115412500Y-115571500D01*
X115412500Y-114428500D01*
X116047500Y-115000000D01*
G36*
X116047500Y-115000000D02*
G01*
X115412500Y-115571500D01*
X115412500Y-114428500D01*
X116047500Y-115000000D01*
G37*
X115412500Y-116651000D02*
X115158500Y-116651000D01*
X115158500Y-116397000D01*
X115412500Y-116651000D01*
G36*
X115412500Y-116651000D02*
G01*
X115158500Y-116651000D01*
X115158500Y-116397000D01*
X115412500Y-116651000D01*
G37*
%TO.C,LED1*%
X117290000Y-121236000D02*
X117290000Y-121050000D01*
X117290000Y-118950000D02*
X117290000Y-118764000D01*
X116301500Y-121143000D02*
X115793500Y-121651000D01*
X116047500Y-120571500D02*
X116047500Y-119428500D01*
X115666500Y-121143000D02*
X115158500Y-121651000D01*
X117290000Y-121235516D02*
G75*
G02*
X114057665Y-121078608I-1560000J1235516D01*
G01*
X114057665Y-118921392D02*
G75*
G02*
X117290000Y-118764484I1672335J-1078608D01*
G01*
X116047500Y-121651000D02*
X115793500Y-121651000D01*
X115793500Y-121397000D01*
X116047500Y-121651000D01*
G36*
X116047500Y-121651000D02*
G01*
X115793500Y-121651000D01*
X115793500Y-121397000D01*
X116047500Y-121651000D01*
G37*
X116047500Y-120000000D02*
X115412500Y-120571500D01*
X115412500Y-119428500D01*
X116047500Y-120000000D01*
G36*
X116047500Y-120000000D02*
G01*
X115412500Y-120571500D01*
X115412500Y-119428500D01*
X116047500Y-120000000D01*
G37*
X115412500Y-121651000D02*
X115158500Y-121651000D01*
X115158500Y-121397000D01*
X115412500Y-121651000D01*
G36*
X115412500Y-121651000D02*
G01*
X115158500Y-121651000D01*
X115158500Y-121397000D01*
X115412500Y-121651000D01*
G37*
%TO.C,C5*%
X114686677Y-108628144D02*
G75*
G02*
X114666501Y-104254000I6075823J2215144D01*
G01*
X117333500Y-104261356D02*
G75*
G02*
X117353676Y-108635500I-6075820J-2215144D01*
G01*
X116000000Y-106800000D02*
X116000000Y-107800000D01*
X117000000Y-106800000D02*
X115000000Y-106800000D01*
X116000000Y-106200000D02*
X115000000Y-106200000D01*
X116000000Y-106200000D02*
X117000000Y-106200000D01*
X116000000Y-105200000D02*
X116000000Y-106200000D01*
%TO.C,C4*%
X110686677Y-108628144D02*
G75*
G02*
X110666501Y-104254000I6075823J2215144D01*
G01*
X113333500Y-104261356D02*
G75*
G02*
X113353676Y-108635500I-6075820J-2215144D01*
G01*
X112000000Y-106800000D02*
X112000000Y-107800000D01*
X113000000Y-106800000D02*
X111000000Y-106800000D01*
X112000000Y-106200000D02*
X111000000Y-106200000D01*
X112000000Y-106200000D02*
X113000000Y-106200000D01*
X112000000Y-105200000D02*
X112000000Y-106200000D01*
%TO.C,C2*%
X125800000Y-120000000D02*
X124800000Y-120000000D01*
X124800000Y-120000000D02*
X124800000Y-121000000D01*
X124800000Y-120000000D02*
X124800000Y-119000000D01*
X124200000Y-121000000D02*
X124200000Y-119000000D01*
X124200000Y-120000000D02*
X123200000Y-120000000D01*
X126738644Y-121333500D02*
G75*
G02*
X122364500Y-121353676I-2215144J6075820D01*
G01*
X122371856Y-118686677D02*
G75*
G02*
X126746000Y-118666501I2215144J-6075823D01*
G01*
%TO.C,C1*%
X125800000Y-115000000D02*
X124800000Y-115000000D01*
X124800000Y-115000000D02*
X124800000Y-116000000D01*
X124800000Y-115000000D02*
X124800000Y-114000000D01*
X124200000Y-116000000D02*
X124200000Y-114000000D01*
X124200000Y-115000000D02*
X123200000Y-115000000D01*
X126738644Y-116333500D02*
G75*
G02*
X122364500Y-116353676I-2215144J6075820D01*
G01*
X122371856Y-113686677D02*
G75*
G02*
X126746000Y-113666501I2215144J-6075823D01*
G01*
%TD*%
M02*
