M48
; DRILL file {KiCad 8.0.5} date 2024-10-25T17:28:03+0800
; FORMAT={-:-/ absolute / inch / decimal}
; #@! TF.CreationDate,2024-10-25T17:28:03+08:00
; #@! TF.GenerationSoftware,Kicad,Pcbnew,8.0.5
; #@! TF.FileFunction,Plated,1,2,PTH
FMAT,2
INCH
; #@! TA.AperFunction,Plated,PTH,ViaDrill
T1C0.0118
; #@! TA.AperFunction,Plated,PTH,ComponentDrill
T2C0.1181
%
G90
G05
T1
X3.8386Y-3.6417
X3.8386Y-3.8386
X3.8386Y-4.0354
X3.8386Y-4.2323
X3.8386Y-4.4291
X3.8386Y-4.626
X3.8386Y-4.8228
X3.8386Y-5.0197
X3.8386Y-5.2165
X3.8386Y-5.4134
X4.0354Y-3.6417
X4.0354Y-3.8386
X4.0354Y-4.0354
X4.0354Y-4.2323
X4.0354Y-4.4291
X4.0354Y-4.626
X4.0354Y-4.8228
X4.0354Y-5.0197
X4.0354Y-5.2165
X4.0354Y-5.4134
X4.2323Y-3.6417
X4.2323Y-3.8386
X4.2323Y-4.0354
X4.2323Y-4.2323
X4.2323Y-4.4291
X4.2323Y-4.626
X4.2323Y-4.8228
X4.2323Y-5.0197
X4.2323Y-5.2165
X4.4291Y-3.6417
X4.4291Y-3.8386
X4.4291Y-4.0354
X4.4291Y-4.2323
X4.4291Y-4.4291
X4.4291Y-4.626
X4.4291Y-4.8228
X4.4291Y-5.0197
X4.4291Y-5.2165
X4.5276Y-5.4157
X4.626Y-3.6417
X4.626Y-3.8386
X4.626Y-4.0354
X4.626Y-4.2323
X4.626Y-4.4291
X4.626Y-4.626
X4.626Y-4.8228
X4.626Y-5.0197
X4.626Y-5.2165
X4.8228Y-3.6417
X4.8228Y-3.8386
X4.8228Y-4.0354
X4.8228Y-4.2323
X4.8228Y-4.4291
X4.8228Y-4.626
X4.8228Y-4.8228
X4.8228Y-5.0197
X4.8228Y-5.2165
X4.9583Y-5.4165
X5.013Y-4.813
X5.0197Y-3.6417
X5.0197Y-4.0354
X5.0197Y-4.2323
X5.0197Y-4.4291
X5.0197Y-4.626
X5.2165Y-3.6417
X5.2165Y-3.8386
X5.2165Y-4.0354
X5.2165Y-4.2323
X5.2165Y-4.4291
X5.2165Y-4.626
X5.2165Y-4.8228
X5.2165Y-5.0197
T2
X5.1378Y-5.3346
M30
