%TF.GenerationSoftware,KiCad,Pcbnew,8.0.5*%
%TF.CreationDate,2024-10-25T17:28:07+08:00*%
%TF.ProjectId,LED_SMT_5730_5S6P_15W,4c45445f-534d-4545-9f35-3733305f3553,rev?*%
%TF.SameCoordinates,Original*%
%TF.FileFunction,Copper,L2,Bot*%
%TF.FilePolarity,Positive*%
%FSLAX46Y46*%
G04 Gerber Fmt 4.6, Leading zero omitted, Abs format (unit mm)*
G04 Created by KiCad (PCBNEW 8.0.5) date 2024-10-25 17:28:07*
%MOMM*%
%LPD*%
G01*
G04 APERTURE LIST*
%TA.AperFunction,ComponentPad*%
%ADD10C,6.000000*%
%TD*%
%TA.AperFunction,ViaPad*%
%ADD11C,0.500000*%
%TD*%
G04 APERTURE END LIST*
D10*
%TO.P,H1,1,1*%
%TO.N,unconnected-(H1-Pad1)*%
X130500000Y-135500000D03*
%TD*%
D11*
%TO.N,GND*%
X97500000Y-107500000D03*
X102500000Y-137500000D03*
X97500000Y-112500000D03*
X117500000Y-117500000D03*
X112500000Y-122500000D03*
X112500000Y-117500000D03*
X97500000Y-127500000D03*
X97500000Y-122500000D03*
X117500000Y-92500000D03*
X107500000Y-107500000D03*
X127500000Y-112500000D03*
X112500000Y-102500000D03*
X132500000Y-92500000D03*
X102500000Y-97500000D03*
X112500000Y-97500000D03*
X102500000Y-117500000D03*
X122500000Y-97500000D03*
X127330000Y-122250000D03*
X112500000Y-107500000D03*
X122500000Y-102500000D03*
X117500000Y-127500000D03*
X122500000Y-117500000D03*
X125940000Y-137580000D03*
X107500000Y-102500000D03*
X102500000Y-102500000D03*
X117500000Y-112500000D03*
X97500000Y-137500000D03*
X122500000Y-112500000D03*
X117500000Y-102500000D03*
X132500000Y-112500000D03*
X122500000Y-107500000D03*
X132500000Y-127500000D03*
X132500000Y-97500000D03*
X122500000Y-127500000D03*
X132500000Y-102500000D03*
X107500000Y-92500000D03*
X112500000Y-127500000D03*
X102500000Y-122500000D03*
X117500000Y-122500000D03*
X127500000Y-102500000D03*
X107500000Y-122500000D03*
X127500000Y-92500000D03*
X107500000Y-112500000D03*
X132500000Y-122500000D03*
X107500000Y-132500000D03*
X115000000Y-137560000D03*
X132500000Y-107500000D03*
X107500000Y-127500000D03*
X107500000Y-97500000D03*
X107500000Y-117500000D03*
X102500000Y-132500000D03*
X127500000Y-117500000D03*
X97500000Y-97500000D03*
X127500000Y-107500000D03*
X102500000Y-112500000D03*
X112500000Y-92500000D03*
X117500000Y-132500000D03*
X97500000Y-92500000D03*
X97500000Y-102500000D03*
X117500000Y-107500000D03*
X102500000Y-127500000D03*
X112500000Y-112500000D03*
X122500000Y-132500000D03*
X117500000Y-97500000D03*
X102500000Y-92500000D03*
X122500000Y-92500000D03*
X97500000Y-132500000D03*
X122500000Y-122500000D03*
X132500000Y-117500000D03*
X112500000Y-132500000D03*
X97500000Y-117500000D03*
X102500000Y-107500000D03*
%TD*%
%TA.AperFunction,Conductor*%
%TO.N,GND*%
G36*
X130002702Y-90200617D02*
G01*
X130412917Y-90218528D01*
X130423654Y-90219468D01*
X130828057Y-90272708D01*
X130838695Y-90274583D01*
X131236925Y-90362869D01*
X131247365Y-90365667D01*
X131636363Y-90488317D01*
X131646524Y-90492015D01*
X132023363Y-90648108D01*
X132033155Y-90652674D01*
X132394965Y-90841020D01*
X132404305Y-90846413D01*
X132689636Y-91028189D01*
X132748309Y-91065568D01*
X132757170Y-91071772D01*
X133080766Y-91320076D01*
X133089053Y-91327030D01*
X133389767Y-91602583D01*
X133397416Y-91610232D01*
X133672969Y-91910946D01*
X133679923Y-91919233D01*
X133928227Y-92242829D01*
X133934431Y-92251690D01*
X134153578Y-92595680D01*
X134158987Y-92605048D01*
X134347322Y-92966838D01*
X134351894Y-92976642D01*
X134507983Y-93353473D01*
X134511683Y-93363639D01*
X134634331Y-93752630D01*
X134637131Y-93763078D01*
X134725414Y-94161296D01*
X134727292Y-94171950D01*
X134780529Y-94576326D01*
X134781472Y-94587102D01*
X134799382Y-94997297D01*
X134799500Y-95002706D01*
X134799500Y-134997293D01*
X134799382Y-135002702D01*
X134781472Y-135412897D01*
X134780529Y-135423673D01*
X134727292Y-135828049D01*
X134725414Y-135838703D01*
X134637131Y-136236921D01*
X134634331Y-136247369D01*
X134511683Y-136636360D01*
X134507983Y-136646526D01*
X134351894Y-137023357D01*
X134347322Y-137033161D01*
X134158987Y-137394951D01*
X134153578Y-137404319D01*
X133934431Y-137748309D01*
X133928227Y-137757170D01*
X133679923Y-138080766D01*
X133672969Y-138089053D01*
X133397416Y-138389767D01*
X133389767Y-138397416D01*
X133089053Y-138672969D01*
X133080766Y-138679923D01*
X132757170Y-138928227D01*
X132748309Y-138934431D01*
X132404319Y-139153578D01*
X132394951Y-139158987D01*
X132033161Y-139347322D01*
X132023357Y-139351894D01*
X131646526Y-139507983D01*
X131636360Y-139511683D01*
X131247369Y-139634331D01*
X131236921Y-139637131D01*
X130838703Y-139725414D01*
X130828049Y-139727292D01*
X130423673Y-139780529D01*
X130412897Y-139781472D01*
X130002703Y-139799382D01*
X129997294Y-139799500D01*
X100002706Y-139799500D01*
X99997297Y-139799382D01*
X99587102Y-139781472D01*
X99576326Y-139780529D01*
X99171950Y-139727292D01*
X99161296Y-139725414D01*
X98763078Y-139637131D01*
X98752630Y-139634331D01*
X98363639Y-139511683D01*
X98353473Y-139507983D01*
X97976642Y-139351894D01*
X97966838Y-139347322D01*
X97847126Y-139285004D01*
X97605042Y-139158983D01*
X97595686Y-139153582D01*
X97423685Y-139044004D01*
X97251690Y-138934431D01*
X97242829Y-138928227D01*
X96919233Y-138679923D01*
X96910946Y-138672969D01*
X96610232Y-138397416D01*
X96602583Y-138389767D01*
X96327030Y-138089053D01*
X96320076Y-138080766D01*
X96071772Y-137757170D01*
X96065568Y-137748309D01*
X96012070Y-137664334D01*
X95846413Y-137404305D01*
X95841020Y-137394965D01*
X95652674Y-137033155D01*
X95648105Y-137023357D01*
X95609409Y-136929938D01*
X95492015Y-136646524D01*
X95488316Y-136636360D01*
X95472872Y-136587379D01*
X95365667Y-136247365D01*
X95362868Y-136236921D01*
X95325449Y-136068135D01*
X95274583Y-135838695D01*
X95272707Y-135828049D01*
X95229519Y-135499997D01*
X127094506Y-135499997D01*
X127094506Y-135500002D01*
X127114469Y-135868196D01*
X127114470Y-135868213D01*
X127174122Y-136232068D01*
X127174128Y-136232094D01*
X127272768Y-136587365D01*
X127272770Y-136587371D01*
X127409255Y-136929926D01*
X127409261Y-136929938D01*
X127581973Y-137255708D01*
X127581976Y-137255713D01*
X127581978Y-137255716D01*
X127788910Y-137560917D01*
X128027627Y-137841956D01*
X128295330Y-138095538D01*
X128588881Y-138318690D01*
X128904838Y-138508795D01*
X128904840Y-138508796D01*
X128904842Y-138508797D01*
X128904846Y-138508799D01*
X129239486Y-138663620D01*
X129239497Y-138663625D01*
X129588934Y-138781364D01*
X129949052Y-138860632D01*
X130315630Y-138900500D01*
X130315636Y-138900500D01*
X130684364Y-138900500D01*
X130684370Y-138900500D01*
X131050948Y-138860632D01*
X131411066Y-138781364D01*
X131760503Y-138663625D01*
X132095162Y-138508795D01*
X132411119Y-138318690D01*
X132704670Y-138095538D01*
X132972373Y-137841956D01*
X133211090Y-137560917D01*
X133418022Y-137255716D01*
X133590743Y-136929930D01*
X133727227Y-136587379D01*
X133825875Y-136232081D01*
X133885531Y-135868199D01*
X133905494Y-135500000D01*
X133885531Y-135131801D01*
X133863479Y-134997293D01*
X133825877Y-134767931D01*
X133825876Y-134767930D01*
X133825875Y-134767919D01*
X133727227Y-134412621D01*
X133590743Y-134070070D01*
X133418022Y-133744284D01*
X133211090Y-133439083D01*
X132972373Y-133158044D01*
X132704670Y-132904462D01*
X132411119Y-132681310D01*
X132095162Y-132491205D01*
X132095161Y-132491204D01*
X132095157Y-132491202D01*
X132095153Y-132491200D01*
X131760513Y-132336379D01*
X131760508Y-132336377D01*
X131760503Y-132336375D01*
X131590172Y-132278983D01*
X131411065Y-132218635D01*
X131050946Y-132139367D01*
X130684371Y-132099500D01*
X130684370Y-132099500D01*
X130315630Y-132099500D01*
X130315628Y-132099500D01*
X129949053Y-132139367D01*
X129588934Y-132218635D01*
X129318812Y-132309650D01*
X129239497Y-132336375D01*
X129239494Y-132336376D01*
X129239486Y-132336379D01*
X128904846Y-132491200D01*
X128904842Y-132491202D01*
X128669538Y-132632779D01*
X128588881Y-132681310D01*
X128488410Y-132757685D01*
X128295330Y-132904461D01*
X128295330Y-132904462D01*
X128027626Y-133158044D01*
X127788909Y-133439083D01*
X127581979Y-133744282D01*
X127581973Y-133744291D01*
X127409261Y-134070061D01*
X127409255Y-134070073D01*
X127272770Y-134412628D01*
X127272768Y-134412634D01*
X127174128Y-134767905D01*
X127174122Y-134767931D01*
X127114470Y-135131786D01*
X127114469Y-135131803D01*
X127094506Y-135499997D01*
X95229519Y-135499997D01*
X95219468Y-135423654D01*
X95218528Y-135412917D01*
X95200618Y-135002702D01*
X95200500Y-134997293D01*
X95200500Y-121999999D01*
X128844571Y-121999999D01*
X128844571Y-122000000D01*
X128864244Y-122212310D01*
X128922596Y-122417392D01*
X128922596Y-122417394D01*
X129017632Y-122608253D01*
X129017634Y-122608255D01*
X129146128Y-122778407D01*
X129303698Y-122922052D01*
X129484981Y-123034298D01*
X129683802Y-123111321D01*
X129893390Y-123150500D01*
X129893392Y-123150500D01*
X130106608Y-123150500D01*
X130106610Y-123150500D01*
X130316198Y-123111321D01*
X130515019Y-123034298D01*
X130696302Y-122922052D01*
X130853872Y-122778407D01*
X130982366Y-122608255D01*
X131077405Y-122417389D01*
X131135756Y-122212310D01*
X131155429Y-122000000D01*
X131135756Y-121787690D01*
X131077405Y-121582611D01*
X131077403Y-121582606D01*
X131077403Y-121582605D01*
X130982367Y-121391746D01*
X130853872Y-121221593D01*
X130696302Y-121077948D01*
X130515019Y-120965702D01*
X130515017Y-120965701D01*
X130415608Y-120927190D01*
X130316198Y-120888679D01*
X130106610Y-120849500D01*
X129893390Y-120849500D01*
X129683802Y-120888679D01*
X129683799Y-120888679D01*
X129683799Y-120888680D01*
X129484982Y-120965701D01*
X129484980Y-120965702D01*
X129303699Y-121077947D01*
X129146127Y-121221593D01*
X129017632Y-121391746D01*
X128922596Y-121582605D01*
X128922596Y-121582607D01*
X128864244Y-121787689D01*
X128844571Y-121999999D01*
X95200500Y-121999999D01*
X95200500Y-109999999D01*
X128844571Y-109999999D01*
X128844571Y-110000000D01*
X128864244Y-110212310D01*
X128922596Y-110417392D01*
X128922596Y-110417394D01*
X129017632Y-110608253D01*
X129017634Y-110608255D01*
X129146128Y-110778407D01*
X129303698Y-110922052D01*
X129484981Y-111034298D01*
X129683802Y-111111321D01*
X129893390Y-111150500D01*
X129893392Y-111150500D01*
X130106608Y-111150500D01*
X130106610Y-111150500D01*
X130316198Y-111111321D01*
X130515019Y-111034298D01*
X130696302Y-110922052D01*
X130853872Y-110778407D01*
X130982366Y-110608255D01*
X131077405Y-110417389D01*
X131135756Y-110212310D01*
X131155429Y-110000000D01*
X131135756Y-109787690D01*
X131077405Y-109582611D01*
X131077403Y-109582606D01*
X131077403Y-109582605D01*
X130982367Y-109391746D01*
X130853872Y-109221593D01*
X130696302Y-109077948D01*
X130515019Y-108965702D01*
X130515017Y-108965701D01*
X130415608Y-108927190D01*
X130316198Y-108888679D01*
X130106610Y-108849500D01*
X129893390Y-108849500D01*
X129683802Y-108888679D01*
X129683799Y-108888679D01*
X129683799Y-108888680D01*
X129484982Y-108965701D01*
X129484980Y-108965702D01*
X129303699Y-109077947D01*
X129146127Y-109221593D01*
X129017632Y-109391746D01*
X128922596Y-109582605D01*
X128922596Y-109582607D01*
X128864244Y-109787689D01*
X128844571Y-109999999D01*
X95200500Y-109999999D01*
X95200500Y-95002706D01*
X95200618Y-94997297D01*
X95209891Y-94784906D01*
X95218528Y-94587080D01*
X95219468Y-94576347D01*
X95272709Y-94171938D01*
X95274582Y-94161308D01*
X95362870Y-93763068D01*
X95365668Y-93752630D01*
X95488316Y-93363639D01*
X95492016Y-93353473D01*
X95593711Y-93107961D01*
X95648111Y-92976627D01*
X95652669Y-92966853D01*
X95841025Y-92605024D01*
X95846407Y-92595703D01*
X96065574Y-92251680D01*
X96071765Y-92242837D01*
X96320083Y-91919224D01*
X96327021Y-91910955D01*
X96602594Y-91610220D01*
X96610220Y-91602594D01*
X96910955Y-91327021D01*
X96919224Y-91320083D01*
X97242837Y-91071765D01*
X97251680Y-91065574D01*
X97595703Y-90846407D01*
X97605024Y-90841025D01*
X97966853Y-90652669D01*
X97976627Y-90648111D01*
X98353482Y-90492012D01*
X98363629Y-90488319D01*
X98752639Y-90365665D01*
X98763068Y-90362870D01*
X99161308Y-90274582D01*
X99171938Y-90272709D01*
X99576347Y-90219468D01*
X99587080Y-90218528D01*
X99997297Y-90200617D01*
X100002706Y-90200500D01*
X100039882Y-90200500D01*
X129960118Y-90200500D01*
X129997294Y-90200500D01*
X130002702Y-90200617D01*
G37*
%TD.AperFunction*%
%TD*%
M02*
