G04 Layer: BottomLayer*
G04 EasyEDA Pro v2.2.27.1, 2024-09-15 10:59:50*
G04 Gerber Generator version 0.3*
G04 Scale: 100 percent, Rotated: No, Reflected: No*
G04 Dimensions in millimeters*
G04 Leading zeros omitted, absolute positions, 3 integers and 5 decimals*
%TF.GenerationSoftware,KiCad,Pcbnew,8.0.5*%
%TF.CreationDate,2024-09-28T17:02:44+08:00*%
%TF.ProjectId,DCDC_power_24V-12V-5V,44434443-5f70-46f7-9765-725f3234562d,rev?*%
%TF.SameCoordinates,Original*%
%TF.FileFunction,Copper,L2,Bot*%
%TF.FilePolarity,Positive*%
%FSLAX46Y46*%
G04 Gerber Fmt 4.6, Leading zero omitted, Abs format (unit mm)*
G04 Created by KiCad (PCBNEW 8.0.5) date 2024-09-28 17:02:44*
%MOMM*%
%LPD*%
G01*
G04 APERTURE LIST*
%TA.AperFunction,ComponentPad*%
%ADD10R,1.700000X1.600000*%
%TD*%
%TA.AperFunction,ComponentPad*%
%ADD11C,1.600000*%
%TD*%
%TA.AperFunction,ComponentPad*%
%ADD12R,1.600000X1.700000*%
%TD*%
%TA.AperFunction,ViaPad*%
%ADD13C,0.500000*%
%TD*%
%TA.AperFunction,Conductor*%
%ADD14C,0.304800*%
%TD*%
G04 APERTURE END LIST*
D10*
%TO.P,H2,1,1*%
%TO.N,GND*%
X90524400Y-83562100D03*
D11*
%TO.P,H2,2,2*%
%TO.N,+12V*%
X90524400Y-81022100D03*
%TO.P,H2,3,3*%
%TO.N,GND*%
X93064400Y-83562100D03*
%TO.P,H2,4,4*%
%TO.N,+12V*%
X93064400Y-81022100D03*
%TO.P,H2,5,5*%
%TO.N,GND*%
X95604400Y-83562100D03*
%TO.P,H2,6,6*%
%TO.N,+12V*%
X95604400Y-81022100D03*
%TD*%
D12*
%TO.P,H3,1,1*%
%TO.N,GND*%
X119134400Y-85032100D03*
D11*
%TO.P,H3,2,2*%
%TO.N,+5V*%
X116594400Y-85032100D03*
%TO.P,H3,3,3*%
%TO.N,GND*%
X119134400Y-82492100D03*
%TO.P,H3,4,4*%
%TO.N,+5V*%
X116594400Y-82492100D03*
%TO.P,H3,5,5*%
%TO.N,GND*%
X119134400Y-79952100D03*
%TO.P,H3,6,6*%
%TO.N,+5V*%
X116594400Y-79952100D03*
%TD*%
D12*
%TO.P,H1,1,1*%
%TO.N,GND*%
X95434400Y-99032100D03*
D11*
%TO.P,H1,2,2*%
%TO.N,+24V*%
X92894400Y-99032100D03*
%TO.P,H1,3,3*%
%TO.N,GND*%
X95434400Y-96492100D03*
%TO.P,H1,4,4*%
%TO.N,+24V*%
X92894400Y-96492100D03*
%TO.P,H1,5,5*%
%TO.N,GND*%
X95434400Y-93952100D03*
%TO.P,H1,6,6*%
%TO.N,+24V*%
X92894400Y-93952100D03*
%TD*%
D13*
%TO.N,+24V*%
X75009300Y-98625100D03*
%TO.N,GND*%
X89994400Y-86602100D03*
X84508384Y-85492100D03*
X78864400Y-96992100D03*
X78314400Y-91342100D03*
X101424400Y-101842100D03*
X101714400Y-84342100D03*
X78547770Y-95569230D03*
X120114400Y-93704600D03*
X86620416Y-85492100D03*
X80414400Y-88192100D03*
X79547770Y-95569230D03*
X77714400Y-84537320D03*
X120114400Y-91429600D03*
X78314400Y-92398116D03*
X83452368Y-85492100D03*
X118376900Y-95542100D03*
X85564400Y-85492100D03*
X70944400Y-101842100D03*
X67134400Y-98032100D03*
X86184400Y-86602100D03*
X82614400Y-86542100D03*
X105234400Y-98032100D03*
X79664400Y-93398116D03*
X106656600Y-79192100D03*
X112854400Y-98032100D03*
X79547770Y-94569230D03*
X97614400Y-94222100D03*
X97164400Y-84342100D03*
X79664400Y-91286084D03*
X81938464Y-84537320D03*
X102564400Y-83792100D03*
X77714400Y-82842100D03*
X78770416Y-84537320D03*
X79920416Y-96992100D03*
X100576900Y-84342100D03*
X120114400Y-94842100D03*
X105234400Y-101842100D03*
X109044400Y-98032100D03*
X107764400Y-81466700D03*
X82994480Y-84537320D03*
X101424400Y-98032100D03*
X67134400Y-94222100D03*
X74754400Y-101842100D03*
X78564400Y-86602100D03*
X109044400Y-82792100D03*
X86162528Y-84537320D03*
X112854400Y-82792100D03*
X84050496Y-84537320D03*
X81558384Y-86542100D03*
X87582300Y-96694700D03*
X97614400Y-90412100D03*
X87218548Y-84537320D03*
X105691400Y-81415900D03*
X70944400Y-98032100D03*
X120474400Y-101842100D03*
X89994400Y-94222100D03*
X80502368Y-86542100D03*
X67134400Y-101842100D03*
X105691400Y-79231500D03*
X97614400Y-101842100D03*
X82374400Y-101842100D03*
X109044400Y-101842100D03*
X118514400Y-86842100D03*
X80882448Y-84537320D03*
X120474400Y-98032100D03*
X97614400Y-98032100D03*
X97614400Y-86602100D03*
X112854400Y-101842100D03*
X99439400Y-84342100D03*
X87676436Y-85492100D03*
X116664400Y-98032100D03*
X78564400Y-101842100D03*
X120114400Y-90292100D03*
X77808384Y-96992100D03*
X79826432Y-84537320D03*
X107545600Y-79192100D03*
X78314400Y-90286084D03*
X89994400Y-101842100D03*
X119714400Y-88492100D03*
X85106512Y-84537320D03*
X116664400Y-101842100D03*
X78547770Y-94569230D03*
X119714400Y-87354600D03*
X93804400Y-86602100D03*
X97164400Y-82842100D03*
X105691400Y-82584300D03*
X120114400Y-92567100D03*
X98301900Y-84342100D03*
X89994400Y-98032100D03*
X93804400Y-101842100D03*
X79664400Y-92342100D03*
X86184400Y-101842100D03*
%TO.N,+12V*%
X87379100Y-99539500D03*
%TD*%
D14*
%TO.N,+24V*%
X91634400Y-100292100D02*
X92894400Y-99032100D01*
X75009300Y-98625100D02*
X83097400Y-98625100D01*
X83097400Y-98625100D02*
X84764400Y-100292100D01*
X84764400Y-100292100D02*
X91634400Y-100292100D01*
%TO.N,+12V*%
X90524400Y-81022100D02*
X88714400Y-82832100D01*
X88714400Y-82832100D02*
X88714400Y-98204200D01*
X88714400Y-98204200D02*
X87379100Y-99539500D01*
%TD*%
%TA.AperFunction,Conductor*%
%TO.N,GND*%
G36*
X119267872Y-77392795D02*
G01*
X119570903Y-77409813D01*
X119584701Y-77411367D01*
X119880480Y-77461622D01*
X119894036Y-77464716D01*
X120182327Y-77547772D01*
X120195451Y-77552365D01*
X120472622Y-77667172D01*
X120485144Y-77673201D01*
X120687584Y-77785086D01*
X120747728Y-77818327D01*
X120759502Y-77825725D01*
X121004189Y-77999339D01*
X121015057Y-78008007D01*
X121238752Y-78207915D01*
X121248584Y-78217747D01*
X121448492Y-78441442D01*
X121457163Y-78452314D01*
X121630774Y-78696997D01*
X121638172Y-78708771D01*
X121783294Y-78971348D01*
X121789327Y-78983877D01*
X121904134Y-79261048D01*
X121908727Y-79274172D01*
X121991783Y-79562463D01*
X121994877Y-79576020D01*
X122045130Y-79871788D01*
X122046687Y-79885606D01*
X122063705Y-80188627D01*
X122063900Y-80195580D01*
X122063900Y-100488619D01*
X122063705Y-100495572D01*
X122046687Y-100798593D01*
X122045130Y-100812411D01*
X121994877Y-101108179D01*
X121991783Y-101121736D01*
X121908727Y-101410027D01*
X121904134Y-101423151D01*
X121789327Y-101700322D01*
X121783294Y-101712851D01*
X121638172Y-101975428D01*
X121630774Y-101987202D01*
X121457163Y-102231885D01*
X121448492Y-102242757D01*
X121248584Y-102466452D01*
X121238752Y-102476284D01*
X121015057Y-102676192D01*
X121004185Y-102684863D01*
X120759502Y-102858474D01*
X120747728Y-102865872D01*
X120485151Y-103010994D01*
X120472622Y-103017027D01*
X120195451Y-103131834D01*
X120182327Y-103136427D01*
X119894036Y-103219483D01*
X119880479Y-103222577D01*
X119584711Y-103272830D01*
X119570893Y-103274387D01*
X119267872Y-103291405D01*
X119260919Y-103291600D01*
X69167881Y-103291600D01*
X69160928Y-103291405D01*
X68857906Y-103274387D01*
X68844088Y-103272830D01*
X68548320Y-103222577D01*
X68534763Y-103219483D01*
X68246472Y-103136427D01*
X68233348Y-103131834D01*
X67956177Y-103017027D01*
X67943648Y-103010994D01*
X67681071Y-102865872D01*
X67669297Y-102858474D01*
X67424614Y-102684863D01*
X67413742Y-102676192D01*
X67190047Y-102476284D01*
X67180215Y-102466452D01*
X66980307Y-102242757D01*
X66971636Y-102231885D01*
X66798025Y-101987202D01*
X66790627Y-101975428D01*
X66645505Y-101712851D01*
X66639472Y-101700322D01*
X66524665Y-101423151D01*
X66520072Y-101410027D01*
X66437016Y-101121736D01*
X66433922Y-101108179D01*
X66414430Y-100993456D01*
X66383667Y-100812401D01*
X66382113Y-100798603D01*
X66365095Y-100495572D01*
X66364900Y-100488619D01*
X66364900Y-98625099D01*
X74354022Y-98625099D01*
X74354022Y-98625100D01*
X74373062Y-98781918D01*
X74429080Y-98929623D01*
X74518817Y-99059630D01*
X74637060Y-99164383D01*
X74637062Y-99164384D01*
X74776934Y-99237796D01*
X74930314Y-99275600D01*
X74930315Y-99275600D01*
X75088286Y-99275600D01*
X75101812Y-99272265D01*
X75139301Y-99263025D01*
X75145152Y-99261733D01*
X75562354Y-99180296D01*
X75586110Y-99178000D01*
X82817020Y-99178000D01*
X82884059Y-99197685D01*
X82904701Y-99214319D01*
X84317629Y-100627247D01*
X84317639Y-100627258D01*
X84321969Y-100631588D01*
X84321970Y-100631589D01*
X84424911Y-100734530D01*
X84487950Y-100770925D01*
X84550988Y-100807321D01*
X84621299Y-100826160D01*
X84691609Y-100845000D01*
X84691610Y-100845000D01*
X84691611Y-100845000D01*
X91707189Y-100845000D01*
X91707190Y-100845000D01*
X91707191Y-100845000D01*
X91777501Y-100826160D01*
X91847812Y-100807321D01*
X91910850Y-100770925D01*
X91973889Y-100734530D01*
X92076830Y-100631589D01*
X92076830Y-100631587D01*
X92087034Y-100621384D01*
X92087038Y-100621379D01*
X92478005Y-100230411D01*
X92539326Y-100196928D01*
X92588463Y-100196205D01*
X92783157Y-100232600D01*
X92783160Y-100232600D01*
X93005641Y-100232600D01*
X93005643Y-100232600D01*
X93224340Y-100191718D01*
X93431801Y-100111347D01*
X93620962Y-99994224D01*
X93785381Y-99844336D01*
X93919458Y-99666789D01*
X94018629Y-99467628D01*
X94079515Y-99253636D01*
X94100043Y-99032100D01*
X94097088Y-99000215D01*
X94079515Y-98810564D01*
X94079514Y-98810562D01*
X94071364Y-98781918D01*
X94018629Y-98596572D01*
X93992297Y-98543690D01*
X93919461Y-98397416D01*
X93919456Y-98397408D01*
X93785379Y-98219861D01*
X93620962Y-98069976D01*
X93620960Y-98069974D01*
X93431804Y-97952854D01*
X93431795Y-97952850D01*
X93338356Y-97916652D01*
X93237875Y-97877725D01*
X93182475Y-97835154D01*
X93158884Y-97769388D01*
X93174595Y-97701307D01*
X93224619Y-97652528D01*
X93237866Y-97646477D01*
X93431801Y-97571347D01*
X93620962Y-97454224D01*
X93785381Y-97304336D01*
X93919458Y-97126789D01*
X94018629Y-96927628D01*
X94079515Y-96713636D01*
X94100043Y-96492100D01*
X94081511Y-96292100D01*
X105005600Y-96292100D01*
X110264400Y-96292100D01*
X110264400Y-86216500D01*
X105005600Y-86216500D01*
X105005600Y-96292100D01*
X94081511Y-96292100D01*
X94079515Y-96270564D01*
X94018629Y-96056572D01*
X94018624Y-96056561D01*
X93919461Y-95857416D01*
X93919456Y-95857408D01*
X93785379Y-95679861D01*
X93620962Y-95529976D01*
X93620960Y-95529974D01*
X93431804Y-95412854D01*
X93431795Y-95412850D01*
X93338356Y-95376652D01*
X93237875Y-95337725D01*
X93182475Y-95295154D01*
X93158884Y-95229388D01*
X93174595Y-95161307D01*
X93224619Y-95112528D01*
X93237866Y-95106477D01*
X93431801Y-95031347D01*
X93620962Y-94914224D01*
X93785381Y-94764336D01*
X93919458Y-94586789D01*
X94018629Y-94387628D01*
X94079515Y-94173636D01*
X94100043Y-93952100D01*
X94079515Y-93730564D01*
X94018629Y-93516572D01*
X94018624Y-93516561D01*
X93919461Y-93317416D01*
X93919456Y-93317408D01*
X93785379Y-93139861D01*
X93620962Y-92989976D01*
X93620960Y-92989974D01*
X93431804Y-92872854D01*
X93431798Y-92872852D01*
X93224340Y-92792482D01*
X93005643Y-92751600D01*
X92783157Y-92751600D01*
X92564460Y-92792482D01*
X92433264Y-92843307D01*
X92357001Y-92872852D01*
X92356995Y-92872854D01*
X92167839Y-92989974D01*
X92167837Y-92989976D01*
X92003420Y-93139861D01*
X91869343Y-93317408D01*
X91869338Y-93317416D01*
X91770175Y-93516561D01*
X91770169Y-93516576D01*
X91709285Y-93730562D01*
X91709284Y-93730564D01*
X91688757Y-93952099D01*
X91688757Y-93952100D01*
X91709284Y-94173635D01*
X91709285Y-94173637D01*
X91770169Y-94387623D01*
X91770175Y-94387638D01*
X91869338Y-94586783D01*
X91869343Y-94586791D01*
X92003420Y-94764338D01*
X92167837Y-94914223D01*
X92167839Y-94914225D01*
X92356995Y-95031345D01*
X92356996Y-95031345D01*
X92356999Y-95031347D01*
X92550924Y-95106474D01*
X92606324Y-95149046D01*
X92629915Y-95214813D01*
X92614204Y-95282893D01*
X92564180Y-95331672D01*
X92550933Y-95337722D01*
X92402888Y-95395075D01*
X92357001Y-95412852D01*
X92356995Y-95412854D01*
X92167839Y-95529974D01*
X92167837Y-95529976D01*
X92003420Y-95679861D01*
X91869343Y-95857408D01*
X91869338Y-95857416D01*
X91770175Y-96056561D01*
X91770169Y-96056576D01*
X91709285Y-96270562D01*
X91709284Y-96270564D01*
X91688757Y-96492099D01*
X91688757Y-96492100D01*
X91709284Y-96713635D01*
X91709285Y-96713637D01*
X91770169Y-96927623D01*
X91770175Y-96927638D01*
X91869338Y-97126783D01*
X91869343Y-97126791D01*
X92003420Y-97304338D01*
X92167837Y-97454223D01*
X92167839Y-97454225D01*
X92356995Y-97571345D01*
X92356996Y-97571345D01*
X92356999Y-97571347D01*
X92550924Y-97646474D01*
X92606324Y-97689046D01*
X92629915Y-97754813D01*
X92614204Y-97822893D01*
X92564180Y-97871672D01*
X92550933Y-97877722D01*
X92402888Y-97935075D01*
X92357001Y-97952852D01*
X92356995Y-97952854D01*
X92167839Y-98069974D01*
X92167837Y-98069976D01*
X92003420Y-98219861D01*
X91869343Y-98397408D01*
X91869338Y-98397416D01*
X91770175Y-98596561D01*
X91770169Y-98596576D01*
X91709285Y-98810562D01*
X91709284Y-98810564D01*
X91688757Y-99032099D01*
X91688757Y-99032100D01*
X91709284Y-99253635D01*
X91709285Y-99253637D01*
X91729581Y-99324969D01*
X91728995Y-99394836D01*
X91697996Y-99446584D01*
X91441699Y-99702882D01*
X91380379Y-99736366D01*
X91354020Y-99739200D01*
X88262289Y-99739200D01*
X88195250Y-99719515D01*
X88149495Y-99666711D01*
X88139551Y-99597553D01*
X88159421Y-99545960D01*
X88160803Y-99543905D01*
X88162742Y-99541027D01*
X88177920Y-99522596D01*
X89156830Y-98543689D01*
X89192252Y-98482336D01*
X89229621Y-98417611D01*
X89267300Y-98276991D01*
X89267300Y-83112480D01*
X89286985Y-83045441D01*
X89303619Y-83024799D01*
X89614783Y-82713635D01*
X90108006Y-82220411D01*
X90169327Y-82186928D01*
X90218463Y-82186205D01*
X90413157Y-82222600D01*
X90413160Y-82222600D01*
X90635641Y-82222600D01*
X90635643Y-82222600D01*
X90854340Y-82181718D01*
X91061801Y-82101347D01*
X91250962Y-81984224D01*
X91415381Y-81834336D01*
X91549458Y-81656789D01*
X91648629Y-81457628D01*
X91675134Y-81364471D01*
X91712413Y-81305378D01*
X91775723Y-81275821D01*
X91844962Y-81285183D01*
X91898149Y-81330493D01*
X91913666Y-81364472D01*
X91940169Y-81457623D01*
X91940175Y-81457638D01*
X92039338Y-81656783D01*
X92039343Y-81656791D01*
X92173420Y-81834338D01*
X92337837Y-81984223D01*
X92337839Y-81984225D01*
X92526995Y-82101345D01*
X92526996Y-82101345D01*
X92526999Y-82101347D01*
X92734460Y-82181718D01*
X92953157Y-82222600D01*
X92953159Y-82222600D01*
X93175641Y-82222600D01*
X93175643Y-82222600D01*
X93394340Y-82181718D01*
X93601801Y-82101347D01*
X93790962Y-81984224D01*
X93955381Y-81834336D01*
X94089458Y-81656789D01*
X94188629Y-81457628D01*
X94215134Y-81364471D01*
X94252413Y-81305378D01*
X94315723Y-81275821D01*
X94384962Y-81285183D01*
X94438149Y-81330493D01*
X94453666Y-81364472D01*
X94480169Y-81457623D01*
X94480175Y-81457638D01*
X94579338Y-81656783D01*
X94579343Y-81656791D01*
X94713420Y-81834338D01*
X94877837Y-81984223D01*
X94877839Y-81984225D01*
X95066995Y-82101345D01*
X95066996Y-82101345D01*
X95066999Y-82101347D01*
X95274460Y-82181718D01*
X95493157Y-82222600D01*
X95493159Y-82222600D01*
X95715641Y-82222600D01*
X95715643Y-82222600D01*
X95934340Y-82181718D01*
X96141801Y-82101347D01*
X96330962Y-81984224D01*
X96495381Y-81834336D01*
X96629458Y-81656789D01*
X96728629Y-81457628D01*
X96789515Y-81243636D01*
X96810043Y-81022100D01*
X96789515Y-80800564D01*
X96728629Y-80586572D01*
X96728624Y-80586561D01*
X96629461Y-80387416D01*
X96629456Y-80387408D01*
X96495379Y-80209861D01*
X96330962Y-80059976D01*
X96330960Y-80059974D01*
X96156735Y-79952099D01*
X115388757Y-79952099D01*
X115388757Y-79952100D01*
X115409284Y-80173635D01*
X115409285Y-80173637D01*
X115470169Y-80387623D01*
X115470175Y-80387638D01*
X115569338Y-80586783D01*
X115569343Y-80586791D01*
X115703420Y-80764338D01*
X115867837Y-80914223D01*
X115867839Y-80914225D01*
X116056995Y-81031345D01*
X116056996Y-81031345D01*
X116056999Y-81031347D01*
X116250924Y-81106474D01*
X116306324Y-81149046D01*
X116329915Y-81214813D01*
X116314204Y-81282893D01*
X116264180Y-81331672D01*
X116250933Y-81337722D01*
X116129319Y-81384836D01*
X116057001Y-81412852D01*
X116056995Y-81412854D01*
X115867839Y-81529974D01*
X115867837Y-81529976D01*
X115703420Y-81679861D01*
X115569343Y-81857408D01*
X115569338Y-81857416D01*
X115470175Y-82056561D01*
X115470169Y-82056576D01*
X115409285Y-82270562D01*
X115409284Y-82270564D01*
X115388757Y-82492099D01*
X115388757Y-82492100D01*
X115409284Y-82713635D01*
X115409285Y-82713637D01*
X115470169Y-82927623D01*
X115470175Y-82927638D01*
X115569338Y-83126783D01*
X115569343Y-83126791D01*
X115703420Y-83304338D01*
X115867837Y-83454223D01*
X115867839Y-83454225D01*
X116056995Y-83571345D01*
X116056996Y-83571345D01*
X116056999Y-83571347D01*
X116250924Y-83646474D01*
X116306324Y-83689046D01*
X116329915Y-83754813D01*
X116314204Y-83822893D01*
X116264180Y-83871672D01*
X116250933Y-83877722D01*
X116102888Y-83935075D01*
X116057001Y-83952852D01*
X116056995Y-83952854D01*
X115867839Y-84069974D01*
X115867837Y-84069976D01*
X115703420Y-84219861D01*
X115569343Y-84397408D01*
X115569338Y-84397416D01*
X115470175Y-84596561D01*
X115470169Y-84596576D01*
X115409285Y-84810562D01*
X115409284Y-84810564D01*
X115388757Y-85032099D01*
X115388757Y-85032100D01*
X115409284Y-85253635D01*
X115409285Y-85253637D01*
X115470169Y-85467623D01*
X115470175Y-85467638D01*
X115569338Y-85666783D01*
X115569343Y-85666791D01*
X115703420Y-85844338D01*
X115867837Y-85994223D01*
X115867839Y-85994225D01*
X116056995Y-86111345D01*
X116056996Y-86111345D01*
X116056999Y-86111347D01*
X116264460Y-86191718D01*
X116483157Y-86232600D01*
X116483159Y-86232600D01*
X116705641Y-86232600D01*
X116705643Y-86232600D01*
X116924340Y-86191718D01*
X117131801Y-86111347D01*
X117320962Y-85994224D01*
X117485381Y-85844336D01*
X117619458Y-85666789D01*
X117718629Y-85467628D01*
X117779515Y-85253636D01*
X117800043Y-85032100D01*
X117779515Y-84810564D01*
X117718629Y-84596572D01*
X117718624Y-84596561D01*
X117619461Y-84397416D01*
X117619456Y-84397408D01*
X117485379Y-84219861D01*
X117320962Y-84069976D01*
X117320960Y-84069974D01*
X117131804Y-83952854D01*
X117131795Y-83952850D01*
X117038356Y-83916652D01*
X116937875Y-83877725D01*
X116882475Y-83835154D01*
X116858884Y-83769388D01*
X116874595Y-83701307D01*
X116924619Y-83652528D01*
X116937866Y-83646477D01*
X117131801Y-83571347D01*
X117320962Y-83454224D01*
X117485381Y-83304336D01*
X117619458Y-83126789D01*
X117718629Y-82927628D01*
X117779515Y-82713636D01*
X117800043Y-82492100D01*
X117779515Y-82270564D01*
X117718629Y-82056572D01*
X117718624Y-82056561D01*
X117619461Y-81857416D01*
X117619456Y-81857408D01*
X117485379Y-81679861D01*
X117320962Y-81529976D01*
X117320960Y-81529974D01*
X117131804Y-81412854D01*
X117131795Y-81412850D01*
X117038356Y-81376652D01*
X116937875Y-81337725D01*
X116882475Y-81295154D01*
X116858884Y-81229388D01*
X116874595Y-81161307D01*
X116924619Y-81112528D01*
X116937866Y-81106477D01*
X117131801Y-81031347D01*
X117320962Y-80914224D01*
X117485381Y-80764336D01*
X117619458Y-80586789D01*
X117718629Y-80387628D01*
X117779515Y-80173636D01*
X117800043Y-79952100D01*
X117779515Y-79730564D01*
X117718629Y-79516572D01*
X117718624Y-79516561D01*
X117619461Y-79317416D01*
X117619456Y-79317408D01*
X117485379Y-79139861D01*
X117320962Y-78989976D01*
X117320960Y-78989974D01*
X117131804Y-78872854D01*
X117131798Y-78872852D01*
X116924340Y-78792482D01*
X116705643Y-78751600D01*
X116483157Y-78751600D01*
X116264460Y-78792482D01*
X116133264Y-78843307D01*
X116057001Y-78872852D01*
X116056995Y-78872854D01*
X115867839Y-78989974D01*
X115867837Y-78989976D01*
X115703420Y-79139861D01*
X115569343Y-79317408D01*
X115569338Y-79317416D01*
X115470175Y-79516561D01*
X115470169Y-79516576D01*
X115409285Y-79730562D01*
X115409284Y-79730564D01*
X115388757Y-79952099D01*
X96156735Y-79952099D01*
X96141804Y-79942854D01*
X96141798Y-79942852D01*
X95934340Y-79862482D01*
X95715643Y-79821600D01*
X95493157Y-79821600D01*
X95274460Y-79862482D01*
X95143264Y-79913307D01*
X95067001Y-79942852D01*
X95066995Y-79942854D01*
X94877839Y-80059974D01*
X94877837Y-80059976D01*
X94713420Y-80209861D01*
X94579343Y-80387408D01*
X94579338Y-80387416D01*
X94480175Y-80586561D01*
X94480169Y-80586576D01*
X94453666Y-80679727D01*
X94416387Y-80738821D01*
X94353077Y-80768378D01*
X94283838Y-80759016D01*
X94230651Y-80713706D01*
X94215134Y-80679727D01*
X94188630Y-80586576D01*
X94188629Y-80586572D01*
X94188624Y-80586561D01*
X94089461Y-80387416D01*
X94089456Y-80387408D01*
X93955379Y-80209861D01*
X93790962Y-80059976D01*
X93790960Y-80059974D01*
X93601804Y-79942854D01*
X93601798Y-79942852D01*
X93394340Y-79862482D01*
X93175643Y-79821600D01*
X92953157Y-79821600D01*
X92734460Y-79862482D01*
X92603264Y-79913307D01*
X92527001Y-79942852D01*
X92526995Y-79942854D01*
X92337839Y-80059974D01*
X92337837Y-80059976D01*
X92173420Y-80209861D01*
X92039343Y-80387408D01*
X92039338Y-80387416D01*
X91940175Y-80586561D01*
X91940169Y-80586576D01*
X91913666Y-80679727D01*
X91876387Y-80738821D01*
X91813077Y-80768378D01*
X91743838Y-80759016D01*
X91690651Y-80713706D01*
X91675134Y-80679727D01*
X91648630Y-80586576D01*
X91648629Y-80586572D01*
X91648624Y-80586561D01*
X91549461Y-80387416D01*
X91549456Y-80387408D01*
X91415379Y-80209861D01*
X91250962Y-80059976D01*
X91250960Y-80059974D01*
X91061804Y-79942854D01*
X91061798Y-79942852D01*
X90854340Y-79862482D01*
X90635643Y-79821600D01*
X90413157Y-79821600D01*
X90194460Y-79862482D01*
X90063264Y-79913307D01*
X89987001Y-79942852D01*
X89986995Y-79942854D01*
X89797839Y-80059974D01*
X89797837Y-80059976D01*
X89633420Y-80209861D01*
X89499343Y-80387408D01*
X89499338Y-80387416D01*
X89400175Y-80586561D01*
X89400169Y-80586576D01*
X89339285Y-80800562D01*
X89339284Y-80800564D01*
X89318757Y-81022099D01*
X89318757Y-81022100D01*
X89339284Y-81243635D01*
X89339285Y-81243637D01*
X89359581Y-81314969D01*
X89358995Y-81384836D01*
X89327996Y-81436584D01*
X88374913Y-82389668D01*
X88271972Y-82492608D01*
X88271970Y-82492611D01*
X88235574Y-82555650D01*
X88235573Y-82555650D01*
X88199178Y-82618687D01*
X88199179Y-82618687D01*
X88199179Y-82618688D01*
X88161500Y-82759309D01*
X88161500Y-97923819D01*
X88141815Y-97990858D01*
X88125181Y-98011500D01*
X87396013Y-98740667D01*
X87377590Y-98755842D01*
X87047910Y-98977834D01*
X87036284Y-98984771D01*
X87006861Y-99000215D01*
X87006859Y-99000216D01*
X86983299Y-99021087D01*
X86975144Y-99027716D01*
X86956746Y-99041417D01*
X86956715Y-99041441D01*
X86955034Y-99042822D01*
X86920828Y-99076235D01*
X86916412Y-99080344D01*
X86888619Y-99104967D01*
X86888615Y-99104972D01*
X86798881Y-99234975D01*
X86798880Y-99234976D01*
X86742862Y-99382681D01*
X86725875Y-99522591D01*
X86723822Y-99539500D01*
X86724606Y-99545960D01*
X86731199Y-99600253D01*
X86719739Y-99669177D01*
X86672835Y-99720963D01*
X86608103Y-99739200D01*
X85044780Y-99739200D01*
X84977741Y-99719515D01*
X84957099Y-99702881D01*
X83546900Y-98292682D01*
X83546898Y-98292679D01*
X83436890Y-98182671D01*
X83436889Y-98182670D01*
X83370324Y-98144239D01*
X83310812Y-98109879D01*
X83221010Y-98085817D01*
X83221008Y-98085816D01*
X83221006Y-98085815D01*
X83170192Y-98072200D01*
X83170191Y-98072200D01*
X75586114Y-98072200D01*
X75562357Y-98069903D01*
X75145161Y-97988466D01*
X75139248Y-97987161D01*
X75088285Y-97974600D01*
X75072461Y-97974600D01*
X75063448Y-97974156D01*
X75063446Y-97974196D01*
X75060764Y-97974048D01*
X74990792Y-97973219D01*
X74985063Y-97973852D01*
X74971459Y-97974600D01*
X74930314Y-97974600D01*
X74776934Y-98012403D01*
X74637062Y-98085815D01*
X74637060Y-98085817D01*
X74527736Y-98182669D01*
X74518816Y-98190571D01*
X74429081Y-98320575D01*
X74429080Y-98320576D01*
X74373062Y-98468281D01*
X74354022Y-98625099D01*
X66364900Y-98625099D01*
X66364900Y-88092100D01*
X68114400Y-88092100D01*
X76564400Y-88092100D01*
X76564400Y-81892100D01*
X68114400Y-81892100D01*
X68114400Y-88092100D01*
X66364900Y-88092100D01*
X66364900Y-80195580D01*
X66365095Y-80188627D01*
X66372320Y-80059974D01*
X66382113Y-79885594D01*
X66383667Y-79871800D01*
X66433923Y-79576015D01*
X66437016Y-79562463D01*
X66450241Y-79516561D01*
X66520073Y-79274168D01*
X66524665Y-79261048D01*
X66636947Y-78989974D01*
X66639475Y-78983868D01*
X66645497Y-78971362D01*
X66790630Y-78708765D01*
X66798025Y-78696997D01*
X66971645Y-78452301D01*
X66980296Y-78441454D01*
X67180216Y-78217745D01*
X67190047Y-78207915D01*
X67413754Y-78007996D01*
X67424601Y-77999345D01*
X67669302Y-77825721D01*
X67681065Y-77818330D01*
X67943662Y-77673197D01*
X67956168Y-77667175D01*
X68233348Y-77552365D01*
X68246468Y-77547773D01*
X68534769Y-77464714D01*
X68548315Y-77461623D01*
X68844100Y-77411367D01*
X68857894Y-77409813D01*
X69160928Y-77392795D01*
X69167881Y-77392600D01*
X69204282Y-77392600D01*
X119224518Y-77392600D01*
X119260919Y-77392600D01*
X119267872Y-77392795D01*
G37*
%TD.AperFunction*%
%TD*%
%TA.AperFunction,Conductor*%
%TO.N,+12V*%
G36*
X87631704Y-99084998D02*
G01*
X87833601Y-99286895D01*
X87837028Y-99295168D01*
X87835033Y-99301703D01*
X87563778Y-99704542D01*
X87556315Y-99709490D01*
X87547538Y-99707712D01*
X87545833Y-99706313D01*
X87378426Y-99540239D01*
X87378360Y-99540173D01*
X87212286Y-99372766D01*
X87208892Y-99364479D01*
X87212352Y-99356220D01*
X87214051Y-99354825D01*
X87616897Y-99083565D01*
X87625673Y-99081788D01*
X87631704Y-99084998D01*
G37*
%TD.AperFunction*%
%TD*%
%TA.AperFunction,Conductor*%
%TO.N,+24V*%
G36*
X75023181Y-98377809D02*
G01*
X75499843Y-98470854D01*
X75507305Y-98475801D01*
X75509300Y-98482336D01*
X75509300Y-98767863D01*
X75505873Y-98776136D01*
X75499842Y-98779346D01*
X75023185Y-98872389D01*
X75014408Y-98870611D01*
X75009460Y-98863148D01*
X75009243Y-98860953D01*
X75008909Y-98777500D01*
X75008300Y-98625100D01*
X75009243Y-98389244D01*
X75012703Y-98380987D01*
X75020990Y-98377593D01*
X75023181Y-98377809D01*
G37*
%TD.AperFunction*%
%TD*%
M02*
