G04 Layer: TopSolderMaskLayer*
G04 EasyEDA Pro v2.2.27.1, 2024-09-15 10:59:50*
G04 Gerber Generator version 0.3*
G04 Scale: 100 percent, Rotated: No, Reflected: No*
G04 Dimensions in millimeters*
G04 Leading zeros omitted, absolute positions, 3 integers and 5 decimals*
%TF.GenerationSoftware,KiCad,Pcbnew,8.0.5*%
%TF.CreationDate,2024-09-28T17:02:44+08:00*%
%TF.ProjectId,DCDC_power_24V-12V-5V,44434443-5f70-46f7-9765-725f3234562d,rev?*%
%TF.SameCoordinates,Original*%
%TF.FileFunction,Soldermask,Top*%
%TF.FilePolarity,Negative*%
%FSLAX46Y46*%
G04 Gerber Fmt 4.6, Leading zero omitted, Abs format (unit mm)*
G04 Created by KiCad (PCBNEW 8.0.5) date 2024-09-28 17:02:44*
%MOMM*%
%LPD*%
G01*
G04 APERTURE LIST*
G04 Aperture macros list*
%AMRoundRect*
0 Rectangle with rounded corners*
0 $1 Rounding radius*
0 $2 $3 $4 $5 $6 $7 $8 $9 X,Y pos of 4 corners*
0 Add a 4 corners polygon primitive as box body*
4,1,4,$2,$3,$4,$5,$6,$7,$8,$9,$2,$3,0*
0 Add four circle primitives for the rounded corners*
1,1,$1+$1,$2,$3*
1,1,$1+$1,$4,$5*
1,1,$1+$1,$6,$7*
1,1,$1+$1,$8,$9*
0 Add four rect primitives between the rounded corners*
20,1,$1+$1,$2,$3,$4,$5,0*
20,1,$1+$1,$4,$5,$6,$7,0*
20,1,$1+$1,$6,$7,$8,$9,0*
20,1,$1+$1,$8,$9,$2,$3,0*%
G04 Aperture macros list end*
%ADD10C,0.180000*%
%ADD11C,0.200000*%
%ADD12RoundRect,0.362900X-0.362900X0.392900X-0.362900X-0.392900X0.362900X-0.392900X0.362900X0.392900X0*%
%ADD13RoundRect,0.050800X-0.850000X-0.800000X0.850000X-0.800000X0.850000X0.800000X-0.850000X0.800000X0*%
%ADD14C,1.701600*%
%ADD15RoundRect,0.227025X-0.227025X-0.255775X0.227025X-0.255775X0.227025X0.255775X-0.227025X0.255775X0*%
%ADD16RoundRect,0.362900X0.362900X-0.392900X0.362900X0.392900X-0.362900X0.392900X-0.362900X-0.392900X0*%
%ADD17O,2.139600X0.675600*%
%ADD18RoundRect,0.050800X-1.000000X1.000000X-1.000000X-1.000000X1.000000X-1.000000X1.000000X1.000000X0*%
%ADD19RoundRect,0.362900X0.392900X0.362900X-0.392900X0.362900X-0.392900X-0.362900X0.392900X-0.362900X0*%
%ADD20RoundRect,0.308525X-0.308525X-0.430775X0.308525X-0.430775X0.308525X0.430775X-0.308525X0.430775X0*%
%ADD21RoundRect,0.225400X-0.225400X-0.275400X0.225400X-0.275400X0.225400X0.275400X-0.225400X0.275400X0*%
%ADD22RoundRect,0.225400X0.225400X0.275400X-0.225400X0.275400X-0.225400X-0.275400X0.225400X-0.275400X0*%
%ADD23RoundRect,0.050800X0.800000X-0.850000X0.800000X0.850000X-0.800000X0.850000X-0.800000X-0.850000X0*%
%ADD24RoundRect,0.308525X0.430775X-0.308525X0.430775X0.308525X-0.430775X0.308525X-0.430775X-0.308525X0*%
%ADD25RoundRect,0.158400X0.428400X-0.158400X0.428400X0.158400X-0.428400X0.158400X-0.428400X-0.158400X0*%
%ADD26RoundRect,0.227025X-0.255775X0.227025X-0.255775X-0.227025X0.255775X-0.227025X0.255775X0.227025X0*%
%ADD27RoundRect,1.050400X-1.050400X-1.050400X1.050400X-1.050400X1.050400X1.050400X-1.050400X1.050400X0*%
%ADD28RoundRect,0.756400X-1.004400X0.756400X-1.004400X-0.756400X1.004400X-0.756400X1.004400X0.756400X0*%
%ADD29RoundRect,0.308525X0.308525X0.430775X-0.308525X0.430775X-0.308525X-0.430775X0.308525X-0.430775X0*%
%ADD30RoundRect,0.396650X0.518150X-0.396650X0.518150X0.396650X-0.518150X0.396650X-0.518150X-0.396650X0*%
%ADD31RoundRect,0.227025X0.255775X-0.227025X0.255775X0.227025X-0.255775X0.227025X-0.255775X-0.227025X0*%
%ADD32RoundRect,0.225400X0.275400X-0.225400X0.275400X0.225400X-0.275400X0.225400X-0.275400X-0.225400X0*%
G04 APERTURE END LIST*
D10*
X109564400Y-86992100D02*
X114534400Y-86992100D01*
X114534400Y-95492100D01*
X109564400Y-95492100D01*
X109564400Y-86992100D01*
G36*
X109564400Y-86992100D02*
G01*
X114534400Y-86992100D01*
X114534400Y-95492100D01*
X109564400Y-95492100D01*
X109564400Y-86992100D01*
G37*
D11*
X66744400Y-86752100D02*
X76924400Y-86752100D01*
X76924400Y-91412100D01*
X66744400Y-91412100D01*
X66744400Y-86752100D01*
G36*
X66744400Y-86752100D02*
G01*
X76924400Y-86752100D01*
X76924400Y-91412100D01*
X66744400Y-91412100D01*
X66744400Y-86752100D01*
G37*
D10*
X100814400Y-86992100D02*
X105864400Y-86992100D01*
X105864400Y-95492100D01*
X100814400Y-95492100D01*
X100814400Y-86992100D01*
G36*
X100814400Y-86992100D02*
G01*
X105864400Y-86992100D01*
X105864400Y-95492100D01*
X100814400Y-95492100D01*
X100814400Y-86992100D01*
G37*
D11*
X66964400Y-79002100D02*
X76954400Y-79002100D01*
X76954400Y-83422100D01*
X66964400Y-83422100D01*
X66964400Y-79002100D01*
G36*
X66964400Y-79002100D02*
G01*
X76954400Y-79002100D01*
X76954400Y-83422100D01*
X66964400Y-83422100D01*
X66964400Y-79002100D01*
G37*
D12*
%TO.C,C6*%
X78947900Y-81291100D03*
X78947900Y-83291100D03*
%TD*%
D13*
%TO.C,H2*%
X90524400Y-83562100D03*
D14*
X90524400Y-81022100D03*
X93064400Y-83562100D03*
X93064400Y-81022100D03*
X95604400Y-83562100D03*
X95604400Y-81022100D03*
%TD*%
D15*
%TO.C,R7*%
X102710900Y-78992100D03*
X104217900Y-78992100D03*
%TD*%
D12*
%TO.C,C3*%
X81784400Y-87831323D03*
X81784400Y-89831323D03*
%TD*%
D16*
%TO.C,C12*%
X100510400Y-83172300D03*
X100510400Y-81172300D03*
%TD*%
D17*
%TO.C,U1*%
X76278900Y-93164100D03*
X76278900Y-94434100D03*
X76278900Y-95704100D03*
X76278900Y-96974100D03*
X81816900Y-96974100D03*
X81816900Y-95704100D03*
X81816900Y-94434100D03*
X81816900Y-93164100D03*
D18*
X79047900Y-95069100D03*
%TD*%
D19*
%TO.C,C15*%
X118864400Y-94244516D03*
X116864400Y-94244516D03*
%TD*%
D20*
%TO.C,R4*%
X84397900Y-99514100D03*
X86397900Y-99514100D03*
%TD*%
D21*
%TO.C,C14*%
X104610400Y-84286100D03*
X106010400Y-84286100D03*
%TD*%
D22*
%TO.C,C18*%
X118564400Y-87892100D03*
X117164400Y-87892100D03*
%TD*%
D23*
%TO.C,H3*%
X119134400Y-85032100D03*
D14*
X116594400Y-85032100D03*
X119134400Y-82492100D03*
X116594400Y-82492100D03*
X119134400Y-79952100D03*
X116594400Y-79952100D03*
%TD*%
D24*
%TO.C,R2*%
X73840900Y-98609100D03*
X73840900Y-96609100D03*
%TD*%
D25*
%TO.C,U2*%
X106713400Y-82442100D03*
X106713400Y-81492100D03*
X106713400Y-80542100D03*
X104415400Y-80542100D03*
X104415400Y-81492100D03*
X104415400Y-82442100D03*
%TD*%
D16*
%TO.C,C11*%
X98464400Y-83192100D03*
X98464400Y-81192100D03*
%TD*%
D12*
%TO.C,C8*%
X83011900Y-81291100D03*
X83011900Y-83291100D03*
%TD*%
D26*
%TO.C,R8*%
X110644400Y-79849600D03*
X110644400Y-81356600D03*
%TD*%
D19*
%TO.C,C16*%
X118864400Y-92092100D03*
X116864400Y-92092100D03*
%TD*%
D12*
%TO.C,C9*%
X85064400Y-81292100D03*
X85064400Y-83292100D03*
%TD*%
D27*
%TO.C,L2*%
X102914400Y-91242100D03*
X112414400Y-91242100D03*
%TD*%
D12*
%TO.C,C7*%
X80979900Y-81291100D03*
X80979900Y-83291100D03*
%TD*%
D28*
%TO.C,L1*%
X71808900Y-89941100D03*
X71808900Y-80385100D03*
%TD*%
D29*
%TO.C,R5*%
X86397900Y-97355100D03*
X84397900Y-97355100D03*
%TD*%
D30*
%TO.C,C2*%
X84229900Y-89915823D03*
X84229900Y-86730823D03*
%TD*%
%TO.C,C1*%
X86864400Y-89915823D03*
X86864400Y-86730823D03*
%TD*%
D31*
%TO.C,R9*%
X108739400Y-81356600D03*
X108739400Y-79849600D03*
%TD*%
D32*
%TO.C,C13*%
X102421800Y-82892100D03*
X102421800Y-81492100D03*
%TD*%
D12*
%TO.C,C10*%
X87164400Y-81292100D03*
X87164400Y-83292100D03*
%TD*%
D29*
%TO.C,R3*%
X86397900Y-93291100D03*
X84397900Y-93291100D03*
%TD*%
D19*
%TO.C,C17*%
X118864400Y-89892100D03*
X116864400Y-89892100D03*
%TD*%
D24*
%TO.C,R1*%
X88826900Y-97339100D03*
X88826900Y-95339100D03*
%TD*%
D19*
%TO.C,C4*%
X86524900Y-95323100D03*
X84524900Y-95323100D03*
%TD*%
D12*
%TO.C,C5*%
X73840900Y-92672100D03*
X73840900Y-94672100D03*
%TD*%
D23*
%TO.C,H1*%
X95434400Y-99032100D03*
D14*
X92894400Y-99032100D03*
X95434400Y-96492100D03*
X92894400Y-96492100D03*
X95434400Y-93952100D03*
X92894400Y-93952100D03*
%TD*%
M02*
