G04 Layer: TopLayer*
G04 EasyEDA Pro v2.2.27.1, 2024-09-15 10:59:50*
G04 Gerber Generator version 0.3*
G04 Scale: 100 percent, Rotated: No, Reflected: No*
G04 Dimensions in millimeters*
G04 Leading zeros omitted, absolute positions, 3 integers and 5 decimals*
%TF.GenerationSoftware,KiCad,Pcbnew,8.0.5*%
%TF.CreationDate,2024-09-28T17:02:44+08:00*%
%TF.ProjectId,DCDC_power_24V-12V-5V,44434443-5f70-46f7-9765-725f3234562d,rev?*%
%TF.SameCoordinates,Original*%
%TF.FileFunction,Copper,L1,Top*%
%TF.FilePolarity,Positive*%
%FSLAX46Y46*%
G04 Gerber Fmt 4.6, Leading zero omitted, Abs format (unit mm)*
G04 Created by KiCad (PCBNEW 8.0.5) date 2024-09-28 17:02:44*
%MOMM*%
%LPD*%
G01*
G04 APERTURE LIST*
G04 Aperture macros list*
%AMRoundRect*
0 Rectangle with rounded corners*
0 $1 Rounding radius*
0 $2 $3 $4 $5 $6 $7 $8 $9 X,Y pos of 4 corners*
0 Add a 4 corners polygon primitive as box body*
4,1,4,$2,$3,$4,$5,$6,$7,$8,$9,$2,$3,0*
0 Add four circle primitives for the rounded corners*
1,1,$1+$1,$2,$3*
1,1,$1+$1,$4,$5*
1,1,$1+$1,$6,$7*
1,1,$1+$1,$8,$9*
0 Add four rect primitives between the rounded corners*
20,1,$1+$1,$2,$3,$4,$5,0*
20,1,$1+$1,$4,$5,$6,$7,0*
20,1,$1+$1,$6,$7,$8,$9,0*
20,1,$1+$1,$8,$9,$2,$3,0*%
G04 Aperture macros list end*
%TA.AperFunction,Conductor*%
%ADD10C,0.180000*%
%TD*%
%TA.AperFunction,Conductor*%
%ADD11C,0.000000*%
%TD*%
%TA.AperFunction,Conductor*%
%ADD12C,0.200000*%
%TD*%
%TA.AperFunction,SMDPad,CuDef*%
%ADD13RoundRect,0.337500X-0.337500X0.367500X-0.337500X-0.367500X0.337500X-0.367500X0.337500X0.367500X0*%
%TD*%
%TA.AperFunction,ComponentPad*%
%ADD14R,1.700000X1.600000*%
%TD*%
%TA.AperFunction,ComponentPad*%
%ADD15C,1.600000*%
%TD*%
%TA.AperFunction,SMDPad,CuDef*%
%ADD16RoundRect,0.201625X-0.201625X-0.230375X0.201625X-0.230375X0.201625X0.230375X-0.201625X0.230375X0*%
%TD*%
%TA.AperFunction,SMDPad,CuDef*%
%ADD17RoundRect,0.337500X0.337500X-0.367500X0.337500X0.367500X-0.337500X0.367500X-0.337500X-0.367500X0*%
%TD*%
%TA.AperFunction,SMDPad,CuDef*%
%ADD18O,2.038000X0.574000*%
%TD*%
%TA.AperFunction,SMDPad,CuDef*%
%ADD19R,2.000000X2.000000*%
%TD*%
%TA.AperFunction,SMDPad,CuDef*%
%ADD20RoundRect,0.337500X0.367500X0.337500X-0.367500X0.337500X-0.367500X-0.337500X0.367500X-0.337500X0*%
%TD*%
%TA.AperFunction,SMDPad,CuDef*%
%ADD21RoundRect,0.283125X-0.283125X-0.405375X0.283125X-0.405375X0.283125X0.405375X-0.283125X0.405375X0*%
%TD*%
%TA.AperFunction,SMDPad,CuDef*%
%ADD22RoundRect,0.200000X-0.200000X-0.250000X0.200000X-0.250000X0.200000X0.250000X-0.200000X0.250000X0*%
%TD*%
%TA.AperFunction,SMDPad,CuDef*%
%ADD23RoundRect,0.200000X0.200000X0.250000X-0.200000X0.250000X-0.200000X-0.250000X0.200000X-0.250000X0*%
%TD*%
%TA.AperFunction,ComponentPad*%
%ADD24R,1.600000X1.700000*%
%TD*%
%TA.AperFunction,SMDPad,CuDef*%
%ADD25RoundRect,0.283125X0.405375X-0.283125X0.405375X0.283125X-0.405375X0.283125X-0.405375X-0.283125X0*%
%TD*%
%TA.AperFunction,SMDPad,CuDef*%
%ADD26RoundRect,0.133000X0.403000X-0.133000X0.403000X0.133000X-0.403000X0.133000X-0.403000X-0.133000X0*%
%TD*%
%TA.AperFunction,SMDPad,CuDef*%
%ADD27RoundRect,0.201625X-0.230375X0.201625X-0.230375X-0.201625X0.230375X-0.201625X0.230375X0.201625X0*%
%TD*%
%TA.AperFunction,SMDPad,CuDef*%
%ADD28RoundRect,1.025000X-1.025000X-1.025000X1.025000X-1.025000X1.025000X1.025000X-1.025000X1.025000X0*%
%TD*%
%TA.AperFunction,SMDPad,CuDef*%
%ADD29RoundRect,0.731000X-0.979000X0.731000X-0.979000X-0.731000X0.979000X-0.731000X0.979000X0.731000X0*%
%TD*%
%TA.AperFunction,SMDPad,CuDef*%
%ADD30RoundRect,0.283125X0.283125X0.405375X-0.283125X0.405375X-0.283125X-0.405375X0.283125X-0.405375X0*%
%TD*%
%TA.AperFunction,SMDPad,CuDef*%
%ADD31RoundRect,0.371250X0.492750X-0.371250X0.492750X0.371250X-0.492750X0.371250X-0.492750X-0.371250X0*%
%TD*%
%TA.AperFunction,SMDPad,CuDef*%
%ADD32RoundRect,0.201625X0.230375X-0.201625X0.230375X0.201625X-0.230375X0.201625X-0.230375X-0.201625X0*%
%TD*%
%TA.AperFunction,SMDPad,CuDef*%
%ADD33RoundRect,0.200000X0.250000X-0.200000X0.250000X0.200000X-0.250000X0.200000X-0.250000X-0.200000X0*%
%TD*%
%TA.AperFunction,ViaPad*%
%ADD34C,0.500000*%
%TD*%
%TA.AperFunction,Conductor*%
%ADD35C,0.762000*%
%TD*%
%TA.AperFunction,Conductor*%
%ADD36C,1.000000*%
%TD*%
%TA.AperFunction,Conductor*%
%ADD37C,0.573990*%
%TD*%
%TA.AperFunction,Conductor*%
%ADD38C,0.500000*%
%TD*%
%TA.AperFunction,Conductor*%
%ADD39C,0.635000*%
%TD*%
%TA.AperFunction,Conductor*%
%ADD40C,0.304800*%
%TD*%
%TA.AperFunction,Conductor*%
%ADD41C,0.381000*%
%TD*%
G04 APERTURE END LIST*
%TO.N,+24V*%
D10*
X80764400Y-89192100D02*
X82864400Y-89192100D01*
X82864400Y-93492100D01*
X80764400Y-93492100D01*
X80764400Y-89192100D01*
%TA.AperFunction,Conductor*%
G36*
X80764400Y-89192100D02*
G01*
X82864400Y-89192100D01*
X82864400Y-93492100D01*
X80764400Y-93492100D01*
X80764400Y-89192100D01*
G37*
%TD.AperFunction*%
D11*
%TA.AperFunction,Conductor*%
%TO.N,/RT7272_SW*%
G36*
X76904400Y-90562100D02*
G01*
X77396900Y-93748300D01*
X70361100Y-93748300D01*
X69268900Y-92656100D01*
X69268900Y-88592100D01*
X69776900Y-88084100D01*
X73332900Y-88084100D01*
X76904400Y-90562100D01*
G37*
%TD.AperFunction*%
%TO.N,+24V*%
D10*
X91064400Y-89192100D02*
X94064400Y-89192100D01*
X94064400Y-100492100D01*
X91064400Y-100492100D01*
X91064400Y-89192100D01*
%TA.AperFunction,Conductor*%
G36*
X91064400Y-89192100D02*
G01*
X94064400Y-89192100D01*
X94064400Y-100492100D01*
X91064400Y-100492100D01*
X91064400Y-89192100D01*
G37*
%TD.AperFunction*%
%TO.N,+12V*%
X67934400Y-77792100D02*
X79814400Y-77792100D01*
X79814400Y-81892100D01*
X67934400Y-81892100D01*
X67934400Y-77792100D01*
%TA.AperFunction,Conductor*%
G36*
X67934400Y-77792100D02*
G01*
X79814400Y-77792100D01*
X79814400Y-81892100D01*
X67934400Y-81892100D01*
X67934400Y-77792100D01*
G37*
%TD.AperFunction*%
D12*
X66994400Y-78972100D02*
X76974400Y-78972100D01*
X76974400Y-83422100D01*
X66994400Y-83422100D01*
X66994400Y-78972100D01*
%TA.AperFunction,Conductor*%
G36*
X66994400Y-78972100D02*
G01*
X76974400Y-78972100D01*
X76974400Y-83422100D01*
X66994400Y-83422100D01*
X66994400Y-78972100D01*
G37*
%TD.AperFunction*%
%TO.N,/MT2492_SW*%
D10*
X103564400Y-82192100D02*
X105064400Y-82192100D01*
X105064400Y-87892100D01*
X103564400Y-87892100D01*
X103564400Y-82192100D01*
%TA.AperFunction,Conductor*%
G36*
X103564400Y-82192100D02*
G01*
X105064400Y-82192100D01*
X105064400Y-87892100D01*
X103564400Y-87892100D01*
X103564400Y-82192100D01*
G37*
%TD.AperFunction*%
%TO.N,+12V*%
X103804400Y-81212100D02*
X103804400Y-81512100D01*
X102704400Y-81512100D01*
X102704400Y-80412100D01*
X103204400Y-80412100D01*
X103804400Y-81212100D01*
%TA.AperFunction,Conductor*%
G36*
X103804400Y-81212100D02*
G01*
X103804400Y-81512100D01*
X102704400Y-81512100D01*
X102704400Y-80412100D01*
X103204400Y-80412100D01*
X103804400Y-81212100D01*
G37*
%TD.AperFunction*%
%TO.N,+5V*%
X109564400Y-86992100D02*
X114534400Y-86992100D01*
X114534400Y-95492100D01*
X109564400Y-95492100D01*
X109564400Y-86992100D01*
%TA.AperFunction,Conductor*%
G36*
X109564400Y-86992100D02*
G01*
X114534400Y-86992100D01*
X114534400Y-95492100D01*
X109564400Y-95492100D01*
X109564400Y-86992100D01*
G37*
%TD.AperFunction*%
%TO.N,+12V*%
X100364400Y-81192100D02*
X105064400Y-81192100D01*
X105064400Y-81792100D01*
X100364400Y-81792100D01*
X100364400Y-81192100D01*
%TA.AperFunction,Conductor*%
G36*
X100364400Y-81192100D02*
G01*
X105064400Y-81192100D01*
X105064400Y-81792100D01*
X100364400Y-81792100D01*
X100364400Y-81192100D01*
G37*
%TD.AperFunction*%
%TO.N,/MT2492_SW*%
X100814400Y-86992100D02*
X105864400Y-86992100D01*
X105864400Y-95492100D01*
X100814400Y-95492100D01*
X100814400Y-86992100D01*
%TA.AperFunction,Conductor*%
G36*
X100814400Y-86992100D02*
G01*
X105864400Y-86992100D01*
X105864400Y-95492100D01*
X100814400Y-95492100D01*
X100814400Y-86992100D01*
G37*
%TD.AperFunction*%
%TO.N,+12V*%
X78164400Y-79892100D02*
X88164400Y-79892100D01*
X88164400Y-81892100D01*
X78164400Y-81892100D01*
X78164400Y-79892100D01*
%TA.AperFunction,Conductor*%
G36*
X78164400Y-79892100D02*
G01*
X88164400Y-79892100D01*
X88164400Y-81892100D01*
X78164400Y-81892100D01*
X78164400Y-79892100D01*
G37*
%TD.AperFunction*%
%TO.N,+5V*%
X115464400Y-78392100D02*
X117464400Y-78392100D01*
X117464400Y-96292100D01*
X115464400Y-96292100D01*
X115464400Y-78392100D01*
%TA.AperFunction,Conductor*%
G36*
X115464400Y-78392100D02*
G01*
X117464400Y-78392100D01*
X117464400Y-96292100D01*
X115464400Y-96292100D01*
X115464400Y-78392100D01*
G37*
%TD.AperFunction*%
%TO.N,+12V*%
X86364400Y-77792100D02*
X103264400Y-77792100D01*
X103264400Y-81892100D01*
X86364400Y-81892100D01*
X86364400Y-77792100D01*
%TA.AperFunction,Conductor*%
G36*
X86364400Y-77792100D02*
G01*
X103264400Y-77792100D01*
X103264400Y-81892100D01*
X86364400Y-81892100D01*
X86364400Y-77792100D01*
G37*
%TD.AperFunction*%
%TO.N,+5V*%
X110264400Y-89192100D02*
X117464400Y-89192100D01*
X117464400Y-96292100D01*
X110264400Y-96292100D01*
X110264400Y-89192100D01*
%TA.AperFunction,Conductor*%
G36*
X110264400Y-89192100D02*
G01*
X117464400Y-89192100D01*
X117464400Y-96292100D01*
X110264400Y-96292100D01*
X110264400Y-89192100D01*
G37*
%TD.AperFunction*%
%TO.N,+24V*%
X80764400Y-89192100D02*
X94064400Y-89192100D01*
X94064400Y-91892100D01*
X80764400Y-91892100D01*
X80764400Y-89192100D01*
%TA.AperFunction,Conductor*%
G36*
X80764400Y-89192100D02*
G01*
X94064400Y-89192100D01*
X94064400Y-91892100D01*
X80764400Y-91892100D01*
X80764400Y-89192100D01*
G37*
%TD.AperFunction*%
%TO.N,/RT7272_SW*%
D12*
X66744400Y-86752100D02*
X76904400Y-86752100D01*
X76904400Y-91372100D01*
X66744400Y-91372100D01*
X66744400Y-86752100D01*
%TA.AperFunction,Conductor*%
G36*
X66744400Y-86752100D02*
G01*
X76904400Y-86752100D01*
X76904400Y-91372100D01*
X66744400Y-91372100D01*
X66744400Y-86752100D01*
G37*
%TD.AperFunction*%
%TD*%
D13*
%TO.P,C6,1,1*%
%TO.N,+12V*%
X78947900Y-81291100D03*
%TO.P,C6,2,2*%
%TO.N,GND*%
X78947900Y-83291100D03*
%TD*%
D14*
%TO.P,H2,1,1*%
%TO.N,GND*%
X90524400Y-83562100D03*
D15*
%TO.P,H2,2,2*%
%TO.N,+12V*%
X90524400Y-81022100D03*
%TO.P,H2,3,3*%
%TO.N,GND*%
X93064400Y-83562100D03*
%TO.P,H2,4,4*%
%TO.N,+12V*%
X93064400Y-81022100D03*
%TO.P,H2,5,5*%
%TO.N,GND*%
X95604400Y-83562100D03*
%TO.P,H2,6,6*%
%TO.N,+12V*%
X95604400Y-81022100D03*
%TD*%
D16*
%TO.P,R7,1,1*%
%TO.N,+12V*%
X102710900Y-78992100D03*
%TO.P,R7,2,2*%
%TO.N,/MT2492_EN*%
X104217900Y-78992100D03*
%TD*%
D13*
%TO.P,C3,1,1*%
%TO.N,GND*%
X81784400Y-87831323D03*
%TO.P,C3,2,2*%
%TO.N,+24V*%
X81784400Y-89831323D03*
%TD*%
D17*
%TO.P,C12,1,1*%
%TO.N,GND*%
X100510400Y-83172300D03*
%TO.P,C12,2,2*%
%TO.N,+12V*%
X100510400Y-81172300D03*
%TD*%
D18*
%TO.P,U1,1,SW*%
%TO.N,/RT7272_SW*%
X76278900Y-93164100D03*
%TO.P,U1,2,BOOT*%
%TO.N,/RT7272_BOOT*%
X76278900Y-94434100D03*
%TO.P,U1,3,EN*%
%TO.N,/RT7272_EN*%
X76278900Y-95704100D03*
%TO.P,U1,4,GND*%
%TO.N,GND*%
X76278900Y-96974100D03*
%TO.P,U1,5,FB*%
%TO.N,/RT7272_FB*%
X81816900Y-96974100D03*
%TO.P,U1,6,COMP*%
%TO.N,/RT7272_COMP*%
X81816900Y-95704100D03*
%TO.P,U1,7,RLIM*%
%TO.N,/RT7272_RLIM*%
X81816900Y-94434100D03*
%TO.P,U1,8,VIN*%
%TO.N,+24V*%
X81816900Y-93164100D03*
D19*
%TO.P,U1,9,EPAD*%
%TO.N,GND*%
X79047900Y-95069100D03*
%TD*%
D20*
%TO.P,C15,1,1*%
%TO.N,GND*%
X118864400Y-94244516D03*
%TO.P,C15,2,2*%
%TO.N,+5V*%
X116864400Y-94244516D03*
%TD*%
D21*
%TO.P,R4,1,1*%
%TO.N,/RT7272_FB*%
X84397900Y-99514100D03*
%TO.P,R4,2,2*%
%TO.N,+12V*%
X86397900Y-99514100D03*
%TD*%
D22*
%TO.P,C14,1,1*%
%TO.N,/MT2492_SW*%
X104610400Y-84286100D03*
%TO.P,C14,2,2*%
%TO.N,/MT2492_BS*%
X106010400Y-84286100D03*
%TD*%
D23*
%TO.P,C18,1,1*%
%TO.N,GND*%
X118564400Y-87892100D03*
%TO.P,C18,2,2*%
%TO.N,+5V*%
X117164400Y-87892100D03*
%TD*%
D24*
%TO.P,H3,1,1*%
%TO.N,GND*%
X119134400Y-85032100D03*
D15*
%TO.P,H3,2,2*%
%TO.N,+5V*%
X116594400Y-85032100D03*
%TO.P,H3,3,3*%
%TO.N,GND*%
X119134400Y-82492100D03*
%TO.P,H3,4,4*%
%TO.N,+5V*%
X116594400Y-82492100D03*
%TO.P,H3,5,5*%
%TO.N,GND*%
X119134400Y-79952100D03*
%TO.P,H3,6,6*%
%TO.N,+5V*%
X116594400Y-79952100D03*
%TD*%
D25*
%TO.P,R2,1,1*%
%TO.N,+24V*%
X73840900Y-98609100D03*
%TO.P,R2,2,2*%
%TO.N,/RT7272_EN*%
X73840900Y-96609100D03*
%TD*%
D26*
%TO.P,U2,1,BS*%
%TO.N,/MT2492_BS*%
X106713400Y-82442100D03*
%TO.P,U2,2,GND*%
%TO.N,GND*%
X106713400Y-81492100D03*
%TO.P,U2,3,FB*%
%TO.N,/MT2492_FB*%
X106713400Y-80542100D03*
%TO.P,U2,4,EN*%
%TO.N,/MT2492_EN*%
X104415400Y-80542100D03*
%TO.P,U2,5,IN*%
%TO.N,+12V*%
X104415400Y-81492100D03*
%TO.P,U2,6,SW*%
%TO.N,/MT2492_SW*%
X104415400Y-82442100D03*
%TD*%
D17*
%TO.P,C11,1,1*%
%TO.N,GND*%
X98464400Y-83192100D03*
%TO.P,C11,2,2*%
%TO.N,+12V*%
X98464400Y-81192100D03*
%TD*%
D13*
%TO.P,C8,1,1*%
%TO.N,+12V*%
X83011900Y-81291100D03*
%TO.P,C8,2,2*%
%TO.N,GND*%
X83011900Y-83291100D03*
%TD*%
D27*
%TO.P,R8,1,1*%
%TO.N,/MT2492_FB*%
X110644400Y-79849600D03*
%TO.P,R8,2,2*%
%TO.N,+5V*%
X110644400Y-81356600D03*
%TD*%
D20*
%TO.P,C16,1,1*%
%TO.N,GND*%
X118864400Y-92092100D03*
%TO.P,C16,2,2*%
%TO.N,+5V*%
X116864400Y-92092100D03*
%TD*%
D13*
%TO.P,C9,1,1*%
%TO.N,+12V*%
X85064400Y-81292100D03*
%TO.P,C9,2,2*%
%TO.N,GND*%
X85064400Y-83292100D03*
%TD*%
D28*
%TO.P,L2,1,1*%
%TO.N,/MT2492_SW*%
X102914400Y-91242100D03*
%TO.P,L2,2,2*%
%TO.N,+5V*%
X112414400Y-91242100D03*
%TD*%
D13*
%TO.P,C7,1,1*%
%TO.N,+12V*%
X80979900Y-81291100D03*
%TO.P,C7,2,2*%
%TO.N,GND*%
X80979900Y-83291100D03*
%TD*%
D29*
%TO.P,L1,1,1*%
%TO.N,/RT7272_SW*%
X71808900Y-89941100D03*
%TO.P,L1,2,2*%
%TO.N,+12V*%
X71808900Y-80385100D03*
%TD*%
D30*
%TO.P,R5,1,1*%
%TO.N,GND*%
X86397900Y-97355100D03*
%TO.P,R5,2,2*%
%TO.N,/RT7272_FB*%
X84397900Y-97355100D03*
%TD*%
D31*
%TO.P,C2,1,1*%
%TO.N,+24V*%
X84229900Y-89915823D03*
%TO.P,C2,2,2*%
%TO.N,GND*%
X84229900Y-86730823D03*
%TD*%
%TO.P,C1,1,1*%
%TO.N,+24V*%
X86864400Y-89915823D03*
%TO.P,C1,2,2*%
%TO.N,GND*%
X86864400Y-86730823D03*
%TD*%
D32*
%TO.P,R9,1,1*%
%TO.N,GND*%
X108739400Y-81356600D03*
%TO.P,R9,2,2*%
%TO.N,/MT2492_FB*%
X108739400Y-79849600D03*
%TD*%
D33*
%TO.P,C13,1,1*%
%TO.N,GND*%
X102421800Y-82892100D03*
%TO.P,C13,2,2*%
%TO.N,+12V*%
X102421800Y-81492100D03*
%TD*%
D13*
%TO.P,C10,1,1*%
%TO.N,+12V*%
X87164400Y-81292100D03*
%TO.P,C10,2,2*%
%TO.N,GND*%
X87164400Y-83292100D03*
%TD*%
D30*
%TO.P,R3,1,1*%
%TO.N,GND*%
X86397900Y-93291100D03*
%TO.P,R3,2,2*%
%TO.N,/RT7272_RLIM*%
X84397900Y-93291100D03*
%TD*%
D20*
%TO.P,C17,1,1*%
%TO.N,GND*%
X118864400Y-89892100D03*
%TO.P,C17,2,2*%
%TO.N,+5V*%
X116864400Y-89892100D03*
%TD*%
D25*
%TO.P,R1,1,1*%
%TO.N,GND*%
X88826900Y-97339100D03*
%TO.P,R1,2,2*%
%TO.N,/1*%
X88826900Y-95339100D03*
%TD*%
D20*
%TO.P,C4,1,1*%
%TO.N,/1*%
X86524900Y-95323100D03*
%TO.P,C4,2,2*%
%TO.N,/RT7272_COMP*%
X84524900Y-95323100D03*
%TD*%
D13*
%TO.P,C5,1,1*%
%TO.N,/RT7272_SW*%
X73840900Y-92672100D03*
%TO.P,C5,2,2*%
%TO.N,/RT7272_BOOT*%
X73840900Y-94672100D03*
%TD*%
D24*
%TO.P,H1,1,1*%
%TO.N,GND*%
X95434400Y-99032100D03*
D15*
%TO.P,H1,2,2*%
%TO.N,+24V*%
X92894400Y-99032100D03*
%TO.P,H1,3,3*%
%TO.N,GND*%
X95434400Y-96492100D03*
%TO.P,H1,4,4*%
%TO.N,+24V*%
X92894400Y-96492100D03*
%TO.P,H1,5,5*%
%TO.N,GND*%
X95434400Y-93952100D03*
%TO.P,H1,6,6*%
%TO.N,+24V*%
X92894400Y-93952100D03*
%TD*%
D34*
%TO.N,+24V*%
X75009300Y-98625100D03*
%TO.N,GND*%
X89994400Y-86602100D03*
X84508384Y-85492100D03*
X78864400Y-96992100D03*
X78314400Y-91342100D03*
X101424400Y-101842100D03*
X101714400Y-84342100D03*
X78547770Y-95569230D03*
X120114400Y-93704600D03*
X86620416Y-85492100D03*
X80414400Y-88192100D03*
X79547770Y-95569230D03*
X77714400Y-84537320D03*
X120114400Y-91429600D03*
X78314400Y-92398116D03*
X83452368Y-85492100D03*
X118376900Y-95542100D03*
X85564400Y-85492100D03*
X70944400Y-101842100D03*
X67134400Y-98032100D03*
X86184400Y-86602100D03*
X82614400Y-86542100D03*
X105234400Y-98032100D03*
X79664400Y-93398116D03*
X106656600Y-79192100D03*
X112854400Y-98032100D03*
X79547770Y-94569230D03*
X97614400Y-94222100D03*
X97164400Y-84342100D03*
X79664400Y-91286084D03*
X81938464Y-84537320D03*
X102564400Y-83792100D03*
X77714400Y-82842100D03*
X78770416Y-84537320D03*
X79920416Y-96992100D03*
X100576900Y-84342100D03*
X120114400Y-94842100D03*
X105234400Y-101842100D03*
X109044400Y-98032100D03*
X107764400Y-81466700D03*
X82994480Y-84537320D03*
X101424400Y-98032100D03*
X67134400Y-94222100D03*
X74754400Y-101842100D03*
X78564400Y-86602100D03*
X109044400Y-82792100D03*
X86162528Y-84537320D03*
X112854400Y-82792100D03*
X84050496Y-84537320D03*
X81558384Y-86542100D03*
X87582300Y-96694700D03*
X97614400Y-90412100D03*
X87218548Y-84537320D03*
X105691400Y-81415900D03*
X70944400Y-98032100D03*
X120474400Y-101842100D03*
X89994400Y-94222100D03*
X80502368Y-86542100D03*
X67134400Y-101842100D03*
X105691400Y-79231500D03*
X97614400Y-101842100D03*
X82374400Y-101842100D03*
X109044400Y-101842100D03*
X118514400Y-86842100D03*
X80882448Y-84537320D03*
X120474400Y-98032100D03*
X97614400Y-98032100D03*
X97614400Y-86602100D03*
X112854400Y-101842100D03*
X99439400Y-84342100D03*
X87676436Y-85492100D03*
X116664400Y-98032100D03*
X78564400Y-101842100D03*
X120114400Y-90292100D03*
X77808384Y-96992100D03*
X79826432Y-84537320D03*
X107545600Y-79192100D03*
X78314400Y-90286084D03*
X89994400Y-101842100D03*
X119714400Y-88492100D03*
X85106512Y-84537320D03*
X116664400Y-101842100D03*
X78547770Y-94569230D03*
X119714400Y-87354600D03*
X93804400Y-86602100D03*
X97164400Y-82842100D03*
X105691400Y-82584300D03*
X120114400Y-92567100D03*
X98301900Y-84342100D03*
X89994400Y-98032100D03*
X93804400Y-101842100D03*
X79664400Y-92342100D03*
X86184400Y-101842100D03*
%TO.N,+12V*%
X87379100Y-99539500D03*
%TD*%
D35*
%TO.N,+24V*%
X73840900Y-98609150D02*
X73856850Y-98625100D01*
X73856850Y-98625100D02*
X75009300Y-98625100D01*
D36*
%TO.N,GND*%
X102022800Y-83291100D02*
X102421800Y-82892100D01*
X95434400Y-99032100D02*
X95434400Y-83732100D01*
D37*
X89985850Y-97339150D02*
X90350900Y-96974100D01*
X90350900Y-96974100D02*
X90350900Y-93926100D01*
D36*
X119134400Y-93092100D02*
X119134400Y-96172100D01*
D37*
X89715900Y-93291100D02*
X90350900Y-93926100D01*
D36*
X81784400Y-87831323D02*
X86255177Y-87831323D01*
X86255177Y-87831323D02*
X90524400Y-83562100D01*
X119134400Y-96172100D02*
X116274400Y-99032100D01*
D38*
X107713600Y-81415900D02*
X107764400Y-81466700D01*
D37*
X88810950Y-97355100D02*
X88826900Y-97339150D01*
D36*
X116274400Y-99032100D02*
X95434400Y-99032100D01*
D38*
X107764400Y-81466700D02*
X107764400Y-81492100D01*
D37*
X86397950Y-97355100D02*
X88810950Y-97355100D01*
D38*
X105691400Y-81415900D02*
X105691400Y-79231500D01*
X105691400Y-81415900D02*
X107713600Y-81415900D01*
D36*
X95434400Y-83732100D02*
X95604400Y-83562100D01*
D38*
X105691400Y-82584300D02*
X105691400Y-81415900D01*
D36*
X79047900Y-89208600D02*
X80425177Y-87831323D01*
D37*
X86397950Y-93291100D02*
X89715900Y-93291100D01*
D38*
X107764400Y-81492100D02*
X109064400Y-82792100D01*
D36*
X78947900Y-83291100D02*
X102022800Y-83291100D01*
X119134400Y-79952100D02*
X119134400Y-93092100D01*
D38*
X109064400Y-82792100D02*
X112854400Y-82792100D01*
D36*
X80425177Y-87831323D02*
X81784400Y-87831323D01*
X119134400Y-93092100D02*
X119134400Y-93974516D01*
X79047900Y-95069100D02*
X79047900Y-89208600D01*
D37*
X88826900Y-97339150D02*
X89985850Y-97339150D01*
D36*
X119134400Y-93974516D02*
X118864400Y-94244516D01*
D37*
%TO.N,/RT7272_COMP*%
X81816910Y-95704100D02*
X84143880Y-95704100D01*
X84143880Y-95704100D02*
X84524880Y-95323100D01*
%TO.N,/RT7272_BOOT*%
X74078920Y-94434100D02*
X76278890Y-94434100D01*
X73840900Y-94672120D02*
X74078920Y-94434100D01*
%TO.N,+12V*%
X86423350Y-99539500D02*
X87379100Y-99539500D01*
X86397950Y-99514100D02*
X86423350Y-99539500D01*
D39*
%TO.N,/MT2492_BS*%
X106964400Y-82635100D02*
X106964400Y-83532130D01*
X106964400Y-83532130D02*
X106210420Y-84286100D01*
D40*
%TO.N,+5V*%
X110644400Y-81356600D02*
X115458900Y-81356600D01*
D37*
%TO.N,/RT7272_EN*%
X74697910Y-95816520D02*
X74810330Y-95704100D01*
X74810330Y-95704100D02*
X76278890Y-95704100D01*
X74633430Y-95816520D02*
X74697910Y-95816520D01*
X73840900Y-96609050D02*
X74633430Y-95816520D01*
%TO.N,/RT7272_RLIM*%
X83254850Y-94434100D02*
X84397850Y-93291100D01*
X81816910Y-94434100D02*
X83254850Y-94434100D01*
%TO.N,/RT7272_FB*%
X84016850Y-96974100D02*
X84397850Y-97355100D01*
X81816910Y-96974100D02*
X84016850Y-96974100D01*
X84397850Y-99514100D02*
X84397850Y-97355100D01*
D41*
%TO.N,/MT2492_EN*%
X104415400Y-80542100D02*
X104415400Y-79189600D01*
X104164400Y-80542090D02*
X104149210Y-80526900D01*
%TO.N,/MT2492_FB*%
X107784410Y-80542090D02*
X106964400Y-80542090D01*
X108523320Y-79803180D02*
X107784410Y-80542090D01*
X110644400Y-79803180D02*
X108523320Y-79803180D01*
D37*
%TO.N,/1*%
X86524920Y-95323100D02*
X88810950Y-95323100D01*
X88810950Y-95323100D02*
X88826900Y-95339050D01*
%TD*%
%TA.AperFunction,Conductor*%
%TO.N,GND*%
G36*
X90516939Y-92402285D02*
G01*
X90562694Y-92455089D01*
X90573900Y-92506600D01*
X90573900Y-98618100D01*
X90554215Y-98685139D01*
X90501411Y-98730894D01*
X90449900Y-98742100D01*
X87328161Y-98742100D01*
X87261122Y-98722415D01*
X87228752Y-98689144D01*
X87227746Y-98689933D01*
X87223116Y-98684024D01*
X87105725Y-98566633D01*
X87105721Y-98566630D01*
X86963655Y-98480749D01*
X86963651Y-98480747D01*
X86805157Y-98431359D01*
X86805159Y-98431359D01*
X86782197Y-98429272D01*
X86736279Y-98425100D01*
X86736275Y-98425100D01*
X86059513Y-98425100D01*
X85990649Y-98431357D01*
X85990642Y-98431359D01*
X85832148Y-98480747D01*
X85832144Y-98480749D01*
X85690078Y-98566630D01*
X85690074Y-98566633D01*
X85572683Y-98684024D01*
X85572680Y-98684028D01*
X85504017Y-98797613D01*
X85452490Y-98844801D01*
X85383630Y-98856640D01*
X85319302Y-98829372D01*
X85291783Y-98797613D01*
X85223119Y-98684028D01*
X85223117Y-98684026D01*
X85223116Y-98684024D01*
X85121663Y-98582571D01*
X85088179Y-98521248D01*
X85085345Y-98494890D01*
X85085345Y-98374309D01*
X85105030Y-98307270D01*
X85121664Y-98286628D01*
X85153378Y-98254914D01*
X85223116Y-98185176D01*
X85309001Y-98043104D01*
X85358391Y-97884607D01*
X85364650Y-97815729D01*
X85364649Y-96894472D01*
X85364649Y-96894463D01*
X85358392Y-96825599D01*
X85358391Y-96825596D01*
X85358391Y-96825593D01*
X85309001Y-96667096D01*
X85264376Y-96593276D01*
X85223119Y-96525028D01*
X85223116Y-96525024D01*
X85209492Y-96511400D01*
X85176007Y-96450077D01*
X85180991Y-96380385D01*
X85222863Y-96324452D01*
X85232063Y-96318188D01*
X85353250Y-96243440D01*
X85437219Y-96159471D01*
X85498542Y-96125986D01*
X85568234Y-96130970D01*
X85612581Y-96159471D01*
X85696550Y-96243440D01*
X85843384Y-96334008D01*
X86007147Y-96388274D01*
X86108223Y-96398600D01*
X86941576Y-96398599D01*
X87042653Y-96388274D01*
X87206416Y-96334008D01*
X87353250Y-96243440D01*
X87475240Y-96121450D01*
X87487977Y-96100799D01*
X87507285Y-96069498D01*
X87559233Y-96022773D01*
X87612823Y-96010595D01*
X87791740Y-96010595D01*
X87858779Y-96030280D01*
X87879421Y-96046913D01*
X87879433Y-96046925D01*
X87879434Y-96046926D01*
X87996824Y-96164316D01*
X87996826Y-96164317D01*
X87996828Y-96164319D01*
X88138894Y-96250200D01*
X88138898Y-96250202D01*
X88194961Y-96267671D01*
X88297393Y-96299591D01*
X88366271Y-96305850D01*
X89287528Y-96305849D01*
X89287535Y-96305849D01*
X89356400Y-96299592D01*
X89356401Y-96299591D01*
X89356407Y-96299591D01*
X89514904Y-96250201D01*
X89656976Y-96164316D01*
X89774366Y-96046926D01*
X89860251Y-95904854D01*
X89909641Y-95746357D01*
X89915900Y-95677479D01*
X89915899Y-95000722D01*
X89915899Y-95000713D01*
X89909642Y-94931849D01*
X89909641Y-94931846D01*
X89909641Y-94931843D01*
X89860251Y-94773346D01*
X89856042Y-94766383D01*
X89774369Y-94631278D01*
X89774366Y-94631274D01*
X89656975Y-94513883D01*
X89656971Y-94513880D01*
X89514905Y-94427999D01*
X89514901Y-94427997D01*
X89356407Y-94378609D01*
X89356409Y-94378609D01*
X89333447Y-94376522D01*
X89287529Y-94372350D01*
X89287525Y-94372350D01*
X88366263Y-94372350D01*
X88297399Y-94378607D01*
X88297392Y-94378609D01*
X88138898Y-94427997D01*
X88138894Y-94427999D01*
X87996828Y-94513880D01*
X87911421Y-94599287D01*
X87850097Y-94632771D01*
X87823740Y-94635605D01*
X87612823Y-94635605D01*
X87545784Y-94615920D01*
X87507285Y-94576702D01*
X87475242Y-94524753D01*
X87475239Y-94524749D01*
X87353251Y-94402761D01*
X87353250Y-94402760D01*
X87206416Y-94312192D01*
X87042653Y-94257926D01*
X87042651Y-94257925D01*
X86941578Y-94247600D01*
X86108230Y-94247600D01*
X86108213Y-94247601D01*
X86007147Y-94257925D01*
X85843384Y-94312192D01*
X85843381Y-94312193D01*
X85696548Y-94402761D01*
X85612581Y-94486729D01*
X85551258Y-94520214D01*
X85481566Y-94515230D01*
X85437219Y-94486729D01*
X85353250Y-94402760D01*
X85353246Y-94402757D01*
X85232076Y-94328018D01*
X85185351Y-94276070D01*
X85174130Y-94207108D01*
X85201973Y-94143026D01*
X85209472Y-94134819D01*
X85223116Y-94121176D01*
X85250211Y-94076356D01*
X85274548Y-94036097D01*
X85309001Y-93979104D01*
X85358391Y-93820607D01*
X85364650Y-93751729D01*
X85364649Y-92830472D01*
X85364649Y-92830471D01*
X85364649Y-92830463D01*
X85358392Y-92761599D01*
X85358391Y-92761596D01*
X85358391Y-92761593D01*
X85309001Y-92603096D01*
X85299098Y-92586714D01*
X85289447Y-92570749D01*
X85271611Y-92503195D01*
X85293129Y-92436721D01*
X85347170Y-92392434D01*
X85395564Y-92382600D01*
X90449900Y-92382600D01*
X90516939Y-92402285D01*
G37*
%TD.AperFunction*%
%TA.AperFunction,Conductor*%
G36*
X119267872Y-77392795D02*
G01*
X119570903Y-77409813D01*
X119584701Y-77411367D01*
X119880480Y-77461622D01*
X119894034Y-77464715D01*
X119985012Y-77490926D01*
X120182327Y-77547772D01*
X120195451Y-77552365D01*
X120472622Y-77667172D01*
X120485144Y-77673201D01*
X120687584Y-77785086D01*
X120747728Y-77818327D01*
X120759502Y-77825725D01*
X121004189Y-77999339D01*
X121015057Y-78008007D01*
X121238752Y-78207915D01*
X121248584Y-78217747D01*
X121448492Y-78441442D01*
X121457163Y-78452314D01*
X121630774Y-78696997D01*
X121638172Y-78708771D01*
X121783294Y-78971348D01*
X121789327Y-78983877D01*
X121904134Y-79261048D01*
X121908727Y-79274172D01*
X121991783Y-79562463D01*
X121994877Y-79576020D01*
X122045130Y-79871788D01*
X122046687Y-79885606D01*
X122063705Y-80188627D01*
X122063900Y-80195580D01*
X122063900Y-100488619D01*
X122063705Y-100495572D01*
X122046687Y-100798593D01*
X122045130Y-100812411D01*
X121994877Y-101108179D01*
X121991783Y-101121736D01*
X121908727Y-101410027D01*
X121904134Y-101423151D01*
X121789327Y-101700322D01*
X121783294Y-101712851D01*
X121638172Y-101975428D01*
X121630774Y-101987202D01*
X121457163Y-102231885D01*
X121448492Y-102242757D01*
X121248584Y-102466452D01*
X121238752Y-102476284D01*
X121015057Y-102676192D01*
X121004185Y-102684863D01*
X120759502Y-102858474D01*
X120747728Y-102865872D01*
X120485151Y-103010994D01*
X120472622Y-103017027D01*
X120195451Y-103131834D01*
X120182327Y-103136427D01*
X119894036Y-103219483D01*
X119880479Y-103222577D01*
X119584711Y-103272830D01*
X119570893Y-103274387D01*
X119267872Y-103291405D01*
X119260919Y-103291600D01*
X69167881Y-103291600D01*
X69160928Y-103291405D01*
X68857906Y-103274387D01*
X68844088Y-103272830D01*
X68548320Y-103222577D01*
X68534763Y-103219483D01*
X68246472Y-103136427D01*
X68233348Y-103131834D01*
X67956177Y-103017027D01*
X67943648Y-103010994D01*
X67681071Y-102865872D01*
X67669297Y-102858474D01*
X67424614Y-102684863D01*
X67413742Y-102676192D01*
X67190047Y-102476284D01*
X67180215Y-102466452D01*
X66980307Y-102242757D01*
X66971636Y-102231885D01*
X66798025Y-101987202D01*
X66790627Y-101975428D01*
X66645505Y-101712851D01*
X66639472Y-101700322D01*
X66524665Y-101423151D01*
X66520072Y-101410027D01*
X66437016Y-101121736D01*
X66433922Y-101108179D01*
X66414430Y-100993456D01*
X66383667Y-100812401D01*
X66382113Y-100798603D01*
X66365095Y-100495572D01*
X66364900Y-100488619D01*
X66364900Y-91945698D01*
X66384585Y-91878659D01*
X66437389Y-91832904D01*
X66506547Y-91822960D01*
X66543540Y-91835764D01*
X66543700Y-91835380D01*
X66550159Y-91838055D01*
X66550903Y-91838312D01*
X66551214Y-91838492D01*
X66678508Y-91872600D01*
X66810292Y-91872600D01*
X68739400Y-91872600D01*
X68806439Y-91892285D01*
X68852194Y-91945089D01*
X68863400Y-91996600D01*
X68863400Y-92656100D01*
X68868392Y-92719534D01*
X68907597Y-92840193D01*
X68907598Y-92840194D01*
X68982164Y-92942828D01*
X70074371Y-94035035D01*
X70075611Y-94036094D01*
X70122753Y-94076356D01*
X70185761Y-94108460D01*
X70235796Y-94133954D01*
X70337519Y-94150065D01*
X70361100Y-94153800D01*
X72641400Y-94153800D01*
X72708439Y-94173485D01*
X72754194Y-94226289D01*
X72765400Y-94277800D01*
X72765400Y-95088769D01*
X72765401Y-95088786D01*
X72775725Y-95189852D01*
X72829992Y-95353615D01*
X72829993Y-95353618D01*
X72920561Y-95500451D01*
X73020164Y-95600054D01*
X73053649Y-95661377D01*
X73048665Y-95731069D01*
X73014850Y-95777302D01*
X73016128Y-95778580D01*
X72893433Y-95901274D01*
X72893430Y-95901278D01*
X72807549Y-96043344D01*
X72807547Y-96043348D01*
X72758159Y-96201841D01*
X72751900Y-96270724D01*
X72751900Y-96947486D01*
X72758157Y-97016350D01*
X72758159Y-97016357D01*
X72807547Y-97174851D01*
X72807549Y-97174855D01*
X72893430Y-97316921D01*
X72893433Y-97316925D01*
X73010824Y-97434316D01*
X73010828Y-97434319D01*
X73124413Y-97502983D01*
X73171601Y-97554510D01*
X73183440Y-97623370D01*
X73156172Y-97687698D01*
X73124413Y-97715217D01*
X73010828Y-97783880D01*
X73010824Y-97783883D01*
X72893433Y-97901274D01*
X72893430Y-97901278D01*
X72807549Y-98043344D01*
X72807547Y-98043348D01*
X72758160Y-98201840D01*
X72758159Y-98201840D01*
X72758159Y-98201843D01*
X72753337Y-98254914D01*
X72751900Y-98270724D01*
X72751900Y-98947486D01*
X72758157Y-99016350D01*
X72758159Y-99016357D01*
X72807547Y-99174851D01*
X72807549Y-99174855D01*
X72893430Y-99316921D01*
X72893433Y-99316925D01*
X73010824Y-99434316D01*
X73010828Y-99434319D01*
X73152894Y-99520200D01*
X73152898Y-99520202D01*
X73208961Y-99537671D01*
X73311393Y-99569591D01*
X73380271Y-99575850D01*
X74301528Y-99575849D01*
X74301535Y-99575849D01*
X74370400Y-99569592D01*
X74370401Y-99569591D01*
X74370407Y-99569591D01*
X74528904Y-99520201D01*
X74670976Y-99434316D01*
X74670982Y-99434309D01*
X74672667Y-99432991D01*
X74674139Y-99432404D01*
X74677396Y-99430436D01*
X74677723Y-99430977D01*
X74737579Y-99407140D01*
X74749143Y-99406600D01*
X75086273Y-99406600D01*
X75187846Y-99386395D01*
X75237255Y-99376567D01*
X75379479Y-99317656D01*
X75507477Y-99232130D01*
X75616330Y-99123277D01*
X75701856Y-98995279D01*
X75760767Y-98853055D01*
X75785067Y-98730894D01*
X75790800Y-98702073D01*
X75790800Y-98548126D01*
X75760768Y-98397150D01*
X75760767Y-98397149D01*
X75760767Y-98397145D01*
X75740349Y-98347851D01*
X75701859Y-98254927D01*
X75701852Y-98254914D01*
X75616330Y-98126923D01*
X75616327Y-98126919D01*
X75507480Y-98018072D01*
X75507476Y-98018069D01*
X75379485Y-97932547D01*
X75379472Y-97932540D01*
X75237259Y-97873634D01*
X75237249Y-97873631D01*
X75086273Y-97843600D01*
X75086271Y-97843600D01*
X74782054Y-97843600D01*
X74715015Y-97823915D01*
X74694373Y-97807281D01*
X74670975Y-97783883D01*
X74670971Y-97783880D01*
X74557386Y-97715217D01*
X74510198Y-97663690D01*
X74498359Y-97594831D01*
X74525627Y-97530502D01*
X74557386Y-97502983D01*
X74670971Y-97434319D01*
X74670970Y-97434319D01*
X74670976Y-97434316D01*
X74788366Y-97316926D01*
X74874251Y-97174854D01*
X74923641Y-97016357D01*
X74929900Y-96947479D01*
X74929899Y-96547418D01*
X74949583Y-96480380D01*
X75002387Y-96434625D01*
X75006403Y-96432876D01*
X75023561Y-96425770D01*
X75043431Y-96412492D01*
X75110109Y-96391615D01*
X75112323Y-96391595D01*
X75473013Y-96391595D01*
X75473113Y-96391600D01*
X75479187Y-96391600D01*
X77078614Y-96391600D01*
X77078615Y-96391599D01*
X77134995Y-96380385D01*
X77211428Y-96365182D01*
X77211431Y-96365180D01*
X77211436Y-96365180D01*
X77336554Y-96313355D01*
X77449156Y-96238116D01*
X77544916Y-96142356D01*
X77620155Y-96029754D01*
X77671980Y-95904636D01*
X77675967Y-95884595D01*
X77698399Y-95771817D01*
X77698400Y-95771814D01*
X77698400Y-95636386D01*
X77698399Y-95636382D01*
X77671982Y-95503571D01*
X77671979Y-95503562D01*
X77670690Y-95500451D01*
X77620155Y-95378446D01*
X77544916Y-95265844D01*
X77544913Y-95265840D01*
X77449159Y-95170086D01*
X77444448Y-95166220D01*
X77445875Y-95164480D01*
X77407525Y-95118598D01*
X77398812Y-95049274D01*
X77428962Y-94986244D01*
X77444853Y-94972474D01*
X77444448Y-94971980D01*
X77449152Y-94968118D01*
X77449156Y-94968116D01*
X77544916Y-94872356D01*
X77620155Y-94759754D01*
X77671980Y-94634636D01*
X77672664Y-94631200D01*
X77693837Y-94524753D01*
X77698400Y-94501813D01*
X77698400Y-94366387D01*
X77676826Y-94257925D01*
X77671982Y-94233571D01*
X77671980Y-94233566D01*
X77671980Y-94233564D01*
X77648934Y-94177927D01*
X77641466Y-94108460D01*
X77672741Y-94045981D01*
X77676145Y-94042467D01*
X77682559Y-94036099D01*
X77682563Y-94036097D01*
X77757516Y-93933736D01*
X77797169Y-93813224D01*
X77797641Y-93686356D01*
X77406355Y-91154954D01*
X77404900Y-91136012D01*
X77404900Y-89127524D01*
X80273900Y-89127524D01*
X80273900Y-93556675D01*
X80307326Y-93681427D01*
X80310172Y-93686356D01*
X80371902Y-93793274D01*
X80463226Y-93884598D01*
X80465464Y-93885890D01*
X80466972Y-93887472D01*
X80469675Y-93889546D01*
X80469351Y-93889967D01*
X80513679Y-93936456D01*
X80526903Y-94005063D01*
X80506567Y-94062166D01*
X80475645Y-94108445D01*
X80475642Y-94108450D01*
X80423820Y-94233562D01*
X80423817Y-94233571D01*
X80397400Y-94366382D01*
X80397400Y-94501817D01*
X80423817Y-94634628D01*
X80423820Y-94634637D01*
X80475642Y-94759749D01*
X80475643Y-94759751D01*
X80550883Y-94872355D01*
X80550886Y-94872359D01*
X80646640Y-94968113D01*
X80651352Y-94971980D01*
X80649927Y-94973715D01*
X80688286Y-95019630D01*
X80696982Y-95088956D01*
X80666816Y-95151978D01*
X80650947Y-95165727D01*
X80651352Y-95166220D01*
X80646640Y-95170086D01*
X80550886Y-95265840D01*
X80550883Y-95265844D01*
X80475643Y-95378448D01*
X80475642Y-95378450D01*
X80423820Y-95503562D01*
X80423817Y-95503571D01*
X80397400Y-95636382D01*
X80397400Y-95771817D01*
X80423817Y-95904628D01*
X80423820Y-95904637D01*
X80475642Y-96029749D01*
X80475643Y-96029751D01*
X80550883Y-96142355D01*
X80550886Y-96142359D01*
X80646640Y-96238113D01*
X80651352Y-96241980D01*
X80649927Y-96243715D01*
X80688286Y-96289630D01*
X80696982Y-96358956D01*
X80666816Y-96421978D01*
X80650947Y-96435727D01*
X80651352Y-96436220D01*
X80646640Y-96440086D01*
X80550886Y-96535840D01*
X80550883Y-96535844D01*
X80475643Y-96648448D01*
X80475642Y-96648450D01*
X80423820Y-96773562D01*
X80423817Y-96773571D01*
X80397400Y-96906382D01*
X80397400Y-97041817D01*
X80423817Y-97174628D01*
X80423820Y-97174637D01*
X80475642Y-97299749D01*
X80475643Y-97299751D01*
X80550883Y-97412355D01*
X80550886Y-97412359D01*
X80646640Y-97508113D01*
X80646644Y-97508116D01*
X80759246Y-97583355D01*
X80759247Y-97583355D01*
X80759248Y-97583356D01*
X80759250Y-97583357D01*
X80842658Y-97617905D01*
X80884364Y-97635180D01*
X80884366Y-97635180D01*
X80884371Y-97635182D01*
X81017182Y-97661599D01*
X81017186Y-97661600D01*
X81017187Y-97661600D01*
X82622687Y-97661600D01*
X82622787Y-97661595D01*
X83307151Y-97661595D01*
X83374190Y-97681280D01*
X83419945Y-97734084D01*
X83431151Y-97785595D01*
X83431151Y-97815736D01*
X83437407Y-97884600D01*
X83437409Y-97884607D01*
X83486797Y-98043101D01*
X83486799Y-98043105D01*
X83572680Y-98185171D01*
X83572683Y-98185175D01*
X83674036Y-98286528D01*
X83707521Y-98347851D01*
X83710355Y-98374209D01*
X83710355Y-98494991D01*
X83690670Y-98562030D01*
X83674036Y-98582672D01*
X83572683Y-98684024D01*
X83572680Y-98684028D01*
X83486799Y-98826094D01*
X83486797Y-98826098D01*
X83437409Y-98984591D01*
X83431150Y-99053474D01*
X83431150Y-99974736D01*
X83437407Y-100043600D01*
X83437409Y-100043607D01*
X83486797Y-100202101D01*
X83486799Y-100202105D01*
X83572680Y-100344171D01*
X83572683Y-100344175D01*
X83690074Y-100461566D01*
X83690078Y-100461569D01*
X83832144Y-100547450D01*
X83832148Y-100547452D01*
X83887143Y-100564589D01*
X83990643Y-100596841D01*
X84059521Y-100603100D01*
X84736278Y-100603099D01*
X84736285Y-100603099D01*
X84805150Y-100596842D01*
X84805151Y-100596841D01*
X84805157Y-100596841D01*
X84963654Y-100547451D01*
X85105726Y-100461566D01*
X85223116Y-100344176D01*
X85291783Y-100230585D01*
X85343310Y-100183398D01*
X85412169Y-100171559D01*
X85476498Y-100198827D01*
X85504017Y-100230586D01*
X85572680Y-100344171D01*
X85572683Y-100344175D01*
X85690074Y-100461566D01*
X85690078Y-100461569D01*
X85832144Y-100547450D01*
X85832148Y-100547452D01*
X85887143Y-100564589D01*
X85990643Y-100596841D01*
X86059521Y-100603100D01*
X86736278Y-100603099D01*
X86736285Y-100603099D01*
X86805150Y-100596842D01*
X86805151Y-100596841D01*
X86805157Y-100596841D01*
X86963654Y-100547451D01*
X86996244Y-100527749D01*
X87025635Y-100509983D01*
X87089784Y-100492100D01*
X90461449Y-100492100D01*
X90528488Y-100511785D01*
X90574243Y-100564589D01*
X90581221Y-100584001D01*
X90607326Y-100681426D01*
X90671902Y-100793274D01*
X90763226Y-100884598D01*
X90875074Y-100949174D01*
X90999824Y-100982600D01*
X90999826Y-100982600D01*
X94128974Y-100982600D01*
X94128976Y-100982600D01*
X94253726Y-100949174D01*
X94365574Y-100884598D01*
X94456898Y-100793274D01*
X94521474Y-100681426D01*
X94554900Y-100556676D01*
X94554900Y-89127524D01*
X94521474Y-89002774D01*
X94456898Y-88890926D01*
X94365574Y-88799602D01*
X94309650Y-88767314D01*
X94253727Y-88735026D01*
X94191351Y-88718313D01*
X94128976Y-88701600D01*
X80828976Y-88701600D01*
X80699824Y-88701600D01*
X80575072Y-88735026D01*
X80463226Y-88799602D01*
X80463223Y-88799604D01*
X80371904Y-88890923D01*
X80371902Y-88890926D01*
X80307326Y-89002772D01*
X80273900Y-89127524D01*
X77404900Y-89127524D01*
X77404900Y-86686210D01*
X77404900Y-86686208D01*
X77370792Y-86558914D01*
X77304900Y-86444786D01*
X77211714Y-86351600D01*
X77154650Y-86318654D01*
X77097587Y-86285708D01*
X77033939Y-86268654D01*
X76970292Y-86251600D01*
X76970291Y-86251600D01*
X76688400Y-86251600D01*
X76621361Y-86231915D01*
X76575606Y-86179111D01*
X76564400Y-86127600D01*
X76564400Y-84046600D01*
X76584085Y-83979561D01*
X76636889Y-83933806D01*
X76688400Y-83922600D01*
X77040290Y-83922600D01*
X77040292Y-83922600D01*
X77167586Y-83888492D01*
X77281714Y-83822600D01*
X77374900Y-83729414D01*
X77440792Y-83615286D01*
X77474900Y-83487992D01*
X77474900Y-82506600D01*
X77494585Y-82439561D01*
X77547389Y-82393806D01*
X77598900Y-82382600D01*
X78099824Y-82382600D01*
X78228976Y-82382600D01*
X78429862Y-82382600D01*
X78455825Y-82385348D01*
X78460136Y-82386270D01*
X78460147Y-82386274D01*
X78561223Y-82396600D01*
X79334576Y-82396599D01*
X79334584Y-82396598D01*
X79334587Y-82396598D01*
X79425863Y-82387274D01*
X79435653Y-82386274D01*
X79435654Y-82386273D01*
X79439978Y-82385348D01*
X79465938Y-82382600D01*
X79749824Y-82382600D01*
X79878976Y-82382600D01*
X80461862Y-82382600D01*
X80487825Y-82385348D01*
X80492136Y-82386270D01*
X80492147Y-82386274D01*
X80593223Y-82396600D01*
X81366576Y-82396599D01*
X81366584Y-82396598D01*
X81366587Y-82396598D01*
X81457863Y-82387274D01*
X81467653Y-82386274D01*
X81467654Y-82386273D01*
X81471978Y-82385348D01*
X81497938Y-82382600D01*
X82493862Y-82382600D01*
X82519825Y-82385348D01*
X82524136Y-82386270D01*
X82524147Y-82386274D01*
X82625223Y-82396600D01*
X83398576Y-82396599D01*
X83398584Y-82396598D01*
X83398587Y-82396598D01*
X83489863Y-82387274D01*
X83499653Y-82386274D01*
X83499654Y-82386273D01*
X83503978Y-82385348D01*
X83529938Y-82382600D01*
X84542533Y-82382600D01*
X84569785Y-82386997D01*
X84570030Y-82385857D01*
X84576645Y-82387273D01*
X84576647Y-82387274D01*
X84677723Y-82397600D01*
X85451076Y-82397599D01*
X85451084Y-82397598D01*
X85451087Y-82397598D01*
X85462208Y-82396461D01*
X85552153Y-82387274D01*
X85552161Y-82387271D01*
X85558772Y-82385857D01*
X85559016Y-82386997D01*
X85586267Y-82382600D01*
X86299824Y-82382600D01*
X86428976Y-82382600D01*
X86642533Y-82382600D01*
X86669785Y-82386997D01*
X86670030Y-82385857D01*
X86676645Y-82387273D01*
X86676647Y-82387274D01*
X86777723Y-82397600D01*
X87551076Y-82397599D01*
X87551084Y-82397598D01*
X87551087Y-82397598D01*
X87562208Y-82396461D01*
X87652153Y-82387274D01*
X87652161Y-82387271D01*
X87658772Y-82385857D01*
X87659016Y-82386997D01*
X87686267Y-82382600D01*
X88099824Y-82382600D01*
X88228976Y-82382600D01*
X102949900Y-82382600D01*
X103016939Y-82402285D01*
X103062694Y-82455089D01*
X103073900Y-82506600D01*
X103073900Y-86377600D01*
X103054215Y-86444639D01*
X103001411Y-86490394D01*
X102949900Y-86501600D01*
X100749824Y-86501600D01*
X100625072Y-86535026D01*
X100513226Y-86599602D01*
X100513223Y-86599604D01*
X100421904Y-86690923D01*
X100421902Y-86690926D01*
X100357326Y-86802772D01*
X100323900Y-86927524D01*
X100323900Y-95556675D01*
X100357326Y-95681427D01*
X100385988Y-95731069D01*
X100421902Y-95793274D01*
X100513226Y-95884598D01*
X100625074Y-95949174D01*
X100749824Y-95982600D01*
X100878976Y-95982600D01*
X104881600Y-95982600D01*
X104948639Y-96002285D01*
X104994394Y-96055089D01*
X105005600Y-96106600D01*
X105005600Y-96292100D01*
X109661449Y-96292100D01*
X109728488Y-96311785D01*
X109774243Y-96364589D01*
X109781221Y-96384001D01*
X109807326Y-96481426D01*
X109871902Y-96593274D01*
X109963226Y-96684598D01*
X110075074Y-96749174D01*
X110199824Y-96782600D01*
X110199826Y-96782600D01*
X117528974Y-96782600D01*
X117528976Y-96782600D01*
X117653726Y-96749174D01*
X117765574Y-96684598D01*
X117856898Y-96593274D01*
X117921474Y-96481426D01*
X117954900Y-96356676D01*
X117954900Y-94766383D01*
X117959297Y-94739130D01*
X117958157Y-94738886D01*
X117959574Y-94732267D01*
X117969891Y-94631278D01*
X117969900Y-94631193D01*
X117969899Y-93857840D01*
X117959574Y-93756763D01*
X117959573Y-93756759D01*
X117958157Y-93750141D01*
X117959294Y-93749897D01*
X117954900Y-93722647D01*
X117954900Y-92613967D01*
X117959297Y-92586714D01*
X117958157Y-92586470D01*
X117959574Y-92579851D01*
X117960504Y-92570749D01*
X117969900Y-92478777D01*
X117969899Y-91705424D01*
X117959574Y-91604347D01*
X117959573Y-91604343D01*
X117958157Y-91597725D01*
X117959294Y-91597481D01*
X117954900Y-91570231D01*
X117954900Y-90413967D01*
X117959297Y-90386714D01*
X117958157Y-90386470D01*
X117959574Y-90379851D01*
X117969899Y-90278784D01*
X117969900Y-90278777D01*
X117969899Y-89505424D01*
X117959574Y-89404347D01*
X117959573Y-89404343D01*
X117958157Y-89397725D01*
X117959294Y-89397481D01*
X117954900Y-89370231D01*
X117954900Y-88265545D01*
X117955961Y-88249359D01*
X117964899Y-88181468D01*
X117964900Y-88181461D01*
X117964899Y-87602740D01*
X117955961Y-87534842D01*
X117954900Y-87518658D01*
X117954900Y-78327526D01*
X117954900Y-78327524D01*
X117921474Y-78202774D01*
X117856898Y-78090926D01*
X117765574Y-77999602D01*
X117709650Y-77967314D01*
X117653727Y-77935026D01*
X117591351Y-77918313D01*
X117528976Y-77901600D01*
X115528976Y-77901600D01*
X115399824Y-77901600D01*
X115275072Y-77935026D01*
X115163226Y-77999602D01*
X115163223Y-77999604D01*
X115071904Y-78090923D01*
X115071902Y-78090926D01*
X115007326Y-78202772D01*
X114973900Y-78327524D01*
X114973900Y-80679700D01*
X114954215Y-80746739D01*
X114901411Y-80792494D01*
X114849900Y-80803700D01*
X111708200Y-80803700D01*
X111641161Y-80784015D01*
X111595406Y-80731211D01*
X111584200Y-80679700D01*
X111584200Y-80044300D01*
X111577257Y-80037357D01*
X111533861Y-80024615D01*
X111488106Y-79971811D01*
X111476900Y-79920300D01*
X111476900Y-79608514D01*
X111476899Y-79608500D01*
X111470838Y-79562463D01*
X111461402Y-79490789D01*
X111400730Y-79344314D01*
X111400729Y-79344313D01*
X111400729Y-79344312D01*
X111367105Y-79300492D01*
X111304216Y-79218534D01*
X111241326Y-79170277D01*
X111178437Y-79122020D01*
X111105198Y-79091684D01*
X111031961Y-79061348D01*
X111017246Y-79059410D01*
X110914249Y-79045850D01*
X110914242Y-79045850D01*
X110374558Y-79045850D01*
X110374550Y-79045850D01*
X110256839Y-79061348D01*
X110256838Y-79061348D01*
X110110367Y-79122018D01*
X110110364Y-79122020D01*
X110026259Y-79186556D01*
X109961090Y-79211750D01*
X109950773Y-79212180D01*
X109433027Y-79212180D01*
X109365988Y-79192495D01*
X109357541Y-79186556D01*
X109273436Y-79122020D01*
X109273433Y-79122018D01*
X109273432Y-79122018D01*
X109207068Y-79094529D01*
X109126961Y-79061348D01*
X109112246Y-79059410D01*
X109009249Y-79045850D01*
X109009242Y-79045850D01*
X108469558Y-79045850D01*
X108469550Y-79045850D01*
X108351839Y-79061348D01*
X108351838Y-79061348D01*
X108205362Y-79122020D01*
X108079584Y-79218534D01*
X107983070Y-79344312D01*
X107922398Y-79490788D01*
X107922398Y-79490790D01*
X107916140Y-79538321D01*
X107887873Y-79602218D01*
X107880883Y-79609816D01*
X107575927Y-79914772D01*
X107514606Y-79948256D01*
X107488248Y-79951090D01*
X107432789Y-79951090D01*
X107387299Y-79942445D01*
X107380333Y-79939698D01*
X107380332Y-79939697D01*
X107274070Y-79897793D01*
X107243899Y-79885895D01*
X107158168Y-79875600D01*
X106268632Y-79875600D01*
X106182901Y-79885895D01*
X106182900Y-79885895D01*
X106046465Y-79939698D01*
X105929611Y-80028311D01*
X105840998Y-80145165D01*
X105787195Y-80281600D01*
X105787195Y-80281601D01*
X105776900Y-80367331D01*
X105776900Y-80716868D01*
X105787195Y-80802598D01*
X105787195Y-80802599D01*
X105840998Y-80939034D01*
X105929611Y-81055888D01*
X106046465Y-81144501D01*
X106046468Y-81144503D01*
X106182899Y-81198304D01*
X106268632Y-81208600D01*
X107158168Y-81208600D01*
X107243901Y-81198304D01*
X107380332Y-81144503D01*
X107380333Y-81144501D01*
X107387350Y-81141735D01*
X107432840Y-81133090D01*
X107698992Y-81133090D01*
X107699008Y-81133091D01*
X107706604Y-81133091D01*
X107862213Y-81133091D01*
X107862216Y-81133091D01*
X108012528Y-81092815D01*
X108076487Y-81055888D01*
X108147293Y-81015008D01*
X108257328Y-80904973D01*
X108257328Y-80904971D01*
X108267529Y-80894771D01*
X108267532Y-80894766D01*
X108472632Y-80689666D01*
X108533954Y-80656184D01*
X108560312Y-80653350D01*
X109009235Y-80653350D01*
X109009242Y-80653350D01*
X109126961Y-80637852D01*
X109273436Y-80577180D01*
X109273442Y-80577174D01*
X109277299Y-80574949D01*
X109345199Y-80558476D01*
X109411226Y-80581328D01*
X109454417Y-80636249D01*
X109463300Y-80682336D01*
X109463300Y-82304900D01*
X111584200Y-82304900D01*
X111584200Y-82033500D01*
X111603885Y-81966461D01*
X111656689Y-81920706D01*
X111708200Y-81909500D01*
X114849900Y-81909500D01*
X114916939Y-81929185D01*
X114962694Y-81981989D01*
X114973900Y-82033500D01*
X114973900Y-86464689D01*
X114954215Y-86531728D01*
X114901411Y-86577483D01*
X114832253Y-86587427D01*
X114787900Y-86572076D01*
X114723729Y-86535027D01*
X114723726Y-86535026D01*
X114598976Y-86501600D01*
X114598975Y-86501600D01*
X110388400Y-86501600D01*
X110321361Y-86481915D01*
X110275606Y-86429111D01*
X110264400Y-86377600D01*
X110264400Y-86216500D01*
X107847400Y-86216500D01*
X107780361Y-86196815D01*
X107734606Y-86144011D01*
X107723400Y-86092500D01*
X107723400Y-83168500D01*
X107718719Y-83163819D01*
X107685234Y-83102496D01*
X107682400Y-83076138D01*
X107682400Y-82564382D01*
X107682399Y-82564378D01*
X107653620Y-82419692D01*
X107654126Y-82419591D01*
X107649900Y-82391093D01*
X107649900Y-82267331D01*
X107644962Y-82226213D01*
X107639604Y-82181599D01*
X107585803Y-82045168D01*
X107553655Y-82002774D01*
X107497188Y-81928311D01*
X107380334Y-81839698D01*
X107380332Y-81839697D01*
X107312116Y-81812796D01*
X107243899Y-81785895D01*
X107158168Y-81775600D01*
X106268632Y-81775600D01*
X106182901Y-81785895D01*
X106182900Y-81785895D01*
X106046465Y-81839698D01*
X105929611Y-81928311D01*
X105840998Y-82045165D01*
X105840995Y-82045171D01*
X105794136Y-82163997D01*
X105751230Y-82219141D01*
X105685322Y-82242334D01*
X105617338Y-82226213D01*
X105568862Y-82175896D01*
X105555842Y-82134688D01*
X105554900Y-82127537D01*
X105554900Y-82127524D01*
X105527212Y-82024188D01*
X105527212Y-81960011D01*
X105554900Y-81856676D01*
X105554900Y-81127524D01*
X105521474Y-81002774D01*
X105456898Y-80890926D01*
X105387116Y-80821144D01*
X105353631Y-80759821D01*
X105351774Y-80720569D01*
X105351679Y-80720564D01*
X105351732Y-80719676D01*
X105351684Y-80718664D01*
X105351900Y-80716868D01*
X105351900Y-80367332D01*
X105341604Y-80281599D01*
X105287803Y-80145168D01*
X105287801Y-80145165D01*
X105199188Y-80028311D01*
X105082331Y-79939696D01*
X105074938Y-79935539D01*
X105075947Y-79933742D01*
X105029756Y-79897793D01*
X105006572Y-79831882D01*
X105006400Y-79825358D01*
X105006400Y-79385903D01*
X105007461Y-79369717D01*
X105019589Y-79277600D01*
X105021650Y-79261942D01*
X105021650Y-78722258D01*
X105006152Y-78604539D01*
X104945480Y-78458064D01*
X104945479Y-78458063D01*
X104945479Y-78458062D01*
X104911855Y-78414242D01*
X104848966Y-78332284D01*
X104786076Y-78284027D01*
X104723187Y-78235770D01*
X104643522Y-78202772D01*
X104576711Y-78175098D01*
X104561996Y-78173160D01*
X104458999Y-78159600D01*
X104458992Y-78159600D01*
X103976808Y-78159600D01*
X103976800Y-78159600D01*
X103901836Y-78169470D01*
X103895085Y-78170358D01*
X103826050Y-78159594D01*
X103773794Y-78113214D01*
X103754900Y-78047420D01*
X103754900Y-77727526D01*
X103754900Y-77727524D01*
X103721474Y-77602774D01*
X103721473Y-77602773D01*
X103721473Y-77602771D01*
X103707518Y-77578602D01*
X103691044Y-77510702D01*
X103713895Y-77444675D01*
X103768816Y-77401483D01*
X103814904Y-77392600D01*
X119224518Y-77392600D01*
X119260919Y-77392600D01*
X119267872Y-77392795D01*
G37*
%TD.AperFunction*%
%TA.AperFunction,Conductor*%
G36*
X105760103Y-82672277D02*
G01*
X105794253Y-82720498D01*
X105840997Y-82839032D01*
X105840998Y-82839034D01*
X105929613Y-82955890D01*
X105930542Y-82956819D01*
X105931119Y-82957876D01*
X105934737Y-82962647D01*
X105934020Y-82963190D01*
X105964027Y-83018142D01*
X105959043Y-83087834D01*
X105917171Y-83143767D01*
X105851707Y-83168184D01*
X105842861Y-83168500D01*
X105678900Y-83168500D01*
X105611861Y-83148815D01*
X105566106Y-83096011D01*
X105554900Y-83044500D01*
X105554900Y-82765990D01*
X105574585Y-82698951D01*
X105627389Y-82653196D01*
X105696547Y-82643252D01*
X105760103Y-82672277D01*
G37*
%TD.AperFunction*%
%TD*%
M02*
