G04 Layer: TopSilkscreenLayer*
G04 EasyEDA Pro v2.2.27.1, 2024-09-15 10:59:50*
G04 Gerber Generator version 0.3*
G04 Scale: 100 percent, Rotated: No, Reflected: No*
G04 Dimensions in millimeters*
G04 Leading zeros omitted, absolute positions, 3 integers and 5 decimals*
%TF.GenerationSoftware,KiCad,Pcbnew,8.0.5*%
%TF.CreationDate,2024-09-28T17:02:44+08:00*%
%TF.ProjectId,DCDC_power_24V-12V-5V,44434443-5f70-46f7-9765-725f3234562d,rev?*%
%TF.SameCoordinates,Original*%
%TF.FileFunction,Legend,Top*%
%TF.FilePolarity,Positive*%
%FSLAX46Y46*%
G04 Gerber Fmt 4.6, Leading zero omitted, Abs format (unit mm)*
G04 Created by KiCad (PCBNEW 8.0.5) date 2024-09-28 17:02:44*
%MOMM*%
%LPD*%
G01*
G04 APERTURE LIST*
%ADD10C,0.150000*%
%ADD11C,0.100000*%
%ADD12C,0.152500*%
%ADD13C,0.254000*%
%ADD14C,0.300000*%
G04 APERTURE END LIST*
D10*
X87344400Y-92922100D02*
X87684400Y-92462100D01*
D11*
X89144400Y-98792100D02*
X89174400Y-98412100D01*
X82924400Y-98422100D02*
X83334400Y-97852100D01*
D10*
X87514067Y-94323183D02*
X87914733Y-93901017D01*
D11*
X86244400Y-100792100D02*
X85664400Y-101122100D01*
D12*
X78705847Y-79679074D02*
X78667751Y-79717170D01*
X78667751Y-79717170D02*
X78553466Y-79755265D01*
X78553466Y-79755265D02*
X78477275Y-79755265D01*
X78477275Y-79755265D02*
X78362989Y-79717170D01*
X78362989Y-79717170D02*
X78286799Y-79640979D01*
X78286799Y-79640979D02*
X78248704Y-79564789D01*
X78248704Y-79564789D02*
X78210608Y-79412408D01*
X78210608Y-79412408D02*
X78210608Y-79298122D01*
X78210608Y-79298122D02*
X78248704Y-79145741D01*
X78248704Y-79145741D02*
X78286799Y-79069550D01*
X78286799Y-79069550D02*
X78362989Y-78993360D01*
X78362989Y-78993360D02*
X78477275Y-78955265D01*
X78477275Y-78955265D02*
X78553466Y-78955265D01*
X78553466Y-78955265D02*
X78667751Y-78993360D01*
X78667751Y-78993360D02*
X78705847Y-79031455D01*
X79391561Y-78955265D02*
X79239180Y-78955265D01*
X79239180Y-78955265D02*
X79162989Y-78993360D01*
X79162989Y-78993360D02*
X79124894Y-79031455D01*
X79124894Y-79031455D02*
X79048704Y-79145741D01*
X79048704Y-79145741D02*
X79010608Y-79298122D01*
X79010608Y-79298122D02*
X79010608Y-79602884D01*
X79010608Y-79602884D02*
X79048704Y-79679074D01*
X79048704Y-79679074D02*
X79086799Y-79717170D01*
X79086799Y-79717170D02*
X79162989Y-79755265D01*
X79162989Y-79755265D02*
X79315370Y-79755265D01*
X79315370Y-79755265D02*
X79391561Y-79717170D01*
X79391561Y-79717170D02*
X79429656Y-79679074D01*
X79429656Y-79679074D02*
X79467751Y-79602884D01*
X79467751Y-79602884D02*
X79467751Y-79412408D01*
X79467751Y-79412408D02*
X79429656Y-79336217D01*
X79429656Y-79336217D02*
X79391561Y-79298122D01*
X79391561Y-79298122D02*
X79315370Y-79260027D01*
X79315370Y-79260027D02*
X79162989Y-79260027D01*
X79162989Y-79260027D02*
X79086799Y-79298122D01*
X79086799Y-79298122D02*
X79048704Y-79336217D01*
X79048704Y-79336217D02*
X79010608Y-79412408D01*
X89175204Y-79096265D02*
X89175204Y-78296265D01*
X89175204Y-78677217D02*
X89632347Y-78677217D01*
X89632347Y-79096265D02*
X89632347Y-78296265D01*
X89975203Y-78372455D02*
X90013299Y-78334360D01*
X90013299Y-78334360D02*
X90089489Y-78296265D01*
X90089489Y-78296265D02*
X90279965Y-78296265D01*
X90279965Y-78296265D02*
X90356156Y-78334360D01*
X90356156Y-78334360D02*
X90394251Y-78372455D01*
X90394251Y-78372455D02*
X90432346Y-78448646D01*
X90432346Y-78448646D02*
X90432346Y-78524836D01*
X90432346Y-78524836D02*
X90394251Y-78639122D01*
X90394251Y-78639122D02*
X89937108Y-79096265D01*
X89937108Y-79096265D02*
X90432346Y-79096265D01*
X101002347Y-79386265D02*
X100735680Y-79005312D01*
X100545204Y-79386265D02*
X100545204Y-78586265D01*
X100545204Y-78586265D02*
X100849966Y-78586265D01*
X100849966Y-78586265D02*
X100926156Y-78624360D01*
X100926156Y-78624360D02*
X100964251Y-78662455D01*
X100964251Y-78662455D02*
X101002347Y-78738646D01*
X101002347Y-78738646D02*
X101002347Y-78852931D01*
X101002347Y-78852931D02*
X100964251Y-78929122D01*
X100964251Y-78929122D02*
X100926156Y-78967217D01*
X100926156Y-78967217D02*
X100849966Y-79005312D01*
X100849966Y-79005312D02*
X100545204Y-79005312D01*
X101269013Y-78586265D02*
X101802347Y-78586265D01*
X101802347Y-78586265D02*
X101459489Y-79386265D01*
X81762347Y-91850074D02*
X81724251Y-91888170D01*
X81724251Y-91888170D02*
X81609966Y-91926265D01*
X81609966Y-91926265D02*
X81533775Y-91926265D01*
X81533775Y-91926265D02*
X81419489Y-91888170D01*
X81419489Y-91888170D02*
X81343299Y-91811979D01*
X81343299Y-91811979D02*
X81305204Y-91735789D01*
X81305204Y-91735789D02*
X81267108Y-91583408D01*
X81267108Y-91583408D02*
X81267108Y-91469122D01*
X81267108Y-91469122D02*
X81305204Y-91316741D01*
X81305204Y-91316741D02*
X81343299Y-91240550D01*
X81343299Y-91240550D02*
X81419489Y-91164360D01*
X81419489Y-91164360D02*
X81533775Y-91126265D01*
X81533775Y-91126265D02*
X81609966Y-91126265D01*
X81609966Y-91126265D02*
X81724251Y-91164360D01*
X81724251Y-91164360D02*
X81762347Y-91202455D01*
X82029013Y-91126265D02*
X82524251Y-91126265D01*
X82524251Y-91126265D02*
X82257585Y-91431027D01*
X82257585Y-91431027D02*
X82371870Y-91431027D01*
X82371870Y-91431027D02*
X82448061Y-91469122D01*
X82448061Y-91469122D02*
X82486156Y-91507217D01*
X82486156Y-91507217D02*
X82524251Y-91583408D01*
X82524251Y-91583408D02*
X82524251Y-91773884D01*
X82524251Y-91773884D02*
X82486156Y-91850074D01*
X82486156Y-91850074D02*
X82448061Y-91888170D01*
X82448061Y-91888170D02*
X82371870Y-91926265D01*
X82371870Y-91926265D02*
X82143299Y-91926265D01*
X82143299Y-91926265D02*
X82067108Y-91888170D01*
X82067108Y-91888170D02*
X82029013Y-91850074D01*
X99942347Y-85830074D02*
X99904251Y-85868170D01*
X99904251Y-85868170D02*
X99789966Y-85906265D01*
X99789966Y-85906265D02*
X99713775Y-85906265D01*
X99713775Y-85906265D02*
X99599489Y-85868170D01*
X99599489Y-85868170D02*
X99523299Y-85791979D01*
X99523299Y-85791979D02*
X99485204Y-85715789D01*
X99485204Y-85715789D02*
X99447108Y-85563408D01*
X99447108Y-85563408D02*
X99447108Y-85449122D01*
X99447108Y-85449122D02*
X99485204Y-85296741D01*
X99485204Y-85296741D02*
X99523299Y-85220550D01*
X99523299Y-85220550D02*
X99599489Y-85144360D01*
X99599489Y-85144360D02*
X99713775Y-85106265D01*
X99713775Y-85106265D02*
X99789966Y-85106265D01*
X99789966Y-85106265D02*
X99904251Y-85144360D01*
X99904251Y-85144360D02*
X99942347Y-85182455D01*
X100704251Y-85906265D02*
X100247108Y-85906265D01*
X100475680Y-85906265D02*
X100475680Y-85106265D01*
X100475680Y-85106265D02*
X100399489Y-85220550D01*
X100399489Y-85220550D02*
X100323299Y-85296741D01*
X100323299Y-85296741D02*
X100247108Y-85334836D01*
X101009013Y-85182455D02*
X101047109Y-85144360D01*
X101047109Y-85144360D02*
X101123299Y-85106265D01*
X101123299Y-85106265D02*
X101313775Y-85106265D01*
X101313775Y-85106265D02*
X101389966Y-85144360D01*
X101389966Y-85144360D02*
X101428061Y-85182455D01*
X101428061Y-85182455D02*
X101466156Y-85258646D01*
X101466156Y-85258646D02*
X101466156Y-85334836D01*
X101466156Y-85334836D02*
X101428061Y-85449122D01*
X101428061Y-85449122D02*
X100970918Y-85906265D01*
X100970918Y-85906265D02*
X101466156Y-85906265D01*
X78515204Y-98336265D02*
X78515204Y-98983884D01*
X78515204Y-98983884D02*
X78553299Y-99060074D01*
X78553299Y-99060074D02*
X78591394Y-99098170D01*
X78591394Y-99098170D02*
X78667585Y-99136265D01*
X78667585Y-99136265D02*
X78819966Y-99136265D01*
X78819966Y-99136265D02*
X78896156Y-99098170D01*
X78896156Y-99098170D02*
X78934251Y-99060074D01*
X78934251Y-99060074D02*
X78972347Y-98983884D01*
X78972347Y-98983884D02*
X78972347Y-98336265D01*
X79772346Y-99136265D02*
X79315203Y-99136265D01*
X79543775Y-99136265D02*
X79543775Y-98336265D01*
X79543775Y-98336265D02*
X79467584Y-98450550D01*
X79467584Y-98450550D02*
X79391394Y-98526741D01*
X79391394Y-98526741D02*
X79315203Y-98564836D01*
X115062374Y-94734152D02*
X115100470Y-94772248D01*
X115100470Y-94772248D02*
X115138565Y-94886533D01*
X115138565Y-94886533D02*
X115138565Y-94962724D01*
X115138565Y-94962724D02*
X115100470Y-95077010D01*
X115100470Y-95077010D02*
X115024279Y-95153200D01*
X115024279Y-95153200D02*
X114948089Y-95191295D01*
X114948089Y-95191295D02*
X114795708Y-95229391D01*
X114795708Y-95229391D02*
X114681422Y-95229391D01*
X114681422Y-95229391D02*
X114529041Y-95191295D01*
X114529041Y-95191295D02*
X114452850Y-95153200D01*
X114452850Y-95153200D02*
X114376660Y-95077010D01*
X114376660Y-95077010D02*
X114338565Y-94962724D01*
X114338565Y-94962724D02*
X114338565Y-94886533D01*
X114338565Y-94886533D02*
X114376660Y-94772248D01*
X114376660Y-94772248D02*
X114414755Y-94734152D01*
X115138565Y-93972248D02*
X115138565Y-94429391D01*
X115138565Y-94200819D02*
X114338565Y-94200819D01*
X114338565Y-94200819D02*
X114452850Y-94277010D01*
X114452850Y-94277010D02*
X114529041Y-94353200D01*
X114529041Y-94353200D02*
X114567136Y-94429391D01*
X114338565Y-93248438D02*
X114338565Y-93629390D01*
X114338565Y-93629390D02*
X114719517Y-93667486D01*
X114719517Y-93667486D02*
X114681422Y-93629390D01*
X114681422Y-93629390D02*
X114643327Y-93553200D01*
X114643327Y-93553200D02*
X114643327Y-93362724D01*
X114643327Y-93362724D02*
X114681422Y-93286533D01*
X114681422Y-93286533D02*
X114719517Y-93248438D01*
X114719517Y-93248438D02*
X114795708Y-93210343D01*
X114795708Y-93210343D02*
X114986184Y-93210343D01*
X114986184Y-93210343D02*
X115062374Y-93248438D01*
X115062374Y-93248438D02*
X115100470Y-93286533D01*
X115100470Y-93286533D02*
X115138565Y-93362724D01*
X115138565Y-93362724D02*
X115138565Y-93553200D01*
X115138565Y-93553200D02*
X115100470Y-93629390D01*
X115100470Y-93629390D02*
X115062374Y-93667486D01*
X84432347Y-101516265D02*
X84165680Y-101135312D01*
X83975204Y-101516265D02*
X83975204Y-100716265D01*
X83975204Y-100716265D02*
X84279966Y-100716265D01*
X84279966Y-100716265D02*
X84356156Y-100754360D01*
X84356156Y-100754360D02*
X84394251Y-100792455D01*
X84394251Y-100792455D02*
X84432347Y-100868646D01*
X84432347Y-100868646D02*
X84432347Y-100982931D01*
X84432347Y-100982931D02*
X84394251Y-101059122D01*
X84394251Y-101059122D02*
X84356156Y-101097217D01*
X84356156Y-101097217D02*
X84279966Y-101135312D01*
X84279966Y-101135312D02*
X83975204Y-101135312D01*
X85118061Y-100982931D02*
X85118061Y-101516265D01*
X84927585Y-100678170D02*
X84737108Y-101249598D01*
X84737108Y-101249598D02*
X85232347Y-101249598D01*
X107912347Y-84720074D02*
X107874251Y-84758170D01*
X107874251Y-84758170D02*
X107759966Y-84796265D01*
X107759966Y-84796265D02*
X107683775Y-84796265D01*
X107683775Y-84796265D02*
X107569489Y-84758170D01*
X107569489Y-84758170D02*
X107493299Y-84681979D01*
X107493299Y-84681979D02*
X107455204Y-84605789D01*
X107455204Y-84605789D02*
X107417108Y-84453408D01*
X107417108Y-84453408D02*
X107417108Y-84339122D01*
X107417108Y-84339122D02*
X107455204Y-84186741D01*
X107455204Y-84186741D02*
X107493299Y-84110550D01*
X107493299Y-84110550D02*
X107569489Y-84034360D01*
X107569489Y-84034360D02*
X107683775Y-83996265D01*
X107683775Y-83996265D02*
X107759966Y-83996265D01*
X107759966Y-83996265D02*
X107874251Y-84034360D01*
X107874251Y-84034360D02*
X107912347Y-84072455D01*
X108674251Y-84796265D02*
X108217108Y-84796265D01*
X108445680Y-84796265D02*
X108445680Y-83996265D01*
X108445680Y-83996265D02*
X108369489Y-84110550D01*
X108369489Y-84110550D02*
X108293299Y-84186741D01*
X108293299Y-84186741D02*
X108217108Y-84224836D01*
X109359966Y-84262931D02*
X109359966Y-84796265D01*
X109169490Y-83958170D02*
X108979013Y-84529598D01*
X108979013Y-84529598D02*
X109474252Y-84529598D01*
X121322374Y-88254152D02*
X121360470Y-88292248D01*
X121360470Y-88292248D02*
X121398565Y-88406533D01*
X121398565Y-88406533D02*
X121398565Y-88482724D01*
X121398565Y-88482724D02*
X121360470Y-88597010D01*
X121360470Y-88597010D02*
X121284279Y-88673200D01*
X121284279Y-88673200D02*
X121208089Y-88711295D01*
X121208089Y-88711295D02*
X121055708Y-88749391D01*
X121055708Y-88749391D02*
X120941422Y-88749391D01*
X120941422Y-88749391D02*
X120789041Y-88711295D01*
X120789041Y-88711295D02*
X120712850Y-88673200D01*
X120712850Y-88673200D02*
X120636660Y-88597010D01*
X120636660Y-88597010D02*
X120598565Y-88482724D01*
X120598565Y-88482724D02*
X120598565Y-88406533D01*
X120598565Y-88406533D02*
X120636660Y-88292248D01*
X120636660Y-88292248D02*
X120674755Y-88254152D01*
X121398565Y-87492248D02*
X121398565Y-87949391D01*
X121398565Y-87720819D02*
X120598565Y-87720819D01*
X120598565Y-87720819D02*
X120712850Y-87797010D01*
X120712850Y-87797010D02*
X120789041Y-87873200D01*
X120789041Y-87873200D02*
X120827136Y-87949391D01*
X120941422Y-87035105D02*
X120903327Y-87111295D01*
X120903327Y-87111295D02*
X120865231Y-87149390D01*
X120865231Y-87149390D02*
X120789041Y-87187486D01*
X120789041Y-87187486D02*
X120750946Y-87187486D01*
X120750946Y-87187486D02*
X120674755Y-87149390D01*
X120674755Y-87149390D02*
X120636660Y-87111295D01*
X120636660Y-87111295D02*
X120598565Y-87035105D01*
X120598565Y-87035105D02*
X120598565Y-86882724D01*
X120598565Y-86882724D02*
X120636660Y-86806533D01*
X120636660Y-86806533D02*
X120674755Y-86768438D01*
X120674755Y-86768438D02*
X120750946Y-86730343D01*
X120750946Y-86730343D02*
X120789041Y-86730343D01*
X120789041Y-86730343D02*
X120865231Y-86768438D01*
X120865231Y-86768438D02*
X120903327Y-86806533D01*
X120903327Y-86806533D02*
X120941422Y-86882724D01*
X120941422Y-86882724D02*
X120941422Y-87035105D01*
X120941422Y-87035105D02*
X120979517Y-87111295D01*
X120979517Y-87111295D02*
X121017612Y-87149390D01*
X121017612Y-87149390D02*
X121093803Y-87187486D01*
X121093803Y-87187486D02*
X121246184Y-87187486D01*
X121246184Y-87187486D02*
X121322374Y-87149390D01*
X121322374Y-87149390D02*
X121360470Y-87111295D01*
X121360470Y-87111295D02*
X121398565Y-87035105D01*
X121398565Y-87035105D02*
X121398565Y-86882724D01*
X121398565Y-86882724D02*
X121360470Y-86806533D01*
X121360470Y-86806533D02*
X121322374Y-86768438D01*
X121322374Y-86768438D02*
X121246184Y-86730343D01*
X121246184Y-86730343D02*
X121093803Y-86730343D01*
X121093803Y-86730343D02*
X121017612Y-86768438D01*
X121017612Y-86768438D02*
X120979517Y-86806533D01*
X120979517Y-86806533D02*
X120941422Y-86882724D01*
X113525204Y-84636265D02*
X113525204Y-83836265D01*
X113525204Y-84217217D02*
X113982347Y-84217217D01*
X113982347Y-84636265D02*
X113982347Y-83836265D01*
X114287108Y-83836265D02*
X114782346Y-83836265D01*
X114782346Y-83836265D02*
X114515680Y-84141027D01*
X114515680Y-84141027D02*
X114629965Y-84141027D01*
X114629965Y-84141027D02*
X114706156Y-84179122D01*
X114706156Y-84179122D02*
X114744251Y-84217217D01*
X114744251Y-84217217D02*
X114782346Y-84293408D01*
X114782346Y-84293408D02*
X114782346Y-84483884D01*
X114782346Y-84483884D02*
X114744251Y-84560074D01*
X114744251Y-84560074D02*
X114706156Y-84598170D01*
X114706156Y-84598170D02*
X114629965Y-84636265D01*
X114629965Y-84636265D02*
X114401394Y-84636265D01*
X114401394Y-84636265D02*
X114325203Y-84598170D01*
X114325203Y-84598170D02*
X114287108Y-84560074D01*
X73612347Y-100536265D02*
X73345680Y-100155312D01*
X73155204Y-100536265D02*
X73155204Y-99736265D01*
X73155204Y-99736265D02*
X73459966Y-99736265D01*
X73459966Y-99736265D02*
X73536156Y-99774360D01*
X73536156Y-99774360D02*
X73574251Y-99812455D01*
X73574251Y-99812455D02*
X73612347Y-99888646D01*
X73612347Y-99888646D02*
X73612347Y-100002931D01*
X73612347Y-100002931D02*
X73574251Y-100079122D01*
X73574251Y-100079122D02*
X73536156Y-100117217D01*
X73536156Y-100117217D02*
X73459966Y-100155312D01*
X73459966Y-100155312D02*
X73155204Y-100155312D01*
X73917108Y-99812455D02*
X73955204Y-99774360D01*
X73955204Y-99774360D02*
X74031394Y-99736265D01*
X74031394Y-99736265D02*
X74221870Y-99736265D01*
X74221870Y-99736265D02*
X74298061Y-99774360D01*
X74298061Y-99774360D02*
X74336156Y-99812455D01*
X74336156Y-99812455D02*
X74374251Y-99888646D01*
X74374251Y-99888646D02*
X74374251Y-99964836D01*
X74374251Y-99964836D02*
X74336156Y-100079122D01*
X74336156Y-100079122D02*
X73879013Y-100536265D01*
X73879013Y-100536265D02*
X74374251Y-100536265D01*
X105795204Y-77616265D02*
X105795204Y-78263884D01*
X105795204Y-78263884D02*
X105833299Y-78340074D01*
X105833299Y-78340074D02*
X105871394Y-78378170D01*
X105871394Y-78378170D02*
X105947585Y-78416265D01*
X105947585Y-78416265D02*
X106099966Y-78416265D01*
X106099966Y-78416265D02*
X106176156Y-78378170D01*
X106176156Y-78378170D02*
X106214251Y-78340074D01*
X106214251Y-78340074D02*
X106252347Y-78263884D01*
X106252347Y-78263884D02*
X106252347Y-77616265D01*
X106595203Y-77692455D02*
X106633299Y-77654360D01*
X106633299Y-77654360D02*
X106709489Y-77616265D01*
X106709489Y-77616265D02*
X106899965Y-77616265D01*
X106899965Y-77616265D02*
X106976156Y-77654360D01*
X106976156Y-77654360D02*
X107014251Y-77692455D01*
X107014251Y-77692455D02*
X107052346Y-77768646D01*
X107052346Y-77768646D02*
X107052346Y-77844836D01*
X107052346Y-77844836D02*
X107014251Y-77959122D01*
X107014251Y-77959122D02*
X106557108Y-78416265D01*
X106557108Y-78416265D02*
X107052346Y-78416265D01*
X97522347Y-85850074D02*
X97484251Y-85888170D01*
X97484251Y-85888170D02*
X97369966Y-85926265D01*
X97369966Y-85926265D02*
X97293775Y-85926265D01*
X97293775Y-85926265D02*
X97179489Y-85888170D01*
X97179489Y-85888170D02*
X97103299Y-85811979D01*
X97103299Y-85811979D02*
X97065204Y-85735789D01*
X97065204Y-85735789D02*
X97027108Y-85583408D01*
X97027108Y-85583408D02*
X97027108Y-85469122D01*
X97027108Y-85469122D02*
X97065204Y-85316741D01*
X97065204Y-85316741D02*
X97103299Y-85240550D01*
X97103299Y-85240550D02*
X97179489Y-85164360D01*
X97179489Y-85164360D02*
X97293775Y-85126265D01*
X97293775Y-85126265D02*
X97369966Y-85126265D01*
X97369966Y-85126265D02*
X97484251Y-85164360D01*
X97484251Y-85164360D02*
X97522347Y-85202455D01*
X98284251Y-85926265D02*
X97827108Y-85926265D01*
X98055680Y-85926265D02*
X98055680Y-85126265D01*
X98055680Y-85126265D02*
X97979489Y-85240550D01*
X97979489Y-85240550D02*
X97903299Y-85316741D01*
X97903299Y-85316741D02*
X97827108Y-85354836D01*
X99046156Y-85926265D02*
X98589013Y-85926265D01*
X98817585Y-85926265D02*
X98817585Y-85126265D01*
X98817585Y-85126265D02*
X98741394Y-85240550D01*
X98741394Y-85240550D02*
X98665204Y-85316741D01*
X98665204Y-85316741D02*
X98589013Y-85354836D01*
X82769847Y-79679074D02*
X82731751Y-79717170D01*
X82731751Y-79717170D02*
X82617466Y-79755265D01*
X82617466Y-79755265D02*
X82541275Y-79755265D01*
X82541275Y-79755265D02*
X82426989Y-79717170D01*
X82426989Y-79717170D02*
X82350799Y-79640979D01*
X82350799Y-79640979D02*
X82312704Y-79564789D01*
X82312704Y-79564789D02*
X82274608Y-79412408D01*
X82274608Y-79412408D02*
X82274608Y-79298122D01*
X82274608Y-79298122D02*
X82312704Y-79145741D01*
X82312704Y-79145741D02*
X82350799Y-79069550D01*
X82350799Y-79069550D02*
X82426989Y-78993360D01*
X82426989Y-78993360D02*
X82541275Y-78955265D01*
X82541275Y-78955265D02*
X82617466Y-78955265D01*
X82617466Y-78955265D02*
X82731751Y-78993360D01*
X82731751Y-78993360D02*
X82769847Y-79031455D01*
X83226989Y-79298122D02*
X83150799Y-79260027D01*
X83150799Y-79260027D02*
X83112704Y-79221931D01*
X83112704Y-79221931D02*
X83074608Y-79145741D01*
X83074608Y-79145741D02*
X83074608Y-79107646D01*
X83074608Y-79107646D02*
X83112704Y-79031455D01*
X83112704Y-79031455D02*
X83150799Y-78993360D01*
X83150799Y-78993360D02*
X83226989Y-78955265D01*
X83226989Y-78955265D02*
X83379370Y-78955265D01*
X83379370Y-78955265D02*
X83455561Y-78993360D01*
X83455561Y-78993360D02*
X83493656Y-79031455D01*
X83493656Y-79031455D02*
X83531751Y-79107646D01*
X83531751Y-79107646D02*
X83531751Y-79145741D01*
X83531751Y-79145741D02*
X83493656Y-79221931D01*
X83493656Y-79221931D02*
X83455561Y-79260027D01*
X83455561Y-79260027D02*
X83379370Y-79298122D01*
X83379370Y-79298122D02*
X83226989Y-79298122D01*
X83226989Y-79298122D02*
X83150799Y-79336217D01*
X83150799Y-79336217D02*
X83112704Y-79374312D01*
X83112704Y-79374312D02*
X83074608Y-79450503D01*
X83074608Y-79450503D02*
X83074608Y-79602884D01*
X83074608Y-79602884D02*
X83112704Y-79679074D01*
X83112704Y-79679074D02*
X83150799Y-79717170D01*
X83150799Y-79717170D02*
X83226989Y-79755265D01*
X83226989Y-79755265D02*
X83379370Y-79755265D01*
X83379370Y-79755265D02*
X83455561Y-79717170D01*
X83455561Y-79717170D02*
X83493656Y-79679074D01*
X83493656Y-79679074D02*
X83531751Y-79602884D01*
X83531751Y-79602884D02*
X83531751Y-79450503D01*
X83531751Y-79450503D02*
X83493656Y-79374312D01*
X83493656Y-79374312D02*
X83455561Y-79336217D01*
X83455561Y-79336217D02*
X83379370Y-79298122D01*
X110622347Y-78656265D02*
X110355680Y-78275312D01*
X110165204Y-78656265D02*
X110165204Y-77856265D01*
X110165204Y-77856265D02*
X110469966Y-77856265D01*
X110469966Y-77856265D02*
X110546156Y-77894360D01*
X110546156Y-77894360D02*
X110584251Y-77932455D01*
X110584251Y-77932455D02*
X110622347Y-78008646D01*
X110622347Y-78008646D02*
X110622347Y-78122931D01*
X110622347Y-78122931D02*
X110584251Y-78199122D01*
X110584251Y-78199122D02*
X110546156Y-78237217D01*
X110546156Y-78237217D02*
X110469966Y-78275312D01*
X110469966Y-78275312D02*
X110165204Y-78275312D01*
X111079489Y-78199122D02*
X111003299Y-78161027D01*
X111003299Y-78161027D02*
X110965204Y-78122931D01*
X110965204Y-78122931D02*
X110927108Y-78046741D01*
X110927108Y-78046741D02*
X110927108Y-78008646D01*
X110927108Y-78008646D02*
X110965204Y-77932455D01*
X110965204Y-77932455D02*
X111003299Y-77894360D01*
X111003299Y-77894360D02*
X111079489Y-77856265D01*
X111079489Y-77856265D02*
X111231870Y-77856265D01*
X111231870Y-77856265D02*
X111308061Y-77894360D01*
X111308061Y-77894360D02*
X111346156Y-77932455D01*
X111346156Y-77932455D02*
X111384251Y-78008646D01*
X111384251Y-78008646D02*
X111384251Y-78046741D01*
X111384251Y-78046741D02*
X111346156Y-78122931D01*
X111346156Y-78122931D02*
X111308061Y-78161027D01*
X111308061Y-78161027D02*
X111231870Y-78199122D01*
X111231870Y-78199122D02*
X111079489Y-78199122D01*
X111079489Y-78199122D02*
X111003299Y-78237217D01*
X111003299Y-78237217D02*
X110965204Y-78275312D01*
X110965204Y-78275312D02*
X110927108Y-78351503D01*
X110927108Y-78351503D02*
X110927108Y-78503884D01*
X110927108Y-78503884D02*
X110965204Y-78580074D01*
X110965204Y-78580074D02*
X111003299Y-78618170D01*
X111003299Y-78618170D02*
X111079489Y-78656265D01*
X111079489Y-78656265D02*
X111231870Y-78656265D01*
X111231870Y-78656265D02*
X111308061Y-78618170D01*
X111308061Y-78618170D02*
X111346156Y-78580074D01*
X111346156Y-78580074D02*
X111384251Y-78503884D01*
X111384251Y-78503884D02*
X111384251Y-78351503D01*
X111384251Y-78351503D02*
X111346156Y-78275312D01*
X111346156Y-78275312D02*
X111308061Y-78237217D01*
X111308061Y-78237217D02*
X111231870Y-78199122D01*
X121282374Y-92564152D02*
X121320470Y-92602248D01*
X121320470Y-92602248D02*
X121358565Y-92716533D01*
X121358565Y-92716533D02*
X121358565Y-92792724D01*
X121358565Y-92792724D02*
X121320470Y-92907010D01*
X121320470Y-92907010D02*
X121244279Y-92983200D01*
X121244279Y-92983200D02*
X121168089Y-93021295D01*
X121168089Y-93021295D02*
X121015708Y-93059391D01*
X121015708Y-93059391D02*
X120901422Y-93059391D01*
X120901422Y-93059391D02*
X120749041Y-93021295D01*
X120749041Y-93021295D02*
X120672850Y-92983200D01*
X120672850Y-92983200D02*
X120596660Y-92907010D01*
X120596660Y-92907010D02*
X120558565Y-92792724D01*
X120558565Y-92792724D02*
X120558565Y-92716533D01*
X120558565Y-92716533D02*
X120596660Y-92602248D01*
X120596660Y-92602248D02*
X120634755Y-92564152D01*
X121358565Y-91802248D02*
X121358565Y-92259391D01*
X121358565Y-92030819D02*
X120558565Y-92030819D01*
X120558565Y-92030819D02*
X120672850Y-92107010D01*
X120672850Y-92107010D02*
X120749041Y-92183200D01*
X120749041Y-92183200D02*
X120787136Y-92259391D01*
X120558565Y-91116533D02*
X120558565Y-91268914D01*
X120558565Y-91268914D02*
X120596660Y-91345105D01*
X120596660Y-91345105D02*
X120634755Y-91383200D01*
X120634755Y-91383200D02*
X120749041Y-91459390D01*
X120749041Y-91459390D02*
X120901422Y-91497486D01*
X120901422Y-91497486D02*
X121206184Y-91497486D01*
X121206184Y-91497486D02*
X121282374Y-91459390D01*
X121282374Y-91459390D02*
X121320470Y-91421295D01*
X121320470Y-91421295D02*
X121358565Y-91345105D01*
X121358565Y-91345105D02*
X121358565Y-91192724D01*
X121358565Y-91192724D02*
X121320470Y-91116533D01*
X121320470Y-91116533D02*
X121282374Y-91078438D01*
X121282374Y-91078438D02*
X121206184Y-91040343D01*
X121206184Y-91040343D02*
X121015708Y-91040343D01*
X121015708Y-91040343D02*
X120939517Y-91078438D01*
X120939517Y-91078438D02*
X120901422Y-91116533D01*
X120901422Y-91116533D02*
X120863327Y-91192724D01*
X120863327Y-91192724D02*
X120863327Y-91345105D01*
X120863327Y-91345105D02*
X120901422Y-91421295D01*
X120901422Y-91421295D02*
X120939517Y-91459390D01*
X120939517Y-91459390D02*
X121015708Y-91497486D01*
X84822347Y-79680074D02*
X84784251Y-79718170D01*
X84784251Y-79718170D02*
X84669966Y-79756265D01*
X84669966Y-79756265D02*
X84593775Y-79756265D01*
X84593775Y-79756265D02*
X84479489Y-79718170D01*
X84479489Y-79718170D02*
X84403299Y-79641979D01*
X84403299Y-79641979D02*
X84365204Y-79565789D01*
X84365204Y-79565789D02*
X84327108Y-79413408D01*
X84327108Y-79413408D02*
X84327108Y-79299122D01*
X84327108Y-79299122D02*
X84365204Y-79146741D01*
X84365204Y-79146741D02*
X84403299Y-79070550D01*
X84403299Y-79070550D02*
X84479489Y-78994360D01*
X84479489Y-78994360D02*
X84593775Y-78956265D01*
X84593775Y-78956265D02*
X84669966Y-78956265D01*
X84669966Y-78956265D02*
X84784251Y-78994360D01*
X84784251Y-78994360D02*
X84822347Y-79032455D01*
X85203299Y-79756265D02*
X85355680Y-79756265D01*
X85355680Y-79756265D02*
X85431870Y-79718170D01*
X85431870Y-79718170D02*
X85469966Y-79680074D01*
X85469966Y-79680074D02*
X85546156Y-79565789D01*
X85546156Y-79565789D02*
X85584251Y-79413408D01*
X85584251Y-79413408D02*
X85584251Y-79108646D01*
X85584251Y-79108646D02*
X85546156Y-79032455D01*
X85546156Y-79032455D02*
X85508061Y-78994360D01*
X85508061Y-78994360D02*
X85431870Y-78956265D01*
X85431870Y-78956265D02*
X85279489Y-78956265D01*
X85279489Y-78956265D02*
X85203299Y-78994360D01*
X85203299Y-78994360D02*
X85165204Y-79032455D01*
X85165204Y-79032455D02*
X85127108Y-79108646D01*
X85127108Y-79108646D02*
X85127108Y-79299122D01*
X85127108Y-79299122D02*
X85165204Y-79375312D01*
X85165204Y-79375312D02*
X85203299Y-79413408D01*
X85203299Y-79413408D02*
X85279489Y-79451503D01*
X85279489Y-79451503D02*
X85431870Y-79451503D01*
X85431870Y-79451503D02*
X85508061Y-79413408D01*
X85508061Y-79413408D02*
X85546156Y-79375312D01*
X85546156Y-79375312D02*
X85584251Y-79299122D01*
D10*
X107694512Y-97496395D02*
X107313560Y-97496395D01*
X107313560Y-97496395D02*
X107313560Y-96696395D01*
X107923083Y-96772585D02*
X107961179Y-96734490D01*
X107961179Y-96734490D02*
X108037369Y-96696395D01*
X108037369Y-96696395D02*
X108227845Y-96696395D01*
X108227845Y-96696395D02*
X108304036Y-96734490D01*
X108304036Y-96734490D02*
X108342131Y-96772585D01*
X108342131Y-96772585D02*
X108380226Y-96848776D01*
X108380226Y-96848776D02*
X108380226Y-96924966D01*
X108380226Y-96924966D02*
X108342131Y-97039252D01*
X108342131Y-97039252D02*
X107884988Y-97496395D01*
X107884988Y-97496395D02*
X108380226Y-97496395D01*
D12*
X80737847Y-79679074D02*
X80699751Y-79717170D01*
X80699751Y-79717170D02*
X80585466Y-79755265D01*
X80585466Y-79755265D02*
X80509275Y-79755265D01*
X80509275Y-79755265D02*
X80394989Y-79717170D01*
X80394989Y-79717170D02*
X80318799Y-79640979D01*
X80318799Y-79640979D02*
X80280704Y-79564789D01*
X80280704Y-79564789D02*
X80242608Y-79412408D01*
X80242608Y-79412408D02*
X80242608Y-79298122D01*
X80242608Y-79298122D02*
X80280704Y-79145741D01*
X80280704Y-79145741D02*
X80318799Y-79069550D01*
X80318799Y-79069550D02*
X80394989Y-78993360D01*
X80394989Y-78993360D02*
X80509275Y-78955265D01*
X80509275Y-78955265D02*
X80585466Y-78955265D01*
X80585466Y-78955265D02*
X80699751Y-78993360D01*
X80699751Y-78993360D02*
X80737847Y-79031455D01*
X81004513Y-78955265D02*
X81537847Y-78955265D01*
X81537847Y-78955265D02*
X81194989Y-79755265D01*
D10*
X67654512Y-92966395D02*
X67273560Y-92966395D01*
X67273560Y-92966395D02*
X67273560Y-92166395D01*
X68340226Y-92966395D02*
X67883083Y-92966395D01*
X68111655Y-92966395D02*
X68111655Y-92166395D01*
X68111655Y-92166395D02*
X68035464Y-92280680D01*
X68035464Y-92280680D02*
X67959274Y-92356871D01*
X67959274Y-92356871D02*
X67883083Y-92394966D01*
D12*
X81882347Y-98996265D02*
X81615680Y-98615312D01*
X81425204Y-98996265D02*
X81425204Y-98196265D01*
X81425204Y-98196265D02*
X81729966Y-98196265D01*
X81729966Y-98196265D02*
X81806156Y-98234360D01*
X81806156Y-98234360D02*
X81844251Y-98272455D01*
X81844251Y-98272455D02*
X81882347Y-98348646D01*
X81882347Y-98348646D02*
X81882347Y-98462931D01*
X81882347Y-98462931D02*
X81844251Y-98539122D01*
X81844251Y-98539122D02*
X81806156Y-98577217D01*
X81806156Y-98577217D02*
X81729966Y-98615312D01*
X81729966Y-98615312D02*
X81425204Y-98615312D01*
X82606156Y-98196265D02*
X82225204Y-98196265D01*
X82225204Y-98196265D02*
X82187108Y-98577217D01*
X82187108Y-98577217D02*
X82225204Y-98539122D01*
X82225204Y-98539122D02*
X82301394Y-98501027D01*
X82301394Y-98501027D02*
X82491870Y-98501027D01*
X82491870Y-98501027D02*
X82568061Y-98539122D01*
X82568061Y-98539122D02*
X82606156Y-98577217D01*
X82606156Y-98577217D02*
X82644251Y-98653408D01*
X82644251Y-98653408D02*
X82644251Y-98843884D01*
X82644251Y-98843884D02*
X82606156Y-98920074D01*
X82606156Y-98920074D02*
X82568061Y-98958170D01*
X82568061Y-98958170D02*
X82491870Y-98996265D01*
X82491870Y-98996265D02*
X82301394Y-98996265D01*
X82301394Y-98996265D02*
X82225204Y-98958170D01*
X82225204Y-98958170D02*
X82187108Y-98920074D01*
X84002347Y-91820074D02*
X83964251Y-91858170D01*
X83964251Y-91858170D02*
X83849966Y-91896265D01*
X83849966Y-91896265D02*
X83773775Y-91896265D01*
X83773775Y-91896265D02*
X83659489Y-91858170D01*
X83659489Y-91858170D02*
X83583299Y-91781979D01*
X83583299Y-91781979D02*
X83545204Y-91705789D01*
X83545204Y-91705789D02*
X83507108Y-91553408D01*
X83507108Y-91553408D02*
X83507108Y-91439122D01*
X83507108Y-91439122D02*
X83545204Y-91286741D01*
X83545204Y-91286741D02*
X83583299Y-91210550D01*
X83583299Y-91210550D02*
X83659489Y-91134360D01*
X83659489Y-91134360D02*
X83773775Y-91096265D01*
X83773775Y-91096265D02*
X83849966Y-91096265D01*
X83849966Y-91096265D02*
X83964251Y-91134360D01*
X83964251Y-91134360D02*
X84002347Y-91172455D01*
X84307108Y-91172455D02*
X84345204Y-91134360D01*
X84345204Y-91134360D02*
X84421394Y-91096265D01*
X84421394Y-91096265D02*
X84611870Y-91096265D01*
X84611870Y-91096265D02*
X84688061Y-91134360D01*
X84688061Y-91134360D02*
X84726156Y-91172455D01*
X84726156Y-91172455D02*
X84764251Y-91248646D01*
X84764251Y-91248646D02*
X84764251Y-91324836D01*
X84764251Y-91324836D02*
X84726156Y-91439122D01*
X84726156Y-91439122D02*
X84269013Y-91896265D01*
X84269013Y-91896265D02*
X84764251Y-91896265D01*
X86302347Y-91870074D02*
X86264251Y-91908170D01*
X86264251Y-91908170D02*
X86149966Y-91946265D01*
X86149966Y-91946265D02*
X86073775Y-91946265D01*
X86073775Y-91946265D02*
X85959489Y-91908170D01*
X85959489Y-91908170D02*
X85883299Y-91831979D01*
X85883299Y-91831979D02*
X85845204Y-91755789D01*
X85845204Y-91755789D02*
X85807108Y-91603408D01*
X85807108Y-91603408D02*
X85807108Y-91489122D01*
X85807108Y-91489122D02*
X85845204Y-91336741D01*
X85845204Y-91336741D02*
X85883299Y-91260550D01*
X85883299Y-91260550D02*
X85959489Y-91184360D01*
X85959489Y-91184360D02*
X86073775Y-91146265D01*
X86073775Y-91146265D02*
X86149966Y-91146265D01*
X86149966Y-91146265D02*
X86264251Y-91184360D01*
X86264251Y-91184360D02*
X86302347Y-91222455D01*
X87064251Y-91946265D02*
X86607108Y-91946265D01*
X86835680Y-91946265D02*
X86835680Y-91146265D01*
X86835680Y-91146265D02*
X86759489Y-91260550D01*
X86759489Y-91260550D02*
X86683299Y-91336741D01*
X86683299Y-91336741D02*
X86607108Y-91374836D01*
X108592347Y-78636265D02*
X108325680Y-78255312D01*
X108135204Y-78636265D02*
X108135204Y-77836265D01*
X108135204Y-77836265D02*
X108439966Y-77836265D01*
X108439966Y-77836265D02*
X108516156Y-77874360D01*
X108516156Y-77874360D02*
X108554251Y-77912455D01*
X108554251Y-77912455D02*
X108592347Y-77988646D01*
X108592347Y-77988646D02*
X108592347Y-78102931D01*
X108592347Y-78102931D02*
X108554251Y-78179122D01*
X108554251Y-78179122D02*
X108516156Y-78217217D01*
X108516156Y-78217217D02*
X108439966Y-78255312D01*
X108439966Y-78255312D02*
X108135204Y-78255312D01*
X108973299Y-78636265D02*
X109125680Y-78636265D01*
X109125680Y-78636265D02*
X109201870Y-78598170D01*
X109201870Y-78598170D02*
X109239966Y-78560074D01*
X109239966Y-78560074D02*
X109316156Y-78445789D01*
X109316156Y-78445789D02*
X109354251Y-78293408D01*
X109354251Y-78293408D02*
X109354251Y-77988646D01*
X109354251Y-77988646D02*
X109316156Y-77912455D01*
X109316156Y-77912455D02*
X109278061Y-77874360D01*
X109278061Y-77874360D02*
X109201870Y-77836265D01*
X109201870Y-77836265D02*
X109049489Y-77836265D01*
X109049489Y-77836265D02*
X108973299Y-77874360D01*
X108973299Y-77874360D02*
X108935204Y-77912455D01*
X108935204Y-77912455D02*
X108897108Y-77988646D01*
X108897108Y-77988646D02*
X108897108Y-78179122D01*
X108897108Y-78179122D02*
X108935204Y-78255312D01*
X108935204Y-78255312D02*
X108973299Y-78293408D01*
X108973299Y-78293408D02*
X109049489Y-78331503D01*
X109049489Y-78331503D02*
X109201870Y-78331503D01*
X109201870Y-78331503D02*
X109278061Y-78293408D01*
X109278061Y-78293408D02*
X109316156Y-78255312D01*
X109316156Y-78255312D02*
X109354251Y-78179122D01*
X102252347Y-85850074D02*
X102214251Y-85888170D01*
X102214251Y-85888170D02*
X102099966Y-85926265D01*
X102099966Y-85926265D02*
X102023775Y-85926265D01*
X102023775Y-85926265D02*
X101909489Y-85888170D01*
X101909489Y-85888170D02*
X101833299Y-85811979D01*
X101833299Y-85811979D02*
X101795204Y-85735789D01*
X101795204Y-85735789D02*
X101757108Y-85583408D01*
X101757108Y-85583408D02*
X101757108Y-85469122D01*
X101757108Y-85469122D02*
X101795204Y-85316741D01*
X101795204Y-85316741D02*
X101833299Y-85240550D01*
X101833299Y-85240550D02*
X101909489Y-85164360D01*
X101909489Y-85164360D02*
X102023775Y-85126265D01*
X102023775Y-85126265D02*
X102099966Y-85126265D01*
X102099966Y-85126265D02*
X102214251Y-85164360D01*
X102214251Y-85164360D02*
X102252347Y-85202455D01*
X103014251Y-85926265D02*
X102557108Y-85926265D01*
X102785680Y-85926265D02*
X102785680Y-85126265D01*
X102785680Y-85126265D02*
X102709489Y-85240550D01*
X102709489Y-85240550D02*
X102633299Y-85316741D01*
X102633299Y-85316741D02*
X102557108Y-85354836D01*
X103280918Y-85126265D02*
X103776156Y-85126265D01*
X103776156Y-85126265D02*
X103509490Y-85431027D01*
X103509490Y-85431027D02*
X103623775Y-85431027D01*
X103623775Y-85431027D02*
X103699966Y-85469122D01*
X103699966Y-85469122D02*
X103738061Y-85507217D01*
X103738061Y-85507217D02*
X103776156Y-85583408D01*
X103776156Y-85583408D02*
X103776156Y-85773884D01*
X103776156Y-85773884D02*
X103738061Y-85850074D01*
X103738061Y-85850074D02*
X103699966Y-85888170D01*
X103699966Y-85888170D02*
X103623775Y-85926265D01*
X103623775Y-85926265D02*
X103395204Y-85926265D01*
X103395204Y-85926265D02*
X103319013Y-85888170D01*
X103319013Y-85888170D02*
X103280918Y-85850074D01*
X86822347Y-79710074D02*
X86784251Y-79748170D01*
X86784251Y-79748170D02*
X86669966Y-79786265D01*
X86669966Y-79786265D02*
X86593775Y-79786265D01*
X86593775Y-79786265D02*
X86479489Y-79748170D01*
X86479489Y-79748170D02*
X86403299Y-79671979D01*
X86403299Y-79671979D02*
X86365204Y-79595789D01*
X86365204Y-79595789D02*
X86327108Y-79443408D01*
X86327108Y-79443408D02*
X86327108Y-79329122D01*
X86327108Y-79329122D02*
X86365204Y-79176741D01*
X86365204Y-79176741D02*
X86403299Y-79100550D01*
X86403299Y-79100550D02*
X86479489Y-79024360D01*
X86479489Y-79024360D02*
X86593775Y-78986265D01*
X86593775Y-78986265D02*
X86669966Y-78986265D01*
X86669966Y-78986265D02*
X86784251Y-79024360D01*
X86784251Y-79024360D02*
X86822347Y-79062455D01*
X87584251Y-79786265D02*
X87127108Y-79786265D01*
X87355680Y-79786265D02*
X87355680Y-78986265D01*
X87355680Y-78986265D02*
X87279489Y-79100550D01*
X87279489Y-79100550D02*
X87203299Y-79176741D01*
X87203299Y-79176741D02*
X87127108Y-79214836D01*
X88079490Y-78986265D02*
X88155680Y-78986265D01*
X88155680Y-78986265D02*
X88231871Y-79024360D01*
X88231871Y-79024360D02*
X88269966Y-79062455D01*
X88269966Y-79062455D02*
X88308061Y-79138646D01*
X88308061Y-79138646D02*
X88346156Y-79291027D01*
X88346156Y-79291027D02*
X88346156Y-79481503D01*
X88346156Y-79481503D02*
X88308061Y-79633884D01*
X88308061Y-79633884D02*
X88269966Y-79710074D01*
X88269966Y-79710074D02*
X88231871Y-79748170D01*
X88231871Y-79748170D02*
X88155680Y-79786265D01*
X88155680Y-79786265D02*
X88079490Y-79786265D01*
X88079490Y-79786265D02*
X88003299Y-79748170D01*
X88003299Y-79748170D02*
X87965204Y-79710074D01*
X87965204Y-79710074D02*
X87927109Y-79633884D01*
X87927109Y-79633884D02*
X87889013Y-79481503D01*
X87889013Y-79481503D02*
X87889013Y-79291027D01*
X87889013Y-79291027D02*
X87927109Y-79138646D01*
X87927109Y-79138646D02*
X87965204Y-79062455D01*
X87965204Y-79062455D02*
X88003299Y-79024360D01*
X88003299Y-79024360D02*
X88079490Y-78986265D01*
X88432347Y-92356265D02*
X88165680Y-91975312D01*
X87975204Y-92356265D02*
X87975204Y-91556265D01*
X87975204Y-91556265D02*
X88279966Y-91556265D01*
X88279966Y-91556265D02*
X88356156Y-91594360D01*
X88356156Y-91594360D02*
X88394251Y-91632455D01*
X88394251Y-91632455D02*
X88432347Y-91708646D01*
X88432347Y-91708646D02*
X88432347Y-91822931D01*
X88432347Y-91822931D02*
X88394251Y-91899122D01*
X88394251Y-91899122D02*
X88356156Y-91937217D01*
X88356156Y-91937217D02*
X88279966Y-91975312D01*
X88279966Y-91975312D02*
X87975204Y-91975312D01*
X88699013Y-91556265D02*
X89194251Y-91556265D01*
X89194251Y-91556265D02*
X88927585Y-91861027D01*
X88927585Y-91861027D02*
X89041870Y-91861027D01*
X89041870Y-91861027D02*
X89118061Y-91899122D01*
X89118061Y-91899122D02*
X89156156Y-91937217D01*
X89156156Y-91937217D02*
X89194251Y-92013408D01*
X89194251Y-92013408D02*
X89194251Y-92203884D01*
X89194251Y-92203884D02*
X89156156Y-92280074D01*
X89156156Y-92280074D02*
X89118061Y-92318170D01*
X89118061Y-92318170D02*
X89041870Y-92356265D01*
X89041870Y-92356265D02*
X88813299Y-92356265D01*
X88813299Y-92356265D02*
X88737108Y-92318170D01*
X88737108Y-92318170D02*
X88699013Y-92280074D01*
X115312374Y-90144152D02*
X115350470Y-90182248D01*
X115350470Y-90182248D02*
X115388565Y-90296533D01*
X115388565Y-90296533D02*
X115388565Y-90372724D01*
X115388565Y-90372724D02*
X115350470Y-90487010D01*
X115350470Y-90487010D02*
X115274279Y-90563200D01*
X115274279Y-90563200D02*
X115198089Y-90601295D01*
X115198089Y-90601295D02*
X115045708Y-90639391D01*
X115045708Y-90639391D02*
X114931422Y-90639391D01*
X114931422Y-90639391D02*
X114779041Y-90601295D01*
X114779041Y-90601295D02*
X114702850Y-90563200D01*
X114702850Y-90563200D02*
X114626660Y-90487010D01*
X114626660Y-90487010D02*
X114588565Y-90372724D01*
X114588565Y-90372724D02*
X114588565Y-90296533D01*
X114588565Y-90296533D02*
X114626660Y-90182248D01*
X114626660Y-90182248D02*
X114664755Y-90144152D01*
X115388565Y-89382248D02*
X115388565Y-89839391D01*
X115388565Y-89610819D02*
X114588565Y-89610819D01*
X114588565Y-89610819D02*
X114702850Y-89687010D01*
X114702850Y-89687010D02*
X114779041Y-89763200D01*
X114779041Y-89763200D02*
X114817136Y-89839391D01*
X114588565Y-89115581D02*
X114588565Y-88582247D01*
X114588565Y-88582247D02*
X115388565Y-88925105D01*
X88862347Y-99836265D02*
X88595680Y-99455312D01*
X88405204Y-99836265D02*
X88405204Y-99036265D01*
X88405204Y-99036265D02*
X88709966Y-99036265D01*
X88709966Y-99036265D02*
X88786156Y-99074360D01*
X88786156Y-99074360D02*
X88824251Y-99112455D01*
X88824251Y-99112455D02*
X88862347Y-99188646D01*
X88862347Y-99188646D02*
X88862347Y-99302931D01*
X88862347Y-99302931D02*
X88824251Y-99379122D01*
X88824251Y-99379122D02*
X88786156Y-99417217D01*
X88786156Y-99417217D02*
X88709966Y-99455312D01*
X88709966Y-99455312D02*
X88405204Y-99455312D01*
X89624251Y-99836265D02*
X89167108Y-99836265D01*
X89395680Y-99836265D02*
X89395680Y-99036265D01*
X89395680Y-99036265D02*
X89319489Y-99150550D01*
X89319489Y-99150550D02*
X89243299Y-99226741D01*
X89243299Y-99226741D02*
X89167108Y-99264836D01*
X88662680Y-93718991D02*
X88624584Y-93757087D01*
X88624584Y-93757087D02*
X88510299Y-93795182D01*
X88510299Y-93795182D02*
X88434108Y-93795182D01*
X88434108Y-93795182D02*
X88319822Y-93757087D01*
X88319822Y-93757087D02*
X88243632Y-93680896D01*
X88243632Y-93680896D02*
X88205537Y-93604706D01*
X88205537Y-93604706D02*
X88167441Y-93452325D01*
X88167441Y-93452325D02*
X88167441Y-93338039D01*
X88167441Y-93338039D02*
X88205537Y-93185658D01*
X88205537Y-93185658D02*
X88243632Y-93109467D01*
X88243632Y-93109467D02*
X88319822Y-93033277D01*
X88319822Y-93033277D02*
X88434108Y-92995182D01*
X88434108Y-92995182D02*
X88510299Y-92995182D01*
X88510299Y-92995182D02*
X88624584Y-93033277D01*
X88624584Y-93033277D02*
X88662680Y-93071372D01*
X89348394Y-93261848D02*
X89348394Y-93795182D01*
X89157918Y-92957087D02*
X88967441Y-93528515D01*
X88967441Y-93528515D02*
X89462680Y-93528515D01*
X71632347Y-93120074D02*
X71594251Y-93158170D01*
X71594251Y-93158170D02*
X71479966Y-93196265D01*
X71479966Y-93196265D02*
X71403775Y-93196265D01*
X71403775Y-93196265D02*
X71289489Y-93158170D01*
X71289489Y-93158170D02*
X71213299Y-93081979D01*
X71213299Y-93081979D02*
X71175204Y-93005789D01*
X71175204Y-93005789D02*
X71137108Y-92853408D01*
X71137108Y-92853408D02*
X71137108Y-92739122D01*
X71137108Y-92739122D02*
X71175204Y-92586741D01*
X71175204Y-92586741D02*
X71213299Y-92510550D01*
X71213299Y-92510550D02*
X71289489Y-92434360D01*
X71289489Y-92434360D02*
X71403775Y-92396265D01*
X71403775Y-92396265D02*
X71479966Y-92396265D01*
X71479966Y-92396265D02*
X71594251Y-92434360D01*
X71594251Y-92434360D02*
X71632347Y-92472455D01*
X72356156Y-92396265D02*
X71975204Y-92396265D01*
X71975204Y-92396265D02*
X71937108Y-92777217D01*
X71937108Y-92777217D02*
X71975204Y-92739122D01*
X71975204Y-92739122D02*
X72051394Y-92701027D01*
X72051394Y-92701027D02*
X72241870Y-92701027D01*
X72241870Y-92701027D02*
X72318061Y-92739122D01*
X72318061Y-92739122D02*
X72356156Y-92777217D01*
X72356156Y-92777217D02*
X72394251Y-92853408D01*
X72394251Y-92853408D02*
X72394251Y-93043884D01*
X72394251Y-93043884D02*
X72356156Y-93120074D01*
X72356156Y-93120074D02*
X72318061Y-93158170D01*
X72318061Y-93158170D02*
X72241870Y-93196265D01*
X72241870Y-93196265D02*
X72051394Y-93196265D01*
X72051394Y-93196265D02*
X71975204Y-93158170D01*
X71975204Y-93158170D02*
X71937108Y-93120074D01*
X95025204Y-101826265D02*
X95025204Y-101026265D01*
X95025204Y-101407217D02*
X95482347Y-101407217D01*
X95482347Y-101826265D02*
X95482347Y-101026265D01*
X96282346Y-101826265D02*
X95825203Y-101826265D01*
X96053775Y-101826265D02*
X96053775Y-101026265D01*
X96053775Y-101026265D02*
X95977584Y-101140550D01*
X95977584Y-101140550D02*
X95901394Y-101216741D01*
X95901394Y-101216741D02*
X95825203Y-101254836D01*
%TO.C,C6*%
X78044400Y-81890100D02*
X78044400Y-80480100D01*
X78044400Y-82692100D02*
X78044400Y-84102100D01*
X78196900Y-80327600D02*
X79698900Y-80327600D01*
X78196900Y-84254600D02*
X79698900Y-84254600D01*
X79851400Y-80480100D02*
X79851400Y-81890100D01*
X79851400Y-84102100D02*
X79851400Y-82692100D01*
X78044400Y-80480100D02*
G75*
G02*
X78196900Y-80327600I152499J1D01*
G01*
X78196900Y-84254600D02*
G75*
G02*
X78044400Y-84102100I0J152500D01*
G01*
X79698900Y-80327600D02*
G75*
G02*
X79851400Y-80480100I1J-152499D01*
G01*
X79851400Y-84102100D02*
G75*
G02*
X79698900Y-84254600I-152500J0D01*
G01*
D13*
%TO.C,H2*%
X89024400Y-79752100D02*
X89024400Y-84832100D01*
X89024400Y-79752100D02*
X97104400Y-79752100D01*
X89024400Y-82285100D02*
X91794400Y-82285100D01*
X89024400Y-84832100D02*
X97104400Y-84832100D01*
X91794400Y-82285100D02*
X91794400Y-84832100D01*
X97104400Y-79752100D02*
X97104400Y-84832100D01*
D12*
%TO.C,R7*%
X102079400Y-78331600D02*
X103038400Y-78331600D01*
X102079400Y-79652600D02*
X102079400Y-78331600D01*
X103038400Y-79652600D02*
X102079400Y-79652600D01*
X103890400Y-79652600D02*
X104849400Y-79652600D01*
X104849400Y-78331600D02*
X103890400Y-78331600D01*
X104849400Y-79652600D02*
X104849400Y-78331600D01*
%TO.C,C3*%
X80880900Y-88430323D02*
X80880900Y-87020323D01*
X80880900Y-89232323D02*
X80880900Y-90642323D01*
X81033400Y-86867823D02*
X82535400Y-86867823D01*
X81033400Y-90794823D02*
X82535400Y-90794823D01*
X82687900Y-87020323D02*
X82687900Y-88430323D01*
X82687900Y-90642323D02*
X82687900Y-89232323D01*
X80880900Y-87020323D02*
G75*
G02*
X81033400Y-86867823I152499J1D01*
G01*
X81033400Y-90794823D02*
G75*
G02*
X80880900Y-90642323I0J152500D01*
G01*
X82535400Y-86867823D02*
G75*
G02*
X82687900Y-87020323I1J-152499D01*
G01*
X82687900Y-90642323D02*
G75*
G02*
X82535400Y-90794823I-152500J0D01*
G01*
%TO.C,C12*%
X99606900Y-80361300D02*
X99606900Y-81771300D01*
X99606900Y-83983300D02*
X99606900Y-82573300D01*
X101261400Y-80208800D02*
X99759400Y-80208800D01*
X101261400Y-84135800D02*
X99759400Y-84135800D01*
X101413900Y-81771300D02*
X101413900Y-80361300D01*
X101413900Y-82573300D02*
X101413900Y-83983300D01*
X99606900Y-80361300D02*
G75*
G02*
X99759400Y-80208800I152500J0D01*
G01*
X99759400Y-84135800D02*
G75*
G02*
X99606900Y-83983300I-1J152499D01*
G01*
X101261400Y-80208800D02*
G75*
G02*
X101413900Y-80361300I0J-152500D01*
G01*
X101413900Y-83983300D02*
G75*
G02*
X101261400Y-84135800I-152499J-1D01*
G01*
%TO.C,U1*%
X77526400Y-92543100D02*
X80569400Y-92543100D01*
X77526400Y-97595100D02*
X77526400Y-92543100D01*
X80569400Y-92543100D02*
X80569400Y-97595100D01*
X80569400Y-97595100D02*
X77526400Y-97595100D01*
D14*
X76428900Y-92424600D02*
G75*
G02*
X76128900Y-92424600I-150000J0D01*
G01*
X76128900Y-92424600D02*
G75*
G02*
X76428900Y-92424600I150000J0D01*
G01*
X78428900Y-93164100D02*
G75*
G02*
X78128900Y-93164100I-150000J0D01*
G01*
X78128900Y-93164100D02*
G75*
G02*
X78428900Y-93164100I150000J0D01*
G01*
D12*
%TO.C,C15*%
X115900900Y-93493516D02*
X115900900Y-94995516D01*
X116053400Y-95148016D02*
X117463400Y-95148016D01*
X117463400Y-93341016D02*
X116053400Y-93341016D01*
X118265400Y-93341016D02*
X119675400Y-93341016D01*
X119675400Y-95148016D02*
X118265400Y-95148016D01*
X119827900Y-93493516D02*
X119827900Y-94995516D01*
X115900900Y-93493516D02*
G75*
G02*
X116053400Y-93341016I152500J0D01*
G01*
X116053400Y-95148016D02*
G75*
G02*
X115900900Y-94995516I0J152500D01*
G01*
X119675400Y-93341016D02*
G75*
G02*
X119827900Y-93493516I1J-152499D01*
G01*
X119827900Y-94995516D02*
G75*
G02*
X119675400Y-95148016I-152499J-1D01*
G01*
%TO.C,R4*%
X83636900Y-98597100D02*
X84921900Y-98597100D01*
X83636900Y-100431100D02*
X83636900Y-98597100D01*
X84921900Y-100431100D02*
X83636900Y-100431100D01*
X85873900Y-100431100D02*
X87158900Y-100431100D01*
X87158900Y-98597100D02*
X85873900Y-98597100D01*
X87158900Y-100431100D02*
X87158900Y-98597100D01*
D13*
%TO.C,C14*%
X103904900Y-83880600D02*
X103904900Y-84680600D01*
X105014900Y-83570600D02*
X104214900Y-83570600D01*
X105014900Y-84990100D02*
X104214900Y-84990100D01*
X105590900Y-83576600D02*
X106390400Y-83576600D01*
X105590900Y-84996100D02*
X106390400Y-84996100D01*
X106700400Y-83886100D02*
X106700400Y-84686600D01*
X103904900Y-83880600D02*
G75*
G02*
X104214900Y-83570600I310000J0D01*
G01*
X104214900Y-84990100D02*
G75*
G02*
X103904900Y-84680600I353J310354D01*
G01*
X106390400Y-83576600D02*
G75*
G02*
X106700399Y-83886100I-350J-310350D01*
G01*
X106700400Y-84686100D02*
G75*
G02*
X106390400Y-84996100I-310000J0D01*
G01*
%TO.C,C18*%
X116474400Y-88292100D02*
X116474400Y-87491600D01*
X117583900Y-87182100D02*
X116784400Y-87182100D01*
X117583900Y-88601600D02*
X116784400Y-88601600D01*
X118159900Y-87188100D02*
X118959900Y-87188100D01*
X118159900Y-88607600D02*
X118959900Y-88607600D01*
X119269900Y-88297600D02*
X119269900Y-87497600D01*
X116474400Y-87492100D02*
G75*
G02*
X116784400Y-87182100I310000J0D01*
G01*
X116784400Y-88601600D02*
G75*
G02*
X116474401Y-88292100I350J310350D01*
G01*
X118959900Y-87188100D02*
G75*
G02*
X119269900Y-87497600I-353J-310354D01*
G01*
X119269900Y-88297600D02*
G75*
G02*
X118959900Y-88607600I-310000J0D01*
G01*
%TO.C,H3*%
X115324400Y-78452100D02*
X120404400Y-78452100D01*
X115324400Y-86532100D02*
X115324400Y-78452100D01*
X115324400Y-86532100D02*
X120404400Y-86532100D01*
X117857400Y-83762100D02*
X120404400Y-83762100D01*
X117857400Y-86532100D02*
X117857400Y-83762100D01*
X120404400Y-86532100D02*
X120404400Y-78452100D01*
D12*
%TO.C,R2*%
X72923900Y-95848100D02*
X72923900Y-97133100D01*
X72923900Y-99370100D02*
X72923900Y-98085100D01*
X74757900Y-95848100D02*
X72923900Y-95848100D01*
X74757900Y-97133100D02*
X74757900Y-95848100D01*
X74757900Y-98085100D02*
X74757900Y-99370100D01*
X74757900Y-99370100D02*
X72923900Y-99370100D01*
%TO.C,U2*%
X106453400Y-79953100D02*
X104675400Y-79953100D01*
X106453400Y-83031100D02*
X104675400Y-83031100D01*
D14*
X107016400Y-83160600D02*
G75*
G02*
X106715400Y-83160600I-150500J0D01*
G01*
X106715400Y-83160600D02*
G75*
G02*
X107016400Y-83160600I150500J0D01*
G01*
D12*
%TO.C,C11*%
X97560900Y-80381100D02*
X97560900Y-81791100D01*
X97560900Y-84003100D02*
X97560900Y-82593100D01*
X99215400Y-80228600D02*
X97713400Y-80228600D01*
X99215400Y-84155600D02*
X97713400Y-84155600D01*
X99367900Y-81791100D02*
X99367900Y-80381100D01*
X99367900Y-82593100D02*
X99367900Y-84003100D01*
X97560900Y-80381100D02*
G75*
G02*
X97713400Y-80228600I152500J0D01*
G01*
X97713400Y-84155600D02*
G75*
G02*
X97560900Y-84003100I-1J152499D01*
G01*
X99215400Y-80228600D02*
G75*
G02*
X99367900Y-80381100I0J-152500D01*
G01*
X99367900Y-84003100D02*
G75*
G02*
X99215400Y-84155600I-152499J-1D01*
G01*
%TO.C,C8*%
X82108400Y-81890100D02*
X82108400Y-80480100D01*
X82108400Y-82692100D02*
X82108400Y-84102100D01*
X82260900Y-80327600D02*
X83762900Y-80327600D01*
X82260900Y-84254600D02*
X83762900Y-84254600D01*
X83915400Y-80480100D02*
X83915400Y-81890100D01*
X83915400Y-84102100D02*
X83915400Y-82692100D01*
X82108400Y-80480100D02*
G75*
G02*
X82260900Y-80327600I152499J1D01*
G01*
X82260900Y-84254600D02*
G75*
G02*
X82108400Y-84102100I0J152500D01*
G01*
X83762900Y-80327600D02*
G75*
G02*
X83915400Y-80480100I1J-152499D01*
G01*
X83915400Y-84102100D02*
G75*
G02*
X83762900Y-84254600I-152500J0D01*
G01*
%TO.C,R8*%
X109983900Y-79218100D02*
X111304900Y-79218100D01*
X109983900Y-80177100D02*
X109983900Y-79218100D01*
X109983900Y-81029100D02*
X109983900Y-81988100D01*
X109983900Y-81988100D02*
X111304900Y-81988100D01*
X111304900Y-79218100D02*
X111304900Y-80177100D01*
X111304900Y-81988100D02*
X111304900Y-81029100D01*
%TO.C,C16*%
X115900900Y-91341100D02*
X115900900Y-92843100D01*
X116053400Y-92995600D02*
X117463400Y-92995600D01*
X117463400Y-91188600D02*
X116053400Y-91188600D01*
X118265400Y-91188600D02*
X119675400Y-91188600D01*
X119675400Y-92995600D02*
X118265400Y-92995600D01*
X119827900Y-91341100D02*
X119827900Y-92843100D01*
X115900900Y-91341100D02*
G75*
G02*
X116053400Y-91188600I152500J0D01*
G01*
X116053400Y-92995600D02*
G75*
G02*
X115900900Y-92843100I0J152500D01*
G01*
X119675400Y-91188600D02*
G75*
G02*
X119827900Y-91341100I1J-152499D01*
G01*
X119827900Y-92843100D02*
G75*
G02*
X119675400Y-92995600I-152499J-1D01*
G01*
%TO.C,C9*%
X84160900Y-81891100D02*
X84160900Y-80481100D01*
X84160900Y-82693100D02*
X84160900Y-84103100D01*
X84313400Y-80328600D02*
X85815400Y-80328600D01*
X84313400Y-84255600D02*
X85815400Y-84255600D01*
X85967900Y-80481100D02*
X85967900Y-81891100D01*
X85967900Y-84103100D02*
X85967900Y-82693100D01*
X84160900Y-80481100D02*
G75*
G02*
X84313400Y-80328600I152499J1D01*
G01*
X84313400Y-84255600D02*
G75*
G02*
X84160900Y-84103100I0J152500D01*
G01*
X85815400Y-80328600D02*
G75*
G02*
X85967900Y-80481100I1J-152499D01*
G01*
X85967900Y-84103100D02*
G75*
G02*
X85815400Y-84255600I-152500J0D01*
G01*
D13*
%TO.C,L2*%
X101914400Y-86242100D02*
X101914400Y-88961100D01*
X101914400Y-86242100D02*
X113414400Y-86242100D01*
X101914400Y-93523100D02*
X101914400Y-96242100D01*
X113414400Y-88961100D02*
X113414400Y-86242100D01*
X113414400Y-96242100D02*
X101914400Y-96242100D01*
X113414400Y-96242100D02*
X113414400Y-93523100D01*
D12*
%TO.C,C7*%
X80076400Y-81890100D02*
X80076400Y-80480100D01*
X80076400Y-82692100D02*
X80076400Y-84102100D01*
X80228900Y-80327600D02*
X81730900Y-80327600D01*
X80228900Y-84254600D02*
X81730900Y-84254600D01*
X81883400Y-80480100D02*
X81883400Y-81890100D01*
X81883400Y-84102100D02*
X81883400Y-82692100D01*
X80076400Y-80480100D02*
G75*
G02*
X80228900Y-80327600I152499J1D01*
G01*
X80228900Y-84254600D02*
G75*
G02*
X80076400Y-84102100I0J152500D01*
G01*
X81730900Y-80327600D02*
G75*
G02*
X81883400Y-80480100I1J-152499D01*
G01*
X81883400Y-84102100D02*
G75*
G02*
X81730900Y-84254600I-152500J0D01*
G01*
%TO.C,L1*%
X66732900Y-79687100D02*
X66732900Y-90639100D01*
X66732900Y-90639100D02*
X69946400Y-90639100D01*
X69946400Y-79687100D02*
X66732900Y-79687100D01*
X73671400Y-79687100D02*
X76884900Y-79687100D01*
X76884900Y-79687100D02*
X76884900Y-90639100D01*
X76884900Y-90639100D02*
X73671400Y-90639100D01*
%TO.C,R5*%
X83636900Y-96438100D02*
X83636900Y-98272100D01*
X83636900Y-98272100D02*
X84921900Y-98272100D01*
X84921900Y-96438100D02*
X83636900Y-96438100D01*
X85873900Y-96438100D02*
X87158900Y-96438100D01*
X87158900Y-96438100D02*
X87158900Y-98272100D01*
X87158900Y-98272100D02*
X85873900Y-98272100D01*
%TO.C,C2*%
X83137400Y-85912323D02*
X83137400Y-87397323D01*
X83137400Y-90734323D02*
X83137400Y-89249323D01*
X85169900Y-85759823D02*
X83289900Y-85759823D01*
X85169900Y-90886823D02*
X83289900Y-90886823D01*
X85322400Y-87397323D02*
X85322400Y-85912323D01*
X85322400Y-89249323D02*
X85322400Y-90734323D01*
X83137400Y-85912323D02*
G75*
G02*
X83289900Y-85759823I152500J0D01*
G01*
X83289900Y-90886823D02*
G75*
G02*
X83137400Y-90734323I-1J152499D01*
G01*
X85169900Y-85759823D02*
G75*
G02*
X85322400Y-85912323I0J-152500D01*
G01*
X85322400Y-90734323D02*
G75*
G02*
X85169900Y-90886823I-152499J-1D01*
G01*
%TO.C,C1*%
X85771900Y-85912323D02*
X85771900Y-87397323D01*
X85771900Y-90734323D02*
X85771900Y-89249323D01*
X87804400Y-85759823D02*
X85924400Y-85759823D01*
X87804400Y-90886823D02*
X85924400Y-90886823D01*
X87956900Y-87397323D02*
X87956900Y-85912323D01*
X87956900Y-89249323D02*
X87956900Y-90734323D01*
X85771900Y-85912323D02*
G75*
G02*
X85924400Y-85759823I152500J0D01*
G01*
X85924400Y-90886823D02*
G75*
G02*
X85771900Y-90734323I-1J152499D01*
G01*
X87804400Y-85759823D02*
G75*
G02*
X87956900Y-85912323I0J-152500D01*
G01*
X87956900Y-90734323D02*
G75*
G02*
X87804400Y-90886823I-152499J-1D01*
G01*
%TO.C,R9*%
X108078900Y-79218100D02*
X108078900Y-80177100D01*
X108078900Y-81988100D02*
X108078900Y-81029100D01*
X109399900Y-79218100D02*
X108078900Y-79218100D01*
X109399900Y-80177100D02*
X109399900Y-79218100D01*
X109399900Y-81029100D02*
X109399900Y-81988100D01*
X109399900Y-81988100D02*
X108078900Y-81988100D01*
D13*
%TO.C,C13*%
X101706300Y-82487600D02*
X101706300Y-83287600D01*
X101712300Y-81911600D02*
X101712300Y-81112100D01*
X102016300Y-83597600D02*
X102816300Y-83597600D01*
X102021800Y-80802100D02*
X102822300Y-80802100D01*
X103125800Y-82487600D02*
X103125800Y-83287600D01*
X103131800Y-81911600D02*
X103131800Y-81112100D01*
X101712300Y-81112100D02*
G75*
G02*
X102021800Y-80802101I310350J-350D01*
G01*
X102016300Y-83597600D02*
G75*
G02*
X101706300Y-83287600I0J310000D01*
G01*
X102821800Y-80802100D02*
G75*
G02*
X103131800Y-81112100I0J-310000D01*
G01*
X103125800Y-83287600D02*
G75*
G02*
X102816300Y-83597600I-310354J353D01*
G01*
D12*
%TO.C,C10*%
X86260900Y-81891100D02*
X86260900Y-80481100D01*
X86260900Y-82693100D02*
X86260900Y-84103100D01*
X86413400Y-80328600D02*
X87915400Y-80328600D01*
X86413400Y-84255600D02*
X87915400Y-84255600D01*
X88067900Y-80481100D02*
X88067900Y-81891100D01*
X88067900Y-84103100D02*
X88067900Y-82693100D01*
X86260900Y-80481100D02*
G75*
G02*
X86413400Y-80328600I152499J1D01*
G01*
X86413400Y-84255600D02*
G75*
G02*
X86260900Y-84103100I0J152500D01*
G01*
X87915400Y-80328600D02*
G75*
G02*
X88067900Y-80481100I1J-152499D01*
G01*
X88067900Y-84103100D02*
G75*
G02*
X87915400Y-84255600I-152500J0D01*
G01*
%TO.C,R3*%
X83636900Y-92374100D02*
X83636900Y-94208100D01*
X83636900Y-94208100D02*
X84921900Y-94208100D01*
X84921900Y-92374100D02*
X83636900Y-92374100D01*
X85873900Y-92374100D02*
X87158900Y-92374100D01*
X87158900Y-92374100D02*
X87158900Y-94208100D01*
X87158900Y-94208100D02*
X85873900Y-94208100D01*
%TO.C,C17*%
X115900900Y-89141100D02*
X115900900Y-90643100D01*
X116053400Y-90795600D02*
X117463400Y-90795600D01*
X117463400Y-88988600D02*
X116053400Y-88988600D01*
X118265400Y-88988600D02*
X119675400Y-88988600D01*
X119675400Y-90795600D02*
X118265400Y-90795600D01*
X119827900Y-89141100D02*
X119827900Y-90643100D01*
X115900900Y-89141100D02*
G75*
G02*
X116053400Y-88988600I152500J0D01*
G01*
X116053400Y-90795600D02*
G75*
G02*
X115900900Y-90643100I0J152500D01*
G01*
X119675400Y-88988600D02*
G75*
G02*
X119827900Y-89141100I1J-152499D01*
G01*
X119827900Y-90643100D02*
G75*
G02*
X119675400Y-90795600I-152499J-1D01*
G01*
%TO.C,R1*%
X87909900Y-94578100D02*
X87909900Y-95863100D01*
X87909900Y-98100100D02*
X87909900Y-96815100D01*
X89743900Y-94578100D02*
X87909900Y-94578100D01*
X89743900Y-95863100D02*
X89743900Y-94578100D01*
X89743900Y-96815100D02*
X89743900Y-98100100D01*
X89743900Y-98100100D02*
X87909900Y-98100100D01*
%TO.C,C4*%
X83561400Y-94572100D02*
X83561400Y-96074100D01*
X83713900Y-96226600D02*
X85123900Y-96226600D01*
X85123900Y-94419600D02*
X83713900Y-94419600D01*
X85925900Y-94419600D02*
X87335900Y-94419600D01*
X87335900Y-96226600D02*
X85925900Y-96226600D01*
X87488400Y-94572100D02*
X87488400Y-96074100D01*
X83561400Y-94572100D02*
G75*
G02*
X83713900Y-94419600I152500J0D01*
G01*
X83713900Y-96226600D02*
G75*
G02*
X83561400Y-96074100I0J152500D01*
G01*
X87335900Y-94419600D02*
G75*
G02*
X87488400Y-94572100I1J-152499D01*
G01*
X87488400Y-96074100D02*
G75*
G02*
X87335900Y-96226600I-152499J-1D01*
G01*
%TO.C,C5*%
X72937400Y-93271100D02*
X72937400Y-91861100D01*
X72937400Y-94073100D02*
X72937400Y-95483100D01*
X73089900Y-91708600D02*
X74591900Y-91708600D01*
X73089900Y-95635600D02*
X74591900Y-95635600D01*
X74744400Y-91861100D02*
X74744400Y-93271100D01*
X74744400Y-95483100D02*
X74744400Y-94073100D01*
X72937400Y-91861100D02*
G75*
G02*
X73089900Y-91708600I152499J1D01*
G01*
X73089900Y-95635600D02*
G75*
G02*
X72937400Y-95483100I0J152500D01*
G01*
X74591900Y-91708600D02*
G75*
G02*
X74744400Y-91861100I1J-152499D01*
G01*
X74744400Y-95483100D02*
G75*
G02*
X74591900Y-95635600I-152500J0D01*
G01*
D13*
%TO.C,H1*%
X91624400Y-92452100D02*
X96704400Y-92452100D01*
X91624400Y-100532100D02*
X91624400Y-92452100D01*
X91624400Y-100532100D02*
X96704400Y-100532100D01*
X94157400Y-97762100D02*
X96704400Y-97762100D01*
X94157400Y-100532100D02*
X94157400Y-97762100D01*
X96704400Y-100532100D02*
X96704400Y-92452100D01*
%TD*%
M02*
