G04 Layer: BottomSilkscreenLayer*
G04 EasyEDA Pro v2.2.27.1, 2024-09-15 10:59:50*
G04 Gerber Generator version 0.3*
G04 Scale: 100 percent, Rotated: No, Reflected: No*
G04 Dimensions in millimeters*
G04 Leading zeros omitted, absolute positions, 3 integers and 5 decimals*
%TF.GenerationSoftware,KiCad,Pcbnew,8.0.5*%
%TF.CreationDate,2024-10-25T17:28:07+08:00*%
%TF.ProjectId,LED_SMT_5730_5S6P_15W,4c45445f-534d-4545-9f35-3733305f3553,rev?*%
%TF.SameCoordinates,Original*%
%TF.FileFunction,Legend,Bot*%
%TF.FilePolarity,Positive*%
%FSLAX46Y46*%
G04 Gerber Fmt 4.6, Leading zero omitted, Abs format (unit mm)*
G04 Created by KiCad (PCBNEW 8.0.5) date 2024-10-25 17:28:07*
%MOMM*%
%LPD*%
G01*
G04 APERTURE LIST*
%ADD10C,0.200000*%
G04 APERTURE END LIST*
D10*
X121205564Y-109677667D02*
X120681755Y-109011000D01*
X121205564Y-109011000D02*
X120681755Y-109677667D01*
X119062707Y-108677667D02*
X119538897Y-108677667D01*
X119538897Y-108677667D02*
X119586516Y-109153857D01*
X119586516Y-109153857D02*
X119538897Y-109106238D01*
X119538897Y-109106238D02*
X119443659Y-109058619D01*
X119443659Y-109058619D02*
X119205564Y-109058619D01*
X119205564Y-109058619D02*
X119110326Y-109106238D01*
X119110326Y-109106238D02*
X119062707Y-109153857D01*
X119062707Y-109153857D02*
X119015088Y-109249095D01*
X119015088Y-109249095D02*
X119015088Y-109487190D01*
X119015088Y-109487190D02*
X119062707Y-109582428D01*
X119062707Y-109582428D02*
X119110326Y-109630048D01*
X119110326Y-109630048D02*
X119205564Y-109677667D01*
X119205564Y-109677667D02*
X119443659Y-109677667D01*
X119443659Y-109677667D02*
X119538897Y-109630048D01*
X119538897Y-109630048D02*
X119586516Y-109582428D01*
X118681754Y-108677667D02*
X118015088Y-108677667D01*
X118015088Y-108677667D02*
X118443659Y-109677667D01*
X117729373Y-108677667D02*
X117110326Y-108677667D01*
X117110326Y-108677667D02*
X117443659Y-109058619D01*
X117443659Y-109058619D02*
X117300802Y-109058619D01*
X117300802Y-109058619D02*
X117205564Y-109106238D01*
X117205564Y-109106238D02*
X117157945Y-109153857D01*
X117157945Y-109153857D02*
X117110326Y-109249095D01*
X117110326Y-109249095D02*
X117110326Y-109487190D01*
X117110326Y-109487190D02*
X117157945Y-109582428D01*
X117157945Y-109582428D02*
X117205564Y-109630048D01*
X117205564Y-109630048D02*
X117300802Y-109677667D01*
X117300802Y-109677667D02*
X117586516Y-109677667D01*
X117586516Y-109677667D02*
X117681754Y-109630048D01*
X117681754Y-109630048D02*
X117729373Y-109582428D01*
X116491278Y-108677667D02*
X116396040Y-108677667D01*
X116396040Y-108677667D02*
X116300802Y-108725286D01*
X116300802Y-108725286D02*
X116253183Y-108772905D01*
X116253183Y-108772905D02*
X116205564Y-108868143D01*
X116205564Y-108868143D02*
X116157945Y-109058619D01*
X116157945Y-109058619D02*
X116157945Y-109296714D01*
X116157945Y-109296714D02*
X116205564Y-109487190D01*
X116205564Y-109487190D02*
X116253183Y-109582428D01*
X116253183Y-109582428D02*
X116300802Y-109630048D01*
X116300802Y-109630048D02*
X116396040Y-109677667D01*
X116396040Y-109677667D02*
X116491278Y-109677667D01*
X116491278Y-109677667D02*
X116586516Y-109630048D01*
X116586516Y-109630048D02*
X116634135Y-109582428D01*
X116634135Y-109582428D02*
X116681754Y-109487190D01*
X116681754Y-109487190D02*
X116729373Y-109296714D01*
X116729373Y-109296714D02*
X116729373Y-109058619D01*
X116729373Y-109058619D02*
X116681754Y-108868143D01*
X116681754Y-108868143D02*
X116634135Y-108772905D01*
X116634135Y-108772905D02*
X116586516Y-108725286D01*
X116586516Y-108725286D02*
X116491278Y-108677667D01*
X115253183Y-109677667D02*
X115729373Y-109677667D01*
X115729373Y-109677667D02*
X115729373Y-108677667D01*
X114919849Y-109153857D02*
X114586516Y-109153857D01*
X114443659Y-109677667D02*
X114919849Y-109677667D01*
X114919849Y-109677667D02*
X114919849Y-108677667D01*
X114919849Y-108677667D02*
X114443659Y-108677667D01*
X114015087Y-109677667D02*
X114015087Y-108677667D01*
X114015087Y-108677667D02*
X113776992Y-108677667D01*
X113776992Y-108677667D02*
X113634135Y-108725286D01*
X113634135Y-108725286D02*
X113538897Y-108820524D01*
X113538897Y-108820524D02*
X113491278Y-108915762D01*
X113491278Y-108915762D02*
X113443659Y-109106238D01*
X113443659Y-109106238D02*
X113443659Y-109249095D01*
X113443659Y-109249095D02*
X113491278Y-109439571D01*
X113491278Y-109439571D02*
X113538897Y-109534809D01*
X113538897Y-109534809D02*
X113634135Y-109630048D01*
X113634135Y-109630048D02*
X113776992Y-109677667D01*
X113776992Y-109677667D02*
X114015087Y-109677667D01*
X112348420Y-108677667D02*
X111205563Y-108677667D01*
X111729373Y-109153857D02*
X111253182Y-109153857D01*
X112396039Y-109677667D02*
X111157944Y-109677667D01*
X112157944Y-109011000D02*
X112157944Y-109677667D01*
X111729373Y-108677667D02*
X111729373Y-109677667D01*
X110919849Y-109201476D02*
X109681754Y-109201476D01*
X110919849Y-109582428D02*
X109681754Y-109582428D01*
X110919849Y-108772905D02*
X110919849Y-109677667D01*
X110919849Y-108772905D02*
X109681754Y-108772905D01*
X109681754Y-108772905D02*
X109681754Y-109677667D01*
X110348421Y-108534809D02*
X110443659Y-108772905D01*
X109348421Y-108772905D02*
X108348421Y-108772905D01*
X109396040Y-108963381D02*
X108253183Y-108963381D01*
X108443659Y-108677667D02*
X108300802Y-108868143D01*
X109015088Y-108630048D02*
X109157945Y-108772905D01*
X108634136Y-108963381D02*
X108443659Y-109153857D01*
X108443659Y-109153857D02*
X108205564Y-109249095D01*
X108919850Y-108868143D02*
X109157945Y-109153857D01*
X109157945Y-109153857D02*
X109443659Y-109249095D01*
X108776993Y-109106238D02*
X109110326Y-109249095D01*
X108586517Y-109249095D02*
X108824612Y-109391952D01*
X108824612Y-109391952D02*
X109110326Y-109439571D01*
X108396040Y-109439571D02*
X108729374Y-109582428D01*
X108729374Y-109582428D02*
X109157945Y-109677667D01*
X107967469Y-108820524D02*
X107348422Y-108820524D01*
X107967469Y-109249095D02*
X107348422Y-109249095D01*
X107634136Y-108534809D02*
X107634136Y-109106238D01*
X107872231Y-108582428D02*
X107824612Y-108725286D01*
X107634136Y-108820524D02*
X107919850Y-109058619D01*
X107443660Y-108582428D02*
X107491279Y-108725286D01*
X107634136Y-108868143D02*
X107396041Y-109011000D01*
X107872231Y-109439571D02*
X107443660Y-109630048D01*
X107729374Y-109106238D02*
X107872231Y-109487190D01*
X107157946Y-108677667D02*
X107348422Y-109106238D01*
X107491279Y-109249095D02*
X107538898Y-109487190D01*
X107538898Y-109487190D02*
X107681755Y-109582428D01*
X107681755Y-109582428D02*
X107919850Y-109677667D01*
X107205565Y-108820524D02*
X106634136Y-108820524D01*
X107110327Y-108582428D02*
X107348422Y-109058619D01*
X107205565Y-108820524D02*
X106967469Y-109344333D01*
X106967469Y-109344333D02*
X106776993Y-109582428D01*
X106776993Y-109582428D02*
X106586517Y-109630048D01*
X106776993Y-108820524D02*
X106919850Y-109344333D01*
X106919850Y-109344333D02*
X107110327Y-109534809D01*
X107110327Y-109534809D02*
X107348422Y-109630048D01*
X121205564Y-110287611D02*
X120062707Y-110287611D01*
X120586517Y-110763801D02*
X120110326Y-110763801D01*
X121253183Y-111287611D02*
X120015088Y-111287611D01*
X121015088Y-110620944D02*
X121015088Y-111287611D01*
X120586517Y-110287611D02*
X120586517Y-111287611D01*
X119443660Y-111001896D02*
X118872232Y-111001896D01*
X118872232Y-111287611D02*
X118538898Y-111287611D01*
X119776993Y-110382849D02*
X119776993Y-111287611D01*
X119443660Y-110668563D02*
X119443660Y-111097134D01*
X119443660Y-110668563D02*
X118872232Y-110668563D01*
X118872232Y-110668563D02*
X118872232Y-111001896D01*
X119776993Y-110382849D02*
X118538898Y-110382849D01*
X118538898Y-110382849D02*
X118538898Y-111287611D01*
X119253184Y-110144753D02*
X119348422Y-110382849D01*
X118253184Y-110335230D02*
X117110327Y-110335230D01*
X118300803Y-111287611D02*
X117062708Y-111287611D01*
X117681756Y-110335230D02*
X117681756Y-111287611D01*
X116253185Y-110430468D02*
X115586518Y-110430468D01*
X116062709Y-110668563D02*
X115586518Y-110668563D01*
X116062709Y-110954277D02*
X115586518Y-110954277D01*
X116586518Y-110382849D02*
X116586518Y-111287611D01*
X116062709Y-110382849D02*
X116062709Y-111287611D01*
X116491280Y-110192372D02*
X116634137Y-110478087D01*
X116634137Y-110478087D02*
X116824613Y-110668563D01*
X116157947Y-110192372D02*
X116300804Y-110525706D01*
X116300804Y-110525706D02*
X116443661Y-110668563D01*
X115348423Y-110668563D02*
X114253185Y-110668563D01*
X115348423Y-110954277D02*
X114253185Y-110954277D01*
X114776995Y-111287611D02*
X114157947Y-111287611D01*
X115348423Y-110335230D02*
X115348423Y-111049515D01*
X114776995Y-110144753D02*
X114776995Y-111287611D01*
X115348423Y-110335230D02*
X114253185Y-110335230D01*
X114253185Y-110335230D02*
X114253185Y-110954277D01*
X114110328Y-111049515D02*
X114157947Y-111287611D01*
X113491281Y-110335230D02*
X112634138Y-110335230D01*
X113443662Y-110668563D02*
X112729376Y-110668563D01*
X112824614Y-111287611D02*
X112634138Y-111287611D01*
X113110329Y-110763801D02*
X113110329Y-111239992D01*
X112776995Y-110763801D02*
X112776995Y-111287611D01*
X112634138Y-111097134D02*
X112634138Y-111287611D01*
X112919852Y-110478087D02*
X112681757Y-110716182D01*
X113776995Y-110192372D02*
X113586519Y-110287611D01*
X113872233Y-110525706D02*
X113634138Y-110620944D01*
X113634138Y-110859039D02*
X113824614Y-111287611D01*
X113110329Y-110144753D02*
X113157948Y-110335230D01*
X113157948Y-110335230D02*
X113300805Y-110620944D01*
X113348424Y-110811420D02*
X113443662Y-111192372D01*
X113443662Y-111192372D02*
X113538900Y-111287611D01*
X110967472Y-111287611D02*
X111538900Y-111287611D01*
X111253186Y-111287611D02*
X111253186Y-110287611D01*
X111253186Y-110287611D02*
X111348424Y-110430468D01*
X111348424Y-110430468D02*
X111443662Y-110525706D01*
X111443662Y-110525706D02*
X111538900Y-110573325D01*
X110062710Y-110287611D02*
X110538900Y-110287611D01*
X110538900Y-110287611D02*
X110586519Y-110763801D01*
X110586519Y-110763801D02*
X110538900Y-110716182D01*
X110538900Y-110716182D02*
X110443662Y-110668563D01*
X110443662Y-110668563D02*
X110205567Y-110668563D01*
X110205567Y-110668563D02*
X110110329Y-110716182D01*
X110110329Y-110716182D02*
X110062710Y-110763801D01*
X110062710Y-110763801D02*
X110015091Y-110859039D01*
X110015091Y-110859039D02*
X110015091Y-111097134D01*
X110015091Y-111097134D02*
X110062710Y-111192372D01*
X110062710Y-111192372D02*
X110110329Y-111239992D01*
X110110329Y-111239992D02*
X110205567Y-111287611D01*
X110205567Y-111287611D02*
X110443662Y-111287611D01*
X110443662Y-111287611D02*
X110538900Y-111239992D01*
X110538900Y-111239992D02*
X110586519Y-111192372D01*
X109396043Y-110287611D02*
X109300805Y-110287611D01*
X109300805Y-110287611D02*
X109205567Y-110335230D01*
X109205567Y-110335230D02*
X109157948Y-110382849D01*
X109157948Y-110382849D02*
X109110329Y-110478087D01*
X109110329Y-110478087D02*
X109062710Y-110668563D01*
X109062710Y-110668563D02*
X109062710Y-110906658D01*
X109062710Y-110906658D02*
X109110329Y-111097134D01*
X109110329Y-111097134D02*
X109157948Y-111192372D01*
X109157948Y-111192372D02*
X109205567Y-111239992D01*
X109205567Y-111239992D02*
X109300805Y-111287611D01*
X109300805Y-111287611D02*
X109396043Y-111287611D01*
X109396043Y-111287611D02*
X109491281Y-111239992D01*
X109491281Y-111239992D02*
X109538900Y-111192372D01*
X109538900Y-111192372D02*
X109586519Y-111097134D01*
X109586519Y-111097134D02*
X109634138Y-110906658D01*
X109634138Y-110906658D02*
X109634138Y-110668563D01*
X109634138Y-110668563D02*
X109586519Y-110478087D01*
X109586519Y-110478087D02*
X109538900Y-110382849D01*
X109538900Y-110382849D02*
X109491281Y-110335230D01*
X109491281Y-110335230D02*
X109396043Y-110287611D01*
X108634138Y-111287611D02*
X108634138Y-110620944D01*
X108634138Y-110716182D02*
X108586519Y-110668563D01*
X108586519Y-110668563D02*
X108491281Y-110620944D01*
X108491281Y-110620944D02*
X108348424Y-110620944D01*
X108348424Y-110620944D02*
X108253186Y-110668563D01*
X108253186Y-110668563D02*
X108205567Y-110763801D01*
X108205567Y-110763801D02*
X108205567Y-111287611D01*
X108205567Y-110763801D02*
X108157948Y-110668563D01*
X108157948Y-110668563D02*
X108062710Y-110620944D01*
X108062710Y-110620944D02*
X107919853Y-110620944D01*
X107919853Y-110620944D02*
X107824614Y-110668563D01*
X107824614Y-110668563D02*
X107776995Y-110763801D01*
X107776995Y-110763801D02*
X107776995Y-111287611D01*
X107348424Y-111001896D02*
X106872234Y-111001896D01*
X107443662Y-111287611D02*
X107110329Y-110287611D01*
X107110329Y-110287611D02*
X106776996Y-111287611D01*
X121253183Y-112278507D02*
X120015088Y-112278507D01*
X120443660Y-112897555D02*
X120062707Y-112897555D01*
X120634136Y-111754697D02*
X120634136Y-112278507D01*
X120443660Y-112278507D02*
X120443660Y-112897555D01*
X120015088Y-112707078D02*
X120062707Y-112897555D01*
X121062707Y-111849936D02*
X120919850Y-112135650D01*
X120205564Y-111802316D02*
X120348422Y-112135650D01*
X120824612Y-112278507D02*
X120919850Y-112659459D01*
X120919850Y-112659459D02*
X121062707Y-112802316D01*
X121062707Y-112802316D02*
X121253183Y-112897555D01*
X119205565Y-112088031D02*
X118634136Y-112088031D01*
X119729374Y-112183269D02*
X119396041Y-112183269D01*
X119253184Y-112564221D02*
X118634136Y-112564221D01*
X119015089Y-112849936D02*
X118586517Y-112849936D01*
X119157946Y-112849936D02*
X118776993Y-112849936D01*
X119300803Y-112849936D02*
X118872232Y-112849936D01*
X119681755Y-112897555D02*
X119443660Y-112897555D01*
X119776993Y-111849936D02*
X119396041Y-111849936D01*
X119396041Y-111849936D02*
X119396041Y-112135650D01*
X119253184Y-112278507D02*
X119253184Y-112564221D01*
X119205565Y-111849936D02*
X119205565Y-112088031D01*
X118919851Y-112088031D02*
X118919851Y-112849936D01*
X119205565Y-111849936D02*
X118634136Y-111849936D01*
X118634136Y-111849936D02*
X118634136Y-112088031D01*
X119253184Y-112278507D02*
X118634136Y-112278507D01*
X118634136Y-112278507D02*
X118634136Y-112564221D01*
X118729374Y-112659459D02*
X118538898Y-112849936D01*
X119729374Y-112135650D02*
X119776993Y-112421364D01*
X119776993Y-112421364D02*
X119396041Y-112421364D01*
X119396041Y-112421364D02*
X119443660Y-112897555D01*
X116967470Y-111897555D02*
X117157946Y-111897555D01*
X117157946Y-111897555D02*
X117253184Y-111945174D01*
X117253184Y-111945174D02*
X117300803Y-111992793D01*
X117300803Y-111992793D02*
X117396041Y-112135650D01*
X117396041Y-112135650D02*
X117443660Y-112326126D01*
X117443660Y-112326126D02*
X117443660Y-112707078D01*
X117443660Y-112707078D02*
X117396041Y-112802316D01*
X117396041Y-112802316D02*
X117348422Y-112849936D01*
X117348422Y-112849936D02*
X117253184Y-112897555D01*
X117253184Y-112897555D02*
X117062708Y-112897555D01*
X117062708Y-112897555D02*
X116967470Y-112849936D01*
X116967470Y-112849936D02*
X116919851Y-112802316D01*
X116919851Y-112802316D02*
X116872232Y-112707078D01*
X116872232Y-112707078D02*
X116872232Y-112468983D01*
X116872232Y-112468983D02*
X116919851Y-112373745D01*
X116919851Y-112373745D02*
X116967470Y-112326126D01*
X116967470Y-112326126D02*
X117062708Y-112278507D01*
X117062708Y-112278507D02*
X117253184Y-112278507D01*
X117253184Y-112278507D02*
X117348422Y-112326126D01*
X117348422Y-112326126D02*
X117396041Y-112373745D01*
X117396041Y-112373745D02*
X117443660Y-112468983D01*
X116253184Y-111897555D02*
X116157946Y-111897555D01*
X116157946Y-111897555D02*
X116062708Y-111945174D01*
X116062708Y-111945174D02*
X116015089Y-111992793D01*
X116015089Y-111992793D02*
X115967470Y-112088031D01*
X115967470Y-112088031D02*
X115919851Y-112278507D01*
X115919851Y-112278507D02*
X115919851Y-112516602D01*
X115919851Y-112516602D02*
X115967470Y-112707078D01*
X115967470Y-112707078D02*
X116015089Y-112802316D01*
X116015089Y-112802316D02*
X116062708Y-112849936D01*
X116062708Y-112849936D02*
X116157946Y-112897555D01*
X116157946Y-112897555D02*
X116253184Y-112897555D01*
X116253184Y-112897555D02*
X116348422Y-112849936D01*
X116348422Y-112849936D02*
X116396041Y-112802316D01*
X116396041Y-112802316D02*
X116443660Y-112707078D01*
X116443660Y-112707078D02*
X116491279Y-112516602D01*
X116491279Y-112516602D02*
X116491279Y-112278507D01*
X116491279Y-112278507D02*
X116443660Y-112088031D01*
X116443660Y-112088031D02*
X116396041Y-111992793D01*
X116396041Y-111992793D02*
X116348422Y-111945174D01*
X116348422Y-111945174D02*
X116253184Y-111897555D01*
X115491279Y-112897555D02*
X115491279Y-112230888D01*
X115491279Y-112326126D02*
X115443660Y-112278507D01*
X115443660Y-112278507D02*
X115348422Y-112230888D01*
X115348422Y-112230888D02*
X115205565Y-112230888D01*
X115205565Y-112230888D02*
X115110327Y-112278507D01*
X115110327Y-112278507D02*
X115062708Y-112373745D01*
X115062708Y-112373745D02*
X115062708Y-112897555D01*
X115062708Y-112373745D02*
X115015089Y-112278507D01*
X115015089Y-112278507D02*
X114919851Y-112230888D01*
X114919851Y-112230888D02*
X114776994Y-112230888D01*
X114776994Y-112230888D02*
X114681755Y-112278507D01*
X114681755Y-112278507D02*
X114634136Y-112373745D01*
X114634136Y-112373745D02*
X114634136Y-112897555D01*
X113729375Y-112849936D02*
X113824613Y-112897555D01*
X113824613Y-112897555D02*
X114015089Y-112897555D01*
X114015089Y-112897555D02*
X114110327Y-112849936D01*
X114110327Y-112849936D02*
X114157946Y-112802316D01*
X114157946Y-112802316D02*
X114205565Y-112707078D01*
X114205565Y-112707078D02*
X114205565Y-112421364D01*
X114205565Y-112421364D02*
X114157946Y-112326126D01*
X114157946Y-112326126D02*
X114110327Y-112278507D01*
X114110327Y-112278507D02*
X114015089Y-112230888D01*
X114015089Y-112230888D02*
X113824613Y-112230888D01*
X113824613Y-112230888D02*
X113729375Y-112278507D01*
X112872232Y-112897555D02*
X112872232Y-111897555D01*
X112872232Y-112849936D02*
X112967470Y-112897555D01*
X112967470Y-112897555D02*
X113157946Y-112897555D01*
X113157946Y-112897555D02*
X113253184Y-112849936D01*
X113253184Y-112849936D02*
X113300803Y-112802316D01*
X113300803Y-112802316D02*
X113348422Y-112707078D01*
X113348422Y-112707078D02*
X113348422Y-112421364D01*
X113348422Y-112421364D02*
X113300803Y-112326126D01*
X113300803Y-112326126D02*
X113253184Y-112278507D01*
X113253184Y-112278507D02*
X113157946Y-112230888D01*
X113157946Y-112230888D02*
X112967470Y-112230888D01*
X112967470Y-112230888D02*
X112872232Y-112278507D01*
X121205564Y-113650356D02*
X120110326Y-113650356D01*
X121110326Y-114078927D02*
X120157945Y-114078927D01*
X121253183Y-114507499D02*
X120015088Y-114507499D01*
X120634136Y-113650356D02*
X120634136Y-114507499D01*
X120729374Y-113412260D02*
X120538898Y-113602737D01*
X118967470Y-113364641D02*
X118967470Y-113888451D01*
X119681755Y-113412260D02*
X119491279Y-113507499D01*
X119776993Y-113745594D02*
X119538898Y-113840832D01*
X119205565Y-113888451D02*
X119110327Y-114174165D01*
X119110327Y-114174165D02*
X118919851Y-114364641D01*
X118919851Y-114364641D02*
X118538898Y-114507499D01*
X119348422Y-113602737D02*
X118586517Y-113602737D01*
X118586517Y-113602737D02*
X118681755Y-113793213D01*
X119538898Y-114078927D02*
X119729374Y-114507499D01*
X119348422Y-113888451D02*
X118681755Y-113888451D01*
X118681755Y-113888451D02*
X118776993Y-114174165D01*
X118776993Y-114174165D02*
X119015089Y-114364641D01*
X119015089Y-114364641D02*
X119348422Y-114507499D01*
X119348422Y-113602737D02*
X119348422Y-114031308D01*
X119348422Y-114031308D02*
X119396041Y-114364641D01*
X118300803Y-113888451D02*
X117062708Y-113888451D01*
X118015089Y-113364641D02*
X118015089Y-114507499D01*
X117681756Y-113888451D02*
X117586518Y-114126546D01*
X117586518Y-114126546D02*
X117348422Y-114364641D01*
X117348422Y-114364641D02*
X117062708Y-114459880D01*
X117300803Y-113412260D02*
X117491280Y-113602737D01*
X117491280Y-113602737D02*
X117824613Y-113745594D01*
X117634137Y-114412260D02*
X118062708Y-114459880D01*
X116015089Y-113507499D02*
X115396042Y-113507499D01*
X115396042Y-113507499D02*
X115729375Y-113888451D01*
X115729375Y-113888451D02*
X115586518Y-113888451D01*
X115586518Y-113888451D02*
X115491280Y-113936070D01*
X115491280Y-113936070D02*
X115443661Y-113983689D01*
X115443661Y-113983689D02*
X115396042Y-114078927D01*
X115396042Y-114078927D02*
X115396042Y-114317022D01*
X115396042Y-114317022D02*
X115443661Y-114412260D01*
X115443661Y-114412260D02*
X115491280Y-114459880D01*
X115491280Y-114459880D02*
X115586518Y-114507499D01*
X115586518Y-114507499D02*
X115872232Y-114507499D01*
X115872232Y-114507499D02*
X115967470Y-114459880D01*
X115967470Y-114459880D02*
X116015089Y-114412260D01*
X115015089Y-113602737D02*
X114967470Y-113555118D01*
X114967470Y-113555118D02*
X114872232Y-113507499D01*
X114872232Y-113507499D02*
X114634137Y-113507499D01*
X114634137Y-113507499D02*
X114538899Y-113555118D01*
X114538899Y-113555118D02*
X114491280Y-113602737D01*
X114491280Y-113602737D02*
X114443661Y-113697975D01*
X114443661Y-113697975D02*
X114443661Y-113793213D01*
X114443661Y-113793213D02*
X114491280Y-113936070D01*
X114491280Y-113936070D02*
X115062708Y-114507499D01*
X115062708Y-114507499D02*
X114443661Y-114507499D01*
X113824613Y-113507499D02*
X113729375Y-113507499D01*
X113729375Y-113507499D02*
X113634137Y-113555118D01*
X113634137Y-113555118D02*
X113586518Y-113602737D01*
X113586518Y-113602737D02*
X113538899Y-113697975D01*
X113538899Y-113697975D02*
X113491280Y-113888451D01*
X113491280Y-113888451D02*
X113491280Y-114126546D01*
X113491280Y-114126546D02*
X113538899Y-114317022D01*
X113538899Y-114317022D02*
X113586518Y-114412260D01*
X113586518Y-114412260D02*
X113634137Y-114459880D01*
X113634137Y-114459880D02*
X113729375Y-114507499D01*
X113729375Y-114507499D02*
X113824613Y-114507499D01*
X113824613Y-114507499D02*
X113919851Y-114459880D01*
X113919851Y-114459880D02*
X113967470Y-114412260D01*
X113967470Y-114412260D02*
X114015089Y-114317022D01*
X114015089Y-114317022D02*
X114062708Y-114126546D01*
X114062708Y-114126546D02*
X114062708Y-113888451D01*
X114062708Y-113888451D02*
X114015089Y-113697975D01*
X114015089Y-113697975D02*
X113967470Y-113602737D01*
X113967470Y-113602737D02*
X113919851Y-113555118D01*
X113919851Y-113555118D02*
X113824613Y-113507499D01*
X112872232Y-113507499D02*
X112776994Y-113507499D01*
X112776994Y-113507499D02*
X112681756Y-113555118D01*
X112681756Y-113555118D02*
X112634137Y-113602737D01*
X112634137Y-113602737D02*
X112586518Y-113697975D01*
X112586518Y-113697975D02*
X112538899Y-113888451D01*
X112538899Y-113888451D02*
X112538899Y-114126546D01*
X112538899Y-114126546D02*
X112586518Y-114317022D01*
X112586518Y-114317022D02*
X112634137Y-114412260D01*
X112634137Y-114412260D02*
X112681756Y-114459880D01*
X112681756Y-114459880D02*
X112776994Y-114507499D01*
X112776994Y-114507499D02*
X112872232Y-114507499D01*
X112872232Y-114507499D02*
X112967470Y-114459880D01*
X112967470Y-114459880D02*
X113015089Y-114412260D01*
X113015089Y-114412260D02*
X113062708Y-114317022D01*
X113062708Y-114317022D02*
X113110327Y-114126546D01*
X113110327Y-114126546D02*
X113110327Y-113888451D01*
X113110327Y-113888451D02*
X113062708Y-113697975D01*
X113062708Y-113697975D02*
X113015089Y-113602737D01*
X113015089Y-113602737D02*
X112967470Y-113555118D01*
X112967470Y-113555118D02*
X112872232Y-113507499D01*
X112110327Y-113840832D02*
X112110327Y-114507499D01*
X112110327Y-113936070D02*
X112062708Y-113888451D01*
X112062708Y-113888451D02*
X111967470Y-113840832D01*
X111967470Y-113840832D02*
X111824613Y-113840832D01*
X111824613Y-113840832D02*
X111729375Y-113888451D01*
X111729375Y-113888451D02*
X111681756Y-113983689D01*
X111681756Y-113983689D02*
X111681756Y-114507499D01*
X111205565Y-114507499D02*
X111205565Y-113840832D01*
X111205565Y-113936070D02*
X111157946Y-113888451D01*
X111157946Y-113888451D02*
X111062708Y-113840832D01*
X111062708Y-113840832D02*
X110919851Y-113840832D01*
X110919851Y-113840832D02*
X110824613Y-113888451D01*
X110824613Y-113888451D02*
X110776994Y-113983689D01*
X110776994Y-113983689D02*
X110776994Y-114507499D01*
X110776994Y-113983689D02*
X110729375Y-113888451D01*
X110729375Y-113888451D02*
X110634137Y-113840832D01*
X110634137Y-113840832D02*
X110491280Y-113840832D01*
X110491280Y-113840832D02*
X110396041Y-113888451D01*
X110396041Y-113888451D02*
X110348422Y-113983689D01*
X110348422Y-113983689D02*
X110348422Y-114507499D01*
X121205564Y-115117443D02*
X120062707Y-115117443D01*
X120586517Y-115593633D02*
X120110326Y-115593633D01*
X121253183Y-116117443D02*
X120015088Y-116117443D01*
X121015088Y-115450776D02*
X121015088Y-116117443D01*
X120586517Y-115117443D02*
X120586517Y-116117443D01*
X119443660Y-115831728D02*
X118872232Y-115831728D01*
X118872232Y-116117443D02*
X118538898Y-116117443D01*
X119776993Y-115212681D02*
X119776993Y-116117443D01*
X119443660Y-115498395D02*
X119443660Y-115926966D01*
X119443660Y-115498395D02*
X118872232Y-115498395D01*
X118872232Y-115498395D02*
X118872232Y-115831728D01*
X119776993Y-115212681D02*
X118538898Y-115212681D01*
X118538898Y-115212681D02*
X118538898Y-116117443D01*
X119253184Y-114974585D02*
X119348422Y-115212681D01*
X118300803Y-115498395D02*
X117205565Y-115498395D01*
X118300803Y-115784109D02*
X117205565Y-115784109D01*
X117729375Y-116117443D02*
X117110327Y-116117443D01*
X118300803Y-115165062D02*
X118300803Y-115879347D01*
X117729375Y-114974585D02*
X117729375Y-116117443D01*
X118300803Y-115165062D02*
X117205565Y-115165062D01*
X117205565Y-115165062D02*
X117205565Y-115784109D01*
X117062708Y-115879347D02*
X117110327Y-116117443D01*
X116729375Y-115069824D02*
X115586518Y-115069824D01*
X116538899Y-115498395D02*
X115681756Y-115498395D01*
X116634137Y-116069824D02*
X115586518Y-116069824D01*
X116110328Y-115212681D02*
X116110328Y-116069824D01*
X115872232Y-115688871D02*
X115729375Y-115879347D01*
X116729375Y-115069824D02*
X116729375Y-115688871D01*
X116729375Y-115688871D02*
X116776994Y-116117443D01*
X114538899Y-115117443D02*
X113919852Y-115117443D01*
X113919852Y-115117443D02*
X114253185Y-115498395D01*
X114253185Y-115498395D02*
X114110328Y-115498395D01*
X114110328Y-115498395D02*
X114015090Y-115546014D01*
X114015090Y-115546014D02*
X113967471Y-115593633D01*
X113967471Y-115593633D02*
X113919852Y-115688871D01*
X113919852Y-115688871D02*
X113919852Y-115926966D01*
X113919852Y-115926966D02*
X113967471Y-116022204D01*
X113967471Y-116022204D02*
X114015090Y-116069824D01*
X114015090Y-116069824D02*
X114110328Y-116117443D01*
X114110328Y-116117443D02*
X114396042Y-116117443D01*
X114396042Y-116117443D02*
X114491280Y-116069824D01*
X114491280Y-116069824D02*
X114538899Y-116022204D01*
X113491280Y-116022204D02*
X113443661Y-116069824D01*
X113443661Y-116069824D02*
X113491280Y-116117443D01*
X113491280Y-116117443D02*
X113538899Y-116069824D01*
X113538899Y-116069824D02*
X113491280Y-116022204D01*
X113491280Y-116022204D02*
X113491280Y-116117443D01*
X113062709Y-115212681D02*
X113015090Y-115165062D01*
X113015090Y-115165062D02*
X112919852Y-115117443D01*
X112919852Y-115117443D02*
X112681757Y-115117443D01*
X112681757Y-115117443D02*
X112586519Y-115165062D01*
X112586519Y-115165062D02*
X112538900Y-115212681D01*
X112538900Y-115212681D02*
X112491281Y-115307919D01*
X112491281Y-115307919D02*
X112491281Y-115403157D01*
X112491281Y-115403157D02*
X112538900Y-115546014D01*
X112538900Y-115546014D02*
X113110328Y-116117443D01*
X113110328Y-116117443D02*
X112491281Y-116117443D01*
X112205566Y-115117443D02*
X111872233Y-116117443D01*
X111872233Y-116117443D02*
X111538900Y-115117443D01*
X111205566Y-115736490D02*
X110443662Y-115736490D01*
X110062709Y-115117443D02*
X109443662Y-115117443D01*
X109443662Y-115117443D02*
X109776995Y-115498395D01*
X109776995Y-115498395D02*
X109634138Y-115498395D01*
X109634138Y-115498395D02*
X109538900Y-115546014D01*
X109538900Y-115546014D02*
X109491281Y-115593633D01*
X109491281Y-115593633D02*
X109443662Y-115688871D01*
X109443662Y-115688871D02*
X109443662Y-115926966D01*
X109443662Y-115926966D02*
X109491281Y-116022204D01*
X109491281Y-116022204D02*
X109538900Y-116069824D01*
X109538900Y-116069824D02*
X109634138Y-116117443D01*
X109634138Y-116117443D02*
X109919852Y-116117443D01*
X109919852Y-116117443D02*
X110015090Y-116069824D01*
X110015090Y-116069824D02*
X110062709Y-116022204D01*
X109015090Y-116022204D02*
X108967471Y-116069824D01*
X108967471Y-116069824D02*
X109015090Y-116117443D01*
X109015090Y-116117443D02*
X109062709Y-116069824D01*
X109062709Y-116069824D02*
X109015090Y-116022204D01*
X109015090Y-116022204D02*
X109015090Y-116117443D01*
X108110329Y-115450776D02*
X108110329Y-116117443D01*
X108348424Y-115069824D02*
X108586519Y-115784109D01*
X108586519Y-115784109D02*
X107967472Y-115784109D01*
X107729376Y-115117443D02*
X107396043Y-116117443D01*
X107396043Y-116117443D02*
X107062710Y-115117443D01*
X120634136Y-116727387D02*
X121110326Y-116727387D01*
X121110326Y-116727387D02*
X121157945Y-117203577D01*
X121157945Y-117203577D02*
X121110326Y-117155958D01*
X121110326Y-117155958D02*
X121015088Y-117108339D01*
X121015088Y-117108339D02*
X120776993Y-117108339D01*
X120776993Y-117108339D02*
X120681755Y-117155958D01*
X120681755Y-117155958D02*
X120634136Y-117203577D01*
X120634136Y-117203577D02*
X120586517Y-117298815D01*
X120586517Y-117298815D02*
X120586517Y-117536910D01*
X120586517Y-117536910D02*
X120634136Y-117632148D01*
X120634136Y-117632148D02*
X120681755Y-117679768D01*
X120681755Y-117679768D02*
X120776993Y-117727387D01*
X120776993Y-117727387D02*
X121015088Y-117727387D01*
X121015088Y-117727387D02*
X121110326Y-117679768D01*
X121110326Y-117679768D02*
X121157945Y-117632148D01*
X120253183Y-117060720D02*
X119157945Y-117060720D01*
X120300802Y-117489291D02*
X119062707Y-117489291D01*
X120300802Y-117203577D02*
X120300802Y-117584529D01*
X120253183Y-116775006D02*
X120253183Y-117013101D01*
X119681755Y-116584529D02*
X119681755Y-117727387D01*
X120253183Y-116775006D02*
X119157945Y-116775006D01*
X119157945Y-116775006D02*
X119157945Y-117013101D01*
X120300802Y-117203577D02*
X119062707Y-117203577D01*
X119062707Y-117203577D02*
X119062707Y-117536910D01*
X118253184Y-116727387D02*
X118443660Y-116727387D01*
X118443660Y-116727387D02*
X118538898Y-116775006D01*
X118538898Y-116775006D02*
X118586517Y-116822625D01*
X118586517Y-116822625D02*
X118681755Y-116965482D01*
X118681755Y-116965482D02*
X118729374Y-117155958D01*
X118729374Y-117155958D02*
X118729374Y-117536910D01*
X118729374Y-117536910D02*
X118681755Y-117632148D01*
X118681755Y-117632148D02*
X118634136Y-117679768D01*
X118634136Y-117679768D02*
X118538898Y-117727387D01*
X118538898Y-117727387D02*
X118348422Y-117727387D01*
X118348422Y-117727387D02*
X118253184Y-117679768D01*
X118253184Y-117679768D02*
X118205565Y-117632148D01*
X118205565Y-117632148D02*
X118157946Y-117536910D01*
X118157946Y-117536910D02*
X118157946Y-117298815D01*
X118157946Y-117298815D02*
X118205565Y-117203577D01*
X118205565Y-117203577D02*
X118253184Y-117155958D01*
X118253184Y-117155958D02*
X118348422Y-117108339D01*
X118348422Y-117108339D02*
X118538898Y-117108339D01*
X118538898Y-117108339D02*
X118634136Y-117155958D01*
X118634136Y-117155958D02*
X118681755Y-117203577D01*
X118681755Y-117203577D02*
X118729374Y-117298815D01*
X117824612Y-116870244D02*
X116681755Y-116870244D01*
X117872231Y-117251196D02*
X116634136Y-117251196D01*
X116967470Y-116870244D02*
X116967470Y-117727387D01*
X117538898Y-116632148D02*
X117491279Y-116822625D01*
X117586517Y-117489291D02*
X117776993Y-117727387D01*
X116967470Y-116632148D02*
X117015089Y-116775006D01*
X117538898Y-116870244D02*
X117538898Y-117251196D01*
X117538898Y-117251196D02*
X117586517Y-117536910D01*
X115967470Y-116917863D02*
X115157946Y-116917863D01*
X116015089Y-117346434D02*
X115157946Y-117346434D01*
X116157946Y-116822625D02*
X116157946Y-117727387D01*
X115776994Y-116632148D02*
X115776994Y-117298815D01*
X115396041Y-116632148D02*
X115396041Y-117298815D01*
X115443660Y-117489291D02*
X115157946Y-117727387D01*
X115776994Y-117489291D02*
X116015089Y-117727387D01*
X116062708Y-116632148D02*
X116205565Y-116917863D01*
X116205565Y-116917863D02*
X116396041Y-117108339D01*
X114919851Y-117108339D02*
X113824613Y-117108339D01*
X114919851Y-117394053D02*
X113824613Y-117394053D01*
X114348423Y-117727387D02*
X113729375Y-117727387D01*
X114919851Y-116775006D02*
X114919851Y-117489291D01*
X114348423Y-116584529D02*
X114348423Y-117727387D01*
X114919851Y-116775006D02*
X113824613Y-116775006D01*
X113824613Y-116775006D02*
X113824613Y-117394053D01*
X113681756Y-117489291D02*
X113729375Y-117727387D01*
X113443661Y-117108339D02*
X112348423Y-117108339D01*
X113443661Y-117394053D02*
X112348423Y-117394053D01*
X112872233Y-117727387D02*
X112253185Y-117727387D01*
X113443661Y-116775006D02*
X113443661Y-117489291D01*
X112872233Y-116584529D02*
X112872233Y-117727387D01*
X113443661Y-116775006D02*
X112348423Y-116775006D01*
X112348423Y-116775006D02*
X112348423Y-117394053D01*
X112205566Y-117489291D02*
X112253185Y-117727387D01*
X111872233Y-116679768D02*
X110729376Y-116679768D01*
X111681757Y-117108339D02*
X110824614Y-117108339D01*
X111776995Y-117679768D02*
X110729376Y-117679768D01*
X111253186Y-116822625D02*
X111253186Y-117679768D01*
X111015090Y-117298815D02*
X110872233Y-117489291D01*
X111872233Y-116679768D02*
X111872233Y-117298815D01*
X111872233Y-117298815D02*
X111919852Y-117727387D01*
X109824615Y-117727387D02*
X110396043Y-117727387D01*
X110110329Y-117727387D02*
X110110329Y-116727387D01*
X110110329Y-116727387D02*
X110205567Y-116870244D01*
X110205567Y-116870244D02*
X110300805Y-116965482D01*
X110300805Y-116965482D02*
X110396043Y-117013101D01*
X108967472Y-116727387D02*
X109157948Y-116727387D01*
X109157948Y-116727387D02*
X109253186Y-116775006D01*
X109253186Y-116775006D02*
X109300805Y-116822625D01*
X109300805Y-116822625D02*
X109396043Y-116965482D01*
X109396043Y-116965482D02*
X109443662Y-117155958D01*
X109443662Y-117155958D02*
X109443662Y-117536910D01*
X109443662Y-117536910D02*
X109396043Y-117632148D01*
X109396043Y-117632148D02*
X109348424Y-117679768D01*
X109348424Y-117679768D02*
X109253186Y-117727387D01*
X109253186Y-117727387D02*
X109062710Y-117727387D01*
X109062710Y-117727387D02*
X108967472Y-117679768D01*
X108967472Y-117679768D02*
X108919853Y-117632148D01*
X108919853Y-117632148D02*
X108872234Y-117536910D01*
X108872234Y-117536910D02*
X108872234Y-117298815D01*
X108872234Y-117298815D02*
X108919853Y-117203577D01*
X108919853Y-117203577D02*
X108967472Y-117155958D01*
X108967472Y-117155958D02*
X109062710Y-117108339D01*
X109062710Y-117108339D02*
X109253186Y-117108339D01*
X109253186Y-117108339D02*
X109348424Y-117155958D01*
X109348424Y-117155958D02*
X109396043Y-117203577D01*
X109396043Y-117203577D02*
X109443662Y-117298815D01*
X108586519Y-116727387D02*
X108253186Y-117727387D01*
X108253186Y-117727387D02*
X107919853Y-116727387D01*
X107586519Y-117346434D02*
X106824615Y-117346434D01*
X105824615Y-117727387D02*
X106396043Y-117727387D01*
X106110329Y-117727387D02*
X106110329Y-116727387D01*
X106110329Y-116727387D02*
X106205567Y-116870244D01*
X106205567Y-116870244D02*
X106300805Y-116965482D01*
X106300805Y-116965482D02*
X106396043Y-117013101D01*
X105491281Y-116727387D02*
X104824615Y-116727387D01*
X104824615Y-116727387D02*
X105253186Y-117727387D01*
X104586519Y-116727387D02*
X104253186Y-117727387D01*
X104253186Y-117727387D02*
X103919853Y-116727387D01*
X121205564Y-118384950D02*
X120062707Y-118384950D01*
X121253183Y-119337331D02*
X120015088Y-119337331D01*
X120634136Y-118384950D02*
X120634136Y-119337331D01*
X119205565Y-118480188D02*
X118538898Y-118480188D01*
X119015089Y-118718283D02*
X118538898Y-118718283D01*
X119015089Y-119003997D02*
X118538898Y-119003997D01*
X119538898Y-118432569D02*
X119538898Y-119337331D01*
X119015089Y-118432569D02*
X119015089Y-119337331D01*
X119443660Y-118242092D02*
X119586517Y-118527807D01*
X119586517Y-118527807D02*
X119776993Y-118718283D01*
X119110327Y-118242092D02*
X119253184Y-118575426D01*
X119253184Y-118575426D02*
X119396041Y-118718283D01*
X118300803Y-118718283D02*
X117205565Y-118718283D01*
X118300803Y-119003997D02*
X117205565Y-119003997D01*
X117729375Y-119337331D02*
X117110327Y-119337331D01*
X118300803Y-118384950D02*
X118300803Y-119099235D01*
X117729375Y-118194473D02*
X117729375Y-119337331D01*
X118300803Y-118384950D02*
X117205565Y-118384950D01*
X117205565Y-118384950D02*
X117205565Y-119003997D01*
X117062708Y-119099235D02*
X117110327Y-119337331D01*
X116443661Y-118384950D02*
X115586518Y-118384950D01*
X116396042Y-118718283D02*
X115681756Y-118718283D01*
X115776994Y-119337331D02*
X115586518Y-119337331D01*
X116062709Y-118813521D02*
X116062709Y-119289712D01*
X115729375Y-118813521D02*
X115729375Y-119337331D01*
X115586518Y-119146854D02*
X115586518Y-119337331D01*
X115872232Y-118527807D02*
X115634137Y-118765902D01*
X116729375Y-118242092D02*
X116538899Y-118337331D01*
X116824613Y-118575426D02*
X116586518Y-118670664D01*
X116586518Y-118908759D02*
X116776994Y-119337331D01*
X116062709Y-118194473D02*
X116110328Y-118384950D01*
X116110328Y-118384950D02*
X116253185Y-118670664D01*
X116300804Y-118861140D02*
X116396042Y-119242092D01*
X116396042Y-119242092D02*
X116491280Y-119337331D01*
X114396042Y-119337331D02*
X114205566Y-119337331D01*
X114205566Y-119337331D02*
X114110328Y-119289712D01*
X114110328Y-119289712D02*
X114062709Y-119242092D01*
X114062709Y-119242092D02*
X113967471Y-119099235D01*
X113967471Y-119099235D02*
X113919852Y-118908759D01*
X113919852Y-118908759D02*
X113919852Y-118527807D01*
X113919852Y-118527807D02*
X113967471Y-118432569D01*
X113967471Y-118432569D02*
X114015090Y-118384950D01*
X114015090Y-118384950D02*
X114110328Y-118337331D01*
X114110328Y-118337331D02*
X114300804Y-118337331D01*
X114300804Y-118337331D02*
X114396042Y-118384950D01*
X114396042Y-118384950D02*
X114443661Y-118432569D01*
X114443661Y-118432569D02*
X114491280Y-118527807D01*
X114491280Y-118527807D02*
X114491280Y-118765902D01*
X114491280Y-118765902D02*
X114443661Y-118861140D01*
X114443661Y-118861140D02*
X114396042Y-118908759D01*
X114396042Y-118908759D02*
X114300804Y-118956378D01*
X114300804Y-118956378D02*
X114110328Y-118956378D01*
X114110328Y-118956378D02*
X114015090Y-118908759D01*
X114015090Y-118908759D02*
X113967471Y-118861140D01*
X113967471Y-118861140D02*
X113919852Y-118765902D01*
X113300804Y-118337331D02*
X113205566Y-118337331D01*
X113205566Y-118337331D02*
X113110328Y-118384950D01*
X113110328Y-118384950D02*
X113062709Y-118432569D01*
X113062709Y-118432569D02*
X113015090Y-118527807D01*
X113015090Y-118527807D02*
X112967471Y-118718283D01*
X112967471Y-118718283D02*
X112967471Y-118956378D01*
X112967471Y-118956378D02*
X113015090Y-119146854D01*
X113015090Y-119146854D02*
X113062709Y-119242092D01*
X113062709Y-119242092D02*
X113110328Y-119289712D01*
X113110328Y-119289712D02*
X113205566Y-119337331D01*
X113205566Y-119337331D02*
X113300804Y-119337331D01*
X113300804Y-119337331D02*
X113396042Y-119289712D01*
X113396042Y-119289712D02*
X113443661Y-119242092D01*
X113443661Y-119242092D02*
X113491280Y-119146854D01*
X113491280Y-119146854D02*
X113538899Y-118956378D01*
X113538899Y-118956378D02*
X113538899Y-118718283D01*
X113538899Y-118718283D02*
X113491280Y-118527807D01*
X113491280Y-118527807D02*
X113443661Y-118432569D01*
X113443661Y-118432569D02*
X113396042Y-118384950D01*
X113396042Y-118384950D02*
X113300804Y-118337331D01*
X112348423Y-118337331D02*
X112253185Y-118337331D01*
X112253185Y-118337331D02*
X112157947Y-118384950D01*
X112157947Y-118384950D02*
X112110328Y-118432569D01*
X112110328Y-118432569D02*
X112062709Y-118527807D01*
X112062709Y-118527807D02*
X112015090Y-118718283D01*
X112015090Y-118718283D02*
X112015090Y-118956378D01*
X112015090Y-118956378D02*
X112062709Y-119146854D01*
X112062709Y-119146854D02*
X112110328Y-119242092D01*
X112110328Y-119242092D02*
X112157947Y-119289712D01*
X112157947Y-119289712D02*
X112253185Y-119337331D01*
X112253185Y-119337331D02*
X112348423Y-119337331D01*
X112348423Y-119337331D02*
X112443661Y-119289712D01*
X112443661Y-119289712D02*
X112491280Y-119242092D01*
X112491280Y-119242092D02*
X112538899Y-119146854D01*
X112538899Y-119146854D02*
X112586518Y-118956378D01*
X112586518Y-118956378D02*
X112586518Y-118718283D01*
X112586518Y-118718283D02*
X112538899Y-118527807D01*
X112538899Y-118527807D02*
X112491280Y-118432569D01*
X112491280Y-118432569D02*
X112443661Y-118384950D01*
X112443661Y-118384950D02*
X112348423Y-118337331D01*
X111586518Y-119337331D02*
X111586518Y-118670664D01*
X111586518Y-118765902D02*
X111538899Y-118718283D01*
X111538899Y-118718283D02*
X111443661Y-118670664D01*
X111443661Y-118670664D02*
X111300804Y-118670664D01*
X111300804Y-118670664D02*
X111205566Y-118718283D01*
X111205566Y-118718283D02*
X111157947Y-118813521D01*
X111157947Y-118813521D02*
X111157947Y-119337331D01*
X111157947Y-118813521D02*
X111110328Y-118718283D01*
X111110328Y-118718283D02*
X111015090Y-118670664D01*
X111015090Y-118670664D02*
X110872233Y-118670664D01*
X110872233Y-118670664D02*
X110776994Y-118718283D01*
X110776994Y-118718283D02*
X110729375Y-118813521D01*
X110729375Y-118813521D02*
X110729375Y-119337331D01*
X110300804Y-119051616D02*
X109824614Y-119051616D01*
X110396042Y-119337331D02*
X110062709Y-118337331D01*
X110062709Y-118337331D02*
X109729376Y-119337331D01*
X121253183Y-119994894D02*
X120776993Y-119994894D01*
X120396041Y-120947275D02*
X120110326Y-120947275D01*
X121015088Y-119994894D02*
X121015088Y-120613941D01*
X120729374Y-120566322D02*
X121253183Y-120661560D01*
X120729374Y-120137751D02*
X120015088Y-120137751D01*
X120015088Y-120137751D02*
X120015088Y-120518703D01*
X120015088Y-120518703D02*
X120110326Y-120947275D01*
X120443660Y-119852036D02*
X120443660Y-120280608D01*
X120443660Y-120280608D02*
X120491279Y-120518703D01*
X120491279Y-120518703D02*
X120586517Y-120756798D01*
X120586517Y-120756798D02*
X120824612Y-120947275D01*
X119729374Y-119994894D02*
X118586517Y-119994894D01*
X119443660Y-120471084D02*
X118919851Y-120471084D01*
X119776993Y-120661560D02*
X118538898Y-120661560D01*
X119157946Y-120518703D02*
X119157946Y-120947275D01*
X119396041Y-120185370D02*
X119205565Y-120280608D01*
X119062708Y-120328227D02*
X118872232Y-120518703D01*
X119157946Y-119804417D02*
X119205565Y-120042513D01*
X119205565Y-120042513D02*
X119348422Y-120185370D01*
X119015089Y-120137751D02*
X119348422Y-120471084D01*
X118872232Y-120375846D02*
X118538898Y-120518703D01*
X119681755Y-120137751D02*
X119491279Y-120185370D01*
X119443660Y-120375846D02*
X119776993Y-120471084D01*
X118634136Y-120090132D02*
X118872232Y-120185370D01*
X116872232Y-120947275D02*
X117443660Y-120947275D01*
X117157946Y-120947275D02*
X117157946Y-119947275D01*
X117157946Y-119947275D02*
X117253184Y-120090132D01*
X117253184Y-120090132D02*
X117348422Y-120185370D01*
X117348422Y-120185370D02*
X117443660Y-120232989D01*
X116015089Y-120280608D02*
X116015089Y-120947275D01*
X116253184Y-119899656D02*
X116491279Y-120613941D01*
X116491279Y-120613941D02*
X115872232Y-120613941D01*
X115491279Y-120852036D02*
X115443660Y-120899656D01*
X115443660Y-120899656D02*
X115491279Y-120947275D01*
X115491279Y-120947275D02*
X115538898Y-120899656D01*
X115538898Y-120899656D02*
X115491279Y-120852036D01*
X115491279Y-120852036D02*
X115491279Y-120947275D01*
X114872232Y-120375846D02*
X114967470Y-120328227D01*
X114967470Y-120328227D02*
X115015089Y-120280608D01*
X115015089Y-120280608D02*
X115062708Y-120185370D01*
X115062708Y-120185370D02*
X115062708Y-120137751D01*
X115062708Y-120137751D02*
X115015089Y-120042513D01*
X115015089Y-120042513D02*
X114967470Y-119994894D01*
X114967470Y-119994894D02*
X114872232Y-119947275D01*
X114872232Y-119947275D02*
X114681756Y-119947275D01*
X114681756Y-119947275D02*
X114586518Y-119994894D01*
X114586518Y-119994894D02*
X114538899Y-120042513D01*
X114538899Y-120042513D02*
X114491280Y-120137751D01*
X114491280Y-120137751D02*
X114491280Y-120185370D01*
X114491280Y-120185370D02*
X114538899Y-120280608D01*
X114538899Y-120280608D02*
X114586518Y-120328227D01*
X114586518Y-120328227D02*
X114681756Y-120375846D01*
X114681756Y-120375846D02*
X114872232Y-120375846D01*
X114872232Y-120375846D02*
X114967470Y-120423465D01*
X114967470Y-120423465D02*
X115015089Y-120471084D01*
X115015089Y-120471084D02*
X115062708Y-120566322D01*
X115062708Y-120566322D02*
X115062708Y-120756798D01*
X115062708Y-120756798D02*
X115015089Y-120852036D01*
X115015089Y-120852036D02*
X114967470Y-120899656D01*
X114967470Y-120899656D02*
X114872232Y-120947275D01*
X114872232Y-120947275D02*
X114681756Y-120947275D01*
X114681756Y-120947275D02*
X114586518Y-120899656D01*
X114586518Y-120899656D02*
X114538899Y-120852036D01*
X114538899Y-120852036D02*
X114491280Y-120756798D01*
X114491280Y-120756798D02*
X114491280Y-120566322D01*
X114491280Y-120566322D02*
X114538899Y-120471084D01*
X114538899Y-120471084D02*
X114586518Y-120423465D01*
X114586518Y-120423465D02*
X114681756Y-120375846D01*
X113586518Y-119947275D02*
X114062708Y-119947275D01*
X114062708Y-119947275D02*
X114110327Y-120423465D01*
X114110327Y-120423465D02*
X114062708Y-120375846D01*
X114062708Y-120375846D02*
X113967470Y-120328227D01*
X113967470Y-120328227D02*
X113729375Y-120328227D01*
X113729375Y-120328227D02*
X113634137Y-120375846D01*
X113634137Y-120375846D02*
X113586518Y-120423465D01*
X113586518Y-120423465D02*
X113538899Y-120518703D01*
X113538899Y-120518703D02*
X113538899Y-120756798D01*
X113538899Y-120756798D02*
X113586518Y-120852036D01*
X113586518Y-120852036D02*
X113634137Y-120899656D01*
X113634137Y-120899656D02*
X113729375Y-120947275D01*
X113729375Y-120947275D02*
X113967470Y-120947275D01*
X113967470Y-120947275D02*
X114062708Y-120899656D01*
X114062708Y-120899656D02*
X114110327Y-120852036D01*
X113205565Y-119947275D02*
X112967470Y-120947275D01*
X112967470Y-120947275D02*
X112776994Y-120232989D01*
X112776994Y-120232989D02*
X112586518Y-120947275D01*
X112586518Y-120947275D02*
X112348423Y-119947275D01*
X121253183Y-121509600D02*
X120015088Y-121509600D01*
X120348422Y-122557219D02*
X120110326Y-122557219D01*
X121205564Y-121795314D02*
X121205564Y-122557219D01*
X121205564Y-121795314D02*
X120062707Y-121795314D01*
X120062707Y-121795314D02*
X120062707Y-122557219D01*
X120824612Y-121509600D02*
X120824612Y-121985790D01*
X120824612Y-121985790D02*
X120729374Y-122128647D01*
X120300802Y-122128647D02*
X120205564Y-122319123D01*
X120443660Y-121509600D02*
X120443660Y-121985790D01*
X120443660Y-121985790D02*
X120253183Y-122176266D01*
X120872231Y-121938171D02*
X121015088Y-122319123D01*
X120491279Y-121985790D02*
X120634136Y-122319123D01*
X120824612Y-121842933D02*
X120967469Y-122223885D01*
X120824612Y-121700076D02*
X120872231Y-122128647D01*
X120443660Y-121700076D02*
X120491279Y-122128647D01*
X119776993Y-121604838D02*
X118538898Y-121604838D01*
X118967470Y-122366742D02*
X118729374Y-122366742D01*
X119396041Y-121414361D02*
X119396041Y-121747695D01*
X119300803Y-121890552D02*
X119300803Y-122557219D01*
X118919851Y-121414361D02*
X118919851Y-121747695D01*
X119729374Y-121890552D02*
X118681755Y-121890552D01*
X118681755Y-121890552D02*
X118681755Y-122366742D01*
X117634137Y-122557219D02*
X118205565Y-122557219D01*
X117919851Y-122557219D02*
X117919851Y-121557219D01*
X117919851Y-121557219D02*
X118015089Y-121700076D01*
X118015089Y-121700076D02*
X118110327Y-121795314D01*
X118110327Y-121795314D02*
X118205565Y-121842933D01*
X117062708Y-121985790D02*
X117157946Y-121938171D01*
X117157946Y-121938171D02*
X117205565Y-121890552D01*
X117205565Y-121890552D02*
X117253184Y-121795314D01*
X117253184Y-121795314D02*
X117253184Y-121747695D01*
X117253184Y-121747695D02*
X117205565Y-121652457D01*
X117205565Y-121652457D02*
X117157946Y-121604838D01*
X117157946Y-121604838D02*
X117062708Y-121557219D01*
X117062708Y-121557219D02*
X116872232Y-121557219D01*
X116872232Y-121557219D02*
X116776994Y-121604838D01*
X116776994Y-121604838D02*
X116729375Y-121652457D01*
X116729375Y-121652457D02*
X116681756Y-121747695D01*
X116681756Y-121747695D02*
X116681756Y-121795314D01*
X116681756Y-121795314D02*
X116729375Y-121890552D01*
X116729375Y-121890552D02*
X116776994Y-121938171D01*
X116776994Y-121938171D02*
X116872232Y-121985790D01*
X116872232Y-121985790D02*
X117062708Y-121985790D01*
X117062708Y-121985790D02*
X117157946Y-122033409D01*
X117157946Y-122033409D02*
X117205565Y-122081028D01*
X117205565Y-122081028D02*
X117253184Y-122176266D01*
X117253184Y-122176266D02*
X117253184Y-122366742D01*
X117253184Y-122366742D02*
X117205565Y-122461980D01*
X117205565Y-122461980D02*
X117157946Y-122509600D01*
X117157946Y-122509600D02*
X117062708Y-122557219D01*
X117062708Y-122557219D02*
X116872232Y-122557219D01*
X116872232Y-122557219D02*
X116776994Y-122509600D01*
X116776994Y-122509600D02*
X116729375Y-122461980D01*
X116729375Y-122461980D02*
X116681756Y-122366742D01*
X116681756Y-122366742D02*
X116681756Y-122176266D01*
X116681756Y-122176266D02*
X116729375Y-122081028D01*
X116729375Y-122081028D02*
X116776994Y-122033409D01*
X116776994Y-122033409D02*
X116872232Y-121985790D01*
X115824613Y-121557219D02*
X116015089Y-121557219D01*
X116015089Y-121557219D02*
X116110327Y-121604838D01*
X116110327Y-121604838D02*
X116157946Y-121652457D01*
X116157946Y-121652457D02*
X116253184Y-121795314D01*
X116253184Y-121795314D02*
X116300803Y-121985790D01*
X116300803Y-121985790D02*
X116300803Y-122366742D01*
X116300803Y-122366742D02*
X116253184Y-122461980D01*
X116253184Y-122461980D02*
X116205565Y-122509600D01*
X116205565Y-122509600D02*
X116110327Y-122557219D01*
X116110327Y-122557219D02*
X115919851Y-122557219D01*
X115919851Y-122557219D02*
X115824613Y-122509600D01*
X115824613Y-122509600D02*
X115776994Y-122461980D01*
X115776994Y-122461980D02*
X115729375Y-122366742D01*
X115729375Y-122366742D02*
X115729375Y-122128647D01*
X115729375Y-122128647D02*
X115776994Y-122033409D01*
X115776994Y-122033409D02*
X115824613Y-121985790D01*
X115824613Y-121985790D02*
X115919851Y-121938171D01*
X115919851Y-121938171D02*
X116110327Y-121938171D01*
X116110327Y-121938171D02*
X116205565Y-121985790D01*
X116205565Y-121985790D02*
X116253184Y-122033409D01*
X116253184Y-122033409D02*
X116300803Y-122128647D01*
X114824613Y-121557219D02*
X115300803Y-121557219D01*
X115300803Y-121557219D02*
X115348422Y-122033409D01*
X115348422Y-122033409D02*
X115300803Y-121985790D01*
X115300803Y-121985790D02*
X115205565Y-121938171D01*
X115205565Y-121938171D02*
X114967470Y-121938171D01*
X114967470Y-121938171D02*
X114872232Y-121985790D01*
X114872232Y-121985790D02*
X114824613Y-122033409D01*
X114824613Y-122033409D02*
X114776994Y-122128647D01*
X114776994Y-122128647D02*
X114776994Y-122366742D01*
X114776994Y-122366742D02*
X114824613Y-122461980D01*
X114824613Y-122461980D02*
X114872232Y-122509600D01*
X114872232Y-122509600D02*
X114967470Y-122557219D01*
X114967470Y-122557219D02*
X115205565Y-122557219D01*
X115205565Y-122557219D02*
X115300803Y-122509600D01*
X115300803Y-122509600D02*
X115348422Y-122461980D01*
X114157946Y-121557219D02*
X114062708Y-121557219D01*
X114062708Y-121557219D02*
X113967470Y-121604838D01*
X113967470Y-121604838D02*
X113919851Y-121652457D01*
X113919851Y-121652457D02*
X113872232Y-121747695D01*
X113872232Y-121747695D02*
X113824613Y-121938171D01*
X113824613Y-121938171D02*
X113824613Y-122176266D01*
X113824613Y-122176266D02*
X113872232Y-122366742D01*
X113872232Y-122366742D02*
X113919851Y-122461980D01*
X113919851Y-122461980D02*
X113967470Y-122509600D01*
X113967470Y-122509600D02*
X114062708Y-122557219D01*
X114062708Y-122557219D02*
X114157946Y-122557219D01*
X114157946Y-122557219D02*
X114253184Y-122509600D01*
X114253184Y-122509600D02*
X114300803Y-122461980D01*
X114300803Y-122461980D02*
X114348422Y-122366742D01*
X114348422Y-122366742D02*
X114396041Y-122176266D01*
X114396041Y-122176266D02*
X114396041Y-121938171D01*
X114396041Y-121938171D02*
X114348422Y-121747695D01*
X114348422Y-121747695D02*
X114300803Y-121652457D01*
X114300803Y-121652457D02*
X114253184Y-121604838D01*
X114253184Y-121604838D02*
X114157946Y-121557219D01*
X113443660Y-121652457D02*
X113062708Y-121652457D01*
X112919851Y-121747695D02*
X112348422Y-121747695D01*
X113443660Y-121842933D02*
X113110327Y-121842933D01*
X112919851Y-122033409D02*
X112348422Y-122033409D01*
X113538898Y-122081028D02*
X113062708Y-122081028D01*
X112919851Y-122271504D02*
X112348422Y-122271504D01*
X113015089Y-122557219D02*
X112300803Y-122557219D01*
X113300803Y-121842933D02*
X113300803Y-122557219D01*
X112919851Y-121461980D02*
X112919851Y-122033409D01*
X112634137Y-121461980D02*
X112634137Y-122557219D01*
X112919851Y-121461980D02*
X112348422Y-121461980D01*
X112348422Y-121461980D02*
X112348422Y-122033409D01*
X113348422Y-121414361D02*
X113491279Y-121700076D01*
X113062708Y-122414361D02*
X113348422Y-122557219D01*
X112062708Y-121938171D02*
X110967470Y-121938171D01*
X112062708Y-122223885D02*
X110967470Y-122223885D01*
X111491280Y-122557219D02*
X110872232Y-122557219D01*
X112062708Y-121604838D02*
X112062708Y-122319123D01*
X111491280Y-121414361D02*
X111491280Y-122557219D01*
X112062708Y-121604838D02*
X110967470Y-121604838D01*
X110967470Y-121604838D02*
X110967470Y-122223885D01*
X110824613Y-122319123D02*
X110872232Y-122557219D01*
X110062709Y-122557219D02*
X109396042Y-122557219D01*
X110062709Y-121557219D02*
X110062709Y-122557219D01*
X109776995Y-121414361D02*
X109776995Y-122319123D01*
X109396042Y-121700076D02*
X109396042Y-122223885D01*
X110491280Y-121461980D02*
X110253185Y-121557219D01*
X110586518Y-121795314D02*
X110348423Y-121890552D01*
X109348423Y-122366742D02*
X109396042Y-122557219D01*
X110300804Y-122128647D02*
X110443661Y-122461980D01*
X109443661Y-121700076D02*
X110253185Y-121938171D01*
X109443661Y-122271504D02*
X109634137Y-122271504D01*
X108681757Y-121747695D02*
X107872233Y-121747695D01*
X108729376Y-122176266D02*
X107872233Y-122176266D01*
X108872233Y-121652457D02*
X108872233Y-122557219D01*
X108491281Y-121461980D02*
X108491281Y-122128647D01*
X108110328Y-121461980D02*
X108110328Y-122128647D01*
X108157947Y-122319123D02*
X107872233Y-122557219D01*
X108491281Y-122319123D02*
X108729376Y-122557219D01*
X108776995Y-121461980D02*
X108919852Y-121747695D01*
X108919852Y-121747695D02*
X109110328Y-121938171D01*
X107634138Y-121938171D02*
X106538900Y-121938171D01*
X107634138Y-122223885D02*
X106538900Y-122223885D01*
X107062710Y-122557219D02*
X106443662Y-122557219D01*
X107634138Y-121604838D02*
X107634138Y-122319123D01*
X107062710Y-121414361D02*
X107062710Y-122557219D01*
X107634138Y-121604838D02*
X106538900Y-121604838D01*
X106538900Y-121604838D02*
X106538900Y-122223885D01*
X106396043Y-122319123D02*
X106443662Y-122557219D01*
X127776517Y-115644838D02*
X127871755Y-115597219D01*
X127871755Y-115597219D02*
X128014612Y-115597219D01*
X128014612Y-115597219D02*
X128157469Y-115644838D01*
X128157469Y-115644838D02*
X128252707Y-115740076D01*
X128252707Y-115740076D02*
X128300326Y-115835314D01*
X128300326Y-115835314D02*
X128347945Y-116025790D01*
X128347945Y-116025790D02*
X128347945Y-116168647D01*
X128347945Y-116168647D02*
X128300326Y-116359123D01*
X128300326Y-116359123D02*
X128252707Y-116454361D01*
X128252707Y-116454361D02*
X128157469Y-116549600D01*
X128157469Y-116549600D02*
X128014612Y-116597219D01*
X128014612Y-116597219D02*
X127919374Y-116597219D01*
X127919374Y-116597219D02*
X127776517Y-116549600D01*
X127776517Y-116549600D02*
X127728898Y-116501980D01*
X127728898Y-116501980D02*
X127728898Y-116168647D01*
X127728898Y-116168647D02*
X127919374Y-116168647D01*
X127300326Y-116597219D02*
X127300326Y-115597219D01*
X127300326Y-115597219D02*
X126728898Y-116597219D01*
X126728898Y-116597219D02*
X126728898Y-115597219D01*
X126252707Y-116597219D02*
X126252707Y-115597219D01*
X126252707Y-115597219D02*
X126014612Y-115597219D01*
X126014612Y-115597219D02*
X125871755Y-115644838D01*
X125871755Y-115644838D02*
X125776517Y-115740076D01*
X125776517Y-115740076D02*
X125728898Y-115835314D01*
X125728898Y-115835314D02*
X125681279Y-116025790D01*
X125681279Y-116025790D02*
X125681279Y-116168647D01*
X125681279Y-116168647D02*
X125728898Y-116359123D01*
X125728898Y-116359123D02*
X125776517Y-116454361D01*
X125776517Y-116454361D02*
X125871755Y-116549600D01*
X125871755Y-116549600D02*
X126014612Y-116597219D01*
X126014612Y-116597219D02*
X126252707Y-116597219D01*
X128443183Y-109707219D02*
X128109850Y-110707219D01*
X128109850Y-110707219D02*
X127776517Y-109707219D01*
X126966993Y-110707219D02*
X127443183Y-110707219D01*
X127443183Y-110707219D02*
X127443183Y-109707219D01*
X126633659Y-110183409D02*
X126300326Y-110183409D01*
X126157469Y-110707219D02*
X126633659Y-110707219D01*
X126633659Y-110707219D02*
X126633659Y-109707219D01*
X126633659Y-109707219D02*
X126157469Y-109707219D01*
X125728897Y-110707219D02*
X125728897Y-109707219D01*
X125728897Y-109707219D02*
X125490802Y-109707219D01*
X125490802Y-109707219D02*
X125347945Y-109754838D01*
X125347945Y-109754838D02*
X125252707Y-109850076D01*
X125252707Y-109850076D02*
X125205088Y-109945314D01*
X125205088Y-109945314D02*
X125157469Y-110135790D01*
X125157469Y-110135790D02*
X125157469Y-110278647D01*
X125157469Y-110278647D02*
X125205088Y-110469123D01*
X125205088Y-110469123D02*
X125252707Y-110564361D01*
X125252707Y-110564361D02*
X125347945Y-110659600D01*
X125347945Y-110659600D02*
X125490802Y-110707219D01*
X125490802Y-110707219D02*
X125728897Y-110707219D01*
X124205088Y-110707219D02*
X124776516Y-110707219D01*
X124490802Y-110707219D02*
X124490802Y-109707219D01*
X124490802Y-109707219D02*
X124586040Y-109850076D01*
X124586040Y-109850076D02*
X124681278Y-109945314D01*
X124681278Y-109945314D02*
X124776516Y-109992933D01*
X128443183Y-121557219D02*
X128109850Y-122557219D01*
X128109850Y-122557219D02*
X127776517Y-121557219D01*
X126966993Y-122557219D02*
X127443183Y-122557219D01*
X127443183Y-122557219D02*
X127443183Y-121557219D01*
X126633659Y-122033409D02*
X126300326Y-122033409D01*
X126157469Y-122557219D02*
X126633659Y-122557219D01*
X126633659Y-122557219D02*
X126633659Y-121557219D01*
X126633659Y-121557219D02*
X126157469Y-121557219D01*
X125728897Y-122557219D02*
X125728897Y-121557219D01*
X125728897Y-121557219D02*
X125490802Y-121557219D01*
X125490802Y-121557219D02*
X125347945Y-121604838D01*
X125347945Y-121604838D02*
X125252707Y-121700076D01*
X125252707Y-121700076D02*
X125205088Y-121795314D01*
X125205088Y-121795314D02*
X125157469Y-121985790D01*
X125157469Y-121985790D02*
X125157469Y-122128647D01*
X125157469Y-122128647D02*
X125205088Y-122319123D01*
X125205088Y-122319123D02*
X125252707Y-122414361D01*
X125252707Y-122414361D02*
X125347945Y-122509600D01*
X125347945Y-122509600D02*
X125490802Y-122557219D01*
X125490802Y-122557219D02*
X125728897Y-122557219D01*
X124776516Y-121652457D02*
X124728897Y-121604838D01*
X124728897Y-121604838D02*
X124633659Y-121557219D01*
X124633659Y-121557219D02*
X124395564Y-121557219D01*
X124395564Y-121557219D02*
X124300326Y-121604838D01*
X124300326Y-121604838D02*
X124252707Y-121652457D01*
X124252707Y-121652457D02*
X124205088Y-121747695D01*
X124205088Y-121747695D02*
X124205088Y-121842933D01*
X124205088Y-121842933D02*
X124252707Y-121985790D01*
X124252707Y-121985790D02*
X124824135Y-122557219D01*
X124824135Y-122557219D02*
X124205088Y-122557219D01*
M02*
