%TF.GenerationSoftware,KiCad,Pcbnew,8.0.5*%
%TF.CreationDate,2024-10-25T21:21:59+08:00*%
%TF.ProjectId,USB_HUB_SL2_1A,5553425f-4855-4425-9f53-4c325f31412e,rev?*%
%TF.SameCoordinates,Original*%
%TF.FileFunction,Copper,L2,Bot*%
%TF.FilePolarity,Positive*%
%FSLAX46Y46*%
G04 Gerber Fmt 4.6, Leading zero omitted, Abs format (unit mm)*
G04 Created by KiCad (PCBNEW 8.0.5) date 2024-10-25 21:21:59*
%MOMM*%
%LPD*%
G01*
G04 APERTURE LIST*
%TA.AperFunction,ComponentPad*%
%ADD10C,1.600000*%
%TD*%
%TA.AperFunction,ComponentPad*%
%ADD11C,6.000000*%
%TD*%
%TA.AperFunction,ComponentPad*%
%ADD12O,1.600000X1.600000*%
%TD*%
%TA.AperFunction,ComponentPad*%
%ADD13R,1.600000X1.500000*%
%TD*%
%TA.AperFunction,ComponentPad*%
%ADD14C,3.000000*%
%TD*%
%TA.AperFunction,ComponentPad*%
%ADD15C,1.500000*%
%TD*%
%TA.AperFunction,ComponentPad*%
%ADD16C,2.500000*%
%TD*%
%TA.AperFunction,ComponentPad*%
%ADD17O,1.000000X2.100000*%
%TD*%
%TA.AperFunction,ComponentPad*%
%ADD18O,1.000000X1.600000*%
%TD*%
%TA.AperFunction,ViaPad*%
%ADD19C,0.500000*%
%TD*%
%TA.AperFunction,Conductor*%
%ADD20C,0.180000*%
%TD*%
%TA.AperFunction,Conductor*%
%ADD21C,1.500000*%
%TD*%
G04 APERTURE END LIST*
D10*
%TO.P,C4,1*%
%TO.N,VBUS*%
X103000000Y-107940000D03*
%TO.P,C4,2*%
%TO.N,GND*%
X103000000Y-112940000D03*
%TD*%
%TO.P,C8,1*%
%TO.N,VBUS*%
X125428570Y-107940000D03*
%TO.P,C8,2*%
%TO.N,GND*%
X125428570Y-112940000D03*
%TD*%
D11*
%TO.P,H1,1,1*%
%TO.N,GND*%
X185000000Y-132000000D03*
%TD*%
D10*
%TO.P,C7,1*%
%TO.N,VBUS*%
X148000000Y-129500000D03*
%TO.P,C7,2*%
%TO.N,GND*%
X148000000Y-134500000D03*
%TD*%
%TO.P,C6,1*%
%TO.N,VBUS*%
X147857140Y-107940000D03*
%TO.P,C6,2*%
%TO.N,GND*%
X147857140Y-112940000D03*
%TD*%
D11*
%TO.P,H2,1,1*%
%TO.N,GND*%
X105000000Y-132000000D03*
%TD*%
D10*
%TO.P,R1,1*%
%TO.N,GND*%
X133000000Y-129955000D03*
D12*
%TO.P,R1,2*%
%TO.N,Net-(USB2-CC2)*%
X133000000Y-132495000D03*
%TD*%
D13*
%TO.P,USB1,1,VBUS*%
%TO.N,VBUS*%
X185000000Y-113560000D03*
D10*
%TO.P,USB1,2,D-*%
%TO.N,/USBA1_D-*%
X182500000Y-113560000D03*
%TO.P,USB1,3,D+*%
%TO.N,/USBA1_D+*%
X180500000Y-113560000D03*
%TO.P,USB1,4,GND*%
%TO.N,GND*%
X178000000Y-113560000D03*
D14*
%TO.P,USB1,5,Shield*%
X188070000Y-110850000D03*
X174930000Y-110850000D03*
%TD*%
D10*
%TO.P,C3,1*%
%TO.N,/VDD18*%
X158000000Y-129500000D03*
%TO.P,C3,2*%
%TO.N,GND*%
X158000000Y-134500000D03*
%TD*%
D13*
%TO.P,USB3,1,VBUS*%
%TO.N,VBUS*%
X162594761Y-113560000D03*
D10*
%TO.P,USB3,2,D-*%
%TO.N,/USBA2_D-*%
X160094761Y-113560000D03*
%TO.P,USB3,3,D+*%
%TO.N,/USBA2_D+*%
X158094761Y-113560000D03*
%TO.P,USB3,4,GND*%
%TO.N,GND*%
X155594761Y-113560000D03*
D14*
%TO.P,USB3,5,Shield*%
X165664761Y-110850000D03*
X152524761Y-110850000D03*
%TD*%
D10*
%TO.P,C2,1*%
%TO.N,/VDD33*%
X153000000Y-129500000D03*
%TO.P,C2,2*%
%TO.N,GND*%
X153000000Y-134500000D03*
%TD*%
D15*
%TO.P,X1,1,1*%
%TO.N,Net-(U1-XIN)*%
X160020000Y-121240000D03*
D16*
%TO.P,X1,2,2*%
%TO.N,GND*%
X157580000Y-121240000D03*
D15*
%TO.P,X1,3,3*%
%TO.N,Net-(U1-XOUT)*%
X155140000Y-121240000D03*
%TD*%
D13*
%TO.P,USB4,1,VBUS*%
%TO.N,VBUS*%
X140189523Y-113560000D03*
D10*
%TO.P,USB4,2,D-*%
%TO.N,/USBA3_D-*%
X137689523Y-113560000D03*
%TO.P,USB4,3,D+*%
%TO.N,/USBA3_D+*%
X135689523Y-113560000D03*
%TO.P,USB4,4,GND*%
%TO.N,GND*%
X133189523Y-113560000D03*
D14*
%TO.P,USB4,5,Shield*%
X143259523Y-110850000D03*
X130119523Y-110850000D03*
%TD*%
D10*
%TO.P,C1,1*%
%TO.N,VBUS*%
X170285710Y-107940000D03*
%TO.P,C1,2*%
%TO.N,GND*%
X170285710Y-112940000D03*
%TD*%
D13*
%TO.P,USB5,1,VBUS*%
%TO.N,VBUS*%
X117784285Y-113560000D03*
D10*
%TO.P,USB5,2,D-*%
%TO.N,/USBA4_D-*%
X115284285Y-113560000D03*
%TO.P,USB5,3,D+*%
%TO.N,/USBA4_D+*%
X113284285Y-113560000D03*
%TO.P,USB5,4,GND*%
%TO.N,GND*%
X110784285Y-113560000D03*
D14*
%TO.P,USB5,5,Shield*%
X120854285Y-110850000D03*
X107714285Y-110850000D03*
%TD*%
D10*
%TO.P,R2,1*%
%TO.N,GND*%
X130000000Y-129955000D03*
D12*
%TO.P,R2,2*%
%TO.N,Net-(USB2-CC1)*%
X130000000Y-132495000D03*
%TD*%
D17*
%TO.P,USB2,S1,SHIELD*%
%TO.N,GND*%
X135680000Y-129895000D03*
D18*
X135680000Y-134075000D03*
D17*
X144320000Y-129895000D03*
D18*
X144320000Y-134075000D03*
%TD*%
D19*
%TO.N,GND*%
X114250000Y-111728000D03*
X169030000Y-119160000D03*
%TO.N,Net-(USB2-CC1)*%
X138750000Y-127800000D03*
%TO.N,GND*%
X122860000Y-123080000D03*
X168580000Y-102540000D03*
X163980000Y-128100000D03*
X112700000Y-102540000D03*
X133020000Y-102540000D03*
X183820000Y-102540000D03*
X117780000Y-102540000D03*
X178740000Y-102540000D03*
X188250000Y-126140000D03*
X183170000Y-121060000D03*
X137060000Y-119990000D03*
X102540000Y-118000000D03*
X174500000Y-129570000D03*
X122860000Y-102540000D03*
X122860000Y-128160000D03*
X183170000Y-126140000D03*
X107620000Y-102540000D03*
X188250000Y-121060000D03*
X112700000Y-123080000D03*
X146680000Y-122350000D03*
X131980000Y-119990000D03*
X126900000Y-119990000D03*
X107620000Y-128160000D03*
X138100000Y-102540000D03*
X159780000Y-115640000D03*
X117780000Y-128160000D03*
X178740000Y-118800000D03*
X137060000Y-125070000D03*
X174500000Y-134650000D03*
X163950000Y-119160000D03*
X143630000Y-122350000D03*
X102540000Y-128160000D03*
X156770000Y-126130000D03*
X122860000Y-133240000D03*
X158420000Y-102540000D03*
X107620000Y-118000000D03*
X145800000Y-116570000D03*
X107620000Y-123080000D03*
X163500000Y-102540000D03*
X143180000Y-102540000D03*
X169060000Y-128100000D03*
X148260000Y-102540000D03*
X140130000Y-126530000D03*
X126900000Y-125070000D03*
X178190000Y-115500000D03*
X159770000Y-130110000D03*
X153340000Y-102540000D03*
X102540000Y-123080000D03*
X112700000Y-128160000D03*
X131980000Y-125070000D03*
X136270000Y-115870000D03*
X182620000Y-115310000D03*
X179580000Y-129570000D03*
X112700000Y-118000000D03*
X127940000Y-102540000D03*
X117780000Y-133240000D03*
X117780000Y-123080000D03*
X102540000Y-102540000D03*
X163950000Y-124240000D03*
X112700000Y-133240000D03*
X117210000Y-115290000D03*
X169030000Y-124240000D03*
X140280000Y-118410000D03*
X173660000Y-102540000D03*
X146770000Y-127760000D03*
X174110000Y-119160000D03*
X179580000Y-134650000D03*
%TO.N,Net-(USB2-CC2)*%
X142000000Y-127980000D03*
%TD*%
D20*
%TO.N,Net-(USB2-CC1)*%
X131245000Y-131250000D02*
X130000000Y-132495000D01*
X137750000Y-131250000D02*
X131245000Y-131250000D01*
X138750000Y-130250000D02*
X137750000Y-131250000D01*
X138750000Y-127800000D02*
X138750000Y-130250000D01*
D21*
%TO.N,GND*%
X156335795Y-111728000D02*
X159120000Y-111728000D01*
X120512285Y-111728000D02*
X120784285Y-112000000D01*
X133907225Y-111728000D02*
X136650000Y-111728000D01*
X159120000Y-111728000D02*
X165369425Y-111728000D01*
X178764370Y-111728000D02*
X181520000Y-111728000D01*
X187798000Y-111728000D02*
X188070000Y-112000000D01*
X178070000Y-113500000D02*
X178070000Y-112422370D01*
X133212855Y-112422370D02*
X133907225Y-111728000D01*
X155641425Y-113500000D02*
X155641425Y-112422370D01*
X110784285Y-113500000D02*
X110784285Y-112422370D01*
X111478655Y-111728000D02*
X114250000Y-111728000D01*
X181520000Y-111728000D02*
X187798000Y-111728000D01*
X110784285Y-112422370D02*
X111478655Y-111728000D01*
X133212855Y-113500000D02*
X133212855Y-112422370D01*
X165369425Y-111728000D02*
X165641425Y-112000000D01*
X136650000Y-111728000D02*
X142940855Y-111728000D01*
X114250000Y-111728000D02*
X120512285Y-111728000D01*
X142940855Y-111728000D02*
X143212855Y-112000000D01*
X178070000Y-112422370D02*
X178764370Y-111728000D01*
X155641425Y-112422370D02*
X156335795Y-111728000D01*
D20*
%TO.N,Net-(USB2-CC2)*%
X137910000Y-132070000D02*
X142000000Y-127980000D01*
X133000000Y-132495000D02*
X133425000Y-132070000D01*
X133425000Y-132070000D02*
X137910000Y-132070000D01*
%TD*%
%TA.AperFunction,Conductor*%
%TO.N,GND*%
G36*
X187003472Y-100200695D02*
G01*
X187306503Y-100217713D01*
X187320301Y-100219267D01*
X187616080Y-100269522D01*
X187629636Y-100272616D01*
X187917927Y-100355672D01*
X187931051Y-100360265D01*
X188208222Y-100475072D01*
X188220744Y-100481101D01*
X188423184Y-100592986D01*
X188483328Y-100626227D01*
X188495102Y-100633625D01*
X188739789Y-100807239D01*
X188750657Y-100815907D01*
X188974352Y-101015815D01*
X188984184Y-101025647D01*
X189184092Y-101249342D01*
X189192763Y-101260214D01*
X189366374Y-101504897D01*
X189373772Y-101516671D01*
X189518894Y-101779248D01*
X189524927Y-101791777D01*
X189639734Y-102068948D01*
X189644327Y-102082072D01*
X189727383Y-102370363D01*
X189730477Y-102383920D01*
X189780730Y-102679688D01*
X189782287Y-102693506D01*
X189799305Y-102996527D01*
X189799500Y-103003480D01*
X189799500Y-133996519D01*
X189799305Y-134003472D01*
X189782287Y-134306493D01*
X189780730Y-134320311D01*
X189730477Y-134616079D01*
X189727383Y-134629636D01*
X189644327Y-134917927D01*
X189639734Y-134931051D01*
X189524927Y-135208222D01*
X189518894Y-135220751D01*
X189373772Y-135483328D01*
X189366374Y-135495102D01*
X189192763Y-135739785D01*
X189184092Y-135750657D01*
X188984184Y-135974352D01*
X188974352Y-135984184D01*
X188750657Y-136184092D01*
X188739785Y-136192763D01*
X188495102Y-136366374D01*
X188483328Y-136373772D01*
X188220751Y-136518894D01*
X188208222Y-136524927D01*
X187931051Y-136639734D01*
X187917927Y-136644327D01*
X187629636Y-136727383D01*
X187616079Y-136730477D01*
X187320311Y-136780730D01*
X187306493Y-136782287D01*
X187003472Y-136799305D01*
X186996519Y-136799500D01*
X103003481Y-136799500D01*
X102996528Y-136799305D01*
X102693506Y-136782287D01*
X102679688Y-136780730D01*
X102383920Y-136730477D01*
X102370363Y-136727383D01*
X102082072Y-136644327D01*
X102068948Y-136639734D01*
X101791777Y-136524927D01*
X101779248Y-136518894D01*
X101516671Y-136373772D01*
X101504897Y-136366374D01*
X101260214Y-136192763D01*
X101249342Y-136184092D01*
X101025647Y-135984184D01*
X101015815Y-135974352D01*
X100815907Y-135750657D01*
X100807236Y-135739785D01*
X100633625Y-135495102D01*
X100626227Y-135483328D01*
X100481105Y-135220751D01*
X100475072Y-135208222D01*
X100360265Y-134931051D01*
X100355672Y-134917927D01*
X100272616Y-134629636D01*
X100269522Y-134616079D01*
X100250030Y-134501356D01*
X100219267Y-134320301D01*
X100217713Y-134306503D01*
X100200695Y-134003472D01*
X100200500Y-133996519D01*
X100200500Y-132494999D01*
X128794357Y-132494999D01*
X128794357Y-132495000D01*
X128814884Y-132716535D01*
X128814885Y-132716537D01*
X128875769Y-132930523D01*
X128875775Y-132930538D01*
X128974938Y-133129683D01*
X128974943Y-133129691D01*
X129109020Y-133307238D01*
X129273437Y-133457123D01*
X129273439Y-133457125D01*
X129462595Y-133574245D01*
X129462596Y-133574245D01*
X129462599Y-133574247D01*
X129670060Y-133654618D01*
X129888757Y-133695500D01*
X129888759Y-133695500D01*
X130111241Y-133695500D01*
X130111243Y-133695500D01*
X130329940Y-133654618D01*
X130537401Y-133574247D01*
X130726562Y-133457124D01*
X130890981Y-133307236D01*
X131025058Y-133129689D01*
X131124229Y-132930528D01*
X131185115Y-132716536D01*
X131205643Y-132495000D01*
X131185115Y-132273464D01*
X131145271Y-132133426D01*
X131145857Y-132063563D01*
X131176852Y-132011818D01*
X131411854Y-131776816D01*
X131473176Y-131743334D01*
X131499534Y-131740500D01*
X131834333Y-131740500D01*
X131901372Y-131760185D01*
X131947127Y-131812989D01*
X131957071Y-131882147D01*
X131945333Y-131919772D01*
X131875775Y-132059461D01*
X131875769Y-132059476D01*
X131814885Y-132273462D01*
X131814884Y-132273464D01*
X131794357Y-132494999D01*
X131794357Y-132495000D01*
X131814884Y-132716535D01*
X131814885Y-132716537D01*
X131875769Y-132930523D01*
X131875775Y-132930538D01*
X131974938Y-133129683D01*
X131974943Y-133129691D01*
X132109020Y-133307238D01*
X132273437Y-133457123D01*
X132273439Y-133457125D01*
X132462595Y-133574245D01*
X132462596Y-133574245D01*
X132462599Y-133574247D01*
X132670060Y-133654618D01*
X132888757Y-133695500D01*
X132888759Y-133695500D01*
X133111241Y-133695500D01*
X133111243Y-133695500D01*
X133329940Y-133654618D01*
X133537401Y-133574247D01*
X133726562Y-133457124D01*
X133890981Y-133307236D01*
X134025058Y-133129689D01*
X134124229Y-132930528D01*
X134185115Y-132716536D01*
X134189144Y-132673058D01*
X134214931Y-132608121D01*
X134271731Y-132567434D01*
X134312615Y-132560500D01*
X137974574Y-132560500D01*
X137974576Y-132560500D01*
X138099326Y-132527074D01*
X138211174Y-132462498D01*
X140347854Y-130325817D01*
X142364500Y-130325817D01*
X142364500Y-130464183D01*
X142370788Y-130487648D01*
X142400312Y-130597835D01*
X142400313Y-130597838D01*
X142469492Y-130717661D01*
X142469494Y-130717664D01*
X142469495Y-130717665D01*
X142567335Y-130815505D01*
X142687164Y-130884688D01*
X142820817Y-130920500D01*
X142820819Y-130920500D01*
X142959181Y-130920500D01*
X142959183Y-130920500D01*
X143092836Y-130884688D01*
X143212665Y-130815505D01*
X143310505Y-130717665D01*
X143379688Y-130597836D01*
X143415500Y-130464183D01*
X143415500Y-130325817D01*
X143379688Y-130192164D01*
X143345096Y-130132249D01*
X143310507Y-130072338D01*
X143310503Y-130072333D01*
X143212666Y-129974496D01*
X143212661Y-129974492D01*
X143092838Y-129905313D01*
X143092837Y-129905312D01*
X143092836Y-129905312D01*
X142959183Y-129869500D01*
X142820817Y-129869500D01*
X142687164Y-129905312D01*
X142687161Y-129905313D01*
X142567338Y-129974492D01*
X142567333Y-129974496D01*
X142469496Y-130072333D01*
X142469492Y-130072338D01*
X142400313Y-130192161D01*
X142400312Y-130192164D01*
X142364500Y-130325817D01*
X140347854Y-130325817D01*
X141173672Y-129499999D01*
X146794357Y-129499999D01*
X146794357Y-129500000D01*
X146814884Y-129721535D01*
X146814885Y-129721537D01*
X146875769Y-129935523D01*
X146875775Y-129935538D01*
X146974938Y-130134683D01*
X146974943Y-130134691D01*
X147109020Y-130312238D01*
X147273437Y-130462123D01*
X147273439Y-130462125D01*
X147462595Y-130579245D01*
X147462596Y-130579245D01*
X147462599Y-130579247D01*
X147670060Y-130659618D01*
X147888757Y-130700500D01*
X147888759Y-130700500D01*
X148111241Y-130700500D01*
X148111243Y-130700500D01*
X148329940Y-130659618D01*
X148537401Y-130579247D01*
X148726562Y-130462124D01*
X148890981Y-130312236D01*
X149025058Y-130134689D01*
X149124229Y-129935528D01*
X149185115Y-129721536D01*
X149205643Y-129500000D01*
X149205643Y-129499999D01*
X151794357Y-129499999D01*
X151794357Y-129500000D01*
X151814884Y-129721535D01*
X151814885Y-129721537D01*
X151875769Y-129935523D01*
X151875775Y-129935538D01*
X151974938Y-130134683D01*
X151974943Y-130134691D01*
X152109020Y-130312238D01*
X152273437Y-130462123D01*
X152273439Y-130462125D01*
X152462595Y-130579245D01*
X152462596Y-130579245D01*
X152462599Y-130579247D01*
X152670060Y-130659618D01*
X152888757Y-130700500D01*
X152888759Y-130700500D01*
X153111241Y-130700500D01*
X153111243Y-130700500D01*
X153329940Y-130659618D01*
X153537401Y-130579247D01*
X153726562Y-130462124D01*
X153890981Y-130312236D01*
X154025058Y-130134689D01*
X154124229Y-129935528D01*
X154185115Y-129721536D01*
X154205643Y-129500000D01*
X154205643Y-129499999D01*
X156794357Y-129499999D01*
X156794357Y-129500000D01*
X156814884Y-129721535D01*
X156814885Y-129721537D01*
X156875769Y-129935523D01*
X156875775Y-129935538D01*
X156974938Y-130134683D01*
X156974943Y-130134691D01*
X157109020Y-130312238D01*
X157273437Y-130462123D01*
X157273439Y-130462125D01*
X157462595Y-130579245D01*
X157462596Y-130579245D01*
X157462599Y-130579247D01*
X157670060Y-130659618D01*
X157888757Y-130700500D01*
X157888759Y-130700500D01*
X158111241Y-130700500D01*
X158111243Y-130700500D01*
X158329940Y-130659618D01*
X158537401Y-130579247D01*
X158726562Y-130462124D01*
X158890981Y-130312236D01*
X159025058Y-130134689D01*
X159124229Y-129935528D01*
X159185115Y-129721536D01*
X159205643Y-129500000D01*
X159185115Y-129278464D01*
X159124229Y-129064472D01*
X159124224Y-129064461D01*
X159025061Y-128865316D01*
X159025056Y-128865308D01*
X158890979Y-128687761D01*
X158726562Y-128537876D01*
X158726560Y-128537874D01*
X158537404Y-128420754D01*
X158537398Y-128420752D01*
X158329940Y-128340382D01*
X158111243Y-128299500D01*
X157888757Y-128299500D01*
X157670060Y-128340382D01*
X157538864Y-128391207D01*
X157462601Y-128420752D01*
X157462595Y-128420754D01*
X157273439Y-128537874D01*
X157273437Y-128537876D01*
X157109020Y-128687761D01*
X156974943Y-128865308D01*
X156974938Y-128865316D01*
X156875775Y-129064461D01*
X156875769Y-129064476D01*
X156814885Y-129278462D01*
X156814884Y-129278464D01*
X156794357Y-129499999D01*
X154205643Y-129499999D01*
X154185115Y-129278464D01*
X154124229Y-129064472D01*
X154124224Y-129064461D01*
X154025061Y-128865316D01*
X154025056Y-128865308D01*
X153890979Y-128687761D01*
X153726562Y-128537876D01*
X153726560Y-128537874D01*
X153537404Y-128420754D01*
X153537398Y-128420752D01*
X153329940Y-128340382D01*
X153111243Y-128299500D01*
X152888757Y-128299500D01*
X152670060Y-128340382D01*
X152538864Y-128391207D01*
X152462601Y-128420752D01*
X152462595Y-128420754D01*
X152273439Y-128537874D01*
X152273437Y-128537876D01*
X152109020Y-128687761D01*
X151974943Y-128865308D01*
X151974938Y-128865316D01*
X151875775Y-129064461D01*
X151875769Y-129064476D01*
X151814885Y-129278462D01*
X151814884Y-129278464D01*
X151794357Y-129499999D01*
X149205643Y-129499999D01*
X149185115Y-129278464D01*
X149124229Y-129064472D01*
X149124224Y-129064461D01*
X149025061Y-128865316D01*
X149025056Y-128865308D01*
X148890979Y-128687761D01*
X148726562Y-128537876D01*
X148726560Y-128537874D01*
X148537404Y-128420754D01*
X148537398Y-128420752D01*
X148329940Y-128340382D01*
X148111243Y-128299500D01*
X147888757Y-128299500D01*
X147670060Y-128340382D01*
X147538864Y-128391207D01*
X147462601Y-128420752D01*
X147462595Y-128420754D01*
X147273439Y-128537874D01*
X147273437Y-128537876D01*
X147109020Y-128687761D01*
X146974943Y-128865308D01*
X146974938Y-128865316D01*
X146875775Y-129064461D01*
X146875769Y-129064476D01*
X146814885Y-129278462D01*
X146814884Y-129278464D01*
X146794357Y-129499999D01*
X141173672Y-129499999D01*
X142007967Y-128665704D01*
X142069288Y-128632221D01*
X142077929Y-128630760D01*
X142078984Y-128630500D01*
X142078985Y-128630500D01*
X142232365Y-128592696D01*
X142372240Y-128519283D01*
X142490483Y-128414530D01*
X142580220Y-128284523D01*
X142636237Y-128136818D01*
X142655278Y-127980000D01*
X142636237Y-127823182D01*
X142636235Y-127823178D01*
X142614992Y-127767164D01*
X142580220Y-127675477D01*
X142490483Y-127545470D01*
X142372240Y-127440717D01*
X142372238Y-127440716D01*
X142372237Y-127440715D01*
X142232365Y-127367303D01*
X142078986Y-127329500D01*
X142078985Y-127329500D01*
X141921015Y-127329500D01*
X141921014Y-127329500D01*
X141767634Y-127367303D01*
X141627762Y-127440715D01*
X141509516Y-127545471D01*
X141419781Y-127675475D01*
X141419780Y-127675476D01*
X141363763Y-127823178D01*
X141363762Y-127823183D01*
X141355185Y-127893823D01*
X141327563Y-127958000D01*
X141319770Y-127966556D01*
X139452181Y-129834146D01*
X139390858Y-129867631D01*
X139321166Y-129862647D01*
X139265233Y-129820775D01*
X139240816Y-129755311D01*
X139240500Y-129746465D01*
X139240500Y-128273144D01*
X139260185Y-128206105D01*
X139262432Y-128202729D01*
X139330220Y-128104523D01*
X139386237Y-127956818D01*
X139405278Y-127800000D01*
X139386237Y-127643182D01*
X139330220Y-127495477D01*
X139240483Y-127365470D01*
X139122240Y-127260717D01*
X139122238Y-127260716D01*
X139122237Y-127260715D01*
X138982365Y-127187303D01*
X138828986Y-127149500D01*
X138828985Y-127149500D01*
X138671015Y-127149500D01*
X138671014Y-127149500D01*
X138517634Y-127187303D01*
X138377762Y-127260715D01*
X138259516Y-127365471D01*
X138169781Y-127495475D01*
X138169780Y-127495476D01*
X138113762Y-127643181D01*
X138094722Y-127799999D01*
X138094722Y-127800000D01*
X138113762Y-127956818D01*
X138169780Y-128104523D01*
X138169780Y-128104524D01*
X138205433Y-128156175D01*
X138237550Y-128202705D01*
X138259433Y-128269058D01*
X138259500Y-128273144D01*
X138259500Y-129995466D01*
X138239815Y-130062505D01*
X138223181Y-130083147D01*
X137847181Y-130459147D01*
X137785858Y-130492632D01*
X137716166Y-130487648D01*
X137660233Y-130445776D01*
X137635816Y-130380312D01*
X137635500Y-130371466D01*
X137635500Y-130325819D01*
X137635500Y-130325817D01*
X137599688Y-130192164D01*
X137565096Y-130132249D01*
X137530507Y-130072338D01*
X137530503Y-130072333D01*
X137432666Y-129974496D01*
X137432661Y-129974492D01*
X137312838Y-129905313D01*
X137312837Y-129905312D01*
X137312836Y-129905312D01*
X137179183Y-129869500D01*
X137040817Y-129869500D01*
X136907164Y-129905312D01*
X136907161Y-129905313D01*
X136787338Y-129974492D01*
X136787333Y-129974496D01*
X136689496Y-130072333D01*
X136689492Y-130072338D01*
X136620313Y-130192161D01*
X136620312Y-130192164D01*
X136584500Y-130325817D01*
X136584500Y-130464183D01*
X136592123Y-130492632D01*
X136621805Y-130603407D01*
X136620142Y-130673257D01*
X136580979Y-130731119D01*
X136516751Y-130758623D01*
X136502030Y-130759500D01*
X131180424Y-130759500D01*
X131055672Y-130792926D01*
X130943826Y-130857502D01*
X130943823Y-130857504D01*
X130485102Y-131316225D01*
X130423779Y-131349710D01*
X130354087Y-131344726D01*
X130352627Y-131344171D01*
X130329940Y-131335382D01*
X130111243Y-131294500D01*
X129888757Y-131294500D01*
X129670060Y-131335382D01*
X129572033Y-131373358D01*
X129462601Y-131415752D01*
X129462595Y-131415754D01*
X129273439Y-131532874D01*
X129273437Y-131532876D01*
X129109020Y-131682761D01*
X128974943Y-131860308D01*
X128974938Y-131860316D01*
X128875775Y-132059461D01*
X128875769Y-132059476D01*
X128814885Y-132273462D01*
X128814884Y-132273464D01*
X128794357Y-132494999D01*
X100200500Y-132494999D01*
X100200500Y-121239999D01*
X153984571Y-121239999D01*
X153984571Y-121240000D01*
X154004244Y-121452310D01*
X154062596Y-121657392D01*
X154062596Y-121657394D01*
X154157632Y-121848253D01*
X154157634Y-121848255D01*
X154286128Y-122018407D01*
X154443698Y-122162052D01*
X154624981Y-122274298D01*
X154823802Y-122351321D01*
X155033390Y-122390500D01*
X155033392Y-122390500D01*
X155246608Y-122390500D01*
X155246610Y-122390500D01*
X155456198Y-122351321D01*
X155655019Y-122274298D01*
X155836302Y-122162052D01*
X155993872Y-122018407D01*
X156122366Y-121848255D01*
X156217405Y-121657389D01*
X156275756Y-121452310D01*
X156295429Y-121240000D01*
X156295429Y-121239999D01*
X158864571Y-121239999D01*
X158864571Y-121240000D01*
X158884244Y-121452310D01*
X158942596Y-121657392D01*
X158942596Y-121657394D01*
X159037632Y-121848253D01*
X159037634Y-121848255D01*
X159166128Y-122018407D01*
X159323698Y-122162052D01*
X159504981Y-122274298D01*
X159703802Y-122351321D01*
X159913390Y-122390500D01*
X159913392Y-122390500D01*
X160126608Y-122390500D01*
X160126610Y-122390500D01*
X160336198Y-122351321D01*
X160535019Y-122274298D01*
X160716302Y-122162052D01*
X160873872Y-122018407D01*
X161002366Y-121848255D01*
X161097405Y-121657389D01*
X161155756Y-121452310D01*
X161175429Y-121240000D01*
X161155756Y-121027690D01*
X161097405Y-120822611D01*
X161097403Y-120822606D01*
X161097403Y-120822605D01*
X161002367Y-120631746D01*
X160873872Y-120461593D01*
X160716302Y-120317948D01*
X160535019Y-120205702D01*
X160535017Y-120205701D01*
X160435608Y-120167190D01*
X160336198Y-120128679D01*
X160126610Y-120089500D01*
X159913390Y-120089500D01*
X159703802Y-120128679D01*
X159703799Y-120128679D01*
X159703799Y-120128680D01*
X159504982Y-120205701D01*
X159504980Y-120205702D01*
X159323699Y-120317947D01*
X159166127Y-120461593D01*
X159037632Y-120631746D01*
X158942596Y-120822605D01*
X158942596Y-120822607D01*
X158884244Y-121027689D01*
X158864571Y-121239999D01*
X156295429Y-121239999D01*
X156275756Y-121027690D01*
X156217405Y-120822611D01*
X156217403Y-120822606D01*
X156217403Y-120822605D01*
X156122367Y-120631746D01*
X155993872Y-120461593D01*
X155836302Y-120317948D01*
X155655019Y-120205702D01*
X155655017Y-120205701D01*
X155555608Y-120167190D01*
X155456198Y-120128679D01*
X155246610Y-120089500D01*
X155033390Y-120089500D01*
X154823802Y-120128679D01*
X154823799Y-120128679D01*
X154823799Y-120128680D01*
X154624982Y-120205701D01*
X154624980Y-120205702D01*
X154443699Y-120317947D01*
X154286127Y-120461593D01*
X154157632Y-120631746D01*
X154062596Y-120822605D01*
X154062596Y-120822607D01*
X154004244Y-121027689D01*
X153984571Y-121239999D01*
X100200500Y-121239999D01*
X100200500Y-113559999D01*
X112078642Y-113559999D01*
X112078642Y-113560000D01*
X112099169Y-113781535D01*
X112099170Y-113781537D01*
X112160054Y-113995523D01*
X112160060Y-113995538D01*
X112259223Y-114194683D01*
X112259228Y-114194691D01*
X112393305Y-114372238D01*
X112557722Y-114522123D01*
X112557724Y-114522125D01*
X112746880Y-114639245D01*
X112746881Y-114639245D01*
X112746884Y-114639247D01*
X112954345Y-114719618D01*
X113173042Y-114760500D01*
X113173044Y-114760500D01*
X113395526Y-114760500D01*
X113395528Y-114760500D01*
X113614225Y-114719618D01*
X113821686Y-114639247D01*
X114010847Y-114522124D01*
X114175266Y-114372236D01*
X114185331Y-114358906D01*
X114241438Y-114317271D01*
X114311150Y-114312578D01*
X114372332Y-114346319D01*
X114383233Y-114358900D01*
X114393304Y-114372236D01*
X114393307Y-114372239D01*
X114393310Y-114372242D01*
X114557722Y-114522123D01*
X114557724Y-114522125D01*
X114746880Y-114639245D01*
X114746881Y-114639245D01*
X114746884Y-114639247D01*
X114954345Y-114719618D01*
X115173042Y-114760500D01*
X115173044Y-114760500D01*
X115395526Y-114760500D01*
X115395528Y-114760500D01*
X115614225Y-114719618D01*
X115821686Y-114639247D01*
X116010847Y-114522124D01*
X116150567Y-114394751D01*
X116175264Y-114372238D01*
X116175267Y-114372235D01*
X116309343Y-114194689D01*
X116348786Y-114115476D01*
X116396287Y-114064242D01*
X116463950Y-114046820D01*
X116530290Y-114068745D01*
X116574246Y-114123056D01*
X116583785Y-114170749D01*
X116583785Y-114341517D01*
X116594577Y-114409657D01*
X116598639Y-114435304D01*
X116656235Y-114548342D01*
X116656237Y-114548344D01*
X116656239Y-114548347D01*
X116745937Y-114638045D01*
X116745939Y-114638046D01*
X116745943Y-114638050D01*
X116858979Y-114695645D01*
X116858983Y-114695647D01*
X116952760Y-114710499D01*
X116952766Y-114710500D01*
X118615803Y-114710499D01*
X118709589Y-114695646D01*
X118822627Y-114638050D01*
X118912335Y-114548342D01*
X118969931Y-114435304D01*
X118969931Y-114435302D01*
X118969932Y-114435301D01*
X118984784Y-114341524D01*
X118984785Y-114341519D01*
X118984784Y-113559999D01*
X134483880Y-113559999D01*
X134483880Y-113560000D01*
X134504407Y-113781535D01*
X134504408Y-113781537D01*
X134565292Y-113995523D01*
X134565298Y-113995538D01*
X134664461Y-114194683D01*
X134664466Y-114194691D01*
X134798543Y-114372238D01*
X134962960Y-114522123D01*
X134962962Y-114522125D01*
X135152118Y-114639245D01*
X135152119Y-114639245D01*
X135152122Y-114639247D01*
X135359583Y-114719618D01*
X135578280Y-114760500D01*
X135578282Y-114760500D01*
X135800764Y-114760500D01*
X135800766Y-114760500D01*
X136019463Y-114719618D01*
X136226924Y-114639247D01*
X136416085Y-114522124D01*
X136580504Y-114372236D01*
X136590569Y-114358906D01*
X136646676Y-114317271D01*
X136716388Y-114312578D01*
X136777570Y-114346319D01*
X136788471Y-114358900D01*
X136798542Y-114372236D01*
X136798545Y-114372239D01*
X136798548Y-114372242D01*
X136962960Y-114522123D01*
X136962962Y-114522125D01*
X137152118Y-114639245D01*
X137152119Y-114639245D01*
X137152122Y-114639247D01*
X137359583Y-114719618D01*
X137578280Y-114760500D01*
X137578282Y-114760500D01*
X137800764Y-114760500D01*
X137800766Y-114760500D01*
X138019463Y-114719618D01*
X138226924Y-114639247D01*
X138416085Y-114522124D01*
X138555805Y-114394751D01*
X138580502Y-114372238D01*
X138580505Y-114372235D01*
X138714581Y-114194689D01*
X138754024Y-114115476D01*
X138801525Y-114064242D01*
X138869188Y-114046820D01*
X138935528Y-114068745D01*
X138979484Y-114123056D01*
X138989023Y-114170749D01*
X138989023Y-114341517D01*
X138999815Y-114409657D01*
X139003877Y-114435304D01*
X139061473Y-114548342D01*
X139061475Y-114548344D01*
X139061477Y-114548347D01*
X139151175Y-114638045D01*
X139151177Y-114638046D01*
X139151181Y-114638050D01*
X139264217Y-114695645D01*
X139264221Y-114695647D01*
X139357998Y-114710499D01*
X139358004Y-114710500D01*
X141021041Y-114710499D01*
X141114827Y-114695646D01*
X141227865Y-114638050D01*
X141317573Y-114548342D01*
X141375169Y-114435304D01*
X141375169Y-114435302D01*
X141375170Y-114435301D01*
X141390022Y-114341524D01*
X141390023Y-114341519D01*
X141390022Y-113559999D01*
X156889118Y-113559999D01*
X156889118Y-113560000D01*
X156909645Y-113781535D01*
X156909646Y-113781537D01*
X156970530Y-113995523D01*
X156970536Y-113995538D01*
X157069699Y-114194683D01*
X157069704Y-114194691D01*
X157203781Y-114372238D01*
X157368198Y-114522123D01*
X157368200Y-114522125D01*
X157557356Y-114639245D01*
X157557357Y-114639245D01*
X157557360Y-114639247D01*
X157764821Y-114719618D01*
X157983518Y-114760500D01*
X157983520Y-114760500D01*
X158206002Y-114760500D01*
X158206004Y-114760500D01*
X158424701Y-114719618D01*
X158632162Y-114639247D01*
X158821323Y-114522124D01*
X158985742Y-114372236D01*
X158995807Y-114358906D01*
X159051914Y-114317271D01*
X159121626Y-114312578D01*
X159182808Y-114346319D01*
X159193709Y-114358900D01*
X159203780Y-114372236D01*
X159203783Y-114372239D01*
X159203786Y-114372242D01*
X159368198Y-114522123D01*
X159368200Y-114522125D01*
X159557356Y-114639245D01*
X159557357Y-114639245D01*
X159557360Y-114639247D01*
X159764821Y-114719618D01*
X159983518Y-114760500D01*
X159983520Y-114760500D01*
X160206002Y-114760500D01*
X160206004Y-114760500D01*
X160424701Y-114719618D01*
X160632162Y-114639247D01*
X160821323Y-114522124D01*
X160961043Y-114394751D01*
X160985740Y-114372238D01*
X160985743Y-114372235D01*
X161119819Y-114194689D01*
X161159262Y-114115476D01*
X161206763Y-114064242D01*
X161274426Y-114046820D01*
X161340766Y-114068745D01*
X161384722Y-114123056D01*
X161394261Y-114170749D01*
X161394261Y-114341517D01*
X161405053Y-114409657D01*
X161409115Y-114435304D01*
X161466711Y-114548342D01*
X161466713Y-114548344D01*
X161466715Y-114548347D01*
X161556413Y-114638045D01*
X161556415Y-114638046D01*
X161556419Y-114638050D01*
X161669455Y-114695645D01*
X161669459Y-114695647D01*
X161763236Y-114710499D01*
X161763242Y-114710500D01*
X163426279Y-114710499D01*
X163520065Y-114695646D01*
X163633103Y-114638050D01*
X163722811Y-114548342D01*
X163780407Y-114435304D01*
X163780407Y-114435302D01*
X163780408Y-114435301D01*
X163795260Y-114341524D01*
X163795261Y-114341519D01*
X163795260Y-113559999D01*
X179294357Y-113559999D01*
X179294357Y-113560000D01*
X179314884Y-113781535D01*
X179314885Y-113781537D01*
X179375769Y-113995523D01*
X179375775Y-113995538D01*
X179474938Y-114194683D01*
X179474943Y-114194691D01*
X179609020Y-114372238D01*
X179773437Y-114522123D01*
X179773439Y-114522125D01*
X179962595Y-114639245D01*
X179962596Y-114639245D01*
X179962599Y-114639247D01*
X180170060Y-114719618D01*
X180388757Y-114760500D01*
X180388759Y-114760500D01*
X180611241Y-114760500D01*
X180611243Y-114760500D01*
X180829940Y-114719618D01*
X181037401Y-114639247D01*
X181226562Y-114522124D01*
X181390981Y-114372236D01*
X181401046Y-114358906D01*
X181457153Y-114317271D01*
X181526865Y-114312578D01*
X181588047Y-114346319D01*
X181598948Y-114358900D01*
X181609019Y-114372236D01*
X181609022Y-114372239D01*
X181609025Y-114372242D01*
X181773437Y-114522123D01*
X181773439Y-114522125D01*
X181962595Y-114639245D01*
X181962596Y-114639245D01*
X181962599Y-114639247D01*
X182170060Y-114719618D01*
X182388757Y-114760500D01*
X182388759Y-114760500D01*
X182611241Y-114760500D01*
X182611243Y-114760500D01*
X182829940Y-114719618D01*
X183037401Y-114639247D01*
X183226562Y-114522124D01*
X183366282Y-114394751D01*
X183390979Y-114372238D01*
X183390982Y-114372235D01*
X183525058Y-114194689D01*
X183564501Y-114115476D01*
X183612002Y-114064242D01*
X183679665Y-114046820D01*
X183746005Y-114068745D01*
X183789961Y-114123056D01*
X183799500Y-114170749D01*
X183799500Y-114341517D01*
X183810292Y-114409657D01*
X183814354Y-114435304D01*
X183871950Y-114548342D01*
X183871952Y-114548344D01*
X183871954Y-114548347D01*
X183961652Y-114638045D01*
X183961654Y-114638046D01*
X183961658Y-114638050D01*
X184074694Y-114695645D01*
X184074698Y-114695647D01*
X184168475Y-114710499D01*
X184168481Y-114710500D01*
X185831518Y-114710499D01*
X185925304Y-114695646D01*
X186038342Y-114638050D01*
X186128050Y-114548342D01*
X186185646Y-114435304D01*
X186185646Y-114435302D01*
X186185647Y-114435301D01*
X186200499Y-114341524D01*
X186200500Y-114341519D01*
X186200499Y-112778482D01*
X186185646Y-112684696D01*
X186128050Y-112571658D01*
X186128046Y-112571654D01*
X186128045Y-112571652D01*
X186038347Y-112481954D01*
X186038344Y-112481952D01*
X186038342Y-112481950D01*
X185961517Y-112442805D01*
X185925301Y-112424352D01*
X185831524Y-112409500D01*
X184168482Y-112409500D01*
X184087519Y-112422323D01*
X184074696Y-112424354D01*
X183961658Y-112481950D01*
X183961657Y-112481951D01*
X183961652Y-112481954D01*
X183871954Y-112571652D01*
X183871951Y-112571657D01*
X183814352Y-112684698D01*
X183799500Y-112778475D01*
X183799500Y-112949247D01*
X183779815Y-113016286D01*
X183727011Y-113062041D01*
X183657853Y-113071985D01*
X183594297Y-113042960D01*
X183564500Y-113004519D01*
X183525061Y-112925316D01*
X183525056Y-112925308D01*
X183390979Y-112747761D01*
X183226562Y-112597876D01*
X183226560Y-112597874D01*
X183037404Y-112480754D01*
X183037398Y-112480752D01*
X182829940Y-112400382D01*
X182611243Y-112359500D01*
X182388757Y-112359500D01*
X182170060Y-112400382D01*
X182038864Y-112451207D01*
X181962601Y-112480752D01*
X181962595Y-112480754D01*
X181773439Y-112597874D01*
X181773437Y-112597876D01*
X181609019Y-112747762D01*
X181598953Y-112761093D01*
X181542844Y-112802728D01*
X181473132Y-112807419D01*
X181411950Y-112773676D01*
X181401047Y-112761093D01*
X181390980Y-112747762D01*
X181226562Y-112597876D01*
X181226560Y-112597874D01*
X181037404Y-112480754D01*
X181037398Y-112480752D01*
X180829940Y-112400382D01*
X180611243Y-112359500D01*
X180388757Y-112359500D01*
X180170060Y-112400382D01*
X180038864Y-112451207D01*
X179962601Y-112480752D01*
X179962595Y-112480754D01*
X179773439Y-112597874D01*
X179773437Y-112597876D01*
X179609020Y-112747761D01*
X179474943Y-112925308D01*
X179474938Y-112925316D01*
X179375775Y-113124461D01*
X179375769Y-113124476D01*
X179314885Y-113338462D01*
X179314884Y-113338464D01*
X179294357Y-113559999D01*
X163795260Y-113559999D01*
X163795260Y-112778482D01*
X163780407Y-112684696D01*
X163722811Y-112571658D01*
X163722807Y-112571654D01*
X163722806Y-112571652D01*
X163633108Y-112481954D01*
X163633105Y-112481952D01*
X163633103Y-112481950D01*
X163556278Y-112442805D01*
X163520062Y-112424352D01*
X163426285Y-112409500D01*
X161763243Y-112409500D01*
X161682280Y-112422323D01*
X161669457Y-112424354D01*
X161556419Y-112481950D01*
X161556418Y-112481951D01*
X161556413Y-112481954D01*
X161466715Y-112571652D01*
X161466712Y-112571657D01*
X161409113Y-112684698D01*
X161394261Y-112778475D01*
X161394261Y-112949247D01*
X161374576Y-113016286D01*
X161321772Y-113062041D01*
X161252614Y-113071985D01*
X161189058Y-113042960D01*
X161159261Y-113004519D01*
X161119822Y-112925316D01*
X161119817Y-112925308D01*
X160985740Y-112747761D01*
X160821323Y-112597876D01*
X160821321Y-112597874D01*
X160632165Y-112480754D01*
X160632159Y-112480752D01*
X160424701Y-112400382D01*
X160206004Y-112359500D01*
X159983518Y-112359500D01*
X159764821Y-112400382D01*
X159633625Y-112451207D01*
X159557362Y-112480752D01*
X159557356Y-112480754D01*
X159368200Y-112597874D01*
X159368198Y-112597876D01*
X159203780Y-112747762D01*
X159193714Y-112761093D01*
X159137605Y-112802728D01*
X159067893Y-112807419D01*
X159006711Y-112773676D01*
X158995808Y-112761093D01*
X158985741Y-112747762D01*
X158821323Y-112597876D01*
X158821321Y-112597874D01*
X158632165Y-112480754D01*
X158632159Y-112480752D01*
X158424701Y-112400382D01*
X158206004Y-112359500D01*
X157983518Y-112359500D01*
X157764821Y-112400382D01*
X157633625Y-112451207D01*
X157557362Y-112480752D01*
X157557356Y-112480754D01*
X157368200Y-112597874D01*
X157368198Y-112597876D01*
X157203781Y-112747761D01*
X157069704Y-112925308D01*
X157069699Y-112925316D01*
X156970536Y-113124461D01*
X156970530Y-113124476D01*
X156909646Y-113338462D01*
X156909645Y-113338464D01*
X156889118Y-113559999D01*
X141390022Y-113559999D01*
X141390022Y-112778482D01*
X141375169Y-112684696D01*
X141317573Y-112571658D01*
X141317569Y-112571654D01*
X141317568Y-112571652D01*
X141227870Y-112481954D01*
X141227867Y-112481952D01*
X141227865Y-112481950D01*
X141151040Y-112442805D01*
X141114824Y-112424352D01*
X141021047Y-112409500D01*
X139358005Y-112409500D01*
X139277042Y-112422323D01*
X139264219Y-112424354D01*
X139151181Y-112481950D01*
X139151180Y-112481951D01*
X139151175Y-112481954D01*
X139061477Y-112571652D01*
X139061474Y-112571657D01*
X139003875Y-112684698D01*
X138989023Y-112778475D01*
X138989023Y-112949247D01*
X138969338Y-113016286D01*
X138916534Y-113062041D01*
X138847376Y-113071985D01*
X138783820Y-113042960D01*
X138754023Y-113004519D01*
X138714584Y-112925316D01*
X138714579Y-112925308D01*
X138580502Y-112747761D01*
X138416085Y-112597876D01*
X138416083Y-112597874D01*
X138226927Y-112480754D01*
X138226921Y-112480752D01*
X138019463Y-112400382D01*
X137800766Y-112359500D01*
X137578280Y-112359500D01*
X137359583Y-112400382D01*
X137228387Y-112451207D01*
X137152124Y-112480752D01*
X137152118Y-112480754D01*
X136962962Y-112597874D01*
X136962960Y-112597876D01*
X136798542Y-112747762D01*
X136788476Y-112761093D01*
X136732367Y-112802728D01*
X136662655Y-112807419D01*
X136601473Y-112773676D01*
X136590570Y-112761093D01*
X136580503Y-112747762D01*
X136416085Y-112597876D01*
X136416083Y-112597874D01*
X136226927Y-112480754D01*
X136226921Y-112480752D01*
X136019463Y-112400382D01*
X135800766Y-112359500D01*
X135578280Y-112359500D01*
X135359583Y-112400382D01*
X135228387Y-112451207D01*
X135152124Y-112480752D01*
X135152118Y-112480754D01*
X134962962Y-112597874D01*
X134962960Y-112597876D01*
X134798543Y-112747761D01*
X134664466Y-112925308D01*
X134664461Y-112925316D01*
X134565298Y-113124461D01*
X134565292Y-113124476D01*
X134504408Y-113338462D01*
X134504407Y-113338464D01*
X134483880Y-113559999D01*
X118984784Y-113559999D01*
X118984784Y-112778482D01*
X118969931Y-112684696D01*
X118912335Y-112571658D01*
X118912331Y-112571654D01*
X118912330Y-112571652D01*
X118822632Y-112481954D01*
X118822629Y-112481952D01*
X118822627Y-112481950D01*
X118745802Y-112442805D01*
X118709586Y-112424352D01*
X118615809Y-112409500D01*
X116952767Y-112409500D01*
X116871804Y-112422323D01*
X116858981Y-112424354D01*
X116745943Y-112481950D01*
X116745942Y-112481951D01*
X116745937Y-112481954D01*
X116656239Y-112571652D01*
X116656236Y-112571657D01*
X116598637Y-112684698D01*
X116583785Y-112778475D01*
X116583785Y-112949247D01*
X116564100Y-113016286D01*
X116511296Y-113062041D01*
X116442138Y-113071985D01*
X116378582Y-113042960D01*
X116348785Y-113004519D01*
X116309346Y-112925316D01*
X116309341Y-112925308D01*
X116175264Y-112747761D01*
X116010847Y-112597876D01*
X116010845Y-112597874D01*
X115821689Y-112480754D01*
X115821683Y-112480752D01*
X115614225Y-112400382D01*
X115395528Y-112359500D01*
X115173042Y-112359500D01*
X114954345Y-112400382D01*
X114823149Y-112451207D01*
X114746886Y-112480752D01*
X114746880Y-112480754D01*
X114557724Y-112597874D01*
X114557722Y-112597876D01*
X114393304Y-112747762D01*
X114383238Y-112761093D01*
X114327129Y-112802728D01*
X114257417Y-112807419D01*
X114196235Y-112773676D01*
X114185332Y-112761093D01*
X114175265Y-112747762D01*
X114010847Y-112597876D01*
X114010845Y-112597874D01*
X113821689Y-112480754D01*
X113821683Y-112480752D01*
X113614225Y-112400382D01*
X113395528Y-112359500D01*
X113173042Y-112359500D01*
X112954345Y-112400382D01*
X112823149Y-112451207D01*
X112746886Y-112480752D01*
X112746880Y-112480754D01*
X112557724Y-112597874D01*
X112557722Y-112597876D01*
X112393305Y-112747761D01*
X112259228Y-112925308D01*
X112259223Y-112925316D01*
X112160060Y-113124461D01*
X112160054Y-113124476D01*
X112099170Y-113338462D01*
X112099169Y-113338464D01*
X112078642Y-113559999D01*
X100200500Y-113559999D01*
X100200500Y-107939999D01*
X101794357Y-107939999D01*
X101794357Y-107940000D01*
X101814884Y-108161535D01*
X101814885Y-108161537D01*
X101875769Y-108375523D01*
X101875775Y-108375538D01*
X101974938Y-108574683D01*
X101974943Y-108574691D01*
X102109020Y-108752238D01*
X102273437Y-108902123D01*
X102273439Y-108902125D01*
X102462595Y-109019245D01*
X102462596Y-109019245D01*
X102462599Y-109019247D01*
X102670060Y-109099618D01*
X102888757Y-109140500D01*
X102888759Y-109140500D01*
X103111241Y-109140500D01*
X103111243Y-109140500D01*
X103329940Y-109099618D01*
X103537401Y-109019247D01*
X103726562Y-108902124D01*
X103890981Y-108752236D01*
X104025058Y-108574689D01*
X104124229Y-108375528D01*
X104185115Y-108161536D01*
X104205643Y-107940000D01*
X104205643Y-107939999D01*
X124222927Y-107939999D01*
X124222927Y-107940000D01*
X124243454Y-108161535D01*
X124243455Y-108161537D01*
X124304339Y-108375523D01*
X124304345Y-108375538D01*
X124403508Y-108574683D01*
X124403513Y-108574691D01*
X124537590Y-108752238D01*
X124702007Y-108902123D01*
X124702009Y-108902125D01*
X124891165Y-109019245D01*
X124891166Y-109019245D01*
X124891169Y-109019247D01*
X125098630Y-109099618D01*
X125317327Y-109140500D01*
X125317329Y-109140500D01*
X125539811Y-109140500D01*
X125539813Y-109140500D01*
X125758510Y-109099618D01*
X125965971Y-109019247D01*
X126155132Y-108902124D01*
X126319551Y-108752236D01*
X126453628Y-108574689D01*
X126552799Y-108375528D01*
X126613685Y-108161536D01*
X126634213Y-107940000D01*
X126634213Y-107939999D01*
X146651497Y-107939999D01*
X146651497Y-107940000D01*
X146672024Y-108161535D01*
X146672025Y-108161537D01*
X146732909Y-108375523D01*
X146732915Y-108375538D01*
X146832078Y-108574683D01*
X146832083Y-108574691D01*
X146966160Y-108752238D01*
X147130577Y-108902123D01*
X147130579Y-108902125D01*
X147319735Y-109019245D01*
X147319736Y-109019245D01*
X147319739Y-109019247D01*
X147527200Y-109099618D01*
X147745897Y-109140500D01*
X147745899Y-109140500D01*
X147968381Y-109140500D01*
X147968383Y-109140500D01*
X148187080Y-109099618D01*
X148394541Y-109019247D01*
X148583702Y-108902124D01*
X148748121Y-108752236D01*
X148882198Y-108574689D01*
X148981369Y-108375528D01*
X149042255Y-108161536D01*
X149062783Y-107940000D01*
X149062783Y-107939999D01*
X169080067Y-107939999D01*
X169080067Y-107940000D01*
X169100594Y-108161535D01*
X169100595Y-108161537D01*
X169161479Y-108375523D01*
X169161485Y-108375538D01*
X169260648Y-108574683D01*
X169260653Y-108574691D01*
X169394730Y-108752238D01*
X169559147Y-108902123D01*
X169559149Y-108902125D01*
X169748305Y-109019245D01*
X169748306Y-109019245D01*
X169748309Y-109019247D01*
X169955770Y-109099618D01*
X170174467Y-109140500D01*
X170174469Y-109140500D01*
X170396951Y-109140500D01*
X170396953Y-109140500D01*
X170615650Y-109099618D01*
X170823111Y-109019247D01*
X171012272Y-108902124D01*
X171176691Y-108752236D01*
X171310768Y-108574689D01*
X171409939Y-108375528D01*
X171470825Y-108161536D01*
X171491353Y-107940000D01*
X171470825Y-107718464D01*
X171409939Y-107504472D01*
X171409934Y-107504461D01*
X171310771Y-107305316D01*
X171310766Y-107305308D01*
X171176689Y-107127761D01*
X171012272Y-106977876D01*
X171012270Y-106977874D01*
X170823114Y-106860754D01*
X170823108Y-106860752D01*
X170615650Y-106780382D01*
X170396953Y-106739500D01*
X170174467Y-106739500D01*
X169955770Y-106780382D01*
X169824574Y-106831207D01*
X169748311Y-106860752D01*
X169748305Y-106860754D01*
X169559149Y-106977874D01*
X169559147Y-106977876D01*
X169394730Y-107127761D01*
X169260653Y-107305308D01*
X169260648Y-107305316D01*
X169161485Y-107504461D01*
X169161479Y-107504476D01*
X169100595Y-107718462D01*
X169100594Y-107718464D01*
X169080067Y-107939999D01*
X149062783Y-107939999D01*
X149042255Y-107718464D01*
X148981369Y-107504472D01*
X148981364Y-107504461D01*
X148882201Y-107305316D01*
X148882196Y-107305308D01*
X148748119Y-107127761D01*
X148583702Y-106977876D01*
X148583700Y-106977874D01*
X148394544Y-106860754D01*
X148394538Y-106860752D01*
X148187080Y-106780382D01*
X147968383Y-106739500D01*
X147745897Y-106739500D01*
X147527200Y-106780382D01*
X147396004Y-106831207D01*
X147319741Y-106860752D01*
X147319735Y-106860754D01*
X147130579Y-106977874D01*
X147130577Y-106977876D01*
X146966160Y-107127761D01*
X146832083Y-107305308D01*
X146832078Y-107305316D01*
X146732915Y-107504461D01*
X146732909Y-107504476D01*
X146672025Y-107718462D01*
X146672024Y-107718464D01*
X146651497Y-107939999D01*
X126634213Y-107939999D01*
X126613685Y-107718464D01*
X126552799Y-107504472D01*
X126552794Y-107504461D01*
X126453631Y-107305316D01*
X126453626Y-107305308D01*
X126319549Y-107127761D01*
X126155132Y-106977876D01*
X126155130Y-106977874D01*
X125965974Y-106860754D01*
X125965968Y-106860752D01*
X125758510Y-106780382D01*
X125539813Y-106739500D01*
X125317327Y-106739500D01*
X125098630Y-106780382D01*
X124967434Y-106831207D01*
X124891171Y-106860752D01*
X124891165Y-106860754D01*
X124702009Y-106977874D01*
X124702007Y-106977876D01*
X124537590Y-107127761D01*
X124403513Y-107305308D01*
X124403508Y-107305316D01*
X124304345Y-107504461D01*
X124304339Y-107504476D01*
X124243455Y-107718462D01*
X124243454Y-107718464D01*
X124222927Y-107939999D01*
X104205643Y-107939999D01*
X104185115Y-107718464D01*
X104124229Y-107504472D01*
X104124224Y-107504461D01*
X104025061Y-107305316D01*
X104025056Y-107305308D01*
X103890979Y-107127761D01*
X103726562Y-106977876D01*
X103726560Y-106977874D01*
X103537404Y-106860754D01*
X103537398Y-106860752D01*
X103329940Y-106780382D01*
X103111243Y-106739500D01*
X102888757Y-106739500D01*
X102670060Y-106780382D01*
X102538864Y-106831207D01*
X102462601Y-106860752D01*
X102462595Y-106860754D01*
X102273439Y-106977874D01*
X102273437Y-106977876D01*
X102109020Y-107127761D01*
X101974943Y-107305308D01*
X101974938Y-107305316D01*
X101875775Y-107504461D01*
X101875769Y-107504476D01*
X101814885Y-107718462D01*
X101814884Y-107718464D01*
X101794357Y-107939999D01*
X100200500Y-107939999D01*
X100200500Y-103003480D01*
X100200695Y-102996527D01*
X100202740Y-102960118D01*
X100217713Y-102693494D01*
X100219267Y-102679700D01*
X100269523Y-102383915D01*
X100272616Y-102370363D01*
X100330193Y-102170513D01*
X100355673Y-102082068D01*
X100360265Y-102068948D01*
X100450347Y-101851469D01*
X100475075Y-101791768D01*
X100481097Y-101779262D01*
X100626230Y-101516665D01*
X100633625Y-101504897D01*
X100807245Y-101260201D01*
X100815896Y-101249354D01*
X101015816Y-101025645D01*
X101025647Y-101015815D01*
X101249354Y-100815896D01*
X101260201Y-100807245D01*
X101504902Y-100633621D01*
X101516665Y-100626230D01*
X101779262Y-100481097D01*
X101791768Y-100475075D01*
X102068948Y-100360265D01*
X102082068Y-100355673D01*
X102370369Y-100272614D01*
X102383915Y-100269523D01*
X102679700Y-100219267D01*
X102693494Y-100217713D01*
X102996528Y-100200695D01*
X103003481Y-100200500D01*
X103039882Y-100200500D01*
X186960118Y-100200500D01*
X186996519Y-100200500D01*
X187003472Y-100200695D01*
G37*
%TD.AperFunction*%
%TD*%
M02*
