G04 Layer: TopSilkscreenLayer*
G04 EasyEDA Pro v2.2.27.1, 2024-09-15 10:59:50*
G04 Gerber Generator version 0.3*
G04 Scale: 100 percent, Rotated: No, Reflected: No*
G04 Dimensions in millimeters*
G04 Leading zeros omitted, absolute positions, 3 integers and 5 decimals*
%TF.GenerationSoftware,KiCad,Pcbnew,8.0.6*%
%TF.CreationDate,2024-11-16T11:12:32+08:00*%
%TF.ProjectId,PY32F002AW15S_mini_system,50593332-4630-4303-9241-573135535f6d,rev?*%
%TF.SameCoordinates,Original*%
%TF.FileFunction,Legend,Top*%
%TF.FilePolarity,Positive*%
%FSLAX46Y46*%
G04 Gerber Fmt 4.6, Leading zero omitted, Abs format (unit mm)*
G04 Created by KiCad (PCBNEW 8.0.6) date 2024-11-16 11:12:32*
%MOMM*%
%LPD*%
G01*
G04 APERTURE LIST*
%ADD10C,0.100000*%
%ADD11C,0.150000*%
%ADD12C,0.120000*%
G04 APERTURE END LIST*
D10*
X152846895Y-112978020D02*
X153646895Y-112711353D01*
X153646895Y-112711353D02*
X152846895Y-112444687D01*
X153570704Y-111720877D02*
X153608800Y-111758973D01*
X153608800Y-111758973D02*
X153646895Y-111873258D01*
X153646895Y-111873258D02*
X153646895Y-111949449D01*
X153646895Y-111949449D02*
X153608800Y-112063735D01*
X153608800Y-112063735D02*
X153532609Y-112139925D01*
X153532609Y-112139925D02*
X153456419Y-112178020D01*
X153456419Y-112178020D02*
X153304038Y-112216116D01*
X153304038Y-112216116D02*
X153189752Y-112216116D01*
X153189752Y-112216116D02*
X153037371Y-112178020D01*
X153037371Y-112178020D02*
X152961180Y-112139925D01*
X152961180Y-112139925D02*
X152884990Y-112063735D01*
X152884990Y-112063735D02*
X152846895Y-111949449D01*
X152846895Y-111949449D02*
X152846895Y-111873258D01*
X152846895Y-111873258D02*
X152884990Y-111758973D01*
X152884990Y-111758973D02*
X152923085Y-111720877D01*
X153570704Y-110920877D02*
X153608800Y-110958973D01*
X153608800Y-110958973D02*
X153646895Y-111073258D01*
X153646895Y-111073258D02*
X153646895Y-111149449D01*
X153646895Y-111149449D02*
X153608800Y-111263735D01*
X153608800Y-111263735D02*
X153532609Y-111339925D01*
X153532609Y-111339925D02*
X153456419Y-111378020D01*
X153456419Y-111378020D02*
X153304038Y-111416116D01*
X153304038Y-111416116D02*
X153189752Y-111416116D01*
X153189752Y-111416116D02*
X153037371Y-111378020D01*
X153037371Y-111378020D02*
X152961180Y-111339925D01*
X152961180Y-111339925D02*
X152884990Y-111263735D01*
X152884990Y-111263735D02*
X152846895Y-111149449D01*
X152846895Y-111149449D02*
X152846895Y-111073258D01*
X152846895Y-111073258D02*
X152884990Y-110958973D01*
X152884990Y-110958973D02*
X152923085Y-110920877D01*
X153646895Y-110323734D02*
X152846895Y-110323734D01*
X152846895Y-110323734D02*
X152846895Y-110133258D01*
X152846895Y-110133258D02*
X152884990Y-110018972D01*
X152884990Y-110018972D02*
X152961180Y-109942782D01*
X152961180Y-109942782D02*
X153037371Y-109904687D01*
X153037371Y-109904687D02*
X153189752Y-109866591D01*
X153189752Y-109866591D02*
X153304038Y-109866591D01*
X153304038Y-109866591D02*
X153456419Y-109904687D01*
X153456419Y-109904687D02*
X153532609Y-109942782D01*
X153532609Y-109942782D02*
X153608800Y-110018972D01*
X153608800Y-110018972D02*
X153646895Y-110133258D01*
X153646895Y-110133258D02*
X153646895Y-110323734D01*
X153646895Y-109523734D02*
X152846895Y-109523734D01*
X152846895Y-108990401D02*
X152846895Y-108838020D01*
X152846895Y-108838020D02*
X152884990Y-108761830D01*
X152884990Y-108761830D02*
X152961180Y-108685639D01*
X152961180Y-108685639D02*
X153113561Y-108647544D01*
X153113561Y-108647544D02*
X153380228Y-108647544D01*
X153380228Y-108647544D02*
X153532609Y-108685639D01*
X153532609Y-108685639D02*
X153608800Y-108761830D01*
X153608800Y-108761830D02*
X153646895Y-108838020D01*
X153646895Y-108838020D02*
X153646895Y-108990401D01*
X153646895Y-108990401D02*
X153608800Y-109066592D01*
X153608800Y-109066592D02*
X153532609Y-109142782D01*
X153532609Y-109142782D02*
X153380228Y-109180878D01*
X153380228Y-109180878D02*
X153113561Y-109180878D01*
X153113561Y-109180878D02*
X152961180Y-109142782D01*
X152961180Y-109142782D02*
X152884990Y-109066592D01*
X152884990Y-109066592D02*
X152846895Y-108990401D01*
X153570704Y-107326591D02*
X153608800Y-107364687D01*
X153608800Y-107364687D02*
X153646895Y-107478972D01*
X153646895Y-107478972D02*
X153646895Y-107555163D01*
X153646895Y-107555163D02*
X153608800Y-107669449D01*
X153608800Y-107669449D02*
X153532609Y-107745639D01*
X153532609Y-107745639D02*
X153456419Y-107783734D01*
X153456419Y-107783734D02*
X153304038Y-107821830D01*
X153304038Y-107821830D02*
X153189752Y-107821830D01*
X153189752Y-107821830D02*
X153037371Y-107783734D01*
X153037371Y-107783734D02*
X152961180Y-107745639D01*
X152961180Y-107745639D02*
X152884990Y-107669449D01*
X152884990Y-107669449D02*
X152846895Y-107555163D01*
X152846895Y-107555163D02*
X152846895Y-107478972D01*
X152846895Y-107478972D02*
X152884990Y-107364687D01*
X152884990Y-107364687D02*
X152923085Y-107326591D01*
X153646895Y-106602782D02*
X153646895Y-106983734D01*
X153646895Y-106983734D02*
X152846895Y-106983734D01*
X153646895Y-106336115D02*
X152846895Y-106336115D01*
X153646895Y-105878972D02*
X153189752Y-106221830D01*
X152846895Y-105878972D02*
X153304038Y-106336115D01*
X152884990Y-104824687D02*
X152846895Y-104900877D01*
X152846895Y-104900877D02*
X152846895Y-105015163D01*
X152846895Y-105015163D02*
X152884990Y-105129449D01*
X152884990Y-105129449D02*
X152961180Y-105205639D01*
X152961180Y-105205639D02*
X153037371Y-105243734D01*
X153037371Y-105243734D02*
X153189752Y-105281830D01*
X153189752Y-105281830D02*
X153304038Y-105281830D01*
X153304038Y-105281830D02*
X153456419Y-105243734D01*
X153456419Y-105243734D02*
X153532609Y-105205639D01*
X153532609Y-105205639D02*
X153608800Y-105129449D01*
X153608800Y-105129449D02*
X153646895Y-105015163D01*
X153646895Y-105015163D02*
X153646895Y-104938972D01*
X153646895Y-104938972D02*
X153608800Y-104824687D01*
X153608800Y-104824687D02*
X153570704Y-104786591D01*
X153570704Y-104786591D02*
X153304038Y-104786591D01*
X153304038Y-104786591D02*
X153304038Y-104938972D01*
X153646895Y-104443734D02*
X152846895Y-104443734D01*
X152846895Y-104443734D02*
X153646895Y-103986591D01*
X153646895Y-103986591D02*
X152846895Y-103986591D01*
X153646895Y-103605639D02*
X152846895Y-103605639D01*
X152846895Y-103605639D02*
X152846895Y-103415163D01*
X152846895Y-103415163D02*
X152884990Y-103300877D01*
X152884990Y-103300877D02*
X152961180Y-103224687D01*
X152961180Y-103224687D02*
X153037371Y-103186592D01*
X153037371Y-103186592D02*
X153189752Y-103148496D01*
X153189752Y-103148496D02*
X153304038Y-103148496D01*
X153304038Y-103148496D02*
X153456419Y-103186592D01*
X153456419Y-103186592D02*
X153532609Y-103224687D01*
X153532609Y-103224687D02*
X153608800Y-103300877D01*
X153608800Y-103300877D02*
X153646895Y-103415163D01*
X153646895Y-103415163D02*
X153646895Y-103605639D01*
D11*
X146173819Y-124263220D02*
X145173819Y-124263220D01*
X145173819Y-124263220D02*
X145173819Y-123882268D01*
X145173819Y-123882268D02*
X145221438Y-123787030D01*
X145221438Y-123787030D02*
X145269057Y-123739411D01*
X145269057Y-123739411D02*
X145364295Y-123691792D01*
X145364295Y-123691792D02*
X145507152Y-123691792D01*
X145507152Y-123691792D02*
X145602390Y-123739411D01*
X145602390Y-123739411D02*
X145650009Y-123787030D01*
X145650009Y-123787030D02*
X145697628Y-123882268D01*
X145697628Y-123882268D02*
X145697628Y-124263220D01*
X145888104Y-123310839D02*
X145888104Y-122834649D01*
X146173819Y-123406077D02*
X145173819Y-123072744D01*
X145173819Y-123072744D02*
X146173819Y-122739411D01*
X145173819Y-122215601D02*
X145173819Y-122120363D01*
X145173819Y-122120363D02*
X145221438Y-122025125D01*
X145221438Y-122025125D02*
X145269057Y-121977506D01*
X145269057Y-121977506D02*
X145364295Y-121929887D01*
X145364295Y-121929887D02*
X145554771Y-121882268D01*
X145554771Y-121882268D02*
X145792866Y-121882268D01*
X145792866Y-121882268D02*
X145983342Y-121929887D01*
X145983342Y-121929887D02*
X146078580Y-121977506D01*
X146078580Y-121977506D02*
X146126200Y-122025125D01*
X146126200Y-122025125D02*
X146173819Y-122120363D01*
X146173819Y-122120363D02*
X146173819Y-122215601D01*
X146173819Y-122215601D02*
X146126200Y-122310839D01*
X146126200Y-122310839D02*
X146078580Y-122358458D01*
X146078580Y-122358458D02*
X145983342Y-122406077D01*
X145983342Y-122406077D02*
X145792866Y-122453696D01*
X145792866Y-122453696D02*
X145554771Y-122453696D01*
X145554771Y-122453696D02*
X145364295Y-122406077D01*
X145364295Y-122406077D02*
X145269057Y-122358458D01*
X145269057Y-122358458D02*
X145221438Y-122310839D01*
X145221438Y-122310839D02*
X145173819Y-122215601D01*
X138553819Y-124263220D02*
X137553819Y-124263220D01*
X137553819Y-124263220D02*
X137553819Y-123882268D01*
X137553819Y-123882268D02*
X137601438Y-123787030D01*
X137601438Y-123787030D02*
X137649057Y-123739411D01*
X137649057Y-123739411D02*
X137744295Y-123691792D01*
X137744295Y-123691792D02*
X137887152Y-123691792D01*
X137887152Y-123691792D02*
X137982390Y-123739411D01*
X137982390Y-123739411D02*
X138030009Y-123787030D01*
X138030009Y-123787030D02*
X138077628Y-123882268D01*
X138077628Y-123882268D02*
X138077628Y-124263220D01*
X138268104Y-123310839D02*
X138268104Y-122834649D01*
X138553819Y-123406077D02*
X137553819Y-123072744D01*
X137553819Y-123072744D02*
X138553819Y-122739411D01*
X137649057Y-122453696D02*
X137601438Y-122406077D01*
X137601438Y-122406077D02*
X137553819Y-122310839D01*
X137553819Y-122310839D02*
X137553819Y-122072744D01*
X137553819Y-122072744D02*
X137601438Y-121977506D01*
X137601438Y-121977506D02*
X137649057Y-121929887D01*
X137649057Y-121929887D02*
X137744295Y-121882268D01*
X137744295Y-121882268D02*
X137839533Y-121882268D01*
X137839533Y-121882268D02*
X137982390Y-121929887D01*
X137982390Y-121929887D02*
X138553819Y-122501315D01*
X138553819Y-122501315D02*
X138553819Y-121882268D01*
X143633819Y-108079125D02*
X142633819Y-108079125D01*
X142633819Y-108079125D02*
X142633819Y-107698173D01*
X142633819Y-107698173D02*
X142681438Y-107602935D01*
X142681438Y-107602935D02*
X142729057Y-107555316D01*
X142729057Y-107555316D02*
X142824295Y-107507697D01*
X142824295Y-107507697D02*
X142967152Y-107507697D01*
X142967152Y-107507697D02*
X143062390Y-107555316D01*
X143062390Y-107555316D02*
X143110009Y-107602935D01*
X143110009Y-107602935D02*
X143157628Y-107698173D01*
X143157628Y-107698173D02*
X143157628Y-108079125D01*
X143348104Y-107126744D02*
X143348104Y-106650554D01*
X143633819Y-107221982D02*
X142633819Y-106888649D01*
X142633819Y-106888649D02*
X143633819Y-106555316D01*
X143633819Y-106174363D02*
X143633819Y-105983887D01*
X143633819Y-105983887D02*
X143586200Y-105888649D01*
X143586200Y-105888649D02*
X143538580Y-105841030D01*
X143538580Y-105841030D02*
X143395723Y-105745792D01*
X143395723Y-105745792D02*
X143205247Y-105698173D01*
X143205247Y-105698173D02*
X142824295Y-105698173D01*
X142824295Y-105698173D02*
X142729057Y-105745792D01*
X142729057Y-105745792D02*
X142681438Y-105793411D01*
X142681438Y-105793411D02*
X142633819Y-105888649D01*
X142633819Y-105888649D02*
X142633819Y-106079125D01*
X142633819Y-106079125D02*
X142681438Y-106174363D01*
X142681438Y-106174363D02*
X142729057Y-106221982D01*
X142729057Y-106221982D02*
X142824295Y-106269601D01*
X142824295Y-106269601D02*
X143062390Y-106269601D01*
X143062390Y-106269601D02*
X143157628Y-106221982D01*
X143157628Y-106221982D02*
X143205247Y-106174363D01*
X143205247Y-106174363D02*
X143252866Y-106079125D01*
X143252866Y-106079125D02*
X143252866Y-105888649D01*
X143252866Y-105888649D02*
X143205247Y-105793411D01*
X143205247Y-105793411D02*
X143157628Y-105745792D01*
X143157628Y-105745792D02*
X143062390Y-105698173D01*
X136013819Y-124263220D02*
X135013819Y-124263220D01*
X135013819Y-124263220D02*
X135013819Y-123882268D01*
X135013819Y-123882268D02*
X135061438Y-123787030D01*
X135061438Y-123787030D02*
X135109057Y-123739411D01*
X135109057Y-123739411D02*
X135204295Y-123691792D01*
X135204295Y-123691792D02*
X135347152Y-123691792D01*
X135347152Y-123691792D02*
X135442390Y-123739411D01*
X135442390Y-123739411D02*
X135490009Y-123787030D01*
X135490009Y-123787030D02*
X135537628Y-123882268D01*
X135537628Y-123882268D02*
X135537628Y-124263220D01*
X135728104Y-123310839D02*
X135728104Y-122834649D01*
X136013819Y-123406077D02*
X135013819Y-123072744D01*
X135013819Y-123072744D02*
X136013819Y-122739411D01*
X135013819Y-122501315D02*
X135013819Y-121882268D01*
X135013819Y-121882268D02*
X135394771Y-122215601D01*
X135394771Y-122215601D02*
X135394771Y-122072744D01*
X135394771Y-122072744D02*
X135442390Y-121977506D01*
X135442390Y-121977506D02*
X135490009Y-121929887D01*
X135490009Y-121929887D02*
X135585247Y-121882268D01*
X135585247Y-121882268D02*
X135823342Y-121882268D01*
X135823342Y-121882268D02*
X135918580Y-121929887D01*
X135918580Y-121929887D02*
X135966200Y-121977506D01*
X135966200Y-121977506D02*
X136013819Y-122072744D01*
X136013819Y-122072744D02*
X136013819Y-122358458D01*
X136013819Y-122358458D02*
X135966200Y-122453696D01*
X135966200Y-122453696D02*
X135918580Y-122501315D01*
X146126200Y-109936267D02*
X146173819Y-109793410D01*
X146173819Y-109793410D02*
X146173819Y-109555315D01*
X146173819Y-109555315D02*
X146126200Y-109460077D01*
X146126200Y-109460077D02*
X146078580Y-109412458D01*
X146078580Y-109412458D02*
X145983342Y-109364839D01*
X145983342Y-109364839D02*
X145888104Y-109364839D01*
X145888104Y-109364839D02*
X145792866Y-109412458D01*
X145792866Y-109412458D02*
X145745247Y-109460077D01*
X145745247Y-109460077D02*
X145697628Y-109555315D01*
X145697628Y-109555315D02*
X145650009Y-109745791D01*
X145650009Y-109745791D02*
X145602390Y-109841029D01*
X145602390Y-109841029D02*
X145554771Y-109888648D01*
X145554771Y-109888648D02*
X145459533Y-109936267D01*
X145459533Y-109936267D02*
X145364295Y-109936267D01*
X145364295Y-109936267D02*
X145269057Y-109888648D01*
X145269057Y-109888648D02*
X145221438Y-109841029D01*
X145221438Y-109841029D02*
X145173819Y-109745791D01*
X145173819Y-109745791D02*
X145173819Y-109507696D01*
X145173819Y-109507696D02*
X145221438Y-109364839D01*
X145173819Y-109031505D02*
X146173819Y-108793410D01*
X146173819Y-108793410D02*
X145459533Y-108602934D01*
X145459533Y-108602934D02*
X146173819Y-108412458D01*
X146173819Y-108412458D02*
X145173819Y-108174363D01*
X146173819Y-107793410D02*
X145173819Y-107793410D01*
X145173819Y-107793410D02*
X145173819Y-107555315D01*
X145173819Y-107555315D02*
X145221438Y-107412458D01*
X145221438Y-107412458D02*
X145316676Y-107317220D01*
X145316676Y-107317220D02*
X145411914Y-107269601D01*
X145411914Y-107269601D02*
X145602390Y-107221982D01*
X145602390Y-107221982D02*
X145745247Y-107221982D01*
X145745247Y-107221982D02*
X145935723Y-107269601D01*
X145935723Y-107269601D02*
X146030961Y-107317220D01*
X146030961Y-107317220D02*
X146126200Y-107412458D01*
X146126200Y-107412458D02*
X146173819Y-107555315D01*
X146173819Y-107555315D02*
X146173819Y-107793410D01*
X146173819Y-106793410D02*
X145173819Y-106793410D01*
X145173819Y-106126744D02*
X145173819Y-105936268D01*
X145173819Y-105936268D02*
X145221438Y-105841030D01*
X145221438Y-105841030D02*
X145316676Y-105745792D01*
X145316676Y-105745792D02*
X145507152Y-105698173D01*
X145507152Y-105698173D02*
X145840485Y-105698173D01*
X145840485Y-105698173D02*
X146030961Y-105745792D01*
X146030961Y-105745792D02*
X146126200Y-105841030D01*
X146126200Y-105841030D02*
X146173819Y-105936268D01*
X146173819Y-105936268D02*
X146173819Y-106126744D01*
X146173819Y-106126744D02*
X146126200Y-106221982D01*
X146126200Y-106221982D02*
X146030961Y-106317220D01*
X146030961Y-106317220D02*
X145840485Y-106364839D01*
X145840485Y-106364839D02*
X145507152Y-106364839D01*
X145507152Y-106364839D02*
X145316676Y-106317220D01*
X145316676Y-106317220D02*
X145221438Y-106221982D01*
X145221438Y-106221982D02*
X145173819Y-106126744D01*
X127393819Y-124406077D02*
X128393819Y-124072744D01*
X128393819Y-124072744D02*
X127393819Y-123739411D01*
X128298580Y-122834649D02*
X128346200Y-122882268D01*
X128346200Y-122882268D02*
X128393819Y-123025125D01*
X128393819Y-123025125D02*
X128393819Y-123120363D01*
X128393819Y-123120363D02*
X128346200Y-123263220D01*
X128346200Y-123263220D02*
X128250961Y-123358458D01*
X128250961Y-123358458D02*
X128155723Y-123406077D01*
X128155723Y-123406077D02*
X127965247Y-123453696D01*
X127965247Y-123453696D02*
X127822390Y-123453696D01*
X127822390Y-123453696D02*
X127631914Y-123406077D01*
X127631914Y-123406077D02*
X127536676Y-123358458D01*
X127536676Y-123358458D02*
X127441438Y-123263220D01*
X127441438Y-123263220D02*
X127393819Y-123120363D01*
X127393819Y-123120363D02*
X127393819Y-123025125D01*
X127393819Y-123025125D02*
X127441438Y-122882268D01*
X127441438Y-122882268D02*
X127489057Y-122834649D01*
X128298580Y-121834649D02*
X128346200Y-121882268D01*
X128346200Y-121882268D02*
X128393819Y-122025125D01*
X128393819Y-122025125D02*
X128393819Y-122120363D01*
X128393819Y-122120363D02*
X128346200Y-122263220D01*
X128346200Y-122263220D02*
X128250961Y-122358458D01*
X128250961Y-122358458D02*
X128155723Y-122406077D01*
X128155723Y-122406077D02*
X127965247Y-122453696D01*
X127965247Y-122453696D02*
X127822390Y-122453696D01*
X127822390Y-122453696D02*
X127631914Y-122406077D01*
X127631914Y-122406077D02*
X127536676Y-122358458D01*
X127536676Y-122358458D02*
X127441438Y-122263220D01*
X127441438Y-122263220D02*
X127393819Y-122120363D01*
X127393819Y-122120363D02*
X127393819Y-122025125D01*
X127393819Y-122025125D02*
X127441438Y-121882268D01*
X127441438Y-121882268D02*
X127489057Y-121834649D01*
X129981438Y-123739411D02*
X129933819Y-123834649D01*
X129933819Y-123834649D02*
X129933819Y-123977506D01*
X129933819Y-123977506D02*
X129981438Y-124120363D01*
X129981438Y-124120363D02*
X130076676Y-124215601D01*
X130076676Y-124215601D02*
X130171914Y-124263220D01*
X130171914Y-124263220D02*
X130362390Y-124310839D01*
X130362390Y-124310839D02*
X130505247Y-124310839D01*
X130505247Y-124310839D02*
X130695723Y-124263220D01*
X130695723Y-124263220D02*
X130790961Y-124215601D01*
X130790961Y-124215601D02*
X130886200Y-124120363D01*
X130886200Y-124120363D02*
X130933819Y-123977506D01*
X130933819Y-123977506D02*
X130933819Y-123882268D01*
X130933819Y-123882268D02*
X130886200Y-123739411D01*
X130886200Y-123739411D02*
X130838580Y-123691792D01*
X130838580Y-123691792D02*
X130505247Y-123691792D01*
X130505247Y-123691792D02*
X130505247Y-123882268D01*
X130933819Y-123263220D02*
X129933819Y-123263220D01*
X129933819Y-123263220D02*
X130933819Y-122691792D01*
X130933819Y-122691792D02*
X129933819Y-122691792D01*
X130933819Y-122215601D02*
X129933819Y-122215601D01*
X129933819Y-122215601D02*
X129933819Y-121977506D01*
X129933819Y-121977506D02*
X129981438Y-121834649D01*
X129981438Y-121834649D02*
X130076676Y-121739411D01*
X130076676Y-121739411D02*
X130171914Y-121691792D01*
X130171914Y-121691792D02*
X130362390Y-121644173D01*
X130362390Y-121644173D02*
X130505247Y-121644173D01*
X130505247Y-121644173D02*
X130695723Y-121691792D01*
X130695723Y-121691792D02*
X130790961Y-121739411D01*
X130790961Y-121739411D02*
X130886200Y-121834649D01*
X130886200Y-121834649D02*
X130933819Y-121977506D01*
X130933819Y-121977506D02*
X130933819Y-122215601D01*
X150253819Y-124072744D02*
X150253819Y-123882268D01*
X150253819Y-123882268D02*
X150301438Y-123787030D01*
X150301438Y-123787030D02*
X150396676Y-123691792D01*
X150396676Y-123691792D02*
X150587152Y-123644173D01*
X150587152Y-123644173D02*
X150920485Y-123644173D01*
X150920485Y-123644173D02*
X151110961Y-123691792D01*
X151110961Y-123691792D02*
X151206200Y-123787030D01*
X151206200Y-123787030D02*
X151253819Y-123882268D01*
X151253819Y-123882268D02*
X151253819Y-124072744D01*
X151253819Y-124072744D02*
X151206200Y-124167982D01*
X151206200Y-124167982D02*
X151110961Y-124263220D01*
X151110961Y-124263220D02*
X150920485Y-124310839D01*
X150920485Y-124310839D02*
X150587152Y-124310839D01*
X150587152Y-124310839D02*
X150396676Y-124263220D01*
X150396676Y-124263220D02*
X150301438Y-124167982D01*
X150301438Y-124167982D02*
X150253819Y-124072744D01*
X151206200Y-123263220D02*
X151253819Y-123120363D01*
X151253819Y-123120363D02*
X151253819Y-122882268D01*
X151253819Y-122882268D02*
X151206200Y-122787030D01*
X151206200Y-122787030D02*
X151158580Y-122739411D01*
X151158580Y-122739411D02*
X151063342Y-122691792D01*
X151063342Y-122691792D02*
X150968104Y-122691792D01*
X150968104Y-122691792D02*
X150872866Y-122739411D01*
X150872866Y-122739411D02*
X150825247Y-122787030D01*
X150825247Y-122787030D02*
X150777628Y-122882268D01*
X150777628Y-122882268D02*
X150730009Y-123072744D01*
X150730009Y-123072744D02*
X150682390Y-123167982D01*
X150682390Y-123167982D02*
X150634771Y-123215601D01*
X150634771Y-123215601D02*
X150539533Y-123263220D01*
X150539533Y-123263220D02*
X150444295Y-123263220D01*
X150444295Y-123263220D02*
X150349057Y-123215601D01*
X150349057Y-123215601D02*
X150301438Y-123167982D01*
X150301438Y-123167982D02*
X150253819Y-123072744D01*
X150253819Y-123072744D02*
X150253819Y-122834649D01*
X150253819Y-122834649D02*
X150301438Y-122691792D01*
X151158580Y-121691792D02*
X151206200Y-121739411D01*
X151206200Y-121739411D02*
X151253819Y-121882268D01*
X151253819Y-121882268D02*
X151253819Y-121977506D01*
X151253819Y-121977506D02*
X151206200Y-122120363D01*
X151206200Y-122120363D02*
X151110961Y-122215601D01*
X151110961Y-122215601D02*
X151015723Y-122263220D01*
X151015723Y-122263220D02*
X150825247Y-122310839D01*
X150825247Y-122310839D02*
X150682390Y-122310839D01*
X150682390Y-122310839D02*
X150491914Y-122263220D01*
X150491914Y-122263220D02*
X150396676Y-122215601D01*
X150396676Y-122215601D02*
X150301438Y-122120363D01*
X150301438Y-122120363D02*
X150253819Y-121977506D01*
X150253819Y-121977506D02*
X150253819Y-121882268D01*
X150253819Y-121882268D02*
X150301438Y-121739411D01*
X150301438Y-121739411D02*
X150349057Y-121691792D01*
X150872866Y-121263220D02*
X150872866Y-120501316D01*
X140093819Y-108269601D02*
X141093819Y-107936268D01*
X141093819Y-107936268D02*
X140093819Y-107602935D01*
X140998580Y-106698173D02*
X141046200Y-106745792D01*
X141046200Y-106745792D02*
X141093819Y-106888649D01*
X141093819Y-106888649D02*
X141093819Y-106983887D01*
X141093819Y-106983887D02*
X141046200Y-107126744D01*
X141046200Y-107126744D02*
X140950961Y-107221982D01*
X140950961Y-107221982D02*
X140855723Y-107269601D01*
X140855723Y-107269601D02*
X140665247Y-107317220D01*
X140665247Y-107317220D02*
X140522390Y-107317220D01*
X140522390Y-107317220D02*
X140331914Y-107269601D01*
X140331914Y-107269601D02*
X140236676Y-107221982D01*
X140236676Y-107221982D02*
X140141438Y-107126744D01*
X140141438Y-107126744D02*
X140093819Y-106983887D01*
X140093819Y-106983887D02*
X140093819Y-106888649D01*
X140093819Y-106888649D02*
X140141438Y-106745792D01*
X140141438Y-106745792D02*
X140189057Y-106698173D01*
X140998580Y-105698173D02*
X141046200Y-105745792D01*
X141046200Y-105745792D02*
X141093819Y-105888649D01*
X141093819Y-105888649D02*
X141093819Y-105983887D01*
X141093819Y-105983887D02*
X141046200Y-106126744D01*
X141046200Y-106126744D02*
X140950961Y-106221982D01*
X140950961Y-106221982D02*
X140855723Y-106269601D01*
X140855723Y-106269601D02*
X140665247Y-106317220D01*
X140665247Y-106317220D02*
X140522390Y-106317220D01*
X140522390Y-106317220D02*
X140331914Y-106269601D01*
X140331914Y-106269601D02*
X140236676Y-106221982D01*
X140236676Y-106221982D02*
X140141438Y-106126744D01*
X140141438Y-106126744D02*
X140093819Y-105983887D01*
X140093819Y-105983887D02*
X140093819Y-105888649D01*
X140093819Y-105888649D02*
X140141438Y-105745792D01*
X140141438Y-105745792D02*
X140189057Y-105698173D01*
X153369819Y-121829411D02*
X153369819Y-122400839D01*
X153369819Y-122115125D02*
X152369819Y-122115125D01*
X152369819Y-122115125D02*
X152512676Y-122210363D01*
X152512676Y-122210363D02*
X152607914Y-122305601D01*
X152607914Y-122305601D02*
X152655533Y-122400839D01*
X152465057Y-121448458D02*
X152417438Y-121400839D01*
X152417438Y-121400839D02*
X152369819Y-121305601D01*
X152369819Y-121305601D02*
X152369819Y-121067506D01*
X152369819Y-121067506D02*
X152417438Y-120972268D01*
X152417438Y-120972268D02*
X152465057Y-120924649D01*
X152465057Y-120924649D02*
X152560295Y-120877030D01*
X152560295Y-120877030D02*
X152655533Y-120877030D01*
X152655533Y-120877030D02*
X152798390Y-120924649D01*
X152798390Y-120924649D02*
X153369819Y-121496077D01*
X153369819Y-121496077D02*
X153369819Y-120877030D01*
X153369819Y-120448458D02*
X152369819Y-120448458D01*
X152369819Y-120448458D02*
X153084104Y-120115125D01*
X153084104Y-120115125D02*
X152369819Y-119781792D01*
X152369819Y-119781792D02*
X153369819Y-119781792D01*
X153369819Y-119305601D02*
X152369819Y-119305601D01*
X153369819Y-118877030D02*
X152846009Y-118877030D01*
X152846009Y-118877030D02*
X152750771Y-118924649D01*
X152750771Y-118924649D02*
X152703152Y-119019887D01*
X152703152Y-119019887D02*
X152703152Y-119162744D01*
X152703152Y-119162744D02*
X152750771Y-119257982D01*
X152750771Y-119257982D02*
X152798390Y-119305601D01*
X152703152Y-118496077D02*
X152703152Y-117972268D01*
X152703152Y-117972268D02*
X153369819Y-118496077D01*
X153369819Y-118496077D02*
X153369819Y-117972268D01*
X138553819Y-108221982D02*
X137553819Y-108221982D01*
X137553819Y-108221982D02*
X137553819Y-107841030D01*
X137553819Y-107841030D02*
X137601438Y-107745792D01*
X137601438Y-107745792D02*
X137649057Y-107698173D01*
X137649057Y-107698173D02*
X137744295Y-107650554D01*
X137744295Y-107650554D02*
X137887152Y-107650554D01*
X137887152Y-107650554D02*
X137982390Y-107698173D01*
X137982390Y-107698173D02*
X138030009Y-107745792D01*
X138030009Y-107745792D02*
X138077628Y-107841030D01*
X138077628Y-107841030D02*
X138077628Y-108221982D01*
X138030009Y-106888649D02*
X138077628Y-106745792D01*
X138077628Y-106745792D02*
X138125247Y-106698173D01*
X138125247Y-106698173D02*
X138220485Y-106650554D01*
X138220485Y-106650554D02*
X138363342Y-106650554D01*
X138363342Y-106650554D02*
X138458580Y-106698173D01*
X138458580Y-106698173D02*
X138506200Y-106745792D01*
X138506200Y-106745792D02*
X138553819Y-106841030D01*
X138553819Y-106841030D02*
X138553819Y-107221982D01*
X138553819Y-107221982D02*
X137553819Y-107221982D01*
X137553819Y-107221982D02*
X137553819Y-106888649D01*
X137553819Y-106888649D02*
X137601438Y-106793411D01*
X137601438Y-106793411D02*
X137649057Y-106745792D01*
X137649057Y-106745792D02*
X137744295Y-106698173D01*
X137744295Y-106698173D02*
X137839533Y-106698173D01*
X137839533Y-106698173D02*
X137934771Y-106745792D01*
X137934771Y-106745792D02*
X137982390Y-106793411D01*
X137982390Y-106793411D02*
X138030009Y-106888649D01*
X138030009Y-106888649D02*
X138030009Y-107221982D01*
X138553819Y-105698173D02*
X138553819Y-106269601D01*
X138553819Y-105983887D02*
X137553819Y-105983887D01*
X137553819Y-105983887D02*
X137696676Y-106079125D01*
X137696676Y-106079125D02*
X137791914Y-106174363D01*
X137791914Y-106174363D02*
X137839533Y-106269601D01*
X129981438Y-107793411D02*
X129933819Y-107888649D01*
X129933819Y-107888649D02*
X129933819Y-108031506D01*
X129933819Y-108031506D02*
X129981438Y-108174363D01*
X129981438Y-108174363D02*
X130076676Y-108269601D01*
X130076676Y-108269601D02*
X130171914Y-108317220D01*
X130171914Y-108317220D02*
X130362390Y-108364839D01*
X130362390Y-108364839D02*
X130505247Y-108364839D01*
X130505247Y-108364839D02*
X130695723Y-108317220D01*
X130695723Y-108317220D02*
X130790961Y-108269601D01*
X130790961Y-108269601D02*
X130886200Y-108174363D01*
X130886200Y-108174363D02*
X130933819Y-108031506D01*
X130933819Y-108031506D02*
X130933819Y-107936268D01*
X130933819Y-107936268D02*
X130886200Y-107793411D01*
X130886200Y-107793411D02*
X130838580Y-107745792D01*
X130838580Y-107745792D02*
X130505247Y-107745792D01*
X130505247Y-107745792D02*
X130505247Y-107936268D01*
X130933819Y-107317220D02*
X129933819Y-107317220D01*
X129933819Y-107317220D02*
X130933819Y-106745792D01*
X130933819Y-106745792D02*
X129933819Y-106745792D01*
X130933819Y-106269601D02*
X129933819Y-106269601D01*
X129933819Y-106269601D02*
X129933819Y-106031506D01*
X129933819Y-106031506D02*
X129981438Y-105888649D01*
X129981438Y-105888649D02*
X130076676Y-105793411D01*
X130076676Y-105793411D02*
X130171914Y-105745792D01*
X130171914Y-105745792D02*
X130362390Y-105698173D01*
X130362390Y-105698173D02*
X130505247Y-105698173D01*
X130505247Y-105698173D02*
X130695723Y-105745792D01*
X130695723Y-105745792D02*
X130790961Y-105793411D01*
X130790961Y-105793411D02*
X130886200Y-105888649D01*
X130886200Y-105888649D02*
X130933819Y-106031506D01*
X130933819Y-106031506D02*
X130933819Y-106269601D01*
X148666200Y-110221982D02*
X148713819Y-110079125D01*
X148713819Y-110079125D02*
X148713819Y-109841030D01*
X148713819Y-109841030D02*
X148666200Y-109745792D01*
X148666200Y-109745792D02*
X148618580Y-109698173D01*
X148618580Y-109698173D02*
X148523342Y-109650554D01*
X148523342Y-109650554D02*
X148428104Y-109650554D01*
X148428104Y-109650554D02*
X148332866Y-109698173D01*
X148332866Y-109698173D02*
X148285247Y-109745792D01*
X148285247Y-109745792D02*
X148237628Y-109841030D01*
X148237628Y-109841030D02*
X148190009Y-110031506D01*
X148190009Y-110031506D02*
X148142390Y-110126744D01*
X148142390Y-110126744D02*
X148094771Y-110174363D01*
X148094771Y-110174363D02*
X147999533Y-110221982D01*
X147999533Y-110221982D02*
X147904295Y-110221982D01*
X147904295Y-110221982D02*
X147809057Y-110174363D01*
X147809057Y-110174363D02*
X147761438Y-110126744D01*
X147761438Y-110126744D02*
X147713819Y-110031506D01*
X147713819Y-110031506D02*
X147713819Y-109793411D01*
X147713819Y-109793411D02*
X147761438Y-109650554D01*
X147713819Y-109317220D02*
X148713819Y-109079125D01*
X148713819Y-109079125D02*
X147999533Y-108888649D01*
X147999533Y-108888649D02*
X148713819Y-108698173D01*
X148713819Y-108698173D02*
X147713819Y-108460078D01*
X148618580Y-107507697D02*
X148666200Y-107555316D01*
X148666200Y-107555316D02*
X148713819Y-107698173D01*
X148713819Y-107698173D02*
X148713819Y-107793411D01*
X148713819Y-107793411D02*
X148666200Y-107936268D01*
X148666200Y-107936268D02*
X148570961Y-108031506D01*
X148570961Y-108031506D02*
X148475723Y-108079125D01*
X148475723Y-108079125D02*
X148285247Y-108126744D01*
X148285247Y-108126744D02*
X148142390Y-108126744D01*
X148142390Y-108126744D02*
X147951914Y-108079125D01*
X147951914Y-108079125D02*
X147856676Y-108031506D01*
X147856676Y-108031506D02*
X147761438Y-107936268D01*
X147761438Y-107936268D02*
X147713819Y-107793411D01*
X147713819Y-107793411D02*
X147713819Y-107698173D01*
X147713819Y-107698173D02*
X147761438Y-107555316D01*
X147761438Y-107555316D02*
X147809057Y-107507697D01*
X148713819Y-106602935D02*
X148713819Y-107079125D01*
X148713819Y-107079125D02*
X147713819Y-107079125D01*
X148713819Y-106269601D02*
X147713819Y-106269601D01*
X148713819Y-105698173D02*
X148142390Y-106126744D01*
X147713819Y-105698173D02*
X148285247Y-106269601D01*
X143633819Y-124263220D02*
X142633819Y-124263220D01*
X142633819Y-124263220D02*
X142633819Y-123882268D01*
X142633819Y-123882268D02*
X142681438Y-123787030D01*
X142681438Y-123787030D02*
X142729057Y-123739411D01*
X142729057Y-123739411D02*
X142824295Y-123691792D01*
X142824295Y-123691792D02*
X142967152Y-123691792D01*
X142967152Y-123691792D02*
X143062390Y-123739411D01*
X143062390Y-123739411D02*
X143110009Y-123787030D01*
X143110009Y-123787030D02*
X143157628Y-123882268D01*
X143157628Y-123882268D02*
X143157628Y-124263220D01*
X143348104Y-123310839D02*
X143348104Y-122834649D01*
X143633819Y-123406077D02*
X142633819Y-123072744D01*
X142633819Y-123072744D02*
X143633819Y-122739411D01*
X143633819Y-121882268D02*
X143633819Y-122453696D01*
X143633819Y-122167982D02*
X142633819Y-122167982D01*
X142633819Y-122167982D02*
X142776676Y-122263220D01*
X142776676Y-122263220D02*
X142871914Y-122358458D01*
X142871914Y-122358458D02*
X142919533Y-122453696D01*
X147713819Y-124072744D02*
X147713819Y-123882268D01*
X147713819Y-123882268D02*
X147761438Y-123787030D01*
X147761438Y-123787030D02*
X147856676Y-123691792D01*
X147856676Y-123691792D02*
X148047152Y-123644173D01*
X148047152Y-123644173D02*
X148380485Y-123644173D01*
X148380485Y-123644173D02*
X148570961Y-123691792D01*
X148570961Y-123691792D02*
X148666200Y-123787030D01*
X148666200Y-123787030D02*
X148713819Y-123882268D01*
X148713819Y-123882268D02*
X148713819Y-124072744D01*
X148713819Y-124072744D02*
X148666200Y-124167982D01*
X148666200Y-124167982D02*
X148570961Y-124263220D01*
X148570961Y-124263220D02*
X148380485Y-124310839D01*
X148380485Y-124310839D02*
X148047152Y-124310839D01*
X148047152Y-124310839D02*
X147856676Y-124263220D01*
X147856676Y-124263220D02*
X147761438Y-124167982D01*
X147761438Y-124167982D02*
X147713819Y-124072744D01*
X148666200Y-123263220D02*
X148713819Y-123120363D01*
X148713819Y-123120363D02*
X148713819Y-122882268D01*
X148713819Y-122882268D02*
X148666200Y-122787030D01*
X148666200Y-122787030D02*
X148618580Y-122739411D01*
X148618580Y-122739411D02*
X148523342Y-122691792D01*
X148523342Y-122691792D02*
X148428104Y-122691792D01*
X148428104Y-122691792D02*
X148332866Y-122739411D01*
X148332866Y-122739411D02*
X148285247Y-122787030D01*
X148285247Y-122787030D02*
X148237628Y-122882268D01*
X148237628Y-122882268D02*
X148190009Y-123072744D01*
X148190009Y-123072744D02*
X148142390Y-123167982D01*
X148142390Y-123167982D02*
X148094771Y-123215601D01*
X148094771Y-123215601D02*
X147999533Y-123263220D01*
X147999533Y-123263220D02*
X147904295Y-123263220D01*
X147904295Y-123263220D02*
X147809057Y-123215601D01*
X147809057Y-123215601D02*
X147761438Y-123167982D01*
X147761438Y-123167982D02*
X147713819Y-123072744D01*
X147713819Y-123072744D02*
X147713819Y-122834649D01*
X147713819Y-122834649D02*
X147761438Y-122691792D01*
X148618580Y-121691792D02*
X148666200Y-121739411D01*
X148666200Y-121739411D02*
X148713819Y-121882268D01*
X148713819Y-121882268D02*
X148713819Y-121977506D01*
X148713819Y-121977506D02*
X148666200Y-122120363D01*
X148666200Y-122120363D02*
X148570961Y-122215601D01*
X148570961Y-122215601D02*
X148475723Y-122263220D01*
X148475723Y-122263220D02*
X148285247Y-122310839D01*
X148285247Y-122310839D02*
X148142390Y-122310839D01*
X148142390Y-122310839D02*
X147951914Y-122263220D01*
X147951914Y-122263220D02*
X147856676Y-122215601D01*
X147856676Y-122215601D02*
X147761438Y-122120363D01*
X147761438Y-122120363D02*
X147713819Y-121977506D01*
X147713819Y-121977506D02*
X147713819Y-121882268D01*
X147713819Y-121882268D02*
X147761438Y-121739411D01*
X147761438Y-121739411D02*
X147809057Y-121691792D01*
X148332866Y-121263220D02*
X148332866Y-120501316D01*
X148713819Y-120882268D02*
X147951914Y-120882268D01*
X127393819Y-108269601D02*
X128393819Y-107936268D01*
X128393819Y-107936268D02*
X127393819Y-107602935D01*
X128298580Y-106698173D02*
X128346200Y-106745792D01*
X128346200Y-106745792D02*
X128393819Y-106888649D01*
X128393819Y-106888649D02*
X128393819Y-106983887D01*
X128393819Y-106983887D02*
X128346200Y-107126744D01*
X128346200Y-107126744D02*
X128250961Y-107221982D01*
X128250961Y-107221982D02*
X128155723Y-107269601D01*
X128155723Y-107269601D02*
X127965247Y-107317220D01*
X127965247Y-107317220D02*
X127822390Y-107317220D01*
X127822390Y-107317220D02*
X127631914Y-107269601D01*
X127631914Y-107269601D02*
X127536676Y-107221982D01*
X127536676Y-107221982D02*
X127441438Y-107126744D01*
X127441438Y-107126744D02*
X127393819Y-106983887D01*
X127393819Y-106983887D02*
X127393819Y-106888649D01*
X127393819Y-106888649D02*
X127441438Y-106745792D01*
X127441438Y-106745792D02*
X127489057Y-106698173D01*
X128298580Y-105698173D02*
X128346200Y-105745792D01*
X128346200Y-105745792D02*
X128393819Y-105888649D01*
X128393819Y-105888649D02*
X128393819Y-105983887D01*
X128393819Y-105983887D02*
X128346200Y-106126744D01*
X128346200Y-106126744D02*
X128250961Y-106221982D01*
X128250961Y-106221982D02*
X128155723Y-106269601D01*
X128155723Y-106269601D02*
X127965247Y-106317220D01*
X127965247Y-106317220D02*
X127822390Y-106317220D01*
X127822390Y-106317220D02*
X127631914Y-106269601D01*
X127631914Y-106269601D02*
X127536676Y-106221982D01*
X127536676Y-106221982D02*
X127441438Y-106126744D01*
X127441438Y-106126744D02*
X127393819Y-105983887D01*
X127393819Y-105983887D02*
X127393819Y-105888649D01*
X127393819Y-105888649D02*
X127441438Y-105745792D01*
X127441438Y-105745792D02*
X127489057Y-105698173D01*
X136013819Y-108221982D02*
X135013819Y-108221982D01*
X135013819Y-108221982D02*
X135013819Y-107841030D01*
X135013819Y-107841030D02*
X135061438Y-107745792D01*
X135061438Y-107745792D02*
X135109057Y-107698173D01*
X135109057Y-107698173D02*
X135204295Y-107650554D01*
X135204295Y-107650554D02*
X135347152Y-107650554D01*
X135347152Y-107650554D02*
X135442390Y-107698173D01*
X135442390Y-107698173D02*
X135490009Y-107745792D01*
X135490009Y-107745792D02*
X135537628Y-107841030D01*
X135537628Y-107841030D02*
X135537628Y-108221982D01*
X135490009Y-106888649D02*
X135537628Y-106745792D01*
X135537628Y-106745792D02*
X135585247Y-106698173D01*
X135585247Y-106698173D02*
X135680485Y-106650554D01*
X135680485Y-106650554D02*
X135823342Y-106650554D01*
X135823342Y-106650554D02*
X135918580Y-106698173D01*
X135918580Y-106698173D02*
X135966200Y-106745792D01*
X135966200Y-106745792D02*
X136013819Y-106841030D01*
X136013819Y-106841030D02*
X136013819Y-107221982D01*
X136013819Y-107221982D02*
X135013819Y-107221982D01*
X135013819Y-107221982D02*
X135013819Y-106888649D01*
X135013819Y-106888649D02*
X135061438Y-106793411D01*
X135061438Y-106793411D02*
X135109057Y-106745792D01*
X135109057Y-106745792D02*
X135204295Y-106698173D01*
X135204295Y-106698173D02*
X135299533Y-106698173D01*
X135299533Y-106698173D02*
X135394771Y-106745792D01*
X135394771Y-106745792D02*
X135442390Y-106793411D01*
X135442390Y-106793411D02*
X135490009Y-106888649D01*
X135490009Y-106888649D02*
X135490009Y-107221982D01*
X135013819Y-106031506D02*
X135013819Y-105936268D01*
X135013819Y-105936268D02*
X135061438Y-105841030D01*
X135061438Y-105841030D02*
X135109057Y-105793411D01*
X135109057Y-105793411D02*
X135204295Y-105745792D01*
X135204295Y-105745792D02*
X135394771Y-105698173D01*
X135394771Y-105698173D02*
X135632866Y-105698173D01*
X135632866Y-105698173D02*
X135823342Y-105745792D01*
X135823342Y-105745792D02*
X135918580Y-105793411D01*
X135918580Y-105793411D02*
X135966200Y-105841030D01*
X135966200Y-105841030D02*
X136013819Y-105936268D01*
X136013819Y-105936268D02*
X136013819Y-106031506D01*
X136013819Y-106031506D02*
X135966200Y-106126744D01*
X135966200Y-106126744D02*
X135918580Y-106174363D01*
X135918580Y-106174363D02*
X135823342Y-106221982D01*
X135823342Y-106221982D02*
X135632866Y-106269601D01*
X135632866Y-106269601D02*
X135394771Y-106269601D01*
X135394771Y-106269601D02*
X135204295Y-106221982D01*
X135204295Y-106221982D02*
X135109057Y-106174363D01*
X135109057Y-106174363D02*
X135061438Y-106126744D01*
X135061438Y-106126744D02*
X135013819Y-106031506D01*
X133473819Y-124263220D02*
X132473819Y-124263220D01*
X132473819Y-124263220D02*
X132473819Y-123882268D01*
X132473819Y-123882268D02*
X132521438Y-123787030D01*
X132521438Y-123787030D02*
X132569057Y-123739411D01*
X132569057Y-123739411D02*
X132664295Y-123691792D01*
X132664295Y-123691792D02*
X132807152Y-123691792D01*
X132807152Y-123691792D02*
X132902390Y-123739411D01*
X132902390Y-123739411D02*
X132950009Y-123787030D01*
X132950009Y-123787030D02*
X132997628Y-123882268D01*
X132997628Y-123882268D02*
X132997628Y-124263220D01*
X133188104Y-123310839D02*
X133188104Y-122834649D01*
X133473819Y-123406077D02*
X132473819Y-123072744D01*
X132473819Y-123072744D02*
X133473819Y-122739411D01*
X132473819Y-121977506D02*
X132473819Y-122167982D01*
X132473819Y-122167982D02*
X132521438Y-122263220D01*
X132521438Y-122263220D02*
X132569057Y-122310839D01*
X132569057Y-122310839D02*
X132711914Y-122406077D01*
X132711914Y-122406077D02*
X132902390Y-122453696D01*
X132902390Y-122453696D02*
X133283342Y-122453696D01*
X133283342Y-122453696D02*
X133378580Y-122406077D01*
X133378580Y-122406077D02*
X133426200Y-122358458D01*
X133426200Y-122358458D02*
X133473819Y-122263220D01*
X133473819Y-122263220D02*
X133473819Y-122072744D01*
X133473819Y-122072744D02*
X133426200Y-121977506D01*
X133426200Y-121977506D02*
X133378580Y-121929887D01*
X133378580Y-121929887D02*
X133283342Y-121882268D01*
X133283342Y-121882268D02*
X133045247Y-121882268D01*
X133045247Y-121882268D02*
X132950009Y-121929887D01*
X132950009Y-121929887D02*
X132902390Y-121977506D01*
X132902390Y-121977506D02*
X132854771Y-122072744D01*
X132854771Y-122072744D02*
X132854771Y-122263220D01*
X132854771Y-122263220D02*
X132902390Y-122358458D01*
X132902390Y-122358458D02*
X132950009Y-122406077D01*
X132950009Y-122406077D02*
X133045247Y-122453696D01*
X133473819Y-108079125D02*
X132473819Y-108079125D01*
X132473819Y-108079125D02*
X132473819Y-107698173D01*
X132473819Y-107698173D02*
X132521438Y-107602935D01*
X132521438Y-107602935D02*
X132569057Y-107555316D01*
X132569057Y-107555316D02*
X132664295Y-107507697D01*
X132664295Y-107507697D02*
X132807152Y-107507697D01*
X132807152Y-107507697D02*
X132902390Y-107555316D01*
X132902390Y-107555316D02*
X132950009Y-107602935D01*
X132950009Y-107602935D02*
X132997628Y-107698173D01*
X132997628Y-107698173D02*
X132997628Y-108079125D01*
X133188104Y-107126744D02*
X133188104Y-106650554D01*
X133473819Y-107221982D02*
X132473819Y-106888649D01*
X132473819Y-106888649D02*
X133473819Y-106555316D01*
X132473819Y-106317220D02*
X132473819Y-105650554D01*
X132473819Y-105650554D02*
X133473819Y-106079125D01*
X151253819Y-109031506D02*
X150253819Y-109031506D01*
X150253819Y-109031506D02*
X151253819Y-108460078D01*
X151253819Y-108460078D02*
X150253819Y-108460078D01*
X151253819Y-107412459D02*
X150777628Y-107745792D01*
X151253819Y-107983887D02*
X150253819Y-107983887D01*
X150253819Y-107983887D02*
X150253819Y-107602935D01*
X150253819Y-107602935D02*
X150301438Y-107507697D01*
X150301438Y-107507697D02*
X150349057Y-107460078D01*
X150349057Y-107460078D02*
X150444295Y-107412459D01*
X150444295Y-107412459D02*
X150587152Y-107412459D01*
X150587152Y-107412459D02*
X150682390Y-107460078D01*
X150682390Y-107460078D02*
X150730009Y-107507697D01*
X150730009Y-107507697D02*
X150777628Y-107602935D01*
X150777628Y-107602935D02*
X150777628Y-107983887D01*
X151206200Y-107031506D02*
X151253819Y-106888649D01*
X151253819Y-106888649D02*
X151253819Y-106650554D01*
X151253819Y-106650554D02*
X151206200Y-106555316D01*
X151206200Y-106555316D02*
X151158580Y-106507697D01*
X151158580Y-106507697D02*
X151063342Y-106460078D01*
X151063342Y-106460078D02*
X150968104Y-106460078D01*
X150968104Y-106460078D02*
X150872866Y-106507697D01*
X150872866Y-106507697D02*
X150825247Y-106555316D01*
X150825247Y-106555316D02*
X150777628Y-106650554D01*
X150777628Y-106650554D02*
X150730009Y-106841030D01*
X150730009Y-106841030D02*
X150682390Y-106936268D01*
X150682390Y-106936268D02*
X150634771Y-106983887D01*
X150634771Y-106983887D02*
X150539533Y-107031506D01*
X150539533Y-107031506D02*
X150444295Y-107031506D01*
X150444295Y-107031506D02*
X150349057Y-106983887D01*
X150349057Y-106983887D02*
X150301438Y-106936268D01*
X150301438Y-106936268D02*
X150253819Y-106841030D01*
X150253819Y-106841030D02*
X150253819Y-106602935D01*
X150253819Y-106602935D02*
X150301438Y-106460078D01*
X150253819Y-106174363D02*
X150253819Y-105602935D01*
X151253819Y-105888649D02*
X150253819Y-105888649D01*
X140141438Y-123739411D02*
X140093819Y-123834649D01*
X140093819Y-123834649D02*
X140093819Y-123977506D01*
X140093819Y-123977506D02*
X140141438Y-124120363D01*
X140141438Y-124120363D02*
X140236676Y-124215601D01*
X140236676Y-124215601D02*
X140331914Y-124263220D01*
X140331914Y-124263220D02*
X140522390Y-124310839D01*
X140522390Y-124310839D02*
X140665247Y-124310839D01*
X140665247Y-124310839D02*
X140855723Y-124263220D01*
X140855723Y-124263220D02*
X140950961Y-124215601D01*
X140950961Y-124215601D02*
X141046200Y-124120363D01*
X141046200Y-124120363D02*
X141093819Y-123977506D01*
X141093819Y-123977506D02*
X141093819Y-123882268D01*
X141093819Y-123882268D02*
X141046200Y-123739411D01*
X141046200Y-123739411D02*
X140998580Y-123691792D01*
X140998580Y-123691792D02*
X140665247Y-123691792D01*
X140665247Y-123691792D02*
X140665247Y-123882268D01*
X141093819Y-123263220D02*
X140093819Y-123263220D01*
X140093819Y-123263220D02*
X141093819Y-122691792D01*
X141093819Y-122691792D02*
X140093819Y-122691792D01*
X141093819Y-122215601D02*
X140093819Y-122215601D01*
X140093819Y-122215601D02*
X140093819Y-121977506D01*
X140093819Y-121977506D02*
X140141438Y-121834649D01*
X140141438Y-121834649D02*
X140236676Y-121739411D01*
X140236676Y-121739411D02*
X140331914Y-121691792D01*
X140331914Y-121691792D02*
X140522390Y-121644173D01*
X140522390Y-121644173D02*
X140665247Y-121644173D01*
X140665247Y-121644173D02*
X140855723Y-121691792D01*
X140855723Y-121691792D02*
X140950961Y-121739411D01*
X140950961Y-121739411D02*
X141046200Y-121834649D01*
X141046200Y-121834649D02*
X141093819Y-121977506D01*
X141093819Y-121977506D02*
X141093819Y-122215601D01*
X122152380Y-119654819D02*
X121580952Y-119654819D01*
X121866666Y-119654819D02*
X121866666Y-118654819D01*
X121866666Y-118654819D02*
X121771428Y-118797676D01*
X121771428Y-118797676D02*
X121676190Y-118892914D01*
X121676190Y-118892914D02*
X121580952Y-118940533D01*
X122771428Y-118654819D02*
X122866666Y-118654819D01*
X122866666Y-118654819D02*
X122961904Y-118702438D01*
X122961904Y-118702438D02*
X123009523Y-118750057D01*
X123009523Y-118750057D02*
X123057142Y-118845295D01*
X123057142Y-118845295D02*
X123104761Y-119035771D01*
X123104761Y-119035771D02*
X123104761Y-119273866D01*
X123104761Y-119273866D02*
X123057142Y-119464342D01*
X123057142Y-119464342D02*
X123009523Y-119559580D01*
X123009523Y-119559580D02*
X122961904Y-119607200D01*
X122961904Y-119607200D02*
X122866666Y-119654819D01*
X122866666Y-119654819D02*
X122771428Y-119654819D01*
X122771428Y-119654819D02*
X122676190Y-119607200D01*
X122676190Y-119607200D02*
X122628571Y-119559580D01*
X122628571Y-119559580D02*
X122580952Y-119464342D01*
X122580952Y-119464342D02*
X122533333Y-119273866D01*
X122533333Y-119273866D02*
X122533333Y-119035771D01*
X122533333Y-119035771D02*
X122580952Y-118845295D01*
X122580952Y-118845295D02*
X122628571Y-118750057D01*
X122628571Y-118750057D02*
X122676190Y-118702438D01*
X122676190Y-118702438D02*
X122771428Y-118654819D01*
X123723809Y-118654819D02*
X123819047Y-118654819D01*
X123819047Y-118654819D02*
X123914285Y-118702438D01*
X123914285Y-118702438D02*
X123961904Y-118750057D01*
X123961904Y-118750057D02*
X124009523Y-118845295D01*
X124009523Y-118845295D02*
X124057142Y-119035771D01*
X124057142Y-119035771D02*
X124057142Y-119273866D01*
X124057142Y-119273866D02*
X124009523Y-119464342D01*
X124009523Y-119464342D02*
X123961904Y-119559580D01*
X123961904Y-119559580D02*
X123914285Y-119607200D01*
X123914285Y-119607200D02*
X123819047Y-119654819D01*
X123819047Y-119654819D02*
X123723809Y-119654819D01*
X123723809Y-119654819D02*
X123628571Y-119607200D01*
X123628571Y-119607200D02*
X123580952Y-119559580D01*
X123580952Y-119559580D02*
X123533333Y-119464342D01*
X123533333Y-119464342D02*
X123485714Y-119273866D01*
X123485714Y-119273866D02*
X123485714Y-119035771D01*
X123485714Y-119035771D02*
X123533333Y-118845295D01*
X123533333Y-118845295D02*
X123580952Y-118750057D01*
X123580952Y-118750057D02*
X123628571Y-118702438D01*
X123628571Y-118702438D02*
X123723809Y-118654819D01*
X124485714Y-118988152D02*
X124485714Y-119654819D01*
X124485714Y-119083390D02*
X124533333Y-119035771D01*
X124533333Y-119035771D02*
X124628571Y-118988152D01*
X124628571Y-118988152D02*
X124771428Y-118988152D01*
X124771428Y-118988152D02*
X124866666Y-119035771D01*
X124866666Y-119035771D02*
X124914285Y-119131009D01*
X124914285Y-119131009D02*
X124914285Y-119654819D01*
X125723809Y-119131009D02*
X125390476Y-119131009D01*
X125390476Y-119654819D02*
X125390476Y-118654819D01*
X125390476Y-118654819D02*
X125866666Y-118654819D01*
X102492857Y-101952438D02*
X103159524Y-101952438D01*
X102492857Y-102904819D02*
X103207143Y-102904819D01*
X102826190Y-101952438D02*
X102826190Y-102904819D01*
X102064286Y-102095295D02*
X102016667Y-102285771D01*
X102254762Y-102285771D02*
X101969048Y-102619104D01*
X102254762Y-101809580D02*
X102064286Y-102190533D01*
X102397619Y-102571485D02*
X101969048Y-102619104D01*
X102397619Y-102809580D02*
X101969048Y-102857200D01*
X102397619Y-102095295D02*
X102302381Y-102238152D01*
X102302381Y-102238152D02*
X101969048Y-102285771D01*
X104016666Y-101904819D02*
X104683333Y-101904819D01*
X104111904Y-102904819D02*
X104397619Y-102904819D01*
X104397619Y-101904819D02*
X104397619Y-102904819D01*
X103921428Y-102047676D02*
X103826190Y-102238152D01*
X103540476Y-102047676D02*
X103492857Y-102285771D01*
X103683333Y-101761961D02*
X103683333Y-102333390D01*
X103683333Y-102333390D02*
X103683333Y-102571485D01*
X103683333Y-102571485D02*
X103492857Y-102857200D01*
X103683333Y-102523866D02*
X103921428Y-102714342D01*
X105288095Y-109654819D02*
X104716667Y-109654819D01*
X105002381Y-109654819D02*
X105002381Y-108654819D01*
X105002381Y-108654819D02*
X104907143Y-108797676D01*
X104907143Y-108797676D02*
X104811905Y-108892914D01*
X104811905Y-108892914D02*
X104716667Y-108940533D01*
X105907143Y-108654819D02*
X106002381Y-108654819D01*
X106002381Y-108654819D02*
X106097619Y-108702438D01*
X106097619Y-108702438D02*
X106145238Y-108750057D01*
X106145238Y-108750057D02*
X106192857Y-108845295D01*
X106192857Y-108845295D02*
X106240476Y-109035771D01*
X106240476Y-109035771D02*
X106240476Y-109273866D01*
X106240476Y-109273866D02*
X106192857Y-109464342D01*
X106192857Y-109464342D02*
X106145238Y-109559580D01*
X106145238Y-109559580D02*
X106097619Y-109607200D01*
X106097619Y-109607200D02*
X106002381Y-109654819D01*
X106002381Y-109654819D02*
X105907143Y-109654819D01*
X105907143Y-109654819D02*
X105811905Y-109607200D01*
X105811905Y-109607200D02*
X105764286Y-109559580D01*
X105764286Y-109559580D02*
X105716667Y-109464342D01*
X105716667Y-109464342D02*
X105669048Y-109273866D01*
X105669048Y-109273866D02*
X105669048Y-109035771D01*
X105669048Y-109035771D02*
X105716667Y-108845295D01*
X105716667Y-108845295D02*
X105764286Y-108750057D01*
X105764286Y-108750057D02*
X105811905Y-108702438D01*
X105811905Y-108702438D02*
X105907143Y-108654819D01*
X106669048Y-109654819D02*
X106669048Y-108654819D01*
X107240476Y-109654819D02*
X106811905Y-109083390D01*
X107240476Y-108654819D02*
X106669048Y-109226247D01*
X107621429Y-109654819D02*
X107859524Y-109654819D01*
X107859524Y-109654819D02*
X107859524Y-109464342D01*
X107859524Y-109464342D02*
X107764286Y-109416723D01*
X107764286Y-109416723D02*
X107669048Y-109321485D01*
X107669048Y-109321485D02*
X107621429Y-109178628D01*
X107621429Y-109178628D02*
X107621429Y-108940533D01*
X107621429Y-108940533D02*
X107669048Y-108797676D01*
X107669048Y-108797676D02*
X107764286Y-108702438D01*
X107764286Y-108702438D02*
X107907143Y-108654819D01*
X107907143Y-108654819D02*
X108097619Y-108654819D01*
X108097619Y-108654819D02*
X108240476Y-108702438D01*
X108240476Y-108702438D02*
X108335714Y-108797676D01*
X108335714Y-108797676D02*
X108383333Y-108940533D01*
X108383333Y-108940533D02*
X108383333Y-109178628D01*
X108383333Y-109178628D02*
X108335714Y-109321485D01*
X108335714Y-109321485D02*
X108240476Y-109416723D01*
X108240476Y-109416723D02*
X108145238Y-109464342D01*
X108145238Y-109464342D02*
X108145238Y-109654819D01*
X108145238Y-109654819D02*
X108383333Y-109654819D01*
X106690476Y-102047676D02*
X107214286Y-102047676D01*
X106642857Y-102238152D02*
X107357143Y-102238152D01*
X106833333Y-102904819D02*
X106976190Y-102904819D01*
X106976190Y-102238152D02*
X106976190Y-102904819D01*
X106690476Y-101857200D02*
X107214286Y-101857200D01*
X107214286Y-101857200D02*
X107261905Y-102238152D01*
X106690476Y-102381009D02*
X106833333Y-102523866D01*
X106976190Y-102476247D02*
X107261905Y-102761961D01*
X107166667Y-102476247D02*
X107071429Y-102571485D01*
X107309524Y-102381009D02*
X107119048Y-102523866D01*
X106357143Y-102285771D02*
X106119048Y-102523866D01*
X106357143Y-101761961D02*
X106166667Y-102238152D01*
X106928571Y-102619104D02*
X106642857Y-102761961D01*
X106500000Y-102714342D02*
X106119048Y-102809580D01*
X106452381Y-102095295D02*
X106404762Y-102238152D01*
X106404762Y-102238152D02*
X106119048Y-102238152D01*
X106452381Y-102476247D02*
X106119048Y-102571485D01*
X108166666Y-101904819D02*
X108833333Y-101904819D01*
X108261904Y-102904819D02*
X108547619Y-102904819D01*
X108547619Y-101904819D02*
X108547619Y-102904819D01*
X108071428Y-102047676D02*
X107976190Y-102238152D01*
X107690476Y-102047676D02*
X107642857Y-102285771D01*
X107833333Y-101761961D02*
X107833333Y-102333390D01*
X107833333Y-102333390D02*
X107833333Y-102571485D01*
X107833333Y-102571485D02*
X107642857Y-102857200D01*
X107833333Y-102523866D02*
X108071428Y-102714342D01*
X101352381Y-120404819D02*
X100876191Y-120404819D01*
X100876191Y-120404819D02*
X100828572Y-120881009D01*
X100828572Y-120881009D02*
X100876191Y-120833390D01*
X100876191Y-120833390D02*
X100971429Y-120785771D01*
X100971429Y-120785771D02*
X101209524Y-120785771D01*
X101209524Y-120785771D02*
X101304762Y-120833390D01*
X101304762Y-120833390D02*
X101352381Y-120881009D01*
X101352381Y-120881009D02*
X101400000Y-120976247D01*
X101400000Y-120976247D02*
X101400000Y-121214342D01*
X101400000Y-121214342D02*
X101352381Y-121309580D01*
X101352381Y-121309580D02*
X101304762Y-121357200D01*
X101304762Y-121357200D02*
X101209524Y-121404819D01*
X101209524Y-121404819D02*
X100971429Y-121404819D01*
X100971429Y-121404819D02*
X100876191Y-121357200D01*
X100876191Y-121357200D02*
X100828572Y-121309580D01*
X101828572Y-121309580D02*
X101876191Y-121357200D01*
X101876191Y-121357200D02*
X101828572Y-121404819D01*
X101828572Y-121404819D02*
X101780953Y-121357200D01*
X101780953Y-121357200D02*
X101828572Y-121309580D01*
X101828572Y-121309580D02*
X101828572Y-121404819D01*
X102828571Y-121404819D02*
X102257143Y-121404819D01*
X102542857Y-121404819D02*
X102542857Y-120404819D01*
X102542857Y-120404819D02*
X102447619Y-120547676D01*
X102447619Y-120547676D02*
X102352381Y-120642914D01*
X102352381Y-120642914D02*
X102257143Y-120690533D01*
X103257143Y-121404819D02*
X103257143Y-120404819D01*
X103828571Y-121404819D02*
X103400000Y-120833390D01*
X103828571Y-120404819D02*
X103257143Y-120976247D01*
X104209524Y-121404819D02*
X104447619Y-121404819D01*
X104447619Y-121404819D02*
X104447619Y-121214342D01*
X104447619Y-121214342D02*
X104352381Y-121166723D01*
X104352381Y-121166723D02*
X104257143Y-121071485D01*
X104257143Y-121071485D02*
X104209524Y-120928628D01*
X104209524Y-120928628D02*
X104209524Y-120690533D01*
X104209524Y-120690533D02*
X104257143Y-120547676D01*
X104257143Y-120547676D02*
X104352381Y-120452438D01*
X104352381Y-120452438D02*
X104495238Y-120404819D01*
X104495238Y-120404819D02*
X104685714Y-120404819D01*
X104685714Y-120404819D02*
X104828571Y-120452438D01*
X104828571Y-120452438D02*
X104923809Y-120547676D01*
X104923809Y-120547676D02*
X104971428Y-120690533D01*
X104971428Y-120690533D02*
X104971428Y-120928628D01*
X104971428Y-120928628D02*
X104923809Y-121071485D01*
X104923809Y-121071485D02*
X104828571Y-121166723D01*
X104828571Y-121166723D02*
X104733333Y-121214342D01*
X104733333Y-121214342D02*
X104733333Y-121404819D01*
X104733333Y-121404819D02*
X104971428Y-121404819D01*
X101352381Y-124454819D02*
X100876191Y-124454819D01*
X100876191Y-124454819D02*
X100828572Y-124931009D01*
X100828572Y-124931009D02*
X100876191Y-124883390D01*
X100876191Y-124883390D02*
X100971429Y-124835771D01*
X100971429Y-124835771D02*
X101209524Y-124835771D01*
X101209524Y-124835771D02*
X101304762Y-124883390D01*
X101304762Y-124883390D02*
X101352381Y-124931009D01*
X101352381Y-124931009D02*
X101400000Y-125026247D01*
X101400000Y-125026247D02*
X101400000Y-125264342D01*
X101400000Y-125264342D02*
X101352381Y-125359580D01*
X101352381Y-125359580D02*
X101304762Y-125407200D01*
X101304762Y-125407200D02*
X101209524Y-125454819D01*
X101209524Y-125454819D02*
X100971429Y-125454819D01*
X100971429Y-125454819D02*
X100876191Y-125407200D01*
X100876191Y-125407200D02*
X100828572Y-125359580D01*
X101828572Y-125359580D02*
X101876191Y-125407200D01*
X101876191Y-125407200D02*
X101828572Y-125454819D01*
X101828572Y-125454819D02*
X101780953Y-125407200D01*
X101780953Y-125407200D02*
X101828572Y-125359580D01*
X101828572Y-125359580D02*
X101828572Y-125454819D01*
X102828571Y-125454819D02*
X102257143Y-125454819D01*
X102542857Y-125454819D02*
X102542857Y-124454819D01*
X102542857Y-124454819D02*
X102447619Y-124597676D01*
X102447619Y-124597676D02*
X102352381Y-124692914D01*
X102352381Y-124692914D02*
X102257143Y-124740533D01*
X103257143Y-125454819D02*
X103257143Y-124454819D01*
X103828571Y-125454819D02*
X103400000Y-124883390D01*
X103828571Y-124454819D02*
X103257143Y-125026247D01*
X104209524Y-125454819D02*
X104447619Y-125454819D01*
X104447619Y-125454819D02*
X104447619Y-125264342D01*
X104447619Y-125264342D02*
X104352381Y-125216723D01*
X104352381Y-125216723D02*
X104257143Y-125121485D01*
X104257143Y-125121485D02*
X104209524Y-124978628D01*
X104209524Y-124978628D02*
X104209524Y-124740533D01*
X104209524Y-124740533D02*
X104257143Y-124597676D01*
X104257143Y-124597676D02*
X104352381Y-124502438D01*
X104352381Y-124502438D02*
X104495238Y-124454819D01*
X104495238Y-124454819D02*
X104685714Y-124454819D01*
X104685714Y-124454819D02*
X104828571Y-124502438D01*
X104828571Y-124502438D02*
X104923809Y-124597676D01*
X104923809Y-124597676D02*
X104971428Y-124740533D01*
X104971428Y-124740533D02*
X104971428Y-124978628D01*
X104971428Y-124978628D02*
X104923809Y-125121485D01*
X104923809Y-125121485D02*
X104828571Y-125216723D01*
X104828571Y-125216723D02*
X104733333Y-125264342D01*
X104733333Y-125264342D02*
X104733333Y-125454819D01*
X104733333Y-125454819D02*
X104971428Y-125454819D01*
X109978571Y-119654819D02*
X109407143Y-119654819D01*
X109692857Y-119654819D02*
X109692857Y-118654819D01*
X109692857Y-118654819D02*
X109597619Y-118797676D01*
X109597619Y-118797676D02*
X109502381Y-118892914D01*
X109502381Y-118892914D02*
X109407143Y-118940533D01*
X110597619Y-118654819D02*
X110692857Y-118654819D01*
X110692857Y-118654819D02*
X110788095Y-118702438D01*
X110788095Y-118702438D02*
X110835714Y-118750057D01*
X110835714Y-118750057D02*
X110883333Y-118845295D01*
X110883333Y-118845295D02*
X110930952Y-119035771D01*
X110930952Y-119035771D02*
X110930952Y-119273866D01*
X110930952Y-119273866D02*
X110883333Y-119464342D01*
X110883333Y-119464342D02*
X110835714Y-119559580D01*
X110835714Y-119559580D02*
X110788095Y-119607200D01*
X110788095Y-119607200D02*
X110692857Y-119654819D01*
X110692857Y-119654819D02*
X110597619Y-119654819D01*
X110597619Y-119654819D02*
X110502381Y-119607200D01*
X110502381Y-119607200D02*
X110454762Y-119559580D01*
X110454762Y-119559580D02*
X110407143Y-119464342D01*
X110407143Y-119464342D02*
X110359524Y-119273866D01*
X110359524Y-119273866D02*
X110359524Y-119035771D01*
X110359524Y-119035771D02*
X110407143Y-118845295D01*
X110407143Y-118845295D02*
X110454762Y-118750057D01*
X110454762Y-118750057D02*
X110502381Y-118702438D01*
X110502381Y-118702438D02*
X110597619Y-118654819D01*
X111788095Y-118988152D02*
X111788095Y-119654819D01*
X111359524Y-118988152D02*
X111359524Y-119511961D01*
X111359524Y-119511961D02*
X111407143Y-119607200D01*
X111407143Y-119607200D02*
X111502381Y-119654819D01*
X111502381Y-119654819D02*
X111645238Y-119654819D01*
X111645238Y-119654819D02*
X111740476Y-119607200D01*
X111740476Y-119607200D02*
X111788095Y-119559580D01*
X112597619Y-119131009D02*
X112264286Y-119131009D01*
X112264286Y-119654819D02*
X112264286Y-118654819D01*
X112264286Y-118654819D02*
X112740476Y-118654819D01*
X114202380Y-119654819D02*
X113630952Y-119654819D01*
X113916666Y-119654819D02*
X113916666Y-118654819D01*
X113916666Y-118654819D02*
X113821428Y-118797676D01*
X113821428Y-118797676D02*
X113726190Y-118892914D01*
X113726190Y-118892914D02*
X113630952Y-118940533D01*
X114821428Y-118654819D02*
X114916666Y-118654819D01*
X114916666Y-118654819D02*
X115011904Y-118702438D01*
X115011904Y-118702438D02*
X115059523Y-118750057D01*
X115059523Y-118750057D02*
X115107142Y-118845295D01*
X115107142Y-118845295D02*
X115154761Y-119035771D01*
X115154761Y-119035771D02*
X115154761Y-119273866D01*
X115154761Y-119273866D02*
X115107142Y-119464342D01*
X115107142Y-119464342D02*
X115059523Y-119559580D01*
X115059523Y-119559580D02*
X115011904Y-119607200D01*
X115011904Y-119607200D02*
X114916666Y-119654819D01*
X114916666Y-119654819D02*
X114821428Y-119654819D01*
X114821428Y-119654819D02*
X114726190Y-119607200D01*
X114726190Y-119607200D02*
X114678571Y-119559580D01*
X114678571Y-119559580D02*
X114630952Y-119464342D01*
X114630952Y-119464342D02*
X114583333Y-119273866D01*
X114583333Y-119273866D02*
X114583333Y-119035771D01*
X114583333Y-119035771D02*
X114630952Y-118845295D01*
X114630952Y-118845295D02*
X114678571Y-118750057D01*
X114678571Y-118750057D02*
X114726190Y-118702438D01*
X114726190Y-118702438D02*
X114821428Y-118654819D01*
X115773809Y-118654819D02*
X115869047Y-118654819D01*
X115869047Y-118654819D02*
X115964285Y-118702438D01*
X115964285Y-118702438D02*
X116011904Y-118750057D01*
X116011904Y-118750057D02*
X116059523Y-118845295D01*
X116059523Y-118845295D02*
X116107142Y-119035771D01*
X116107142Y-119035771D02*
X116107142Y-119273866D01*
X116107142Y-119273866D02*
X116059523Y-119464342D01*
X116059523Y-119464342D02*
X116011904Y-119559580D01*
X116011904Y-119559580D02*
X115964285Y-119607200D01*
X115964285Y-119607200D02*
X115869047Y-119654819D01*
X115869047Y-119654819D02*
X115773809Y-119654819D01*
X115773809Y-119654819D02*
X115678571Y-119607200D01*
X115678571Y-119607200D02*
X115630952Y-119559580D01*
X115630952Y-119559580D02*
X115583333Y-119464342D01*
X115583333Y-119464342D02*
X115535714Y-119273866D01*
X115535714Y-119273866D02*
X115535714Y-119035771D01*
X115535714Y-119035771D02*
X115583333Y-118845295D01*
X115583333Y-118845295D02*
X115630952Y-118750057D01*
X115630952Y-118750057D02*
X115678571Y-118702438D01*
X115678571Y-118702438D02*
X115773809Y-118654819D01*
X116535714Y-118988152D02*
X116535714Y-119654819D01*
X116535714Y-119083390D02*
X116583333Y-119035771D01*
X116583333Y-119035771D02*
X116678571Y-118988152D01*
X116678571Y-118988152D02*
X116821428Y-118988152D01*
X116821428Y-118988152D02*
X116916666Y-119035771D01*
X116916666Y-119035771D02*
X116964285Y-119131009D01*
X116964285Y-119131009D02*
X116964285Y-119654819D01*
X117773809Y-119131009D02*
X117440476Y-119131009D01*
X117440476Y-119654819D02*
X117440476Y-118654819D01*
X117440476Y-118654819D02*
X117916666Y-118654819D01*
X114133333Y-102904819D02*
X113561905Y-102904819D01*
X113847619Y-102904819D02*
X113847619Y-101904819D01*
X113847619Y-101904819D02*
X113752381Y-102047676D01*
X113752381Y-102047676D02*
X113657143Y-102142914D01*
X113657143Y-102142914D02*
X113561905Y-102190533D01*
X114752381Y-101904819D02*
X114847619Y-101904819D01*
X114847619Y-101904819D02*
X114942857Y-101952438D01*
X114942857Y-101952438D02*
X114990476Y-102000057D01*
X114990476Y-102000057D02*
X115038095Y-102095295D01*
X115038095Y-102095295D02*
X115085714Y-102285771D01*
X115085714Y-102285771D02*
X115085714Y-102523866D01*
X115085714Y-102523866D02*
X115038095Y-102714342D01*
X115038095Y-102714342D02*
X114990476Y-102809580D01*
X114990476Y-102809580D02*
X114942857Y-102857200D01*
X114942857Y-102857200D02*
X114847619Y-102904819D01*
X114847619Y-102904819D02*
X114752381Y-102904819D01*
X114752381Y-102904819D02*
X114657143Y-102857200D01*
X114657143Y-102857200D02*
X114609524Y-102809580D01*
X114609524Y-102809580D02*
X114561905Y-102714342D01*
X114561905Y-102714342D02*
X114514286Y-102523866D01*
X114514286Y-102523866D02*
X114514286Y-102285771D01*
X114514286Y-102285771D02*
X114561905Y-102095295D01*
X114561905Y-102095295D02*
X114609524Y-102000057D01*
X114609524Y-102000057D02*
X114657143Y-101952438D01*
X114657143Y-101952438D02*
X114752381Y-101904819D01*
X115514286Y-102904819D02*
X115514286Y-101904819D01*
X115609524Y-102523866D02*
X115895238Y-102904819D01*
X115895238Y-102238152D02*
X115514286Y-102619104D01*
X116276191Y-102904819D02*
X116514286Y-102904819D01*
X116514286Y-102904819D02*
X116514286Y-102714342D01*
X116514286Y-102714342D02*
X116419048Y-102666723D01*
X116419048Y-102666723D02*
X116323810Y-102571485D01*
X116323810Y-102571485D02*
X116276191Y-102428628D01*
X116276191Y-102428628D02*
X116276191Y-102190533D01*
X116276191Y-102190533D02*
X116323810Y-102047676D01*
X116323810Y-102047676D02*
X116419048Y-101952438D01*
X116419048Y-101952438D02*
X116561905Y-101904819D01*
X116561905Y-101904819D02*
X116752381Y-101904819D01*
X116752381Y-101904819D02*
X116895238Y-101952438D01*
X116895238Y-101952438D02*
X116990476Y-102047676D01*
X116990476Y-102047676D02*
X117038095Y-102190533D01*
X117038095Y-102190533D02*
X117038095Y-102428628D01*
X117038095Y-102428628D02*
X116990476Y-102571485D01*
X116990476Y-102571485D02*
X116895238Y-102666723D01*
X116895238Y-102666723D02*
X116800000Y-102714342D01*
X116800000Y-102714342D02*
X116800000Y-102904819D01*
X116800000Y-102904819D02*
X117038095Y-102904819D01*
X163185714Y-125304819D02*
X163804761Y-125304819D01*
X163804761Y-125304819D02*
X163471428Y-125685771D01*
X163471428Y-125685771D02*
X163614285Y-125685771D01*
X163614285Y-125685771D02*
X163709523Y-125733390D01*
X163709523Y-125733390D02*
X163757142Y-125781009D01*
X163757142Y-125781009D02*
X163804761Y-125876247D01*
X163804761Y-125876247D02*
X163804761Y-126114342D01*
X163804761Y-126114342D02*
X163757142Y-126209580D01*
X163757142Y-126209580D02*
X163709523Y-126257200D01*
X163709523Y-126257200D02*
X163614285Y-126304819D01*
X163614285Y-126304819D02*
X163328571Y-126304819D01*
X163328571Y-126304819D02*
X163233333Y-126257200D01*
X163233333Y-126257200D02*
X163185714Y-126209580D01*
X164423809Y-125304819D02*
X164519047Y-125304819D01*
X164519047Y-125304819D02*
X164614285Y-125352438D01*
X164614285Y-125352438D02*
X164661904Y-125400057D01*
X164661904Y-125400057D02*
X164709523Y-125495295D01*
X164709523Y-125495295D02*
X164757142Y-125685771D01*
X164757142Y-125685771D02*
X164757142Y-125923866D01*
X164757142Y-125923866D02*
X164709523Y-126114342D01*
X164709523Y-126114342D02*
X164661904Y-126209580D01*
X164661904Y-126209580D02*
X164614285Y-126257200D01*
X164614285Y-126257200D02*
X164519047Y-126304819D01*
X164519047Y-126304819D02*
X164423809Y-126304819D01*
X164423809Y-126304819D02*
X164328571Y-126257200D01*
X164328571Y-126257200D02*
X164280952Y-126209580D01*
X164280952Y-126209580D02*
X164233333Y-126114342D01*
X164233333Y-126114342D02*
X164185714Y-125923866D01*
X164185714Y-125923866D02*
X164185714Y-125685771D01*
X164185714Y-125685771D02*
X164233333Y-125495295D01*
X164233333Y-125495295D02*
X164280952Y-125400057D01*
X164280952Y-125400057D02*
X164328571Y-125352438D01*
X164328571Y-125352438D02*
X164423809Y-125304819D01*
X165185714Y-125638152D02*
X165185714Y-126638152D01*
X165185714Y-125685771D02*
X165280952Y-125638152D01*
X165280952Y-125638152D02*
X165471428Y-125638152D01*
X165471428Y-125638152D02*
X165566666Y-125685771D01*
X165566666Y-125685771D02*
X165614285Y-125733390D01*
X165614285Y-125733390D02*
X165661904Y-125828628D01*
X165661904Y-125828628D02*
X165661904Y-126114342D01*
X165661904Y-126114342D02*
X165614285Y-126209580D01*
X165614285Y-126209580D02*
X165566666Y-126257200D01*
X165566666Y-126257200D02*
X165471428Y-126304819D01*
X165471428Y-126304819D02*
X165280952Y-126304819D01*
X165280952Y-126304819D02*
X165185714Y-126257200D01*
X166423809Y-125781009D02*
X166090476Y-125781009D01*
X166090476Y-126304819D02*
X166090476Y-125304819D01*
X166090476Y-125304819D02*
X166566666Y-125304819D01*
X113538095Y-109654819D02*
X112966667Y-109654819D01*
X113252381Y-109654819D02*
X113252381Y-108654819D01*
X113252381Y-108654819D02*
X113157143Y-108797676D01*
X113157143Y-108797676D02*
X113061905Y-108892914D01*
X113061905Y-108892914D02*
X112966667Y-108940533D01*
X114157143Y-108654819D02*
X114252381Y-108654819D01*
X114252381Y-108654819D02*
X114347619Y-108702438D01*
X114347619Y-108702438D02*
X114395238Y-108750057D01*
X114395238Y-108750057D02*
X114442857Y-108845295D01*
X114442857Y-108845295D02*
X114490476Y-109035771D01*
X114490476Y-109035771D02*
X114490476Y-109273866D01*
X114490476Y-109273866D02*
X114442857Y-109464342D01*
X114442857Y-109464342D02*
X114395238Y-109559580D01*
X114395238Y-109559580D02*
X114347619Y-109607200D01*
X114347619Y-109607200D02*
X114252381Y-109654819D01*
X114252381Y-109654819D02*
X114157143Y-109654819D01*
X114157143Y-109654819D02*
X114061905Y-109607200D01*
X114061905Y-109607200D02*
X114014286Y-109559580D01*
X114014286Y-109559580D02*
X113966667Y-109464342D01*
X113966667Y-109464342D02*
X113919048Y-109273866D01*
X113919048Y-109273866D02*
X113919048Y-109035771D01*
X113919048Y-109035771D02*
X113966667Y-108845295D01*
X113966667Y-108845295D02*
X114014286Y-108750057D01*
X114014286Y-108750057D02*
X114061905Y-108702438D01*
X114061905Y-108702438D02*
X114157143Y-108654819D01*
X114919048Y-109654819D02*
X114919048Y-108654819D01*
X115490476Y-109654819D02*
X115061905Y-109083390D01*
X115490476Y-108654819D02*
X114919048Y-109226247D01*
X115871429Y-109654819D02*
X116109524Y-109654819D01*
X116109524Y-109654819D02*
X116109524Y-109464342D01*
X116109524Y-109464342D02*
X116014286Y-109416723D01*
X116014286Y-109416723D02*
X115919048Y-109321485D01*
X115919048Y-109321485D02*
X115871429Y-109178628D01*
X115871429Y-109178628D02*
X115871429Y-108940533D01*
X115871429Y-108940533D02*
X115919048Y-108797676D01*
X115919048Y-108797676D02*
X116014286Y-108702438D01*
X116014286Y-108702438D02*
X116157143Y-108654819D01*
X116157143Y-108654819D02*
X116347619Y-108654819D01*
X116347619Y-108654819D02*
X116490476Y-108702438D01*
X116490476Y-108702438D02*
X116585714Y-108797676D01*
X116585714Y-108797676D02*
X116633333Y-108940533D01*
X116633333Y-108940533D02*
X116633333Y-109178628D01*
X116633333Y-109178628D02*
X116585714Y-109321485D01*
X116585714Y-109321485D02*
X116490476Y-109416723D01*
X116490476Y-109416723D02*
X116395238Y-109464342D01*
X116395238Y-109464342D02*
X116395238Y-109654819D01*
X116395238Y-109654819D02*
X116633333Y-109654819D01*
X122983333Y-127604819D02*
X122411905Y-127604819D01*
X122697619Y-127604819D02*
X122697619Y-126604819D01*
X122697619Y-126604819D02*
X122602381Y-126747676D01*
X122602381Y-126747676D02*
X122507143Y-126842914D01*
X122507143Y-126842914D02*
X122411905Y-126890533D01*
X123602381Y-126604819D02*
X123697619Y-126604819D01*
X123697619Y-126604819D02*
X123792857Y-126652438D01*
X123792857Y-126652438D02*
X123840476Y-126700057D01*
X123840476Y-126700057D02*
X123888095Y-126795295D01*
X123888095Y-126795295D02*
X123935714Y-126985771D01*
X123935714Y-126985771D02*
X123935714Y-127223866D01*
X123935714Y-127223866D02*
X123888095Y-127414342D01*
X123888095Y-127414342D02*
X123840476Y-127509580D01*
X123840476Y-127509580D02*
X123792857Y-127557200D01*
X123792857Y-127557200D02*
X123697619Y-127604819D01*
X123697619Y-127604819D02*
X123602381Y-127604819D01*
X123602381Y-127604819D02*
X123507143Y-127557200D01*
X123507143Y-127557200D02*
X123459524Y-127509580D01*
X123459524Y-127509580D02*
X123411905Y-127414342D01*
X123411905Y-127414342D02*
X123364286Y-127223866D01*
X123364286Y-127223866D02*
X123364286Y-126985771D01*
X123364286Y-126985771D02*
X123411905Y-126795295D01*
X123411905Y-126795295D02*
X123459524Y-126700057D01*
X123459524Y-126700057D02*
X123507143Y-126652438D01*
X123507143Y-126652438D02*
X123602381Y-126604819D01*
X124364286Y-127604819D02*
X124364286Y-126604819D01*
X124459524Y-127223866D02*
X124745238Y-127604819D01*
X124745238Y-126938152D02*
X124364286Y-127319104D01*
X125126191Y-127604819D02*
X125364286Y-127604819D01*
X125364286Y-127604819D02*
X125364286Y-127414342D01*
X125364286Y-127414342D02*
X125269048Y-127366723D01*
X125269048Y-127366723D02*
X125173810Y-127271485D01*
X125173810Y-127271485D02*
X125126191Y-127128628D01*
X125126191Y-127128628D02*
X125126191Y-126890533D01*
X125126191Y-126890533D02*
X125173810Y-126747676D01*
X125173810Y-126747676D02*
X125269048Y-126652438D01*
X125269048Y-126652438D02*
X125411905Y-126604819D01*
X125411905Y-126604819D02*
X125602381Y-126604819D01*
X125602381Y-126604819D02*
X125745238Y-126652438D01*
X125745238Y-126652438D02*
X125840476Y-126747676D01*
X125840476Y-126747676D02*
X125888095Y-126890533D01*
X125888095Y-126890533D02*
X125888095Y-127128628D01*
X125888095Y-127128628D02*
X125840476Y-127271485D01*
X125840476Y-127271485D02*
X125745238Y-127366723D01*
X125745238Y-127366723D02*
X125650000Y-127414342D01*
X125650000Y-127414342D02*
X125650000Y-127604819D01*
X125650000Y-127604819D02*
X125888095Y-127604819D01*
X162852380Y-107904819D02*
X162280952Y-107904819D01*
X162566666Y-107904819D02*
X162566666Y-106904819D01*
X162566666Y-106904819D02*
X162471428Y-107047676D01*
X162471428Y-107047676D02*
X162376190Y-107142914D01*
X162376190Y-107142914D02*
X162280952Y-107190533D01*
X163471428Y-106904819D02*
X163566666Y-106904819D01*
X163566666Y-106904819D02*
X163661904Y-106952438D01*
X163661904Y-106952438D02*
X163709523Y-107000057D01*
X163709523Y-107000057D02*
X163757142Y-107095295D01*
X163757142Y-107095295D02*
X163804761Y-107285771D01*
X163804761Y-107285771D02*
X163804761Y-107523866D01*
X163804761Y-107523866D02*
X163757142Y-107714342D01*
X163757142Y-107714342D02*
X163709523Y-107809580D01*
X163709523Y-107809580D02*
X163661904Y-107857200D01*
X163661904Y-107857200D02*
X163566666Y-107904819D01*
X163566666Y-107904819D02*
X163471428Y-107904819D01*
X163471428Y-107904819D02*
X163376190Y-107857200D01*
X163376190Y-107857200D02*
X163328571Y-107809580D01*
X163328571Y-107809580D02*
X163280952Y-107714342D01*
X163280952Y-107714342D02*
X163233333Y-107523866D01*
X163233333Y-107523866D02*
X163233333Y-107285771D01*
X163233333Y-107285771D02*
X163280952Y-107095295D01*
X163280952Y-107095295D02*
X163328571Y-107000057D01*
X163328571Y-107000057D02*
X163376190Y-106952438D01*
X163376190Y-106952438D02*
X163471428Y-106904819D01*
X164423809Y-106904819D02*
X164519047Y-106904819D01*
X164519047Y-106904819D02*
X164614285Y-106952438D01*
X164614285Y-106952438D02*
X164661904Y-107000057D01*
X164661904Y-107000057D02*
X164709523Y-107095295D01*
X164709523Y-107095295D02*
X164757142Y-107285771D01*
X164757142Y-107285771D02*
X164757142Y-107523866D01*
X164757142Y-107523866D02*
X164709523Y-107714342D01*
X164709523Y-107714342D02*
X164661904Y-107809580D01*
X164661904Y-107809580D02*
X164614285Y-107857200D01*
X164614285Y-107857200D02*
X164519047Y-107904819D01*
X164519047Y-107904819D02*
X164423809Y-107904819D01*
X164423809Y-107904819D02*
X164328571Y-107857200D01*
X164328571Y-107857200D02*
X164280952Y-107809580D01*
X164280952Y-107809580D02*
X164233333Y-107714342D01*
X164233333Y-107714342D02*
X164185714Y-107523866D01*
X164185714Y-107523866D02*
X164185714Y-107285771D01*
X164185714Y-107285771D02*
X164233333Y-107095295D01*
X164233333Y-107095295D02*
X164280952Y-107000057D01*
X164280952Y-107000057D02*
X164328571Y-106952438D01*
X164328571Y-106952438D02*
X164423809Y-106904819D01*
X165185714Y-107238152D02*
X165185714Y-107904819D01*
X165185714Y-107333390D02*
X165233333Y-107285771D01*
X165233333Y-107285771D02*
X165328571Y-107238152D01*
X165328571Y-107238152D02*
X165471428Y-107238152D01*
X165471428Y-107238152D02*
X165566666Y-107285771D01*
X165566666Y-107285771D02*
X165614285Y-107381009D01*
X165614285Y-107381009D02*
X165614285Y-107904819D01*
X166423809Y-107381009D02*
X166090476Y-107381009D01*
X166090476Y-107904819D02*
X166090476Y-106904819D01*
X166090476Y-106904819D02*
X166566666Y-106904819D01*
X132802380Y-119654819D02*
X132230952Y-119654819D01*
X132516666Y-119654819D02*
X132516666Y-118654819D01*
X132516666Y-118654819D02*
X132421428Y-118797676D01*
X132421428Y-118797676D02*
X132326190Y-118892914D01*
X132326190Y-118892914D02*
X132230952Y-118940533D01*
X133421428Y-118654819D02*
X133516666Y-118654819D01*
X133516666Y-118654819D02*
X133611904Y-118702438D01*
X133611904Y-118702438D02*
X133659523Y-118750057D01*
X133659523Y-118750057D02*
X133707142Y-118845295D01*
X133707142Y-118845295D02*
X133754761Y-119035771D01*
X133754761Y-119035771D02*
X133754761Y-119273866D01*
X133754761Y-119273866D02*
X133707142Y-119464342D01*
X133707142Y-119464342D02*
X133659523Y-119559580D01*
X133659523Y-119559580D02*
X133611904Y-119607200D01*
X133611904Y-119607200D02*
X133516666Y-119654819D01*
X133516666Y-119654819D02*
X133421428Y-119654819D01*
X133421428Y-119654819D02*
X133326190Y-119607200D01*
X133326190Y-119607200D02*
X133278571Y-119559580D01*
X133278571Y-119559580D02*
X133230952Y-119464342D01*
X133230952Y-119464342D02*
X133183333Y-119273866D01*
X133183333Y-119273866D02*
X133183333Y-119035771D01*
X133183333Y-119035771D02*
X133230952Y-118845295D01*
X133230952Y-118845295D02*
X133278571Y-118750057D01*
X133278571Y-118750057D02*
X133326190Y-118702438D01*
X133326190Y-118702438D02*
X133421428Y-118654819D01*
X134373809Y-118654819D02*
X134469047Y-118654819D01*
X134469047Y-118654819D02*
X134564285Y-118702438D01*
X134564285Y-118702438D02*
X134611904Y-118750057D01*
X134611904Y-118750057D02*
X134659523Y-118845295D01*
X134659523Y-118845295D02*
X134707142Y-119035771D01*
X134707142Y-119035771D02*
X134707142Y-119273866D01*
X134707142Y-119273866D02*
X134659523Y-119464342D01*
X134659523Y-119464342D02*
X134611904Y-119559580D01*
X134611904Y-119559580D02*
X134564285Y-119607200D01*
X134564285Y-119607200D02*
X134469047Y-119654819D01*
X134469047Y-119654819D02*
X134373809Y-119654819D01*
X134373809Y-119654819D02*
X134278571Y-119607200D01*
X134278571Y-119607200D02*
X134230952Y-119559580D01*
X134230952Y-119559580D02*
X134183333Y-119464342D01*
X134183333Y-119464342D02*
X134135714Y-119273866D01*
X134135714Y-119273866D02*
X134135714Y-119035771D01*
X134135714Y-119035771D02*
X134183333Y-118845295D01*
X134183333Y-118845295D02*
X134230952Y-118750057D01*
X134230952Y-118750057D02*
X134278571Y-118702438D01*
X134278571Y-118702438D02*
X134373809Y-118654819D01*
X135135714Y-118988152D02*
X135135714Y-119654819D01*
X135135714Y-119083390D02*
X135183333Y-119035771D01*
X135183333Y-119035771D02*
X135278571Y-118988152D01*
X135278571Y-118988152D02*
X135421428Y-118988152D01*
X135421428Y-118988152D02*
X135516666Y-119035771D01*
X135516666Y-119035771D02*
X135564285Y-119131009D01*
X135564285Y-119131009D02*
X135564285Y-119654819D01*
X136373809Y-119131009D02*
X136040476Y-119131009D01*
X136040476Y-119654819D02*
X136040476Y-118654819D01*
X136040476Y-118654819D02*
X136516666Y-118654819D01*
X163185714Y-114354819D02*
X163804761Y-114354819D01*
X163804761Y-114354819D02*
X163471428Y-114735771D01*
X163471428Y-114735771D02*
X163614285Y-114735771D01*
X163614285Y-114735771D02*
X163709523Y-114783390D01*
X163709523Y-114783390D02*
X163757142Y-114831009D01*
X163757142Y-114831009D02*
X163804761Y-114926247D01*
X163804761Y-114926247D02*
X163804761Y-115164342D01*
X163804761Y-115164342D02*
X163757142Y-115259580D01*
X163757142Y-115259580D02*
X163709523Y-115307200D01*
X163709523Y-115307200D02*
X163614285Y-115354819D01*
X163614285Y-115354819D02*
X163328571Y-115354819D01*
X163328571Y-115354819D02*
X163233333Y-115307200D01*
X163233333Y-115307200D02*
X163185714Y-115259580D01*
X164423809Y-114354819D02*
X164519047Y-114354819D01*
X164519047Y-114354819D02*
X164614285Y-114402438D01*
X164614285Y-114402438D02*
X164661904Y-114450057D01*
X164661904Y-114450057D02*
X164709523Y-114545295D01*
X164709523Y-114545295D02*
X164757142Y-114735771D01*
X164757142Y-114735771D02*
X164757142Y-114973866D01*
X164757142Y-114973866D02*
X164709523Y-115164342D01*
X164709523Y-115164342D02*
X164661904Y-115259580D01*
X164661904Y-115259580D02*
X164614285Y-115307200D01*
X164614285Y-115307200D02*
X164519047Y-115354819D01*
X164519047Y-115354819D02*
X164423809Y-115354819D01*
X164423809Y-115354819D02*
X164328571Y-115307200D01*
X164328571Y-115307200D02*
X164280952Y-115259580D01*
X164280952Y-115259580D02*
X164233333Y-115164342D01*
X164233333Y-115164342D02*
X164185714Y-114973866D01*
X164185714Y-114973866D02*
X164185714Y-114735771D01*
X164185714Y-114735771D02*
X164233333Y-114545295D01*
X164233333Y-114545295D02*
X164280952Y-114450057D01*
X164280952Y-114450057D02*
X164328571Y-114402438D01*
X164328571Y-114402438D02*
X164423809Y-114354819D01*
X165185714Y-114688152D02*
X165185714Y-115688152D01*
X165185714Y-114735771D02*
X165280952Y-114688152D01*
X165280952Y-114688152D02*
X165471428Y-114688152D01*
X165471428Y-114688152D02*
X165566666Y-114735771D01*
X165566666Y-114735771D02*
X165614285Y-114783390D01*
X165614285Y-114783390D02*
X165661904Y-114878628D01*
X165661904Y-114878628D02*
X165661904Y-115164342D01*
X165661904Y-115164342D02*
X165614285Y-115259580D01*
X165614285Y-115259580D02*
X165566666Y-115307200D01*
X165566666Y-115307200D02*
X165471428Y-115354819D01*
X165471428Y-115354819D02*
X165280952Y-115354819D01*
X165280952Y-115354819D02*
X165185714Y-115307200D01*
X166423809Y-114831009D02*
X166090476Y-114831009D01*
X166090476Y-115354819D02*
X166090476Y-114354819D01*
X166090476Y-114354819D02*
X166566666Y-114354819D01*
X137802380Y-119654819D02*
X137230952Y-119654819D01*
X137516666Y-119654819D02*
X137516666Y-118654819D01*
X137516666Y-118654819D02*
X137421428Y-118797676D01*
X137421428Y-118797676D02*
X137326190Y-118892914D01*
X137326190Y-118892914D02*
X137230952Y-118940533D01*
X138421428Y-118654819D02*
X138516666Y-118654819D01*
X138516666Y-118654819D02*
X138611904Y-118702438D01*
X138611904Y-118702438D02*
X138659523Y-118750057D01*
X138659523Y-118750057D02*
X138707142Y-118845295D01*
X138707142Y-118845295D02*
X138754761Y-119035771D01*
X138754761Y-119035771D02*
X138754761Y-119273866D01*
X138754761Y-119273866D02*
X138707142Y-119464342D01*
X138707142Y-119464342D02*
X138659523Y-119559580D01*
X138659523Y-119559580D02*
X138611904Y-119607200D01*
X138611904Y-119607200D02*
X138516666Y-119654819D01*
X138516666Y-119654819D02*
X138421428Y-119654819D01*
X138421428Y-119654819D02*
X138326190Y-119607200D01*
X138326190Y-119607200D02*
X138278571Y-119559580D01*
X138278571Y-119559580D02*
X138230952Y-119464342D01*
X138230952Y-119464342D02*
X138183333Y-119273866D01*
X138183333Y-119273866D02*
X138183333Y-119035771D01*
X138183333Y-119035771D02*
X138230952Y-118845295D01*
X138230952Y-118845295D02*
X138278571Y-118750057D01*
X138278571Y-118750057D02*
X138326190Y-118702438D01*
X138326190Y-118702438D02*
X138421428Y-118654819D01*
X139373809Y-118654819D02*
X139469047Y-118654819D01*
X139469047Y-118654819D02*
X139564285Y-118702438D01*
X139564285Y-118702438D02*
X139611904Y-118750057D01*
X139611904Y-118750057D02*
X139659523Y-118845295D01*
X139659523Y-118845295D02*
X139707142Y-119035771D01*
X139707142Y-119035771D02*
X139707142Y-119273866D01*
X139707142Y-119273866D02*
X139659523Y-119464342D01*
X139659523Y-119464342D02*
X139611904Y-119559580D01*
X139611904Y-119559580D02*
X139564285Y-119607200D01*
X139564285Y-119607200D02*
X139469047Y-119654819D01*
X139469047Y-119654819D02*
X139373809Y-119654819D01*
X139373809Y-119654819D02*
X139278571Y-119607200D01*
X139278571Y-119607200D02*
X139230952Y-119559580D01*
X139230952Y-119559580D02*
X139183333Y-119464342D01*
X139183333Y-119464342D02*
X139135714Y-119273866D01*
X139135714Y-119273866D02*
X139135714Y-119035771D01*
X139135714Y-119035771D02*
X139183333Y-118845295D01*
X139183333Y-118845295D02*
X139230952Y-118750057D01*
X139230952Y-118750057D02*
X139278571Y-118702438D01*
X139278571Y-118702438D02*
X139373809Y-118654819D01*
X140135714Y-118988152D02*
X140135714Y-119654819D01*
X140135714Y-119083390D02*
X140183333Y-119035771D01*
X140183333Y-119035771D02*
X140278571Y-118988152D01*
X140278571Y-118988152D02*
X140421428Y-118988152D01*
X140421428Y-118988152D02*
X140516666Y-119035771D01*
X140516666Y-119035771D02*
X140564285Y-119131009D01*
X140564285Y-119131009D02*
X140564285Y-119654819D01*
X141373809Y-119131009D02*
X141040476Y-119131009D01*
X141040476Y-119654819D02*
X141040476Y-118654819D01*
X141040476Y-118654819D02*
X141516666Y-118654819D01*
X128778571Y-119654819D02*
X128207143Y-119654819D01*
X128492857Y-119654819D02*
X128492857Y-118654819D01*
X128492857Y-118654819D02*
X128397619Y-118797676D01*
X128397619Y-118797676D02*
X128302381Y-118892914D01*
X128302381Y-118892914D02*
X128207143Y-118940533D01*
X129397619Y-118654819D02*
X129492857Y-118654819D01*
X129492857Y-118654819D02*
X129588095Y-118702438D01*
X129588095Y-118702438D02*
X129635714Y-118750057D01*
X129635714Y-118750057D02*
X129683333Y-118845295D01*
X129683333Y-118845295D02*
X129730952Y-119035771D01*
X129730952Y-119035771D02*
X129730952Y-119273866D01*
X129730952Y-119273866D02*
X129683333Y-119464342D01*
X129683333Y-119464342D02*
X129635714Y-119559580D01*
X129635714Y-119559580D02*
X129588095Y-119607200D01*
X129588095Y-119607200D02*
X129492857Y-119654819D01*
X129492857Y-119654819D02*
X129397619Y-119654819D01*
X129397619Y-119654819D02*
X129302381Y-119607200D01*
X129302381Y-119607200D02*
X129254762Y-119559580D01*
X129254762Y-119559580D02*
X129207143Y-119464342D01*
X129207143Y-119464342D02*
X129159524Y-119273866D01*
X129159524Y-119273866D02*
X129159524Y-119035771D01*
X129159524Y-119035771D02*
X129207143Y-118845295D01*
X129207143Y-118845295D02*
X129254762Y-118750057D01*
X129254762Y-118750057D02*
X129302381Y-118702438D01*
X129302381Y-118702438D02*
X129397619Y-118654819D01*
X130588095Y-118988152D02*
X130588095Y-119654819D01*
X130159524Y-118988152D02*
X130159524Y-119511961D01*
X130159524Y-119511961D02*
X130207143Y-119607200D01*
X130207143Y-119607200D02*
X130302381Y-119654819D01*
X130302381Y-119654819D02*
X130445238Y-119654819D01*
X130445238Y-119654819D02*
X130540476Y-119607200D01*
X130540476Y-119607200D02*
X130588095Y-119559580D01*
X131397619Y-119131009D02*
X131064286Y-119131009D01*
X131064286Y-119654819D02*
X131064286Y-118654819D01*
X131064286Y-118654819D02*
X131540476Y-118654819D01*
D12*
%TO.C,C10*%
X119450000Y-122500000D02*
X121450000Y-122500000D01*
X120450000Y-122500000D02*
X120450000Y-121500000D01*
X120450000Y-123100000D02*
X119450000Y-123100000D01*
X120450000Y-123100000D02*
X121450000Y-123100000D01*
X120450000Y-124100000D02*
X120450000Y-123100000D01*
X119116500Y-125038644D02*
G75*
G02*
X119096324Y-120664500I6075820J2215144D01*
G01*
X121763323Y-120671856D02*
G75*
G02*
X121783499Y-125046000I-6075823J-2215144D01*
G01*
%TO.C,J1*%
X104250000Y-110330000D02*
X105950000Y-110330000D01*
X104250000Y-119670000D02*
X105950000Y-119670000D01*
%TO.C,LED1*%
X101764000Y-107290000D02*
X101950000Y-107290000D01*
X101857000Y-105666500D02*
X101349000Y-105158500D01*
X101857000Y-106301500D02*
X101349000Y-105793500D01*
X102428500Y-106047500D02*
X103571500Y-106047500D01*
X104050000Y-107290000D02*
X104236000Y-107290000D01*
X101764484Y-107290000D02*
G75*
G02*
X101921392Y-104057665I1235516J1560000D01*
G01*
X104078608Y-104057665D02*
G75*
G02*
X104235516Y-107290000I-1078608J-1672335D01*
G01*
X101349000Y-105412500D02*
X101349000Y-105158500D01*
X101603000Y-105158500D01*
X101349000Y-105412500D01*
G36*
X101349000Y-105412500D02*
G01*
X101349000Y-105158500D01*
X101603000Y-105158500D01*
X101349000Y-105412500D01*
G37*
X101349000Y-106047500D02*
X101349000Y-105793500D01*
X101603000Y-105793500D01*
X101349000Y-106047500D01*
G36*
X101349000Y-106047500D02*
G01*
X101349000Y-105793500D01*
X101603000Y-105793500D01*
X101349000Y-106047500D01*
G37*
X103000000Y-106047500D02*
X102428500Y-105412500D01*
X103571500Y-105412500D01*
X103000000Y-106047500D01*
G36*
X103000000Y-106047500D02*
G01*
X102428500Y-105412500D01*
X103571500Y-105412500D01*
X103000000Y-106047500D01*
G37*
%TO.C,X1*%
X154475000Y-117315000D02*
X154475000Y-123565000D01*
X159525000Y-117315000D02*
X159525000Y-123565000D01*
X154475000Y-117315000D02*
G75*
G02*
X159525000Y-117315000I2525000J0D01*
G01*
X159525000Y-123565000D02*
G75*
G02*
X154475000Y-123565000I-2525000J0D01*
G01*
%TO.C,R1*%
X107000000Y-105630000D02*
X107000000Y-105560000D01*
X108370000Y-107000000D02*
G75*
G02*
X105630000Y-107000000I-1370000J0D01*
G01*
X105630000Y-107000000D02*
G75*
G02*
X108370000Y-107000000I1370000J0D01*
G01*
%TO.C,SW2*%
X118000000Y-103500000D02*
X118000000Y-108000000D01*
X120500000Y-109250000D02*
X122000000Y-109250000D01*
X122000000Y-102250000D02*
X120500000Y-102250000D01*
X124500000Y-108000000D02*
X124500000Y-103500000D01*
%TO.C,LED2*%
X109950000Y-101710000D02*
X109764000Y-101710000D01*
X111571500Y-102952500D02*
X110428500Y-102952500D01*
X112143000Y-102698500D02*
X112651000Y-103206500D01*
X112143000Y-103333500D02*
X112651000Y-103841500D01*
X112236000Y-101710000D02*
X112050000Y-101710000D01*
X109921392Y-104942335D02*
G75*
G02*
X109764484Y-101710000I1078608J1672335D01*
G01*
X112235516Y-101710000D02*
G75*
G02*
X112078608Y-104942335I-1235516J-1560000D01*
G01*
X111571500Y-103587500D02*
X110428500Y-103587500D01*
X111000000Y-102952500D01*
X111571500Y-103587500D01*
G36*
X111571500Y-103587500D02*
G01*
X110428500Y-103587500D01*
X111000000Y-102952500D01*
X111571500Y-103587500D01*
G37*
X112651000Y-103206500D02*
X112397000Y-103206500D01*
X112651000Y-102952500D01*
X112651000Y-103206500D01*
G36*
X112651000Y-103206500D02*
G01*
X112397000Y-103206500D01*
X112651000Y-102952500D01*
X112651000Y-103206500D01*
G37*
X112651000Y-103841500D02*
X112397000Y-103841500D01*
X112651000Y-103587500D01*
X112651000Y-103841500D01*
G36*
X112651000Y-103841500D02*
G01*
X112397000Y-103841500D01*
X112651000Y-103587500D01*
X112651000Y-103841500D01*
G37*
%TO.C,R4*%
X104630000Y-123000000D02*
X104560000Y-123000000D01*
X107370000Y-123000000D02*
G75*
G02*
X104630000Y-123000000I-1370000J0D01*
G01*
X104630000Y-123000000D02*
G75*
G02*
X107370000Y-123000000I1370000J0D01*
G01*
%TO.C,R3*%
X104630000Y-127000000D02*
X104560000Y-127000000D01*
X107370000Y-127000000D02*
G75*
G02*
X104630000Y-127000000I-1370000J0D01*
G01*
X104630000Y-127000000D02*
G75*
G02*
X107370000Y-127000000I1370000J0D01*
G01*
%TO.C,C1*%
X111000000Y-113700000D02*
X111000000Y-114700000D01*
X111000000Y-114700000D02*
X110000000Y-114700000D01*
X111000000Y-114700000D02*
X112000000Y-114700000D01*
X111000000Y-115300000D02*
X111000000Y-116300000D01*
X112000000Y-115300000D02*
X110000000Y-115300000D01*
X109686677Y-117128144D02*
G75*
G02*
X109666501Y-112754000I6075823J2215144D01*
G01*
X112333500Y-112761356D02*
G75*
G02*
X112353676Y-117135500I-6075820J-2215144D01*
G01*
%TO.C,SW1*%
X109500000Y-122000000D02*
X109500000Y-126500000D01*
X112000000Y-127750000D02*
X113500000Y-127750000D01*
X113500000Y-120750000D02*
X112000000Y-120750000D01*
X116000000Y-126500000D02*
X116000000Y-122000000D01*
%TO.C,C2*%
X115000000Y-113700000D02*
X115000000Y-114700000D01*
X115000000Y-114700000D02*
X114000000Y-114700000D01*
X115000000Y-114700000D02*
X116000000Y-114700000D01*
X115000000Y-115300000D02*
X115000000Y-116300000D01*
X116000000Y-115300000D02*
X114000000Y-115300000D01*
X113686677Y-117128144D02*
G75*
G02*
X113666501Y-112754000I6075823J2215144D01*
G01*
X116333500Y-112761356D02*
G75*
G02*
X116353676Y-117135500I-6075820J-2215144D01*
G01*
%TO.C,J2*%
X154670000Y-110730000D02*
X154670000Y-103050000D01*
X157330000Y-103050000D02*
X154670000Y-103050000D01*
X157330000Y-110730000D02*
X154670000Y-110730000D01*
X157330000Y-110730000D02*
X157330000Y-103050000D01*
X157330000Y-112000000D02*
X157330000Y-113330000D01*
X157330000Y-113330000D02*
X156000000Y-113330000D01*
%TO.C,R6*%
X115000000Y-105630000D02*
X115000000Y-105560000D01*
X116370000Y-107000000D02*
G75*
G02*
X113630000Y-107000000I-1370000J0D01*
G01*
X113630000Y-107000000D02*
G75*
G02*
X116370000Y-107000000I1370000J0D01*
G01*
%TO.C,C8*%
X162200000Y-123000000D02*
X163200000Y-123000000D01*
X163200000Y-123000000D02*
X163200000Y-122000000D01*
X163200000Y-123000000D02*
X163200000Y-124000000D01*
X163800000Y-122000000D02*
X163800000Y-124000000D01*
X163800000Y-123000000D02*
X164800000Y-123000000D01*
X161261356Y-121666500D02*
G75*
G02*
X165635500Y-121646324I2215144J-6075820D01*
G01*
X165628144Y-124313323D02*
G75*
G02*
X161254000Y-124333499I-2215144J6075823D01*
G01*
%TO.C,R2*%
X111000000Y-108130000D02*
X111000000Y-108060000D01*
X112370000Y-109500000D02*
G75*
G02*
X109630000Y-109500000I-1370000J0D01*
G01*
X109630000Y-109500000D02*
G75*
G02*
X112370000Y-109500000I1370000J0D01*
G01*
%TO.C,R5*%
X124000000Y-124075000D02*
X124000000Y-124145000D01*
X125370000Y-122705000D02*
G75*
G02*
X122630000Y-122705000I-1370000J0D01*
G01*
X122630000Y-122705000D02*
G75*
G02*
X125370000Y-122705000I1370000J0D01*
G01*
%TO.C,J3*%
X126670000Y-127745800D02*
X126670000Y-126415800D01*
X128000000Y-127745800D02*
X126670000Y-127745800D01*
X129270000Y-125085800D02*
X152190000Y-125085800D01*
X129270000Y-127745800D02*
X129270000Y-125085800D01*
X129270000Y-127745800D02*
X152190000Y-127745800D01*
X152190000Y-127745800D02*
X152190000Y-125085800D01*
%TO.C,J5*%
X126670000Y-104885800D02*
X126670000Y-103555800D01*
X128000000Y-104885800D02*
X126670000Y-104885800D01*
X129270000Y-102225800D02*
X152190000Y-102225800D01*
X129270000Y-104885800D02*
X129270000Y-102225800D01*
X129270000Y-104885800D02*
X152190000Y-104885800D01*
X152190000Y-104885800D02*
X152190000Y-102225800D01*
%TO.C,C9*%
X159000000Y-107200000D02*
X161000000Y-107200000D01*
X160000000Y-107200000D02*
X160000000Y-106200000D01*
X160000000Y-107800000D02*
X159000000Y-107800000D01*
X160000000Y-107800000D02*
X161000000Y-107800000D01*
X160000000Y-108800000D02*
X160000000Y-107800000D01*
X158666500Y-109738644D02*
G75*
G02*
X158646324Y-105364500I6075820J2215144D01*
G01*
X161313323Y-105371856D02*
G75*
G02*
X161333499Y-109746000I-6075823J-2215144D01*
G01*
%TO.C,C5*%
X134000000Y-113700000D02*
X134000000Y-114700000D01*
X134000000Y-114700000D02*
X133000000Y-114700000D01*
X134000000Y-114700000D02*
X135000000Y-114700000D01*
X134000000Y-115300000D02*
X134000000Y-116300000D01*
X135000000Y-115300000D02*
X133000000Y-115300000D01*
X132686677Y-117128144D02*
G75*
G02*
X132666501Y-112754000I6075823J2215144D01*
G01*
X135333500Y-112761356D02*
G75*
G02*
X135353676Y-117135500I-6075820J-2215144D01*
G01*
%TO.C,C7*%
X162200000Y-118000000D02*
X163200000Y-118000000D01*
X163200000Y-118000000D02*
X163200000Y-117000000D01*
X163200000Y-118000000D02*
X163200000Y-119000000D01*
X163800000Y-117000000D02*
X163800000Y-119000000D01*
X163800000Y-118000000D02*
X164800000Y-118000000D01*
X161261356Y-116666500D02*
G75*
G02*
X165635500Y-116646324I2215144J-6075820D01*
G01*
X165628144Y-119313323D02*
G75*
G02*
X161254000Y-119333499I-2215144J6075823D01*
G01*
%TO.C,C6*%
X138000000Y-113700000D02*
X138000000Y-114700000D01*
X138000000Y-114700000D02*
X137000000Y-114700000D01*
X138000000Y-114700000D02*
X139000000Y-114700000D01*
X138000000Y-115300000D02*
X138000000Y-116300000D01*
X139000000Y-115300000D02*
X137000000Y-115300000D01*
X136686677Y-117128144D02*
G75*
G02*
X136666501Y-112754000I6075823J2215144D01*
G01*
X139333500Y-112761356D02*
G75*
G02*
X139353676Y-117135500I-6075820J-2215144D01*
G01*
%TO.C,C4*%
X130000000Y-113700000D02*
X130000000Y-114700000D01*
X130000000Y-114700000D02*
X129000000Y-114700000D01*
X130000000Y-114700000D02*
X131000000Y-114700000D01*
X130000000Y-115300000D02*
X130000000Y-116300000D01*
X131000000Y-115300000D02*
X129000000Y-115300000D01*
X128686677Y-117128144D02*
G75*
G02*
X128666501Y-112754000I6075823J2215144D01*
G01*
X131333500Y-112761356D02*
G75*
G02*
X131353676Y-117135500I-6075820J-2215144D01*
G01*
%TD*%
M02*
