G04 Layer: BottomSolderMaskLayer*
G04 EasyEDA Pro v2.2.27.1, 2024-09-15 10:59:50*
G04 Gerber Generator version 0.3*
G04 Scale: 100 percent, Rotated: No, Reflected: No*
G04 Dimensions in millimeters*
G04 Leading zeros omitted, absolute positions, 3 integers and 5 decimals*
%TF.GenerationSoftware,KiCad,Pcbnew,8.0.6*%
%TF.CreationDate,2024-11-16T11:12:32+08:00*%
%TF.ProjectId,PY32F002AW15S_mini_system,50593332-4630-4303-9241-573135535f6d,rev?*%
%TF.SameCoordinates,Original*%
%TF.FileFunction,Soldermask,Bot*%
%TF.FilePolarity,Negative*%
%FSLAX46Y46*%
G04 Gerber Fmt 4.6, Leading zero omitted, Abs format (unit mm)*
G04 Created by KiCad (PCBNEW 8.0.6) date 2024-11-16 11:12:32*
%MOMM*%
%LPD*%
G01*
G04 APERTURE LIST*
G04 Aperture macros list*
%AMRoundRect*
0 Rectangle with rounded corners*
0 $1 Rounding radius*
0 $2 $3 $4 $5 $6 $7 $8 $9 X,Y pos of 4 corners*
0 Add a 4 corners polygon primitive as box body*
4,1,4,$2,$3,$4,$5,$6,$7,$8,$9,$2,$3,0*
0 Add four circle primitives for the rounded corners*
1,1,$1+$1,$2,$3*
1,1,$1+$1,$4,$5*
1,1,$1+$1,$6,$7*
1,1,$1+$1,$8,$9*
0 Add four rect primitives between the rounded corners*
20,1,$1+$1,$2,$3,$4,$5,0*
20,1,$1+$1,$4,$5,$6,$7,0*
20,1,$1+$1,$6,$7,$8,$9,0*
20,1,$1+$1,$8,$9,$2,$3,0*%
G04 Aperture macros list end*
%ADD10C,1.600000*%
%ADD11O,1.700000X1.100000*%
%ADD12R,1.800000X1.400000*%
%ADD13O,1.800000X1.400000*%
%ADD14C,1.500000*%
%ADD15C,2.000000*%
%ADD16O,1.600000X1.600000*%
%ADD17R,1.700000X1.700000*%
%ADD18O,1.700000X1.700000*%
%ADD19RoundRect,0.250000X-0.750000X-0.500000X0.750000X-0.500000X0.750000X0.500000X-0.750000X0.500000X0*%
%ADD20RoundRect,0.250000X-0.750000X-1.650000X0.750000X-1.650000X0.750000X1.650000X-0.750000X1.650000X0*%
%ADD21RoundRect,0.150000X-0.150000X0.850000X-0.150000X-0.850000X0.150000X-0.850000X0.150000X0.850000X0*%
%ADD22RoundRect,0.250000X-0.475000X0.250000X-0.475000X-0.250000X0.475000X-0.250000X0.475000X0.250000X0*%
G04 APERTURE END LIST*
D10*
%TO.C,C10*%
X120450000Y-125300000D03*
X120450000Y-120300000D03*
%TD*%
D11*
%TO.C,J1*%
X107000000Y-110680000D03*
X103200000Y-110680000D03*
X107000000Y-119320000D03*
X103200000Y-119320000D03*
%TD*%
D12*
%TO.C,LED1*%
X103000000Y-107000000D03*
D13*
X103000000Y-104460000D03*
%TD*%
D14*
%TO.C,X1*%
X157000000Y-118000000D03*
D15*
X157000000Y-120440000D03*
D14*
X157000000Y-122880000D03*
%TD*%
D10*
%TO.C,R1*%
X107000000Y-107000000D03*
D16*
X107000000Y-104460000D03*
%TD*%
D15*
%TO.C,SW2*%
X119000000Y-109000000D03*
X119000000Y-102500000D03*
X123500000Y-109000000D03*
X123500000Y-102500000D03*
%TD*%
D12*
%TO.C,LED2*%
X111000000Y-102000000D03*
D13*
X111000000Y-104540000D03*
%TD*%
D10*
%TO.C,R4*%
X106000000Y-123000000D03*
D16*
X103460000Y-123000000D03*
%TD*%
D10*
%TO.C,R3*%
X106000000Y-127000000D03*
D16*
X103460000Y-127000000D03*
%TD*%
D10*
%TO.C,C1*%
X111000000Y-112500000D03*
X111000000Y-117500000D03*
%TD*%
D15*
%TO.C,SW1*%
X115000000Y-121000000D03*
X115000000Y-127500000D03*
X110500000Y-121000000D03*
X110500000Y-127500000D03*
%TD*%
D10*
%TO.C,C2*%
X115000000Y-112500000D03*
X115000000Y-117500000D03*
%TD*%
D17*
%TO.C,J2*%
X156000000Y-112000000D03*
D18*
X156000000Y-109460000D03*
X156000000Y-106920000D03*
X156000000Y-104380000D03*
%TD*%
D10*
%TO.C,R6*%
X115000000Y-107000000D03*
D16*
X115000000Y-104460000D03*
%TD*%
D10*
%TO.C,C8*%
X161000000Y-123000000D03*
X166000000Y-123000000D03*
%TD*%
%TO.C,R2*%
X111000000Y-109500000D03*
D16*
X111000000Y-106960000D03*
%TD*%
D10*
%TO.C,R5*%
X124000000Y-122705000D03*
D16*
X124000000Y-125245000D03*
%TD*%
D17*
%TO.C,J3*%
X128000000Y-126415800D03*
D18*
X130540000Y-126415800D03*
X133080000Y-126415800D03*
X135620000Y-126415800D03*
X138160000Y-126415800D03*
X140700000Y-126415800D03*
X143240000Y-126415800D03*
X145780000Y-126415800D03*
X148320000Y-126415800D03*
X150860000Y-126415800D03*
%TD*%
D17*
%TO.C,J5*%
X128000000Y-103555800D03*
D18*
X130540000Y-103555800D03*
X133080000Y-103555800D03*
X135620000Y-103555800D03*
X138160000Y-103555800D03*
X140700000Y-103555800D03*
X143240000Y-103555800D03*
X145780000Y-103555800D03*
X148320000Y-103555800D03*
X150860000Y-103555800D03*
%TD*%
D10*
%TO.C,C9*%
X160000000Y-110000000D03*
X160000000Y-105000000D03*
%TD*%
%TO.C,C5*%
X134000000Y-112500000D03*
X134000000Y-117500000D03*
%TD*%
%TO.C,C7*%
X161000000Y-118000000D03*
X166000000Y-118000000D03*
%TD*%
%TO.C,C6*%
X138000000Y-112500000D03*
X138000000Y-117500000D03*
%TD*%
%TO.C,C4*%
X130000000Y-112500000D03*
X130000000Y-117500000D03*
%TD*%
D19*
%TO.C,U1*%
X119850000Y-117300000D03*
X119850000Y-115000000D03*
D20*
X126150000Y-115000000D03*
D19*
X119850000Y-112700000D03*
%TD*%
D21*
%TO.C,U2*%
X141555000Y-112500000D03*
X142825000Y-112500000D03*
X144095000Y-112500000D03*
X145365000Y-112500000D03*
X146635000Y-112500000D03*
X147905000Y-112500000D03*
X149175000Y-112500000D03*
X150445000Y-112500000D03*
X150445000Y-117500000D03*
X149175000Y-117500000D03*
X147905000Y-117500000D03*
X146635000Y-117500000D03*
X145365000Y-117500000D03*
X144095000Y-117500000D03*
X142825000Y-117500000D03*
X141555000Y-117500000D03*
%TD*%
D22*
%TO.C,C3*%
X117000000Y-114050000D03*
X117000000Y-115950000D03*
%TD*%
M02*
