G04 Layer: TopLayer*
G04 EasyEDA Pro v2.2.27.1, 2024-09-15 10:59:50*
G04 Gerber Generator version 0.3*
G04 Scale: 100 percent, Rotated: No, Reflected: No*
G04 Dimensions in millimeters*
G04 Leading zeros omitted, absolute positions, 3 integers and 5 decimals*
%TF.GenerationSoftware,KiCad,Pcbnew,8.0.6*%
%TF.CreationDate,2024-11-16T11:12:32+08:00*%
%TF.ProjectId,PY32F002AW15S_mini_system,50593332-4630-4303-9241-573135535f6d,rev?*%
%TF.SameCoordinates,Original*%
%TF.FileFunction,Copper,L1,Top*%
%TF.FilePolarity,Positive*%
%FSLAX46Y46*%
G04 Gerber Fmt 4.6, Leading zero omitted, Abs format (unit mm)*
G04 Created by KiCad (PCBNEW 8.0.6) date 2024-11-16 11:12:32*
%MOMM*%
%LPD*%
G01*
G04 APERTURE LIST*
G04 Aperture macros list*
%AMRoundRect*
0 Rectangle with rounded corners*
0 $1 Rounding radius*
0 $2 $3 $4 $5 $6 $7 $8 $9 X,Y pos of 4 corners*
0 Add a 4 corners polygon primitive as box body*
4,1,4,$2,$3,$4,$5,$6,$7,$8,$9,$2,$3,0*
0 Add four circle primitives for the rounded corners*
1,1,$1+$1,$2,$3*
1,1,$1+$1,$4,$5*
1,1,$1+$1,$6,$7*
1,1,$1+$1,$8,$9*
0 Add four rect primitives between the rounded corners*
20,1,$1+$1,$2,$3,$4,$5,0*
20,1,$1+$1,$4,$5,$6,$7,0*
20,1,$1+$1,$6,$7,$8,$9,0*
20,1,$1+$1,$8,$9,$2,$3,0*%
G04 Aperture macros list end*
%TA.AperFunction,ComponentPad*%
%ADD10C,1.600000*%
%TD*%
%TA.AperFunction,SMDPad,CuDef*%
%ADD11RoundRect,0.175000X-0.425000X0.175000X-0.425000X-0.175000X0.425000X-0.175000X0.425000X0.175000X0*%
%TD*%
%TA.AperFunction,SMDPad,CuDef*%
%ADD12RoundRect,0.190000X0.410000X-0.190000X0.410000X0.190000X-0.410000X0.190000X-0.410000X-0.190000X0*%
%TD*%
%TA.AperFunction,SMDPad,CuDef*%
%ADD13RoundRect,0.200000X0.400000X-0.200000X0.400000X0.200000X-0.400000X0.200000X-0.400000X-0.200000X0*%
%TD*%
%TA.AperFunction,SMDPad,CuDef*%
%ADD14RoundRect,0.175000X0.425000X-0.175000X0.425000X0.175000X-0.425000X0.175000X-0.425000X-0.175000X0*%
%TD*%
%TA.AperFunction,SMDPad,CuDef*%
%ADD15RoundRect,0.190000X-0.410000X0.190000X-0.410000X-0.190000X0.410000X-0.190000X0.410000X0.190000X0*%
%TD*%
%TA.AperFunction,SMDPad,CuDef*%
%ADD16RoundRect,0.200000X-0.400000X0.200000X-0.400000X-0.200000X0.400000X-0.200000X0.400000X0.200000X0*%
%TD*%
%TA.AperFunction,ComponentPad*%
%ADD17O,1.700000X1.100000*%
%TD*%
%TA.AperFunction,ComponentPad*%
%ADD18R,1.800000X1.400000*%
%TD*%
%TA.AperFunction,ComponentPad*%
%ADD19O,1.800000X1.400000*%
%TD*%
%TA.AperFunction,ComponentPad*%
%ADD20C,1.500000*%
%TD*%
%TA.AperFunction,ComponentPad*%
%ADD21C,2.000000*%
%TD*%
%TA.AperFunction,ComponentPad*%
%ADD22O,1.600000X1.600000*%
%TD*%
%TA.AperFunction,ComponentPad*%
%ADD23R,1.700000X1.700000*%
%TD*%
%TA.AperFunction,ComponentPad*%
%ADD24O,1.700000X1.700000*%
%TD*%
%TA.AperFunction,ViaPad*%
%ADD25C,0.500000*%
%TD*%
%TA.AperFunction,Conductor*%
%ADD26C,0.760000*%
%TD*%
%TA.AperFunction,Conductor*%
%ADD27C,1.000000*%
%TD*%
%TA.AperFunction,Conductor*%
%ADD28C,0.500000*%
%TD*%
%TA.AperFunction,Conductor*%
%ADD29C,1.500000*%
%TD*%
%TA.AperFunction,Conductor*%
%ADD30C,2.000000*%
%TD*%
%TA.AperFunction,Conductor*%
%ADD31C,0.200000*%
%TD*%
%TA.AperFunction,Conductor*%
%ADD32C,0.300000*%
%TD*%
G04 APERTURE END LIST*
D10*
%TO.P,C10,1*%
%TO.N,/NRST*%
X120450000Y-125300000D03*
%TO.P,C10,2*%
%TO.N,GND*%
X120450000Y-120300000D03*
%TD*%
D11*
%TO.P,J1,A5,CC1*%
%TO.N,Net-(J1-CC1)*%
X107080000Y-114500000D03*
D12*
%TO.P,J1,A9,VBUS*%
%TO.N,VBUS*%
X107080000Y-116520000D03*
D13*
%TO.P,J1,A12,GND*%
%TO.N,GND*%
X107080000Y-117750000D03*
D14*
%TO.P,J1,B5,CC2*%
%TO.N,Net-(J1-CC2)*%
X107080000Y-115500000D03*
D15*
%TO.P,J1,B9,VBUS*%
%TO.N,VBUS*%
X107080000Y-113480000D03*
D16*
%TO.P,J1,B12,GND*%
%TO.N,GND*%
X107080000Y-112250000D03*
D17*
%TO.P,J1,S1,SHIELD*%
X107000000Y-110680000D03*
X103200000Y-110680000D03*
X107000000Y-119320000D03*
X103200000Y-119320000D03*
%TD*%
D18*
%TO.P,LED1,1,K*%
%TO.N,GND*%
X103000000Y-107000000D03*
D19*
%TO.P,LED1,2,A*%
%TO.N,Net-(LED1-A)*%
X103000000Y-104460000D03*
%TD*%
D20*
%TO.P,X1,1,1*%
%TO.N,/OSC+*%
X157000000Y-118000000D03*
D21*
%TO.P,X1,2,2*%
%TO.N,GND*%
X157000000Y-120440000D03*
D20*
%TO.P,X1,3,3*%
%TO.N,/OSC-*%
X157000000Y-122880000D03*
%TD*%
D10*
%TO.P,R1,1*%
%TO.N,VCC*%
X107000000Y-107000000D03*
D22*
%TO.P,R1,2*%
%TO.N,Net-(LED1-A)*%
X107000000Y-104460000D03*
%TD*%
D21*
%TO.P,SW2,1*%
%TO.N,Net-(R6-Pad2)*%
X119000000Y-109000000D03*
X119000000Y-102500000D03*
%TO.P,SW2,2*%
%TO.N,GND*%
X123500000Y-109000000D03*
X123500000Y-102500000D03*
%TD*%
D18*
%TO.P,LED2,1,K*%
%TO.N,GND*%
X111000000Y-102000000D03*
D19*
%TO.P,LED2,2,A*%
%TO.N,Net-(LED2-A)*%
X111000000Y-104540000D03*
%TD*%
D10*
%TO.P,R4,1*%
%TO.N,GND*%
X106000000Y-123000000D03*
D22*
%TO.P,R4,2*%
%TO.N,Net-(J1-CC1)*%
X103460000Y-123000000D03*
%TD*%
D10*
%TO.P,R3,1*%
%TO.N,GND*%
X106000000Y-127000000D03*
D22*
%TO.P,R3,2*%
%TO.N,Net-(J1-CC2)*%
X103460000Y-127000000D03*
%TD*%
D10*
%TO.P,C1,1*%
%TO.N,VBUS*%
X111000000Y-112500000D03*
%TO.P,C1,2*%
%TO.N,GND*%
X111000000Y-117500000D03*
%TD*%
D21*
%TO.P,SW1,1*%
%TO.N,/NRST*%
X115000000Y-121000000D03*
X115000000Y-127500000D03*
%TO.P,SW1,2*%
%TO.N,GND*%
X110500000Y-121000000D03*
X110500000Y-127500000D03*
%TD*%
D10*
%TO.P,C2,1*%
%TO.N,VBUS*%
X115000000Y-112500000D03*
%TO.P,C2,2*%
%TO.N,GND*%
X115000000Y-117500000D03*
%TD*%
D23*
%TO.P,J2,1,Pin_1*%
%TO.N,VCC*%
X156000000Y-112000000D03*
D24*
%TO.P,J2,2,Pin_2*%
%TO.N,/SWDIO*%
X156000000Y-109460000D03*
%TO.P,J2,3,Pin_3*%
%TO.N,/SWCLK*%
X156000000Y-106920000D03*
%TO.P,J2,4,Pin_4*%
%TO.N,GND*%
X156000000Y-104380000D03*
%TD*%
D10*
%TO.P,R6,1*%
%TO.N,VCC*%
X115000000Y-107000000D03*
D22*
%TO.P,R6,2*%
%TO.N,Net-(R6-Pad2)*%
X115000000Y-104460000D03*
%TD*%
D10*
%TO.P,C8,1*%
%TO.N,/OSC-*%
X161000000Y-123000000D03*
%TO.P,C8,2*%
%TO.N,GND*%
X166000000Y-123000000D03*
%TD*%
%TO.P,R2,1*%
%TO.N,/PA9*%
X111000000Y-109500000D03*
D22*
%TO.P,R2,2*%
%TO.N,Net-(LED2-A)*%
X111000000Y-106960000D03*
%TD*%
D10*
%TO.P,R5,1*%
%TO.N,VCC*%
X124000000Y-122705000D03*
D22*
%TO.P,R5,2*%
%TO.N,/NRST*%
X124000000Y-125245000D03*
%TD*%
D23*
%TO.P,J3,1,Pin_1*%
%TO.N,VCC*%
X128000000Y-126415800D03*
D24*
%TO.P,J3,2,Pin_2*%
%TO.N,GND*%
X130540000Y-126415800D03*
%TO.P,J3,3,Pin_3*%
%TO.N,/PA6*%
X133080000Y-126415800D03*
%TO.P,J3,4,Pin_4*%
%TO.N,/PA3*%
X135620000Y-126415800D03*
%TO.P,J3,5,Pin_5*%
%TO.N,/PA2*%
X138160000Y-126415800D03*
%TO.P,J3,6,Pin_6*%
%TO.N,GND*%
X140700000Y-126415800D03*
%TO.P,J3,7,Pin_7*%
%TO.N,/PA1*%
X143240000Y-126415800D03*
%TO.P,J3,8,Pin_8*%
%TO.N,/PA0*%
X145780000Y-126415800D03*
%TO.P,J3,9,Pin_9*%
%TO.N,/OSC+*%
X148320000Y-126415800D03*
%TO.P,J3,10,Pin_10*%
%TO.N,/OSC-*%
X150860000Y-126415800D03*
%TD*%
D23*
%TO.P,J5,1,Pin_1*%
%TO.N,VCC*%
X128000000Y-103555800D03*
D24*
%TO.P,J5,2,Pin_2*%
%TO.N,GND*%
X130540000Y-103555800D03*
%TO.P,J5,3,Pin_3*%
%TO.N,/PA7*%
X133080000Y-103555800D03*
%TO.P,J5,4,Pin_4*%
%TO.N,/PB0*%
X135620000Y-103555800D03*
%TO.P,J5,5,Pin_5*%
%TO.N,/PB1*%
X138160000Y-103555800D03*
%TO.P,J5,6,Pin_6*%
%TO.N,VCC*%
X140700000Y-103555800D03*
%TO.P,J5,7,Pin_7*%
%TO.N,/PA9*%
X143240000Y-103555800D03*
%TO.P,J5,8,Pin_8*%
%TO.N,/SWDIO*%
X145780000Y-103555800D03*
%TO.P,J5,9,Pin_9*%
%TO.N,/SWCLK*%
X148320000Y-103555800D03*
%TO.P,J5,10,Pin_10*%
%TO.N,/NRST*%
X150860000Y-103555800D03*
%TD*%
D10*
%TO.P,C9,1*%
%TO.N,VCC*%
X160000000Y-110000000D03*
%TO.P,C9,2*%
%TO.N,GND*%
X160000000Y-105000000D03*
%TD*%
%TO.P,C5,1*%
%TO.N,VCC*%
X134000000Y-112500000D03*
%TO.P,C5,2*%
%TO.N,GND*%
X134000000Y-117500000D03*
%TD*%
%TO.P,C7,1*%
%TO.N,/OSC+*%
X161000000Y-118000000D03*
%TO.P,C7,2*%
%TO.N,GND*%
X166000000Y-118000000D03*
%TD*%
%TO.P,C6,1*%
%TO.N,VCC*%
X138000000Y-112500000D03*
%TO.P,C6,2*%
%TO.N,GND*%
X138000000Y-117500000D03*
%TD*%
%TO.P,C4,1*%
%TO.N,VCC*%
X130000000Y-112500000D03*
%TO.P,C4,2*%
%TO.N,GND*%
X130000000Y-117500000D03*
%TD*%
D25*
%TO.N,GND*%
X108680000Y-107150000D03*
X157280000Y-127600000D03*
X167900000Y-122050000D03*
X120950000Y-101800000D03*
X147350000Y-101300000D03*
X149150000Y-114400000D03*
X151160000Y-101300000D03*
X122200000Y-113300000D03*
X161090000Y-127600000D03*
X167900000Y-110620000D03*
X153950000Y-121950000D03*
X159000000Y-122000000D03*
X124350000Y-128850000D03*
X116730000Y-128850000D03*
X116850000Y-126350000D03*
X103650000Y-125000000D03*
X158780000Y-101300000D03*
X133660000Y-120050000D03*
X151750000Y-119150000D03*
X101250000Y-114420000D03*
X154970000Y-101300000D03*
X120200000Y-104800000D03*
X167900000Y-125860000D03*
X128000000Y-121250000D03*
X167900000Y-118240000D03*
X112920000Y-128850000D03*
X151450000Y-115500000D03*
X130200000Y-109800000D03*
X159000000Y-119050000D03*
X144950000Y-115200000D03*
X120540000Y-128850000D03*
X101250000Y-118230000D03*
X125850000Y-111700000D03*
X164900000Y-127600000D03*
X129727100Y-101822900D03*
X153470000Y-127600000D03*
X143540000Y-101300000D03*
X141500000Y-115000000D03*
X112550000Y-111100000D03*
X167900000Y-114430000D03*
X166400000Y-101300000D03*
X139020000Y-129000000D03*
X105650000Y-105750000D03*
X109110000Y-128850000D03*
X137470000Y-120050000D03*
X152000000Y-105350000D03*
X142830000Y-129000000D03*
X146640000Y-129000000D03*
X101250000Y-125850000D03*
X126200000Y-102600000D03*
X167900000Y-103000000D03*
X123900000Y-117000000D03*
X101250000Y-110610000D03*
X105300000Y-128850000D03*
X135210000Y-129000000D03*
X114750000Y-100800000D03*
X117700000Y-116650000D03*
X139550000Y-101900000D03*
X131400000Y-129000000D03*
X149350000Y-121300000D03*
X150450000Y-129000000D03*
X122400000Y-124000000D03*
X103300000Y-120900000D03*
X157650000Y-110000000D03*
X116700000Y-102250000D03*
X162590000Y-101300000D03*
X167900000Y-106810000D03*
X101250000Y-122040000D03*
X129850000Y-120050000D03*
X112450000Y-105700000D03*
X127590000Y-129000000D03*
X137550000Y-109950000D03*
X101250000Y-106800000D03*
X150900000Y-124700000D03*
%TO.N,/NRST*%
X150500000Y-114500000D03*
%TD*%
D26*
%TO.N,VBUS*%
X109450000Y-115600000D02*
X109450000Y-113500000D01*
X109450000Y-113500000D02*
X109430000Y-113480000D01*
D27*
X110000000Y-113500000D02*
X111000000Y-112500000D01*
X109450000Y-113500000D02*
X110000000Y-113500000D01*
D26*
X107080000Y-116520000D02*
X108530000Y-116520000D01*
X108530000Y-116520000D02*
X109450000Y-115600000D01*
X109430000Y-113480000D02*
X107080000Y-113480000D01*
D28*
%TO.N,GND*%
X107080000Y-110760000D02*
X107000000Y-110680000D01*
D29*
X166000000Y-111000000D02*
X166000000Y-118000000D01*
D27*
X107000000Y-110680000D02*
X108680000Y-109000000D01*
D28*
X107080000Y-112250000D02*
X107080000Y-110760000D01*
X107080000Y-119240000D02*
X107000000Y-119320000D01*
X107080000Y-117750000D02*
X107080000Y-119240000D01*
D29*
X160000000Y-105000000D02*
X166000000Y-111000000D01*
D26*
X107080000Y-117750000D02*
X110750000Y-117750000D01*
D27*
X108680000Y-104320000D02*
X111000000Y-102000000D01*
X108680000Y-107150000D02*
X108680000Y-104320000D01*
X108680000Y-109000000D02*
X108680000Y-107150000D01*
D26*
X110750000Y-117750000D02*
X111000000Y-117500000D01*
D30*
%TO.N,VCC*%
X155500000Y-112500000D02*
X156000000Y-112000000D01*
D29*
X117150000Y-106450000D02*
X125105800Y-106450000D01*
D30*
X140850000Y-112500000D02*
X155500000Y-112500000D01*
X138000000Y-112500000D02*
X140400000Y-112500000D01*
X140700000Y-103555800D02*
X140700000Y-112350000D01*
X140400000Y-112500000D02*
X140850000Y-112500000D01*
X140700000Y-112350000D02*
X140850000Y-112500000D01*
D29*
X125105800Y-106450000D02*
X128000000Y-103555800D01*
X115550000Y-106450000D02*
X117150000Y-106450000D01*
X115000000Y-107000000D02*
X115550000Y-106450000D01*
D31*
%TO.N,/OSC+*%
X149364999Y-125370801D02*
X148320000Y-126415800D01*
X152166800Y-120215000D02*
X149364999Y-123016801D01*
X149364999Y-123016801D02*
X149364999Y-125370801D01*
X154785000Y-120215000D02*
X152166800Y-120215000D01*
X157000000Y-118000000D02*
X154785000Y-120215000D01*
%TO.N,/OSC-*%
X157000000Y-122880000D02*
X154785000Y-120665000D01*
X149815001Y-125370801D02*
X150860000Y-126415800D01*
X154785000Y-120665000D02*
X152353200Y-120665000D01*
X149815001Y-123203199D02*
X149815001Y-125370801D01*
X152353200Y-120665000D02*
X149815001Y-123203199D01*
D32*
%TO.N,/NRST*%
X124005000Y-125245000D02*
X126800000Y-122450000D01*
X126800000Y-122450000D02*
X142550000Y-122450000D01*
X124000000Y-125245000D02*
X124005000Y-125245000D01*
X142550000Y-122450000D02*
X150500000Y-114500000D01*
%TO.N,Net-(J1-CC2)*%
X104900000Y-125560000D02*
X103460000Y-127000000D01*
X104900000Y-117000000D02*
X104900000Y-125560000D01*
X106400000Y-115500000D02*
X104900000Y-117000000D01*
X107080000Y-115500000D02*
X106400000Y-115500000D01*
%TO.N,Net-(J1-CC1)*%
X104470000Y-121990000D02*
X103460000Y-123000000D01*
X104470000Y-116380000D02*
X104470000Y-121990000D01*
X107080000Y-114500000D02*
X106350000Y-114500000D01*
X106350000Y-114500000D02*
X104470000Y-116380000D01*
%TO.N,/SWCLK*%
X151684200Y-106920000D02*
X148320000Y-103555800D01*
X156000000Y-106920000D02*
X151684200Y-106920000D01*
%TO.N,/SWDIO*%
X156000000Y-109460000D02*
X151684200Y-109460000D01*
X151684200Y-109460000D02*
X145780000Y-103555800D01*
%TO.N,/PA9*%
X113400000Y-103900000D02*
X116450000Y-100850000D01*
X116450000Y-100850000D02*
X140534200Y-100850000D01*
X111000000Y-109500000D02*
X113400000Y-107100000D01*
X113400000Y-107100000D02*
X113400000Y-103900000D01*
X140534200Y-100850000D02*
X143240000Y-103555800D01*
%TD*%
%TA.AperFunction,Conductor*%
%TO.N,VCC*%
G36*
X127157683Y-103206891D02*
G01*
X127996216Y-103553238D01*
X128002553Y-103559563D01*
X128002562Y-103559584D01*
X128348907Y-104398113D01*
X128348898Y-104407068D01*
X128345866Y-104411325D01*
X127087535Y-105529841D01*
X127079075Y-105532776D01*
X127071489Y-105529369D01*
X126026430Y-104484310D01*
X126023003Y-104476037D01*
X126025956Y-104468267D01*
X127144476Y-103209931D01*
X127152532Y-103206026D01*
X127157683Y-103206891D01*
G37*
%TD.AperFunction*%
%TD*%
%TA.AperFunction,Conductor*%
%TO.N,/SWDIO*%
G36*
X155679203Y-108685519D02*
G01*
X155679387Y-108685938D01*
X155999134Y-109455511D01*
X155999143Y-109464466D01*
X155999134Y-109464489D01*
X155679387Y-110234061D01*
X155673048Y-110240386D01*
X155664093Y-110240377D01*
X155663674Y-110240193D01*
X154306792Y-109613138D01*
X154300719Y-109606556D01*
X154300000Y-109602517D01*
X154300000Y-109317482D01*
X154303427Y-109309209D01*
X154306792Y-109306861D01*
X155663674Y-108679806D01*
X155672621Y-108679446D01*
X155679203Y-108685519D01*
G37*
%TD.AperFunction*%
%TD*%
%TA.AperFunction,Conductor*%
%TO.N,Net-(J1-CC2)*%
G36*
X104487202Y-125765512D02*
G01*
X104490627Y-125767887D01*
X104692112Y-125969372D01*
X104695539Y-125977645D01*
X104694797Y-125981746D01*
X104203344Y-127294816D01*
X104197234Y-127301363D01*
X104188285Y-127301673D01*
X104187921Y-127301530D01*
X103463787Y-127002562D01*
X103457448Y-126996237D01*
X103457437Y-126996212D01*
X103158469Y-126272076D01*
X103158480Y-126263123D01*
X103164819Y-126256798D01*
X103165159Y-126256664D01*
X104478255Y-125765202D01*
X104487202Y-125765512D01*
G37*
%TD.AperFunction*%
%TD*%
%TA.AperFunction,Conductor*%
%TO.N,/NRST*%
G36*
X125029217Y-124013507D02*
G01*
X125032616Y-124015870D01*
X125234103Y-124217357D01*
X125237530Y-124225630D01*
X125236779Y-124229754D01*
X124743359Y-125539848D01*
X124737236Y-125546382D01*
X124728286Y-125546673D01*
X124727945Y-125546539D01*
X124003787Y-125247562D01*
X123997448Y-125241237D01*
X123997437Y-125241212D01*
X123698481Y-124517105D01*
X123698492Y-124508150D01*
X123704831Y-124501825D01*
X123705182Y-124501687D01*
X125020269Y-124013175D01*
X125029217Y-124013507D01*
G37*
%TD.AperFunction*%
%TD*%
%TA.AperFunction,Conductor*%
%TO.N,/OSC+*%
G36*
X149458635Y-125152079D02*
G01*
X149462062Y-125160352D01*
X149461774Y-125162930D01*
X149108354Y-126727550D01*
X149103189Y-126734865D01*
X149094364Y-126736384D01*
X149092476Y-126735786D01*
X148324488Y-126418653D01*
X148318150Y-126412329D01*
X147999326Y-125641638D01*
X147999330Y-125632684D01*
X148005664Y-125626355D01*
X148005942Y-125626244D01*
X149262993Y-125149413D01*
X149267143Y-125148652D01*
X149450362Y-125148652D01*
X149458635Y-125152079D01*
G37*
%TD.AperFunction*%
%TD*%
%TA.AperFunction,Conductor*%
%TO.N,/SWCLK*%
G36*
X149103006Y-103235172D02*
G01*
X149109331Y-103241511D01*
X149109498Y-103241938D01*
X149625564Y-104644793D01*
X149625204Y-104653740D01*
X149622856Y-104657105D01*
X149421305Y-104858656D01*
X149413032Y-104862083D01*
X149408993Y-104861364D01*
X148006138Y-104345298D01*
X147999556Y-104339225D01*
X147999196Y-104330278D01*
X147999363Y-104329851D01*
X148317438Y-103559583D01*
X148323759Y-103553248D01*
X149094051Y-103235163D01*
X149103006Y-103235172D01*
G37*
%TD.AperFunction*%
%TD*%
%TA.AperFunction,Conductor*%
%TO.N,Net-(J1-CC1)*%
G36*
X104612804Y-121821783D02*
G01*
X104616231Y-121830056D01*
X104615789Y-121833241D01*
X104202681Y-123293502D01*
X104197132Y-123300530D01*
X104188238Y-123301575D01*
X104186958Y-123301132D01*
X103464490Y-123002853D01*
X103458151Y-122996528D01*
X103458143Y-122996510D01*
X103158459Y-122272031D01*
X103158464Y-122263076D01*
X103164799Y-122256747D01*
X103165101Y-122256627D01*
X104289169Y-121830056D01*
X104317995Y-121819117D01*
X104322146Y-121818356D01*
X104604531Y-121818356D01*
X104612804Y-121821783D01*
G37*
%TD.AperFunction*%
%TD*%
%TA.AperFunction,Conductor*%
%TO.N,/NRST*%
G36*
X150277890Y-114407960D02*
G01*
X150496175Y-114497435D01*
X150502531Y-114503744D01*
X150502564Y-114503824D01*
X150592038Y-114722107D01*
X150592005Y-114731061D01*
X150587700Y-114736281D01*
X150260492Y-114954301D01*
X150251707Y-114956036D01*
X150245731Y-114952837D01*
X150047162Y-114754268D01*
X150043735Y-114745995D01*
X150045698Y-114739507D01*
X150263720Y-114412297D01*
X150271158Y-114407315D01*
X150277890Y-114407960D01*
G37*
%TD.AperFunction*%
%TD*%
%TA.AperFunction,Conductor*%
%TO.N,Net-(J1-CC2)*%
G36*
X106497136Y-115273071D02*
G01*
X107062065Y-115492066D01*
X107068540Y-115498251D01*
X107068745Y-115507204D01*
X107065275Y-115512005D01*
X106659053Y-115846660D01*
X106650489Y-115849276D01*
X106649811Y-115849190D01*
X106318919Y-115797572D01*
X106312449Y-115794285D01*
X106112201Y-115594037D01*
X106108774Y-115585764D01*
X106112201Y-115577491D01*
X106113102Y-115576679D01*
X106485547Y-115274890D01*
X106494130Y-115272345D01*
X106497136Y-115273071D01*
G37*
%TD.AperFunction*%
%TD*%
%TA.AperFunction,Conductor*%
%TO.N,/OSC-*%
G36*
X149917007Y-125149413D02*
G01*
X149952641Y-125162930D01*
X151174012Y-125626227D01*
X151180532Y-125632365D01*
X151180801Y-125641316D01*
X151180673Y-125641639D01*
X150861856Y-126412312D01*
X150855527Y-126418646D01*
X150855511Y-126418653D01*
X150087523Y-126735786D01*
X150078568Y-126735777D01*
X150072243Y-126729438D01*
X150071647Y-126727556D01*
X149718226Y-125162929D01*
X149719745Y-125154105D01*
X149727060Y-125148940D01*
X149729638Y-125148652D01*
X149912857Y-125148652D01*
X149917007Y-125149413D01*
G37*
%TD.AperFunction*%
%TD*%
%TA.AperFunction,Conductor*%
%TO.N,Net-(J1-CC1)*%
G36*
X106507499Y-114248751D02*
G01*
X107061371Y-114490841D01*
X107067579Y-114497295D01*
X107067406Y-114506248D01*
X107063296Y-114511215D01*
X106592433Y-114833663D01*
X106583670Y-114835510D01*
X106582867Y-114835331D01*
X106303574Y-114762430D01*
X106298256Y-114759382D01*
X106098004Y-114559130D01*
X106094577Y-114550857D01*
X106098004Y-114542584D01*
X106099339Y-114541437D01*
X106495890Y-114250044D01*
X106504584Y-114247907D01*
X106507499Y-114248751D01*
G37*
%TD.AperFunction*%
%TD*%
%TA.AperFunction,Conductor*%
%TO.N,VBUS*%
G36*
X110270542Y-112197843D02*
G01*
X110996510Y-112498143D01*
X111002845Y-112504472D01*
X111002853Y-112504490D01*
X111302025Y-113229122D01*
X111302014Y-113238077D01*
X111296526Y-113244010D01*
X109831230Y-113991321D01*
X109822303Y-113992027D01*
X109815491Y-113986214D01*
X109814214Y-113980898D01*
X109814214Y-113003025D01*
X109815680Y-112997354D01*
X110255836Y-112202983D01*
X110262843Y-112197409D01*
X110270542Y-112197843D01*
G37*
%TD.AperFunction*%
%TD*%
%TA.AperFunction,Conductor*%
%TO.N,/OSC-*%
G36*
X156016953Y-121751000D02*
G01*
X157275254Y-122183052D01*
X157281965Y-122188980D01*
X157282520Y-122197918D01*
X157282269Y-122198582D01*
X157002562Y-122876211D01*
X156996238Y-122882551D01*
X156996211Y-122882562D01*
X156318582Y-123162269D01*
X156309627Y-123162258D01*
X156303303Y-123155918D01*
X156303052Y-123155254D01*
X156209420Y-122882562D01*
X155871001Y-121896956D01*
X155871556Y-121888021D01*
X155873791Y-121884889D01*
X156004887Y-121753793D01*
X156013159Y-121750367D01*
X156016953Y-121751000D01*
G37*
%TD.AperFunction*%
%TD*%
%TA.AperFunction,Conductor*%
%TO.N,/PA9*%
G36*
X112027202Y-108265512D02*
G01*
X112030627Y-108267887D01*
X112232112Y-108469372D01*
X112235539Y-108477645D01*
X112234797Y-108481746D01*
X111743344Y-109794816D01*
X111737234Y-109801363D01*
X111728285Y-109801673D01*
X111727921Y-109801530D01*
X111003787Y-109502562D01*
X110997448Y-109496237D01*
X110997437Y-109496212D01*
X110698469Y-108772076D01*
X110698480Y-108763123D01*
X110704819Y-108756798D01*
X110705159Y-108756664D01*
X112018255Y-108265202D01*
X112027202Y-108265512D01*
G37*
%TD.AperFunction*%
%TD*%
%TA.AperFunction,Conductor*%
%TO.N,/OSC+*%
G36*
X156318565Y-117717723D02*
G01*
X156996211Y-117997437D01*
X157002551Y-118003761D01*
X157002562Y-118003788D01*
X157282269Y-118681417D01*
X157282258Y-118690372D01*
X157275918Y-118696696D01*
X157275254Y-118696947D01*
X156016959Y-119128998D01*
X156008021Y-119128443D01*
X156004886Y-119126205D01*
X155873794Y-118995113D01*
X155870367Y-118986840D01*
X155870999Y-118983047D01*
X156303053Y-117724743D01*
X156308980Y-117718034D01*
X156317918Y-117717479D01*
X156318565Y-117717723D01*
G37*
%TD.AperFunction*%
%TD*%
%TA.AperFunction,Conductor*%
%TO.N,/SWDIO*%
G36*
X146563006Y-103235172D02*
G01*
X146569331Y-103241511D01*
X146569498Y-103241938D01*
X147085564Y-104644793D01*
X147085204Y-104653740D01*
X147082856Y-104657105D01*
X146881305Y-104858656D01*
X146873032Y-104862083D01*
X146868993Y-104861364D01*
X145466138Y-104345298D01*
X145459556Y-104339225D01*
X145459196Y-104330278D01*
X145459363Y-104329851D01*
X145777438Y-103559583D01*
X145783759Y-103553248D01*
X146554051Y-103235163D01*
X146563006Y-103235172D01*
G37*
%TD.AperFunction*%
%TD*%
%TA.AperFunction,Conductor*%
%TO.N,/SWCLK*%
G36*
X155679203Y-106145519D02*
G01*
X155679387Y-106145938D01*
X155999134Y-106915511D01*
X155999143Y-106924466D01*
X155999134Y-106924489D01*
X155679387Y-107694061D01*
X155673048Y-107700386D01*
X155664093Y-107700377D01*
X155663674Y-107700193D01*
X154306792Y-107073138D01*
X154300719Y-107066556D01*
X154300000Y-107062517D01*
X154300000Y-106777482D01*
X154303427Y-106769209D01*
X154306792Y-106766861D01*
X155663674Y-106139806D01*
X155672621Y-106139446D01*
X155679203Y-106145519D01*
G37*
%TD.AperFunction*%
%TD*%
%TA.AperFunction,Conductor*%
%TO.N,/PA9*%
G36*
X142151001Y-102250234D02*
G01*
X143471286Y-102735924D01*
X143553861Y-102766301D01*
X143560443Y-102772374D01*
X143560803Y-102781321D01*
X143560636Y-102781748D01*
X143242562Y-103552014D01*
X143236237Y-103558353D01*
X143236214Y-103558362D01*
X142465948Y-103876436D01*
X142456993Y-103876427D01*
X142450668Y-103870088D01*
X142450501Y-103869661D01*
X142333649Y-103552014D01*
X141934435Y-102466804D01*
X141934795Y-102457859D01*
X141937140Y-102454497D01*
X142138695Y-102252942D01*
X142146967Y-102249516D01*
X142151001Y-102250234D01*
G37*
%TD.AperFunction*%
%TD*%
%TA.AperFunction,Conductor*%
%TO.N,GND*%
G36*
X116088652Y-100220185D02*
G01*
X116134407Y-100272989D01*
X116144351Y-100342147D01*
X116115326Y-100405703D01*
X116109294Y-100412181D01*
X112959491Y-103561983D01*
X112959485Y-103561991D01*
X112893392Y-103676470D01*
X112893392Y-103676471D01*
X112887016Y-103687513D01*
X112883513Y-103700588D01*
X112849500Y-103827525D01*
X112849500Y-103827527D01*
X112849500Y-106820612D01*
X112829815Y-106887651D01*
X112813181Y-106908293D01*
X112381618Y-107339855D01*
X112320295Y-107373340D01*
X112250603Y-107368356D01*
X112194670Y-107326484D01*
X112170253Y-107261020D01*
X112174670Y-107218246D01*
X112185115Y-107181536D01*
X112205643Y-106960000D01*
X112188821Y-106778464D01*
X112185115Y-106738464D01*
X112185114Y-106738462D01*
X112174746Y-106702023D01*
X112124229Y-106524472D01*
X112107397Y-106490668D01*
X112025061Y-106325316D01*
X112025056Y-106325308D01*
X111890979Y-106147761D01*
X111726562Y-105997876D01*
X111726560Y-105997874D01*
X111537404Y-105880754D01*
X111537395Y-105880750D01*
X111470605Y-105854876D01*
X111450650Y-105847145D01*
X111395249Y-105804573D01*
X111371658Y-105738807D01*
X111387369Y-105670726D01*
X111437393Y-105621947D01*
X111457126Y-105613588D01*
X111457696Y-105613402D01*
X111457701Y-105613402D01*
X111622445Y-105559873D01*
X111776788Y-105481232D01*
X111916928Y-105379414D01*
X112039414Y-105256928D01*
X112141232Y-105116788D01*
X112219873Y-104962445D01*
X112273402Y-104797701D01*
X112300500Y-104626611D01*
X112300500Y-104453389D01*
X112273402Y-104282299D01*
X112219873Y-104117555D01*
X112141232Y-103963212D01*
X112039414Y-103823072D01*
X111916928Y-103700586D01*
X111776788Y-103598768D01*
X111622445Y-103520127D01*
X111457701Y-103466598D01*
X111457699Y-103466597D01*
X111457698Y-103466597D01*
X111326271Y-103445781D01*
X111286611Y-103439500D01*
X110713389Y-103439500D01*
X110673728Y-103445781D01*
X110542302Y-103466597D01*
X110377552Y-103520128D01*
X110223211Y-103598768D01*
X110193182Y-103620586D01*
X110083072Y-103700586D01*
X110083070Y-103700588D01*
X110083069Y-103700588D01*
X109960588Y-103823069D01*
X109960588Y-103823070D01*
X109960586Y-103823072D01*
X109932087Y-103862297D01*
X109858768Y-103963211D01*
X109780128Y-104117552D01*
X109726597Y-104282302D01*
X109705248Y-104417098D01*
X109699500Y-104453389D01*
X109699500Y-104626611D01*
X109707677Y-104678239D01*
X109725732Y-104792237D01*
X109726598Y-104797701D01*
X109780127Y-104962445D01*
X109858768Y-105116788D01*
X109960586Y-105256928D01*
X110083072Y-105379414D01*
X110223212Y-105481232D01*
X110377555Y-105559873D01*
X110542299Y-105613402D01*
X110542302Y-105613402D01*
X110542873Y-105613588D01*
X110600549Y-105653026D01*
X110627747Y-105717384D01*
X110615832Y-105786231D01*
X110568588Y-105837706D01*
X110549350Y-105847145D01*
X110536941Y-105851952D01*
X110462601Y-105880751D01*
X110462595Y-105880754D01*
X110273439Y-105997874D01*
X110273437Y-105997876D01*
X110109020Y-106147761D01*
X109974943Y-106325308D01*
X109974938Y-106325316D01*
X109875775Y-106524461D01*
X109875769Y-106524476D01*
X109814885Y-106738462D01*
X109814884Y-106738464D01*
X109794357Y-106959999D01*
X109794357Y-106960000D01*
X109814884Y-107181535D01*
X109814885Y-107181537D01*
X109875769Y-107395523D01*
X109875775Y-107395538D01*
X109974938Y-107594683D01*
X109974943Y-107594691D01*
X110109020Y-107772238D01*
X110273437Y-107922123D01*
X110273439Y-107922125D01*
X110462595Y-108039245D01*
X110462597Y-108039246D01*
X110462599Y-108039247D01*
X110651615Y-108112472D01*
X110707014Y-108155043D01*
X110730605Y-108220809D01*
X110714894Y-108288890D01*
X110664871Y-108337669D01*
X110650286Y-108344229D01*
X110583364Y-108369277D01*
X110563019Y-108376892D01*
X110563001Y-108376899D01*
X110556485Y-108379402D01*
X110556138Y-108379538D01*
X110521121Y-108395293D01*
X110515643Y-108398467D01*
X110515189Y-108397684D01*
X110497892Y-108407079D01*
X110462600Y-108420751D01*
X110462594Y-108420754D01*
X110273439Y-108537874D01*
X110273437Y-108537876D01*
X110109020Y-108687761D01*
X109974943Y-108865308D01*
X109974938Y-108865316D01*
X109875775Y-109064461D01*
X109875769Y-109064476D01*
X109814885Y-109278462D01*
X109814884Y-109278464D01*
X109794357Y-109499999D01*
X109794357Y-109500000D01*
X109814884Y-109721535D01*
X109814885Y-109721537D01*
X109875769Y-109935523D01*
X109875775Y-109935538D01*
X109974938Y-110134683D01*
X109974943Y-110134691D01*
X110109020Y-110312238D01*
X110273437Y-110462123D01*
X110273439Y-110462125D01*
X110462595Y-110579245D01*
X110462596Y-110579245D01*
X110462599Y-110579247D01*
X110670060Y-110659618D01*
X110888757Y-110700500D01*
X110888759Y-110700500D01*
X111111241Y-110700500D01*
X111111243Y-110700500D01*
X111329940Y-110659618D01*
X111537401Y-110579247D01*
X111726562Y-110462124D01*
X111890981Y-110312236D01*
X112025058Y-110134689D01*
X112124229Y-109935528D01*
X112124688Y-109933912D01*
X112127817Y-109924390D01*
X112581172Y-108713113D01*
X112609620Y-108668903D01*
X113743015Y-107535508D01*
X113804336Y-107502025D01*
X113874028Y-107507009D01*
X113929961Y-107548881D01*
X113941694Y-107567919D01*
X113974938Y-107634683D01*
X113974943Y-107634691D01*
X114109020Y-107812238D01*
X114273437Y-107962123D01*
X114273439Y-107962125D01*
X114462595Y-108079245D01*
X114462596Y-108079245D01*
X114462599Y-108079247D01*
X114670060Y-108159618D01*
X114888757Y-108200500D01*
X114888759Y-108200500D01*
X115111241Y-108200500D01*
X115111243Y-108200500D01*
X115329940Y-108159618D01*
X115537401Y-108079247D01*
X115726562Y-107962124D01*
X115890981Y-107812236D01*
X116013667Y-107649772D01*
X116069776Y-107608137D01*
X116112621Y-107600500D01*
X117059454Y-107600500D01*
X118156723Y-107600500D01*
X118223762Y-107620185D01*
X118269517Y-107672989D01*
X118279461Y-107742147D01*
X118250436Y-107805703D01*
X118232885Y-107822354D01*
X118048217Y-107966086D01*
X117891016Y-108136852D01*
X117764075Y-108331151D01*
X117670842Y-108543699D01*
X117613866Y-108768691D01*
X117613864Y-108768702D01*
X117594700Y-108999993D01*
X117594700Y-109000006D01*
X117613864Y-109231297D01*
X117613866Y-109231308D01*
X117670842Y-109456300D01*
X117764075Y-109668848D01*
X117891016Y-109863147D01*
X117891019Y-109863151D01*
X117891021Y-109863153D01*
X118048216Y-110033913D01*
X118048219Y-110033915D01*
X118048222Y-110033918D01*
X118231365Y-110176464D01*
X118231371Y-110176468D01*
X118231374Y-110176470D01*
X118435497Y-110286936D01*
X118549487Y-110326068D01*
X118655015Y-110362297D01*
X118655017Y-110362297D01*
X118655019Y-110362298D01*
X118883951Y-110400500D01*
X118883952Y-110400500D01*
X119116048Y-110400500D01*
X119116049Y-110400500D01*
X119344981Y-110362298D01*
X119564503Y-110286936D01*
X119768626Y-110176470D01*
X119951784Y-110033913D01*
X120108979Y-109863153D01*
X120235924Y-109668849D01*
X120329157Y-109456300D01*
X120386134Y-109231305D01*
X120389742Y-109187761D01*
X120405300Y-109000006D01*
X120405300Y-108999993D01*
X120386135Y-108768702D01*
X120386133Y-108768691D01*
X120329157Y-108543699D01*
X120235924Y-108331151D01*
X120108983Y-108136852D01*
X120108980Y-108136849D01*
X120108979Y-108136847D01*
X119951784Y-107966087D01*
X119768626Y-107823530D01*
X119768625Y-107823529D01*
X119767115Y-107822354D01*
X119726302Y-107765643D01*
X119722627Y-107695870D01*
X119757259Y-107635187D01*
X119819200Y-107602860D01*
X119843277Y-107600500D01*
X125010119Y-107600500D01*
X125010143Y-107600501D01*
X125015254Y-107600501D01*
X125196345Y-107600501D01*
X125196346Y-107600501D01*
X125375209Y-107572171D01*
X125547439Y-107516211D01*
X125547439Y-107516210D01*
X125547444Y-107516209D01*
X125637151Y-107470500D01*
X125708794Y-107433996D01*
X125710187Y-107432984D01*
X125855301Y-107327553D01*
X125983353Y-107199501D01*
X125983354Y-107199499D01*
X125990414Y-107192439D01*
X125990420Y-107192432D01*
X127327980Y-105854871D01*
X127348794Y-105838128D01*
X127349453Y-105837706D01*
X127356934Y-105832916D01*
X128476642Y-104837620D01*
X128539826Y-104807794D01*
X128559023Y-104806299D01*
X128881517Y-104806299D01*
X128881518Y-104806299D01*
X128975304Y-104791446D01*
X129088342Y-104733850D01*
X129178050Y-104644142D01*
X129235646Y-104531104D01*
X129235646Y-104531102D01*
X129235647Y-104531101D01*
X129250499Y-104437324D01*
X129250500Y-104437319D01*
X129250499Y-102674282D01*
X129235646Y-102580496D01*
X129178050Y-102467458D01*
X129178046Y-102467454D01*
X129178045Y-102467452D01*
X129088347Y-102377754D01*
X129088344Y-102377752D01*
X129088342Y-102377750D01*
X129005748Y-102335666D01*
X128975301Y-102320152D01*
X128881524Y-102305300D01*
X127118482Y-102305300D01*
X127037519Y-102318123D01*
X127024696Y-102320154D01*
X126911658Y-102377750D01*
X126911657Y-102377751D01*
X126911652Y-102377754D01*
X126821954Y-102467452D01*
X126821951Y-102467457D01*
X126821950Y-102467458D01*
X126805373Y-102499993D01*
X126764352Y-102580498D01*
X126749500Y-102674275D01*
X126749500Y-102996775D01*
X126729815Y-103063814D01*
X126718179Y-103079156D01*
X125722877Y-104198872D01*
X125709976Y-104214126D01*
X125706742Y-104218743D01*
X125706120Y-104218307D01*
X125692055Y-104236690D01*
X124665566Y-105263181D01*
X124604243Y-105296666D01*
X124577885Y-105299500D01*
X116119418Y-105299500D01*
X116052379Y-105279815D01*
X116006624Y-105227011D01*
X115996680Y-105157853D01*
X116020463Y-105100775D01*
X116025053Y-105094696D01*
X116025056Y-105094691D01*
X116025058Y-105094689D01*
X116124229Y-104895528D01*
X116185115Y-104681536D01*
X116205643Y-104460000D01*
X116205030Y-104453389D01*
X116185115Y-104238464D01*
X116185114Y-104238462D01*
X116179503Y-104218743D01*
X116124229Y-104024472D01*
X116124224Y-104024461D01*
X116025061Y-103825316D01*
X116025056Y-103825308D01*
X115890979Y-103647761D01*
X115726562Y-103497876D01*
X115726560Y-103497874D01*
X115537404Y-103380754D01*
X115537398Y-103380752D01*
X115329940Y-103300382D01*
X115111243Y-103259500D01*
X115111242Y-103259500D01*
X115111231Y-103259498D01*
X115106818Y-103259089D01*
X115041882Y-103233299D01*
X115001198Y-103176497D01*
X114997682Y-103106715D01*
X115030583Y-103047940D01*
X116641706Y-101436819D01*
X116703029Y-101403334D01*
X116729387Y-101400500D01*
X117825903Y-101400500D01*
X117892942Y-101420185D01*
X117938697Y-101472989D01*
X117948641Y-101542147D01*
X117919616Y-101605703D01*
X117917172Y-101608438D01*
X117897481Y-101629828D01*
X117891016Y-101636852D01*
X117764075Y-101831151D01*
X117670842Y-102043699D01*
X117613866Y-102268691D01*
X117613864Y-102268702D01*
X117594700Y-102499993D01*
X117594700Y-102500006D01*
X117613864Y-102731297D01*
X117613866Y-102731308D01*
X117670842Y-102956300D01*
X117764075Y-103168848D01*
X117891016Y-103363147D01*
X117891019Y-103363151D01*
X117891021Y-103363153D01*
X118048216Y-103533913D01*
X118048219Y-103533915D01*
X118048222Y-103533918D01*
X118231365Y-103676464D01*
X118231371Y-103676468D01*
X118231374Y-103676470D01*
X118435497Y-103786936D01*
X118540749Y-103823069D01*
X118655015Y-103862297D01*
X118655017Y-103862297D01*
X118655019Y-103862298D01*
X118883951Y-103900500D01*
X118883952Y-103900500D01*
X119116048Y-103900500D01*
X119116049Y-103900500D01*
X119344981Y-103862298D01*
X119564503Y-103786936D01*
X119768626Y-103676470D01*
X119805512Y-103647761D01*
X119915717Y-103561985D01*
X119951784Y-103533913D01*
X120108979Y-103363153D01*
X120235924Y-103168849D01*
X120329157Y-102956300D01*
X120386134Y-102731305D01*
X120386135Y-102731297D01*
X120405300Y-102500006D01*
X120405300Y-102499993D01*
X120386135Y-102268702D01*
X120386133Y-102268691D01*
X120329157Y-102043699D01*
X120235924Y-101831151D01*
X120108983Y-101636852D01*
X120108980Y-101636849D01*
X120108979Y-101636847D01*
X120082865Y-101608480D01*
X120051945Y-101545828D01*
X120059805Y-101476402D01*
X120103952Y-101422247D01*
X120170370Y-101400556D01*
X120174097Y-101400500D01*
X140254813Y-101400500D01*
X140321852Y-101420185D01*
X140342494Y-101436819D01*
X140849294Y-101943619D01*
X140882779Y-102004942D01*
X140877795Y-102074634D01*
X140835923Y-102130567D01*
X140770459Y-102154984D01*
X140761613Y-102155300D01*
X140589778Y-102155300D01*
X140517201Y-102166795D01*
X140372047Y-102189785D01*
X140162396Y-102257903D01*
X140162393Y-102257904D01*
X139965974Y-102357987D01*
X139787641Y-102487552D01*
X139787636Y-102487556D01*
X139631756Y-102643436D01*
X139631752Y-102643441D01*
X139502185Y-102821776D01*
X139457061Y-102910336D01*
X139409086Y-102961131D01*
X139341265Y-102977926D01*
X139275131Y-102955388D01*
X139245002Y-102925163D01*
X139121599Y-102748924D01*
X139046950Y-102674275D01*
X138966877Y-102594202D01*
X138787639Y-102468698D01*
X138787640Y-102468698D01*
X138787638Y-102468697D01*
X138638827Y-102399306D01*
X138589330Y-102376225D01*
X138589326Y-102376224D01*
X138589322Y-102376222D01*
X138377977Y-102319593D01*
X138160002Y-102300523D01*
X138159998Y-102300523D01*
X138014682Y-102313236D01*
X137942023Y-102319593D01*
X137942020Y-102319593D01*
X137730677Y-102376222D01*
X137730670Y-102376224D01*
X137730670Y-102376225D01*
X137710278Y-102385734D01*
X137532361Y-102468698D01*
X137532357Y-102468700D01*
X137353121Y-102594202D01*
X137198402Y-102748921D01*
X137072900Y-102928157D01*
X137072898Y-102928161D01*
X137002382Y-103079383D01*
X136956209Y-103131822D01*
X136889016Y-103150974D01*
X136822135Y-103130758D01*
X136777618Y-103079383D01*
X136730307Y-102977926D01*
X136707102Y-102928162D01*
X136707100Y-102928159D01*
X136707099Y-102928157D01*
X136581599Y-102748924D01*
X136506950Y-102674275D01*
X136426877Y-102594202D01*
X136247639Y-102468698D01*
X136247640Y-102468698D01*
X136247638Y-102468697D01*
X136098827Y-102399306D01*
X136049330Y-102376225D01*
X136049326Y-102376224D01*
X136049322Y-102376222D01*
X135837977Y-102319593D01*
X135620002Y-102300523D01*
X135619998Y-102300523D01*
X135474682Y-102313236D01*
X135402023Y-102319593D01*
X135402020Y-102319593D01*
X135190677Y-102376222D01*
X135190670Y-102376224D01*
X135190670Y-102376225D01*
X135170278Y-102385734D01*
X134992361Y-102468698D01*
X134992357Y-102468700D01*
X134813121Y-102594202D01*
X134658402Y-102748921D01*
X134532900Y-102928157D01*
X134532898Y-102928161D01*
X134462382Y-103079383D01*
X134416209Y-103131822D01*
X134349016Y-103150974D01*
X134282135Y-103130758D01*
X134237618Y-103079383D01*
X134190307Y-102977926D01*
X134167102Y-102928162D01*
X134167100Y-102928159D01*
X134167099Y-102928157D01*
X134041599Y-102748924D01*
X133966950Y-102674275D01*
X133886877Y-102594202D01*
X133707639Y-102468698D01*
X133707640Y-102468698D01*
X133707638Y-102468697D01*
X133558827Y-102399306D01*
X133509330Y-102376225D01*
X133509326Y-102376224D01*
X133509322Y-102376222D01*
X133297977Y-102319593D01*
X133080002Y-102300523D01*
X133079998Y-102300523D01*
X132934682Y-102313236D01*
X132862023Y-102319593D01*
X132862020Y-102319593D01*
X132650677Y-102376222D01*
X132650670Y-102376224D01*
X132650670Y-102376225D01*
X132630278Y-102385734D01*
X132452361Y-102468698D01*
X132452357Y-102468700D01*
X132273121Y-102594202D01*
X132118402Y-102748921D01*
X131992900Y-102928157D01*
X131992898Y-102928161D01*
X131900426Y-103126468D01*
X131900422Y-103126477D01*
X131843793Y-103337820D01*
X131843793Y-103337823D01*
X131841577Y-103363153D01*
X131824723Y-103555797D01*
X131824723Y-103555802D01*
X131828482Y-103598768D01*
X131841106Y-103743069D01*
X131843793Y-103773775D01*
X131843793Y-103773779D01*
X131900422Y-103985122D01*
X131900424Y-103985126D01*
X131900425Y-103985130D01*
X131922382Y-104032216D01*
X131992897Y-104183438D01*
X132003704Y-104198872D01*
X132118402Y-104362677D01*
X132273123Y-104517398D01*
X132452361Y-104642902D01*
X132650670Y-104735375D01*
X132650676Y-104735376D01*
X132650677Y-104735377D01*
X132655544Y-104736681D01*
X132862023Y-104792007D01*
X133042474Y-104807794D01*
X133079998Y-104811077D01*
X133080000Y-104811077D01*
X133080002Y-104811077D01*
X133108254Y-104808605D01*
X133297977Y-104792007D01*
X133509330Y-104735375D01*
X133707639Y-104642902D01*
X133886877Y-104517398D01*
X134041598Y-104362677D01*
X134167102Y-104183439D01*
X134237618Y-104032214D01*
X134283790Y-103979777D01*
X134350984Y-103960625D01*
X134417865Y-103980841D01*
X134462381Y-104032214D01*
X134532898Y-104183439D01*
X134658402Y-104362677D01*
X134813123Y-104517398D01*
X134992361Y-104642902D01*
X135190670Y-104735375D01*
X135190676Y-104735376D01*
X135190677Y-104735377D01*
X135195544Y-104736681D01*
X135402023Y-104792007D01*
X135582474Y-104807794D01*
X135619998Y-104811077D01*
X135620000Y-104811077D01*
X135620002Y-104811077D01*
X135648254Y-104808605D01*
X135837977Y-104792007D01*
X136049330Y-104735375D01*
X136247639Y-104642902D01*
X136426877Y-104517398D01*
X136581598Y-104362677D01*
X136707102Y-104183439D01*
X136777618Y-104032214D01*
X136823790Y-103979777D01*
X136890984Y-103960625D01*
X136957865Y-103980841D01*
X137002381Y-104032214D01*
X137072898Y-104183439D01*
X137198402Y-104362677D01*
X137353123Y-104517398D01*
X137532361Y-104642902D01*
X137730670Y-104735375D01*
X137730676Y-104735376D01*
X137730677Y-104735377D01*
X137735544Y-104736681D01*
X137942023Y-104792007D01*
X138122474Y-104807794D01*
X138159998Y-104811077D01*
X138160000Y-104811077D01*
X138160002Y-104811077D01*
X138188254Y-104808605D01*
X138377977Y-104792007D01*
X138589330Y-104735375D01*
X138787639Y-104642902D01*
X138966877Y-104517398D01*
X139087819Y-104396456D01*
X139149142Y-104362971D01*
X139218834Y-104367955D01*
X139274767Y-104409827D01*
X139299184Y-104475291D01*
X139299500Y-104484137D01*
X139299500Y-110975500D01*
X139279815Y-111042539D01*
X139227011Y-111088294D01*
X139175500Y-111099500D01*
X137889778Y-111099500D01*
X137817201Y-111110995D01*
X137672047Y-111133985D01*
X137462396Y-111202103D01*
X137462393Y-111202104D01*
X137265974Y-111302187D01*
X137087641Y-111431752D01*
X137087636Y-111431756D01*
X136931756Y-111587636D01*
X136931752Y-111587641D01*
X136802187Y-111765974D01*
X136702104Y-111962393D01*
X136702103Y-111962396D01*
X136633985Y-112172047D01*
X136633985Y-112172049D01*
X136599500Y-112389778D01*
X136599500Y-112610222D01*
X136603283Y-112634106D01*
X136633985Y-112827952D01*
X136702103Y-113037603D01*
X136702104Y-113037606D01*
X136802187Y-113234025D01*
X136931752Y-113412358D01*
X136931756Y-113412363D01*
X137087636Y-113568243D01*
X137087641Y-113568247D01*
X137213404Y-113659618D01*
X137265978Y-113697815D01*
X137394375Y-113763237D01*
X137462393Y-113797895D01*
X137462396Y-113797896D01*
X137543175Y-113824142D01*
X137672049Y-113866015D01*
X137889778Y-113900500D01*
X140289778Y-113900500D01*
X140734643Y-113900500D01*
X140734667Y-113900501D01*
X140739778Y-113900501D01*
X140965333Y-113900501D01*
X140965357Y-113900500D01*
X149887126Y-113900500D01*
X149954165Y-113920185D01*
X149999920Y-113972989D01*
X150009864Y-114042147D01*
X149989176Y-114094938D01*
X149953152Y-114147129D01*
X149919776Y-114195482D01*
X149918561Y-114197798D01*
X149911964Y-114208914D01*
X149717916Y-114500143D01*
X149702406Y-114519067D01*
X142358294Y-121863181D01*
X142296971Y-121896666D01*
X142270613Y-121899500D01*
X126727524Y-121899500D01*
X126673511Y-121913972D01*
X126673512Y-121913973D01*
X126587514Y-121937016D01*
X126461986Y-122009489D01*
X126461983Y-122009491D01*
X125379630Y-123091844D01*
X125318307Y-123125329D01*
X125248615Y-123120345D01*
X125192682Y-123078473D01*
X125168265Y-123013009D01*
X125172682Y-122970231D01*
X125185115Y-122926536D01*
X125205643Y-122705000D01*
X125185115Y-122483464D01*
X125124229Y-122269472D01*
X125083542Y-122187761D01*
X125025061Y-122070316D01*
X125025056Y-122070308D01*
X124890979Y-121892761D01*
X124726562Y-121742876D01*
X124726560Y-121742874D01*
X124537404Y-121625754D01*
X124537398Y-121625752D01*
X124329940Y-121545382D01*
X124111243Y-121504500D01*
X123888757Y-121504500D01*
X123670060Y-121545382D01*
X123538864Y-121596207D01*
X123462601Y-121625752D01*
X123462595Y-121625754D01*
X123273439Y-121742874D01*
X123273437Y-121742876D01*
X123109020Y-121892761D01*
X122974943Y-122070308D01*
X122974938Y-122070316D01*
X122875775Y-122269461D01*
X122875769Y-122269476D01*
X122814885Y-122483462D01*
X122814884Y-122483464D01*
X122794357Y-122704999D01*
X122794357Y-122705000D01*
X122814884Y-122926535D01*
X122814885Y-122926537D01*
X122875769Y-123140523D01*
X122875775Y-123140538D01*
X122974938Y-123339683D01*
X122974943Y-123339691D01*
X123109020Y-123517238D01*
X123273437Y-123667123D01*
X123273439Y-123667125D01*
X123462595Y-123784245D01*
X123462597Y-123784246D01*
X123462599Y-123784247D01*
X123651977Y-123857612D01*
X123707377Y-123900184D01*
X123730968Y-123965950D01*
X123715257Y-124034031D01*
X123665233Y-124082810D01*
X123650362Y-124089477D01*
X123573828Y-124117907D01*
X123563979Y-124121566D01*
X123562017Y-124122315D01*
X123556748Y-124124329D01*
X123556470Y-124124439D01*
X123556459Y-124124443D01*
X123521136Y-124140319D01*
X123515635Y-124143504D01*
X123515175Y-124142710D01*
X123497996Y-124152039D01*
X123462601Y-124165751D01*
X123462595Y-124165755D01*
X123273439Y-124282874D01*
X123273437Y-124282876D01*
X123109020Y-124432761D01*
X122974943Y-124610308D01*
X122974938Y-124610316D01*
X122875775Y-124809461D01*
X122875769Y-124809476D01*
X122814885Y-125023462D01*
X122814884Y-125023464D01*
X122794357Y-125244999D01*
X122794357Y-125245000D01*
X122814884Y-125466535D01*
X122814885Y-125466537D01*
X122875769Y-125680523D01*
X122875775Y-125680538D01*
X122974938Y-125879683D01*
X122974943Y-125879691D01*
X123109020Y-126057238D01*
X123273437Y-126207123D01*
X123273439Y-126207125D01*
X123462595Y-126324245D01*
X123462596Y-126324245D01*
X123462599Y-126324247D01*
X123670060Y-126404618D01*
X123888757Y-126445500D01*
X123888759Y-126445500D01*
X124111241Y-126445500D01*
X124111243Y-126445500D01*
X124329940Y-126404618D01*
X124537401Y-126324247D01*
X124726562Y-126207124D01*
X124890981Y-126057236D01*
X125025058Y-125879689D01*
X125124229Y-125680528D01*
X125124506Y-125679552D01*
X125127726Y-125669787D01*
X125178764Y-125534275D01*
X126749500Y-125534275D01*
X126749500Y-127297317D01*
X126760292Y-127365457D01*
X126764354Y-127391104D01*
X126821950Y-127504142D01*
X126821952Y-127504144D01*
X126821954Y-127504147D01*
X126911652Y-127593845D01*
X126911654Y-127593846D01*
X126911658Y-127593850D01*
X126991813Y-127634691D01*
X127024698Y-127651447D01*
X127118475Y-127666299D01*
X127118481Y-127666300D01*
X128881518Y-127666299D01*
X128975304Y-127651446D01*
X129088342Y-127593850D01*
X129178050Y-127504142D01*
X129235646Y-127391104D01*
X129235646Y-127391102D01*
X129235647Y-127391101D01*
X129250499Y-127297324D01*
X129250500Y-127297319D01*
X129250499Y-126415797D01*
X131824723Y-126415797D01*
X131824723Y-126415802D01*
X131843793Y-126633775D01*
X131843793Y-126633779D01*
X131900422Y-126845122D01*
X131900424Y-126845126D01*
X131900425Y-126845130D01*
X131932135Y-126913132D01*
X131992897Y-127043438D01*
X132017998Y-127079286D01*
X132118402Y-127222677D01*
X132273123Y-127377398D01*
X132452361Y-127502902D01*
X132650670Y-127595375D01*
X132862023Y-127652007D01*
X133044926Y-127668008D01*
X133079998Y-127671077D01*
X133080000Y-127671077D01*
X133080002Y-127671077D01*
X133108254Y-127668605D01*
X133297977Y-127652007D01*
X133509330Y-127595375D01*
X133707639Y-127502902D01*
X133886877Y-127377398D01*
X134041598Y-127222677D01*
X134167102Y-127043439D01*
X134237618Y-126892214D01*
X134283790Y-126839777D01*
X134350984Y-126820625D01*
X134417865Y-126840841D01*
X134462381Y-126892214D01*
X134532898Y-127043439D01*
X134658402Y-127222677D01*
X134813123Y-127377398D01*
X134992361Y-127502902D01*
X135190670Y-127595375D01*
X135402023Y-127652007D01*
X135584926Y-127668008D01*
X135619998Y-127671077D01*
X135620000Y-127671077D01*
X135620002Y-127671077D01*
X135648254Y-127668605D01*
X135837977Y-127652007D01*
X136049330Y-127595375D01*
X136247639Y-127502902D01*
X136426877Y-127377398D01*
X136581598Y-127222677D01*
X136707102Y-127043439D01*
X136777618Y-126892214D01*
X136823790Y-126839777D01*
X136890984Y-126820625D01*
X136957865Y-126840841D01*
X137002381Y-126892214D01*
X137072898Y-127043439D01*
X137198402Y-127222677D01*
X137353123Y-127377398D01*
X137532361Y-127502902D01*
X137730670Y-127595375D01*
X137942023Y-127652007D01*
X138124926Y-127668008D01*
X138159998Y-127671077D01*
X138160000Y-127671077D01*
X138160002Y-127671077D01*
X138188254Y-127668605D01*
X138377977Y-127652007D01*
X138589330Y-127595375D01*
X138787639Y-127502902D01*
X138966877Y-127377398D01*
X139121598Y-127222677D01*
X139247102Y-127043439D01*
X139339575Y-126845130D01*
X139396207Y-126633777D01*
X139415277Y-126415800D01*
X139415277Y-126415797D01*
X141984723Y-126415797D01*
X141984723Y-126415802D01*
X142003793Y-126633775D01*
X142003793Y-126633779D01*
X142060422Y-126845122D01*
X142060424Y-126845126D01*
X142060425Y-126845130D01*
X142092135Y-126913132D01*
X142152897Y-127043438D01*
X142177998Y-127079286D01*
X142278402Y-127222677D01*
X142433123Y-127377398D01*
X142612361Y-127502902D01*
X142810670Y-127595375D01*
X143022023Y-127652007D01*
X143204926Y-127668008D01*
X143239998Y-127671077D01*
X143240000Y-127671077D01*
X143240002Y-127671077D01*
X143268254Y-127668605D01*
X143457977Y-127652007D01*
X143669330Y-127595375D01*
X143867639Y-127502902D01*
X144046877Y-127377398D01*
X144201598Y-127222677D01*
X144327102Y-127043439D01*
X144397618Y-126892214D01*
X144443790Y-126839777D01*
X144510984Y-126820625D01*
X144577865Y-126840841D01*
X144622381Y-126892214D01*
X144692898Y-127043439D01*
X144818402Y-127222677D01*
X144973123Y-127377398D01*
X145152361Y-127502902D01*
X145350670Y-127595375D01*
X145562023Y-127652007D01*
X145744926Y-127668008D01*
X145779998Y-127671077D01*
X145780000Y-127671077D01*
X145780002Y-127671077D01*
X145808254Y-127668605D01*
X145997977Y-127652007D01*
X146209330Y-127595375D01*
X146407639Y-127502902D01*
X146586877Y-127377398D01*
X146741598Y-127222677D01*
X146867102Y-127043439D01*
X146937618Y-126892214D01*
X146983790Y-126839777D01*
X147050984Y-126820625D01*
X147117865Y-126840841D01*
X147162381Y-126892214D01*
X147232898Y-127043439D01*
X147358402Y-127222677D01*
X147513123Y-127377398D01*
X147692361Y-127502902D01*
X147890670Y-127595375D01*
X148102023Y-127652007D01*
X148284926Y-127668008D01*
X148319998Y-127671077D01*
X148320000Y-127671077D01*
X148320002Y-127671077D01*
X148348254Y-127668605D01*
X148537977Y-127652007D01*
X148749330Y-127595375D01*
X148947639Y-127502902D01*
X149126877Y-127377398D01*
X149281598Y-127222677D01*
X149407102Y-127043439D01*
X149477428Y-126892623D01*
X149523599Y-126840185D01*
X149590792Y-126821033D01*
X149657673Y-126841248D01*
X149703008Y-126894413D01*
X149704572Y-126898067D01*
X149710736Y-126913131D01*
X149714343Y-126919612D01*
X149714066Y-126919765D01*
X149719675Y-126929302D01*
X149772897Y-127043438D01*
X149797998Y-127079286D01*
X149898402Y-127222677D01*
X150053123Y-127377398D01*
X150232361Y-127502902D01*
X150430670Y-127595375D01*
X150642023Y-127652007D01*
X150824926Y-127668008D01*
X150859998Y-127671077D01*
X150860000Y-127671077D01*
X150860002Y-127671077D01*
X150888254Y-127668605D01*
X151077977Y-127652007D01*
X151289330Y-127595375D01*
X151487639Y-127502902D01*
X151666877Y-127377398D01*
X151821598Y-127222677D01*
X151947102Y-127043439D01*
X152039575Y-126845130D01*
X152096207Y-126633777D01*
X152115277Y-126415800D01*
X152096207Y-126197823D01*
X152039575Y-125986470D01*
X151947102Y-125788162D01*
X151947100Y-125788159D01*
X151947099Y-125788157D01*
X151821599Y-125608924D01*
X151746950Y-125534275D01*
X151666877Y-125454202D01*
X151487639Y-125328698D01*
X151487638Y-125328697D01*
X151487636Y-125328696D01*
X151345458Y-125262397D01*
X151336291Y-125257648D01*
X151317831Y-125247088D01*
X151317830Y-125247087D01*
X151317829Y-125247087D01*
X151294153Y-125238105D01*
X151291998Y-125237197D01*
X151286677Y-125235258D01*
X151285152Y-125234691D01*
X150395522Y-124897231D01*
X150339822Y-124855049D01*
X150315770Y-124789450D01*
X150315501Y-124781292D01*
X150315501Y-123461875D01*
X150335186Y-123394836D01*
X150351820Y-123374194D01*
X152524195Y-121201819D01*
X152585518Y-121168334D01*
X152611876Y-121165500D01*
X154526324Y-121165500D01*
X154593363Y-121185185D01*
X154614005Y-121201819D01*
X155491589Y-122079403D01*
X155521187Y-122126815D01*
X155825898Y-123014249D01*
X155918989Y-123285369D01*
X155920973Y-123291691D01*
X155922593Y-123297384D01*
X155922597Y-123297395D01*
X155926250Y-123304731D01*
X155928686Y-123309920D01*
X155941770Y-123339559D01*
X155942329Y-123340533D01*
X155952166Y-123356778D01*
X156017632Y-123488253D01*
X156039521Y-123517238D01*
X156146128Y-123658407D01*
X156303698Y-123802052D01*
X156484981Y-123914298D01*
X156683802Y-123991321D01*
X156893390Y-124030500D01*
X156893392Y-124030500D01*
X157106608Y-124030500D01*
X157106610Y-124030500D01*
X157316198Y-123991321D01*
X157515019Y-123914298D01*
X157696302Y-123802052D01*
X157853872Y-123658407D01*
X157982366Y-123488255D01*
X158055922Y-123340533D01*
X158077403Y-123297394D01*
X158077403Y-123297393D01*
X158077405Y-123297389D01*
X158135756Y-123092310D01*
X158144310Y-122999999D01*
X159794357Y-122999999D01*
X159794357Y-123000000D01*
X159814884Y-123221535D01*
X159814885Y-123221537D01*
X159875769Y-123435523D01*
X159875775Y-123435538D01*
X159974938Y-123634683D01*
X159974943Y-123634691D01*
X160109020Y-123812238D01*
X160273437Y-123962123D01*
X160273439Y-123962125D01*
X160462595Y-124079245D01*
X160462596Y-124079245D01*
X160462599Y-124079247D01*
X160670060Y-124159618D01*
X160888757Y-124200500D01*
X160888759Y-124200500D01*
X161111241Y-124200500D01*
X161111243Y-124200500D01*
X161329940Y-124159618D01*
X161537401Y-124079247D01*
X161726562Y-123962124D01*
X161890981Y-123812236D01*
X162025058Y-123634689D01*
X162124229Y-123435528D01*
X162185115Y-123221536D01*
X162205643Y-123000000D01*
X162198835Y-122926534D01*
X162185115Y-122778464D01*
X162185114Y-122778462D01*
X162164212Y-122705000D01*
X162124229Y-122564472D01*
X162073505Y-122462605D01*
X162025061Y-122365316D01*
X162025056Y-122365308D01*
X161890979Y-122187761D01*
X161726562Y-122037876D01*
X161726560Y-122037874D01*
X161537404Y-121920754D01*
X161537398Y-121920752D01*
X161329940Y-121840382D01*
X161111243Y-121799500D01*
X160888757Y-121799500D01*
X160670060Y-121840382D01*
X160568347Y-121879786D01*
X160462601Y-121920752D01*
X160462595Y-121920754D01*
X160273439Y-122037874D01*
X160273437Y-122037876D01*
X160109020Y-122187761D01*
X159974943Y-122365308D01*
X159974938Y-122365316D01*
X159875775Y-122564461D01*
X159875769Y-122564476D01*
X159814885Y-122778462D01*
X159814884Y-122778464D01*
X159794357Y-122999999D01*
X158144310Y-122999999D01*
X158155429Y-122880000D01*
X158135756Y-122667690D01*
X158077405Y-122462611D01*
X158077403Y-122462606D01*
X158077403Y-122462605D01*
X157982367Y-122271746D01*
X157853872Y-122101593D01*
X157819563Y-122070316D01*
X157696302Y-121957948D01*
X157614364Y-121907214D01*
X157515022Y-121845703D01*
X157443826Y-121818121D01*
X157430504Y-121812032D01*
X157406941Y-121799530D01*
X157406937Y-121799528D01*
X156246815Y-121401187D01*
X156199403Y-121371589D01*
X155355494Y-120527680D01*
X155322009Y-120466357D01*
X155326993Y-120396665D01*
X155355490Y-120352323D01*
X156199405Y-119508407D01*
X156246811Y-119478813D01*
X157176432Y-119159617D01*
X157406916Y-119080478D01*
X157410330Y-119079247D01*
X157418636Y-119076252D01*
X157419300Y-119076001D01*
X157459555Y-119058231D01*
X157459555Y-119058230D01*
X157459557Y-119058230D01*
X157464452Y-119055418D01*
X157481430Y-119047310D01*
X157515011Y-119034301D01*
X157515010Y-119034301D01*
X157515019Y-119034298D01*
X157696302Y-118922052D01*
X157853872Y-118778407D01*
X157982366Y-118608255D01*
X158068373Y-118435528D01*
X158077403Y-118417394D01*
X158077403Y-118417393D01*
X158077405Y-118417389D01*
X158135756Y-118212310D01*
X158155429Y-118000000D01*
X158155429Y-117999999D01*
X159794357Y-117999999D01*
X159794357Y-118000000D01*
X159814884Y-118221535D01*
X159814885Y-118221537D01*
X159875769Y-118435523D01*
X159875775Y-118435538D01*
X159974938Y-118634683D01*
X159974943Y-118634691D01*
X160109020Y-118812238D01*
X160273437Y-118962123D01*
X160273439Y-118962125D01*
X160462595Y-119079245D01*
X160462596Y-119079245D01*
X160462599Y-119079247D01*
X160670060Y-119159618D01*
X160888757Y-119200500D01*
X160888759Y-119200500D01*
X161111241Y-119200500D01*
X161111243Y-119200500D01*
X161329940Y-119159618D01*
X161537401Y-119079247D01*
X161726562Y-118962124D01*
X161890981Y-118812236D01*
X162025058Y-118634689D01*
X162124229Y-118435528D01*
X162185115Y-118221536D01*
X162205643Y-118000000D01*
X162185115Y-117778464D01*
X162124229Y-117564472D01*
X162124224Y-117564461D01*
X162025061Y-117365316D01*
X162025056Y-117365308D01*
X161890979Y-117187761D01*
X161726562Y-117037876D01*
X161726560Y-117037874D01*
X161537404Y-116920754D01*
X161537398Y-116920752D01*
X161329940Y-116840382D01*
X161111243Y-116799500D01*
X160888757Y-116799500D01*
X160670060Y-116840382D01*
X160545391Y-116888679D01*
X160462601Y-116920752D01*
X160462595Y-116920754D01*
X160273439Y-117037874D01*
X160273437Y-117037876D01*
X160109020Y-117187761D01*
X159974943Y-117365308D01*
X159974938Y-117365316D01*
X159875775Y-117564461D01*
X159875769Y-117564476D01*
X159814885Y-117778462D01*
X159814884Y-117778464D01*
X159794357Y-117999999D01*
X158155429Y-117999999D01*
X158135756Y-117787690D01*
X158077405Y-117582611D01*
X158077403Y-117582606D01*
X158077403Y-117582605D01*
X157982367Y-117391746D01*
X157853872Y-117221593D01*
X157842986Y-117211669D01*
X157696302Y-117077948D01*
X157515019Y-116965702D01*
X157515017Y-116965701D01*
X157398989Y-116920752D01*
X157316198Y-116888679D01*
X157106610Y-116849500D01*
X156893390Y-116849500D01*
X156683802Y-116888679D01*
X156683799Y-116888679D01*
X156683799Y-116888680D01*
X156484982Y-116965701D01*
X156484980Y-116965702D01*
X156303699Y-117077947D01*
X156146127Y-117221593D01*
X156017632Y-117391746D01*
X155922598Y-117582603D01*
X155922593Y-117582616D01*
X155920967Y-117588329D01*
X155918984Y-117594649D01*
X155521186Y-118753184D01*
X155491588Y-118800596D01*
X154614005Y-119678181D01*
X154552682Y-119711666D01*
X154526324Y-119714500D01*
X152100908Y-119714500D01*
X151973612Y-119748608D01*
X151859486Y-119814500D01*
X151859483Y-119814502D01*
X148964501Y-122709484D01*
X148964499Y-122709487D01*
X148898607Y-122823613D01*
X148864499Y-122950909D01*
X148864499Y-124781292D01*
X148844814Y-124848331D01*
X148792010Y-124894086D01*
X148784478Y-124897231D01*
X147894845Y-125234691D01*
X147893347Y-125235248D01*
X147888001Y-125237197D01*
X147885854Y-125238102D01*
X147867674Y-125244999D01*
X147862168Y-125247088D01*
X147862128Y-125247103D01*
X147855573Y-125249654D01*
X147855304Y-125249761D01*
X147821711Y-125264980D01*
X147818250Y-125267493D01*
X147797816Y-125279523D01*
X147692362Y-125328697D01*
X147692360Y-125328698D01*
X147513121Y-125454202D01*
X147358402Y-125608921D01*
X147232900Y-125788157D01*
X147232898Y-125788161D01*
X147162382Y-125939383D01*
X147116209Y-125991822D01*
X147049016Y-126010974D01*
X146982135Y-125990758D01*
X146937618Y-125939383D01*
X146909712Y-125879540D01*
X146867102Y-125788162D01*
X146867100Y-125788159D01*
X146867099Y-125788157D01*
X146741599Y-125608924D01*
X146666950Y-125534275D01*
X146586877Y-125454202D01*
X146407639Y-125328698D01*
X146407640Y-125328698D01*
X146407638Y-125328697D01*
X146265456Y-125262397D01*
X146209330Y-125236225D01*
X146209326Y-125236224D01*
X146209322Y-125236222D01*
X145997977Y-125179593D01*
X145780002Y-125160523D01*
X145779998Y-125160523D01*
X145634682Y-125173236D01*
X145562023Y-125179593D01*
X145562020Y-125179593D01*
X145350677Y-125236222D01*
X145350670Y-125236224D01*
X145350670Y-125236225D01*
X145347391Y-125237754D01*
X145152361Y-125328698D01*
X145152357Y-125328700D01*
X144973121Y-125454202D01*
X144818402Y-125608921D01*
X144692900Y-125788157D01*
X144692898Y-125788161D01*
X144622382Y-125939383D01*
X144576209Y-125991822D01*
X144509016Y-126010974D01*
X144442135Y-125990758D01*
X144397618Y-125939383D01*
X144369712Y-125879540D01*
X144327102Y-125788162D01*
X144327100Y-125788159D01*
X144327099Y-125788157D01*
X144201599Y-125608924D01*
X144126950Y-125534275D01*
X144046877Y-125454202D01*
X143867639Y-125328698D01*
X143867640Y-125328698D01*
X143867638Y-125328697D01*
X143725456Y-125262397D01*
X143669330Y-125236225D01*
X143669326Y-125236224D01*
X143669322Y-125236222D01*
X143457977Y-125179593D01*
X143240002Y-125160523D01*
X143239998Y-125160523D01*
X143094682Y-125173236D01*
X143022023Y-125179593D01*
X143022020Y-125179593D01*
X142810677Y-125236222D01*
X142810670Y-125236224D01*
X142810670Y-125236225D01*
X142807391Y-125237754D01*
X142612361Y-125328698D01*
X142612357Y-125328700D01*
X142433121Y-125454202D01*
X142278402Y-125608921D01*
X142152900Y-125788157D01*
X142152898Y-125788161D01*
X142060426Y-125986468D01*
X142060422Y-125986477D01*
X142003793Y-126197820D01*
X142003793Y-126197824D01*
X141984723Y-126415797D01*
X139415277Y-126415797D01*
X139396207Y-126197823D01*
X139339575Y-125986470D01*
X139247102Y-125788162D01*
X139247100Y-125788159D01*
X139247099Y-125788157D01*
X139121599Y-125608924D01*
X139046950Y-125534275D01*
X138966877Y-125454202D01*
X138787639Y-125328698D01*
X138787640Y-125328698D01*
X138787638Y-125328697D01*
X138645456Y-125262397D01*
X138589330Y-125236225D01*
X138589326Y-125236224D01*
X138589322Y-125236222D01*
X138377977Y-125179593D01*
X138160002Y-125160523D01*
X138159998Y-125160523D01*
X138014682Y-125173236D01*
X137942023Y-125179593D01*
X137942020Y-125179593D01*
X137730677Y-125236222D01*
X137730670Y-125236224D01*
X137730670Y-125236225D01*
X137727391Y-125237754D01*
X137532361Y-125328698D01*
X137532357Y-125328700D01*
X137353121Y-125454202D01*
X137198402Y-125608921D01*
X137072900Y-125788157D01*
X137072898Y-125788161D01*
X137002382Y-125939383D01*
X136956209Y-125991822D01*
X136889016Y-126010974D01*
X136822135Y-125990758D01*
X136777618Y-125939383D01*
X136749712Y-125879540D01*
X136707102Y-125788162D01*
X136707100Y-125788159D01*
X136707099Y-125788157D01*
X136581599Y-125608924D01*
X136506950Y-125534275D01*
X136426877Y-125454202D01*
X136247639Y-125328698D01*
X136247640Y-125328698D01*
X136247638Y-125328697D01*
X136105456Y-125262397D01*
X136049330Y-125236225D01*
X136049326Y-125236224D01*
X136049322Y-125236222D01*
X135837977Y-125179593D01*
X135620002Y-125160523D01*
X135619998Y-125160523D01*
X135474682Y-125173236D01*
X135402023Y-125179593D01*
X135402020Y-125179593D01*
X135190677Y-125236222D01*
X135190670Y-125236224D01*
X135190670Y-125236225D01*
X135187391Y-125237754D01*
X134992361Y-125328698D01*
X134992357Y-125328700D01*
X134813121Y-125454202D01*
X134658402Y-125608921D01*
X134532900Y-125788157D01*
X134532898Y-125788161D01*
X134462382Y-125939383D01*
X134416209Y-125991822D01*
X134349016Y-126010974D01*
X134282135Y-125990758D01*
X134237618Y-125939383D01*
X134209712Y-125879540D01*
X134167102Y-125788162D01*
X134167100Y-125788159D01*
X134167099Y-125788157D01*
X134041599Y-125608924D01*
X133966950Y-125534275D01*
X133886877Y-125454202D01*
X133707639Y-125328698D01*
X133707640Y-125328698D01*
X133707638Y-125328697D01*
X133565456Y-125262397D01*
X133509330Y-125236225D01*
X133509326Y-125236224D01*
X133509322Y-125236222D01*
X133297977Y-125179593D01*
X133080002Y-125160523D01*
X133079998Y-125160523D01*
X132934682Y-125173236D01*
X132862023Y-125179593D01*
X132862020Y-125179593D01*
X132650677Y-125236222D01*
X132650670Y-125236224D01*
X132650670Y-125236225D01*
X132647391Y-125237754D01*
X132452361Y-125328698D01*
X132452357Y-125328700D01*
X132273121Y-125454202D01*
X132118402Y-125608921D01*
X131992900Y-125788157D01*
X131992898Y-125788161D01*
X131900426Y-125986468D01*
X131900422Y-125986477D01*
X131843793Y-126197820D01*
X131843793Y-126197824D01*
X131824723Y-126415797D01*
X129250499Y-126415797D01*
X129250499Y-125534282D01*
X129235646Y-125440496D01*
X129178050Y-125327458D01*
X129178046Y-125327454D01*
X129178045Y-125327452D01*
X129088347Y-125237754D01*
X129088344Y-125237752D01*
X129088342Y-125237750D01*
X129011517Y-125198605D01*
X128975301Y-125180152D01*
X128881524Y-125165300D01*
X127118482Y-125165300D01*
X127037519Y-125178123D01*
X127024696Y-125180154D01*
X126911658Y-125237750D01*
X126911657Y-125237751D01*
X126911652Y-125237754D01*
X126821954Y-125327452D01*
X126821951Y-125327457D01*
X126821950Y-125327458D01*
X126811661Y-125347652D01*
X126764352Y-125440498D01*
X126749500Y-125534275D01*
X125178764Y-125534275D01*
X125582903Y-124461232D01*
X125611262Y-124417261D01*
X126991706Y-123036819D01*
X127053029Y-123003334D01*
X127079387Y-123000500D01*
X142622472Y-123000500D01*
X142622474Y-123000500D01*
X142622475Y-123000500D01*
X142762485Y-122962984D01*
X142768398Y-122959569D01*
X142769637Y-122958855D01*
X142769640Y-122958852D01*
X142769659Y-122958842D01*
X142888015Y-122890510D01*
X150480940Y-115297583D01*
X150499854Y-115282080D01*
X150812546Y-115073734D01*
X150812551Y-115073728D01*
X150812556Y-115073726D01*
X150816141Y-115070938D01*
X150816979Y-115072015D01*
X150834656Y-115059008D01*
X150872240Y-115039283D01*
X150990483Y-114934530D01*
X151080220Y-114804523D01*
X151136237Y-114656818D01*
X151155278Y-114500000D01*
X151136237Y-114343182D01*
X151132371Y-114332989D01*
X151104880Y-114260500D01*
X151080220Y-114195477D01*
X151010825Y-114094940D01*
X150988942Y-114028585D01*
X151006408Y-113960933D01*
X151057676Y-113913464D01*
X151112875Y-113900500D01*
X155384643Y-113900500D01*
X155384667Y-113900501D01*
X155389778Y-113900501D01*
X155610221Y-113900501D01*
X155610222Y-113900501D01*
X155827951Y-113866015D01*
X156037606Y-113797895D01*
X156234022Y-113697815D01*
X156302731Y-113647895D01*
X156412365Y-113568242D01*
X156568242Y-113412365D01*
X156568243Y-113412363D01*
X156575299Y-113405307D01*
X156575304Y-113405300D01*
X156693789Y-113286815D01*
X156755110Y-113253333D01*
X156781468Y-113250499D01*
X156881517Y-113250499D01*
X156881518Y-113250499D01*
X156975304Y-113235646D01*
X157088342Y-113178050D01*
X157178050Y-113088342D01*
X157235646Y-112975304D01*
X157235646Y-112975302D01*
X157235647Y-112975301D01*
X157250499Y-112881524D01*
X157250500Y-112881519D01*
X157250499Y-112660391D01*
X157264014Y-112604098D01*
X157297895Y-112537605D01*
X157366015Y-112327951D01*
X157400501Y-112110222D01*
X157400501Y-111889778D01*
X157366015Y-111672049D01*
X157297895Y-111462394D01*
X157297895Y-111462393D01*
X157264014Y-111395899D01*
X157250499Y-111339604D01*
X157250499Y-111118482D01*
X157245718Y-111088294D01*
X157235646Y-111024696D01*
X157178050Y-110911658D01*
X157178046Y-110911654D01*
X157178045Y-110911652D01*
X157088347Y-110821954D01*
X157088344Y-110821952D01*
X157088342Y-110821950D01*
X157011517Y-110782805D01*
X156975301Y-110764352D01*
X156881524Y-110749500D01*
X156881519Y-110749500D01*
X156731862Y-110749500D01*
X156664823Y-110729815D01*
X156619068Y-110677011D01*
X156609124Y-110607853D01*
X156638149Y-110544297D01*
X156660734Y-110523928D01*
X156806877Y-110421598D01*
X156961598Y-110266877D01*
X157087102Y-110087639D01*
X157127969Y-109999999D01*
X158794357Y-109999999D01*
X158794357Y-110000000D01*
X158814884Y-110221535D01*
X158814885Y-110221537D01*
X158875769Y-110435523D01*
X158875775Y-110435538D01*
X158974938Y-110634683D01*
X158974943Y-110634691D01*
X159109020Y-110812238D01*
X159273437Y-110962123D01*
X159273439Y-110962125D01*
X159462595Y-111079245D01*
X159462596Y-111079245D01*
X159462599Y-111079247D01*
X159670060Y-111159618D01*
X159888757Y-111200500D01*
X159888759Y-111200500D01*
X160111241Y-111200500D01*
X160111243Y-111200500D01*
X160329940Y-111159618D01*
X160537401Y-111079247D01*
X160726562Y-110962124D01*
X160890981Y-110812236D01*
X161025058Y-110634689D01*
X161124229Y-110435528D01*
X161185115Y-110221536D01*
X161205643Y-110000000D01*
X161199669Y-109935534D01*
X161185115Y-109778464D01*
X161185114Y-109778462D01*
X161168917Y-109721536D01*
X161124229Y-109564472D01*
X161092126Y-109500000D01*
X161025061Y-109365316D01*
X161025056Y-109365308D01*
X160890979Y-109187761D01*
X160726562Y-109037876D01*
X160726560Y-109037874D01*
X160537404Y-108920754D01*
X160537398Y-108920752D01*
X160329940Y-108840382D01*
X160111243Y-108799500D01*
X159888757Y-108799500D01*
X159670060Y-108840382D01*
X159542459Y-108889815D01*
X159462601Y-108920752D01*
X159462595Y-108920754D01*
X159273439Y-109037874D01*
X159273437Y-109037876D01*
X159109020Y-109187761D01*
X158974943Y-109365308D01*
X158974938Y-109365316D01*
X158875775Y-109564461D01*
X158875769Y-109564476D01*
X158814885Y-109778462D01*
X158814884Y-109778464D01*
X158794357Y-109999999D01*
X157127969Y-109999999D01*
X157179575Y-109889330D01*
X157236207Y-109677977D01*
X157255277Y-109460000D01*
X157254953Y-109456300D01*
X157246993Y-109365311D01*
X157236207Y-109242023D01*
X157179575Y-109030670D01*
X157087102Y-108832362D01*
X157087100Y-108832359D01*
X157087099Y-108832357D01*
X156961599Y-108653124D01*
X156961598Y-108653123D01*
X156806877Y-108498402D01*
X156627639Y-108372898D01*
X156476414Y-108302381D01*
X156423977Y-108256210D01*
X156404825Y-108189016D01*
X156425041Y-108122135D01*
X156476414Y-108077618D01*
X156627639Y-108007102D01*
X156806877Y-107881598D01*
X156961598Y-107726877D01*
X157087102Y-107547639D01*
X157179575Y-107349330D01*
X157236207Y-107137977D01*
X157255277Y-106920000D01*
X157236207Y-106702023D01*
X157179575Y-106490670D01*
X157087102Y-106292362D01*
X157087100Y-106292359D01*
X157087099Y-106292357D01*
X156961599Y-106113124D01*
X156886347Y-106037872D01*
X156806877Y-105958402D01*
X156645457Y-105845374D01*
X156627638Y-105832897D01*
X156527561Y-105786231D01*
X156429330Y-105740425D01*
X156429326Y-105740424D01*
X156429322Y-105740422D01*
X156217977Y-105683793D01*
X156000002Y-105664723D01*
X155999998Y-105664723D01*
X155854682Y-105677436D01*
X155782023Y-105683793D01*
X155782020Y-105683793D01*
X155570669Y-105740424D01*
X155528071Y-105760288D01*
X155509441Y-105767217D01*
X155493573Y-105771708D01*
X154917622Y-106037872D01*
X154242611Y-106349815D01*
X154224765Y-106358062D01*
X154172747Y-106369500D01*
X151963587Y-106369500D01*
X151896548Y-106349815D01*
X151875906Y-106333181D01*
X150546171Y-105003446D01*
X150512686Y-104942123D01*
X150517670Y-104872431D01*
X150559542Y-104816498D01*
X150625006Y-104792081D01*
X150644651Y-104792236D01*
X150805386Y-104806299D01*
X150859998Y-104811077D01*
X150860000Y-104811077D01*
X150860002Y-104811077D01*
X150888254Y-104808605D01*
X151077977Y-104792007D01*
X151289330Y-104735375D01*
X151487639Y-104642902D01*
X151666877Y-104517398D01*
X151821598Y-104362677D01*
X151947102Y-104183439D01*
X152039575Y-103985130D01*
X152096207Y-103773777D01*
X152112805Y-103584054D01*
X152115277Y-103555802D01*
X152115277Y-103555797D01*
X152105102Y-103439500D01*
X152096207Y-103337823D01*
X152051936Y-103172601D01*
X152039577Y-103126477D01*
X152039576Y-103126476D01*
X152039575Y-103126470D01*
X151947102Y-102928162D01*
X151947100Y-102928159D01*
X151947099Y-102928157D01*
X151821599Y-102748924D01*
X151746950Y-102674275D01*
X151666877Y-102594202D01*
X151487639Y-102468698D01*
X151487640Y-102468698D01*
X151487638Y-102468697D01*
X151338827Y-102399306D01*
X151289330Y-102376225D01*
X151289326Y-102376224D01*
X151289322Y-102376222D01*
X151077977Y-102319593D01*
X150860002Y-102300523D01*
X150859998Y-102300523D01*
X150714682Y-102313236D01*
X150642023Y-102319593D01*
X150642020Y-102319593D01*
X150430677Y-102376222D01*
X150430670Y-102376224D01*
X150430670Y-102376225D01*
X150410278Y-102385734D01*
X150232361Y-102468698D01*
X150232357Y-102468700D01*
X150053121Y-102594202D01*
X149898402Y-102748921D01*
X149772900Y-102928157D01*
X149772898Y-102928162D01*
X149703862Y-103076209D01*
X149657689Y-103128648D01*
X149590496Y-103147800D01*
X149523615Y-103127584D01*
X149478332Y-103074534D01*
X149470837Y-103057817D01*
X149468619Y-103054757D01*
X149456636Y-103034388D01*
X149430307Y-102977926D01*
X149407102Y-102928162D01*
X149281598Y-102748923D01*
X149126877Y-102594202D01*
X148947639Y-102468698D01*
X148947640Y-102468698D01*
X148947638Y-102468697D01*
X148798827Y-102399306D01*
X148749330Y-102376225D01*
X148749326Y-102376224D01*
X148749322Y-102376222D01*
X148537977Y-102319593D01*
X148320002Y-102300523D01*
X148319998Y-102300523D01*
X148174682Y-102313236D01*
X148102023Y-102319593D01*
X148102020Y-102319593D01*
X147890677Y-102376222D01*
X147890670Y-102376224D01*
X147890670Y-102376225D01*
X147870278Y-102385734D01*
X147692361Y-102468698D01*
X147692357Y-102468700D01*
X147513121Y-102594202D01*
X147358402Y-102748921D01*
X147232900Y-102928157D01*
X147232898Y-102928162D01*
X147163862Y-103076209D01*
X147117689Y-103128648D01*
X147050496Y-103147800D01*
X146983615Y-103127584D01*
X146938332Y-103074534D01*
X146930837Y-103057817D01*
X146928619Y-103054757D01*
X146916636Y-103034388D01*
X146890307Y-102977926D01*
X146867102Y-102928162D01*
X146741598Y-102748923D01*
X146586877Y-102594202D01*
X146407639Y-102468698D01*
X146407640Y-102468698D01*
X146407638Y-102468697D01*
X146258827Y-102399306D01*
X146209330Y-102376225D01*
X146209326Y-102376224D01*
X146209322Y-102376222D01*
X145997977Y-102319593D01*
X145780002Y-102300523D01*
X145779998Y-102300523D01*
X145634682Y-102313236D01*
X145562023Y-102319593D01*
X145562020Y-102319593D01*
X145350677Y-102376222D01*
X145350670Y-102376224D01*
X145350670Y-102376225D01*
X145330278Y-102385734D01*
X145152361Y-102468698D01*
X145152357Y-102468700D01*
X144973121Y-102594202D01*
X144818402Y-102748921D01*
X144692900Y-102928157D01*
X144692898Y-102928161D01*
X144622382Y-103079383D01*
X144576209Y-103131822D01*
X144509016Y-103150974D01*
X144442135Y-103130758D01*
X144397618Y-103079383D01*
X144350307Y-102977926D01*
X144327102Y-102928162D01*
X144327100Y-102928159D01*
X144327099Y-102928157D01*
X144201599Y-102748924D01*
X144126950Y-102674275D01*
X144046877Y-102594202D01*
X143867639Y-102468698D01*
X143867640Y-102468698D01*
X143867638Y-102468697D01*
X143718829Y-102399306D01*
X143710747Y-102395171D01*
X143693861Y-102385735D01*
X143693859Y-102385734D01*
X143679140Y-102380319D01*
X143669570Y-102376336D01*
X143669336Y-102376227D01*
X143668745Y-102376012D01*
X143659194Y-102372981D01*
X143601004Y-102351576D01*
X143601004Y-102351575D01*
X143600998Y-102351574D01*
X142382071Y-101903170D01*
X142337201Y-101874476D01*
X140874906Y-100412181D01*
X140841421Y-100350858D01*
X140846405Y-100281166D01*
X140888277Y-100225233D01*
X140953741Y-100200816D01*
X140962587Y-100200500D01*
X164960118Y-100200500D01*
X164997294Y-100200500D01*
X165002702Y-100200617D01*
X165412917Y-100218528D01*
X165423654Y-100219468D01*
X165828057Y-100272708D01*
X165838695Y-100274583D01*
X166236925Y-100362869D01*
X166247365Y-100365667D01*
X166636363Y-100488317D01*
X166646524Y-100492015D01*
X167023363Y-100648108D01*
X167033155Y-100652674D01*
X167394965Y-100841020D01*
X167404305Y-100846413D01*
X167689636Y-101028189D01*
X167748309Y-101065568D01*
X167757170Y-101071772D01*
X168080766Y-101320076D01*
X168089053Y-101327030D01*
X168389767Y-101602583D01*
X168397416Y-101610232D01*
X168672969Y-101910946D01*
X168679923Y-101919233D01*
X168928227Y-102242829D01*
X168934431Y-102251690D01*
X168998065Y-102351575D01*
X169143904Y-102580496D01*
X169153578Y-102595680D01*
X169158987Y-102605048D01*
X169347322Y-102966838D01*
X169351894Y-102976642D01*
X169507983Y-103353473D01*
X169511683Y-103363639D01*
X169634331Y-103752630D01*
X169637131Y-103763078D01*
X169725414Y-104161296D01*
X169727292Y-104171950D01*
X169780529Y-104576326D01*
X169781472Y-104587102D01*
X169799382Y-104997297D01*
X169799500Y-105002706D01*
X169799500Y-124997293D01*
X169799382Y-125002702D01*
X169781472Y-125412897D01*
X169780529Y-125423673D01*
X169727292Y-125828049D01*
X169725414Y-125838703D01*
X169637131Y-126236921D01*
X169634331Y-126247369D01*
X169511683Y-126636360D01*
X169507983Y-126646526D01*
X169351894Y-127023357D01*
X169347322Y-127033161D01*
X169158987Y-127394951D01*
X169153578Y-127404319D01*
X168934431Y-127748309D01*
X168928227Y-127757170D01*
X168679923Y-128080766D01*
X168672969Y-128089053D01*
X168397416Y-128389767D01*
X168389767Y-128397416D01*
X168089053Y-128672969D01*
X168080766Y-128679923D01*
X167757170Y-128928227D01*
X167748309Y-128934431D01*
X167404319Y-129153578D01*
X167394951Y-129158987D01*
X167033161Y-129347322D01*
X167023357Y-129351894D01*
X166646526Y-129507983D01*
X166636360Y-129511683D01*
X166247369Y-129634331D01*
X166236921Y-129637131D01*
X165838703Y-129725414D01*
X165828049Y-129727292D01*
X165423673Y-129780529D01*
X165412897Y-129781472D01*
X165002703Y-129799382D01*
X164997294Y-129799500D01*
X105002706Y-129799500D01*
X104997297Y-129799382D01*
X104587102Y-129781472D01*
X104576326Y-129780529D01*
X104171950Y-129727292D01*
X104161296Y-129725414D01*
X103763078Y-129637131D01*
X103752630Y-129634331D01*
X103363639Y-129511683D01*
X103353473Y-129507983D01*
X102976642Y-129351894D01*
X102966838Y-129347322D01*
X102847126Y-129285004D01*
X102605042Y-129158983D01*
X102595686Y-129153582D01*
X102423685Y-129044004D01*
X102251690Y-128934431D01*
X102242829Y-128928227D01*
X101919233Y-128679923D01*
X101910946Y-128672969D01*
X101610232Y-128397416D01*
X101602583Y-128389767D01*
X101327030Y-128089053D01*
X101320076Y-128080766D01*
X101071772Y-127757170D01*
X101065568Y-127748309D01*
X101003859Y-127651446D01*
X100846413Y-127404305D01*
X100841020Y-127394965D01*
X100652674Y-127033155D01*
X100648105Y-127023357D01*
X100638430Y-127000000D01*
X100492015Y-126646524D01*
X100488316Y-126636360D01*
X100465646Y-126564461D01*
X100365667Y-126247365D01*
X100362868Y-126236921D01*
X100274583Y-125838695D01*
X100272707Y-125828049D01*
X100267456Y-125788161D01*
X100219468Y-125423654D01*
X100218528Y-125412917D01*
X100200618Y-125002702D01*
X100200500Y-124997293D01*
X100200500Y-122999999D01*
X102254357Y-122999999D01*
X102254357Y-123000000D01*
X102274884Y-123221535D01*
X102274885Y-123221537D01*
X102335769Y-123435523D01*
X102335775Y-123435538D01*
X102434938Y-123634683D01*
X102434943Y-123634691D01*
X102569020Y-123812238D01*
X102733437Y-123962123D01*
X102733439Y-123962125D01*
X102922595Y-124079245D01*
X102922596Y-124079245D01*
X102922599Y-124079247D01*
X103130060Y-124159618D01*
X103348757Y-124200500D01*
X103348759Y-124200500D01*
X103571241Y-124200500D01*
X103571243Y-124200500D01*
X103789940Y-124159618D01*
X103997401Y-124079247D01*
X104160224Y-123978431D01*
X104227583Y-123959876D01*
X104294282Y-123980684D01*
X104339144Y-124034250D01*
X104349500Y-124083859D01*
X104349500Y-125280613D01*
X104329815Y-125347652D01*
X104313179Y-125368296D01*
X104291097Y-125390377D01*
X104246884Y-125418826D01*
X103023038Y-125876884D01*
X103016485Y-125879402D01*
X103016138Y-125879538D01*
X102981121Y-125895293D01*
X102975643Y-125898467D01*
X102975189Y-125897684D01*
X102957892Y-125907079D01*
X102922600Y-125920751D01*
X102922594Y-125920754D01*
X102733439Y-126037874D01*
X102733437Y-126037876D01*
X102569020Y-126187761D01*
X102434943Y-126365308D01*
X102434938Y-126365316D01*
X102335775Y-126564461D01*
X102335769Y-126564476D01*
X102274885Y-126778462D01*
X102274884Y-126778464D01*
X102254357Y-126999999D01*
X102254357Y-127000000D01*
X102274884Y-127221535D01*
X102274885Y-127221537D01*
X102335769Y-127435523D01*
X102335775Y-127435538D01*
X102434938Y-127634683D01*
X102434943Y-127634691D01*
X102569020Y-127812238D01*
X102733437Y-127962123D01*
X102733439Y-127962125D01*
X102922595Y-128079245D01*
X102922596Y-128079245D01*
X102922599Y-128079247D01*
X103130060Y-128159618D01*
X103348757Y-128200500D01*
X103348759Y-128200500D01*
X103571241Y-128200500D01*
X103571243Y-128200500D01*
X103789940Y-128159618D01*
X103997401Y-128079247D01*
X104186562Y-127962124D01*
X104350981Y-127812236D01*
X104485058Y-127634689D01*
X104552129Y-127499993D01*
X113594700Y-127499993D01*
X113594700Y-127500006D01*
X113613864Y-127731297D01*
X113613866Y-127731308D01*
X113670842Y-127956300D01*
X113764075Y-128168848D01*
X113891016Y-128363147D01*
X113891019Y-128363151D01*
X113891021Y-128363153D01*
X114048216Y-128533913D01*
X114048219Y-128533915D01*
X114048222Y-128533918D01*
X114231365Y-128676464D01*
X114231371Y-128676468D01*
X114231374Y-128676470D01*
X114435497Y-128786936D01*
X114549487Y-128826068D01*
X114655015Y-128862297D01*
X114655017Y-128862297D01*
X114655019Y-128862298D01*
X114883951Y-128900500D01*
X114883952Y-128900500D01*
X115116048Y-128900500D01*
X115116049Y-128900500D01*
X115344981Y-128862298D01*
X115564503Y-128786936D01*
X115768626Y-128676470D01*
X115951784Y-128533913D01*
X116108979Y-128363153D01*
X116235924Y-128168849D01*
X116329157Y-127956300D01*
X116386134Y-127731305D01*
X116391125Y-127671077D01*
X116405300Y-127500006D01*
X116405300Y-127499993D01*
X116386135Y-127268702D01*
X116386133Y-127268691D01*
X116329157Y-127043699D01*
X116235924Y-126831151D01*
X116108983Y-126636852D01*
X116108980Y-126636849D01*
X116108979Y-126636847D01*
X115951784Y-126466087D01*
X115951779Y-126466083D01*
X115951777Y-126466081D01*
X115768634Y-126323535D01*
X115768628Y-126323531D01*
X115564504Y-126213064D01*
X115564495Y-126213061D01*
X115344984Y-126137702D01*
X115173282Y-126109050D01*
X115116049Y-126099500D01*
X114883951Y-126099500D01*
X114838164Y-126107140D01*
X114655015Y-126137702D01*
X114435504Y-126213061D01*
X114435495Y-126213064D01*
X114231371Y-126323531D01*
X114231365Y-126323535D01*
X114048222Y-126466081D01*
X114048219Y-126466084D01*
X113891016Y-126636852D01*
X113764075Y-126831151D01*
X113670842Y-127043699D01*
X113613866Y-127268691D01*
X113613864Y-127268702D01*
X113594700Y-127499993D01*
X104552129Y-127499993D01*
X104584229Y-127435528D01*
X104584688Y-127433912D01*
X104587817Y-127424390D01*
X105041172Y-126213111D01*
X105069618Y-126168904D01*
X105340510Y-125898014D01*
X105412984Y-125772485D01*
X105437624Y-125680528D01*
X105450500Y-125632475D01*
X105450500Y-125299999D01*
X119244357Y-125299999D01*
X119244357Y-125300000D01*
X119264884Y-125521535D01*
X119264885Y-125521537D01*
X119325769Y-125735523D01*
X119325775Y-125735538D01*
X119424938Y-125934683D01*
X119424943Y-125934691D01*
X119559020Y-126112238D01*
X119723437Y-126262123D01*
X119723439Y-126262125D01*
X119912595Y-126379245D01*
X119912596Y-126379245D01*
X119912599Y-126379247D01*
X120120060Y-126459618D01*
X120338757Y-126500500D01*
X120338759Y-126500500D01*
X120561241Y-126500500D01*
X120561243Y-126500500D01*
X120779940Y-126459618D01*
X120987401Y-126379247D01*
X121176562Y-126262124D01*
X121340981Y-126112236D01*
X121475058Y-125934689D01*
X121494676Y-125895292D01*
X121574224Y-125735538D01*
X121574223Y-125735538D01*
X121574229Y-125735528D01*
X121635115Y-125521536D01*
X121655643Y-125300000D01*
X121650741Y-125247103D01*
X121635115Y-125078464D01*
X121635114Y-125078462D01*
X121619465Y-125023462D01*
X121574229Y-124864472D01*
X121566192Y-124848331D01*
X121475061Y-124665316D01*
X121475056Y-124665308D01*
X121340979Y-124487761D01*
X121176562Y-124337876D01*
X121176560Y-124337874D01*
X120987404Y-124220754D01*
X120987398Y-124220752D01*
X120779940Y-124140382D01*
X120561243Y-124099500D01*
X120338757Y-124099500D01*
X120120060Y-124140382D01*
X120054565Y-124165755D01*
X119912601Y-124220752D01*
X119912595Y-124220754D01*
X119723439Y-124337874D01*
X119723437Y-124337876D01*
X119559020Y-124487761D01*
X119424943Y-124665308D01*
X119424938Y-124665316D01*
X119325775Y-124864461D01*
X119325769Y-124864476D01*
X119264885Y-125078462D01*
X119264884Y-125078464D01*
X119244357Y-125299999D01*
X105450500Y-125299999D01*
X105450500Y-120999993D01*
X113594700Y-120999993D01*
X113594700Y-121000006D01*
X113613864Y-121231297D01*
X113613866Y-121231308D01*
X113670842Y-121456300D01*
X113764075Y-121668848D01*
X113891016Y-121863147D01*
X113891019Y-121863151D01*
X113891021Y-121863153D01*
X114048216Y-122033913D01*
X114048219Y-122033915D01*
X114048222Y-122033918D01*
X114231365Y-122176464D01*
X114231371Y-122176468D01*
X114231374Y-122176470D01*
X114398860Y-122267109D01*
X114407426Y-122271745D01*
X114435497Y-122286936D01*
X114549487Y-122326068D01*
X114655015Y-122362297D01*
X114655017Y-122362297D01*
X114655019Y-122362298D01*
X114883951Y-122400500D01*
X114883952Y-122400500D01*
X115116048Y-122400500D01*
X115116049Y-122400500D01*
X115344981Y-122362298D01*
X115564503Y-122286936D01*
X115768626Y-122176470D01*
X115951784Y-122033913D01*
X116108979Y-121863153D01*
X116235924Y-121668849D01*
X116329157Y-121456300D01*
X116386134Y-121231305D01*
X116386135Y-121231297D01*
X116405300Y-121000006D01*
X116405300Y-120999993D01*
X116386135Y-120768702D01*
X116386133Y-120768691D01*
X116329157Y-120543699D01*
X116235924Y-120331151D01*
X116108983Y-120136852D01*
X116108980Y-120136849D01*
X116108979Y-120136847D01*
X115951784Y-119966087D01*
X115951779Y-119966083D01*
X115951777Y-119966081D01*
X115768634Y-119823535D01*
X115768628Y-119823531D01*
X115564504Y-119713064D01*
X115564495Y-119713061D01*
X115344984Y-119637702D01*
X115173282Y-119609050D01*
X115116049Y-119599500D01*
X114883951Y-119599500D01*
X114838164Y-119607140D01*
X114655015Y-119637702D01*
X114435504Y-119713061D01*
X114435495Y-119713064D01*
X114231371Y-119823531D01*
X114231365Y-119823535D01*
X114048222Y-119966081D01*
X114048219Y-119966084D01*
X113891016Y-120136852D01*
X113764075Y-120331151D01*
X113670842Y-120543699D01*
X113613866Y-120768691D01*
X113613864Y-120768702D01*
X113594700Y-120999993D01*
X105450500Y-120999993D01*
X105450500Y-117279386D01*
X105470185Y-117212347D01*
X105486815Y-117191709D01*
X105884288Y-116794235D01*
X105945609Y-116760752D01*
X106015300Y-116765736D01*
X106071234Y-116807607D01*
X106091215Y-116856664D01*
X106092594Y-116856295D01*
X106094699Y-116864151D01*
X106154006Y-117007331D01*
X106154200Y-117007798D01*
X106248851Y-117131149D01*
X106372202Y-117225800D01*
X106515849Y-117285301D01*
X106631299Y-117300500D01*
X106993125Y-117300499D01*
X106993137Y-117300500D01*
X107003127Y-117300500D01*
X108606871Y-117300500D01*
X108606872Y-117300500D01*
X108606873Y-117300500D01*
X108631884Y-117295524D01*
X108631888Y-117295524D01*
X108631888Y-117295523D01*
X108631889Y-117295523D01*
X108757664Y-117270507D01*
X108865595Y-117225800D01*
X108899706Y-117211671D01*
X109027540Y-117126254D01*
X109136254Y-117017540D01*
X109136254Y-117017538D01*
X109146462Y-117007331D01*
X109146463Y-117007328D01*
X110056254Y-116097540D01*
X110067068Y-116081356D01*
X110141671Y-115969706D01*
X110176135Y-115886499D01*
X110200507Y-115827664D01*
X110230500Y-115676873D01*
X110230500Y-115523128D01*
X110230500Y-114462072D01*
X110250185Y-114395033D01*
X110302989Y-114349278D01*
X110307023Y-114347521D01*
X110372849Y-114320255D01*
X110426547Y-114298013D01*
X110527578Y-114230506D01*
X110574036Y-114199464D01*
X110829127Y-113944371D01*
X110860461Y-113921597D01*
X111480757Y-113605243D01*
X111494546Y-113597872D01*
X111494549Y-113597869D01*
X111499373Y-113595291D01*
X111499612Y-113595738D01*
X111514297Y-113588197D01*
X111515686Y-113587658D01*
X111537401Y-113579247D01*
X111726562Y-113462124D01*
X111890981Y-113312236D01*
X112025058Y-113134689D01*
X112124229Y-112935528D01*
X112185115Y-112721536D01*
X112205643Y-112500000D01*
X112205643Y-112499999D01*
X113794357Y-112499999D01*
X113794357Y-112500000D01*
X113814884Y-112721535D01*
X113814885Y-112721537D01*
X113875769Y-112935523D01*
X113875775Y-112935538D01*
X113974938Y-113134683D01*
X113974943Y-113134691D01*
X114109020Y-113312238D01*
X114273437Y-113462123D01*
X114273439Y-113462125D01*
X114462595Y-113579245D01*
X114462596Y-113579245D01*
X114462599Y-113579247D01*
X114670060Y-113659618D01*
X114888757Y-113700500D01*
X114888759Y-113700500D01*
X115111241Y-113700500D01*
X115111243Y-113700500D01*
X115329940Y-113659618D01*
X115537401Y-113579247D01*
X115726562Y-113462124D01*
X115890981Y-113312236D01*
X116025058Y-113134689D01*
X116124229Y-112935528D01*
X116185115Y-112721536D01*
X116205643Y-112500000D01*
X116205643Y-112499999D01*
X128794357Y-112499999D01*
X128794357Y-112500000D01*
X128814884Y-112721535D01*
X128814885Y-112721537D01*
X128875769Y-112935523D01*
X128875775Y-112935538D01*
X128974938Y-113134683D01*
X128974943Y-113134691D01*
X129109020Y-113312238D01*
X129273437Y-113462123D01*
X129273439Y-113462125D01*
X129462595Y-113579245D01*
X129462596Y-113579245D01*
X129462599Y-113579247D01*
X129670060Y-113659618D01*
X129888757Y-113700500D01*
X129888759Y-113700500D01*
X130111241Y-113700500D01*
X130111243Y-113700500D01*
X130329940Y-113659618D01*
X130537401Y-113579247D01*
X130726562Y-113462124D01*
X130890981Y-113312236D01*
X131025058Y-113134689D01*
X131124229Y-112935528D01*
X131185115Y-112721536D01*
X131205643Y-112500000D01*
X131205643Y-112499999D01*
X132794357Y-112499999D01*
X132794357Y-112500000D01*
X132814884Y-112721535D01*
X132814885Y-112721537D01*
X132875769Y-112935523D01*
X132875775Y-112935538D01*
X132974938Y-113134683D01*
X132974943Y-113134691D01*
X133109020Y-113312238D01*
X133273437Y-113462123D01*
X133273439Y-113462125D01*
X133462595Y-113579245D01*
X133462596Y-113579245D01*
X133462599Y-113579247D01*
X133670060Y-113659618D01*
X133888757Y-113700500D01*
X133888759Y-113700500D01*
X134111241Y-113700500D01*
X134111243Y-113700500D01*
X134329940Y-113659618D01*
X134537401Y-113579247D01*
X134726562Y-113462124D01*
X134890981Y-113312236D01*
X135025058Y-113134689D01*
X135124229Y-112935528D01*
X135185115Y-112721536D01*
X135205643Y-112500000D01*
X135185115Y-112278464D01*
X135124229Y-112064472D01*
X135073400Y-111962394D01*
X135025061Y-111865316D01*
X135025056Y-111865308D01*
X134890979Y-111687761D01*
X134726562Y-111537876D01*
X134726560Y-111537874D01*
X134537404Y-111420754D01*
X134537398Y-111420752D01*
X134329940Y-111340382D01*
X134111243Y-111299500D01*
X133888757Y-111299500D01*
X133670060Y-111340382D01*
X133595221Y-111369375D01*
X133462601Y-111420752D01*
X133462595Y-111420754D01*
X133273439Y-111537874D01*
X133273437Y-111537876D01*
X133109020Y-111687761D01*
X132974943Y-111865308D01*
X132974938Y-111865316D01*
X132875775Y-112064461D01*
X132875769Y-112064476D01*
X132814885Y-112278462D01*
X132814884Y-112278464D01*
X132794357Y-112499999D01*
X131205643Y-112499999D01*
X131185115Y-112278464D01*
X131124229Y-112064472D01*
X131073400Y-111962394D01*
X131025061Y-111865316D01*
X131025056Y-111865308D01*
X130890979Y-111687761D01*
X130726562Y-111537876D01*
X130726560Y-111537874D01*
X130537404Y-111420754D01*
X130537398Y-111420752D01*
X130329940Y-111340382D01*
X130111243Y-111299500D01*
X129888757Y-111299500D01*
X129670060Y-111340382D01*
X129595221Y-111369375D01*
X129462601Y-111420752D01*
X129462595Y-111420754D01*
X129273439Y-111537874D01*
X129273437Y-111537876D01*
X129109020Y-111687761D01*
X128974943Y-111865308D01*
X128974938Y-111865316D01*
X128875775Y-112064461D01*
X128875769Y-112064476D01*
X128814885Y-112278462D01*
X128814884Y-112278464D01*
X128794357Y-112499999D01*
X116205643Y-112499999D01*
X116185115Y-112278464D01*
X116124229Y-112064472D01*
X116073400Y-111962394D01*
X116025061Y-111865316D01*
X116025056Y-111865308D01*
X115890979Y-111687761D01*
X115726562Y-111537876D01*
X115726560Y-111537874D01*
X115537404Y-111420754D01*
X115537398Y-111420752D01*
X115329940Y-111340382D01*
X115111243Y-111299500D01*
X114888757Y-111299500D01*
X114670060Y-111340382D01*
X114595221Y-111369375D01*
X114462601Y-111420752D01*
X114462595Y-111420754D01*
X114273439Y-111537874D01*
X114273437Y-111537876D01*
X114109020Y-111687761D01*
X113974943Y-111865308D01*
X113974938Y-111865316D01*
X113875775Y-112064461D01*
X113875769Y-112064476D01*
X113814885Y-112278462D01*
X113814884Y-112278464D01*
X113794357Y-112499999D01*
X112205643Y-112499999D01*
X112185115Y-112278464D01*
X112124229Y-112064472D01*
X112073400Y-111962394D01*
X112025061Y-111865316D01*
X112025056Y-111865308D01*
X111890979Y-111687761D01*
X111726562Y-111537876D01*
X111726560Y-111537874D01*
X111537404Y-111420754D01*
X111537398Y-111420752D01*
X111329940Y-111340382D01*
X111111243Y-111299500D01*
X110888757Y-111299500D01*
X110670060Y-111340382D01*
X110595221Y-111369375D01*
X110462601Y-111420752D01*
X110462595Y-111420754D01*
X110273439Y-111537874D01*
X110273437Y-111537876D01*
X110109020Y-111687761D01*
X109974943Y-111865308D01*
X109916419Y-111982836D01*
X109903153Y-112003878D01*
X109901151Y-112006441D01*
X109901146Y-112006448D01*
X109901145Y-112006451D01*
X109843646Y-112110222D01*
X109607947Y-112535599D01*
X109558237Y-112584698D01*
X109499484Y-112599500D01*
X109361306Y-112599500D01*
X109187341Y-112634103D01*
X109187332Y-112634106D01*
X109052245Y-112690061D01*
X109004793Y-112699500D01*
X106631296Y-112699500D01*
X106515857Y-112714696D01*
X106515848Y-112714699D01*
X106372205Y-112774198D01*
X106372202Y-112774199D01*
X106372202Y-112774200D01*
X106248851Y-112868851D01*
X106167167Y-112975304D01*
X106154198Y-112992205D01*
X106094699Y-113135848D01*
X106094698Y-113135850D01*
X106079500Y-113251298D01*
X106079500Y-113708703D01*
X106094696Y-113824142D01*
X106094700Y-113824154D01*
X106115788Y-113875066D01*
X106123257Y-113944536D01*
X106091981Y-114007015D01*
X106063230Y-114029904D01*
X106036257Y-114045477D01*
X106011985Y-114059491D01*
X106011983Y-114059492D01*
X106011979Y-114059495D01*
X105852385Y-114219087D01*
X105841894Y-114228450D01*
X105835094Y-114233857D01*
X105833738Y-114235023D01*
X105789668Y-114279222D01*
X105785173Y-114284933D01*
X105784545Y-114284438D01*
X105775200Y-114296274D01*
X104029491Y-116041983D01*
X104029489Y-116041986D01*
X103966959Y-116150294D01*
X103966957Y-116150297D01*
X103957017Y-116167512D01*
X103957016Y-116167514D01*
X103957016Y-116167515D01*
X103919500Y-116307525D01*
X103919500Y-116307527D01*
X103919500Y-121451052D01*
X103899815Y-121518091D01*
X103847011Y-121563846D01*
X103839495Y-121566985D01*
X103021177Y-121877528D01*
X103015362Y-121879786D01*
X103015078Y-121879898D01*
X103015040Y-121879915D01*
X102980872Y-121895359D01*
X102975415Y-121898528D01*
X102974964Y-121897752D01*
X102957541Y-121907214D01*
X102922600Y-121920751D01*
X102922594Y-121920754D01*
X102733439Y-122037874D01*
X102733437Y-122037876D01*
X102569020Y-122187761D01*
X102434943Y-122365308D01*
X102434938Y-122365316D01*
X102335775Y-122564461D01*
X102335769Y-122564476D01*
X102274885Y-122778462D01*
X102274884Y-122778464D01*
X102254357Y-122999999D01*
X100200500Y-122999999D01*
X100200500Y-105002706D01*
X100200618Y-104997297D01*
X100205061Y-104895528D01*
X100218528Y-104587080D01*
X100219468Y-104576347D01*
X100246188Y-104373389D01*
X101699500Y-104373389D01*
X101699500Y-104546610D01*
X101726046Y-104714219D01*
X101726598Y-104717701D01*
X101776873Y-104872431D01*
X101780128Y-104882447D01*
X101786793Y-104895528D01*
X101858768Y-105036788D01*
X101960586Y-105176928D01*
X102083072Y-105299414D01*
X102223212Y-105401232D01*
X102377555Y-105479873D01*
X102542299Y-105533402D01*
X102713389Y-105560500D01*
X102713390Y-105560500D01*
X103286610Y-105560500D01*
X103286611Y-105560500D01*
X103457701Y-105533402D01*
X103622445Y-105479873D01*
X103776788Y-105401232D01*
X103916928Y-105299414D01*
X104039414Y-105176928D01*
X104141232Y-105036788D01*
X104219873Y-104882445D01*
X104273402Y-104717701D01*
X104300500Y-104546611D01*
X104300500Y-104459999D01*
X105794357Y-104459999D01*
X105794357Y-104460000D01*
X105814884Y-104681535D01*
X105814885Y-104681537D01*
X105875769Y-104895523D01*
X105875775Y-104895538D01*
X105974938Y-105094683D01*
X105974943Y-105094691D01*
X106109020Y-105272238D01*
X106273437Y-105422123D01*
X106273439Y-105422125D01*
X106462595Y-105539245D01*
X106462596Y-105539245D01*
X106462599Y-105539247D01*
X106656524Y-105614374D01*
X106711924Y-105656946D01*
X106735515Y-105722713D01*
X106719804Y-105790793D01*
X106669780Y-105839572D01*
X106656533Y-105845622D01*
X106508488Y-105902975D01*
X106462601Y-105920752D01*
X106462595Y-105920754D01*
X106273439Y-106037874D01*
X106273437Y-106037876D01*
X106109020Y-106187761D01*
X105974943Y-106365308D01*
X105974938Y-106365316D01*
X105875775Y-106564461D01*
X105875769Y-106564476D01*
X105814885Y-106778462D01*
X105814884Y-106778464D01*
X105794357Y-106999999D01*
X105794357Y-107000000D01*
X105814884Y-107221535D01*
X105814885Y-107221537D01*
X105875769Y-107435523D01*
X105875775Y-107435538D01*
X105974938Y-107634683D01*
X105974943Y-107634691D01*
X106109020Y-107812238D01*
X106273437Y-107962123D01*
X106273439Y-107962125D01*
X106462595Y-108079245D01*
X106462596Y-108079245D01*
X106462599Y-108079247D01*
X106670060Y-108159618D01*
X106888757Y-108200500D01*
X106888759Y-108200500D01*
X107111241Y-108200500D01*
X107111243Y-108200500D01*
X107329940Y-108159618D01*
X107537401Y-108079247D01*
X107726562Y-107962124D01*
X107890981Y-107812236D01*
X108025058Y-107634689D01*
X108124229Y-107435528D01*
X108185115Y-107221536D01*
X108205643Y-107000000D01*
X108185115Y-106778464D01*
X108124229Y-106564472D01*
X108124224Y-106564461D01*
X108025061Y-106365316D01*
X108025056Y-106365308D01*
X107890979Y-106187761D01*
X107726562Y-106037876D01*
X107726560Y-106037874D01*
X107537404Y-105920754D01*
X107537395Y-105920750D01*
X107434144Y-105880751D01*
X107343475Y-105845625D01*
X107288075Y-105803054D01*
X107264484Y-105737288D01*
X107280195Y-105669207D01*
X107330219Y-105620428D01*
X107343466Y-105614377D01*
X107537401Y-105539247D01*
X107726562Y-105422124D01*
X107890981Y-105272236D01*
X108025058Y-105094689D01*
X108124229Y-104895528D01*
X108185115Y-104681536D01*
X108205643Y-104460000D01*
X108205030Y-104453389D01*
X108185115Y-104238464D01*
X108185114Y-104238462D01*
X108179503Y-104218743D01*
X108124229Y-104024472D01*
X108124224Y-104024461D01*
X108025061Y-103825316D01*
X108025056Y-103825308D01*
X107890979Y-103647761D01*
X107726562Y-103497876D01*
X107726560Y-103497874D01*
X107537404Y-103380754D01*
X107537398Y-103380752D01*
X107329940Y-103300382D01*
X107111243Y-103259500D01*
X106888757Y-103259500D01*
X106670060Y-103300382D01*
X106538864Y-103351207D01*
X106462601Y-103380752D01*
X106462595Y-103380754D01*
X106273439Y-103497874D01*
X106273437Y-103497876D01*
X106109020Y-103647761D01*
X105974943Y-103825308D01*
X105974938Y-103825316D01*
X105875775Y-104024461D01*
X105875769Y-104024476D01*
X105814885Y-104238462D01*
X105814884Y-104238464D01*
X105794357Y-104459999D01*
X104300500Y-104459999D01*
X104300500Y-104373389D01*
X104273402Y-104202299D01*
X104219873Y-104037555D01*
X104141232Y-103883212D01*
X104039414Y-103743072D01*
X103916928Y-103620586D01*
X103776788Y-103518768D01*
X103622445Y-103440127D01*
X103457701Y-103386598D01*
X103457699Y-103386597D01*
X103457698Y-103386597D01*
X103326271Y-103365781D01*
X103286611Y-103359500D01*
X102713389Y-103359500D01*
X102673728Y-103365781D01*
X102542302Y-103386597D01*
X102377552Y-103440128D01*
X102223211Y-103518768D01*
X102172246Y-103555797D01*
X102083072Y-103620586D01*
X102083070Y-103620588D01*
X102083069Y-103620588D01*
X101960588Y-103743069D01*
X101960588Y-103743070D01*
X101960586Y-103743072D01*
X101916859Y-103803256D01*
X101858768Y-103883211D01*
X101780128Y-104037552D01*
X101726597Y-104202302D01*
X101699500Y-104373389D01*
X100246188Y-104373389D01*
X100272709Y-104171938D01*
X100274582Y-104161308D01*
X100362870Y-103763068D01*
X100365668Y-103752630D01*
X100368682Y-103743072D01*
X100488319Y-103363629D01*
X100492016Y-103353473D01*
X100648111Y-102976627D01*
X100652669Y-102966853D01*
X100841025Y-102605024D01*
X100846407Y-102595703D01*
X101065574Y-102251680D01*
X101071765Y-102242837D01*
X101320083Y-101919224D01*
X101327021Y-101910955D01*
X101602594Y-101610220D01*
X101610220Y-101602594D01*
X101910955Y-101327021D01*
X101919224Y-101320083D01*
X102242837Y-101071765D01*
X102251680Y-101065574D01*
X102595703Y-100846407D01*
X102605024Y-100841025D01*
X102966853Y-100652669D01*
X102976627Y-100648111D01*
X103353482Y-100492012D01*
X103363629Y-100488319D01*
X103752639Y-100365665D01*
X103763068Y-100362870D01*
X104161308Y-100274582D01*
X104171938Y-100272709D01*
X104576347Y-100219468D01*
X104587080Y-100218528D01*
X104997297Y-100200617D01*
X105002706Y-100200500D01*
X105039882Y-100200500D01*
X116021613Y-100200500D01*
X116088652Y-100220185D01*
G37*
%TD.AperFunction*%
%TD*%
M02*
