%TF.GenerationSoftware,KiCad,Pcbnew,8.0.6*%
%TF.CreationDate,2024-11-06T22:38:32+08:00*%
%TF.ProjectId,lichuang-gekuo-star-stm32f103c8t6-development-board,6c696368-7561-46e6-972d-67656b756f2d,rev?*%
%TF.SameCoordinates,Original*%
%TF.FileFunction,Legend,Bot*%
%TF.FilePolarity,Positive*%
%FSLAX46Y46*%
G04 Gerber Fmt 4.6, Leading zero omitted, Abs format (unit mm)*
G04 Created by KiCad (PCBNEW 8.0.6) date 2024-11-06 22:38:32*
%MOMM*%
%LPD*%
G01*
G04 APERTURE LIST*
%ADD10C,0.150000*%
%ADD11C,0.120000*%
G04 APERTURE END LIST*
D10*
X80990476Y-120742295D02*
X80495238Y-120742295D01*
X80495238Y-120742295D02*
X80761904Y-121047057D01*
X80761904Y-121047057D02*
X80647619Y-121047057D01*
X80647619Y-121047057D02*
X80571428Y-121085152D01*
X80571428Y-121085152D02*
X80533333Y-121123247D01*
X80533333Y-121123247D02*
X80495238Y-121199438D01*
X80495238Y-121199438D02*
X80495238Y-121389914D01*
X80495238Y-121389914D02*
X80533333Y-121466104D01*
X80533333Y-121466104D02*
X80571428Y-121504200D01*
X80571428Y-121504200D02*
X80647619Y-121542295D01*
X80647619Y-121542295D02*
X80876190Y-121542295D01*
X80876190Y-121542295D02*
X80952381Y-121504200D01*
X80952381Y-121504200D02*
X80990476Y-121466104D01*
X80266666Y-120742295D02*
X79999999Y-121542295D01*
X79999999Y-121542295D02*
X79733333Y-120742295D01*
X79542857Y-120742295D02*
X79047619Y-120742295D01*
X79047619Y-120742295D02*
X79314285Y-121047057D01*
X79314285Y-121047057D02*
X79200000Y-121047057D01*
X79200000Y-121047057D02*
X79123809Y-121085152D01*
X79123809Y-121085152D02*
X79085714Y-121123247D01*
X79085714Y-121123247D02*
X79047619Y-121199438D01*
X79047619Y-121199438D02*
X79047619Y-121389914D01*
X79047619Y-121389914D02*
X79085714Y-121466104D01*
X79085714Y-121466104D02*
X79123809Y-121504200D01*
X79123809Y-121504200D02*
X79200000Y-121542295D01*
X79200000Y-121542295D02*
X79428571Y-121542295D01*
X79428571Y-121542295D02*
X79504762Y-121504200D01*
X79504762Y-121504200D02*
X79542857Y-121466104D01*
X95945237Y-129110390D02*
X96021427Y-129072295D01*
X96021427Y-129072295D02*
X96135713Y-129072295D01*
X96135713Y-129072295D02*
X96249999Y-129110390D01*
X96249999Y-129110390D02*
X96326189Y-129186580D01*
X96326189Y-129186580D02*
X96364284Y-129262771D01*
X96364284Y-129262771D02*
X96402380Y-129415152D01*
X96402380Y-129415152D02*
X96402380Y-129529438D01*
X96402380Y-129529438D02*
X96364284Y-129681819D01*
X96364284Y-129681819D02*
X96326189Y-129758009D01*
X96326189Y-129758009D02*
X96249999Y-129834200D01*
X96249999Y-129834200D02*
X96135713Y-129872295D01*
X96135713Y-129872295D02*
X96059522Y-129872295D01*
X96059522Y-129872295D02*
X95945237Y-129834200D01*
X95945237Y-129834200D02*
X95907141Y-129796104D01*
X95907141Y-129796104D02*
X95907141Y-129529438D01*
X95907141Y-129529438D02*
X96059522Y-129529438D01*
X95564284Y-129872295D02*
X95564284Y-129072295D01*
X95564284Y-129072295D02*
X95107141Y-129872295D01*
X95107141Y-129872295D02*
X95107141Y-129072295D01*
X94726189Y-129872295D02*
X94726189Y-129072295D01*
X94726189Y-129072295D02*
X94535713Y-129072295D01*
X94535713Y-129072295D02*
X94421427Y-129110390D01*
X94421427Y-129110390D02*
X94345237Y-129186580D01*
X94345237Y-129186580D02*
X94307142Y-129262771D01*
X94307142Y-129262771D02*
X94269046Y-129415152D01*
X94269046Y-129415152D02*
X94269046Y-129529438D01*
X94269046Y-129529438D02*
X94307142Y-129681819D01*
X94307142Y-129681819D02*
X94345237Y-129758009D01*
X94345237Y-129758009D02*
X94421427Y-129834200D01*
X94421427Y-129834200D02*
X94535713Y-129872295D01*
X94535713Y-129872295D02*
X94726189Y-129872295D01*
X117611428Y-111372295D02*
X117611428Y-110572295D01*
X117611428Y-110572295D02*
X117306666Y-110572295D01*
X117306666Y-110572295D02*
X117230476Y-110610390D01*
X117230476Y-110610390D02*
X117192381Y-110648485D01*
X117192381Y-110648485D02*
X117154285Y-110724676D01*
X117154285Y-110724676D02*
X117154285Y-110838961D01*
X117154285Y-110838961D02*
X117192381Y-110915152D01*
X117192381Y-110915152D02*
X117230476Y-110953247D01*
X117230476Y-110953247D02*
X117306666Y-110991342D01*
X117306666Y-110991342D02*
X117611428Y-110991342D01*
X116544762Y-110953247D02*
X116430476Y-110991342D01*
X116430476Y-110991342D02*
X116392381Y-111029438D01*
X116392381Y-111029438D02*
X116354285Y-111105628D01*
X116354285Y-111105628D02*
X116354285Y-111219914D01*
X116354285Y-111219914D02*
X116392381Y-111296104D01*
X116392381Y-111296104D02*
X116430476Y-111334200D01*
X116430476Y-111334200D02*
X116506666Y-111372295D01*
X116506666Y-111372295D02*
X116811428Y-111372295D01*
X116811428Y-111372295D02*
X116811428Y-110572295D01*
X116811428Y-110572295D02*
X116544762Y-110572295D01*
X116544762Y-110572295D02*
X116468571Y-110610390D01*
X116468571Y-110610390D02*
X116430476Y-110648485D01*
X116430476Y-110648485D02*
X116392381Y-110724676D01*
X116392381Y-110724676D02*
X116392381Y-110800866D01*
X116392381Y-110800866D02*
X116430476Y-110877057D01*
X116430476Y-110877057D02*
X116468571Y-110915152D01*
X116468571Y-110915152D02*
X116544762Y-110953247D01*
X116544762Y-110953247D02*
X116811428Y-110953247D01*
X115592381Y-111372295D02*
X116049524Y-111372295D01*
X115820952Y-111372295D02*
X115820952Y-110572295D01*
X115820952Y-110572295D02*
X115897143Y-110686580D01*
X115897143Y-110686580D02*
X115973333Y-110762771D01*
X115973333Y-110762771D02*
X116049524Y-110800866D01*
X115325714Y-110572295D02*
X114830476Y-110572295D01*
X114830476Y-110572295D02*
X115097142Y-110877057D01*
X115097142Y-110877057D02*
X114982857Y-110877057D01*
X114982857Y-110877057D02*
X114906666Y-110915152D01*
X114906666Y-110915152D02*
X114868571Y-110953247D01*
X114868571Y-110953247D02*
X114830476Y-111029438D01*
X114830476Y-111029438D02*
X114830476Y-111219914D01*
X114830476Y-111219914D02*
X114868571Y-111296104D01*
X114868571Y-111296104D02*
X114906666Y-111334200D01*
X114906666Y-111334200D02*
X114982857Y-111372295D01*
X114982857Y-111372295D02*
X115211428Y-111372295D01*
X115211428Y-111372295D02*
X115287619Y-111334200D01*
X115287619Y-111334200D02*
X115325714Y-111296104D01*
X80933332Y-116462295D02*
X80933332Y-115662295D01*
X80933332Y-115662295D02*
X80628570Y-115662295D01*
X80628570Y-115662295D02*
X80552380Y-115700390D01*
X80552380Y-115700390D02*
X80514285Y-115738485D01*
X80514285Y-115738485D02*
X80476189Y-115814676D01*
X80476189Y-115814676D02*
X80476189Y-115928961D01*
X80476189Y-115928961D02*
X80514285Y-116005152D01*
X80514285Y-116005152D02*
X80552380Y-116043247D01*
X80552380Y-116043247D02*
X80628570Y-116081342D01*
X80628570Y-116081342D02*
X80933332Y-116081342D01*
X80171428Y-116233723D02*
X79790475Y-116233723D01*
X80247618Y-116462295D02*
X79980951Y-115662295D01*
X79980951Y-115662295D02*
X79714285Y-116462295D01*
X79333333Y-116005152D02*
X79409523Y-115967057D01*
X79409523Y-115967057D02*
X79447618Y-115928961D01*
X79447618Y-115928961D02*
X79485714Y-115852771D01*
X79485714Y-115852771D02*
X79485714Y-115814676D01*
X79485714Y-115814676D02*
X79447618Y-115738485D01*
X79447618Y-115738485D02*
X79409523Y-115700390D01*
X79409523Y-115700390D02*
X79333333Y-115662295D01*
X79333333Y-115662295D02*
X79180952Y-115662295D01*
X79180952Y-115662295D02*
X79104761Y-115700390D01*
X79104761Y-115700390D02*
X79066666Y-115738485D01*
X79066666Y-115738485D02*
X79028571Y-115814676D01*
X79028571Y-115814676D02*
X79028571Y-115852771D01*
X79028571Y-115852771D02*
X79066666Y-115928961D01*
X79066666Y-115928961D02*
X79104761Y-115967057D01*
X79104761Y-115967057D02*
X79180952Y-116005152D01*
X79180952Y-116005152D02*
X79333333Y-116005152D01*
X79333333Y-116005152D02*
X79409523Y-116043247D01*
X79409523Y-116043247D02*
X79447618Y-116081342D01*
X79447618Y-116081342D02*
X79485714Y-116157533D01*
X79485714Y-116157533D02*
X79485714Y-116309914D01*
X79485714Y-116309914D02*
X79447618Y-116386104D01*
X79447618Y-116386104D02*
X79409523Y-116424200D01*
X79409523Y-116424200D02*
X79333333Y-116462295D01*
X79333333Y-116462295D02*
X79180952Y-116462295D01*
X79180952Y-116462295D02*
X79104761Y-116424200D01*
X79104761Y-116424200D02*
X79066666Y-116386104D01*
X79066666Y-116386104D02*
X79028571Y-116309914D01*
X79028571Y-116309914D02*
X79028571Y-116157533D01*
X79028571Y-116157533D02*
X79066666Y-116081342D01*
X79066666Y-116081342D02*
X79104761Y-116043247D01*
X79104761Y-116043247D02*
X79180952Y-116005152D01*
X80609523Y-123320390D02*
X80685713Y-123282295D01*
X80685713Y-123282295D02*
X80799999Y-123282295D01*
X80799999Y-123282295D02*
X80914285Y-123320390D01*
X80914285Y-123320390D02*
X80990475Y-123396580D01*
X80990475Y-123396580D02*
X81028570Y-123472771D01*
X81028570Y-123472771D02*
X81066666Y-123625152D01*
X81066666Y-123625152D02*
X81066666Y-123739438D01*
X81066666Y-123739438D02*
X81028570Y-123891819D01*
X81028570Y-123891819D02*
X80990475Y-123968009D01*
X80990475Y-123968009D02*
X80914285Y-124044200D01*
X80914285Y-124044200D02*
X80799999Y-124082295D01*
X80799999Y-124082295D02*
X80723808Y-124082295D01*
X80723808Y-124082295D02*
X80609523Y-124044200D01*
X80609523Y-124044200D02*
X80571427Y-124006104D01*
X80571427Y-124006104D02*
X80571427Y-123739438D01*
X80571427Y-123739438D02*
X80723808Y-123739438D01*
X80228570Y-124082295D02*
X80228570Y-123282295D01*
X80228570Y-123282295D02*
X79771427Y-124082295D01*
X79771427Y-124082295D02*
X79771427Y-123282295D01*
X79390475Y-124082295D02*
X79390475Y-123282295D01*
X79390475Y-123282295D02*
X79199999Y-123282295D01*
X79199999Y-123282295D02*
X79085713Y-123320390D01*
X79085713Y-123320390D02*
X79009523Y-123396580D01*
X79009523Y-123396580D02*
X78971428Y-123472771D01*
X78971428Y-123472771D02*
X78933332Y-123625152D01*
X78933332Y-123625152D02*
X78933332Y-123739438D01*
X78933332Y-123739438D02*
X78971428Y-123891819D01*
X78971428Y-123891819D02*
X79009523Y-123968009D01*
X79009523Y-123968009D02*
X79085713Y-124044200D01*
X79085713Y-124044200D02*
X79199999Y-124082295D01*
X79199999Y-124082295D02*
X79390475Y-124082295D01*
X80990475Y-91062295D02*
X80990475Y-90262295D01*
X80990475Y-90262295D02*
X80685713Y-90262295D01*
X80685713Y-90262295D02*
X80609523Y-90300390D01*
X80609523Y-90300390D02*
X80571428Y-90338485D01*
X80571428Y-90338485D02*
X80533332Y-90414676D01*
X80533332Y-90414676D02*
X80533332Y-90528961D01*
X80533332Y-90528961D02*
X80571428Y-90605152D01*
X80571428Y-90605152D02*
X80609523Y-90643247D01*
X80609523Y-90643247D02*
X80685713Y-90681342D01*
X80685713Y-90681342D02*
X80990475Y-90681342D01*
X79923809Y-90643247D02*
X79809523Y-90681342D01*
X79809523Y-90681342D02*
X79771428Y-90719438D01*
X79771428Y-90719438D02*
X79733332Y-90795628D01*
X79733332Y-90795628D02*
X79733332Y-90909914D01*
X79733332Y-90909914D02*
X79771428Y-90986104D01*
X79771428Y-90986104D02*
X79809523Y-91024200D01*
X79809523Y-91024200D02*
X79885713Y-91062295D01*
X79885713Y-91062295D02*
X80190475Y-91062295D01*
X80190475Y-91062295D02*
X80190475Y-90262295D01*
X80190475Y-90262295D02*
X79923809Y-90262295D01*
X79923809Y-90262295D02*
X79847618Y-90300390D01*
X79847618Y-90300390D02*
X79809523Y-90338485D01*
X79809523Y-90338485D02*
X79771428Y-90414676D01*
X79771428Y-90414676D02*
X79771428Y-90490866D01*
X79771428Y-90490866D02*
X79809523Y-90567057D01*
X79809523Y-90567057D02*
X79847618Y-90605152D01*
X79847618Y-90605152D02*
X79923809Y-90643247D01*
X79923809Y-90643247D02*
X80190475Y-90643247D01*
X79466666Y-90262295D02*
X78933332Y-90262295D01*
X78933332Y-90262295D02*
X79276190Y-91062295D01*
X116849523Y-123310390D02*
X116925713Y-123272295D01*
X116925713Y-123272295D02*
X117039999Y-123272295D01*
X117039999Y-123272295D02*
X117154285Y-123310390D01*
X117154285Y-123310390D02*
X117230475Y-123386580D01*
X117230475Y-123386580D02*
X117268570Y-123462771D01*
X117268570Y-123462771D02*
X117306666Y-123615152D01*
X117306666Y-123615152D02*
X117306666Y-123729438D01*
X117306666Y-123729438D02*
X117268570Y-123881819D01*
X117268570Y-123881819D02*
X117230475Y-123958009D01*
X117230475Y-123958009D02*
X117154285Y-124034200D01*
X117154285Y-124034200D02*
X117039999Y-124072295D01*
X117039999Y-124072295D02*
X116963808Y-124072295D01*
X116963808Y-124072295D02*
X116849523Y-124034200D01*
X116849523Y-124034200D02*
X116811427Y-123996104D01*
X116811427Y-123996104D02*
X116811427Y-123729438D01*
X116811427Y-123729438D02*
X116963808Y-123729438D01*
X116468570Y-124072295D02*
X116468570Y-123272295D01*
X116468570Y-123272295D02*
X116011427Y-124072295D01*
X116011427Y-124072295D02*
X116011427Y-123272295D01*
X115630475Y-124072295D02*
X115630475Y-123272295D01*
X115630475Y-123272295D02*
X115439999Y-123272295D01*
X115439999Y-123272295D02*
X115325713Y-123310390D01*
X115325713Y-123310390D02*
X115249523Y-123386580D01*
X115249523Y-123386580D02*
X115211428Y-123462771D01*
X115211428Y-123462771D02*
X115173332Y-123615152D01*
X115173332Y-123615152D02*
X115173332Y-123729438D01*
X115173332Y-123729438D02*
X115211428Y-123881819D01*
X115211428Y-123881819D02*
X115249523Y-123958009D01*
X115249523Y-123958009D02*
X115325713Y-124034200D01*
X115325713Y-124034200D02*
X115439999Y-124072295D01*
X115439999Y-124072295D02*
X115630475Y-124072295D01*
X80990475Y-98682295D02*
X80990475Y-97882295D01*
X80990475Y-97882295D02*
X80685713Y-97882295D01*
X80685713Y-97882295D02*
X80609523Y-97920390D01*
X80609523Y-97920390D02*
X80571428Y-97958485D01*
X80571428Y-97958485D02*
X80533332Y-98034676D01*
X80533332Y-98034676D02*
X80533332Y-98148961D01*
X80533332Y-98148961D02*
X80571428Y-98225152D01*
X80571428Y-98225152D02*
X80609523Y-98263247D01*
X80609523Y-98263247D02*
X80685713Y-98301342D01*
X80685713Y-98301342D02*
X80990475Y-98301342D01*
X79923809Y-98263247D02*
X79809523Y-98301342D01*
X79809523Y-98301342D02*
X79771428Y-98339438D01*
X79771428Y-98339438D02*
X79733332Y-98415628D01*
X79733332Y-98415628D02*
X79733332Y-98529914D01*
X79733332Y-98529914D02*
X79771428Y-98606104D01*
X79771428Y-98606104D02*
X79809523Y-98644200D01*
X79809523Y-98644200D02*
X79885713Y-98682295D01*
X79885713Y-98682295D02*
X80190475Y-98682295D01*
X80190475Y-98682295D02*
X80190475Y-97882295D01*
X80190475Y-97882295D02*
X79923809Y-97882295D01*
X79923809Y-97882295D02*
X79847618Y-97920390D01*
X79847618Y-97920390D02*
X79809523Y-97958485D01*
X79809523Y-97958485D02*
X79771428Y-98034676D01*
X79771428Y-98034676D02*
X79771428Y-98110866D01*
X79771428Y-98110866D02*
X79809523Y-98187057D01*
X79809523Y-98187057D02*
X79847618Y-98225152D01*
X79847618Y-98225152D02*
X79923809Y-98263247D01*
X79923809Y-98263247D02*
X80190475Y-98263247D01*
X79047618Y-98148961D02*
X79047618Y-98682295D01*
X79238094Y-97844200D02*
X79428571Y-98415628D01*
X79428571Y-98415628D02*
X78933332Y-98415628D01*
X117611428Y-106292295D02*
X117611428Y-105492295D01*
X117611428Y-105492295D02*
X117306666Y-105492295D01*
X117306666Y-105492295D02*
X117230476Y-105530390D01*
X117230476Y-105530390D02*
X117192381Y-105568485D01*
X117192381Y-105568485D02*
X117154285Y-105644676D01*
X117154285Y-105644676D02*
X117154285Y-105758961D01*
X117154285Y-105758961D02*
X117192381Y-105835152D01*
X117192381Y-105835152D02*
X117230476Y-105873247D01*
X117230476Y-105873247D02*
X117306666Y-105911342D01*
X117306666Y-105911342D02*
X117611428Y-105911342D01*
X116544762Y-105873247D02*
X116430476Y-105911342D01*
X116430476Y-105911342D02*
X116392381Y-105949438D01*
X116392381Y-105949438D02*
X116354285Y-106025628D01*
X116354285Y-106025628D02*
X116354285Y-106139914D01*
X116354285Y-106139914D02*
X116392381Y-106216104D01*
X116392381Y-106216104D02*
X116430476Y-106254200D01*
X116430476Y-106254200D02*
X116506666Y-106292295D01*
X116506666Y-106292295D02*
X116811428Y-106292295D01*
X116811428Y-106292295D02*
X116811428Y-105492295D01*
X116811428Y-105492295D02*
X116544762Y-105492295D01*
X116544762Y-105492295D02*
X116468571Y-105530390D01*
X116468571Y-105530390D02*
X116430476Y-105568485D01*
X116430476Y-105568485D02*
X116392381Y-105644676D01*
X116392381Y-105644676D02*
X116392381Y-105720866D01*
X116392381Y-105720866D02*
X116430476Y-105797057D01*
X116430476Y-105797057D02*
X116468571Y-105835152D01*
X116468571Y-105835152D02*
X116544762Y-105873247D01*
X116544762Y-105873247D02*
X116811428Y-105873247D01*
X115592381Y-106292295D02*
X116049524Y-106292295D01*
X115820952Y-106292295D02*
X115820952Y-105492295D01*
X115820952Y-105492295D02*
X115897143Y-105606580D01*
X115897143Y-105606580D02*
X115973333Y-105682771D01*
X115973333Y-105682771D02*
X116049524Y-105720866D01*
X114830476Y-106292295D02*
X115287619Y-106292295D01*
X115059047Y-106292295D02*
X115059047Y-105492295D01*
X115059047Y-105492295D02*
X115135238Y-105606580D01*
X115135238Y-105606580D02*
X115211428Y-105682771D01*
X115211428Y-105682771D02*
X115287619Y-105720866D01*
X117611428Y-108832295D02*
X117611428Y-108032295D01*
X117611428Y-108032295D02*
X117306666Y-108032295D01*
X117306666Y-108032295D02*
X117230476Y-108070390D01*
X117230476Y-108070390D02*
X117192381Y-108108485D01*
X117192381Y-108108485D02*
X117154285Y-108184676D01*
X117154285Y-108184676D02*
X117154285Y-108298961D01*
X117154285Y-108298961D02*
X117192381Y-108375152D01*
X117192381Y-108375152D02*
X117230476Y-108413247D01*
X117230476Y-108413247D02*
X117306666Y-108451342D01*
X117306666Y-108451342D02*
X117611428Y-108451342D01*
X116544762Y-108413247D02*
X116430476Y-108451342D01*
X116430476Y-108451342D02*
X116392381Y-108489438D01*
X116392381Y-108489438D02*
X116354285Y-108565628D01*
X116354285Y-108565628D02*
X116354285Y-108679914D01*
X116354285Y-108679914D02*
X116392381Y-108756104D01*
X116392381Y-108756104D02*
X116430476Y-108794200D01*
X116430476Y-108794200D02*
X116506666Y-108832295D01*
X116506666Y-108832295D02*
X116811428Y-108832295D01*
X116811428Y-108832295D02*
X116811428Y-108032295D01*
X116811428Y-108032295D02*
X116544762Y-108032295D01*
X116544762Y-108032295D02*
X116468571Y-108070390D01*
X116468571Y-108070390D02*
X116430476Y-108108485D01*
X116430476Y-108108485D02*
X116392381Y-108184676D01*
X116392381Y-108184676D02*
X116392381Y-108260866D01*
X116392381Y-108260866D02*
X116430476Y-108337057D01*
X116430476Y-108337057D02*
X116468571Y-108375152D01*
X116468571Y-108375152D02*
X116544762Y-108413247D01*
X116544762Y-108413247D02*
X116811428Y-108413247D01*
X115592381Y-108832295D02*
X116049524Y-108832295D01*
X115820952Y-108832295D02*
X115820952Y-108032295D01*
X115820952Y-108032295D02*
X115897143Y-108146580D01*
X115897143Y-108146580D02*
X115973333Y-108222771D01*
X115973333Y-108222771D02*
X116049524Y-108260866D01*
X115287619Y-108108485D02*
X115249523Y-108070390D01*
X115249523Y-108070390D02*
X115173333Y-108032295D01*
X115173333Y-108032295D02*
X114982857Y-108032295D01*
X114982857Y-108032295D02*
X114906666Y-108070390D01*
X114906666Y-108070390D02*
X114868571Y-108108485D01*
X114868571Y-108108485D02*
X114830476Y-108184676D01*
X114830476Y-108184676D02*
X114830476Y-108260866D01*
X114830476Y-108260866D02*
X114868571Y-108375152D01*
X114868571Y-108375152D02*
X115325714Y-108832295D01*
X115325714Y-108832295D02*
X114830476Y-108832295D01*
X91289523Y-135932295D02*
X91289523Y-136579914D01*
X91289523Y-136579914D02*
X91251428Y-136656104D01*
X91251428Y-136656104D02*
X91213333Y-136694200D01*
X91213333Y-136694200D02*
X91137142Y-136732295D01*
X91137142Y-136732295D02*
X90984761Y-136732295D01*
X90984761Y-136732295D02*
X90908571Y-136694200D01*
X90908571Y-136694200D02*
X90870476Y-136656104D01*
X90870476Y-136656104D02*
X90832380Y-136579914D01*
X90832380Y-136579914D02*
X90832380Y-135932295D01*
X90032381Y-136732295D02*
X90489524Y-136732295D01*
X90260952Y-136732295D02*
X90260952Y-135932295D01*
X90260952Y-135932295D02*
X90337143Y-136046580D01*
X90337143Y-136046580D02*
X90413333Y-136122771D01*
X90413333Y-136122771D02*
X90489524Y-136160866D01*
X89232380Y-136732295D02*
X89499047Y-136351342D01*
X89689523Y-136732295D02*
X89689523Y-135932295D01*
X89689523Y-135932295D02*
X89384761Y-135932295D01*
X89384761Y-135932295D02*
X89308571Y-135970390D01*
X89308571Y-135970390D02*
X89270476Y-136008485D01*
X89270476Y-136008485D02*
X89232380Y-136084676D01*
X89232380Y-136084676D02*
X89232380Y-136198961D01*
X89232380Y-136198961D02*
X89270476Y-136275152D01*
X89270476Y-136275152D02*
X89308571Y-136313247D01*
X89308571Y-136313247D02*
X89384761Y-136351342D01*
X89384761Y-136351342D02*
X89689523Y-136351342D01*
X80990475Y-96142295D02*
X80990475Y-95342295D01*
X80990475Y-95342295D02*
X80685713Y-95342295D01*
X80685713Y-95342295D02*
X80609523Y-95380390D01*
X80609523Y-95380390D02*
X80571428Y-95418485D01*
X80571428Y-95418485D02*
X80533332Y-95494676D01*
X80533332Y-95494676D02*
X80533332Y-95608961D01*
X80533332Y-95608961D02*
X80571428Y-95685152D01*
X80571428Y-95685152D02*
X80609523Y-95723247D01*
X80609523Y-95723247D02*
X80685713Y-95761342D01*
X80685713Y-95761342D02*
X80990475Y-95761342D01*
X79923809Y-95723247D02*
X79809523Y-95761342D01*
X79809523Y-95761342D02*
X79771428Y-95799438D01*
X79771428Y-95799438D02*
X79733332Y-95875628D01*
X79733332Y-95875628D02*
X79733332Y-95989914D01*
X79733332Y-95989914D02*
X79771428Y-96066104D01*
X79771428Y-96066104D02*
X79809523Y-96104200D01*
X79809523Y-96104200D02*
X79885713Y-96142295D01*
X79885713Y-96142295D02*
X80190475Y-96142295D01*
X80190475Y-96142295D02*
X80190475Y-95342295D01*
X80190475Y-95342295D02*
X79923809Y-95342295D01*
X79923809Y-95342295D02*
X79847618Y-95380390D01*
X79847618Y-95380390D02*
X79809523Y-95418485D01*
X79809523Y-95418485D02*
X79771428Y-95494676D01*
X79771428Y-95494676D02*
X79771428Y-95570866D01*
X79771428Y-95570866D02*
X79809523Y-95647057D01*
X79809523Y-95647057D02*
X79847618Y-95685152D01*
X79847618Y-95685152D02*
X79923809Y-95723247D01*
X79923809Y-95723247D02*
X80190475Y-95723247D01*
X79009523Y-95342295D02*
X79390475Y-95342295D01*
X79390475Y-95342295D02*
X79428571Y-95723247D01*
X79428571Y-95723247D02*
X79390475Y-95685152D01*
X79390475Y-95685152D02*
X79314285Y-95647057D01*
X79314285Y-95647057D02*
X79123809Y-95647057D01*
X79123809Y-95647057D02*
X79047618Y-95685152D01*
X79047618Y-95685152D02*
X79009523Y-95723247D01*
X79009523Y-95723247D02*
X78971428Y-95799438D01*
X78971428Y-95799438D02*
X78971428Y-95989914D01*
X78971428Y-95989914D02*
X79009523Y-96066104D01*
X79009523Y-96066104D02*
X79047618Y-96104200D01*
X79047618Y-96104200D02*
X79123809Y-96142295D01*
X79123809Y-96142295D02*
X79314285Y-96142295D01*
X79314285Y-96142295D02*
X79390475Y-96104200D01*
X79390475Y-96104200D02*
X79428571Y-96066104D01*
X117173332Y-83432295D02*
X117173332Y-82632295D01*
X117173332Y-82632295D02*
X116868570Y-82632295D01*
X116868570Y-82632295D02*
X116792380Y-82670390D01*
X116792380Y-82670390D02*
X116754285Y-82708485D01*
X116754285Y-82708485D02*
X116716189Y-82784676D01*
X116716189Y-82784676D02*
X116716189Y-82898961D01*
X116716189Y-82898961D02*
X116754285Y-82975152D01*
X116754285Y-82975152D02*
X116792380Y-83013247D01*
X116792380Y-83013247D02*
X116868570Y-83051342D01*
X116868570Y-83051342D02*
X117173332Y-83051342D01*
X116411428Y-83203723D02*
X116030475Y-83203723D01*
X116487618Y-83432295D02*
X116220951Y-82632295D01*
X116220951Y-82632295D02*
X115954285Y-83432295D01*
X115725714Y-82708485D02*
X115687618Y-82670390D01*
X115687618Y-82670390D02*
X115611428Y-82632295D01*
X115611428Y-82632295D02*
X115420952Y-82632295D01*
X115420952Y-82632295D02*
X115344761Y-82670390D01*
X115344761Y-82670390D02*
X115306666Y-82708485D01*
X115306666Y-82708485D02*
X115268571Y-82784676D01*
X115268571Y-82784676D02*
X115268571Y-82860866D01*
X115268571Y-82860866D02*
X115306666Y-82975152D01*
X115306666Y-82975152D02*
X115763809Y-83432295D01*
X115763809Y-83432295D02*
X115268571Y-83432295D01*
X117611428Y-113912295D02*
X117611428Y-113112295D01*
X117611428Y-113112295D02*
X117306666Y-113112295D01*
X117306666Y-113112295D02*
X117230476Y-113150390D01*
X117230476Y-113150390D02*
X117192381Y-113188485D01*
X117192381Y-113188485D02*
X117154285Y-113264676D01*
X117154285Y-113264676D02*
X117154285Y-113378961D01*
X117154285Y-113378961D02*
X117192381Y-113455152D01*
X117192381Y-113455152D02*
X117230476Y-113493247D01*
X117230476Y-113493247D02*
X117306666Y-113531342D01*
X117306666Y-113531342D02*
X117611428Y-113531342D01*
X116544762Y-113493247D02*
X116430476Y-113531342D01*
X116430476Y-113531342D02*
X116392381Y-113569438D01*
X116392381Y-113569438D02*
X116354285Y-113645628D01*
X116354285Y-113645628D02*
X116354285Y-113759914D01*
X116354285Y-113759914D02*
X116392381Y-113836104D01*
X116392381Y-113836104D02*
X116430476Y-113874200D01*
X116430476Y-113874200D02*
X116506666Y-113912295D01*
X116506666Y-113912295D02*
X116811428Y-113912295D01*
X116811428Y-113912295D02*
X116811428Y-113112295D01*
X116811428Y-113112295D02*
X116544762Y-113112295D01*
X116544762Y-113112295D02*
X116468571Y-113150390D01*
X116468571Y-113150390D02*
X116430476Y-113188485D01*
X116430476Y-113188485D02*
X116392381Y-113264676D01*
X116392381Y-113264676D02*
X116392381Y-113340866D01*
X116392381Y-113340866D02*
X116430476Y-113417057D01*
X116430476Y-113417057D02*
X116468571Y-113455152D01*
X116468571Y-113455152D02*
X116544762Y-113493247D01*
X116544762Y-113493247D02*
X116811428Y-113493247D01*
X115592381Y-113912295D02*
X116049524Y-113912295D01*
X115820952Y-113912295D02*
X115820952Y-113112295D01*
X115820952Y-113112295D02*
X115897143Y-113226580D01*
X115897143Y-113226580D02*
X115973333Y-113302771D01*
X115973333Y-113302771D02*
X116049524Y-113340866D01*
X114906666Y-113378961D02*
X114906666Y-113912295D01*
X115097142Y-113074200D02*
X115287619Y-113645628D01*
X115287619Y-113645628D02*
X114792380Y-113645628D01*
X80590476Y-77943247D02*
X80476190Y-77981342D01*
X80476190Y-77981342D02*
X80438095Y-78019438D01*
X80438095Y-78019438D02*
X80399999Y-78095628D01*
X80399999Y-78095628D02*
X80399999Y-78209914D01*
X80399999Y-78209914D02*
X80438095Y-78286104D01*
X80438095Y-78286104D02*
X80476190Y-78324200D01*
X80476190Y-78324200D02*
X80552380Y-78362295D01*
X80552380Y-78362295D02*
X80857142Y-78362295D01*
X80857142Y-78362295D02*
X80857142Y-77562295D01*
X80857142Y-77562295D02*
X80590476Y-77562295D01*
X80590476Y-77562295D02*
X80514285Y-77600390D01*
X80514285Y-77600390D02*
X80476190Y-77638485D01*
X80476190Y-77638485D02*
X80438095Y-77714676D01*
X80438095Y-77714676D02*
X80438095Y-77790866D01*
X80438095Y-77790866D02*
X80476190Y-77867057D01*
X80476190Y-77867057D02*
X80514285Y-77905152D01*
X80514285Y-77905152D02*
X80590476Y-77943247D01*
X80590476Y-77943247D02*
X80857142Y-77943247D01*
X80095238Y-78133723D02*
X79714285Y-78133723D01*
X80171428Y-78362295D02*
X79904761Y-77562295D01*
X79904761Y-77562295D02*
X79638095Y-78362295D01*
X79485714Y-77562295D02*
X79028571Y-77562295D01*
X79257143Y-78362295D02*
X79257143Y-77562295D01*
X117173332Y-78352295D02*
X117173332Y-77552295D01*
X117173332Y-77552295D02*
X116868570Y-77552295D01*
X116868570Y-77552295D02*
X116792380Y-77590390D01*
X116792380Y-77590390D02*
X116754285Y-77628485D01*
X116754285Y-77628485D02*
X116716189Y-77704676D01*
X116716189Y-77704676D02*
X116716189Y-77818961D01*
X116716189Y-77818961D02*
X116754285Y-77895152D01*
X116754285Y-77895152D02*
X116792380Y-77933247D01*
X116792380Y-77933247D02*
X116868570Y-77971342D01*
X116868570Y-77971342D02*
X117173332Y-77971342D01*
X116411428Y-78123723D02*
X116030475Y-78123723D01*
X116487618Y-78352295D02*
X116220951Y-77552295D01*
X116220951Y-77552295D02*
X115954285Y-78352295D01*
X115535237Y-77552295D02*
X115459047Y-77552295D01*
X115459047Y-77552295D02*
X115382856Y-77590390D01*
X115382856Y-77590390D02*
X115344761Y-77628485D01*
X115344761Y-77628485D02*
X115306666Y-77704676D01*
X115306666Y-77704676D02*
X115268571Y-77857057D01*
X115268571Y-77857057D02*
X115268571Y-78047533D01*
X115268571Y-78047533D02*
X115306666Y-78199914D01*
X115306666Y-78199914D02*
X115344761Y-78276104D01*
X115344761Y-78276104D02*
X115382856Y-78314200D01*
X115382856Y-78314200D02*
X115459047Y-78352295D01*
X115459047Y-78352295D02*
X115535237Y-78352295D01*
X115535237Y-78352295D02*
X115611428Y-78314200D01*
X115611428Y-78314200D02*
X115649523Y-78276104D01*
X115649523Y-78276104D02*
X115687618Y-78199914D01*
X115687618Y-78199914D02*
X115725714Y-78047533D01*
X115725714Y-78047533D02*
X115725714Y-77857057D01*
X115725714Y-77857057D02*
X115687618Y-77704676D01*
X115687618Y-77704676D02*
X115649523Y-77628485D01*
X115649523Y-77628485D02*
X115611428Y-77590390D01*
X115611428Y-77590390D02*
X115535237Y-77552295D01*
X117230476Y-120732295D02*
X116735238Y-120732295D01*
X116735238Y-120732295D02*
X117001904Y-121037057D01*
X117001904Y-121037057D02*
X116887619Y-121037057D01*
X116887619Y-121037057D02*
X116811428Y-121075152D01*
X116811428Y-121075152D02*
X116773333Y-121113247D01*
X116773333Y-121113247D02*
X116735238Y-121189438D01*
X116735238Y-121189438D02*
X116735238Y-121379914D01*
X116735238Y-121379914D02*
X116773333Y-121456104D01*
X116773333Y-121456104D02*
X116811428Y-121494200D01*
X116811428Y-121494200D02*
X116887619Y-121532295D01*
X116887619Y-121532295D02*
X117116190Y-121532295D01*
X117116190Y-121532295D02*
X117192381Y-121494200D01*
X117192381Y-121494200D02*
X117230476Y-121456104D01*
X116506666Y-120732295D02*
X116239999Y-121532295D01*
X116239999Y-121532295D02*
X115973333Y-120732295D01*
X115782857Y-120732295D02*
X115287619Y-120732295D01*
X115287619Y-120732295D02*
X115554285Y-121037057D01*
X115554285Y-121037057D02*
X115440000Y-121037057D01*
X115440000Y-121037057D02*
X115363809Y-121075152D01*
X115363809Y-121075152D02*
X115325714Y-121113247D01*
X115325714Y-121113247D02*
X115287619Y-121189438D01*
X115287619Y-121189438D02*
X115287619Y-121379914D01*
X115287619Y-121379914D02*
X115325714Y-121456104D01*
X115325714Y-121456104D02*
X115363809Y-121494200D01*
X115363809Y-121494200D02*
X115440000Y-121532295D01*
X115440000Y-121532295D02*
X115668571Y-121532295D01*
X115668571Y-121532295D02*
X115744762Y-121494200D01*
X115744762Y-121494200D02*
X115782857Y-121456104D01*
X117173332Y-93592295D02*
X117173332Y-92792295D01*
X117173332Y-92792295D02*
X116868570Y-92792295D01*
X116868570Y-92792295D02*
X116792380Y-92830390D01*
X116792380Y-92830390D02*
X116754285Y-92868485D01*
X116754285Y-92868485D02*
X116716189Y-92944676D01*
X116716189Y-92944676D02*
X116716189Y-93058961D01*
X116716189Y-93058961D02*
X116754285Y-93135152D01*
X116754285Y-93135152D02*
X116792380Y-93173247D01*
X116792380Y-93173247D02*
X116868570Y-93211342D01*
X116868570Y-93211342D02*
X117173332Y-93211342D01*
X116411428Y-93363723D02*
X116030475Y-93363723D01*
X116487618Y-93592295D02*
X116220951Y-92792295D01*
X116220951Y-92792295D02*
X115954285Y-93592295D01*
X115344761Y-92792295D02*
X115497142Y-92792295D01*
X115497142Y-92792295D02*
X115573333Y-92830390D01*
X115573333Y-92830390D02*
X115611428Y-92868485D01*
X115611428Y-92868485D02*
X115687618Y-92982771D01*
X115687618Y-92982771D02*
X115725714Y-93135152D01*
X115725714Y-93135152D02*
X115725714Y-93439914D01*
X115725714Y-93439914D02*
X115687618Y-93516104D01*
X115687618Y-93516104D02*
X115649523Y-93554200D01*
X115649523Y-93554200D02*
X115573333Y-93592295D01*
X115573333Y-93592295D02*
X115420952Y-93592295D01*
X115420952Y-93592295D02*
X115344761Y-93554200D01*
X115344761Y-93554200D02*
X115306666Y-93516104D01*
X115306666Y-93516104D02*
X115268571Y-93439914D01*
X115268571Y-93439914D02*
X115268571Y-93249438D01*
X115268571Y-93249438D02*
X115306666Y-93173247D01*
X115306666Y-93173247D02*
X115344761Y-93135152D01*
X115344761Y-93135152D02*
X115420952Y-93097057D01*
X115420952Y-93097057D02*
X115573333Y-93097057D01*
X115573333Y-93097057D02*
X115649523Y-93135152D01*
X115649523Y-93135152D02*
X115687618Y-93173247D01*
X115687618Y-93173247D02*
X115725714Y-93249438D01*
X97149999Y-136742295D02*
X97149999Y-135942295D01*
X97149999Y-135942295D02*
X96692856Y-136742295D01*
X96692856Y-136742295D02*
X96692856Y-135942295D01*
X95854761Y-136742295D02*
X96121428Y-136361342D01*
X96311904Y-136742295D02*
X96311904Y-135942295D01*
X96311904Y-135942295D02*
X96007142Y-135942295D01*
X96007142Y-135942295D02*
X95930952Y-135980390D01*
X95930952Y-135980390D02*
X95892857Y-136018485D01*
X95892857Y-136018485D02*
X95854761Y-136094676D01*
X95854761Y-136094676D02*
X95854761Y-136208961D01*
X95854761Y-136208961D02*
X95892857Y-136285152D01*
X95892857Y-136285152D02*
X95930952Y-136323247D01*
X95930952Y-136323247D02*
X96007142Y-136361342D01*
X96007142Y-136361342D02*
X96311904Y-136361342D01*
X95550000Y-136704200D02*
X95435714Y-136742295D01*
X95435714Y-136742295D02*
X95245238Y-136742295D01*
X95245238Y-136742295D02*
X95169047Y-136704200D01*
X95169047Y-136704200D02*
X95130952Y-136666104D01*
X95130952Y-136666104D02*
X95092857Y-136589914D01*
X95092857Y-136589914D02*
X95092857Y-136513723D01*
X95092857Y-136513723D02*
X95130952Y-136437533D01*
X95130952Y-136437533D02*
X95169047Y-136399438D01*
X95169047Y-136399438D02*
X95245238Y-136361342D01*
X95245238Y-136361342D02*
X95397619Y-136323247D01*
X95397619Y-136323247D02*
X95473809Y-136285152D01*
X95473809Y-136285152D02*
X95511904Y-136247057D01*
X95511904Y-136247057D02*
X95550000Y-136170866D01*
X95550000Y-136170866D02*
X95550000Y-136094676D01*
X95550000Y-136094676D02*
X95511904Y-136018485D01*
X95511904Y-136018485D02*
X95473809Y-135980390D01*
X95473809Y-135980390D02*
X95397619Y-135942295D01*
X95397619Y-135942295D02*
X95207142Y-135942295D01*
X95207142Y-135942295D02*
X95092857Y-135980390D01*
X94864285Y-135942295D02*
X94407142Y-135942295D01*
X94635714Y-136742295D02*
X94635714Y-135942295D01*
X116849523Y-125850390D02*
X116925713Y-125812295D01*
X116925713Y-125812295D02*
X117039999Y-125812295D01*
X117039999Y-125812295D02*
X117154285Y-125850390D01*
X117154285Y-125850390D02*
X117230475Y-125926580D01*
X117230475Y-125926580D02*
X117268570Y-126002771D01*
X117268570Y-126002771D02*
X117306666Y-126155152D01*
X117306666Y-126155152D02*
X117306666Y-126269438D01*
X117306666Y-126269438D02*
X117268570Y-126421819D01*
X117268570Y-126421819D02*
X117230475Y-126498009D01*
X117230475Y-126498009D02*
X117154285Y-126574200D01*
X117154285Y-126574200D02*
X117039999Y-126612295D01*
X117039999Y-126612295D02*
X116963808Y-126612295D01*
X116963808Y-126612295D02*
X116849523Y-126574200D01*
X116849523Y-126574200D02*
X116811427Y-126536104D01*
X116811427Y-126536104D02*
X116811427Y-126269438D01*
X116811427Y-126269438D02*
X116963808Y-126269438D01*
X116468570Y-126612295D02*
X116468570Y-125812295D01*
X116468570Y-125812295D02*
X116011427Y-126612295D01*
X116011427Y-126612295D02*
X116011427Y-125812295D01*
X115630475Y-126612295D02*
X115630475Y-125812295D01*
X115630475Y-125812295D02*
X115439999Y-125812295D01*
X115439999Y-125812295D02*
X115325713Y-125850390D01*
X115325713Y-125850390D02*
X115249523Y-125926580D01*
X115249523Y-125926580D02*
X115211428Y-126002771D01*
X115211428Y-126002771D02*
X115173332Y-126155152D01*
X115173332Y-126155152D02*
X115173332Y-126269438D01*
X115173332Y-126269438D02*
X115211428Y-126421819D01*
X115211428Y-126421819D02*
X115249523Y-126498009D01*
X115249523Y-126498009D02*
X115325713Y-126574200D01*
X115325713Y-126574200D02*
X115439999Y-126612295D01*
X115439999Y-126612295D02*
X115630475Y-126612295D01*
X80990475Y-93602295D02*
X80990475Y-92802295D01*
X80990475Y-92802295D02*
X80685713Y-92802295D01*
X80685713Y-92802295D02*
X80609523Y-92840390D01*
X80609523Y-92840390D02*
X80571428Y-92878485D01*
X80571428Y-92878485D02*
X80533332Y-92954676D01*
X80533332Y-92954676D02*
X80533332Y-93068961D01*
X80533332Y-93068961D02*
X80571428Y-93145152D01*
X80571428Y-93145152D02*
X80609523Y-93183247D01*
X80609523Y-93183247D02*
X80685713Y-93221342D01*
X80685713Y-93221342D02*
X80990475Y-93221342D01*
X79923809Y-93183247D02*
X79809523Y-93221342D01*
X79809523Y-93221342D02*
X79771428Y-93259438D01*
X79771428Y-93259438D02*
X79733332Y-93335628D01*
X79733332Y-93335628D02*
X79733332Y-93449914D01*
X79733332Y-93449914D02*
X79771428Y-93526104D01*
X79771428Y-93526104D02*
X79809523Y-93564200D01*
X79809523Y-93564200D02*
X79885713Y-93602295D01*
X79885713Y-93602295D02*
X80190475Y-93602295D01*
X80190475Y-93602295D02*
X80190475Y-92802295D01*
X80190475Y-92802295D02*
X79923809Y-92802295D01*
X79923809Y-92802295D02*
X79847618Y-92840390D01*
X79847618Y-92840390D02*
X79809523Y-92878485D01*
X79809523Y-92878485D02*
X79771428Y-92954676D01*
X79771428Y-92954676D02*
X79771428Y-93030866D01*
X79771428Y-93030866D02*
X79809523Y-93107057D01*
X79809523Y-93107057D02*
X79847618Y-93145152D01*
X79847618Y-93145152D02*
X79923809Y-93183247D01*
X79923809Y-93183247D02*
X80190475Y-93183247D01*
X79047618Y-92802295D02*
X79199999Y-92802295D01*
X79199999Y-92802295D02*
X79276190Y-92840390D01*
X79276190Y-92840390D02*
X79314285Y-92878485D01*
X79314285Y-92878485D02*
X79390475Y-92992771D01*
X79390475Y-92992771D02*
X79428571Y-93145152D01*
X79428571Y-93145152D02*
X79428571Y-93449914D01*
X79428571Y-93449914D02*
X79390475Y-93526104D01*
X79390475Y-93526104D02*
X79352380Y-93564200D01*
X79352380Y-93564200D02*
X79276190Y-93602295D01*
X79276190Y-93602295D02*
X79123809Y-93602295D01*
X79123809Y-93602295D02*
X79047618Y-93564200D01*
X79047618Y-93564200D02*
X79009523Y-93526104D01*
X79009523Y-93526104D02*
X78971428Y-93449914D01*
X78971428Y-93449914D02*
X78971428Y-93259438D01*
X78971428Y-93259438D02*
X79009523Y-93183247D01*
X79009523Y-93183247D02*
X79047618Y-93145152D01*
X79047618Y-93145152D02*
X79123809Y-93107057D01*
X79123809Y-93107057D02*
X79276190Y-93107057D01*
X79276190Y-93107057D02*
X79352380Y-93145152D01*
X79352380Y-93145152D02*
X79390475Y-93183247D01*
X79390475Y-93183247D02*
X79428571Y-93259438D01*
X80990475Y-101222295D02*
X80990475Y-100422295D01*
X80990475Y-100422295D02*
X80685713Y-100422295D01*
X80685713Y-100422295D02*
X80609523Y-100460390D01*
X80609523Y-100460390D02*
X80571428Y-100498485D01*
X80571428Y-100498485D02*
X80533332Y-100574676D01*
X80533332Y-100574676D02*
X80533332Y-100688961D01*
X80533332Y-100688961D02*
X80571428Y-100765152D01*
X80571428Y-100765152D02*
X80609523Y-100803247D01*
X80609523Y-100803247D02*
X80685713Y-100841342D01*
X80685713Y-100841342D02*
X80990475Y-100841342D01*
X79923809Y-100803247D02*
X79809523Y-100841342D01*
X79809523Y-100841342D02*
X79771428Y-100879438D01*
X79771428Y-100879438D02*
X79733332Y-100955628D01*
X79733332Y-100955628D02*
X79733332Y-101069914D01*
X79733332Y-101069914D02*
X79771428Y-101146104D01*
X79771428Y-101146104D02*
X79809523Y-101184200D01*
X79809523Y-101184200D02*
X79885713Y-101222295D01*
X79885713Y-101222295D02*
X80190475Y-101222295D01*
X80190475Y-101222295D02*
X80190475Y-100422295D01*
X80190475Y-100422295D02*
X79923809Y-100422295D01*
X79923809Y-100422295D02*
X79847618Y-100460390D01*
X79847618Y-100460390D02*
X79809523Y-100498485D01*
X79809523Y-100498485D02*
X79771428Y-100574676D01*
X79771428Y-100574676D02*
X79771428Y-100650866D01*
X79771428Y-100650866D02*
X79809523Y-100727057D01*
X79809523Y-100727057D02*
X79847618Y-100765152D01*
X79847618Y-100765152D02*
X79923809Y-100803247D01*
X79923809Y-100803247D02*
X80190475Y-100803247D01*
X79466666Y-100422295D02*
X78971428Y-100422295D01*
X78971428Y-100422295D02*
X79238094Y-100727057D01*
X79238094Y-100727057D02*
X79123809Y-100727057D01*
X79123809Y-100727057D02*
X79047618Y-100765152D01*
X79047618Y-100765152D02*
X79009523Y-100803247D01*
X79009523Y-100803247D02*
X78971428Y-100879438D01*
X78971428Y-100879438D02*
X78971428Y-101069914D01*
X78971428Y-101069914D02*
X79009523Y-101146104D01*
X79009523Y-101146104D02*
X79047618Y-101184200D01*
X79047618Y-101184200D02*
X79123809Y-101222295D01*
X79123809Y-101222295D02*
X79352380Y-101222295D01*
X79352380Y-101222295D02*
X79428571Y-101184200D01*
X79428571Y-101184200D02*
X79466666Y-101146104D01*
X90756189Y-129786104D02*
X90794285Y-129824200D01*
X90794285Y-129824200D02*
X90908570Y-129862295D01*
X90908570Y-129862295D02*
X90984761Y-129862295D01*
X90984761Y-129862295D02*
X91099047Y-129824200D01*
X91099047Y-129824200D02*
X91175237Y-129748009D01*
X91175237Y-129748009D02*
X91213332Y-129671819D01*
X91213332Y-129671819D02*
X91251428Y-129519438D01*
X91251428Y-129519438D02*
X91251428Y-129405152D01*
X91251428Y-129405152D02*
X91213332Y-129252771D01*
X91213332Y-129252771D02*
X91175237Y-129176580D01*
X91175237Y-129176580D02*
X91099047Y-129100390D01*
X91099047Y-129100390D02*
X90984761Y-129062295D01*
X90984761Y-129062295D02*
X90908570Y-129062295D01*
X90908570Y-129062295D02*
X90794285Y-129100390D01*
X90794285Y-129100390D02*
X90756189Y-129138485D01*
X90032380Y-129862295D02*
X90413332Y-129862295D01*
X90413332Y-129862295D02*
X90413332Y-129062295D01*
X89765713Y-129862295D02*
X89765713Y-129062295D01*
X89308570Y-129862295D02*
X89651428Y-129405152D01*
X89308570Y-129062295D02*
X89765713Y-129519438D01*
X80990475Y-88522295D02*
X80990475Y-87722295D01*
X80990475Y-87722295D02*
X80685713Y-87722295D01*
X80685713Y-87722295D02*
X80609523Y-87760390D01*
X80609523Y-87760390D02*
X80571428Y-87798485D01*
X80571428Y-87798485D02*
X80533332Y-87874676D01*
X80533332Y-87874676D02*
X80533332Y-87988961D01*
X80533332Y-87988961D02*
X80571428Y-88065152D01*
X80571428Y-88065152D02*
X80609523Y-88103247D01*
X80609523Y-88103247D02*
X80685713Y-88141342D01*
X80685713Y-88141342D02*
X80990475Y-88141342D01*
X79923809Y-88103247D02*
X79809523Y-88141342D01*
X79809523Y-88141342D02*
X79771428Y-88179438D01*
X79771428Y-88179438D02*
X79733332Y-88255628D01*
X79733332Y-88255628D02*
X79733332Y-88369914D01*
X79733332Y-88369914D02*
X79771428Y-88446104D01*
X79771428Y-88446104D02*
X79809523Y-88484200D01*
X79809523Y-88484200D02*
X79885713Y-88522295D01*
X79885713Y-88522295D02*
X80190475Y-88522295D01*
X80190475Y-88522295D02*
X80190475Y-87722295D01*
X80190475Y-87722295D02*
X79923809Y-87722295D01*
X79923809Y-87722295D02*
X79847618Y-87760390D01*
X79847618Y-87760390D02*
X79809523Y-87798485D01*
X79809523Y-87798485D02*
X79771428Y-87874676D01*
X79771428Y-87874676D02*
X79771428Y-87950866D01*
X79771428Y-87950866D02*
X79809523Y-88027057D01*
X79809523Y-88027057D02*
X79847618Y-88065152D01*
X79847618Y-88065152D02*
X79923809Y-88103247D01*
X79923809Y-88103247D02*
X80190475Y-88103247D01*
X79276190Y-88065152D02*
X79352380Y-88027057D01*
X79352380Y-88027057D02*
X79390475Y-87988961D01*
X79390475Y-87988961D02*
X79428571Y-87912771D01*
X79428571Y-87912771D02*
X79428571Y-87874676D01*
X79428571Y-87874676D02*
X79390475Y-87798485D01*
X79390475Y-87798485D02*
X79352380Y-87760390D01*
X79352380Y-87760390D02*
X79276190Y-87722295D01*
X79276190Y-87722295D02*
X79123809Y-87722295D01*
X79123809Y-87722295D02*
X79047618Y-87760390D01*
X79047618Y-87760390D02*
X79009523Y-87798485D01*
X79009523Y-87798485D02*
X78971428Y-87874676D01*
X78971428Y-87874676D02*
X78971428Y-87912771D01*
X78971428Y-87912771D02*
X79009523Y-87988961D01*
X79009523Y-87988961D02*
X79047618Y-88027057D01*
X79047618Y-88027057D02*
X79123809Y-88065152D01*
X79123809Y-88065152D02*
X79276190Y-88065152D01*
X79276190Y-88065152D02*
X79352380Y-88103247D01*
X79352380Y-88103247D02*
X79390475Y-88141342D01*
X79390475Y-88141342D02*
X79428571Y-88217533D01*
X79428571Y-88217533D02*
X79428571Y-88369914D01*
X79428571Y-88369914D02*
X79390475Y-88446104D01*
X79390475Y-88446104D02*
X79352380Y-88484200D01*
X79352380Y-88484200D02*
X79276190Y-88522295D01*
X79276190Y-88522295D02*
X79123809Y-88522295D01*
X79123809Y-88522295D02*
X79047618Y-88484200D01*
X79047618Y-88484200D02*
X79009523Y-88446104D01*
X79009523Y-88446104D02*
X78971428Y-88369914D01*
X78971428Y-88369914D02*
X78971428Y-88217533D01*
X78971428Y-88217533D02*
X79009523Y-88141342D01*
X79009523Y-88141342D02*
X79047618Y-88103247D01*
X79047618Y-88103247D02*
X79123809Y-88065152D01*
X80609523Y-125860390D02*
X80685713Y-125822295D01*
X80685713Y-125822295D02*
X80799999Y-125822295D01*
X80799999Y-125822295D02*
X80914285Y-125860390D01*
X80914285Y-125860390D02*
X80990475Y-125936580D01*
X80990475Y-125936580D02*
X81028570Y-126012771D01*
X81028570Y-126012771D02*
X81066666Y-126165152D01*
X81066666Y-126165152D02*
X81066666Y-126279438D01*
X81066666Y-126279438D02*
X81028570Y-126431819D01*
X81028570Y-126431819D02*
X80990475Y-126508009D01*
X80990475Y-126508009D02*
X80914285Y-126584200D01*
X80914285Y-126584200D02*
X80799999Y-126622295D01*
X80799999Y-126622295D02*
X80723808Y-126622295D01*
X80723808Y-126622295D02*
X80609523Y-126584200D01*
X80609523Y-126584200D02*
X80571427Y-126546104D01*
X80571427Y-126546104D02*
X80571427Y-126279438D01*
X80571427Y-126279438D02*
X80723808Y-126279438D01*
X80228570Y-126622295D02*
X80228570Y-125822295D01*
X80228570Y-125822295D02*
X79771427Y-126622295D01*
X79771427Y-126622295D02*
X79771427Y-125822295D01*
X79390475Y-126622295D02*
X79390475Y-125822295D01*
X79390475Y-125822295D02*
X79199999Y-125822295D01*
X79199999Y-125822295D02*
X79085713Y-125860390D01*
X79085713Y-125860390D02*
X79009523Y-125936580D01*
X79009523Y-125936580D02*
X78971428Y-126012771D01*
X78971428Y-126012771D02*
X78933332Y-126165152D01*
X78933332Y-126165152D02*
X78933332Y-126279438D01*
X78933332Y-126279438D02*
X78971428Y-126431819D01*
X78971428Y-126431819D02*
X79009523Y-126508009D01*
X79009523Y-126508009D02*
X79085713Y-126584200D01*
X79085713Y-126584200D02*
X79199999Y-126622295D01*
X79199999Y-126622295D02*
X79390475Y-126622295D01*
X93814762Y-136684200D02*
X93700476Y-136722295D01*
X93700476Y-136722295D02*
X93510000Y-136722295D01*
X93510000Y-136722295D02*
X93433809Y-136684200D01*
X93433809Y-136684200D02*
X93395714Y-136646104D01*
X93395714Y-136646104D02*
X93357619Y-136569914D01*
X93357619Y-136569914D02*
X93357619Y-136493723D01*
X93357619Y-136493723D02*
X93395714Y-136417533D01*
X93395714Y-136417533D02*
X93433809Y-136379438D01*
X93433809Y-136379438D02*
X93510000Y-136341342D01*
X93510000Y-136341342D02*
X93662381Y-136303247D01*
X93662381Y-136303247D02*
X93738571Y-136265152D01*
X93738571Y-136265152D02*
X93776666Y-136227057D01*
X93776666Y-136227057D02*
X93814762Y-136150866D01*
X93814762Y-136150866D02*
X93814762Y-136074676D01*
X93814762Y-136074676D02*
X93776666Y-135998485D01*
X93776666Y-135998485D02*
X93738571Y-135960390D01*
X93738571Y-135960390D02*
X93662381Y-135922295D01*
X93662381Y-135922295D02*
X93471904Y-135922295D01*
X93471904Y-135922295D02*
X93357619Y-135960390D01*
X93090952Y-135922295D02*
X92900476Y-136722295D01*
X92900476Y-136722295D02*
X92748095Y-136150866D01*
X92748095Y-136150866D02*
X92595714Y-136722295D01*
X92595714Y-136722295D02*
X92405238Y-135922295D01*
X91948094Y-135922295D02*
X91795713Y-135922295D01*
X91795713Y-135922295D02*
X91719523Y-135960390D01*
X91719523Y-135960390D02*
X91643332Y-136036580D01*
X91643332Y-136036580D02*
X91605237Y-136188961D01*
X91605237Y-136188961D02*
X91605237Y-136455628D01*
X91605237Y-136455628D02*
X91643332Y-136608009D01*
X91643332Y-136608009D02*
X91719523Y-136684200D01*
X91719523Y-136684200D02*
X91795713Y-136722295D01*
X91795713Y-136722295D02*
X91948094Y-136722295D01*
X91948094Y-136722295D02*
X92024285Y-136684200D01*
X92024285Y-136684200D02*
X92100475Y-136608009D01*
X92100475Y-136608009D02*
X92138571Y-136455628D01*
X92138571Y-136455628D02*
X92138571Y-136188961D01*
X92138571Y-136188961D02*
X92100475Y-136036580D01*
X92100475Y-136036580D02*
X92024285Y-135960390D01*
X92024285Y-135960390D02*
X91948094Y-135922295D01*
X117173332Y-96132295D02*
X117173332Y-95332295D01*
X117173332Y-95332295D02*
X116868570Y-95332295D01*
X116868570Y-95332295D02*
X116792380Y-95370390D01*
X116792380Y-95370390D02*
X116754285Y-95408485D01*
X116754285Y-95408485D02*
X116716189Y-95484676D01*
X116716189Y-95484676D02*
X116716189Y-95598961D01*
X116716189Y-95598961D02*
X116754285Y-95675152D01*
X116754285Y-95675152D02*
X116792380Y-95713247D01*
X116792380Y-95713247D02*
X116868570Y-95751342D01*
X116868570Y-95751342D02*
X117173332Y-95751342D01*
X116411428Y-95903723D02*
X116030475Y-95903723D01*
X116487618Y-96132295D02*
X116220951Y-95332295D01*
X116220951Y-95332295D02*
X115954285Y-96132295D01*
X115763809Y-95332295D02*
X115230475Y-95332295D01*
X115230475Y-95332295D02*
X115573333Y-96132295D01*
X117173332Y-80892295D02*
X117173332Y-80092295D01*
X117173332Y-80092295D02*
X116868570Y-80092295D01*
X116868570Y-80092295D02*
X116792380Y-80130390D01*
X116792380Y-80130390D02*
X116754285Y-80168485D01*
X116754285Y-80168485D02*
X116716189Y-80244676D01*
X116716189Y-80244676D02*
X116716189Y-80358961D01*
X116716189Y-80358961D02*
X116754285Y-80435152D01*
X116754285Y-80435152D02*
X116792380Y-80473247D01*
X116792380Y-80473247D02*
X116868570Y-80511342D01*
X116868570Y-80511342D02*
X117173332Y-80511342D01*
X116411428Y-80663723D02*
X116030475Y-80663723D01*
X116487618Y-80892295D02*
X116220951Y-80092295D01*
X116220951Y-80092295D02*
X115954285Y-80892295D01*
X115268571Y-80892295D02*
X115725714Y-80892295D01*
X115497142Y-80892295D02*
X115497142Y-80092295D01*
X115497142Y-80092295D02*
X115573333Y-80206580D01*
X115573333Y-80206580D02*
X115649523Y-80282771D01*
X115649523Y-80282771D02*
X115725714Y-80320866D01*
X81371428Y-83442295D02*
X81371428Y-82642295D01*
X81371428Y-82642295D02*
X81066666Y-82642295D01*
X81066666Y-82642295D02*
X80990476Y-82680390D01*
X80990476Y-82680390D02*
X80952381Y-82718485D01*
X80952381Y-82718485D02*
X80914285Y-82794676D01*
X80914285Y-82794676D02*
X80914285Y-82908961D01*
X80914285Y-82908961D02*
X80952381Y-82985152D01*
X80952381Y-82985152D02*
X80990476Y-83023247D01*
X80990476Y-83023247D02*
X81066666Y-83061342D01*
X81066666Y-83061342D02*
X81371428Y-83061342D01*
X80114285Y-83366104D02*
X80152381Y-83404200D01*
X80152381Y-83404200D02*
X80266666Y-83442295D01*
X80266666Y-83442295D02*
X80342857Y-83442295D01*
X80342857Y-83442295D02*
X80457143Y-83404200D01*
X80457143Y-83404200D02*
X80533333Y-83328009D01*
X80533333Y-83328009D02*
X80571428Y-83251819D01*
X80571428Y-83251819D02*
X80609524Y-83099438D01*
X80609524Y-83099438D02*
X80609524Y-82985152D01*
X80609524Y-82985152D02*
X80571428Y-82832771D01*
X80571428Y-82832771D02*
X80533333Y-82756580D01*
X80533333Y-82756580D02*
X80457143Y-82680390D01*
X80457143Y-82680390D02*
X80342857Y-82642295D01*
X80342857Y-82642295D02*
X80266666Y-82642295D01*
X80266666Y-82642295D02*
X80152381Y-82680390D01*
X80152381Y-82680390D02*
X80114285Y-82718485D01*
X79352381Y-83442295D02*
X79809524Y-83442295D01*
X79580952Y-83442295D02*
X79580952Y-82642295D01*
X79580952Y-82642295D02*
X79657143Y-82756580D01*
X79657143Y-82756580D02*
X79733333Y-82832771D01*
X79733333Y-82832771D02*
X79809524Y-82870866D01*
X79085714Y-82642295D02*
X78590476Y-82642295D01*
X78590476Y-82642295D02*
X78857142Y-82947057D01*
X78857142Y-82947057D02*
X78742857Y-82947057D01*
X78742857Y-82947057D02*
X78666666Y-82985152D01*
X78666666Y-82985152D02*
X78628571Y-83023247D01*
X78628571Y-83023247D02*
X78590476Y-83099438D01*
X78590476Y-83099438D02*
X78590476Y-83289914D01*
X78590476Y-83289914D02*
X78628571Y-83366104D01*
X78628571Y-83366104D02*
X78666666Y-83404200D01*
X78666666Y-83404200D02*
X78742857Y-83442295D01*
X78742857Y-83442295D02*
X78971428Y-83442295D01*
X78971428Y-83442295D02*
X79047619Y-83404200D01*
X79047619Y-83404200D02*
X79085714Y-83366104D01*
X117611428Y-116452295D02*
X117611428Y-115652295D01*
X117611428Y-115652295D02*
X117306666Y-115652295D01*
X117306666Y-115652295D02*
X117230476Y-115690390D01*
X117230476Y-115690390D02*
X117192381Y-115728485D01*
X117192381Y-115728485D02*
X117154285Y-115804676D01*
X117154285Y-115804676D02*
X117154285Y-115918961D01*
X117154285Y-115918961D02*
X117192381Y-115995152D01*
X117192381Y-115995152D02*
X117230476Y-116033247D01*
X117230476Y-116033247D02*
X117306666Y-116071342D01*
X117306666Y-116071342D02*
X117611428Y-116071342D01*
X116544762Y-116033247D02*
X116430476Y-116071342D01*
X116430476Y-116071342D02*
X116392381Y-116109438D01*
X116392381Y-116109438D02*
X116354285Y-116185628D01*
X116354285Y-116185628D02*
X116354285Y-116299914D01*
X116354285Y-116299914D02*
X116392381Y-116376104D01*
X116392381Y-116376104D02*
X116430476Y-116414200D01*
X116430476Y-116414200D02*
X116506666Y-116452295D01*
X116506666Y-116452295D02*
X116811428Y-116452295D01*
X116811428Y-116452295D02*
X116811428Y-115652295D01*
X116811428Y-115652295D02*
X116544762Y-115652295D01*
X116544762Y-115652295D02*
X116468571Y-115690390D01*
X116468571Y-115690390D02*
X116430476Y-115728485D01*
X116430476Y-115728485D02*
X116392381Y-115804676D01*
X116392381Y-115804676D02*
X116392381Y-115880866D01*
X116392381Y-115880866D02*
X116430476Y-115957057D01*
X116430476Y-115957057D02*
X116468571Y-115995152D01*
X116468571Y-115995152D02*
X116544762Y-116033247D01*
X116544762Y-116033247D02*
X116811428Y-116033247D01*
X115592381Y-116452295D02*
X116049524Y-116452295D01*
X115820952Y-116452295D02*
X115820952Y-115652295D01*
X115820952Y-115652295D02*
X115897143Y-115766580D01*
X115897143Y-115766580D02*
X115973333Y-115842771D01*
X115973333Y-115842771D02*
X116049524Y-115880866D01*
X114868571Y-115652295D02*
X115249523Y-115652295D01*
X115249523Y-115652295D02*
X115287619Y-116033247D01*
X115287619Y-116033247D02*
X115249523Y-115995152D01*
X115249523Y-115995152D02*
X115173333Y-115957057D01*
X115173333Y-115957057D02*
X114982857Y-115957057D01*
X114982857Y-115957057D02*
X114906666Y-115995152D01*
X114906666Y-115995152D02*
X114868571Y-116033247D01*
X114868571Y-116033247D02*
X114830476Y-116109438D01*
X114830476Y-116109438D02*
X114830476Y-116299914D01*
X114830476Y-116299914D02*
X114868571Y-116376104D01*
X114868571Y-116376104D02*
X114906666Y-116414200D01*
X114906666Y-116414200D02*
X114982857Y-116452295D01*
X114982857Y-116452295D02*
X115173333Y-116452295D01*
X115173333Y-116452295D02*
X115249523Y-116414200D01*
X115249523Y-116414200D02*
X115287619Y-116376104D01*
X80933332Y-113922295D02*
X80933332Y-113122295D01*
X80933332Y-113122295D02*
X80628570Y-113122295D01*
X80628570Y-113122295D02*
X80552380Y-113160390D01*
X80552380Y-113160390D02*
X80514285Y-113198485D01*
X80514285Y-113198485D02*
X80476189Y-113274676D01*
X80476189Y-113274676D02*
X80476189Y-113388961D01*
X80476189Y-113388961D02*
X80514285Y-113465152D01*
X80514285Y-113465152D02*
X80552380Y-113503247D01*
X80552380Y-113503247D02*
X80628570Y-113541342D01*
X80628570Y-113541342D02*
X80933332Y-113541342D01*
X80171428Y-113693723D02*
X79790475Y-113693723D01*
X80247618Y-113922295D02*
X79980951Y-113122295D01*
X79980951Y-113122295D02*
X79714285Y-113922295D01*
X79409523Y-113922295D02*
X79257142Y-113922295D01*
X79257142Y-113922295D02*
X79180952Y-113884200D01*
X79180952Y-113884200D02*
X79142856Y-113846104D01*
X79142856Y-113846104D02*
X79066666Y-113731819D01*
X79066666Y-113731819D02*
X79028571Y-113579438D01*
X79028571Y-113579438D02*
X79028571Y-113274676D01*
X79028571Y-113274676D02*
X79066666Y-113198485D01*
X79066666Y-113198485D02*
X79104761Y-113160390D01*
X79104761Y-113160390D02*
X79180952Y-113122295D01*
X79180952Y-113122295D02*
X79333333Y-113122295D01*
X79333333Y-113122295D02*
X79409523Y-113160390D01*
X79409523Y-113160390D02*
X79447618Y-113198485D01*
X79447618Y-113198485D02*
X79485714Y-113274676D01*
X79485714Y-113274676D02*
X79485714Y-113465152D01*
X79485714Y-113465152D02*
X79447618Y-113541342D01*
X79447618Y-113541342D02*
X79409523Y-113579438D01*
X79409523Y-113579438D02*
X79333333Y-113617533D01*
X79333333Y-113617533D02*
X79180952Y-113617533D01*
X79180952Y-113617533D02*
X79104761Y-113579438D01*
X79104761Y-113579438D02*
X79066666Y-113541342D01*
X79066666Y-113541342D02*
X79028571Y-113465152D01*
X81314285Y-111382295D02*
X81314285Y-110582295D01*
X81314285Y-110582295D02*
X81009523Y-110582295D01*
X81009523Y-110582295D02*
X80933333Y-110620390D01*
X80933333Y-110620390D02*
X80895238Y-110658485D01*
X80895238Y-110658485D02*
X80857142Y-110734676D01*
X80857142Y-110734676D02*
X80857142Y-110848961D01*
X80857142Y-110848961D02*
X80895238Y-110925152D01*
X80895238Y-110925152D02*
X80933333Y-110963247D01*
X80933333Y-110963247D02*
X81009523Y-111001342D01*
X81009523Y-111001342D02*
X81314285Y-111001342D01*
X80552381Y-111153723D02*
X80171428Y-111153723D01*
X80628571Y-111382295D02*
X80361904Y-110582295D01*
X80361904Y-110582295D02*
X80095238Y-111382295D01*
X79409524Y-111382295D02*
X79866667Y-111382295D01*
X79638095Y-111382295D02*
X79638095Y-110582295D01*
X79638095Y-110582295D02*
X79714286Y-110696580D01*
X79714286Y-110696580D02*
X79790476Y-110772771D01*
X79790476Y-110772771D02*
X79866667Y-110810866D01*
X78914285Y-110582295D02*
X78838095Y-110582295D01*
X78838095Y-110582295D02*
X78761904Y-110620390D01*
X78761904Y-110620390D02*
X78723809Y-110658485D01*
X78723809Y-110658485D02*
X78685714Y-110734676D01*
X78685714Y-110734676D02*
X78647619Y-110887057D01*
X78647619Y-110887057D02*
X78647619Y-111077533D01*
X78647619Y-111077533D02*
X78685714Y-111229914D01*
X78685714Y-111229914D02*
X78723809Y-111306104D01*
X78723809Y-111306104D02*
X78761904Y-111344200D01*
X78761904Y-111344200D02*
X78838095Y-111382295D01*
X78838095Y-111382295D02*
X78914285Y-111382295D01*
X78914285Y-111382295D02*
X78990476Y-111344200D01*
X78990476Y-111344200D02*
X79028571Y-111306104D01*
X79028571Y-111306104D02*
X79066666Y-111229914D01*
X79066666Y-111229914D02*
X79104762Y-111077533D01*
X79104762Y-111077533D02*
X79104762Y-110887057D01*
X79104762Y-110887057D02*
X79066666Y-110734676D01*
X79066666Y-110734676D02*
X79028571Y-110658485D01*
X79028571Y-110658485D02*
X78990476Y-110620390D01*
X78990476Y-110620390D02*
X78914285Y-110582295D01*
X93700476Y-129052295D02*
X93205238Y-129052295D01*
X93205238Y-129052295D02*
X93471904Y-129357057D01*
X93471904Y-129357057D02*
X93357619Y-129357057D01*
X93357619Y-129357057D02*
X93281428Y-129395152D01*
X93281428Y-129395152D02*
X93243333Y-129433247D01*
X93243333Y-129433247D02*
X93205238Y-129509438D01*
X93205238Y-129509438D02*
X93205238Y-129699914D01*
X93205238Y-129699914D02*
X93243333Y-129776104D01*
X93243333Y-129776104D02*
X93281428Y-129814200D01*
X93281428Y-129814200D02*
X93357619Y-129852295D01*
X93357619Y-129852295D02*
X93586190Y-129852295D01*
X93586190Y-129852295D02*
X93662381Y-129814200D01*
X93662381Y-129814200D02*
X93700476Y-129776104D01*
X92976666Y-129052295D02*
X92709999Y-129852295D01*
X92709999Y-129852295D02*
X92443333Y-129052295D01*
X92252857Y-129052295D02*
X91757619Y-129052295D01*
X91757619Y-129052295D02*
X92024285Y-129357057D01*
X92024285Y-129357057D02*
X91910000Y-129357057D01*
X91910000Y-129357057D02*
X91833809Y-129395152D01*
X91833809Y-129395152D02*
X91795714Y-129433247D01*
X91795714Y-129433247D02*
X91757619Y-129509438D01*
X91757619Y-129509438D02*
X91757619Y-129699914D01*
X91757619Y-129699914D02*
X91795714Y-129776104D01*
X91795714Y-129776104D02*
X91833809Y-129814200D01*
X91833809Y-129814200D02*
X91910000Y-129852295D01*
X91910000Y-129852295D02*
X92138571Y-129852295D01*
X92138571Y-129852295D02*
X92214762Y-129814200D01*
X92214762Y-129814200D02*
X92252857Y-129776104D01*
X88629046Y-129862295D02*
X88629046Y-129062295D01*
X88629046Y-129062295D02*
X88438570Y-129062295D01*
X88438570Y-129062295D02*
X88324284Y-129100390D01*
X88324284Y-129100390D02*
X88248094Y-129176580D01*
X88248094Y-129176580D02*
X88209999Y-129252771D01*
X88209999Y-129252771D02*
X88171903Y-129405152D01*
X88171903Y-129405152D02*
X88171903Y-129519438D01*
X88171903Y-129519438D02*
X88209999Y-129671819D01*
X88209999Y-129671819D02*
X88248094Y-129748009D01*
X88248094Y-129748009D02*
X88324284Y-129824200D01*
X88324284Y-129824200D02*
X88438570Y-129862295D01*
X88438570Y-129862295D02*
X88629046Y-129862295D01*
X87829046Y-129862295D02*
X87829046Y-129062295D01*
X87295713Y-129062295D02*
X87143332Y-129062295D01*
X87143332Y-129062295D02*
X87067142Y-129100390D01*
X87067142Y-129100390D02*
X86990951Y-129176580D01*
X86990951Y-129176580D02*
X86952856Y-129328961D01*
X86952856Y-129328961D02*
X86952856Y-129595628D01*
X86952856Y-129595628D02*
X86990951Y-129748009D01*
X86990951Y-129748009D02*
X87067142Y-129824200D01*
X87067142Y-129824200D02*
X87143332Y-129862295D01*
X87143332Y-129862295D02*
X87295713Y-129862295D01*
X87295713Y-129862295D02*
X87371904Y-129824200D01*
X87371904Y-129824200D02*
X87448094Y-129748009D01*
X87448094Y-129748009D02*
X87486190Y-129595628D01*
X87486190Y-129595628D02*
X87486190Y-129328961D01*
X87486190Y-129328961D02*
X87448094Y-129176580D01*
X87448094Y-129176580D02*
X87371904Y-129100390D01*
X87371904Y-129100390D02*
X87295713Y-129062295D01*
X117611428Y-103752295D02*
X117611428Y-102952295D01*
X117611428Y-102952295D02*
X117306666Y-102952295D01*
X117306666Y-102952295D02*
X117230476Y-102990390D01*
X117230476Y-102990390D02*
X117192381Y-103028485D01*
X117192381Y-103028485D02*
X117154285Y-103104676D01*
X117154285Y-103104676D02*
X117154285Y-103218961D01*
X117154285Y-103218961D02*
X117192381Y-103295152D01*
X117192381Y-103295152D02*
X117230476Y-103333247D01*
X117230476Y-103333247D02*
X117306666Y-103371342D01*
X117306666Y-103371342D02*
X117611428Y-103371342D01*
X116544762Y-103333247D02*
X116430476Y-103371342D01*
X116430476Y-103371342D02*
X116392381Y-103409438D01*
X116392381Y-103409438D02*
X116354285Y-103485628D01*
X116354285Y-103485628D02*
X116354285Y-103599914D01*
X116354285Y-103599914D02*
X116392381Y-103676104D01*
X116392381Y-103676104D02*
X116430476Y-103714200D01*
X116430476Y-103714200D02*
X116506666Y-103752295D01*
X116506666Y-103752295D02*
X116811428Y-103752295D01*
X116811428Y-103752295D02*
X116811428Y-102952295D01*
X116811428Y-102952295D02*
X116544762Y-102952295D01*
X116544762Y-102952295D02*
X116468571Y-102990390D01*
X116468571Y-102990390D02*
X116430476Y-103028485D01*
X116430476Y-103028485D02*
X116392381Y-103104676D01*
X116392381Y-103104676D02*
X116392381Y-103180866D01*
X116392381Y-103180866D02*
X116430476Y-103257057D01*
X116430476Y-103257057D02*
X116468571Y-103295152D01*
X116468571Y-103295152D02*
X116544762Y-103333247D01*
X116544762Y-103333247D02*
X116811428Y-103333247D01*
X115592381Y-103752295D02*
X116049524Y-103752295D01*
X115820952Y-103752295D02*
X115820952Y-102952295D01*
X115820952Y-102952295D02*
X115897143Y-103066580D01*
X115897143Y-103066580D02*
X115973333Y-103142771D01*
X115973333Y-103142771D02*
X116049524Y-103180866D01*
X115097142Y-102952295D02*
X115020952Y-102952295D01*
X115020952Y-102952295D02*
X114944761Y-102990390D01*
X114944761Y-102990390D02*
X114906666Y-103028485D01*
X114906666Y-103028485D02*
X114868571Y-103104676D01*
X114868571Y-103104676D02*
X114830476Y-103257057D01*
X114830476Y-103257057D02*
X114830476Y-103447533D01*
X114830476Y-103447533D02*
X114868571Y-103599914D01*
X114868571Y-103599914D02*
X114906666Y-103676104D01*
X114906666Y-103676104D02*
X114944761Y-103714200D01*
X114944761Y-103714200D02*
X115020952Y-103752295D01*
X115020952Y-103752295D02*
X115097142Y-103752295D01*
X115097142Y-103752295D02*
X115173333Y-103714200D01*
X115173333Y-103714200D02*
X115211428Y-103676104D01*
X115211428Y-103676104D02*
X115249523Y-103599914D01*
X115249523Y-103599914D02*
X115287619Y-103447533D01*
X115287619Y-103447533D02*
X115287619Y-103257057D01*
X115287619Y-103257057D02*
X115249523Y-103104676D01*
X115249523Y-103104676D02*
X115211428Y-103028485D01*
X115211428Y-103028485D02*
X115173333Y-102990390D01*
X115173333Y-102990390D02*
X115097142Y-102952295D01*
X117230475Y-101212295D02*
X117230475Y-100412295D01*
X117230475Y-100412295D02*
X116925713Y-100412295D01*
X116925713Y-100412295D02*
X116849523Y-100450390D01*
X116849523Y-100450390D02*
X116811428Y-100488485D01*
X116811428Y-100488485D02*
X116773332Y-100564676D01*
X116773332Y-100564676D02*
X116773332Y-100678961D01*
X116773332Y-100678961D02*
X116811428Y-100755152D01*
X116811428Y-100755152D02*
X116849523Y-100793247D01*
X116849523Y-100793247D02*
X116925713Y-100831342D01*
X116925713Y-100831342D02*
X117230475Y-100831342D01*
X116163809Y-100793247D02*
X116049523Y-100831342D01*
X116049523Y-100831342D02*
X116011428Y-100869438D01*
X116011428Y-100869438D02*
X115973332Y-100945628D01*
X115973332Y-100945628D02*
X115973332Y-101059914D01*
X115973332Y-101059914D02*
X116011428Y-101136104D01*
X116011428Y-101136104D02*
X116049523Y-101174200D01*
X116049523Y-101174200D02*
X116125713Y-101212295D01*
X116125713Y-101212295D02*
X116430475Y-101212295D01*
X116430475Y-101212295D02*
X116430475Y-100412295D01*
X116430475Y-100412295D02*
X116163809Y-100412295D01*
X116163809Y-100412295D02*
X116087618Y-100450390D01*
X116087618Y-100450390D02*
X116049523Y-100488485D01*
X116049523Y-100488485D02*
X116011428Y-100564676D01*
X116011428Y-100564676D02*
X116011428Y-100640866D01*
X116011428Y-100640866D02*
X116049523Y-100717057D01*
X116049523Y-100717057D02*
X116087618Y-100755152D01*
X116087618Y-100755152D02*
X116163809Y-100793247D01*
X116163809Y-100793247D02*
X116430475Y-100793247D01*
X115211428Y-101212295D02*
X115668571Y-101212295D01*
X115439999Y-101212295D02*
X115439999Y-100412295D01*
X115439999Y-100412295D02*
X115516190Y-100526580D01*
X115516190Y-100526580D02*
X115592380Y-100602771D01*
X115592380Y-100602771D02*
X115668571Y-100640866D01*
X81314285Y-80902295D02*
X81314285Y-80102295D01*
X81314285Y-80102295D02*
X80857142Y-80902295D01*
X80857142Y-80902295D02*
X80857142Y-80102295D01*
X80019047Y-80902295D02*
X80285714Y-80521342D01*
X80476190Y-80902295D02*
X80476190Y-80102295D01*
X80476190Y-80102295D02*
X80171428Y-80102295D01*
X80171428Y-80102295D02*
X80095238Y-80140390D01*
X80095238Y-80140390D02*
X80057143Y-80178485D01*
X80057143Y-80178485D02*
X80019047Y-80254676D01*
X80019047Y-80254676D02*
X80019047Y-80368961D01*
X80019047Y-80368961D02*
X80057143Y-80445152D01*
X80057143Y-80445152D02*
X80095238Y-80483247D01*
X80095238Y-80483247D02*
X80171428Y-80521342D01*
X80171428Y-80521342D02*
X80476190Y-80521342D01*
X79714286Y-80864200D02*
X79600000Y-80902295D01*
X79600000Y-80902295D02*
X79409524Y-80902295D01*
X79409524Y-80902295D02*
X79333333Y-80864200D01*
X79333333Y-80864200D02*
X79295238Y-80826104D01*
X79295238Y-80826104D02*
X79257143Y-80749914D01*
X79257143Y-80749914D02*
X79257143Y-80673723D01*
X79257143Y-80673723D02*
X79295238Y-80597533D01*
X79295238Y-80597533D02*
X79333333Y-80559438D01*
X79333333Y-80559438D02*
X79409524Y-80521342D01*
X79409524Y-80521342D02*
X79561905Y-80483247D01*
X79561905Y-80483247D02*
X79638095Y-80445152D01*
X79638095Y-80445152D02*
X79676190Y-80407057D01*
X79676190Y-80407057D02*
X79714286Y-80330866D01*
X79714286Y-80330866D02*
X79714286Y-80254676D01*
X79714286Y-80254676D02*
X79676190Y-80178485D01*
X79676190Y-80178485D02*
X79638095Y-80140390D01*
X79638095Y-80140390D02*
X79561905Y-80102295D01*
X79561905Y-80102295D02*
X79371428Y-80102295D01*
X79371428Y-80102295D02*
X79257143Y-80140390D01*
X79028571Y-80102295D02*
X78571428Y-80102295D01*
X78800000Y-80902295D02*
X78800000Y-80102295D01*
X81314285Y-103762295D02*
X81314285Y-102962295D01*
X81314285Y-102962295D02*
X81009523Y-102962295D01*
X81009523Y-102962295D02*
X80933333Y-103000390D01*
X80933333Y-103000390D02*
X80895238Y-103038485D01*
X80895238Y-103038485D02*
X80857142Y-103114676D01*
X80857142Y-103114676D02*
X80857142Y-103228961D01*
X80857142Y-103228961D02*
X80895238Y-103305152D01*
X80895238Y-103305152D02*
X80933333Y-103343247D01*
X80933333Y-103343247D02*
X81009523Y-103381342D01*
X81009523Y-103381342D02*
X81314285Y-103381342D01*
X80552381Y-103533723D02*
X80171428Y-103533723D01*
X80628571Y-103762295D02*
X80361904Y-102962295D01*
X80361904Y-102962295D02*
X80095238Y-103762295D01*
X79409524Y-103762295D02*
X79866667Y-103762295D01*
X79638095Y-103762295D02*
X79638095Y-102962295D01*
X79638095Y-102962295D02*
X79714286Y-103076580D01*
X79714286Y-103076580D02*
X79790476Y-103152771D01*
X79790476Y-103152771D02*
X79866667Y-103190866D01*
X78685714Y-102962295D02*
X79066666Y-102962295D01*
X79066666Y-102962295D02*
X79104762Y-103343247D01*
X79104762Y-103343247D02*
X79066666Y-103305152D01*
X79066666Y-103305152D02*
X78990476Y-103267057D01*
X78990476Y-103267057D02*
X78800000Y-103267057D01*
X78800000Y-103267057D02*
X78723809Y-103305152D01*
X78723809Y-103305152D02*
X78685714Y-103343247D01*
X78685714Y-103343247D02*
X78647619Y-103419438D01*
X78647619Y-103419438D02*
X78647619Y-103609914D01*
X78647619Y-103609914D02*
X78685714Y-103686104D01*
X78685714Y-103686104D02*
X78723809Y-103724200D01*
X78723809Y-103724200D02*
X78800000Y-103762295D01*
X78800000Y-103762295D02*
X78990476Y-103762295D01*
X78990476Y-103762295D02*
X79066666Y-103724200D01*
X79066666Y-103724200D02*
X79104762Y-103686104D01*
X117230475Y-98672295D02*
X117230475Y-97872295D01*
X117230475Y-97872295D02*
X116925713Y-97872295D01*
X116925713Y-97872295D02*
X116849523Y-97910390D01*
X116849523Y-97910390D02*
X116811428Y-97948485D01*
X116811428Y-97948485D02*
X116773332Y-98024676D01*
X116773332Y-98024676D02*
X116773332Y-98138961D01*
X116773332Y-98138961D02*
X116811428Y-98215152D01*
X116811428Y-98215152D02*
X116849523Y-98253247D01*
X116849523Y-98253247D02*
X116925713Y-98291342D01*
X116925713Y-98291342D02*
X117230475Y-98291342D01*
X116163809Y-98253247D02*
X116049523Y-98291342D01*
X116049523Y-98291342D02*
X116011428Y-98329438D01*
X116011428Y-98329438D02*
X115973332Y-98405628D01*
X115973332Y-98405628D02*
X115973332Y-98519914D01*
X115973332Y-98519914D02*
X116011428Y-98596104D01*
X116011428Y-98596104D02*
X116049523Y-98634200D01*
X116049523Y-98634200D02*
X116125713Y-98672295D01*
X116125713Y-98672295D02*
X116430475Y-98672295D01*
X116430475Y-98672295D02*
X116430475Y-97872295D01*
X116430475Y-97872295D02*
X116163809Y-97872295D01*
X116163809Y-97872295D02*
X116087618Y-97910390D01*
X116087618Y-97910390D02*
X116049523Y-97948485D01*
X116049523Y-97948485D02*
X116011428Y-98024676D01*
X116011428Y-98024676D02*
X116011428Y-98100866D01*
X116011428Y-98100866D02*
X116049523Y-98177057D01*
X116049523Y-98177057D02*
X116087618Y-98215152D01*
X116087618Y-98215152D02*
X116163809Y-98253247D01*
X116163809Y-98253247D02*
X116430475Y-98253247D01*
X115478094Y-97872295D02*
X115401904Y-97872295D01*
X115401904Y-97872295D02*
X115325713Y-97910390D01*
X115325713Y-97910390D02*
X115287618Y-97948485D01*
X115287618Y-97948485D02*
X115249523Y-98024676D01*
X115249523Y-98024676D02*
X115211428Y-98177057D01*
X115211428Y-98177057D02*
X115211428Y-98367533D01*
X115211428Y-98367533D02*
X115249523Y-98519914D01*
X115249523Y-98519914D02*
X115287618Y-98596104D01*
X115287618Y-98596104D02*
X115325713Y-98634200D01*
X115325713Y-98634200D02*
X115401904Y-98672295D01*
X115401904Y-98672295D02*
X115478094Y-98672295D01*
X115478094Y-98672295D02*
X115554285Y-98634200D01*
X115554285Y-98634200D02*
X115592380Y-98596104D01*
X115592380Y-98596104D02*
X115630475Y-98519914D01*
X115630475Y-98519914D02*
X115668571Y-98367533D01*
X115668571Y-98367533D02*
X115668571Y-98177057D01*
X115668571Y-98177057D02*
X115630475Y-98024676D01*
X115630475Y-98024676D02*
X115592380Y-97948485D01*
X115592380Y-97948485D02*
X115554285Y-97910390D01*
X115554285Y-97910390D02*
X115478094Y-97872295D01*
X117173332Y-91052295D02*
X117173332Y-90252295D01*
X117173332Y-90252295D02*
X116868570Y-90252295D01*
X116868570Y-90252295D02*
X116792380Y-90290390D01*
X116792380Y-90290390D02*
X116754285Y-90328485D01*
X116754285Y-90328485D02*
X116716189Y-90404676D01*
X116716189Y-90404676D02*
X116716189Y-90518961D01*
X116716189Y-90518961D02*
X116754285Y-90595152D01*
X116754285Y-90595152D02*
X116792380Y-90633247D01*
X116792380Y-90633247D02*
X116868570Y-90671342D01*
X116868570Y-90671342D02*
X117173332Y-90671342D01*
X116411428Y-90823723D02*
X116030475Y-90823723D01*
X116487618Y-91052295D02*
X116220951Y-90252295D01*
X116220951Y-90252295D02*
X115954285Y-91052295D01*
X115306666Y-90252295D02*
X115687618Y-90252295D01*
X115687618Y-90252295D02*
X115725714Y-90633247D01*
X115725714Y-90633247D02*
X115687618Y-90595152D01*
X115687618Y-90595152D02*
X115611428Y-90557057D01*
X115611428Y-90557057D02*
X115420952Y-90557057D01*
X115420952Y-90557057D02*
X115344761Y-90595152D01*
X115344761Y-90595152D02*
X115306666Y-90633247D01*
X115306666Y-90633247D02*
X115268571Y-90709438D01*
X115268571Y-90709438D02*
X115268571Y-90899914D01*
X115268571Y-90899914D02*
X115306666Y-90976104D01*
X115306666Y-90976104D02*
X115344761Y-91014200D01*
X115344761Y-91014200D02*
X115420952Y-91052295D01*
X115420952Y-91052295D02*
X115611428Y-91052295D01*
X115611428Y-91052295D02*
X115687618Y-91014200D01*
X115687618Y-91014200D02*
X115725714Y-90976104D01*
X80152380Y-118202295D02*
X80533332Y-118202295D01*
X80533332Y-118202295D02*
X80571428Y-118583247D01*
X80571428Y-118583247D02*
X80533332Y-118545152D01*
X80533332Y-118545152D02*
X80457142Y-118507057D01*
X80457142Y-118507057D02*
X80266666Y-118507057D01*
X80266666Y-118507057D02*
X80190475Y-118545152D01*
X80190475Y-118545152D02*
X80152380Y-118583247D01*
X80152380Y-118583247D02*
X80114285Y-118659438D01*
X80114285Y-118659438D02*
X80114285Y-118849914D01*
X80114285Y-118849914D02*
X80152380Y-118926104D01*
X80152380Y-118926104D02*
X80190475Y-118964200D01*
X80190475Y-118964200D02*
X80266666Y-119002295D01*
X80266666Y-119002295D02*
X80457142Y-119002295D01*
X80457142Y-119002295D02*
X80533332Y-118964200D01*
X80533332Y-118964200D02*
X80571428Y-118926104D01*
X79885713Y-118202295D02*
X79619046Y-119002295D01*
X79619046Y-119002295D02*
X79352380Y-118202295D01*
X117173332Y-88512295D02*
X117173332Y-87712295D01*
X117173332Y-87712295D02*
X116868570Y-87712295D01*
X116868570Y-87712295D02*
X116792380Y-87750390D01*
X116792380Y-87750390D02*
X116754285Y-87788485D01*
X116754285Y-87788485D02*
X116716189Y-87864676D01*
X116716189Y-87864676D02*
X116716189Y-87978961D01*
X116716189Y-87978961D02*
X116754285Y-88055152D01*
X116754285Y-88055152D02*
X116792380Y-88093247D01*
X116792380Y-88093247D02*
X116868570Y-88131342D01*
X116868570Y-88131342D02*
X117173332Y-88131342D01*
X116411428Y-88283723D02*
X116030475Y-88283723D01*
X116487618Y-88512295D02*
X116220951Y-87712295D01*
X116220951Y-87712295D02*
X115954285Y-88512295D01*
X115344761Y-87978961D02*
X115344761Y-88512295D01*
X115535237Y-87674200D02*
X115725714Y-88245628D01*
X115725714Y-88245628D02*
X115230475Y-88245628D01*
X80990475Y-85982295D02*
X80990475Y-85182295D01*
X80990475Y-85182295D02*
X80685713Y-85182295D01*
X80685713Y-85182295D02*
X80609523Y-85220390D01*
X80609523Y-85220390D02*
X80571428Y-85258485D01*
X80571428Y-85258485D02*
X80533332Y-85334676D01*
X80533332Y-85334676D02*
X80533332Y-85448961D01*
X80533332Y-85448961D02*
X80571428Y-85525152D01*
X80571428Y-85525152D02*
X80609523Y-85563247D01*
X80609523Y-85563247D02*
X80685713Y-85601342D01*
X80685713Y-85601342D02*
X80990475Y-85601342D01*
X79923809Y-85563247D02*
X79809523Y-85601342D01*
X79809523Y-85601342D02*
X79771428Y-85639438D01*
X79771428Y-85639438D02*
X79733332Y-85715628D01*
X79733332Y-85715628D02*
X79733332Y-85829914D01*
X79733332Y-85829914D02*
X79771428Y-85906104D01*
X79771428Y-85906104D02*
X79809523Y-85944200D01*
X79809523Y-85944200D02*
X79885713Y-85982295D01*
X79885713Y-85982295D02*
X80190475Y-85982295D01*
X80190475Y-85982295D02*
X80190475Y-85182295D01*
X80190475Y-85182295D02*
X79923809Y-85182295D01*
X79923809Y-85182295D02*
X79847618Y-85220390D01*
X79847618Y-85220390D02*
X79809523Y-85258485D01*
X79809523Y-85258485D02*
X79771428Y-85334676D01*
X79771428Y-85334676D02*
X79771428Y-85410866D01*
X79771428Y-85410866D02*
X79809523Y-85487057D01*
X79809523Y-85487057D02*
X79847618Y-85525152D01*
X79847618Y-85525152D02*
X79923809Y-85563247D01*
X79923809Y-85563247D02*
X80190475Y-85563247D01*
X79352380Y-85982295D02*
X79199999Y-85982295D01*
X79199999Y-85982295D02*
X79123809Y-85944200D01*
X79123809Y-85944200D02*
X79085713Y-85906104D01*
X79085713Y-85906104D02*
X79009523Y-85791819D01*
X79009523Y-85791819D02*
X78971428Y-85639438D01*
X78971428Y-85639438D02*
X78971428Y-85334676D01*
X78971428Y-85334676D02*
X79009523Y-85258485D01*
X79009523Y-85258485D02*
X79047618Y-85220390D01*
X79047618Y-85220390D02*
X79123809Y-85182295D01*
X79123809Y-85182295D02*
X79276190Y-85182295D01*
X79276190Y-85182295D02*
X79352380Y-85220390D01*
X79352380Y-85220390D02*
X79390475Y-85258485D01*
X79390475Y-85258485D02*
X79428571Y-85334676D01*
X79428571Y-85334676D02*
X79428571Y-85525152D01*
X79428571Y-85525152D02*
X79390475Y-85601342D01*
X79390475Y-85601342D02*
X79352380Y-85639438D01*
X79352380Y-85639438D02*
X79276190Y-85677533D01*
X79276190Y-85677533D02*
X79123809Y-85677533D01*
X79123809Y-85677533D02*
X79047618Y-85639438D01*
X79047618Y-85639438D02*
X79009523Y-85601342D01*
X79009523Y-85601342D02*
X78971428Y-85525152D01*
X88724285Y-135932295D02*
X88724285Y-136579914D01*
X88724285Y-136579914D02*
X88686190Y-136656104D01*
X88686190Y-136656104D02*
X88648095Y-136694200D01*
X88648095Y-136694200D02*
X88571904Y-136732295D01*
X88571904Y-136732295D02*
X88419523Y-136732295D01*
X88419523Y-136732295D02*
X88343333Y-136694200D01*
X88343333Y-136694200D02*
X88305238Y-136656104D01*
X88305238Y-136656104D02*
X88267142Y-136579914D01*
X88267142Y-136579914D02*
X88267142Y-135932295D01*
X87467143Y-136732295D02*
X87924286Y-136732295D01*
X87695714Y-136732295D02*
X87695714Y-135932295D01*
X87695714Y-135932295D02*
X87771905Y-136046580D01*
X87771905Y-136046580D02*
X87848095Y-136122771D01*
X87848095Y-136122771D02*
X87924286Y-136160866D01*
X87238571Y-135932295D02*
X86781428Y-135932295D01*
X87010000Y-136732295D02*
X87010000Y-135932295D01*
X116392380Y-118192295D02*
X116773332Y-118192295D01*
X116773332Y-118192295D02*
X116811428Y-118573247D01*
X116811428Y-118573247D02*
X116773332Y-118535152D01*
X116773332Y-118535152D02*
X116697142Y-118497057D01*
X116697142Y-118497057D02*
X116506666Y-118497057D01*
X116506666Y-118497057D02*
X116430475Y-118535152D01*
X116430475Y-118535152D02*
X116392380Y-118573247D01*
X116392380Y-118573247D02*
X116354285Y-118649438D01*
X116354285Y-118649438D02*
X116354285Y-118839914D01*
X116354285Y-118839914D02*
X116392380Y-118916104D01*
X116392380Y-118916104D02*
X116430475Y-118954200D01*
X116430475Y-118954200D02*
X116506666Y-118992295D01*
X116506666Y-118992295D02*
X116697142Y-118992295D01*
X116697142Y-118992295D02*
X116773332Y-118954200D01*
X116773332Y-118954200D02*
X116811428Y-118916104D01*
X116125713Y-118192295D02*
X115859046Y-118992295D01*
X115859046Y-118992295D02*
X115592380Y-118192295D01*
X81314285Y-108842295D02*
X81314285Y-108042295D01*
X81314285Y-108042295D02*
X81009523Y-108042295D01*
X81009523Y-108042295D02*
X80933333Y-108080390D01*
X80933333Y-108080390D02*
X80895238Y-108118485D01*
X80895238Y-108118485D02*
X80857142Y-108194676D01*
X80857142Y-108194676D02*
X80857142Y-108308961D01*
X80857142Y-108308961D02*
X80895238Y-108385152D01*
X80895238Y-108385152D02*
X80933333Y-108423247D01*
X80933333Y-108423247D02*
X81009523Y-108461342D01*
X81009523Y-108461342D02*
X81314285Y-108461342D01*
X80552381Y-108613723D02*
X80171428Y-108613723D01*
X80628571Y-108842295D02*
X80361904Y-108042295D01*
X80361904Y-108042295D02*
X80095238Y-108842295D01*
X79409524Y-108842295D02*
X79866667Y-108842295D01*
X79638095Y-108842295D02*
X79638095Y-108042295D01*
X79638095Y-108042295D02*
X79714286Y-108156580D01*
X79714286Y-108156580D02*
X79790476Y-108232771D01*
X79790476Y-108232771D02*
X79866667Y-108270866D01*
X79142857Y-108042295D02*
X78647619Y-108042295D01*
X78647619Y-108042295D02*
X78914285Y-108347057D01*
X78914285Y-108347057D02*
X78800000Y-108347057D01*
X78800000Y-108347057D02*
X78723809Y-108385152D01*
X78723809Y-108385152D02*
X78685714Y-108423247D01*
X78685714Y-108423247D02*
X78647619Y-108499438D01*
X78647619Y-108499438D02*
X78647619Y-108689914D01*
X78647619Y-108689914D02*
X78685714Y-108766104D01*
X78685714Y-108766104D02*
X78723809Y-108804200D01*
X78723809Y-108804200D02*
X78800000Y-108842295D01*
X78800000Y-108842295D02*
X79028571Y-108842295D01*
X79028571Y-108842295D02*
X79104762Y-108804200D01*
X79104762Y-108804200D02*
X79142857Y-108766104D01*
X81314285Y-106302295D02*
X81314285Y-105502295D01*
X81314285Y-105502295D02*
X81009523Y-105502295D01*
X81009523Y-105502295D02*
X80933333Y-105540390D01*
X80933333Y-105540390D02*
X80895238Y-105578485D01*
X80895238Y-105578485D02*
X80857142Y-105654676D01*
X80857142Y-105654676D02*
X80857142Y-105768961D01*
X80857142Y-105768961D02*
X80895238Y-105845152D01*
X80895238Y-105845152D02*
X80933333Y-105883247D01*
X80933333Y-105883247D02*
X81009523Y-105921342D01*
X81009523Y-105921342D02*
X81314285Y-105921342D01*
X80552381Y-106073723D02*
X80171428Y-106073723D01*
X80628571Y-106302295D02*
X80361904Y-105502295D01*
X80361904Y-105502295D02*
X80095238Y-106302295D01*
X79409524Y-106302295D02*
X79866667Y-106302295D01*
X79638095Y-106302295D02*
X79638095Y-105502295D01*
X79638095Y-105502295D02*
X79714286Y-105616580D01*
X79714286Y-105616580D02*
X79790476Y-105692771D01*
X79790476Y-105692771D02*
X79866667Y-105730866D01*
X78723809Y-105768961D02*
X78723809Y-106302295D01*
X78914285Y-105464200D02*
X79104762Y-106035628D01*
X79104762Y-106035628D02*
X78609523Y-106035628D01*
X117173332Y-85972295D02*
X117173332Y-85172295D01*
X117173332Y-85172295D02*
X116868570Y-85172295D01*
X116868570Y-85172295D02*
X116792380Y-85210390D01*
X116792380Y-85210390D02*
X116754285Y-85248485D01*
X116754285Y-85248485D02*
X116716189Y-85324676D01*
X116716189Y-85324676D02*
X116716189Y-85438961D01*
X116716189Y-85438961D02*
X116754285Y-85515152D01*
X116754285Y-85515152D02*
X116792380Y-85553247D01*
X116792380Y-85553247D02*
X116868570Y-85591342D01*
X116868570Y-85591342D02*
X117173332Y-85591342D01*
X116411428Y-85743723D02*
X116030475Y-85743723D01*
X116487618Y-85972295D02*
X116220951Y-85172295D01*
X116220951Y-85172295D02*
X115954285Y-85972295D01*
X115763809Y-85172295D02*
X115268571Y-85172295D01*
X115268571Y-85172295D02*
X115535237Y-85477057D01*
X115535237Y-85477057D02*
X115420952Y-85477057D01*
X115420952Y-85477057D02*
X115344761Y-85515152D01*
X115344761Y-85515152D02*
X115306666Y-85553247D01*
X115306666Y-85553247D02*
X115268571Y-85629438D01*
X115268571Y-85629438D02*
X115268571Y-85819914D01*
X115268571Y-85819914D02*
X115306666Y-85896104D01*
X115306666Y-85896104D02*
X115344761Y-85934200D01*
X115344761Y-85934200D02*
X115420952Y-85972295D01*
X115420952Y-85972295D02*
X115649523Y-85972295D01*
X115649523Y-85972295D02*
X115725714Y-85934200D01*
X115725714Y-85934200D02*
X115763809Y-85896104D01*
X94548095Y-106462295D02*
X95005238Y-106462295D01*
X94776666Y-106462295D02*
X94776666Y-105662295D01*
X94776666Y-105662295D02*
X94852857Y-105776580D01*
X94852857Y-105776580D02*
X94929047Y-105852771D01*
X94929047Y-105852771D02*
X95005238Y-105890866D01*
X94052856Y-105662295D02*
X93976666Y-105662295D01*
X93976666Y-105662295D02*
X93900475Y-105700390D01*
X93900475Y-105700390D02*
X93862380Y-105738485D01*
X93862380Y-105738485D02*
X93824285Y-105814676D01*
X93824285Y-105814676D02*
X93786190Y-105967057D01*
X93786190Y-105967057D02*
X93786190Y-106157533D01*
X93786190Y-106157533D02*
X93824285Y-106309914D01*
X93824285Y-106309914D02*
X93862380Y-106386104D01*
X93862380Y-106386104D02*
X93900475Y-106424200D01*
X93900475Y-106424200D02*
X93976666Y-106462295D01*
X93976666Y-106462295D02*
X94052856Y-106462295D01*
X94052856Y-106462295D02*
X94129047Y-106424200D01*
X94129047Y-106424200D02*
X94167142Y-106386104D01*
X94167142Y-106386104D02*
X94205237Y-106309914D01*
X94205237Y-106309914D02*
X94243333Y-106157533D01*
X94243333Y-106157533D02*
X94243333Y-105967057D01*
X94243333Y-105967057D02*
X94205237Y-105814676D01*
X94205237Y-105814676D02*
X94167142Y-105738485D01*
X94167142Y-105738485D02*
X94129047Y-105700390D01*
X94129047Y-105700390D02*
X94052856Y-105662295D01*
X93290951Y-105662295D02*
X93214761Y-105662295D01*
X93214761Y-105662295D02*
X93138570Y-105700390D01*
X93138570Y-105700390D02*
X93100475Y-105738485D01*
X93100475Y-105738485D02*
X93062380Y-105814676D01*
X93062380Y-105814676D02*
X93024285Y-105967057D01*
X93024285Y-105967057D02*
X93024285Y-106157533D01*
X93024285Y-106157533D02*
X93062380Y-106309914D01*
X93062380Y-106309914D02*
X93100475Y-106386104D01*
X93100475Y-106386104D02*
X93138570Y-106424200D01*
X93138570Y-106424200D02*
X93214761Y-106462295D01*
X93214761Y-106462295D02*
X93290951Y-106462295D01*
X93290951Y-106462295D02*
X93367142Y-106424200D01*
X93367142Y-106424200D02*
X93405237Y-106386104D01*
X93405237Y-106386104D02*
X93443332Y-106309914D01*
X93443332Y-106309914D02*
X93481428Y-106157533D01*
X93481428Y-106157533D02*
X93481428Y-105967057D01*
X93481428Y-105967057D02*
X93443332Y-105814676D01*
X93443332Y-105814676D02*
X93405237Y-105738485D01*
X93405237Y-105738485D02*
X93367142Y-105700390D01*
X93367142Y-105700390D02*
X93290951Y-105662295D01*
X92681427Y-105928961D02*
X92681427Y-106462295D01*
X92681427Y-106005152D02*
X92643332Y-105967057D01*
X92643332Y-105967057D02*
X92567142Y-105928961D01*
X92567142Y-105928961D02*
X92452856Y-105928961D01*
X92452856Y-105928961D02*
X92376665Y-105967057D01*
X92376665Y-105967057D02*
X92338570Y-106043247D01*
X92338570Y-106043247D02*
X92338570Y-106462295D01*
X91690951Y-106043247D02*
X91957617Y-106043247D01*
X91957617Y-106462295D02*
X91957617Y-105662295D01*
X91957617Y-105662295D02*
X91576665Y-105662295D01*
X92932295Y-90761904D02*
X92932295Y-90304761D01*
X92932295Y-90533333D02*
X92132295Y-90533333D01*
X92132295Y-90533333D02*
X92246580Y-90457142D01*
X92246580Y-90457142D02*
X92322771Y-90380952D01*
X92322771Y-90380952D02*
X92360866Y-90304761D01*
X92132295Y-91257143D02*
X92132295Y-91333333D01*
X92132295Y-91333333D02*
X92170390Y-91409524D01*
X92170390Y-91409524D02*
X92208485Y-91447619D01*
X92208485Y-91447619D02*
X92284676Y-91485714D01*
X92284676Y-91485714D02*
X92437057Y-91523809D01*
X92437057Y-91523809D02*
X92627533Y-91523809D01*
X92627533Y-91523809D02*
X92779914Y-91485714D01*
X92779914Y-91485714D02*
X92856104Y-91447619D01*
X92856104Y-91447619D02*
X92894200Y-91409524D01*
X92894200Y-91409524D02*
X92932295Y-91333333D01*
X92932295Y-91333333D02*
X92932295Y-91257143D01*
X92932295Y-91257143D02*
X92894200Y-91180952D01*
X92894200Y-91180952D02*
X92856104Y-91142857D01*
X92856104Y-91142857D02*
X92779914Y-91104762D01*
X92779914Y-91104762D02*
X92627533Y-91066666D01*
X92627533Y-91066666D02*
X92437057Y-91066666D01*
X92437057Y-91066666D02*
X92284676Y-91104762D01*
X92284676Y-91104762D02*
X92208485Y-91142857D01*
X92208485Y-91142857D02*
X92170390Y-91180952D01*
X92170390Y-91180952D02*
X92132295Y-91257143D01*
X92132295Y-92019048D02*
X92132295Y-92095238D01*
X92132295Y-92095238D02*
X92170390Y-92171429D01*
X92170390Y-92171429D02*
X92208485Y-92209524D01*
X92208485Y-92209524D02*
X92284676Y-92247619D01*
X92284676Y-92247619D02*
X92437057Y-92285714D01*
X92437057Y-92285714D02*
X92627533Y-92285714D01*
X92627533Y-92285714D02*
X92779914Y-92247619D01*
X92779914Y-92247619D02*
X92856104Y-92209524D01*
X92856104Y-92209524D02*
X92894200Y-92171429D01*
X92894200Y-92171429D02*
X92932295Y-92095238D01*
X92932295Y-92095238D02*
X92932295Y-92019048D01*
X92932295Y-92019048D02*
X92894200Y-91942857D01*
X92894200Y-91942857D02*
X92856104Y-91904762D01*
X92856104Y-91904762D02*
X92779914Y-91866667D01*
X92779914Y-91866667D02*
X92627533Y-91828571D01*
X92627533Y-91828571D02*
X92437057Y-91828571D01*
X92437057Y-91828571D02*
X92284676Y-91866667D01*
X92284676Y-91866667D02*
X92208485Y-91904762D01*
X92208485Y-91904762D02*
X92170390Y-91942857D01*
X92170390Y-91942857D02*
X92132295Y-92019048D01*
X92398961Y-92628572D02*
X92932295Y-92628572D01*
X92475152Y-92628572D02*
X92437057Y-92666667D01*
X92437057Y-92666667D02*
X92398961Y-92742857D01*
X92398961Y-92742857D02*
X92398961Y-92857143D01*
X92398961Y-92857143D02*
X92437057Y-92933334D01*
X92437057Y-92933334D02*
X92513247Y-92971429D01*
X92513247Y-92971429D02*
X92932295Y-92971429D01*
X92513247Y-93619048D02*
X92513247Y-93352382D01*
X92932295Y-93352382D02*
X92132295Y-93352382D01*
X92132295Y-93352382D02*
X92132295Y-93733334D01*
X104172295Y-87110952D02*
X104172295Y-86653809D01*
X104172295Y-86882381D02*
X103372295Y-86882381D01*
X103372295Y-86882381D02*
X103486580Y-86806190D01*
X103486580Y-86806190D02*
X103562771Y-86730000D01*
X103562771Y-86730000D02*
X103600866Y-86653809D01*
X103372295Y-87606191D02*
X103372295Y-87682381D01*
X103372295Y-87682381D02*
X103410390Y-87758572D01*
X103410390Y-87758572D02*
X103448485Y-87796667D01*
X103448485Y-87796667D02*
X103524676Y-87834762D01*
X103524676Y-87834762D02*
X103677057Y-87872857D01*
X103677057Y-87872857D02*
X103867533Y-87872857D01*
X103867533Y-87872857D02*
X104019914Y-87834762D01*
X104019914Y-87834762D02*
X104096104Y-87796667D01*
X104096104Y-87796667D02*
X104134200Y-87758572D01*
X104134200Y-87758572D02*
X104172295Y-87682381D01*
X104172295Y-87682381D02*
X104172295Y-87606191D01*
X104172295Y-87606191D02*
X104134200Y-87530000D01*
X104134200Y-87530000D02*
X104096104Y-87491905D01*
X104096104Y-87491905D02*
X104019914Y-87453810D01*
X104019914Y-87453810D02*
X103867533Y-87415714D01*
X103867533Y-87415714D02*
X103677057Y-87415714D01*
X103677057Y-87415714D02*
X103524676Y-87453810D01*
X103524676Y-87453810D02*
X103448485Y-87491905D01*
X103448485Y-87491905D02*
X103410390Y-87530000D01*
X103410390Y-87530000D02*
X103372295Y-87606191D01*
X103372295Y-88368096D02*
X103372295Y-88444286D01*
X103372295Y-88444286D02*
X103410390Y-88520477D01*
X103410390Y-88520477D02*
X103448485Y-88558572D01*
X103448485Y-88558572D02*
X103524676Y-88596667D01*
X103524676Y-88596667D02*
X103677057Y-88634762D01*
X103677057Y-88634762D02*
X103867533Y-88634762D01*
X103867533Y-88634762D02*
X104019914Y-88596667D01*
X104019914Y-88596667D02*
X104096104Y-88558572D01*
X104096104Y-88558572D02*
X104134200Y-88520477D01*
X104134200Y-88520477D02*
X104172295Y-88444286D01*
X104172295Y-88444286D02*
X104172295Y-88368096D01*
X104172295Y-88368096D02*
X104134200Y-88291905D01*
X104134200Y-88291905D02*
X104096104Y-88253810D01*
X104096104Y-88253810D02*
X104019914Y-88215715D01*
X104019914Y-88215715D02*
X103867533Y-88177619D01*
X103867533Y-88177619D02*
X103677057Y-88177619D01*
X103677057Y-88177619D02*
X103524676Y-88215715D01*
X103524676Y-88215715D02*
X103448485Y-88253810D01*
X103448485Y-88253810D02*
X103410390Y-88291905D01*
X103410390Y-88291905D02*
X103372295Y-88368096D01*
X103638961Y-88977620D02*
X104172295Y-88977620D01*
X103715152Y-88977620D02*
X103677057Y-89015715D01*
X103677057Y-89015715D02*
X103638961Y-89091905D01*
X103638961Y-89091905D02*
X103638961Y-89206191D01*
X103638961Y-89206191D02*
X103677057Y-89282382D01*
X103677057Y-89282382D02*
X103753247Y-89320477D01*
X103753247Y-89320477D02*
X104172295Y-89320477D01*
X103753247Y-89968096D02*
X103753247Y-89701430D01*
X104172295Y-89701430D02*
X103372295Y-89701430D01*
X103372295Y-89701430D02*
X103372295Y-90082382D01*
X102750000Y-128333723D02*
X102369047Y-128333723D01*
X102826190Y-128562295D02*
X102559523Y-127762295D01*
X102559523Y-127762295D02*
X102292857Y-128562295D01*
X102026190Y-128562295D02*
X102026190Y-127762295D01*
X102026190Y-127762295D02*
X101759524Y-128333723D01*
X101759524Y-128333723D02*
X101492857Y-127762295D01*
X101492857Y-127762295D02*
X101492857Y-128562295D01*
X101150000Y-128524200D02*
X101035714Y-128562295D01*
X101035714Y-128562295D02*
X100845238Y-128562295D01*
X100845238Y-128562295D02*
X100769047Y-128524200D01*
X100769047Y-128524200D02*
X100730952Y-128486104D01*
X100730952Y-128486104D02*
X100692857Y-128409914D01*
X100692857Y-128409914D02*
X100692857Y-128333723D01*
X100692857Y-128333723D02*
X100730952Y-128257533D01*
X100730952Y-128257533D02*
X100769047Y-128219438D01*
X100769047Y-128219438D02*
X100845238Y-128181342D01*
X100845238Y-128181342D02*
X100997619Y-128143247D01*
X100997619Y-128143247D02*
X101073809Y-128105152D01*
X101073809Y-128105152D02*
X101111904Y-128067057D01*
X101111904Y-128067057D02*
X101150000Y-127990866D01*
X101150000Y-127990866D02*
X101150000Y-127914676D01*
X101150000Y-127914676D02*
X101111904Y-127838485D01*
X101111904Y-127838485D02*
X101073809Y-127800390D01*
X101073809Y-127800390D02*
X100997619Y-127762295D01*
X100997619Y-127762295D02*
X100807142Y-127762295D01*
X100807142Y-127762295D02*
X100692857Y-127800390D01*
X99930952Y-128562295D02*
X100388095Y-128562295D01*
X100159523Y-128562295D02*
X100159523Y-127762295D01*
X100159523Y-127762295D02*
X100235714Y-127876580D01*
X100235714Y-127876580D02*
X100311904Y-127952771D01*
X100311904Y-127952771D02*
X100388095Y-127990866D01*
X99169047Y-128562295D02*
X99626190Y-128562295D01*
X99397618Y-128562295D02*
X99397618Y-127762295D01*
X99397618Y-127762295D02*
X99473809Y-127876580D01*
X99473809Y-127876580D02*
X99549999Y-127952771D01*
X99549999Y-127952771D02*
X99626190Y-127990866D01*
X98407142Y-128562295D02*
X98864285Y-128562295D01*
X98635713Y-128562295D02*
X98635713Y-127762295D01*
X98635713Y-127762295D02*
X98711904Y-127876580D01*
X98711904Y-127876580D02*
X98788094Y-127952771D01*
X98788094Y-127952771D02*
X98864285Y-127990866D01*
X98140475Y-127762295D02*
X97607141Y-127762295D01*
X97607141Y-127762295D02*
X97949999Y-128562295D01*
X97302379Y-128257533D02*
X96692856Y-128257533D01*
X96388094Y-127762295D02*
X95892856Y-127762295D01*
X95892856Y-127762295D02*
X96159522Y-128067057D01*
X96159522Y-128067057D02*
X96045237Y-128067057D01*
X96045237Y-128067057D02*
X95969046Y-128105152D01*
X95969046Y-128105152D02*
X95930951Y-128143247D01*
X95930951Y-128143247D02*
X95892856Y-128219438D01*
X95892856Y-128219438D02*
X95892856Y-128409914D01*
X95892856Y-128409914D02*
X95930951Y-128486104D01*
X95930951Y-128486104D02*
X95969046Y-128524200D01*
X95969046Y-128524200D02*
X96045237Y-128562295D01*
X96045237Y-128562295D02*
X96273808Y-128562295D01*
X96273808Y-128562295D02*
X96349999Y-128524200D01*
X96349999Y-128524200D02*
X96388094Y-128486104D01*
X95549998Y-128486104D02*
X95511903Y-128524200D01*
X95511903Y-128524200D02*
X95549998Y-128562295D01*
X95549998Y-128562295D02*
X95588094Y-128524200D01*
X95588094Y-128524200D02*
X95549998Y-128486104D01*
X95549998Y-128486104D02*
X95549998Y-128562295D01*
X95245237Y-127762295D02*
X94749999Y-127762295D01*
X94749999Y-127762295D02*
X95016665Y-128067057D01*
X95016665Y-128067057D02*
X94902380Y-128067057D01*
X94902380Y-128067057D02*
X94826189Y-128105152D01*
X94826189Y-128105152D02*
X94788094Y-128143247D01*
X94788094Y-128143247D02*
X94749999Y-128219438D01*
X94749999Y-128219438D02*
X94749999Y-128409914D01*
X94749999Y-128409914D02*
X94788094Y-128486104D01*
X94788094Y-128486104D02*
X94826189Y-128524200D01*
X94826189Y-128524200D02*
X94902380Y-128562295D01*
X94902380Y-128562295D02*
X95130951Y-128562295D01*
X95130951Y-128562295D02*
X95207142Y-128524200D01*
X95207142Y-128524200D02*
X95245237Y-128486104D01*
X102006190Y-118242295D02*
X102387142Y-118242295D01*
X102387142Y-118242295D02*
X102425238Y-118623247D01*
X102425238Y-118623247D02*
X102387142Y-118585152D01*
X102387142Y-118585152D02*
X102310952Y-118547057D01*
X102310952Y-118547057D02*
X102120476Y-118547057D01*
X102120476Y-118547057D02*
X102044285Y-118585152D01*
X102044285Y-118585152D02*
X102006190Y-118623247D01*
X102006190Y-118623247D02*
X101968095Y-118699438D01*
X101968095Y-118699438D02*
X101968095Y-118889914D01*
X101968095Y-118889914D02*
X102006190Y-118966104D01*
X102006190Y-118966104D02*
X102044285Y-119004200D01*
X102044285Y-119004200D02*
X102120476Y-119042295D01*
X102120476Y-119042295D02*
X102310952Y-119042295D01*
X102310952Y-119042295D02*
X102387142Y-119004200D01*
X102387142Y-119004200D02*
X102425238Y-118966104D01*
X101739523Y-118242295D02*
X101472856Y-119042295D01*
X101472856Y-119042295D02*
X101206190Y-118242295D01*
X100520476Y-119042295D02*
X100977619Y-119042295D01*
X100749047Y-119042295D02*
X100749047Y-118242295D01*
X100749047Y-118242295D02*
X100825238Y-118356580D01*
X100825238Y-118356580D02*
X100901428Y-118432771D01*
X100901428Y-118432771D02*
X100977619Y-118470866D01*
X100215714Y-118813723D02*
X99834761Y-118813723D01*
X100291904Y-119042295D02*
X100025237Y-118242295D01*
X100025237Y-118242295D02*
X99758571Y-119042295D01*
X95582295Y-87377618D02*
X95582295Y-87872856D01*
X95582295Y-87872856D02*
X95887057Y-87606190D01*
X95887057Y-87606190D02*
X95887057Y-87720475D01*
X95887057Y-87720475D02*
X95925152Y-87796666D01*
X95925152Y-87796666D02*
X95963247Y-87834761D01*
X95963247Y-87834761D02*
X96039438Y-87872856D01*
X96039438Y-87872856D02*
X96229914Y-87872856D01*
X96229914Y-87872856D02*
X96306104Y-87834761D01*
X96306104Y-87834761D02*
X96344200Y-87796666D01*
X96344200Y-87796666D02*
X96382295Y-87720475D01*
X96382295Y-87720475D02*
X96382295Y-87491904D01*
X96382295Y-87491904D02*
X96344200Y-87415713D01*
X96344200Y-87415713D02*
X96306104Y-87377618D01*
X95582295Y-88368095D02*
X95582295Y-88444285D01*
X95582295Y-88444285D02*
X95620390Y-88520476D01*
X95620390Y-88520476D02*
X95658485Y-88558571D01*
X95658485Y-88558571D02*
X95734676Y-88596666D01*
X95734676Y-88596666D02*
X95887057Y-88634761D01*
X95887057Y-88634761D02*
X96077533Y-88634761D01*
X96077533Y-88634761D02*
X96229914Y-88596666D01*
X96229914Y-88596666D02*
X96306104Y-88558571D01*
X96306104Y-88558571D02*
X96344200Y-88520476D01*
X96344200Y-88520476D02*
X96382295Y-88444285D01*
X96382295Y-88444285D02*
X96382295Y-88368095D01*
X96382295Y-88368095D02*
X96344200Y-88291904D01*
X96344200Y-88291904D02*
X96306104Y-88253809D01*
X96306104Y-88253809D02*
X96229914Y-88215714D01*
X96229914Y-88215714D02*
X96077533Y-88177618D01*
X96077533Y-88177618D02*
X95887057Y-88177618D01*
X95887057Y-88177618D02*
X95734676Y-88215714D01*
X95734676Y-88215714D02*
X95658485Y-88253809D01*
X95658485Y-88253809D02*
X95620390Y-88291904D01*
X95620390Y-88291904D02*
X95582295Y-88368095D01*
X95848961Y-88977619D02*
X96648961Y-88977619D01*
X95887057Y-88977619D02*
X95848961Y-89053809D01*
X95848961Y-89053809D02*
X95848961Y-89206190D01*
X95848961Y-89206190D02*
X95887057Y-89282381D01*
X95887057Y-89282381D02*
X95925152Y-89320476D01*
X95925152Y-89320476D02*
X96001342Y-89358571D01*
X96001342Y-89358571D02*
X96229914Y-89358571D01*
X96229914Y-89358571D02*
X96306104Y-89320476D01*
X96306104Y-89320476D02*
X96344200Y-89282381D01*
X96344200Y-89282381D02*
X96382295Y-89206190D01*
X96382295Y-89206190D02*
X96382295Y-89053809D01*
X96382295Y-89053809D02*
X96344200Y-88977619D01*
X95963247Y-89968095D02*
X95963247Y-89701429D01*
X96382295Y-89701429D02*
X95582295Y-89701429D01*
X95582295Y-89701429D02*
X95582295Y-90082381D01*
X99477295Y-87377618D02*
X99477295Y-87872856D01*
X99477295Y-87872856D02*
X99782057Y-87606190D01*
X99782057Y-87606190D02*
X99782057Y-87720475D01*
X99782057Y-87720475D02*
X99820152Y-87796666D01*
X99820152Y-87796666D02*
X99858247Y-87834761D01*
X99858247Y-87834761D02*
X99934438Y-87872856D01*
X99934438Y-87872856D02*
X100124914Y-87872856D01*
X100124914Y-87872856D02*
X100201104Y-87834761D01*
X100201104Y-87834761D02*
X100239200Y-87796666D01*
X100239200Y-87796666D02*
X100277295Y-87720475D01*
X100277295Y-87720475D02*
X100277295Y-87491904D01*
X100277295Y-87491904D02*
X100239200Y-87415713D01*
X100239200Y-87415713D02*
X100201104Y-87377618D01*
X99477295Y-88368095D02*
X99477295Y-88444285D01*
X99477295Y-88444285D02*
X99515390Y-88520476D01*
X99515390Y-88520476D02*
X99553485Y-88558571D01*
X99553485Y-88558571D02*
X99629676Y-88596666D01*
X99629676Y-88596666D02*
X99782057Y-88634761D01*
X99782057Y-88634761D02*
X99972533Y-88634761D01*
X99972533Y-88634761D02*
X100124914Y-88596666D01*
X100124914Y-88596666D02*
X100201104Y-88558571D01*
X100201104Y-88558571D02*
X100239200Y-88520476D01*
X100239200Y-88520476D02*
X100277295Y-88444285D01*
X100277295Y-88444285D02*
X100277295Y-88368095D01*
X100277295Y-88368095D02*
X100239200Y-88291904D01*
X100239200Y-88291904D02*
X100201104Y-88253809D01*
X100201104Y-88253809D02*
X100124914Y-88215714D01*
X100124914Y-88215714D02*
X99972533Y-88177618D01*
X99972533Y-88177618D02*
X99782057Y-88177618D01*
X99782057Y-88177618D02*
X99629676Y-88215714D01*
X99629676Y-88215714D02*
X99553485Y-88253809D01*
X99553485Y-88253809D02*
X99515390Y-88291904D01*
X99515390Y-88291904D02*
X99477295Y-88368095D01*
X99743961Y-88977619D02*
X100543961Y-88977619D01*
X99782057Y-88977619D02*
X99743961Y-89053809D01*
X99743961Y-89053809D02*
X99743961Y-89206190D01*
X99743961Y-89206190D02*
X99782057Y-89282381D01*
X99782057Y-89282381D02*
X99820152Y-89320476D01*
X99820152Y-89320476D02*
X99896342Y-89358571D01*
X99896342Y-89358571D02*
X100124914Y-89358571D01*
X100124914Y-89358571D02*
X100201104Y-89320476D01*
X100201104Y-89320476D02*
X100239200Y-89282381D01*
X100239200Y-89282381D02*
X100277295Y-89206190D01*
X100277295Y-89206190D02*
X100277295Y-89053809D01*
X100277295Y-89053809D02*
X100239200Y-88977619D01*
X99858247Y-89968095D02*
X99858247Y-89701429D01*
X100277295Y-89701429D02*
X99477295Y-89701429D01*
X99477295Y-89701429D02*
X99477295Y-90082381D01*
X110618095Y-104332295D02*
X111075238Y-104332295D01*
X110846666Y-104332295D02*
X110846666Y-103532295D01*
X110846666Y-103532295D02*
X110922857Y-103646580D01*
X110922857Y-103646580D02*
X110999047Y-103722771D01*
X110999047Y-103722771D02*
X111075238Y-103760866D01*
X110122856Y-103532295D02*
X110046666Y-103532295D01*
X110046666Y-103532295D02*
X109970475Y-103570390D01*
X109970475Y-103570390D02*
X109932380Y-103608485D01*
X109932380Y-103608485D02*
X109894285Y-103684676D01*
X109894285Y-103684676D02*
X109856190Y-103837057D01*
X109856190Y-103837057D02*
X109856190Y-104027533D01*
X109856190Y-104027533D02*
X109894285Y-104179914D01*
X109894285Y-104179914D02*
X109932380Y-104256104D01*
X109932380Y-104256104D02*
X109970475Y-104294200D01*
X109970475Y-104294200D02*
X110046666Y-104332295D01*
X110046666Y-104332295D02*
X110122856Y-104332295D01*
X110122856Y-104332295D02*
X110199047Y-104294200D01*
X110199047Y-104294200D02*
X110237142Y-104256104D01*
X110237142Y-104256104D02*
X110275237Y-104179914D01*
X110275237Y-104179914D02*
X110313333Y-104027533D01*
X110313333Y-104027533D02*
X110313333Y-103837057D01*
X110313333Y-103837057D02*
X110275237Y-103684676D01*
X110275237Y-103684676D02*
X110237142Y-103608485D01*
X110237142Y-103608485D02*
X110199047Y-103570390D01*
X110199047Y-103570390D02*
X110122856Y-103532295D01*
X109360951Y-103532295D02*
X109284761Y-103532295D01*
X109284761Y-103532295D02*
X109208570Y-103570390D01*
X109208570Y-103570390D02*
X109170475Y-103608485D01*
X109170475Y-103608485D02*
X109132380Y-103684676D01*
X109132380Y-103684676D02*
X109094285Y-103837057D01*
X109094285Y-103837057D02*
X109094285Y-104027533D01*
X109094285Y-104027533D02*
X109132380Y-104179914D01*
X109132380Y-104179914D02*
X109170475Y-104256104D01*
X109170475Y-104256104D02*
X109208570Y-104294200D01*
X109208570Y-104294200D02*
X109284761Y-104332295D01*
X109284761Y-104332295D02*
X109360951Y-104332295D01*
X109360951Y-104332295D02*
X109437142Y-104294200D01*
X109437142Y-104294200D02*
X109475237Y-104256104D01*
X109475237Y-104256104D02*
X109513332Y-104179914D01*
X109513332Y-104179914D02*
X109551428Y-104027533D01*
X109551428Y-104027533D02*
X109551428Y-103837057D01*
X109551428Y-103837057D02*
X109513332Y-103684676D01*
X109513332Y-103684676D02*
X109475237Y-103608485D01*
X109475237Y-103608485D02*
X109437142Y-103570390D01*
X109437142Y-103570390D02*
X109360951Y-103532295D01*
X108751427Y-103798961D02*
X108751427Y-104332295D01*
X108751427Y-103875152D02*
X108713332Y-103837057D01*
X108713332Y-103837057D02*
X108637142Y-103798961D01*
X108637142Y-103798961D02*
X108522856Y-103798961D01*
X108522856Y-103798961D02*
X108446665Y-103837057D01*
X108446665Y-103837057D02*
X108408570Y-103913247D01*
X108408570Y-103913247D02*
X108408570Y-104332295D01*
X107760951Y-103913247D02*
X108027617Y-103913247D01*
X108027617Y-104332295D02*
X108027617Y-103532295D01*
X108027617Y-103532295D02*
X107646665Y-103532295D01*
X106334763Y-108824200D02*
X106220477Y-108862295D01*
X106220477Y-108862295D02*
X106030001Y-108862295D01*
X106030001Y-108862295D02*
X105953810Y-108824200D01*
X105953810Y-108824200D02*
X105915715Y-108786104D01*
X105915715Y-108786104D02*
X105877620Y-108709914D01*
X105877620Y-108709914D02*
X105877620Y-108633723D01*
X105877620Y-108633723D02*
X105915715Y-108557533D01*
X105915715Y-108557533D02*
X105953810Y-108519438D01*
X105953810Y-108519438D02*
X106030001Y-108481342D01*
X106030001Y-108481342D02*
X106182382Y-108443247D01*
X106182382Y-108443247D02*
X106258572Y-108405152D01*
X106258572Y-108405152D02*
X106296667Y-108367057D01*
X106296667Y-108367057D02*
X106334763Y-108290866D01*
X106334763Y-108290866D02*
X106334763Y-108214676D01*
X106334763Y-108214676D02*
X106296667Y-108138485D01*
X106296667Y-108138485D02*
X106258572Y-108100390D01*
X106258572Y-108100390D02*
X106182382Y-108062295D01*
X106182382Y-108062295D02*
X105991905Y-108062295D01*
X105991905Y-108062295D02*
X105877620Y-108100390D01*
X105649048Y-108062295D02*
X105191905Y-108062295D01*
X105420477Y-108862295D02*
X105420477Y-108062295D01*
X104925238Y-108862295D02*
X104925238Y-108062295D01*
X104925238Y-108062295D02*
X104658572Y-108633723D01*
X104658572Y-108633723D02*
X104391905Y-108062295D01*
X104391905Y-108062295D02*
X104391905Y-108862295D01*
X104087143Y-108062295D02*
X103591905Y-108062295D01*
X103591905Y-108062295D02*
X103858571Y-108367057D01*
X103858571Y-108367057D02*
X103744286Y-108367057D01*
X103744286Y-108367057D02*
X103668095Y-108405152D01*
X103668095Y-108405152D02*
X103630000Y-108443247D01*
X103630000Y-108443247D02*
X103591905Y-108519438D01*
X103591905Y-108519438D02*
X103591905Y-108709914D01*
X103591905Y-108709914D02*
X103630000Y-108786104D01*
X103630000Y-108786104D02*
X103668095Y-108824200D01*
X103668095Y-108824200D02*
X103744286Y-108862295D01*
X103744286Y-108862295D02*
X103972857Y-108862295D01*
X103972857Y-108862295D02*
X104049048Y-108824200D01*
X104049048Y-108824200D02*
X104087143Y-108786104D01*
X103287143Y-108138485D02*
X103249047Y-108100390D01*
X103249047Y-108100390D02*
X103172857Y-108062295D01*
X103172857Y-108062295D02*
X102982381Y-108062295D01*
X102982381Y-108062295D02*
X102906190Y-108100390D01*
X102906190Y-108100390D02*
X102868095Y-108138485D01*
X102868095Y-108138485D02*
X102830000Y-108214676D01*
X102830000Y-108214676D02*
X102830000Y-108290866D01*
X102830000Y-108290866D02*
X102868095Y-108405152D01*
X102868095Y-108405152D02*
X103325238Y-108862295D01*
X103325238Y-108862295D02*
X102830000Y-108862295D01*
X102220476Y-108443247D02*
X102487142Y-108443247D01*
X102487142Y-108862295D02*
X102487142Y-108062295D01*
X102487142Y-108062295D02*
X102106190Y-108062295D01*
X101382381Y-108862295D02*
X101839524Y-108862295D01*
X101610952Y-108862295D02*
X101610952Y-108062295D01*
X101610952Y-108062295D02*
X101687143Y-108176580D01*
X101687143Y-108176580D02*
X101763333Y-108252771D01*
X101763333Y-108252771D02*
X101839524Y-108290866D01*
X100887142Y-108062295D02*
X100810952Y-108062295D01*
X100810952Y-108062295D02*
X100734761Y-108100390D01*
X100734761Y-108100390D02*
X100696666Y-108138485D01*
X100696666Y-108138485D02*
X100658571Y-108214676D01*
X100658571Y-108214676D02*
X100620476Y-108367057D01*
X100620476Y-108367057D02*
X100620476Y-108557533D01*
X100620476Y-108557533D02*
X100658571Y-108709914D01*
X100658571Y-108709914D02*
X100696666Y-108786104D01*
X100696666Y-108786104D02*
X100734761Y-108824200D01*
X100734761Y-108824200D02*
X100810952Y-108862295D01*
X100810952Y-108862295D02*
X100887142Y-108862295D01*
X100887142Y-108862295D02*
X100963333Y-108824200D01*
X100963333Y-108824200D02*
X101001428Y-108786104D01*
X101001428Y-108786104D02*
X101039523Y-108709914D01*
X101039523Y-108709914D02*
X101077619Y-108557533D01*
X101077619Y-108557533D02*
X101077619Y-108367057D01*
X101077619Y-108367057D02*
X101039523Y-108214676D01*
X101039523Y-108214676D02*
X101001428Y-108138485D01*
X101001428Y-108138485D02*
X100963333Y-108100390D01*
X100963333Y-108100390D02*
X100887142Y-108062295D01*
X100353809Y-108062295D02*
X99858571Y-108062295D01*
X99858571Y-108062295D02*
X100125237Y-108367057D01*
X100125237Y-108367057D02*
X100010952Y-108367057D01*
X100010952Y-108367057D02*
X99934761Y-108405152D01*
X99934761Y-108405152D02*
X99896666Y-108443247D01*
X99896666Y-108443247D02*
X99858571Y-108519438D01*
X99858571Y-108519438D02*
X99858571Y-108709914D01*
X99858571Y-108709914D02*
X99896666Y-108786104D01*
X99896666Y-108786104D02*
X99934761Y-108824200D01*
X99934761Y-108824200D02*
X100010952Y-108862295D01*
X100010952Y-108862295D02*
X100239523Y-108862295D01*
X100239523Y-108862295D02*
X100315714Y-108824200D01*
X100315714Y-108824200D02*
X100353809Y-108786104D01*
X99058570Y-108786104D02*
X99096666Y-108824200D01*
X99096666Y-108824200D02*
X99210951Y-108862295D01*
X99210951Y-108862295D02*
X99287142Y-108862295D01*
X99287142Y-108862295D02*
X99401428Y-108824200D01*
X99401428Y-108824200D02*
X99477618Y-108748009D01*
X99477618Y-108748009D02*
X99515713Y-108671819D01*
X99515713Y-108671819D02*
X99553809Y-108519438D01*
X99553809Y-108519438D02*
X99553809Y-108405152D01*
X99553809Y-108405152D02*
X99515713Y-108252771D01*
X99515713Y-108252771D02*
X99477618Y-108176580D01*
X99477618Y-108176580D02*
X99401428Y-108100390D01*
X99401428Y-108100390D02*
X99287142Y-108062295D01*
X99287142Y-108062295D02*
X99210951Y-108062295D01*
X99210951Y-108062295D02*
X99096666Y-108100390D01*
X99096666Y-108100390D02*
X99058570Y-108138485D01*
X98601428Y-108405152D02*
X98677618Y-108367057D01*
X98677618Y-108367057D02*
X98715713Y-108328961D01*
X98715713Y-108328961D02*
X98753809Y-108252771D01*
X98753809Y-108252771D02*
X98753809Y-108214676D01*
X98753809Y-108214676D02*
X98715713Y-108138485D01*
X98715713Y-108138485D02*
X98677618Y-108100390D01*
X98677618Y-108100390D02*
X98601428Y-108062295D01*
X98601428Y-108062295D02*
X98449047Y-108062295D01*
X98449047Y-108062295D02*
X98372856Y-108100390D01*
X98372856Y-108100390D02*
X98334761Y-108138485D01*
X98334761Y-108138485D02*
X98296666Y-108214676D01*
X98296666Y-108214676D02*
X98296666Y-108252771D01*
X98296666Y-108252771D02*
X98334761Y-108328961D01*
X98334761Y-108328961D02*
X98372856Y-108367057D01*
X98372856Y-108367057D02*
X98449047Y-108405152D01*
X98449047Y-108405152D02*
X98601428Y-108405152D01*
X98601428Y-108405152D02*
X98677618Y-108443247D01*
X98677618Y-108443247D02*
X98715713Y-108481342D01*
X98715713Y-108481342D02*
X98753809Y-108557533D01*
X98753809Y-108557533D02*
X98753809Y-108709914D01*
X98753809Y-108709914D02*
X98715713Y-108786104D01*
X98715713Y-108786104D02*
X98677618Y-108824200D01*
X98677618Y-108824200D02*
X98601428Y-108862295D01*
X98601428Y-108862295D02*
X98449047Y-108862295D01*
X98449047Y-108862295D02*
X98372856Y-108824200D01*
X98372856Y-108824200D02*
X98334761Y-108786104D01*
X98334761Y-108786104D02*
X98296666Y-108709914D01*
X98296666Y-108709914D02*
X98296666Y-108557533D01*
X98296666Y-108557533D02*
X98334761Y-108481342D01*
X98334761Y-108481342D02*
X98372856Y-108443247D01*
X98372856Y-108443247D02*
X98449047Y-108405152D01*
X98068094Y-108062295D02*
X97610951Y-108062295D01*
X97839523Y-108862295D02*
X97839523Y-108062295D01*
X97001427Y-108062295D02*
X97153808Y-108062295D01*
X97153808Y-108062295D02*
X97229999Y-108100390D01*
X97229999Y-108100390D02*
X97268094Y-108138485D01*
X97268094Y-108138485D02*
X97344284Y-108252771D01*
X97344284Y-108252771D02*
X97382380Y-108405152D01*
X97382380Y-108405152D02*
X97382380Y-108709914D01*
X97382380Y-108709914D02*
X97344284Y-108786104D01*
X97344284Y-108786104D02*
X97306189Y-108824200D01*
X97306189Y-108824200D02*
X97229999Y-108862295D01*
X97229999Y-108862295D02*
X97077618Y-108862295D01*
X97077618Y-108862295D02*
X97001427Y-108824200D01*
X97001427Y-108824200D02*
X96963332Y-108786104D01*
X96963332Y-108786104D02*
X96925237Y-108709914D01*
X96925237Y-108709914D02*
X96925237Y-108519438D01*
X96925237Y-108519438D02*
X96963332Y-108443247D01*
X96963332Y-108443247D02*
X97001427Y-108405152D01*
X97001427Y-108405152D02*
X97077618Y-108367057D01*
X97077618Y-108367057D02*
X97229999Y-108367057D01*
X97229999Y-108367057D02*
X97306189Y-108405152D01*
X97306189Y-108405152D02*
X97344284Y-108443247D01*
X97344284Y-108443247D02*
X97382380Y-108519438D01*
X101424795Y-87377618D02*
X101424795Y-87872856D01*
X101424795Y-87872856D02*
X101729557Y-87606190D01*
X101729557Y-87606190D02*
X101729557Y-87720475D01*
X101729557Y-87720475D02*
X101767652Y-87796666D01*
X101767652Y-87796666D02*
X101805747Y-87834761D01*
X101805747Y-87834761D02*
X101881938Y-87872856D01*
X101881938Y-87872856D02*
X102072414Y-87872856D01*
X102072414Y-87872856D02*
X102148604Y-87834761D01*
X102148604Y-87834761D02*
X102186700Y-87796666D01*
X102186700Y-87796666D02*
X102224795Y-87720475D01*
X102224795Y-87720475D02*
X102224795Y-87491904D01*
X102224795Y-87491904D02*
X102186700Y-87415713D01*
X102186700Y-87415713D02*
X102148604Y-87377618D01*
X101424795Y-88368095D02*
X101424795Y-88444285D01*
X101424795Y-88444285D02*
X101462890Y-88520476D01*
X101462890Y-88520476D02*
X101500985Y-88558571D01*
X101500985Y-88558571D02*
X101577176Y-88596666D01*
X101577176Y-88596666D02*
X101729557Y-88634761D01*
X101729557Y-88634761D02*
X101920033Y-88634761D01*
X101920033Y-88634761D02*
X102072414Y-88596666D01*
X102072414Y-88596666D02*
X102148604Y-88558571D01*
X102148604Y-88558571D02*
X102186700Y-88520476D01*
X102186700Y-88520476D02*
X102224795Y-88444285D01*
X102224795Y-88444285D02*
X102224795Y-88368095D01*
X102224795Y-88368095D02*
X102186700Y-88291904D01*
X102186700Y-88291904D02*
X102148604Y-88253809D01*
X102148604Y-88253809D02*
X102072414Y-88215714D01*
X102072414Y-88215714D02*
X101920033Y-88177618D01*
X101920033Y-88177618D02*
X101729557Y-88177618D01*
X101729557Y-88177618D02*
X101577176Y-88215714D01*
X101577176Y-88215714D02*
X101500985Y-88253809D01*
X101500985Y-88253809D02*
X101462890Y-88291904D01*
X101462890Y-88291904D02*
X101424795Y-88368095D01*
X101691461Y-88977619D02*
X102491461Y-88977619D01*
X101729557Y-88977619D02*
X101691461Y-89053809D01*
X101691461Y-89053809D02*
X101691461Y-89206190D01*
X101691461Y-89206190D02*
X101729557Y-89282381D01*
X101729557Y-89282381D02*
X101767652Y-89320476D01*
X101767652Y-89320476D02*
X101843842Y-89358571D01*
X101843842Y-89358571D02*
X102072414Y-89358571D01*
X102072414Y-89358571D02*
X102148604Y-89320476D01*
X102148604Y-89320476D02*
X102186700Y-89282381D01*
X102186700Y-89282381D02*
X102224795Y-89206190D01*
X102224795Y-89206190D02*
X102224795Y-89053809D01*
X102224795Y-89053809D02*
X102186700Y-88977619D01*
X101805747Y-89968095D02*
X101805747Y-89701429D01*
X102224795Y-89701429D02*
X101424795Y-89701429D01*
X101424795Y-89701429D02*
X101424795Y-90082381D01*
X97529795Y-87377618D02*
X97529795Y-87872856D01*
X97529795Y-87872856D02*
X97834557Y-87606190D01*
X97834557Y-87606190D02*
X97834557Y-87720475D01*
X97834557Y-87720475D02*
X97872652Y-87796666D01*
X97872652Y-87796666D02*
X97910747Y-87834761D01*
X97910747Y-87834761D02*
X97986938Y-87872856D01*
X97986938Y-87872856D02*
X98177414Y-87872856D01*
X98177414Y-87872856D02*
X98253604Y-87834761D01*
X98253604Y-87834761D02*
X98291700Y-87796666D01*
X98291700Y-87796666D02*
X98329795Y-87720475D01*
X98329795Y-87720475D02*
X98329795Y-87491904D01*
X98329795Y-87491904D02*
X98291700Y-87415713D01*
X98291700Y-87415713D02*
X98253604Y-87377618D01*
X97529795Y-88368095D02*
X97529795Y-88444285D01*
X97529795Y-88444285D02*
X97567890Y-88520476D01*
X97567890Y-88520476D02*
X97605985Y-88558571D01*
X97605985Y-88558571D02*
X97682176Y-88596666D01*
X97682176Y-88596666D02*
X97834557Y-88634761D01*
X97834557Y-88634761D02*
X98025033Y-88634761D01*
X98025033Y-88634761D02*
X98177414Y-88596666D01*
X98177414Y-88596666D02*
X98253604Y-88558571D01*
X98253604Y-88558571D02*
X98291700Y-88520476D01*
X98291700Y-88520476D02*
X98329795Y-88444285D01*
X98329795Y-88444285D02*
X98329795Y-88368095D01*
X98329795Y-88368095D02*
X98291700Y-88291904D01*
X98291700Y-88291904D02*
X98253604Y-88253809D01*
X98253604Y-88253809D02*
X98177414Y-88215714D01*
X98177414Y-88215714D02*
X98025033Y-88177618D01*
X98025033Y-88177618D02*
X97834557Y-88177618D01*
X97834557Y-88177618D02*
X97682176Y-88215714D01*
X97682176Y-88215714D02*
X97605985Y-88253809D01*
X97605985Y-88253809D02*
X97567890Y-88291904D01*
X97567890Y-88291904D02*
X97529795Y-88368095D01*
X97796461Y-88977619D02*
X98596461Y-88977619D01*
X97834557Y-88977619D02*
X97796461Y-89053809D01*
X97796461Y-89053809D02*
X97796461Y-89206190D01*
X97796461Y-89206190D02*
X97834557Y-89282381D01*
X97834557Y-89282381D02*
X97872652Y-89320476D01*
X97872652Y-89320476D02*
X97948842Y-89358571D01*
X97948842Y-89358571D02*
X98177414Y-89358571D01*
X98177414Y-89358571D02*
X98253604Y-89320476D01*
X98253604Y-89320476D02*
X98291700Y-89282381D01*
X98291700Y-89282381D02*
X98329795Y-89206190D01*
X98329795Y-89206190D02*
X98329795Y-89053809D01*
X98329795Y-89053809D02*
X98291700Y-88977619D01*
X97910747Y-89968095D02*
X97910747Y-89701429D01*
X98329795Y-89701429D02*
X97529795Y-89701429D01*
X97529795Y-89701429D02*
X97529795Y-90082381D01*
X94238095Y-98792295D02*
X94695238Y-98792295D01*
X94466666Y-98792295D02*
X94466666Y-97992295D01*
X94466666Y-97992295D02*
X94542857Y-98106580D01*
X94542857Y-98106580D02*
X94619047Y-98182771D01*
X94619047Y-98182771D02*
X94695238Y-98220866D01*
X93742856Y-97992295D02*
X93666666Y-97992295D01*
X93666666Y-97992295D02*
X93590475Y-98030390D01*
X93590475Y-98030390D02*
X93552380Y-98068485D01*
X93552380Y-98068485D02*
X93514285Y-98144676D01*
X93514285Y-98144676D02*
X93476190Y-98297057D01*
X93476190Y-98297057D02*
X93476190Y-98487533D01*
X93476190Y-98487533D02*
X93514285Y-98639914D01*
X93514285Y-98639914D02*
X93552380Y-98716104D01*
X93552380Y-98716104D02*
X93590475Y-98754200D01*
X93590475Y-98754200D02*
X93666666Y-98792295D01*
X93666666Y-98792295D02*
X93742856Y-98792295D01*
X93742856Y-98792295D02*
X93819047Y-98754200D01*
X93819047Y-98754200D02*
X93857142Y-98716104D01*
X93857142Y-98716104D02*
X93895237Y-98639914D01*
X93895237Y-98639914D02*
X93933333Y-98487533D01*
X93933333Y-98487533D02*
X93933333Y-98297057D01*
X93933333Y-98297057D02*
X93895237Y-98144676D01*
X93895237Y-98144676D02*
X93857142Y-98068485D01*
X93857142Y-98068485D02*
X93819047Y-98030390D01*
X93819047Y-98030390D02*
X93742856Y-97992295D01*
X92980951Y-97992295D02*
X92904761Y-97992295D01*
X92904761Y-97992295D02*
X92828570Y-98030390D01*
X92828570Y-98030390D02*
X92790475Y-98068485D01*
X92790475Y-98068485D02*
X92752380Y-98144676D01*
X92752380Y-98144676D02*
X92714285Y-98297057D01*
X92714285Y-98297057D02*
X92714285Y-98487533D01*
X92714285Y-98487533D02*
X92752380Y-98639914D01*
X92752380Y-98639914D02*
X92790475Y-98716104D01*
X92790475Y-98716104D02*
X92828570Y-98754200D01*
X92828570Y-98754200D02*
X92904761Y-98792295D01*
X92904761Y-98792295D02*
X92980951Y-98792295D01*
X92980951Y-98792295D02*
X93057142Y-98754200D01*
X93057142Y-98754200D02*
X93095237Y-98716104D01*
X93095237Y-98716104D02*
X93133332Y-98639914D01*
X93133332Y-98639914D02*
X93171428Y-98487533D01*
X93171428Y-98487533D02*
X93171428Y-98297057D01*
X93171428Y-98297057D02*
X93133332Y-98144676D01*
X93133332Y-98144676D02*
X93095237Y-98068485D01*
X93095237Y-98068485D02*
X93057142Y-98030390D01*
X93057142Y-98030390D02*
X92980951Y-97992295D01*
X92371427Y-98258961D02*
X92371427Y-98792295D01*
X92371427Y-98335152D02*
X92333332Y-98297057D01*
X92333332Y-98297057D02*
X92257142Y-98258961D01*
X92257142Y-98258961D02*
X92142856Y-98258961D01*
X92142856Y-98258961D02*
X92066665Y-98297057D01*
X92066665Y-98297057D02*
X92028570Y-98373247D01*
X92028570Y-98373247D02*
X92028570Y-98792295D01*
X91380951Y-98373247D02*
X91647617Y-98373247D01*
X91647617Y-98792295D02*
X91647617Y-97992295D01*
X91647617Y-97992295D02*
X91266665Y-97992295D01*
D11*
%TO.C,C20*%
X95200000Y-104200000D02*
X95199998Y-106800000D01*
X96800000Y-106800000D02*
X96800002Y-104200000D01*
X95200000Y-104200000D02*
G75*
G02*
X96800002Y-104200000I800001J-840224D01*
G01*
X96800000Y-106800000D02*
G75*
G02*
X95199998Y-106800000I-800001J840224D01*
G01*
%TO.C,C24*%
X93200000Y-90700000D02*
X93199998Y-93300000D01*
X94800000Y-93300000D02*
X94800002Y-90700000D01*
X93200000Y-90700000D02*
G75*
G02*
X94800002Y-90700000I800001J-840224D01*
G01*
X94800000Y-93300000D02*
G75*
G02*
X93199998Y-93300000I-800001J840224D01*
G01*
%TO.C,C22*%
X103200000Y-90700000D02*
X103199998Y-93300000D01*
X104800000Y-93300000D02*
X104800002Y-90700000D01*
X103200000Y-90700000D02*
G75*
G02*
X104800002Y-90700000I800001J-840224D01*
G01*
X104800000Y-93300000D02*
G75*
G02*
X103199998Y-93300000I-800001J840224D01*
G01*
%TO.C,U1*%
X100630000Y-120140000D02*
X96870000Y-120140000D01*
X100630000Y-121400000D02*
X100630000Y-120140000D01*
X100630000Y-125700000D02*
X100630000Y-126960000D01*
X100630000Y-126960000D02*
X96870000Y-126960000D01*
X95830000Y-127190000D02*
X95350000Y-127190000D01*
X95590000Y-126860000D01*
X95830000Y-127190000D01*
G36*
X95830000Y-127190000D02*
G01*
X95350000Y-127190000D01*
X95590000Y-126860000D01*
X95830000Y-127190000D01*
G37*
%TO.C,F1*%
X96397936Y-117590000D02*
X97602064Y-117590000D01*
X96397936Y-119410000D02*
X97602064Y-119410000D01*
%TO.C,C9*%
X95200000Y-90700000D02*
X95199998Y-93300000D01*
X96800000Y-93300000D02*
X96800002Y-90700000D01*
X95200000Y-90700000D02*
G75*
G02*
X96800002Y-90700000I800001J-840224D01*
G01*
X96800000Y-93300000D02*
G75*
G02*
X95199998Y-93300000I-800001J840224D01*
G01*
%TO.C,C13*%
X99200000Y-90700000D02*
X99199998Y-93300000D01*
X100800000Y-93300000D02*
X100800002Y-90700000D01*
X99200000Y-90700000D02*
G75*
G02*
X100800002Y-90700000I800001J-840224D01*
G01*
X100800000Y-93300000D02*
G75*
G02*
X99199998Y-93300000I-800001J840224D01*
G01*
%TO.C,C23*%
X104200000Y-104800000D02*
X106800000Y-104800002D01*
X106800000Y-103200000D02*
X104200000Y-103199998D01*
X104200000Y-104800000D02*
G75*
G02*
X104200000Y-103199998I840224J800001D01*
G01*
X106800000Y-103200000D02*
G75*
G02*
X106800000Y-104800002I-840224J-800001D01*
G01*
%TO.C,U2*%
X96390000Y-96390000D02*
X96390000Y-96840000D01*
X96390000Y-103610000D02*
X96390000Y-103160000D01*
X96840000Y-96390000D02*
X96390000Y-96390000D01*
X96840000Y-103610000D02*
X96390000Y-103610000D01*
X103160000Y-96390000D02*
X103610000Y-96390000D01*
X103160000Y-103610000D02*
X103610000Y-103610000D01*
X103610000Y-96390000D02*
X103610000Y-96840000D01*
X103610000Y-103610000D02*
X103610000Y-103160000D01*
X96840000Y-95800000D02*
X96370000Y-96140000D01*
X96370000Y-95460000D01*
X96840000Y-95800000D01*
G36*
X96840000Y-95800000D02*
G01*
X96370000Y-96140000D01*
X96370000Y-95460000D01*
X96840000Y-95800000D01*
G37*
%TO.C,C14*%
X101200000Y-90700000D02*
X101199998Y-93300000D01*
X102800000Y-93300000D02*
X102800002Y-90700000D01*
X101200000Y-90700000D02*
G75*
G02*
X102800002Y-90700000I800001J-840224D01*
G01*
X102800000Y-93300000D02*
G75*
G02*
X101199998Y-93300000I-800001J840224D01*
G01*
%TO.C,C10*%
X97200000Y-90700000D02*
X97199998Y-93300000D01*
X98800000Y-93300000D02*
X98800002Y-90700000D01*
X97200000Y-90700000D02*
G75*
G02*
X98800002Y-90700000I800001J-840224D01*
G01*
X98800000Y-93300000D02*
G75*
G02*
X97199998Y-93300000I-800001J840224D01*
G01*
%TO.C,C21*%
X91700000Y-97800000D02*
X94300000Y-97800002D01*
X94300000Y-96200000D02*
X91700000Y-96199998D01*
X91700000Y-97800000D02*
G75*
G02*
X91700000Y-96199998I840224J800001D01*
G01*
X94300000Y-96200000D02*
G75*
G02*
X94300000Y-97800002I-840224J-800001D01*
G01*
%TD*%
M02*
