%TF.GenerationSoftware,KiCad,Pcbnew,8.0.6*%
%TF.CreationDate,2024-11-06T22:38:32+08:00*%
%TF.ProjectId,lichuang-gekuo-star-stm32f103c8t6-development-board,6c696368-7561-46e6-972d-67656b756f2d,rev?*%
%TF.SameCoordinates,Original*%
%TF.FileFunction,Soldermask,Bot*%
%TF.FilePolarity,Negative*%
%FSLAX46Y46*%
G04 Gerber Fmt 4.6, Leading zero omitted, Abs format (unit mm)*
G04 Created by KiCad (PCBNEW 8.0.6) date 2024-11-06 22:38:32*
%MOMM*%
%LPD*%
G01*
G04 APERTURE LIST*
G04 Aperture macros list*
%AMRoundRect*
0 Rectangle with rounded corners*
0 $1 Rounding radius*
0 $2 $3 $4 $5 $6 $7 $8 $9 X,Y pos of 4 corners*
0 Add a 4 corners polygon primitive as box body*
4,1,4,$2,$3,$4,$5,$6,$7,$8,$9,$2,$3,0*
0 Add four circle primitives for the rounded corners*
1,1,$1+$1,$2,$3*
1,1,$1+$1,$4,$5*
1,1,$1+$1,$6,$7*
1,1,$1+$1,$8,$9*
0 Add four rect primitives between the rounded corners*
20,1,$1+$1,$2,$3,$4,$5,0*
20,1,$1+$1,$4,$5,$6,$7,0*
20,1,$1+$1,$6,$7,$8,$9,0*
20,1,$1+$1,$8,$9,$2,$3,0*%
G04 Aperture macros list end*
%ADD10C,1.600000*%
%ADD11O,1.600000X1.600000*%
%ADD12R,1.700000X1.700000*%
%ADD13O,1.700000X1.700000*%
%ADD14R,1.800000X1.400000*%
%ADD15O,1.800000X1.400000*%
%ADD16C,0.800000*%
%ADD17O,1.700000X1.200000*%
%ADD18C,2.000000*%
%ADD19C,1.500000*%
%ADD20C,1.000000*%
%ADD21R,1.000000X1.000000*%
%ADD22RoundRect,0.225000X-0.250000X0.225000X-0.250000X-0.225000X0.250000X-0.225000X0.250000X0.225000X0*%
%ADD23RoundRect,0.225000X0.250000X-0.225000X0.250000X0.225000X-0.250000X0.225000X-0.250000X-0.225000X0*%
%ADD24RoundRect,0.375000X-0.625000X-0.375000X0.625000X-0.375000X0.625000X0.375000X-0.625000X0.375000X0*%
%ADD25RoundRect,0.500000X-0.500000X-1.400000X0.500000X-1.400000X0.500000X1.400000X-0.500000X1.400000X0*%
%ADD26RoundRect,0.250000X0.375000X0.625000X-0.375000X0.625000X-0.375000X-0.625000X0.375000X-0.625000X0*%
%ADD27RoundRect,0.225000X-0.225000X-0.250000X0.225000X-0.250000X0.225000X0.250000X-0.225000X0.250000X0*%
%ADD28RoundRect,0.075000X-0.075000X0.662500X-0.075000X-0.662500X0.075000X-0.662500X0.075000X0.662500X0*%
%ADD29RoundRect,0.075000X-0.662500X0.075000X-0.662500X-0.075000X0.662500X-0.075000X0.662500X0.075000X0*%
%ADD30RoundRect,0.225000X0.225000X0.250000X-0.225000X0.250000X-0.225000X-0.250000X0.225000X-0.250000X0*%
G04 APERTURE END LIST*
D10*
%TO.C,C5*%
X83310000Y-135000000D03*
X83310000Y-130000000D03*
%TD*%
%TO.C,R4*%
X113000000Y-72000000D03*
D11*
X113000000Y-74540000D03*
%TD*%
D10*
%TO.C,R8*%
X105000000Y-72000000D03*
D11*
X105000000Y-74540000D03*
%TD*%
D10*
%TO.C,C3*%
X105000000Y-121000000D03*
X105000000Y-126000000D03*
%TD*%
D12*
%TO.C,J2*%
X87695000Y-134250000D03*
D13*
X87695000Y-131710000D03*
X90235000Y-134250000D03*
X90235000Y-131710000D03*
X92775000Y-134250000D03*
X92775000Y-131710000D03*
X95315000Y-134250000D03*
X95315000Y-131710000D03*
%TD*%
D10*
%TO.C,R7*%
X92000000Y-72000000D03*
D11*
X92000000Y-74540000D03*
%TD*%
D10*
%TO.C,C6*%
X99680000Y-130000000D03*
X99680000Y-135000000D03*
%TD*%
%TO.C,C4*%
X109000000Y-121000000D03*
X109000000Y-126000000D03*
%TD*%
%TO.C,C1*%
X88000000Y-121000000D03*
X88000000Y-126000000D03*
%TD*%
%TO.C,R6*%
X114000000Y-131000000D03*
D11*
X114000000Y-133540000D03*
%TD*%
D10*
%TO.C,R1*%
X84000000Y-72000000D03*
D11*
X84000000Y-74540000D03*
%TD*%
D10*
%TO.C,R5*%
X90500000Y-108000000D03*
D11*
X90500000Y-105460000D03*
%TD*%
D14*
%TO.C,LED2*%
X88000000Y-74000000D03*
D15*
X88000000Y-71460000D03*
%TD*%
D16*
%TO.C,J1*%
X95150000Y-113375000D03*
X96250000Y-113375000D03*
X97350000Y-113375000D03*
X98450000Y-113375000D03*
X99550000Y-113375000D03*
X100650000Y-113375000D03*
X101750000Y-113375000D03*
X102850000Y-113375000D03*
X102850000Y-114625000D03*
X101750000Y-114625000D03*
X100650000Y-114625000D03*
X99550000Y-114625000D03*
X98450000Y-114625000D03*
X97350000Y-114625000D03*
X96250000Y-114625000D03*
X95150000Y-114625000D03*
D17*
X96330000Y-111850000D03*
X96330000Y-116150000D03*
X101670000Y-111850000D03*
X101670000Y-116150000D03*
%TD*%
D12*
%TO.C,J4*%
X113740410Y-78000000D03*
D13*
X113740410Y-80540000D03*
X113740410Y-83080000D03*
X113740410Y-85620000D03*
X113740410Y-88160000D03*
X113740410Y-90700000D03*
X113740410Y-93240000D03*
X113740410Y-95780000D03*
X113740410Y-98320000D03*
X113740410Y-100860000D03*
X113740410Y-103400000D03*
X113740410Y-105940000D03*
X113740410Y-108480000D03*
X113740410Y-111020000D03*
X113740410Y-113560000D03*
X113740410Y-116100000D03*
X113740410Y-118640000D03*
X113740410Y-121180000D03*
X113740410Y-123720000D03*
X113740410Y-126260000D03*
%TD*%
D10*
%TO.C,C11*%
X100600000Y-82000000D03*
X100600000Y-77000000D03*
%TD*%
D18*
%TO.C,SW1*%
X110265000Y-135000000D03*
X103765000Y-135000000D03*
X110265000Y-130500000D03*
X103765000Y-130500000D03*
%TD*%
D12*
%TO.C,J3*%
X96000000Y-74000000D03*
D13*
X96000000Y-71460000D03*
X98540000Y-74000000D03*
X98540000Y-71460000D03*
X101080000Y-74000000D03*
X101080000Y-71460000D03*
%TD*%
D10*
%TO.C,C15*%
X89000000Y-89000000D03*
X94000000Y-89000000D03*
%TD*%
D12*
%TO.C,J5*%
X83259590Y-78000000D03*
D13*
X83259590Y-80540000D03*
X83259590Y-83080000D03*
X83259590Y-85620000D03*
X83259590Y-88160000D03*
X83259590Y-90700000D03*
X83259590Y-93240000D03*
X83259590Y-95780000D03*
X83259590Y-98320000D03*
X83259590Y-100860000D03*
X83259590Y-103400000D03*
X83259590Y-105940000D03*
X83259590Y-108480000D03*
X83259590Y-111020000D03*
X83259590Y-113560000D03*
X83259590Y-116100000D03*
X83259590Y-118640000D03*
X83259590Y-121180000D03*
X83259590Y-123720000D03*
X83259590Y-126260000D03*
%TD*%
D10*
%TO.C,C12*%
X104280000Y-82000000D03*
X104280000Y-77000000D03*
%TD*%
%TO.C,C2*%
X92000000Y-121000000D03*
X92000000Y-126000000D03*
%TD*%
%TO.C,C7*%
X91000000Y-82000000D03*
X91000000Y-77000000D03*
%TD*%
%TO.C,R3*%
X92000000Y-115000000D03*
D11*
X92000000Y-112460000D03*
%TD*%
D10*
%TO.C,C17*%
X94000000Y-104000000D03*
X94000000Y-109000000D03*
%TD*%
%TO.C,C19*%
X106000000Y-95000000D03*
X106000000Y-90000000D03*
%TD*%
%TO.C,R2*%
X89000000Y-115000000D03*
D11*
X89000000Y-112460000D03*
%TD*%
D14*
%TO.C,LED1*%
X109000000Y-74000000D03*
D15*
X109000000Y-71460000D03*
%TD*%
D10*
%TO.C,C8*%
X97000000Y-82000000D03*
X97000000Y-77000000D03*
%TD*%
%TO.C,C18*%
X95000000Y-95000000D03*
X90000000Y-95000000D03*
%TD*%
D19*
%TO.C,X2*%
X100000000Y-86250000D03*
X102440000Y-86250000D03*
X104880000Y-86250000D03*
%TD*%
D20*
%TO.C,X1*%
X95000000Y-85500000D03*
X93100000Y-85500000D03*
D21*
X95550000Y-80000000D03*
X92550000Y-80000000D03*
%TD*%
D10*
%TO.C,C16*%
X104000000Y-106000000D03*
X109000000Y-106000000D03*
%TD*%
D22*
%TO.C,C20*%
X96000000Y-104725000D03*
X96000000Y-106275000D03*
%TD*%
D23*
%TO.C,C24*%
X94000000Y-92775000D03*
X94000000Y-91225000D03*
%TD*%
%TO.C,C22*%
X104000000Y-92775000D03*
X104000000Y-91225000D03*
%TD*%
D24*
%TO.C,U1*%
X95570000Y-125850000D03*
X95570000Y-123550000D03*
D25*
X101870000Y-123550000D03*
D24*
X95570000Y-121250000D03*
%TD*%
D26*
%TO.C,F1*%
X98400000Y-118500000D03*
X95600000Y-118500000D03*
%TD*%
D23*
%TO.C,C9*%
X96000000Y-92775000D03*
X96000000Y-91225000D03*
%TD*%
%TO.C,C13*%
X100000000Y-92775000D03*
X100000000Y-91225000D03*
%TD*%
D27*
%TO.C,C23*%
X104725000Y-104000000D03*
X106275000Y-104000000D03*
%TD*%
D28*
%TO.C,U2*%
X97250000Y-95837500D03*
X97750000Y-95837500D03*
X98250000Y-95837500D03*
X98750000Y-95837500D03*
X99250000Y-95837500D03*
X99750000Y-95837500D03*
X100250000Y-95837500D03*
X100750000Y-95837500D03*
X101250000Y-95837500D03*
X101750000Y-95837500D03*
X102250000Y-95837500D03*
X102750000Y-95837500D03*
D29*
X104162500Y-97250000D03*
X104162500Y-97750000D03*
X104162500Y-98250000D03*
X104162500Y-98750000D03*
X104162500Y-99250000D03*
X104162500Y-99750000D03*
X104162500Y-100250000D03*
X104162500Y-100750000D03*
X104162500Y-101250000D03*
X104162500Y-101750000D03*
X104162500Y-102250000D03*
X104162500Y-102750000D03*
D28*
X102750000Y-104162500D03*
X102250000Y-104162500D03*
X101750000Y-104162500D03*
X101250000Y-104162500D03*
X100750000Y-104162500D03*
X100250000Y-104162500D03*
X99750000Y-104162500D03*
X99250000Y-104162500D03*
X98750000Y-104162500D03*
X98250000Y-104162500D03*
X97750000Y-104162500D03*
X97250000Y-104162500D03*
D29*
X95837500Y-102750000D03*
X95837500Y-102250000D03*
X95837500Y-101750000D03*
X95837500Y-101250000D03*
X95837500Y-100750000D03*
X95837500Y-100250000D03*
X95837500Y-99750000D03*
X95837500Y-99250000D03*
X95837500Y-98750000D03*
X95837500Y-98250000D03*
X95837500Y-97750000D03*
X95837500Y-97250000D03*
%TD*%
D23*
%TO.C,C14*%
X102000000Y-92775000D03*
X102000000Y-91225000D03*
%TD*%
%TO.C,C10*%
X98000000Y-92775000D03*
X98000000Y-91225000D03*
%TD*%
D30*
%TO.C,C21*%
X93775000Y-97000000D03*
X92225000Y-97000000D03*
%TD*%
M02*
