M48
; DRILL file {KiCad 8.0.6} date 2024-11-06T22:38:28+0800
; FORMAT={-:-/ absolute / inch / decimal}
; #@! TF.CreationDate,2024-11-06T22:38:28+08:00
; #@! TF.GenerationSoftware,Kicad,Pcbnew,8.0.6
; #@! TF.FileFunction,Plated,1,2,PTH
FMAT,2
INCH
; #@! TA.AperFunction,Plated,PTH,ViaDrill
T1C0.0118
; #@! TA.AperFunction,Plated,PTH,ComponentDrill
T2C0.0177
; #@! TA.AperFunction,Plated,PTH,ComponentDrill
T3C0.0197
; #@! TA.AperFunction,Plated,PTH,ComponentDrill
T4C0.0315
; #@! TA.AperFunction,Plated,PTH,ComponentDrill
T5C0.0394
; #@! TA.AperFunction,Plated,PTH,ComponentDrill
T6C0.0433
%
G90
G05
T1
X3.7929Y-4.3366
X3.8484Y-3.8189
X3.8526Y-4.1819
X3.8583Y-4.5669
X3.8583Y-4.6063
X3.8681Y-4.0354
X3.8976Y-4.5669
X3.8976Y-4.6063
X3.9075Y-4.0354
X3.9426Y-4.1862
X3.9469Y-3.8189
X3.9469Y-4.0354
X3.9862Y-4.0354
X4.0059Y-3.8189
X4.1837Y-3.6411
T2
X3.7461Y-4.4636
X3.7461Y-4.5128
X3.7894Y-4.4636
X3.7894Y-4.5128
X3.8327Y-4.4636
X3.8327Y-4.5128
X3.876Y-4.4636
X3.876Y-4.5128
X3.9193Y-4.4636
X3.9193Y-4.5128
X3.9626Y-4.4636
X3.9626Y-4.5128
X4.0059Y-4.4636
X4.0059Y-4.5128
X4.0492Y-4.4636
X4.0492Y-4.5128
T3
X3.6437Y-3.1496
X3.6654Y-3.3661
X3.7402Y-3.3661
X3.7618Y-3.1496
T4
X3.2799Y-5.1181
X3.2799Y-5.315
X3.3071Y-2.8346
X3.3071Y-2.9346
X3.4646Y-2.8134
X3.4646Y-2.9134
X3.4646Y-4.7638
X3.4646Y-4.9606
X3.5039Y-3.5039
X3.5039Y-4.4276
X3.5039Y-4.5276
X3.5433Y-3.7402
X3.563Y-4.152
X3.563Y-4.252
X3.5827Y-3.0315
X3.5827Y-3.2283
X3.622Y-2.8346
X3.622Y-2.9346
X3.622Y-4.4276
X3.622Y-4.5276
X3.622Y-4.7638
X3.622Y-4.9606
X3.7008Y-3.5039
X3.7008Y-4.0945
X3.7008Y-4.2913
X3.7402Y-3.7402
X3.8189Y-3.0315
X3.8189Y-3.2283
X3.9244Y-5.1181
X3.9244Y-5.315
X3.937Y-3.3957
X3.9606Y-3.0315
X3.9606Y-3.2283
X4.0331Y-3.3957
X4.0945Y-4.1732
X4.1055Y-3.0315
X4.1055Y-3.2283
X4.1291Y-3.3957
X4.1339Y-2.8346
X4.1339Y-2.9346
X4.1339Y-4.7638
X4.1339Y-4.9606
X4.1732Y-3.5433
X4.1732Y-3.7402
X4.2913Y-2.8134
X4.2913Y-2.9134
X4.2913Y-4.1732
X4.2913Y-4.7638
X4.2913Y-4.9606
X4.4488Y-2.8346
X4.4488Y-2.9346
X4.4882Y-5.1575
X4.4882Y-5.2575
T5
X3.2779Y-3.0709
X3.2779Y-3.1709
X3.2779Y-3.2709
X3.2779Y-3.3709
X3.2779Y-3.4709
X3.2779Y-3.5709
X3.2779Y-3.6709
X3.2779Y-3.7709
X3.2779Y-3.8709
X3.2779Y-3.9709
X3.2779Y-4.0709
X3.2779Y-4.1709
X3.2779Y-4.2709
X3.2779Y-4.3709
X3.2779Y-4.4709
X3.2779Y-4.5709
X3.2779Y-4.6709
X3.2779Y-4.7709
X3.2779Y-4.8709
X3.2779Y-4.9709
X3.4526Y-5.1854
X3.4526Y-5.2854
X3.5526Y-5.1854
X3.5526Y-5.2854
X3.6526Y-5.1854
X3.6526Y-5.2854
X3.7526Y-5.1854
X3.7526Y-5.2854
X3.7795Y-2.8134
X3.7795Y-2.9134
X3.8795Y-2.8134
X3.8795Y-2.9134
X3.9795Y-2.8134
X3.9795Y-2.9134
X4.478Y-3.0709
X4.478Y-3.1709
X4.478Y-3.2709
X4.478Y-3.3709
X4.478Y-3.4709
X4.478Y-3.5709
X4.478Y-3.6709
X4.478Y-3.7709
X4.478Y-3.8709
X4.478Y-3.9709
X4.478Y-4.0709
X4.478Y-4.1709
X4.478Y-4.2709
X4.478Y-4.3709
X4.478Y-4.4709
X4.478Y-4.5709
X4.478Y-4.6709
X4.478Y-4.7709
X4.478Y-4.8709
X4.478Y-4.9709
T6
X4.0852Y-5.1378
X4.0852Y-5.315
X4.3411Y-5.1378
X4.3411Y-5.315
T4
G00X3.7827Y-4.4035
M15
G01X3.8024Y-4.4035
M16
G05
G00X3.7827Y-4.5728
M15
G01X3.8024Y-4.5728
M16
G05
G00X3.9929Y-4.4035
M15
G01X4.0126Y-4.4035
M16
G05
G00X3.9929Y-4.5728
M15
G01X4.0126Y-4.5728
M16
G05
M30
