;TYPE=PLATED
;Layer: PTH_Through
;EasyEDA Pro Client v2.2.27.1, 2024-09-15 10:59:51
;Gerber Generator version 0.3
M48
; DRILL file {KiCad 8.0.5} date 2024-10-21T18:28:25+0800
; FORMAT={-:-/ absolute / inch / decimal}
; #@! TF.CreationDate,2024-10-21T18:28:25+08:00
; #@! TF.GenerationSoftware,Kicad,Pcbnew,8.0.5
; #@! TF.FileFunction,Plated,1,2,PTH
FMAT,2
INCH
; #@! TA.AperFunction,Plated,PTH,ViaDrill
T1C0.0118
; #@! TA.AperFunction,Plated,PTH,ComponentDrill
T2C0.0197
; #@! TA.AperFunction,Plated,PTH,ComponentDrill
T3C0.0236
; #@! TA.AperFunction,Plated,PTH,ComponentDrill
T4C0.0315
; #@! TA.AperFunction,Plated,PTH,ComponentDrill
T5C0.0394
; #@! TA.AperFunction,Plated,PTH,ComponentDrill
T6C0.0433
; #@! TA.AperFunction,Plated,PTH,ComponentDrill
T7C0.0787
%
G90
G05
T1
X2.4795Y-3.3638
X2.4795Y-3.5138
X2.4795Y-3.6638
X2.4795Y-3.8138
X2.4795Y-3.9638
X2.4795Y-4.1138
X2.4795Y-4.2638
X2.4795Y-4.4138
X2.4795Y-4.5638
X2.5236Y-4.6819
X2.5547Y-3.2717
X2.5701Y-4.1055
X2.5839Y-4.2515
X2.6252Y-4.4071
X2.6335Y-4.5283
X2.6634Y-4.1075
X2.6654Y-4.2559
X2.6705Y-3.9933
X2.6984Y-4.7409
X2.7004Y-3.2587
X2.7992Y-3.4843
X2.8028Y-3.7839
X2.8406Y-3.9272
X2.8406Y-4.0272
X2.8484Y-4.7409
X2.8504Y-3.2587
X2.8831Y-4.5839
X2.8988Y-3.8551
X2.9406Y-3.9272
X2.9406Y-4.0272
X2.9984Y-4.7409
X3.0004Y-3.2587
X3.0043Y-3.4909
X3.0055Y-4.5543
X3.0122Y-3.724
X3.0331Y-3.8339
X3.1185Y-4.576
X3.1205Y-3.6
X3.1484Y-4.7409
X3.1504Y-3.2587
X3.1701Y-4.1331
X3.1701Y-4.2331
X3.1717Y-4.3862
X3.1969Y-3.4992
X3.2701Y-4.1331
X3.2701Y-4.2331
X3.2717Y-4.3862
X3.2717Y-4.4862
X3.2984Y-4.7409
X3.3004Y-3.2587
X3.3295Y-3.6461
X3.3433Y-3.8224
X3.3709Y-4.1319
X3.3709Y-4.2319
X3.3732Y-4.3854
X3.3744Y-4.0374
X3.3878Y-4.5488
X3.3902Y-3.872
X3.4484Y-4.7409
X3.4504Y-3.2587
X3.4709Y-4.1319
X3.4709Y-4.2319
X3.4732Y-4.3854
X3.4744Y-4.0374
X3.4902Y-3.872
X3.4996Y-3.8138
X3.5594Y-4.4528
X3.563Y-4.2323
X3.5984Y-4.7409
X3.6004Y-3.2587
X3.6378Y-4.2421
X3.6421Y-4.3673
X3.6512Y-4.4524
X3.7236Y-4.1634
X3.7378Y-4.2421
X3.7484Y-4.7409
X3.7504Y-3.2587
X3.7528Y-3.6902
X3.772Y-4.213
X3.7823Y-4.3043
X3.8079Y-3.7236
X3.8331Y-4.2106
X3.8437Y-3.8433
X3.8559Y-4.0268
X3.8984Y-4.7409
X3.9004Y-3.2587
X3.9169Y-4.0268
X3.937Y-3.9378
X3.9626Y-3.8764
X3.965Y-4.0268
X4.002Y-3.9378
X4.015Y-3.9937
X4.0256Y-3.8764
X4.0484Y-4.7409
X4.0504Y-3.2587
X4.0602Y-3.6327
X4.1236Y-3.6319
X4.1701Y-3.8502
X4.176Y-3.6307
X4.1961Y-4.3272
X4.1984Y-4.7409
X4.2004Y-3.2587
X4.2067Y-4.1445
X4.2295Y-4.1992
X4.2642Y-4.3492
X4.2736Y-3.6394
X4.2835Y-3.7748
X4.2856Y-4.2183
X4.3165Y-3.7378
X4.3283Y-3.848
X4.3406Y-3.5169
X4.3469Y-3.7035
X4.3484Y-4.7409
X4.3504Y-3.2587
X4.3579Y-3.8173
X4.3709Y-3.613
X4.387Y-3.8996
X4.3886Y-3.6559
X4.435Y-3.9988
X4.4366Y-4.128
X4.4374Y-4.3
X4.4583Y-4.1795
X4.4626Y-3.7406
X4.4669Y-3.8646
X4.4701Y-4.0319
X4.4709Y-3.613
X4.4717Y-3.5382
X4.4772Y-3.7024
X4.4984Y-4.7409
X4.5004Y-3.2587
X4.5039Y-3.7693
X4.5083Y-3.9689
X4.5098Y-4.2319
X4.5323Y-4.3929
X4.5539Y-4.174
X4.5555Y-4.0248
X4.5677Y-3.5311
X4.5756Y-3.7669
X4.576Y-4.2299
X4.5783Y-3.602
X4.5846Y-3.4811
X4.5902Y-3.7146
X4.6484Y-4.7409
X4.6504Y-3.2587
X4.687Y-4.163
X4.6988Y-3.972
X4.7075Y-4.0394
X4.7484Y-4.2343
X4.7634Y-3.9732
X4.7772Y-4.039
X4.7787Y-4.1634
X4.7823Y-3.4933
X4.7886Y-3.8264
X4.7961Y-4.2665
X4.7984Y-4.7409
X4.8004Y-3.2587
X4.8122Y-3.9303
X4.8441Y-4.052
X4.8831Y-3.9398
X4.8843Y-3.8354
X4.8858Y-4.1673
X4.8909Y-3.5031
X4.8921Y-4.2559
X4.8996Y-4.0157
X4.9484Y-4.7409
X4.9504Y-3.2587
X4.9539Y-4.3449
X5.0134Y-4.3937
X5.0858Y-4.5398
X5.0878Y-3.4016
X5.0984Y-4.7409
X5.1004Y-3.2587
X5.1709Y-3.7335
X5.2118Y-4.087
X5.2484Y-4.7409
X5.2504Y-3.2587
X5.2571Y-3.4634
X5.2772Y-3.7201
X5.2799Y-3.9323
X5.339Y-4.3717
X5.339Y-4.5102
X5.3933Y-4.7106
X5.415Y-3.3024
X5.485Y-3.513
X5.485Y-3.663
X5.485Y-3.813
X5.485Y-3.963
X5.485Y-4.113
X5.485Y-4.263
X5.485Y-4.413
X5.485Y-4.563
T2
X4.6262Y-3.6165
X4.6262Y-3.6913
X4.8427Y-3.5949
X4.8427Y-3.713
T4
X2.5805Y-4.1807
X2.5805Y-4.3293
X2.5805Y-4.478
X2.6795Y-3.5445
X2.6805Y-4.1807
X2.6805Y-4.3293
X2.6805Y-4.478
X2.8553Y-4.478
X2.8764Y-3.5445
X2.8783Y-4.248
X2.8889Y-3.7807
X2.8889Y-3.9776
X2.9553Y-4.478
X2.9783Y-4.248
X3.0857Y-3.7799
X3.0857Y-3.9768
X3.2209Y-4.4094
X3.222Y-4.2126
X3.4177Y-4.4094
X3.4189Y-4.2126
X3.6803Y-4.1063
X3.6803Y-4.3031
X4.2217Y-3.5719
X4.2217Y-3.8024
X4.2287Y-4.0768
X4.2287Y-4.2736
X4.4185Y-3.5719
X4.4185Y-3.8024
X4.6262Y-4.0047
X4.6262Y-4.1969
X4.7433Y-3.5421
X4.7433Y-3.7657
X4.8417Y-3.9894
X4.8417Y-4.213
X4.9402Y-3.5421
X4.9402Y-3.7657
X5.0386Y-3.9894
X5.0386Y-4.213
X5.2488Y-4.2947
X5.2543Y-4.0157
X5.2754Y-3.4008
X5.2931Y-4.5732
X5.3488Y-4.2947
X5.3528Y-4.0157
X5.3754Y-3.4008
X5.3931Y-4.5732
T5
X2.65Y-3.35
X2.75Y-3.35
X2.75Y-4.65
X2.85Y-3.35
X2.85Y-4.65
X2.95Y-3.35
X2.95Y-4.65
X3.05Y-3.35
X3.05Y-4.65
X3.15Y-3.35
X3.15Y-4.65
X3.25Y-3.35
X3.25Y-4.65
X3.35Y-3.35
X3.35Y-4.65
X3.45Y-3.35
X3.45Y-4.65
X3.55Y-3.35
X3.55Y-4.65
X3.65Y-3.35
X3.65Y-4.65
X3.75Y-3.35
X3.75Y-4.65
X3.85Y-3.35
X3.85Y-4.65
X3.95Y-3.35
X3.95Y-4.65
X4.05Y-3.35
X4.05Y-4.65
X4.15Y-3.35
X4.15Y-4.65
X4.25Y-3.35
X4.25Y-4.65
X4.35Y-3.35
X4.35Y-4.65
X4.45Y-3.35
X4.45Y-4.65
X4.55Y-3.35
X4.55Y-4.65
X4.65Y-3.35
X4.65Y-4.65
X4.75Y-3.35
X4.75Y-4.65
X4.8402Y-4.5146
X4.85Y-3.35
X4.85Y-4.65
X4.9402Y-4.5146
X4.95Y-3.35
X4.95Y-4.65
T6
X5.2228Y-3.5847
X5.2228Y-3.8406
X5.4Y-3.5847
X5.4Y-3.8406
T7
X4.6262Y-4.1008
T3
G00X2.5713Y-3.7232
M15
G01X2.5477Y-3.7232
M16
G05
G00X2.5713Y-4.0634
M15
G01X2.5477Y-4.0634
M16
G05
G00X2.7209Y-3.7232
M15
G01X2.6973Y-3.7232
M16
G05
G00X2.7209Y-4.0634
M15
G01X2.6973Y-4.0634
M16
G05
M30
