G04 Layer: TopSilkscreenLayer*
G04 EasyEDA Pro v2.2.27.1, 2024-09-15 10:59:50*
G04 Gerber Generator version 0.3*
G04 Scale: 100 percent, Rotated: No, Reflected: No*
G04 Dimensions in millimeters*
G04 Leading zeros omitted, absolute positions, 3 integers and 5 decimals*
%TF.GenerationSoftware,KiCad,Pcbnew,8.0.5*%
%TF.CreationDate,2024-10-21T18:28:28+08:00*%
%TF.ProjectId,redraw_TH,72656472-6177-45f5-9448-2e6b69636164,rev?*%
%TF.SameCoordinates,Original*%
%TF.FileFunction,Legend,Top*%
%TF.FilePolarity,Positive*%
%FSLAX46Y46*%
G04 Gerber Fmt 4.6, Leading zero omitted, Abs format (unit mm)*
G04 Created by KiCad (PCBNEW 8.0.5) date 2024-10-21 18:28:28*
%MOMM*%
%LPD*%
G01*
G04 APERTURE LIST*
%ADD10C,0.150000*%
%ADD11C,0.120000*%
G04 APERTURE END LIST*
D10*
X126980476Y-92214819D02*
X127647142Y-93214819D01*
X127647142Y-92214819D02*
X126980476Y-93214819D01*
X127980476Y-92310057D02*
X128028095Y-92262438D01*
X128028095Y-92262438D02*
X128123333Y-92214819D01*
X128123333Y-92214819D02*
X128361428Y-92214819D01*
X128361428Y-92214819D02*
X128456666Y-92262438D01*
X128456666Y-92262438D02*
X128504285Y-92310057D01*
X128504285Y-92310057D02*
X128551904Y-92405295D01*
X128551904Y-92405295D02*
X128551904Y-92500533D01*
X128551904Y-92500533D02*
X128504285Y-92643390D01*
X128504285Y-92643390D02*
X127932857Y-93214819D01*
X127932857Y-93214819D02*
X128551904Y-93214819D01*
X112040476Y-103084819D02*
X112707142Y-104084819D01*
X112707142Y-103084819D02*
X112040476Y-104084819D01*
X113611904Y-104084819D02*
X113040476Y-104084819D01*
X113326190Y-104084819D02*
X113326190Y-103084819D01*
X113326190Y-103084819D02*
X113230952Y-103227676D01*
X113230952Y-103227676D02*
X113135714Y-103322914D01*
X113135714Y-103322914D02*
X113040476Y-103370533D01*
X63901905Y-91984819D02*
X63901905Y-92794342D01*
X63901905Y-92794342D02*
X63949524Y-92889580D01*
X63949524Y-92889580D02*
X63997143Y-92937200D01*
X63997143Y-92937200D02*
X64092381Y-92984819D01*
X64092381Y-92984819D02*
X64282857Y-92984819D01*
X64282857Y-92984819D02*
X64378095Y-92937200D01*
X64378095Y-92937200D02*
X64425714Y-92889580D01*
X64425714Y-92889580D02*
X64473333Y-92794342D01*
X64473333Y-92794342D02*
X64473333Y-91984819D01*
X64901905Y-92937200D02*
X65044762Y-92984819D01*
X65044762Y-92984819D02*
X65282857Y-92984819D01*
X65282857Y-92984819D02*
X65378095Y-92937200D01*
X65378095Y-92937200D02*
X65425714Y-92889580D01*
X65425714Y-92889580D02*
X65473333Y-92794342D01*
X65473333Y-92794342D02*
X65473333Y-92699104D01*
X65473333Y-92699104D02*
X65425714Y-92603866D01*
X65425714Y-92603866D02*
X65378095Y-92556247D01*
X65378095Y-92556247D02*
X65282857Y-92508628D01*
X65282857Y-92508628D02*
X65092381Y-92461009D01*
X65092381Y-92461009D02*
X64997143Y-92413390D01*
X64997143Y-92413390D02*
X64949524Y-92365771D01*
X64949524Y-92365771D02*
X64901905Y-92270533D01*
X64901905Y-92270533D02*
X64901905Y-92175295D01*
X64901905Y-92175295D02*
X64949524Y-92080057D01*
X64949524Y-92080057D02*
X64997143Y-92032438D01*
X64997143Y-92032438D02*
X65092381Y-91984819D01*
X65092381Y-91984819D02*
X65330476Y-91984819D01*
X65330476Y-91984819D02*
X65473333Y-92032438D01*
X66235238Y-92461009D02*
X66378095Y-92508628D01*
X66378095Y-92508628D02*
X66425714Y-92556247D01*
X66425714Y-92556247D02*
X66473333Y-92651485D01*
X66473333Y-92651485D02*
X66473333Y-92794342D01*
X66473333Y-92794342D02*
X66425714Y-92889580D01*
X66425714Y-92889580D02*
X66378095Y-92937200D01*
X66378095Y-92937200D02*
X66282857Y-92984819D01*
X66282857Y-92984819D02*
X65901905Y-92984819D01*
X65901905Y-92984819D02*
X65901905Y-91984819D01*
X65901905Y-91984819D02*
X66235238Y-91984819D01*
X66235238Y-91984819D02*
X66330476Y-92032438D01*
X66330476Y-92032438D02*
X66378095Y-92080057D01*
X66378095Y-92080057D02*
X66425714Y-92175295D01*
X66425714Y-92175295D02*
X66425714Y-92270533D01*
X66425714Y-92270533D02*
X66378095Y-92365771D01*
X66378095Y-92365771D02*
X66330476Y-92413390D01*
X66330476Y-92413390D02*
X66235238Y-92461009D01*
X66235238Y-92461009D02*
X65901905Y-92461009D01*
X67425714Y-92984819D02*
X66854286Y-92984819D01*
X67140000Y-92984819D02*
X67140000Y-91984819D01*
X67140000Y-91984819D02*
X67044762Y-92127676D01*
X67044762Y-92127676D02*
X66949524Y-92222914D01*
X66949524Y-92222914D02*
X66854286Y-92270533D01*
X133834048Y-89187200D02*
X133976905Y-89234819D01*
X133976905Y-89234819D02*
X134215000Y-89234819D01*
X134215000Y-89234819D02*
X134310238Y-89187200D01*
X134310238Y-89187200D02*
X134357857Y-89139580D01*
X134357857Y-89139580D02*
X134405476Y-89044342D01*
X134405476Y-89044342D02*
X134405476Y-88949104D01*
X134405476Y-88949104D02*
X134357857Y-88853866D01*
X134357857Y-88853866D02*
X134310238Y-88806247D01*
X134310238Y-88806247D02*
X134215000Y-88758628D01*
X134215000Y-88758628D02*
X134024524Y-88711009D01*
X134024524Y-88711009D02*
X133929286Y-88663390D01*
X133929286Y-88663390D02*
X133881667Y-88615771D01*
X133881667Y-88615771D02*
X133834048Y-88520533D01*
X133834048Y-88520533D02*
X133834048Y-88425295D01*
X133834048Y-88425295D02*
X133881667Y-88330057D01*
X133881667Y-88330057D02*
X133929286Y-88282438D01*
X133929286Y-88282438D02*
X134024524Y-88234819D01*
X134024524Y-88234819D02*
X134262619Y-88234819D01*
X134262619Y-88234819D02*
X134405476Y-88282438D01*
X134738810Y-88234819D02*
X134976905Y-89234819D01*
X134976905Y-89234819D02*
X135167381Y-88520533D01*
X135167381Y-88520533D02*
X135357857Y-89234819D01*
X135357857Y-89234819D02*
X135595953Y-88234819D01*
X136500714Y-89234819D02*
X135929286Y-89234819D01*
X136215000Y-89234819D02*
X136215000Y-88234819D01*
X136215000Y-88234819D02*
X136119762Y-88377676D01*
X136119762Y-88377676D02*
X136024524Y-88472914D01*
X136024524Y-88472914D02*
X135929286Y-88520533D01*
X62883333Y-106884819D02*
X62550000Y-106408628D01*
X62311905Y-106884819D02*
X62311905Y-105884819D01*
X62311905Y-105884819D02*
X62692857Y-105884819D01*
X62692857Y-105884819D02*
X62788095Y-105932438D01*
X62788095Y-105932438D02*
X62835714Y-105980057D01*
X62835714Y-105980057D02*
X62883333Y-106075295D01*
X62883333Y-106075295D02*
X62883333Y-106218152D01*
X62883333Y-106218152D02*
X62835714Y-106313390D01*
X62835714Y-106313390D02*
X62788095Y-106361009D01*
X62788095Y-106361009D02*
X62692857Y-106408628D01*
X62692857Y-106408628D02*
X62311905Y-106408628D01*
X63740476Y-105884819D02*
X63550000Y-105884819D01*
X63550000Y-105884819D02*
X63454762Y-105932438D01*
X63454762Y-105932438D02*
X63407143Y-105980057D01*
X63407143Y-105980057D02*
X63311905Y-106122914D01*
X63311905Y-106122914D02*
X63264286Y-106313390D01*
X63264286Y-106313390D02*
X63264286Y-106694342D01*
X63264286Y-106694342D02*
X63311905Y-106789580D01*
X63311905Y-106789580D02*
X63359524Y-106837200D01*
X63359524Y-106837200D02*
X63454762Y-106884819D01*
X63454762Y-106884819D02*
X63645238Y-106884819D01*
X63645238Y-106884819D02*
X63740476Y-106837200D01*
X63740476Y-106837200D02*
X63788095Y-106789580D01*
X63788095Y-106789580D02*
X63835714Y-106694342D01*
X63835714Y-106694342D02*
X63835714Y-106456247D01*
X63835714Y-106456247D02*
X63788095Y-106361009D01*
X63788095Y-106361009D02*
X63740476Y-106313390D01*
X63740476Y-106313390D02*
X63645238Y-106265771D01*
X63645238Y-106265771D02*
X63454762Y-106265771D01*
X63454762Y-106265771D02*
X63359524Y-106313390D01*
X63359524Y-106313390D02*
X63311905Y-106361009D01*
X63311905Y-106361009D02*
X63264286Y-106456247D01*
X62883333Y-110659819D02*
X62550000Y-110183628D01*
X62311905Y-110659819D02*
X62311905Y-109659819D01*
X62311905Y-109659819D02*
X62692857Y-109659819D01*
X62692857Y-109659819D02*
X62788095Y-109707438D01*
X62788095Y-109707438D02*
X62835714Y-109755057D01*
X62835714Y-109755057D02*
X62883333Y-109850295D01*
X62883333Y-109850295D02*
X62883333Y-109993152D01*
X62883333Y-109993152D02*
X62835714Y-110088390D01*
X62835714Y-110088390D02*
X62788095Y-110136009D01*
X62788095Y-110136009D02*
X62692857Y-110183628D01*
X62692857Y-110183628D02*
X62311905Y-110183628D01*
X63788095Y-109659819D02*
X63311905Y-109659819D01*
X63311905Y-109659819D02*
X63264286Y-110136009D01*
X63264286Y-110136009D02*
X63311905Y-110088390D01*
X63311905Y-110088390D02*
X63407143Y-110040771D01*
X63407143Y-110040771D02*
X63645238Y-110040771D01*
X63645238Y-110040771D02*
X63740476Y-110088390D01*
X63740476Y-110088390D02*
X63788095Y-110136009D01*
X63788095Y-110136009D02*
X63835714Y-110231247D01*
X63835714Y-110231247D02*
X63835714Y-110469342D01*
X63835714Y-110469342D02*
X63788095Y-110564580D01*
X63788095Y-110564580D02*
X63740476Y-110612200D01*
X63740476Y-110612200D02*
X63645238Y-110659819D01*
X63645238Y-110659819D02*
X63407143Y-110659819D01*
X63407143Y-110659819D02*
X63311905Y-110612200D01*
X63311905Y-110612200D02*
X63264286Y-110564580D01*
X62883333Y-114434819D02*
X62550000Y-113958628D01*
X62311905Y-114434819D02*
X62311905Y-113434819D01*
X62311905Y-113434819D02*
X62692857Y-113434819D01*
X62692857Y-113434819D02*
X62788095Y-113482438D01*
X62788095Y-113482438D02*
X62835714Y-113530057D01*
X62835714Y-113530057D02*
X62883333Y-113625295D01*
X62883333Y-113625295D02*
X62883333Y-113768152D01*
X62883333Y-113768152D02*
X62835714Y-113863390D01*
X62835714Y-113863390D02*
X62788095Y-113911009D01*
X62788095Y-113911009D02*
X62692857Y-113958628D01*
X62692857Y-113958628D02*
X62311905Y-113958628D01*
X63740476Y-113768152D02*
X63740476Y-114434819D01*
X63502381Y-113387200D02*
X63264286Y-114101485D01*
X63264286Y-114101485D02*
X63883333Y-114101485D01*
X135548333Y-114244819D02*
X135215000Y-113768628D01*
X134976905Y-114244819D02*
X134976905Y-113244819D01*
X134976905Y-113244819D02*
X135357857Y-113244819D01*
X135357857Y-113244819D02*
X135453095Y-113292438D01*
X135453095Y-113292438D02*
X135500714Y-113340057D01*
X135500714Y-113340057D02*
X135548333Y-113435295D01*
X135548333Y-113435295D02*
X135548333Y-113578152D01*
X135548333Y-113578152D02*
X135500714Y-113673390D01*
X135500714Y-113673390D02*
X135453095Y-113721009D01*
X135453095Y-113721009D02*
X135357857Y-113768628D01*
X135357857Y-113768628D02*
X134976905Y-113768628D01*
X135881667Y-113244819D02*
X136500714Y-113244819D01*
X136500714Y-113244819D02*
X136167381Y-113625771D01*
X136167381Y-113625771D02*
X136310238Y-113625771D01*
X136310238Y-113625771D02*
X136405476Y-113673390D01*
X136405476Y-113673390D02*
X136453095Y-113721009D01*
X136453095Y-113721009D02*
X136500714Y-113816247D01*
X136500714Y-113816247D02*
X136500714Y-114054342D01*
X136500714Y-114054342D02*
X136453095Y-114149580D01*
X136453095Y-114149580D02*
X136405476Y-114197200D01*
X136405476Y-114197200D02*
X136310238Y-114244819D01*
X136310238Y-114244819D02*
X136024524Y-114244819D01*
X136024524Y-114244819D02*
X135929286Y-114197200D01*
X135929286Y-114197200D02*
X135881667Y-114149580D01*
X73803333Y-111834819D02*
X73470000Y-111358628D01*
X73231905Y-111834819D02*
X73231905Y-110834819D01*
X73231905Y-110834819D02*
X73612857Y-110834819D01*
X73612857Y-110834819D02*
X73708095Y-110882438D01*
X73708095Y-110882438D02*
X73755714Y-110930057D01*
X73755714Y-110930057D02*
X73803333Y-111025295D01*
X73803333Y-111025295D02*
X73803333Y-111168152D01*
X73803333Y-111168152D02*
X73755714Y-111263390D01*
X73755714Y-111263390D02*
X73708095Y-111311009D01*
X73708095Y-111311009D02*
X73612857Y-111358628D01*
X73612857Y-111358628D02*
X73231905Y-111358628D01*
X74184286Y-110930057D02*
X74231905Y-110882438D01*
X74231905Y-110882438D02*
X74327143Y-110834819D01*
X74327143Y-110834819D02*
X74565238Y-110834819D01*
X74565238Y-110834819D02*
X74660476Y-110882438D01*
X74660476Y-110882438D02*
X74708095Y-110930057D01*
X74708095Y-110930057D02*
X74755714Y-111025295D01*
X74755714Y-111025295D02*
X74755714Y-111120533D01*
X74755714Y-111120533D02*
X74708095Y-111263390D01*
X74708095Y-111263390D02*
X74136667Y-111834819D01*
X74136667Y-111834819D02*
X74755714Y-111834819D01*
X135548333Y-84654819D02*
X135215000Y-84178628D01*
X134976905Y-84654819D02*
X134976905Y-83654819D01*
X134976905Y-83654819D02*
X135357857Y-83654819D01*
X135357857Y-83654819D02*
X135453095Y-83702438D01*
X135453095Y-83702438D02*
X135500714Y-83750057D01*
X135500714Y-83750057D02*
X135548333Y-83845295D01*
X135548333Y-83845295D02*
X135548333Y-83988152D01*
X135548333Y-83988152D02*
X135500714Y-84083390D01*
X135500714Y-84083390D02*
X135453095Y-84131009D01*
X135453095Y-84131009D02*
X135357857Y-84178628D01*
X135357857Y-84178628D02*
X134976905Y-84178628D01*
X136500714Y-84654819D02*
X135929286Y-84654819D01*
X136215000Y-84654819D02*
X136215000Y-83654819D01*
X136215000Y-83654819D02*
X136119762Y-83797676D01*
X136119762Y-83797676D02*
X136024524Y-83892914D01*
X136024524Y-83892914D02*
X135929286Y-83940533D01*
X133738809Y-106581194D02*
X133262619Y-106581194D01*
X133262619Y-106581194D02*
X133262619Y-105581194D01*
X134072143Y-106057384D02*
X134405476Y-106057384D01*
X134548333Y-106581194D02*
X134072143Y-106581194D01*
X134072143Y-106581194D02*
X134072143Y-105581194D01*
X134072143Y-105581194D02*
X134548333Y-105581194D01*
X134976905Y-106581194D02*
X134976905Y-105581194D01*
X134976905Y-105581194D02*
X135215000Y-105581194D01*
X135215000Y-105581194D02*
X135357857Y-105628813D01*
X135357857Y-105628813D02*
X135453095Y-105724051D01*
X135453095Y-105724051D02*
X135500714Y-105819289D01*
X135500714Y-105819289D02*
X135548333Y-106009765D01*
X135548333Y-106009765D02*
X135548333Y-106152622D01*
X135548333Y-106152622D02*
X135500714Y-106343098D01*
X135500714Y-106343098D02*
X135453095Y-106438336D01*
X135453095Y-106438336D02*
X135357857Y-106533575D01*
X135357857Y-106533575D02*
X135215000Y-106581194D01*
X135215000Y-106581194D02*
X134976905Y-106581194D01*
X135929286Y-105676432D02*
X135976905Y-105628813D01*
X135976905Y-105628813D02*
X136072143Y-105581194D01*
X136072143Y-105581194D02*
X136310238Y-105581194D01*
X136310238Y-105581194D02*
X136405476Y-105628813D01*
X136405476Y-105628813D02*
X136453095Y-105676432D01*
X136453095Y-105676432D02*
X136500714Y-105771670D01*
X136500714Y-105771670D02*
X136500714Y-105866908D01*
X136500714Y-105866908D02*
X136453095Y-106009765D01*
X136453095Y-106009765D02*
X135881667Y-106581194D01*
X135881667Y-106581194D02*
X136500714Y-106581194D01*
X72970952Y-105284819D02*
X72494762Y-105284819D01*
X72494762Y-105284819D02*
X72494762Y-104284819D01*
X73304286Y-104761009D02*
X73637619Y-104761009D01*
X73780476Y-105284819D02*
X73304286Y-105284819D01*
X73304286Y-105284819D02*
X73304286Y-104284819D01*
X73304286Y-104284819D02*
X73780476Y-104284819D01*
X74209048Y-105284819D02*
X74209048Y-104284819D01*
X74209048Y-104284819D02*
X74447143Y-104284819D01*
X74447143Y-104284819D02*
X74590000Y-104332438D01*
X74590000Y-104332438D02*
X74685238Y-104427676D01*
X74685238Y-104427676D02*
X74732857Y-104522914D01*
X74732857Y-104522914D02*
X74780476Y-104713390D01*
X74780476Y-104713390D02*
X74780476Y-104856247D01*
X74780476Y-104856247D02*
X74732857Y-105046723D01*
X74732857Y-105046723D02*
X74685238Y-105141961D01*
X74685238Y-105141961D02*
X74590000Y-105237200D01*
X74590000Y-105237200D02*
X74447143Y-105284819D01*
X74447143Y-105284819D02*
X74209048Y-105284819D01*
X75732857Y-105284819D02*
X75161429Y-105284819D01*
X75447143Y-105284819D02*
X75447143Y-104284819D01*
X75447143Y-104284819D02*
X75351905Y-104427676D01*
X75351905Y-104427676D02*
X75256667Y-104522914D01*
X75256667Y-104522914D02*
X75161429Y-104570533D01*
X121064819Y-115431904D02*
X120064819Y-115431904D01*
X120541009Y-115431904D02*
X120541009Y-114860476D01*
X121064819Y-114860476D02*
X120064819Y-114860476D01*
X120064819Y-113908095D02*
X120064819Y-114384285D01*
X120064819Y-114384285D02*
X120541009Y-114431904D01*
X120541009Y-114431904D02*
X120493390Y-114384285D01*
X120493390Y-114384285D02*
X120445771Y-114289047D01*
X120445771Y-114289047D02*
X120445771Y-114050952D01*
X120445771Y-114050952D02*
X120493390Y-113955714D01*
X120493390Y-113955714D02*
X120541009Y-113908095D01*
X120541009Y-113908095D02*
X120636247Y-113860476D01*
X120636247Y-113860476D02*
X120874342Y-113860476D01*
X120874342Y-113860476D02*
X120969580Y-113908095D01*
X120969580Y-113908095D02*
X121017200Y-113955714D01*
X121017200Y-113955714D02*
X121064819Y-114050952D01*
X121064819Y-114050952D02*
X121064819Y-114289047D01*
X121064819Y-114289047D02*
X121017200Y-114384285D01*
X121017200Y-114384285D02*
X120969580Y-114431904D01*
X63738095Y-85604819D02*
X63738095Y-84604819D01*
X63738095Y-85081009D02*
X64309523Y-85081009D01*
X64309523Y-85604819D02*
X64309523Y-84604819D01*
X65214285Y-84938152D02*
X65214285Y-85604819D01*
X64976190Y-84557200D02*
X64738095Y-85271485D01*
X64738095Y-85271485D02*
X65357142Y-85271485D01*
X128514819Y-85851904D02*
X127514819Y-85851904D01*
X127991009Y-85851904D02*
X127991009Y-85280476D01*
X128514819Y-85280476D02*
X127514819Y-85280476D01*
X127514819Y-84899523D02*
X127514819Y-84280476D01*
X127514819Y-84280476D02*
X127895771Y-84613809D01*
X127895771Y-84613809D02*
X127895771Y-84470952D01*
X127895771Y-84470952D02*
X127943390Y-84375714D01*
X127943390Y-84375714D02*
X127991009Y-84328095D01*
X127991009Y-84328095D02*
X128086247Y-84280476D01*
X128086247Y-84280476D02*
X128324342Y-84280476D01*
X128324342Y-84280476D02*
X128419580Y-84328095D01*
X128419580Y-84328095D02*
X128467200Y-84375714D01*
X128467200Y-84375714D02*
X128514819Y-84470952D01*
X128514819Y-84470952D02*
X128514819Y-84756666D01*
X128514819Y-84756666D02*
X128467200Y-84851904D01*
X128467200Y-84851904D02*
X128419580Y-84899523D01*
X127818095Y-118594819D02*
X127818095Y-117594819D01*
X127818095Y-118071009D02*
X128389523Y-118071009D01*
X128389523Y-118594819D02*
X128389523Y-117594819D01*
X128818095Y-117690057D02*
X128865714Y-117642438D01*
X128865714Y-117642438D02*
X128960952Y-117594819D01*
X128960952Y-117594819D02*
X129199047Y-117594819D01*
X129199047Y-117594819D02*
X129294285Y-117642438D01*
X129294285Y-117642438D02*
X129341904Y-117690057D01*
X129341904Y-117690057D02*
X129389523Y-117785295D01*
X129389523Y-117785295D02*
X129389523Y-117880533D01*
X129389523Y-117880533D02*
X129341904Y-118023390D01*
X129341904Y-118023390D02*
X128770476Y-118594819D01*
X128770476Y-118594819D02*
X129389523Y-118594819D01*
X65668095Y-118864819D02*
X65668095Y-117864819D01*
X65668095Y-118341009D02*
X66239523Y-118341009D01*
X66239523Y-118864819D02*
X66239523Y-117864819D01*
X67239523Y-118864819D02*
X66668095Y-118864819D01*
X66953809Y-118864819D02*
X66953809Y-117864819D01*
X66953809Y-117864819D02*
X66858571Y-118007676D01*
X66858571Y-118007676D02*
X66763333Y-118102914D01*
X66763333Y-118102914D02*
X66668095Y-118150533D01*
X127337142Y-96519580D02*
X127289523Y-96567200D01*
X127289523Y-96567200D02*
X127146666Y-96614819D01*
X127146666Y-96614819D02*
X127051428Y-96614819D01*
X127051428Y-96614819D02*
X126908571Y-96567200D01*
X126908571Y-96567200D02*
X126813333Y-96471961D01*
X126813333Y-96471961D02*
X126765714Y-96376723D01*
X126765714Y-96376723D02*
X126718095Y-96186247D01*
X126718095Y-96186247D02*
X126718095Y-96043390D01*
X126718095Y-96043390D02*
X126765714Y-95852914D01*
X126765714Y-95852914D02*
X126813333Y-95757676D01*
X126813333Y-95757676D02*
X126908571Y-95662438D01*
X126908571Y-95662438D02*
X127051428Y-95614819D01*
X127051428Y-95614819D02*
X127146666Y-95614819D01*
X127146666Y-95614819D02*
X127289523Y-95662438D01*
X127289523Y-95662438D02*
X127337142Y-95710057D01*
X128289523Y-96614819D02*
X127718095Y-96614819D01*
X128003809Y-96614819D02*
X128003809Y-95614819D01*
X128003809Y-95614819D02*
X127908571Y-95757676D01*
X127908571Y-95757676D02*
X127813333Y-95852914D01*
X127813333Y-95852914D02*
X127718095Y-95900533D01*
X129194285Y-95614819D02*
X128718095Y-95614819D01*
X128718095Y-95614819D02*
X128670476Y-96091009D01*
X128670476Y-96091009D02*
X128718095Y-96043390D01*
X128718095Y-96043390D02*
X128813333Y-95995771D01*
X128813333Y-95995771D02*
X129051428Y-95995771D01*
X129051428Y-95995771D02*
X129146666Y-96043390D01*
X129146666Y-96043390D02*
X129194285Y-96091009D01*
X129194285Y-96091009D02*
X129241904Y-96186247D01*
X129241904Y-96186247D02*
X129241904Y-96424342D01*
X129241904Y-96424342D02*
X129194285Y-96519580D01*
X129194285Y-96519580D02*
X129146666Y-96567200D01*
X129146666Y-96567200D02*
X129051428Y-96614819D01*
X129051428Y-96614819D02*
X128813333Y-96614819D01*
X128813333Y-96614819D02*
X128718095Y-96567200D01*
X128718095Y-96567200D02*
X128670476Y-96519580D01*
X127407142Y-90309580D02*
X127359523Y-90357200D01*
X127359523Y-90357200D02*
X127216666Y-90404819D01*
X127216666Y-90404819D02*
X127121428Y-90404819D01*
X127121428Y-90404819D02*
X126978571Y-90357200D01*
X126978571Y-90357200D02*
X126883333Y-90261961D01*
X126883333Y-90261961D02*
X126835714Y-90166723D01*
X126835714Y-90166723D02*
X126788095Y-89976247D01*
X126788095Y-89976247D02*
X126788095Y-89833390D01*
X126788095Y-89833390D02*
X126835714Y-89642914D01*
X126835714Y-89642914D02*
X126883333Y-89547676D01*
X126883333Y-89547676D02*
X126978571Y-89452438D01*
X126978571Y-89452438D02*
X127121428Y-89404819D01*
X127121428Y-89404819D02*
X127216666Y-89404819D01*
X127216666Y-89404819D02*
X127359523Y-89452438D01*
X127359523Y-89452438D02*
X127407142Y-89500057D01*
X128359523Y-90404819D02*
X127788095Y-90404819D01*
X128073809Y-90404819D02*
X128073809Y-89404819D01*
X128073809Y-89404819D02*
X127978571Y-89547676D01*
X127978571Y-89547676D02*
X127883333Y-89642914D01*
X127883333Y-89642914D02*
X127788095Y-89690533D01*
X129216666Y-89738152D02*
X129216666Y-90404819D01*
X128978571Y-89357200D02*
X128740476Y-90071485D01*
X128740476Y-90071485D02*
X129359523Y-90071485D01*
X129687142Y-107549580D02*
X129639523Y-107597200D01*
X129639523Y-107597200D02*
X129496666Y-107644819D01*
X129496666Y-107644819D02*
X129401428Y-107644819D01*
X129401428Y-107644819D02*
X129258571Y-107597200D01*
X129258571Y-107597200D02*
X129163333Y-107501961D01*
X129163333Y-107501961D02*
X129115714Y-107406723D01*
X129115714Y-107406723D02*
X129068095Y-107216247D01*
X129068095Y-107216247D02*
X129068095Y-107073390D01*
X129068095Y-107073390D02*
X129115714Y-106882914D01*
X129115714Y-106882914D02*
X129163333Y-106787676D01*
X129163333Y-106787676D02*
X129258571Y-106692438D01*
X129258571Y-106692438D02*
X129401428Y-106644819D01*
X129401428Y-106644819D02*
X129496666Y-106644819D01*
X129496666Y-106644819D02*
X129639523Y-106692438D01*
X129639523Y-106692438D02*
X129687142Y-106740057D01*
X130639523Y-107644819D02*
X130068095Y-107644819D01*
X130353809Y-107644819D02*
X130353809Y-106644819D01*
X130353809Y-106644819D02*
X130258571Y-106787676D01*
X130258571Y-106787676D02*
X130163333Y-106882914D01*
X130163333Y-106882914D02*
X130068095Y-106930533D01*
X130972857Y-106644819D02*
X131591904Y-106644819D01*
X131591904Y-106644819D02*
X131258571Y-107025771D01*
X131258571Y-107025771D02*
X131401428Y-107025771D01*
X131401428Y-107025771D02*
X131496666Y-107073390D01*
X131496666Y-107073390D02*
X131544285Y-107121009D01*
X131544285Y-107121009D02*
X131591904Y-107216247D01*
X131591904Y-107216247D02*
X131591904Y-107454342D01*
X131591904Y-107454342D02*
X131544285Y-107549580D01*
X131544285Y-107549580D02*
X131496666Y-107597200D01*
X131496666Y-107597200D02*
X131401428Y-107644819D01*
X131401428Y-107644819D02*
X131115714Y-107644819D01*
X131115714Y-107644819D02*
X131020476Y-107597200D01*
X131020476Y-107597200D02*
X130972857Y-107549580D01*
X129957142Y-101909580D02*
X129909523Y-101957200D01*
X129909523Y-101957200D02*
X129766666Y-102004819D01*
X129766666Y-102004819D02*
X129671428Y-102004819D01*
X129671428Y-102004819D02*
X129528571Y-101957200D01*
X129528571Y-101957200D02*
X129433333Y-101861961D01*
X129433333Y-101861961D02*
X129385714Y-101766723D01*
X129385714Y-101766723D02*
X129338095Y-101576247D01*
X129338095Y-101576247D02*
X129338095Y-101433390D01*
X129338095Y-101433390D02*
X129385714Y-101242914D01*
X129385714Y-101242914D02*
X129433333Y-101147676D01*
X129433333Y-101147676D02*
X129528571Y-101052438D01*
X129528571Y-101052438D02*
X129671428Y-101004819D01*
X129671428Y-101004819D02*
X129766666Y-101004819D01*
X129766666Y-101004819D02*
X129909523Y-101052438D01*
X129909523Y-101052438D02*
X129957142Y-101100057D01*
X130909523Y-102004819D02*
X130338095Y-102004819D01*
X130623809Y-102004819D02*
X130623809Y-101004819D01*
X130623809Y-101004819D02*
X130528571Y-101147676D01*
X130528571Y-101147676D02*
X130433333Y-101242914D01*
X130433333Y-101242914D02*
X130338095Y-101290533D01*
X131290476Y-101100057D02*
X131338095Y-101052438D01*
X131338095Y-101052438D02*
X131433333Y-101004819D01*
X131433333Y-101004819D02*
X131671428Y-101004819D01*
X131671428Y-101004819D02*
X131766666Y-101052438D01*
X131766666Y-101052438D02*
X131814285Y-101100057D01*
X131814285Y-101100057D02*
X131861904Y-101195295D01*
X131861904Y-101195295D02*
X131861904Y-101290533D01*
X131861904Y-101290533D02*
X131814285Y-101433390D01*
X131814285Y-101433390D02*
X131242857Y-102004819D01*
X131242857Y-102004819D02*
X131861904Y-102004819D01*
X106527142Y-111679580D02*
X106479523Y-111727200D01*
X106479523Y-111727200D02*
X106336666Y-111774819D01*
X106336666Y-111774819D02*
X106241428Y-111774819D01*
X106241428Y-111774819D02*
X106098571Y-111727200D01*
X106098571Y-111727200D02*
X106003333Y-111631961D01*
X106003333Y-111631961D02*
X105955714Y-111536723D01*
X105955714Y-111536723D02*
X105908095Y-111346247D01*
X105908095Y-111346247D02*
X105908095Y-111203390D01*
X105908095Y-111203390D02*
X105955714Y-111012914D01*
X105955714Y-111012914D02*
X106003333Y-110917676D01*
X106003333Y-110917676D02*
X106098571Y-110822438D01*
X106098571Y-110822438D02*
X106241428Y-110774819D01*
X106241428Y-110774819D02*
X106336666Y-110774819D01*
X106336666Y-110774819D02*
X106479523Y-110822438D01*
X106479523Y-110822438D02*
X106527142Y-110870057D01*
X107479523Y-111774819D02*
X106908095Y-111774819D01*
X107193809Y-111774819D02*
X107193809Y-110774819D01*
X107193809Y-110774819D02*
X107098571Y-110917676D01*
X107098571Y-110917676D02*
X107003333Y-111012914D01*
X107003333Y-111012914D02*
X106908095Y-111060533D01*
X108431904Y-111774819D02*
X107860476Y-111774819D01*
X108146190Y-111774819D02*
X108146190Y-110774819D01*
X108146190Y-110774819D02*
X108050952Y-110917676D01*
X108050952Y-110917676D02*
X107955714Y-111012914D01*
X107955714Y-111012914D02*
X107860476Y-111060533D01*
X64667142Y-90629580D02*
X64619523Y-90677200D01*
X64619523Y-90677200D02*
X64476666Y-90724819D01*
X64476666Y-90724819D02*
X64381428Y-90724819D01*
X64381428Y-90724819D02*
X64238571Y-90677200D01*
X64238571Y-90677200D02*
X64143333Y-90581961D01*
X64143333Y-90581961D02*
X64095714Y-90486723D01*
X64095714Y-90486723D02*
X64048095Y-90296247D01*
X64048095Y-90296247D02*
X64048095Y-90153390D01*
X64048095Y-90153390D02*
X64095714Y-89962914D01*
X64095714Y-89962914D02*
X64143333Y-89867676D01*
X64143333Y-89867676D02*
X64238571Y-89772438D01*
X64238571Y-89772438D02*
X64381428Y-89724819D01*
X64381428Y-89724819D02*
X64476666Y-89724819D01*
X64476666Y-89724819D02*
X64619523Y-89772438D01*
X64619523Y-89772438D02*
X64667142Y-89820057D01*
X65619523Y-90724819D02*
X65048095Y-90724819D01*
X65333809Y-90724819D02*
X65333809Y-89724819D01*
X65333809Y-89724819D02*
X65238571Y-89867676D01*
X65238571Y-89867676D02*
X65143333Y-89962914D01*
X65143333Y-89962914D02*
X65048095Y-90010533D01*
X66238571Y-89724819D02*
X66333809Y-89724819D01*
X66333809Y-89724819D02*
X66429047Y-89772438D01*
X66429047Y-89772438D02*
X66476666Y-89820057D01*
X66476666Y-89820057D02*
X66524285Y-89915295D01*
X66524285Y-89915295D02*
X66571904Y-90105771D01*
X66571904Y-90105771D02*
X66571904Y-90343866D01*
X66571904Y-90343866D02*
X66524285Y-90534342D01*
X66524285Y-90534342D02*
X66476666Y-90629580D01*
X66476666Y-90629580D02*
X66429047Y-90677200D01*
X66429047Y-90677200D02*
X66333809Y-90724819D01*
X66333809Y-90724819D02*
X66238571Y-90724819D01*
X66238571Y-90724819D02*
X66143333Y-90677200D01*
X66143333Y-90677200D02*
X66095714Y-90629580D01*
X66095714Y-90629580D02*
X66048095Y-90534342D01*
X66048095Y-90534342D02*
X66000476Y-90343866D01*
X66000476Y-90343866D02*
X66000476Y-90105771D01*
X66000476Y-90105771D02*
X66048095Y-89915295D01*
X66048095Y-89915295D02*
X66095714Y-89820057D01*
X66095714Y-89820057D02*
X66143333Y-89772438D01*
X66143333Y-89772438D02*
X66238571Y-89724819D01*
X109293333Y-99749580D02*
X109245714Y-99797200D01*
X109245714Y-99797200D02*
X109102857Y-99844819D01*
X109102857Y-99844819D02*
X109007619Y-99844819D01*
X109007619Y-99844819D02*
X108864762Y-99797200D01*
X108864762Y-99797200D02*
X108769524Y-99701961D01*
X108769524Y-99701961D02*
X108721905Y-99606723D01*
X108721905Y-99606723D02*
X108674286Y-99416247D01*
X108674286Y-99416247D02*
X108674286Y-99273390D01*
X108674286Y-99273390D02*
X108721905Y-99082914D01*
X108721905Y-99082914D02*
X108769524Y-98987676D01*
X108769524Y-98987676D02*
X108864762Y-98892438D01*
X108864762Y-98892438D02*
X109007619Y-98844819D01*
X109007619Y-98844819D02*
X109102857Y-98844819D01*
X109102857Y-98844819D02*
X109245714Y-98892438D01*
X109245714Y-98892438D02*
X109293333Y-98940057D01*
X109864762Y-99273390D02*
X109769524Y-99225771D01*
X109769524Y-99225771D02*
X109721905Y-99178152D01*
X109721905Y-99178152D02*
X109674286Y-99082914D01*
X109674286Y-99082914D02*
X109674286Y-99035295D01*
X109674286Y-99035295D02*
X109721905Y-98940057D01*
X109721905Y-98940057D02*
X109769524Y-98892438D01*
X109769524Y-98892438D02*
X109864762Y-98844819D01*
X109864762Y-98844819D02*
X110055238Y-98844819D01*
X110055238Y-98844819D02*
X110150476Y-98892438D01*
X110150476Y-98892438D02*
X110198095Y-98940057D01*
X110198095Y-98940057D02*
X110245714Y-99035295D01*
X110245714Y-99035295D02*
X110245714Y-99082914D01*
X110245714Y-99082914D02*
X110198095Y-99178152D01*
X110198095Y-99178152D02*
X110150476Y-99225771D01*
X110150476Y-99225771D02*
X110055238Y-99273390D01*
X110055238Y-99273390D02*
X109864762Y-99273390D01*
X109864762Y-99273390D02*
X109769524Y-99321009D01*
X109769524Y-99321009D02*
X109721905Y-99368628D01*
X109721905Y-99368628D02*
X109674286Y-99463866D01*
X109674286Y-99463866D02*
X109674286Y-99654342D01*
X109674286Y-99654342D02*
X109721905Y-99749580D01*
X109721905Y-99749580D02*
X109769524Y-99797200D01*
X109769524Y-99797200D02*
X109864762Y-99844819D01*
X109864762Y-99844819D02*
X110055238Y-99844819D01*
X110055238Y-99844819D02*
X110150476Y-99797200D01*
X110150476Y-99797200D02*
X110198095Y-99749580D01*
X110198095Y-99749580D02*
X110245714Y-99654342D01*
X110245714Y-99654342D02*
X110245714Y-99463866D01*
X110245714Y-99463866D02*
X110198095Y-99368628D01*
X110198095Y-99368628D02*
X110150476Y-99321009D01*
X110150476Y-99321009D02*
X110055238Y-99273390D01*
X109293333Y-93894580D02*
X109245714Y-93942200D01*
X109245714Y-93942200D02*
X109102857Y-93989819D01*
X109102857Y-93989819D02*
X109007619Y-93989819D01*
X109007619Y-93989819D02*
X108864762Y-93942200D01*
X108864762Y-93942200D02*
X108769524Y-93846961D01*
X108769524Y-93846961D02*
X108721905Y-93751723D01*
X108721905Y-93751723D02*
X108674286Y-93561247D01*
X108674286Y-93561247D02*
X108674286Y-93418390D01*
X108674286Y-93418390D02*
X108721905Y-93227914D01*
X108721905Y-93227914D02*
X108769524Y-93132676D01*
X108769524Y-93132676D02*
X108864762Y-93037438D01*
X108864762Y-93037438D02*
X109007619Y-92989819D01*
X109007619Y-92989819D02*
X109102857Y-92989819D01*
X109102857Y-92989819D02*
X109245714Y-93037438D01*
X109245714Y-93037438D02*
X109293333Y-93085057D01*
X109626667Y-92989819D02*
X110293333Y-92989819D01*
X110293333Y-92989819D02*
X109864762Y-93989819D01*
X93333333Y-112079580D02*
X93285714Y-112127200D01*
X93285714Y-112127200D02*
X93142857Y-112174819D01*
X93142857Y-112174819D02*
X93047619Y-112174819D01*
X93047619Y-112174819D02*
X92904762Y-112127200D01*
X92904762Y-112127200D02*
X92809524Y-112031961D01*
X92809524Y-112031961D02*
X92761905Y-111936723D01*
X92761905Y-111936723D02*
X92714286Y-111746247D01*
X92714286Y-111746247D02*
X92714286Y-111603390D01*
X92714286Y-111603390D02*
X92761905Y-111412914D01*
X92761905Y-111412914D02*
X92809524Y-111317676D01*
X92809524Y-111317676D02*
X92904762Y-111222438D01*
X92904762Y-111222438D02*
X93047619Y-111174819D01*
X93047619Y-111174819D02*
X93142857Y-111174819D01*
X93142857Y-111174819D02*
X93285714Y-111222438D01*
X93285714Y-111222438D02*
X93333333Y-111270057D01*
X94190476Y-111174819D02*
X94000000Y-111174819D01*
X94000000Y-111174819D02*
X93904762Y-111222438D01*
X93904762Y-111222438D02*
X93857143Y-111270057D01*
X93857143Y-111270057D02*
X93761905Y-111412914D01*
X93761905Y-111412914D02*
X93714286Y-111603390D01*
X93714286Y-111603390D02*
X93714286Y-111984342D01*
X93714286Y-111984342D02*
X93761905Y-112079580D01*
X93761905Y-112079580D02*
X93809524Y-112127200D01*
X93809524Y-112127200D02*
X93904762Y-112174819D01*
X93904762Y-112174819D02*
X94095238Y-112174819D01*
X94095238Y-112174819D02*
X94190476Y-112127200D01*
X94190476Y-112127200D02*
X94238095Y-112079580D01*
X94238095Y-112079580D02*
X94285714Y-111984342D01*
X94285714Y-111984342D02*
X94285714Y-111746247D01*
X94285714Y-111746247D02*
X94238095Y-111651009D01*
X94238095Y-111651009D02*
X94190476Y-111603390D01*
X94190476Y-111603390D02*
X94095238Y-111555771D01*
X94095238Y-111555771D02*
X93904762Y-111555771D01*
X93904762Y-111555771D02*
X93809524Y-111603390D01*
X93809524Y-111603390D02*
X93761905Y-111651009D01*
X93761905Y-111651009D02*
X93714286Y-111746247D01*
X135353333Y-104839580D02*
X135305714Y-104887200D01*
X135305714Y-104887200D02*
X135162857Y-104934819D01*
X135162857Y-104934819D02*
X135067619Y-104934819D01*
X135067619Y-104934819D02*
X134924762Y-104887200D01*
X134924762Y-104887200D02*
X134829524Y-104791961D01*
X134829524Y-104791961D02*
X134781905Y-104696723D01*
X134781905Y-104696723D02*
X134734286Y-104506247D01*
X134734286Y-104506247D02*
X134734286Y-104363390D01*
X134734286Y-104363390D02*
X134781905Y-104172914D01*
X134781905Y-104172914D02*
X134829524Y-104077676D01*
X134829524Y-104077676D02*
X134924762Y-103982438D01*
X134924762Y-103982438D02*
X135067619Y-103934819D01*
X135067619Y-103934819D02*
X135162857Y-103934819D01*
X135162857Y-103934819D02*
X135305714Y-103982438D01*
X135305714Y-103982438D02*
X135353333Y-104030057D01*
X136258095Y-103934819D02*
X135781905Y-103934819D01*
X135781905Y-103934819D02*
X135734286Y-104411009D01*
X135734286Y-104411009D02*
X135781905Y-104363390D01*
X135781905Y-104363390D02*
X135877143Y-104315771D01*
X135877143Y-104315771D02*
X136115238Y-104315771D01*
X136115238Y-104315771D02*
X136210476Y-104363390D01*
X136210476Y-104363390D02*
X136258095Y-104411009D01*
X136258095Y-104411009D02*
X136305714Y-104506247D01*
X136305714Y-104506247D02*
X136305714Y-104744342D01*
X136305714Y-104744342D02*
X136258095Y-104839580D01*
X136258095Y-104839580D02*
X136210476Y-104887200D01*
X136210476Y-104887200D02*
X136115238Y-104934819D01*
X136115238Y-104934819D02*
X135877143Y-104934819D01*
X135877143Y-104934819D02*
X135781905Y-104887200D01*
X135781905Y-104887200D02*
X135734286Y-104839580D01*
X78863333Y-112319580D02*
X78815714Y-112367200D01*
X78815714Y-112367200D02*
X78672857Y-112414819D01*
X78672857Y-112414819D02*
X78577619Y-112414819D01*
X78577619Y-112414819D02*
X78434762Y-112367200D01*
X78434762Y-112367200D02*
X78339524Y-112271961D01*
X78339524Y-112271961D02*
X78291905Y-112176723D01*
X78291905Y-112176723D02*
X78244286Y-111986247D01*
X78244286Y-111986247D02*
X78244286Y-111843390D01*
X78244286Y-111843390D02*
X78291905Y-111652914D01*
X78291905Y-111652914D02*
X78339524Y-111557676D01*
X78339524Y-111557676D02*
X78434762Y-111462438D01*
X78434762Y-111462438D02*
X78577619Y-111414819D01*
X78577619Y-111414819D02*
X78672857Y-111414819D01*
X78672857Y-111414819D02*
X78815714Y-111462438D01*
X78815714Y-111462438D02*
X78863333Y-111510057D01*
X79720476Y-111748152D02*
X79720476Y-112414819D01*
X79482381Y-111367200D02*
X79244286Y-112081485D01*
X79244286Y-112081485D02*
X79863333Y-112081485D01*
X78723333Y-107619580D02*
X78675714Y-107667200D01*
X78675714Y-107667200D02*
X78532857Y-107714819D01*
X78532857Y-107714819D02*
X78437619Y-107714819D01*
X78437619Y-107714819D02*
X78294762Y-107667200D01*
X78294762Y-107667200D02*
X78199524Y-107571961D01*
X78199524Y-107571961D02*
X78151905Y-107476723D01*
X78151905Y-107476723D02*
X78104286Y-107286247D01*
X78104286Y-107286247D02*
X78104286Y-107143390D01*
X78104286Y-107143390D02*
X78151905Y-106952914D01*
X78151905Y-106952914D02*
X78199524Y-106857676D01*
X78199524Y-106857676D02*
X78294762Y-106762438D01*
X78294762Y-106762438D02*
X78437619Y-106714819D01*
X78437619Y-106714819D02*
X78532857Y-106714819D01*
X78532857Y-106714819D02*
X78675714Y-106762438D01*
X78675714Y-106762438D02*
X78723333Y-106810057D01*
X79056667Y-106714819D02*
X79675714Y-106714819D01*
X79675714Y-106714819D02*
X79342381Y-107095771D01*
X79342381Y-107095771D02*
X79485238Y-107095771D01*
X79485238Y-107095771D02*
X79580476Y-107143390D01*
X79580476Y-107143390D02*
X79628095Y-107191009D01*
X79628095Y-107191009D02*
X79675714Y-107286247D01*
X79675714Y-107286247D02*
X79675714Y-107524342D01*
X79675714Y-107524342D02*
X79628095Y-107619580D01*
X79628095Y-107619580D02*
X79580476Y-107667200D01*
X79580476Y-107667200D02*
X79485238Y-107714819D01*
X79485238Y-107714819D02*
X79199524Y-107714819D01*
X79199524Y-107714819D02*
X79104286Y-107667200D01*
X79104286Y-107667200D02*
X79056667Y-107619580D01*
X77953333Y-94249580D02*
X77905714Y-94297200D01*
X77905714Y-94297200D02*
X77762857Y-94344819D01*
X77762857Y-94344819D02*
X77667619Y-94344819D01*
X77667619Y-94344819D02*
X77524762Y-94297200D01*
X77524762Y-94297200D02*
X77429524Y-94201961D01*
X77429524Y-94201961D02*
X77381905Y-94106723D01*
X77381905Y-94106723D02*
X77334286Y-93916247D01*
X77334286Y-93916247D02*
X77334286Y-93773390D01*
X77334286Y-93773390D02*
X77381905Y-93582914D01*
X77381905Y-93582914D02*
X77429524Y-93487676D01*
X77429524Y-93487676D02*
X77524762Y-93392438D01*
X77524762Y-93392438D02*
X77667619Y-93344819D01*
X77667619Y-93344819D02*
X77762857Y-93344819D01*
X77762857Y-93344819D02*
X77905714Y-93392438D01*
X77905714Y-93392438D02*
X77953333Y-93440057D01*
X78334286Y-93440057D02*
X78381905Y-93392438D01*
X78381905Y-93392438D02*
X78477143Y-93344819D01*
X78477143Y-93344819D02*
X78715238Y-93344819D01*
X78715238Y-93344819D02*
X78810476Y-93392438D01*
X78810476Y-93392438D02*
X78858095Y-93440057D01*
X78858095Y-93440057D02*
X78905714Y-93535295D01*
X78905714Y-93535295D02*
X78905714Y-93630533D01*
X78905714Y-93630533D02*
X78858095Y-93773390D01*
X78858095Y-93773390D02*
X78286667Y-94344819D01*
X78286667Y-94344819D02*
X78905714Y-94344819D01*
X72953333Y-94269580D02*
X72905714Y-94317200D01*
X72905714Y-94317200D02*
X72762857Y-94364819D01*
X72762857Y-94364819D02*
X72667619Y-94364819D01*
X72667619Y-94364819D02*
X72524762Y-94317200D01*
X72524762Y-94317200D02*
X72429524Y-94221961D01*
X72429524Y-94221961D02*
X72381905Y-94126723D01*
X72381905Y-94126723D02*
X72334286Y-93936247D01*
X72334286Y-93936247D02*
X72334286Y-93793390D01*
X72334286Y-93793390D02*
X72381905Y-93602914D01*
X72381905Y-93602914D02*
X72429524Y-93507676D01*
X72429524Y-93507676D02*
X72524762Y-93412438D01*
X72524762Y-93412438D02*
X72667619Y-93364819D01*
X72667619Y-93364819D02*
X72762857Y-93364819D01*
X72762857Y-93364819D02*
X72905714Y-93412438D01*
X72905714Y-93412438D02*
X72953333Y-93460057D01*
X73905714Y-94364819D02*
X73334286Y-94364819D01*
X73620000Y-94364819D02*
X73620000Y-93364819D01*
X73620000Y-93364819D02*
X73524762Y-93507676D01*
X73524762Y-93507676D02*
X73429524Y-93602914D01*
X73429524Y-93602914D02*
X73334286Y-93650533D01*
D11*
%TO.C,X2*%
X119305000Y-94260000D02*
X119305000Y-91360000D01*
X122305000Y-94260000D02*
X119305000Y-94260000D01*
X118405000Y-93760000D02*
X118205000Y-93760000D01*
X119305000Y-93160000D02*
X118405000Y-93760000D01*
X119305000Y-92460000D02*
X118405000Y-91860000D01*
X118405000Y-91860000D02*
X118205000Y-91860000D01*
X119305000Y-91360000D02*
X122305000Y-91360000D01*
%TO.C,X1*%
X120030000Y-101035000D02*
X120030000Y-107285000D01*
X114980000Y-101035000D02*
X114980000Y-107285000D01*
X114980000Y-101035000D02*
G75*
G02*
X120030000Y-101035000I2525000J0D01*
G01*
X120030000Y-107285000D02*
G75*
G02*
X114980000Y-107285000I-2525000J0D01*
G01*
%TO.C,USB1*%
X66061500Y-94220000D02*
X67761500Y-94220000D01*
X66061500Y-103560000D02*
X67761500Y-103560000D01*
%TO.C,SW1*%
X134160000Y-97801625D02*
X135660000Y-97801625D01*
X138160000Y-96551625D02*
X138160000Y-92051625D01*
X131660000Y-92051625D02*
X131660000Y-96551625D01*
X135660000Y-90801625D02*
X134160000Y-90801625D01*
%TO.C,R6*%
X66715000Y-106190000D02*
X66645000Y-106190000D01*
X69455000Y-106190000D02*
G75*
G02*
X66715000Y-106190000I-1370000J0D01*
G01*
X66715000Y-106190000D02*
G75*
G02*
X69455000Y-106190000I1370000J0D01*
G01*
%TO.C,R5*%
X66715000Y-109965000D02*
X66645000Y-109965000D01*
X69455000Y-109965000D02*
G75*
G02*
X66715000Y-109965000I-1370000J0D01*
G01*
X66715000Y-109965000D02*
G75*
G02*
X69455000Y-109965000I1370000J0D01*
G01*
%TO.C,R4*%
X66715000Y-113740000D02*
X66645000Y-113740000D01*
X69455000Y-113740000D02*
G75*
G02*
X66715000Y-113740000I-1370000J0D01*
G01*
X66715000Y-113740000D02*
G75*
G02*
X69455000Y-113740000I1370000J0D01*
G01*
%TO.C,R3*%
X135815000Y-116160000D02*
X135885000Y-116160000D01*
X135815000Y-116160000D02*
G75*
G02*
X133075000Y-116160000I-1370000J0D01*
G01*
X133075000Y-116160000D02*
G75*
G02*
X135815000Y-116160000I1370000J0D01*
G01*
%TO.C,R2*%
X73695000Y-113740000D02*
X73625000Y-113740000D01*
X76435000Y-113740000D02*
G75*
G02*
X73695000Y-113740000I-1370000J0D01*
G01*
X73695000Y-113740000D02*
G75*
G02*
X76435000Y-113740000I1370000J0D01*
G01*
%TO.C,R1*%
X135165000Y-86380000D02*
X135095000Y-86380000D01*
X137905000Y-86380000D02*
G75*
G02*
X135165000Y-86380000I-1370000J0D01*
G01*
X135165000Y-86380000D02*
G75*
G02*
X137905000Y-86380000I1370000J0D01*
G01*
%TO.C,LED2*%
X133029000Y-107850375D02*
X133029000Y-108036375D01*
X133029000Y-110136375D02*
X133029000Y-110322375D01*
X134017500Y-107943375D02*
X134525500Y-107435375D01*
X134271500Y-108514875D02*
X134271500Y-109657875D01*
X134652500Y-107943375D02*
X135160500Y-107435375D01*
X133029000Y-107850859D02*
G75*
G02*
X136261335Y-108007767I1560000J-1235516D01*
G01*
X136261335Y-110164983D02*
G75*
G02*
X133029000Y-110321891I-1672335J1078608D01*
G01*
X134525500Y-107689375D02*
X134271500Y-107435375D01*
X134525500Y-107435375D01*
X134525500Y-107689375D01*
G36*
X134525500Y-107689375D02*
G01*
X134271500Y-107435375D01*
X134525500Y-107435375D01*
X134525500Y-107689375D01*
G37*
X134906500Y-109657875D02*
X134271500Y-109086375D01*
X134906500Y-108514875D01*
X134906500Y-109657875D01*
G36*
X134906500Y-109657875D02*
G01*
X134271500Y-109086375D01*
X134906500Y-108514875D01*
X134906500Y-109657875D01*
G37*
X135160500Y-107689375D02*
X134906500Y-107435375D01*
X135160500Y-107435375D01*
X135160500Y-107689375D01*
G36*
X135160500Y-107689375D02*
G01*
X134906500Y-107435375D01*
X135160500Y-107435375D01*
X135160500Y-107689375D01*
G37*
%TO.C,LED1*%
X75940000Y-109136000D02*
X75940000Y-108950000D01*
X75940000Y-106850000D02*
X75940000Y-106664000D01*
X74951500Y-109043000D02*
X74443500Y-109551000D01*
X74697500Y-108471500D02*
X74697500Y-107328500D01*
X74316500Y-109043000D02*
X73808500Y-109551000D01*
X75940000Y-109135516D02*
G75*
G02*
X72707665Y-108978608I-1560000J1235516D01*
G01*
X72707665Y-106821392D02*
G75*
G02*
X75940000Y-106664484I1672335J-1078608D01*
G01*
X74697500Y-109551000D02*
X74443500Y-109551000D01*
X74443500Y-109297000D01*
X74697500Y-109551000D01*
G36*
X74697500Y-109551000D02*
G01*
X74443500Y-109551000D01*
X74443500Y-109297000D01*
X74697500Y-109551000D01*
G37*
X74697500Y-107900000D02*
X74062500Y-108471500D01*
X74062500Y-107328500D01*
X74697500Y-107900000D01*
G36*
X74697500Y-107900000D02*
G01*
X74062500Y-108471500D01*
X74062500Y-107328500D01*
X74697500Y-107900000D01*
G37*
X74062500Y-109551000D02*
X73808500Y-109551000D01*
X73808500Y-109297000D01*
X74062500Y-109551000D01*
G36*
X74062500Y-109551000D02*
G01*
X73808500Y-109551000D01*
X73808500Y-109297000D01*
X74062500Y-109551000D01*
G37*
%TO.C,H5*%
X121610000Y-116000000D02*
X121610000Y-114670000D01*
X122940000Y-116000000D02*
X121610000Y-116000000D01*
X124210000Y-116000000D02*
X126810000Y-116000000D01*
X124210000Y-116000000D02*
X124210000Y-113340000D01*
X126810000Y-116000000D02*
X126810000Y-113340000D01*
X124210000Y-113340000D02*
X126810000Y-113340000D01*
%TO.C,H4*%
X65980000Y-86420000D02*
X65980000Y-85090000D01*
X67310000Y-86420000D02*
X65980000Y-86420000D01*
X68580000Y-86420000D02*
X76260000Y-86420000D01*
X68580000Y-86420000D02*
X68580000Y-83760000D01*
X76260000Y-86420000D02*
X76260000Y-83760000D01*
X68580000Y-83760000D02*
X76260000Y-83760000D01*
%TO.C,H3*%
X127060000Y-83760000D02*
X127060000Y-85090000D01*
X125730000Y-83760000D02*
X127060000Y-83760000D01*
X124460000Y-83760000D02*
X76140000Y-83760000D01*
X124460000Y-83760000D02*
X124460000Y-86420000D01*
X76140000Y-83760000D02*
X76140000Y-86420000D01*
X124460000Y-86420000D02*
X76140000Y-86420000D01*
%TO.C,H2*%
X76140000Y-119440000D02*
X76140000Y-118110000D01*
X77470000Y-119440000D02*
X76140000Y-119440000D01*
X78740000Y-119440000D02*
X127060000Y-119440000D01*
X78740000Y-119440000D02*
X78740000Y-116780000D01*
X127060000Y-119440000D02*
X127060000Y-116780000D01*
X78740000Y-116780000D02*
X127060000Y-116780000D01*
%TO.C,H1*%
X76260000Y-116780000D02*
X76260000Y-118110000D01*
X74930000Y-116780000D02*
X76260000Y-116780000D01*
X73660000Y-116780000D02*
X68520000Y-116780000D01*
X73660000Y-116780000D02*
X73660000Y-119440000D01*
X68520000Y-116780000D02*
X68520000Y-119440000D01*
X73660000Y-119440000D02*
X68520000Y-119440000D01*
%TO.C,C15*%
X123280000Y-95650000D02*
X123280000Y-94650000D01*
X123280000Y-95650000D02*
X123280000Y-96650000D01*
X124280000Y-95650000D02*
X123280000Y-95650000D01*
X122680000Y-96650000D02*
X122680000Y-94650000D01*
X122680000Y-95650000D02*
X121680000Y-95650000D01*
X125218644Y-96983500D02*
G75*
G02*
X120844500Y-97003676I-2215144J6075820D01*
G01*
X120851856Y-94336677D02*
G75*
G02*
X125226000Y-94316501I2215144J-6075823D01*
G01*
%TO.C,C14*%
X123280000Y-89970000D02*
X123280000Y-88970000D01*
X123280000Y-89970000D02*
X123280000Y-90970000D01*
X124280000Y-89970000D02*
X123280000Y-89970000D01*
X122680000Y-90970000D02*
X122680000Y-88970000D01*
X122680000Y-89970000D02*
X121680000Y-89970000D01*
X125218644Y-91303500D02*
G75*
G02*
X120844500Y-91323676I-2215144J6075820D01*
G01*
X120851856Y-88656677D02*
G75*
G02*
X125226000Y-88636501I2215144J-6075823D01*
G01*
%TO.C,C13*%
X125780000Y-107010000D02*
X125780000Y-106010000D01*
X125780000Y-107010000D02*
X125780000Y-108010000D01*
X126780000Y-107010000D02*
X125780000Y-107010000D01*
X125180000Y-108010000D02*
X125180000Y-106010000D01*
X125180000Y-107010000D02*
X124180000Y-107010000D01*
X127718644Y-108343500D02*
G75*
G02*
X123344500Y-108363676I-2215144J6075820D01*
G01*
X123351856Y-105696677D02*
G75*
G02*
X127726000Y-105676501I2215144J-6075823D01*
G01*
%TO.C,C12*%
X125180000Y-101330000D02*
X125180000Y-102330000D01*
X125180000Y-101330000D02*
X125180000Y-100330000D01*
X124180000Y-101330000D02*
X125180000Y-101330000D01*
X125780000Y-100330000D02*
X125780000Y-102330000D01*
X125780000Y-101330000D02*
X126780000Y-101330000D01*
X123241356Y-99996500D02*
G75*
G02*
X127615500Y-99976324I2215144J-6075820D01*
G01*
X127608144Y-102643323D02*
G75*
G02*
X123234000Y-102663499I-2215144J6075823D01*
G01*
%TO.C,C11*%
X107410000Y-106350000D02*
X108410000Y-106350000D01*
X107410000Y-106350000D02*
X106410000Y-106350000D01*
X107410000Y-107350000D02*
X107410000Y-106350000D01*
X106410000Y-105750000D02*
X108410000Y-105750000D01*
X107410000Y-105750000D02*
X107410000Y-104750000D01*
X106076500Y-108288644D02*
G75*
G02*
X106056324Y-103914500I6075820J2215144D01*
G01*
X108723323Y-103921856D02*
G75*
G02*
X108743499Y-108296000I-6075823J-2215144D01*
G01*
%TO.C,C10*%
X70260000Y-90030000D02*
X70260000Y-91030000D01*
X70260000Y-90030000D02*
X70260000Y-89030000D01*
X69260000Y-90030000D02*
X70260000Y-90030000D01*
X70860000Y-89030000D02*
X70860000Y-91030000D01*
X70860000Y-90030000D02*
X71860000Y-90030000D01*
X68321356Y-88696500D02*
G75*
G02*
X72695500Y-88676324I2215144J-6075820D01*
G01*
X72688144Y-91343323D02*
G75*
G02*
X68314000Y-91363499I-2215144J6075823D01*
G01*
%TO.C,C8*%
X110030000Y-96580000D02*
X110030000Y-95580000D01*
X110030000Y-96580000D02*
X110030000Y-97580000D01*
X111030000Y-96580000D02*
X110030000Y-96580000D01*
X109430000Y-97580000D02*
X109430000Y-95580000D01*
X109430000Y-96580000D02*
X108430000Y-96580000D01*
X111968644Y-97913500D02*
G75*
G02*
X107594500Y-97933676I-2215144J6075820D01*
G01*
X107601856Y-95266677D02*
G75*
G02*
X111976000Y-95246501I2215144J-6075823D01*
G01*
%TO.C,C7*%
X110030000Y-90725000D02*
X110030000Y-89725000D01*
X110030000Y-90725000D02*
X110030000Y-91725000D01*
X111030000Y-90725000D02*
X110030000Y-90725000D01*
X109430000Y-91725000D02*
X109430000Y-89725000D01*
X109430000Y-90725000D02*
X108430000Y-90725000D01*
X111968644Y-92058500D02*
G75*
G02*
X107594500Y-92078676I-2215144J6075820D01*
G01*
X107601856Y-89411677D02*
G75*
G02*
X111976000Y-89391501I2215144J-6075823D01*
G01*
%TO.C,C6*%
X93480000Y-107100000D02*
X94480000Y-107100000D01*
X93480000Y-107100000D02*
X92480000Y-107100000D01*
X93480000Y-108100000D02*
X93480000Y-107100000D01*
X92480000Y-106500000D02*
X94480000Y-106500000D01*
X93480000Y-106500000D02*
X93480000Y-105500000D01*
X92146500Y-109038644D02*
G75*
G02*
X92126324Y-104664500I6075820J2215144D01*
G01*
X94793323Y-104671856D02*
G75*
G02*
X94813499Y-109046000I-6075823J-2215144D01*
G01*
%TO.C,C5*%
X132467500Y-102825500D02*
X132467500Y-101238000D01*
X134563000Y-102000000D02*
X134563000Y-102600000D01*
X134860000Y-102000000D02*
X134860000Y-101400000D01*
X134436000Y-102000000D02*
X134563000Y-102000000D01*
X134563000Y-102000000D02*
X134563000Y-101400000D01*
X137039500Y-101174500D02*
X137039500Y-102762000D01*
X134860000Y-102000000D02*
X134860000Y-102600000D01*
X134987000Y-102000000D02*
X134860000Y-102000000D01*
X137038127Y-102759477D02*
G75*
G02*
X132467500Y-102825499I-2348127J4315477D01*
G01*
X132468873Y-101240523D02*
G75*
G02*
X137039500Y-101174501I2348127J-4315477D01*
G01*
%TO.C,C4*%
X84010000Y-112000000D02*
X84010000Y-113000000D01*
X84010000Y-112000000D02*
X84010000Y-111000000D01*
X83010000Y-112000000D02*
X84010000Y-112000000D01*
X84610000Y-111000000D02*
X84610000Y-113000000D01*
X84610000Y-112000000D02*
X85610000Y-112000000D01*
X82071356Y-110666500D02*
G75*
G02*
X86445500Y-110646324I2215144J-6075820D01*
G01*
X86438144Y-113313323D02*
G75*
G02*
X82064000Y-113333499I-2215144J6075823D01*
G01*
%TO.C,C3*%
X84040000Y-107000000D02*
X84040000Y-108000000D01*
X84040000Y-107000000D02*
X84040000Y-106000000D01*
X83040000Y-107000000D02*
X84040000Y-107000000D01*
X84640000Y-106000000D02*
X84640000Y-108000000D01*
X84640000Y-107000000D02*
X85640000Y-107000000D01*
X82101356Y-105666500D02*
G75*
G02*
X86475500Y-105646324I2215144J-6075820D01*
G01*
X86468144Y-108313323D02*
G75*
G02*
X82094000Y-108333499I-2215144J6075823D01*
G01*
%TO.C,C2*%
X78377500Y-98810000D02*
X79377500Y-98810000D01*
X78377500Y-98810000D02*
X77377500Y-98810000D01*
X78377500Y-99810000D02*
X78377500Y-98810000D01*
X77377500Y-98210000D02*
X79377500Y-98210000D01*
X78377500Y-98210000D02*
X78377500Y-97210000D01*
X77044000Y-100748644D02*
G75*
G02*
X77023824Y-96374500I6075820J2215144D01*
G01*
X79690823Y-96381856D02*
G75*
G02*
X79710999Y-100756000I-6075823J-2215144D01*
G01*
%TO.C,C1*%
X73377500Y-98830000D02*
X74377500Y-98830000D01*
X73377500Y-98830000D02*
X72377500Y-98830000D01*
X73377500Y-99830000D02*
X73377500Y-98830000D01*
X72377500Y-98230000D02*
X74377500Y-98230000D01*
X73377500Y-98230000D02*
X73377500Y-97230000D01*
X72044000Y-100768644D02*
G75*
G02*
X72023824Y-96394500I6075820J2215144D01*
G01*
X74690823Y-96401856D02*
G75*
G02*
X74710999Y-100776000I-6075823J-2215144D01*
G01*
%TD*%
M02*
