G04 Layer: TopLayer*
G04 EasyEDA Pro v2.2.27.1, 2024-09-15 10:59:50*
G04 Gerber Generator version 0.3*
G04 Scale: 100 percent, Rotated: No, Reflected: No*
G04 Dimensions in millimeters*
G04 Leading zeros omitted, absolute positions, 3 integers and 5 decimals*
%TF.GenerationSoftware,KiCad,Pcbnew,8.0.5*%
%TF.CreationDate,2024-10-21T18:28:28+08:00*%
%TF.ProjectId,redraw_TH,72656472-6177-45f5-9448-2e6b69636164,rev?*%
%TF.SameCoordinates,Original*%
%TF.FileFunction,Copper,L1,Top*%
%TF.FilePolarity,Positive*%
%FSLAX46Y46*%
G04 Gerber Fmt 4.6, Leading zero omitted, Abs format (unit mm)*
G04 Created by KiCad (PCBNEW 8.0.5) date 2024-10-21 18:28:28*
%MOMM*%
%LPD*%
G01*
G04 APERTURE LIST*
G04 Aperture macros list*
%AMRoundRect*
0 Rectangle with rounded corners*
0 $1 Rounding radius*
0 $2 $3 $4 $5 $6 $7 $8 $9 X,Y pos of 4 corners*
0 Add a 4 corners polygon primitive as box body*
4,1,4,$2,$3,$4,$5,$6,$7,$8,$9,$2,$3,0*
0 Add four circle primitives for the rounded corners*
1,1,$1+$1,$2,$3*
1,1,$1+$1,$4,$5*
1,1,$1+$1,$6,$7*
1,1,$1+$1,$8,$9*
0 Add four rect primitives between the rounded corners*
20,1,$1+$1,$2,$3,$4,$5,0*
20,1,$1+$1,$4,$5,$6,$7,0*
20,1,$1+$1,$6,$7,$8,$9,0*
20,1,$1+$1,$8,$9,$2,$3,0*%
G04 Aperture macros list end*
%TA.AperFunction,Conductor*%
%ADD10C,0.200000*%
%TD*%
%TA.AperFunction,ComponentPad*%
%ADD11C,1.000000*%
%TD*%
%TA.AperFunction,ComponentPad*%
%ADD12R,1.000000X1.000000*%
%TD*%
%TA.AperFunction,SMDPad,CuDef*%
%ADD13R,6.000000X2.500000*%
%TD*%
%TA.AperFunction,ComponentPad*%
%ADD14C,1.500000*%
%TD*%
%TA.AperFunction,ComponentPad*%
%ADD15C,2.500000*%
%TD*%
%TA.AperFunction,SMDPad,CuDef*%
%ADD16RoundRect,0.175000X-0.425000X0.175000X-0.425000X-0.175000X0.425000X-0.175000X0.425000X0.175000X0*%
%TD*%
%TA.AperFunction,SMDPad,CuDef*%
%ADD17RoundRect,0.190000X0.410000X-0.190000X0.410000X0.190000X-0.410000X0.190000X-0.410000X-0.190000X0*%
%TD*%
%TA.AperFunction,SMDPad,CuDef*%
%ADD18RoundRect,0.200000X0.400000X-0.200000X0.400000X0.200000X-0.400000X0.200000X-0.400000X-0.200000X0*%
%TD*%
%TA.AperFunction,SMDPad,CuDef*%
%ADD19RoundRect,0.175000X0.425000X-0.175000X0.425000X0.175000X-0.425000X0.175000X-0.425000X-0.175000X0*%
%TD*%
%TA.AperFunction,SMDPad,CuDef*%
%ADD20RoundRect,0.190000X-0.410000X0.190000X-0.410000X-0.190000X0.410000X-0.190000X0.410000X0.190000X0*%
%TD*%
%TA.AperFunction,SMDPad,CuDef*%
%ADD21RoundRect,0.200000X-0.400000X0.200000X-0.400000X-0.200000X0.400000X-0.200000X0.400000X0.200000X0*%
%TD*%
%TA.AperFunction,ComponentPad*%
%ADD22O,1.700000X1.100000*%
%TD*%
%TA.AperFunction,ComponentPad*%
%ADD23C,2.000000*%
%TD*%
%TA.AperFunction,ComponentPad*%
%ADD24C,1.600000*%
%TD*%
%TA.AperFunction,ComponentPad*%
%ADD25O,1.600000X1.600000*%
%TD*%
%TA.AperFunction,ComponentPad*%
%ADD26R,1.400000X1.800000*%
%TD*%
%TA.AperFunction,ComponentPad*%
%ADD27O,1.400000X1.800000*%
%TD*%
%TA.AperFunction,ComponentPad*%
%ADD28R,1.700000X1.700000*%
%TD*%
%TA.AperFunction,ComponentPad*%
%ADD29O,1.700000X1.700000*%
%TD*%
%TA.AperFunction,ViaPad*%
%ADD30C,0.500000*%
%TD*%
%TA.AperFunction,Conductor*%
%ADD31C,0.800000*%
%TD*%
%TA.AperFunction,Conductor*%
%ADD32C,1.500000*%
%TD*%
%TA.AperFunction,Conductor*%
%ADD33C,1.000000*%
%TD*%
%TA.AperFunction,Conductor*%
%ADD34C,0.180000*%
%TD*%
G04 APERTURE END LIST*
%TO.N,GND*%
D10*
X124450000Y-91040000D02*
X126450000Y-91040000D01*
X126450000Y-94830000D01*
X124450000Y-94830000D01*
X124450000Y-91040000D01*
%TA.AperFunction,Conductor*%
G36*
X124450000Y-91040000D02*
G01*
X126450000Y-91040000D01*
X126450000Y-94830000D01*
X124450000Y-94830000D01*
X124450000Y-91040000D01*
G37*
%TD.AperFunction*%
%TD*%
D11*
%TO.P,X2,1,1*%
%TO.N,/OSC32-*%
X117505000Y-93760000D03*
%TO.P,X2,2,2*%
%TO.N,/OSC32+*%
X117505000Y-91860000D03*
D12*
%TO.P,X2,3,3*%
%TO.N,GND*%
X123005000Y-94310000D03*
D13*
X123005000Y-92810000D03*
D12*
X123005000Y-91310000D03*
%TD*%
D14*
%TO.P,X1,1,1*%
%TO.N,/OSC+*%
X117505000Y-101720000D03*
D15*
%TO.P,X1,2,2*%
%TO.N,GND*%
X117505000Y-104160000D03*
D14*
%TO.P,X1,3,3*%
%TO.N,/OSC-*%
X117505000Y-106600000D03*
%TD*%
D16*
%TO.P,USB1,A5,CC1*%
%TO.N,Net-(USB1-CC1)*%
X68891500Y-98390000D03*
D17*
%TO.P,USB1,A9,VBUS*%
%TO.N,VBUS*%
X68891500Y-100410000D03*
D18*
%TO.P,USB1,A12,GND*%
%TO.N,GND*%
X68891500Y-101640000D03*
D19*
%TO.P,USB1,B5,CC2*%
%TO.N,Net-(USB1-CC2)*%
X68891500Y-99390000D03*
D20*
%TO.P,USB1,B9,VBUS*%
%TO.N,VBUS*%
X68891500Y-97370000D03*
D21*
%TO.P,USB1,B12,GND*%
%TO.N,GND*%
X68891500Y-96140000D03*
D22*
%TO.P,USB1,S1,SHIELD*%
X68811500Y-94570000D03*
X65011500Y-94570000D03*
X68811500Y-103210000D03*
X65011500Y-103210000D03*
%TD*%
D23*
%TO.P,SW1,1*%
%TO.N,/NRST*%
X132660000Y-97551625D03*
X132660000Y-91051625D03*
%TO.P,SW1,2*%
%TO.N,GND*%
X137160000Y-97551625D03*
X137160000Y-91051625D03*
%TD*%
D24*
%TO.P,R6,1*%
%TO.N,GND*%
X68085000Y-106190000D03*
D25*
%TO.P,R6,2*%
%TO.N,Net-(USB1-CC1)*%
X65545000Y-106190000D03*
%TD*%
D24*
%TO.P,R5,1*%
%TO.N,GND*%
X68085000Y-109965000D03*
D25*
%TO.P,R5,2*%
%TO.N,Net-(USB1-CC2)*%
X65545000Y-109965000D03*
%TD*%
D24*
%TO.P,R4,1*%
%TO.N,/BOOT0*%
X68085000Y-113740000D03*
D25*
%TO.P,R4,2*%
%TO.N,Net-(H1-Pin_2)*%
X65545000Y-113740000D03*
%TD*%
D24*
%TO.P,R3,1*%
%TO.N,/PC13*%
X134445000Y-116160000D03*
D25*
%TO.P,R3,2*%
%TO.N,Net-(LED2-A)*%
X136985000Y-116160000D03*
%TD*%
D24*
%TO.P,R2,1*%
%TO.N,VCC*%
X75065000Y-113740000D03*
D25*
%TO.P,R2,2*%
%TO.N,Net-(LED1-A)*%
X72525000Y-113740000D03*
%TD*%
D24*
%TO.P,R1,1*%
%TO.N,/NRST*%
X136535000Y-86380000D03*
D25*
%TO.P,R1,2*%
%TO.N,VCC*%
X133995000Y-86380000D03*
%TD*%
D26*
%TO.P,LED2,1,K*%
%TO.N,GND*%
X133319000Y-109086375D03*
D27*
%TO.P,LED2,2,A*%
%TO.N,Net-(LED2-A)*%
X135859000Y-109086375D03*
%TD*%
D26*
%TO.P,LED1,1,K*%
%TO.N,GND*%
X75650000Y-107900000D03*
D27*
%TO.P,LED1,2,A*%
%TO.N,Net-(LED1-A)*%
X73110000Y-107900000D03*
%TD*%
D28*
%TO.P,H5,1,Pin_1*%
%TO.N,VBAT*%
X122940000Y-114670000D03*
D29*
%TO.P,H5,2,Pin_2*%
X125480000Y-114670000D03*
%TD*%
D28*
%TO.P,H4,1,Pin_1*%
%TO.N,GND*%
X67310000Y-85090000D03*
D29*
%TO.P,H4,2,Pin_2*%
%TO.N,/PA14{slash}SWCLK*%
X69850000Y-85090000D03*
%TO.P,H4,3,Pin_3*%
%TO.N,/PA13{slash}SWDIO*%
X72390000Y-85090000D03*
%TO.P,H4,4,Pin_4*%
%TO.N,VCC*%
X74930000Y-85090000D03*
%TD*%
D28*
%TO.P,H3,1,Pin_1*%
%TO.N,VCC*%
X125730000Y-85090000D03*
D29*
%TO.P,H3,2,Pin_2*%
%TO.N,GND*%
X123190000Y-85090000D03*
%TO.P,H3,3,Pin_3*%
%TO.N,unconnected-(H3-Pin_3-Pad3)*%
X120650000Y-85090000D03*
%TO.P,H3,4,Pin_4*%
%TO.N,/PB9*%
X118110000Y-85090000D03*
%TO.P,H3,5,Pin_5*%
%TO.N,/PB8*%
X115570000Y-85090000D03*
%TO.P,H3,6,Pin_6*%
%TO.N,/PB7*%
X113030000Y-85090000D03*
%TO.P,H3,7,Pin_7*%
%TO.N,/PB6*%
X110490000Y-85090000D03*
%TO.P,H3,8,Pin_8*%
%TO.N,/PB5*%
X107950000Y-85090000D03*
%TO.P,H3,9,Pin_9*%
%TO.N,/PB4*%
X105410000Y-85090000D03*
%TO.P,H3,10,Pin_10*%
%TO.N,/PB3*%
X102870000Y-85090000D03*
%TO.P,H3,11,Pin_11*%
%TO.N,/PA15*%
X100330000Y-85090000D03*
%TO.P,H3,12,Pin_12*%
%TO.N,/PA12*%
X97790000Y-85090000D03*
%TO.P,H3,13,Pin_13*%
%TO.N,/PA11*%
X95250000Y-85090000D03*
%TO.P,H3,14,Pin_14*%
%TO.N,/PA10*%
X92710000Y-85090000D03*
%TO.P,H3,15,Pin_15*%
%TO.N,/PA9*%
X90170000Y-85090000D03*
%TO.P,H3,16,Pin_16*%
%TO.N,/PA8*%
X87630000Y-85090000D03*
%TO.P,H3,17,Pin_17*%
%TO.N,/PB15*%
X85090000Y-85090000D03*
%TO.P,H3,18,Pin_18*%
%TO.N,/PB14*%
X82550000Y-85090000D03*
%TO.P,H3,19,Pin_19*%
%TO.N,/PB13*%
X80010000Y-85090000D03*
%TO.P,H3,20,Pin_20*%
%TO.N,/PB12*%
X77470000Y-85090000D03*
%TD*%
D28*
%TO.P,H2,1,Pin_1*%
%TO.N,VBUS*%
X77470000Y-118110000D03*
D29*
%TO.P,H2,2,Pin_2*%
%TO.N,GND*%
X80010000Y-118110000D03*
%TO.P,H2,3,Pin_3*%
%TO.N,VCC*%
X82550000Y-118110000D03*
%TO.P,H2,4,Pin_4*%
%TO.N,/NRST*%
X85090000Y-118110000D03*
%TO.P,H2,5,Pin_5*%
%TO.N,/PB11*%
X87630000Y-118110000D03*
%TO.P,H2,6,Pin_6*%
%TO.N,/PB10*%
X90170000Y-118110000D03*
%TO.P,H2,7,Pin_7*%
%TO.N,/PB1*%
X92710000Y-118110000D03*
%TO.P,H2,8,Pin_8*%
%TO.N,/PB0*%
X95250000Y-118110000D03*
%TO.P,H2,9,Pin_9*%
%TO.N,/PA7*%
X97790000Y-118110000D03*
%TO.P,H2,10,Pin_10*%
%TO.N,/PA6*%
X100330000Y-118110000D03*
%TO.P,H2,11,Pin_11*%
%TO.N,/PA5*%
X102870000Y-118110000D03*
%TO.P,H2,12,Pin_12*%
%TO.N,/PA4*%
X105410000Y-118110000D03*
%TO.P,H2,13,Pin_13*%
%TO.N,/PA3*%
X107950000Y-118110000D03*
%TO.P,H2,14,Pin_14*%
%TO.N,/PA2*%
X110490000Y-118110000D03*
%TO.P,H2,15,Pin_15*%
%TO.N,/PA1*%
X113030000Y-118110000D03*
%TO.P,H2,16,Pin_16*%
%TO.N,/PA0*%
X115570000Y-118110000D03*
%TO.P,H2,17,Pin_17*%
%TO.N,/PC13*%
X118110000Y-118110000D03*
%TO.P,H2,18,Pin_18*%
%TO.N,unconnected-(H2-Pin_18-Pad18)*%
X120650000Y-118110000D03*
%TO.P,H2,19,Pin_19*%
%TO.N,VREF_PIN*%
X123190000Y-118110000D03*
%TO.P,H2,20,Pin_20*%
%TO.N,VCC*%
X125730000Y-118110000D03*
%TD*%
D28*
%TO.P,H1,1,Pin_1*%
%TO.N,VCC*%
X74930000Y-118110000D03*
D29*
%TO.P,H1,2,Pin_2*%
%TO.N,Net-(H1-Pin_2)*%
X72390000Y-118110000D03*
%TO.P,H1,3,Pin_3*%
%TO.N,GND*%
X69850000Y-118110000D03*
%TD*%
D24*
%TO.P,C15,1*%
%TO.N,GND*%
X125480000Y-95650000D03*
%TO.P,C15,2*%
%TO.N,/OSC32-*%
X120480000Y-95650000D03*
%TD*%
%TO.P,C14,1*%
%TO.N,GND*%
X125480000Y-89970000D03*
%TO.P,C14,2*%
%TO.N,/OSC32+*%
X120480000Y-89970000D03*
%TD*%
%TO.P,C13,1*%
%TO.N,GND*%
X127980000Y-107010000D03*
%TO.P,C13,2*%
%TO.N,/OSC-*%
X122980000Y-107010000D03*
%TD*%
%TO.P,C12,1*%
%TO.N,/OSC+*%
X122980000Y-101330000D03*
%TO.P,C12,2*%
%TO.N,GND*%
X127980000Y-101330000D03*
%TD*%
%TO.P,C11,1*%
%TO.N,GND*%
X107410000Y-108550000D03*
%TO.P,C11,2*%
%TO.N,VBAT*%
X107410000Y-103550000D03*
%TD*%
%TO.P,C10,1*%
%TO.N,GND*%
X68060000Y-90030000D03*
%TO.P,C10,2*%
%TO.N,VCC*%
X73060000Y-90030000D03*
%TD*%
%TO.P,C8,1*%
%TO.N,GND*%
X112230000Y-96580000D03*
%TO.P,C8,2*%
%TO.N,VCC*%
X107230000Y-96580000D03*
%TD*%
%TO.P,C7,1*%
%TO.N,GND*%
X112230000Y-90725000D03*
%TO.P,C7,2*%
%TO.N,VCC*%
X107230000Y-90725000D03*
%TD*%
%TO.P,C6,1*%
%TO.N,GND*%
X93480000Y-109300000D03*
%TO.P,C6,2*%
%TO.N,VCC*%
X93480000Y-104300000D03*
%TD*%
%TO.P,C5,1*%
%TO.N,GND*%
X135960000Y-102000000D03*
%TO.P,C5,2*%
%TO.N,/NRST*%
X133460000Y-102000000D03*
%TD*%
%TO.P,C4,1*%
%TO.N,GND*%
X81810000Y-112000000D03*
%TO.P,C4,2*%
%TO.N,VCC*%
X86810000Y-112000000D03*
%TD*%
%TO.P,C3,1*%
%TO.N,GND*%
X81840000Y-107000000D03*
%TO.P,C3,2*%
%TO.N,VCC*%
X86840000Y-107000000D03*
%TD*%
%TO.P,C2,1*%
%TO.N,GND*%
X78377500Y-101010000D03*
%TO.P,C2,2*%
%TO.N,VBUS*%
X78377500Y-96010000D03*
%TD*%
%TO.P,C1,1*%
%TO.N,GND*%
X73377500Y-101030000D03*
%TO.P,C1,2*%
%TO.N,VBUS*%
X73377500Y-96030000D03*
%TD*%
D30*
%TO.N,/NRST*%
X101980000Y-101440000D03*
X97360000Y-106950000D03*
%TO.N,GND*%
X99020000Y-120420000D03*
X99490000Y-102280000D03*
X121380000Y-105750000D03*
X124060000Y-97420000D03*
X99070000Y-82770000D03*
X62980000Y-93060000D03*
X107430000Y-106660000D03*
X108800000Y-95880000D03*
X68590000Y-82770000D03*
X106850000Y-105270000D03*
X71190000Y-96110000D03*
X113720000Y-94040000D03*
X112710000Y-109220000D03*
X111430000Y-99050000D03*
X106640000Y-120420000D03*
X110410000Y-94070000D03*
X106070000Y-92220000D03*
X72150000Y-102290000D03*
X76310000Y-88670000D03*
X73230000Y-116430000D03*
X66680000Y-111940000D03*
X66890000Y-115020000D03*
X115670000Y-106020000D03*
X92510000Y-110930000D03*
X114260000Y-120420000D03*
X83780000Y-120420000D03*
X129230000Y-86400000D03*
X133360000Y-82770000D03*
X100650000Y-98460000D03*
X114550000Y-107490000D03*
X111020000Y-91770000D03*
X118070000Y-120420000D03*
X71100000Y-88500000D03*
X116230000Y-107440000D03*
X102880000Y-82770000D03*
X62980000Y-89250000D03*
X80560000Y-111410000D03*
X84920000Y-97090000D03*
X91400000Y-120420000D03*
X110500000Y-82770000D03*
X79970000Y-120420000D03*
X101650000Y-100020000D03*
X137540000Y-83880000D03*
X76160000Y-120420000D03*
X113460000Y-98160000D03*
X88890000Y-96870000D03*
X113350000Y-95010000D03*
X104740000Y-92250000D03*
X100710000Y-102280000D03*
X76340000Y-115680000D03*
X68540000Y-120420000D03*
X64100000Y-118920000D03*
X87590000Y-120420000D03*
X114400000Y-95740000D03*
X139320000Y-112090000D03*
X108310000Y-110470000D03*
X97940000Y-102280000D03*
X132380000Y-103810000D03*
X129500000Y-120420000D03*
X139320000Y-108280000D03*
X119050000Y-105740000D03*
X121820000Y-108370000D03*
X135610000Y-114560000D03*
X73630000Y-97920000D03*
X76510000Y-94590000D03*
X108550000Y-92440000D03*
X64890000Y-83100000D03*
X62980000Y-100680000D03*
X109640000Y-94940000D03*
X110690000Y-96960000D03*
X119570000Y-102600000D03*
X83100000Y-111410000D03*
X65630628Y-107987639D03*
X80520000Y-104980000D03*
X94940000Y-107750000D03*
X110450000Y-120420000D03*
X115710000Y-102230000D03*
X112690000Y-104850000D03*
X102830000Y-120420000D03*
X72400000Y-82770000D03*
X86050000Y-115540000D03*
X84570000Y-92610000D03*
X120990000Y-100920000D03*
X129180000Y-115310000D03*
X62980000Y-96870000D03*
X124230000Y-88980000D03*
X79260000Y-91440000D03*
X62980000Y-115920000D03*
X67650000Y-104330000D03*
X111470000Y-92860000D03*
X108855000Y-107145000D03*
X116220000Y-95680000D03*
X116450000Y-88420000D03*
X81200000Y-88880000D03*
X121340000Y-102590000D03*
X121630000Y-97190000D03*
X72150000Y-99750000D03*
X121470000Y-88730000D03*
X136990000Y-119650000D03*
X67700000Y-108100000D03*
X124030000Y-100070000D03*
X95260000Y-82770000D03*
X125830000Y-110360000D03*
X118120000Y-82770000D03*
X139320000Y-96850000D03*
X119350000Y-100890000D03*
X67830000Y-101430000D03*
X113580000Y-89870000D03*
X135610000Y-111040000D03*
X80020000Y-82770000D03*
X91450000Y-82770000D03*
X83830000Y-82770000D03*
X113540000Y-102410000D03*
X120610000Y-107550000D03*
X123040000Y-102920000D03*
X95810000Y-107010000D03*
X124260000Y-108100000D03*
X95210000Y-120420000D03*
X76210000Y-82770000D03*
X62980000Y-85440000D03*
X116020000Y-89690000D03*
X124100000Y-105850000D03*
X114310000Y-82770000D03*
X133530000Y-87970000D03*
X100000000Y-100020000D03*
X129550000Y-82770000D03*
X83100000Y-113950000D03*
X83060000Y-104980000D03*
X139320000Y-115900000D03*
X106690000Y-82770000D03*
X96070000Y-109330000D03*
X79210000Y-116230000D03*
X134040000Y-94490000D03*
X92740000Y-113090000D03*
X139320000Y-89230000D03*
X74690000Y-99750000D03*
X92400000Y-107750000D03*
X102250000Y-98460000D03*
X122230000Y-99830000D03*
X114510000Y-100810000D03*
X62980000Y-112110000D03*
X80520000Y-107520000D03*
X77040000Y-97380000D03*
X115120000Y-111580000D03*
X116290000Y-91490000D03*
X74690000Y-102290000D03*
X103130000Y-92270000D03*
X139320000Y-104470000D03*
X94580000Y-105750000D03*
X90500000Y-107500000D03*
X116590000Y-94350000D03*
X133310000Y-120420000D03*
X127340000Y-111600000D03*
X112650000Y-101570000D03*
X110250000Y-89330000D03*
X113240000Y-106160000D03*
X124450000Y-102000000D03*
X62980000Y-104490000D03*
X72350000Y-120420000D03*
X113560000Y-91770000D03*
X134110000Y-99880000D03*
X83060000Y-107520000D03*
X87640000Y-82770000D03*
X90410000Y-113100000D03*
X139320000Y-100660000D03*
X62980000Y-108300000D03*
X121880000Y-120420000D03*
X65280000Y-104280000D03*
X109940000Y-97740000D03*
X125740000Y-82770000D03*
X125690000Y-120420000D03*
X121930000Y-82770000D03*
X139320000Y-93040000D03*
X131340000Y-94830000D03*
%TO.N,/PC13*%
X105920000Y-97795000D03*
X106580000Y-109910000D03*
%TO.N,/PA13{slash}SWDIO*%
X95320000Y-93730000D03*
%TO.N,/PA14{slash}SWCLK*%
X96720000Y-94580000D03*
%TO.N,/BOOT0*%
X97630000Y-97620000D03*
%TO.N,VCC*%
X85710000Y-102550000D03*
X85620000Y-104950000D03*
X88220000Y-111390000D03*
X88250000Y-102550000D03*
X88160000Y-104950000D03*
X85680000Y-111390000D03*
X86110000Y-98350000D03*
X85620000Y-107490000D03*
X88650000Y-98350000D03*
X88160000Y-107490000D03*
%TD*%
D31*
%TO.N,VBUS*%
X77850000Y-117730000D02*
X77470000Y-118110000D01*
X77850000Y-104990000D02*
X77850000Y-117730000D01*
X73840000Y-95990000D02*
X75840000Y-97990000D01*
X75840000Y-97990000D02*
X75840000Y-102980000D01*
X71997500Y-97370000D02*
X73377500Y-95990000D01*
X73377500Y-95990000D02*
X73840000Y-95990000D01*
X75840000Y-102980000D02*
X77850000Y-104990000D01*
X70940000Y-97370000D02*
X71997500Y-97370000D01*
D32*
%TO.N,VCC*%
X82550000Y-116260000D02*
X82550000Y-118110000D01*
X86810000Y-112000000D02*
X82550000Y-116260000D01*
D33*
%TO.N,GND*%
X80010000Y-113800000D02*
X81810000Y-112000000D01*
X80010000Y-118110000D02*
X80010000Y-113800000D01*
D31*
%TO.N,VBUS*%
X68932500Y-100410000D02*
X70100000Y-100410000D01*
X70100000Y-100410000D02*
X70940000Y-99570000D01*
X70940000Y-99570000D02*
X70940000Y-97370000D01*
X68932500Y-97370000D02*
X70940000Y-97370000D01*
D34*
%TO.N,/NRST*%
X101980000Y-102330000D02*
X97360000Y-106950000D01*
X101980000Y-101440000D02*
X101980000Y-102330000D01*
D31*
%TO.N,GND*%
X72807500Y-101640000D02*
X73377500Y-101070000D01*
D33*
X68085000Y-106190000D02*
X73910000Y-106190000D01*
X112270000Y-96580000D02*
X112270000Y-90725000D01*
D31*
X68932500Y-101640000D02*
X68932500Y-102700000D01*
D33*
X107410000Y-108590000D02*
X108310000Y-109490000D01*
X133299000Y-109086375D02*
X130096375Y-109086375D01*
X73910000Y-106190000D02*
X75620000Y-107900000D01*
X70370000Y-117590000D02*
X69850000Y-118110000D01*
D31*
X68932500Y-96140000D02*
X68932500Y-95080000D01*
D33*
X108310000Y-109490000D02*
X108310000Y-110470000D01*
X108310000Y-110470000D02*
X108310000Y-111050000D01*
D31*
X68932500Y-95080000D02*
X68422500Y-94570000D01*
D33*
X130096375Y-109086375D02*
X128020000Y-107010000D01*
D31*
X68932500Y-102700000D02*
X68422500Y-103210000D01*
D33*
X96330000Y-112240000D02*
X93480000Y-109390000D01*
X123190000Y-85090000D02*
X123190000Y-83210000D01*
D31*
X68932500Y-101640000D02*
X72807500Y-101640000D01*
D33*
X68085000Y-109965000D02*
X68475000Y-109965000D01*
X105040000Y-95870000D02*
X110185000Y-90725000D01*
X110185000Y-90725000D02*
X112270000Y-90725000D01*
X68475000Y-109965000D02*
X70370000Y-111860000D01*
X93480000Y-109390000D02*
X93480000Y-109340000D01*
X108310000Y-111050000D02*
X107120000Y-112240000D01*
X107120000Y-112240000D02*
X96330000Y-112240000D01*
X105040000Y-104730000D02*
X105040000Y-95870000D01*
X70370000Y-111860000D02*
X70370000Y-117590000D01*
D34*
%TO.N,/PC13*%
X106580000Y-109910000D02*
X105920000Y-109250000D01*
X105920000Y-109250000D02*
X105920000Y-97795000D01*
%TO.N,/PA13{slash}SWDIO*%
X87590000Y-86980000D02*
X74280000Y-86980000D01*
X95320000Y-93730000D02*
X94340000Y-93730000D01*
X74280000Y-86980000D02*
X72390000Y-85090000D01*
X94340000Y-93730000D02*
X87590000Y-86980000D01*
%TO.N,/PA14{slash}SWCLK*%
X69850000Y-85090000D02*
X69927767Y-85090000D01*
X93940000Y-94580000D02*
X96720000Y-94580000D01*
X72427767Y-87590000D02*
X86950000Y-87590000D01*
X86950000Y-87590000D02*
X93940000Y-94580000D01*
X69927767Y-85090000D02*
X72427767Y-87590000D01*
%TO.N,/BOOT0*%
X69410000Y-119780000D02*
X68085000Y-118455000D01*
X91460000Y-103370000D02*
X91460000Y-118920000D01*
X90600000Y-119780000D02*
X69410000Y-119780000D01*
X97630000Y-97620000D02*
X97210000Y-97620000D01*
X91460000Y-118920000D02*
X90600000Y-119780000D01*
X97210000Y-97620000D02*
X91460000Y-103370000D01*
X68085000Y-118455000D02*
X68085000Y-113740000D01*
%TO.N,Net-(USB1-CC2)*%
X66770000Y-108740000D02*
X65545000Y-109965000D01*
X68932500Y-99390000D02*
X68190000Y-99390000D01*
X66770000Y-100810000D02*
X66770000Y-108740000D01*
X68190000Y-99390000D02*
X66770000Y-100810000D01*
%TO.N,Net-(USB1-CC1)*%
X68932500Y-98390000D02*
X68250000Y-98390000D01*
X66270000Y-105465000D02*
X65545000Y-106190000D01*
X68250000Y-98390000D02*
X66270000Y-100370000D01*
X66270000Y-100370000D02*
X66270000Y-105465000D01*
D31*
%TO.N,VBAT*%
X125480000Y-114670000D02*
X114030000Y-114670000D01*
X114030000Y-114670000D02*
X110140000Y-110780000D01*
X110140000Y-110780000D02*
X110140000Y-106240000D01*
X110140000Y-106240000D02*
X107410000Y-103510000D01*
D33*
%TO.N,Net-(LED1-A)*%
X72525000Y-108455000D02*
X73080000Y-107900000D01*
X72525000Y-113740000D02*
X72525000Y-108455000D01*
%TO.N,VCC*%
X79970000Y-90030000D02*
X86880000Y-96940000D01*
D31*
X111540000Y-109690000D02*
X111540000Y-100930000D01*
D33*
X125730000Y-86050000D02*
X125730000Y-85090000D01*
X93480000Y-103470000D02*
X93480000Y-104260000D01*
D31*
X127760000Y-116080000D02*
X127760000Y-114070000D01*
X114780000Y-112930000D02*
X111540000Y-109690000D01*
D33*
X107190000Y-90725000D02*
X102545000Y-90725000D01*
D31*
X111540000Y-100930000D02*
X107190000Y-96580000D01*
D33*
X73100000Y-90030000D02*
X79970000Y-90030000D01*
X110725000Y-87190000D02*
X124590000Y-87190000D01*
X98950000Y-98000000D02*
X93480000Y-103470000D01*
X86880000Y-96940000D02*
X86880000Y-106240000D01*
D31*
X127760000Y-114070000D02*
X126620000Y-112930000D01*
D33*
X102545000Y-90725000D02*
X98950000Y-94320000D01*
X124590000Y-87190000D02*
X125730000Y-86050000D01*
D31*
X125730000Y-118110000D02*
X127760000Y-116080000D01*
D33*
X98950000Y-94320000D02*
X98950000Y-98000000D01*
D31*
X126620000Y-112930000D02*
X114780000Y-112930000D01*
D33*
X107190000Y-90725000D02*
X110725000Y-87190000D01*
%TD*%
%TA.AperFunction,Conductor*%
%TO.N,VCC*%
G36*
X88596061Y-97770597D02*
G01*
X88772941Y-97788018D01*
X88796769Y-97792757D01*
X88961001Y-97842576D01*
X88983453Y-97851877D01*
X89134798Y-97932772D01*
X89155010Y-97946277D01*
X89287666Y-98055145D01*
X89304854Y-98072333D01*
X89413722Y-98204989D01*
X89427227Y-98225201D01*
X89508121Y-98376543D01*
X89517424Y-98399001D01*
X89567240Y-98563224D01*
X89571982Y-98587065D01*
X89589403Y-98763938D01*
X89590000Y-98776092D01*
X89590000Y-112633907D01*
X89589403Y-112646061D01*
X89571982Y-112822934D01*
X89567240Y-112846775D01*
X89517424Y-113010998D01*
X89508121Y-113033456D01*
X89427227Y-113184798D01*
X89413722Y-113205010D01*
X89304854Y-113337666D01*
X89287666Y-113354854D01*
X89155010Y-113463722D01*
X89134798Y-113477227D01*
X88983456Y-113558121D01*
X88960998Y-113567424D01*
X88796775Y-113617240D01*
X88772934Y-113621982D01*
X88596061Y-113639403D01*
X88583907Y-113640000D01*
X86266093Y-113640000D01*
X86253939Y-113639403D01*
X86077065Y-113621982D01*
X86053224Y-113617240D01*
X85889001Y-113567424D01*
X85866543Y-113558121D01*
X85715201Y-113477227D01*
X85694989Y-113463722D01*
X85562333Y-113354854D01*
X85545145Y-113337666D01*
X85436277Y-113205010D01*
X85422772Y-113184798D01*
X85341878Y-113033456D01*
X85332575Y-113010998D01*
X85282757Y-112846769D01*
X85278018Y-112822941D01*
X85260597Y-112646061D01*
X85260000Y-112633907D01*
X85260000Y-98776092D01*
X85260597Y-98763938D01*
X85278018Y-98587056D01*
X85282757Y-98563232D01*
X85332577Y-98398994D01*
X85341875Y-98376549D01*
X85422775Y-98225195D01*
X85436272Y-98204995D01*
X85545149Y-98072328D01*
X85562328Y-98055149D01*
X85694995Y-97946272D01*
X85715195Y-97932775D01*
X85866549Y-97851875D01*
X85888994Y-97842577D01*
X86053232Y-97792757D01*
X86077056Y-97788018D01*
X86253939Y-97770597D01*
X86266093Y-97770000D01*
X88583907Y-97770000D01*
X88596061Y-97770597D01*
G37*
%TD.AperFunction*%
%TD*%
%TA.AperFunction,Conductor*%
%TO.N,GND*%
G36*
X135772702Y-81800617D02*
G01*
X136182917Y-81818528D01*
X136193654Y-81819468D01*
X136598057Y-81872708D01*
X136608695Y-81874583D01*
X137006925Y-81962869D01*
X137017365Y-81965667D01*
X137406363Y-82088317D01*
X137416524Y-82092015D01*
X137793363Y-82248108D01*
X137803155Y-82252674D01*
X138164965Y-82441020D01*
X138174305Y-82446413D01*
X138459636Y-82628189D01*
X138518309Y-82665568D01*
X138527170Y-82671772D01*
X138850766Y-82920076D01*
X138859053Y-82927030D01*
X139159767Y-83202583D01*
X139167416Y-83210232D01*
X139442969Y-83510946D01*
X139449923Y-83519233D01*
X139698227Y-83842829D01*
X139704431Y-83851690D01*
X139707823Y-83857014D01*
X139889669Y-84142455D01*
X139923578Y-84195680D01*
X139928983Y-84205042D01*
X139985706Y-84314005D01*
X140117322Y-84566838D01*
X140121894Y-84576642D01*
X140277983Y-84953473D01*
X140281683Y-84963639D01*
X140404331Y-85352630D01*
X140407131Y-85363078D01*
X140495414Y-85761296D01*
X140497292Y-85771950D01*
X140550529Y-86176326D01*
X140551472Y-86187102D01*
X140569382Y-86597297D01*
X140569500Y-86602706D01*
X140569500Y-116597293D01*
X140569382Y-116602702D01*
X140551472Y-117012897D01*
X140550529Y-117023673D01*
X140497292Y-117428049D01*
X140495414Y-117438703D01*
X140407131Y-117836921D01*
X140404331Y-117847369D01*
X140281683Y-118236360D01*
X140277983Y-118246526D01*
X140121894Y-118623357D01*
X140117322Y-118633161D01*
X139928987Y-118994951D01*
X139923578Y-119004319D01*
X139704431Y-119348309D01*
X139698227Y-119357170D01*
X139449923Y-119680766D01*
X139442969Y-119689053D01*
X139167416Y-119989767D01*
X139159767Y-119997416D01*
X138859053Y-120272969D01*
X138850766Y-120279923D01*
X138527170Y-120528227D01*
X138518309Y-120534431D01*
X138174319Y-120753578D01*
X138164951Y-120758987D01*
X137803161Y-120947322D01*
X137793357Y-120951894D01*
X137416526Y-121107983D01*
X137406360Y-121111683D01*
X137017369Y-121234331D01*
X137006921Y-121237131D01*
X136608703Y-121325414D01*
X136598049Y-121327292D01*
X136193673Y-121380529D01*
X136182897Y-121381472D01*
X135772703Y-121399382D01*
X135767294Y-121399500D01*
X66452706Y-121399500D01*
X66447297Y-121399382D01*
X66037102Y-121381472D01*
X66026326Y-121380529D01*
X65621950Y-121327292D01*
X65611296Y-121325414D01*
X65213078Y-121237131D01*
X65202630Y-121234331D01*
X64813639Y-121111683D01*
X64803473Y-121107983D01*
X64426642Y-120951894D01*
X64416838Y-120947322D01*
X64297126Y-120885004D01*
X64055042Y-120758983D01*
X64045686Y-120753582D01*
X63873685Y-120644004D01*
X63701690Y-120534431D01*
X63692829Y-120528227D01*
X63369233Y-120279923D01*
X63360946Y-120272969D01*
X63060232Y-119997416D01*
X63052583Y-119989767D01*
X62777030Y-119689053D01*
X62770076Y-119680766D01*
X62521772Y-119357170D01*
X62515568Y-119348309D01*
X62448233Y-119242615D01*
X62296413Y-119004305D01*
X62291020Y-118994965D01*
X62102674Y-118633155D01*
X62098105Y-118623357D01*
X62092572Y-118610000D01*
X61942015Y-118246524D01*
X61938316Y-118236360D01*
X61938202Y-118236000D01*
X61815667Y-117847365D01*
X61812868Y-117836921D01*
X61807972Y-117814835D01*
X61724583Y-117438695D01*
X61722707Y-117428049D01*
X61669468Y-117023654D01*
X61668528Y-117012917D01*
X61650618Y-116602702D01*
X61650500Y-116597293D01*
X61650500Y-104020420D01*
X65773708Y-104033706D01*
X65775648Y-104036975D01*
X65779500Y-104067641D01*
X65779500Y-104586404D01*
X65759815Y-104653443D01*
X65718956Y-104692937D01*
X65044896Y-105094439D01*
X65026240Y-105103530D01*
X65007600Y-105110751D01*
X65007594Y-105110754D01*
X64818439Y-105227874D01*
X64818437Y-105227876D01*
X64654020Y-105377761D01*
X64519943Y-105555308D01*
X64519938Y-105555316D01*
X64420775Y-105754461D01*
X64420769Y-105754476D01*
X64359885Y-105968462D01*
X64359884Y-105968464D01*
X64339357Y-106189999D01*
X64339357Y-106190000D01*
X64359884Y-106411535D01*
X64359885Y-106411537D01*
X64420769Y-106625523D01*
X64420775Y-106625538D01*
X64519938Y-106824683D01*
X64519943Y-106824691D01*
X64654020Y-107002238D01*
X64818437Y-107152123D01*
X64818439Y-107152125D01*
X65007595Y-107269245D01*
X65007596Y-107269245D01*
X65007599Y-107269247D01*
X65215060Y-107349618D01*
X65433757Y-107390500D01*
X65433759Y-107390500D01*
X65656241Y-107390500D01*
X65656243Y-107390500D01*
X65874940Y-107349618D01*
X66082401Y-107269247D01*
X66090223Y-107264404D01*
X66157583Y-107245849D01*
X66224283Y-107266657D01*
X66269144Y-107320222D01*
X66279500Y-107369831D01*
X66279500Y-108363824D01*
X66259815Y-108430863D01*
X66207011Y-108476618D01*
X66194554Y-108481513D01*
X65231092Y-108801226D01*
X65215641Y-108805216D01*
X65215058Y-108805382D01*
X65196913Y-108812410D01*
X65191186Y-108814468D01*
X65123050Y-108837080D01*
X65123035Y-108837085D01*
X65120943Y-108837821D01*
X65109092Y-108841994D01*
X65108360Y-108842267D01*
X65108328Y-108842280D01*
X65066298Y-108860723D01*
X65062088Y-108863136D01*
X65045246Y-108871167D01*
X65007597Y-108885753D01*
X65007594Y-108885754D01*
X64818439Y-109002874D01*
X64818437Y-109002876D01*
X64654020Y-109152761D01*
X64519943Y-109330308D01*
X64519938Y-109330316D01*
X64420775Y-109529461D01*
X64420769Y-109529476D01*
X64359885Y-109743462D01*
X64359884Y-109743464D01*
X64339357Y-109964999D01*
X64339357Y-109965000D01*
X64359884Y-110186535D01*
X64359885Y-110186537D01*
X64420769Y-110400523D01*
X64420775Y-110400538D01*
X64519938Y-110599683D01*
X64519943Y-110599691D01*
X64654020Y-110777238D01*
X64818437Y-110927123D01*
X64818439Y-110927125D01*
X65007595Y-111044245D01*
X65007596Y-111044245D01*
X65007599Y-111044247D01*
X65215060Y-111124618D01*
X65433757Y-111165500D01*
X65433759Y-111165500D01*
X65656241Y-111165500D01*
X65656243Y-111165500D01*
X65874940Y-111124618D01*
X66082401Y-111044247D01*
X66271562Y-110927124D01*
X66435981Y-110777236D01*
X66570058Y-110599689D01*
X66669229Y-110400528D01*
X66673404Y-110385854D01*
X66674975Y-110380752D01*
X66796389Y-110014870D01*
X66836184Y-109957444D01*
X66900712Y-109930648D01*
X66969482Y-109942992D01*
X67020662Y-109990557D01*
X67037480Y-110041772D01*
X67050191Y-110170834D01*
X67110233Y-110368766D01*
X67185975Y-110510469D01*
X67185976Y-110510469D01*
X67685000Y-110011446D01*
X67685000Y-110017661D01*
X67712259Y-110119394D01*
X67764920Y-110210606D01*
X67839394Y-110285080D01*
X67930606Y-110337741D01*
X68032339Y-110365000D01*
X68038553Y-110365000D01*
X67539528Y-110864023D01*
X67681233Y-110939766D01*
X67879165Y-110999808D01*
X68085000Y-111020080D01*
X68290834Y-110999808D01*
X68488764Y-110939766D01*
X68630470Y-110864022D01*
X68131448Y-110365000D01*
X68137661Y-110365000D01*
X68239394Y-110337741D01*
X68330606Y-110285080D01*
X68405080Y-110210606D01*
X68457741Y-110119394D01*
X68485000Y-110017661D01*
X68485000Y-110011447D01*
X68984022Y-110510469D01*
X69059766Y-110368764D01*
X69119808Y-110170834D01*
X69140080Y-109965000D01*
X69119808Y-109759165D01*
X69059766Y-109561233D01*
X68984023Y-109419528D01*
X68485000Y-109918551D01*
X68485000Y-109912339D01*
X68457741Y-109810606D01*
X68405080Y-109719394D01*
X68330606Y-109644920D01*
X68239394Y-109592259D01*
X68137661Y-109565000D01*
X68131448Y-109565000D01*
X68630469Y-109065976D01*
X68630469Y-109065975D01*
X68488766Y-108990233D01*
X68290834Y-108930191D01*
X68085000Y-108909919D01*
X67879166Y-108930191D01*
X67681234Y-108990234D01*
X67539529Y-109065975D01*
X67539529Y-109065976D01*
X68038553Y-109565000D01*
X68032339Y-109565000D01*
X67930606Y-109592259D01*
X67839394Y-109644920D01*
X67764920Y-109719394D01*
X67712259Y-109810606D01*
X67685000Y-109912339D01*
X67685000Y-109918553D01*
X67185975Y-109419528D01*
X67183362Y-109419916D01*
X67114160Y-109410280D01*
X67061153Y-109364761D01*
X67041170Y-109297810D01*
X67047479Y-109258206D01*
X67088898Y-109133390D01*
X67118907Y-109084764D01*
X67137696Y-109065976D01*
X67162498Y-109041174D01*
X67227074Y-108929326D01*
X67260500Y-108804576D01*
X67260500Y-107133853D01*
X67280185Y-107066814D01*
X67332989Y-107021059D01*
X67402147Y-107011115D01*
X67463166Y-107038000D01*
X67498832Y-107067270D01*
X67498833Y-107067271D01*
X67681233Y-107164766D01*
X67879165Y-107224808D01*
X68085000Y-107245080D01*
X68290834Y-107224808D01*
X68488764Y-107164766D01*
X68630469Y-107089022D01*
X68131447Y-106590000D01*
X68137661Y-106590000D01*
X68239394Y-106562741D01*
X68330606Y-106510080D01*
X68405080Y-106435606D01*
X68457741Y-106344394D01*
X68485000Y-106242661D01*
X68485000Y-106236447D01*
X68984022Y-106735469D01*
X69059766Y-106593764D01*
X69119808Y-106395834D01*
X69140080Y-106190000D01*
X69119808Y-105984165D01*
X69059766Y-105786233D01*
X68984023Y-105644528D01*
X68485000Y-106143551D01*
X68485000Y-106137339D01*
X68457741Y-106035606D01*
X68405080Y-105944394D01*
X68330606Y-105869920D01*
X68239394Y-105817259D01*
X68137661Y-105790000D01*
X68131447Y-105790000D01*
X68630469Y-105290976D01*
X68630469Y-105290975D01*
X68488766Y-105215233D01*
X68290834Y-105155191D01*
X68085000Y-105134919D01*
X67879165Y-105155191D01*
X67681233Y-105215233D01*
X67498833Y-105312728D01*
X67498827Y-105312732D01*
X67463164Y-105342000D01*
X67398854Y-105369312D01*
X67329987Y-105357521D01*
X67278427Y-105310368D01*
X67260500Y-105246146D01*
X67260500Y-104038497D01*
X75793916Y-104065995D01*
X77013181Y-105285259D01*
X77046666Y-105346582D01*
X77049500Y-105372940D01*
X77049500Y-116221950D01*
X77029815Y-116288989D01*
X77023395Y-116298059D01*
X76616759Y-116821089D01*
X76560070Y-116861933D01*
X76538263Y-116867453D01*
X76494699Y-116874353D01*
X76494697Y-116874353D01*
X76494696Y-116874354D01*
X76381658Y-116931950D01*
X76381657Y-116931951D01*
X76381652Y-116931954D01*
X76287681Y-117025926D01*
X76226358Y-117059411D01*
X76156666Y-117054427D01*
X76112319Y-117025926D01*
X76018347Y-116931954D01*
X76018344Y-116931952D01*
X76018342Y-116931950D01*
X75941517Y-116892805D01*
X75905301Y-116874352D01*
X75811524Y-116859500D01*
X74048482Y-116859500D01*
X73967519Y-116872323D01*
X73954696Y-116874354D01*
X73841658Y-116931950D01*
X73841657Y-116931951D01*
X73841652Y-116931954D01*
X73751954Y-117021652D01*
X73751951Y-117021657D01*
X73751950Y-117021658D01*
X73743788Y-117037677D01*
X73694352Y-117134698D01*
X73679500Y-117228475D01*
X73679500Y-117378138D01*
X73659815Y-117445177D01*
X73607011Y-117490932D01*
X73537853Y-117500876D01*
X73474297Y-117471851D01*
X73453925Y-117449261D01*
X73351599Y-117303124D01*
X73276896Y-117228421D01*
X73196877Y-117148402D01*
X73052711Y-117047456D01*
X73017638Y-117022897D01*
X72908994Y-116972236D01*
X72819330Y-116930425D01*
X72819326Y-116930424D01*
X72819322Y-116930422D01*
X72607977Y-116873793D01*
X72390002Y-116854723D01*
X72389998Y-116854723D01*
X72244682Y-116867436D01*
X72172023Y-116873793D01*
X72172020Y-116873793D01*
X71960677Y-116930422D01*
X71960670Y-116930424D01*
X71960670Y-116930425D01*
X71957391Y-116931954D01*
X71762361Y-117022898D01*
X71762357Y-117022900D01*
X71583121Y-117148402D01*
X71428402Y-117303121D01*
X71302900Y-117482357D01*
X71302898Y-117482361D01*
X71210426Y-117680668D01*
X71210423Y-117680674D01*
X71162237Y-117860509D01*
X71125872Y-117920169D01*
X71063025Y-117950698D01*
X70993649Y-117942403D01*
X70939771Y-117897918D01*
X70923195Y-117862349D01*
X70880112Y-117710928D01*
X70789245Y-117528443D01*
X70666391Y-117365757D01*
X70515739Y-117228421D01*
X70342413Y-117121101D01*
X70152315Y-117047458D01*
X70152309Y-117047456D01*
X70100001Y-117037677D01*
X70100000Y-117037679D01*
X70100000Y-117676988D01*
X70042993Y-117644075D01*
X69915826Y-117610000D01*
X69784174Y-117610000D01*
X69657007Y-117644075D01*
X69600000Y-117676988D01*
X69600000Y-117037679D01*
X69599998Y-117037677D01*
X69547690Y-117047456D01*
X69547684Y-117047458D01*
X69357586Y-117121101D01*
X69184260Y-117228421D01*
X69033608Y-117365757D01*
X68910754Y-117528443D01*
X68819886Y-117710930D01*
X68819884Y-117710934D01*
X68818766Y-117714866D01*
X68781486Y-117773959D01*
X68718176Y-117803516D01*
X68648937Y-117794154D01*
X68595751Y-117748843D01*
X68575504Y-117681971D01*
X68575500Y-117680931D01*
X68575500Y-115475340D01*
X68588666Y-115419736D01*
X68649921Y-115297638D01*
X69180916Y-114239208D01*
X69187188Y-114226127D01*
X69187534Y-114225371D01*
X69196865Y-114201472D01*
X69201370Y-114191310D01*
X69201933Y-114190178D01*
X69209229Y-114175528D01*
X69270115Y-113961536D01*
X69290643Y-113740000D01*
X69290643Y-113739995D01*
X71319357Y-113739995D01*
X71319357Y-113740000D01*
X71339884Y-113961535D01*
X71339885Y-113961537D01*
X71400769Y-114175523D01*
X71400775Y-114175538D01*
X71499938Y-114374683D01*
X71499943Y-114374691D01*
X71634020Y-114552238D01*
X71798437Y-114702123D01*
X71798439Y-114702125D01*
X71987595Y-114819245D01*
X71987596Y-114819245D01*
X71987599Y-114819247D01*
X72195060Y-114899618D01*
X72413757Y-114940500D01*
X72413759Y-114940500D01*
X72636241Y-114940500D01*
X72636243Y-114940500D01*
X72854940Y-114899618D01*
X73062401Y-114819247D01*
X73251562Y-114702124D01*
X73415981Y-114552236D01*
X73550058Y-114374689D01*
X73649229Y-114175528D01*
X73675734Y-114082371D01*
X73713013Y-114023278D01*
X73776323Y-113993721D01*
X73845562Y-114003083D01*
X73898749Y-114048393D01*
X73914266Y-114082372D01*
X73940769Y-114175523D01*
X73940775Y-114175538D01*
X74039938Y-114374683D01*
X74039943Y-114374691D01*
X74174020Y-114552238D01*
X74338437Y-114702123D01*
X74338439Y-114702125D01*
X74527595Y-114819245D01*
X74527596Y-114819245D01*
X74527599Y-114819247D01*
X74735060Y-114899618D01*
X74953757Y-114940500D01*
X74953759Y-114940500D01*
X75176241Y-114940500D01*
X75176243Y-114940500D01*
X75394940Y-114899618D01*
X75602401Y-114819247D01*
X75791562Y-114702124D01*
X75955981Y-114552236D01*
X76090058Y-114374689D01*
X76189229Y-114175528D01*
X76250115Y-113961536D01*
X76270643Y-113740000D01*
X76250115Y-113518464D01*
X76189229Y-113304472D01*
X76131553Y-113188643D01*
X76090061Y-113105316D01*
X76090056Y-113105308D01*
X75955979Y-112927761D01*
X75791562Y-112777876D01*
X75791560Y-112777874D01*
X75602404Y-112660754D01*
X75602398Y-112660752D01*
X75394940Y-112580382D01*
X75176243Y-112539500D01*
X74953757Y-112539500D01*
X74735060Y-112580382D01*
X74603864Y-112631207D01*
X74527601Y-112660752D01*
X74527595Y-112660754D01*
X74338439Y-112777874D01*
X74338437Y-112777876D01*
X74174020Y-112927761D01*
X74039943Y-113105308D01*
X74039938Y-113105316D01*
X73940775Y-113304461D01*
X73940771Y-113304471D01*
X73914265Y-113397629D01*
X73876985Y-113456722D01*
X73813675Y-113486279D01*
X73744435Y-113476915D01*
X73691250Y-113431605D01*
X73675734Y-113397632D01*
X73670361Y-113378745D01*
X73667759Y-113367696D01*
X73427624Y-112086969D01*
X73425500Y-112064117D01*
X73425500Y-109398786D01*
X73445185Y-109331747D01*
X73459710Y-109313265D01*
X73512153Y-109258204D01*
X73782976Y-108973860D01*
X73799881Y-108959064D01*
X73807176Y-108953764D01*
X73826928Y-108939414D01*
X73949414Y-108816928D01*
X74051232Y-108676788D01*
X74129873Y-108522445D01*
X74183402Y-108357701D01*
X74210500Y-108186611D01*
X74210500Y-107613389D01*
X74183402Y-107442299D01*
X74129873Y-107277555D01*
X74051232Y-107123212D01*
X73949414Y-106983072D01*
X73941713Y-106975371D01*
X74700000Y-106975371D01*
X74700000Y-107650000D01*
X75334314Y-107650000D01*
X75329920Y-107654394D01*
X75277259Y-107745606D01*
X75250000Y-107847339D01*
X75250000Y-107952661D01*
X75277259Y-108054394D01*
X75329920Y-108145606D01*
X75334314Y-108150000D01*
X74700000Y-108150000D01*
X74700000Y-108824628D01*
X74714503Y-108897540D01*
X74714505Y-108897544D01*
X74769760Y-108980239D01*
X74852455Y-109035494D01*
X74852459Y-109035496D01*
X74925371Y-109049999D01*
X74925374Y-109050000D01*
X75400000Y-109050000D01*
X75400000Y-108215686D01*
X75404394Y-108220080D01*
X75495606Y-108272741D01*
X75597339Y-108300000D01*
X75702661Y-108300000D01*
X75804394Y-108272741D01*
X75895606Y-108220080D01*
X75900000Y-108215686D01*
X75900000Y-109050000D01*
X76374626Y-109050000D01*
X76374628Y-109049999D01*
X76447540Y-109035496D01*
X76447544Y-109035494D01*
X76530239Y-108980239D01*
X76585494Y-108897544D01*
X76585496Y-108897540D01*
X76599999Y-108824628D01*
X76600000Y-108824626D01*
X76600000Y-108150000D01*
X75965686Y-108150000D01*
X75970080Y-108145606D01*
X76022741Y-108054394D01*
X76050000Y-107952661D01*
X76050000Y-107847339D01*
X76022741Y-107745606D01*
X75970080Y-107654394D01*
X75965686Y-107650000D01*
X76600000Y-107650000D01*
X76600000Y-106975373D01*
X76599999Y-106975371D01*
X76585496Y-106902459D01*
X76585494Y-106902455D01*
X76530239Y-106819760D01*
X76447544Y-106764505D01*
X76447540Y-106764503D01*
X76374627Y-106750000D01*
X75900000Y-106750000D01*
X75900000Y-107584314D01*
X75895606Y-107579920D01*
X75804394Y-107527259D01*
X75702661Y-107500000D01*
X75597339Y-107500000D01*
X75495606Y-107527259D01*
X75404394Y-107579920D01*
X75400000Y-107584314D01*
X75400000Y-106750000D01*
X74925373Y-106750000D01*
X74852459Y-106764503D01*
X74852455Y-106764505D01*
X74769760Y-106819760D01*
X74714505Y-106902455D01*
X74714503Y-106902459D01*
X74700000Y-106975371D01*
X73941713Y-106975371D01*
X73826928Y-106860586D01*
X73686788Y-106758768D01*
X73532445Y-106680127D01*
X73367701Y-106626598D01*
X73367699Y-106626597D01*
X73367698Y-106626597D01*
X73236271Y-106605781D01*
X73196611Y-106599500D01*
X73023389Y-106599500D01*
X72983728Y-106605781D01*
X72852302Y-106626597D01*
X72687552Y-106680128D01*
X72533211Y-106758768D01*
X72470727Y-106804166D01*
X72393072Y-106860586D01*
X72393070Y-106860588D01*
X72393069Y-106860588D01*
X72270588Y-106983069D01*
X72270588Y-106983070D01*
X72270586Y-106983072D01*
X72251022Y-107010000D01*
X72168768Y-107123211D01*
X72090128Y-107277552D01*
X72036597Y-107442302D01*
X72009500Y-107613389D01*
X72009500Y-107645637D01*
X71989815Y-107712676D01*
X71973185Y-107733313D01*
X71893528Y-107812972D01*
X71825535Y-107880965D01*
X71786063Y-107940040D01*
X71726988Y-108028449D01*
X71705947Y-108079248D01*
X71659105Y-108192333D01*
X71659105Y-108192334D01*
X71634380Y-108316638D01*
X71634380Y-108316639D01*
X71624500Y-108366307D01*
X71624500Y-109192772D01*
X71624457Y-109196033D01*
X71624222Y-109204927D01*
X71624500Y-109210211D01*
X71624500Y-112064114D01*
X71622376Y-112086966D01*
X71382241Y-113367680D01*
X71379632Y-113378760D01*
X71339884Y-113518464D01*
X71324947Y-113679661D01*
X71324280Y-113685401D01*
X71323847Y-113688492D01*
X71323646Y-113690648D01*
X71323514Y-113693261D01*
X71323438Y-113693257D01*
X71323136Y-113699199D01*
X71319357Y-113739995D01*
X69290643Y-113739995D01*
X69270115Y-113518464D01*
X69209229Y-113304472D01*
X69151553Y-113188643D01*
X69110061Y-113105316D01*
X69110056Y-113105308D01*
X68975979Y-112927761D01*
X68811562Y-112777876D01*
X68811560Y-112777874D01*
X68622404Y-112660754D01*
X68622398Y-112660752D01*
X68414940Y-112580382D01*
X68196243Y-112539500D01*
X67973757Y-112539500D01*
X67755060Y-112580382D01*
X67623864Y-112631207D01*
X67547601Y-112660752D01*
X67547595Y-112660754D01*
X67358439Y-112777874D01*
X67358437Y-112777876D01*
X67194020Y-112927761D01*
X67059943Y-113105308D01*
X67059938Y-113105316D01*
X66960775Y-113304461D01*
X66960769Y-113304476D01*
X66934266Y-113397627D01*
X66896987Y-113456721D01*
X66833677Y-113486278D01*
X66764438Y-113476916D01*
X66711251Y-113431606D01*
X66695734Y-113397627D01*
X66669230Y-113304476D01*
X66669229Y-113304472D01*
X66611553Y-113188643D01*
X66570061Y-113105316D01*
X66570056Y-113105308D01*
X66435979Y-112927761D01*
X66271562Y-112777876D01*
X66271560Y-112777874D01*
X66082404Y-112660754D01*
X66082398Y-112660752D01*
X65874940Y-112580382D01*
X65656243Y-112539500D01*
X65433757Y-112539500D01*
X65215060Y-112580382D01*
X65083864Y-112631207D01*
X65007601Y-112660752D01*
X65007595Y-112660754D01*
X64818439Y-112777874D01*
X64818437Y-112777876D01*
X64654020Y-112927761D01*
X64519943Y-113105308D01*
X64519938Y-113105316D01*
X64420775Y-113304461D01*
X64420769Y-113304476D01*
X64359885Y-113518462D01*
X64359884Y-113518464D01*
X64339357Y-113739999D01*
X64339357Y-113740000D01*
X64359884Y-113961535D01*
X64359885Y-113961537D01*
X64420769Y-114175523D01*
X64420775Y-114175538D01*
X64519938Y-114374683D01*
X64519943Y-114374691D01*
X64654020Y-114552238D01*
X64818437Y-114702123D01*
X64818439Y-114702125D01*
X65007595Y-114819245D01*
X65007596Y-114819245D01*
X65007599Y-114819247D01*
X65215060Y-114899618D01*
X65433757Y-114940500D01*
X65433759Y-114940500D01*
X65656241Y-114940500D01*
X65656243Y-114940500D01*
X65874940Y-114899618D01*
X66082401Y-114819247D01*
X66271562Y-114702124D01*
X66435981Y-114552236D01*
X66570058Y-114374689D01*
X66669229Y-114175528D01*
X66695734Y-114082371D01*
X66733013Y-114023278D01*
X66796323Y-113993721D01*
X66865562Y-114003083D01*
X66918749Y-114048393D01*
X66934266Y-114082372D01*
X66960769Y-114175523D01*
X66960770Y-114175525D01*
X66960771Y-114175528D01*
X66973696Y-114201484D01*
X66978812Y-114211758D01*
X66985978Y-114229445D01*
X66989083Y-114239208D01*
X66989084Y-114239211D01*
X67581334Y-115419736D01*
X67594500Y-115475340D01*
X67594500Y-118519575D01*
X67627926Y-118644327D01*
X67631811Y-118651055D01*
X67692502Y-118756174D01*
X69017502Y-120081174D01*
X69108826Y-120172498D01*
X69220674Y-120237074D01*
X69345424Y-120270500D01*
X69345426Y-120270500D01*
X90664574Y-120270500D01*
X90664576Y-120270500D01*
X90789326Y-120237074D01*
X90901174Y-120172498D01*
X91597353Y-119476319D01*
X91658676Y-119442834D01*
X91685034Y-119440000D01*
X125800000Y-119440000D01*
X125813625Y-119426374D01*
X125819685Y-119405738D01*
X125872489Y-119359983D01*
X125913192Y-119349249D01*
X125947977Y-119346207D01*
X126159330Y-119289575D01*
X126357639Y-119197102D01*
X126536877Y-119071598D01*
X126691598Y-118916877D01*
X126817102Y-118737639D01*
X126857481Y-118651044D01*
X126872608Y-118626528D01*
X126873854Y-118624953D01*
X127541803Y-117436777D01*
X127562206Y-117409870D01*
X128381789Y-116590289D01*
X128469394Y-116459179D01*
X128529738Y-116313497D01*
X128560270Y-116159999D01*
X133239357Y-116159999D01*
X133239357Y-116160000D01*
X133259884Y-116381535D01*
X133259885Y-116381537D01*
X133320769Y-116595523D01*
X133320775Y-116595538D01*
X133419938Y-116794683D01*
X133419943Y-116794691D01*
X133554020Y-116972238D01*
X133718437Y-117122123D01*
X133718439Y-117122125D01*
X133907595Y-117239245D01*
X133907596Y-117239245D01*
X133907599Y-117239247D01*
X134115060Y-117319618D01*
X134333757Y-117360500D01*
X134333759Y-117360500D01*
X134556241Y-117360500D01*
X134556243Y-117360500D01*
X134774940Y-117319618D01*
X134982401Y-117239247D01*
X135171562Y-117122124D01*
X135335981Y-116972236D01*
X135470058Y-116794689D01*
X135569229Y-116595528D01*
X135595734Y-116502371D01*
X135633013Y-116443278D01*
X135696323Y-116413721D01*
X135765562Y-116423083D01*
X135818749Y-116468393D01*
X135834266Y-116502372D01*
X135860769Y-116595523D01*
X135860775Y-116595538D01*
X135959938Y-116794683D01*
X135959943Y-116794691D01*
X136094020Y-116972238D01*
X136258437Y-117122123D01*
X136258439Y-117122125D01*
X136447595Y-117239245D01*
X136447596Y-117239245D01*
X136447599Y-117239247D01*
X136655060Y-117319618D01*
X136873757Y-117360500D01*
X136873759Y-117360500D01*
X137096241Y-117360500D01*
X137096243Y-117360500D01*
X137314940Y-117319618D01*
X137522401Y-117239247D01*
X137711562Y-117122124D01*
X137875981Y-116972236D01*
X138010058Y-116794689D01*
X138109229Y-116595528D01*
X138170115Y-116381536D01*
X138190643Y-116160000D01*
X138170115Y-115938464D01*
X138109229Y-115724472D01*
X138109224Y-115724461D01*
X138010061Y-115525316D01*
X138010056Y-115525308D01*
X137875979Y-115347761D01*
X137711562Y-115197876D01*
X137711560Y-115197874D01*
X137522404Y-115080754D01*
X137522398Y-115080752D01*
X137314940Y-115000382D01*
X137096243Y-114959500D01*
X136873757Y-114959500D01*
X136655060Y-115000382D01*
X136523864Y-115051207D01*
X136447601Y-115080752D01*
X136447595Y-115080754D01*
X136258439Y-115197874D01*
X136258437Y-115197876D01*
X136094020Y-115347761D01*
X135959943Y-115525308D01*
X135959938Y-115525316D01*
X135860775Y-115724461D01*
X135860769Y-115724476D01*
X135834266Y-115817627D01*
X135796987Y-115876721D01*
X135733677Y-115906278D01*
X135664438Y-115896916D01*
X135611251Y-115851606D01*
X135595734Y-115817627D01*
X135569230Y-115724476D01*
X135569229Y-115724472D01*
X135569224Y-115724461D01*
X135470061Y-115525316D01*
X135470056Y-115525308D01*
X135335979Y-115347761D01*
X135171562Y-115197876D01*
X135171560Y-115197874D01*
X134982404Y-115080754D01*
X134982398Y-115080752D01*
X134774940Y-115000382D01*
X134556243Y-114959500D01*
X134333757Y-114959500D01*
X134115060Y-115000382D01*
X133983864Y-115051207D01*
X133907601Y-115080752D01*
X133907595Y-115080754D01*
X133718439Y-115197874D01*
X133718437Y-115197876D01*
X133554020Y-115347761D01*
X133419943Y-115525308D01*
X133419938Y-115525316D01*
X133320775Y-115724461D01*
X133320769Y-115724476D01*
X133259885Y-115938462D01*
X133259884Y-115938464D01*
X133239357Y-116159999D01*
X128560270Y-116159999D01*
X128560500Y-116158842D01*
X128560500Y-116001157D01*
X128560500Y-113991158D01*
X128545499Y-113915740D01*
X128536301Y-113869500D01*
X128529739Y-113836508D01*
X128529737Y-113836503D01*
X128529055Y-113834857D01*
X128504833Y-113776379D01*
X128504833Y-113776378D01*
X128469397Y-113690827D01*
X128469390Y-113690814D01*
X128381790Y-113559712D01*
X128340540Y-113518462D01*
X128270289Y-113448211D01*
X127721100Y-112899022D01*
X127130292Y-112308213D01*
X127130288Y-112308210D01*
X126999185Y-112220609D01*
X126999172Y-112220602D01*
X126853501Y-112160264D01*
X126853489Y-112160261D01*
X126698845Y-112129500D01*
X126698842Y-112129500D01*
X115162940Y-112129500D01*
X115095901Y-112109815D01*
X115075259Y-112093181D01*
X112376819Y-109394741D01*
X112343334Y-109333418D01*
X112340500Y-109307060D01*
X112340500Y-104159994D01*
X115999859Y-104159994D01*
X115999859Y-104160005D01*
X116020385Y-104407729D01*
X116020387Y-104407738D01*
X116081412Y-104648717D01*
X116181266Y-104876364D01*
X116281564Y-105029882D01*
X116642426Y-104669020D01*
X116728249Y-104797463D01*
X116867537Y-104936751D01*
X116995978Y-105022573D01*
X116634942Y-105383609D01*
X116681768Y-105420055D01*
X116681770Y-105420056D01*
X116785401Y-105476138D01*
X116834992Y-105525357D01*
X116850100Y-105593574D01*
X116825930Y-105659129D01*
X116809923Y-105676829D01*
X116651129Y-105821590D01*
X116522632Y-105991746D01*
X116427596Y-106182605D01*
X116427596Y-106182607D01*
X116369244Y-106387689D01*
X116349571Y-106599999D01*
X116349571Y-106600000D01*
X116369244Y-106812310D01*
X116427596Y-107017392D01*
X116427596Y-107017394D01*
X116522632Y-107208253D01*
X116646849Y-107372741D01*
X116651128Y-107378407D01*
X116808698Y-107522052D01*
X116989981Y-107634298D01*
X117188802Y-107711321D01*
X117398390Y-107750500D01*
X117398392Y-107750500D01*
X117611608Y-107750500D01*
X117611610Y-107750500D01*
X117821198Y-107711321D01*
X118020019Y-107634298D01*
X118201302Y-107522052D01*
X118358872Y-107378407D01*
X118487366Y-107208255D01*
X118518919Y-107144887D01*
X118582403Y-107017394D01*
X118582403Y-107017393D01*
X118582405Y-107017389D01*
X118584508Y-107009999D01*
X121774357Y-107009999D01*
X121774357Y-107010000D01*
X121794884Y-107231535D01*
X121794885Y-107231537D01*
X121855769Y-107445523D01*
X121855775Y-107445538D01*
X121954938Y-107644683D01*
X121954943Y-107644691D01*
X122089020Y-107822238D01*
X122253437Y-107972123D01*
X122253439Y-107972125D01*
X122442595Y-108089245D01*
X122442596Y-108089245D01*
X122442599Y-108089247D01*
X122650060Y-108169618D01*
X122868757Y-108210500D01*
X122868759Y-108210500D01*
X123091241Y-108210500D01*
X123091243Y-108210500D01*
X123309940Y-108169618D01*
X123330260Y-108161746D01*
X132369000Y-108161746D01*
X132369000Y-108836375D01*
X133003314Y-108836375D01*
X132998920Y-108840769D01*
X132946259Y-108931981D01*
X132919000Y-109033714D01*
X132919000Y-109139036D01*
X132946259Y-109240769D01*
X132998920Y-109331981D01*
X133003314Y-109336375D01*
X132369000Y-109336375D01*
X132369000Y-110011003D01*
X132383503Y-110083915D01*
X132383505Y-110083919D01*
X132438760Y-110166614D01*
X132521455Y-110221869D01*
X132521459Y-110221871D01*
X132594371Y-110236374D01*
X132594374Y-110236375D01*
X133069000Y-110236375D01*
X133069000Y-109402061D01*
X133073394Y-109406455D01*
X133164606Y-109459116D01*
X133266339Y-109486375D01*
X133371661Y-109486375D01*
X133473394Y-109459116D01*
X133564606Y-109406455D01*
X133569000Y-109402061D01*
X133569000Y-110236375D01*
X134043626Y-110236375D01*
X134043628Y-110236374D01*
X134116540Y-110221871D01*
X134116544Y-110221869D01*
X134199239Y-110166614D01*
X134254494Y-110083919D01*
X134254496Y-110083915D01*
X134268999Y-110011003D01*
X134269000Y-110011001D01*
X134269000Y-109336375D01*
X133634686Y-109336375D01*
X133639080Y-109331981D01*
X133691741Y-109240769D01*
X133719000Y-109139036D01*
X133719000Y-109033714D01*
X133691741Y-108931981D01*
X133639080Y-108840769D01*
X133634686Y-108836375D01*
X134269000Y-108836375D01*
X134269000Y-108799764D01*
X134758500Y-108799764D01*
X134758500Y-109372985D01*
X134783285Y-109529476D01*
X134785598Y-109544076D01*
X134839127Y-109708820D01*
X134917768Y-109863163D01*
X135019586Y-110003303D01*
X135142072Y-110125789D01*
X135282212Y-110227607D01*
X135436555Y-110306248D01*
X135601299Y-110359777D01*
X135772389Y-110386875D01*
X135772390Y-110386875D01*
X135945610Y-110386875D01*
X135945611Y-110386875D01*
X136116701Y-110359777D01*
X136281445Y-110306248D01*
X136435788Y-110227607D01*
X136575928Y-110125789D01*
X136698414Y-110003303D01*
X136800232Y-109863163D01*
X136878873Y-109708820D01*
X136932402Y-109544076D01*
X136959500Y-109372986D01*
X136959500Y-108799764D01*
X136932402Y-108628674D01*
X136878873Y-108463930D01*
X136800232Y-108309587D01*
X136698414Y-108169447D01*
X136575928Y-108046961D01*
X136435788Y-107945143D01*
X136345270Y-107899022D01*
X136281447Y-107866503D01*
X136281446Y-107866502D01*
X136281445Y-107866502D01*
X136116701Y-107812973D01*
X136116699Y-107812972D01*
X136116698Y-107812972D01*
X135985271Y-107792156D01*
X135945611Y-107785875D01*
X135772389Y-107785875D01*
X135732728Y-107792156D01*
X135601302Y-107812972D01*
X135436552Y-107866503D01*
X135282211Y-107945143D01*
X135222253Y-107988706D01*
X135142072Y-108046961D01*
X135142070Y-108046963D01*
X135142069Y-108046963D01*
X135019588Y-108169444D01*
X135019588Y-108169445D01*
X135019586Y-108169447D01*
X134989759Y-108210500D01*
X134917768Y-108309586D01*
X134839128Y-108463927D01*
X134785597Y-108628677D01*
X134758500Y-108799764D01*
X134269000Y-108799764D01*
X134269000Y-108161748D01*
X134268999Y-108161746D01*
X134254496Y-108088834D01*
X134254494Y-108088830D01*
X134199239Y-108006135D01*
X134116544Y-107950880D01*
X134116540Y-107950878D01*
X134043627Y-107936375D01*
X133569000Y-107936375D01*
X133569000Y-108770689D01*
X133564606Y-108766295D01*
X133473394Y-108713634D01*
X133371661Y-108686375D01*
X133266339Y-108686375D01*
X133164606Y-108713634D01*
X133073394Y-108766295D01*
X133069000Y-108770689D01*
X133069000Y-107936375D01*
X132594373Y-107936375D01*
X132521459Y-107950878D01*
X132521455Y-107950880D01*
X132438760Y-108006135D01*
X132383505Y-108088830D01*
X132383503Y-108088834D01*
X132369000Y-108161746D01*
X123330260Y-108161746D01*
X123517401Y-108089247D01*
X123706562Y-107972124D01*
X123870981Y-107822236D01*
X124005058Y-107644689D01*
X124104229Y-107445528D01*
X124165115Y-107231536D01*
X124185643Y-107010000D01*
X126924919Y-107010000D01*
X126945191Y-107215834D01*
X127005233Y-107413766D01*
X127080975Y-107555469D01*
X127080976Y-107555469D01*
X127580000Y-107056446D01*
X127580000Y-107062661D01*
X127607259Y-107164394D01*
X127659920Y-107255606D01*
X127734394Y-107330080D01*
X127825606Y-107382741D01*
X127927339Y-107410000D01*
X127933553Y-107410000D01*
X127434528Y-107909023D01*
X127576233Y-107984766D01*
X127774165Y-108044808D01*
X127980000Y-108065080D01*
X128185834Y-108044808D01*
X128383764Y-107984766D01*
X128525470Y-107909022D01*
X128026448Y-107410000D01*
X128032661Y-107410000D01*
X128134394Y-107382741D01*
X128225606Y-107330080D01*
X128300080Y-107255606D01*
X128352741Y-107164394D01*
X128380000Y-107062661D01*
X128380000Y-107056447D01*
X128879022Y-107555469D01*
X128954766Y-107413764D01*
X129014808Y-107215834D01*
X129035080Y-107010000D01*
X129014808Y-106804165D01*
X128954766Y-106606233D01*
X128879023Y-106464528D01*
X128380000Y-106963551D01*
X128380000Y-106957339D01*
X128352741Y-106855606D01*
X128300080Y-106764394D01*
X128225606Y-106689920D01*
X128134394Y-106637259D01*
X128032661Y-106610000D01*
X128026448Y-106610000D01*
X128525469Y-106110976D01*
X128525469Y-106110975D01*
X128383766Y-106035233D01*
X128185834Y-105975191D01*
X127980000Y-105954919D01*
X127774166Y-105975191D01*
X127576234Y-106035234D01*
X127434529Y-106110975D01*
X127434529Y-106110976D01*
X127933553Y-106610000D01*
X127927339Y-106610000D01*
X127825606Y-106637259D01*
X127734394Y-106689920D01*
X127659920Y-106764394D01*
X127607259Y-106855606D01*
X127580000Y-106957339D01*
X127580000Y-106963553D01*
X127080976Y-106464529D01*
X127080975Y-106464529D01*
X127005234Y-106606234D01*
X126945191Y-106804166D01*
X126924919Y-107010000D01*
X124185643Y-107010000D01*
X124165115Y-106788464D01*
X124104229Y-106574472D01*
X124098388Y-106562741D01*
X124005061Y-106375316D01*
X124005056Y-106375308D01*
X123870979Y-106197761D01*
X123706562Y-106047876D01*
X123706560Y-106047874D01*
X123517404Y-105930754D01*
X123517398Y-105930752D01*
X123309940Y-105850382D01*
X123091243Y-105809500D01*
X122868757Y-105809500D01*
X122650060Y-105850382D01*
X122599627Y-105869920D01*
X122442601Y-105930752D01*
X122442595Y-105930754D01*
X122253439Y-106047874D01*
X122253437Y-106047876D01*
X122089020Y-106197761D01*
X121954943Y-106375308D01*
X121954938Y-106375316D01*
X121855775Y-106574461D01*
X121855769Y-106574476D01*
X121794885Y-106788462D01*
X121794884Y-106788464D01*
X121774357Y-107009999D01*
X118584508Y-107009999D01*
X118640756Y-106812310D01*
X118660429Y-106600000D01*
X118640756Y-106387690D01*
X118582405Y-106182611D01*
X118582403Y-106182606D01*
X118582403Y-106182605D01*
X118487367Y-105991746D01*
X118358872Y-105821593D01*
X118200076Y-105676830D01*
X118163795Y-105617118D01*
X118165556Y-105547271D01*
X118204800Y-105489463D01*
X118224598Y-105476138D01*
X118328228Y-105420056D01*
X118328231Y-105420055D01*
X118375056Y-105383609D01*
X118014020Y-105022573D01*
X118142463Y-104936751D01*
X118281751Y-104797463D01*
X118367573Y-104669021D01*
X118728434Y-105029882D01*
X118828731Y-104876369D01*
X118928587Y-104648717D01*
X118989612Y-104407738D01*
X118989614Y-104407729D01*
X119010141Y-104160005D01*
X119010141Y-104159994D01*
X118989614Y-103912270D01*
X118989612Y-103912261D01*
X118928587Y-103671282D01*
X118828731Y-103443630D01*
X118728434Y-103290116D01*
X118367572Y-103650978D01*
X118281751Y-103522537D01*
X118142463Y-103383249D01*
X118014020Y-103297426D01*
X118375057Y-102936390D01*
X118375056Y-102936389D01*
X118328229Y-102899943D01*
X118224598Y-102843861D01*
X118175007Y-102794642D01*
X118159899Y-102726425D01*
X118184069Y-102660869D01*
X118200077Y-102643169D01*
X118358870Y-102498409D01*
X118365509Y-102489618D01*
X118487366Y-102328255D01*
X118499062Y-102304766D01*
X118582403Y-102137394D01*
X118582403Y-102137393D01*
X118582405Y-102137389D01*
X118640756Y-101932310D01*
X118660429Y-101720000D01*
X118640756Y-101507690D01*
X118590198Y-101329999D01*
X121774357Y-101329999D01*
X121774357Y-101330000D01*
X121794884Y-101551535D01*
X121794885Y-101551537D01*
X121855769Y-101765523D01*
X121855775Y-101765538D01*
X121954938Y-101964683D01*
X121954943Y-101964691D01*
X122089020Y-102142238D01*
X122253437Y-102292123D01*
X122253439Y-102292125D01*
X122442595Y-102409245D01*
X122442596Y-102409245D01*
X122442599Y-102409247D01*
X122650060Y-102489618D01*
X122868757Y-102530500D01*
X122868759Y-102530500D01*
X123091241Y-102530500D01*
X123091243Y-102530500D01*
X123309940Y-102489618D01*
X123517401Y-102409247D01*
X123706562Y-102292124D01*
X123870981Y-102142236D01*
X124005058Y-101964689D01*
X124104229Y-101765528D01*
X124165115Y-101551536D01*
X124185643Y-101330000D01*
X126924919Y-101330000D01*
X126945191Y-101535834D01*
X127005233Y-101733766D01*
X127080975Y-101875469D01*
X127080976Y-101875469D01*
X127580000Y-101376446D01*
X127580000Y-101382661D01*
X127607259Y-101484394D01*
X127659920Y-101575606D01*
X127734394Y-101650080D01*
X127825606Y-101702741D01*
X127927339Y-101730000D01*
X127933553Y-101730000D01*
X127434528Y-102229023D01*
X127576233Y-102304766D01*
X127774165Y-102364808D01*
X127980000Y-102385080D01*
X128185834Y-102364808D01*
X128383764Y-102304766D01*
X128525470Y-102229022D01*
X128296447Y-101999999D01*
X132254357Y-101999999D01*
X132254357Y-102000000D01*
X132274884Y-102221535D01*
X132274885Y-102221537D01*
X132335769Y-102435523D01*
X132335775Y-102435538D01*
X132434938Y-102634683D01*
X132434943Y-102634691D01*
X132569020Y-102812238D01*
X132733437Y-102962123D01*
X132733439Y-102962125D01*
X132922595Y-103079245D01*
X132922596Y-103079245D01*
X132922599Y-103079247D01*
X133130060Y-103159618D01*
X133348757Y-103200500D01*
X133348759Y-103200500D01*
X133571241Y-103200500D01*
X133571243Y-103200500D01*
X133789940Y-103159618D01*
X133997401Y-103079247D01*
X134186562Y-102962124D01*
X134350981Y-102812236D01*
X134485058Y-102634689D01*
X134584229Y-102435528D01*
X134645115Y-102221536D01*
X134661926Y-102040112D01*
X134677767Y-102000219D01*
X134892799Y-102000219D01*
X134907089Y-102027747D01*
X134908799Y-102039401D01*
X134925191Y-102205835D01*
X134985233Y-102403766D01*
X135060975Y-102545469D01*
X135060976Y-102545469D01*
X135560000Y-102046446D01*
X135560000Y-102052661D01*
X135587259Y-102154394D01*
X135639920Y-102245606D01*
X135714394Y-102320080D01*
X135805606Y-102372741D01*
X135907339Y-102400000D01*
X135913553Y-102400000D01*
X135414528Y-102899023D01*
X135556233Y-102974766D01*
X135754165Y-103034808D01*
X135960000Y-103055080D01*
X136165834Y-103034808D01*
X136363764Y-102974766D01*
X136505470Y-102899022D01*
X136006448Y-102400000D01*
X136012661Y-102400000D01*
X136114394Y-102372741D01*
X136205606Y-102320080D01*
X136280080Y-102245606D01*
X136332741Y-102154394D01*
X136360000Y-102052661D01*
X136360000Y-102046447D01*
X136859022Y-102545469D01*
X136934766Y-102403764D01*
X136994808Y-102205834D01*
X137015080Y-102000000D01*
X136994808Y-101794165D01*
X136934766Y-101596233D01*
X136859023Y-101454528D01*
X136360000Y-101953551D01*
X136360000Y-101947339D01*
X136332741Y-101845606D01*
X136280080Y-101754394D01*
X136205606Y-101679920D01*
X136114394Y-101627259D01*
X136012661Y-101600000D01*
X136006448Y-101600000D01*
X136505469Y-101100976D01*
X136505469Y-101100975D01*
X136363766Y-101025233D01*
X136165834Y-100965191D01*
X135960000Y-100944919D01*
X135754166Y-100965191D01*
X135556234Y-101025234D01*
X135414529Y-101100975D01*
X135414529Y-101100976D01*
X135913553Y-101600000D01*
X135907339Y-101600000D01*
X135805606Y-101627259D01*
X135714394Y-101679920D01*
X135639920Y-101754394D01*
X135587259Y-101845606D01*
X135560000Y-101947339D01*
X135560000Y-101953553D01*
X135060976Y-101454529D01*
X135060975Y-101454529D01*
X134985234Y-101596234D01*
X134925191Y-101794166D01*
X134908799Y-101960598D01*
X134892799Y-102000219D01*
X134677767Y-102000219D01*
X134677974Y-101999698D01*
X134663567Y-101971547D01*
X134661927Y-101959899D01*
X134645115Y-101778464D01*
X134584229Y-101564472D01*
X134579746Y-101555469D01*
X134485061Y-101365316D01*
X134485056Y-101365308D01*
X134350979Y-101187761D01*
X134186562Y-101037876D01*
X134186560Y-101037874D01*
X133997404Y-100920754D01*
X133997398Y-100920752D01*
X133789940Y-100840382D01*
X133571243Y-100799500D01*
X133348757Y-100799500D01*
X133130060Y-100840382D01*
X133039137Y-100875606D01*
X132922601Y-100920752D01*
X132922595Y-100920754D01*
X132733439Y-101037874D01*
X132733437Y-101037876D01*
X132569020Y-101187761D01*
X132434943Y-101365308D01*
X132434938Y-101365316D01*
X132335775Y-101564461D01*
X132335769Y-101564476D01*
X132274885Y-101778462D01*
X132274884Y-101778464D01*
X132254357Y-101999999D01*
X128296447Y-101999999D01*
X128026448Y-101730000D01*
X128032661Y-101730000D01*
X128134394Y-101702741D01*
X128225606Y-101650080D01*
X128300080Y-101575606D01*
X128352741Y-101484394D01*
X128380000Y-101382661D01*
X128380000Y-101376447D01*
X128879022Y-101875469D01*
X128954766Y-101733764D01*
X129014808Y-101535834D01*
X129035080Y-101330000D01*
X129014808Y-101124165D01*
X128954766Y-100926233D01*
X128879023Y-100784528D01*
X128380000Y-101283551D01*
X128380000Y-101277339D01*
X128352741Y-101175606D01*
X128300080Y-101084394D01*
X128225606Y-101009920D01*
X128134394Y-100957259D01*
X128032661Y-100930000D01*
X128026448Y-100930000D01*
X128525469Y-100430976D01*
X128525469Y-100430975D01*
X128383766Y-100355233D01*
X128185834Y-100295191D01*
X127980000Y-100274919D01*
X127774166Y-100295191D01*
X127576234Y-100355234D01*
X127434529Y-100430975D01*
X127434529Y-100430976D01*
X127933553Y-100930000D01*
X127927339Y-100930000D01*
X127825606Y-100957259D01*
X127734394Y-101009920D01*
X127659920Y-101084394D01*
X127607259Y-101175606D01*
X127580000Y-101277339D01*
X127580000Y-101283553D01*
X127080976Y-100784529D01*
X127080975Y-100784529D01*
X127005234Y-100926234D01*
X126945191Y-101124166D01*
X126924919Y-101330000D01*
X124185643Y-101330000D01*
X124179303Y-101261578D01*
X124165115Y-101108462D01*
X124104230Y-100894476D01*
X124104229Y-100894472D01*
X124084876Y-100855606D01*
X124005061Y-100695316D01*
X124005056Y-100695308D01*
X123870979Y-100517761D01*
X123706562Y-100367876D01*
X123706560Y-100367874D01*
X123517404Y-100250754D01*
X123517398Y-100250752D01*
X123309940Y-100170382D01*
X123091243Y-100129500D01*
X122868757Y-100129500D01*
X122650060Y-100170382D01*
X122518864Y-100221207D01*
X122442601Y-100250752D01*
X122442595Y-100250754D01*
X122253439Y-100367874D01*
X122253437Y-100367876D01*
X122089020Y-100517761D01*
X121954943Y-100695308D01*
X121954938Y-100695316D01*
X121855775Y-100894461D01*
X121855769Y-100894476D01*
X121794885Y-101108462D01*
X121774357Y-101329999D01*
X118590198Y-101329999D01*
X118582405Y-101302611D01*
X118582403Y-101302606D01*
X118582403Y-101302605D01*
X118487367Y-101111746D01*
X118358872Y-100941593D01*
X118259670Y-100851158D01*
X118201302Y-100797948D01*
X118020019Y-100685702D01*
X118020017Y-100685701D01*
X117866510Y-100626233D01*
X117821198Y-100608679D01*
X117611610Y-100569500D01*
X117398390Y-100569500D01*
X117188802Y-100608679D01*
X117188799Y-100608679D01*
X117188799Y-100608680D01*
X116989982Y-100685701D01*
X116989980Y-100685702D01*
X116808699Y-100797947D01*
X116651127Y-100941593D01*
X116522632Y-101111746D01*
X116427596Y-101302605D01*
X116427596Y-101302607D01*
X116369244Y-101507689D01*
X116349571Y-101719999D01*
X116349571Y-101720000D01*
X116369244Y-101932310D01*
X116427596Y-102137392D01*
X116427596Y-102137394D01*
X116522632Y-102328253D01*
X116651129Y-102498409D01*
X116809923Y-102643169D01*
X116846205Y-102702880D01*
X116844444Y-102772728D01*
X116805200Y-102830535D01*
X116785403Y-102843861D01*
X116681761Y-102899949D01*
X116634942Y-102936388D01*
X116634942Y-102936390D01*
X116995978Y-103297426D01*
X116867537Y-103383249D01*
X116728249Y-103522537D01*
X116642426Y-103650978D01*
X116281564Y-103290116D01*
X116181267Y-103443632D01*
X116081412Y-103671282D01*
X116020387Y-103912261D01*
X116020385Y-103912270D01*
X115999859Y-104159994D01*
X112340500Y-104159994D01*
X112340500Y-100851155D01*
X112340499Y-100851153D01*
X112309737Y-100696503D01*
X112293482Y-100657259D01*
X112249397Y-100550827D01*
X112249390Y-100550814D01*
X112161790Y-100419712D01*
X112109952Y-100367874D01*
X112050289Y-100308211D01*
X108968173Y-97226095D01*
X108947488Y-97198686D01*
X108938376Y-97182304D01*
X108686389Y-96729245D01*
X108603380Y-96580000D01*
X111174919Y-96580000D01*
X111195191Y-96785834D01*
X111255233Y-96983766D01*
X111330975Y-97125469D01*
X111330976Y-97125469D01*
X111830000Y-96626446D01*
X111830000Y-96632661D01*
X111857259Y-96734394D01*
X111909920Y-96825606D01*
X111984394Y-96900080D01*
X112075606Y-96952741D01*
X112177339Y-96980000D01*
X112183553Y-96980000D01*
X111684528Y-97479023D01*
X111826233Y-97554766D01*
X112024165Y-97614808D01*
X112230000Y-97635080D01*
X112435834Y-97614808D01*
X112633764Y-97554766D01*
X112639653Y-97551618D01*
X131254700Y-97551618D01*
X131254700Y-97551631D01*
X131273864Y-97782922D01*
X131273866Y-97782933D01*
X131330842Y-98007925D01*
X131424075Y-98220473D01*
X131551016Y-98414772D01*
X131551019Y-98414776D01*
X131551021Y-98414778D01*
X131708216Y-98585538D01*
X131708219Y-98585540D01*
X131708222Y-98585543D01*
X131891365Y-98728089D01*
X131891371Y-98728093D01*
X131891374Y-98728095D01*
X132095497Y-98838561D01*
X132209487Y-98877693D01*
X132315015Y-98913922D01*
X132315017Y-98913922D01*
X132315019Y-98913923D01*
X132543951Y-98952125D01*
X132543952Y-98952125D01*
X132776048Y-98952125D01*
X132776049Y-98952125D01*
X133004981Y-98913923D01*
X133224503Y-98838561D01*
X133428626Y-98728095D01*
X133433640Y-98724193D01*
X133544004Y-98638293D01*
X133611784Y-98585538D01*
X133768979Y-98414778D01*
X133895924Y-98220474D01*
X133989157Y-98007925D01*
X134046134Y-97782930D01*
X134046135Y-97782922D01*
X134065300Y-97551631D01*
X134065300Y-97551624D01*
X135905225Y-97551624D01*
X135905225Y-97551625D01*
X135924287Y-97769509D01*
X135924289Y-97769519D01*
X135980894Y-97980775D01*
X135980898Y-97980784D01*
X136073333Y-98179012D01*
X136116874Y-98241196D01*
X136636212Y-97721858D01*
X136647482Y-97763917D01*
X136719890Y-97889333D01*
X136822292Y-97991735D01*
X136947708Y-98064143D01*
X136989765Y-98075412D01*
X136470427Y-98594749D01*
X136532612Y-98638291D01*
X136730840Y-98730726D01*
X136730849Y-98730730D01*
X136942105Y-98787335D01*
X136942115Y-98787337D01*
X137159999Y-98806400D01*
X137160001Y-98806400D01*
X137377884Y-98787337D01*
X137377894Y-98787335D01*
X137589150Y-98730730D01*
X137589164Y-98730725D01*
X137787383Y-98638294D01*
X137787385Y-98638293D01*
X137849571Y-98594749D01*
X137330235Y-98075412D01*
X137372292Y-98064143D01*
X137497708Y-97991735D01*
X137600110Y-97889333D01*
X137672518Y-97763917D01*
X137683787Y-97721859D01*
X138203124Y-98241195D01*
X138246668Y-98179010D01*
X138246669Y-98179008D01*
X138339100Y-97980789D01*
X138339105Y-97980775D01*
X138395710Y-97769519D01*
X138395712Y-97769509D01*
X138414775Y-97551625D01*
X138414775Y-97551624D01*
X138395712Y-97333740D01*
X138395710Y-97333730D01*
X138339105Y-97122474D01*
X138339101Y-97122465D01*
X138246667Y-96924239D01*
X138246666Y-96924237D01*
X138203124Y-96862053D01*
X138203124Y-96862052D01*
X137683787Y-97381389D01*
X137672518Y-97339333D01*
X137600110Y-97213917D01*
X137497708Y-97111515D01*
X137372292Y-97039107D01*
X137330234Y-97027837D01*
X137849571Y-96508499D01*
X137787387Y-96464958D01*
X137589159Y-96372523D01*
X137589150Y-96372519D01*
X137377894Y-96315914D01*
X137377884Y-96315912D01*
X137160001Y-96296850D01*
X137159999Y-96296850D01*
X136942115Y-96315912D01*
X136942105Y-96315914D01*
X136730849Y-96372519D01*
X136730840Y-96372523D01*
X136532613Y-96464958D01*
X136470428Y-96508499D01*
X136989766Y-97027837D01*
X136947708Y-97039107D01*
X136822292Y-97111515D01*
X136719890Y-97213917D01*
X136647482Y-97339333D01*
X136636212Y-97381391D01*
X136116874Y-96862053D01*
X136073333Y-96924238D01*
X135980898Y-97122465D01*
X135980894Y-97122474D01*
X135924289Y-97333730D01*
X135924287Y-97333740D01*
X135905225Y-97551624D01*
X134065300Y-97551624D01*
X134065300Y-97551618D01*
X134046135Y-97320327D01*
X134046133Y-97320316D01*
X133989157Y-97095324D01*
X133895924Y-96882776D01*
X133768983Y-96688477D01*
X133768980Y-96688474D01*
X133768979Y-96688472D01*
X133611784Y-96517712D01*
X133611779Y-96517708D01*
X133611777Y-96517706D01*
X133428634Y-96375160D01*
X133428628Y-96375156D01*
X133224504Y-96264689D01*
X133224495Y-96264686D01*
X133004984Y-96189327D01*
X132833282Y-96160675D01*
X132776049Y-96151125D01*
X132543951Y-96151125D01*
X132498164Y-96158765D01*
X132315015Y-96189327D01*
X132095504Y-96264686D01*
X132095495Y-96264689D01*
X131891371Y-96375156D01*
X131891365Y-96375160D01*
X131708222Y-96517706D01*
X131708219Y-96517709D01*
X131708216Y-96517711D01*
X131708216Y-96517712D01*
X131679393Y-96549022D01*
X131551016Y-96688477D01*
X131424075Y-96882776D01*
X131330842Y-97095324D01*
X131273866Y-97320316D01*
X131273864Y-97320327D01*
X131254700Y-97551618D01*
X112639653Y-97551618D01*
X112775470Y-97479022D01*
X112276448Y-96980000D01*
X112282661Y-96980000D01*
X112384394Y-96952741D01*
X112475606Y-96900080D01*
X112550080Y-96825606D01*
X112602741Y-96734394D01*
X112630000Y-96632661D01*
X112630000Y-96626447D01*
X113129022Y-97125469D01*
X113204766Y-96983764D01*
X113264808Y-96785834D01*
X113285080Y-96580000D01*
X113264808Y-96374165D01*
X113204766Y-96176233D01*
X113129023Y-96034528D01*
X112630000Y-96533551D01*
X112630000Y-96527339D01*
X112602741Y-96425606D01*
X112550080Y-96334394D01*
X112475606Y-96259920D01*
X112384394Y-96207259D01*
X112282661Y-96180000D01*
X112276448Y-96180000D01*
X112775469Y-95680976D01*
X112775469Y-95680975D01*
X112717517Y-95649999D01*
X119274357Y-95649999D01*
X119274357Y-95650000D01*
X119294884Y-95871535D01*
X119294885Y-95871537D01*
X119355769Y-96085523D01*
X119355775Y-96085538D01*
X119454938Y-96284683D01*
X119454943Y-96284691D01*
X119589020Y-96462238D01*
X119753437Y-96612123D01*
X119753439Y-96612125D01*
X119942595Y-96729245D01*
X119942596Y-96729245D01*
X119942599Y-96729247D01*
X120150060Y-96809618D01*
X120368757Y-96850500D01*
X120368759Y-96850500D01*
X120591241Y-96850500D01*
X120591243Y-96850500D01*
X120809940Y-96809618D01*
X121017401Y-96729247D01*
X121206562Y-96612124D01*
X121370981Y-96462236D01*
X121505058Y-96284689D01*
X121604229Y-96085528D01*
X121665115Y-95871536D01*
X121685643Y-95650000D01*
X124424919Y-95650000D01*
X124445191Y-95855834D01*
X124505233Y-96053766D01*
X124580975Y-96195469D01*
X124580976Y-96195469D01*
X125080000Y-95696446D01*
X125080000Y-95702661D01*
X125107259Y-95804394D01*
X125159920Y-95895606D01*
X125234394Y-95970080D01*
X125325606Y-96022741D01*
X125427339Y-96050000D01*
X125433553Y-96050000D01*
X124934528Y-96549023D01*
X125076233Y-96624766D01*
X125274165Y-96684808D01*
X125480000Y-96705080D01*
X125685834Y-96684808D01*
X125883764Y-96624766D01*
X126025470Y-96549022D01*
X125526448Y-96050000D01*
X125532661Y-96050000D01*
X125634394Y-96022741D01*
X125725606Y-95970080D01*
X125800080Y-95895606D01*
X125852741Y-95804394D01*
X125880000Y-95702661D01*
X125880000Y-95696447D01*
X126379022Y-96195469D01*
X126454766Y-96053764D01*
X126514808Y-95855834D01*
X126535080Y-95650000D01*
X126514808Y-95444165D01*
X126454766Y-95246233D01*
X126379023Y-95104528D01*
X125880000Y-95603551D01*
X125880000Y-95597339D01*
X125852741Y-95495606D01*
X125800080Y-95404394D01*
X125725606Y-95329920D01*
X125634394Y-95277259D01*
X125532661Y-95250000D01*
X125526448Y-95250000D01*
X126025469Y-94750976D01*
X126025469Y-94750975D01*
X125883766Y-94675233D01*
X125685834Y-94615191D01*
X125480000Y-94594919D01*
X125274166Y-94615191D01*
X125076234Y-94675234D01*
X124934529Y-94750975D01*
X124934529Y-94750976D01*
X125433553Y-95250000D01*
X125427339Y-95250000D01*
X125325606Y-95277259D01*
X125234394Y-95329920D01*
X125159920Y-95404394D01*
X125107259Y-95495606D01*
X125080000Y-95597339D01*
X125080000Y-95603553D01*
X124580976Y-95104529D01*
X124580975Y-95104529D01*
X124505234Y-95246234D01*
X124445191Y-95444166D01*
X124424919Y-95650000D01*
X121685643Y-95650000D01*
X121665115Y-95428464D01*
X121604229Y-95214472D01*
X121604224Y-95214461D01*
X121505061Y-95015316D01*
X121505056Y-95015308D01*
X121370979Y-94837761D01*
X121206562Y-94687876D01*
X121206560Y-94687874D01*
X121017404Y-94570754D01*
X121017398Y-94570752D01*
X120962867Y-94549626D01*
X120907467Y-94507054D01*
X120883876Y-94441287D01*
X120899587Y-94373207D01*
X120949611Y-94324428D01*
X121007662Y-94310000D01*
X122131000Y-94310000D01*
X122198039Y-94329685D01*
X122243794Y-94382489D01*
X122255000Y-94434000D01*
X122255000Y-94834628D01*
X122269503Y-94907540D01*
X122269505Y-94907544D01*
X122324760Y-94990239D01*
X122407455Y-95045494D01*
X122407459Y-95045496D01*
X122480371Y-95059999D01*
X122480374Y-95060000D01*
X122755000Y-95060000D01*
X122755000Y-94359728D01*
X122793060Y-94451614D01*
X122863386Y-94521940D01*
X122955272Y-94560000D01*
X123054728Y-94560000D01*
X123146614Y-94521940D01*
X123216940Y-94451614D01*
X123255000Y-94359728D01*
X123255000Y-95060000D01*
X123529626Y-95060000D01*
X123529628Y-95059999D01*
X123602540Y-95045496D01*
X123602544Y-95045494D01*
X123685239Y-94990239D01*
X123740494Y-94907544D01*
X123740496Y-94907540D01*
X123754999Y-94834628D01*
X123755000Y-94834626D01*
X123755000Y-94434000D01*
X123774685Y-94366961D01*
X123827489Y-94321206D01*
X123879000Y-94310000D01*
X126029626Y-94310000D01*
X126029628Y-94309999D01*
X126102540Y-94295496D01*
X126102544Y-94295494D01*
X126185239Y-94240239D01*
X126240494Y-94157544D01*
X126240496Y-94157540D01*
X126254999Y-94084628D01*
X126255000Y-94084626D01*
X126255000Y-93060000D01*
X123255000Y-93060000D01*
X123255000Y-94260272D01*
X123216940Y-94168386D01*
X123146614Y-94098060D01*
X123054728Y-94060000D01*
X122955272Y-94060000D01*
X122863386Y-94098060D01*
X122793060Y-94168386D01*
X122755000Y-94260272D01*
X122755000Y-93060000D01*
X119755000Y-93060000D01*
X119755000Y-94084628D01*
X119769503Y-94157540D01*
X119769505Y-94157544D01*
X119824760Y-94240239D01*
X119907455Y-94295494D01*
X119907459Y-94295496D01*
X119981897Y-94310303D01*
X120043808Y-94342688D01*
X120078382Y-94403403D01*
X120074643Y-94473173D01*
X120033777Y-94529845D01*
X120002500Y-94547546D01*
X119942610Y-94570747D01*
X119942595Y-94570754D01*
X119753439Y-94687874D01*
X119753437Y-94687876D01*
X119589020Y-94837761D01*
X119454943Y-95015308D01*
X119454938Y-95015316D01*
X119355775Y-95214461D01*
X119355769Y-95214476D01*
X119294885Y-95428462D01*
X119294884Y-95428464D01*
X119274357Y-95649999D01*
X112717517Y-95649999D01*
X112633766Y-95605233D01*
X112435834Y-95545191D01*
X112230000Y-95524919D01*
X112024166Y-95545191D01*
X111826234Y-95605234D01*
X111684529Y-95680975D01*
X111684529Y-95680976D01*
X112183553Y-96180000D01*
X112177339Y-96180000D01*
X112075606Y-96207259D01*
X111984394Y-96259920D01*
X111909920Y-96334394D01*
X111857259Y-96425606D01*
X111830000Y-96527339D01*
X111830000Y-96533553D01*
X111330976Y-96034529D01*
X111330975Y-96034529D01*
X111255234Y-96176234D01*
X111195191Y-96374166D01*
X111174919Y-96580000D01*
X108603380Y-96580000D01*
X108328577Y-96085919D01*
X108328360Y-96085538D01*
X108324418Y-96078617D01*
X108324415Y-96078613D01*
X108324412Y-96078608D01*
X108321476Y-96074329D01*
X108321765Y-96074130D01*
X108310596Y-96056847D01*
X108255058Y-95945311D01*
X108136613Y-95788464D01*
X108120979Y-95767761D01*
X107956562Y-95617876D01*
X107956560Y-95617874D01*
X107767404Y-95500754D01*
X107767398Y-95500752D01*
X107754115Y-95495606D01*
X107559940Y-95420382D01*
X107341243Y-95379500D01*
X107118757Y-95379500D01*
X106900060Y-95420382D01*
X106838667Y-95444166D01*
X106692601Y-95500752D01*
X106692595Y-95500754D01*
X106503439Y-95617874D01*
X106503437Y-95617876D01*
X106339020Y-95767761D01*
X106204943Y-95945308D01*
X106204938Y-95945316D01*
X106105775Y-96144461D01*
X106105769Y-96144476D01*
X106044885Y-96358462D01*
X106044884Y-96358464D01*
X106024357Y-96579999D01*
X106024357Y-96580000D01*
X106044884Y-96801535D01*
X106044885Y-96801538D01*
X106097530Y-96986566D01*
X106096943Y-97056433D01*
X106058676Y-97114892D01*
X105994879Y-97143382D01*
X105978264Y-97144500D01*
X105841014Y-97144500D01*
X105687634Y-97182303D01*
X105547762Y-97255715D01*
X105429516Y-97360471D01*
X105339781Y-97490475D01*
X105339780Y-97490476D01*
X105283762Y-97638181D01*
X105264722Y-97794999D01*
X105264722Y-97795000D01*
X105283762Y-97951814D01*
X105283762Y-97951816D01*
X105300819Y-97996791D01*
X105306907Y-98018749D01*
X105309669Y-98034067D01*
X105309759Y-98034562D01*
X105420649Y-98352616D01*
X105422588Y-98358175D01*
X105429500Y-98398998D01*
X105429500Y-109185424D01*
X105429500Y-109314576D01*
X105434101Y-109331747D01*
X105462926Y-109439327D01*
X105483794Y-109475470D01*
X105527502Y-109551174D01*
X105527504Y-109551176D01*
X105806068Y-109829740D01*
X105830046Y-109863493D01*
X105940364Y-110091910D01*
X105940366Y-110091915D01*
X105979092Y-110172098D01*
X105990562Y-110194458D01*
X105990333Y-110194575D01*
X105998131Y-110210177D01*
X105999777Y-110214517D01*
X105999779Y-110214522D01*
X106014863Y-110236375D01*
X106089517Y-110344530D01*
X106207760Y-110449283D01*
X106207762Y-110449284D01*
X106347634Y-110522696D01*
X106501014Y-110560500D01*
X106501015Y-110560500D01*
X106658985Y-110560500D01*
X106812365Y-110522696D01*
X106835661Y-110510469D01*
X106952240Y-110449283D01*
X107070483Y-110344530D01*
X107160220Y-110214523D01*
X107216237Y-110066818D01*
X107235278Y-109910000D01*
X107223209Y-109810606D01*
X107216237Y-109753182D01*
X107215972Y-109752107D01*
X107216007Y-109751293D01*
X107215333Y-109745736D01*
X107216256Y-109745623D01*
X107219039Y-109682305D01*
X107259358Y-109625241D01*
X107324126Y-109599035D01*
X107348522Y-109599026D01*
X107409999Y-109605080D01*
X107615834Y-109584808D01*
X107813764Y-109524766D01*
X107955469Y-109449022D01*
X107456447Y-108950000D01*
X107462661Y-108950000D01*
X107564394Y-108922741D01*
X107655606Y-108870080D01*
X107730080Y-108795606D01*
X107782741Y-108704394D01*
X107810000Y-108602661D01*
X107810000Y-108596447D01*
X108309022Y-109095469D01*
X108384766Y-108953764D01*
X108444808Y-108755834D01*
X108465080Y-108550000D01*
X108444808Y-108344165D01*
X108384766Y-108146233D01*
X108309023Y-108004528D01*
X107810000Y-108503551D01*
X107810000Y-108497339D01*
X107782741Y-108395606D01*
X107730080Y-108304394D01*
X107655606Y-108229920D01*
X107564394Y-108177259D01*
X107462661Y-108150000D01*
X107456448Y-108150000D01*
X107955469Y-107650976D01*
X107955469Y-107650975D01*
X107813766Y-107575233D01*
X107615834Y-107515191D01*
X107410000Y-107494919D01*
X107204166Y-107515191D01*
X107006234Y-107575234D01*
X106864529Y-107650975D01*
X106864529Y-107650976D01*
X107363553Y-108150000D01*
X107357339Y-108150000D01*
X107255606Y-108177259D01*
X107164394Y-108229920D01*
X107089920Y-108304394D01*
X107037259Y-108395606D01*
X107010000Y-108497339D01*
X107010000Y-108503553D01*
X106497039Y-107990592D01*
X106483492Y-107988706D01*
X106430485Y-107943187D01*
X106410501Y-107876236D01*
X106410500Y-107875683D01*
X106410500Y-104544141D01*
X106430185Y-104477102D01*
X106482989Y-104431347D01*
X106552147Y-104421403D01*
X106615703Y-104450428D01*
X106618003Y-104452472D01*
X106683438Y-104512124D01*
X106683440Y-104512125D01*
X106683441Y-104512126D01*
X106735147Y-104544141D01*
X106872599Y-104629247D01*
X106872604Y-104629248D01*
X106872606Y-104629250D01*
X106894112Y-104637581D01*
X106911395Y-104646533D01*
X106911596Y-104646173D01*
X107785228Y-105132078D01*
X107785231Y-105132080D01*
X107814733Y-105148488D01*
X107814733Y-105148489D01*
X107957465Y-105227876D01*
X108028689Y-105267490D01*
X108056097Y-105288175D01*
X109303181Y-106535259D01*
X109336666Y-106596582D01*
X109339500Y-106622940D01*
X109339500Y-110858846D01*
X109370261Y-111013489D01*
X109370264Y-111013501D01*
X109430602Y-111159172D01*
X109430609Y-111159185D01*
X109518210Y-111290288D01*
X109518213Y-111290292D01*
X113503681Y-115275759D01*
X113537166Y-115337082D01*
X113540000Y-115363440D01*
X113540000Y-115906000D01*
X113520315Y-115973039D01*
X113467511Y-116018794D01*
X113416000Y-116030000D01*
X92074500Y-116030000D01*
X92007461Y-116010315D01*
X91961706Y-115957511D01*
X91950500Y-115906000D01*
X91950500Y-109300000D01*
X92424919Y-109300000D01*
X92445191Y-109505834D01*
X92505233Y-109703766D01*
X92580975Y-109845469D01*
X92580976Y-109845469D01*
X93080000Y-109346446D01*
X93080000Y-109352661D01*
X93107259Y-109454394D01*
X93159920Y-109545606D01*
X93234394Y-109620080D01*
X93325606Y-109672741D01*
X93427339Y-109700000D01*
X93433553Y-109700000D01*
X92934528Y-110199023D01*
X93076233Y-110274766D01*
X93274165Y-110334808D01*
X93480000Y-110355080D01*
X93685834Y-110334808D01*
X93883764Y-110274766D01*
X94025470Y-110199022D01*
X93526448Y-109700000D01*
X93532661Y-109700000D01*
X93634394Y-109672741D01*
X93725606Y-109620080D01*
X93800080Y-109545606D01*
X93852741Y-109454394D01*
X93880000Y-109352661D01*
X93880000Y-109346447D01*
X94379022Y-109845469D01*
X94454766Y-109703764D01*
X94514808Y-109505834D01*
X94535080Y-109300000D01*
X94514808Y-109094165D01*
X94454766Y-108896233D01*
X94379023Y-108754528D01*
X93880000Y-109253551D01*
X93880000Y-109247339D01*
X93852741Y-109145606D01*
X93800080Y-109054394D01*
X93725606Y-108979920D01*
X93634394Y-108927259D01*
X93532661Y-108900000D01*
X93526448Y-108900000D01*
X94025469Y-108400976D01*
X94025469Y-108400975D01*
X93883766Y-108325233D01*
X93685834Y-108265191D01*
X93480000Y-108244919D01*
X93274166Y-108265191D01*
X93076234Y-108325234D01*
X92934529Y-108400975D01*
X92934529Y-108400976D01*
X93433553Y-108900000D01*
X93427339Y-108900000D01*
X93325606Y-108927259D01*
X93234394Y-108979920D01*
X93159920Y-109054394D01*
X93107259Y-109145606D01*
X93080000Y-109247339D01*
X93080000Y-109253553D01*
X92580976Y-108754529D01*
X92580975Y-108754529D01*
X92505234Y-108896234D01*
X92445191Y-109094166D01*
X92424919Y-109300000D01*
X91950500Y-109300000D01*
X91950500Y-106949999D01*
X96704722Y-106949999D01*
X96704722Y-106950000D01*
X96723762Y-107106818D01*
X96774630Y-107240943D01*
X96779780Y-107254523D01*
X96869517Y-107384530D01*
X96987760Y-107489283D01*
X96987762Y-107489284D01*
X97127634Y-107562696D01*
X97281014Y-107600500D01*
X97281015Y-107600500D01*
X97438985Y-107600500D01*
X97592365Y-107562696D01*
X97625188Y-107545469D01*
X97732240Y-107489283D01*
X97850483Y-107384530D01*
X97940220Y-107254523D01*
X97945372Y-107240936D01*
X97959473Y-107214166D01*
X97960902Y-107212109D01*
X98109951Y-106903493D01*
X98133925Y-106869745D01*
X102372498Y-102631174D01*
X102437074Y-102519326D01*
X102470500Y-102394576D01*
X102470500Y-102265424D01*
X102470500Y-102043998D01*
X102477412Y-102003177D01*
X102477413Y-102003175D01*
X102590241Y-101679561D01*
X102596215Y-101661001D01*
X102596617Y-101657931D01*
X102603622Y-101630077D01*
X102616237Y-101596818D01*
X102635278Y-101440000D01*
X102632093Y-101413764D01*
X102616237Y-101283181D01*
X102580050Y-101187764D01*
X102560220Y-101135477D01*
X102470483Y-101005470D01*
X102352240Y-100900717D01*
X102352238Y-100900716D01*
X102352237Y-100900715D01*
X102212365Y-100827303D01*
X102058986Y-100789500D01*
X102058985Y-100789500D01*
X101901015Y-100789500D01*
X101901014Y-100789500D01*
X101747634Y-100827303D01*
X101607762Y-100900715D01*
X101489516Y-101005471D01*
X101399781Y-101135475D01*
X101399780Y-101135476D01*
X101343762Y-101283181D01*
X101324722Y-101439999D01*
X101324722Y-101440000D01*
X101343762Y-101596814D01*
X101343762Y-101596816D01*
X101343763Y-101596818D01*
X101355307Y-101627259D01*
X101360819Y-101641791D01*
X101366907Y-101663749D01*
X101369759Y-101679562D01*
X101481480Y-101999999D01*
X101482588Y-102003175D01*
X101489500Y-102043998D01*
X101489500Y-102075465D01*
X101469815Y-102142504D01*
X101453181Y-102163146D01*
X97440258Y-106176068D01*
X97406505Y-106200046D01*
X97097902Y-106349090D01*
X97080505Y-106358016D01*
X97080501Y-106358019D01*
X97072453Y-106364203D01*
X97054532Y-106375670D01*
X96987763Y-106410714D01*
X96987760Y-106410717D01*
X96869516Y-106515471D01*
X96779781Y-106645475D01*
X96779780Y-106645476D01*
X96723762Y-106793181D01*
X96704722Y-106949999D01*
X91950500Y-106949999D01*
X91950500Y-103624533D01*
X91970185Y-103557494D01*
X91986814Y-103536857D01*
X92398997Y-103124674D01*
X92460318Y-103091191D01*
X92530010Y-103096175D01*
X92585943Y-103138047D01*
X92610360Y-103203511D01*
X92608293Y-103236548D01*
X92588138Y-103337873D01*
X92588139Y-103337874D01*
X92579500Y-103381308D01*
X92579500Y-103458806D01*
X92559815Y-103525845D01*
X92554455Y-103533532D01*
X92454943Y-103665309D01*
X92401503Y-103772625D01*
X92397328Y-103780317D01*
X92390112Y-103792557D01*
X92390098Y-103792582D01*
X92389114Y-103794445D01*
X92389101Y-103794472D01*
X92381866Y-103811544D01*
X92378698Y-103818426D01*
X92355773Y-103864467D01*
X92355766Y-103864483D01*
X92294885Y-104078461D01*
X92294884Y-104078464D01*
X92274357Y-104299999D01*
X92274357Y-104300000D01*
X92294884Y-104521535D01*
X92294885Y-104521537D01*
X92355769Y-104735523D01*
X92355775Y-104735538D01*
X92454938Y-104934683D01*
X92454943Y-104934691D01*
X92589020Y-105112238D01*
X92753437Y-105262123D01*
X92753439Y-105262125D01*
X92942595Y-105379245D01*
X92942596Y-105379245D01*
X92942599Y-105379247D01*
X93150060Y-105459618D01*
X93368757Y-105500500D01*
X93368759Y-105500500D01*
X93591241Y-105500500D01*
X93591243Y-105500500D01*
X93809940Y-105459618D01*
X94017401Y-105379247D01*
X94206562Y-105262124D01*
X94370981Y-105112236D01*
X94505058Y-104934689D01*
X94604229Y-104735528D01*
X94665115Y-104521536D01*
X94681201Y-104347931D01*
X94684618Y-104328342D01*
X94684659Y-104328183D01*
X94684660Y-104328174D01*
X94734754Y-103806447D01*
X94764241Y-103499335D01*
X94790242Y-103434484D01*
X94799984Y-103423514D01*
X99649464Y-98574036D01*
X99697109Y-98502730D01*
X99748013Y-98426547D01*
X99759424Y-98398998D01*
X99804384Y-98290455D01*
X99804385Y-98290451D01*
X99815895Y-98262666D01*
X99850500Y-98088692D01*
X99850500Y-97911308D01*
X99850500Y-94744361D01*
X99870185Y-94677322D01*
X99886819Y-94656680D01*
X102881680Y-91661819D01*
X102943003Y-91628334D01*
X102969361Y-91625500D01*
X105554123Y-91625500D01*
X105576975Y-91627624D01*
X106844208Y-91865230D01*
X106866134Y-91871475D01*
X106900060Y-91884618D01*
X107118757Y-91925500D01*
X107165737Y-91925500D01*
X107177257Y-91926036D01*
X107178438Y-91926145D01*
X107178446Y-91926147D01*
X107180587Y-91926347D01*
X107227822Y-91926721D01*
X107249617Y-91926894D01*
X107249617Y-91926893D01*
X107249623Y-91926894D01*
X107249628Y-91926892D01*
X107254895Y-91926294D01*
X107268909Y-91925500D01*
X107341241Y-91925500D01*
X107341243Y-91925500D01*
X107559940Y-91884618D01*
X107623486Y-91860000D01*
X116599540Y-91860000D01*
X116619326Y-92048256D01*
X116619327Y-92048259D01*
X116677818Y-92228277D01*
X116677821Y-92228284D01*
X116772467Y-92392216D01*
X116899129Y-92532888D01*
X117052265Y-92644148D01*
X117052267Y-92644149D01*
X117052270Y-92644151D01*
X117132163Y-92679722D01*
X117170342Y-92696721D01*
X117223578Y-92741972D01*
X117243899Y-92808821D01*
X117224853Y-92876044D01*
X117172487Y-92922299D01*
X117170342Y-92923279D01*
X117052267Y-92975850D01*
X117052265Y-92975851D01*
X116899129Y-93087111D01*
X116772466Y-93227785D01*
X116677821Y-93391715D01*
X116677818Y-93391722D01*
X116619327Y-93571740D01*
X116619326Y-93571744D01*
X116619175Y-93573182D01*
X116601016Y-93745961D01*
X116599540Y-93760000D01*
X116619326Y-93948256D01*
X116619327Y-93948259D01*
X116677818Y-94128277D01*
X116677821Y-94128284D01*
X116772467Y-94292216D01*
X116856726Y-94385795D01*
X116899129Y-94432888D01*
X117052265Y-94544148D01*
X117052270Y-94544151D01*
X117225192Y-94621142D01*
X117225197Y-94621144D01*
X117410354Y-94660500D01*
X117410355Y-94660500D01*
X117599644Y-94660500D01*
X117599646Y-94660500D01*
X117784803Y-94621144D01*
X117957730Y-94544151D01*
X118110871Y-94432888D01*
X118237533Y-94292216D01*
X118332179Y-94128284D01*
X118390674Y-93948256D01*
X118410460Y-93760000D01*
X118408984Y-93745961D01*
X118407307Y-93729999D01*
X118390674Y-93571744D01*
X118332179Y-93391716D01*
X118237533Y-93227784D01*
X118110871Y-93087112D01*
X118100394Y-93079500D01*
X117957734Y-92975851D01*
X117957729Y-92975848D01*
X117839658Y-92923279D01*
X117786421Y-92878029D01*
X117766100Y-92811180D01*
X117785146Y-92743956D01*
X117837512Y-92697701D01*
X117839658Y-92696721D01*
X117888801Y-92674840D01*
X117957730Y-92644151D01*
X118110871Y-92532888D01*
X118237533Y-92392216D01*
X118332179Y-92228284D01*
X118390674Y-92048256D01*
X118410460Y-91860000D01*
X118390674Y-91671744D01*
X118332179Y-91491716D01*
X118237533Y-91327784D01*
X118110871Y-91187112D01*
X118110870Y-91187111D01*
X117957734Y-91075851D01*
X117957729Y-91075848D01*
X117784807Y-90998857D01*
X117784802Y-90998855D01*
X117634079Y-90966819D01*
X117599646Y-90959500D01*
X117410354Y-90959500D01*
X117377897Y-90966398D01*
X117225197Y-90998855D01*
X117225192Y-90998857D01*
X117052270Y-91075848D01*
X117052265Y-91075851D01*
X116899129Y-91187111D01*
X116772466Y-91327785D01*
X116677821Y-91491715D01*
X116677818Y-91491722D01*
X116622551Y-91661819D01*
X116619326Y-91671744D01*
X116599540Y-91860000D01*
X107623486Y-91860000D01*
X107767401Y-91804247D01*
X107956562Y-91687124D01*
X108120981Y-91537236D01*
X108255058Y-91359689D01*
X108303804Y-91261791D01*
X108311124Y-91249048D01*
X108313427Y-91245538D01*
X108313431Y-91245534D01*
X108655019Y-90725000D01*
X111174919Y-90725000D01*
X111195191Y-90930834D01*
X111255233Y-91128766D01*
X111330975Y-91270469D01*
X111330976Y-91270469D01*
X111830000Y-90771446D01*
X111830000Y-90777661D01*
X111857259Y-90879394D01*
X111909920Y-90970606D01*
X111984394Y-91045080D01*
X112075606Y-91097741D01*
X112177339Y-91125000D01*
X112183553Y-91125000D01*
X111684528Y-91624023D01*
X111826233Y-91699766D01*
X112024165Y-91759808D01*
X112230000Y-91780080D01*
X112435834Y-91759808D01*
X112633764Y-91699766D01*
X112775470Y-91624022D01*
X112276448Y-91125000D01*
X112282661Y-91125000D01*
X112384394Y-91097741D01*
X112475606Y-91045080D01*
X112550080Y-90970606D01*
X112602741Y-90879394D01*
X112630000Y-90777661D01*
X112630000Y-90771447D01*
X113129022Y-91270469D01*
X113204766Y-91128764D01*
X113264808Y-90930834D01*
X113285080Y-90725000D01*
X113264808Y-90519165D01*
X113204766Y-90321233D01*
X113129023Y-90179528D01*
X112630000Y-90678551D01*
X112630000Y-90672339D01*
X112602741Y-90570606D01*
X112550080Y-90479394D01*
X112475606Y-90404920D01*
X112384394Y-90352259D01*
X112282661Y-90325000D01*
X112276448Y-90325000D01*
X112631447Y-89969999D01*
X119274357Y-89969999D01*
X119274357Y-89970000D01*
X119294884Y-90191535D01*
X119294885Y-90191537D01*
X119355769Y-90405523D01*
X119355775Y-90405538D01*
X119454938Y-90604683D01*
X119454943Y-90604691D01*
X119589020Y-90782238D01*
X119753437Y-90932123D01*
X119753439Y-90932125D01*
X119942595Y-91049245D01*
X119942597Y-91049246D01*
X119942599Y-91049247D01*
X120002500Y-91072452D01*
X120057901Y-91115024D01*
X120081492Y-91180791D01*
X120065781Y-91248871D01*
X120015758Y-91297651D01*
X119981898Y-91309696D01*
X119907459Y-91324503D01*
X119907455Y-91324505D01*
X119824760Y-91379760D01*
X119769505Y-91462455D01*
X119769503Y-91462459D01*
X119755000Y-91535371D01*
X119755000Y-92560000D01*
X122755000Y-92560000D01*
X122755000Y-91359728D01*
X122793060Y-91451614D01*
X122863386Y-91521940D01*
X122955272Y-91560000D01*
X123054728Y-91560000D01*
X123146614Y-91521940D01*
X123216940Y-91451614D01*
X123255000Y-91359728D01*
X123255000Y-92560000D01*
X126255000Y-92560000D01*
X126255000Y-91535373D01*
X126254999Y-91535371D01*
X126240496Y-91462459D01*
X126240494Y-91462455D01*
X126185239Y-91379760D01*
X126102544Y-91324505D01*
X126102540Y-91324503D01*
X126029627Y-91310000D01*
X123879000Y-91310000D01*
X123811961Y-91290315D01*
X123766206Y-91237511D01*
X123755000Y-91186000D01*
X123755000Y-91051618D01*
X131254700Y-91051618D01*
X131254700Y-91051631D01*
X131273864Y-91282922D01*
X131273866Y-91282933D01*
X131330842Y-91507925D01*
X131424075Y-91720473D01*
X131551016Y-91914772D01*
X131551019Y-91914776D01*
X131551021Y-91914778D01*
X131708216Y-92085538D01*
X131708219Y-92085540D01*
X131708222Y-92085543D01*
X131891365Y-92228089D01*
X131891371Y-92228093D01*
X131891374Y-92228095D01*
X132095497Y-92338561D01*
X132209487Y-92377693D01*
X132315015Y-92413922D01*
X132315017Y-92413922D01*
X132315019Y-92413923D01*
X132543951Y-92452125D01*
X132543952Y-92452125D01*
X132776048Y-92452125D01*
X132776049Y-92452125D01*
X133004981Y-92413923D01*
X133224503Y-92338561D01*
X133428626Y-92228095D01*
X133611784Y-92085538D01*
X133768979Y-91914778D01*
X133895924Y-91720474D01*
X133989157Y-91507925D01*
X134046134Y-91282930D01*
X134047167Y-91270469D01*
X134065300Y-91051631D01*
X134065300Y-91051624D01*
X135905225Y-91051624D01*
X135905225Y-91051625D01*
X135924287Y-91269509D01*
X135924289Y-91269519D01*
X135980894Y-91480775D01*
X135980898Y-91480784D01*
X136073333Y-91679012D01*
X136116874Y-91741196D01*
X136636212Y-91221858D01*
X136647482Y-91263917D01*
X136719890Y-91389333D01*
X136822292Y-91491735D01*
X136947708Y-91564143D01*
X136989765Y-91575412D01*
X136470427Y-92094749D01*
X136532612Y-92138291D01*
X136730840Y-92230726D01*
X136730849Y-92230730D01*
X136942105Y-92287335D01*
X136942115Y-92287337D01*
X137159999Y-92306400D01*
X137160001Y-92306400D01*
X137377884Y-92287337D01*
X137377894Y-92287335D01*
X137589150Y-92230730D01*
X137589164Y-92230725D01*
X137787383Y-92138294D01*
X137787385Y-92138293D01*
X137849571Y-92094749D01*
X137330235Y-91575412D01*
X137372292Y-91564143D01*
X137497708Y-91491735D01*
X137600110Y-91389333D01*
X137672518Y-91263917D01*
X137683787Y-91221859D01*
X138203124Y-91741195D01*
X138246668Y-91679010D01*
X138246669Y-91679008D01*
X138339100Y-91480789D01*
X138339105Y-91480775D01*
X138395710Y-91269519D01*
X138395712Y-91269509D01*
X138414775Y-91051625D01*
X138414775Y-91051624D01*
X138395712Y-90833740D01*
X138395710Y-90833730D01*
X138339105Y-90622474D01*
X138339101Y-90622465D01*
X138246667Y-90424239D01*
X138246666Y-90424237D01*
X138203124Y-90362053D01*
X138203124Y-90362052D01*
X137683787Y-90881389D01*
X137672518Y-90839333D01*
X137600110Y-90713917D01*
X137497708Y-90611515D01*
X137372292Y-90539107D01*
X137330234Y-90527837D01*
X137849571Y-90008499D01*
X137787387Y-89964958D01*
X137589159Y-89872523D01*
X137589150Y-89872519D01*
X137377894Y-89815914D01*
X137377884Y-89815912D01*
X137160001Y-89796850D01*
X137159999Y-89796850D01*
X136942115Y-89815912D01*
X136942105Y-89815914D01*
X136730849Y-89872519D01*
X136730840Y-89872523D01*
X136532613Y-89964958D01*
X136470428Y-90008499D01*
X136989766Y-90527837D01*
X136947708Y-90539107D01*
X136822292Y-90611515D01*
X136719890Y-90713917D01*
X136647482Y-90839333D01*
X136636212Y-90881391D01*
X136116874Y-90362053D01*
X136073333Y-90424238D01*
X135980898Y-90622465D01*
X135980894Y-90622474D01*
X135924289Y-90833730D01*
X135924287Y-90833740D01*
X135905225Y-91051624D01*
X134065300Y-91051624D01*
X134065300Y-91051618D01*
X134046135Y-90820327D01*
X134046133Y-90820316D01*
X133989157Y-90595324D01*
X133895924Y-90382776D01*
X133768983Y-90188477D01*
X133768980Y-90188474D01*
X133768979Y-90188472D01*
X133611784Y-90017712D01*
X133611779Y-90017708D01*
X133611777Y-90017706D01*
X133428634Y-89875160D01*
X133428628Y-89875156D01*
X133224504Y-89764689D01*
X133224495Y-89764686D01*
X133004984Y-89689327D01*
X132812808Y-89657259D01*
X132776049Y-89651125D01*
X132543951Y-89651125D01*
X132507192Y-89657259D01*
X132315015Y-89689327D01*
X132095504Y-89764686D01*
X132095495Y-89764689D01*
X131891371Y-89875156D01*
X131891365Y-89875160D01*
X131708222Y-90017706D01*
X131708219Y-90017709D01*
X131708216Y-90017711D01*
X131708216Y-90017712D01*
X131701014Y-90025536D01*
X131551016Y-90188477D01*
X131424075Y-90382776D01*
X131330842Y-90595324D01*
X131273866Y-90820316D01*
X131273864Y-90820327D01*
X131254700Y-91051618D01*
X123755000Y-91051618D01*
X123755000Y-90785373D01*
X123754999Y-90785371D01*
X123740496Y-90712459D01*
X123740494Y-90712455D01*
X123685239Y-90629760D01*
X123602544Y-90574505D01*
X123602540Y-90574503D01*
X123529627Y-90560000D01*
X123255000Y-90560000D01*
X123255000Y-91260272D01*
X123216940Y-91168386D01*
X123146614Y-91098060D01*
X123054728Y-91060000D01*
X122955272Y-91060000D01*
X122863386Y-91098060D01*
X122793060Y-91168386D01*
X122755000Y-91260272D01*
X122755000Y-90560000D01*
X122480373Y-90560000D01*
X122407459Y-90574503D01*
X122407455Y-90574505D01*
X122324760Y-90629760D01*
X122269505Y-90712455D01*
X122269503Y-90712459D01*
X122255000Y-90785371D01*
X122255000Y-91186000D01*
X122235315Y-91253039D01*
X122182511Y-91298794D01*
X122131000Y-91310000D01*
X121007662Y-91310000D01*
X120940623Y-91290315D01*
X120894868Y-91237511D01*
X120884924Y-91168353D01*
X120913949Y-91104797D01*
X120962867Y-91070373D01*
X121017401Y-91049247D01*
X121206562Y-90932124D01*
X121370981Y-90782236D01*
X121505058Y-90604689D01*
X121604229Y-90405528D01*
X121665115Y-90191536D01*
X121685643Y-89970000D01*
X124424919Y-89970000D01*
X124445191Y-90175834D01*
X124505233Y-90373766D01*
X124580975Y-90515469D01*
X124580976Y-90515469D01*
X125080000Y-90016446D01*
X125080000Y-90022661D01*
X125107259Y-90124394D01*
X125159920Y-90215606D01*
X125234394Y-90290080D01*
X125325606Y-90342741D01*
X125427339Y-90370000D01*
X125433553Y-90370000D01*
X124934528Y-90869023D01*
X125076233Y-90944766D01*
X125274165Y-91004808D01*
X125480000Y-91025080D01*
X125685834Y-91004808D01*
X125883764Y-90944766D01*
X126025470Y-90869022D01*
X125526448Y-90370000D01*
X125532661Y-90370000D01*
X125634394Y-90342741D01*
X125725606Y-90290080D01*
X125800080Y-90215606D01*
X125852741Y-90124394D01*
X125880000Y-90022661D01*
X125880000Y-90016447D01*
X126379022Y-90515469D01*
X126454766Y-90373764D01*
X126514808Y-90175834D01*
X126535080Y-89970000D01*
X126514808Y-89764165D01*
X126454766Y-89566233D01*
X126379023Y-89424528D01*
X125880000Y-89923551D01*
X125880000Y-89917339D01*
X125852741Y-89815606D01*
X125800080Y-89724394D01*
X125725606Y-89649920D01*
X125634394Y-89597259D01*
X125532661Y-89570000D01*
X125526448Y-89570000D01*
X126025469Y-89070976D01*
X126025469Y-89070975D01*
X125883766Y-88995233D01*
X125685834Y-88935191D01*
X125480000Y-88914919D01*
X125274166Y-88935191D01*
X125076234Y-88995234D01*
X124934529Y-89070975D01*
X124934529Y-89070976D01*
X125433553Y-89570000D01*
X125427339Y-89570000D01*
X125325606Y-89597259D01*
X125234394Y-89649920D01*
X125159920Y-89724394D01*
X125107259Y-89815606D01*
X125080000Y-89917339D01*
X125080000Y-89923553D01*
X124580976Y-89424529D01*
X124580975Y-89424529D01*
X124505234Y-89566234D01*
X124445191Y-89764166D01*
X124424919Y-89970000D01*
X121685643Y-89970000D01*
X121676854Y-89875155D01*
X121665115Y-89748464D01*
X121665114Y-89748462D01*
X121637419Y-89651125D01*
X121604229Y-89534472D01*
X121604224Y-89534461D01*
X121505061Y-89335316D01*
X121505056Y-89335308D01*
X121370979Y-89157761D01*
X121206562Y-89007876D01*
X121206560Y-89007874D01*
X121017404Y-88890754D01*
X121017398Y-88890752D01*
X121014861Y-88889769D01*
X120809940Y-88810382D01*
X120591243Y-88769500D01*
X120368757Y-88769500D01*
X120150060Y-88810382D01*
X120100711Y-88829500D01*
X119942601Y-88890752D01*
X119942595Y-88890754D01*
X119753439Y-89007874D01*
X119753437Y-89007876D01*
X119589020Y-89157761D01*
X119454943Y-89335308D01*
X119454938Y-89335316D01*
X119355775Y-89534461D01*
X119355769Y-89534476D01*
X119294885Y-89748462D01*
X119294884Y-89748464D01*
X119274357Y-89969999D01*
X112631447Y-89969999D01*
X112775469Y-89825976D01*
X112775469Y-89825975D01*
X112633766Y-89750233D01*
X112435834Y-89690191D01*
X112230000Y-89669919D01*
X112024166Y-89690191D01*
X111826234Y-89750234D01*
X111684529Y-89825975D01*
X111684529Y-89825976D01*
X112183553Y-90325000D01*
X112177339Y-90325000D01*
X112075606Y-90352259D01*
X111984394Y-90404920D01*
X111909920Y-90479394D01*
X111857259Y-90570606D01*
X111830000Y-90672339D01*
X111830000Y-90678553D01*
X111330976Y-90179529D01*
X111330975Y-90179529D01*
X111255234Y-90321234D01*
X111195191Y-90519166D01*
X111174919Y-90725000D01*
X108655019Y-90725000D01*
X109013631Y-90178524D01*
X109029613Y-90158885D01*
X111061681Y-88126819D01*
X111123004Y-88093334D01*
X111149362Y-88090500D01*
X124678693Y-88090500D01*
X124678694Y-88090499D01*
X124852666Y-88055895D01*
X124934606Y-88021953D01*
X125016547Y-87988013D01*
X125016549Y-87988011D01*
X125016552Y-87988010D01*
X125104955Y-87928939D01*
X125104955Y-87928938D01*
X125104959Y-87928936D01*
X125164036Y-87889464D01*
X125878380Y-87175118D01*
X125881463Y-87172142D01*
X125887899Y-87166145D01*
X125887902Y-87166140D01*
X125891200Y-87162544D01*
X125891337Y-87162670D01*
X125895208Y-87158289D01*
X126429463Y-86624036D01*
X126444497Y-86601536D01*
X126528013Y-86476547D01*
X126555884Y-86409257D01*
X126579461Y-86379999D01*
X132789357Y-86379999D01*
X132789357Y-86380000D01*
X132809884Y-86601535D01*
X132809885Y-86601536D01*
X132870769Y-86815523D01*
X132870775Y-86815538D01*
X132969938Y-87014683D01*
X132969943Y-87014691D01*
X133104020Y-87192238D01*
X133268437Y-87342123D01*
X133268439Y-87342125D01*
X133457595Y-87459245D01*
X133457596Y-87459245D01*
X133457599Y-87459247D01*
X133665060Y-87539618D01*
X133883757Y-87580500D01*
X133883759Y-87580500D01*
X134106241Y-87580500D01*
X134106243Y-87580500D01*
X134324940Y-87539618D01*
X134532401Y-87459247D01*
X134721562Y-87342124D01*
X134885981Y-87192236D01*
X135020058Y-87014689D01*
X135119229Y-86815528D01*
X135145734Y-86722371D01*
X135183013Y-86663278D01*
X135246323Y-86633721D01*
X135315562Y-86643083D01*
X135368749Y-86688393D01*
X135384266Y-86722372D01*
X135410769Y-86815523D01*
X135410775Y-86815538D01*
X135509938Y-87014683D01*
X135509943Y-87014691D01*
X135644020Y-87192238D01*
X135808437Y-87342123D01*
X135808439Y-87342125D01*
X135997595Y-87459245D01*
X135997596Y-87459245D01*
X135997599Y-87459247D01*
X136205060Y-87539618D01*
X136423757Y-87580500D01*
X136423759Y-87580500D01*
X136646241Y-87580500D01*
X136646243Y-87580500D01*
X136864940Y-87539618D01*
X137072401Y-87459247D01*
X137261562Y-87342124D01*
X137425981Y-87192236D01*
X137560058Y-87014689D01*
X137659229Y-86815528D01*
X137720115Y-86601536D01*
X137740643Y-86380000D01*
X137737425Y-86345277D01*
X137720115Y-86158464D01*
X137720114Y-86158462D01*
X137717095Y-86147853D01*
X137659229Y-85944472D01*
X137639440Y-85904730D01*
X137560061Y-85745316D01*
X137560056Y-85745308D01*
X137425979Y-85567761D01*
X137261562Y-85417876D01*
X137261560Y-85417874D01*
X137072404Y-85300754D01*
X137072398Y-85300752D01*
X136864940Y-85220382D01*
X136646243Y-85179500D01*
X136423757Y-85179500D01*
X136205060Y-85220382D01*
X136083406Y-85267511D01*
X135997601Y-85300752D01*
X135997595Y-85300754D01*
X135808439Y-85417874D01*
X135808437Y-85417876D01*
X135644020Y-85567761D01*
X135509943Y-85745308D01*
X135509938Y-85745316D01*
X135410775Y-85944461D01*
X135410769Y-85944476D01*
X135384266Y-86037627D01*
X135346987Y-86096721D01*
X135283677Y-86126278D01*
X135214438Y-86116916D01*
X135161251Y-86071606D01*
X135145734Y-86037627D01*
X135126926Y-85971524D01*
X135119229Y-85944472D01*
X135099440Y-85904730D01*
X135020061Y-85745316D01*
X135020056Y-85745308D01*
X134885979Y-85567761D01*
X134721562Y-85417876D01*
X134721560Y-85417874D01*
X134532404Y-85300754D01*
X134532398Y-85300752D01*
X134324940Y-85220382D01*
X134106243Y-85179500D01*
X133883757Y-85179500D01*
X133665060Y-85220382D01*
X133543406Y-85267511D01*
X133457601Y-85300752D01*
X133457595Y-85300754D01*
X133268439Y-85417874D01*
X133268437Y-85417876D01*
X133104020Y-85567761D01*
X132969943Y-85745308D01*
X132969938Y-85745316D01*
X132870775Y-85944461D01*
X132870769Y-85944476D01*
X132809885Y-86158462D01*
X132809884Y-86158464D01*
X132789357Y-86379999D01*
X126579461Y-86379999D01*
X126599722Y-86354857D01*
X126651045Y-86334238D01*
X126705304Y-86325646D01*
X126818342Y-86268050D01*
X126908050Y-86178342D01*
X126965646Y-86065304D01*
X126965646Y-86065302D01*
X126965647Y-86065301D01*
X126976282Y-85998147D01*
X126980500Y-85971519D01*
X126980499Y-84208482D01*
X126965646Y-84114696D01*
X126908050Y-84001658D01*
X126908046Y-84001654D01*
X126908045Y-84001652D01*
X126818347Y-83911954D01*
X126818344Y-83911952D01*
X126818342Y-83911950D01*
X126710525Y-83857014D01*
X126705301Y-83854352D01*
X126611524Y-83839500D01*
X124848482Y-83839500D01*
X124771517Y-83851690D01*
X124754696Y-83854354D01*
X124641658Y-83911950D01*
X124641657Y-83911951D01*
X124641652Y-83911954D01*
X124551954Y-84001652D01*
X124551951Y-84001657D01*
X124551950Y-84001658D01*
X124543788Y-84017677D01*
X124494352Y-84114698D01*
X124479500Y-84208475D01*
X124479500Y-84713651D01*
X124459815Y-84780690D01*
X124407011Y-84826445D01*
X124337853Y-84836389D01*
X124274297Y-84807364D01*
X124236523Y-84748586D01*
X124236234Y-84747585D01*
X124220116Y-84690936D01*
X124220113Y-84690930D01*
X124129245Y-84508443D01*
X124006391Y-84345757D01*
X123855739Y-84208421D01*
X123682413Y-84101101D01*
X123492315Y-84027458D01*
X123492309Y-84027456D01*
X123440001Y-84017677D01*
X123440000Y-84017679D01*
X123440000Y-84656988D01*
X123382993Y-84624075D01*
X123255826Y-84590000D01*
X123124174Y-84590000D01*
X122997007Y-84624075D01*
X122940000Y-84656988D01*
X122940000Y-84017679D01*
X122939998Y-84017677D01*
X122887690Y-84027456D01*
X122887684Y-84027458D01*
X122697586Y-84101101D01*
X122524260Y-84208421D01*
X122373608Y-84345757D01*
X122250754Y-84508443D01*
X122159886Y-84690930D01*
X122159883Y-84690936D01*
X122116803Y-84842349D01*
X122079524Y-84901443D01*
X122016214Y-84931000D01*
X121946975Y-84921638D01*
X121893788Y-84876328D01*
X121877763Y-84840511D01*
X121830066Y-84662503D01*
X121829577Y-84660677D01*
X121829576Y-84660674D01*
X121829575Y-84660670D01*
X121737102Y-84462362D01*
X121737099Y-84462358D01*
X121737099Y-84462357D01*
X121611599Y-84283124D01*
X121536896Y-84208421D01*
X121456877Y-84128402D01*
X121312711Y-84027456D01*
X121277638Y-84002897D01*
X121178484Y-83956661D01*
X121079330Y-83910425D01*
X121079326Y-83910424D01*
X121079322Y-83910422D01*
X120867982Y-83853794D01*
X120867978Y-83853793D01*
X120867977Y-83853793D01*
X120867976Y-83853792D01*
X120867971Y-83853792D01*
X120823193Y-83849875D01*
X120758124Y-83824423D01*
X120717145Y-83767832D01*
X120710000Y-83726347D01*
X120710000Y-83620000D01*
X77240000Y-83620000D01*
X77240000Y-83761865D01*
X77220315Y-83828904D01*
X77167511Y-83874659D01*
X77148095Y-83881639D01*
X77040670Y-83910424D01*
X76842361Y-84002898D01*
X76842357Y-84002900D01*
X76663121Y-84128402D01*
X76508402Y-84283121D01*
X76382900Y-84462357D01*
X76382898Y-84462361D01*
X76312382Y-84613583D01*
X76266209Y-84666022D01*
X76199016Y-84685174D01*
X76132135Y-84664958D01*
X76087618Y-84613583D01*
X76017102Y-84462363D01*
X76017102Y-84462362D01*
X76017099Y-84462358D01*
X76017099Y-84462357D01*
X75891599Y-84283124D01*
X75816896Y-84208421D01*
X75736877Y-84128402D01*
X75592711Y-84027456D01*
X75557638Y-84002897D01*
X75458484Y-83956661D01*
X75359330Y-83910425D01*
X75359326Y-83910424D01*
X75359322Y-83910422D01*
X75147977Y-83853793D01*
X74930002Y-83834723D01*
X74929998Y-83834723D01*
X74837345Y-83842829D01*
X74712023Y-83853793D01*
X74712020Y-83853793D01*
X74500677Y-83910422D01*
X74500670Y-83910424D01*
X74500670Y-83910425D01*
X74497391Y-83911954D01*
X74302361Y-84002898D01*
X74302357Y-84002900D01*
X74123121Y-84128402D01*
X73968402Y-84283121D01*
X73842900Y-84462357D01*
X73842900Y-84462358D01*
X73773526Y-84611129D01*
X73727353Y-84663568D01*
X73660159Y-84682719D01*
X73593278Y-84662503D01*
X73547944Y-84609337D01*
X73547596Y-84608551D01*
X73540431Y-84592184D01*
X73539563Y-84590987D01*
X73527588Y-84570629D01*
X73526795Y-84568929D01*
X73477102Y-84462362D01*
X73477101Y-84462360D01*
X73351599Y-84283124D01*
X73276896Y-84208421D01*
X73196877Y-84128402D01*
X73052711Y-84027456D01*
X73017638Y-84002897D01*
X72918484Y-83956661D01*
X72819330Y-83910425D01*
X72819326Y-83910424D01*
X72819322Y-83910422D01*
X72607977Y-83853793D01*
X72390002Y-83834723D01*
X72389998Y-83834723D01*
X72297345Y-83842829D01*
X72172023Y-83853793D01*
X72172020Y-83853793D01*
X71960677Y-83910422D01*
X71960670Y-83910424D01*
X71960670Y-83910425D01*
X71957391Y-83911954D01*
X71762361Y-84002898D01*
X71762357Y-84002900D01*
X71583121Y-84128402D01*
X71428402Y-84283121D01*
X71302900Y-84462357D01*
X71233804Y-84610533D01*
X71187631Y-84662972D01*
X71120437Y-84682123D01*
X71053556Y-84661907D01*
X71008223Y-84608742D01*
X71000769Y-84592045D01*
X70998776Y-84589296D01*
X70986795Y-84568929D01*
X70937102Y-84462363D01*
X70937101Y-84462361D01*
X70937100Y-84462360D01*
X70811598Y-84283123D01*
X70656877Y-84128402D01*
X70512711Y-84027456D01*
X70477638Y-84002897D01*
X70378484Y-83956661D01*
X70279330Y-83910425D01*
X70279326Y-83910424D01*
X70279322Y-83910422D01*
X70067977Y-83853793D01*
X69850002Y-83834723D01*
X69849998Y-83834723D01*
X69757345Y-83842829D01*
X69632023Y-83853793D01*
X69632020Y-83853793D01*
X69420677Y-83910422D01*
X69420670Y-83910424D01*
X69420670Y-83910425D01*
X69417391Y-83911954D01*
X69222361Y-84002898D01*
X69222357Y-84002900D01*
X69043121Y-84128402D01*
X68888402Y-84283121D01*
X68762900Y-84462357D01*
X68762898Y-84462361D01*
X68670426Y-84660668D01*
X68670423Y-84660674D01*
X68653775Y-84722808D01*
X68617410Y-84782468D01*
X68554563Y-84812997D01*
X68485187Y-84804702D01*
X68431309Y-84760217D01*
X68410035Y-84693665D01*
X68410000Y-84690714D01*
X68410000Y-84215373D01*
X68409999Y-84215371D01*
X68395496Y-84142459D01*
X68395494Y-84142455D01*
X68340239Y-84059760D01*
X68257544Y-84004505D01*
X68257540Y-84004503D01*
X68184627Y-83990000D01*
X67560000Y-83990000D01*
X67560000Y-84656988D01*
X67502993Y-84624075D01*
X67375826Y-84590000D01*
X67244174Y-84590000D01*
X67117007Y-84624075D01*
X67060000Y-84656988D01*
X67060000Y-83990000D01*
X66435373Y-83990000D01*
X66362459Y-84004503D01*
X66362455Y-84004505D01*
X66279760Y-84059760D01*
X66224505Y-84142455D01*
X66224503Y-84142459D01*
X66210000Y-84215371D01*
X66210000Y-84840000D01*
X66876988Y-84840000D01*
X66844075Y-84897007D01*
X66810000Y-85024174D01*
X66810000Y-85155826D01*
X66844075Y-85282993D01*
X66876988Y-85340000D01*
X66210000Y-85340000D01*
X66210000Y-85964628D01*
X66224503Y-86037540D01*
X66224505Y-86037544D01*
X66279760Y-86120239D01*
X66362455Y-86175494D01*
X66362459Y-86175496D01*
X66435371Y-86189999D01*
X66435374Y-86190000D01*
X67060000Y-86190000D01*
X67060000Y-85523012D01*
X67117007Y-85555925D01*
X67244174Y-85590000D01*
X67375826Y-85590000D01*
X67502993Y-85555925D01*
X67560000Y-85523012D01*
X67560000Y-86190000D01*
X68184626Y-86190000D01*
X68184628Y-86189999D01*
X68257540Y-86175496D01*
X68257544Y-86175494D01*
X68340239Y-86120239D01*
X68395494Y-86037544D01*
X68395496Y-86037540D01*
X68409999Y-85964628D01*
X68410000Y-85964626D01*
X68410000Y-85489285D01*
X68429685Y-85422246D01*
X68482489Y-85376491D01*
X68551647Y-85366547D01*
X68615203Y-85395572D01*
X68652977Y-85454350D01*
X68653775Y-85457192D01*
X68670422Y-85519322D01*
X68670424Y-85519326D01*
X68670425Y-85519330D01*
X68687490Y-85555925D01*
X68762897Y-85717638D01*
X68762898Y-85717639D01*
X68888402Y-85896877D01*
X69043123Y-86051598D01*
X69222361Y-86177102D01*
X69420670Y-86269575D01*
X69420676Y-86269576D01*
X69420677Y-86269577D01*
X69443347Y-86275651D01*
X69520273Y-86296263D01*
X69522640Y-86296924D01*
X70785894Y-86663514D01*
X70839015Y-86694920D01*
X72126593Y-87982498D01*
X72238441Y-88047074D01*
X72363191Y-88080500D01*
X72492343Y-88080500D01*
X86695466Y-88080500D01*
X86762505Y-88100185D01*
X86783147Y-88116819D01*
X93638826Y-94972498D01*
X93750674Y-95037074D01*
X93875424Y-95070500D01*
X94004576Y-95070500D01*
X96116000Y-95070500D01*
X96156822Y-95077412D01*
X96231434Y-95103425D01*
X96480437Y-95190240D01*
X96482201Y-95190808D01*
X96488186Y-95192905D01*
X96488566Y-95193049D01*
X96493606Y-95194479D01*
X96498998Y-95196215D01*
X96500012Y-95196442D01*
X96511923Y-95198682D01*
X96641015Y-95230500D01*
X96798985Y-95230500D01*
X96952365Y-95192696D01*
X97005468Y-95164825D01*
X97092240Y-95119283D01*
X97210483Y-95014530D01*
X97300220Y-94884523D01*
X97356237Y-94736818D01*
X97375278Y-94580000D01*
X97374155Y-94570747D01*
X97356237Y-94423181D01*
X97320778Y-94329685D01*
X97300220Y-94275477D01*
X97210483Y-94145470D01*
X97092240Y-94040717D01*
X97092238Y-94040716D01*
X97092237Y-94040715D01*
X96952365Y-93967303D01*
X96798986Y-93929500D01*
X96798985Y-93929500D01*
X96641015Y-93929500D01*
X96641014Y-93929500D01*
X96486625Y-93967552D01*
X96485002Y-93968072D01*
X96485032Y-93968157D01*
X96480437Y-93969758D01*
X96480437Y-93969759D01*
X96276915Y-94040717D01*
X96156820Y-94082588D01*
X96115997Y-94089500D01*
X96059015Y-94089500D01*
X95991976Y-94069815D01*
X95946221Y-94017011D01*
X95936277Y-93947853D01*
X95943073Y-93921529D01*
X95956237Y-93886818D01*
X95975278Y-93730000D01*
X95975278Y-93729999D01*
X95956237Y-93573181D01*
X95934992Y-93517164D01*
X95900220Y-93425477D01*
X95810483Y-93295470D01*
X95692240Y-93190717D01*
X95692238Y-93190716D01*
X95692237Y-93190715D01*
X95552365Y-93117303D01*
X95398986Y-93079500D01*
X95398985Y-93079500D01*
X95241015Y-93079500D01*
X95241014Y-93079500D01*
X95086625Y-93117552D01*
X95085002Y-93118072D01*
X95085032Y-93118157D01*
X95080437Y-93119758D01*
X95080437Y-93119759D01*
X94876915Y-93190717D01*
X94756820Y-93232588D01*
X94715997Y-93239500D01*
X94594533Y-93239500D01*
X94527494Y-93219815D01*
X94506852Y-93203181D01*
X91205035Y-89901364D01*
X87891174Y-86587502D01*
X87891171Y-86587500D01*
X87891167Y-86587497D01*
X87863262Y-86571386D01*
X87815047Y-86520819D01*
X87801825Y-86452211D01*
X87827793Y-86387347D01*
X87884708Y-86346819D01*
X87925263Y-86340000D01*
X90104270Y-86340000D01*
X90115077Y-86340472D01*
X90169998Y-86345277D01*
X90170000Y-86345277D01*
X90170002Y-86345277D01*
X90224923Y-86340472D01*
X90235730Y-86340000D01*
X92644270Y-86340000D01*
X92655077Y-86340472D01*
X92709998Y-86345277D01*
X92710000Y-86345277D01*
X92710002Y-86345277D01*
X92764923Y-86340472D01*
X92775730Y-86340000D01*
X95184270Y-86340000D01*
X95195077Y-86340472D01*
X95249998Y-86345277D01*
X95250000Y-86345277D01*
X95250002Y-86345277D01*
X95304923Y-86340472D01*
X95315730Y-86340000D01*
X97724270Y-86340000D01*
X97735077Y-86340472D01*
X97789998Y-86345277D01*
X97790000Y-86345277D01*
X97790002Y-86345277D01*
X97844923Y-86340472D01*
X97855730Y-86340000D01*
X100264270Y-86340000D01*
X100275077Y-86340472D01*
X100329998Y-86345277D01*
X100330000Y-86345277D01*
X100330002Y-86345277D01*
X100384923Y-86340472D01*
X100395730Y-86340000D01*
X102804270Y-86340000D01*
X102815077Y-86340472D01*
X102869998Y-86345277D01*
X102870000Y-86345277D01*
X102870002Y-86345277D01*
X102924923Y-86340472D01*
X102935730Y-86340000D01*
X105344270Y-86340000D01*
X105355077Y-86340472D01*
X105409998Y-86345277D01*
X105410000Y-86345277D01*
X105410002Y-86345277D01*
X105464923Y-86340472D01*
X105475730Y-86340000D01*
X107884270Y-86340000D01*
X107895077Y-86340472D01*
X107949998Y-86345277D01*
X107950000Y-86345277D01*
X107950002Y-86345277D01*
X108004923Y-86340472D01*
X108015730Y-86340000D01*
X110002137Y-86340000D01*
X110069176Y-86359685D01*
X110114931Y-86412489D01*
X110124875Y-86481647D01*
X110095850Y-86545203D01*
X110089818Y-86551681D01*
X107753061Y-88888437D01*
X107737085Y-88901921D01*
X106770473Y-89587042D01*
X106721620Y-89607753D01*
X105576968Y-89822376D01*
X105554116Y-89824500D01*
X102456303Y-89824500D01*
X102282341Y-89859103D01*
X102282333Y-89859105D01*
X102180313Y-89901364D01*
X102180312Y-89901364D01*
X102118459Y-89926983D01*
X102118452Y-89926987D01*
X102086266Y-89948493D01*
X102054080Y-89970000D01*
X101970965Y-90025535D01*
X101970961Y-90025538D01*
X98250538Y-93745961D01*
X98250536Y-93745964D01*
X98241158Y-93760000D01*
X98151988Y-93893449D01*
X98129469Y-93947817D01*
X98084105Y-94057333D01*
X98084103Y-94057341D01*
X98053566Y-94210857D01*
X98053567Y-94210858D01*
X98049500Y-94231306D01*
X98049500Y-96900398D01*
X98029815Y-96967437D01*
X97977011Y-97013192D01*
X97907853Y-97023136D01*
X97867880Y-97010198D01*
X97862364Y-97007303D01*
X97708986Y-96969500D01*
X97708985Y-96969500D01*
X97551015Y-96969500D01*
X97397635Y-97007304D01*
X97373008Y-97020229D01*
X97353154Y-97028539D01*
X97340717Y-97032515D01*
X97340707Y-97032520D01*
X97162650Y-97122202D01*
X97138964Y-97131231D01*
X97020672Y-97162926D01*
X96908826Y-97227502D01*
X96908823Y-97227504D01*
X91067504Y-103068823D01*
X91067502Y-103068826D01*
X91002926Y-103180672D01*
X90969500Y-103305424D01*
X90969500Y-115906000D01*
X90949815Y-115973039D01*
X90897011Y-116018794D01*
X90845500Y-116030000D01*
X84706415Y-116030000D01*
X84639376Y-116010315D01*
X84593621Y-115957511D01*
X84583677Y-115888353D01*
X84612702Y-115824797D01*
X84618734Y-115818319D01*
X85327053Y-115110000D01*
X88640000Y-115110000D01*
X88640000Y-114042537D01*
X88812681Y-114025529D01*
X88852039Y-114019691D01*
X88875880Y-114014949D01*
X88914484Y-114005280D01*
X89078707Y-113955464D01*
X89116185Y-113942054D01*
X89138643Y-113932751D01*
X89174607Y-113915740D01*
X89325949Y-113834846D01*
X89360079Y-113814390D01*
X89380291Y-113800885D01*
X89412257Y-113777178D01*
X89544913Y-113668310D01*
X89574398Y-113641586D01*
X89591586Y-113624398D01*
X89618310Y-113594913D01*
X89727178Y-113462257D01*
X89750885Y-113430291D01*
X89764390Y-113410079D01*
X89784846Y-113375949D01*
X89865740Y-113224607D01*
X89882751Y-113188643D01*
X89892054Y-113166185D01*
X89905464Y-113128707D01*
X89955280Y-112964484D01*
X89964949Y-112925880D01*
X89969691Y-112902039D01*
X89975529Y-112862681D01*
X89992950Y-112685808D01*
X89994415Y-112665955D01*
X89995012Y-112653801D01*
X89995500Y-112633907D01*
X89995500Y-98776092D01*
X89995012Y-98756198D01*
X89994415Y-98744044D01*
X89992950Y-98724191D01*
X89975529Y-98547318D01*
X89969691Y-98507960D01*
X89964949Y-98484119D01*
X89955280Y-98445515D01*
X89905464Y-98281292D01*
X89892054Y-98243814D01*
X89882760Y-98221378D01*
X89882750Y-98221353D01*
X89865750Y-98185413D01*
X89865748Y-98185410D01*
X89865740Y-98185392D01*
X89857780Y-98170499D01*
X89784857Y-98034070D01*
X89784855Y-98034067D01*
X89784846Y-98034050D01*
X89764390Y-97999920D01*
X89750885Y-97979708D01*
X89727178Y-97947742D01*
X89727175Y-97947738D01*
X89727171Y-97947733D01*
X89618305Y-97815080D01*
X89591593Y-97785608D01*
X89574390Y-97768405D01*
X89544918Y-97741693D01*
X89412265Y-97632827D01*
X89412249Y-97632815D01*
X89380302Y-97609122D01*
X89380299Y-97609120D01*
X89380291Y-97609114D01*
X89360079Y-97595609D01*
X89325951Y-97575154D01*
X89325950Y-97575153D01*
X89325942Y-97575148D01*
X89174630Y-97494271D01*
X89174617Y-97494264D01*
X89174603Y-97494257D01*
X89138646Y-97477250D01*
X89138639Y-97477247D01*
X89116200Y-97467951D01*
X89078709Y-97454536D01*
X88914476Y-97404717D01*
X88875863Y-97395045D01*
X88852041Y-97390307D01*
X88852036Y-97390306D01*
X88812699Y-97384472D01*
X88640000Y-97367462D01*
X88640000Y-93270000D01*
X84483499Y-93270000D01*
X80544039Y-89330538D01*
X80544038Y-89330537D01*
X80466303Y-89278597D01*
X80466304Y-89278597D01*
X80466302Y-89278596D01*
X80396547Y-89231987D01*
X80396540Y-89231983D01*
X80291821Y-89188608D01*
X80232666Y-89164105D01*
X80232658Y-89164103D01*
X80058696Y-89129500D01*
X80058692Y-89129500D01*
X80058691Y-89129500D01*
X74735883Y-89129500D01*
X74713031Y-89127376D01*
X73445797Y-88889769D01*
X73423857Y-88883520D01*
X73389947Y-88870383D01*
X73291062Y-88851898D01*
X73171243Y-88829500D01*
X73171241Y-88829500D01*
X73124269Y-88829500D01*
X73112755Y-88828964D01*
X73109364Y-88828647D01*
X73109354Y-88828646D01*
X73109347Y-88828646D01*
X73044686Y-88828138D01*
X73040377Y-88828105D01*
X73040376Y-88828105D01*
X73040375Y-88828105D01*
X73035104Y-88828705D01*
X73021086Y-88829500D01*
X72948757Y-88829500D01*
X72730060Y-88870382D01*
X72648649Y-88901921D01*
X72522601Y-88950752D01*
X72522595Y-88950754D01*
X72333439Y-89067874D01*
X72333437Y-89067876D01*
X72169020Y-89217761D01*
X72034943Y-89395308D01*
X72034938Y-89395316D01*
X71935775Y-89594461D01*
X71935769Y-89594476D01*
X71874885Y-89808462D01*
X71874884Y-89808464D01*
X71854357Y-90029999D01*
X71854357Y-90030000D01*
X71874884Y-90251535D01*
X71874885Y-90251537D01*
X71935769Y-90465523D01*
X71935775Y-90465538D01*
X72034938Y-90664683D01*
X72034943Y-90664691D01*
X72169020Y-90842238D01*
X72333437Y-90992123D01*
X72333439Y-90992125D01*
X72522595Y-91109245D01*
X72522596Y-91109245D01*
X72522599Y-91109247D01*
X72730060Y-91189618D01*
X72948757Y-91230500D01*
X72948759Y-91230500D01*
X73171241Y-91230500D01*
X73171243Y-91230500D01*
X73389940Y-91189618D01*
X73423863Y-91176475D01*
X73445787Y-91170230D01*
X74713025Y-90932624D01*
X74735877Y-90930500D01*
X79545638Y-90930500D01*
X79612677Y-90950185D01*
X79633319Y-90966819D01*
X81936500Y-93270000D01*
X61650500Y-93270000D01*
X61650500Y-90030000D01*
X67004919Y-90030000D01*
X67025191Y-90235834D01*
X67085233Y-90433766D01*
X67160975Y-90575469D01*
X67160976Y-90575469D01*
X67660000Y-90076446D01*
X67660000Y-90082661D01*
X67687259Y-90184394D01*
X67739920Y-90275606D01*
X67814394Y-90350080D01*
X67905606Y-90402741D01*
X68007339Y-90430000D01*
X68013553Y-90430000D01*
X67514528Y-90929023D01*
X67656233Y-91004766D01*
X67854165Y-91064808D01*
X68060000Y-91085080D01*
X68265834Y-91064808D01*
X68463764Y-91004766D01*
X68605470Y-90929022D01*
X68106448Y-90430000D01*
X68112661Y-90430000D01*
X68214394Y-90402741D01*
X68305606Y-90350080D01*
X68380080Y-90275606D01*
X68432741Y-90184394D01*
X68460000Y-90082661D01*
X68460000Y-90076447D01*
X68959022Y-90575469D01*
X69034766Y-90433764D01*
X69094808Y-90235834D01*
X69115080Y-90030000D01*
X69094808Y-89824165D01*
X69034766Y-89626233D01*
X68959023Y-89484528D01*
X68460000Y-89983551D01*
X68460000Y-89977339D01*
X68432741Y-89875606D01*
X68380080Y-89784394D01*
X68305606Y-89709920D01*
X68214394Y-89657259D01*
X68112661Y-89630000D01*
X68106448Y-89630000D01*
X68605469Y-89130976D01*
X68605469Y-89130975D01*
X68463766Y-89055233D01*
X68265834Y-88995191D01*
X68060000Y-88974919D01*
X67854166Y-88995191D01*
X67656234Y-89055234D01*
X67514529Y-89130975D01*
X67514529Y-89130976D01*
X68013553Y-89630000D01*
X68007339Y-89630000D01*
X67905606Y-89657259D01*
X67814394Y-89709920D01*
X67739920Y-89784394D01*
X67687259Y-89875606D01*
X67660000Y-89977339D01*
X67660000Y-89983553D01*
X67160976Y-89484529D01*
X67160975Y-89484529D01*
X67085234Y-89626234D01*
X67025191Y-89824166D01*
X67004919Y-90030000D01*
X61650500Y-90030000D01*
X61650500Y-86602706D01*
X61650618Y-86597297D01*
X61652610Y-86551681D01*
X61668528Y-86187080D01*
X61669468Y-86176347D01*
X61722709Y-85771938D01*
X61724582Y-85761308D01*
X61812870Y-85363068D01*
X61815668Y-85352630D01*
X61938319Y-84963629D01*
X61942016Y-84953473D01*
X62098111Y-84576627D01*
X62102669Y-84566853D01*
X62291025Y-84205024D01*
X62296407Y-84195703D01*
X62515574Y-83851680D01*
X62521765Y-83842837D01*
X62770083Y-83519224D01*
X62777021Y-83510955D01*
X63052594Y-83210220D01*
X63060220Y-83202594D01*
X63360955Y-82927021D01*
X63369224Y-82920083D01*
X63692837Y-82671765D01*
X63701680Y-82665574D01*
X64045703Y-82446407D01*
X64055024Y-82441025D01*
X64416853Y-82252669D01*
X64426627Y-82248111D01*
X64803482Y-82092012D01*
X64813629Y-82088319D01*
X65202639Y-81965665D01*
X65213068Y-81962870D01*
X65611308Y-81874582D01*
X65621938Y-81872709D01*
X66026347Y-81819468D01*
X66037080Y-81818528D01*
X66447297Y-81800617D01*
X66452706Y-81800500D01*
X66489882Y-81800500D01*
X135730118Y-81800500D01*
X135767294Y-81800500D01*
X135772702Y-81800617D01*
G37*
%TD.AperFunction*%
%TA.AperFunction,Conductor*%
G36*
X80140000Y-104080000D02*
G01*
X80150000Y-115110000D01*
X82072945Y-115110000D01*
X81672445Y-115510500D01*
X81672443Y-115510502D01*
X81611417Y-115594500D01*
X81574791Y-115644912D01*
X81574789Y-115644915D01*
X81566005Y-115657004D01*
X81483788Y-115818360D01*
X81483787Y-115818363D01*
X81427829Y-115990589D01*
X81425504Y-116005267D01*
X81400997Y-116160000D01*
X81399499Y-116169455D01*
X81399499Y-116355656D01*
X81399500Y-116355681D01*
X81399500Y-116361199D01*
X81396624Y-116387746D01*
X81394552Y-116397200D01*
X81394551Y-116397205D01*
X81312729Y-117788184D01*
X81289142Y-117853951D01*
X81233742Y-117896527D01*
X81164119Y-117902392D01*
X81102377Y-117869685D01*
X81069676Y-117814835D01*
X81040113Y-117710929D01*
X80949245Y-117528443D01*
X80826391Y-117365757D01*
X80675739Y-117228421D01*
X80502413Y-117121101D01*
X80312315Y-117047458D01*
X80312309Y-117047456D01*
X80260001Y-117037677D01*
X80260000Y-117037679D01*
X80260000Y-117676988D01*
X80202993Y-117644075D01*
X80075826Y-117610000D01*
X79944174Y-117610000D01*
X79817007Y-117644075D01*
X79760000Y-117676988D01*
X79760000Y-117037679D01*
X79759998Y-117037677D01*
X79707690Y-117047456D01*
X79707684Y-117047458D01*
X79517586Y-117121101D01*
X79344260Y-117228421D01*
X79193608Y-117365757D01*
X79070754Y-117528443D01*
X78979886Y-117710930D01*
X78979883Y-117710936D01*
X78963765Y-117767588D01*
X78926486Y-117826682D01*
X78863176Y-117856239D01*
X78793937Y-117846877D01*
X78740750Y-117801567D01*
X78720503Y-117734695D01*
X78720499Y-117733654D01*
X78720499Y-117268442D01*
X78720847Y-117259160D01*
X78723687Y-117221322D01*
X78715518Y-117122123D01*
X78655016Y-116387459D01*
X78653483Y-116372323D01*
X78653480Y-116372315D01*
X78652703Y-116368240D01*
X78650500Y-116344970D01*
X78650500Y-104911155D01*
X78650499Y-104911153D01*
X78643579Y-104876364D01*
X78619737Y-104756503D01*
X78611047Y-104735523D01*
X78559397Y-104610827D01*
X78559390Y-104610814D01*
X78471790Y-104479712D01*
X78423425Y-104431347D01*
X78360289Y-104368211D01*
X78065392Y-104073314D01*
X80140000Y-104080000D01*
G37*
%TD.AperFunction*%
%TD*%
%TA.AperFunction,Conductor*%
%TO.N,GND*%
G36*
X85893348Y-97226847D02*
G01*
X85926833Y-97288170D01*
X85921849Y-97357862D01*
X85879977Y-97413795D01*
X85841662Y-97433189D01*
X85771292Y-97454535D01*
X85733825Y-97467941D01*
X85733770Y-97467962D01*
X85711378Y-97477239D01*
X85711355Y-97477248D01*
X85675417Y-97494246D01*
X85675414Y-97494248D01*
X85675406Y-97494251D01*
X85675398Y-97494256D01*
X85587311Y-97541339D01*
X85524047Y-97575154D01*
X85489928Y-97595603D01*
X85489893Y-97595625D01*
X85469745Y-97609086D01*
X85469713Y-97609109D01*
X85437762Y-97632805D01*
X85437735Y-97632827D01*
X85305081Y-97741693D01*
X85305069Y-97741703D01*
X85275590Y-97768421D01*
X85258421Y-97785590D01*
X85231703Y-97815069D01*
X85231693Y-97815081D01*
X85122827Y-97947735D01*
X85122805Y-97947762D01*
X85099109Y-97979713D01*
X85099086Y-97979745D01*
X85085625Y-97999893D01*
X85085603Y-97999928D01*
X85065154Y-98034047D01*
X85040918Y-98079390D01*
X84984256Y-98185398D01*
X84984251Y-98185406D01*
X84984248Y-98185414D01*
X84984246Y-98185417D01*
X84967248Y-98221355D01*
X84967239Y-98221378D01*
X84957962Y-98243770D01*
X84957941Y-98243825D01*
X84944535Y-98281292D01*
X84894721Y-98445508D01*
X84885050Y-98484117D01*
X84880307Y-98507958D01*
X84874471Y-98547304D01*
X84874469Y-98547324D01*
X84857050Y-98724184D01*
X84855584Y-98744047D01*
X84854988Y-98756188D01*
X84854500Y-98776106D01*
X84854500Y-112277084D01*
X84834815Y-112344123D01*
X84818181Y-112364765D01*
X82072946Y-115110000D01*
X80150000Y-115110000D01*
X80140000Y-104080000D01*
X78065392Y-104073314D01*
X76676819Y-102684741D01*
X76643334Y-102623418D01*
X76640500Y-102597060D01*
X76640500Y-97911155D01*
X76640499Y-97911153D01*
X76621389Y-97815081D01*
X76609737Y-97756503D01*
X76609493Y-97755914D01*
X76549397Y-97610827D01*
X76549390Y-97610814D01*
X76461790Y-97479712D01*
X76415267Y-97433189D01*
X76350289Y-97368211D01*
X75287858Y-96305780D01*
X75273103Y-96287976D01*
X75263988Y-96274614D01*
X75263986Y-96274612D01*
X75014619Y-96009999D01*
X77171857Y-96009999D01*
X77171857Y-96010000D01*
X77192384Y-96231535D01*
X77192385Y-96231537D01*
X77253269Y-96445523D01*
X77253275Y-96445538D01*
X77352438Y-96644683D01*
X77352443Y-96644691D01*
X77486520Y-96822238D01*
X77650937Y-96972123D01*
X77650939Y-96972125D01*
X77840095Y-97089245D01*
X77840096Y-97089245D01*
X77840099Y-97089247D01*
X78047560Y-97169618D01*
X78266257Y-97210500D01*
X78266259Y-97210500D01*
X78488741Y-97210500D01*
X78488743Y-97210500D01*
X78707440Y-97169618D01*
X78914901Y-97089247D01*
X79104062Y-96972124D01*
X79268481Y-96822236D01*
X79402558Y-96644689D01*
X79501729Y-96445528D01*
X79562615Y-96231536D01*
X79583143Y-96010000D01*
X79562615Y-95788464D01*
X79501729Y-95574472D01*
X79412517Y-95395311D01*
X79402561Y-95375316D01*
X79402556Y-95375308D01*
X79268479Y-95197761D01*
X79104062Y-95047876D01*
X79104060Y-95047874D01*
X78914904Y-94930754D01*
X78914898Y-94930752D01*
X78707440Y-94850382D01*
X78488743Y-94809500D01*
X78266257Y-94809500D01*
X78047560Y-94850382D01*
X77968077Y-94881174D01*
X77840101Y-94930752D01*
X77840095Y-94930754D01*
X77650939Y-95047874D01*
X77650937Y-95047876D01*
X77486520Y-95197761D01*
X77352443Y-95375308D01*
X77352438Y-95375316D01*
X77253275Y-95574461D01*
X77253269Y-95574476D01*
X77192385Y-95788462D01*
X77192384Y-95788464D01*
X77171857Y-96009999D01*
X75014619Y-96009999D01*
X74274942Y-95225100D01*
X74272069Y-95221699D01*
X74268320Y-95217587D01*
X74262045Y-95211414D01*
X74246560Y-95194983D01*
X74242391Y-95190625D01*
X74242196Y-95190424D01*
X74242181Y-95190409D01*
X74242169Y-95190397D01*
X74234936Y-95183602D01*
X74214954Y-95164828D01*
X74214945Y-95164822D01*
X74210986Y-95162389D01*
X74192372Y-95148381D01*
X74104062Y-95067876D01*
X74104060Y-95067874D01*
X73914904Y-94950754D01*
X73914898Y-94950752D01*
X73707440Y-94870382D01*
X73488743Y-94829500D01*
X73266257Y-94829500D01*
X73047560Y-94870382D01*
X73019703Y-94881174D01*
X72840101Y-94950752D01*
X72840095Y-94950754D01*
X72650939Y-95067874D01*
X72650937Y-95067876D01*
X72486520Y-95217761D01*
X72352443Y-95395308D01*
X72300421Y-95499778D01*
X72289831Y-95517264D01*
X72287203Y-95520889D01*
X71682512Y-96510170D01*
X71630753Y-96557104D01*
X71576711Y-96569500D01*
X71018842Y-96569500D01*
X68853658Y-96569500D01*
X68794804Y-96581206D01*
X68765083Y-96587118D01*
X68740893Y-96589500D01*
X68442796Y-96589500D01*
X68327357Y-96604696D01*
X68327348Y-96604699D01*
X68183705Y-96664198D01*
X68060351Y-96758851D01*
X67965698Y-96882205D01*
X67906199Y-97025848D01*
X67906198Y-97025850D01*
X67891000Y-97141298D01*
X67891000Y-97598703D01*
X67906196Y-97714142D01*
X67906200Y-97714154D01*
X67958964Y-97841539D01*
X67966433Y-97911008D01*
X67958962Y-97936448D01*
X67956672Y-97941976D01*
X67934083Y-97977690D01*
X67795929Y-98130460D01*
X67795929Y-98130461D01*
X67674923Y-98264265D01*
X67660817Y-98280729D01*
X67657517Y-98285385D01*
X67657006Y-98285023D01*
X67642749Y-98303577D01*
X65968826Y-99977502D01*
X65877504Y-100068823D01*
X65877502Y-100068826D01*
X65812926Y-100180672D01*
X65779500Y-100305424D01*
X65779500Y-104033725D01*
X61650500Y-104020420D01*
X61650500Y-93270000D01*
X81936500Y-93270000D01*
X85893348Y-97226847D01*
G37*
%TD.AperFunction*%
%TA.AperFunction,Conductor*%
G36*
X88640000Y-115110000D02*
G01*
X85327053Y-115110000D01*
X86355234Y-114081819D01*
X86416557Y-114048334D01*
X86442915Y-114045500D01*
X88583892Y-114045500D01*
X88583907Y-114045500D01*
X88603801Y-114045012D01*
X88615955Y-114044415D01*
X88635808Y-114042950D01*
X88640000Y-114042537D01*
X88640000Y-115110000D01*
G37*
%TD.AperFunction*%
%TA.AperFunction,Conductor*%
G36*
X73587351Y-97326526D02*
G01*
X74178711Y-97484367D01*
X74234414Y-97516492D01*
X75003181Y-98285259D01*
X75036666Y-98346582D01*
X75039500Y-98372940D01*
X75039500Y-103058846D01*
X75070261Y-103213489D01*
X75070264Y-103213501D01*
X75130602Y-103359172D01*
X75130609Y-103359185D01*
X75218210Y-103490288D01*
X75218213Y-103490292D01*
X75793917Y-104065995D01*
X67260500Y-104038497D01*
X67260500Y-101064533D01*
X67280185Y-100997494D01*
X67296815Y-100976856D01*
X67683415Y-100590255D01*
X67744738Y-100556771D01*
X67814430Y-100561755D01*
X67870363Y-100603627D01*
X67894035Y-100661753D01*
X67906197Y-100754142D01*
X67906199Y-100754151D01*
X67965700Y-100897798D01*
X68060351Y-101021149D01*
X68183702Y-101115800D01*
X68327349Y-101175301D01*
X68442799Y-101190500D01*
X68740897Y-101190499D01*
X68765089Y-101192882D01*
X68853656Y-101210500D01*
X68853658Y-101210500D01*
X70178844Y-101210500D01*
X70178845Y-101210499D01*
X70333497Y-101179737D01*
X70479179Y-101119394D01*
X70610289Y-101031789D01*
X71561788Y-100080290D01*
X71570202Y-100067698D01*
X71649394Y-99949179D01*
X71709737Y-99803497D01*
X71711009Y-99797105D01*
X71740500Y-99648843D01*
X71740500Y-99491158D01*
X71740500Y-98294500D01*
X71760185Y-98227461D01*
X71812989Y-98181706D01*
X71864500Y-98170500D01*
X72076344Y-98170500D01*
X72076345Y-98170499D01*
X72230997Y-98139737D01*
X72376679Y-98079394D01*
X72507789Y-97991789D01*
X72731411Y-97768165D01*
X72758809Y-97747489D01*
X73495107Y-97337966D01*
X73563261Y-97322584D01*
X73587351Y-97326526D01*
G37*
%TD.AperFunction*%
%TA.AperFunction,Conductor*%
G36*
X88640000Y-97367462D02*
G01*
X88635819Y-97367051D01*
X88635811Y-97367050D01*
X88635807Y-97367050D01*
X88633043Y-97366846D01*
X88615951Y-97365584D01*
X88603810Y-97364988D01*
X88596340Y-97364805D01*
X88583907Y-97364500D01*
X88583892Y-97364500D01*
X87904500Y-97364500D01*
X87837461Y-97344815D01*
X87791706Y-97292011D01*
X87780500Y-97240500D01*
X87780500Y-96851308D01*
X87780499Y-96851307D01*
X87770242Y-96799737D01*
X87745895Y-96677334D01*
X87689129Y-96540289D01*
X87678013Y-96513453D01*
X87579464Y-96365965D01*
X87454035Y-96240536D01*
X84483499Y-93270000D01*
X88640000Y-93270000D01*
X88640000Y-97367462D01*
G37*
%TD.AperFunction*%
%TD*%
%TA.AperFunction,Conductor*%
%TO.N,VBUS*%
G36*
X78247496Y-116413427D02*
G01*
X78250884Y-116420740D01*
X78319555Y-117254603D01*
X78316818Y-117263129D01*
X78316172Y-117263831D01*
X77479243Y-118101746D01*
X77470972Y-118105178D01*
X77462697Y-118101756D01*
X77461829Y-118100787D01*
X76794923Y-117267205D01*
X76792431Y-117258604D01*
X76794821Y-117252717D01*
X77446487Y-116414519D01*
X77454271Y-116410091D01*
X77455724Y-116410000D01*
X78239223Y-116410000D01*
X78247496Y-116413427D01*
G37*
%TD.AperFunction*%
%TD*%
%TA.AperFunction,Conductor*%
%TO.N,VBUS*%
G36*
X73951208Y-95472836D02*
G01*
X73951440Y-95473075D01*
X74968880Y-96552718D01*
X74972060Y-96561089D01*
X74968638Y-96569015D01*
X74415755Y-97121898D01*
X74407482Y-97125325D01*
X74404465Y-97124929D01*
X73084241Y-96772544D01*
X73077131Y-96767100D01*
X73075954Y-96758223D01*
X73076443Y-96756775D01*
X73153962Y-96569015D01*
X73375901Y-96031452D01*
X73378448Y-96027641D01*
X73934663Y-95472815D01*
X73942940Y-95469399D01*
X73951208Y-95472836D01*
G37*
%TD.AperFunction*%
%TD*%
%TA.AperFunction,Conductor*%
%TO.N,VBUS*%
G36*
X72647632Y-95727666D02*
G01*
X73373712Y-96027437D01*
X73380051Y-96033762D01*
X73380062Y-96033787D01*
X73679672Y-96759476D01*
X73679661Y-96768431D01*
X73674544Y-96774166D01*
X72520667Y-97415943D01*
X72511771Y-97416969D01*
X72506707Y-97413991D01*
X71953779Y-96861063D01*
X71950352Y-96852790D01*
X71952068Y-96846690D01*
X72633184Y-95732378D01*
X72640423Y-95727107D01*
X72647632Y-95727666D01*
G37*
%TD.AperFunction*%
%TD*%
%TA.AperFunction,Conductor*%
%TO.N,VCC*%
G36*
X83297241Y-116413427D02*
G01*
X83300648Y-116421013D01*
X83399272Y-118097627D01*
X83396337Y-118106087D01*
X83388279Y-118109994D01*
X83387606Y-118110014D01*
X82550014Y-118110999D01*
X82549986Y-118110999D01*
X81712393Y-118110014D01*
X81704124Y-118106577D01*
X81700707Y-118098300D01*
X81700726Y-118097655D01*
X81799352Y-116421012D01*
X81803259Y-116412955D01*
X81811032Y-116410000D01*
X83288968Y-116410000D01*
X83297241Y-116413427D01*
G37*
%TD.AperFunction*%
%TD*%
%TA.AperFunction,Conductor*%
%TO.N,/NRST*%
G36*
X97655791Y-106538684D02*
G01*
X97771315Y-106654208D01*
X97774742Y-106662481D01*
X97773578Y-106667569D01*
X97595757Y-107035758D01*
X97589073Y-107041718D01*
X97580784Y-107041496D01*
X97363822Y-106952563D01*
X97357468Y-106946255D01*
X97268503Y-106729213D01*
X97268536Y-106720261D01*
X97274239Y-106714243D01*
X97642431Y-106536420D01*
X97651370Y-106535909D01*
X97655791Y-106538684D01*
G37*
%TD.AperFunction*%
%TD*%
%TA.AperFunction,Conductor*%
%TO.N,/NRST*%
G36*
X102200814Y-101531420D02*
G01*
X102207123Y-101537776D01*
X102207345Y-101546065D01*
X102072736Y-101932152D01*
X102066776Y-101938836D01*
X102061688Y-101940000D01*
X101898312Y-101940000D01*
X101890039Y-101936573D01*
X101887264Y-101932152D01*
X101752654Y-101546065D01*
X101753166Y-101537125D01*
X101759183Y-101531421D01*
X101975484Y-101440889D01*
X101984437Y-101440857D01*
X102200814Y-101531420D01*
G37*
%TD.AperFunction*%
%TD*%
%TA.AperFunction,Conductor*%
%TO.N,/PC13*%
G36*
X106297568Y-109496420D02*
G01*
X106665758Y-109674242D01*
X106671718Y-109680926D01*
X106671496Y-109689216D01*
X106582564Y-109906176D01*
X106576255Y-109912531D01*
X106576176Y-109912564D01*
X106461885Y-109959411D01*
X106359215Y-110001495D01*
X106350261Y-110001463D01*
X106344242Y-109995758D01*
X106300977Y-109906176D01*
X106166420Y-109627568D01*
X106165909Y-109618629D01*
X106168682Y-109614210D01*
X106284209Y-109498683D01*
X106292481Y-109495257D01*
X106297568Y-109496420D01*
G37*
%TD.AperFunction*%
%TD*%
%TA.AperFunction,Conductor*%
%TO.N,/PC13*%
G36*
X106140814Y-97886420D02*
G01*
X106147123Y-97892776D01*
X106147345Y-97901065D01*
X106012736Y-98287152D01*
X106006776Y-98293836D01*
X106001688Y-98295000D01*
X105838312Y-98295000D01*
X105830039Y-98291573D01*
X105827264Y-98287152D01*
X105692654Y-97901065D01*
X105693166Y-97892125D01*
X105699183Y-97886421D01*
X105915484Y-97795889D01*
X105924437Y-97795857D01*
X106140814Y-97886420D01*
G37*
%TD.AperFunction*%
%TD*%
%TA.AperFunction,Conductor*%
%TO.N,/PA13{slash}SWDIO*%
G36*
X95222874Y-93503166D02*
G01*
X95228579Y-93509185D01*
X95319109Y-93725483D01*
X95319142Y-93734437D01*
X95319109Y-93734517D01*
X95228579Y-93950814D01*
X95222223Y-93957123D01*
X95213934Y-93957345D01*
X94827848Y-93822736D01*
X94821164Y-93816776D01*
X94820000Y-93811688D01*
X94820000Y-93648311D01*
X94823427Y-93640038D01*
X94827845Y-93637264D01*
X95213934Y-93502654D01*
X95222874Y-93503166D01*
G37*
%TD.AperFunction*%
%TD*%
%TA.AperFunction,Conductor*%
%TO.N,/PA13{slash}SWDIO*%
G36*
X73172600Y-84769539D02*
G01*
X73178925Y-84775878D01*
X73179228Y-84776695D01*
X73653477Y-86221607D01*
X73652801Y-86230537D01*
X73650633Y-86233529D01*
X73533529Y-86350633D01*
X73525256Y-86354060D01*
X73521607Y-86353477D01*
X72076695Y-85879228D01*
X72069903Y-85873392D01*
X72069227Y-85864462D01*
X72069521Y-85863668D01*
X72387438Y-85093783D01*
X72393759Y-85087448D01*
X73163647Y-84769530D01*
X73172600Y-84769539D01*
G37*
%TD.AperFunction*%
%TD*%
%TA.AperFunction,Conductor*%
%TO.N,/PA14{slash}SWCLK*%
G36*
X96622874Y-94353166D02*
G01*
X96628579Y-94359185D01*
X96719109Y-94575483D01*
X96719142Y-94584437D01*
X96719109Y-94584517D01*
X96628579Y-94800814D01*
X96622223Y-94807123D01*
X96613934Y-94807345D01*
X96227848Y-94672736D01*
X96221164Y-94666776D01*
X96220000Y-94661688D01*
X96220000Y-94498311D01*
X96223427Y-94490038D01*
X96227845Y-94487264D01*
X96613934Y-94352654D01*
X96622874Y-94353166D01*
G37*
%TD.AperFunction*%
%TD*%
%TA.AperFunction,Conductor*%
%TO.N,/PA14{slash}SWCLK*%
G36*
X70632938Y-84769400D02*
G01*
X70639263Y-84775739D01*
X70639454Y-84776232D01*
X71144346Y-86174833D01*
X71143932Y-86183778D01*
X71141614Y-86187079D01*
X71024481Y-86304212D01*
X71016208Y-86307639D01*
X71012947Y-86307175D01*
X69537253Y-85878935D01*
X69530263Y-85873339D01*
X69529278Y-85864438D01*
X69529693Y-85863251D01*
X69847438Y-85093783D01*
X69853759Y-85087448D01*
X70623984Y-84769391D01*
X70632938Y-84769400D01*
G37*
%TD.AperFunction*%
%TD*%
%TA.AperFunction,Conductor*%
%TO.N,/BOOT0*%
G36*
X97538831Y-97399862D02*
G01*
X97539175Y-97400608D01*
X97628821Y-97614789D01*
X97628854Y-97623743D01*
X97628831Y-97623800D01*
X97538567Y-97840780D01*
X97532225Y-97847102D01*
X97523908Y-97847331D01*
X97438530Y-97817524D01*
X97219596Y-97741089D01*
X97215179Y-97738316D01*
X97101234Y-97624371D01*
X97097807Y-97616098D01*
X97101234Y-97607825D01*
X97104239Y-97605652D01*
X97523119Y-97394675D01*
X97532049Y-97394015D01*
X97538831Y-97399862D01*
G37*
%TD.AperFunction*%
%TD*%
%TA.AperFunction,Conductor*%
%TO.N,/BOOT0*%
G36*
X68812503Y-114041326D02*
G01*
X68818827Y-114047664D01*
X68818816Y-114056619D01*
X68818470Y-114057375D01*
X68178238Y-115333546D01*
X68171465Y-115339405D01*
X68167780Y-115340000D01*
X68002220Y-115340000D01*
X67993947Y-115336573D01*
X67991762Y-115333546D01*
X67351529Y-114057375D01*
X67350882Y-114048444D01*
X67356741Y-114041671D01*
X67357472Y-114041335D01*
X68080512Y-113740864D01*
X68089461Y-113740854D01*
X68812503Y-114041326D01*
G37*
%TD.AperFunction*%
%TD*%
%TA.AperFunction,Conductor*%
%TO.N,Net-(USB1-CC2)*%
G36*
X66614808Y-108772910D02*
G01*
X66617835Y-108775095D01*
X66734904Y-108892164D01*
X66738331Y-108900437D01*
X66737736Y-108904122D01*
X66288061Y-110259222D01*
X66282202Y-110265995D01*
X66273271Y-110266642D01*
X66272491Y-110266352D01*
X65548787Y-109967562D01*
X65542448Y-109961237D01*
X65542437Y-109961212D01*
X65243647Y-109237508D01*
X65243658Y-109228553D01*
X65249997Y-109222228D01*
X65250748Y-109221948D01*
X66605879Y-108772263D01*
X66614808Y-108772910D01*
G37*
%TD.AperFunction*%
%TD*%
%TA.AperFunction,Conductor*%
%TO.N,Net-(USB1-CC2)*%
G36*
X68311510Y-99153342D02*
G01*
X68872041Y-99381099D01*
X68878416Y-99387388D01*
X68878476Y-99396342D01*
X68874248Y-99401591D01*
X68404159Y-99723508D01*
X68395396Y-99725355D01*
X68394159Y-99725053D01*
X68080733Y-99630205D01*
X68075849Y-99627280D01*
X67958942Y-99510373D01*
X67955515Y-99502100D01*
X67958942Y-99493827D01*
X67958966Y-99493803D01*
X68298857Y-99155884D01*
X68307140Y-99152481D01*
X68311510Y-99153342D01*
G37*
%TD.AperFunction*%
%TD*%
%TA.AperFunction,Conductor*%
%TO.N,Net-(USB1-CC1)*%
G36*
X68305984Y-98181737D02*
G01*
X68872705Y-98382388D01*
X68879360Y-98388379D01*
X68879829Y-98397322D01*
X68876239Y-98402447D01*
X68470701Y-98736538D01*
X68462137Y-98739154D01*
X68461146Y-98739015D01*
X68099079Y-98672440D01*
X68092922Y-98669206D01*
X67976086Y-98552370D01*
X67972659Y-98544097D01*
X67975681Y-98536249D01*
X68096684Y-98402447D01*
X68293402Y-98184918D01*
X68301493Y-98181082D01*
X68305984Y-98181737D01*
G37*
%TD.AperFunction*%
%TD*%
%TA.AperFunction,Conductor*%
%TO.N,Net-(USB1-CC1)*%
G36*
X66356437Y-104893732D02*
G01*
X66359864Y-104902005D01*
X66359863Y-104902140D01*
X66345133Y-106178449D01*
X66341611Y-106186682D01*
X66333449Y-106190014D01*
X65552833Y-106190990D01*
X65544555Y-106187573D01*
X65542006Y-106183762D01*
X65242719Y-105460242D01*
X65242724Y-105451287D01*
X65247541Y-105445720D01*
X66177233Y-104891952D01*
X66183220Y-104890305D01*
X66348164Y-104890305D01*
X66356437Y-104893732D01*
G37*
%TD.AperFunction*%
%TD*%
%TA.AperFunction,Conductor*%
%TO.N,VBAT*%
G36*
X125153625Y-113888567D02*
G01*
X125158697Y-113894277D01*
X125479134Y-114665511D01*
X125479143Y-114674466D01*
X125479134Y-114674489D01*
X125158697Y-115445722D01*
X125152358Y-115452047D01*
X125144734Y-115452499D01*
X123788542Y-115072394D01*
X123781501Y-115066861D01*
X123780000Y-115061128D01*
X123780000Y-114278871D01*
X123783427Y-114270598D01*
X123788539Y-114267606D01*
X125144735Y-113887500D01*
X125153625Y-113888567D01*
G37*
%TD.AperFunction*%
%TD*%
%TA.AperFunction,Conductor*%
%TO.N,VBAT*%
G36*
X108148822Y-103247677D02*
G01*
X108154315Y-103252379D01*
X108835430Y-104366688D01*
X108836821Y-104375534D01*
X108833720Y-104381063D01*
X108280792Y-104933991D01*
X108272519Y-104937418D01*
X108266832Y-104935943D01*
X108263322Y-104933991D01*
X108011835Y-104794115D01*
X107112955Y-104294166D01*
X107107391Y-104287150D01*
X107107826Y-104279478D01*
X107407438Y-103553785D01*
X107413762Y-103547448D01*
X107413764Y-103547446D01*
X108139868Y-103247666D01*
X108148822Y-103247677D01*
G37*
%TD.AperFunction*%
%TD*%
%TA.AperFunction,Conductor*%
%TO.N,Net-(LED1-A)*%
G36*
X72459561Y-107757681D02*
G01*
X73104971Y-107897907D01*
X73112328Y-107903012D01*
X73112593Y-107903444D01*
X73537399Y-108631498D01*
X73538608Y-108640370D01*
X73535765Y-108645463D01*
X73028458Y-109178095D01*
X73020271Y-109181723D01*
X73019986Y-109181726D01*
X72040253Y-109181726D01*
X72031980Y-109178299D01*
X72028553Y-109170026D01*
X72028953Y-109166994D01*
X72368114Y-107903012D01*
X72407110Y-107757679D01*
X72412564Y-107750578D01*
X72420894Y-107749280D01*
X72459561Y-107757681D01*
G37*
%TD.AperFunction*%
%TD*%
%TA.AperFunction,Conductor*%
%TO.N,Net-(LED1-A)*%
G36*
X73023563Y-112143427D02*
G01*
X73026790Y-112149544D01*
X73322405Y-113726161D01*
X73320561Y-113734924D01*
X73313061Y-113739817D01*
X73310920Y-113740017D01*
X72525015Y-113740999D01*
X72524985Y-113740999D01*
X71739079Y-113740017D01*
X71730811Y-113736580D01*
X71727394Y-113728302D01*
X71727593Y-113726169D01*
X72023210Y-112149542D01*
X72028103Y-112142044D01*
X72034710Y-112140000D01*
X73015290Y-112140000D01*
X73023563Y-112143427D01*
G37*
%TD.AperFunction*%
%TD*%
%TA.AperFunction,Conductor*%
%TO.N,VCC*%
G36*
X124893347Y-84947894D02*
G01*
X125725908Y-85088482D01*
X125733494Y-85093239D01*
X125733515Y-85093268D01*
X126326744Y-85932895D01*
X126328719Y-85941629D01*
X126326406Y-85946852D01*
X125568437Y-86916396D01*
X125560641Y-86920803D01*
X125552013Y-86918408D01*
X125550946Y-86917463D01*
X124856717Y-86223234D01*
X124853290Y-86214961D01*
X124853293Y-86214715D01*
X124859224Y-85932895D01*
X124879714Y-84959184D01*
X124883314Y-84950988D01*
X124891657Y-84947736D01*
X124893347Y-84947894D01*
G37*
%TD.AperFunction*%
%TD*%
%TA.AperFunction,Conductor*%
%TO.N,VCC*%
G36*
X93679230Y-102580638D02*
G01*
X93681099Y-102582156D01*
X94374124Y-103275181D01*
X94377551Y-103283454D01*
X94377497Y-103284572D01*
X94281015Y-104289427D01*
X94276814Y-104297335D01*
X94269379Y-104300009D01*
X93481631Y-104300704D01*
X93477131Y-104299808D01*
X92753913Y-103999262D01*
X92747588Y-103992923D01*
X92747599Y-103983968D01*
X92748605Y-103982065D01*
X93663037Y-102584023D01*
X93670431Y-102578977D01*
X93679230Y-102580638D01*
G37*
%TD.AperFunction*%
%TD*%
%TA.AperFunction,Conductor*%
%TO.N,VCC*%
G36*
X107224924Y-89929438D02*
G01*
X107229817Y-89936938D01*
X107230017Y-89939079D01*
X107231000Y-90725000D01*
X107231000Y-90725030D01*
X107230017Y-91510920D01*
X107226580Y-91519188D01*
X107218302Y-91522605D01*
X107216161Y-91522405D01*
X105639544Y-91226789D01*
X105632044Y-91221896D01*
X105630000Y-91215289D01*
X105630000Y-90234710D01*
X105633427Y-90226437D01*
X105639542Y-90223210D01*
X107216163Y-89927594D01*
X107224924Y-89929438D01*
G37*
%TD.AperFunction*%
%TD*%
%TA.AperFunction,Conductor*%
%TO.N,VCC*%
G36*
X107968431Y-96277838D02*
G01*
X107974166Y-96282955D01*
X108615943Y-97436832D01*
X108616969Y-97445728D01*
X108613991Y-97450792D01*
X108061063Y-98003720D01*
X108052790Y-98007147D01*
X108046688Y-98005430D01*
X106932379Y-97324315D01*
X106927107Y-97317076D01*
X106927665Y-97309868D01*
X107227438Y-96583785D01*
X107233762Y-96577448D01*
X107233764Y-96577446D01*
X107959478Y-96277827D01*
X107968431Y-96277838D01*
G37*
%TD.AperFunction*%
%TD*%
%TA.AperFunction,Conductor*%
%TO.N,VCC*%
G36*
X73073831Y-89232593D02*
G01*
X74650457Y-89528210D01*
X74657956Y-89533103D01*
X74660000Y-89539710D01*
X74660000Y-90520289D01*
X74656573Y-90528562D01*
X74650456Y-90531789D01*
X73073838Y-90827405D01*
X73065075Y-90825561D01*
X73060182Y-90818061D01*
X73059982Y-90815920D01*
X73059000Y-90030030D01*
X73059000Y-90030000D01*
X73059982Y-89244079D01*
X73063419Y-89235811D01*
X73071697Y-89232394D01*
X73073831Y-89232593D01*
G37*
%TD.AperFunction*%
%TD*%
%TA.AperFunction,Conductor*%
%TO.N,VCC*%
G36*
X126655512Y-116631349D02*
G01*
X127208650Y-117184487D01*
X127212077Y-117192760D01*
X127210576Y-117198493D01*
X126520379Y-118426242D01*
X126513338Y-118431775D01*
X126505714Y-118431323D01*
X125733785Y-118112562D01*
X125727447Y-118106238D01*
X125408676Y-117334284D01*
X125408685Y-117325330D01*
X125413754Y-117319622D01*
X126641506Y-116629422D01*
X126650397Y-116628356D01*
X126655512Y-116631349D01*
G37*
%TD.AperFunction*%
%TD*%
%TA.AperFunction,Conductor*%
%TO.N,VCC*%
G36*
X107990821Y-89231037D02*
G01*
X108684212Y-89924428D01*
X108687639Y-89932701D01*
X108685721Y-89939120D01*
X107974410Y-91023059D01*
X107967006Y-91028096D01*
X107960163Y-91027455D01*
X107231456Y-90726600D01*
X107227638Y-90724048D01*
X106674091Y-90169116D01*
X106670675Y-90160839D01*
X106674112Y-90152571D01*
X106675601Y-90151315D01*
X107975783Y-89229764D01*
X107984514Y-89227776D01*
X107990821Y-89231037D01*
G37*
%TD.AperFunction*%
%TD*%
M02*
