G04 Layer: TopLayer*
G04 EasyEDA Pro v2.2.27.1, 2024-09-15 10:59:50*
G04 Gerber Generator version 0.3*
G04 Scale: 100 percent, Rotated: No, Reflected: No*
G04 Dimensions in millimeters*
G04 Leading zeros omitted, absolute positions, 3 integers and 5 decimals*
%TF.GenerationSoftware,KiCad,Pcbnew,8.0.5*%
%TF.CreationDate,2024-09-23T12:45:29+08:00*%
%TF.ProjectId,li-chuang-di-wen-xing-cw32f030c8t6-kai-fa-ban,6c692d63-6875-4616-9e67-2d64692d7765,rev?*%
%TF.SameCoordinates,Original*%
%TF.FileFunction,Copper,L1,Top*%
%TF.FilePolarity,Positive*%
%FSLAX46Y46*%
G04 Gerber Fmt 4.6, Leading zero omitted, Abs format (unit mm)*
G04 Created by KiCad (PCBNEW 8.0.5) date 2024-09-23 12:45:29*
%MOMM*%
%LPD*%
G01*
G04 APERTURE LIST*
G04 Aperture macros list*
%AMRoundRect*
0 Rectangle with rounded corners*
0 $1 Rounding radius*
0 $2 $3 $4 $5 $6 $7 $8 $9 X,Y pos of 4 corners*
0 Add a 4 corners polygon primitive as box body*
4,1,4,$2,$3,$4,$5,$6,$7,$8,$9,$2,$3,0*
0 Add four circle primitives for the rounded corners*
1,1,$1+$1,$2,$3*
1,1,$1+$1,$4,$5*
1,1,$1+$1,$6,$7*
1,1,$1+$1,$8,$9*
0 Add four rect primitives between the rounded corners*
20,1,$1+$1,$2,$3,$4,$5,0*
20,1,$1+$1,$4,$5,$6,$7,0*
20,1,$1+$1,$6,$7,$8,$9,0*
20,1,$1+$1,$8,$9,$2,$3,0*%
%AMFreePoly0*
4,1,123,0.971500,0.949000,1.016000,0.945500,1.060000,0.940500,1.104000,0.933000,1.147500,0.924000,1.190500,0.912500,1.233000,0.899000,1.275000,0.884000,1.316000,0.866500,1.356500,0.847500,1.395500,0.826000,1.434000,0.803500,1.471000,0.778500,1.507000,0.752500,1.541500,0.724500,1.574500,0.695000,1.606500,0.663500,1.637000,0.631000,1.666000,0.597000,1.693000,0.562000,
1.718500,0.525500,1.742000,0.487500,1.764000,0.449000,1.784500,0.409000,1.802500,0.330000,3.500000,0.330000,3.500000,-0.330000,1.802500,-0.330000,1.784500,-0.409500,1.764000,-0.449000,1.742000,-0.488000,1.718500,-0.525500,1.693000,-0.562000,1.666000,-0.597500,1.637000,-0.631500,1.606500,-0.664000,1.574500,-0.695000,1.541500,-0.724500,1.507000,-0.752500,1.471000,-0.779000,
1.434000,-0.803500,1.395500,-0.826500,1.356500,-0.847500,1.316000,-0.867000,1.275000,-0.884000,1.233000,-0.899500,1.190500,-0.913000,1.147500,-0.924000,1.104000,-0.933500,1.060000,-0.941000,1.016000,-0.946000,0.971500,-0.949000,0.927000,-0.950000,-0.927000,-0.950000,-0.971500,-0.949000,-1.016000,-0.946000,-1.060500,-0.941000,-1.104500,-0.933500,-1.148000,-0.924000,-1.191000,-0.913000,
-1.233500,-0.899500,-1.275500,-0.884000,-1.316500,-0.867000,-1.356500,-0.847500,-1.396000,-0.826500,-1.434000,-0.803500,-1.471000,-0.779000,-1.507000,-0.752500,-1.541500,-0.724500,-1.575000,-0.695000,-1.607000,-0.664000,-1.637000,-0.631500,-1.666000,-0.597500,-1.693000,-0.562000,-1.718500,-0.525500,-1.742500,-0.488000,-1.764500,-0.449000,-1.784500,-0.409500,-1.802500,-0.369000,-1.819000,-0.327500,
-1.833500,-0.285500,-1.846000,-0.242500,-1.856000,-0.199000,-1.864500,-0.155500,-1.870500,-0.111500,-1.875000,-0.067000,-1.877000,-0.022500,-1.877000,0.022000,-1.875000,0.066500,-1.870500,0.111000,-1.864500,0.155000,-1.856000,0.199000,-1.846000,0.242000,-1.833500,0.285000,-1.819000,0.327000,-1.802500,0.368500,-1.784500,0.409000,-1.764500,0.449000,-1.742500,0.487500,-1.718500,0.525500,
-1.693000,0.562000,-1.666000,0.597000,-1.637000,0.631000,-1.607000,0.663500,-1.575000,0.695000,-1.541500,0.724500,-1.507000,0.752500,-1.471000,0.778500,-1.434000,0.803500,-1.396000,0.826000,-1.356500,0.847500,-1.316500,0.866500,-1.275500,0.884000,-1.233500,0.899000,-1.191000,0.912500,-1.148000,0.924000,-1.104500,0.933000,-1.060500,0.940500,-1.016000,0.945500,-0.971500,0.949000,
-0.927000,0.950000,0.927000,0.950000,0.971500,0.949000,0.971500,0.949000,$1*%
G04 Aperture macros list end*
%TA.AperFunction,Conductor*%
%ADD10C,0.200000*%
%TD*%
%TA.AperFunction,SMDPad,CuDef*%
%ADD11R,1.200000X1.400000*%
%TD*%
%TA.AperFunction,SMDPad,CuDef*%
%ADD12RoundRect,0.283125X0.283125X0.405375X-0.283125X0.405375X-0.283125X-0.405375X0.283125X-0.405375X0*%
%TD*%
%TA.AperFunction,SMDPad,CuDef*%
%ADD13RoundRect,0.337500X-0.337500X0.367500X-0.337500X-0.367500X0.337500X-0.367500X0.337500X0.367500X0*%
%TD*%
%TA.AperFunction,SMDPad,CuDef*%
%ADD14R,1.000000X1.200000*%
%TD*%
%TA.AperFunction,ComponentPad*%
%ADD15R,1.800000X1.800000*%
%TD*%
%TA.AperFunction,ComponentPad*%
%ADD16C,1.800000*%
%TD*%
%TA.AperFunction,SMDPad,CuDef*%
%ADD17RoundRect,0.200000X-0.250000X0.200000X-0.250000X-0.200000X0.250000X-0.200000X0.250000X0.200000X0*%
%TD*%
%TA.AperFunction,SMDPad,CuDef*%
%ADD18RoundRect,0.283125X-0.283125X-0.405375X0.283125X-0.405375X0.283125X0.405375X-0.283125X0.405375X0*%
%TD*%
%TA.AperFunction,SMDPad,CuDef*%
%ADD19RoundRect,0.200000X0.200000X0.250000X-0.200000X0.250000X-0.200000X-0.250000X0.200000X-0.250000X0*%
%TD*%
%TA.AperFunction,SMDPad,CuDef*%
%ADD20RoundRect,0.283125X-0.405375X0.283125X-0.405375X-0.283125X0.405375X-0.283125X0.405375X0.283125X0*%
%TD*%
%TA.AperFunction,SMDPad,CuDef*%
%ADD21RoundRect,0.337500X-0.367500X-0.337500X0.367500X-0.337500X0.367500X0.337500X-0.367500X0.337500X0*%
%TD*%
%TA.AperFunction,ComponentPad*%
%ADD22R,1.700000X1.700000*%
%TD*%
%TA.AperFunction,ComponentPad*%
%ADD23C,1.700000*%
%TD*%
%TA.AperFunction,SMDPad,CuDef*%
%ADD24RoundRect,0.200000X0.250000X-0.200000X0.250000X0.200000X-0.250000X0.200000X-0.250000X-0.200000X0*%
%TD*%
%TA.AperFunction,SMDPad,CuDef*%
%ADD25RoundRect,0.337500X0.367500X0.337500X-0.367500X0.337500X-0.367500X-0.337500X0.367500X-0.337500X0*%
%TD*%
%TA.AperFunction,SMDPad,CuDef*%
%ADD26R,1.100000X0.600000*%
%TD*%
%TA.AperFunction,SMDPad,CuDef*%
%ADD27R,1.100000X0.300000*%
%TD*%
%TA.AperFunction,ComponentPad*%
%ADD28O,2.000000X1.200000*%
%TD*%
%TA.AperFunction,ComponentPad*%
%ADD29O,1.800000X1.200000*%
%TD*%
%TA.AperFunction,SMDPad,CuDef*%
%ADD30O,1.800000X0.280000*%
%TD*%
%TA.AperFunction,SMDPad,CuDef*%
%ADD31O,0.280000X1.800000*%
%TD*%
%TA.AperFunction,SMDPad,CuDef*%
%ADD32RoundRect,0.250000X0.250000X0.449750X-0.250000X0.449750X-0.250000X-0.449750X0.250000X-0.449750X0*%
%TD*%
%TA.AperFunction,SMDPad,CuDef*%
%ADD33RoundRect,0.315000X-0.535000X0.210000X-0.535000X-0.210000X0.535000X-0.210000X0.535000X0.210000X0*%
%TD*%
%TA.AperFunction,SMDPad,CuDef*%
%ADD34RoundRect,0.200000X-0.200000X-0.250000X0.200000X-0.250000X0.200000X0.250000X-0.200000X0.250000X0*%
%TD*%
%TA.AperFunction,SMDPad,CuDef*%
%ADD35R,1.575000X0.672000*%
%TD*%
%TA.AperFunction,SMDPad,CuDef*%
%ADD36FreePoly0,0.000000*%
%TD*%
%TA.AperFunction,ViaPad*%
%ADD37C,0.500000*%
%TD*%
%TA.AperFunction,Conductor*%
%ADD38C,0.600000*%
%TD*%
%TA.AperFunction,Conductor*%
%ADD39C,0.672000*%
%TD*%
%TA.AperFunction,Conductor*%
%ADD40C,0.500000*%
%TD*%
%TA.AperFunction,Conductor*%
%ADD41C,0.130000*%
%TD*%
%TA.AperFunction,Conductor*%
%ADD42C,0.180000*%
%TD*%
%TA.AperFunction,Conductor*%
%ADD43C,0.300000*%
%TD*%
%TA.AperFunction,Conductor*%
%ADD44C,1.000000*%
%TD*%
%TA.AperFunction,Conductor*%
%ADD45C,0.280000*%
%TD*%
G04 APERTURE END LIST*
%TO.N,VMCU*%
D10*
X74606000Y-81077000D02*
X75610000Y-81077000D01*
X75610000Y-84250000D01*
X74606000Y-84250000D01*
X74606000Y-81077000D01*
%TA.AperFunction,Conductor*%
G36*
X74606000Y-81077000D02*
G01*
X75610000Y-81077000D01*
X75610000Y-84250000D01*
X74606000Y-84250000D01*
X74606000Y-81077000D01*
G37*
%TD.AperFunction*%
%TD*%
D11*
%TO.P,X1,1,1*%
%TO.N,OSC_IN*%
X83421875Y-87674207D03*
%TO.P,X1,2,GND*%
%TO.N,GND*%
X83421875Y-89874207D03*
%TO.P,X1,3,3*%
%TO.N,OSC_OUT*%
X85171875Y-89874207D03*
%TO.P,X1,4,GND*%
%TO.N,GND*%
X85171875Y-87674207D03*
%TD*%
D12*
%TO.P,R9,1,1*%
%TO.N,Net-(USB1-CC1)*%
X118826375Y-90250000D03*
%TO.P,R9,2,2*%
%TO.N,GND*%
X116826375Y-90250000D03*
%TD*%
D13*
%TO.P,C2,1,1*%
%TO.N,VBUS*%
X116968875Y-82410000D03*
%TO.P,C2,2,2*%
%TO.N,GND*%
X116968875Y-84410000D03*
%TD*%
D14*
%TO.P,SW1,1,1*%
%TO.N,GND*%
X70660000Y-92390000D03*
%TO.P,SW1,2,2*%
%TO.N,NRST*%
X70660000Y-84990000D03*
%TD*%
D15*
%TO.P,H2,1,1*%
%TO.N,VBUS*%
X118110000Y-100330000D03*
D16*
%TO.P,H2,2,2*%
%TO.N,GND*%
X115570000Y-100330000D03*
%TO.P,H2,3,3*%
%TO.N,VMCU*%
X113030000Y-100330000D03*
%TO.P,H2,4,4*%
%TO.N,NRST*%
X110490000Y-100330000D03*
%TO.P,H2,5,5*%
%TO.N,PB11*%
X107950000Y-100330000D03*
%TO.P,H2,6,6*%
%TO.N,PB10*%
X105410000Y-100330000D03*
%TO.P,H2,7,7*%
%TO.N,PB1*%
X102870000Y-100330000D03*
%TO.P,H2,8,8*%
%TO.N,PB0*%
X100330000Y-100330000D03*
%TO.P,H2,9,9*%
%TO.N,PA7*%
X97790000Y-100330000D03*
%TO.P,H2,10,10*%
%TO.N,PA6*%
X95250000Y-100330000D03*
%TO.P,H2,11,11*%
%TO.N,PA5*%
X92710000Y-100330000D03*
%TO.P,H2,12,12*%
%TO.N,PA4*%
X90170000Y-100330000D03*
%TO.P,H2,13,13*%
%TO.N,PA3*%
X87630000Y-100330000D03*
%TO.P,H2,14,14*%
%TO.N,PA2*%
X85090000Y-100330000D03*
%TO.P,H2,15,15*%
%TO.N,PA1*%
X82550000Y-100330000D03*
%TO.P,H2,16,16*%
%TO.N,PA0*%
X80010000Y-100330000D03*
%TO.P,H2,17,17*%
%TO.N,PC13*%
X77470000Y-100330000D03*
%TO.P,H2,18,18*%
%TO.N,unconnected-(H2-Pad18)*%
X74930000Y-100330000D03*
%TO.P,H2,19,19*%
%TO.N,VREF_PIN*%
X72390000Y-100330000D03*
%TO.P,H2,20,20*%
%TO.N,VMCU*%
X69850000Y-100330000D03*
%TD*%
D17*
%TO.P,C6,1,1*%
%TO.N,VMCU*%
X101010000Y-93370000D03*
%TO.P,C6,2,2*%
%TO.N,GND*%
X101010000Y-94770000D03*
%TD*%
D18*
%TO.P,R4,1,1*%
%TO.N,Net-(LED1-+)*%
X73130000Y-80160000D03*
%TO.P,R4,2,2*%
%TO.N,VMCU*%
X75130000Y-80160000D03*
%TD*%
D15*
%TO.P,H3,1,1*%
%TO.N,VMCU*%
X69850000Y-72390000D03*
D16*
%TO.P,H3,2,2*%
%TO.N,GND*%
X72390000Y-72390000D03*
%TO.P,H3,3,3*%
%TO.N,unconnected-(H3-Pad3)*%
X74930000Y-72390000D03*
%TO.P,H3,4,4*%
%TO.N,PB9*%
X77470000Y-72390000D03*
%TO.P,H3,5,5*%
%TO.N,PB8*%
X80010000Y-72390000D03*
%TO.P,H3,6,6*%
%TO.N,PB7*%
X82550000Y-72390000D03*
%TO.P,H3,7,7*%
%TO.N,PB6*%
X85090000Y-72390000D03*
%TO.P,H3,8,8*%
%TO.N,PB5*%
X87630000Y-72390000D03*
%TO.P,H3,9,9*%
%TO.N,PB4*%
X90170000Y-72390000D03*
%TO.P,H3,10,10*%
%TO.N,PB3*%
X92710000Y-72390000D03*
%TO.P,H3,11,11*%
%TO.N,PA15*%
X95250000Y-72390000D03*
%TO.P,H3,12,12*%
%TO.N,PA12*%
X97790000Y-72390000D03*
%TO.P,H3,13,13*%
%TO.N,PA11*%
X100330000Y-72390000D03*
%TO.P,H3,14,14*%
%TO.N,PA10*%
X102870000Y-72390000D03*
%TO.P,H3,15,15*%
%TO.N,PA9*%
X105410000Y-72390000D03*
%TO.P,H3,16,16*%
%TO.N,PA8*%
X107950000Y-72390000D03*
%TO.P,H3,17,17*%
%TO.N,PB15*%
X110490000Y-72390000D03*
%TO.P,H3,18,18*%
%TO.N,PB14*%
X113030000Y-72390000D03*
%TO.P,H3,19,19*%
%TO.N,PB13*%
X115570000Y-72390000D03*
%TO.P,H3,20,20*%
%TO.N,PB12*%
X118110000Y-72390000D03*
%TD*%
D19*
%TO.P,C7,1,1*%
%TO.N,VMCU*%
X92320000Y-83480000D03*
%TO.P,C7,2,2*%
%TO.N,GND*%
X90920000Y-83480000D03*
%TD*%
%TO.P,C8,1,1*%
%TO.N,VMCU*%
X92320000Y-81370000D03*
%TO.P,C8,2,2*%
%TO.N,GND*%
X90920000Y-81370000D03*
%TD*%
D20*
%TO.P,R2,1,1*%
%TO.N,VMCU*%
X74033500Y-85227250D03*
%TO.P,R2,2,2*%
%TO.N,NRST*%
X74033500Y-87227250D03*
%TD*%
D13*
%TO.P,C3,1,1*%
%TO.N,NRST*%
X74020000Y-89950250D03*
%TO.P,C3,2,2*%
%TO.N,GND*%
X74020000Y-91950250D03*
%TD*%
%TO.P,C1,1,1*%
%TO.N,VBUS*%
X120097500Y-82440000D03*
%TO.P,C1,2,2*%
%TO.N,GND*%
X120097500Y-84440000D03*
%TD*%
D12*
%TO.P,R8,1,1*%
%TO.N,Net-(USB1-CC2)*%
X118826375Y-87368250D03*
%TO.P,R8,2,2*%
%TO.N,GND*%
X116826375Y-87368250D03*
%TD*%
D21*
%TO.P,C11,1,1*%
%TO.N,VMCU*%
X111780250Y-92370000D03*
%TO.P,C11,2,2*%
%TO.N,GND*%
X113780250Y-92370000D03*
%TD*%
D12*
%TO.P,R5,1,1*%
%TO.N,PC13*%
X75200000Y-77770000D03*
%TO.P,R5,2,2*%
%TO.N,Net-(LED2-+)*%
X73200000Y-77770000D03*
%TD*%
D22*
%TO.P,H1,1,1*%
%TO.N,VMCU*%
X125730000Y-100330000D03*
D23*
%TO.P,H1,2,2*%
%TO.N,Net-(H1-Pad2)*%
X123190000Y-100330000D03*
%TO.P,H1,3,3*%
%TO.N,GND*%
X120650000Y-100330000D03*
%TD*%
D24*
%TO.P,C9,1,1*%
%TO.N,/VDDA*%
X89560000Y-90880000D03*
%TO.P,C9,2,2*%
%TO.N,GND*%
X89560000Y-89480000D03*
%TD*%
D19*
%TO.P,C12,1,1*%
%TO.N,OSC_OUT*%
X80771375Y-90293957D03*
%TO.P,C12,2,2*%
%TO.N,GND*%
X79371375Y-90293957D03*
%TD*%
D21*
%TO.P,C4,1,1*%
%TO.N,VMCU*%
X111780250Y-87211666D03*
%TO.P,C4,2,2*%
%TO.N,GND*%
X113780250Y-87211666D03*
%TD*%
D25*
%TO.P,C10,1,1*%
%TO.N,VMCU*%
X129140000Y-76560000D03*
%TO.P,C10,2,2*%
%TO.N,GND*%
X127140000Y-76560000D03*
%TD*%
D19*
%TO.P,C15,1,1*%
%TO.N,OSC32_OUT*%
X80750750Y-83302250D03*
%TO.P,C15,2,2*%
%TO.N,GND*%
X79350750Y-83302250D03*
%TD*%
D26*
%TO.P,USB1,1,GND*%
%TO.N,GND*%
X126625000Y-88510000D03*
%TO.P,USB1,2,VBUS*%
%TO.N,VBUS*%
X126625000Y-87710000D03*
D27*
%TO.P,USB1,3,SBU2*%
%TO.N,unconnected-(USB1-SBU2-Pad3)*%
X126625000Y-87060000D03*
%TO.P,USB1,4,CC1*%
%TO.N,Net-(USB1-CC1)*%
X126625000Y-86560000D03*
%TO.P,USB1,5,DN2*%
%TO.N,unconnected-(USB1-DN2-Pad5)*%
X126625000Y-86060000D03*
%TO.P,USB1,6,DP1*%
%TO.N,unconnected-(USB1-DP1-Pad6)*%
X126625000Y-85560000D03*
%TO.P,USB1,7,DN1*%
%TO.N,unconnected-(USB1-DN1-Pad7)*%
X126625000Y-85060000D03*
%TO.P,USB1,8,DP2*%
%TO.N,unconnected-(USB1-DP2-Pad8)*%
X126625000Y-84560000D03*
%TO.P,USB1,9,SBU1*%
%TO.N,unconnected-(USB1-SBU1-Pad9)*%
X126625000Y-84060000D03*
%TO.P,USB1,10,CC2*%
%TO.N,Net-(USB1-CC2)*%
X126625000Y-83560000D03*
D26*
%TO.P,USB1,11,VBUS*%
%TO.N,VBUS*%
X126625000Y-82910000D03*
%TO.P,USB1,12,GND*%
%TO.N,GND*%
X126625000Y-82110000D03*
D28*
%TO.P,USB1,13,SHELL*%
X127175000Y-89635000D03*
D29*
X131375000Y-89635000D03*
D28*
%TO.P,USB1,14,SHELL*%
X127175000Y-80985000D03*
D29*
X131375000Y-80985000D03*
%TD*%
D30*
%TO.P,U1,1,VDD*%
%TO.N,VMCU*%
X92720000Y-85850000D03*
%TO.P,U1,2,PC13*%
%TO.N,PC13*%
X92720000Y-86350000D03*
%TO.P,U1,3,PC14-OSC32_IN*%
%TO.N,OSC32_IN*%
X92720000Y-86850000D03*
%TO.P,U1,4,PC15-OSC32_OUT*%
%TO.N,OSC32_OUT*%
X92720000Y-87350000D03*
%TO.P,U1,5,PF0-OSC_IN*%
%TO.N,OSC_IN*%
X92720000Y-87850000D03*
%TO.P,U1,6,PF1-OSC_OUT*%
%TO.N,OSC_OUT*%
X92720000Y-88350000D03*
%TO.P,U1,7,NRST*%
%TO.N,NRST*%
X92720000Y-88850000D03*
%TO.P,U1,8,VSSA*%
%TO.N,GND*%
X92720000Y-89350000D03*
%TO.P,U1,9,VDDA*%
%TO.N,/VDDA*%
X92720000Y-89850000D03*
%TO.P,U1,10,PA0*%
%TO.N,PA0*%
X92720000Y-90350000D03*
%TO.P,U1,11,PA1*%
%TO.N,PA1*%
X92720000Y-90850000D03*
%TO.P,U1,12,PA2*%
%TO.N,PA2*%
X92720000Y-91350000D03*
D31*
%TO.P,U1,13,PA3*%
%TO.N,PA3*%
X94020000Y-92650000D03*
%TO.P,U1,14,PA4*%
%TO.N,PA4*%
X94520000Y-92650000D03*
%TO.P,U1,15,PA5*%
%TO.N,PA5*%
X95020000Y-92650000D03*
%TO.P,U1,16,PA6*%
%TO.N,PA6*%
X95520000Y-92650000D03*
%TO.P,U1,17,PA7*%
%TO.N,PA7*%
X96020000Y-92650000D03*
%TO.P,U1,18,PB0*%
%TO.N,PB0*%
X96520000Y-92650000D03*
%TO.P,U1,19,PB1*%
%TO.N,PB1*%
X97020000Y-92650000D03*
%TO.P,U1,20,PB2*%
%TO.N,PB2*%
X97520000Y-92650000D03*
%TO.P,U1,21,PB10*%
%TO.N,PB10*%
X98020000Y-92650000D03*
%TO.P,U1,22,PB11*%
%TO.N,PB11*%
X98520000Y-92650000D03*
%TO.P,U1,23,VSS*%
%TO.N,GND*%
X99020000Y-92650000D03*
%TO.P,U1,24,VDD*%
%TO.N,VMCU*%
X99520000Y-92650000D03*
D30*
%TO.P,U1,25,PB12*%
%TO.N,PB12*%
X100820000Y-91350000D03*
%TO.P,U1,26,PB13*%
%TO.N,PB13*%
X100820000Y-90850000D03*
%TO.P,U1,27,PB14*%
%TO.N,PB14*%
X100820000Y-90350000D03*
%TO.P,U1,28,PB15*%
%TO.N,PB15*%
X100820000Y-89850000D03*
%TO.P,U1,29,PA8*%
%TO.N,PA8*%
X100820000Y-89350000D03*
%TO.P,U1,30,PA9*%
%TO.N,PA9*%
X100820000Y-88850000D03*
%TO.P,U1,31,PA10*%
%TO.N,PA10*%
X100820000Y-88350000D03*
%TO.P,U1,32,PA11*%
%TO.N,PA11*%
X100820000Y-87850000D03*
%TO.P,U1,33,PA12*%
%TO.N,PA12*%
X100820000Y-87350000D03*
%TO.P,U1,34,PA13*%
%TO.N,PA13{slash}SWDIO*%
X100820000Y-86850000D03*
%TO.P,U1,35,PF6*%
%TO.N,unconnected-(U1-PF6-Pad35)*%
X100820000Y-86350000D03*
%TO.P,U1,36,PF7*%
%TO.N,unconnected-(U1-PF7-Pad36)*%
X100820000Y-85850000D03*
D31*
%TO.P,U1,37,PA14*%
%TO.N,PA14{slash}SWCLK*%
X99520000Y-84550000D03*
%TO.P,U1,38,PA15*%
%TO.N,PA15*%
X99020000Y-84550000D03*
%TO.P,U1,39,PB3*%
%TO.N,PB3*%
X98520000Y-84550000D03*
%TO.P,U1,40,PB4*%
%TO.N,PB4*%
X98020000Y-84550000D03*
%TO.P,U1,41,PB5*%
%TO.N,PB5*%
X97520000Y-84550000D03*
%TO.P,U1,42,PB6*%
%TO.N,PB6*%
X97020000Y-84550000D03*
%TO.P,U1,43,PB7*%
%TO.N,PB7*%
X96520000Y-84550000D03*
%TO.P,U1,44,BOOT0*%
%TO.N,BOOT0*%
X96020000Y-84550000D03*
%TO.P,U1,45,PB8*%
%TO.N,PB8*%
X95520000Y-84550000D03*
%TO.P,U1,46,PB9*%
%TO.N,PB9*%
X95020000Y-84550000D03*
%TO.P,U1,47,VSS*%
%TO.N,GND*%
X94520000Y-84550000D03*
%TO.P,U1,48,VDD*%
%TO.N,VMCU*%
X94020000Y-84550000D03*
%TD*%
D22*
%TO.P,H6,1,1*%
%TO.N,/VDDA*%
X69850000Y-97790000D03*
D23*
%TO.P,H6,2,2*%
X72390000Y-97790000D03*
%TD*%
D18*
%TO.P,R6,1,1*%
%TO.N,BOOT0*%
X122080000Y-96650000D03*
%TO.P,R6,2,2*%
%TO.N,Net-(H1-Pad2)*%
X124080000Y-96650000D03*
%TD*%
D32*
%TO.P,LED2,1,+*%
%TO.N,Net-(LED2-+)*%
X70550500Y-77596000D03*
%TO.P,LED2,2,-*%
%TO.N,GND*%
X68449500Y-77596000D03*
%TD*%
%TO.P,LED1,1,+*%
%TO.N,Net-(LED1-+)*%
X70550500Y-80126000D03*
%TO.P,LED1,2,-*%
%TO.N,GND*%
X68449500Y-80126000D03*
%TD*%
D22*
%TO.P,H4,1,1*%
%TO.N,GND*%
X120650000Y-72390000D03*
D23*
%TO.P,H4,2,2*%
%TO.N,PA14{slash}SWCLK*%
X123190000Y-72390000D03*
%TO.P,H4,3,3*%
%TO.N,PA13{slash}SWDIO*%
X125730000Y-72390000D03*
%TO.P,H4,4,4*%
%TO.N,VMCU*%
X128270000Y-72390000D03*
%TD*%
D21*
%TO.P,C5,1,1*%
%TO.N,VMCU*%
X111780250Y-89790832D03*
%TO.P,C5,2,2*%
%TO.N,GND*%
X113780250Y-89790832D03*
%TD*%
D19*
%TO.P,C14,1,1*%
%TO.N,OSC32_IN*%
X80750750Y-80772250D03*
%TO.P,C14,2,2*%
%TO.N,GND*%
X79350750Y-80772250D03*
%TD*%
D33*
%TO.P,X2,1,1*%
%TO.N,OSC32_IN*%
X83450000Y-80765000D03*
%TO.P,X2,2,2*%
%TO.N,OSC32_OUT*%
X83450000Y-83315000D03*
%TD*%
D34*
%TO.P,C13,1,1*%
%TO.N,GND*%
X79386875Y-87000707D03*
%TO.P,C13,2,2*%
%TO.N,OSC_IN*%
X80786875Y-87000707D03*
%TD*%
D35*
%TO.P,Q1,1,ADJ/GND*%
%TO.N,GND*%
X114032000Y-84710000D03*
D36*
%TO.P,Q1,2,VOUT*%
%TO.N,VMCU*%
X111320000Y-83210000D03*
D35*
%TO.P,Q1,3,VIN*%
%TO.N,VBUS*%
X114032000Y-81710000D03*
%TD*%
D37*
%TO.N,NRST*%
X88970000Y-95520000D03*
X96620000Y-91130000D03*
%TO.N,GND*%
X117090000Y-74910000D03*
X79371375Y-88778139D03*
X74890000Y-102350000D03*
X97410000Y-70310000D03*
X127890000Y-70310000D03*
X131510000Y-78990000D03*
X88120000Y-89860000D03*
X85410000Y-94670000D03*
X131510000Y-75180000D03*
X127320000Y-97640000D03*
X73690000Y-81820000D03*
X114940000Y-80480000D03*
X122360000Y-77550000D03*
X116630000Y-96160000D03*
X80820000Y-85020000D03*
X66950000Y-95690000D03*
X131510000Y-86610000D03*
X78210000Y-85020000D03*
X121970000Y-84600000D03*
X119410000Y-96260000D03*
X127600000Y-75060000D03*
X115330000Y-93058000D03*
X66350000Y-77460000D03*
X103540000Y-94780000D03*
X74200000Y-75980000D03*
X90130000Y-102350000D03*
X127750000Y-92800000D03*
X94360000Y-86250000D03*
X120430000Y-85638000D03*
X113580000Y-94060000D03*
X79360000Y-91820000D03*
X78200000Y-80770000D03*
X125660000Y-95990000D03*
X89790000Y-70310000D03*
X89590000Y-94570000D03*
X115330000Y-87493000D03*
X120450000Y-80480000D03*
X101560000Y-102350000D03*
X125410000Y-74410000D03*
X108840000Y-70310000D03*
X66950000Y-99500000D03*
X95230000Y-88450000D03*
X115330000Y-85638000D03*
X82510000Y-102350000D03*
X92010000Y-77760000D03*
X99040000Y-88850000D03*
X86630000Y-77680000D03*
X66950000Y-84260000D03*
X79350750Y-82060000D03*
X66950000Y-72830000D03*
X87550000Y-82820000D03*
X101220000Y-70310000D03*
X85170000Y-91820000D03*
X117880000Y-85638000D03*
X112650000Y-70310000D03*
X83880000Y-79030000D03*
X131510000Y-98040000D03*
X84080000Y-85030000D03*
X131510000Y-94230000D03*
X109180000Y-102350000D03*
X126960000Y-77390000D03*
X85980000Y-70310000D03*
X88050000Y-87010000D03*
X122640000Y-98780000D03*
X81860000Y-94530000D03*
X115330000Y-89348000D03*
X72000000Y-78990000D03*
X93600000Y-70310000D03*
X124420000Y-102350000D03*
X118930000Y-88810000D03*
X79070000Y-96420000D03*
X76940000Y-85680000D03*
X74550000Y-70310000D03*
X73650000Y-93920000D03*
X66950000Y-88070000D03*
X112990000Y-102350000D03*
X105370000Y-102350000D03*
X116800000Y-102350000D03*
X66930000Y-70310000D03*
X117030000Y-98660000D03*
X87150000Y-92090000D03*
X72420000Y-84790000D03*
X71080000Y-102350000D03*
X79020000Y-76250000D03*
X67270000Y-102350000D03*
X82030000Y-91820000D03*
X97750000Y-102350000D03*
X96780000Y-87980000D03*
X80760000Y-79050000D03*
X81600000Y-96470000D03*
X106920000Y-94910000D03*
X113080000Y-97600000D03*
X70740000Y-70310000D03*
X116460000Y-70310000D03*
X82170000Y-70310000D03*
X115330000Y-91203000D03*
X78200000Y-90240000D03*
X89780000Y-80430000D03*
X109460000Y-94900000D03*
X124080000Y-70310000D03*
X78700000Y-102350000D03*
X110700000Y-79830000D03*
X131510000Y-71370000D03*
X69550000Y-93590000D03*
X124500000Y-80630000D03*
X94020000Y-80240000D03*
X93940000Y-102350000D03*
X128230000Y-102350000D03*
X66950000Y-91880000D03*
X77140000Y-79490000D03*
X88120000Y-91070000D03*
X105030000Y-70310000D03*
X109820000Y-97230000D03*
X66470000Y-80300000D03*
X78200000Y-87020000D03*
X86750000Y-89660000D03*
X86320000Y-102350000D03*
X70250000Y-83460000D03*
X76360000Y-97840000D03*
X119200000Y-98650000D03*
X78360000Y-70310000D03*
X123940000Y-92800000D03*
X85830000Y-80790000D03*
X78870000Y-94510000D03*
X131510000Y-82800000D03*
X98550000Y-91020000D03*
X120270000Y-70310000D03*
X112240000Y-78040000D03*
X76300000Y-74090000D03*
%TO.N,PC13*%
X90710000Y-85510000D03*
%TO.N,PA13{slash}SWDIO*%
X108685000Y-80455000D03*
X101390000Y-83820000D03*
%TO.N,PA14{slash}SWCLK*%
X107615000Y-80395000D03*
X99950000Y-82530000D03*
%TO.N,VMCU*%
X110420000Y-93380000D03*
X93590000Y-82600000D03*
X107480000Y-93380000D03*
X93380000Y-81570000D03*
X75130000Y-82690000D03*
X75150000Y-81680000D03*
X109080000Y-93380000D03*
%TO.N,BOOT0*%
X103260000Y-96290000D03*
X96160000Y-89890000D03*
%TO.N,Net-(USB1-CC2)*%
X127810000Y-83580000D03*
X120020000Y-87380000D03*
%TO.N,Net-(USB1-CC1)*%
X128000000Y-86500000D03*
X119970000Y-90250000D03*
%TO.N,/VDDA*%
X78100000Y-93150000D03*
%TD*%
D38*
%TO.N,VBUS*%
X124760000Y-87710000D02*
X118110000Y-94360000D01*
X126625000Y-87710000D02*
X124760000Y-87710000D01*
D39*
X120097500Y-82440000D02*
X116998875Y-82440000D01*
D38*
X123310000Y-82910000D02*
X126625000Y-82910000D01*
D39*
X114032000Y-81710000D02*
X116268875Y-81710000D01*
X116268875Y-81710000D02*
X116968875Y-82410000D01*
D38*
X124760000Y-87710000D02*
X123310000Y-86260000D01*
X123310000Y-82910000D02*
X120567500Y-82910000D01*
X123310000Y-86260000D02*
X123310000Y-82910000D01*
X118110000Y-94360000D02*
X118110000Y-100330000D01*
D40*
X116998875Y-82440000D02*
X116968875Y-82410000D01*
X120567500Y-82910000D02*
X120097500Y-82440000D01*
%TO.N,NRST*%
X74033500Y-87227250D02*
X72897250Y-87227250D01*
D41*
X94300000Y-88850000D02*
X96530000Y-91080000D01*
D42*
X75280000Y-91210250D02*
X75280000Y-93510000D01*
D41*
X96530000Y-91080000D02*
X96620000Y-91080000D01*
X92720000Y-88850000D02*
X94300000Y-88850000D01*
D40*
X74033500Y-89936750D02*
X74020000Y-89950250D01*
D42*
X75280000Y-93510000D02*
X77290000Y-95520000D01*
X88970000Y-95520000D02*
X88980000Y-95530000D01*
D40*
X72897250Y-87227250D02*
X70660000Y-84990000D01*
D42*
X77290000Y-95520000D02*
X88970000Y-95520000D01*
D40*
X74033500Y-87227250D02*
X74033500Y-89936750D01*
D42*
X74020000Y-89950250D02*
X75280000Y-91210250D01*
D38*
%TO.N,GND*%
X116998875Y-84440000D02*
X116968875Y-84410000D01*
D43*
X93490000Y-79860000D02*
X91500000Y-79860000D01*
X85171875Y-85091875D02*
X85171875Y-87674207D01*
D44*
X127175000Y-89635000D02*
X131375000Y-89635000D01*
D40*
X79350750Y-82060000D02*
X79350750Y-80772250D01*
D43*
X78220000Y-80750000D02*
X78220000Y-79890000D01*
X86750000Y-89660000D02*
X86750000Y-90860000D01*
X83430000Y-91820000D02*
X79360000Y-91820000D01*
X90920000Y-81370000D02*
X90920000Y-83480000D01*
X90920000Y-80440000D02*
X91500000Y-79860000D01*
X87550000Y-82820000D02*
X87550000Y-82510000D01*
D44*
X113780250Y-84961750D02*
X114032000Y-84710000D01*
D43*
X99930000Y-94770000D02*
X101010000Y-94770000D01*
D40*
X79350750Y-83302250D02*
X79350750Y-82060000D01*
D43*
X86060000Y-85020000D02*
X85100000Y-85020000D01*
X103530000Y-94770000D02*
X103540000Y-94780000D01*
X78930000Y-91820000D02*
X79360000Y-91820000D01*
D40*
X88120000Y-89860000D02*
X88120000Y-89950000D01*
D43*
X94520000Y-80890000D02*
X94020000Y-80390000D01*
X85790000Y-91820000D02*
X83430000Y-91820000D01*
X101010000Y-94770000D02*
X102070000Y-94770000D01*
D40*
X88120000Y-91220000D02*
X88130000Y-91230000D01*
D43*
X102070000Y-94770000D02*
X102080000Y-94780000D01*
D44*
X113780250Y-92370000D02*
X113780250Y-84961750D01*
D43*
X78200000Y-91090000D02*
X78930000Y-91820000D01*
X88050000Y-87010000D02*
X86060000Y-85020000D01*
D44*
X88120000Y-89950000D02*
X88120000Y-91070000D01*
D40*
X126625000Y-82110000D02*
X126625000Y-81535000D01*
D43*
X99020000Y-92650000D02*
X99020000Y-93860000D01*
D44*
X116826375Y-90250000D02*
X116826375Y-84552500D01*
D43*
X93870000Y-80240000D02*
X93490000Y-79860000D01*
D40*
X103540000Y-94780000D02*
X101020000Y-94780000D01*
D41*
X89690000Y-89350000D02*
X89560000Y-89480000D01*
D38*
X120097500Y-84440000D02*
X116998875Y-84440000D01*
D43*
X78210000Y-85020000D02*
X76680000Y-85020000D01*
X86750000Y-90860000D02*
X85790000Y-91820000D01*
X102680000Y-94770000D02*
X103530000Y-94770000D01*
X78200000Y-90240000D02*
X78200000Y-91090000D01*
X87550000Y-82510000D02*
X85830000Y-80790000D01*
X102090000Y-94770000D02*
X102680000Y-94770000D01*
D40*
X88500000Y-89480000D02*
X88120000Y-89860000D01*
D43*
X83430000Y-91820000D02*
X83421875Y-91811875D01*
X94020000Y-80240000D02*
X93870000Y-80240000D01*
D44*
X88120000Y-91070000D02*
X88120000Y-91220000D01*
D40*
X89560000Y-89480000D02*
X88500000Y-89480000D01*
D43*
X103550000Y-94770000D02*
X103650000Y-94770000D01*
D40*
X126625000Y-88510000D02*
X126625000Y-89085000D01*
D45*
X92720000Y-89350000D02*
X89690000Y-89350000D01*
D43*
X85100000Y-85020000D02*
X85171875Y-85091875D01*
X90920000Y-81370000D02*
X90920000Y-80440000D01*
X80760000Y-79050000D02*
X84090000Y-79050000D01*
D44*
X116826375Y-84552500D02*
X116968875Y-84410000D01*
D40*
X126625000Y-89085000D02*
X127175000Y-89635000D01*
D43*
X94020000Y-80390000D02*
X94020000Y-80240000D01*
X78220000Y-79890000D02*
X79060000Y-79050000D01*
D40*
X79371375Y-87016207D02*
X79386875Y-87000707D01*
D44*
X131375000Y-80985000D02*
X131375000Y-89635000D01*
D39*
X114032000Y-84710000D02*
X116668875Y-84710000D01*
D43*
X102080000Y-94780000D02*
X102090000Y-94770000D01*
X94520000Y-84550000D02*
X94520000Y-80890000D01*
X84090000Y-79050000D02*
X85830000Y-80790000D01*
X79060000Y-79050000D02*
X80760000Y-79050000D01*
X78200000Y-80770000D02*
X78220000Y-80750000D01*
D39*
X116668875Y-84710000D02*
X116968875Y-84410000D01*
D43*
X103540000Y-94780000D02*
X103550000Y-94770000D01*
X78200000Y-80770000D02*
X78200000Y-90240000D01*
X99020000Y-93860000D02*
X99930000Y-94770000D01*
X85100000Y-85020000D02*
X78210000Y-85020000D01*
X83421875Y-91811875D02*
X83421875Y-89874207D01*
D40*
X126625000Y-81535000D02*
X127175000Y-80985000D01*
D44*
X127175000Y-80985000D02*
X131375000Y-80985000D01*
D40*
X79371375Y-90293957D02*
X79371375Y-87016207D01*
X101020000Y-94780000D02*
X101010000Y-94770000D01*
D41*
%TO.N,OSC_OUT*%
X85171875Y-89874207D02*
X84157668Y-88860000D01*
X82380000Y-88860000D02*
X80946043Y-90293957D01*
X85485793Y-89874207D02*
X87010000Y-88350000D01*
X87010000Y-88350000D02*
X92720000Y-88350000D01*
X85171875Y-89874207D02*
X85485793Y-89874207D01*
X84157668Y-88860000D02*
X82380000Y-88860000D01*
X80946043Y-90293957D02*
X80771375Y-90293957D01*
%TO.N,OSC_IN*%
X86930000Y-87850000D02*
X92720000Y-87850000D01*
X84517668Y-88770000D02*
X86010000Y-88770000D01*
X83421875Y-87674207D02*
X82876082Y-88220000D01*
X82876082Y-88220000D02*
X82006168Y-88220000D01*
X82006168Y-88220000D02*
X80786875Y-87000707D01*
X83421875Y-87674207D02*
X84517668Y-88770000D01*
X86010000Y-88770000D02*
X86930000Y-87850000D01*
%TO.N,OSC32_IN*%
X83450000Y-81040000D02*
X84360000Y-81950000D01*
X80750750Y-80772250D02*
X83442750Y-80772250D01*
X84360000Y-81950000D02*
X85320000Y-81950000D01*
X90220000Y-86850000D02*
X92720000Y-86850000D01*
X85320000Y-81950000D02*
X90220000Y-86850000D01*
X83442750Y-80772250D02*
X83450000Y-80765000D01*
X83450000Y-80765000D02*
X83450000Y-81040000D01*
%TO.N,OSC32_OUT*%
X92720000Y-87350000D02*
X90090000Y-87350000D01*
X83437250Y-83302250D02*
X83450000Y-83315000D01*
X90090000Y-87350000D02*
X85150000Y-82410000D01*
X84355000Y-82410000D02*
X83450000Y-83315000D01*
X80750750Y-83302250D02*
X83437250Y-83302250D01*
X85150000Y-82410000D02*
X84355000Y-82410000D01*
D42*
%TO.N,Net-(H1-Pad2)*%
X123190000Y-100330000D02*
X124080000Y-99440000D01*
X124080000Y-99440000D02*
X124080000Y-96650000D01*
D41*
%TO.N,PA1*%
X91690000Y-90850000D02*
X91350000Y-91190000D01*
X92720000Y-90850000D02*
X91690000Y-90850000D01*
X86230000Y-96650000D02*
X86750000Y-96650000D01*
X89620000Y-96650000D02*
X86750000Y-96650000D01*
X91350000Y-94920000D02*
X89620000Y-96650000D01*
X91350000Y-91190000D02*
X91350000Y-94920000D01*
X82550000Y-100330000D02*
X86230000Y-96650000D01*
%TO.N,PA4*%
X90170000Y-100330000D02*
X92480000Y-98020000D01*
X90360000Y-99590000D02*
X90420000Y-99590000D01*
X92480000Y-98020000D02*
X93240000Y-98020000D01*
X93530000Y-98020000D02*
X94520000Y-97030000D01*
X94520000Y-97030000D02*
X94520000Y-92650000D01*
X93240000Y-98020000D02*
X93530000Y-98020000D01*
%TO.N,PA7*%
X96020000Y-92650000D02*
X96020000Y-98560000D01*
X96020000Y-98560000D02*
X97790000Y-100330000D01*
%TO.N,PB1*%
X99700000Y-98120000D02*
X100660000Y-98120000D01*
X97020000Y-95440000D02*
X99700000Y-98120000D01*
X100660000Y-98120000D02*
X102870000Y-100330000D01*
X97020000Y-92650000D02*
X97020000Y-95440000D01*
%TO.N,PA3*%
X90330000Y-97630000D02*
X87630000Y-100330000D01*
X94020000Y-92650000D02*
X94020000Y-96450000D01*
X94020000Y-96450000D02*
X92840000Y-97630000D01*
X90330000Y-97630000D02*
X92840000Y-97630000D01*
%TO.N,PA6*%
X95520000Y-100060000D02*
X95250000Y-100330000D01*
X95520000Y-99510000D02*
X95440000Y-99590000D01*
X95520000Y-92650000D02*
X95520000Y-100060000D01*
%TO.N,PA2*%
X88500000Y-97040000D02*
X88380000Y-97040000D01*
X92720000Y-91350000D02*
X92720000Y-94940000D01*
X90620000Y-97040000D02*
X88500000Y-97040000D01*
X88380000Y-97040000D02*
X85090000Y-100330000D01*
X92720000Y-94940000D02*
X90620000Y-97040000D01*
%TO.N,PA0*%
X90960000Y-94758456D02*
X89458456Y-96260000D01*
X91638456Y-90350000D02*
X90960000Y-91028456D01*
X89458456Y-96260000D02*
X84080000Y-96260000D01*
X90960000Y-91028456D02*
X90960000Y-94758456D01*
X92720000Y-90350000D02*
X91638456Y-90350000D01*
X84080000Y-96260000D02*
X80010000Y-100330000D01*
D42*
%TO.N,PC13*%
X90710000Y-85510000D02*
X90710000Y-85530000D01*
X89710000Y-84530000D02*
X90690000Y-85510000D01*
X89710000Y-82050000D02*
X89710000Y-84530000D01*
X91530000Y-86350000D02*
X92720000Y-86350000D01*
X75200000Y-77770000D02*
X85430000Y-77770000D01*
X90690000Y-85510000D02*
X90710000Y-85510000D01*
X90710000Y-85530000D02*
X91530000Y-86350000D01*
X85430000Y-77770000D02*
X89710000Y-82050000D01*
D41*
%TO.N,PB0*%
X96520000Y-92650000D02*
X96520000Y-96520000D01*
X96520000Y-96520000D02*
X100330000Y-100330000D01*
%TO.N,PB10*%
X98055000Y-95645000D02*
X100100000Y-97690000D01*
X98020000Y-92650000D02*
X98030000Y-92650000D01*
X102770000Y-97690000D02*
X105410000Y-100330000D01*
X100100000Y-97690000D02*
X102770000Y-97690000D01*
X98055000Y-92675000D02*
X98055000Y-95645000D01*
X98030000Y-92650000D02*
X98055000Y-92675000D01*
%TO.N,PA5*%
X95020000Y-98020000D02*
X95020000Y-92650000D01*
X92710000Y-100330000D02*
X95020000Y-98020000D01*
%TO.N,PB11*%
X104920000Y-97300000D02*
X107950000Y-100330000D01*
X98520000Y-92650000D02*
X98520000Y-95558456D01*
X98520000Y-95558456D02*
X100261544Y-97300000D01*
X100261544Y-97300000D02*
X104920000Y-97300000D01*
%TO.N,PB15*%
X105170000Y-77710000D02*
X110490000Y-72390000D01*
X102507720Y-89850000D02*
X105170000Y-87187720D01*
X100820000Y-89850000D02*
X102507720Y-89850000D01*
X105170000Y-87187720D02*
X105170000Y-77710000D01*
%TO.N,PB12*%
X111860000Y-74870000D02*
X106820000Y-79910000D01*
X115630000Y-74870000D02*
X111860000Y-74870000D01*
X106820000Y-87192352D02*
X102662352Y-91350000D01*
X106820000Y-79910000D02*
X106820000Y-87192352D01*
X102662352Y-91350000D02*
X100820000Y-91350000D01*
X118110000Y-72390000D02*
X115630000Y-74870000D01*
%TO.N,PA10*%
X100820000Y-88350000D02*
X102353088Y-88350000D01*
X103690000Y-87013088D02*
X103690000Y-73210000D01*
X102353088Y-88350000D02*
X103690000Y-87013088D01*
X103690000Y-73210000D02*
X102870000Y-72390000D01*
%TO.N,PA12*%
X100820000Y-87350000D02*
X102250000Y-87350000D01*
X102250000Y-87350000D02*
X102800000Y-86800000D01*
X102800000Y-77400000D02*
X97790000Y-72390000D01*
X102800000Y-86800000D02*
X102800000Y-77400000D01*
%TO.N,PB6*%
X97020000Y-79223088D02*
X97020000Y-84550000D01*
X93516912Y-75720000D02*
X88420000Y-75720000D01*
X88420000Y-75720000D02*
X85090000Y-72390000D01*
X93516912Y-75720000D02*
X97020000Y-79223088D01*
%TO.N,PB3*%
X98520000Y-84550000D02*
X98520000Y-78200000D01*
X98520000Y-78200000D02*
X92710000Y-72390000D01*
%TO.N,PA15*%
X99020000Y-84550000D02*
X99020000Y-76160000D01*
X99020000Y-76160000D02*
X95250000Y-72390000D01*
%TO.N,PB14*%
X100820000Y-90350000D02*
X102559264Y-90350000D01*
X102559264Y-90350000D02*
X105710000Y-87199264D01*
X105710000Y-87199264D02*
X105710000Y-80210000D01*
X105710000Y-79302304D02*
X105710000Y-80210000D01*
X113030000Y-72390000D02*
X112622304Y-72390000D01*
X112622304Y-72390000D02*
X105710000Y-79302304D01*
%TO.N,PB8*%
X93193824Y-76500000D02*
X84120000Y-76500000D01*
X84120000Y-76500000D02*
X80010000Y-72390000D01*
X95520000Y-84550000D02*
X95520000Y-78826176D01*
X95520000Y-78826176D02*
X93193824Y-76500000D01*
%TO.N,PB9*%
X81970000Y-76890000D02*
X77470000Y-72390000D01*
X95020000Y-78877720D02*
X93032280Y-76890000D01*
X95020000Y-84550000D02*
X95020000Y-78877720D01*
X93032280Y-76890000D02*
X81970000Y-76890000D01*
%TO.N,PA9*%
X104080000Y-87174632D02*
X104080000Y-73720000D01*
X104080000Y-73720000D02*
X105410000Y-72390000D01*
X100820000Y-88850000D02*
X102404632Y-88850000D01*
X102404632Y-88850000D02*
X104080000Y-87174632D01*
%TO.N,PA11*%
X102301544Y-87850000D02*
X103300000Y-86851544D01*
X103300000Y-75360000D02*
X100330000Y-72390000D01*
X103300000Y-86851544D02*
X103300000Y-75360000D01*
X100820000Y-87850000D02*
X102301544Y-87850000D01*
%TO.N,PA8*%
X104600000Y-75740000D02*
X107950000Y-72390000D01*
X102456176Y-89350000D02*
X104600000Y-87206176D01*
X100820000Y-89350000D02*
X102456176Y-89350000D01*
X104600000Y-87206176D02*
X104600000Y-75740000D01*
%TO.N,PB13*%
X102610808Y-90850000D02*
X106350000Y-87110808D01*
X106350000Y-87110808D02*
X106350000Y-80090000D01*
X115570000Y-72390000D02*
X113940000Y-74020000D01*
X113940000Y-74020000D02*
X111890000Y-74020000D01*
X100820000Y-90850000D02*
X102610808Y-90850000D01*
X106350000Y-79560000D02*
X106350000Y-80090000D01*
X111890000Y-74020000D02*
X106350000Y-79560000D01*
%TO.N,PB7*%
X93355368Y-76110000D02*
X86270000Y-76110000D01*
X86270000Y-76110000D02*
X82550000Y-72390000D01*
X96520000Y-84550000D02*
X96520000Y-79274632D01*
X96520000Y-79274632D02*
X93355368Y-76110000D01*
%TO.N,PB5*%
X93678456Y-75330000D02*
X90570000Y-75330000D01*
X97520000Y-79171544D02*
X93678456Y-75330000D01*
X97520000Y-84550000D02*
X97520000Y-79171544D01*
X90570000Y-75330000D02*
X87630000Y-72390000D01*
%TO.N,PB4*%
X92720000Y-74940000D02*
X90170000Y-72390000D01*
X93840000Y-74940000D02*
X92720000Y-74940000D01*
X98020000Y-79120000D02*
X93840000Y-74940000D01*
X98020000Y-84550000D02*
X98020000Y-79120000D01*
%TO.N,PA13{slash}SWDIO*%
X111535000Y-77005000D02*
X121115000Y-77005000D01*
X101850000Y-86850000D02*
X102045000Y-86655000D01*
X108700000Y-79840000D02*
X111535000Y-77005000D01*
X102045000Y-84475000D02*
X101390000Y-83820000D01*
X108700000Y-80440000D02*
X108700000Y-79840000D01*
X102045000Y-86655000D02*
X102045000Y-84475000D01*
X121115000Y-77005000D02*
X125730000Y-72390000D01*
X100820000Y-86850000D02*
X101850000Y-86850000D01*
%TO.N,PA14{slash}SWCLK*%
X107615000Y-80395000D02*
X107610000Y-80400000D01*
X107615000Y-80395000D02*
X107615000Y-79925000D01*
X107615000Y-79925000D02*
X111735000Y-75805000D01*
X99950000Y-82530000D02*
X99960000Y-82520000D01*
X111735000Y-75805000D02*
X119775000Y-75805000D01*
X119775000Y-75805000D02*
X123190000Y-72390000D01*
X107630000Y-80380000D02*
X107615000Y-80395000D01*
X99520000Y-84550000D02*
X99520000Y-82960000D01*
X99520000Y-82960000D02*
X99950000Y-82530000D01*
D42*
%TO.N,Net-(LED1-+)*%
X73096000Y-80126000D02*
X73130000Y-80160000D01*
X70550500Y-80126000D02*
X73096000Y-80126000D01*
%TO.N,Net-(LED2-+)*%
X70550500Y-77596000D02*
X73026000Y-77596000D01*
X73026000Y-77596000D02*
X73200000Y-77770000D01*
D43*
%TO.N,VMCU*%
X93740000Y-83480000D02*
X92320000Y-83480000D01*
X94020000Y-83760000D02*
X93740000Y-83480000D01*
X93380000Y-81600000D02*
X93380000Y-81570000D01*
D44*
X103520000Y-93380000D02*
X107480000Y-93380000D01*
D43*
X92720000Y-85850000D02*
X92320000Y-85850000D01*
X102010000Y-93370000D02*
X102030000Y-93390000D01*
D40*
X103520000Y-93380000D02*
X101020000Y-93380000D01*
D44*
X129140000Y-76560000D02*
X129140000Y-74780000D01*
D43*
X93150000Y-81370000D02*
X93350000Y-81570000D01*
D44*
X109080000Y-93380000D02*
X110420000Y-93380000D01*
X110770250Y-93380000D02*
X111780250Y-92370000D01*
X129140000Y-77450000D02*
X129140000Y-76560000D01*
D43*
X92320000Y-81370000D02*
X93150000Y-81370000D01*
D44*
X129140000Y-74780000D02*
X129140000Y-73260000D01*
X111320000Y-81778500D02*
X114178500Y-78920000D01*
X110420000Y-93380000D02*
X110770250Y-93380000D01*
D43*
X92320000Y-82440000D02*
X92320000Y-81370000D01*
X100290000Y-92650000D02*
X101010000Y-93370000D01*
X93590000Y-82680000D02*
X93590000Y-82600000D01*
X94020000Y-84550000D02*
X94020000Y-83760000D01*
X92320000Y-85850000D02*
X92320000Y-83480000D01*
D44*
X75130000Y-80160000D02*
X75130000Y-82690000D01*
X111780250Y-83670250D02*
X111320000Y-83210000D01*
X111780250Y-92370000D02*
X111780250Y-83670250D01*
X75130000Y-82690000D02*
X75130000Y-83380000D01*
D43*
X92320000Y-83480000D02*
X92320000Y-82440000D01*
X93590000Y-82680000D02*
X93590000Y-82760000D01*
X101010000Y-93370000D02*
X102010000Y-93370000D01*
X99520000Y-92650000D02*
X100290000Y-92650000D01*
X93590000Y-82600000D02*
X93590000Y-81810000D01*
D44*
X129140000Y-74780000D02*
X129140000Y-73464500D01*
D43*
X93350000Y-81570000D02*
X93380000Y-81570000D01*
X93590000Y-81810000D02*
X93380000Y-81600000D01*
D44*
X107480000Y-93380000D02*
X109080000Y-93380000D01*
D43*
X102050000Y-93370000D02*
X102720000Y-93370000D01*
D44*
X75130000Y-84130750D02*
X74033500Y-85227250D01*
X114178500Y-78920000D02*
X127670000Y-78920000D01*
X129140000Y-73260000D02*
X128270000Y-72390000D01*
X111320000Y-83210000D02*
X111320000Y-81778500D01*
D43*
X102030000Y-93390000D02*
X102050000Y-93370000D01*
D44*
X75130000Y-83380000D02*
X75130000Y-84130750D01*
D40*
X101020000Y-93380000D02*
X101010000Y-93370000D01*
D44*
X127670000Y-78920000D02*
X129140000Y-77450000D01*
D41*
%TO.N,BOOT0*%
X96170000Y-89900000D02*
X96160000Y-89890000D01*
X103260000Y-96290000D02*
X113780000Y-96290000D01*
X113780000Y-96290000D02*
X116770000Y-99280000D01*
X117140000Y-101800000D02*
X119010000Y-101800000D01*
X116770000Y-101430000D02*
X117140000Y-101800000D01*
X119420000Y-101390000D02*
X119420000Y-99310000D01*
X96160000Y-89890000D02*
X96020000Y-89750000D01*
X96020000Y-89750000D02*
X96020000Y-84550000D01*
X116770000Y-99280000D02*
X116770000Y-101430000D01*
X119010000Y-101800000D02*
X119420000Y-101390000D01*
X119420000Y-99310000D02*
X122080000Y-96650000D01*
D40*
%TO.N,Net-(USB1-CC2)*%
X119988250Y-87368250D02*
X120000000Y-87380000D01*
X118826375Y-87368250D02*
X119988250Y-87368250D01*
D43*
X127810000Y-83580000D02*
X126645000Y-83580000D01*
X127830000Y-83580000D02*
X127810000Y-83580000D01*
X126645000Y-83580000D02*
X126625000Y-83560000D01*
D40*
%TO.N,Net-(USB1-CC1)*%
X118826375Y-90250000D02*
X119970000Y-90250000D01*
D43*
X126625000Y-86560000D02*
X127940000Y-86560000D01*
D42*
X127940000Y-86560000D02*
X128000000Y-86500000D01*
D45*
%TO.N,/VDDA*%
X91050000Y-89850000D02*
X90020000Y-90880000D01*
D40*
X89550000Y-90890000D02*
X89560000Y-90880000D01*
X89550000Y-92050000D02*
X89550000Y-90890000D01*
X89550000Y-92050000D02*
X88450000Y-93150000D01*
D45*
X92720000Y-89850000D02*
X91050000Y-89850000D01*
D40*
X88450000Y-93150000D02*
X78100000Y-93150000D01*
D45*
X90020000Y-90880000D02*
X89560000Y-90880000D01*
%TD*%
%TA.AperFunction,Conductor*%
%TO.N,VMCU*%
G36*
X108282787Y-80969685D02*
G01*
X108297970Y-80981181D01*
X108312760Y-80994283D01*
X108312764Y-80994285D01*
X108452634Y-81067696D01*
X108606014Y-81105500D01*
X108606015Y-81105500D01*
X108763985Y-81105500D01*
X108917365Y-81067696D01*
X108959655Y-81045500D01*
X109057240Y-80994283D01*
X109072025Y-80981184D01*
X109135257Y-80951463D01*
X109154252Y-80950000D01*
X112255250Y-80950000D01*
X112322289Y-80969685D01*
X112368044Y-81022489D01*
X112379250Y-81074000D01*
X112379250Y-91459500D01*
X112359565Y-91526539D01*
X112306761Y-91572294D01*
X112255250Y-91583500D01*
X107474000Y-91583500D01*
X107406961Y-91563815D01*
X107361206Y-91511011D01*
X107350000Y-91459500D01*
X107350000Y-81157926D01*
X107369685Y-81090887D01*
X107422489Y-81045132D01*
X107491647Y-81035188D01*
X107503673Y-81037528D01*
X107536015Y-81045500D01*
X107693985Y-81045500D01*
X107847365Y-81007696D01*
X107930231Y-80964203D01*
X107987857Y-80950000D01*
X108215748Y-80950000D01*
X108282787Y-80969685D01*
G37*
%TD.AperFunction*%
%TD*%
%TA.AperFunction,Conductor*%
%TO.N,VMCU*%
G36*
X93618523Y-81121948D02*
G01*
X93683969Y-81146411D01*
X93725801Y-81202373D01*
X93733527Y-81241712D01*
X93785414Y-82884794D01*
X93767855Y-82952422D01*
X93716522Y-82999820D01*
X93647712Y-83011942D01*
X93644738Y-83011573D01*
X92023649Y-82790733D01*
X91959880Y-82762180D01*
X91921672Y-82703683D01*
X91916391Y-82666856D01*
X91928920Y-81132185D01*
X91949151Y-81065311D01*
X92002327Y-81019989D01*
X92061846Y-81009522D01*
X93618523Y-81121948D01*
G37*
%TD.AperFunction*%
%TD*%
%TA.AperFunction,Conductor*%
%TO.N,GND*%
G36*
X115836415Y-82466185D02*
G01*
X115882170Y-82518989D01*
X115893376Y-82570500D01*
X115893376Y-82826686D01*
X115903700Y-82927752D01*
X115931912Y-83012888D01*
X115957967Y-83091516D01*
X116048535Y-83238350D01*
X116170525Y-83360340D01*
X116317359Y-83450908D01*
X116481122Y-83505174D01*
X116582198Y-83515500D01*
X117355551Y-83515499D01*
X117355559Y-83515498D01*
X117355562Y-83515498D01*
X117410905Y-83509844D01*
X117456628Y-83505174D01*
X117620391Y-83450908D01*
X117767225Y-83360340D01*
X117889215Y-83238350D01*
X117891035Y-83235398D01*
X117892810Y-83233802D01*
X117893693Y-83232686D01*
X117893883Y-83232836D01*
X117942984Y-83188677D01*
X117996571Y-83176500D01*
X119051300Y-83176500D01*
X119118339Y-83196185D01*
X119156837Y-83235402D01*
X119177160Y-83268350D01*
X119299150Y-83390340D01*
X119445984Y-83480908D01*
X119609747Y-83535174D01*
X119710823Y-83545500D01*
X120246571Y-83545499D01*
X120294023Y-83554938D01*
X120363167Y-83583578D01*
X120363172Y-83583580D01*
X120363176Y-83583580D01*
X120363177Y-83583581D01*
X120498504Y-83610500D01*
X120498507Y-83610500D01*
X122485500Y-83610500D01*
X122552539Y-83630185D01*
X122598294Y-83682989D01*
X122609500Y-83734500D01*
X122609500Y-86191006D01*
X122609500Y-86328994D01*
X122609500Y-86328996D01*
X122609499Y-86328996D01*
X122636418Y-86464322D01*
X122636421Y-86464332D01*
X122689222Y-86591807D01*
X122765887Y-86706545D01*
X123681661Y-87622319D01*
X123715146Y-87683642D01*
X123710162Y-87753334D01*
X123681661Y-87797681D01*
X120682081Y-90797261D01*
X120620758Y-90830746D01*
X120551066Y-90825762D01*
X120495133Y-90783890D01*
X120470716Y-90718426D01*
X120485568Y-90650153D01*
X120491295Y-90640694D01*
X120507559Y-90616351D01*
X120508565Y-90614867D01*
X120550220Y-90554523D01*
X120574122Y-90491497D01*
X120575448Y-90488154D01*
X120595501Y-90439744D01*
X120595502Y-90439737D01*
X120596196Y-90437448D01*
X120601094Y-90420377D01*
X120606237Y-90406818D01*
X120612232Y-90357440D01*
X120613706Y-90348220D01*
X120620500Y-90314069D01*
X120620500Y-90296851D01*
X120621404Y-90281904D01*
X120621548Y-90280715D01*
X120625278Y-90250000D01*
X120621404Y-90218094D01*
X120620500Y-90203148D01*
X120620500Y-90185932D01*
X120618826Y-90177516D01*
X120613705Y-90151775D01*
X120612231Y-90142552D01*
X120606237Y-90093183D01*
X120601095Y-90079625D01*
X120596185Y-90062512D01*
X120595502Y-90060264D01*
X120595501Y-90060256D01*
X120589935Y-90046818D01*
X120575472Y-90011900D01*
X120574091Y-90008420D01*
X120572641Y-90004596D01*
X120550220Y-89945477D01*
X120508595Y-89885173D01*
X120507570Y-89883664D01*
X120475281Y-89835337D01*
X120471732Y-89831013D01*
X120465529Y-89822780D01*
X120460486Y-89815474D01*
X120460484Y-89815472D01*
X120460483Y-89815470D01*
X120460480Y-89815467D01*
X120460477Y-89815464D01*
X120418856Y-89778590D01*
X120413403Y-89773457D01*
X120384672Y-89744726D01*
X120384667Y-89744722D01*
X120375241Y-89738424D01*
X120361904Y-89728137D01*
X120342244Y-89710720D01*
X120342242Y-89710719D01*
X120342240Y-89710717D01*
X120308570Y-89693045D01*
X120297318Y-89686358D01*
X120278127Y-89673535D01*
X120278125Y-89673534D01*
X120251388Y-89662459D01*
X120241219Y-89657696D01*
X120202365Y-89637304D01*
X120182560Y-89632422D01*
X120164799Y-89626592D01*
X120159744Y-89624499D01*
X120114118Y-89615422D01*
X120108640Y-89614202D01*
X120048987Y-89599500D01*
X120048985Y-89599500D01*
X120034069Y-89599500D01*
X119830084Y-89599500D01*
X119763045Y-89579815D01*
X119723967Y-89539649D01*
X119651594Y-89419928D01*
X119651591Y-89419924D01*
X119534200Y-89302533D01*
X119534196Y-89302530D01*
X119392130Y-89216649D01*
X119392126Y-89216647D01*
X119233632Y-89167259D01*
X119233634Y-89167259D01*
X119210672Y-89165172D01*
X119164754Y-89161000D01*
X119164750Y-89161000D01*
X118487988Y-89161000D01*
X118419124Y-89167257D01*
X118419117Y-89167259D01*
X118260623Y-89216647D01*
X118260619Y-89216649D01*
X118118553Y-89302530D01*
X118118549Y-89302533D01*
X118001158Y-89419924D01*
X118001155Y-89419928D01*
X117915274Y-89561994D01*
X117915272Y-89561998D01*
X117865884Y-89720491D01*
X117859625Y-89789374D01*
X117859625Y-90710636D01*
X117865882Y-90779500D01*
X117865884Y-90779507D01*
X117915272Y-90938001D01*
X117915274Y-90938005D01*
X118001155Y-91080071D01*
X118001158Y-91080075D01*
X118118549Y-91197466D01*
X118118553Y-91197469D01*
X118260619Y-91283350D01*
X118260623Y-91283352D01*
X118315708Y-91300517D01*
X118419118Y-91332741D01*
X118487996Y-91339000D01*
X119164753Y-91338999D01*
X119164760Y-91338999D01*
X119233625Y-91332742D01*
X119233626Y-91332741D01*
X119233632Y-91332741D01*
X119392129Y-91283351D01*
X119534201Y-91197466D01*
X119651591Y-91080076D01*
X119664559Y-91058625D01*
X119723967Y-90960351D01*
X119775494Y-90913163D01*
X119830084Y-90900500D01*
X120048983Y-90900500D01*
X120048985Y-90900500D01*
X120108692Y-90885783D01*
X120114099Y-90884580D01*
X120159744Y-90875501D01*
X120164782Y-90873413D01*
X120182564Y-90867576D01*
X120202365Y-90862696D01*
X120241237Y-90842292D01*
X120251374Y-90837545D01*
X120278127Y-90826465D01*
X120297328Y-90813634D01*
X120308576Y-90806950D01*
X120342240Y-90789283D01*
X120342240Y-90789282D01*
X120348884Y-90785796D01*
X120349482Y-90786935D01*
X120408468Y-90767472D01*
X120476123Y-90784925D01*
X120523601Y-90836185D01*
X120535830Y-90904976D01*
X120508926Y-90969458D01*
X120500256Y-90979085D01*
X117565887Y-93913454D01*
X117489222Y-94028192D01*
X117436421Y-94155667D01*
X117436421Y-94155669D01*
X117436420Y-94155672D01*
X117418474Y-94245894D01*
X117418474Y-94245895D01*
X117409500Y-94291006D01*
X117409500Y-98905500D01*
X117389815Y-98972539D01*
X117337011Y-99018294D01*
X117285500Y-99029500D01*
X117229179Y-99029500D01*
X117162140Y-99009815D01*
X117141498Y-98993181D01*
X114065826Y-95917509D01*
X114065824Y-95917507D01*
X113959677Y-95856223D01*
X113841284Y-95824500D01*
X113841283Y-95824500D01*
X103762552Y-95824500D01*
X103695513Y-95804815D01*
X103680326Y-95793316D01*
X103632240Y-95750717D01*
X103632238Y-95750715D01*
X103492365Y-95677303D01*
X103338986Y-95639500D01*
X103338985Y-95639500D01*
X103181015Y-95639500D01*
X103181014Y-95639500D01*
X103027634Y-95677303D01*
X102887762Y-95750715D01*
X102769516Y-95855471D01*
X102679781Y-95985475D01*
X102679780Y-95985476D01*
X102623762Y-96133181D01*
X102604722Y-96289999D01*
X102604722Y-96290000D01*
X102623762Y-96446818D01*
X102679780Y-96594523D01*
X102679780Y-96594524D01*
X102711212Y-96640060D01*
X102733095Y-96706414D01*
X102715630Y-96774066D01*
X102664362Y-96821536D01*
X102609162Y-96834500D01*
X100505722Y-96834500D01*
X100438683Y-96814815D01*
X100418041Y-96798181D01*
X99021819Y-95401958D01*
X98988334Y-95340635D01*
X98985500Y-95314277D01*
X98985500Y-93938475D01*
X99005185Y-93871436D01*
X99057989Y-93825681D01*
X99127147Y-93815737D01*
X99181081Y-93838455D01*
X99181087Y-93838445D01*
X99181167Y-93838491D01*
X99184991Y-93840102D01*
X99188119Y-93842502D01*
X99188125Y-93842508D01*
X99311375Y-93913666D01*
X99448842Y-93950500D01*
X99448844Y-93950500D01*
X99591156Y-93950500D01*
X99591158Y-93950500D01*
X99728625Y-93913666D01*
X99851875Y-93842508D01*
X99952508Y-93741875D01*
X99959951Y-93728982D01*
X100010513Y-93680767D01*
X100079120Y-93667541D01*
X100143986Y-93693506D01*
X100181900Y-93743527D01*
X100222900Y-93842510D01*
X100235464Y-93872841D01*
X100331718Y-93998282D01*
X100457159Y-94094536D01*
X100603238Y-94155044D01*
X100720639Y-94170500D01*
X101299360Y-94170499D01*
X101299363Y-94170499D01*
X101416753Y-94155046D01*
X101416757Y-94155044D01*
X101416762Y-94155044D01*
X101562841Y-94094536D01*
X101612901Y-94056124D01*
X101678070Y-94030930D01*
X101688387Y-94030500D01*
X102845638Y-94030500D01*
X102912677Y-94050185D01*
X102933319Y-94066819D01*
X102945961Y-94079461D01*
X102945965Y-94079464D01*
X103093446Y-94178009D01*
X103093459Y-94178016D01*
X103216363Y-94228923D01*
X103257334Y-94245894D01*
X103257336Y-94245894D01*
X103257341Y-94245896D01*
X103431304Y-94280499D01*
X103431307Y-94280500D01*
X103431309Y-94280500D01*
X110858943Y-94280500D01*
X110858944Y-94280499D01*
X111032916Y-94245895D01*
X111114856Y-94211953D01*
X111196797Y-94178013D01*
X111196799Y-94178011D01*
X111196802Y-94178010D01*
X111285205Y-94118939D01*
X111285205Y-94118938D01*
X111285209Y-94118936D01*
X111344286Y-94079464D01*
X111941931Y-93481817D01*
X112003254Y-93448333D01*
X112029612Y-93445499D01*
X112196920Y-93445499D01*
X112196926Y-93445499D01*
X112298003Y-93435174D01*
X112461766Y-93380908D01*
X112608600Y-93290340D01*
X112730590Y-93168350D01*
X112821158Y-93021516D01*
X112875424Y-92857753D01*
X112885750Y-92756677D01*
X112885749Y-91983324D01*
X112883947Y-91965688D01*
X112875424Y-91882247D01*
X112875423Y-91882244D01*
X112853306Y-91815500D01*
X112821158Y-91718484D01*
X112785030Y-91659912D01*
X112766590Y-91592521D01*
X112767831Y-91577169D01*
X112768322Y-91573751D01*
X112768324Y-91573746D01*
X112784750Y-91459500D01*
X112784750Y-90536540D01*
X112803213Y-90471441D01*
X112821154Y-90442354D01*
X112821158Y-90442348D01*
X112875424Y-90278585D01*
X112885750Y-90177509D01*
X112885749Y-89404156D01*
X112879842Y-89346334D01*
X112875424Y-89303079D01*
X112875242Y-89302530D01*
X112821158Y-89139316D01*
X112803210Y-89110217D01*
X112784750Y-89045122D01*
X112784750Y-87957374D01*
X112803213Y-87892275D01*
X112812172Y-87877750D01*
X112821158Y-87863182D01*
X112875424Y-87699419D01*
X112885750Y-87598343D01*
X112885749Y-86907624D01*
X117859625Y-86907624D01*
X117859625Y-87828886D01*
X117865882Y-87897750D01*
X117865884Y-87897757D01*
X117915272Y-88056251D01*
X117915274Y-88056255D01*
X118001155Y-88198321D01*
X118001158Y-88198325D01*
X118118549Y-88315716D01*
X118118553Y-88315719D01*
X118260619Y-88401600D01*
X118260623Y-88401602D01*
X118316686Y-88419071D01*
X118419118Y-88450991D01*
X118487996Y-88457250D01*
X119164753Y-88457249D01*
X119164760Y-88457249D01*
X119233625Y-88450992D01*
X119233626Y-88450991D01*
X119233632Y-88450991D01*
X119392129Y-88401601D01*
X119534201Y-88315716D01*
X119651591Y-88198326D01*
X119696013Y-88124842D01*
X119723967Y-88078601D01*
X119775494Y-88031413D01*
X119830084Y-88018750D01*
X119864653Y-88018750D01*
X119888843Y-88021132D01*
X119935931Y-88030499D01*
X119935934Y-88030499D01*
X119935940Y-88030500D01*
X119941015Y-88030500D01*
X120098985Y-88030500D01*
X120252365Y-87992696D01*
X120305081Y-87965028D01*
X120392240Y-87919283D01*
X120510483Y-87814530D01*
X120600220Y-87684523D01*
X120656237Y-87536818D01*
X120675278Y-87380000D01*
X120658464Y-87241519D01*
X120656237Y-87223181D01*
X120609520Y-87100000D01*
X120600220Y-87075477D01*
X120510483Y-86945470D01*
X120392240Y-86840717D01*
X120392238Y-86840716D01*
X120392237Y-86840715D01*
X120252365Y-86767303D01*
X120224206Y-86760363D01*
X120206428Y-86754526D01*
X120199823Y-86751790D01*
X120177996Y-86742749D01*
X120176722Y-86742496D01*
X120176722Y-86742495D01*
X120052321Y-86717750D01*
X120052319Y-86717750D01*
X119830084Y-86717750D01*
X119763045Y-86698065D01*
X119723967Y-86657899D01*
X119651594Y-86538178D01*
X119651591Y-86538174D01*
X119534200Y-86420783D01*
X119534196Y-86420780D01*
X119392130Y-86334899D01*
X119392126Y-86334897D01*
X119233632Y-86285509D01*
X119233634Y-86285509D01*
X119210672Y-86283422D01*
X119164754Y-86279250D01*
X119164750Y-86279250D01*
X118487988Y-86279250D01*
X118419124Y-86285507D01*
X118419117Y-86285509D01*
X118260623Y-86334897D01*
X118260619Y-86334899D01*
X118118553Y-86420780D01*
X118118549Y-86420783D01*
X118001158Y-86538174D01*
X118001155Y-86538178D01*
X117915274Y-86680244D01*
X117915272Y-86680248D01*
X117865884Y-86838741D01*
X117859625Y-86907624D01*
X112885749Y-86907624D01*
X112885749Y-86824990D01*
X112885238Y-86819992D01*
X112875424Y-86723913D01*
X112860953Y-86680244D01*
X112821158Y-86560150D01*
X112803210Y-86531051D01*
X112784750Y-86465956D01*
X112784750Y-84533318D01*
X112804435Y-84466279D01*
X112852449Y-84422837D01*
X112868728Y-84414541D01*
X112868747Y-84414531D01*
X112907747Y-84393531D01*
X112923463Y-84384612D01*
X112961963Y-84361612D01*
X112977875Y-84351598D01*
X113014875Y-84327098D01*
X113031387Y-84315564D01*
X113067387Y-84289064D01*
X113082533Y-84277354D01*
X113117033Y-84249354D01*
X113131751Y-84236815D01*
X113164751Y-84207315D01*
X113176645Y-84196246D01*
X113208645Y-84165246D01*
X113222185Y-84151489D01*
X113252685Y-84118989D01*
X113265518Y-84104648D01*
X113294518Y-84070648D01*
X113294530Y-84070634D01*
X113308742Y-84052994D01*
X113308756Y-84052977D01*
X113335756Y-84017477D01*
X113345412Y-84004233D01*
X113349426Y-83998487D01*
X113403953Y-83954804D01*
X113451078Y-83945500D01*
X114819999Y-83945500D01*
X114820000Y-83945500D01*
X114874157Y-83936922D01*
X114945301Y-83925654D01*
X114945301Y-83925653D01*
X114945306Y-83925653D01*
X115058347Y-83868056D01*
X115148056Y-83778347D01*
X115205653Y-83665306D01*
X115205990Y-83663182D01*
X115223134Y-83554938D01*
X115225500Y-83540000D01*
X115225500Y-82880000D01*
X115214175Y-82808500D01*
X115205654Y-82754698D01*
X115205653Y-82754696D01*
X115205653Y-82754694D01*
X115148056Y-82641653D01*
X115148054Y-82641651D01*
X115143625Y-82632958D01*
X115145290Y-82632109D01*
X115125835Y-82577570D01*
X115141665Y-82509517D01*
X115191774Y-82460826D01*
X115249633Y-82446500D01*
X115769376Y-82446500D01*
X115836415Y-82466185D01*
G37*
%TD.AperFunction*%
%TA.AperFunction,Conductor*%
G36*
X85242505Y-78280185D02*
G01*
X85263147Y-78296819D01*
X89183181Y-82216853D01*
X89216666Y-82278176D01*
X89219500Y-82304534D01*
X89219500Y-84465424D01*
X89219500Y-84594576D01*
X89234485Y-84650502D01*
X89252926Y-84719327D01*
X89265739Y-84741519D01*
X89317502Y-84831174D01*
X89317504Y-84831176D01*
X90032534Y-85546206D01*
X90066019Y-85607529D01*
X90067949Y-85618939D01*
X90073763Y-85666819D01*
X90100250Y-85736659D01*
X90105617Y-85806322D01*
X90072470Y-85867828D01*
X90011331Y-85901650D01*
X89941613Y-85897048D01*
X89896627Y-85868311D01*
X88008848Y-83980532D01*
X85605824Y-81577507D01*
X85499677Y-81516223D01*
X85381284Y-81484500D01*
X85381283Y-81484500D01*
X84733572Y-81484500D01*
X84666533Y-81464815D01*
X84620778Y-81412011D01*
X84610834Y-81342853D01*
X84628033Y-81295404D01*
X84630919Y-81290722D01*
X84637878Y-81279442D01*
X84690489Y-81120672D01*
X84700500Y-81022680D01*
X84700500Y-80507320D01*
X84690489Y-80409328D01*
X84637878Y-80250558D01*
X84637874Y-80250552D01*
X84637873Y-80250549D01*
X84550072Y-80108203D01*
X84550069Y-80108199D01*
X84431800Y-79989930D01*
X84431796Y-79989927D01*
X84289450Y-79902126D01*
X84289444Y-79902123D01*
X84289442Y-79902122D01*
X84130672Y-79849511D01*
X84130665Y-79849510D01*
X84032687Y-79839500D01*
X84032680Y-79839500D01*
X82867320Y-79839500D01*
X82867312Y-79839500D01*
X82769334Y-79849510D01*
X82769327Y-79849511D01*
X82610560Y-79902121D01*
X82610549Y-79902126D01*
X82468203Y-79989927D01*
X82468199Y-79989930D01*
X82349930Y-80108199D01*
X82349927Y-80108203D01*
X82263794Y-80247847D01*
X82211847Y-80294572D01*
X82158256Y-80306750D01*
X81594318Y-80306750D01*
X81527279Y-80287065D01*
X81481524Y-80234261D01*
X81479756Y-80230201D01*
X81475286Y-80219410D01*
X81475286Y-80219409D01*
X81379032Y-80093968D01*
X81253591Y-79997714D01*
X81107512Y-79937206D01*
X81107510Y-79937205D01*
X80990111Y-79921750D01*
X80511386Y-79921750D01*
X80393996Y-79937203D01*
X80393987Y-79937206D01*
X80247910Y-79997713D01*
X80122468Y-80093968D01*
X80026213Y-80219410D01*
X79965706Y-80365487D01*
X79965705Y-80365489D01*
X79950250Y-80482888D01*
X79950250Y-81061613D01*
X79965703Y-81179003D01*
X79965706Y-81179012D01*
X80014434Y-81296653D01*
X80026214Y-81325091D01*
X80122468Y-81450532D01*
X80247909Y-81546786D01*
X80393988Y-81607294D01*
X80511389Y-81622750D01*
X80990110Y-81622749D01*
X80990113Y-81622749D01*
X81107503Y-81607296D01*
X81107507Y-81607294D01*
X81107512Y-81607294D01*
X81253591Y-81546786D01*
X81379032Y-81450532D01*
X81475286Y-81325091D01*
X81479756Y-81314298D01*
X81523596Y-81259895D01*
X81589890Y-81237829D01*
X81594318Y-81237750D01*
X82167199Y-81237750D01*
X82234238Y-81257435D01*
X82272737Y-81296653D01*
X82349927Y-81421796D01*
X82349930Y-81421800D01*
X82468199Y-81540069D01*
X82468203Y-81540072D01*
X82610549Y-81627873D01*
X82610552Y-81627874D01*
X82610558Y-81627878D01*
X82769328Y-81680489D01*
X82867320Y-81690500D01*
X83390821Y-81690500D01*
X83457860Y-81710185D01*
X83478502Y-81726819D01*
X83841502Y-82089819D01*
X83874987Y-82151142D01*
X83870003Y-82220834D01*
X83841504Y-82265179D01*
X83753501Y-82353182D01*
X83692181Y-82386666D01*
X83665822Y-82389500D01*
X82867312Y-82389500D01*
X82769334Y-82399510D01*
X82769327Y-82399511D01*
X82610560Y-82452121D01*
X82610549Y-82452126D01*
X82468203Y-82539927D01*
X82468199Y-82539930D01*
X82349930Y-82658199D01*
X82349927Y-82658203D01*
X82276130Y-82777847D01*
X82224182Y-82824572D01*
X82170592Y-82836750D01*
X81594318Y-82836750D01*
X81527279Y-82817065D01*
X81481524Y-82764261D01*
X81479756Y-82760201D01*
X81478355Y-82756818D01*
X81475286Y-82749409D01*
X81379032Y-82623968D01*
X81253591Y-82527714D01*
X81107512Y-82467206D01*
X81107510Y-82467205D01*
X80990111Y-82451750D01*
X80511386Y-82451750D01*
X80393996Y-82467203D01*
X80393987Y-82467206D01*
X80247910Y-82527713D01*
X80122468Y-82623968D01*
X80026213Y-82749410D01*
X79965706Y-82895487D01*
X79965705Y-82895489D01*
X79950250Y-83012888D01*
X79950250Y-83591613D01*
X79965703Y-83709003D01*
X79965706Y-83709012D01*
X80015588Y-83829439D01*
X80026214Y-83855091D01*
X80122468Y-83980532D01*
X80247909Y-84076786D01*
X80393988Y-84137294D01*
X80511389Y-84152750D01*
X80990110Y-84152749D01*
X80990113Y-84152749D01*
X81107503Y-84137296D01*
X81107507Y-84137294D01*
X81107512Y-84137294D01*
X81253591Y-84076786D01*
X81379032Y-83980532D01*
X81475286Y-83855091D01*
X81479756Y-83844298D01*
X81523596Y-83789895D01*
X81589890Y-83767829D01*
X81594318Y-83767750D01*
X82154863Y-83767750D01*
X82221902Y-83787435D01*
X82260401Y-83826653D01*
X82349927Y-83971796D01*
X82349930Y-83971800D01*
X82468199Y-84090069D01*
X82468203Y-84090072D01*
X82610549Y-84177873D01*
X82610552Y-84177874D01*
X82610558Y-84177878D01*
X82769328Y-84230489D01*
X82867320Y-84240500D01*
X82867325Y-84240500D01*
X84032675Y-84240500D01*
X84032680Y-84240500D01*
X84130672Y-84230489D01*
X84289442Y-84177878D01*
X84431800Y-84090070D01*
X84550070Y-83971800D01*
X84637878Y-83829442D01*
X84690489Y-83670672D01*
X84700500Y-83572680D01*
X84700500Y-83057320D01*
X84695961Y-83012888D01*
X84695881Y-83012102D01*
X84708651Y-82943409D01*
X84756531Y-82892525D01*
X84819239Y-82875500D01*
X84905821Y-82875500D01*
X84972860Y-82895185D01*
X84993502Y-82911819D01*
X89254502Y-87172819D01*
X89287987Y-87234142D01*
X89283003Y-87303834D01*
X89241131Y-87359767D01*
X89175667Y-87384184D01*
X89166821Y-87384500D01*
X86868710Y-87384500D01*
X86836992Y-87392998D01*
X86836993Y-87392999D01*
X86750328Y-87416221D01*
X86750323Y-87416223D01*
X86644177Y-87477506D01*
X86644174Y-87477508D01*
X85853502Y-88268181D01*
X85792179Y-88301666D01*
X85765821Y-88304500D01*
X84761846Y-88304500D01*
X84694807Y-88284815D01*
X84674165Y-88268181D01*
X84458693Y-88052709D01*
X84425208Y-87991386D01*
X84422374Y-87965028D01*
X84422374Y-86942689D01*
X84421082Y-86934530D01*
X84407521Y-86848903D01*
X84349925Y-86735865D01*
X84349921Y-86735861D01*
X84349920Y-86735859D01*
X84260222Y-86646161D01*
X84260219Y-86646159D01*
X84260217Y-86646157D01*
X84183392Y-86607012D01*
X84147176Y-86588559D01*
X84053399Y-86573707D01*
X82790357Y-86573707D01*
X82709394Y-86586530D01*
X82696571Y-86588561D01*
X82583533Y-86646157D01*
X82583532Y-86646158D01*
X82583527Y-86646161D01*
X82493829Y-86735859D01*
X82493826Y-86735864D01*
X82493825Y-86735865D01*
X82477806Y-86767304D01*
X82436227Y-86848905D01*
X82421375Y-86942682D01*
X82421375Y-86942687D01*
X82421375Y-86942688D01*
X82421375Y-87329400D01*
X82421376Y-87630500D01*
X82401692Y-87697539D01*
X82348888Y-87743294D01*
X82297376Y-87754500D01*
X82250347Y-87754500D01*
X82183308Y-87734815D01*
X82162666Y-87718181D01*
X81623693Y-87179208D01*
X81590208Y-87117885D01*
X81587374Y-87091527D01*
X81587374Y-86711343D01*
X81571921Y-86593953D01*
X81571919Y-86593946D01*
X81571919Y-86593945D01*
X81511411Y-86447866D01*
X81415157Y-86322425D01*
X81289716Y-86226171D01*
X81215609Y-86195475D01*
X81143637Y-86165663D01*
X81143635Y-86165662D01*
X81026236Y-86150207D01*
X80547511Y-86150207D01*
X80430121Y-86165660D01*
X80430112Y-86165663D01*
X80284035Y-86226170D01*
X80158593Y-86322425D01*
X80062338Y-86447867D01*
X80001831Y-86593944D01*
X80001830Y-86593946D01*
X79986375Y-86711345D01*
X79986375Y-87290070D01*
X80001828Y-87407460D01*
X80001831Y-87407469D01*
X80062339Y-87553548D01*
X80158593Y-87678989D01*
X80284034Y-87775243D01*
X80430113Y-87835751D01*
X80547514Y-87851207D01*
X80927695Y-87851206D01*
X80994734Y-87870890D01*
X81015376Y-87887525D01*
X81720344Y-88592493D01*
X81733347Y-88600000D01*
X81750834Y-88610096D01*
X81799050Y-88660663D01*
X81812274Y-88729270D01*
X81786306Y-88794135D01*
X81776516Y-88805165D01*
X81166633Y-89415048D01*
X81105310Y-89448533D01*
X81062769Y-89450306D01*
X81010739Y-89443457D01*
X80532011Y-89443457D01*
X80414621Y-89458910D01*
X80414612Y-89458913D01*
X80268535Y-89519420D01*
X80143093Y-89615675D01*
X80046838Y-89741117D01*
X79986331Y-89887194D01*
X79986330Y-89887196D01*
X79970875Y-90004595D01*
X79970875Y-90583320D01*
X79986328Y-90700710D01*
X79986331Y-90700719D01*
X80038125Y-90825762D01*
X80046839Y-90846798D01*
X80143093Y-90972239D01*
X80268534Y-91068493D01*
X80414613Y-91129001D01*
X80532014Y-91144457D01*
X81010735Y-91144456D01*
X81010738Y-91144456D01*
X81128128Y-91129003D01*
X81128132Y-91129001D01*
X81128137Y-91129001D01*
X81274216Y-91068493D01*
X81399657Y-90972239D01*
X81495911Y-90846798D01*
X81556419Y-90700719D01*
X81571875Y-90583318D01*
X81571874Y-90377803D01*
X81591558Y-90310764D01*
X81608188Y-90290127D01*
X82536497Y-89361819D01*
X82597820Y-89328334D01*
X82624178Y-89325500D01*
X83913489Y-89325500D01*
X83980528Y-89345185D01*
X84001165Y-89361814D01*
X84135057Y-89495705D01*
X84168541Y-89557026D01*
X84171375Y-89583385D01*
X84171375Y-90605724D01*
X84176905Y-90640638D01*
X84186229Y-90699511D01*
X84243825Y-90812549D01*
X84243827Y-90812551D01*
X84243829Y-90812554D01*
X84333527Y-90902252D01*
X84333529Y-90902253D01*
X84333533Y-90902257D01*
X84446569Y-90959852D01*
X84446573Y-90959854D01*
X84540350Y-90974706D01*
X84540356Y-90974707D01*
X85803393Y-90974706D01*
X85897179Y-90959853D01*
X86010217Y-90902257D01*
X86099925Y-90812549D01*
X86157521Y-90699511D01*
X86157521Y-90699509D01*
X86157522Y-90699508D01*
X86170819Y-90615551D01*
X86172375Y-90605726D01*
X86172374Y-89897302D01*
X86192058Y-89830264D01*
X86208688Y-89809627D01*
X87166497Y-88851819D01*
X87227820Y-88818334D01*
X87254178Y-88815500D01*
X91296845Y-88815500D01*
X91363884Y-88835185D01*
X91409639Y-88887989D01*
X91416945Y-88913428D01*
X91417397Y-88913308D01*
X91419500Y-88921155D01*
X91419500Y-88921158D01*
X91456334Y-89058625D01*
X91492864Y-89121898D01*
X91493790Y-89123501D01*
X91510262Y-89191401D01*
X91487409Y-89257428D01*
X91432487Y-89300618D01*
X91386402Y-89309500D01*
X90978842Y-89309500D01*
X90841375Y-89346334D01*
X90841372Y-89346335D01*
X90718128Y-89417489D01*
X90718123Y-89417493D01*
X90075302Y-90060313D01*
X90013979Y-90093798D01*
X89971436Y-90095571D01*
X89849361Y-90079500D01*
X89270636Y-90079500D01*
X89153246Y-90094953D01*
X89153237Y-90094956D01*
X89007160Y-90155463D01*
X88881718Y-90251718D01*
X88785463Y-90377160D01*
X88724956Y-90523237D01*
X88724955Y-90523239D01*
X88709500Y-90640638D01*
X88709500Y-91119363D01*
X88724953Y-91236753D01*
X88724956Y-91236762D01*
X88785464Y-91382842D01*
X88873876Y-91498062D01*
X88899070Y-91563231D01*
X88899500Y-91573548D01*
X88899500Y-91729192D01*
X88879815Y-91796231D01*
X88863181Y-91816873D01*
X88216873Y-92463181D01*
X88155550Y-92496666D01*
X88129192Y-92499500D01*
X78178985Y-92499500D01*
X78021015Y-92499500D01*
X77961354Y-92514203D01*
X77955890Y-92515419D01*
X77910259Y-92524497D01*
X77910253Y-92524499D01*
X77905194Y-92526594D01*
X77887444Y-92532420D01*
X77867637Y-92537303D01*
X77867634Y-92537304D01*
X77828776Y-92557698D01*
X77818608Y-92562460D01*
X77791872Y-92573534D01*
X77772677Y-92586360D01*
X77761418Y-92593051D01*
X77727761Y-92610716D01*
X77727754Y-92610721D01*
X77708094Y-92628138D01*
X77694768Y-92638418D01*
X77685332Y-92644723D01*
X77685324Y-92644729D01*
X77656583Y-92673469D01*
X77651135Y-92678598D01*
X77609517Y-92715469D01*
X77604465Y-92722788D01*
X77598284Y-92730991D01*
X77594730Y-92735322D01*
X77562424Y-92783670D01*
X77561374Y-92785216D01*
X77519778Y-92845478D01*
X77495911Y-92908410D01*
X77494533Y-92911886D01*
X77474497Y-92960261D01*
X77473843Y-92962416D01*
X77468908Y-92979613D01*
X77463763Y-92993179D01*
X77463762Y-92993183D01*
X77457767Y-93042555D01*
X77456289Y-93051793D01*
X77449500Y-93085928D01*
X77449500Y-93103148D01*
X77448596Y-93118094D01*
X77444722Y-93149999D01*
X77448596Y-93181904D01*
X77449500Y-93196851D01*
X77449500Y-93214071D01*
X77456289Y-93248207D01*
X77457767Y-93257445D01*
X77463763Y-93306819D01*
X77468906Y-93320381D01*
X77473847Y-93337594D01*
X77474498Y-93339741D01*
X77474499Y-93339744D01*
X77491549Y-93380907D01*
X77494525Y-93388092D01*
X77495900Y-93391560D01*
X77517432Y-93448333D01*
X77519780Y-93454522D01*
X77519780Y-93454523D01*
X77561363Y-93514766D01*
X77562415Y-93516315D01*
X77594722Y-93564666D01*
X77598278Y-93568999D01*
X77604470Y-93577218D01*
X77609518Y-93584532D01*
X77651142Y-93621407D01*
X77656581Y-93626526D01*
X77685331Y-93655276D01*
X77694760Y-93661576D01*
X77708095Y-93671862D01*
X77718147Y-93680767D01*
X77727760Y-93689283D01*
X77761435Y-93706957D01*
X77772669Y-93713633D01*
X77791873Y-93726465D01*
X77818621Y-93737544D01*
X77828776Y-93742300D01*
X77867635Y-93762696D01*
X77881344Y-93766075D01*
X77887434Y-93767576D01*
X77905213Y-93773412D01*
X77910254Y-93775500D01*
X77910256Y-93775501D01*
X77955912Y-93784583D01*
X77961320Y-93785787D01*
X78021015Y-93800500D01*
X88514071Y-93800500D01*
X88598615Y-93783682D01*
X88639744Y-93775501D01*
X88758127Y-93726465D01*
X88864669Y-93655277D01*
X90055277Y-92464669D01*
X90126465Y-92358127D01*
X90175501Y-92239744D01*
X90195935Y-92137016D01*
X90200500Y-92114069D01*
X90200500Y-91597426D01*
X90220185Y-91530387D01*
X90236819Y-91509745D01*
X90238277Y-91508286D01*
X90238277Y-91508285D01*
X90238282Y-91508282D01*
X90272125Y-91464175D01*
X90328552Y-91422975D01*
X90398298Y-91418820D01*
X90459219Y-91453032D01*
X90491971Y-91514750D01*
X90494500Y-91539664D01*
X90494500Y-94514276D01*
X90474815Y-94581315D01*
X90458181Y-94601957D01*
X89766796Y-95293342D01*
X89705473Y-95326827D01*
X89635781Y-95321843D01*
X89579848Y-95279971D01*
X89563173Y-95249632D01*
X89554143Y-95225822D01*
X89550220Y-95215477D01*
X89460483Y-95085470D01*
X89342240Y-94980717D01*
X89342238Y-94980716D01*
X89342237Y-94980715D01*
X89202365Y-94907303D01*
X89048986Y-94869500D01*
X89048985Y-94869500D01*
X88891015Y-94869500D01*
X88891014Y-94869500D01*
X88737634Y-94907303D01*
X88597761Y-94980715D01*
X88597759Y-94980717D01*
X88577894Y-94998316D01*
X88514661Y-95028037D01*
X88495668Y-95029500D01*
X77544534Y-95029500D01*
X77477495Y-95009815D01*
X77456853Y-94993181D01*
X75806819Y-93343147D01*
X75773334Y-93281824D01*
X75770500Y-93255466D01*
X75770500Y-91145676D01*
X75770500Y-91145674D01*
X75737074Y-91020924D01*
X75672498Y-90909076D01*
X75581174Y-90817752D01*
X75131818Y-90368396D01*
X75098333Y-90307073D01*
X75095499Y-90280715D01*
X75095499Y-89533580D01*
X75095498Y-89533563D01*
X75085174Y-89432497D01*
X75079392Y-89415048D01*
X75030908Y-89268734D01*
X74940340Y-89121900D01*
X74818350Y-88999910D01*
X74818349Y-88999909D01*
X74742902Y-88953372D01*
X74696178Y-88901423D01*
X74684000Y-88847834D01*
X74684000Y-88230959D01*
X74703685Y-88163920D01*
X74743851Y-88124842D01*
X74863571Y-88052469D01*
X74863570Y-88052469D01*
X74863576Y-88052466D01*
X74980966Y-87935076D01*
X75066851Y-87793004D01*
X75116241Y-87634507D01*
X75122500Y-87565629D01*
X75122499Y-86888872D01*
X75122499Y-86888863D01*
X75116242Y-86819999D01*
X75116241Y-86819996D01*
X75116241Y-86819993D01*
X75080888Y-86706543D01*
X75066852Y-86661498D01*
X75066850Y-86661494D01*
X74980969Y-86519428D01*
X74980966Y-86519424D01*
X74863575Y-86402033D01*
X74863571Y-86402030D01*
X74749986Y-86333367D01*
X74702798Y-86281840D01*
X74690959Y-86212981D01*
X74718227Y-86148652D01*
X74749986Y-86121133D01*
X74863571Y-86052469D01*
X74863570Y-86052469D01*
X74863576Y-86052466D01*
X74980966Y-85935076D01*
X75066851Y-85793004D01*
X75116241Y-85634507D01*
X75122500Y-85565629D01*
X75122499Y-85463110D01*
X75142183Y-85396073D01*
X75158813Y-85375435D01*
X75826362Y-84707887D01*
X75852038Y-84688185D01*
X75917314Y-84650500D01*
X76010500Y-84557314D01*
X76076392Y-84443186D01*
X76110500Y-84315892D01*
X76110500Y-81011108D01*
X76076392Y-80883814D01*
X76073383Y-80878602D01*
X76056907Y-80810707D01*
X76062380Y-80779715D01*
X76090491Y-80689507D01*
X76096750Y-80620629D01*
X76096749Y-79699372D01*
X76096749Y-79699371D01*
X76096749Y-79699363D01*
X76090492Y-79630499D01*
X76090491Y-79630496D01*
X76090491Y-79630493D01*
X76041101Y-79471996D01*
X76023883Y-79443513D01*
X75955219Y-79329928D01*
X75955216Y-79329924D01*
X75837825Y-79212533D01*
X75837821Y-79212530D01*
X75695755Y-79126649D01*
X75695753Y-79126648D01*
X75589912Y-79093667D01*
X75531765Y-79054930D01*
X75503791Y-78990904D01*
X75514873Y-78921919D01*
X75561491Y-78869876D01*
X75602611Y-78853665D01*
X75607251Y-78852741D01*
X75607257Y-78852741D01*
X75765754Y-78803351D01*
X75907826Y-78717466D01*
X76025216Y-78600076D01*
X76111101Y-78458004D01*
X76145502Y-78347609D01*
X76184240Y-78289462D01*
X76248265Y-78261488D01*
X76263887Y-78260500D01*
X85175466Y-78260500D01*
X85242505Y-78280185D01*
G37*
%TD.AperFunction*%
%TA.AperFunction,Conductor*%
G36*
X99303391Y-85812056D02*
G01*
X99303524Y-85811562D01*
X99311373Y-85813665D01*
X99311375Y-85813666D01*
X99435415Y-85846902D01*
X99495076Y-85883267D01*
X99523097Y-85934583D01*
X99556334Y-86058625D01*
X99556335Y-86058627D01*
X99558438Y-86066474D01*
X99555403Y-86067287D01*
X99561284Y-86122028D01*
X99557946Y-86133394D01*
X99558438Y-86133526D01*
X99556335Y-86141372D01*
X99556334Y-86141375D01*
X99519500Y-86278842D01*
X99519500Y-86421158D01*
X99556334Y-86558625D01*
X99556335Y-86558627D01*
X99558438Y-86566474D01*
X99555403Y-86567287D01*
X99561284Y-86622028D01*
X99557946Y-86633394D01*
X99558438Y-86633526D01*
X99556335Y-86641372D01*
X99556334Y-86641375D01*
X99519500Y-86778842D01*
X99519500Y-86921158D01*
X99556334Y-87058625D01*
X99556335Y-87058627D01*
X99558438Y-87066474D01*
X99555403Y-87067287D01*
X99561284Y-87122028D01*
X99557946Y-87133394D01*
X99558438Y-87133526D01*
X99556335Y-87141372D01*
X99556334Y-87141375D01*
X99519500Y-87278842D01*
X99519500Y-87421158D01*
X99556334Y-87558625D01*
X99556335Y-87558627D01*
X99558438Y-87566474D01*
X99555403Y-87567287D01*
X99561284Y-87622028D01*
X99557946Y-87633394D01*
X99558438Y-87633526D01*
X99556335Y-87641372D01*
X99556334Y-87641375D01*
X99519500Y-87778842D01*
X99519500Y-87921158D01*
X99556334Y-88058625D01*
X99556335Y-88058627D01*
X99558438Y-88066474D01*
X99555403Y-88067287D01*
X99561284Y-88122028D01*
X99557946Y-88133394D01*
X99558438Y-88133526D01*
X99556335Y-88141372D01*
X99556334Y-88141375D01*
X99519500Y-88278842D01*
X99519500Y-88421158D01*
X99556334Y-88558625D01*
X99556335Y-88558627D01*
X99558438Y-88566474D01*
X99555403Y-88567287D01*
X99561284Y-88622028D01*
X99557946Y-88633394D01*
X99558438Y-88633526D01*
X99556335Y-88641372D01*
X99556334Y-88641375D01*
X99519500Y-88778842D01*
X99519500Y-88921158D01*
X99556334Y-89058625D01*
X99556335Y-89058627D01*
X99558438Y-89066474D01*
X99555403Y-89067287D01*
X99561284Y-89122028D01*
X99557946Y-89133394D01*
X99558438Y-89133526D01*
X99556335Y-89141372D01*
X99556334Y-89141375D01*
X99519500Y-89278842D01*
X99519500Y-89421158D01*
X99556334Y-89558625D01*
X99556335Y-89558627D01*
X99558438Y-89566474D01*
X99555403Y-89567287D01*
X99561284Y-89622028D01*
X99557946Y-89633394D01*
X99558438Y-89633526D01*
X99556335Y-89641372D01*
X99556334Y-89641375D01*
X99519500Y-89778842D01*
X99519500Y-89921158D01*
X99556334Y-90058625D01*
X99556335Y-90058627D01*
X99558438Y-90066474D01*
X99555403Y-90067287D01*
X99561284Y-90122028D01*
X99557946Y-90133394D01*
X99558438Y-90133526D01*
X99556335Y-90141372D01*
X99556334Y-90141375D01*
X99519500Y-90278842D01*
X99519500Y-90421158D01*
X99556334Y-90558625D01*
X99556335Y-90558627D01*
X99558438Y-90566474D01*
X99555403Y-90567287D01*
X99561284Y-90622028D01*
X99557946Y-90633394D01*
X99558438Y-90633526D01*
X99556335Y-90641372D01*
X99556334Y-90641375D01*
X99519500Y-90778842D01*
X99519500Y-90921158D01*
X99556334Y-91058625D01*
X99556335Y-91058627D01*
X99558438Y-91066474D01*
X99555403Y-91067287D01*
X99561284Y-91122028D01*
X99557945Y-91133395D01*
X99558438Y-91133527D01*
X99556335Y-91141371D01*
X99556334Y-91141375D01*
X99534539Y-91222717D01*
X99523097Y-91265417D01*
X99486731Y-91325077D01*
X99435416Y-91353097D01*
X99311373Y-91386334D01*
X99311372Y-91386335D01*
X99188128Y-91457489D01*
X99188123Y-91457493D01*
X99107681Y-91537936D01*
X99046358Y-91571421D01*
X98976666Y-91566437D01*
X98932319Y-91537936D01*
X98851876Y-91457493D01*
X98851871Y-91457489D01*
X98728627Y-91386335D01*
X98728626Y-91386334D01*
X98728625Y-91386334D01*
X98591158Y-91349500D01*
X98448842Y-91349500D01*
X98311375Y-91386334D01*
X98311372Y-91386335D01*
X98303526Y-91388438D01*
X98302712Y-91385403D01*
X98247972Y-91391284D01*
X98236605Y-91387946D01*
X98236474Y-91388438D01*
X98228627Y-91386335D01*
X98228625Y-91386334D01*
X98091158Y-91349500D01*
X97948842Y-91349500D01*
X97811375Y-91386334D01*
X97811372Y-91386335D01*
X97803526Y-91388438D01*
X97802712Y-91385403D01*
X97747972Y-91391284D01*
X97736605Y-91387946D01*
X97736474Y-91388438D01*
X97728627Y-91386335D01*
X97728625Y-91386334D01*
X97591158Y-91349500D01*
X97448842Y-91349500D01*
X97448837Y-91349500D01*
X97419206Y-91357440D01*
X97349356Y-91355776D01*
X97291495Y-91316613D01*
X97263992Y-91252384D01*
X97264018Y-91222727D01*
X97275278Y-91130000D01*
X97256237Y-90973182D01*
X97255879Y-90972239D01*
X97229337Y-90902252D01*
X97200220Y-90825477D01*
X97110483Y-90695470D01*
X96992240Y-90590717D01*
X96992238Y-90590716D01*
X96992237Y-90590715D01*
X96852366Y-90517304D01*
X96740544Y-90489743D01*
X96680164Y-90454587D01*
X96648375Y-90392368D01*
X96655271Y-90322839D01*
X96668165Y-90298911D01*
X96740220Y-90194523D01*
X96796237Y-90046818D01*
X96815278Y-89890000D01*
X96814938Y-89887195D01*
X96796237Y-89733181D01*
X96759875Y-89637304D01*
X96740220Y-89585477D01*
X96650483Y-89455470D01*
X96532240Y-89350717D01*
X96532239Y-89350716D01*
X96527273Y-89346317D01*
X96490146Y-89287127D01*
X96485500Y-89253501D01*
X96485500Y-85973154D01*
X96505185Y-85906115D01*
X96557989Y-85860360D01*
X96583429Y-85853055D01*
X96583308Y-85852603D01*
X96591157Y-85850500D01*
X96591158Y-85850500D01*
X96728625Y-85813666D01*
X96728626Y-85813665D01*
X96736476Y-85811562D01*
X96737290Y-85814600D01*
X96791998Y-85808711D01*
X96803391Y-85812056D01*
X96803524Y-85811562D01*
X96811373Y-85813665D01*
X96811375Y-85813666D01*
X96948842Y-85850500D01*
X96948844Y-85850500D01*
X97091156Y-85850500D01*
X97091158Y-85850500D01*
X97228625Y-85813666D01*
X97228626Y-85813665D01*
X97236476Y-85811562D01*
X97237290Y-85814600D01*
X97291998Y-85808711D01*
X97303391Y-85812056D01*
X97303524Y-85811562D01*
X97311373Y-85813665D01*
X97311375Y-85813666D01*
X97448842Y-85850500D01*
X97448844Y-85850500D01*
X97591156Y-85850500D01*
X97591158Y-85850500D01*
X97728625Y-85813666D01*
X97728626Y-85813665D01*
X97736476Y-85811562D01*
X97737290Y-85814600D01*
X97791998Y-85808711D01*
X97803391Y-85812056D01*
X97803524Y-85811562D01*
X97811373Y-85813665D01*
X97811375Y-85813666D01*
X97948842Y-85850500D01*
X97948844Y-85850500D01*
X98091156Y-85850500D01*
X98091158Y-85850500D01*
X98228625Y-85813666D01*
X98228626Y-85813665D01*
X98236476Y-85811562D01*
X98237290Y-85814600D01*
X98291998Y-85808711D01*
X98303391Y-85812056D01*
X98303524Y-85811562D01*
X98311373Y-85813665D01*
X98311375Y-85813666D01*
X98448842Y-85850500D01*
X98448844Y-85850500D01*
X98591156Y-85850500D01*
X98591158Y-85850500D01*
X98728625Y-85813666D01*
X98728626Y-85813665D01*
X98736476Y-85811562D01*
X98737290Y-85814600D01*
X98791998Y-85808711D01*
X98803391Y-85812056D01*
X98803524Y-85811562D01*
X98811373Y-85813665D01*
X98811375Y-85813666D01*
X98948842Y-85850500D01*
X98948844Y-85850500D01*
X99091156Y-85850500D01*
X99091158Y-85850500D01*
X99228625Y-85813666D01*
X99228626Y-85813665D01*
X99236476Y-85811562D01*
X99237290Y-85814600D01*
X99291998Y-85808711D01*
X99303391Y-85812056D01*
G37*
%TD.AperFunction*%
%TA.AperFunction,Conductor*%
G36*
X94563334Y-85633563D02*
G01*
X94607681Y-85662064D01*
X94688125Y-85742508D01*
X94811375Y-85813666D01*
X94948842Y-85850500D01*
X94948844Y-85850500D01*
X95091156Y-85850500D01*
X95091158Y-85850500D01*
X95228625Y-85813666D01*
X95228626Y-85813665D01*
X95236476Y-85811562D01*
X95237290Y-85814600D01*
X95291998Y-85808711D01*
X95303391Y-85812056D01*
X95303524Y-85811562D01*
X95311373Y-85813665D01*
X95311375Y-85813666D01*
X95448842Y-85850500D01*
X95448843Y-85850500D01*
X95456692Y-85852603D01*
X95456202Y-85854428D01*
X95510568Y-85878470D01*
X95549048Y-85936788D01*
X95554500Y-85973154D01*
X95554500Y-89146821D01*
X95534815Y-89213860D01*
X95482011Y-89259615D01*
X95412853Y-89269559D01*
X95349297Y-89240534D01*
X95342819Y-89234502D01*
X94585826Y-88477509D01*
X94585824Y-88477507D01*
X94488225Y-88421158D01*
X94479679Y-88416224D01*
X94479678Y-88416223D01*
X94479677Y-88416223D01*
X94361284Y-88384500D01*
X94361283Y-88384500D01*
X94143155Y-88384500D01*
X94076116Y-88364815D01*
X94030361Y-88312011D01*
X94023054Y-88286571D01*
X94022603Y-88286692D01*
X94007989Y-88232152D01*
X93983666Y-88141375D01*
X93983665Y-88141373D01*
X93981562Y-88133524D01*
X93984600Y-88132709D01*
X93978711Y-88078002D01*
X93982056Y-88066608D01*
X93981562Y-88066476D01*
X93990957Y-88031413D01*
X94020500Y-87921158D01*
X94020500Y-87778842D01*
X93983666Y-87641375D01*
X93983665Y-87641373D01*
X93981562Y-87633524D01*
X93984600Y-87632709D01*
X93978711Y-87578002D01*
X93982056Y-87566608D01*
X93981562Y-87566476D01*
X93985026Y-87553548D01*
X94020500Y-87421158D01*
X94020500Y-87278842D01*
X93983666Y-87141375D01*
X93983665Y-87141373D01*
X93981562Y-87133524D01*
X93984600Y-87132709D01*
X93978711Y-87078002D01*
X93982056Y-87066608D01*
X93981562Y-87066476D01*
X93988848Y-87039284D01*
X94020500Y-86921158D01*
X94020500Y-86778842D01*
X93983666Y-86641375D01*
X93983665Y-86641373D01*
X93981562Y-86633524D01*
X93984600Y-86632709D01*
X93978711Y-86578002D01*
X93982056Y-86566608D01*
X93981562Y-86566476D01*
X93983666Y-86558625D01*
X94020500Y-86421158D01*
X94020500Y-86278842D01*
X93983666Y-86141375D01*
X93983665Y-86141373D01*
X93981562Y-86133524D01*
X93984600Y-86132709D01*
X93978711Y-86078002D01*
X93982056Y-86066608D01*
X93981562Y-86066476D01*
X93986169Y-86049283D01*
X94016902Y-85934582D01*
X94053267Y-85874923D01*
X94104582Y-85846903D01*
X94228625Y-85813666D01*
X94351875Y-85742508D01*
X94432319Y-85662064D01*
X94493642Y-85628579D01*
X94563334Y-85633563D01*
G37*
%TD.AperFunction*%
%TA.AperFunction,Conductor*%
G36*
X92855140Y-77375185D02*
G01*
X92875782Y-77391819D01*
X94518181Y-79034218D01*
X94551666Y-79095541D01*
X94554500Y-79121899D01*
X94554500Y-83216613D01*
X94534815Y-83283652D01*
X94482011Y-83329407D01*
X94412853Y-83339351D01*
X94349297Y-83310326D01*
X94342819Y-83304294D01*
X94196599Y-83158074D01*
X94163114Y-83096751D01*
X94164259Y-83039234D01*
X94177900Y-82986700D01*
X94190712Y-82871995D01*
X94190711Y-82871981D01*
X94190865Y-82868135D01*
X94198826Y-82829093D01*
X94200541Y-82824572D01*
X94226237Y-82756818D01*
X94245278Y-82600000D01*
X94234291Y-82509517D01*
X94226237Y-82443182D01*
X94180054Y-82321408D01*
X94172059Y-82281355D01*
X94171548Y-82265181D01*
X94138825Y-81228913D01*
X94131426Y-81163566D01*
X94131424Y-81163558D01*
X94131423Y-81163547D01*
X94123703Y-81124242D01*
X94123702Y-81124235D01*
X94115587Y-81093832D01*
X94109717Y-81071839D01*
X94050589Y-80959591D01*
X94008757Y-80903629D01*
X93984473Y-80878606D01*
X93936375Y-80829044D01*
X93936372Y-80829042D01*
X93825946Y-80766579D01*
X93795857Y-80755332D01*
X93760497Y-80742114D01*
X93647737Y-80717501D01*
X93647733Y-80717500D01*
X92949768Y-80667092D01*
X92884320Y-80642629D01*
X92883213Y-80641789D01*
X92882763Y-80641444D01*
X92855637Y-80620629D01*
X92822842Y-80595464D01*
X92676762Y-80534956D01*
X92676760Y-80534955D01*
X92559361Y-80519500D01*
X92080636Y-80519500D01*
X91963246Y-80534953D01*
X91963237Y-80534956D01*
X91817160Y-80595463D01*
X91691718Y-80691718D01*
X91595463Y-80817160D01*
X91534956Y-80963237D01*
X91534955Y-80963239D01*
X91519501Y-81080629D01*
X91519500Y-81080645D01*
X91519500Y-81610114D01*
X91519496Y-81611126D01*
X91511665Y-82570500D01*
X91510905Y-82663546D01*
X91514485Y-82716807D01*
X91514997Y-82724417D01*
X91514999Y-82724436D01*
X91520273Y-82761216D01*
X91520281Y-82761260D01*
X91530266Y-82809664D01*
X91567578Y-82892880D01*
X91577044Y-82962105D01*
X91568993Y-82991063D01*
X91534956Y-83073238D01*
X91534955Y-83073239D01*
X91519500Y-83190638D01*
X91519500Y-83769363D01*
X91534953Y-83886753D01*
X91534956Y-83886762D01*
X91577511Y-83989500D01*
X91595464Y-84032841D01*
X91691718Y-84158282D01*
X91720987Y-84180740D01*
X91762189Y-84237165D01*
X91769500Y-84279115D01*
X91769500Y-85264277D01*
X91749815Y-85331316D01*
X91707500Y-85371664D01*
X91628128Y-85417489D01*
X91563801Y-85481816D01*
X91502477Y-85515300D01*
X91432786Y-85510315D01*
X91376852Y-85468444D01*
X91353024Y-85409080D01*
X91351445Y-85396073D01*
X91346237Y-85353182D01*
X91290220Y-85205477D01*
X91200483Y-85075470D01*
X91082240Y-84970717D01*
X91082238Y-84970716D01*
X91082237Y-84970715D01*
X90942365Y-84897303D01*
X90788986Y-84859500D01*
X90788985Y-84859500D01*
X90784534Y-84859500D01*
X90717495Y-84839815D01*
X90696853Y-84823181D01*
X90236819Y-84363147D01*
X90203334Y-84301824D01*
X90200500Y-84275466D01*
X90200500Y-81985426D01*
X90200500Y-81985424D01*
X90167074Y-81860674D01*
X90102498Y-81748826D01*
X90011174Y-81657502D01*
X85920853Y-77567181D01*
X85887368Y-77505858D01*
X85892352Y-77436166D01*
X85934224Y-77380233D01*
X85999688Y-77355816D01*
X86008534Y-77355500D01*
X92788101Y-77355500D01*
X92855140Y-77375185D01*
G37*
%TD.AperFunction*%
%TA.AperFunction,Conductor*%
G36*
X128182539Y-73719685D02*
G01*
X128228294Y-73772489D01*
X128239500Y-73824000D01*
X128239500Y-75660448D01*
X128219815Y-75727487D01*
X128203181Y-75748129D01*
X128189661Y-75761648D01*
X128099093Y-75908481D01*
X128099091Y-75908486D01*
X128091855Y-75930323D01*
X128044826Y-76072247D01*
X128044826Y-76072248D01*
X128044825Y-76072248D01*
X128034500Y-76173315D01*
X128034500Y-76946669D01*
X128034501Y-76946687D01*
X128044825Y-77047752D01*
X128044826Y-77047755D01*
X128076500Y-77143338D01*
X128078902Y-77213166D01*
X128046475Y-77270023D01*
X127333319Y-77983181D01*
X127271996Y-78016666D01*
X127245638Y-78019500D01*
X114089806Y-78019500D01*
X113915841Y-78054103D01*
X113915832Y-78054106D01*
X113751959Y-78121983D01*
X113751946Y-78121990D01*
X113604466Y-78220534D01*
X113604464Y-78220537D01*
X111316819Y-80508181D01*
X111255496Y-80541666D01*
X111229138Y-80544500D01*
X109461000Y-80544500D01*
X109393961Y-80524815D01*
X109348206Y-80472011D01*
X109337904Y-80435447D01*
X109322277Y-80306750D01*
X109321237Y-80298182D01*
X109265220Y-80150477D01*
X109248217Y-80125843D01*
X109235151Y-80106914D01*
X109213269Y-80040560D01*
X109230735Y-79972908D01*
X109249517Y-79948798D01*
X111691497Y-77506819D01*
X111752820Y-77473334D01*
X111779178Y-77470500D01*
X121176282Y-77470500D01*
X121176284Y-77470500D01*
X121294677Y-77438777D01*
X121400824Y-77377493D01*
X125041998Y-73736319D01*
X125103321Y-73702834D01*
X125129679Y-73700000D01*
X128115500Y-73700000D01*
X128182539Y-73719685D01*
G37*
%TD.AperFunction*%
%TA.AperFunction,Conductor*%
G36*
X129062702Y-68980617D02*
G01*
X129472917Y-68998528D01*
X129483654Y-68999468D01*
X129888057Y-69052708D01*
X129898695Y-69054583D01*
X130296925Y-69142869D01*
X130307365Y-69145667D01*
X130696363Y-69268317D01*
X130706524Y-69272015D01*
X131083363Y-69428108D01*
X131093155Y-69432674D01*
X131454965Y-69621020D01*
X131464305Y-69626413D01*
X131749636Y-69808189D01*
X131808309Y-69845568D01*
X131817170Y-69851772D01*
X132140766Y-70100076D01*
X132149053Y-70107030D01*
X132449767Y-70382583D01*
X132457416Y-70390232D01*
X132732969Y-70690946D01*
X132739923Y-70699233D01*
X132988227Y-71022829D01*
X132994431Y-71031690D01*
X133104004Y-71203685D01*
X133206581Y-71364698D01*
X133213578Y-71375680D01*
X133218983Y-71385042D01*
X133257214Y-71458482D01*
X133407322Y-71746838D01*
X133411894Y-71756642D01*
X133567983Y-72133473D01*
X133571683Y-72143639D01*
X133694331Y-72532630D01*
X133697131Y-72543078D01*
X133785414Y-72941296D01*
X133787292Y-72951950D01*
X133840529Y-73356326D01*
X133841472Y-73367102D01*
X133859382Y-73777297D01*
X133859500Y-73782706D01*
X133859500Y-98777293D01*
X133859382Y-98782702D01*
X133841472Y-99192897D01*
X133840529Y-99203673D01*
X133787292Y-99608049D01*
X133785414Y-99618703D01*
X133697131Y-100016921D01*
X133694331Y-100027369D01*
X133571683Y-100416360D01*
X133567983Y-100426526D01*
X133411894Y-100803357D01*
X133407322Y-100813161D01*
X133218987Y-101174951D01*
X133213578Y-101184319D01*
X132994431Y-101528309D01*
X132988227Y-101537170D01*
X132739923Y-101860766D01*
X132732969Y-101869053D01*
X132457416Y-102169767D01*
X132449767Y-102177416D01*
X132149053Y-102452969D01*
X132140766Y-102459923D01*
X131817170Y-102708227D01*
X131808309Y-102714431D01*
X131464319Y-102933578D01*
X131454951Y-102938987D01*
X131093161Y-103127322D01*
X131083357Y-103131894D01*
X130706526Y-103287983D01*
X130696360Y-103291683D01*
X130307369Y-103414331D01*
X130296921Y-103417131D01*
X129898703Y-103505414D01*
X129888049Y-103507292D01*
X129483673Y-103560529D01*
X129472897Y-103561472D01*
X129062703Y-103579382D01*
X129057294Y-103579500D01*
X69062706Y-103579500D01*
X69057297Y-103579382D01*
X68647102Y-103561472D01*
X68636326Y-103560529D01*
X68231950Y-103507292D01*
X68221296Y-103505414D01*
X67823078Y-103417131D01*
X67812630Y-103414331D01*
X67423639Y-103291683D01*
X67413473Y-103287983D01*
X67036642Y-103131894D01*
X67026838Y-103127322D01*
X66907126Y-103065004D01*
X66665042Y-102938983D01*
X66655686Y-102933582D01*
X66483685Y-102824004D01*
X66311690Y-102714431D01*
X66302829Y-102708227D01*
X65979233Y-102459923D01*
X65970946Y-102452969D01*
X65670232Y-102177416D01*
X65662583Y-102169767D01*
X65387030Y-101869053D01*
X65380076Y-101860766D01*
X65131772Y-101537170D01*
X65125568Y-101528309D01*
X65082411Y-101460567D01*
X64906413Y-101184305D01*
X64901020Y-101174965D01*
X64712674Y-100813155D01*
X64708105Y-100803357D01*
X64696979Y-100776497D01*
X64552015Y-100426524D01*
X64548316Y-100416360D01*
X64449611Y-100103308D01*
X64425667Y-100027365D01*
X64422868Y-100016921D01*
X64334583Y-99618695D01*
X64332707Y-99608049D01*
X64325615Y-99554178D01*
X64279468Y-99203654D01*
X64278528Y-99192917D01*
X64277527Y-99170000D01*
X68260000Y-99170000D01*
X68260000Y-101600000D01*
X69548632Y-101600000D01*
X69580725Y-101604225D01*
X69623308Y-101615635D01*
X69785230Y-101629801D01*
X69849998Y-101635468D01*
X69850000Y-101635468D01*
X69850002Y-101635468D01*
X69906673Y-101630509D01*
X70076692Y-101615635D01*
X70119275Y-101604225D01*
X70151368Y-101600000D01*
X72088632Y-101600000D01*
X72120725Y-101604225D01*
X72163308Y-101615635D01*
X72325230Y-101629801D01*
X72389998Y-101635468D01*
X72390000Y-101635468D01*
X72390002Y-101635468D01*
X72446673Y-101630509D01*
X72616692Y-101615635D01*
X72659275Y-101604225D01*
X72691368Y-101600000D01*
X74628632Y-101600000D01*
X74660725Y-101604225D01*
X74703308Y-101615635D01*
X74865230Y-101629801D01*
X74929998Y-101635468D01*
X74930000Y-101635468D01*
X74930002Y-101635468D01*
X74986673Y-101630509D01*
X75156692Y-101615635D01*
X75199275Y-101604225D01*
X75231368Y-101600000D01*
X77168632Y-101600000D01*
X77200725Y-101604225D01*
X77243308Y-101615635D01*
X77405230Y-101629801D01*
X77469998Y-101635468D01*
X77470000Y-101635468D01*
X77470002Y-101635468D01*
X77526673Y-101630509D01*
X77696692Y-101615635D01*
X77739275Y-101604225D01*
X77771368Y-101600000D01*
X79708632Y-101600000D01*
X79740725Y-101604225D01*
X79783308Y-101615635D01*
X79945230Y-101629801D01*
X80009998Y-101635468D01*
X80010000Y-101635468D01*
X80010002Y-101635468D01*
X80066673Y-101630509D01*
X80236692Y-101615635D01*
X80279275Y-101604225D01*
X80311368Y-101600000D01*
X82248632Y-101600000D01*
X82280725Y-101604225D01*
X82323308Y-101615635D01*
X82485230Y-101629801D01*
X82549998Y-101635468D01*
X82550000Y-101635468D01*
X82550002Y-101635468D01*
X82606673Y-101630509D01*
X82776692Y-101615635D01*
X82819275Y-101604225D01*
X82851368Y-101600000D01*
X84788632Y-101600000D01*
X84820725Y-101604225D01*
X84863308Y-101615635D01*
X85025230Y-101629801D01*
X85089998Y-101635468D01*
X85090000Y-101635468D01*
X85090002Y-101635468D01*
X85146673Y-101630509D01*
X85316692Y-101615635D01*
X85359275Y-101604225D01*
X85391368Y-101600000D01*
X87328632Y-101600000D01*
X87360725Y-101604225D01*
X87403308Y-101615635D01*
X87565230Y-101629801D01*
X87629998Y-101635468D01*
X87630000Y-101635468D01*
X87630002Y-101635468D01*
X87686673Y-101630509D01*
X87856692Y-101615635D01*
X87899275Y-101604225D01*
X87931368Y-101600000D01*
X89868632Y-101600000D01*
X89900725Y-101604225D01*
X89943308Y-101615635D01*
X90105230Y-101629801D01*
X90169998Y-101635468D01*
X90170000Y-101635468D01*
X90170002Y-101635468D01*
X90226673Y-101630509D01*
X90396692Y-101615635D01*
X90439275Y-101604225D01*
X90471368Y-101600000D01*
X92408632Y-101600000D01*
X92440725Y-101604225D01*
X92483308Y-101615635D01*
X92645230Y-101629801D01*
X92709998Y-101635468D01*
X92710000Y-101635468D01*
X92710002Y-101635468D01*
X92766673Y-101630509D01*
X92936692Y-101615635D01*
X92979275Y-101604225D01*
X93011368Y-101600000D01*
X94948632Y-101600000D01*
X94980725Y-101604225D01*
X95023308Y-101615635D01*
X95185230Y-101629801D01*
X95249998Y-101635468D01*
X95250000Y-101635468D01*
X95250002Y-101635468D01*
X95306673Y-101630509D01*
X95476692Y-101615635D01*
X95519275Y-101604225D01*
X95551368Y-101600000D01*
X97488632Y-101600000D01*
X97520725Y-101604225D01*
X97563308Y-101615635D01*
X97725230Y-101629801D01*
X97789998Y-101635468D01*
X97790000Y-101635468D01*
X97790002Y-101635468D01*
X97846673Y-101630509D01*
X98016692Y-101615635D01*
X98059275Y-101604225D01*
X98091368Y-101600000D01*
X100028632Y-101600000D01*
X100060725Y-101604225D01*
X100103308Y-101615635D01*
X100265230Y-101629801D01*
X100329998Y-101635468D01*
X100330000Y-101635468D01*
X100330002Y-101635468D01*
X100386673Y-101630509D01*
X100556692Y-101615635D01*
X100599275Y-101604225D01*
X100631368Y-101600000D01*
X102568632Y-101600000D01*
X102600725Y-101604225D01*
X102643308Y-101615635D01*
X102805230Y-101629801D01*
X102869998Y-101635468D01*
X102870000Y-101635468D01*
X102870002Y-101635468D01*
X102926673Y-101630509D01*
X103096692Y-101615635D01*
X103139275Y-101604225D01*
X103171368Y-101600000D01*
X105108632Y-101600000D01*
X105140725Y-101604225D01*
X105183308Y-101615635D01*
X105345230Y-101629801D01*
X105409998Y-101635468D01*
X105410000Y-101635468D01*
X105410002Y-101635468D01*
X105466673Y-101630509D01*
X105636692Y-101615635D01*
X105679275Y-101604225D01*
X105711368Y-101600000D01*
X107648632Y-101600000D01*
X107680725Y-101604225D01*
X107723308Y-101615635D01*
X107885230Y-101629801D01*
X107949998Y-101635468D01*
X107950000Y-101635468D01*
X107950002Y-101635468D01*
X108006673Y-101630509D01*
X108176692Y-101615635D01*
X108219275Y-101604225D01*
X108251368Y-101600000D01*
X110188632Y-101600000D01*
X110220725Y-101604225D01*
X110263308Y-101615635D01*
X110425230Y-101629801D01*
X110489998Y-101635468D01*
X110490000Y-101635468D01*
X110490002Y-101635468D01*
X110546673Y-101630509D01*
X110716692Y-101615635D01*
X110759275Y-101604225D01*
X110791368Y-101600000D01*
X112728632Y-101600000D01*
X112760725Y-101604225D01*
X112803308Y-101615635D01*
X112965230Y-101629801D01*
X113029998Y-101635468D01*
X113030000Y-101635468D01*
X113030002Y-101635468D01*
X113086673Y-101630509D01*
X113256692Y-101615635D01*
X113476496Y-101556739D01*
X113682734Y-101460568D01*
X113869139Y-101330047D01*
X114030047Y-101169139D01*
X114160568Y-100982734D01*
X114256739Y-100776496D01*
X114315635Y-100556692D01*
X114335468Y-100330000D01*
X114315635Y-100103308D01*
X114270916Y-99936415D01*
X114256741Y-99883511D01*
X114256738Y-99883502D01*
X114240246Y-99848135D01*
X114160568Y-99677266D01*
X114052637Y-99523123D01*
X114030045Y-99490858D01*
X113869141Y-99329954D01*
X113682734Y-99199432D01*
X113682732Y-99199431D01*
X113476497Y-99103261D01*
X113476488Y-99103258D01*
X113256697Y-99044366D01*
X113256693Y-99044365D01*
X113256692Y-99044365D01*
X113256691Y-99044364D01*
X113256686Y-99044364D01*
X113030002Y-99024532D01*
X113029998Y-99024532D01*
X112803313Y-99044364D01*
X112803302Y-99044366D01*
X112583511Y-99103258D01*
X112583502Y-99103261D01*
X112465298Y-99158382D01*
X112412893Y-99170000D01*
X111107107Y-99170000D01*
X111054702Y-99158382D01*
X110936497Y-99103261D01*
X110936488Y-99103258D01*
X110716697Y-99044366D01*
X110716693Y-99044365D01*
X110716692Y-99044365D01*
X110716691Y-99044364D01*
X110716686Y-99044364D01*
X110490002Y-99024532D01*
X110489998Y-99024532D01*
X110263313Y-99044364D01*
X110263302Y-99044366D01*
X110043511Y-99103258D01*
X110043502Y-99103261D01*
X109925298Y-99158382D01*
X109872893Y-99170000D01*
X108567107Y-99170000D01*
X108514702Y-99158382D01*
X108396497Y-99103261D01*
X108396488Y-99103258D01*
X108176697Y-99044366D01*
X108176693Y-99044365D01*
X108176692Y-99044365D01*
X108176691Y-99044364D01*
X108176686Y-99044364D01*
X107950002Y-99024532D01*
X107949998Y-99024532D01*
X107723313Y-99044364D01*
X107723302Y-99044366D01*
X107503506Y-99103260D01*
X107499039Y-99105343D01*
X107429961Y-99115833D01*
X107366178Y-99087311D01*
X107358956Y-99080640D01*
X105245498Y-96967181D01*
X105212013Y-96905858D01*
X105216997Y-96836166D01*
X105258869Y-96780233D01*
X105324333Y-96755816D01*
X105333179Y-96755500D01*
X113535821Y-96755500D01*
X113602860Y-96775185D01*
X113623502Y-96791819D01*
X116268181Y-99436498D01*
X116301666Y-99497821D01*
X116304500Y-99524179D01*
X116304500Y-101368716D01*
X116304500Y-101491284D01*
X116336223Y-101609677D01*
X116397507Y-101715824D01*
X116854176Y-102172493D01*
X116960323Y-102233777D01*
X117078716Y-102265500D01*
X117078718Y-102265500D01*
X119071282Y-102265500D01*
X119071284Y-102265500D01*
X119189677Y-102233777D01*
X119295824Y-102172493D01*
X119792493Y-101675824D01*
X119853777Y-101569676D01*
X119885501Y-101451284D01*
X119885501Y-101328715D01*
X119885501Y-101321120D01*
X119885500Y-101321102D01*
X119885500Y-99554178D01*
X119905185Y-99487139D01*
X119921819Y-99466497D01*
X120766497Y-98621819D01*
X121615941Y-97772374D01*
X121677262Y-97738891D01*
X121714838Y-97736566D01*
X121741621Y-97739000D01*
X122418378Y-97738999D01*
X122418385Y-97738999D01*
X122487250Y-97732742D01*
X122487251Y-97732741D01*
X122487257Y-97732741D01*
X122639063Y-97685436D01*
X122645751Y-97683352D01*
X122645751Y-97683351D01*
X122645754Y-97683351D01*
X122787826Y-97597466D01*
X122905216Y-97480076D01*
X122973883Y-97366485D01*
X123025410Y-97319298D01*
X123094269Y-97307459D01*
X123158598Y-97334727D01*
X123186117Y-97366486D01*
X123254780Y-97480071D01*
X123254783Y-97480075D01*
X123372174Y-97597466D01*
X123372178Y-97597469D01*
X123454357Y-97647147D01*
X123514246Y-97683351D01*
X123514255Y-97683353D01*
X123516383Y-97684312D01*
X123517695Y-97685436D01*
X123520664Y-97687231D01*
X123520365Y-97687724D01*
X123569441Y-97729772D01*
X123589498Y-97796701D01*
X123589500Y-97797391D01*
X123589500Y-98896000D01*
X123569815Y-98963039D01*
X123517011Y-99008794D01*
X123465500Y-99020000D01*
X122420000Y-99020000D01*
X122420000Y-99280162D01*
X122400315Y-99347201D01*
X122383681Y-99367843D01*
X122228402Y-99523121D01*
X122102900Y-99702357D01*
X122102898Y-99702361D01*
X122010426Y-99900668D01*
X122010422Y-99900677D01*
X121953793Y-100112020D01*
X121953793Y-100112024D01*
X121934723Y-100329997D01*
X121934723Y-100330002D01*
X121953793Y-100547975D01*
X121953793Y-100547979D01*
X122010422Y-100759322D01*
X122010424Y-100759326D01*
X122010425Y-100759330D01*
X122030955Y-100803357D01*
X122102897Y-100957638D01*
X122102898Y-100957639D01*
X122228402Y-101136877D01*
X122228406Y-101136881D01*
X122383681Y-101292156D01*
X122417166Y-101353479D01*
X122420000Y-101379837D01*
X122420000Y-101640000D01*
X127170000Y-101640000D01*
X127170000Y-99020000D01*
X124694500Y-99020000D01*
X124627461Y-99000315D01*
X124581706Y-98947511D01*
X124570500Y-98896000D01*
X124570500Y-97797391D01*
X124590185Y-97730352D01*
X124639546Y-97687579D01*
X124639336Y-97687231D01*
X124641364Y-97686004D01*
X124642989Y-97684597D01*
X124643617Y-97684312D01*
X124645741Y-97683354D01*
X124645754Y-97683351D01*
X124787826Y-97597466D01*
X124905216Y-97480076D01*
X124991101Y-97338004D01*
X125040491Y-97179507D01*
X125046750Y-97110629D01*
X125046749Y-96189372D01*
X125046749Y-96189371D01*
X125046749Y-96189363D01*
X125040492Y-96120499D01*
X125040491Y-96120496D01*
X125040491Y-96120493D01*
X124998418Y-95985476D01*
X124991102Y-95961998D01*
X124991100Y-95961994D01*
X124905219Y-95819928D01*
X124905216Y-95819924D01*
X124787825Y-95702533D01*
X124787821Y-95702530D01*
X124645755Y-95616649D01*
X124645751Y-95616647D01*
X124487257Y-95567259D01*
X124487259Y-95567259D01*
X124464297Y-95565172D01*
X124418379Y-95561000D01*
X124418375Y-95561000D01*
X123741613Y-95561000D01*
X123672749Y-95567257D01*
X123672742Y-95567259D01*
X123514248Y-95616647D01*
X123514244Y-95616649D01*
X123372178Y-95702530D01*
X123372174Y-95702533D01*
X123254783Y-95819924D01*
X123254780Y-95819928D01*
X123186117Y-95933513D01*
X123134590Y-95980701D01*
X123065730Y-95992540D01*
X123001402Y-95965272D01*
X122973883Y-95933513D01*
X122905219Y-95819928D01*
X122905216Y-95819924D01*
X122787825Y-95702533D01*
X122787821Y-95702530D01*
X122645755Y-95616649D01*
X122645751Y-95616647D01*
X122487257Y-95567259D01*
X122487259Y-95567259D01*
X122464297Y-95565172D01*
X122418379Y-95561000D01*
X122418375Y-95561000D01*
X121741613Y-95561000D01*
X121672749Y-95567257D01*
X121672742Y-95567259D01*
X121514248Y-95616647D01*
X121514244Y-95616649D01*
X121372178Y-95702530D01*
X121372174Y-95702533D01*
X121254783Y-95819924D01*
X121254780Y-95819928D01*
X121168899Y-95961994D01*
X121168897Y-95961998D01*
X121119509Y-96120491D01*
X121113250Y-96189373D01*
X121113250Y-96907070D01*
X121093565Y-96974109D01*
X121076931Y-96994751D01*
X119078501Y-98993181D01*
X119017178Y-99026666D01*
X118990820Y-99029500D01*
X118934500Y-99029500D01*
X118867461Y-99009815D01*
X118821706Y-98957011D01*
X118810500Y-98905500D01*
X118810500Y-94701519D01*
X118830185Y-94634480D01*
X118846819Y-94613838D01*
X125013838Y-88446819D01*
X125075161Y-88413334D01*
X125101519Y-88410500D01*
X126708427Y-88410500D01*
X126708435Y-88410499D01*
X127107651Y-88410499D01*
X127174690Y-88430184D01*
X127218136Y-88478205D01*
X127228742Y-88499020D01*
X127257772Y-88538976D01*
X127266533Y-88551034D01*
X127343965Y-88628466D01*
X127395980Y-88666258D01*
X127493548Y-88715972D01*
X127493551Y-88715973D01*
X127554695Y-88735840D01*
X127662848Y-88752970D01*
X127662853Y-88752970D01*
X127727152Y-88752970D01*
X127835304Y-88735840D01*
X127896448Y-88715973D01*
X127896451Y-88715972D01*
X127994020Y-88666258D01*
X128046035Y-88628466D01*
X128123466Y-88551035D01*
X128161258Y-88499020D01*
X128210972Y-88401451D01*
X128230840Y-88340303D01*
X128236511Y-88304500D01*
X128247970Y-88232152D01*
X128247970Y-88167847D01*
X128230840Y-88059695D01*
X128210973Y-87998551D01*
X128210972Y-87998548D01*
X128161258Y-87900980D01*
X128123466Y-87848965D01*
X128046034Y-87771533D01*
X127994019Y-87733741D01*
X127896451Y-87684027D01*
X127896448Y-87684026D01*
X127835304Y-87664159D01*
X127727152Y-87647030D01*
X127727147Y-87647030D01*
X127699499Y-87647030D01*
X127632460Y-87627345D01*
X127586705Y-87574541D01*
X127575499Y-87523030D01*
X127575499Y-87378479D01*
X127571791Y-87355075D01*
X127567725Y-87329396D01*
X127567725Y-87290605D01*
X127575500Y-87241519D01*
X127575500Y-87234500D01*
X127595185Y-87167461D01*
X127647989Y-87121706D01*
X127699500Y-87110500D01*
X127743668Y-87110500D01*
X127773342Y-87114103D01*
X127921014Y-87150500D01*
X127921015Y-87150500D01*
X128078985Y-87150500D01*
X128232365Y-87112696D01*
X128256555Y-87100000D01*
X128372240Y-87039283D01*
X128490483Y-86934530D01*
X128580220Y-86804523D01*
X128636237Y-86656818D01*
X128655278Y-86500000D01*
X128645660Y-86420783D01*
X128636237Y-86343181D01*
X128604880Y-86260500D01*
X128580220Y-86195477D01*
X128490483Y-86065470D01*
X128372240Y-85960717D01*
X128372238Y-85960716D01*
X128372237Y-85960715D01*
X128232365Y-85887303D01*
X128078986Y-85849500D01*
X128078985Y-85849500D01*
X127921015Y-85849500D01*
X127921014Y-85849500D01*
X127767634Y-85887303D01*
X127751638Y-85895699D01*
X127683129Y-85909422D01*
X127618077Y-85883928D01*
X127577134Y-85827311D01*
X127571542Y-85766504D01*
X127575500Y-85741519D01*
X127575499Y-85378482D01*
X127574419Y-85371664D01*
X127569638Y-85341477D01*
X127567725Y-85329396D01*
X127567725Y-85290605D01*
X127575500Y-85241519D01*
X127575499Y-84878482D01*
X127567725Y-84829396D01*
X127567725Y-84790605D01*
X127575500Y-84741519D01*
X127575499Y-84378482D01*
X127574013Y-84369100D01*
X127582966Y-84299808D01*
X127627961Y-84246354D01*
X127694712Y-84225713D01*
X127726159Y-84229303D01*
X127731015Y-84230500D01*
X127731018Y-84230500D01*
X127888985Y-84230500D01*
X128042365Y-84192696D01*
X128070598Y-84177878D01*
X128182240Y-84119283D01*
X128300483Y-84014530D01*
X128390220Y-83884523D01*
X128446237Y-83736818D01*
X128465278Y-83580000D01*
X128464389Y-83572674D01*
X128446237Y-83423181D01*
X128403436Y-83310326D01*
X128390220Y-83275477D01*
X128300483Y-83145470D01*
X128182240Y-83040717D01*
X128178912Y-83038970D01*
X128116053Y-83005978D01*
X128065841Y-82957392D01*
X128049867Y-82889373D01*
X128073203Y-82823516D01*
X128085994Y-82808506D01*
X128123466Y-82771035D01*
X128161258Y-82719020D01*
X128210972Y-82621451D01*
X128230840Y-82560303D01*
X128234067Y-82539927D01*
X128247970Y-82452152D01*
X128247970Y-82387847D01*
X128230840Y-82279695D01*
X128210973Y-82218551D01*
X128210972Y-82218548D01*
X128161258Y-82120980D01*
X128123466Y-82068965D01*
X128046034Y-81991533D01*
X127994019Y-81953741D01*
X127896451Y-81904027D01*
X127896448Y-81904026D01*
X127835304Y-81884159D01*
X127727152Y-81867030D01*
X127727147Y-81867030D01*
X127662853Y-81867030D01*
X127662848Y-81867030D01*
X127554695Y-81884159D01*
X127493551Y-81904026D01*
X127493548Y-81904027D01*
X127395980Y-81953741D01*
X127343965Y-81991533D01*
X127266533Y-82068965D01*
X127228741Y-82120980D01*
X127218137Y-82141794D01*
X127170163Y-82192591D01*
X127107652Y-82209500D01*
X121296999Y-82209500D01*
X121229960Y-82189815D01*
X121184205Y-82137011D01*
X121172999Y-82085500D01*
X121172999Y-82023330D01*
X121172998Y-82023313D01*
X121162674Y-81922247D01*
X121148509Y-81879500D01*
X121108408Y-81758484D01*
X121017840Y-81611650D01*
X120895850Y-81489660D01*
X120749016Y-81399092D01*
X120585253Y-81344826D01*
X120585251Y-81344825D01*
X120484178Y-81334500D01*
X119710830Y-81334500D01*
X119710812Y-81334501D01*
X119609747Y-81344825D01*
X119445984Y-81399092D01*
X119445981Y-81399093D01*
X119299148Y-81489661D01*
X119177159Y-81611650D01*
X119156839Y-81644596D01*
X119104892Y-81691321D01*
X119051300Y-81703500D01*
X118033580Y-81703500D01*
X117966541Y-81683815D01*
X117928042Y-81644597D01*
X117889217Y-81581653D01*
X117889214Y-81581649D01*
X117767226Y-81459661D01*
X117767225Y-81459660D01*
X117620391Y-81369092D01*
X117456628Y-81314826D01*
X117456626Y-81314825D01*
X117355559Y-81304500D01*
X117355552Y-81304500D01*
X116956305Y-81304500D01*
X116889266Y-81284815D01*
X116868624Y-81268181D01*
X116848022Y-81247579D01*
X116848019Y-81247575D01*
X116848019Y-81247576D01*
X116840952Y-81240509D01*
X116840952Y-81240508D01*
X116738367Y-81137923D01*
X116738366Y-81137922D01*
X116738365Y-81137921D01*
X116617745Y-81057325D01*
X116617732Y-81057318D01*
X116483708Y-81001804D01*
X116483698Y-81001801D01*
X116341416Y-80973499D01*
X116341414Y-80973499D01*
X116196336Y-80973499D01*
X116190222Y-80973499D01*
X116190202Y-80973500D01*
X113697860Y-80973500D01*
X113630821Y-80953815D01*
X113585066Y-80901011D01*
X113575122Y-80831853D01*
X113604147Y-80768297D01*
X113610179Y-80761819D01*
X114006510Y-80365489D01*
X114515180Y-79856819D01*
X114576503Y-79823334D01*
X114602861Y-79820500D01*
X127758693Y-79820500D01*
X127758694Y-79820499D01*
X127932666Y-79785895D01*
X128014606Y-79751953D01*
X128096547Y-79718013D01*
X128202639Y-79647124D01*
X128244036Y-79619464D01*
X129839464Y-78024036D01*
X129882701Y-77959326D01*
X129938013Y-77876547D01*
X129981614Y-77771284D01*
X130005895Y-77712666D01*
X130040500Y-77538692D01*
X130040500Y-77459552D01*
X130060185Y-77392513D01*
X130076819Y-77371871D01*
X130078156Y-77370534D01*
X130090340Y-77358350D01*
X130180908Y-77211516D01*
X130235174Y-77047753D01*
X130245500Y-76946677D01*
X130245499Y-76173324D01*
X130235174Y-76072247D01*
X130180908Y-75908484D01*
X130090340Y-75761650D01*
X130076819Y-75748129D01*
X130043334Y-75686806D01*
X130040500Y-75660448D01*
X130040500Y-73171308D01*
X130040499Y-73171307D01*
X130033514Y-73136187D01*
X130005895Y-72997334D01*
X129947145Y-72855500D01*
X129938013Y-72833453D01*
X129938012Y-72833451D01*
X129938011Y-72833449D01*
X129856770Y-72711865D01*
X129856768Y-72711862D01*
X129839466Y-72685966D01*
X129555442Y-72401942D01*
X129521957Y-72340619D01*
X129519596Y-72325076D01*
X129506207Y-72172023D01*
X129449575Y-71960670D01*
X129357102Y-71762362D01*
X129357100Y-71762359D01*
X129357099Y-71762357D01*
X129231599Y-71583124D01*
X129199333Y-71550858D01*
X129076877Y-71428402D01*
X128897639Y-71302898D01*
X128897640Y-71302898D01*
X128897638Y-71302897D01*
X128787752Y-71251657D01*
X128699330Y-71210425D01*
X128699326Y-71210424D01*
X128699322Y-71210422D01*
X128487977Y-71153793D01*
X128353011Y-71141985D01*
X128287943Y-71116532D01*
X128276138Y-71106138D01*
X128250000Y-71080000D01*
X123120000Y-71080000D01*
X123085232Y-71114768D01*
X123023908Y-71148252D01*
X123008359Y-71150614D01*
X122972023Y-71153793D01*
X122972020Y-71153793D01*
X122760677Y-71210422D01*
X122760668Y-71210426D01*
X122562361Y-71302898D01*
X122562357Y-71302900D01*
X122383121Y-71428402D01*
X122228402Y-71583121D01*
X122102900Y-71762357D01*
X122102898Y-71762361D01*
X122010426Y-71960668D01*
X122010422Y-71960677D01*
X121953793Y-72172020D01*
X121953793Y-72172024D01*
X121934723Y-72389997D01*
X121934723Y-72390002D01*
X121953793Y-72607975D01*
X121953793Y-72607979D01*
X122011322Y-72822680D01*
X122009659Y-72892530D01*
X121979228Y-72942454D01*
X119618502Y-75303181D01*
X119557179Y-75336666D01*
X119530821Y-75339500D01*
X116118179Y-75339500D01*
X116051140Y-75319815D01*
X116005385Y-75267011D01*
X115995441Y-75197853D01*
X116024466Y-75134297D01*
X116030498Y-75127819D01*
X117371998Y-73786319D01*
X117433321Y-73752834D01*
X117459679Y-73750000D01*
X118159998Y-73750000D01*
X118160000Y-73750000D01*
X118160000Y-73749998D01*
X118192640Y-73717358D01*
X118253963Y-73683873D01*
X118269501Y-73681513D01*
X118336692Y-73675635D01*
X118556496Y-73616739D01*
X118762734Y-73520568D01*
X118949139Y-73390047D01*
X119110047Y-73229139D01*
X119240568Y-73042734D01*
X119336739Y-72836496D01*
X119395635Y-72616692D01*
X119415468Y-72390000D01*
X119395635Y-72163308D01*
X119350916Y-71996415D01*
X119336741Y-71943511D01*
X119336738Y-71943502D01*
X119310839Y-71887961D01*
X119240568Y-71737266D01*
X119132637Y-71583123D01*
X119110045Y-71550858D01*
X118949141Y-71389954D01*
X118762734Y-71259432D01*
X118762732Y-71259431D01*
X118556497Y-71163261D01*
X118556488Y-71163258D01*
X118336697Y-71104366D01*
X118336687Y-71104364D01*
X118273192Y-71098809D01*
X118208123Y-71073356D01*
X118167145Y-71016765D01*
X118160000Y-70975281D01*
X118160000Y-70880000D01*
X74890000Y-70880000D01*
X74890000Y-70974406D01*
X74870315Y-71041445D01*
X74817511Y-71087200D01*
X74776808Y-71097934D01*
X74703312Y-71104364D01*
X74703302Y-71104366D01*
X74483511Y-71163258D01*
X74483502Y-71163261D01*
X74277267Y-71259431D01*
X74277265Y-71259432D01*
X74090858Y-71389954D01*
X73929954Y-71550858D01*
X73799432Y-71737265D01*
X73799431Y-71737267D01*
X73703261Y-71943502D01*
X73703258Y-71943511D01*
X73644366Y-72163302D01*
X73644364Y-72163313D01*
X73624532Y-72389998D01*
X73624532Y-72390001D01*
X73644364Y-72616686D01*
X73644366Y-72616697D01*
X73703258Y-72836488D01*
X73703261Y-72836497D01*
X73799431Y-73042732D01*
X73799432Y-73042734D01*
X73929954Y-73229141D01*
X74090858Y-73390045D01*
X74090861Y-73390047D01*
X74277266Y-73520568D01*
X74483504Y-73616739D01*
X74483509Y-73616740D01*
X74483511Y-73616741D01*
X74518839Y-73626207D01*
X74703308Y-73675635D01*
X74781444Y-73682470D01*
X74846511Y-73707922D01*
X74858317Y-73718317D01*
X74890000Y-73750000D01*
X78120321Y-73750000D01*
X78187360Y-73769685D01*
X78208002Y-73786319D01*
X81489502Y-77067819D01*
X81522987Y-77129142D01*
X81518003Y-77198834D01*
X81476131Y-77254767D01*
X81410667Y-77279184D01*
X81401821Y-77279500D01*
X76263887Y-77279500D01*
X76196848Y-77259815D01*
X76151093Y-77207011D01*
X76145502Y-77192391D01*
X76111101Y-77081996D01*
X76111100Y-77081994D01*
X76025219Y-76939928D01*
X76025216Y-76939924D01*
X75907825Y-76822533D01*
X75907821Y-76822530D01*
X75765755Y-76736649D01*
X75765751Y-76736647D01*
X75607257Y-76687259D01*
X75607259Y-76687259D01*
X75584297Y-76685172D01*
X75538379Y-76681000D01*
X75538375Y-76681000D01*
X74861613Y-76681000D01*
X74792749Y-76687257D01*
X74792742Y-76687259D01*
X74634248Y-76736647D01*
X74634244Y-76736649D01*
X74492178Y-76822530D01*
X74492174Y-76822533D01*
X74374783Y-76939924D01*
X74374780Y-76939928D01*
X74306117Y-77053513D01*
X74254590Y-77100701D01*
X74185730Y-77112540D01*
X74121402Y-77085272D01*
X74093883Y-77053513D01*
X74025219Y-76939928D01*
X74025216Y-76939924D01*
X73907825Y-76822533D01*
X73907821Y-76822530D01*
X73765755Y-76736649D01*
X73765751Y-76736647D01*
X73607257Y-76687259D01*
X73607259Y-76687259D01*
X73584297Y-76685172D01*
X73538379Y-76681000D01*
X73538375Y-76681000D01*
X72861613Y-76681000D01*
X72792749Y-76687257D01*
X72792742Y-76687259D01*
X72634248Y-76736647D01*
X72634244Y-76736649D01*
X72492178Y-76822530D01*
X72492174Y-76822533D01*
X72374783Y-76939924D01*
X72374780Y-76939928D01*
X72310871Y-77045649D01*
X72259344Y-77092837D01*
X72204754Y-77105500D01*
X71559160Y-77105500D01*
X71492121Y-77085815D01*
X71446366Y-77033011D01*
X71440084Y-77016095D01*
X71402245Y-76885856D01*
X71402244Y-76885853D01*
X71402244Y-76885852D01*
X71318581Y-76744385D01*
X71318579Y-76744383D01*
X71318576Y-76744379D01*
X71202370Y-76628173D01*
X71202362Y-76628167D01*
X71104909Y-76570534D01*
X71060898Y-76544506D01*
X71060897Y-76544505D01*
X71060896Y-76544505D01*
X71060893Y-76544504D01*
X70903073Y-76498652D01*
X70903067Y-76498651D01*
X70866201Y-76495750D01*
X70866194Y-76495750D01*
X70234806Y-76495750D01*
X70234798Y-76495750D01*
X70197932Y-76498651D01*
X70197926Y-76498652D01*
X70040106Y-76544504D01*
X70040103Y-76544505D01*
X69898637Y-76628167D01*
X69898629Y-76628173D01*
X69782423Y-76744379D01*
X69782417Y-76744387D01*
X69698755Y-76885853D01*
X69698754Y-76885856D01*
X69652902Y-77043676D01*
X69652901Y-77043682D01*
X69650000Y-77080548D01*
X69650000Y-78111451D01*
X69652901Y-78148317D01*
X69652902Y-78148323D01*
X69698754Y-78306143D01*
X69698755Y-78306146D01*
X69782417Y-78447612D01*
X69782423Y-78447620D01*
X69898629Y-78563826D01*
X69898633Y-78563829D01*
X69898635Y-78563831D01*
X70040102Y-78647494D01*
X70081724Y-78659586D01*
X70197926Y-78693347D01*
X70197929Y-78693347D01*
X70197931Y-78693348D01*
X70234806Y-78696250D01*
X70234814Y-78696250D01*
X70866186Y-78696250D01*
X70866194Y-78696250D01*
X70903069Y-78693348D01*
X70903071Y-78693347D01*
X70903073Y-78693347D01*
X70944691Y-78681255D01*
X71060898Y-78647494D01*
X71202365Y-78563831D01*
X71318581Y-78447615D01*
X71402244Y-78306148D01*
X71419324Y-78247358D01*
X71440084Y-78175905D01*
X71477690Y-78117019D01*
X71541163Y-78087813D01*
X71559160Y-78086500D01*
X72109251Y-78086500D01*
X72176290Y-78106185D01*
X72222045Y-78158989D01*
X72233251Y-78210500D01*
X72233251Y-78230636D01*
X72239507Y-78299500D01*
X72239509Y-78299507D01*
X72288897Y-78458001D01*
X72288899Y-78458005D01*
X72374780Y-78600071D01*
X72374783Y-78600075D01*
X72492174Y-78717466D01*
X72492178Y-78717469D01*
X72599770Y-78782510D01*
X72634246Y-78803351D01*
X72740089Y-78836333D01*
X72798234Y-78875069D01*
X72826208Y-78939094D01*
X72815127Y-79008079D01*
X72768508Y-79060123D01*
X72727400Y-79076332D01*
X72722743Y-79077258D01*
X72564248Y-79126647D01*
X72564244Y-79126649D01*
X72422178Y-79212530D01*
X72422174Y-79212533D01*
X72304783Y-79329924D01*
X72304780Y-79329928D01*
X72218899Y-79471994D01*
X72218898Y-79471996D01*
X72195093Y-79548391D01*
X72156355Y-79606538D01*
X72092330Y-79634512D01*
X72076708Y-79635500D01*
X71559160Y-79635500D01*
X71492121Y-79615815D01*
X71446366Y-79563011D01*
X71440084Y-79546095D01*
X71402245Y-79415856D01*
X71402244Y-79415853D01*
X71402244Y-79415852D01*
X71318581Y-79274385D01*
X71318579Y-79274383D01*
X71318576Y-79274379D01*
X71202370Y-79158173D01*
X71202362Y-79158167D01*
X71096466Y-79095541D01*
X71060898Y-79074506D01*
X71060897Y-79074505D01*
X71060896Y-79074505D01*
X71060893Y-79074504D01*
X70903073Y-79028652D01*
X70903067Y-79028651D01*
X70866201Y-79025750D01*
X70866194Y-79025750D01*
X70234806Y-79025750D01*
X70234798Y-79025750D01*
X70197932Y-79028651D01*
X70197926Y-79028652D01*
X70040106Y-79074504D01*
X70040103Y-79074505D01*
X69898637Y-79158167D01*
X69898629Y-79158173D01*
X69782423Y-79274379D01*
X69782417Y-79274387D01*
X69698755Y-79415853D01*
X69698754Y-79415856D01*
X69652902Y-79573676D01*
X69652901Y-79573682D01*
X69650000Y-79610548D01*
X69650000Y-80641451D01*
X69652901Y-80678317D01*
X69652902Y-80678323D01*
X69698754Y-80836143D01*
X69698755Y-80836146D01*
X69698756Y-80836148D01*
X69726946Y-80883815D01*
X69782417Y-80977612D01*
X69782423Y-80977620D01*
X69898629Y-81093826D01*
X69898633Y-81093829D01*
X69898635Y-81093831D01*
X70040102Y-81177494D01*
X70045296Y-81179003D01*
X70197926Y-81223347D01*
X70197929Y-81223347D01*
X70197931Y-81223348D01*
X70234806Y-81226250D01*
X70234814Y-81226250D01*
X70866186Y-81226250D01*
X70866194Y-81226250D01*
X70903069Y-81223348D01*
X70903071Y-81223347D01*
X70903073Y-81223347D01*
X70944691Y-81211255D01*
X71060898Y-81177494D01*
X71202365Y-81093831D01*
X71318581Y-80977615D01*
X71402244Y-80836148D01*
X71429564Y-80742114D01*
X71440084Y-80705905D01*
X71477690Y-80647019D01*
X71541163Y-80617813D01*
X71559160Y-80616500D01*
X72055519Y-80616500D01*
X72122558Y-80636185D01*
X72168313Y-80688989D01*
X72173902Y-80703605D01*
X72183725Y-80735129D01*
X72218897Y-80848001D01*
X72218899Y-80848005D01*
X72304780Y-80990071D01*
X72304783Y-80990075D01*
X72422174Y-81107466D01*
X72422178Y-81107469D01*
X72564244Y-81193350D01*
X72564248Y-81193352D01*
X72620311Y-81210821D01*
X72722743Y-81242741D01*
X72791621Y-81249000D01*
X73468378Y-81248999D01*
X73468385Y-81248999D01*
X73537250Y-81242742D01*
X73537251Y-81242741D01*
X73537257Y-81242741D01*
X73695754Y-81193351D01*
X73837826Y-81107466D01*
X73893819Y-81051473D01*
X73955142Y-81017988D01*
X74024834Y-81022972D01*
X74080767Y-81064844D01*
X74105184Y-81130308D01*
X74105500Y-81139154D01*
X74105500Y-83830387D01*
X74085815Y-83897426D01*
X74069181Y-83918068D01*
X73763067Y-84224181D01*
X73701744Y-84257666D01*
X73675387Y-84260500D01*
X73572863Y-84260500D01*
X73503999Y-84266757D01*
X73503992Y-84266759D01*
X73345498Y-84316147D01*
X73345494Y-84316149D01*
X73203428Y-84402030D01*
X73203424Y-84402033D01*
X73086033Y-84519424D01*
X73086030Y-84519428D01*
X73000149Y-84661494D01*
X73000147Y-84661498D01*
X72950759Y-84819991D01*
X72950759Y-84819993D01*
X72945445Y-84878479D01*
X72944500Y-84888874D01*
X72944500Y-85565636D01*
X72950757Y-85634500D01*
X72950759Y-85634507D01*
X73000147Y-85793001D01*
X73000149Y-85793005D01*
X73086030Y-85935071D01*
X73086033Y-85935075D01*
X73203424Y-86052466D01*
X73203428Y-86052469D01*
X73317013Y-86121133D01*
X73364201Y-86172660D01*
X73376040Y-86241520D01*
X73348772Y-86305848D01*
X73317013Y-86333367D01*
X73203428Y-86402030D01*
X73203424Y-86402033D01*
X73185383Y-86420075D01*
X73124060Y-86453560D01*
X73054368Y-86448576D01*
X73010021Y-86420075D01*
X71596818Y-85006872D01*
X71563333Y-84945549D01*
X71560499Y-84919191D01*
X71560499Y-84358482D01*
X71559409Y-84351598D01*
X71545646Y-84264696D01*
X71488050Y-84151658D01*
X71488046Y-84151654D01*
X71488045Y-84151652D01*
X71398347Y-84061954D01*
X71398344Y-84061952D01*
X71398342Y-84061950D01*
X71311059Y-84017477D01*
X71285301Y-84004352D01*
X71191524Y-83989500D01*
X70128482Y-83989500D01*
X70047519Y-84002323D01*
X70034696Y-84004354D01*
X69921658Y-84061950D01*
X69921657Y-84061951D01*
X69921652Y-84061954D01*
X69831954Y-84151652D01*
X69831951Y-84151657D01*
X69831950Y-84151658D01*
X69831394Y-84152750D01*
X69774352Y-84264698D01*
X69759500Y-84358475D01*
X69759500Y-85621517D01*
X69765922Y-85662064D01*
X69774354Y-85715304D01*
X69831950Y-85828342D01*
X69831952Y-85828344D01*
X69831954Y-85828347D01*
X69921652Y-85918045D01*
X69921654Y-85918046D01*
X69921658Y-85918050D01*
X70023307Y-85969843D01*
X70034698Y-85975647D01*
X70128475Y-85990499D01*
X70128481Y-85990500D01*
X70689191Y-85990499D01*
X70756230Y-86010183D01*
X70776872Y-86026818D01*
X72482574Y-87732521D01*
X72482577Y-87732524D01*
X72562945Y-87786224D01*
X72562944Y-87786224D01*
X72580092Y-87797681D01*
X72589123Y-87803715D01*
X72707506Y-87852751D01*
X72707510Y-87852751D01*
X72707511Y-87852752D01*
X72833178Y-87877750D01*
X72833181Y-87877750D01*
X72981443Y-87877750D01*
X73048482Y-87897435D01*
X73080251Y-87930085D01*
X73081412Y-87929176D01*
X73086033Y-87935075D01*
X73086034Y-87935076D01*
X73203424Y-88052466D01*
X73203426Y-88052467D01*
X73203428Y-88052469D01*
X73323149Y-88124842D01*
X73370337Y-88176369D01*
X73383000Y-88230959D01*
X73383000Y-88831181D01*
X73363315Y-88898220D01*
X73324097Y-88936719D01*
X73221653Y-88999907D01*
X73221649Y-88999910D01*
X73099661Y-89121898D01*
X73009093Y-89268731D01*
X73009091Y-89268736D01*
X72989342Y-89328334D01*
X72954826Y-89432497D01*
X72954826Y-89432498D01*
X72954825Y-89432498D01*
X72944500Y-89533565D01*
X72944500Y-90366919D01*
X72944501Y-90366936D01*
X72954825Y-90468002D01*
X72977537Y-90536540D01*
X73003468Y-90614795D01*
X73009092Y-90631765D01*
X73009093Y-90631768D01*
X73014564Y-90640638D01*
X73099660Y-90778600D01*
X73221650Y-90900590D01*
X73368484Y-90991158D01*
X73532247Y-91045424D01*
X73633323Y-91055750D01*
X74380465Y-91055749D01*
X74447504Y-91075433D01*
X74468146Y-91092068D01*
X74753181Y-91377103D01*
X74786666Y-91438426D01*
X74789500Y-91464784D01*
X74789500Y-93574575D01*
X74822926Y-93699327D01*
X74838595Y-93726465D01*
X74887502Y-93811174D01*
X76988826Y-95912498D01*
X77100673Y-95977074D01*
X77225424Y-96010500D01*
X83371822Y-96010500D01*
X83438861Y-96030185D01*
X83484616Y-96082989D01*
X83494560Y-96152147D01*
X83465535Y-96215703D01*
X83459503Y-96222181D01*
X80601042Y-99080639D01*
X80539719Y-99114124D01*
X80470027Y-99109140D01*
X80460965Y-99105344D01*
X80456504Y-99103264D01*
X80456488Y-99103258D01*
X80236697Y-99044366D01*
X80236693Y-99044365D01*
X80236692Y-99044365D01*
X80236691Y-99044364D01*
X80236686Y-99044364D01*
X80010002Y-99024532D01*
X80009998Y-99024532D01*
X79783313Y-99044364D01*
X79783302Y-99044366D01*
X79563511Y-99103258D01*
X79563502Y-99103261D01*
X79445298Y-99158382D01*
X79392893Y-99170000D01*
X78087107Y-99170000D01*
X78034702Y-99158382D01*
X77916497Y-99103261D01*
X77916488Y-99103258D01*
X77696697Y-99044366D01*
X77696693Y-99044365D01*
X77696692Y-99044365D01*
X77696691Y-99044364D01*
X77696686Y-99044364D01*
X77470002Y-99024532D01*
X77469998Y-99024532D01*
X77243313Y-99044364D01*
X77243302Y-99044366D01*
X77023511Y-99103258D01*
X77023502Y-99103261D01*
X76905298Y-99158382D01*
X76852893Y-99170000D01*
X75547107Y-99170000D01*
X75494702Y-99158382D01*
X75376497Y-99103261D01*
X75376488Y-99103258D01*
X75156697Y-99044366D01*
X75156693Y-99044365D01*
X75156692Y-99044365D01*
X75156691Y-99044364D01*
X75156686Y-99044364D01*
X74930002Y-99024532D01*
X74929998Y-99024532D01*
X74703313Y-99044364D01*
X74703302Y-99044366D01*
X74483511Y-99103258D01*
X74483502Y-99103261D01*
X74365298Y-99158382D01*
X74312893Y-99170000D01*
X73007107Y-99170000D01*
X72954701Y-99158381D01*
X72925569Y-99144796D01*
X72873130Y-99098623D01*
X72853979Y-99031429D01*
X72874196Y-98964549D01*
X72925565Y-98920036D01*
X73017639Y-98877102D01*
X73196877Y-98751598D01*
X73351598Y-98596877D01*
X73477102Y-98417639D01*
X73569575Y-98219330D01*
X73626207Y-98007977D01*
X73644243Y-97801819D01*
X73645277Y-97790002D01*
X73645277Y-97789997D01*
X73640268Y-97732741D01*
X73626207Y-97572023D01*
X73573720Y-97376140D01*
X73569577Y-97360677D01*
X73569576Y-97360676D01*
X73569575Y-97360670D01*
X73477102Y-97162362D01*
X73477100Y-97162359D01*
X73477099Y-97162357D01*
X73351599Y-96983124D01*
X73274333Y-96905858D01*
X73196877Y-96828402D01*
X73048533Y-96724530D01*
X73017638Y-96702897D01*
X72882882Y-96640060D01*
X72819330Y-96610425D01*
X72819326Y-96610424D01*
X72819322Y-96610422D01*
X72607977Y-96553793D01*
X72390002Y-96534723D01*
X72389998Y-96534723D01*
X72244682Y-96547436D01*
X72172023Y-96553793D01*
X72172020Y-96553793D01*
X71960677Y-96610422D01*
X71960670Y-96610424D01*
X71960670Y-96610425D01*
X71957391Y-96611954D01*
X71762361Y-96702898D01*
X71762357Y-96702900D01*
X71583121Y-96828402D01*
X71428402Y-96983121D01*
X71326074Y-97129262D01*
X71271497Y-97172887D01*
X71201999Y-97180081D01*
X71139644Y-97148558D01*
X71104230Y-97088328D01*
X71100499Y-97058139D01*
X71100499Y-96908482D01*
X71100083Y-96905858D01*
X71085646Y-96814696D01*
X71028050Y-96701658D01*
X71028046Y-96701654D01*
X71028045Y-96701652D01*
X70938347Y-96611954D01*
X70938344Y-96611952D01*
X70938342Y-96611950D01*
X70861517Y-96572805D01*
X70825301Y-96554352D01*
X70731524Y-96539500D01*
X68968482Y-96539500D01*
X68887519Y-96552323D01*
X68874696Y-96554354D01*
X68761658Y-96611950D01*
X68761657Y-96611951D01*
X68761652Y-96611954D01*
X68671954Y-96701652D01*
X68671951Y-96701657D01*
X68671950Y-96701658D01*
X68669527Y-96706414D01*
X68614352Y-96814698D01*
X68599500Y-96908475D01*
X68599500Y-98671517D01*
X68610292Y-98739657D01*
X68614354Y-98765304D01*
X68671950Y-98878342D01*
X68671952Y-98878344D01*
X68671954Y-98878347D01*
X68751926Y-98958319D01*
X68785411Y-99019642D01*
X68780427Y-99089334D01*
X68738555Y-99145267D01*
X68673091Y-99169684D01*
X68664245Y-99170000D01*
X68260000Y-99170000D01*
X64277527Y-99170000D01*
X64260618Y-98782702D01*
X64260500Y-98777293D01*
X64260500Y-73782706D01*
X64260618Y-73777297D01*
X64263993Y-73700000D01*
X64278528Y-73367080D01*
X64279468Y-73356347D01*
X64332709Y-72951938D01*
X64334582Y-72941308D01*
X64422870Y-72543068D01*
X64425668Y-72532630D01*
X64466874Y-72401942D01*
X64548319Y-72143629D01*
X64552016Y-72133473D01*
X64623594Y-71960670D01*
X64708111Y-71756627D01*
X64712669Y-71746853D01*
X64862789Y-71458475D01*
X68549500Y-71458475D01*
X68549500Y-73321517D01*
X68555864Y-73361696D01*
X68564354Y-73415304D01*
X68621950Y-73528342D01*
X68621952Y-73528344D01*
X68621954Y-73528347D01*
X68711652Y-73618045D01*
X68711654Y-73618046D01*
X68711658Y-73618050D01*
X68824672Y-73675634D01*
X68824698Y-73675647D01*
X68918475Y-73690499D01*
X68918481Y-73690500D01*
X70781518Y-73690499D01*
X70875304Y-73675646D01*
X70988342Y-73618050D01*
X71078050Y-73528342D01*
X71135646Y-73415304D01*
X71135646Y-73415302D01*
X71135647Y-73415301D01*
X71150499Y-73321524D01*
X71150500Y-73321519D01*
X71150499Y-71458482D01*
X71135646Y-71364696D01*
X71078050Y-71251658D01*
X71078046Y-71251654D01*
X71078045Y-71251652D01*
X70988347Y-71161954D01*
X70988344Y-71161952D01*
X70988342Y-71161950D01*
X70895743Y-71114768D01*
X70875301Y-71104352D01*
X70781524Y-71089500D01*
X68918482Y-71089500D01*
X68837519Y-71102323D01*
X68824696Y-71104354D01*
X68711658Y-71161950D01*
X68711657Y-71161951D01*
X68711652Y-71161954D01*
X68621954Y-71251652D01*
X68621951Y-71251657D01*
X68621950Y-71251658D01*
X68617989Y-71259432D01*
X68564352Y-71364698D01*
X68549500Y-71458475D01*
X64862789Y-71458475D01*
X64901025Y-71385024D01*
X64906407Y-71375703D01*
X65125574Y-71031680D01*
X65131765Y-71022837D01*
X65380083Y-70699224D01*
X65387021Y-70690955D01*
X65662594Y-70390220D01*
X65670220Y-70382594D01*
X65970955Y-70107021D01*
X65979224Y-70100083D01*
X66302837Y-69851765D01*
X66311680Y-69845574D01*
X66655703Y-69626407D01*
X66665024Y-69621025D01*
X67026853Y-69432669D01*
X67036627Y-69428111D01*
X67413482Y-69272012D01*
X67423629Y-69268319D01*
X67812639Y-69145665D01*
X67823068Y-69142870D01*
X68221308Y-69054582D01*
X68231938Y-69052709D01*
X68636347Y-68999468D01*
X68647080Y-68998528D01*
X69057297Y-68980617D01*
X69062706Y-68980500D01*
X69099882Y-68980500D01*
X129020118Y-68980500D01*
X129057294Y-68980500D01*
X129062702Y-68980617D01*
G37*
%TD.AperFunction*%
%TD*%
M02*
