G04 Layer: BoardOutlineLayer*
G04 EasyEDA Pro v2.2.27.1, 2024-09-15 10:59:50*
G04 Gerber Generator version 0.3*
G04 Scale: 100 percent, Rotated: No, Reflected: No*
G04 Dimensions in millimeters*
G04 Leading zeros omitted, absolute positions, 3 integers and 5 decimals*
%TF.GenerationSoftware,KiCad,Pcbnew,8.0.5*%
%TF.CreationDate,2024-09-23T12:45:29+08:00*%
%TF.ProjectId,li-chuang-di-wen-xing-cw32f030c8t6-kai-fa-ban,6c692d63-6875-4616-9e67-2d64692d7765,rev?*%
%TF.SameCoordinates,Original*%
%TF.FileFunction,Profile,NP*%
%FSLAX46Y46*%
G04 Gerber Fmt 4.6, Leading zero omitted, Abs format (unit mm)*
G04 Created by KiCad (PCBNEW 8.0.5) date 2024-09-23 12:45:29*
%MOMM*%
%LPD*%
G01*
G04 APERTURE LIST*
%TA.AperFunction,Profile*%
%ADD10C,0.050000*%
%TD*%
%TA.AperFunction,Profile*%
%ADD11C,0.000000*%
%TD*%
G04 APERTURE END LIST*
D10*
X64060000Y-98780000D02*
X64060000Y-73780000D01*
X129060000Y-68780000D02*
G75*
G02*
X134060000Y-73780000I0J-5000000D01*
G01*
X69060000Y-68780000D02*
X129060000Y-68780000D01*
X69060000Y-103780000D02*
G75*
G02*
X64060000Y-98780000I0J5000000D01*
G01*
X134060000Y-98780000D02*
G75*
G02*
X129060000Y-103780000I-5000000J0D01*
G01*
X64060000Y-73780000D02*
G75*
G02*
X69060000Y-68780000I5000000J0D01*
G01*
X129060000Y-103780000D02*
X69060000Y-103780000D01*
X134060000Y-73780000D02*
X134060000Y-98780000D01*
D11*
%TA.AperFunction,Profile*%
%TO.C,USB1*%
G36*
X127803156Y-82087130D02*
G01*
X127900725Y-82136844D01*
X127978156Y-82214275D01*
X128027870Y-82311844D01*
X128045000Y-82420000D01*
X128027870Y-82528156D01*
X127978156Y-82625725D01*
X127900725Y-82703156D01*
X127803156Y-82752870D01*
X127695000Y-82770000D01*
X127586844Y-82752870D01*
X127489275Y-82703156D01*
X127411844Y-82625725D01*
X127362130Y-82528156D01*
X127345000Y-82420000D01*
X127362130Y-82311844D01*
X127411844Y-82214275D01*
X127489275Y-82136844D01*
X127586844Y-82087130D01*
X127695000Y-82070000D01*
X127803156Y-82087130D01*
G37*
%TD.AperFunction*%
%TA.AperFunction,Profile*%
G36*
X127803156Y-87867130D02*
G01*
X127900725Y-87916844D01*
X127978156Y-87994275D01*
X128027870Y-88091844D01*
X128045000Y-88200000D01*
X128027870Y-88308156D01*
X127978156Y-88405725D01*
X127900725Y-88483156D01*
X127803156Y-88532870D01*
X127695000Y-88550000D01*
X127586844Y-88532870D01*
X127489275Y-88483156D01*
X127411844Y-88405725D01*
X127362130Y-88308156D01*
X127345000Y-88200000D01*
X127362130Y-88091844D01*
X127411844Y-87994275D01*
X127489275Y-87916844D01*
X127586844Y-87867130D01*
X127695000Y-87850000D01*
X127803156Y-87867130D01*
G37*
%TD.AperFunction*%
%TD*%
M02*
