;TYPE=PLATED
;Layer: PTH_Through
;EasyEDA Pro Client v2.2.27.1, 2024-09-15 10:59:51
;Gerber Generator version 0.3
M48
; DRILL file {KiCad 8.0.5} date 2024-10-31T22:01:23+0800
; FORMAT={-:-/ absolute / inch / decimal}
; #@! TF.CreationDate,2024-10-31T22:01:23+08:00
; #@! TF.GenerationSoftware,Kicad,Pcbnew,8.0.5
; #@! TF.FileFunction,Plated,1,2,PTH
FMAT,2
INCH
; #@! TA.AperFunction,Plated,PTH,ViaDrill
T1C0.0118
; #@! TA.AperFunction,Plated,PTH,ComponentDrill
T2C0.0118
; #@! TA.AperFunction,Plated,PTH,ComponentDrill
T3C0.0315
; #@! TA.AperFunction,Plated,PTH,ComponentDrill
T4C0.0512
; #@! TA.AperFunction,Plated,PTH,ComponentDrill
T5C0.1181
%
G90
G05
T1
X3.815Y-4.6575
X3.815Y-4.8075
X3.815Y-4.9575
X3.8346Y-4.1535
X3.8346Y-4.2535
X3.8346Y-4.3535
X3.8346Y-4.4535
X3.8346Y-4.5535
X3.8701Y-3.9961
X3.9346Y-4.1535
X3.9346Y-4.2535
X3.9346Y-4.3535
X3.9346Y-4.4535
X3.9346Y-4.5535
X3.9961Y-4.6516
X3.9961Y-4.8016
X3.9961Y-4.9516
X4.0201Y-3.9961
X4.0335Y-5.2598
X4.0776Y-4.2047
X4.1701Y-3.9961
X4.1835Y-5.2598
X4.2075Y-4.378
X4.2276Y-4.2047
X4.2626Y-4.8307
X4.2626Y-4.9409
X4.3201Y-3.9961
X4.3335Y-5.2598
X4.3575Y-4.378
X4.3776Y-4.2047
X4.4126Y-4.8307
X4.4126Y-4.9409
X4.4701Y-3.9961
X4.4835Y-5.2598
X4.5075Y-4.378
X4.5276Y-4.2047
X4.5626Y-4.8307
X4.5626Y-4.9409
X4.6201Y-3.9961
X4.6335Y-5.2598
X4.647Y-4.277
X4.6575Y-4.378
X4.7126Y-4.8307
X4.7126Y-4.9409
X4.7205Y-4.1181
X4.7559Y-4.0866
X4.7835Y-5.2598
X4.9201Y-3.9961
X4.9528Y-4.3268
X4.9553Y-4.277
X4.9567Y-4.227
X5.063Y-4.4016
X5.063Y-4.5516
X5.063Y-4.7016
X5.063Y-4.8516
X5.063Y-5.0016
X5.063Y-5.1516
T2
X4.7638Y-4.1791
X4.7638Y-4.252
X4.7638Y-4.3248
X4.8031Y-4.1791
X4.8031Y-4.252
X4.8031Y-4.3248
X4.8425Y-4.1791
X4.8425Y-4.252
X4.8425Y-4.3248
T3
X3.8976Y-4.7244
X3.8976Y-4.8819
X4.0551Y-4.0945
X4.0551Y-4.2913
X4.0945Y-4.7244
X4.0945Y-4.8819
X4.2126Y-4.0945
X4.2126Y-4.2913
X4.252Y-4.5669
X4.252Y-4.7244
X4.352Y-4.5669
X4.352Y-4.7244
X4.3701Y-4.0945
X4.3701Y-4.2913
X4.4669Y-4.5276
X4.4669Y-4.7244
X4.5276Y-4.0945
X4.5276Y-4.2913
X4.5669Y-4.5276
X4.5669Y-4.7244
X4.7522Y-4.0236
X4.7638Y-4.5276
X4.7638Y-4.7244
X4.8522Y-4.0236
X4.9606Y-4.5276
X4.9606Y-4.7244
T4
X4.252Y-5.0787
X4.4488Y-5.0787
X4.685Y-5.0787
X4.8819Y-5.0787
T5
X3.937Y-5.1181
M30
