G04 Layer: TopLayer*
G04 EasyEDA Pro v2.2.27.1, 2024-09-15 10:59:50*
G04 Gerber Generator version 0.3*
G04 Scale: 100 percent, Rotated: No, Reflected: No*
G04 Dimensions in millimeters*
G04 Leading zeros omitted, absolute positions, 3 integers and 5 decimals*
%TF.GenerationSoftware,KiCad,Pcbnew,8.0.5*%
%TF.CreationDate,2024-10-31T22:01:25+08:00*%
%TF.ProjectId,AMS1117_TP4056_Lithium_battery_charging,414d5331-3131-4375-9f54-50343035365f,rev?*%
%TF.SameCoordinates,Original*%
%TF.FileFunction,Copper,L1,Top*%
%TF.FilePolarity,Positive*%
%FSLAX46Y46*%
G04 Gerber Fmt 4.6, Leading zero omitted, Abs format (unit mm)*
G04 Created by KiCad (PCBNEW 8.0.5) date 2024-10-31 22:01:25*
%MOMM*%
%LPD*%
G01*
G04 APERTURE LIST*
%TA.AperFunction,ComponentPad*%
%ADD10R,1.400000X1.800000*%
%TD*%
%TA.AperFunction,ComponentPad*%
%ADD11O,1.400000X1.800000*%
%TD*%
%TA.AperFunction,ComponentPad*%
%ADD12C,1.600000*%
%TD*%
%TA.AperFunction,ComponentPad*%
%ADD13O,1.600000X1.600000*%
%TD*%
%TA.AperFunction,ComponentPad*%
%ADD14R,2.600000X2.600000*%
%TD*%
%TA.AperFunction,ComponentPad*%
%ADD15C,2.600000*%
%TD*%
%TA.AperFunction,ComponentPad*%
%ADD16C,6.000000*%
%TD*%
%TA.AperFunction,HeatsinkPad*%
%ADD17C,0.600000*%
%TD*%
%TA.AperFunction,ViaPad*%
%ADD18C,0.500000*%
%TD*%
%TA.AperFunction,Conductor*%
%ADD19C,0.300000*%
%TD*%
%TA.AperFunction,Conductor*%
%ADD20C,1.500000*%
%TD*%
%TA.AperFunction,Conductor*%
%ADD21C,0.500000*%
%TD*%
G04 APERTURE END LIST*
D10*
%TO.P,LED1,1,K*%
%TO.N,Net-(LED1-K)*%
X116000000Y-120000000D03*
D11*
%TO.P,LED1,2,A*%
%TO.N,Net-(LED1-A)*%
X113460000Y-120000000D03*
%TD*%
D12*
%TO.P,R1,1*%
%TO.N,GND*%
X123245000Y-102200000D03*
D13*
%TO.P,R1,2*%
%TO.N,Net-(U1-PROG)*%
X120705000Y-102200000D03*
%TD*%
D14*
%TO.P,P2,1*%
%TO.N,VIN*%
X108000000Y-129000000D03*
D15*
%TO.P,P2,2*%
%TO.N,GND*%
X113000000Y-129000000D03*
%TD*%
D12*
%TO.P,C1,1*%
%TO.N,BAT*%
X126000000Y-115000000D03*
%TO.P,C1,2*%
%TO.N,GND*%
X121000000Y-115000000D03*
%TD*%
%TO.P,C9,1*%
%TO.N,VCC*%
X103000000Y-104000000D03*
%TO.P,C9,2*%
%TO.N,GND*%
X103000000Y-109000000D03*
%TD*%
%TO.P,C8,1*%
%TO.N,VIN*%
X104000000Y-120000000D03*
%TO.P,C8,2*%
%TO.N,GND*%
X99000000Y-120000000D03*
%TD*%
D16*
%TO.P,H1,1,1*%
%TO.N,GND*%
X100000000Y-130000000D03*
%TD*%
D12*
%TO.P,C5,1*%
%TO.N,VCC*%
X115000000Y-104000000D03*
%TO.P,C5,2*%
%TO.N,GND*%
X115000000Y-109000000D03*
%TD*%
%TO.P,R2,1*%
%TO.N,VCC*%
X108000000Y-120000000D03*
D13*
%TO.P,R2,2*%
%TO.N,Net-(LED1-A)*%
X110540000Y-120000000D03*
%TD*%
D12*
%TO.P,C10,1*%
%TO.N,VCC*%
X107000000Y-104000000D03*
%TO.P,C10,2*%
%TO.N,GND*%
X107000000Y-109000000D03*
%TD*%
D14*
%TO.P,P1,1*%
%TO.N,GND*%
X119000000Y-129000000D03*
D15*
%TO.P,P1,2*%
%TO.N,BAT*%
X124000000Y-129000000D03*
%TD*%
D12*
%TO.P,C2,1*%
%TO.N,BAT*%
X126000000Y-120000000D03*
%TO.P,C2,2*%
%TO.N,GND*%
X121000000Y-120000000D03*
%TD*%
%TO.P,C4,1*%
%TO.N,VCC*%
X111000000Y-104000000D03*
%TO.P,C4,2*%
%TO.N,GND*%
X111000000Y-109000000D03*
%TD*%
%TO.P,R5,1*%
%TO.N,VCC*%
X108000000Y-116000000D03*
D13*
%TO.P,R5,2*%
%TO.N,Net-(LED2-A)*%
X110540000Y-116000000D03*
%TD*%
D12*
%TO.P,C7,1*%
%TO.N,VIN*%
X104000000Y-124000000D03*
%TO.P,C7,2*%
%TO.N,GND*%
X99000000Y-124000000D03*
%TD*%
D10*
%TO.P,LED2,1,K*%
%TO.N,Net-(LED2-K)*%
X116000000Y-115000000D03*
D11*
%TO.P,LED2,2,A*%
%TO.N,Net-(LED2-A)*%
X113460000Y-115000000D03*
%TD*%
D17*
%TO.P,U1,9,EP*%
%TO.N,GND*%
X121000000Y-106150000D03*
X121000000Y-108000000D03*
X121000000Y-109850000D03*
X122000000Y-106150000D03*
X122000000Y-108000000D03*
X122000000Y-109850000D03*
X123000000Y-106150000D03*
X123000000Y-108000000D03*
X123000000Y-109850000D03*
%TD*%
D18*
%TO.N,GND*%
X108270000Y-125500000D03*
X112080000Y-125500000D03*
X96900000Y-122110000D03*
X119700000Y-122700000D03*
X106260000Y-133600000D03*
X118300000Y-111200000D03*
X106870000Y-111200000D03*
X128600000Y-127040000D03*
X110680000Y-111200000D03*
X120800000Y-103800000D03*
X124970000Y-101500000D03*
X96900000Y-118300000D03*
X109730000Y-101500000D03*
X103570000Y-106800000D03*
X114490000Y-111200000D03*
X115890000Y-125500000D03*
X115000000Y-106800000D03*
X128600000Y-119420000D03*
X128600000Y-130850000D03*
X105920000Y-101500000D03*
X128600000Y-111800000D03*
X117350000Y-101500000D03*
X98300000Y-101500000D03*
X113880000Y-133600000D03*
X96900000Y-125920000D03*
X102110000Y-101500000D03*
X102450000Y-133600000D03*
X108270000Y-122700000D03*
X128600000Y-115610000D03*
X121500000Y-133600000D03*
X115890000Y-122700000D03*
X101500000Y-125770000D03*
X119700000Y-125500000D03*
X113540000Y-101500000D03*
X101500000Y-118150000D03*
X128600000Y-123230000D03*
X111190000Y-106800000D03*
X107380000Y-106800000D03*
X117690000Y-133600000D03*
X112080000Y-122700000D03*
X101500000Y-121960000D03*
X110070000Y-133600000D03*
%TO.N,VCC*%
X99940000Y-110580000D03*
X97400000Y-115660000D03*
X97400000Y-113120000D03*
X97400000Y-108040000D03*
X119900000Y-104600000D03*
X97400000Y-110580000D03*
X99940000Y-108040000D03*
X99940000Y-105500000D03*
X125800000Y-109900000D03*
X99940000Y-115660000D03*
X97400000Y-105500000D03*
X99940000Y-113120000D03*
%TO.N,Net-(LED1-K)*%
X125865000Y-108635000D03*
%TO.N,Net-(LED2-K)*%
X125900000Y-107365000D03*
%TO.N,Net-(U1-PROG)*%
X118035000Y-108635000D03*
%TD*%
D19*
%TO.N,VCC*%
X126900000Y-108800000D02*
X126900000Y-105900000D01*
X125600000Y-104600000D02*
X119900000Y-104600000D01*
X125800000Y-109900000D02*
X126900000Y-108800000D01*
X126900000Y-105900000D02*
X125600000Y-104600000D01*
%TO.N,Net-(LED1-K)*%
X116000000Y-120000000D02*
X116000000Y-117400000D01*
X120600000Y-112800000D02*
X122200000Y-112800000D01*
X116000000Y-117400000D02*
X120600000Y-112800000D01*
X124830000Y-109670000D02*
X125865000Y-108635000D01*
X124830000Y-110170000D02*
X124830000Y-109670000D01*
X122200000Y-112800000D02*
X124830000Y-110170000D01*
D20*
%TO.N,Net-(LED1-A)*%
X110540000Y-120000000D02*
X113460000Y-120000000D01*
%TO.N,Net-(LED2-A)*%
X112460000Y-116000000D02*
X113460000Y-115000000D01*
X110540000Y-116000000D02*
X112460000Y-116000000D01*
D19*
%TO.N,Net-(LED2-K)*%
X124400000Y-109991888D02*
X124400000Y-108900000D01*
X125900000Y-107400000D02*
X125900000Y-107365000D01*
X120421888Y-112370000D02*
X122021888Y-112370000D01*
X116000000Y-115000000D02*
X117791888Y-115000000D01*
X117791888Y-115000000D02*
X120421888Y-112370000D01*
X124400000Y-108900000D02*
X125900000Y-107400000D01*
X122021888Y-112370000D02*
X124400000Y-109991888D01*
D21*
%TO.N,Net-(U1-PROG)*%
X118035000Y-108635000D02*
X118000000Y-108600000D01*
X118000000Y-104905000D02*
X120705000Y-102200000D01*
X118000000Y-108600000D02*
X118000000Y-104905000D01*
%TD*%
%TA.AperFunction,Conductor*%
%TO.N,VCC*%
G36*
X120390599Y-104448117D02*
G01*
X120398037Y-104453100D01*
X120400000Y-104459588D01*
X120400000Y-104740411D01*
X120396573Y-104748684D01*
X120390597Y-104751883D01*
X120005062Y-104829089D01*
X119996277Y-104827354D01*
X119991973Y-104822135D01*
X119900889Y-104604515D01*
X119900857Y-104595563D01*
X119991973Y-104377863D01*
X119998327Y-104371556D01*
X120005059Y-104370910D01*
X120390599Y-104448117D01*
G37*
%TD.AperFunction*%
%TD*%
%TA.AperFunction,Conductor*%
%TO.N,Net-(U1-PROG)*%
G36*
X119976364Y-101898174D02*
G01*
X120701212Y-102197437D01*
X120707551Y-102203762D01*
X120707562Y-102203787D01*
X121006824Y-102928634D01*
X121006813Y-102937589D01*
X121000822Y-102943763D01*
X119757775Y-103504820D01*
X119748825Y-103505100D01*
X119744689Y-103502429D01*
X119402570Y-103160310D01*
X119399143Y-103152037D01*
X119400179Y-103147224D01*
X119826005Y-102203787D01*
X119961236Y-101904176D01*
X119967763Y-101898046D01*
X119976364Y-101898174D01*
G37*
%TD.AperFunction*%
%TD*%
%TA.AperFunction,Conductor*%
%TO.N,Net-(LED1-K)*%
G36*
X116152586Y-118403427D02*
G01*
X116153513Y-118404471D01*
X116694352Y-119092812D01*
X116696769Y-119101435D01*
X116694391Y-119107219D01*
X116009239Y-119989108D01*
X116001457Y-119993539D01*
X115992822Y-119991169D01*
X115990761Y-119989108D01*
X115915183Y-119891829D01*
X115305607Y-119107217D01*
X115303238Y-119098584D01*
X115305646Y-119092813D01*
X115846487Y-118404470D01*
X115854293Y-118400083D01*
X115855687Y-118400000D01*
X116144313Y-118400000D01*
X116152586Y-118403427D01*
G37*
%TD.AperFunction*%
%TD*%
%TA.AperFunction,Conductor*%
%TO.N,Net-(LED2-K)*%
G36*
X116708156Y-114306408D02*
G01*
X117395529Y-114846487D01*
X117399917Y-114854293D01*
X117400000Y-114855687D01*
X117400000Y-115144312D01*
X117396573Y-115152585D01*
X117395529Y-115153512D01*
X116708156Y-115693591D01*
X116699533Y-115696008D01*
X116692660Y-115692670D01*
X116152731Y-115153512D01*
X116007289Y-115008277D01*
X116003857Y-115000008D01*
X116007277Y-114991734D01*
X116692660Y-114307328D01*
X116700935Y-114303908D01*
X116708156Y-114306408D01*
G37*
%TD.AperFunction*%
%TD*%
%TA.AperFunction,Conductor*%
%TO.N,Net-(LED1-K)*%
G36*
X125642890Y-108542960D02*
G01*
X125861175Y-108632435D01*
X125867531Y-108638744D01*
X125867564Y-108638824D01*
X125957038Y-108857107D01*
X125957005Y-108866061D01*
X125952700Y-108871281D01*
X125625492Y-109089301D01*
X125616707Y-109091036D01*
X125610731Y-109087837D01*
X125412162Y-108889268D01*
X125408735Y-108880995D01*
X125410698Y-108874507D01*
X125628720Y-108547297D01*
X125636158Y-108542315D01*
X125642890Y-108542960D01*
G37*
%TD.AperFunction*%
%TD*%
%TA.AperFunction,Conductor*%
%TO.N,Net-(LED2-K)*%
G36*
X125678459Y-107273194D02*
G01*
X125898511Y-107363393D01*
X125902379Y-107365978D01*
X126067228Y-107532152D01*
X126070622Y-107540439D01*
X126067162Y-107548698D01*
X126065858Y-107549814D01*
X125681592Y-107832676D01*
X125672898Y-107834821D01*
X125666383Y-107831527D01*
X125467730Y-107632874D01*
X125464303Y-107624601D01*
X125465887Y-107618722D01*
X125663908Y-107278137D01*
X125671028Y-107272710D01*
X125678459Y-107273194D01*
G37*
%TD.AperFunction*%
%TD*%
%TA.AperFunction,Conductor*%
%TO.N,VCC*%
G36*
X126054268Y-109447162D02*
G01*
X126252837Y-109645731D01*
X126256264Y-109654004D01*
X126254301Y-109660492D01*
X126036281Y-109987700D01*
X126028841Y-109992684D01*
X126022107Y-109992038D01*
X125803824Y-109902564D01*
X125797468Y-109896255D01*
X125797435Y-109896175D01*
X125707961Y-109677890D01*
X125707994Y-109668938D01*
X125712296Y-109663721D01*
X126039507Y-109445697D01*
X126048292Y-109443963D01*
X126054268Y-109447162D01*
G37*
%TD.AperFunction*%
%TD*%
%TA.AperFunction,Conductor*%
%TO.N,VCC*%
G36*
X99906061Y-104800597D02*
G01*
X100082941Y-104818018D01*
X100106769Y-104822757D01*
X100271001Y-104872576D01*
X100293453Y-104881877D01*
X100444798Y-104962772D01*
X100465010Y-104976277D01*
X100597666Y-105085145D01*
X100614854Y-105102333D01*
X100723722Y-105234989D01*
X100737227Y-105255201D01*
X100818121Y-105406543D01*
X100827424Y-105429001D01*
X100877240Y-105593224D01*
X100881982Y-105617065D01*
X100899403Y-105793938D01*
X100900000Y-105806092D01*
X100900000Y-115493907D01*
X100899403Y-115506061D01*
X100881982Y-115682934D01*
X100877240Y-115706775D01*
X100827424Y-115870998D01*
X100818121Y-115893456D01*
X100737227Y-116044798D01*
X100723722Y-116065010D01*
X100614854Y-116197666D01*
X100597666Y-116214854D01*
X100465010Y-116323722D01*
X100444798Y-116337227D01*
X100293456Y-116418121D01*
X100270998Y-116427424D01*
X100106775Y-116477240D01*
X100082934Y-116481982D01*
X99906061Y-116499403D01*
X99893907Y-116500000D01*
X97806093Y-116500000D01*
X97793939Y-116499403D01*
X97617065Y-116481982D01*
X97593224Y-116477240D01*
X97429001Y-116427424D01*
X97406543Y-116418121D01*
X97255201Y-116337227D01*
X97234989Y-116323722D01*
X97102333Y-116214854D01*
X97085145Y-116197666D01*
X96976277Y-116065010D01*
X96962772Y-116044798D01*
X96881878Y-115893456D01*
X96872575Y-115870998D01*
X96822757Y-115706769D01*
X96818018Y-115682941D01*
X96800597Y-115506061D01*
X96800000Y-115493907D01*
X96800000Y-105806092D01*
X96800597Y-105793938D01*
X96818018Y-105617056D01*
X96822757Y-105593232D01*
X96872577Y-105428994D01*
X96881875Y-105406549D01*
X96962775Y-105255195D01*
X96976272Y-105234995D01*
X97085149Y-105102328D01*
X97102328Y-105085149D01*
X97234995Y-104976272D01*
X97255195Y-104962775D01*
X97406549Y-104881875D01*
X97428994Y-104872577D01*
X97593232Y-104822757D01*
X97617056Y-104818018D01*
X97793939Y-104800597D01*
X97806093Y-104800000D01*
X99893907Y-104800000D01*
X99906061Y-104800597D01*
G37*
%TD.AperFunction*%
%TD*%
%TA.AperFunction,Conductor*%
%TO.N,GND*%
G36*
X125002702Y-100200617D02*
G01*
X125412917Y-100218528D01*
X125423654Y-100219468D01*
X125828057Y-100272708D01*
X125838695Y-100274583D01*
X126236925Y-100362869D01*
X126247365Y-100365667D01*
X126636363Y-100488317D01*
X126646524Y-100492015D01*
X127023363Y-100648108D01*
X127033155Y-100652674D01*
X127394965Y-100841020D01*
X127404305Y-100846413D01*
X127689636Y-101028189D01*
X127748309Y-101065568D01*
X127757170Y-101071772D01*
X128080766Y-101320076D01*
X128089053Y-101327030D01*
X128389767Y-101602583D01*
X128397416Y-101610232D01*
X128672969Y-101910946D01*
X128679923Y-101919233D01*
X128928227Y-102242829D01*
X128934431Y-102251690D01*
X129153578Y-102595680D01*
X129158983Y-102605042D01*
X129285004Y-102847126D01*
X129347322Y-102966838D01*
X129351894Y-102976642D01*
X129507983Y-103353473D01*
X129511683Y-103363639D01*
X129634331Y-103752630D01*
X129637131Y-103763078D01*
X129725414Y-104161296D01*
X129727292Y-104171950D01*
X129780529Y-104576326D01*
X129781472Y-104587102D01*
X129799382Y-104997297D01*
X129799500Y-105002706D01*
X129799500Y-129997293D01*
X129799382Y-130002702D01*
X129781472Y-130412897D01*
X129780529Y-130423673D01*
X129727292Y-130828049D01*
X129725414Y-130838703D01*
X129637131Y-131236921D01*
X129634331Y-131247369D01*
X129511683Y-131636360D01*
X129507983Y-131646526D01*
X129351894Y-132023357D01*
X129347322Y-132033161D01*
X129158987Y-132394951D01*
X129153578Y-132404319D01*
X128934431Y-132748309D01*
X128928227Y-132757170D01*
X128679923Y-133080766D01*
X128672969Y-133089053D01*
X128397416Y-133389767D01*
X128389767Y-133397416D01*
X128089053Y-133672969D01*
X128080766Y-133679923D01*
X127757170Y-133928227D01*
X127748309Y-133934431D01*
X127404319Y-134153578D01*
X127394951Y-134158987D01*
X127033161Y-134347322D01*
X127023357Y-134351894D01*
X126646526Y-134507983D01*
X126636360Y-134511683D01*
X126247369Y-134634331D01*
X126236921Y-134637131D01*
X125838703Y-134725414D01*
X125828049Y-134727292D01*
X125423673Y-134780529D01*
X125412897Y-134781472D01*
X125002703Y-134799382D01*
X124997294Y-134799500D01*
X100002706Y-134799500D01*
X99997297Y-134799382D01*
X99587102Y-134781472D01*
X99576326Y-134780529D01*
X99171950Y-134727292D01*
X99161296Y-134725414D01*
X98763078Y-134637131D01*
X98752630Y-134634331D01*
X98363639Y-134511683D01*
X98353473Y-134507983D01*
X97976642Y-134351894D01*
X97966838Y-134347322D01*
X97847126Y-134285004D01*
X97605042Y-134158983D01*
X97595686Y-134153582D01*
X97423685Y-134044004D01*
X97251690Y-133934431D01*
X97242829Y-133928227D01*
X96919233Y-133679923D01*
X96910946Y-133672969D01*
X96610232Y-133397416D01*
X96602583Y-133389767D01*
X96327030Y-133089053D01*
X96320076Y-133080766D01*
X96071772Y-132757170D01*
X96065568Y-132748309D01*
X96012070Y-132664334D01*
X95846413Y-132404305D01*
X95841020Y-132394965D01*
X95652674Y-132033155D01*
X95648105Y-132023357D01*
X95492016Y-131646526D01*
X95488316Y-131636360D01*
X95365668Y-131247369D01*
X95362868Y-131236921D01*
X95274585Y-130838703D01*
X95272707Y-130828049D01*
X95255915Y-130700499D01*
X95219468Y-130423654D01*
X95218528Y-130412917D01*
X95200618Y-130002702D01*
X95200500Y-129997293D01*
X95200500Y-127668475D01*
X106299500Y-127668475D01*
X106299500Y-130331517D01*
X106299772Y-130333232D01*
X106314354Y-130425304D01*
X106371950Y-130538342D01*
X106371952Y-130538344D01*
X106371954Y-130538347D01*
X106461652Y-130628045D01*
X106461654Y-130628046D01*
X106461658Y-130628050D01*
X106574694Y-130685645D01*
X106574698Y-130685647D01*
X106668475Y-130700499D01*
X106668481Y-130700500D01*
X109331518Y-130700499D01*
X109425304Y-130685646D01*
X109538342Y-130628050D01*
X109628050Y-130538342D01*
X109685646Y-130425304D01*
X109685646Y-130425302D01*
X109685647Y-130425301D01*
X109696282Y-130358147D01*
X109700500Y-130331519D01*
X109700499Y-128999995D01*
X122294732Y-128999995D01*
X122294732Y-129000004D01*
X122313777Y-129254154D01*
X122313778Y-129254157D01*
X122370492Y-129502637D01*
X122463607Y-129739888D01*
X122591041Y-129960612D01*
X122749950Y-130159877D01*
X122936783Y-130333232D01*
X123147366Y-130476805D01*
X123147371Y-130476807D01*
X123147372Y-130476808D01*
X123147373Y-130476809D01*
X123269328Y-130535538D01*
X123376992Y-130587387D01*
X123376993Y-130587387D01*
X123376996Y-130587389D01*
X123620542Y-130662513D01*
X123872565Y-130700500D01*
X124127435Y-130700500D01*
X124379458Y-130662513D01*
X124623004Y-130587389D01*
X124852634Y-130476805D01*
X125063217Y-130333232D01*
X125250050Y-130159877D01*
X125408959Y-129960612D01*
X125536393Y-129739888D01*
X125629508Y-129502637D01*
X125686222Y-129254157D01*
X125705268Y-129000000D01*
X125686222Y-128745843D01*
X125629508Y-128497363D01*
X125536393Y-128260112D01*
X125408959Y-128039388D01*
X125250050Y-127840123D01*
X125063217Y-127666768D01*
X124852634Y-127523195D01*
X124852630Y-127523193D01*
X124852627Y-127523191D01*
X124852626Y-127523190D01*
X124623006Y-127412612D01*
X124623008Y-127412612D01*
X124379466Y-127337489D01*
X124379462Y-127337488D01*
X124379458Y-127337487D01*
X124258231Y-127319214D01*
X124127440Y-127299500D01*
X124127435Y-127299500D01*
X123872565Y-127299500D01*
X123872559Y-127299500D01*
X123715609Y-127323157D01*
X123620542Y-127337487D01*
X123620539Y-127337488D01*
X123620533Y-127337489D01*
X123376992Y-127412612D01*
X123147373Y-127523190D01*
X123147372Y-127523191D01*
X122936782Y-127666768D01*
X122749952Y-127840121D01*
X122749950Y-127840123D01*
X122591041Y-128039388D01*
X122463608Y-128260109D01*
X122370492Y-128497362D01*
X122370490Y-128497369D01*
X122313777Y-128745845D01*
X122294732Y-128999995D01*
X109700499Y-128999995D01*
X109700499Y-127668482D01*
X109685646Y-127574696D01*
X109628050Y-127461658D01*
X109628046Y-127461654D01*
X109628045Y-127461652D01*
X109538347Y-127371954D01*
X109538344Y-127371952D01*
X109538342Y-127371950D01*
X109461517Y-127332805D01*
X109425301Y-127314352D01*
X109331524Y-127299500D01*
X106668482Y-127299500D01*
X106587519Y-127312323D01*
X106574696Y-127314354D01*
X106461658Y-127371950D01*
X106461657Y-127371951D01*
X106461652Y-127371954D01*
X106371954Y-127461652D01*
X106371951Y-127461657D01*
X106314352Y-127574698D01*
X106299500Y-127668475D01*
X95200500Y-127668475D01*
X95200500Y-123999999D01*
X102794357Y-123999999D01*
X102794357Y-124000000D01*
X102814884Y-124221535D01*
X102814885Y-124221537D01*
X102875769Y-124435523D01*
X102875775Y-124435538D01*
X102974938Y-124634683D01*
X102974943Y-124634691D01*
X103109020Y-124812238D01*
X103273437Y-124962123D01*
X103273439Y-124962125D01*
X103462595Y-125079245D01*
X103462596Y-125079245D01*
X103462599Y-125079247D01*
X103670060Y-125159618D01*
X103888757Y-125200500D01*
X103888759Y-125200500D01*
X104111241Y-125200500D01*
X104111243Y-125200500D01*
X104329940Y-125159618D01*
X104537401Y-125079247D01*
X104726562Y-124962124D01*
X104890981Y-124812236D01*
X105025058Y-124634689D01*
X105124229Y-124435528D01*
X105185115Y-124221536D01*
X105205643Y-124000000D01*
X105185115Y-123778464D01*
X105124229Y-123564472D01*
X105124224Y-123564461D01*
X105025061Y-123365316D01*
X105025056Y-123365308D01*
X104890979Y-123187761D01*
X104726562Y-123037876D01*
X104726560Y-123037874D01*
X104537404Y-122920754D01*
X104537398Y-122920752D01*
X104329940Y-122840382D01*
X104111243Y-122799500D01*
X103888757Y-122799500D01*
X103670060Y-122840382D01*
X103538864Y-122891207D01*
X103462601Y-122920752D01*
X103462595Y-122920754D01*
X103273439Y-123037874D01*
X103273437Y-123037876D01*
X103109020Y-123187761D01*
X102974943Y-123365308D01*
X102974938Y-123365316D01*
X102875775Y-123564461D01*
X102875769Y-123564476D01*
X102814885Y-123778462D01*
X102814884Y-123778464D01*
X102794357Y-123999999D01*
X95200500Y-123999999D01*
X95200500Y-119999999D01*
X102794357Y-119999999D01*
X102794357Y-120000000D01*
X102814884Y-120221535D01*
X102814885Y-120221537D01*
X102875769Y-120435523D01*
X102875775Y-120435538D01*
X102974938Y-120634683D01*
X102974943Y-120634691D01*
X103109020Y-120812238D01*
X103273437Y-120962123D01*
X103273439Y-120962125D01*
X103462595Y-121079245D01*
X103462596Y-121079245D01*
X103462599Y-121079247D01*
X103670060Y-121159618D01*
X103888757Y-121200500D01*
X103888759Y-121200500D01*
X104111241Y-121200500D01*
X104111243Y-121200500D01*
X104329940Y-121159618D01*
X104537401Y-121079247D01*
X104726562Y-120962124D01*
X104890981Y-120812236D01*
X105025058Y-120634689D01*
X105124229Y-120435528D01*
X105185115Y-120221536D01*
X105205643Y-120000000D01*
X105205643Y-119999999D01*
X106794357Y-119999999D01*
X106794357Y-120000000D01*
X106814884Y-120221535D01*
X106814885Y-120221537D01*
X106875769Y-120435523D01*
X106875775Y-120435538D01*
X106974938Y-120634683D01*
X106974943Y-120634691D01*
X107109020Y-120812238D01*
X107273437Y-120962123D01*
X107273439Y-120962125D01*
X107462595Y-121079245D01*
X107462596Y-121079245D01*
X107462599Y-121079247D01*
X107670060Y-121159618D01*
X107888757Y-121200500D01*
X107888759Y-121200500D01*
X108111241Y-121200500D01*
X108111243Y-121200500D01*
X108329940Y-121159618D01*
X108537401Y-121079247D01*
X108726562Y-120962124D01*
X108890981Y-120812236D01*
X109025058Y-120634689D01*
X109124229Y-120435528D01*
X109150734Y-120342371D01*
X109188013Y-120283278D01*
X109251323Y-120253721D01*
X109320562Y-120263083D01*
X109373749Y-120308393D01*
X109389266Y-120342372D01*
X109415769Y-120435523D01*
X109415775Y-120435538D01*
X109514938Y-120634683D01*
X109514943Y-120634691D01*
X109649020Y-120812238D01*
X109813437Y-120962123D01*
X109813439Y-120962125D01*
X110002595Y-121079245D01*
X110002596Y-121079245D01*
X110002599Y-121079247D01*
X110210060Y-121159618D01*
X110428757Y-121200500D01*
X110428759Y-121200500D01*
X110651241Y-121200500D01*
X110651243Y-121200500D01*
X110869940Y-121159618D01*
X110871861Y-121158873D01*
X110873889Y-121158494D01*
X110875455Y-121158049D01*
X110875496Y-121158194D01*
X110916655Y-121150500D01*
X112871632Y-121150500D01*
X112927926Y-121164014D01*
X113037555Y-121219873D01*
X113202299Y-121273402D01*
X113373389Y-121300500D01*
X113373390Y-121300500D01*
X113546610Y-121300500D01*
X113546611Y-121300500D01*
X113717701Y-121273402D01*
X113882445Y-121219873D01*
X114036788Y-121141232D01*
X114176928Y-121039414D01*
X114299414Y-120916928D01*
X114401232Y-120776788D01*
X114479873Y-120622445D01*
X114533402Y-120457701D01*
X114543679Y-120392805D01*
X114548216Y-120373909D01*
X114582171Y-120269409D01*
X114597623Y-120171847D01*
X114610500Y-120090551D01*
X114610500Y-119909448D01*
X114582171Y-119730590D01*
X114569504Y-119691606D01*
X114548217Y-119626092D01*
X114543678Y-119607181D01*
X114533402Y-119542301D01*
X114533402Y-119542299D01*
X114479873Y-119377555D01*
X114479871Y-119377552D01*
X114479871Y-119377550D01*
X114401231Y-119223211D01*
X114375475Y-119187761D01*
X114299414Y-119083072D01*
X114296141Y-119079799D01*
X114898173Y-119079799D01*
X114898740Y-119084896D01*
X114899500Y-119098604D01*
X114899500Y-120931517D01*
X114904348Y-120962124D01*
X114914354Y-121025304D01*
X114971950Y-121138342D01*
X114971952Y-121138344D01*
X114971954Y-121138347D01*
X115061652Y-121228045D01*
X115061654Y-121228046D01*
X115061658Y-121228050D01*
X115174694Y-121285645D01*
X115174698Y-121285647D01*
X115268475Y-121300499D01*
X115268481Y-121300500D01*
X116731518Y-121300499D01*
X116825304Y-121285646D01*
X116938342Y-121228050D01*
X117028050Y-121138342D01*
X117085646Y-121025304D01*
X117085646Y-121025302D01*
X117085647Y-121025301D01*
X117100499Y-120931524D01*
X117100500Y-120931519D01*
X117100499Y-119999999D01*
X124794357Y-119999999D01*
X124794357Y-120000000D01*
X124814884Y-120221535D01*
X124814885Y-120221537D01*
X124875769Y-120435523D01*
X124875775Y-120435538D01*
X124974938Y-120634683D01*
X124974943Y-120634691D01*
X125109020Y-120812238D01*
X125273437Y-120962123D01*
X125273439Y-120962125D01*
X125462595Y-121079245D01*
X125462596Y-121079245D01*
X125462599Y-121079247D01*
X125670060Y-121159618D01*
X125888757Y-121200500D01*
X125888759Y-121200500D01*
X126111241Y-121200500D01*
X126111243Y-121200500D01*
X126329940Y-121159618D01*
X126537401Y-121079247D01*
X126726562Y-120962124D01*
X126890981Y-120812236D01*
X127025058Y-120634689D01*
X127124229Y-120435528D01*
X127185115Y-120221536D01*
X127205643Y-120000000D01*
X127185115Y-119778464D01*
X127124229Y-119564472D01*
X127124224Y-119564461D01*
X127025061Y-119365316D01*
X127025056Y-119365308D01*
X126890979Y-119187761D01*
X126726562Y-119037876D01*
X126726560Y-119037874D01*
X126537404Y-118920754D01*
X126537398Y-118920752D01*
X126509262Y-118909852D01*
X126329940Y-118840382D01*
X126111243Y-118799500D01*
X125888757Y-118799500D01*
X125670060Y-118840382D01*
X125615138Y-118861659D01*
X125462601Y-118920752D01*
X125462595Y-118920754D01*
X125273439Y-119037874D01*
X125273437Y-119037876D01*
X125109020Y-119187761D01*
X124974943Y-119365308D01*
X124974938Y-119365316D01*
X124875775Y-119564461D01*
X124875769Y-119564476D01*
X124814885Y-119778462D01*
X124814884Y-119778464D01*
X124794357Y-119999999D01*
X117100499Y-119999999D01*
X117100499Y-119137453D01*
X117101579Y-119126577D01*
X117101928Y-119118012D01*
X117101930Y-119118005D01*
X117101335Y-119112905D01*
X117100499Y-119098532D01*
X117100499Y-119068482D01*
X117095652Y-119037876D01*
X117085646Y-118974696D01*
X117078975Y-118961605D01*
X117075770Y-118954811D01*
X117075016Y-118953081D01*
X117075015Y-118953080D01*
X117075015Y-118953078D01*
X117073441Y-118950256D01*
X117071717Y-118947165D01*
X117069526Y-118943057D01*
X117043714Y-118892400D01*
X117028050Y-118861658D01*
X117028047Y-118861655D01*
X117023966Y-118856037D01*
X117015396Y-118845577D01*
X117013209Y-118842293D01*
X117013207Y-118842290D01*
X117013204Y-118842285D01*
X116576996Y-118287110D01*
X116551056Y-118222234D01*
X116550500Y-118210500D01*
X116550500Y-117679387D01*
X116570185Y-117612348D01*
X116586819Y-117591706D01*
X119178526Y-114999999D01*
X124794357Y-114999999D01*
X124794357Y-115000000D01*
X124814884Y-115221535D01*
X124814885Y-115221537D01*
X124875769Y-115435523D01*
X124875775Y-115435538D01*
X124974938Y-115634683D01*
X124974943Y-115634691D01*
X125109020Y-115812238D01*
X125273437Y-115962123D01*
X125273439Y-115962125D01*
X125462595Y-116079245D01*
X125462596Y-116079245D01*
X125462599Y-116079247D01*
X125670060Y-116159618D01*
X125888757Y-116200500D01*
X125888759Y-116200500D01*
X126111241Y-116200500D01*
X126111243Y-116200500D01*
X126329940Y-116159618D01*
X126537401Y-116079247D01*
X126726562Y-115962124D01*
X126890981Y-115812236D01*
X127025058Y-115634689D01*
X127124229Y-115435528D01*
X127185115Y-115221536D01*
X127205643Y-115000000D01*
X127185115Y-114778464D01*
X127124229Y-114564472D01*
X127124224Y-114564461D01*
X127025061Y-114365316D01*
X127025056Y-114365308D01*
X126890979Y-114187761D01*
X126726562Y-114037876D01*
X126726560Y-114037874D01*
X126537404Y-113920754D01*
X126537398Y-113920752D01*
X126329940Y-113840382D01*
X126111243Y-113799500D01*
X125888757Y-113799500D01*
X125670060Y-113840382D01*
X125538864Y-113891207D01*
X125462601Y-113920752D01*
X125462595Y-113920754D01*
X125273439Y-114037874D01*
X125273437Y-114037876D01*
X125109020Y-114187761D01*
X124974943Y-114365308D01*
X124974938Y-114365316D01*
X124875775Y-114564461D01*
X124875769Y-114564476D01*
X124814885Y-114778462D01*
X124814884Y-114778464D01*
X124794357Y-114999999D01*
X119178526Y-114999999D01*
X120791706Y-113386819D01*
X120853029Y-113353334D01*
X120879387Y-113350500D01*
X122272472Y-113350500D01*
X122272474Y-113350500D01*
X122272475Y-113350500D01*
X122412485Y-113312984D01*
X122538015Y-113240510D01*
X125270510Y-110508014D01*
X125277979Y-110495076D01*
X125328544Y-110446861D01*
X125397151Y-110433636D01*
X125442993Y-110447279D01*
X125567634Y-110512696D01*
X125721014Y-110550500D01*
X125721015Y-110550500D01*
X125878985Y-110550500D01*
X126032365Y-110512696D01*
X126065933Y-110495078D01*
X126172240Y-110439283D01*
X126290483Y-110334530D01*
X126380220Y-110204523D01*
X126380224Y-110204510D01*
X126381431Y-110202213D01*
X126388038Y-110191076D01*
X126582078Y-109899857D01*
X126597580Y-109880943D01*
X127340510Y-109138015D01*
X127412984Y-109012485D01*
X127450500Y-108872474D01*
X127450500Y-108727526D01*
X127450500Y-105827525D01*
X127412984Y-105687515D01*
X127349362Y-105577318D01*
X127340510Y-105561986D01*
X125938015Y-104159490D01*
X125812485Y-104087016D01*
X125812483Y-104087015D01*
X125800338Y-104083761D01*
X125800338Y-104083760D01*
X125695875Y-104055770D01*
X125672475Y-104049500D01*
X125672474Y-104049500D01*
X120477467Y-104049500D01*
X120453119Y-104047086D01*
X120200544Y-103996506D01*
X120138674Y-103964041D01*
X120104179Y-103903280D01*
X120108009Y-103833516D01*
X120148948Y-103776897D01*
X120173876Y-103761900D01*
X121167642Y-103313359D01*
X121190329Y-103302256D01*
X121190339Y-103302247D01*
X121193413Y-103300367D01*
X121213365Y-103290494D01*
X121242401Y-103279247D01*
X121431562Y-103162124D01*
X121595981Y-103012236D01*
X121730058Y-102834689D01*
X121829229Y-102635528D01*
X121890115Y-102421536D01*
X121910643Y-102200000D01*
X121890115Y-101978464D01*
X121829229Y-101764472D01*
X121829224Y-101764461D01*
X121730061Y-101565316D01*
X121730056Y-101565308D01*
X121595979Y-101387761D01*
X121431562Y-101237876D01*
X121431560Y-101237874D01*
X121242404Y-101120754D01*
X121242398Y-101120752D01*
X121034940Y-101040382D01*
X120816243Y-100999500D01*
X120593757Y-100999500D01*
X120375060Y-101040382D01*
X120243864Y-101091207D01*
X120167601Y-101120752D01*
X120167595Y-101120754D01*
X119978439Y-101237874D01*
X119978437Y-101237876D01*
X119814020Y-101387761D01*
X119679943Y-101565308D01*
X119679941Y-101565312D01*
X119605823Y-101714158D01*
X119598479Y-101726939D01*
X119591647Y-101737345D01*
X119591640Y-101737357D01*
X119456409Y-102036967D01*
X119061236Y-102912488D01*
X119035896Y-102949156D01*
X117494726Y-104490326D01*
X117483418Y-104507250D01*
X117436487Y-104577490D01*
X117433677Y-104581695D01*
X117423533Y-104596876D01*
X117374499Y-104715255D01*
X117374497Y-104715261D01*
X117349500Y-104840928D01*
X117349500Y-108664070D01*
X117362123Y-108727525D01*
X117362123Y-108727527D01*
X117364163Y-108737785D01*
X117374499Y-108789744D01*
X117423535Y-108908127D01*
X117493264Y-109012485D01*
X117494726Y-109014673D01*
X117525255Y-109045201D01*
X117539626Y-109062445D01*
X117544514Y-109069527D01*
X117544517Y-109069531D01*
X117586133Y-109106399D01*
X117591572Y-109111518D01*
X117618067Y-109138013D01*
X117620331Y-109140277D01*
X117629762Y-109146578D01*
X117643098Y-109156864D01*
X117652338Y-109165049D01*
X117662757Y-109174281D01*
X117662758Y-109174281D01*
X117662760Y-109174283D01*
X117696423Y-109191950D01*
X117707683Y-109198642D01*
X117726873Y-109211465D01*
X117753621Y-109222544D01*
X117763776Y-109227300D01*
X117802635Y-109247696D01*
X117816344Y-109251075D01*
X117822434Y-109252576D01*
X117840211Y-109258411D01*
X117845256Y-109260501D01*
X117890891Y-109269578D01*
X117896307Y-109270783D01*
X117956015Y-109285500D01*
X118113986Y-109285500D01*
X118124610Y-109282881D01*
X118173697Y-109270781D01*
X118179122Y-109269574D01*
X118224743Y-109260501D01*
X118229789Y-109258410D01*
X118247562Y-109252575D01*
X118267365Y-109247696D01*
X118306218Y-109227303D01*
X118316397Y-109222536D01*
X118329624Y-109217056D01*
X118343126Y-109211465D01*
X118362320Y-109198639D01*
X118373574Y-109191953D01*
X118407237Y-109174285D01*
X118407238Y-109174283D01*
X118407240Y-109174283D01*
X118426909Y-109156857D01*
X118440243Y-109146574D01*
X118449669Y-109140276D01*
X118478425Y-109111518D01*
X118483866Y-109106398D01*
X118525483Y-109069530D01*
X118530531Y-109062214D01*
X118536742Y-109053972D01*
X118540265Y-109049679D01*
X118540276Y-109049669D01*
X118572610Y-109001274D01*
X118573617Y-108999794D01*
X118615218Y-108939526D01*
X118615218Y-108939525D01*
X118615220Y-108939523D01*
X118639106Y-108876536D01*
X118640473Y-108873092D01*
X118660501Y-108824743D01*
X118660503Y-108824728D01*
X118661189Y-108822470D01*
X118666092Y-108805381D01*
X118671237Y-108791818D01*
X118677232Y-108742439D01*
X118678711Y-108733188D01*
X118679838Y-108727527D01*
X118685499Y-108699068D01*
X118685499Y-108681859D01*
X118686403Y-108666912D01*
X118686748Y-108664069D01*
X118690278Y-108635000D01*
X118686403Y-108603086D01*
X118685499Y-108588140D01*
X118685499Y-108570932D01*
X118685499Y-108570931D01*
X118678706Y-108536781D01*
X118677232Y-108527561D01*
X118671237Y-108478184D01*
X118671236Y-108478179D01*
X118670596Y-108476492D01*
X118666093Y-108464621D01*
X118661203Y-108447573D01*
X118660503Y-108445266D01*
X118660501Y-108445256D01*
X118659937Y-108443896D01*
X118659651Y-108442456D01*
X118658732Y-108439425D01*
X118659030Y-108439334D01*
X118650500Y-108396446D01*
X118650500Y-105225807D01*
X118670185Y-105158768D01*
X118686815Y-105138130D01*
X119074356Y-104750588D01*
X119135677Y-104717105D01*
X119205368Y-104722089D01*
X119261302Y-104763960D01*
X119277977Y-104794299D01*
X119308308Y-104874274D01*
X119319780Y-104904523D01*
X119409517Y-105034530D01*
X119527760Y-105139283D01*
X119527762Y-105139284D01*
X119667634Y-105212696D01*
X119821014Y-105250500D01*
X119821015Y-105250500D01*
X119978987Y-105250500D01*
X119978987Y-105250499D01*
X120061619Y-105230131D01*
X120079877Y-105227540D01*
X120079846Y-105227274D01*
X120084680Y-105226695D01*
X120084685Y-105226695D01*
X120453116Y-105152913D01*
X120477464Y-105150500D01*
X125320613Y-105150500D01*
X125387652Y-105170185D01*
X125408294Y-105186819D01*
X126313181Y-106091705D01*
X126346666Y-106153028D01*
X126349500Y-106179386D01*
X126349500Y-106661144D01*
X126329815Y-106728183D01*
X126277011Y-106773938D01*
X126207853Y-106783882D01*
X126167874Y-106770941D01*
X126132365Y-106752304D01*
X126132362Y-106752303D01*
X125978986Y-106714500D01*
X125978985Y-106714500D01*
X125821015Y-106714500D01*
X125821014Y-106714500D01*
X125667634Y-106752303D01*
X125527762Y-106825715D01*
X125409516Y-106930471D01*
X125319781Y-107060473D01*
X125318190Y-107063505D01*
X125311614Y-107077308D01*
X125135608Y-107380028D01*
X125116091Y-107405382D01*
X123959491Y-108561983D01*
X123959489Y-108561986D01*
X123887016Y-108687514D01*
X123883920Y-108699068D01*
X123849500Y-108827525D01*
X123849500Y-108827527D01*
X123849500Y-109712501D01*
X123829815Y-109779540D01*
X123813181Y-109800182D01*
X121830182Y-111783181D01*
X121768859Y-111816666D01*
X121742501Y-111819500D01*
X120349413Y-111819500D01*
X120265407Y-111842009D01*
X120209401Y-111857016D01*
X120209400Y-111857017D01*
X120083877Y-111929487D01*
X120083872Y-111929491D01*
X117634060Y-114379302D01*
X117572737Y-114412787D01*
X117503045Y-114407803D01*
X117469769Y-114389124D01*
X117144270Y-114133373D01*
X117103717Y-114076476D01*
X117098406Y-114055267D01*
X117095652Y-114037876D01*
X117085646Y-113974696D01*
X117028050Y-113861658D01*
X117028046Y-113861654D01*
X117028045Y-113861652D01*
X116938347Y-113771954D01*
X116938344Y-113771952D01*
X116938342Y-113771950D01*
X116849332Y-113726597D01*
X116825301Y-113714352D01*
X116731524Y-113699500D01*
X115268482Y-113699500D01*
X115187519Y-113712323D01*
X115174696Y-113714354D01*
X115061658Y-113771950D01*
X115061657Y-113771951D01*
X115061652Y-113771954D01*
X114971954Y-113861652D01*
X114971951Y-113861657D01*
X114914352Y-113974698D01*
X114899500Y-114068475D01*
X114899500Y-115931517D01*
X114910292Y-115999657D01*
X114914354Y-116025304D01*
X114971950Y-116138342D01*
X114971952Y-116138344D01*
X114971954Y-116138347D01*
X115061652Y-116228045D01*
X115061654Y-116228046D01*
X115061658Y-116228050D01*
X115170049Y-116283278D01*
X115174698Y-116285647D01*
X115268475Y-116300499D01*
X115268481Y-116300500D01*
X116021612Y-116300499D01*
X116088651Y-116320183D01*
X116134406Y-116372987D01*
X116144350Y-116442146D01*
X116115325Y-116505702D01*
X116109293Y-116512180D01*
X115559491Y-117061983D01*
X115559489Y-117061985D01*
X115508387Y-117150500D01*
X115508386Y-117150501D01*
X115487017Y-117187512D01*
X115487016Y-117187513D01*
X115468258Y-117257520D01*
X115449500Y-117327525D01*
X115449500Y-117327527D01*
X115449500Y-118210499D01*
X115429815Y-118277538D01*
X115423004Y-118287109D01*
X114987058Y-118841951D01*
X114986789Y-118842293D01*
X114984425Y-118845761D01*
X114983889Y-118845395D01*
X114977515Y-118853638D01*
X114977686Y-118853763D01*
X114971948Y-118861661D01*
X114950676Y-118903405D01*
X114947146Y-118909852D01*
X114931419Y-118936657D01*
X114929008Y-118942437D01*
X114924853Y-118952902D01*
X114920096Y-118963424D01*
X114914355Y-118974693D01*
X114914352Y-118974701D01*
X114899500Y-119068473D01*
X114899486Y-119068656D01*
X114898303Y-119076991D01*
X114898173Y-119079799D01*
X114296141Y-119079799D01*
X114176928Y-118960586D01*
X114036788Y-118858768D01*
X113882445Y-118780127D01*
X113717701Y-118726598D01*
X113717699Y-118726597D01*
X113717698Y-118726597D01*
X113586271Y-118705781D01*
X113546611Y-118699500D01*
X113373389Y-118699500D01*
X113333728Y-118705781D01*
X113202302Y-118726597D01*
X113037552Y-118780128D01*
X112927927Y-118835985D01*
X112871632Y-118849500D01*
X110916655Y-118849500D01*
X110875496Y-118841805D01*
X110875455Y-118841951D01*
X110873889Y-118841505D01*
X110871861Y-118841126D01*
X110869940Y-118840382D01*
X110651243Y-118799500D01*
X110428757Y-118799500D01*
X110210060Y-118840382D01*
X110155138Y-118861659D01*
X110002601Y-118920752D01*
X110002595Y-118920754D01*
X109813439Y-119037874D01*
X109813437Y-119037876D01*
X109649020Y-119187761D01*
X109514943Y-119365308D01*
X109514938Y-119365316D01*
X109415775Y-119564461D01*
X109415769Y-119564476D01*
X109389266Y-119657627D01*
X109351987Y-119716721D01*
X109288677Y-119746278D01*
X109219438Y-119736916D01*
X109166251Y-119691606D01*
X109150734Y-119657627D01*
X109124230Y-119564476D01*
X109124229Y-119564472D01*
X109124224Y-119564461D01*
X109025061Y-119365316D01*
X109025056Y-119365308D01*
X108890979Y-119187761D01*
X108726562Y-119037876D01*
X108726560Y-119037874D01*
X108537404Y-118920754D01*
X108537398Y-118920752D01*
X108509262Y-118909852D01*
X108329940Y-118840382D01*
X108111243Y-118799500D01*
X107888757Y-118799500D01*
X107670060Y-118840382D01*
X107615138Y-118861659D01*
X107462601Y-118920752D01*
X107462595Y-118920754D01*
X107273439Y-119037874D01*
X107273437Y-119037876D01*
X107109020Y-119187761D01*
X106974943Y-119365308D01*
X106974938Y-119365316D01*
X106875775Y-119564461D01*
X106875769Y-119564476D01*
X106814885Y-119778462D01*
X106814884Y-119778464D01*
X106794357Y-119999999D01*
X105205643Y-119999999D01*
X105185115Y-119778464D01*
X105124229Y-119564472D01*
X105124224Y-119564461D01*
X105025061Y-119365316D01*
X105025056Y-119365308D01*
X104890979Y-119187761D01*
X104726562Y-119037876D01*
X104726560Y-119037874D01*
X104537404Y-118920754D01*
X104537398Y-118920752D01*
X104509262Y-118909852D01*
X104329940Y-118840382D01*
X104111243Y-118799500D01*
X103888757Y-118799500D01*
X103670060Y-118840382D01*
X103615138Y-118861659D01*
X103462601Y-118920752D01*
X103462595Y-118920754D01*
X103273439Y-119037874D01*
X103273437Y-119037876D01*
X103109020Y-119187761D01*
X102974943Y-119365308D01*
X102974938Y-119365316D01*
X102875775Y-119564461D01*
X102875769Y-119564476D01*
X102814885Y-119778462D01*
X102814884Y-119778464D01*
X102794357Y-119999999D01*
X95200500Y-119999999D01*
X95200500Y-105806106D01*
X96394500Y-105806106D01*
X96394500Y-115493892D01*
X96394988Y-115513810D01*
X96395584Y-115525951D01*
X96397050Y-115545815D01*
X96414472Y-115722699D01*
X96420306Y-115762036D01*
X96420307Y-115762041D01*
X96425041Y-115785845D01*
X96425050Y-115785884D01*
X96434714Y-115824469D01*
X96434715Y-115824473D01*
X96484534Y-115988706D01*
X96497950Y-116026198D01*
X96507248Y-116048645D01*
X96524248Y-116084585D01*
X96524267Y-116084623D01*
X96605141Y-116235928D01*
X96605143Y-116235931D01*
X96605153Y-116235949D01*
X96615805Y-116253721D01*
X96625600Y-116270064D01*
X96625615Y-116270088D01*
X96639112Y-116290288D01*
X96662815Y-116322249D01*
X96662827Y-116322265D01*
X96771693Y-116454918D01*
X96798405Y-116484390D01*
X96815608Y-116501593D01*
X96845080Y-116528305D01*
X96974711Y-116634691D01*
X96977742Y-116637178D01*
X97009708Y-116660885D01*
X97029920Y-116674390D01*
X97064050Y-116694846D01*
X97064067Y-116694855D01*
X97064070Y-116694857D01*
X97149653Y-116740602D01*
X97215392Y-116775740D01*
X97215410Y-116775748D01*
X97215413Y-116775750D01*
X97251353Y-116792750D01*
X97263641Y-116797840D01*
X97273814Y-116802054D01*
X97311292Y-116815464D01*
X97475515Y-116865280D01*
X97514119Y-116874949D01*
X97537960Y-116879691D01*
X97537973Y-116879693D01*
X97537971Y-116879693D01*
X97549850Y-116881454D01*
X97577318Y-116885529D01*
X97754192Y-116902950D01*
X97774045Y-116904415D01*
X97786199Y-116905012D01*
X97806093Y-116905500D01*
X97806108Y-116905500D01*
X99893892Y-116905500D01*
X99893907Y-116905500D01*
X99913801Y-116905012D01*
X99925955Y-116904415D01*
X99945808Y-116902950D01*
X100122681Y-116885529D01*
X100162039Y-116879691D01*
X100185880Y-116874949D01*
X100224484Y-116865280D01*
X100388707Y-116815464D01*
X100426185Y-116802054D01*
X100448643Y-116792751D01*
X100484607Y-116775740D01*
X100635949Y-116694846D01*
X100670079Y-116674390D01*
X100690291Y-116660885D01*
X100722257Y-116637178D01*
X100854913Y-116528310D01*
X100884398Y-116501586D01*
X100901586Y-116484398D01*
X100928310Y-116454913D01*
X101037178Y-116322257D01*
X101060885Y-116290291D01*
X101074390Y-116270079D01*
X101094846Y-116235949D01*
X101175740Y-116084607D01*
X101192751Y-116048643D01*
X101202054Y-116026185D01*
X101211424Y-115999999D01*
X106794357Y-115999999D01*
X106794357Y-116000000D01*
X106814884Y-116221535D01*
X106814885Y-116221537D01*
X106875769Y-116435523D01*
X106875775Y-116435538D01*
X106974938Y-116634683D01*
X106974943Y-116634691D01*
X107109020Y-116812238D01*
X107273437Y-116962123D01*
X107273439Y-116962125D01*
X107462595Y-117079245D01*
X107462596Y-117079245D01*
X107462599Y-117079247D01*
X107670060Y-117159618D01*
X107888757Y-117200500D01*
X107888759Y-117200500D01*
X108111241Y-117200500D01*
X108111243Y-117200500D01*
X108329940Y-117159618D01*
X108537401Y-117079247D01*
X108726562Y-116962124D01*
X108890981Y-116812236D01*
X109025058Y-116634689D01*
X109124229Y-116435528D01*
X109150734Y-116342371D01*
X109188013Y-116283278D01*
X109251323Y-116253721D01*
X109320562Y-116263083D01*
X109373749Y-116308393D01*
X109389266Y-116342372D01*
X109415769Y-116435523D01*
X109415775Y-116435538D01*
X109514938Y-116634683D01*
X109514943Y-116634691D01*
X109649020Y-116812238D01*
X109813437Y-116962123D01*
X109813439Y-116962125D01*
X110002595Y-117079245D01*
X110002596Y-117079245D01*
X110002599Y-117079247D01*
X110210060Y-117159618D01*
X110428757Y-117200500D01*
X110428759Y-117200500D01*
X110651241Y-117200500D01*
X110651243Y-117200500D01*
X110869940Y-117159618D01*
X110871861Y-117158873D01*
X110873889Y-117158494D01*
X110875455Y-117158049D01*
X110875496Y-117158194D01*
X110916655Y-117150500D01*
X112364319Y-117150500D01*
X112364343Y-117150501D01*
X112369454Y-117150501D01*
X112550545Y-117150501D01*
X112550546Y-117150501D01*
X112729409Y-117122171D01*
X112901639Y-117066211D01*
X113062994Y-116983996D01*
X113096722Y-116959491D01*
X113209501Y-116877553D01*
X113337553Y-116749501D01*
X113337553Y-116749499D01*
X113346451Y-116740602D01*
X113346459Y-116740591D01*
X113838944Y-116248106D01*
X113879181Y-116221224D01*
X113882437Y-116219875D01*
X113882445Y-116219873D01*
X114036788Y-116141232D01*
X114176928Y-116039414D01*
X114299414Y-115916928D01*
X114401232Y-115776788D01*
X114479873Y-115622445D01*
X114533402Y-115457701D01*
X114543679Y-115392807D01*
X114548215Y-115373915D01*
X114582172Y-115269409D01*
X114597624Y-115171847D01*
X114610501Y-115090551D01*
X114610501Y-114909453D01*
X114601005Y-114849500D01*
X114582172Y-114730591D01*
X114548214Y-114626080D01*
X114543679Y-114607191D01*
X114533402Y-114542299D01*
X114479873Y-114377555D01*
X114479871Y-114377552D01*
X114479871Y-114377550D01*
X114438387Y-114296133D01*
X114401232Y-114223212D01*
X114299414Y-114083072D01*
X114176928Y-113960586D01*
X114036788Y-113858768D01*
X113882445Y-113780127D01*
X113717701Y-113726598D01*
X113717699Y-113726597D01*
X113717698Y-113726597D01*
X113586271Y-113705781D01*
X113546611Y-113699500D01*
X113373389Y-113699500D01*
X113333728Y-113705781D01*
X113202302Y-113726597D01*
X113037552Y-113780128D01*
X112883211Y-113858768D01*
X112803256Y-113916859D01*
X112743072Y-113960586D01*
X112743070Y-113960588D01*
X112743069Y-113960588D01*
X112620588Y-114083069D01*
X112620588Y-114083070D01*
X112620586Y-114083072D01*
X112609027Y-114098982D01*
X112518766Y-114223213D01*
X112440122Y-114377563D01*
X112438760Y-114380852D01*
X112411890Y-114421056D01*
X112019766Y-114813181D01*
X111958443Y-114846666D01*
X111932085Y-114849500D01*
X110916655Y-114849500D01*
X110875496Y-114841805D01*
X110875455Y-114841951D01*
X110873889Y-114841505D01*
X110871861Y-114841126D01*
X110869940Y-114840382D01*
X110651243Y-114799500D01*
X110428757Y-114799500D01*
X110210060Y-114840382D01*
X110078864Y-114891207D01*
X110002601Y-114920752D01*
X110002595Y-114920754D01*
X109813439Y-115037874D01*
X109813437Y-115037876D01*
X109649020Y-115187761D01*
X109514943Y-115365308D01*
X109514938Y-115365316D01*
X109415775Y-115564461D01*
X109415769Y-115564476D01*
X109389266Y-115657627D01*
X109351987Y-115716721D01*
X109288677Y-115746278D01*
X109219438Y-115736916D01*
X109166251Y-115691606D01*
X109150734Y-115657627D01*
X109124230Y-115564476D01*
X109124229Y-115564472D01*
X109114938Y-115545813D01*
X109025061Y-115365316D01*
X109025056Y-115365308D01*
X108890979Y-115187761D01*
X108726562Y-115037876D01*
X108726560Y-115037874D01*
X108537404Y-114920754D01*
X108537398Y-114920752D01*
X108508232Y-114909453D01*
X108329940Y-114840382D01*
X108111243Y-114799500D01*
X107888757Y-114799500D01*
X107670060Y-114840382D01*
X107538864Y-114891207D01*
X107462601Y-114920752D01*
X107462595Y-114920754D01*
X107273439Y-115037874D01*
X107273437Y-115037876D01*
X107109020Y-115187761D01*
X106974943Y-115365308D01*
X106974938Y-115365316D01*
X106875775Y-115564461D01*
X106875769Y-115564476D01*
X106814885Y-115778462D01*
X106814884Y-115778464D01*
X106794357Y-115999999D01*
X101211424Y-115999999D01*
X101215464Y-115988707D01*
X101265280Y-115824484D01*
X101274949Y-115785880D01*
X101279691Y-115762039D01*
X101285529Y-115722681D01*
X101302950Y-115545808D01*
X101304415Y-115525955D01*
X101305012Y-115513801D01*
X101305500Y-115493907D01*
X101305500Y-105806092D01*
X101305012Y-105786198D01*
X101304415Y-105774044D01*
X101302950Y-105754191D01*
X101285529Y-105577318D01*
X101279691Y-105537960D01*
X101274949Y-105514119D01*
X101265280Y-105475515D01*
X101215464Y-105311292D01*
X101202054Y-105273814D01*
X101192760Y-105251378D01*
X101192750Y-105251353D01*
X101175750Y-105215413D01*
X101175748Y-105215410D01*
X101175740Y-105215392D01*
X101175732Y-105215377D01*
X101175722Y-105215357D01*
X101094857Y-105064070D01*
X101094855Y-105064067D01*
X101094846Y-105064050D01*
X101074390Y-105029920D01*
X101060885Y-105009708D01*
X101037178Y-104977742D01*
X101037175Y-104977738D01*
X101037171Y-104977733D01*
X100928305Y-104845080D01*
X100901593Y-104815608D01*
X100884390Y-104798405D01*
X100854918Y-104771693D01*
X100722265Y-104662827D01*
X100722249Y-104662815D01*
X100690302Y-104639122D01*
X100690299Y-104639120D01*
X100690291Y-104639114D01*
X100670079Y-104625609D01*
X100635951Y-104605154D01*
X100635950Y-104605153D01*
X100635942Y-104605148D01*
X100484630Y-104524271D01*
X100484617Y-104524264D01*
X100484603Y-104524257D01*
X100448646Y-104507250D01*
X100448639Y-104507247D01*
X100426200Y-104497951D01*
X100388709Y-104484536D01*
X100224476Y-104434717D01*
X100185863Y-104425045D01*
X100162041Y-104420307D01*
X100162036Y-104420306D01*
X100122699Y-104414472D01*
X99945815Y-104397050D01*
X99925951Y-104395584D01*
X99913810Y-104394988D01*
X99906340Y-104394805D01*
X99893907Y-104394500D01*
X97806093Y-104394500D01*
X97792528Y-104394832D01*
X97786192Y-104394988D01*
X97774032Y-104395585D01*
X97754200Y-104397048D01*
X97577308Y-104414470D01*
X97577304Y-104414470D01*
X97537950Y-104420309D01*
X97537947Y-104420309D01*
X97514114Y-104425050D01*
X97475508Y-104434721D01*
X97311292Y-104484535D01*
X97273825Y-104497941D01*
X97273770Y-104497962D01*
X97251378Y-104507239D01*
X97251355Y-104507248D01*
X97215417Y-104524246D01*
X97215414Y-104524248D01*
X97215406Y-104524251D01*
X97215398Y-104524256D01*
X97127311Y-104571339D01*
X97064047Y-104605154D01*
X97029928Y-104625603D01*
X97029893Y-104625625D01*
X97009745Y-104639086D01*
X97009713Y-104639109D01*
X96977762Y-104662805D01*
X96977735Y-104662827D01*
X96845081Y-104771693D01*
X96845069Y-104771703D01*
X96815590Y-104798421D01*
X96798421Y-104815590D01*
X96771703Y-104845069D01*
X96771693Y-104845081D01*
X96662827Y-104977735D01*
X96662805Y-104977762D01*
X96639109Y-105009713D01*
X96639086Y-105009745D01*
X96625625Y-105029893D01*
X96625603Y-105029928D01*
X96605154Y-105064047D01*
X96605142Y-105064070D01*
X96524256Y-105215398D01*
X96524251Y-105215406D01*
X96524248Y-105215414D01*
X96524246Y-105215417D01*
X96507248Y-105251355D01*
X96507239Y-105251378D01*
X96497962Y-105273770D01*
X96497941Y-105273825D01*
X96484535Y-105311292D01*
X96434721Y-105475508D01*
X96434718Y-105475520D01*
X96434717Y-105475524D01*
X96425049Y-105514121D01*
X96423482Y-105521994D01*
X96420307Y-105537958D01*
X96414471Y-105577304D01*
X96414470Y-105577318D01*
X96397050Y-105754184D01*
X96395584Y-105774047D01*
X96394988Y-105786188D01*
X96394500Y-105806106D01*
X95200500Y-105806106D01*
X95200500Y-105002706D01*
X95200618Y-104997297D01*
X95201471Y-104977762D01*
X95218528Y-104587080D01*
X95219468Y-104576347D01*
X95272709Y-104171938D01*
X95274582Y-104161308D01*
X95310343Y-103999999D01*
X101794357Y-103999999D01*
X101794357Y-104000000D01*
X101814884Y-104221535D01*
X101814885Y-104221537D01*
X101875769Y-104435523D01*
X101875775Y-104435538D01*
X101974938Y-104634683D01*
X101974943Y-104634691D01*
X102109020Y-104812238D01*
X102273437Y-104962123D01*
X102273439Y-104962125D01*
X102462595Y-105079245D01*
X102462596Y-105079245D01*
X102462599Y-105079247D01*
X102670060Y-105159618D01*
X102888757Y-105200500D01*
X102888759Y-105200500D01*
X103111241Y-105200500D01*
X103111243Y-105200500D01*
X103329940Y-105159618D01*
X103537401Y-105079247D01*
X103726562Y-104962124D01*
X103890981Y-104812236D01*
X104025058Y-104634689D01*
X104054120Y-104576326D01*
X104124224Y-104435538D01*
X104124223Y-104435538D01*
X104124229Y-104435528D01*
X104185115Y-104221536D01*
X104205643Y-104000000D01*
X104205643Y-103999999D01*
X105794357Y-103999999D01*
X105794357Y-104000000D01*
X105814884Y-104221535D01*
X105814885Y-104221537D01*
X105875769Y-104435523D01*
X105875775Y-104435538D01*
X105974938Y-104634683D01*
X105974943Y-104634691D01*
X106109020Y-104812238D01*
X106273437Y-104962123D01*
X106273439Y-104962125D01*
X106462595Y-105079245D01*
X106462596Y-105079245D01*
X106462599Y-105079247D01*
X106670060Y-105159618D01*
X106888757Y-105200500D01*
X106888759Y-105200500D01*
X107111241Y-105200500D01*
X107111243Y-105200500D01*
X107329940Y-105159618D01*
X107537401Y-105079247D01*
X107726562Y-104962124D01*
X107890981Y-104812236D01*
X108025058Y-104634689D01*
X108054120Y-104576326D01*
X108124224Y-104435538D01*
X108124223Y-104435538D01*
X108124229Y-104435528D01*
X108185115Y-104221536D01*
X108205643Y-104000000D01*
X108205643Y-103999999D01*
X109794357Y-103999999D01*
X109794357Y-104000000D01*
X109814884Y-104221535D01*
X109814885Y-104221537D01*
X109875769Y-104435523D01*
X109875775Y-104435538D01*
X109974938Y-104634683D01*
X109974943Y-104634691D01*
X110109020Y-104812238D01*
X110273437Y-104962123D01*
X110273439Y-104962125D01*
X110462595Y-105079245D01*
X110462596Y-105079245D01*
X110462599Y-105079247D01*
X110670060Y-105159618D01*
X110888757Y-105200500D01*
X110888759Y-105200500D01*
X111111241Y-105200500D01*
X111111243Y-105200500D01*
X111329940Y-105159618D01*
X111537401Y-105079247D01*
X111726562Y-104962124D01*
X111890981Y-104812236D01*
X112025058Y-104634689D01*
X112054120Y-104576326D01*
X112124224Y-104435538D01*
X112124223Y-104435538D01*
X112124229Y-104435528D01*
X112185115Y-104221536D01*
X112205643Y-104000000D01*
X112205643Y-103999999D01*
X113794357Y-103999999D01*
X113794357Y-104000000D01*
X113814884Y-104221535D01*
X113814885Y-104221537D01*
X113875769Y-104435523D01*
X113875775Y-104435538D01*
X113974938Y-104634683D01*
X113974943Y-104634691D01*
X114109020Y-104812238D01*
X114273437Y-104962123D01*
X114273439Y-104962125D01*
X114462595Y-105079245D01*
X114462596Y-105079245D01*
X114462599Y-105079247D01*
X114670060Y-105159618D01*
X114888757Y-105200500D01*
X114888759Y-105200500D01*
X115111241Y-105200500D01*
X115111243Y-105200500D01*
X115329940Y-105159618D01*
X115537401Y-105079247D01*
X115726562Y-104962124D01*
X115890981Y-104812236D01*
X116025058Y-104634689D01*
X116054120Y-104576326D01*
X116124224Y-104435538D01*
X116124223Y-104435538D01*
X116124229Y-104435528D01*
X116185115Y-104221536D01*
X116205643Y-104000000D01*
X116199329Y-103931865D01*
X116185115Y-103778464D01*
X116185114Y-103778462D01*
X116180401Y-103761899D01*
X116124229Y-103564472D01*
X116124224Y-103564461D01*
X116025061Y-103365316D01*
X116025056Y-103365308D01*
X115890979Y-103187761D01*
X115726562Y-103037876D01*
X115726560Y-103037874D01*
X115537404Y-102920754D01*
X115537398Y-102920752D01*
X115329940Y-102840382D01*
X115111243Y-102799500D01*
X114888757Y-102799500D01*
X114670060Y-102840382D01*
X114538864Y-102891207D01*
X114462601Y-102920752D01*
X114462595Y-102920754D01*
X114273439Y-103037874D01*
X114273437Y-103037876D01*
X114109020Y-103187761D01*
X113974943Y-103365308D01*
X113974938Y-103365316D01*
X113875775Y-103564461D01*
X113875769Y-103564476D01*
X113814885Y-103778462D01*
X113814884Y-103778464D01*
X113794357Y-103999999D01*
X112205643Y-103999999D01*
X112199329Y-103931865D01*
X112185115Y-103778464D01*
X112185114Y-103778462D01*
X112180401Y-103761899D01*
X112124229Y-103564472D01*
X112124224Y-103564461D01*
X112025061Y-103365316D01*
X112025056Y-103365308D01*
X111890979Y-103187761D01*
X111726562Y-103037876D01*
X111726560Y-103037874D01*
X111537404Y-102920754D01*
X111537398Y-102920752D01*
X111329940Y-102840382D01*
X111111243Y-102799500D01*
X110888757Y-102799500D01*
X110670060Y-102840382D01*
X110538864Y-102891207D01*
X110462601Y-102920752D01*
X110462595Y-102920754D01*
X110273439Y-103037874D01*
X110273437Y-103037876D01*
X110109020Y-103187761D01*
X109974943Y-103365308D01*
X109974938Y-103365316D01*
X109875775Y-103564461D01*
X109875769Y-103564476D01*
X109814885Y-103778462D01*
X109814884Y-103778464D01*
X109794357Y-103999999D01*
X108205643Y-103999999D01*
X108199329Y-103931865D01*
X108185115Y-103778464D01*
X108185114Y-103778462D01*
X108180401Y-103761899D01*
X108124229Y-103564472D01*
X108124224Y-103564461D01*
X108025061Y-103365316D01*
X108025056Y-103365308D01*
X107890979Y-103187761D01*
X107726562Y-103037876D01*
X107726560Y-103037874D01*
X107537404Y-102920754D01*
X107537398Y-102920752D01*
X107329940Y-102840382D01*
X107111243Y-102799500D01*
X106888757Y-102799500D01*
X106670060Y-102840382D01*
X106538864Y-102891207D01*
X106462601Y-102920752D01*
X106462595Y-102920754D01*
X106273439Y-103037874D01*
X106273437Y-103037876D01*
X106109020Y-103187761D01*
X105974943Y-103365308D01*
X105974938Y-103365316D01*
X105875775Y-103564461D01*
X105875769Y-103564476D01*
X105814885Y-103778462D01*
X105814884Y-103778464D01*
X105794357Y-103999999D01*
X104205643Y-103999999D01*
X104199329Y-103931865D01*
X104185115Y-103778464D01*
X104185114Y-103778462D01*
X104180401Y-103761899D01*
X104124229Y-103564472D01*
X104124224Y-103564461D01*
X104025061Y-103365316D01*
X104025056Y-103365308D01*
X103890979Y-103187761D01*
X103726562Y-103037876D01*
X103726560Y-103037874D01*
X103537404Y-102920754D01*
X103537398Y-102920752D01*
X103329940Y-102840382D01*
X103111243Y-102799500D01*
X102888757Y-102799500D01*
X102670060Y-102840382D01*
X102538864Y-102891207D01*
X102462601Y-102920752D01*
X102462595Y-102920754D01*
X102273439Y-103037874D01*
X102273437Y-103037876D01*
X102109020Y-103187761D01*
X101974943Y-103365308D01*
X101974938Y-103365316D01*
X101875775Y-103564461D01*
X101875769Y-103564476D01*
X101814885Y-103778462D01*
X101814884Y-103778464D01*
X101794357Y-103999999D01*
X95310343Y-103999999D01*
X95362870Y-103763068D01*
X95365668Y-103752630D01*
X95424994Y-103564472D01*
X95488319Y-103363629D01*
X95492016Y-103353473D01*
X95508635Y-103313352D01*
X95648111Y-102976627D01*
X95652669Y-102966853D01*
X95841025Y-102605024D01*
X95846407Y-102595703D01*
X96065574Y-102251680D01*
X96071765Y-102242837D01*
X96320083Y-101919224D01*
X96327021Y-101910955D01*
X96602594Y-101610220D01*
X96610220Y-101602594D01*
X96910955Y-101327021D01*
X96919224Y-101320083D01*
X97242837Y-101071765D01*
X97251680Y-101065574D01*
X97595703Y-100846407D01*
X97605024Y-100841025D01*
X97966853Y-100652669D01*
X97976627Y-100648111D01*
X98353482Y-100492012D01*
X98363629Y-100488319D01*
X98752639Y-100365665D01*
X98763068Y-100362870D01*
X99161308Y-100274582D01*
X99171938Y-100272709D01*
X99576347Y-100219468D01*
X99587080Y-100218528D01*
X99997297Y-100200617D01*
X100002706Y-100200500D01*
X100039882Y-100200500D01*
X124960118Y-100200500D01*
X124997294Y-100200500D01*
X125002702Y-100200617D01*
G37*
%TD.AperFunction*%
%TD*%
M02*
