G04 Layer: BottomSolderMaskLayer*
G04 EasyEDA Pro v2.2.27.1, 2024-09-15 10:59:50*
G04 Gerber Generator version 0.3*
G04 Scale: 100 percent, Rotated: No, Reflected: No*
G04 Dimensions in millimeters*
G04 Leading zeros omitted, absolute positions, 3 integers and 5 decimals*
%TF.GenerationSoftware,KiCad,Pcbnew,8.0.5*%
%TF.CreationDate,2024-10-31T22:01:25+08:00*%
%TF.ProjectId,AMS1117_TP4056_Lithium_battery_charging,414d5331-3131-4375-9f54-50343035365f,rev?*%
%TF.SameCoordinates,Original*%
%TF.FileFunction,Soldermask,Bot*%
%TF.FilePolarity,Negative*%
%FSLAX46Y46*%
G04 Gerber Fmt 4.6, Leading zero omitted, Abs format (unit mm)*
G04 Created by KiCad (PCBNEW 8.0.5) date 2024-10-31 22:01:25*
%MOMM*%
%LPD*%
G01*
G04 APERTURE LIST*
G04 Aperture macros list*
%AMRoundRect*
0 Rectangle with rounded corners*
0 $1 Rounding radius*
0 $2 $3 $4 $5 $6 $7 $8 $9 X,Y pos of 4 corners*
0 Add a 4 corners polygon primitive as box body*
4,1,4,$2,$3,$4,$5,$6,$7,$8,$9,$2,$3,0*
0 Add four circle primitives for the rounded corners*
1,1,$1+$1,$2,$3*
1,1,$1+$1,$4,$5*
1,1,$1+$1,$6,$7*
1,1,$1+$1,$8,$9*
0 Add four rect primitives between the rounded corners*
20,1,$1+$1,$2,$3,$4,$5,0*
20,1,$1+$1,$4,$5,$6,$7,0*
20,1,$1+$1,$6,$7,$8,$9,0*
20,1,$1+$1,$8,$9,$2,$3,0*%
G04 Aperture macros list end*
%ADD10R,1.400000X1.800000*%
%ADD11O,1.400000X1.800000*%
%ADD12C,1.600000*%
%ADD13O,1.600000X1.600000*%
%ADD14R,2.600000X2.600000*%
%ADD15C,2.600000*%
%ADD16C,6.000000*%
%ADD17RoundRect,0.375000X0.625000X0.375000X-0.625000X0.375000X-0.625000X-0.375000X0.625000X-0.375000X0*%
%ADD18RoundRect,0.500000X0.500000X1.400000X-0.500000X1.400000X-0.500000X-1.400000X0.500000X-1.400000X0*%
%ADD19RoundRect,0.250000X-0.475000X0.250000X-0.475000X-0.250000X0.475000X-0.250000X0.475000X0.250000X0*%
%ADD20RoundRect,0.250000X0.250000X0.475000X-0.250000X0.475000X-0.250000X-0.475000X0.250000X-0.475000X0*%
%ADD21RoundRect,0.250000X-0.950000X-0.375000X0.950000X-0.375000X0.950000X0.375000X-0.950000X0.375000X0*%
%ADD22RoundRect,0.150000X-0.650000X-0.150000X0.650000X-0.150000X0.650000X0.150000X-0.650000X0.150000X0*%
%ADD23C,0.400000*%
G04 APERTURE END LIST*
D10*
%TO.C,LED1*%
X116000000Y-120000000D03*
D11*
X113460000Y-120000000D03*
%TD*%
D12*
%TO.C,R1*%
X123245000Y-102200000D03*
D13*
X120705000Y-102200000D03*
%TD*%
D14*
%TO.C,P2*%
X108000000Y-129000000D03*
D15*
X113000000Y-129000000D03*
%TD*%
D12*
%TO.C,C1*%
X126000000Y-115000000D03*
X121000000Y-115000000D03*
%TD*%
%TO.C,C9*%
X103000000Y-104000000D03*
X103000000Y-109000000D03*
%TD*%
%TO.C,C8*%
X104000000Y-120000000D03*
X99000000Y-120000000D03*
%TD*%
D16*
%TO.C,H1*%
X100000000Y-130000000D03*
%TD*%
D12*
%TO.C,C5*%
X115000000Y-104000000D03*
X115000000Y-109000000D03*
%TD*%
%TO.C,R2*%
X108000000Y-120000000D03*
D13*
X110540000Y-120000000D03*
%TD*%
D12*
%TO.C,C10*%
X107000000Y-104000000D03*
X107000000Y-109000000D03*
%TD*%
D14*
%TO.C,P1*%
X119000000Y-129000000D03*
D15*
X124000000Y-129000000D03*
%TD*%
D12*
%TO.C,C2*%
X126000000Y-120000000D03*
X121000000Y-120000000D03*
%TD*%
%TO.C,C4*%
X111000000Y-104000000D03*
X111000000Y-109000000D03*
%TD*%
%TO.C,R5*%
X108000000Y-116000000D03*
D13*
X110540000Y-116000000D03*
%TD*%
D12*
%TO.C,C7*%
X104000000Y-124000000D03*
X99000000Y-124000000D03*
%TD*%
D10*
%TO.C,LED2*%
X116000000Y-115000000D03*
D11*
X113460000Y-115000000D03*
%TD*%
D17*
%TO.C,U2*%
X104150000Y-111700000D03*
X104150000Y-114000000D03*
D18*
X97850000Y-114000000D03*
D17*
X104150000Y-116300000D03*
%TD*%
D19*
%TO.C,C6*%
X117000000Y-105550000D03*
X117000000Y-107450000D03*
%TD*%
D20*
%TO.C,C3*%
X124450000Y-122000000D03*
X122550000Y-122000000D03*
%TD*%
D21*
%TO.C,U1*%
X122000000Y-107075000D03*
X122000000Y-108925000D03*
D22*
X119350000Y-109905000D03*
X119350000Y-108635000D03*
X119350000Y-107365000D03*
X119350000Y-106095000D03*
X124650000Y-106095000D03*
X124650000Y-107365000D03*
X124650000Y-108635000D03*
X124650000Y-109905000D03*
D23*
X121000000Y-106150000D03*
X121000000Y-108000000D03*
X121000000Y-109850000D03*
X122000000Y-106150000D03*
X122000000Y-108000000D03*
X122000000Y-109850000D03*
X123000000Y-106150000D03*
X123000000Y-108000000D03*
X123000000Y-109850000D03*
%TD*%
M02*
