G04 Layer: TopSilkscreenLayer*
G04 EasyEDA Pro v2.2.27.1, 2024-09-15 10:59:50*
G04 Gerber Generator version 0.3*
G04 Scale: 100 percent, Rotated: No, Reflected: No*
G04 Dimensions in millimeters*
G04 Leading zeros omitted, absolute positions, 3 integers and 5 decimals*
%TF.GenerationSoftware,KiCad,Pcbnew,8.0.5*%
%TF.CreationDate,2024-10-31T22:01:25+08:00*%
%TF.ProjectId,AMS1117_TP4056_Lithium_battery_charging,414d5331-3131-4375-9f54-50343035365f,rev?*%
%TF.SameCoordinates,Original*%
%TF.FileFunction,Legend,Top*%
%TF.FilePolarity,Positive*%
%FSLAX46Y46*%
G04 Gerber Fmt 4.6, Leading zero omitted, Abs format (unit mm)*
G04 Created by KiCad (PCBNEW 8.0.5) date 2024-10-31 22:01:25*
%MOMM*%
%LPD*%
G01*
G04 APERTURE LIST*
%ADD10C,0.150000*%
%ADD11C,0.120000*%
G04 APERTURE END LIST*
D10*
X113642857Y-122802438D02*
X114309524Y-122802438D01*
X113642857Y-123754819D02*
X114357143Y-123754819D01*
X113976190Y-122802438D02*
X113976190Y-123754819D01*
X113214286Y-122945295D02*
X113166667Y-123135771D01*
X113404762Y-123135771D02*
X113119048Y-123469104D01*
X113404762Y-122659580D02*
X113214286Y-123040533D01*
X113547619Y-123421485D02*
X113119048Y-123469104D01*
X113547619Y-123659580D02*
X113119048Y-123707200D01*
X113547619Y-122945295D02*
X113452381Y-123088152D01*
X113452381Y-123088152D02*
X113119048Y-123135771D01*
X115166666Y-122754819D02*
X115833333Y-122754819D01*
X115261904Y-123754819D02*
X115547619Y-123754819D01*
X115547619Y-122754819D02*
X115547619Y-123754819D01*
X115071428Y-122897676D02*
X114976190Y-123088152D01*
X114690476Y-122897676D02*
X114642857Y-123135771D01*
X114833333Y-122611961D02*
X114833333Y-123183390D01*
X114833333Y-123183390D02*
X114833333Y-123421485D01*
X114833333Y-123421485D02*
X114642857Y-123707200D01*
X114833333Y-123373866D02*
X115071428Y-123564342D01*
X121800000Y-105254819D02*
X121228572Y-105254819D01*
X121514286Y-105254819D02*
X121514286Y-104254819D01*
X121514286Y-104254819D02*
X121419048Y-104397676D01*
X121419048Y-104397676D02*
X121323810Y-104492914D01*
X121323810Y-104492914D02*
X121228572Y-104540533D01*
X122228572Y-105159580D02*
X122276191Y-105207200D01*
X122276191Y-105207200D02*
X122228572Y-105254819D01*
X122228572Y-105254819D02*
X122180953Y-105207200D01*
X122180953Y-105207200D02*
X122228572Y-105159580D01*
X122228572Y-105159580D02*
X122228572Y-105254819D01*
X122657143Y-104350057D02*
X122704762Y-104302438D01*
X122704762Y-104302438D02*
X122800000Y-104254819D01*
X122800000Y-104254819D02*
X123038095Y-104254819D01*
X123038095Y-104254819D02*
X123133333Y-104302438D01*
X123133333Y-104302438D02*
X123180952Y-104350057D01*
X123180952Y-104350057D02*
X123228571Y-104445295D01*
X123228571Y-104445295D02*
X123228571Y-104540533D01*
X123228571Y-104540533D02*
X123180952Y-104683390D01*
X123180952Y-104683390D02*
X122609524Y-105254819D01*
X122609524Y-105254819D02*
X123228571Y-105254819D01*
X123657143Y-105254819D02*
X123657143Y-104254819D01*
X124228571Y-105254819D02*
X123800000Y-104683390D01*
X124228571Y-104254819D02*
X123657143Y-104826247D01*
X124609524Y-105254819D02*
X124847619Y-105254819D01*
X124847619Y-105254819D02*
X124847619Y-105064342D01*
X124847619Y-105064342D02*
X124752381Y-105016723D01*
X124752381Y-105016723D02*
X124657143Y-104921485D01*
X124657143Y-104921485D02*
X124609524Y-104778628D01*
X124609524Y-104778628D02*
X124609524Y-104540533D01*
X124609524Y-104540533D02*
X124657143Y-104397676D01*
X124657143Y-104397676D02*
X124752381Y-104302438D01*
X124752381Y-104302438D02*
X124895238Y-104254819D01*
X124895238Y-104254819D02*
X125085714Y-104254819D01*
X125085714Y-104254819D02*
X125228571Y-104302438D01*
X125228571Y-104302438D02*
X125323809Y-104397676D01*
X125323809Y-104397676D02*
X125371428Y-104540533D01*
X125371428Y-104540533D02*
X125371428Y-104778628D01*
X125371428Y-104778628D02*
X125323809Y-104921485D01*
X125323809Y-104921485D02*
X125228571Y-105016723D01*
X125228571Y-105016723D02*
X125133333Y-105064342D01*
X125133333Y-105064342D02*
X125133333Y-105254819D01*
X125133333Y-105254819D02*
X125371428Y-105254819D01*
X121828571Y-111454819D02*
X121257143Y-111454819D01*
X121542857Y-111454819D02*
X121542857Y-110454819D01*
X121542857Y-110454819D02*
X121447619Y-110597676D01*
X121447619Y-110597676D02*
X121352381Y-110692914D01*
X121352381Y-110692914D02*
X121257143Y-110740533D01*
X122447619Y-110454819D02*
X122542857Y-110454819D01*
X122542857Y-110454819D02*
X122638095Y-110502438D01*
X122638095Y-110502438D02*
X122685714Y-110550057D01*
X122685714Y-110550057D02*
X122733333Y-110645295D01*
X122733333Y-110645295D02*
X122780952Y-110835771D01*
X122780952Y-110835771D02*
X122780952Y-111073866D01*
X122780952Y-111073866D02*
X122733333Y-111264342D01*
X122733333Y-111264342D02*
X122685714Y-111359580D01*
X122685714Y-111359580D02*
X122638095Y-111407200D01*
X122638095Y-111407200D02*
X122542857Y-111454819D01*
X122542857Y-111454819D02*
X122447619Y-111454819D01*
X122447619Y-111454819D02*
X122352381Y-111407200D01*
X122352381Y-111407200D02*
X122304762Y-111359580D01*
X122304762Y-111359580D02*
X122257143Y-111264342D01*
X122257143Y-111264342D02*
X122209524Y-111073866D01*
X122209524Y-111073866D02*
X122209524Y-110835771D01*
X122209524Y-110835771D02*
X122257143Y-110645295D01*
X122257143Y-110645295D02*
X122304762Y-110550057D01*
X122304762Y-110550057D02*
X122352381Y-110502438D01*
X122352381Y-110502438D02*
X122447619Y-110454819D01*
X123638095Y-110788152D02*
X123638095Y-111454819D01*
X123209524Y-110788152D02*
X123209524Y-111311961D01*
X123209524Y-111311961D02*
X123257143Y-111407200D01*
X123257143Y-111407200D02*
X123352381Y-111454819D01*
X123352381Y-111454819D02*
X123495238Y-111454819D01*
X123495238Y-111454819D02*
X123590476Y-111407200D01*
X123590476Y-111407200D02*
X123638095Y-111359580D01*
X124447619Y-110931009D02*
X124114286Y-110931009D01*
X124114286Y-111454819D02*
X124114286Y-110454819D01*
X124114286Y-110454819D02*
X124590476Y-110454819D01*
X99554819Y-107747619D02*
X99554819Y-108319047D01*
X99554819Y-108033333D02*
X98554819Y-108033333D01*
X98554819Y-108033333D02*
X98697676Y-108128571D01*
X98697676Y-108128571D02*
X98792914Y-108223809D01*
X98792914Y-108223809D02*
X98840533Y-108319047D01*
X98554819Y-107128571D02*
X98554819Y-107033333D01*
X98554819Y-107033333D02*
X98602438Y-106938095D01*
X98602438Y-106938095D02*
X98650057Y-106890476D01*
X98650057Y-106890476D02*
X98745295Y-106842857D01*
X98745295Y-106842857D02*
X98935771Y-106795238D01*
X98935771Y-106795238D02*
X99173866Y-106795238D01*
X99173866Y-106795238D02*
X99364342Y-106842857D01*
X99364342Y-106842857D02*
X99459580Y-106890476D01*
X99459580Y-106890476D02*
X99507200Y-106938095D01*
X99507200Y-106938095D02*
X99554819Y-107033333D01*
X99554819Y-107033333D02*
X99554819Y-107128571D01*
X99554819Y-107128571D02*
X99507200Y-107223809D01*
X99507200Y-107223809D02*
X99459580Y-107271428D01*
X99459580Y-107271428D02*
X99364342Y-107319047D01*
X99364342Y-107319047D02*
X99173866Y-107366666D01*
X99173866Y-107366666D02*
X98935771Y-107366666D01*
X98935771Y-107366666D02*
X98745295Y-107319047D01*
X98745295Y-107319047D02*
X98650057Y-107271428D01*
X98650057Y-107271428D02*
X98602438Y-107223809D01*
X98602438Y-107223809D02*
X98554819Y-107128571D01*
X98888152Y-105938095D02*
X99554819Y-105938095D01*
X98888152Y-106366666D02*
X99411961Y-106366666D01*
X99411961Y-106366666D02*
X99507200Y-106319047D01*
X99507200Y-106319047D02*
X99554819Y-106223809D01*
X99554819Y-106223809D02*
X99554819Y-106080952D01*
X99554819Y-106080952D02*
X99507200Y-105985714D01*
X99507200Y-105985714D02*
X99459580Y-105938095D01*
X99031009Y-105128571D02*
X99031009Y-105461904D01*
X99554819Y-105461904D02*
X98554819Y-105461904D01*
X98554819Y-105461904D02*
X98554819Y-104985714D01*
X99952380Y-116054819D02*
X99380952Y-116054819D01*
X99666666Y-116054819D02*
X99666666Y-115054819D01*
X99666666Y-115054819D02*
X99571428Y-115197676D01*
X99571428Y-115197676D02*
X99476190Y-115292914D01*
X99476190Y-115292914D02*
X99380952Y-115340533D01*
X100571428Y-115054819D02*
X100666666Y-115054819D01*
X100666666Y-115054819D02*
X100761904Y-115102438D01*
X100761904Y-115102438D02*
X100809523Y-115150057D01*
X100809523Y-115150057D02*
X100857142Y-115245295D01*
X100857142Y-115245295D02*
X100904761Y-115435771D01*
X100904761Y-115435771D02*
X100904761Y-115673866D01*
X100904761Y-115673866D02*
X100857142Y-115864342D01*
X100857142Y-115864342D02*
X100809523Y-115959580D01*
X100809523Y-115959580D02*
X100761904Y-116007200D01*
X100761904Y-116007200D02*
X100666666Y-116054819D01*
X100666666Y-116054819D02*
X100571428Y-116054819D01*
X100571428Y-116054819D02*
X100476190Y-116007200D01*
X100476190Y-116007200D02*
X100428571Y-115959580D01*
X100428571Y-115959580D02*
X100380952Y-115864342D01*
X100380952Y-115864342D02*
X100333333Y-115673866D01*
X100333333Y-115673866D02*
X100333333Y-115435771D01*
X100333333Y-115435771D02*
X100380952Y-115245295D01*
X100380952Y-115245295D02*
X100428571Y-115150057D01*
X100428571Y-115150057D02*
X100476190Y-115102438D01*
X100476190Y-115102438D02*
X100571428Y-115054819D01*
X101523809Y-115054819D02*
X101619047Y-115054819D01*
X101619047Y-115054819D02*
X101714285Y-115102438D01*
X101714285Y-115102438D02*
X101761904Y-115150057D01*
X101761904Y-115150057D02*
X101809523Y-115245295D01*
X101809523Y-115245295D02*
X101857142Y-115435771D01*
X101857142Y-115435771D02*
X101857142Y-115673866D01*
X101857142Y-115673866D02*
X101809523Y-115864342D01*
X101809523Y-115864342D02*
X101761904Y-115959580D01*
X101761904Y-115959580D02*
X101714285Y-116007200D01*
X101714285Y-116007200D02*
X101619047Y-116054819D01*
X101619047Y-116054819D02*
X101523809Y-116054819D01*
X101523809Y-116054819D02*
X101428571Y-116007200D01*
X101428571Y-116007200D02*
X101380952Y-115959580D01*
X101380952Y-115959580D02*
X101333333Y-115864342D01*
X101333333Y-115864342D02*
X101285714Y-115673866D01*
X101285714Y-115673866D02*
X101285714Y-115435771D01*
X101285714Y-115435771D02*
X101333333Y-115245295D01*
X101333333Y-115245295D02*
X101380952Y-115150057D01*
X101380952Y-115150057D02*
X101428571Y-115102438D01*
X101428571Y-115102438D02*
X101523809Y-115054819D01*
X102285714Y-115388152D02*
X102285714Y-116054819D01*
X102285714Y-115483390D02*
X102333333Y-115435771D01*
X102333333Y-115435771D02*
X102428571Y-115388152D01*
X102428571Y-115388152D02*
X102571428Y-115388152D01*
X102571428Y-115388152D02*
X102666666Y-115435771D01*
X102666666Y-115435771D02*
X102714285Y-115531009D01*
X102714285Y-115531009D02*
X102714285Y-116054819D01*
X103523809Y-115531009D02*
X103190476Y-115531009D01*
X103190476Y-116054819D02*
X103190476Y-115054819D01*
X103190476Y-115054819D02*
X103666666Y-115054819D01*
X119354819Y-107347619D02*
X119354819Y-107919047D01*
X119354819Y-107633333D02*
X118354819Y-107633333D01*
X118354819Y-107633333D02*
X118497676Y-107728571D01*
X118497676Y-107728571D02*
X118592914Y-107823809D01*
X118592914Y-107823809D02*
X118640533Y-107919047D01*
X118354819Y-106728571D02*
X118354819Y-106633333D01*
X118354819Y-106633333D02*
X118402438Y-106538095D01*
X118402438Y-106538095D02*
X118450057Y-106490476D01*
X118450057Y-106490476D02*
X118545295Y-106442857D01*
X118545295Y-106442857D02*
X118735771Y-106395238D01*
X118735771Y-106395238D02*
X118973866Y-106395238D01*
X118973866Y-106395238D02*
X119164342Y-106442857D01*
X119164342Y-106442857D02*
X119259580Y-106490476D01*
X119259580Y-106490476D02*
X119307200Y-106538095D01*
X119307200Y-106538095D02*
X119354819Y-106633333D01*
X119354819Y-106633333D02*
X119354819Y-106728571D01*
X119354819Y-106728571D02*
X119307200Y-106823809D01*
X119307200Y-106823809D02*
X119259580Y-106871428D01*
X119259580Y-106871428D02*
X119164342Y-106919047D01*
X119164342Y-106919047D02*
X118973866Y-106966666D01*
X118973866Y-106966666D02*
X118735771Y-106966666D01*
X118735771Y-106966666D02*
X118545295Y-106919047D01*
X118545295Y-106919047D02*
X118450057Y-106871428D01*
X118450057Y-106871428D02*
X118402438Y-106823809D01*
X118402438Y-106823809D02*
X118354819Y-106728571D01*
X118354819Y-105776190D02*
X118354819Y-105680952D01*
X118354819Y-105680952D02*
X118402438Y-105585714D01*
X118402438Y-105585714D02*
X118450057Y-105538095D01*
X118450057Y-105538095D02*
X118545295Y-105490476D01*
X118545295Y-105490476D02*
X118735771Y-105442857D01*
X118735771Y-105442857D02*
X118973866Y-105442857D01*
X118973866Y-105442857D02*
X119164342Y-105490476D01*
X119164342Y-105490476D02*
X119259580Y-105538095D01*
X119259580Y-105538095D02*
X119307200Y-105585714D01*
X119307200Y-105585714D02*
X119354819Y-105680952D01*
X119354819Y-105680952D02*
X119354819Y-105776190D01*
X119354819Y-105776190D02*
X119307200Y-105871428D01*
X119307200Y-105871428D02*
X119259580Y-105919047D01*
X119259580Y-105919047D02*
X119164342Y-105966666D01*
X119164342Y-105966666D02*
X118973866Y-106014285D01*
X118973866Y-106014285D02*
X118735771Y-106014285D01*
X118735771Y-106014285D02*
X118545295Y-105966666D01*
X118545295Y-105966666D02*
X118450057Y-105919047D01*
X118450057Y-105919047D02*
X118402438Y-105871428D01*
X118402438Y-105871428D02*
X118354819Y-105776190D01*
X118688152Y-105014285D02*
X119354819Y-105014285D01*
X118783390Y-105014285D02*
X118735771Y-104966666D01*
X118735771Y-104966666D02*
X118688152Y-104871428D01*
X118688152Y-104871428D02*
X118688152Y-104728571D01*
X118688152Y-104728571D02*
X118735771Y-104633333D01*
X118735771Y-104633333D02*
X118831009Y-104585714D01*
X118831009Y-104585714D02*
X119354819Y-104585714D01*
X118831009Y-103776190D02*
X118831009Y-104109523D01*
X119354819Y-104109523D02*
X118354819Y-104109523D01*
X118354819Y-104109523D02*
X118354819Y-103633333D01*
X107538095Y-114254819D02*
X106966667Y-114254819D01*
X107252381Y-114254819D02*
X107252381Y-113254819D01*
X107252381Y-113254819D02*
X107157143Y-113397676D01*
X107157143Y-113397676D02*
X107061905Y-113492914D01*
X107061905Y-113492914D02*
X106966667Y-113540533D01*
X108157143Y-113254819D02*
X108252381Y-113254819D01*
X108252381Y-113254819D02*
X108347619Y-113302438D01*
X108347619Y-113302438D02*
X108395238Y-113350057D01*
X108395238Y-113350057D02*
X108442857Y-113445295D01*
X108442857Y-113445295D02*
X108490476Y-113635771D01*
X108490476Y-113635771D02*
X108490476Y-113873866D01*
X108490476Y-113873866D02*
X108442857Y-114064342D01*
X108442857Y-114064342D02*
X108395238Y-114159580D01*
X108395238Y-114159580D02*
X108347619Y-114207200D01*
X108347619Y-114207200D02*
X108252381Y-114254819D01*
X108252381Y-114254819D02*
X108157143Y-114254819D01*
X108157143Y-114254819D02*
X108061905Y-114207200D01*
X108061905Y-114207200D02*
X108014286Y-114159580D01*
X108014286Y-114159580D02*
X107966667Y-114064342D01*
X107966667Y-114064342D02*
X107919048Y-113873866D01*
X107919048Y-113873866D02*
X107919048Y-113635771D01*
X107919048Y-113635771D02*
X107966667Y-113445295D01*
X107966667Y-113445295D02*
X108014286Y-113350057D01*
X108014286Y-113350057D02*
X108061905Y-113302438D01*
X108061905Y-113302438D02*
X108157143Y-113254819D01*
X108919048Y-114254819D02*
X108919048Y-113254819D01*
X109490476Y-114254819D02*
X109061905Y-113683390D01*
X109490476Y-113254819D02*
X108919048Y-113826247D01*
X109871429Y-114254819D02*
X110109524Y-114254819D01*
X110109524Y-114254819D02*
X110109524Y-114064342D01*
X110109524Y-114064342D02*
X110014286Y-114016723D01*
X110014286Y-114016723D02*
X109919048Y-113921485D01*
X109919048Y-113921485D02*
X109871429Y-113778628D01*
X109871429Y-113778628D02*
X109871429Y-113540533D01*
X109871429Y-113540533D02*
X109919048Y-113397676D01*
X109919048Y-113397676D02*
X110014286Y-113302438D01*
X110014286Y-113302438D02*
X110157143Y-113254819D01*
X110157143Y-113254819D02*
X110347619Y-113254819D01*
X110347619Y-113254819D02*
X110490476Y-113302438D01*
X110490476Y-113302438D02*
X110585714Y-113397676D01*
X110585714Y-113397676D02*
X110633333Y-113540533D01*
X110633333Y-113540533D02*
X110633333Y-113778628D01*
X110633333Y-113778628D02*
X110585714Y-113921485D01*
X110585714Y-113921485D02*
X110490476Y-114016723D01*
X110490476Y-114016723D02*
X110395238Y-114064342D01*
X110395238Y-114064342D02*
X110395238Y-114254819D01*
X110395238Y-114254819D02*
X110633333Y-114254819D01*
X100954819Y-107747619D02*
X100954819Y-108319047D01*
X100954819Y-108033333D02*
X99954819Y-108033333D01*
X99954819Y-108033333D02*
X100097676Y-108128571D01*
X100097676Y-108128571D02*
X100192914Y-108223809D01*
X100192914Y-108223809D02*
X100240533Y-108319047D01*
X99954819Y-107128571D02*
X99954819Y-107033333D01*
X99954819Y-107033333D02*
X100002438Y-106938095D01*
X100002438Y-106938095D02*
X100050057Y-106890476D01*
X100050057Y-106890476D02*
X100145295Y-106842857D01*
X100145295Y-106842857D02*
X100335771Y-106795238D01*
X100335771Y-106795238D02*
X100573866Y-106795238D01*
X100573866Y-106795238D02*
X100764342Y-106842857D01*
X100764342Y-106842857D02*
X100859580Y-106890476D01*
X100859580Y-106890476D02*
X100907200Y-106938095D01*
X100907200Y-106938095D02*
X100954819Y-107033333D01*
X100954819Y-107033333D02*
X100954819Y-107128571D01*
X100954819Y-107128571D02*
X100907200Y-107223809D01*
X100907200Y-107223809D02*
X100859580Y-107271428D01*
X100859580Y-107271428D02*
X100764342Y-107319047D01*
X100764342Y-107319047D02*
X100573866Y-107366666D01*
X100573866Y-107366666D02*
X100335771Y-107366666D01*
X100335771Y-107366666D02*
X100145295Y-107319047D01*
X100145295Y-107319047D02*
X100050057Y-107271428D01*
X100050057Y-107271428D02*
X100002438Y-107223809D01*
X100002438Y-107223809D02*
X99954819Y-107128571D01*
X99954819Y-106176190D02*
X99954819Y-106080952D01*
X99954819Y-106080952D02*
X100002438Y-105985714D01*
X100002438Y-105985714D02*
X100050057Y-105938095D01*
X100050057Y-105938095D02*
X100145295Y-105890476D01*
X100145295Y-105890476D02*
X100335771Y-105842857D01*
X100335771Y-105842857D02*
X100573866Y-105842857D01*
X100573866Y-105842857D02*
X100764342Y-105890476D01*
X100764342Y-105890476D02*
X100859580Y-105938095D01*
X100859580Y-105938095D02*
X100907200Y-105985714D01*
X100907200Y-105985714D02*
X100954819Y-106080952D01*
X100954819Y-106080952D02*
X100954819Y-106176190D01*
X100954819Y-106176190D02*
X100907200Y-106271428D01*
X100907200Y-106271428D02*
X100859580Y-106319047D01*
X100859580Y-106319047D02*
X100764342Y-106366666D01*
X100764342Y-106366666D02*
X100573866Y-106414285D01*
X100573866Y-106414285D02*
X100335771Y-106414285D01*
X100335771Y-106414285D02*
X100145295Y-106366666D01*
X100145295Y-106366666D02*
X100050057Y-106319047D01*
X100050057Y-106319047D02*
X100002438Y-106271428D01*
X100002438Y-106271428D02*
X99954819Y-106176190D01*
X100288152Y-105414285D02*
X100954819Y-105414285D01*
X100383390Y-105414285D02*
X100335771Y-105366666D01*
X100335771Y-105366666D02*
X100288152Y-105271428D01*
X100288152Y-105271428D02*
X100288152Y-105128571D01*
X100288152Y-105128571D02*
X100335771Y-105033333D01*
X100335771Y-105033333D02*
X100431009Y-104985714D01*
X100431009Y-104985714D02*
X100954819Y-104985714D01*
X100431009Y-104176190D02*
X100431009Y-104509523D01*
X100954819Y-104509523D02*
X99954819Y-104509523D01*
X99954819Y-104509523D02*
X99954819Y-104033333D01*
X121828571Y-112854819D02*
X121257143Y-112854819D01*
X121542857Y-112854819D02*
X121542857Y-111854819D01*
X121542857Y-111854819D02*
X121447619Y-111997676D01*
X121447619Y-111997676D02*
X121352381Y-112092914D01*
X121352381Y-112092914D02*
X121257143Y-112140533D01*
X122447619Y-111854819D02*
X122542857Y-111854819D01*
X122542857Y-111854819D02*
X122638095Y-111902438D01*
X122638095Y-111902438D02*
X122685714Y-111950057D01*
X122685714Y-111950057D02*
X122733333Y-112045295D01*
X122733333Y-112045295D02*
X122780952Y-112235771D01*
X122780952Y-112235771D02*
X122780952Y-112473866D01*
X122780952Y-112473866D02*
X122733333Y-112664342D01*
X122733333Y-112664342D02*
X122685714Y-112759580D01*
X122685714Y-112759580D02*
X122638095Y-112807200D01*
X122638095Y-112807200D02*
X122542857Y-112854819D01*
X122542857Y-112854819D02*
X122447619Y-112854819D01*
X122447619Y-112854819D02*
X122352381Y-112807200D01*
X122352381Y-112807200D02*
X122304762Y-112759580D01*
X122304762Y-112759580D02*
X122257143Y-112664342D01*
X122257143Y-112664342D02*
X122209524Y-112473866D01*
X122209524Y-112473866D02*
X122209524Y-112235771D01*
X122209524Y-112235771D02*
X122257143Y-112045295D01*
X122257143Y-112045295D02*
X122304762Y-111950057D01*
X122304762Y-111950057D02*
X122352381Y-111902438D01*
X122352381Y-111902438D02*
X122447619Y-111854819D01*
X123400000Y-111854819D02*
X123495238Y-111854819D01*
X123495238Y-111854819D02*
X123590476Y-111902438D01*
X123590476Y-111902438D02*
X123638095Y-111950057D01*
X123638095Y-111950057D02*
X123685714Y-112045295D01*
X123685714Y-112045295D02*
X123733333Y-112235771D01*
X123733333Y-112235771D02*
X123733333Y-112473866D01*
X123733333Y-112473866D02*
X123685714Y-112664342D01*
X123685714Y-112664342D02*
X123638095Y-112759580D01*
X123638095Y-112759580D02*
X123590476Y-112807200D01*
X123590476Y-112807200D02*
X123495238Y-112854819D01*
X123495238Y-112854819D02*
X123400000Y-112854819D01*
X123400000Y-112854819D02*
X123304762Y-112807200D01*
X123304762Y-112807200D02*
X123257143Y-112759580D01*
X123257143Y-112759580D02*
X123209524Y-112664342D01*
X123209524Y-112664342D02*
X123161905Y-112473866D01*
X123161905Y-112473866D02*
X123161905Y-112235771D01*
X123161905Y-112235771D02*
X123209524Y-112045295D01*
X123209524Y-112045295D02*
X123257143Y-111950057D01*
X123257143Y-111950057D02*
X123304762Y-111902438D01*
X123304762Y-111902438D02*
X123400000Y-111854819D01*
X124161905Y-112188152D02*
X124161905Y-112854819D01*
X124161905Y-112283390D02*
X124209524Y-112235771D01*
X124209524Y-112235771D02*
X124304762Y-112188152D01*
X124304762Y-112188152D02*
X124447619Y-112188152D01*
X124447619Y-112188152D02*
X124542857Y-112235771D01*
X124542857Y-112235771D02*
X124590476Y-112331009D01*
X124590476Y-112331009D02*
X124590476Y-112854819D01*
X125400000Y-112331009D02*
X125066667Y-112331009D01*
X125066667Y-112854819D02*
X125066667Y-111854819D01*
X125066667Y-111854819D02*
X125542857Y-111854819D01*
X118054819Y-107347619D02*
X118054819Y-107919047D01*
X118054819Y-107633333D02*
X117054819Y-107633333D01*
X117054819Y-107633333D02*
X117197676Y-107728571D01*
X117197676Y-107728571D02*
X117292914Y-107823809D01*
X117292914Y-107823809D02*
X117340533Y-107919047D01*
X117054819Y-106728571D02*
X117054819Y-106633333D01*
X117054819Y-106633333D02*
X117102438Y-106538095D01*
X117102438Y-106538095D02*
X117150057Y-106490476D01*
X117150057Y-106490476D02*
X117245295Y-106442857D01*
X117245295Y-106442857D02*
X117435771Y-106395238D01*
X117435771Y-106395238D02*
X117673866Y-106395238D01*
X117673866Y-106395238D02*
X117864342Y-106442857D01*
X117864342Y-106442857D02*
X117959580Y-106490476D01*
X117959580Y-106490476D02*
X118007200Y-106538095D01*
X118007200Y-106538095D02*
X118054819Y-106633333D01*
X118054819Y-106633333D02*
X118054819Y-106728571D01*
X118054819Y-106728571D02*
X118007200Y-106823809D01*
X118007200Y-106823809D02*
X117959580Y-106871428D01*
X117959580Y-106871428D02*
X117864342Y-106919047D01*
X117864342Y-106919047D02*
X117673866Y-106966666D01*
X117673866Y-106966666D02*
X117435771Y-106966666D01*
X117435771Y-106966666D02*
X117245295Y-106919047D01*
X117245295Y-106919047D02*
X117150057Y-106871428D01*
X117150057Y-106871428D02*
X117102438Y-106823809D01*
X117102438Y-106823809D02*
X117054819Y-106728571D01*
X117388152Y-105538095D02*
X118054819Y-105538095D01*
X117388152Y-105966666D02*
X117911961Y-105966666D01*
X117911961Y-105966666D02*
X118007200Y-105919047D01*
X118007200Y-105919047D02*
X118054819Y-105823809D01*
X118054819Y-105823809D02*
X118054819Y-105680952D01*
X118054819Y-105680952D02*
X118007200Y-105585714D01*
X118007200Y-105585714D02*
X117959580Y-105538095D01*
X117531009Y-104728571D02*
X117531009Y-105061904D01*
X118054819Y-105061904D02*
X117054819Y-105061904D01*
X117054819Y-105061904D02*
X117054819Y-104585714D01*
X107538095Y-112554819D02*
X106966667Y-112554819D01*
X107252381Y-112554819D02*
X107252381Y-111554819D01*
X107252381Y-111554819D02*
X107157143Y-111697676D01*
X107157143Y-111697676D02*
X107061905Y-111792914D01*
X107061905Y-111792914D02*
X106966667Y-111840533D01*
X108157143Y-111554819D02*
X108252381Y-111554819D01*
X108252381Y-111554819D02*
X108347619Y-111602438D01*
X108347619Y-111602438D02*
X108395238Y-111650057D01*
X108395238Y-111650057D02*
X108442857Y-111745295D01*
X108442857Y-111745295D02*
X108490476Y-111935771D01*
X108490476Y-111935771D02*
X108490476Y-112173866D01*
X108490476Y-112173866D02*
X108442857Y-112364342D01*
X108442857Y-112364342D02*
X108395238Y-112459580D01*
X108395238Y-112459580D02*
X108347619Y-112507200D01*
X108347619Y-112507200D02*
X108252381Y-112554819D01*
X108252381Y-112554819D02*
X108157143Y-112554819D01*
X108157143Y-112554819D02*
X108061905Y-112507200D01*
X108061905Y-112507200D02*
X108014286Y-112459580D01*
X108014286Y-112459580D02*
X107966667Y-112364342D01*
X107966667Y-112364342D02*
X107919048Y-112173866D01*
X107919048Y-112173866D02*
X107919048Y-111935771D01*
X107919048Y-111935771D02*
X107966667Y-111745295D01*
X107966667Y-111745295D02*
X108014286Y-111650057D01*
X108014286Y-111650057D02*
X108061905Y-111602438D01*
X108061905Y-111602438D02*
X108157143Y-111554819D01*
X108919048Y-112554819D02*
X108919048Y-111554819D01*
X109490476Y-112554819D02*
X109061905Y-111983390D01*
X109490476Y-111554819D02*
X108919048Y-112126247D01*
X109871429Y-112554819D02*
X110109524Y-112554819D01*
X110109524Y-112554819D02*
X110109524Y-112364342D01*
X110109524Y-112364342D02*
X110014286Y-112316723D01*
X110014286Y-112316723D02*
X109919048Y-112221485D01*
X109919048Y-112221485D02*
X109871429Y-112078628D01*
X109871429Y-112078628D02*
X109871429Y-111840533D01*
X109871429Y-111840533D02*
X109919048Y-111697676D01*
X109919048Y-111697676D02*
X110014286Y-111602438D01*
X110014286Y-111602438D02*
X110157143Y-111554819D01*
X110157143Y-111554819D02*
X110347619Y-111554819D01*
X110347619Y-111554819D02*
X110490476Y-111602438D01*
X110490476Y-111602438D02*
X110585714Y-111697676D01*
X110585714Y-111697676D02*
X110633333Y-111840533D01*
X110633333Y-111840533D02*
X110633333Y-112078628D01*
X110633333Y-112078628D02*
X110585714Y-112221485D01*
X110585714Y-112221485D02*
X110490476Y-112316723D01*
X110490476Y-112316723D02*
X110395238Y-112364342D01*
X110395238Y-112364342D02*
X110395238Y-112554819D01*
X110395238Y-112554819D02*
X110633333Y-112554819D01*
X99952380Y-117554819D02*
X99380952Y-117554819D01*
X99666666Y-117554819D02*
X99666666Y-116554819D01*
X99666666Y-116554819D02*
X99571428Y-116697676D01*
X99571428Y-116697676D02*
X99476190Y-116792914D01*
X99476190Y-116792914D02*
X99380952Y-116840533D01*
X100571428Y-116554819D02*
X100666666Y-116554819D01*
X100666666Y-116554819D02*
X100761904Y-116602438D01*
X100761904Y-116602438D02*
X100809523Y-116650057D01*
X100809523Y-116650057D02*
X100857142Y-116745295D01*
X100857142Y-116745295D02*
X100904761Y-116935771D01*
X100904761Y-116935771D02*
X100904761Y-117173866D01*
X100904761Y-117173866D02*
X100857142Y-117364342D01*
X100857142Y-117364342D02*
X100809523Y-117459580D01*
X100809523Y-117459580D02*
X100761904Y-117507200D01*
X100761904Y-117507200D02*
X100666666Y-117554819D01*
X100666666Y-117554819D02*
X100571428Y-117554819D01*
X100571428Y-117554819D02*
X100476190Y-117507200D01*
X100476190Y-117507200D02*
X100428571Y-117459580D01*
X100428571Y-117459580D02*
X100380952Y-117364342D01*
X100380952Y-117364342D02*
X100333333Y-117173866D01*
X100333333Y-117173866D02*
X100333333Y-116935771D01*
X100333333Y-116935771D02*
X100380952Y-116745295D01*
X100380952Y-116745295D02*
X100428571Y-116650057D01*
X100428571Y-116650057D02*
X100476190Y-116602438D01*
X100476190Y-116602438D02*
X100571428Y-116554819D01*
X101761904Y-116888152D02*
X101761904Y-117554819D01*
X101333333Y-116888152D02*
X101333333Y-117411961D01*
X101333333Y-117411961D02*
X101380952Y-117507200D01*
X101380952Y-117507200D02*
X101476190Y-117554819D01*
X101476190Y-117554819D02*
X101619047Y-117554819D01*
X101619047Y-117554819D02*
X101714285Y-117507200D01*
X101714285Y-117507200D02*
X101761904Y-117459580D01*
X102571428Y-117031009D02*
X102238095Y-117031009D01*
X102238095Y-117554819D02*
X102238095Y-116554819D01*
X102238095Y-116554819D02*
X102714285Y-116554819D01*
X113920476Y-111637676D02*
X114444286Y-111637676D01*
X113872857Y-111828152D02*
X114587143Y-111828152D01*
X114063333Y-112494819D02*
X114206190Y-112494819D01*
X114206190Y-111828152D02*
X114206190Y-112494819D01*
X113920476Y-111447200D02*
X114444286Y-111447200D01*
X114444286Y-111447200D02*
X114491905Y-111828152D01*
X113920476Y-111971009D02*
X114063333Y-112113866D01*
X114206190Y-112066247D02*
X114491905Y-112351961D01*
X114396667Y-112066247D02*
X114301429Y-112161485D01*
X114539524Y-111971009D02*
X114349048Y-112113866D01*
X113587143Y-111875771D02*
X113349048Y-112113866D01*
X113587143Y-111351961D02*
X113396667Y-111828152D01*
X114158571Y-112209104D02*
X113872857Y-112351961D01*
X113730000Y-112304342D02*
X113349048Y-112399580D01*
X113682381Y-111685295D02*
X113634762Y-111828152D01*
X113634762Y-111828152D02*
X113349048Y-111828152D01*
X113682381Y-112066247D02*
X113349048Y-112161485D01*
X115396666Y-111494819D02*
X116063333Y-111494819D01*
X115491904Y-112494819D02*
X115777619Y-112494819D01*
X115777619Y-111494819D02*
X115777619Y-112494819D01*
X115301428Y-111637676D02*
X115206190Y-111828152D01*
X114920476Y-111637676D02*
X114872857Y-111875771D01*
X115063333Y-111351961D02*
X115063333Y-111923390D01*
X115063333Y-111923390D02*
X115063333Y-112161485D01*
X115063333Y-112161485D02*
X114872857Y-112447200D01*
X115063333Y-112113866D02*
X115301428Y-112304342D01*
D11*
%TO.C,LED1*%
X114666500Y-121143000D02*
X114158500Y-121651000D01*
X115047500Y-120571500D02*
X115047500Y-119428500D01*
X115301500Y-121143000D02*
X114793500Y-121651000D01*
X116290000Y-118950000D02*
X116290000Y-118764000D01*
X116290000Y-121236000D02*
X116290000Y-121050000D01*
X113057665Y-118921392D02*
G75*
G02*
X116290000Y-118764484I1672335J-1078608D01*
G01*
X116290000Y-121235516D02*
G75*
G02*
X113057665Y-121078608I-1560000J1235516D01*
G01*
X114412500Y-121651000D02*
X114158500Y-121651000D01*
X114158500Y-121397000D01*
X114412500Y-121651000D01*
G36*
X114412500Y-121651000D02*
G01*
X114158500Y-121651000D01*
X114158500Y-121397000D01*
X114412500Y-121651000D01*
G37*
X115047500Y-120000000D02*
X114412500Y-120571500D01*
X114412500Y-119428500D01*
X115047500Y-120000000D01*
G36*
X115047500Y-120000000D02*
G01*
X114412500Y-120571500D01*
X114412500Y-119428500D01*
X115047500Y-120000000D01*
G37*
X115047500Y-121651000D02*
X114793500Y-121651000D01*
X114793500Y-121397000D01*
X115047500Y-121651000D01*
G36*
X115047500Y-121651000D02*
G01*
X114793500Y-121651000D01*
X114793500Y-121397000D01*
X115047500Y-121651000D01*
G37*
%TO.C,R1*%
X121875000Y-102200000D02*
X121805000Y-102200000D01*
X124615000Y-102200000D02*
G75*
G02*
X121875000Y-102200000I-1370000J0D01*
G01*
X121875000Y-102200000D02*
G75*
G02*
X124615000Y-102200000I1370000J0D01*
G01*
%TO.C,P2*%
X105200000Y-133660000D02*
X105200000Y-134300000D01*
X105200000Y-134300000D02*
X105600000Y-134300000D01*
X105440000Y-124940000D02*
X105440000Y-134060000D01*
X105440000Y-124940000D02*
X115560000Y-124940000D01*
X105440000Y-132500000D02*
X115560000Y-132500000D01*
X105440000Y-133600000D02*
X115560000Y-133600000D01*
X105440000Y-134060000D02*
X115560000Y-134060000D01*
X106452000Y-130281000D02*
X106346000Y-130388000D01*
X106718000Y-130547000D02*
X106612000Y-130654000D01*
X109388000Y-127346000D02*
X109281000Y-127453000D01*
X109654000Y-127612000D02*
X109547000Y-127719000D01*
X111742000Y-129992000D02*
X111347000Y-130388000D01*
X111993000Y-130274000D02*
X111613000Y-130654000D01*
X114388000Y-127346000D02*
X114008000Y-127726000D01*
X114654000Y-127612000D02*
X114259000Y-128008000D01*
X115560000Y-124940000D02*
X115560000Y-134060000D01*
X110180000Y-129000000D02*
G75*
G02*
X105820000Y-129000000I-2180000J0D01*
G01*
X105820000Y-129000000D02*
G75*
G02*
X110180000Y-129000000I2180000J0D01*
G01*
X115180000Y-129000000D02*
G75*
G02*
X110820000Y-129000000I-2180000J0D01*
G01*
X110820000Y-129000000D02*
G75*
G02*
X115180000Y-129000000I2180000J0D01*
G01*
%TO.C,C1*%
X123200000Y-115000000D02*
X122200000Y-115000000D01*
X123200000Y-116000000D02*
X123200000Y-114000000D01*
X123800000Y-115000000D02*
X123800000Y-114000000D01*
X123800000Y-115000000D02*
X123800000Y-116000000D01*
X124800000Y-115000000D02*
X123800000Y-115000000D01*
X121371856Y-113686677D02*
G75*
G02*
X125746000Y-113666501I2215144J-6075823D01*
G01*
X125738644Y-116333500D02*
G75*
G02*
X121364500Y-116353676I-2215144J6075820D01*
G01*
%TO.C,C9*%
X103000000Y-105200000D02*
X103000000Y-106200000D01*
X103000000Y-106200000D02*
X102000000Y-106200000D01*
X103000000Y-106200000D02*
X104000000Y-106200000D01*
X103000000Y-106800000D02*
X103000000Y-107800000D01*
X104000000Y-106800000D02*
X102000000Y-106800000D01*
X101686677Y-108628144D02*
G75*
G02*
X101666501Y-104254000I6075823J2215144D01*
G01*
X104333500Y-104261356D02*
G75*
G02*
X104353676Y-108635500I-6075820J-2215144D01*
G01*
%TO.C,C8*%
X101200000Y-120000000D02*
X100200000Y-120000000D01*
X101200000Y-121000000D02*
X101200000Y-119000000D01*
X101800000Y-120000000D02*
X101800000Y-119000000D01*
X101800000Y-120000000D02*
X101800000Y-121000000D01*
X102800000Y-120000000D02*
X101800000Y-120000000D01*
X99371856Y-118686677D02*
G75*
G02*
X103746000Y-118666501I2215144J-6075823D01*
G01*
X103738644Y-121333500D02*
G75*
G02*
X99364500Y-121353676I-2215144J6075820D01*
G01*
%TO.C,C5*%
X115000000Y-105200000D02*
X115000000Y-106200000D01*
X115000000Y-106200000D02*
X114000000Y-106200000D01*
X115000000Y-106200000D02*
X116000000Y-106200000D01*
X115000000Y-106800000D02*
X115000000Y-107800000D01*
X116000000Y-106800000D02*
X114000000Y-106800000D01*
X113686677Y-108628144D02*
G75*
G02*
X113666501Y-104254000I6075823J2215144D01*
G01*
X116333500Y-104261356D02*
G75*
G02*
X116353676Y-108635500I-6075820J-2215144D01*
G01*
%TO.C,R2*%
X109370000Y-120000000D02*
X109440000Y-120000000D01*
X109370000Y-120000000D02*
G75*
G02*
X106630000Y-120000000I-1370000J0D01*
G01*
X106630000Y-120000000D02*
G75*
G02*
X109370000Y-120000000I1370000J0D01*
G01*
%TO.C,C10*%
X107000000Y-105200000D02*
X107000000Y-106200000D01*
X107000000Y-106200000D02*
X106000000Y-106200000D01*
X107000000Y-106200000D02*
X108000000Y-106200000D01*
X107000000Y-106800000D02*
X107000000Y-107800000D01*
X108000000Y-106800000D02*
X106000000Y-106800000D01*
X105686677Y-108628144D02*
G75*
G02*
X105666501Y-104254000I6075823J2215144D01*
G01*
X108333500Y-104261356D02*
G75*
G02*
X108353676Y-108635500I-6075820J-2215144D01*
G01*
%TO.C,P1*%
X116200000Y-133660000D02*
X116200000Y-134300000D01*
X116200000Y-134300000D02*
X116600000Y-134300000D01*
X116440000Y-124940000D02*
X116440000Y-134060000D01*
X116440000Y-124940000D02*
X126560000Y-124940000D01*
X116440000Y-132500000D02*
X126560000Y-132500000D01*
X116440000Y-133600000D02*
X126560000Y-133600000D01*
X116440000Y-134060000D02*
X126560000Y-134060000D01*
X117452000Y-130281000D02*
X117346000Y-130388000D01*
X117718000Y-130547000D02*
X117612000Y-130654000D01*
X120388000Y-127346000D02*
X120281000Y-127453000D01*
X120654000Y-127612000D02*
X120547000Y-127719000D01*
X122742000Y-129992000D02*
X122347000Y-130388000D01*
X122993000Y-130274000D02*
X122613000Y-130654000D01*
X125388000Y-127346000D02*
X125008000Y-127726000D01*
X125654000Y-127612000D02*
X125259000Y-128008000D01*
X126560000Y-124940000D02*
X126560000Y-134060000D01*
X121180000Y-129000000D02*
G75*
G02*
X116820000Y-129000000I-2180000J0D01*
G01*
X116820000Y-129000000D02*
G75*
G02*
X121180000Y-129000000I2180000J0D01*
G01*
X126180000Y-129000000D02*
G75*
G02*
X121820000Y-129000000I-2180000J0D01*
G01*
X121820000Y-129000000D02*
G75*
G02*
X126180000Y-129000000I2180000J0D01*
G01*
%TO.C,C2*%
X123200000Y-120000000D02*
X122200000Y-120000000D01*
X123200000Y-121000000D02*
X123200000Y-119000000D01*
X123800000Y-120000000D02*
X123800000Y-119000000D01*
X123800000Y-120000000D02*
X123800000Y-121000000D01*
X124800000Y-120000000D02*
X123800000Y-120000000D01*
X121371856Y-118686677D02*
G75*
G02*
X125746000Y-118666501I2215144J-6075823D01*
G01*
X125738644Y-121333500D02*
G75*
G02*
X121364500Y-121353676I-2215144J6075820D01*
G01*
%TO.C,C4*%
X111000000Y-105200000D02*
X111000000Y-106200000D01*
X111000000Y-106200000D02*
X110000000Y-106200000D01*
X111000000Y-106200000D02*
X112000000Y-106200000D01*
X111000000Y-106800000D02*
X111000000Y-107800000D01*
X112000000Y-106800000D02*
X110000000Y-106800000D01*
X109686677Y-108628144D02*
G75*
G02*
X109666501Y-104254000I6075823J2215144D01*
G01*
X112333500Y-104261356D02*
G75*
G02*
X112353676Y-108635500I-6075820J-2215144D01*
G01*
%TO.C,R5*%
X109370000Y-116000000D02*
X109440000Y-116000000D01*
X109370000Y-116000000D02*
G75*
G02*
X106630000Y-116000000I-1370000J0D01*
G01*
X106630000Y-116000000D02*
G75*
G02*
X109370000Y-116000000I1370000J0D01*
G01*
%TO.C,C7*%
X101200000Y-124000000D02*
X100200000Y-124000000D01*
X101200000Y-125000000D02*
X101200000Y-123000000D01*
X101800000Y-124000000D02*
X101800000Y-123000000D01*
X101800000Y-124000000D02*
X101800000Y-125000000D01*
X102800000Y-124000000D02*
X101800000Y-124000000D01*
X99371856Y-122686677D02*
G75*
G02*
X103746000Y-122666501I2215144J-6075823D01*
G01*
X103738644Y-125333500D02*
G75*
G02*
X99364500Y-125353676I-2215144J6075820D01*
G01*
%TO.C,LED2*%
X114666500Y-116143000D02*
X114158500Y-116651000D01*
X115047500Y-115571500D02*
X115047500Y-114428500D01*
X115301500Y-116143000D02*
X114793500Y-116651000D01*
X116290000Y-113950000D02*
X116290000Y-113764000D01*
X116290000Y-116236000D02*
X116290000Y-116050000D01*
X113057665Y-113921392D02*
G75*
G02*
X116290000Y-113764484I1672335J-1078608D01*
G01*
X116290000Y-116235516D02*
G75*
G02*
X113057665Y-116078608I-1560000J1235516D01*
G01*
X114412500Y-116651000D02*
X114158500Y-116651000D01*
X114158500Y-116397000D01*
X114412500Y-116651000D01*
G36*
X114412500Y-116651000D02*
G01*
X114158500Y-116651000D01*
X114158500Y-116397000D01*
X114412500Y-116651000D01*
G37*
X115047500Y-115000000D02*
X114412500Y-115571500D01*
X114412500Y-114428500D01*
X115047500Y-115000000D01*
G36*
X115047500Y-115000000D02*
G01*
X114412500Y-115571500D01*
X114412500Y-114428500D01*
X115047500Y-115000000D01*
G37*
X115047500Y-116651000D02*
X114793500Y-116651000D01*
X114793500Y-116397000D01*
X115047500Y-116651000D01*
G36*
X115047500Y-116651000D02*
G01*
X114793500Y-116651000D01*
X114793500Y-116397000D01*
X115047500Y-116651000D01*
G37*
%TD*%
M02*
