%TF.GenerationSoftware,KiCad,Pcbnew,8.0.5*%
%TF.CreationDate,2024-09-23T12:45:29+08:00*%
%TF.ProjectId,li-chuang-di-wen-xing-cw32f030c8t6-kai-fa-ban,6c692d63-6875-4616-9e67-2d64692d7765,rev?*%
%TF.SameCoordinates,Original*%
%TF.FileFunction,Soldermask,Top*%
%TF.FilePolarity,Negative*%
%FSLAX46Y46*%
G04 Gerber Fmt 4.6, Leading zero omitted, Abs format (unit mm)*
G04 Created by KiCad (PCBNEW 8.0.5) date 2024-09-23 12:45:29*
%MOMM*%
%LPD*%
G01*
G04 APERTURE LIST*
G04 Aperture macros list*
%AMRoundRect*
0 Rectangle with rounded corners*
0 $1 Rounding radius*
0 $2 $3 $4 $5 $6 $7 $8 $9 X,Y pos of 4 corners*
0 Add a 4 corners polygon primitive as box body*
4,1,4,$2,$3,$4,$5,$6,$7,$8,$9,$2,$3,0*
0 Add four circle primitives for the rounded corners*
1,1,$1+$1,$2,$3*
1,1,$1+$1,$4,$5*
1,1,$1+$1,$6,$7*
1,1,$1+$1,$8,$9*
0 Add four rect primitives between the rounded corners*
20,1,$1+$1,$2,$3,$4,$5,0*
20,1,$1+$1,$4,$5,$6,$7,0*
20,1,$1+$1,$6,$7,$8,$9,0*
20,1,$1+$1,$8,$9,$2,$3,0*%
%AMFreePoly0*
4,1,123,0.971500,0.949000,1.016000,0.945500,1.060000,0.940500,1.104000,0.933000,1.147500,0.924000,1.190500,0.912500,1.233000,0.899000,1.275000,0.884000,1.316000,0.866500,1.356500,0.847500,1.395500,0.826000,1.434000,0.803500,1.471000,0.778500,1.507000,0.752500,1.541500,0.724500,1.574500,0.695000,1.606500,0.663500,1.637000,0.631000,1.666000,0.597000,1.693000,0.562000,
1.718500,0.525500,1.742000,0.487500,1.764000,0.449000,1.784500,0.409000,1.802500,0.330000,3.500000,0.330000,3.500000,-0.330000,1.802500,-0.330000,1.784500,-0.409500,1.764000,-0.449000,1.742000,-0.488000,1.718500,-0.525500,1.693000,-0.562000,1.666000,-0.597500,1.637000,-0.631500,1.606500,-0.664000,1.574500,-0.695000,1.541500,-0.724500,1.507000,-0.752500,1.471000,-0.779000,
1.434000,-0.803500,1.395500,-0.826500,1.356500,-0.847500,1.316000,-0.867000,1.275000,-0.884000,1.233000,-0.899500,1.190500,-0.913000,1.147500,-0.924000,1.104000,-0.933500,1.060000,-0.941000,1.016000,-0.946000,0.971500,-0.949000,0.927000,-0.950000,-0.927000,-0.950000,-0.971500,-0.949000,-1.016000,-0.946000,-1.060500,-0.941000,-1.104500,-0.933500,-1.148000,-0.924000,-1.191000,-0.913000,
-1.233500,-0.899500,-1.275500,-0.884000,-1.316500,-0.867000,-1.356500,-0.847500,-1.396000,-0.826500,-1.434000,-0.803500,-1.471000,-0.779000,-1.507000,-0.752500,-1.541500,-0.724500,-1.575000,-0.695000,-1.607000,-0.664000,-1.637000,-0.631500,-1.666000,-0.597500,-1.693000,-0.562000,-1.718500,-0.525500,-1.742500,-0.488000,-1.764500,-0.449000,-1.784500,-0.409500,-1.802500,-0.369000,-1.819000,-0.327500,
-1.833500,-0.285500,-1.846000,-0.242500,-1.856000,-0.199000,-1.864500,-0.155500,-1.870500,-0.111500,-1.875000,-0.067000,-1.877000,-0.022500,-1.877000,0.022000,-1.875000,0.066500,-1.870500,0.111000,-1.864500,0.155000,-1.856000,0.199000,-1.846000,0.242000,-1.833500,0.285000,-1.819000,0.327000,-1.802500,0.368500,-1.784500,0.409000,-1.764500,0.449000,-1.742500,0.487500,-1.718500,0.525500,
-1.693000,0.562000,-1.666000,0.597000,-1.637000,0.631000,-1.607000,0.663500,-1.575000,0.695000,-1.541500,0.724500,-1.507000,0.752500,-1.471000,0.778500,-1.434000,0.803500,-1.396000,0.826000,-1.356500,0.847500,-1.316500,0.866500,-1.275500,0.884000,-1.233500,0.899000,-1.191000,0.912500,-1.148000,0.924000,-1.104500,0.933000,-1.060500,0.940500,-1.016000,0.945500,-0.971500,0.949000,
-0.927000,0.950000,0.927000,0.950000,0.971500,0.949000,0.971500,0.949000,$1*%
G04 Aperture macros list end*
%ADD10R,1.200000X1.400000*%
%ADD11RoundRect,0.283125X0.283125X0.405375X-0.283125X0.405375X-0.283125X-0.405375X0.283125X-0.405375X0*%
%ADD12RoundRect,0.337500X-0.337500X0.367500X-0.337500X-0.367500X0.337500X-0.367500X0.337500X0.367500X0*%
%ADD13R,1.000000X1.200000*%
%ADD14R,1.800000X1.800000*%
%ADD15C,1.800000*%
%ADD16RoundRect,0.200000X-0.250000X0.200000X-0.250000X-0.200000X0.250000X-0.200000X0.250000X0.200000X0*%
%ADD17RoundRect,0.283125X-0.283125X-0.405375X0.283125X-0.405375X0.283125X0.405375X-0.283125X0.405375X0*%
%ADD18RoundRect,0.200000X0.200000X0.250000X-0.200000X0.250000X-0.200000X-0.250000X0.200000X-0.250000X0*%
%ADD19RoundRect,0.283125X-0.405375X0.283125X-0.405375X-0.283125X0.405375X-0.283125X0.405375X0.283125X0*%
%ADD20RoundRect,0.337500X-0.367500X-0.337500X0.367500X-0.337500X0.367500X0.337500X-0.367500X0.337500X0*%
%ADD21R,1.700000X1.700000*%
%ADD22C,1.700000*%
%ADD23RoundRect,0.200000X0.250000X-0.200000X0.250000X0.200000X-0.250000X0.200000X-0.250000X-0.200000X0*%
%ADD24RoundRect,0.337500X0.367500X0.337500X-0.367500X0.337500X-0.367500X-0.337500X0.367500X-0.337500X0*%
%ADD25R,1.100000X0.600000*%
%ADD26R,1.100000X0.300000*%
%ADD27O,2.000000X1.200000*%
%ADD28O,1.800000X1.200000*%
%ADD29O,1.800000X0.280000*%
%ADD30O,0.280000X1.800000*%
%ADD31RoundRect,0.250000X0.250000X0.449750X-0.250000X0.449750X-0.250000X-0.449750X0.250000X-0.449750X0*%
%ADD32RoundRect,0.315000X-0.535000X0.210000X-0.535000X-0.210000X0.535000X-0.210000X0.535000X0.210000X0*%
%ADD33RoundRect,0.200000X-0.200000X-0.250000X0.200000X-0.250000X0.200000X0.250000X-0.200000X0.250000X0*%
%ADD34R,1.575000X0.672000*%
%ADD35FreePoly0,0.000000*%
G04 APERTURE END LIST*
D10*
%TO.C,X1*%
X83421875Y-87674207D03*
X83421875Y-89874207D03*
X85171875Y-89874207D03*
X85171875Y-87674207D03*
%TD*%
D11*
%TO.C,R9*%
X118826375Y-90250000D03*
X116826375Y-90250000D03*
%TD*%
D12*
%TO.C,C2*%
X116968875Y-82410000D03*
X116968875Y-84410000D03*
%TD*%
D13*
%TO.C,SW1*%
X70660000Y-92390000D03*
X70660000Y-84990000D03*
%TD*%
D14*
%TO.C,H2*%
X118110000Y-100330000D03*
D15*
X115570000Y-100330000D03*
X113030000Y-100330000D03*
X110490000Y-100330000D03*
X107950000Y-100330000D03*
X105410000Y-100330000D03*
X102870000Y-100330000D03*
X100330000Y-100330000D03*
X97790000Y-100330000D03*
X95250000Y-100330000D03*
X92710000Y-100330000D03*
X90170000Y-100330000D03*
X87630000Y-100330000D03*
X85090000Y-100330000D03*
X82550000Y-100330000D03*
X80010000Y-100330000D03*
X77470000Y-100330000D03*
X74930000Y-100330000D03*
X72390000Y-100330000D03*
X69850000Y-100330000D03*
%TD*%
D16*
%TO.C,C6*%
X101010000Y-93370000D03*
X101010000Y-94770000D03*
%TD*%
D17*
%TO.C,R4*%
X73130000Y-80160000D03*
X75130000Y-80160000D03*
%TD*%
D14*
%TO.C,H3*%
X69850000Y-72390000D03*
D15*
X72390000Y-72390000D03*
X74930000Y-72390000D03*
X77470000Y-72390000D03*
X80010000Y-72390000D03*
X82550000Y-72390000D03*
X85090000Y-72390000D03*
X87630000Y-72390000D03*
X90170000Y-72390000D03*
X92710000Y-72390000D03*
X95250000Y-72390000D03*
X97790000Y-72390000D03*
X100330000Y-72390000D03*
X102870000Y-72390000D03*
X105410000Y-72390000D03*
X107950000Y-72390000D03*
X110490000Y-72390000D03*
X113030000Y-72390000D03*
X115570000Y-72390000D03*
X118110000Y-72390000D03*
%TD*%
D18*
%TO.C,C7*%
X92320000Y-83480000D03*
X90920000Y-83480000D03*
%TD*%
%TO.C,C8*%
X92320000Y-81370000D03*
X90920000Y-81370000D03*
%TD*%
D19*
%TO.C,R2*%
X74033500Y-85227250D03*
X74033500Y-87227250D03*
%TD*%
D12*
%TO.C,C3*%
X74020000Y-89950250D03*
X74020000Y-91950250D03*
%TD*%
%TO.C,C1*%
X120097500Y-82440000D03*
X120097500Y-84440000D03*
%TD*%
D11*
%TO.C,R8*%
X118826375Y-87368250D03*
X116826375Y-87368250D03*
%TD*%
D20*
%TO.C,C11*%
X111780250Y-92370000D03*
X113780250Y-92370000D03*
%TD*%
D11*
%TO.C,R5*%
X75200000Y-77770000D03*
X73200000Y-77770000D03*
%TD*%
D21*
%TO.C,H1*%
X125730000Y-100330000D03*
D22*
X123190000Y-100330000D03*
X120650000Y-100330000D03*
%TD*%
D23*
%TO.C,C9*%
X89560000Y-90880000D03*
X89560000Y-89480000D03*
%TD*%
D18*
%TO.C,C12*%
X80771375Y-90293957D03*
X79371375Y-90293957D03*
%TD*%
D20*
%TO.C,C4*%
X111780250Y-87211666D03*
X113780250Y-87211666D03*
%TD*%
D24*
%TO.C,C10*%
X129140000Y-76560000D03*
X127140000Y-76560000D03*
%TD*%
D18*
%TO.C,C15*%
X80750750Y-83302250D03*
X79350750Y-83302250D03*
%TD*%
D25*
%TO.C,USB1*%
X126625000Y-88510000D03*
X126625000Y-87710000D03*
D26*
X126625000Y-87060000D03*
X126625000Y-86560000D03*
X126625000Y-86060000D03*
X126625000Y-85560000D03*
X126625000Y-85060000D03*
X126625000Y-84560000D03*
X126625000Y-84060000D03*
X126625000Y-83560000D03*
D25*
X126625000Y-82910000D03*
X126625000Y-82110000D03*
D27*
X127175000Y-89635000D03*
D28*
X131375000Y-89635000D03*
D27*
X127175000Y-80985000D03*
D28*
X131375000Y-80985000D03*
%TD*%
D29*
%TO.C,U1*%
X92720000Y-85850000D03*
X92720000Y-86350000D03*
X92720000Y-86850000D03*
X92720000Y-87350000D03*
X92720000Y-87850000D03*
X92720000Y-88350000D03*
X92720000Y-88850000D03*
X92720000Y-89350000D03*
X92720000Y-89850000D03*
X92720000Y-90350000D03*
X92720000Y-90850000D03*
X92720000Y-91350000D03*
D30*
X94020000Y-92650000D03*
X94520000Y-92650000D03*
X95020000Y-92650000D03*
X95520000Y-92650000D03*
X96020000Y-92650000D03*
X96520000Y-92650000D03*
X97020000Y-92650000D03*
X97520000Y-92650000D03*
X98020000Y-92650000D03*
X98520000Y-92650000D03*
X99020000Y-92650000D03*
X99520000Y-92650000D03*
D29*
X100820000Y-91350000D03*
X100820000Y-90850000D03*
X100820000Y-90350000D03*
X100820000Y-89850000D03*
X100820000Y-89350000D03*
X100820000Y-88850000D03*
X100820000Y-88350000D03*
X100820000Y-87850000D03*
X100820000Y-87350000D03*
X100820000Y-86850000D03*
X100820000Y-86350000D03*
X100820000Y-85850000D03*
D30*
X99520000Y-84550000D03*
X99020000Y-84550000D03*
X98520000Y-84550000D03*
X98020000Y-84550000D03*
X97520000Y-84550000D03*
X97020000Y-84550000D03*
X96520000Y-84550000D03*
X96020000Y-84550000D03*
X95520000Y-84550000D03*
X95020000Y-84550000D03*
X94520000Y-84550000D03*
X94020000Y-84550000D03*
%TD*%
D21*
%TO.C,H6*%
X69850000Y-97790000D03*
D22*
X72390000Y-97790000D03*
%TD*%
D17*
%TO.C,R6*%
X122080000Y-96650000D03*
X124080000Y-96650000D03*
%TD*%
D31*
%TO.C,LED2*%
X70550500Y-77596000D03*
X68449500Y-77596000D03*
%TD*%
%TO.C,LED1*%
X70550500Y-80126000D03*
X68449500Y-80126000D03*
%TD*%
D21*
%TO.C,H4*%
X120650000Y-72390000D03*
D22*
X123190000Y-72390000D03*
X125730000Y-72390000D03*
X128270000Y-72390000D03*
%TD*%
D20*
%TO.C,C5*%
X111780250Y-89790832D03*
X113780250Y-89790832D03*
%TD*%
D18*
%TO.C,C14*%
X80750750Y-80772250D03*
X79350750Y-80772250D03*
%TD*%
D32*
%TO.C,X2*%
X83450000Y-80765000D03*
X83450000Y-83315000D03*
%TD*%
D33*
%TO.C,C13*%
X79386875Y-87000707D03*
X80786875Y-87000707D03*
%TD*%
D34*
%TO.C,Q1*%
X114032000Y-84710000D03*
D35*
X111320000Y-83210000D03*
D34*
X114032000Y-81710000D03*
%TD*%
M02*
