M48
; DRILL file {KiCad 8.0.5} date 2024-09-23T12:45:27+0800
; FORMAT={-:-/ absolute / inch / decimal}
; #@! TF.CreationDate,2024-09-23T12:45:27+08:00
; #@! TF.GenerationSoftware,Kicad,Pcbnew,8.0.5
; #@! TF.FileFunction,Plated,1,2,PTH
FMAT,2
INCH
; #@! TA.AperFunction,Plated,PTH,ViaDrill
T1C0.0118
; #@! TA.AperFunction,Plated,PTH,ComponentDrill
T2C0.0236
; #@! TA.AperFunction,Plated,PTH,ComponentDrill
T3C0.0394
; #@! TA.AperFunction,Plated,PTH,ComponentDrill
T4C0.0433
; #@! TA.AperFunction,Plated,PTH,ComponentDrill
T5C0.0472
%
G90
G05
T1
X2.6122Y-3.0496
X2.6169Y-3.1614
X2.635Y-2.7681
X2.6358Y-2.8673
X2.6358Y-3.3173
X2.6358Y-3.4673
X2.6358Y-3.6173
X2.6358Y-3.7673
X2.6358Y-3.9173
X2.6484Y-4.0295
X2.7382Y-3.6846
X2.7657Y-3.2858
X2.785Y-2.7681
X2.7984Y-4.0295
X2.8346Y-3.1098
X2.8512Y-3.3382
X2.8996Y-3.6976
X2.9012Y-3.2213
X2.9213Y-2.9913
X2.935Y-2.7681
X2.9484Y-4.0295
X2.9579Y-3.2555
X2.9587Y-3.2157
X3.0039Y-2.9169
X3.0063Y-3.852
X3.0291Y-3.3732
X3.037Y-3.1295
X3.0748Y-3.6673
X3.0787Y-3.1799
X3.0787Y-3.426
X3.0787Y-3.5528
X3.0791Y-3.3472
X3.085Y-2.7681
X3.0984Y-4.0295
X3.1051Y-3.7209
X3.111Y-3.002
X3.113Y-3.7961
X3.124Y-3.2307
X3.1244Y-3.615
X3.1249Y-3.4952
X3.1795Y-3.1122
X3.1819Y-3.3472
X3.2126Y-3.798
X3.2228Y-3.7217
X3.2295Y-3.615
X3.235Y-2.7681
X3.2484Y-4.0295
X3.3024Y-3.1114
X3.3102Y-3.3476
X3.3531Y-3.615
X3.3626Y-3.7272
X3.3791Y-3.1807
X3.385Y-2.7681
X3.3984Y-4.0295
X3.4106Y-3.0583
X3.4154Y-3.5299
X3.4311Y-3.6256
X3.4469Y-3.2606
X3.4665Y-3.4256
X3.4693Y-3.5378
X3.4693Y-3.5854
X3.5028Y-3.7606
X3.5272Y-3.7232
X3.5346Y-3.1665
X3.535Y-2.7681
X3.5484Y-4.0295
X3.5713Y-3.3665
X3.6224Y-3.0614
X3.6764Y-3.2114
X3.6846Y-3.252
X3.685Y-2.7681
X3.6984Y-4.0295
X3.7016Y-3.1591
X3.715Y-3.3957
X3.7492Y-3.4823
X3.7858Y-3.539
X3.8039Y-3.5878
X3.8102Y-3.4638
X3.835Y-2.7681
X3.8484Y-4.0295
X3.8799Y-3.5835
X3.8992Y-3.498
X3.935Y-3.2492
X3.985Y-2.7681
X3.9917Y-3.3
X3.9984Y-4.0295
X4.0654Y-3.7909
X4.0764Y-3.7315
X4.135Y-2.7681
X4.1484Y-4.0295
X4.2094Y-3.7366
X4.2315Y-3.6764
X4.2368Y-3.1652
X4.2789Y-3.1675
X4.285Y-2.7681
X4.2945Y-3.6764
X4.2984Y-4.0295
X4.3094Y-3.7362
X4.3236Y-3.828
X4.3472Y-3.6764
X4.3583Y-3.1429
X4.4189Y-3.0724
X4.435Y-2.7681
X4.4484Y-4.0295
X4.452Y-3.8425
X4.4717Y-3.7031
X4.5252Y-3.1685
X4.5406Y-3.3716
X4.5406Y-3.4446
X4.5406Y-3.5176
X4.5406Y-3.5907
X4.5406Y-3.6637
X4.585Y-2.7681
X4.5917Y-3.7858
X4.5984Y-4.0295
X4.6075Y-3.8843
X4.6098Y-2.9492
X4.6409Y-3.3716
X4.6823Y-3.4965
X4.6929Y-3.8839
X4.7012Y-3.7898
X4.7232Y-3.5531
X4.7252Y-3.4402
X4.735Y-2.7681
X4.7413Y-3.3716
X4.7421Y-3.1685
X4.802Y-3.3307
X4.8173Y-3.0531
X4.8283Y-3.889
X4.8795Y-3.6535
X4.885Y-2.7681
X4.8984Y-4.0295
X4.9016Y-3.1744
X4.9374Y-2.9295
X4.9472Y-3.7791
X4.9984Y-3.0469
X5.0126Y-3.8441
X5.0236Y-2.9551
X5.0295Y-3.6535
X5.0319Y-3.2906
X5.035Y-2.7681
X5.0394Y-3.4055
X5.0484Y-4.0295
X5.1776Y-2.8098
X5.1776Y-2.9598
X5.1776Y-3.1098
X5.1776Y-3.2598
X5.1776Y-3.4098
X5.1776Y-3.7098
X5.1776Y-3.8598
T3
X2.75Y-3.85
X2.85Y-3.85
T4
X4.75Y-2.85
X4.75Y-3.95
X4.85Y-2.85
X4.85Y-3.95
X4.95Y-2.85
X4.95Y-3.95
X5.05Y-2.85
T5
X2.75Y-2.85
X2.75Y-3.95
X2.85Y-2.85
X2.85Y-3.95
X2.95Y-2.85
X2.95Y-3.95
X3.05Y-2.85
X3.05Y-3.95
X3.15Y-2.85
X3.15Y-3.95
X3.25Y-2.85
X3.25Y-3.95
X3.35Y-2.85
X3.35Y-3.95
X3.45Y-2.85
X3.45Y-3.95
X3.55Y-2.85
X3.55Y-3.95
X3.65Y-2.85
X3.65Y-3.95
X3.75Y-2.85
X3.75Y-3.95
X3.85Y-2.85
X3.85Y-3.95
X3.95Y-2.85
X3.95Y-3.95
X4.05Y-2.85
X4.05Y-3.95
X4.15Y-2.85
X4.15Y-3.95
X4.25Y-2.85
X4.25Y-3.95
X4.35Y-2.85
X4.35Y-3.95
X4.45Y-2.85
X4.45Y-3.95
X4.55Y-2.85
X4.55Y-3.95
X4.65Y-2.85
X4.65Y-3.95
T2
G00X4.9892Y-3.1884
M15
G01X5.0246Y-3.1884
M16
G05
G00X4.9892Y-3.5289
M15
G01X5.0246Y-3.5289
M16
G05
G00X5.1604Y-3.1884
M15
G01X5.1841Y-3.1884
M16
G05
G00X5.1604Y-3.5289
M15
G01X5.1841Y-3.5289
M16
G05
M30
