%TF.GenerationSoftware,KiCad,Pcbnew,8.0.5*%
%TF.CreationDate,2024-09-23T12:45:29+08:00*%
%TF.ProjectId,li-chuang-di-wen-xing-cw32f030c8t6-kai-fa-ban,6c692d63-6875-4616-9e67-2d64692d7765,rev?*%
%TF.SameCoordinates,Original*%
%TF.FileFunction,Paste,Top*%
%TF.FilePolarity,Positive*%
%FSLAX46Y46*%
G04 Gerber Fmt 4.6, Leading zero omitted, Abs format (unit mm)*
G04 Created by KiCad (PCBNEW 8.0.5) date 2024-09-23 12:45:29*
%MOMM*%
%LPD*%
G01*
G04 APERTURE LIST*
G04 Aperture macros list*
%AMRoundRect*
0 Rectangle with rounded corners*
0 $1 Rounding radius*
0 $2 $3 $4 $5 $6 $7 $8 $9 X,Y pos of 4 corners*
0 Add a 4 corners polygon primitive as box body*
4,1,4,$2,$3,$4,$5,$6,$7,$8,$9,$2,$3,0*
0 Add four circle primitives for the rounded corners*
1,1,$1+$1,$2,$3*
1,1,$1+$1,$4,$5*
1,1,$1+$1,$6,$7*
1,1,$1+$1,$8,$9*
0 Add four rect primitives between the rounded corners*
20,1,$1+$1,$2,$3,$4,$5,0*
20,1,$1+$1,$4,$5,$6,$7,0*
20,1,$1+$1,$6,$7,$8,$9,0*
20,1,$1+$1,$8,$9,$2,$3,0*%
%AMFreePoly0*
4,1,123,0.971500,0.949000,1.016000,0.945500,1.060000,0.940500,1.104000,0.933000,1.147500,0.924000,1.190500,0.912500,1.233000,0.899000,1.275000,0.884000,1.316000,0.866500,1.356500,0.847500,1.395500,0.826000,1.434000,0.803500,1.471000,0.778500,1.507000,0.752500,1.541500,0.724500,1.574500,0.695000,1.606500,0.663500,1.637000,0.631000,1.666000,0.597000,1.693000,0.562000,
1.718500,0.525500,1.742000,0.487500,1.764000,0.449000,1.784500,0.409000,1.802500,0.330000,3.500000,0.330000,3.500000,-0.330000,1.802500,-0.330000,1.784500,-0.409500,1.764000,-0.449000,1.742000,-0.488000,1.718500,-0.525500,1.693000,-0.562000,1.666000,-0.597500,1.637000,-0.631500,1.606500,-0.664000,1.574500,-0.695000,1.541500,-0.724500,1.507000,-0.752500,1.471000,-0.779000,
1.434000,-0.803500,1.395500,-0.826500,1.356500,-0.847500,1.316000,-0.867000,1.275000,-0.884000,1.233000,-0.899500,1.190500,-0.913000,1.147500,-0.924000,1.104000,-0.933500,1.060000,-0.941000,1.016000,-0.946000,0.971500,-0.949000,0.927000,-0.950000,-0.927000,-0.950000,-0.971500,-0.949000,-1.016000,-0.946000,-1.060500,-0.941000,-1.104500,-0.933500,-1.148000,-0.924000,-1.191000,-0.913000,
-1.233500,-0.899500,-1.275500,-0.884000,-1.316500,-0.867000,-1.356500,-0.847500,-1.396000,-0.826500,-1.434000,-0.803500,-1.471000,-0.779000,-1.507000,-0.752500,-1.541500,-0.724500,-1.575000,-0.695000,-1.607000,-0.664000,-1.637000,-0.631500,-1.666000,-0.597500,-1.693000,-0.562000,-1.718500,-0.525500,-1.742500,-0.488000,-1.764500,-0.449000,-1.784500,-0.409500,-1.802500,-0.369000,-1.819000,-0.327500,
-1.833500,-0.285500,-1.846000,-0.242500,-1.856000,-0.199000,-1.864500,-0.155500,-1.870500,-0.111500,-1.875000,-0.067000,-1.877000,-0.022500,-1.877000,0.022000,-1.875000,0.066500,-1.870500,0.111000,-1.864500,0.155000,-1.856000,0.199000,-1.846000,0.242000,-1.833500,0.285000,-1.819000,0.327000,-1.802500,0.368500,-1.784500,0.409000,-1.764500,0.449000,-1.742500,0.487500,-1.718500,0.525500,
-1.693000,0.562000,-1.666000,0.597000,-1.637000,0.631000,-1.607000,0.663500,-1.575000,0.695000,-1.541500,0.724500,-1.507000,0.752500,-1.471000,0.778500,-1.434000,0.803500,-1.396000,0.826000,-1.356500,0.847500,-1.316500,0.866500,-1.275500,0.884000,-1.233500,0.899000,-1.191000,0.912500,-1.148000,0.924000,-1.104500,0.933000,-1.060500,0.940500,-1.016000,0.945500,-0.971500,0.949000,
-0.927000,0.950000,0.927000,0.950000,0.971500,0.949000,0.971500,0.949000,$1*%
G04 Aperture macros list end*
%ADD10C,0.000000*%
%ADD11R,1.200000X1.400000*%
%ADD12RoundRect,0.283125X0.283125X0.405375X-0.283125X0.405375X-0.283125X-0.405375X0.283125X-0.405375X0*%
%ADD13RoundRect,0.337500X-0.337500X0.367500X-0.337500X-0.367500X0.337500X-0.367500X0.337500X0.367500X0*%
%ADD14R,1.000000X1.200000*%
%ADD15RoundRect,0.200000X-0.250000X0.200000X-0.250000X-0.200000X0.250000X-0.200000X0.250000X0.200000X0*%
%ADD16RoundRect,0.283125X-0.283125X-0.405375X0.283125X-0.405375X0.283125X0.405375X-0.283125X0.405375X0*%
%ADD17RoundRect,0.200000X0.200000X0.250000X-0.200000X0.250000X-0.200000X-0.250000X0.200000X-0.250000X0*%
%ADD18RoundRect,0.283125X-0.405375X0.283125X-0.405375X-0.283125X0.405375X-0.283125X0.405375X0.283125X0*%
%ADD19RoundRect,0.337500X-0.367500X-0.337500X0.367500X-0.337500X0.367500X0.337500X-0.367500X0.337500X0*%
%ADD20RoundRect,0.200000X0.250000X-0.200000X0.250000X0.200000X-0.250000X0.200000X-0.250000X-0.200000X0*%
%ADD21RoundRect,0.337500X0.367500X0.337500X-0.367500X0.337500X-0.367500X-0.337500X0.367500X-0.337500X0*%
%ADD22R,1.100000X0.600000*%
%ADD23R,1.100000X0.300000*%
%ADD24O,1.800000X0.280000*%
%ADD25O,0.280000X1.800000*%
%ADD26RoundRect,0.250000X0.250000X0.449750X-0.250000X0.449750X-0.250000X-0.449750X0.250000X-0.449750X0*%
%ADD27RoundRect,0.315000X-0.535000X0.210000X-0.535000X-0.210000X0.535000X-0.210000X0.535000X0.210000X0*%
%ADD28RoundRect,0.200000X-0.200000X-0.250000X0.200000X-0.250000X0.200000X0.250000X-0.200000X0.250000X0*%
%ADD29R,1.575000X0.672000*%
%ADD30FreePoly0,0.000000*%
G04 APERTURE END LIST*
D10*
%TO.C,R9*%
G36*
X117376375Y-89610000D02*
G01*
X117376375Y-90030000D01*
X116931375Y-90030000D01*
X116931375Y-90480000D01*
X117371375Y-90480000D01*
X117376375Y-90890000D01*
X117326375Y-90940000D01*
X116176375Y-90940000D01*
X116126375Y-90890000D01*
X116126375Y-89610000D01*
X116176375Y-89560000D01*
X117326375Y-89560000D01*
X117376375Y-89610000D01*
G37*
G36*
X119526375Y-89610000D02*
G01*
X119526375Y-90890000D01*
X119476375Y-90940000D01*
X118326375Y-90940000D01*
X118276375Y-90890000D01*
X118271375Y-90480000D01*
X118721375Y-90480000D01*
X118721375Y-90030000D01*
X118281375Y-90030000D01*
X118276375Y-89610000D01*
X118326375Y-89560000D01*
X119476375Y-89560000D01*
X119526375Y-89610000D01*
G37*
%TO.C,C2*%
G36*
X117678875Y-81785000D02*
G01*
X117678875Y-82935000D01*
X117628875Y-82985000D01*
X117218875Y-82990000D01*
X117218875Y-82540000D01*
X116768875Y-82540000D01*
X116768875Y-82980000D01*
X116348875Y-82985000D01*
X116298875Y-82935000D01*
X116298875Y-81785000D01*
X116348875Y-81735000D01*
X117628875Y-81735000D01*
X117678875Y-81785000D01*
G37*
G36*
X116768875Y-84330000D02*
G01*
X117218875Y-84330000D01*
X117218875Y-83890000D01*
X117628875Y-83885000D01*
X117678875Y-83935000D01*
X117678875Y-85085000D01*
X117628875Y-85135000D01*
X116348875Y-85135000D01*
X116298875Y-85085000D01*
X116298875Y-83935000D01*
X116348875Y-83885000D01*
X116768875Y-83885000D01*
X116768875Y-84330000D01*
G37*
%TO.C,R4*%
G36*
X73680000Y-79520000D02*
G01*
X73685000Y-79930000D01*
X73235000Y-79930000D01*
X73235000Y-80380000D01*
X73675000Y-80380000D01*
X73680000Y-80800000D01*
X73630000Y-80850000D01*
X72480000Y-80850000D01*
X72430000Y-80800000D01*
X72430000Y-79520000D01*
X72480000Y-79470000D01*
X73630000Y-79470000D01*
X73680000Y-79520000D01*
G37*
G36*
X75830000Y-79520000D02*
G01*
X75830000Y-80800000D01*
X75780000Y-80850000D01*
X74630000Y-80850000D01*
X74580000Y-80800000D01*
X74580000Y-80380000D01*
X75025000Y-80380000D01*
X75025000Y-79930000D01*
X74585000Y-79930000D01*
X74580000Y-79520000D01*
X74630000Y-79470000D01*
X75780000Y-79470000D01*
X75830000Y-79520000D01*
G37*
%TO.C,R2*%
G36*
X74723500Y-84577250D02*
G01*
X74723500Y-85727250D01*
X74673500Y-85777250D01*
X74263500Y-85782250D01*
X74263500Y-85332250D01*
X73813500Y-85332250D01*
X73813500Y-85772250D01*
X73393500Y-85777250D01*
X73343500Y-85727250D01*
X73343500Y-84577250D01*
X73393500Y-84527250D01*
X74673500Y-84527250D01*
X74723500Y-84577250D01*
G37*
G36*
X73813500Y-87122250D02*
G01*
X74263500Y-87122250D01*
X74263500Y-86682250D01*
X74673500Y-86677250D01*
X74723500Y-86727250D01*
X74723500Y-87877250D01*
X74673500Y-87927250D01*
X73393500Y-87927250D01*
X73343500Y-87877250D01*
X73343500Y-86727250D01*
X73393500Y-86677250D01*
X73813500Y-86677250D01*
X73813500Y-87122250D01*
G37*
%TO.C,C3*%
G36*
X74730000Y-89325250D02*
G01*
X74730000Y-90475250D01*
X74680000Y-90525250D01*
X74270000Y-90530250D01*
X74270000Y-90080250D01*
X73820000Y-90080250D01*
X73820000Y-90520250D01*
X73400000Y-90525250D01*
X73350000Y-90475250D01*
X73350000Y-89325250D01*
X73400000Y-89275250D01*
X74680000Y-89275250D01*
X74730000Y-89325250D01*
G37*
G36*
X73820000Y-91870250D02*
G01*
X74270000Y-91870250D01*
X74270000Y-91430250D01*
X74680000Y-91425250D01*
X74730000Y-91475250D01*
X74730000Y-92625250D01*
X74680000Y-92675250D01*
X73400000Y-92675250D01*
X73350000Y-92625250D01*
X73350000Y-91475250D01*
X73400000Y-91425250D01*
X73820000Y-91425250D01*
X73820000Y-91870250D01*
G37*
%TO.C,C1*%
G36*
X120807500Y-81815000D02*
G01*
X120807500Y-82965000D01*
X120757500Y-83015000D01*
X120347500Y-83020000D01*
X120347500Y-82570000D01*
X119897500Y-82570000D01*
X119897500Y-83010000D01*
X119477500Y-83015000D01*
X119427500Y-82965000D01*
X119427500Y-81815000D01*
X119477500Y-81765000D01*
X120757500Y-81765000D01*
X120807500Y-81815000D01*
G37*
G36*
X119897500Y-84360000D02*
G01*
X120347500Y-84360000D01*
X120347500Y-83920000D01*
X120757500Y-83915000D01*
X120807500Y-83965000D01*
X120807500Y-85115000D01*
X120757500Y-85165000D01*
X119477500Y-85165000D01*
X119427500Y-85115000D01*
X119427500Y-83965000D01*
X119477500Y-83915000D01*
X119897500Y-83915000D01*
X119897500Y-84360000D01*
G37*
%TO.C,R8*%
G36*
X117376375Y-86728250D02*
G01*
X117376375Y-87148250D01*
X116931375Y-87148250D01*
X116931375Y-87598250D01*
X117371375Y-87598250D01*
X117376375Y-88008250D01*
X117326375Y-88058250D01*
X116176375Y-88058250D01*
X116126375Y-88008250D01*
X116126375Y-86728250D01*
X116176375Y-86678250D01*
X117326375Y-86678250D01*
X117376375Y-86728250D01*
G37*
G36*
X119526375Y-86728250D02*
G01*
X119526375Y-88008250D01*
X119476375Y-88058250D01*
X118326375Y-88058250D01*
X118276375Y-88008250D01*
X118271375Y-87598250D01*
X118721375Y-87598250D01*
X118721375Y-87148250D01*
X118281375Y-87148250D01*
X118276375Y-86728250D01*
X118326375Y-86678250D01*
X119476375Y-86678250D01*
X119526375Y-86728250D01*
G37*
%TO.C,C11*%
G36*
X112355250Y-91710000D02*
G01*
X112360250Y-92120000D01*
X111910250Y-92120000D01*
X111910250Y-92570000D01*
X112350250Y-92570000D01*
X112355250Y-92990000D01*
X112305250Y-93040000D01*
X111155250Y-93040000D01*
X111105250Y-92990000D01*
X111105250Y-91710000D01*
X111155250Y-91660000D01*
X112305250Y-91660000D01*
X112355250Y-91710000D01*
G37*
G36*
X114505250Y-91710000D02*
G01*
X114505250Y-92990000D01*
X114455250Y-93040000D01*
X113305250Y-93040000D01*
X113255250Y-92990000D01*
X113255250Y-92570000D01*
X113700250Y-92570000D01*
X113700250Y-92120000D01*
X113260250Y-92120000D01*
X113255250Y-91710000D01*
X113305250Y-91660000D01*
X114455250Y-91660000D01*
X114505250Y-91710000D01*
G37*
%TO.C,R5*%
G36*
X73750000Y-77130000D02*
G01*
X73750000Y-77550000D01*
X73305000Y-77550000D01*
X73305000Y-78000000D01*
X73745000Y-78000000D01*
X73750000Y-78410000D01*
X73700000Y-78460000D01*
X72550000Y-78460000D01*
X72500000Y-78410000D01*
X72500000Y-77130000D01*
X72550000Y-77080000D01*
X73700000Y-77080000D01*
X73750000Y-77130000D01*
G37*
G36*
X75900000Y-77130000D02*
G01*
X75900000Y-78410000D01*
X75850000Y-78460000D01*
X74700000Y-78460000D01*
X74650000Y-78410000D01*
X74645000Y-78000000D01*
X75095000Y-78000000D01*
X75095000Y-77550000D01*
X74655000Y-77550000D01*
X74650000Y-77130000D01*
X74700000Y-77080000D01*
X75850000Y-77080000D01*
X75900000Y-77130000D01*
G37*
%TO.C,C4*%
G36*
X112355250Y-86551666D02*
G01*
X112360250Y-86961666D01*
X111910250Y-86961666D01*
X111910250Y-87411666D01*
X112350250Y-87411666D01*
X112355250Y-87831666D01*
X112305250Y-87881666D01*
X111155250Y-87881666D01*
X111105250Y-87831666D01*
X111105250Y-86551666D01*
X111155250Y-86501666D01*
X112305250Y-86501666D01*
X112355250Y-86551666D01*
G37*
G36*
X114505250Y-86551666D02*
G01*
X114505250Y-87831666D01*
X114455250Y-87881666D01*
X113305250Y-87881666D01*
X113255250Y-87831666D01*
X113255250Y-87411666D01*
X113700250Y-87411666D01*
X113700250Y-86961666D01*
X113260250Y-86961666D01*
X113255250Y-86551666D01*
X113305250Y-86501666D01*
X114455250Y-86501666D01*
X114505250Y-86551666D01*
G37*
%TO.C,C10*%
G36*
X127665000Y-75940000D02*
G01*
X127665000Y-76360000D01*
X127220000Y-76360000D01*
X127220000Y-76810000D01*
X127660000Y-76810000D01*
X127665000Y-77220000D01*
X127615000Y-77270000D01*
X126465000Y-77270000D01*
X126415000Y-77220000D01*
X126415000Y-75940000D01*
X126465000Y-75890000D01*
X127615000Y-75890000D01*
X127665000Y-75940000D01*
G37*
G36*
X129815000Y-75940000D02*
G01*
X129815000Y-77220000D01*
X129765000Y-77270000D01*
X128615000Y-77270000D01*
X128565000Y-77220000D01*
X128560000Y-76810000D01*
X129010000Y-76810000D01*
X129010000Y-76360000D01*
X128570000Y-76360000D01*
X128565000Y-75940000D01*
X128615000Y-75890000D01*
X129765000Y-75890000D01*
X129815000Y-75940000D01*
G37*
%TO.C,USB1*%
G36*
X127175000Y-83210000D02*
G01*
X126075000Y-83210000D01*
X126075000Y-82610000D01*
X127175000Y-82610000D01*
X127175000Y-83210000D01*
G37*
G36*
X127175000Y-83710000D02*
G01*
X126075000Y-83710000D01*
X126075000Y-83410000D01*
X127175000Y-83410000D01*
X127175000Y-83710000D01*
G37*
G36*
X127175000Y-88010000D02*
G01*
X126075000Y-88010000D01*
X126075000Y-87410000D01*
X127175000Y-87410000D01*
X127175000Y-88010000D01*
G37*
G36*
X127175000Y-88810000D02*
G01*
X126075000Y-88810000D01*
X126075000Y-88210000D01*
X127175000Y-88210000D01*
X127175000Y-88810000D01*
G37*
G36*
X127175000Y-82410000D02*
G01*
X126075000Y-82410000D01*
X126075000Y-81810000D01*
X127175000Y-81810000D01*
X127175000Y-82410000D01*
G37*
G36*
X127175000Y-84210000D02*
G01*
X126075000Y-84210000D01*
X126075000Y-83910000D01*
X127175000Y-83910000D01*
X127175000Y-84210000D01*
G37*
G36*
X127175000Y-84710000D02*
G01*
X126075000Y-84710000D01*
X126075000Y-84410000D01*
X127175000Y-84410000D01*
X127175000Y-84710000D01*
G37*
G36*
X127175000Y-85210000D02*
G01*
X126075000Y-85210000D01*
X126075000Y-84910000D01*
X127175000Y-84910000D01*
X127175000Y-85210000D01*
G37*
G36*
X127175000Y-85710000D02*
G01*
X126075000Y-85710000D01*
X126075000Y-85410000D01*
X127175000Y-85410000D01*
X127175000Y-85710000D01*
G37*
G36*
X127175000Y-86210000D02*
G01*
X126075000Y-86210000D01*
X126075000Y-85910000D01*
X127175000Y-85910000D01*
X127175000Y-86210000D01*
G37*
G36*
X127175000Y-86710000D02*
G01*
X126075000Y-86710000D01*
X126075000Y-86410000D01*
X127175000Y-86410000D01*
X127175000Y-86710000D01*
G37*
G36*
X127175000Y-87210000D02*
G01*
X126075000Y-87210000D01*
X126075000Y-86910000D01*
X127175000Y-86910000D01*
X127175000Y-87210000D01*
G37*
G36*
X127605000Y-89035500D02*
G01*
X127634500Y-89038000D01*
X127664500Y-89041500D01*
X127694000Y-89047000D01*
X127723000Y-89053500D01*
X127751500Y-89061500D01*
X127780000Y-89071000D01*
X127808000Y-89082000D01*
X127835000Y-89094500D01*
X127862000Y-89108000D01*
X127887500Y-89123000D01*
X127913000Y-89139500D01*
X127937000Y-89156500D01*
X127960500Y-89175500D01*
X127983000Y-89195000D01*
X128004500Y-89216000D01*
X128024500Y-89238000D01*
X128044000Y-89261000D01*
X128062000Y-89284500D01*
X128079000Y-89309500D01*
X128094500Y-89335000D01*
X128109000Y-89361000D01*
X128122000Y-89388000D01*
X128133500Y-89416000D01*
X128143500Y-89444000D01*
X128152500Y-89472500D01*
X128160000Y-89501500D01*
X128166000Y-89531000D01*
X128170000Y-89560500D01*
X128173000Y-89590000D01*
X128174500Y-89620000D01*
X128174500Y-89650000D01*
X128173000Y-89680000D01*
X128170000Y-89709500D01*
X128166000Y-89739000D01*
X128160000Y-89768500D01*
X128152500Y-89797500D01*
X128143500Y-89826000D01*
X128133500Y-89854000D01*
X128122000Y-89881500D01*
X128109000Y-89908500D01*
X128094500Y-89935000D01*
X128079000Y-89960500D01*
X128062000Y-89985000D01*
X128044000Y-90009000D01*
X128024500Y-90032000D01*
X128004500Y-90054000D01*
X127983000Y-90075000D01*
X127960500Y-90094500D01*
X127937000Y-90113500D01*
X127913000Y-90130500D01*
X127887500Y-90147000D01*
X127862000Y-90162000D01*
X127835000Y-90175500D01*
X127808000Y-90188000D01*
X127780000Y-90199000D01*
X127751500Y-90208500D01*
X127723000Y-90216500D01*
X127694000Y-90223000D01*
X127664500Y-90228500D01*
X127634500Y-90232000D01*
X127605000Y-90234000D01*
X127575000Y-90235000D01*
X126775000Y-90235000D01*
X126745000Y-90234000D01*
X126715000Y-90232000D01*
X126685500Y-90228500D01*
X126656000Y-90223000D01*
X126627000Y-90216500D01*
X126598000Y-90208500D01*
X126569500Y-90199000D01*
X126542000Y-90188000D01*
X126514500Y-90175500D01*
X126488000Y-90162000D01*
X126462000Y-90147000D01*
X126437000Y-90130500D01*
X126412500Y-90113500D01*
X126389000Y-90094500D01*
X126367000Y-90075000D01*
X126345500Y-90054000D01*
X126325000Y-90032000D01*
X126306000Y-90009000D01*
X126287500Y-89985000D01*
X126271000Y-89960500D01*
X126255500Y-89935000D01*
X126241000Y-89908500D01*
X126228000Y-89881500D01*
X126216500Y-89854000D01*
X126206000Y-89826000D01*
X126197500Y-89797500D01*
X126190000Y-89768500D01*
X126184000Y-89739000D01*
X126179500Y-89709500D01*
X126176500Y-89680000D01*
X126175000Y-89650000D01*
X126175000Y-89620000D01*
X126176500Y-89590000D01*
X126179500Y-89560500D01*
X126184000Y-89531000D01*
X126190000Y-89501500D01*
X126197500Y-89472500D01*
X126206000Y-89444000D01*
X126216500Y-89416000D01*
X126228000Y-89388000D01*
X126241000Y-89361000D01*
X126255500Y-89335000D01*
X126271000Y-89309500D01*
X126287500Y-89284500D01*
X126306000Y-89261000D01*
X126325000Y-89238000D01*
X126345500Y-89216000D01*
X126367000Y-89195000D01*
X126389000Y-89175500D01*
X126412500Y-89156500D01*
X126437000Y-89139500D01*
X126462000Y-89123000D01*
X126488000Y-89108000D01*
X126514500Y-89094500D01*
X126542000Y-89082000D01*
X126569500Y-89071000D01*
X126598000Y-89061500D01*
X126627000Y-89053500D01*
X126656000Y-89047000D01*
X126685500Y-89041500D01*
X126715000Y-89038000D01*
X126745000Y-89035500D01*
X126775000Y-89035000D01*
X127575000Y-89035000D01*
X127605000Y-89035500D01*
G37*
G36*
X127605000Y-80386000D02*
G01*
X127634500Y-80388000D01*
X127664500Y-80391500D01*
X127694000Y-80397000D01*
X127723000Y-80403500D01*
X127751500Y-80411500D01*
X127780000Y-80421000D01*
X127808000Y-80432000D01*
X127835000Y-80444500D01*
X127862000Y-80458000D01*
X127887500Y-80473000D01*
X127913000Y-80489500D01*
X127937000Y-80506500D01*
X127960500Y-80525500D01*
X127983000Y-80545000D01*
X128004500Y-80566000D01*
X128024500Y-80588000D01*
X128044000Y-80611000D01*
X128062000Y-80635000D01*
X128079000Y-80659500D01*
X128094500Y-80685000D01*
X128109000Y-80711500D01*
X128122000Y-80738500D01*
X128133500Y-80766000D01*
X128143500Y-80794000D01*
X128152500Y-80822500D01*
X128160000Y-80851500D01*
X128166000Y-80881000D01*
X128170000Y-80910500D01*
X128173000Y-80940000D01*
X128174500Y-80970000D01*
X128174500Y-81000000D01*
X128173000Y-81030000D01*
X128170000Y-81059500D01*
X128166000Y-81089000D01*
X128160000Y-81118500D01*
X128152500Y-81147500D01*
X128143500Y-81176000D01*
X128133500Y-81204000D01*
X128122000Y-81232000D01*
X128109000Y-81259000D01*
X128094500Y-81285000D01*
X128079000Y-81310500D01*
X128062000Y-81335500D01*
X128044000Y-81359000D01*
X128024500Y-81382000D01*
X128004500Y-81404000D01*
X127983000Y-81425000D01*
X127960500Y-81444500D01*
X127937000Y-81463500D01*
X127913000Y-81480500D01*
X127887500Y-81497000D01*
X127862000Y-81512000D01*
X127835000Y-81525500D01*
X127808000Y-81538000D01*
X127780000Y-81549000D01*
X127751500Y-81558500D01*
X127723000Y-81566500D01*
X127694000Y-81573000D01*
X127664500Y-81578500D01*
X127634500Y-81582000D01*
X127605000Y-81584500D01*
X127575000Y-81585000D01*
X126775000Y-81585000D01*
X126745000Y-81584500D01*
X126715000Y-81582000D01*
X126685500Y-81578500D01*
X126656000Y-81573000D01*
X126627000Y-81566500D01*
X126598000Y-81558500D01*
X126569500Y-81549000D01*
X126542000Y-81538000D01*
X126514500Y-81525500D01*
X126488000Y-81512000D01*
X126462000Y-81497000D01*
X126437000Y-81480500D01*
X126412500Y-81463500D01*
X126389000Y-81444500D01*
X126367000Y-81425000D01*
X126345500Y-81404000D01*
X126325000Y-81382000D01*
X126306000Y-81359000D01*
X126287500Y-81335500D01*
X126271000Y-81310500D01*
X126255500Y-81285000D01*
X126241000Y-81259000D01*
X126228000Y-81232000D01*
X126216500Y-81204000D01*
X126206000Y-81176000D01*
X126197500Y-81147500D01*
X126190000Y-81118500D01*
X126184000Y-81089000D01*
X126179500Y-81059500D01*
X126176500Y-81030000D01*
X126175000Y-81000000D01*
X126175000Y-80970000D01*
X126176500Y-80940000D01*
X126179500Y-80910500D01*
X126184000Y-80881000D01*
X126190000Y-80851500D01*
X126197500Y-80822500D01*
X126206000Y-80794000D01*
X126216500Y-80766000D01*
X126228000Y-80738500D01*
X126241000Y-80711500D01*
X126255500Y-80685000D01*
X126271000Y-80659500D01*
X126287500Y-80635000D01*
X126306000Y-80611000D01*
X126325000Y-80588000D01*
X126345500Y-80566000D01*
X126367000Y-80545000D01*
X126389000Y-80525500D01*
X126412500Y-80506500D01*
X126437000Y-80489500D01*
X126462000Y-80473000D01*
X126488000Y-80458000D01*
X126514500Y-80444500D01*
X126542000Y-80432000D01*
X126569500Y-80421000D01*
X126598000Y-80411500D01*
X126627000Y-80403500D01*
X126656000Y-80397000D01*
X126685500Y-80391500D01*
X126715000Y-80388000D01*
X126745000Y-80386000D01*
X126775000Y-80385000D01*
X127575000Y-80385000D01*
X127605000Y-80386000D01*
G37*
G36*
X131555000Y-80386000D02*
G01*
X131585000Y-80388000D01*
X131614500Y-80391500D01*
X131644000Y-80397000D01*
X131673000Y-80403500D01*
X131702000Y-80411500D01*
X131730000Y-80421000D01*
X131758000Y-80432000D01*
X131785500Y-80444500D01*
X131812000Y-80458000D01*
X131838000Y-80473000D01*
X131863000Y-80489500D01*
X131887500Y-80506500D01*
X131910500Y-80525500D01*
X131933000Y-80545000D01*
X131954500Y-80566000D01*
X131975000Y-80588000D01*
X131994000Y-80611000D01*
X132012000Y-80635000D01*
X132029000Y-80659500D01*
X132044500Y-80685000D01*
X132059000Y-80711500D01*
X132072000Y-80738500D01*
X132083500Y-80766000D01*
X132094000Y-80794000D01*
X132102500Y-80822500D01*
X132110000Y-80851500D01*
X132116000Y-80881000D01*
X132120500Y-80910500D01*
X132123500Y-80940000D01*
X132125000Y-80970000D01*
X132125000Y-81000000D01*
X132123500Y-81030000D01*
X132120500Y-81059500D01*
X132116000Y-81089000D01*
X132110000Y-81118500D01*
X132102500Y-81147500D01*
X132094000Y-81176000D01*
X132083500Y-81204000D01*
X132072000Y-81232000D01*
X132059000Y-81259000D01*
X132044500Y-81285000D01*
X132029000Y-81310500D01*
X132012000Y-81335500D01*
X131994000Y-81359000D01*
X131975000Y-81382000D01*
X131954500Y-81404000D01*
X131933000Y-81425000D01*
X131910500Y-81444500D01*
X131887500Y-81463500D01*
X131863000Y-81480500D01*
X131838000Y-81497000D01*
X131812000Y-81512000D01*
X131785500Y-81525500D01*
X131758000Y-81538000D01*
X131730000Y-81549000D01*
X131702000Y-81558500D01*
X131673000Y-81566500D01*
X131644000Y-81573000D01*
X131614500Y-81578500D01*
X131585000Y-81582000D01*
X131555000Y-81584500D01*
X131525000Y-81585000D01*
X131225000Y-81585000D01*
X131195000Y-81584500D01*
X131165500Y-81582000D01*
X131135500Y-81578500D01*
X131106000Y-81573000D01*
X131077000Y-81566500D01*
X131048000Y-81558500D01*
X131020000Y-81549000D01*
X130992000Y-81538000D01*
X130964500Y-81525500D01*
X130938000Y-81512000D01*
X130912000Y-81497000D01*
X130887000Y-81480500D01*
X130863000Y-81463500D01*
X130839500Y-81444500D01*
X130817000Y-81425000D01*
X130795500Y-81404000D01*
X130775000Y-81382000D01*
X130756000Y-81359000D01*
X130738000Y-81335500D01*
X130721000Y-81310500D01*
X130705500Y-81285000D01*
X130691000Y-81259000D01*
X130678000Y-81232000D01*
X130666500Y-81204000D01*
X130656500Y-81176000D01*
X130647500Y-81147500D01*
X130640000Y-81118500D01*
X130634000Y-81089000D01*
X130629500Y-81059500D01*
X130626500Y-81030000D01*
X130625000Y-81000000D01*
X130625000Y-80970000D01*
X130626500Y-80940000D01*
X130629500Y-80910500D01*
X130634000Y-80881000D01*
X130640000Y-80851500D01*
X130647500Y-80822500D01*
X130656500Y-80794000D01*
X130666500Y-80766000D01*
X130678000Y-80738500D01*
X130691000Y-80711500D01*
X130705500Y-80685000D01*
X130721000Y-80659500D01*
X130738000Y-80635000D01*
X130756000Y-80611000D01*
X130775000Y-80588000D01*
X130795500Y-80566000D01*
X130817000Y-80545000D01*
X130839500Y-80525500D01*
X130863000Y-80506500D01*
X130887000Y-80489500D01*
X130912000Y-80473000D01*
X130938000Y-80458000D01*
X130964500Y-80444500D01*
X130992000Y-80432000D01*
X131020000Y-80421000D01*
X131048000Y-80411500D01*
X131077000Y-80403500D01*
X131106000Y-80397000D01*
X131135500Y-80391500D01*
X131165500Y-80388000D01*
X131195000Y-80386000D01*
X131225000Y-80385000D01*
X131525000Y-80385000D01*
X131555000Y-80386000D01*
G37*
G36*
X131555000Y-89035500D02*
G01*
X131585000Y-89038000D01*
X131614500Y-89041500D01*
X131644000Y-89047000D01*
X131673000Y-89053500D01*
X131702000Y-89061500D01*
X131730000Y-89071000D01*
X131758000Y-89082000D01*
X131785500Y-89094500D01*
X131812000Y-89108000D01*
X131838000Y-89123000D01*
X131863000Y-89139500D01*
X131887500Y-89156500D01*
X131910500Y-89175500D01*
X131933000Y-89195000D01*
X131954500Y-89216000D01*
X131975000Y-89238000D01*
X131994000Y-89261000D01*
X132012000Y-89284500D01*
X132029000Y-89309500D01*
X132044500Y-89335000D01*
X132059000Y-89361000D01*
X132072000Y-89388000D01*
X132083500Y-89416000D01*
X132094000Y-89444000D01*
X132102500Y-89472500D01*
X132110000Y-89501500D01*
X132116000Y-89531000D01*
X132120500Y-89560500D01*
X132123500Y-89590000D01*
X132125000Y-89620000D01*
X132125000Y-89650000D01*
X132123500Y-89680000D01*
X132120500Y-89709500D01*
X132116000Y-89739000D01*
X132110000Y-89768500D01*
X132102500Y-89797500D01*
X132094000Y-89826000D01*
X132083500Y-89854000D01*
X132072000Y-89881500D01*
X132059000Y-89908500D01*
X132044500Y-89935000D01*
X132029000Y-89960500D01*
X132012000Y-89985000D01*
X131994000Y-90009000D01*
X131975000Y-90032000D01*
X131954500Y-90054000D01*
X131933000Y-90075000D01*
X131910500Y-90094500D01*
X131887500Y-90113500D01*
X131863000Y-90130500D01*
X131838000Y-90147000D01*
X131812000Y-90162000D01*
X131785500Y-90175500D01*
X131758000Y-90188000D01*
X131730000Y-90199000D01*
X131702000Y-90208500D01*
X131673000Y-90216500D01*
X131644000Y-90223000D01*
X131614500Y-90228500D01*
X131585000Y-90232000D01*
X131555000Y-90234000D01*
X131525000Y-90235000D01*
X131225000Y-90235000D01*
X131195000Y-90234000D01*
X131165500Y-90232000D01*
X131135500Y-90228500D01*
X131106000Y-90223000D01*
X131077000Y-90216500D01*
X131048000Y-90208500D01*
X131020000Y-90199000D01*
X130992000Y-90188000D01*
X130964500Y-90175500D01*
X130938000Y-90162000D01*
X130912000Y-90147000D01*
X130887000Y-90130500D01*
X130863000Y-90113500D01*
X130839500Y-90094500D01*
X130817000Y-90075000D01*
X130795500Y-90054000D01*
X130775000Y-90032000D01*
X130756000Y-90009000D01*
X130738000Y-89985000D01*
X130721000Y-89960500D01*
X130705500Y-89935000D01*
X130691000Y-89908500D01*
X130678000Y-89881500D01*
X130666500Y-89854000D01*
X130656500Y-89826000D01*
X130647500Y-89797500D01*
X130640000Y-89768500D01*
X130634000Y-89739000D01*
X130629500Y-89709500D01*
X130626500Y-89680000D01*
X130625000Y-89650000D01*
X130625000Y-89620000D01*
X130626500Y-89590000D01*
X130629500Y-89560500D01*
X130634000Y-89531000D01*
X130640000Y-89501500D01*
X130647500Y-89472500D01*
X130656500Y-89444000D01*
X130666500Y-89416000D01*
X130678000Y-89388000D01*
X130691000Y-89361000D01*
X130705500Y-89335000D01*
X130721000Y-89309500D01*
X130738000Y-89284500D01*
X130756000Y-89261000D01*
X130775000Y-89238000D01*
X130795500Y-89216000D01*
X130817000Y-89195000D01*
X130839500Y-89175500D01*
X130863000Y-89156500D01*
X130887000Y-89139500D01*
X130912000Y-89123000D01*
X130938000Y-89108000D01*
X130964500Y-89094500D01*
X130992000Y-89082000D01*
X131020000Y-89071000D01*
X131048000Y-89061500D01*
X131077000Y-89053500D01*
X131106000Y-89047000D01*
X131135500Y-89041500D01*
X131165500Y-89038000D01*
X131195000Y-89035500D01*
X131225000Y-89035000D01*
X131525000Y-89035000D01*
X131555000Y-89035500D01*
G37*
%TO.C,R6*%
G36*
X122630000Y-96010000D02*
G01*
X122635000Y-96420000D01*
X122185000Y-96420000D01*
X122185000Y-96870000D01*
X122625000Y-96870000D01*
X122630000Y-97290000D01*
X122580000Y-97340000D01*
X121430000Y-97340000D01*
X121380000Y-97290000D01*
X121380000Y-96010000D01*
X121430000Y-95960000D01*
X122580000Y-95960000D01*
X122630000Y-96010000D01*
G37*
G36*
X124780000Y-96010000D02*
G01*
X124780000Y-97290000D01*
X124730000Y-97340000D01*
X123580000Y-97340000D01*
X123530000Y-97290000D01*
X123530000Y-96870000D01*
X123975000Y-96870000D01*
X123975000Y-96420000D01*
X123535000Y-96420000D01*
X123530000Y-96010000D01*
X123580000Y-95960000D01*
X124730000Y-95960000D01*
X124780000Y-96010000D01*
G37*
%TO.C,C5*%
G36*
X112355250Y-89130832D02*
G01*
X112360250Y-89540832D01*
X111910250Y-89540832D01*
X111910250Y-89990832D01*
X112350250Y-89990832D01*
X112355250Y-90410832D01*
X112305250Y-90460832D01*
X111155250Y-90460832D01*
X111105250Y-90410832D01*
X111105250Y-89130832D01*
X111155250Y-89080832D01*
X112305250Y-89080832D01*
X112355250Y-89130832D01*
G37*
G36*
X114505250Y-89130832D02*
G01*
X114505250Y-90410832D01*
X114455250Y-90460832D01*
X113305250Y-90460832D01*
X113255250Y-90410832D01*
X113255250Y-89990832D01*
X113700250Y-89990832D01*
X113700250Y-89540832D01*
X113260250Y-89540832D01*
X113255250Y-89130832D01*
X113305250Y-89080832D01*
X114455250Y-89080832D01*
X114505250Y-89130832D01*
G37*
%TD*%
D11*
%TO.C,X1*%
X83421875Y-87674207D03*
X83421875Y-89874207D03*
X85171875Y-89874207D03*
X85171875Y-87674207D03*
%TD*%
D12*
%TO.C,R9*%
X118826375Y-90250000D03*
X116826375Y-90250000D03*
%TD*%
D13*
%TO.C,C2*%
X116968875Y-82410000D03*
X116968875Y-84410000D03*
%TD*%
D14*
%TO.C,SW1*%
X70660000Y-92390000D03*
X70660000Y-84990000D03*
%TD*%
D15*
%TO.C,C6*%
X101010000Y-93370000D03*
X101010000Y-94770000D03*
%TD*%
D16*
%TO.C,R4*%
X73130000Y-80160000D03*
X75130000Y-80160000D03*
%TD*%
D17*
%TO.C,C7*%
X92320000Y-83480000D03*
X90920000Y-83480000D03*
%TD*%
%TO.C,C8*%
X92320000Y-81370000D03*
X90920000Y-81370000D03*
%TD*%
D18*
%TO.C,R2*%
X74033500Y-85227250D03*
X74033500Y-87227250D03*
%TD*%
D13*
%TO.C,C3*%
X74020000Y-89950250D03*
X74020000Y-91950250D03*
%TD*%
%TO.C,C1*%
X120097500Y-82440000D03*
X120097500Y-84440000D03*
%TD*%
D12*
%TO.C,R8*%
X118826375Y-87368250D03*
X116826375Y-87368250D03*
%TD*%
D19*
%TO.C,C11*%
X111780250Y-92370000D03*
X113780250Y-92370000D03*
%TD*%
D12*
%TO.C,R5*%
X75200000Y-77770000D03*
X73200000Y-77770000D03*
%TD*%
D20*
%TO.C,C9*%
X89560000Y-90880000D03*
X89560000Y-89480000D03*
%TD*%
D17*
%TO.C,C12*%
X80771375Y-90293957D03*
X79371375Y-90293957D03*
%TD*%
D19*
%TO.C,C4*%
X111780250Y-87211666D03*
X113780250Y-87211666D03*
%TD*%
D21*
%TO.C,C10*%
X129140000Y-76560000D03*
X127140000Y-76560000D03*
%TD*%
D17*
%TO.C,C15*%
X80750750Y-83302250D03*
X79350750Y-83302250D03*
%TD*%
D22*
%TO.C,USB1*%
X126625000Y-88510000D03*
X126625000Y-87710000D03*
D23*
X126625000Y-87060000D03*
X126625000Y-86560000D03*
X126625000Y-86060000D03*
X126625000Y-85560000D03*
X126625000Y-85060000D03*
X126625000Y-84560000D03*
X126625000Y-84060000D03*
X126625000Y-83560000D03*
D22*
X126625000Y-82910000D03*
X126625000Y-82110000D03*
%TD*%
D24*
%TO.C,U1*%
X92720000Y-85850000D03*
X92720000Y-86350000D03*
X92720000Y-86850000D03*
X92720000Y-87350000D03*
X92720000Y-87850000D03*
X92720000Y-88350000D03*
X92720000Y-88850000D03*
X92720000Y-89350000D03*
X92720000Y-89850000D03*
X92720000Y-90350000D03*
X92720000Y-90850000D03*
X92720000Y-91350000D03*
D25*
X94020000Y-92650000D03*
X94520000Y-92650000D03*
X95020000Y-92650000D03*
X95520000Y-92650000D03*
X96020000Y-92650000D03*
X96520000Y-92650000D03*
X97020000Y-92650000D03*
X97520000Y-92650000D03*
X98020000Y-92650000D03*
X98520000Y-92650000D03*
X99020000Y-92650000D03*
X99520000Y-92650000D03*
D24*
X100820000Y-91350000D03*
X100820000Y-90850000D03*
X100820000Y-90350000D03*
X100820000Y-89850000D03*
X100820000Y-89350000D03*
X100820000Y-88850000D03*
X100820000Y-88350000D03*
X100820000Y-87850000D03*
X100820000Y-87350000D03*
X100820000Y-86850000D03*
X100820000Y-86350000D03*
X100820000Y-85850000D03*
D25*
X99520000Y-84550000D03*
X99020000Y-84550000D03*
X98520000Y-84550000D03*
X98020000Y-84550000D03*
X97520000Y-84550000D03*
X97020000Y-84550000D03*
X96520000Y-84550000D03*
X96020000Y-84550000D03*
X95520000Y-84550000D03*
X95020000Y-84550000D03*
X94520000Y-84550000D03*
X94020000Y-84550000D03*
%TD*%
D16*
%TO.C,R6*%
X122080000Y-96650000D03*
X124080000Y-96650000D03*
%TD*%
D26*
%TO.C,LED2*%
X70550500Y-77596000D03*
X68449500Y-77596000D03*
%TD*%
%TO.C,LED1*%
X70550500Y-80126000D03*
X68449500Y-80126000D03*
%TD*%
D19*
%TO.C,C5*%
X111780250Y-89790832D03*
X113780250Y-89790832D03*
%TD*%
D17*
%TO.C,C14*%
X80750750Y-80772250D03*
X79350750Y-80772250D03*
%TD*%
D27*
%TO.C,X2*%
X83450000Y-80765000D03*
X83450000Y-83315000D03*
%TD*%
D28*
%TO.C,C13*%
X79386875Y-87000707D03*
X80786875Y-87000707D03*
%TD*%
D29*
%TO.C,Q1*%
X114032000Y-84710000D03*
D30*
X111320000Y-83210000D03*
D29*
X114032000Y-81710000D03*
%TD*%
M02*
