G04 Layer: TopSilkscreenLayer*
G04 EasyEDA Pro v2.2.27.1, 2024-09-15 10:59:50*
G04 Gerber Generator version 0.3*
G04 Scale: 100 percent, Rotated: No, Reflected: No*
G04 Dimensions in millimeters*
G04 Leading zeros omitted, absolute positions, 3 integers and 5 decimals*
%TF.GenerationSoftware,KiCad,Pcbnew,8.0.5*%
%TF.CreationDate,2024-10-02T17:58:00+08:00*%
%TF.ProjectId,LED_SMT_5730_5S2P_5W,4c45445f-534d-4545-9f35-3733305f3553,rev?*%
%TF.SameCoordinates,Original*%
%TF.FileFunction,Legend,Top*%
%TF.FilePolarity,Positive*%
%FSLAX46Y46*%
G04 Gerber Fmt 4.6, Leading zero omitted, Abs format (unit mm)*
G04 Created by KiCad (PCBNEW 8.0.5) date 2024-10-02 17:58:00*
%MOMM*%
%LPD*%
G01*
G04 APERTURE LIST*
%ADD10C,0.150000*%
G04 APERTURE END LIST*
D10*
%TO.C,LED5*%
X94539500Y-108499000D02*
X94539500Y-111501000D01*
X99040500Y-108499000D02*
X93038500Y-108499000D01*
X99040500Y-111501000D02*
X93038500Y-111501000D01*
%TO.C,LED4*%
X97460500Y-107501000D02*
X97460500Y-104499000D01*
X92959500Y-107501000D02*
X98961500Y-107501000D01*
X92959500Y-104499000D02*
X98961500Y-104499000D01*
%TO.C,LED3*%
X92499000Y-101460500D02*
X95501000Y-101460500D01*
X92499000Y-96959500D02*
X92499000Y-102961500D01*
X95501000Y-96959500D02*
X95501000Y-102961500D01*
%TO.C,LED2*%
X94539500Y-92499000D02*
X94539500Y-95501000D01*
X99040500Y-92499000D02*
X93038500Y-92499000D01*
X99040500Y-95501000D02*
X93038500Y-95501000D01*
%TO.C,LED1*%
X97460500Y-91501000D02*
X97460500Y-88499000D01*
X92959500Y-91501000D02*
X98961500Y-91501000D01*
X92959500Y-88499000D02*
X98961500Y-88499000D01*
%TO.C,LED8*%
X107501000Y-96959500D02*
X107501000Y-102961500D01*
X104499000Y-101460500D02*
X107501000Y-101460500D01*
X104499000Y-96959500D02*
X104499000Y-102961500D01*
%TO.C,LED6*%
X107040500Y-91501000D02*
X101038500Y-91501000D01*
X107040500Y-88499000D02*
X101038500Y-88499000D01*
X102539500Y-88499000D02*
X102539500Y-91501000D01*
%TO.C,LED9*%
X107040500Y-107501000D02*
X101038500Y-107501000D01*
X107040500Y-104499000D02*
X101038500Y-104499000D01*
X102539500Y-104499000D02*
X102539500Y-107501000D01*
%TO.C,LED10*%
X100959500Y-108499000D02*
X106961500Y-108499000D01*
X100959500Y-111501000D02*
X106961500Y-111501000D01*
X105460500Y-111501000D02*
X105460500Y-108499000D01*
%TO.C,LED7*%
X105460500Y-95501000D02*
X105460500Y-92499000D01*
X100959500Y-95501000D02*
X106961500Y-95501000D01*
X100959500Y-92499000D02*
X106961500Y-92499000D01*
%TD*%
M02*
