%TF.GenerationSoftware,KiCad,Pcbnew,8.0.5*%
%TF.CreationDate,2024-10-25T22:44:06+08:00*%
%TF.ProjectId,TP4056_Lithium_battery_charging,54503430-3536-45f4-9c69-746869756d5f,rev?*%
%TF.SameCoordinates,Original*%
%TF.FileFunction,Copper,L1,Top*%
%TF.FilePolarity,Positive*%
%FSLAX46Y46*%
G04 Gerber Fmt 4.6, Leading zero omitted, Abs format (unit mm)*
G04 Created by KiCad (PCBNEW 8.0.5) date 2024-10-25 22:44:06*
%MOMM*%
%LPD*%
G01*
G04 APERTURE LIST*
G04 Aperture macros list*
%AMRoundRect*
0 Rectangle with rounded corners*
0 $1 Rounding radius*
0 $2 $3 $4 $5 $6 $7 $8 $9 X,Y pos of 4 corners*
0 Add a 4 corners polygon primitive as box body*
4,1,4,$2,$3,$4,$5,$6,$7,$8,$9,$2,$3,0*
0 Add four circle primitives for the rounded corners*
1,1,$1+$1,$2,$3*
1,1,$1+$1,$4,$5*
1,1,$1+$1,$6,$7*
1,1,$1+$1,$8,$9*
0 Add four rect primitives between the rounded corners*
20,1,$1+$1,$2,$3,$4,$5,0*
20,1,$1+$1,$4,$5,$6,$7,0*
20,1,$1+$1,$6,$7,$8,$9,0*
20,1,$1+$1,$8,$9,$2,$3,0*%
G04 Aperture macros list end*
%TA.AperFunction,ComponentPad*%
%ADD10O,1.700000X1.100000*%
%TD*%
%TA.AperFunction,SMDPad,CuDef*%
%ADD11RoundRect,0.200000X-0.400000X0.200000X-0.400000X-0.200000X0.400000X-0.200000X0.400000X0.200000X0*%
%TD*%
%TA.AperFunction,SMDPad,CuDef*%
%ADD12RoundRect,0.190000X-0.410000X0.190000X-0.410000X-0.190000X0.410000X-0.190000X0.410000X0.190000X0*%
%TD*%
%TA.AperFunction,SMDPad,CuDef*%
%ADD13RoundRect,0.175000X0.425000X-0.175000X0.425000X0.175000X-0.425000X0.175000X-0.425000X-0.175000X0*%
%TD*%
%TA.AperFunction,SMDPad,CuDef*%
%ADD14RoundRect,0.200000X0.400000X-0.200000X0.400000X0.200000X-0.400000X0.200000X-0.400000X-0.200000X0*%
%TD*%
%TA.AperFunction,SMDPad,CuDef*%
%ADD15RoundRect,0.190000X0.410000X-0.190000X0.410000X0.190000X-0.410000X0.190000X-0.410000X-0.190000X0*%
%TD*%
%TA.AperFunction,SMDPad,CuDef*%
%ADD16RoundRect,0.175000X-0.425000X0.175000X-0.425000X-0.175000X0.425000X-0.175000X0.425000X0.175000X0*%
%TD*%
%TA.AperFunction,ComponentPad*%
%ADD17C,1.600000*%
%TD*%
%TA.AperFunction,ComponentPad*%
%ADD18O,1.600000X1.600000*%
%TD*%
%TA.AperFunction,ComponentPad*%
%ADD19R,2.600000X2.600000*%
%TD*%
%TA.AperFunction,ComponentPad*%
%ADD20C,2.600000*%
%TD*%
%TA.AperFunction,ComponentPad*%
%ADD21R,1.400000X1.800000*%
%TD*%
%TA.AperFunction,ComponentPad*%
%ADD22O,1.400000X1.800000*%
%TD*%
%TA.AperFunction,ComponentPad*%
%ADD23C,6.000000*%
%TD*%
%TA.AperFunction,ViaPad*%
%ADD24C,0.500000*%
%TD*%
%TA.AperFunction,Conductor*%
%ADD25C,0.300000*%
%TD*%
%TA.AperFunction,Conductor*%
%ADD26C,1.500000*%
%TD*%
%TA.AperFunction,Conductor*%
%ADD27C,0.500000*%
%TD*%
%TA.AperFunction,Conductor*%
%ADD28C,0.800000*%
%TD*%
G04 APERTURE END LIST*
D10*
%TO.P,USB1,S1,SHIELD*%
%TO.N,GND*%
X103200000Y-110320000D03*
X107000000Y-110320000D03*
X103200000Y-101680000D03*
X107000000Y-101680000D03*
D11*
%TO.P,USB1,B12,GND*%
X107080000Y-103250000D03*
D12*
%TO.P,USB1,B9,VBUS*%
%TO.N,VCC*%
X107080000Y-104480000D03*
D13*
%TO.P,USB1,B5,CC2*%
%TO.N,Net-(USB1-CC2)*%
X107080000Y-106500000D03*
D14*
%TO.P,USB1,A12,GND*%
%TO.N,GND*%
X107080000Y-108750000D03*
D15*
%TO.P,USB1,A9,VBUS*%
%TO.N,VCC*%
X107080000Y-107520000D03*
D16*
%TO.P,USB1,A5,CC1*%
%TO.N,Net-(USB1-CC1)*%
X107080000Y-105500000D03*
%TD*%
D17*
%TO.P,R5,1*%
%TO.N,VCC*%
X109000000Y-116000000D03*
D18*
%TO.P,R5,2*%
%TO.N,Net-(LED2-A)*%
X111540000Y-116000000D03*
%TD*%
%TO.P,R4,2*%
%TO.N,Net-(USB1-CC1)*%
X105540000Y-120000000D03*
D17*
%TO.P,R4,1*%
%TO.N,GND*%
X103000000Y-120000000D03*
%TD*%
%TO.P,R3,1*%
%TO.N,GND*%
X103000000Y-116000000D03*
D18*
%TO.P,R3,2*%
%TO.N,Net-(USB1-CC2)*%
X105540000Y-116000000D03*
%TD*%
D17*
%TO.P,R2,1*%
%TO.N,VCC*%
X109000000Y-120000000D03*
D18*
%TO.P,R2,2*%
%TO.N,Net-(LED1-A)*%
X111540000Y-120000000D03*
%TD*%
D17*
%TO.P,R1,1*%
%TO.N,GND*%
X124245000Y-102200000D03*
D18*
%TO.P,R1,2*%
%TO.N,Net-(U1-PROG)*%
X121705000Y-102200000D03*
%TD*%
D19*
%TO.P,P1,1*%
%TO.N,GND*%
X121000000Y-129000000D03*
D20*
%TO.P,P1,2*%
%TO.N,BAT*%
X126000000Y-129000000D03*
%TD*%
D21*
%TO.P,LED2,1,K*%
%TO.N,Net-(LED2-K)*%
X117000000Y-115000000D03*
D22*
%TO.P,LED2,2,A*%
%TO.N,Net-(LED2-A)*%
X114460000Y-115000000D03*
%TD*%
D21*
%TO.P,LED1,1,K*%
%TO.N,Net-(LED1-K)*%
X117000000Y-120000000D03*
D22*
%TO.P,LED1,2,A*%
%TO.N,Net-(LED1-A)*%
X114460000Y-120000000D03*
%TD*%
D23*
%TO.P,H1,1,1*%
%TO.N,GND*%
X105000000Y-130000000D03*
%TD*%
D17*
%TO.P,C5,2*%
%TO.N,GND*%
X116000000Y-109000000D03*
%TO.P,C5,1*%
%TO.N,VCC*%
X116000000Y-104000000D03*
%TD*%
%TO.P,C4,2*%
%TO.N,GND*%
X112000000Y-109000000D03*
%TO.P,C4,1*%
%TO.N,VCC*%
X112000000Y-104000000D03*
%TD*%
%TO.P,C2,1*%
%TO.N,BAT*%
X127000000Y-120000000D03*
%TO.P,C2,2*%
%TO.N,GND*%
X122000000Y-120000000D03*
%TD*%
%TO.P,C1,1*%
%TO.N,BAT*%
X127000000Y-115000000D03*
%TO.P,C1,2*%
%TO.N,GND*%
X122000000Y-115000000D03*
%TD*%
D24*
%TO.N,VCC*%
X120900000Y-104600000D03*
%TO.N,Net-(U1-PROG)*%
X119035000Y-108635000D03*
%TO.N,VCC*%
X126800000Y-109900000D03*
%TO.N,Net-(LED1-K)*%
X126865000Y-108635000D03*
%TO.N,Net-(LED2-K)*%
X126900000Y-107365000D03*
%TD*%
D25*
%TO.N,VCC*%
X127900000Y-105900000D02*
X126600000Y-104600000D01*
X127900000Y-108800000D02*
X127900000Y-105900000D01*
X126600000Y-104600000D02*
X120900000Y-104600000D01*
X126800000Y-109900000D02*
X127900000Y-108800000D01*
%TO.N,Net-(LED1-K)*%
X126837649Y-108635000D02*
X126865000Y-108635000D01*
X117000000Y-118472649D02*
X126837649Y-108635000D01*
X117000000Y-120000000D02*
X117000000Y-118472649D01*
%TO.N,Net-(LED2-K)*%
X119265000Y-115000000D02*
X126900000Y-107365000D01*
X117000000Y-115000000D02*
X119265000Y-115000000D01*
D26*
%TO.N,Net-(LED1-A)*%
X111540000Y-120000000D02*
X114460000Y-120000000D01*
%TO.N,Net-(LED2-A)*%
X113460000Y-116000000D02*
X114460000Y-115000000D01*
X111540000Y-116000000D02*
X113460000Y-116000000D01*
D25*
%TO.N,Net-(USB1-CC1)*%
X106100000Y-105500000D02*
X107080000Y-105500000D01*
X104800000Y-106800000D02*
X106100000Y-105500000D01*
X104400000Y-111700000D02*
X104800000Y-111300000D01*
X104800000Y-111300000D02*
X104800000Y-106800000D01*
X104400000Y-118860000D02*
X104400000Y-111700000D01*
X105540000Y-120000000D02*
X104400000Y-118860000D01*
%TO.N,Net-(USB1-CC2)*%
X106300000Y-106500000D02*
X107080000Y-106500000D01*
X105540000Y-116000000D02*
X105540000Y-107260000D01*
X105540000Y-107260000D02*
X106300000Y-106500000D01*
D27*
%TO.N,Net-(U1-PROG)*%
X119000000Y-108600000D02*
X119000000Y-104905000D01*
X119035000Y-108635000D02*
X119000000Y-108600000D01*
X119000000Y-104905000D02*
X121705000Y-102200000D01*
D28*
%TO.N,GND*%
X107080000Y-110240000D02*
X107000000Y-110320000D01*
X107080000Y-108750000D02*
X107080000Y-110240000D01*
X107080000Y-101760000D02*
X107000000Y-101680000D01*
X107080000Y-103250000D02*
X107080000Y-101760000D01*
X111750000Y-108750000D02*
X112000000Y-109000000D01*
X107080000Y-108750000D02*
X111750000Y-108750000D01*
%TO.N,VCC*%
X108900000Y-106600000D02*
X108900000Y-104480000D01*
X107980000Y-107520000D02*
X108900000Y-106600000D01*
X107080000Y-107520000D02*
X107980000Y-107520000D01*
X108900000Y-104480000D02*
X111520000Y-104480000D01*
X107080000Y-104480000D02*
X108900000Y-104480000D01*
X111520000Y-104480000D02*
X112000000Y-104000000D01*
%TD*%
%TA.AperFunction,Conductor*%
%TO.N,GND*%
G36*
X125002702Y-100200617D02*
G01*
X125412917Y-100218528D01*
X125423654Y-100219468D01*
X125828057Y-100272708D01*
X125838695Y-100274583D01*
X126236925Y-100362869D01*
X126247365Y-100365667D01*
X126636363Y-100488317D01*
X126646524Y-100492015D01*
X127023363Y-100648108D01*
X127033155Y-100652674D01*
X127394965Y-100841020D01*
X127404305Y-100846413D01*
X127689636Y-101028189D01*
X127748309Y-101065568D01*
X127757170Y-101071772D01*
X128080766Y-101320076D01*
X128089053Y-101327030D01*
X128389767Y-101602583D01*
X128397416Y-101610232D01*
X128672969Y-101910946D01*
X128679923Y-101919233D01*
X128928227Y-102242829D01*
X128934431Y-102251690D01*
X129064275Y-102455504D01*
X129153578Y-102595680D01*
X129158983Y-102605042D01*
X129285004Y-102847126D01*
X129347322Y-102966838D01*
X129351894Y-102976642D01*
X129507983Y-103353473D01*
X129511683Y-103363639D01*
X129634331Y-103752630D01*
X129637131Y-103763078D01*
X129725414Y-104161296D01*
X129727292Y-104171950D01*
X129780529Y-104576326D01*
X129781472Y-104587102D01*
X129799382Y-104997297D01*
X129799500Y-105002706D01*
X129799500Y-129997293D01*
X129799382Y-130002702D01*
X129781472Y-130412897D01*
X129780529Y-130423673D01*
X129727292Y-130828049D01*
X129725414Y-130838703D01*
X129637131Y-131236921D01*
X129634331Y-131247369D01*
X129511683Y-131636360D01*
X129507983Y-131646526D01*
X129351894Y-132023357D01*
X129347322Y-132033161D01*
X129158987Y-132394951D01*
X129153578Y-132404319D01*
X128934431Y-132748309D01*
X128928227Y-132757170D01*
X128679923Y-133080766D01*
X128672969Y-133089053D01*
X128397416Y-133389767D01*
X128389767Y-133397416D01*
X128089053Y-133672969D01*
X128080766Y-133679923D01*
X127757170Y-133928227D01*
X127748309Y-133934431D01*
X127404319Y-134153578D01*
X127394951Y-134158987D01*
X127033161Y-134347322D01*
X127023357Y-134351894D01*
X126646526Y-134507983D01*
X126636360Y-134511683D01*
X126247369Y-134634331D01*
X126236921Y-134637131D01*
X125838703Y-134725414D01*
X125828049Y-134727292D01*
X125423673Y-134780529D01*
X125412897Y-134781472D01*
X125002703Y-134799382D01*
X124997294Y-134799500D01*
X105002706Y-134799500D01*
X104997297Y-134799382D01*
X104587102Y-134781472D01*
X104576326Y-134780529D01*
X104171950Y-134727292D01*
X104161296Y-134725414D01*
X103763078Y-134637131D01*
X103752630Y-134634331D01*
X103363639Y-134511683D01*
X103353473Y-134507983D01*
X102976642Y-134351894D01*
X102966838Y-134347322D01*
X102847126Y-134285004D01*
X102605042Y-134158983D01*
X102595686Y-134153582D01*
X102423685Y-134044004D01*
X102251690Y-133934431D01*
X102242829Y-133928227D01*
X101919233Y-133679923D01*
X101910946Y-133672969D01*
X101610232Y-133397416D01*
X101602583Y-133389767D01*
X101327030Y-133089053D01*
X101320076Y-133080766D01*
X101071772Y-132757170D01*
X101065568Y-132748309D01*
X101012070Y-132664334D01*
X100846413Y-132404305D01*
X100841020Y-132394965D01*
X100652674Y-132033155D01*
X100648105Y-132023357D01*
X100492016Y-131646526D01*
X100488316Y-131636360D01*
X100365668Y-131247369D01*
X100362868Y-131236921D01*
X100274585Y-130838703D01*
X100272707Y-130828049D01*
X100250914Y-130662511D01*
X100219468Y-130423654D01*
X100218528Y-130412917D01*
X100200618Y-130002702D01*
X100200500Y-129997293D01*
X100200500Y-128999995D01*
X124294732Y-128999995D01*
X124294732Y-129000004D01*
X124313777Y-129254154D01*
X124313778Y-129254157D01*
X124370492Y-129502637D01*
X124463607Y-129739888D01*
X124591041Y-129960612D01*
X124749950Y-130159877D01*
X124936783Y-130333232D01*
X125147366Y-130476805D01*
X125147371Y-130476807D01*
X125147372Y-130476808D01*
X125147373Y-130476809D01*
X125269328Y-130535538D01*
X125376992Y-130587387D01*
X125376993Y-130587387D01*
X125376996Y-130587389D01*
X125620542Y-130662513D01*
X125872565Y-130700500D01*
X126127435Y-130700500D01*
X126379458Y-130662513D01*
X126623004Y-130587389D01*
X126852634Y-130476805D01*
X127063217Y-130333232D01*
X127250050Y-130159877D01*
X127408959Y-129960612D01*
X127536393Y-129739888D01*
X127629508Y-129502637D01*
X127686222Y-129254157D01*
X127705268Y-129000000D01*
X127686222Y-128745843D01*
X127629508Y-128497363D01*
X127536393Y-128260112D01*
X127408959Y-128039388D01*
X127250050Y-127840123D01*
X127063217Y-127666768D01*
X126852634Y-127523195D01*
X126852630Y-127523193D01*
X126852627Y-127523191D01*
X126852626Y-127523190D01*
X126623006Y-127412612D01*
X126623008Y-127412612D01*
X126379466Y-127337489D01*
X126379462Y-127337488D01*
X126379458Y-127337487D01*
X126258231Y-127319214D01*
X126127440Y-127299500D01*
X126127435Y-127299500D01*
X125872565Y-127299500D01*
X125872559Y-127299500D01*
X125715609Y-127323157D01*
X125620542Y-127337487D01*
X125620539Y-127337488D01*
X125620533Y-127337489D01*
X125376992Y-127412612D01*
X125147373Y-127523190D01*
X125147372Y-127523191D01*
X124936782Y-127666768D01*
X124749952Y-127840121D01*
X124749950Y-127840123D01*
X124591041Y-128039388D01*
X124463608Y-128260109D01*
X124370492Y-128497362D01*
X124370490Y-128497369D01*
X124313777Y-128745845D01*
X124294732Y-128999995D01*
X100200500Y-128999995D01*
X100200500Y-111627525D01*
X103849500Y-111627525D01*
X103849500Y-118932475D01*
X103885943Y-119068481D01*
X103887016Y-119072485D01*
X103887017Y-119072488D01*
X103959487Y-119198011D01*
X103959491Y-119198016D01*
X104344347Y-119582872D01*
X104377832Y-119644195D01*
X104375933Y-119704486D01*
X104354884Y-119778466D01*
X104334357Y-119999999D01*
X104334357Y-120000000D01*
X104354884Y-120221535D01*
X104354885Y-120221537D01*
X104415769Y-120435523D01*
X104415775Y-120435538D01*
X104514938Y-120634683D01*
X104514943Y-120634691D01*
X104649020Y-120812238D01*
X104813437Y-120962123D01*
X104813439Y-120962125D01*
X105002595Y-121079245D01*
X105002596Y-121079245D01*
X105002599Y-121079247D01*
X105210060Y-121159618D01*
X105428757Y-121200500D01*
X105428759Y-121200500D01*
X105651241Y-121200500D01*
X105651243Y-121200500D01*
X105869940Y-121159618D01*
X106077401Y-121079247D01*
X106266562Y-120962124D01*
X106430981Y-120812236D01*
X106565058Y-120634689D01*
X106664229Y-120435528D01*
X106725115Y-120221536D01*
X106745643Y-120000000D01*
X106745643Y-119999999D01*
X107794357Y-119999999D01*
X107794357Y-120000000D01*
X107814884Y-120221535D01*
X107814885Y-120221537D01*
X107875769Y-120435523D01*
X107875775Y-120435538D01*
X107974938Y-120634683D01*
X107974943Y-120634691D01*
X108109020Y-120812238D01*
X108273437Y-120962123D01*
X108273439Y-120962125D01*
X108462595Y-121079245D01*
X108462596Y-121079245D01*
X108462599Y-121079247D01*
X108670060Y-121159618D01*
X108888757Y-121200500D01*
X108888759Y-121200500D01*
X109111241Y-121200500D01*
X109111243Y-121200500D01*
X109329940Y-121159618D01*
X109537401Y-121079247D01*
X109726562Y-120962124D01*
X109890981Y-120812236D01*
X110025058Y-120634689D01*
X110124229Y-120435528D01*
X110150734Y-120342371D01*
X110188013Y-120283278D01*
X110251323Y-120253721D01*
X110320562Y-120263083D01*
X110373749Y-120308393D01*
X110389266Y-120342372D01*
X110415769Y-120435523D01*
X110415775Y-120435538D01*
X110514938Y-120634683D01*
X110514943Y-120634691D01*
X110649020Y-120812238D01*
X110813437Y-120962123D01*
X110813439Y-120962125D01*
X111002595Y-121079245D01*
X111002596Y-121079245D01*
X111002599Y-121079247D01*
X111210060Y-121159618D01*
X111428757Y-121200500D01*
X111428759Y-121200500D01*
X111651241Y-121200500D01*
X111651243Y-121200500D01*
X111869940Y-121159618D01*
X111871861Y-121158873D01*
X111873889Y-121158494D01*
X111875455Y-121158049D01*
X111875496Y-121158194D01*
X111916655Y-121150500D01*
X113871632Y-121150500D01*
X113927926Y-121164014D01*
X114037555Y-121219873D01*
X114202299Y-121273402D01*
X114373389Y-121300500D01*
X114373390Y-121300500D01*
X114546610Y-121300500D01*
X114546611Y-121300500D01*
X114717701Y-121273402D01*
X114882445Y-121219873D01*
X115036788Y-121141232D01*
X115176928Y-121039414D01*
X115299414Y-120916928D01*
X115401232Y-120776788D01*
X115479873Y-120622445D01*
X115533402Y-120457701D01*
X115543679Y-120392805D01*
X115548216Y-120373909D01*
X115582171Y-120269409D01*
X115597623Y-120171847D01*
X115610500Y-120090551D01*
X115610500Y-119909448D01*
X115582171Y-119730590D01*
X115569504Y-119691606D01*
X115548217Y-119626092D01*
X115543678Y-119607181D01*
X115533402Y-119542301D01*
X115533402Y-119542299D01*
X115479873Y-119377555D01*
X115479871Y-119377552D01*
X115479871Y-119377550D01*
X115401231Y-119223211D01*
X115299414Y-119083072D01*
X115176928Y-118960586D01*
X115036788Y-118858768D01*
X114882445Y-118780127D01*
X114717701Y-118726598D01*
X114717699Y-118726597D01*
X114717698Y-118726597D01*
X114586271Y-118705781D01*
X114546611Y-118699500D01*
X114373389Y-118699500D01*
X114333728Y-118705781D01*
X114202302Y-118726597D01*
X114037552Y-118780128D01*
X113927927Y-118835985D01*
X113871632Y-118849500D01*
X111916655Y-118849500D01*
X111875496Y-118841805D01*
X111875455Y-118841951D01*
X111873889Y-118841505D01*
X111871861Y-118841126D01*
X111869940Y-118840382D01*
X111651243Y-118799500D01*
X111428757Y-118799500D01*
X111210060Y-118840382D01*
X111078864Y-118891207D01*
X111002601Y-118920752D01*
X111002595Y-118920754D01*
X110813439Y-119037874D01*
X110813437Y-119037876D01*
X110649020Y-119187761D01*
X110514943Y-119365308D01*
X110514938Y-119365316D01*
X110415775Y-119564461D01*
X110415769Y-119564476D01*
X110389266Y-119657627D01*
X110351987Y-119716721D01*
X110288677Y-119746278D01*
X110219438Y-119736916D01*
X110166251Y-119691606D01*
X110150734Y-119657627D01*
X110124230Y-119564476D01*
X110124229Y-119564472D01*
X110124224Y-119564461D01*
X110025061Y-119365316D01*
X110025056Y-119365308D01*
X109890979Y-119187761D01*
X109726562Y-119037876D01*
X109726560Y-119037874D01*
X109537404Y-118920754D01*
X109537398Y-118920752D01*
X109329940Y-118840382D01*
X109111243Y-118799500D01*
X108888757Y-118799500D01*
X108670060Y-118840382D01*
X108538864Y-118891207D01*
X108462601Y-118920752D01*
X108462595Y-118920754D01*
X108273439Y-119037874D01*
X108273437Y-119037876D01*
X108109020Y-119187761D01*
X107974943Y-119365308D01*
X107974938Y-119365316D01*
X107875775Y-119564461D01*
X107875769Y-119564476D01*
X107814885Y-119778462D01*
X107814884Y-119778464D01*
X107794357Y-119999999D01*
X106745643Y-119999999D01*
X106725115Y-119778464D01*
X106664229Y-119564472D01*
X106664224Y-119564461D01*
X106565061Y-119365316D01*
X106565056Y-119365308D01*
X106430979Y-119187761D01*
X106266562Y-119037876D01*
X106266560Y-119037874D01*
X106077404Y-118920754D01*
X106077398Y-118920752D01*
X105869940Y-118840382D01*
X105651243Y-118799500D01*
X105428757Y-118799500D01*
X105287715Y-118825865D01*
X105231211Y-118836428D01*
X105161696Y-118829397D01*
X105120745Y-118802220D01*
X104986819Y-118668294D01*
X104953334Y-118606971D01*
X104950500Y-118580613D01*
X104950500Y-117240080D01*
X104970185Y-117173041D01*
X105022989Y-117127286D01*
X105092147Y-117117342D01*
X105119284Y-117124451D01*
X105210060Y-117159618D01*
X105428757Y-117200500D01*
X105428759Y-117200500D01*
X105651241Y-117200500D01*
X105651243Y-117200500D01*
X105869940Y-117159618D01*
X106077401Y-117079247D01*
X106266562Y-116962124D01*
X106266562Y-116962123D01*
X106266565Y-116962122D01*
X106430979Y-116812238D01*
X106478360Y-116749496D01*
X106565058Y-116634689D01*
X106664229Y-116435528D01*
X106725115Y-116221536D01*
X106745643Y-116000000D01*
X106745643Y-115999999D01*
X107794357Y-115999999D01*
X107794357Y-116000000D01*
X107814884Y-116221535D01*
X107814885Y-116221537D01*
X107875769Y-116435523D01*
X107875775Y-116435538D01*
X107974938Y-116634683D01*
X107974943Y-116634691D01*
X108109020Y-116812238D01*
X108273435Y-116962122D01*
X108273439Y-116962125D01*
X108462595Y-117079245D01*
X108462596Y-117079245D01*
X108462599Y-117079247D01*
X108670060Y-117159618D01*
X108888757Y-117200500D01*
X108888759Y-117200500D01*
X109111241Y-117200500D01*
X109111243Y-117200500D01*
X109329940Y-117159618D01*
X109537401Y-117079247D01*
X109726562Y-116962124D01*
X109726562Y-116962123D01*
X109726565Y-116962122D01*
X109890979Y-116812238D01*
X109938360Y-116749496D01*
X110025058Y-116634689D01*
X110124229Y-116435528D01*
X110150734Y-116342371D01*
X110188013Y-116283278D01*
X110251323Y-116253721D01*
X110320562Y-116263083D01*
X110373749Y-116308393D01*
X110389266Y-116342372D01*
X110415769Y-116435523D01*
X110415775Y-116435538D01*
X110514938Y-116634683D01*
X110514943Y-116634691D01*
X110649020Y-116812238D01*
X110813435Y-116962122D01*
X110813439Y-116962125D01*
X111002595Y-117079245D01*
X111002596Y-117079245D01*
X111002599Y-117079247D01*
X111210060Y-117159618D01*
X111428757Y-117200500D01*
X111428759Y-117200500D01*
X111651241Y-117200500D01*
X111651243Y-117200500D01*
X111869940Y-117159618D01*
X111871861Y-117158873D01*
X111873889Y-117158494D01*
X111875455Y-117158049D01*
X111875496Y-117158194D01*
X111916655Y-117150500D01*
X113364319Y-117150500D01*
X113364343Y-117150501D01*
X113369454Y-117150501D01*
X113550545Y-117150501D01*
X113550546Y-117150501D01*
X113729409Y-117122171D01*
X113901639Y-117066211D01*
X114062994Y-116983996D01*
X114093098Y-116962124D01*
X114209501Y-116877553D01*
X114337553Y-116749501D01*
X114337553Y-116749499D01*
X114346451Y-116740602D01*
X114346459Y-116740591D01*
X114838944Y-116248106D01*
X114879181Y-116221224D01*
X114882437Y-116219875D01*
X114882445Y-116219873D01*
X115036788Y-116141232D01*
X115176928Y-116039414D01*
X115299414Y-115916928D01*
X115401232Y-115776788D01*
X115479873Y-115622445D01*
X115533402Y-115457701D01*
X115543679Y-115392807D01*
X115548215Y-115373915D01*
X115582172Y-115269409D01*
X115597624Y-115171847D01*
X115610501Y-115090551D01*
X115610501Y-114909453D01*
X115601005Y-114849500D01*
X115582172Y-114730591D01*
X115548214Y-114626080D01*
X115543679Y-114607191D01*
X115533402Y-114542299D01*
X115479873Y-114377555D01*
X115479871Y-114377552D01*
X115479871Y-114377550D01*
X115438387Y-114296133D01*
X115401232Y-114223212D01*
X115299414Y-114083072D01*
X115284817Y-114068475D01*
X115899500Y-114068475D01*
X115899500Y-115931517D01*
X115904348Y-115962124D01*
X115914354Y-116025304D01*
X115971950Y-116138342D01*
X115971952Y-116138344D01*
X115971954Y-116138347D01*
X116061652Y-116228045D01*
X116061654Y-116228046D01*
X116061658Y-116228050D01*
X116170049Y-116283278D01*
X116174698Y-116285647D01*
X116268475Y-116300499D01*
X116268481Y-116300500D01*
X117731518Y-116300499D01*
X117825304Y-116285646D01*
X117938342Y-116228050D01*
X118028050Y-116138342D01*
X118085646Y-116025304D01*
X118085646Y-116025302D01*
X118085647Y-116025301D01*
X118100500Y-115931524D01*
X118100500Y-115674500D01*
X118120185Y-115607461D01*
X118172989Y-115561706D01*
X118224500Y-115550500D01*
X118844262Y-115550500D01*
X118911301Y-115570185D01*
X118957056Y-115622989D01*
X118967000Y-115692147D01*
X118937975Y-115755703D01*
X118931943Y-115762181D01*
X116559491Y-118134632D01*
X116559489Y-118134635D01*
X116487016Y-118260163D01*
X116487016Y-118260164D01*
X116449500Y-118400174D01*
X116449500Y-118400176D01*
X116449500Y-118575500D01*
X116429815Y-118642539D01*
X116377011Y-118688294D01*
X116325502Y-118699500D01*
X116268483Y-118699500D01*
X116189550Y-118712001D01*
X116174696Y-118714354D01*
X116061658Y-118771950D01*
X116061657Y-118771951D01*
X116061652Y-118771954D01*
X115971954Y-118861652D01*
X115971951Y-118861657D01*
X115914352Y-118974698D01*
X115899500Y-119068475D01*
X115899500Y-120931517D01*
X115904348Y-120962124D01*
X115914354Y-121025304D01*
X115971950Y-121138342D01*
X115971952Y-121138344D01*
X115971954Y-121138347D01*
X116061652Y-121228045D01*
X116061654Y-121228046D01*
X116061658Y-121228050D01*
X116174694Y-121285645D01*
X116174698Y-121285647D01*
X116268475Y-121300499D01*
X116268481Y-121300500D01*
X117731518Y-121300499D01*
X117825304Y-121285646D01*
X117938342Y-121228050D01*
X118028050Y-121138342D01*
X118085646Y-121025304D01*
X118085646Y-121025302D01*
X118085647Y-121025301D01*
X118100499Y-120931524D01*
X118100500Y-120931519D01*
X118100499Y-119999999D01*
X125794357Y-119999999D01*
X125794357Y-120000000D01*
X125814884Y-120221535D01*
X125814885Y-120221537D01*
X125875769Y-120435523D01*
X125875775Y-120435538D01*
X125974938Y-120634683D01*
X125974943Y-120634691D01*
X126109020Y-120812238D01*
X126273437Y-120962123D01*
X126273439Y-120962125D01*
X126462595Y-121079245D01*
X126462596Y-121079245D01*
X126462599Y-121079247D01*
X126670060Y-121159618D01*
X126888757Y-121200500D01*
X126888759Y-121200500D01*
X127111241Y-121200500D01*
X127111243Y-121200500D01*
X127329940Y-121159618D01*
X127537401Y-121079247D01*
X127726562Y-120962124D01*
X127890981Y-120812236D01*
X128025058Y-120634689D01*
X128124229Y-120435528D01*
X128185115Y-120221536D01*
X128205643Y-120000000D01*
X128185115Y-119778464D01*
X128124229Y-119564472D01*
X128124224Y-119564461D01*
X128025061Y-119365316D01*
X128025056Y-119365308D01*
X127890979Y-119187761D01*
X127726562Y-119037876D01*
X127726560Y-119037874D01*
X127537404Y-118920754D01*
X127537398Y-118920752D01*
X127329940Y-118840382D01*
X127111243Y-118799500D01*
X126888757Y-118799500D01*
X126670060Y-118840382D01*
X126538864Y-118891207D01*
X126462601Y-118920752D01*
X126462595Y-118920754D01*
X126273439Y-119037874D01*
X126273437Y-119037876D01*
X126109020Y-119187761D01*
X125974943Y-119365308D01*
X125974938Y-119365316D01*
X125875775Y-119564461D01*
X125875769Y-119564476D01*
X125814885Y-119778462D01*
X125814884Y-119778464D01*
X125794357Y-119999999D01*
X118100499Y-119999999D01*
X118100499Y-119068482D01*
X118085646Y-118974696D01*
X118028050Y-118861658D01*
X118028046Y-118861654D01*
X118028045Y-118861652D01*
X117938347Y-118771954D01*
X117938344Y-118771952D01*
X117938342Y-118771950D01*
X117825304Y-118714354D01*
X117825302Y-118714353D01*
X117825301Y-118714353D01*
X117816627Y-118712979D01*
X117753493Y-118683048D01*
X117716563Y-118623735D01*
X117717563Y-118553873D01*
X117748345Y-118502827D01*
X121251173Y-114999999D01*
X125794357Y-114999999D01*
X125794357Y-115000000D01*
X125814884Y-115221535D01*
X125814885Y-115221537D01*
X125875769Y-115435523D01*
X125875775Y-115435538D01*
X125974938Y-115634683D01*
X125974943Y-115634691D01*
X126109020Y-115812238D01*
X126273437Y-115962123D01*
X126273439Y-115962125D01*
X126462595Y-116079245D01*
X126462596Y-116079245D01*
X126462599Y-116079247D01*
X126670060Y-116159618D01*
X126888757Y-116200500D01*
X126888759Y-116200500D01*
X127111241Y-116200500D01*
X127111243Y-116200500D01*
X127329940Y-116159618D01*
X127537401Y-116079247D01*
X127726562Y-115962124D01*
X127890981Y-115812236D01*
X128025058Y-115634689D01*
X128124229Y-115435528D01*
X128185115Y-115221536D01*
X128205643Y-115000000D01*
X128185115Y-114778464D01*
X128124229Y-114564472D01*
X128124224Y-114564461D01*
X128025061Y-114365316D01*
X128025056Y-114365308D01*
X127890979Y-114187761D01*
X127726562Y-114037876D01*
X127726560Y-114037874D01*
X127537404Y-113920754D01*
X127537398Y-113920752D01*
X127329940Y-113840382D01*
X127111243Y-113799500D01*
X126888757Y-113799500D01*
X126670060Y-113840382D01*
X126538864Y-113891207D01*
X126462601Y-113920752D01*
X126462595Y-113920754D01*
X126273439Y-114037874D01*
X126273437Y-114037876D01*
X126109020Y-114187761D01*
X125974943Y-114365308D01*
X125974938Y-114365316D01*
X125875775Y-114564461D01*
X125875769Y-114564476D01*
X125814885Y-114778462D01*
X125814884Y-114778464D01*
X125794357Y-114999999D01*
X121251173Y-114999999D01*
X126043870Y-110207301D01*
X126105191Y-110173818D01*
X126174883Y-110178802D01*
X126230816Y-110220674D01*
X126233599Y-110224544D01*
X126309517Y-110334530D01*
X126427760Y-110439283D01*
X126427762Y-110439284D01*
X126567634Y-110512696D01*
X126721014Y-110550500D01*
X126721015Y-110550500D01*
X126878985Y-110550500D01*
X127032365Y-110512696D01*
X127172240Y-110439283D01*
X127290483Y-110334530D01*
X127380220Y-110204523D01*
X127435676Y-110058296D01*
X127463937Y-110014587D01*
X128340510Y-109138015D01*
X128412984Y-109012485D01*
X128450500Y-108872474D01*
X128450500Y-108727526D01*
X128450500Y-105827525D01*
X128412984Y-105687515D01*
X128340510Y-105561986D01*
X126938015Y-104159490D01*
X126812485Y-104087016D01*
X126812486Y-104087016D01*
X126777482Y-104077637D01*
X126672475Y-104049500D01*
X126672472Y-104049500D01*
X121281431Y-104049500D01*
X121223805Y-104035296D01*
X121132365Y-103987304D01*
X121132364Y-103987303D01*
X121132361Y-103987302D01*
X121132362Y-103987302D01*
X121109386Y-103981639D01*
X121049006Y-103946482D01*
X121017218Y-103884262D01*
X121024116Y-103814734D01*
X121051378Y-103773567D01*
X121404894Y-103420050D01*
X121466215Y-103386567D01*
X121515356Y-103385844D01*
X121593757Y-103400500D01*
X121593759Y-103400500D01*
X121816241Y-103400500D01*
X121816243Y-103400500D01*
X122034940Y-103359618D01*
X122242401Y-103279247D01*
X122431562Y-103162124D01*
X122595981Y-103012236D01*
X122730058Y-102834689D01*
X122829229Y-102635528D01*
X122890115Y-102421536D01*
X122910643Y-102200000D01*
X122890115Y-101978464D01*
X122829229Y-101764472D01*
X122765281Y-101636047D01*
X122730061Y-101565316D01*
X122730056Y-101565308D01*
X122595979Y-101387761D01*
X122431562Y-101237876D01*
X122431560Y-101237874D01*
X122242404Y-101120754D01*
X122242398Y-101120752D01*
X122034940Y-101040382D01*
X121816243Y-100999500D01*
X121593757Y-100999500D01*
X121375060Y-101040382D01*
X121243864Y-101091207D01*
X121167601Y-101120752D01*
X121167595Y-101120754D01*
X120978439Y-101237874D01*
X120978437Y-101237876D01*
X120814020Y-101387761D01*
X120679943Y-101565308D01*
X120679938Y-101565316D01*
X120580775Y-101764461D01*
X120580769Y-101764476D01*
X120519885Y-101978462D01*
X120519884Y-101978464D01*
X120499357Y-102199999D01*
X120499357Y-102200000D01*
X120518214Y-102403506D01*
X120504799Y-102472076D01*
X120482424Y-102502628D01*
X118494724Y-104490328D01*
X118448945Y-104558843D01*
X118423535Y-104596871D01*
X118374499Y-104715255D01*
X118374497Y-104715261D01*
X118349500Y-104840928D01*
X118349500Y-108664070D01*
X118362123Y-108727525D01*
X118362123Y-108727527D01*
X118364163Y-108737785D01*
X118374499Y-108789744D01*
X118423535Y-108908127D01*
X118493264Y-109012485D01*
X118494726Y-109014673D01*
X118525255Y-109045201D01*
X118539626Y-109062445D01*
X118544514Y-109069527D01*
X118544517Y-109069531D01*
X118586133Y-109106399D01*
X118591572Y-109111518D01*
X118618067Y-109138013D01*
X118620331Y-109140277D01*
X118629762Y-109146578D01*
X118643098Y-109156864D01*
X118652338Y-109165049D01*
X118662757Y-109174281D01*
X118662758Y-109174281D01*
X118662760Y-109174283D01*
X118696423Y-109191950D01*
X118707683Y-109198642D01*
X118726873Y-109211465D01*
X118753621Y-109222544D01*
X118763776Y-109227300D01*
X118802635Y-109247696D01*
X118816344Y-109251075D01*
X118822434Y-109252576D01*
X118840211Y-109258411D01*
X118845256Y-109260501D01*
X118890891Y-109269578D01*
X118896307Y-109270783D01*
X118956015Y-109285500D01*
X119113986Y-109285500D01*
X119124610Y-109282881D01*
X119173697Y-109270781D01*
X119179122Y-109269574D01*
X119224743Y-109260501D01*
X119229789Y-109258410D01*
X119247562Y-109252575D01*
X119267365Y-109247696D01*
X119306218Y-109227303D01*
X119316397Y-109222536D01*
X119329624Y-109217056D01*
X119343126Y-109211465D01*
X119362320Y-109198639D01*
X119373574Y-109191953D01*
X119407237Y-109174285D01*
X119407238Y-109174283D01*
X119407240Y-109174283D01*
X119426909Y-109156857D01*
X119440243Y-109146574D01*
X119449669Y-109140276D01*
X119478425Y-109111518D01*
X119483866Y-109106398D01*
X119525483Y-109069530D01*
X119530531Y-109062214D01*
X119536742Y-109053972D01*
X119540265Y-109049679D01*
X119540276Y-109049669D01*
X119572610Y-109001274D01*
X119573617Y-108999794D01*
X119615218Y-108939526D01*
X119615218Y-108939525D01*
X119615220Y-108939523D01*
X119639106Y-108876536D01*
X119640473Y-108873092D01*
X119660501Y-108824743D01*
X119660503Y-108824728D01*
X119661189Y-108822470D01*
X119666092Y-108805381D01*
X119671237Y-108791818D01*
X119677232Y-108742439D01*
X119678711Y-108733188D01*
X119679838Y-108727527D01*
X119685499Y-108699068D01*
X119685499Y-108681859D01*
X119686403Y-108666912D01*
X119686748Y-108664069D01*
X119690278Y-108635000D01*
X119686403Y-108603086D01*
X119685499Y-108588140D01*
X119685499Y-108570932D01*
X119685499Y-108570931D01*
X119678706Y-108536781D01*
X119677232Y-108527561D01*
X119671237Y-108478184D01*
X119671236Y-108478179D01*
X119670596Y-108476492D01*
X119666093Y-108464621D01*
X119661203Y-108447573D01*
X119660503Y-108445266D01*
X119660501Y-108445256D01*
X119659937Y-108443896D01*
X119659651Y-108442456D01*
X119658732Y-108439425D01*
X119659030Y-108439334D01*
X119650500Y-108396446D01*
X119650500Y-105225807D01*
X119670185Y-105158768D01*
X119686815Y-105138130D01*
X120074356Y-104750588D01*
X120135677Y-104717105D01*
X120205368Y-104722089D01*
X120261302Y-104763960D01*
X120277977Y-104794299D01*
X120295663Y-104840931D01*
X120319780Y-104904523D01*
X120409517Y-105034530D01*
X120527760Y-105139283D01*
X120527762Y-105139284D01*
X120667634Y-105212696D01*
X120821014Y-105250500D01*
X120821015Y-105250500D01*
X120978985Y-105250500D01*
X121132365Y-105212696D01*
X121223805Y-105164703D01*
X121281431Y-105150500D01*
X126320613Y-105150500D01*
X126387652Y-105170185D01*
X126408294Y-105186819D01*
X127313181Y-106091705D01*
X127346666Y-106153028D01*
X127349500Y-106179386D01*
X127349500Y-106661144D01*
X127329815Y-106728183D01*
X127277011Y-106773938D01*
X127207853Y-106783882D01*
X127167874Y-106770941D01*
X127132365Y-106752304D01*
X127132362Y-106752303D01*
X126978986Y-106714500D01*
X126978985Y-106714500D01*
X126821015Y-106714500D01*
X126821014Y-106714500D01*
X126667634Y-106752303D01*
X126527762Y-106825715D01*
X126409516Y-106930471D01*
X126319781Y-107060474D01*
X126264324Y-107206702D01*
X126236063Y-107250411D01*
X119073294Y-114413181D01*
X119011971Y-114446666D01*
X118985613Y-114449500D01*
X118224499Y-114449500D01*
X118157460Y-114429815D01*
X118111705Y-114377011D01*
X118100499Y-114325500D01*
X118100499Y-114068482D01*
X118095652Y-114037876D01*
X118085646Y-113974696D01*
X118028050Y-113861658D01*
X118028046Y-113861654D01*
X118028045Y-113861652D01*
X117938347Y-113771954D01*
X117938344Y-113771952D01*
X117938342Y-113771950D01*
X117849332Y-113726597D01*
X117825301Y-113714352D01*
X117731524Y-113699500D01*
X116268482Y-113699500D01*
X116187519Y-113712323D01*
X116174696Y-113714354D01*
X116061658Y-113771950D01*
X116061657Y-113771951D01*
X116061652Y-113771954D01*
X115971954Y-113861652D01*
X115971951Y-113861657D01*
X115914352Y-113974698D01*
X115899500Y-114068475D01*
X115284817Y-114068475D01*
X115176928Y-113960586D01*
X115036788Y-113858768D01*
X114882445Y-113780127D01*
X114717701Y-113726598D01*
X114717699Y-113726597D01*
X114717698Y-113726597D01*
X114586271Y-113705781D01*
X114546611Y-113699500D01*
X114373389Y-113699500D01*
X114333728Y-113705781D01*
X114202302Y-113726597D01*
X114037552Y-113780128D01*
X113883211Y-113858768D01*
X113803256Y-113916859D01*
X113743072Y-113960586D01*
X113743070Y-113960588D01*
X113743069Y-113960588D01*
X113620588Y-114083069D01*
X113620588Y-114083070D01*
X113620586Y-114083072D01*
X113589996Y-114125174D01*
X113518766Y-114223213D01*
X113440122Y-114377563D01*
X113438760Y-114380852D01*
X113411890Y-114421056D01*
X113019766Y-114813181D01*
X112958443Y-114846666D01*
X112932085Y-114849500D01*
X111916655Y-114849500D01*
X111875496Y-114841805D01*
X111875455Y-114841951D01*
X111873889Y-114841505D01*
X111871861Y-114841126D01*
X111869940Y-114840382D01*
X111651243Y-114799500D01*
X111428757Y-114799500D01*
X111210060Y-114840382D01*
X111078864Y-114891207D01*
X111002601Y-114920752D01*
X111002595Y-114920754D01*
X110813439Y-115037874D01*
X110813437Y-115037876D01*
X110649020Y-115187761D01*
X110514943Y-115365308D01*
X110514938Y-115365316D01*
X110415775Y-115564461D01*
X110415769Y-115564476D01*
X110389266Y-115657627D01*
X110351987Y-115716721D01*
X110288677Y-115746278D01*
X110219438Y-115736916D01*
X110166251Y-115691606D01*
X110150734Y-115657627D01*
X110124230Y-115564476D01*
X110124229Y-115564472D01*
X110117272Y-115550500D01*
X110025061Y-115365316D01*
X110025056Y-115365308D01*
X109890979Y-115187761D01*
X109726562Y-115037876D01*
X109726560Y-115037874D01*
X109537404Y-114920754D01*
X109537398Y-114920752D01*
X109329940Y-114840382D01*
X109111243Y-114799500D01*
X108888757Y-114799500D01*
X108670060Y-114840382D01*
X108538864Y-114891207D01*
X108462601Y-114920752D01*
X108462595Y-114920754D01*
X108273439Y-115037874D01*
X108273437Y-115037876D01*
X108109020Y-115187761D01*
X107974943Y-115365308D01*
X107974938Y-115365316D01*
X107875775Y-115564461D01*
X107875769Y-115564476D01*
X107814885Y-115778462D01*
X107814884Y-115778464D01*
X107794357Y-115999999D01*
X106745643Y-115999999D01*
X106737945Y-115916929D01*
X106725115Y-115778464D01*
X106725114Y-115778462D01*
X106713293Y-115736916D01*
X106664229Y-115564472D01*
X106657272Y-115550500D01*
X106565061Y-115365316D01*
X106565056Y-115365308D01*
X106430979Y-115187761D01*
X106266563Y-115037877D01*
X106266562Y-115037876D01*
X106149222Y-114965222D01*
X106102587Y-114913194D01*
X106090500Y-114859795D01*
X106090500Y-108261088D01*
X106110185Y-108194049D01*
X106162989Y-108148294D01*
X106232147Y-108138350D01*
X106289984Y-108162711D01*
X106372201Y-108225799D01*
X106372204Y-108225801D01*
X106380886Y-108229397D01*
X106515849Y-108285301D01*
X106631299Y-108300500D01*
X106888397Y-108300499D01*
X106912589Y-108302882D01*
X107001156Y-108320500D01*
X107001158Y-108320500D01*
X108058844Y-108320500D01*
X108058845Y-108320499D01*
X108213497Y-108289737D01*
X108359179Y-108229394D01*
X108490289Y-108141789D01*
X109521788Y-107110290D01*
X109521789Y-107110289D01*
X109609394Y-106979179D01*
X109669737Y-106833497D01*
X109673576Y-106814200D01*
X109700500Y-106678843D01*
X109700500Y-106521158D01*
X109700500Y-105404500D01*
X109720185Y-105337461D01*
X109772989Y-105291706D01*
X109824500Y-105280500D01*
X111598844Y-105280500D01*
X111598845Y-105280499D01*
X111753497Y-105249737D01*
X111849577Y-105209939D01*
X111897030Y-105200500D01*
X112111241Y-105200500D01*
X112111243Y-105200500D01*
X112329940Y-105159618D01*
X112537401Y-105079247D01*
X112726562Y-104962124D01*
X112877911Y-104824151D01*
X112890979Y-104812238D01*
X112911620Y-104784906D01*
X113025058Y-104634689D01*
X113054120Y-104576326D01*
X113124224Y-104435538D01*
X113124223Y-104435538D01*
X113124229Y-104435528D01*
X113185115Y-104221536D01*
X113205643Y-104000000D01*
X113205643Y-103999999D01*
X114794357Y-103999999D01*
X114794357Y-104000000D01*
X114814884Y-104221535D01*
X114814885Y-104221537D01*
X114875769Y-104435523D01*
X114875775Y-104435538D01*
X114974938Y-104634683D01*
X114974943Y-104634691D01*
X115109020Y-104812238D01*
X115273437Y-104962123D01*
X115273439Y-104962125D01*
X115462595Y-105079245D01*
X115462596Y-105079245D01*
X115462599Y-105079247D01*
X115670060Y-105159618D01*
X115888757Y-105200500D01*
X115888759Y-105200500D01*
X116111241Y-105200500D01*
X116111243Y-105200500D01*
X116329940Y-105159618D01*
X116537401Y-105079247D01*
X116726562Y-104962124D01*
X116877911Y-104824151D01*
X116890979Y-104812238D01*
X116911620Y-104784906D01*
X117025058Y-104634689D01*
X117054120Y-104576326D01*
X117124224Y-104435538D01*
X117124223Y-104435538D01*
X117124229Y-104435528D01*
X117185115Y-104221536D01*
X117205643Y-104000000D01*
X117204920Y-103992202D01*
X117185115Y-103778464D01*
X117185114Y-103778462D01*
X117183901Y-103774200D01*
X117124229Y-103564472D01*
X117124224Y-103564461D01*
X117025061Y-103365316D01*
X117025056Y-103365308D01*
X116890979Y-103187761D01*
X116726562Y-103037876D01*
X116726560Y-103037874D01*
X116537404Y-102920754D01*
X116537398Y-102920752D01*
X116329940Y-102840382D01*
X116111243Y-102799500D01*
X115888757Y-102799500D01*
X115670060Y-102840382D01*
X115538864Y-102891207D01*
X115462601Y-102920752D01*
X115462595Y-102920754D01*
X115273439Y-103037874D01*
X115273437Y-103037876D01*
X115109020Y-103187761D01*
X114974943Y-103365308D01*
X114974938Y-103365316D01*
X114875775Y-103564461D01*
X114875769Y-103564476D01*
X114814885Y-103778462D01*
X114814884Y-103778464D01*
X114794357Y-103999999D01*
X113205643Y-103999999D01*
X113204920Y-103992202D01*
X113185115Y-103778464D01*
X113185114Y-103778462D01*
X113183901Y-103774200D01*
X113124229Y-103564472D01*
X113124224Y-103564461D01*
X113025061Y-103365316D01*
X113025056Y-103365308D01*
X112890979Y-103187761D01*
X112726562Y-103037876D01*
X112726560Y-103037874D01*
X112537404Y-102920754D01*
X112537398Y-102920752D01*
X112329940Y-102840382D01*
X112111243Y-102799500D01*
X111888757Y-102799500D01*
X111670060Y-102840382D01*
X111538864Y-102891207D01*
X111462601Y-102920752D01*
X111462595Y-102920754D01*
X111273439Y-103037874D01*
X111273437Y-103037876D01*
X111109020Y-103187761D01*
X110974943Y-103365308D01*
X110974938Y-103365316D01*
X110875772Y-103564468D01*
X110868669Y-103589434D01*
X110831390Y-103648527D01*
X110768080Y-103678085D01*
X110749402Y-103679500D01*
X108978842Y-103679500D01*
X107001158Y-103679500D01*
X106942304Y-103691206D01*
X106912583Y-103697118D01*
X106888393Y-103699500D01*
X106631296Y-103699500D01*
X106515857Y-103714696D01*
X106515848Y-103714699D01*
X106372205Y-103774198D01*
X106372202Y-103774199D01*
X106372202Y-103774200D01*
X106248851Y-103868851D01*
X106157959Y-103987304D01*
X106154198Y-103992205D01*
X106094699Y-104135848D01*
X106094698Y-104135850D01*
X106079500Y-104251298D01*
X106079500Y-104708695D01*
X106094156Y-104820030D01*
X106083388Y-104889065D01*
X106037007Y-104941320D01*
X106003311Y-104955987D01*
X105887519Y-104987014D01*
X105887512Y-104987017D01*
X105761989Y-105059487D01*
X105761984Y-105059491D01*
X104359491Y-106461983D01*
X104359489Y-106461985D01*
X104325328Y-106521157D01*
X104325327Y-106521158D01*
X104287017Y-106587512D01*
X104287016Y-106587513D01*
X104268258Y-106657520D01*
X104249500Y-106727525D01*
X104249500Y-106727527D01*
X104249500Y-111020613D01*
X104229815Y-111087652D01*
X104213181Y-111108294D01*
X103959491Y-111361983D01*
X103959489Y-111361986D01*
X103887016Y-111487514D01*
X103887016Y-111487515D01*
X103849500Y-111627525D01*
X100200500Y-111627525D01*
X100200500Y-105002706D01*
X100200618Y-104997297D01*
X100203062Y-104941320D01*
X100218528Y-104587080D01*
X100219468Y-104576347D01*
X100272709Y-104171938D01*
X100274582Y-104161308D01*
X100362870Y-103763068D01*
X100365668Y-103752630D01*
X100377629Y-103714696D01*
X100488319Y-103363629D01*
X100492016Y-103353473D01*
X100522762Y-103279247D01*
X100648111Y-102976627D01*
X100652669Y-102966853D01*
X100841025Y-102605024D01*
X100846407Y-102595703D01*
X101065574Y-102251680D01*
X101071765Y-102242837D01*
X101320083Y-101919224D01*
X101327021Y-101910955D01*
X101602594Y-101610220D01*
X101610220Y-101602594D01*
X101910955Y-101327021D01*
X101919224Y-101320083D01*
X102242837Y-101071765D01*
X102251680Y-101065574D01*
X102595703Y-100846407D01*
X102605024Y-100841025D01*
X102966853Y-100652669D01*
X102976627Y-100648111D01*
X103353482Y-100492012D01*
X103363629Y-100488319D01*
X103752639Y-100365665D01*
X103763068Y-100362870D01*
X104161308Y-100274582D01*
X104171938Y-100272709D01*
X104576347Y-100219468D01*
X104587080Y-100218528D01*
X104997297Y-100200617D01*
X105002706Y-100200500D01*
X105039882Y-100200500D01*
X124960118Y-100200500D01*
X124997294Y-100200500D01*
X125002702Y-100200617D01*
G37*
%TD.AperFunction*%
%TD*%
M02*
