%TF.GenerationSoftware,KiCad,Pcbnew,8.0.5*%
%TF.CreationDate,2024-10-25T22:44:06+08:00*%
%TF.ProjectId,TP4056_Lithium_battery_charging,54503430-3536-45f4-9c69-746869756d5f,rev?*%
%TF.SameCoordinates,Original*%
%TF.FileFunction,Copper,L2,Bot*%
%TF.FilePolarity,Positive*%
%FSLAX46Y46*%
G04 Gerber Fmt 4.6, Leading zero omitted, Abs format (unit mm)*
G04 Created by KiCad (PCBNEW 8.0.5) date 2024-10-25 22:44:06*
%MOMM*%
%LPD*%
G01*
G04 APERTURE LIST*
G04 Aperture macros list*
%AMRoundRect*
0 Rectangle with rounded corners*
0 $1 Rounding radius*
0 $2 $3 $4 $5 $6 $7 $8 $9 X,Y pos of 4 corners*
0 Add a 4 corners polygon primitive as box body*
4,1,4,$2,$3,$4,$5,$6,$7,$8,$9,$2,$3,0*
0 Add four circle primitives for the rounded corners*
1,1,$1+$1,$2,$3*
1,1,$1+$1,$4,$5*
1,1,$1+$1,$6,$7*
1,1,$1+$1,$8,$9*
0 Add four rect primitives between the rounded corners*
20,1,$1+$1,$2,$3,$4,$5,0*
20,1,$1+$1,$4,$5,$6,$7,0*
20,1,$1+$1,$6,$7,$8,$9,0*
20,1,$1+$1,$8,$9,$2,$3,0*%
G04 Aperture macros list end*
%TA.AperFunction,SMDPad,CuDef*%
%ADD10RoundRect,0.250000X0.250000X0.475000X-0.250000X0.475000X-0.250000X-0.475000X0.250000X-0.475000X0*%
%TD*%
%TA.AperFunction,SMDPad,CuDef*%
%ADD11RoundRect,0.250000X-0.475000X0.250000X-0.475000X-0.250000X0.475000X-0.250000X0.475000X0.250000X0*%
%TD*%
%TA.AperFunction,ComponentPad*%
%ADD12O,1.700000X1.100000*%
%TD*%
%TA.AperFunction,SMDPad,CuDef*%
%ADD13R,2.400000X3.300000*%
%TD*%
%TA.AperFunction,SMDPad,CuDef*%
%ADD14R,1.200000X0.600000*%
%TD*%
%TA.AperFunction,ComponentPad*%
%ADD15C,1.600000*%
%TD*%
%TA.AperFunction,ComponentPad*%
%ADD16O,1.600000X1.600000*%
%TD*%
%TA.AperFunction,ComponentPad*%
%ADD17R,2.600000X2.600000*%
%TD*%
%TA.AperFunction,ComponentPad*%
%ADD18C,2.600000*%
%TD*%
%TA.AperFunction,ComponentPad*%
%ADD19R,1.400000X1.800000*%
%TD*%
%TA.AperFunction,ComponentPad*%
%ADD20O,1.400000X1.800000*%
%TD*%
%TA.AperFunction,ComponentPad*%
%ADD21C,6.000000*%
%TD*%
%TA.AperFunction,ViaPad*%
%ADD22C,0.500000*%
%TD*%
%TA.AperFunction,Conductor*%
%ADD23C,0.300000*%
%TD*%
%TA.AperFunction,Conductor*%
%ADD24C,1.500000*%
%TD*%
%TA.AperFunction,Conductor*%
%ADD25C,0.500000*%
%TD*%
%TA.AperFunction,Conductor*%
%ADD26C,1.000000*%
%TD*%
%TA.AperFunction,Conductor*%
%ADD27C,2.000000*%
%TD*%
%TA.AperFunction,Conductor*%
%ADD28C,0.600000*%
%TD*%
G04 APERTURE END LIST*
D10*
%TO.P,C3,1*%
%TO.N,BAT*%
X125450000Y-122000000D03*
%TO.P,C3,2*%
%TO.N,GND*%
X123550000Y-122000000D03*
%TD*%
D11*
%TO.P,C6,1*%
%TO.N,VCC*%
X118000000Y-105550000D03*
%TO.P,C6,2*%
%TO.N,GND*%
X118000000Y-107450000D03*
%TD*%
D12*
%TO.P,USB1,S1,SHIELD*%
%TO.N,GND*%
X103200000Y-110320000D03*
X107000000Y-110320000D03*
X103200000Y-101680000D03*
X107000000Y-101680000D03*
%TD*%
D13*
%TO.P,U1,9,EP*%
%TO.N,GND*%
X123000000Y-108000000D03*
D14*
%TO.P,U1,8,CE*%
%TO.N,VCC*%
X125908500Y-109905000D03*
%TO.P,U1,7,CHRG#*%
%TO.N,Net-(LED1-K)*%
X125908500Y-108635000D03*
%TO.P,U1,6,STDBY#*%
%TO.N,Net-(LED2-K)*%
X125908500Y-107365000D03*
%TO.P,U1,5,BAT*%
%TO.N,BAT*%
X125908500Y-106095000D03*
%TO.P,U1,4,VCC*%
%TO.N,VCC*%
X120091500Y-106095000D03*
%TO.P,U1,3,GND*%
%TO.N,GND*%
X120091500Y-107365000D03*
%TO.P,U1,2,PROG*%
%TO.N,Net-(U1-PROG)*%
X120091500Y-108635000D03*
%TO.P,U1,1,TEMP*%
%TO.N,GND*%
X120091500Y-109905000D03*
%TD*%
D15*
%TO.P,R5,1*%
%TO.N,VCC*%
X109000000Y-116000000D03*
D16*
%TO.P,R5,2*%
%TO.N,Net-(LED2-A)*%
X111540000Y-116000000D03*
%TD*%
%TO.P,R4,2*%
%TO.N,Net-(USB1-CC1)*%
X105540000Y-120000000D03*
D15*
%TO.P,R4,1*%
%TO.N,GND*%
X103000000Y-120000000D03*
%TD*%
%TO.P,R3,1*%
%TO.N,GND*%
X103000000Y-116000000D03*
D16*
%TO.P,R3,2*%
%TO.N,Net-(USB1-CC2)*%
X105540000Y-116000000D03*
%TD*%
D15*
%TO.P,R2,1*%
%TO.N,VCC*%
X109000000Y-120000000D03*
D16*
%TO.P,R2,2*%
%TO.N,Net-(LED1-A)*%
X111540000Y-120000000D03*
%TD*%
D15*
%TO.P,R1,1*%
%TO.N,GND*%
X124245000Y-102200000D03*
D16*
%TO.P,R1,2*%
%TO.N,Net-(U1-PROG)*%
X121705000Y-102200000D03*
%TD*%
D17*
%TO.P,P1,1*%
%TO.N,GND*%
X121000000Y-129000000D03*
D18*
%TO.P,P1,2*%
%TO.N,BAT*%
X126000000Y-129000000D03*
%TD*%
D19*
%TO.P,LED2,1,K*%
%TO.N,Net-(LED2-K)*%
X117000000Y-115000000D03*
D20*
%TO.P,LED2,2,A*%
%TO.N,Net-(LED2-A)*%
X114460000Y-115000000D03*
%TD*%
D19*
%TO.P,LED1,1,K*%
%TO.N,Net-(LED1-K)*%
X117000000Y-120000000D03*
D20*
%TO.P,LED1,2,A*%
%TO.N,Net-(LED1-A)*%
X114460000Y-120000000D03*
%TD*%
D21*
%TO.P,H1,1,1*%
%TO.N,GND*%
X105000000Y-130000000D03*
%TD*%
D15*
%TO.P,C5,2*%
%TO.N,GND*%
X116000000Y-109000000D03*
%TO.P,C5,1*%
%TO.N,VCC*%
X116000000Y-104000000D03*
%TD*%
%TO.P,C4,2*%
%TO.N,GND*%
X112000000Y-109000000D03*
%TO.P,C4,1*%
%TO.N,VCC*%
X112000000Y-104000000D03*
%TD*%
%TO.P,C2,1*%
%TO.N,BAT*%
X127000000Y-120000000D03*
%TO.P,C2,2*%
%TO.N,GND*%
X122000000Y-120000000D03*
%TD*%
%TO.P,C1,1*%
%TO.N,BAT*%
X127000000Y-115000000D03*
%TO.P,C1,2*%
%TO.N,GND*%
X122000000Y-115000000D03*
%TD*%
D22*
%TO.N,VCC*%
X120900000Y-104600000D03*
%TO.N,Net-(U1-PROG)*%
X119035000Y-108635000D03*
%TO.N,VCC*%
X126800000Y-109900000D03*
%TO.N,Net-(LED1-K)*%
X126865000Y-108635000D03*
%TO.N,Net-(LED2-K)*%
X126900000Y-107365000D03*
%TD*%
D23*
%TO.N,VCC*%
X120496500Y-104600000D02*
X119546500Y-105550000D01*
X120900000Y-104600000D02*
X120496500Y-104600000D01*
D24*
X112000000Y-104000000D02*
X109000000Y-107000000D01*
X109000000Y-107000000D02*
X109000000Y-116000000D01*
%TO.N,GND*%
X103000000Y-128000000D02*
X105000000Y-130000000D01*
X103000000Y-120000000D02*
X103000000Y-128000000D01*
X103000000Y-110520000D02*
X103200000Y-110320000D01*
X103000000Y-116000000D02*
X103000000Y-110520000D01*
%TO.N,VCC*%
X109000000Y-120000000D02*
X109000000Y-116000000D01*
%TO.N,GND*%
X103000000Y-120000000D02*
X103000000Y-116000000D01*
D25*
%TO.N,Net-(U1-PROG)*%
X120091500Y-108635000D02*
X119035000Y-108635000D01*
%TO.N,VCC*%
X126800000Y-109900000D02*
X126795000Y-109905000D01*
X125908500Y-109905000D02*
X126800000Y-109900000D01*
D26*
%TO.N,BAT*%
X125450000Y-128450000D02*
X126000000Y-129000000D01*
X125450000Y-122000000D02*
X125450000Y-128450000D01*
%TO.N,GND*%
X123550000Y-126450000D02*
X121000000Y-129000000D01*
X123550000Y-122000000D02*
X123550000Y-126450000D01*
D27*
X123000000Y-114000000D02*
X122000000Y-115000000D01*
X123000000Y-108000000D02*
X123000000Y-114000000D01*
D24*
X122000000Y-120000000D02*
X122000000Y-115000000D01*
D26*
X123550000Y-121550000D02*
X122000000Y-120000000D01*
X123550000Y-122000000D02*
X123550000Y-121550000D01*
%TO.N,BAT*%
X125450000Y-121550000D02*
X127000000Y-120000000D01*
X125450000Y-122000000D02*
X125450000Y-121550000D01*
D24*
X127000000Y-115000000D02*
X127000000Y-120000000D01*
D28*
X127580000Y-114420000D02*
X127000000Y-115000000D01*
X127580000Y-106566500D02*
X127580000Y-114420000D01*
X127108500Y-106095000D02*
X127580000Y-106566500D01*
X125908500Y-106095000D02*
X127108500Y-106095000D01*
D25*
%TO.N,Net-(LED1-K)*%
X125908500Y-108635000D02*
X126865000Y-108635000D01*
%TO.N,Net-(LED2-K)*%
X125908500Y-107365000D02*
X126900000Y-107365000D01*
D26*
%TO.N,GND*%
X121095000Y-109905000D02*
X123000000Y-108000000D01*
X120091500Y-109905000D02*
X121095000Y-109905000D01*
X123000000Y-103445000D02*
X124245000Y-102200000D01*
X123000000Y-108000000D02*
X123000000Y-103445000D01*
X120091500Y-107365000D02*
X122365000Y-107365000D01*
X122365000Y-107365000D02*
X123000000Y-108000000D01*
X120006500Y-107450000D02*
X120091500Y-107365000D01*
X118000000Y-107450000D02*
X120006500Y-107450000D01*
%TO.N,VCC*%
X119546500Y-105550000D02*
X120091500Y-106095000D01*
X118000000Y-105550000D02*
X119546500Y-105550000D01*
X117550000Y-105550000D02*
X116000000Y-104000000D01*
X118000000Y-105550000D02*
X117550000Y-105550000D01*
%TO.N,GND*%
X117550000Y-107450000D02*
X116000000Y-109000000D01*
X118000000Y-107450000D02*
X117550000Y-107450000D01*
D24*
X112000000Y-109000000D02*
X116000000Y-109000000D01*
%TO.N,VCC*%
X112000000Y-104000000D02*
X116000000Y-104000000D01*
%TD*%
%TA.AperFunction,Conductor*%
%TO.N,GND*%
G36*
X125002702Y-100200617D02*
G01*
X125412917Y-100218528D01*
X125423654Y-100219468D01*
X125828057Y-100272708D01*
X125838695Y-100274583D01*
X126236925Y-100362869D01*
X126247365Y-100365667D01*
X126636363Y-100488317D01*
X126646524Y-100492015D01*
X127023363Y-100648108D01*
X127033155Y-100652674D01*
X127394965Y-100841020D01*
X127404305Y-100846413D01*
X127689636Y-101028189D01*
X127748309Y-101065568D01*
X127757170Y-101071772D01*
X128080766Y-101320076D01*
X128089053Y-101327030D01*
X128389767Y-101602583D01*
X128397416Y-101610232D01*
X128672969Y-101910946D01*
X128679923Y-101919233D01*
X128928227Y-102242829D01*
X128934431Y-102251690D01*
X129153578Y-102595680D01*
X129158983Y-102605042D01*
X129281881Y-102841126D01*
X129347322Y-102966838D01*
X129351894Y-102976642D01*
X129507983Y-103353473D01*
X129511683Y-103363639D01*
X129634331Y-103752630D01*
X129637131Y-103763078D01*
X129725414Y-104161296D01*
X129727292Y-104171950D01*
X129780529Y-104576326D01*
X129781472Y-104587102D01*
X129799382Y-104997297D01*
X129799500Y-105002706D01*
X129799500Y-129997293D01*
X129799382Y-130002702D01*
X129781472Y-130412897D01*
X129780529Y-130423673D01*
X129727292Y-130828049D01*
X129725414Y-130838703D01*
X129637131Y-131236921D01*
X129634331Y-131247369D01*
X129511683Y-131636360D01*
X129507983Y-131646526D01*
X129351894Y-132023357D01*
X129347322Y-132033161D01*
X129158987Y-132394951D01*
X129153578Y-132404319D01*
X128934431Y-132748309D01*
X128928227Y-132757170D01*
X128679923Y-133080766D01*
X128672969Y-133089053D01*
X128397416Y-133389767D01*
X128389767Y-133397416D01*
X128089053Y-133672969D01*
X128080766Y-133679923D01*
X127757170Y-133928227D01*
X127748309Y-133934431D01*
X127404319Y-134153578D01*
X127394951Y-134158987D01*
X127033161Y-134347322D01*
X127023357Y-134351894D01*
X126646526Y-134507983D01*
X126636360Y-134511683D01*
X126247369Y-134634331D01*
X126236921Y-134637131D01*
X125838703Y-134725414D01*
X125828049Y-134727292D01*
X125423673Y-134780529D01*
X125412897Y-134781472D01*
X125002703Y-134799382D01*
X124997294Y-134799500D01*
X105002706Y-134799500D01*
X104997297Y-134799382D01*
X104587102Y-134781472D01*
X104576326Y-134780529D01*
X104171950Y-134727292D01*
X104161296Y-134725414D01*
X103763078Y-134637131D01*
X103752630Y-134634331D01*
X103363639Y-134511683D01*
X103353473Y-134507983D01*
X102976642Y-134351894D01*
X102966838Y-134347322D01*
X102847126Y-134285004D01*
X102605042Y-134158983D01*
X102595686Y-134153582D01*
X102423685Y-134044004D01*
X102251690Y-133934431D01*
X102242829Y-133928227D01*
X101919233Y-133679923D01*
X101910946Y-133672969D01*
X101610232Y-133397416D01*
X101602583Y-133389767D01*
X101327030Y-133089053D01*
X101320076Y-133080766D01*
X101071772Y-132757170D01*
X101065568Y-132748309D01*
X101012070Y-132664334D01*
X100846413Y-132404305D01*
X100841020Y-132394965D01*
X100652674Y-132033155D01*
X100648105Y-132023357D01*
X100492016Y-131646526D01*
X100488316Y-131636360D01*
X100365668Y-131247369D01*
X100362868Y-131236921D01*
X100274585Y-130838703D01*
X100272707Y-130828049D01*
X100250914Y-130662511D01*
X100219468Y-130423654D01*
X100218528Y-130412917D01*
X100200618Y-130002702D01*
X100200500Y-129997293D01*
X100200500Y-128999995D01*
X124294732Y-128999995D01*
X124294732Y-129000004D01*
X124313777Y-129254154D01*
X124313778Y-129254157D01*
X124370492Y-129502637D01*
X124463607Y-129739888D01*
X124591041Y-129960612D01*
X124749950Y-130159877D01*
X124936783Y-130333232D01*
X125147366Y-130476805D01*
X125147371Y-130476807D01*
X125147372Y-130476808D01*
X125147373Y-130476809D01*
X125269328Y-130535538D01*
X125376992Y-130587387D01*
X125376993Y-130587387D01*
X125376996Y-130587389D01*
X125620542Y-130662513D01*
X125872565Y-130700500D01*
X126127435Y-130700500D01*
X126379458Y-130662513D01*
X126623004Y-130587389D01*
X126852634Y-130476805D01*
X127063217Y-130333232D01*
X127250050Y-130159877D01*
X127408959Y-129960612D01*
X127536393Y-129739888D01*
X127629508Y-129502637D01*
X127686222Y-129254157D01*
X127705268Y-129000000D01*
X127686222Y-128745843D01*
X127629508Y-128497363D01*
X127536393Y-128260112D01*
X127408959Y-128039388D01*
X127250050Y-127840123D01*
X127063217Y-127666768D01*
X126852634Y-127523195D01*
X126852630Y-127523193D01*
X126852627Y-127523191D01*
X126852626Y-127523190D01*
X126623006Y-127412612D01*
X126623008Y-127412612D01*
X126437950Y-127355529D01*
X126379691Y-127316958D01*
X126351533Y-127253014D01*
X126350500Y-127237038D01*
X126350500Y-121974362D01*
X126370185Y-121907323D01*
X126386819Y-121886681D01*
X127037437Y-121236062D01*
X127098758Y-121202579D01*
X127106582Y-121201370D01*
X127111236Y-121200500D01*
X127111243Y-121200500D01*
X127329940Y-121159618D01*
X127537401Y-121079247D01*
X127726562Y-120962124D01*
X127890981Y-120812236D01*
X128025058Y-120634689D01*
X128124229Y-120435528D01*
X128185115Y-120221536D01*
X128205643Y-120000000D01*
X128185115Y-119778464D01*
X128155234Y-119673442D01*
X128150500Y-119639508D01*
X128150500Y-115360490D01*
X128155234Y-115326555D01*
X128166600Y-115286611D01*
X128185115Y-115221536D01*
X128205643Y-115000000D01*
X128188758Y-114817781D01*
X128200404Y-114758252D01*
X128198444Y-114757440D01*
X128253578Y-114624332D01*
X128253580Y-114624328D01*
X128262389Y-114580040D01*
X128280500Y-114488996D01*
X128280500Y-106497506D01*
X128270572Y-106447599D01*
X128270572Y-106447598D01*
X128253580Y-106362172D01*
X128207324Y-106250499D01*
X128200777Y-106234692D01*
X128124112Y-106119954D01*
X127555045Y-105550887D01*
X127440307Y-105474222D01*
X127312832Y-105421421D01*
X127312822Y-105421418D01*
X127177496Y-105394500D01*
X127177494Y-105394500D01*
X127177493Y-105394500D01*
X125839507Y-105394500D01*
X125839504Y-105394500D01*
X125276982Y-105394500D01*
X125196019Y-105407323D01*
X125183196Y-105409354D01*
X125070158Y-105466950D01*
X125070157Y-105466951D01*
X125070152Y-105466954D01*
X124980454Y-105556652D01*
X124980451Y-105556657D01*
X124922852Y-105669698D01*
X124908000Y-105763475D01*
X124908000Y-106426517D01*
X124918792Y-106494657D01*
X124922854Y-106520304D01*
X124980450Y-106633342D01*
X124980452Y-106633344D01*
X124980454Y-106633347D01*
X124989426Y-106642319D01*
X125022911Y-106703642D01*
X125017927Y-106773334D01*
X124989426Y-106817681D01*
X124980454Y-106826652D01*
X124980451Y-106826657D01*
X124922852Y-106939698D01*
X124908000Y-107033475D01*
X124908000Y-107696517D01*
X124918792Y-107764657D01*
X124922854Y-107790304D01*
X124980450Y-107903342D01*
X124980452Y-107903344D01*
X124980454Y-107903347D01*
X124989426Y-107912319D01*
X125022911Y-107973642D01*
X125017927Y-108043334D01*
X124989426Y-108087681D01*
X124980454Y-108096652D01*
X124980451Y-108096657D01*
X124980450Y-108096658D01*
X124963602Y-108129724D01*
X124922852Y-108209698D01*
X124908000Y-108303475D01*
X124908000Y-108966517D01*
X124918792Y-109034657D01*
X124922854Y-109060304D01*
X124980450Y-109173342D01*
X124980452Y-109173344D01*
X124980454Y-109173347D01*
X124989426Y-109182319D01*
X125022911Y-109243642D01*
X125017927Y-109313334D01*
X124989426Y-109357681D01*
X124980454Y-109366652D01*
X124980451Y-109366657D01*
X124922852Y-109479698D01*
X124908000Y-109573475D01*
X124908000Y-110236517D01*
X124918792Y-110304657D01*
X124922854Y-110330304D01*
X124980450Y-110443342D01*
X124980452Y-110443344D01*
X124980454Y-110443347D01*
X125070152Y-110533045D01*
X125070154Y-110533046D01*
X125070158Y-110533050D01*
X125183194Y-110590645D01*
X125183198Y-110590647D01*
X125276975Y-110605499D01*
X125276981Y-110605500D01*
X126540018Y-110605499D01*
X126633804Y-110590646D01*
X126676258Y-110569013D01*
X126732553Y-110555499D01*
X126755500Y-110555499D01*
X126822539Y-110575184D01*
X126868294Y-110627988D01*
X126879500Y-110679499D01*
X126879500Y-113698261D01*
X126859815Y-113765300D01*
X126807011Y-113811055D01*
X126778287Y-113820149D01*
X126670068Y-113840380D01*
X126670064Y-113840381D01*
X126670062Y-113840381D01*
X126670060Y-113840382D01*
X126522899Y-113897392D01*
X126462601Y-113920752D01*
X126462595Y-113920754D01*
X126273439Y-114037874D01*
X126273437Y-114037876D01*
X126109020Y-114187761D01*
X125974943Y-114365308D01*
X125974938Y-114365316D01*
X125875775Y-114564461D01*
X125875769Y-114564476D01*
X125814885Y-114778462D01*
X125814884Y-114778464D01*
X125794357Y-114999999D01*
X125794357Y-115000000D01*
X125814884Y-115221535D01*
X125844766Y-115326555D01*
X125849500Y-115360490D01*
X125849500Y-119639508D01*
X125844766Y-119673442D01*
X125814885Y-119778461D01*
X125814885Y-119778464D01*
X125805417Y-119880632D01*
X125779630Y-119945569D01*
X125769627Y-119956871D01*
X124750537Y-120975961D01*
X124711064Y-121035039D01*
X124711063Y-121035040D01*
X124651985Y-121123455D01*
X124620073Y-121200500D01*
X124584105Y-121287333D01*
X124584103Y-121287341D01*
X124568768Y-121364435D01*
X124566228Y-121374836D01*
X124552403Y-121422424D01*
X124552401Y-121422436D01*
X124549500Y-121459298D01*
X124549500Y-128078113D01*
X124532888Y-128140112D01*
X124463606Y-128260114D01*
X124370492Y-128497362D01*
X124370490Y-128497369D01*
X124313777Y-128745845D01*
X124294732Y-128999995D01*
X100200500Y-128999995D01*
X100200500Y-119999999D01*
X104334357Y-119999999D01*
X104334357Y-120000000D01*
X104354884Y-120221535D01*
X104354885Y-120221537D01*
X104415769Y-120435523D01*
X104415775Y-120435538D01*
X104514938Y-120634683D01*
X104514943Y-120634691D01*
X104649020Y-120812238D01*
X104813437Y-120962123D01*
X104813439Y-120962125D01*
X105002595Y-121079245D01*
X105002596Y-121079245D01*
X105002599Y-121079247D01*
X105210060Y-121159618D01*
X105428757Y-121200500D01*
X105428759Y-121200500D01*
X105651241Y-121200500D01*
X105651243Y-121200500D01*
X105869940Y-121159618D01*
X106077401Y-121079247D01*
X106266562Y-120962124D01*
X106430981Y-120812236D01*
X106565058Y-120634689D01*
X106664229Y-120435528D01*
X106725115Y-120221536D01*
X106745643Y-120000000D01*
X106725115Y-119778464D01*
X106664229Y-119564472D01*
X106653190Y-119542302D01*
X106565061Y-119365316D01*
X106565056Y-119365308D01*
X106430979Y-119187761D01*
X106266562Y-119037876D01*
X106266560Y-119037874D01*
X106077404Y-118920754D01*
X106077398Y-118920752D01*
X105869940Y-118840382D01*
X105651243Y-118799500D01*
X105428757Y-118799500D01*
X105210060Y-118840382D01*
X105078864Y-118891207D01*
X105002601Y-118920752D01*
X105002595Y-118920754D01*
X104813439Y-119037874D01*
X104813437Y-119037876D01*
X104649020Y-119187761D01*
X104514943Y-119365308D01*
X104514938Y-119365316D01*
X104415775Y-119564461D01*
X104415769Y-119564476D01*
X104354885Y-119778462D01*
X104354884Y-119778464D01*
X104334357Y-119999999D01*
X100200500Y-119999999D01*
X100200500Y-115999999D01*
X104334357Y-115999999D01*
X104334357Y-116000000D01*
X104354884Y-116221535D01*
X104354885Y-116221537D01*
X104415769Y-116435523D01*
X104415775Y-116435538D01*
X104514938Y-116634683D01*
X104514943Y-116634691D01*
X104649020Y-116812238D01*
X104813437Y-116962123D01*
X104813439Y-116962125D01*
X105002595Y-117079245D01*
X105002596Y-117079245D01*
X105002599Y-117079247D01*
X105210060Y-117159618D01*
X105428757Y-117200500D01*
X105428759Y-117200500D01*
X105651241Y-117200500D01*
X105651243Y-117200500D01*
X105869940Y-117159618D01*
X106077401Y-117079247D01*
X106266562Y-116962124D01*
X106430981Y-116812236D01*
X106565058Y-116634689D01*
X106664229Y-116435528D01*
X106725115Y-116221536D01*
X106745643Y-116000000D01*
X106745643Y-115999999D01*
X107794357Y-115999999D01*
X107794357Y-116000000D01*
X107814884Y-116221535D01*
X107844766Y-116326555D01*
X107849500Y-116360490D01*
X107849500Y-119639508D01*
X107844766Y-119673442D01*
X107814885Y-119778462D01*
X107794357Y-119999999D01*
X107794357Y-120000000D01*
X107814884Y-120221535D01*
X107814885Y-120221537D01*
X107875769Y-120435523D01*
X107875775Y-120435538D01*
X107974938Y-120634683D01*
X107974943Y-120634691D01*
X108109020Y-120812238D01*
X108273437Y-120962123D01*
X108273439Y-120962125D01*
X108462595Y-121079245D01*
X108462596Y-121079245D01*
X108462599Y-121079247D01*
X108670060Y-121159618D01*
X108888757Y-121200500D01*
X108888759Y-121200500D01*
X109111241Y-121200500D01*
X109111243Y-121200500D01*
X109329940Y-121159618D01*
X109537401Y-121079247D01*
X109726562Y-120962124D01*
X109890981Y-120812236D01*
X110025058Y-120634689D01*
X110124229Y-120435528D01*
X110150734Y-120342371D01*
X110188013Y-120283278D01*
X110251323Y-120253721D01*
X110320562Y-120263083D01*
X110373749Y-120308393D01*
X110389266Y-120342372D01*
X110415769Y-120435523D01*
X110415775Y-120435538D01*
X110514938Y-120634683D01*
X110514943Y-120634691D01*
X110649020Y-120812238D01*
X110813437Y-120962123D01*
X110813439Y-120962125D01*
X111002595Y-121079245D01*
X111002596Y-121079245D01*
X111002599Y-121079247D01*
X111210060Y-121159618D01*
X111428757Y-121200500D01*
X111428759Y-121200500D01*
X111651241Y-121200500D01*
X111651243Y-121200500D01*
X111869940Y-121159618D01*
X112077401Y-121079247D01*
X112266562Y-120962124D01*
X112430981Y-120812236D01*
X112565058Y-120634689D01*
X112664229Y-120435528D01*
X112725115Y-120221536D01*
X112745643Y-120000000D01*
X112725115Y-119778464D01*
X112706600Y-119713389D01*
X113359500Y-119713389D01*
X113359500Y-120286610D01*
X113383087Y-120435538D01*
X113386598Y-120457701D01*
X113440127Y-120622445D01*
X113518768Y-120776788D01*
X113620586Y-120916928D01*
X113743072Y-121039414D01*
X113883212Y-121141232D01*
X114037555Y-121219873D01*
X114202299Y-121273402D01*
X114373389Y-121300500D01*
X114373390Y-121300500D01*
X114546610Y-121300500D01*
X114546611Y-121300500D01*
X114717701Y-121273402D01*
X114882445Y-121219873D01*
X115036788Y-121141232D01*
X115176928Y-121039414D01*
X115299414Y-120916928D01*
X115401232Y-120776788D01*
X115479873Y-120622445D01*
X115533402Y-120457701D01*
X115560500Y-120286611D01*
X115560500Y-119713389D01*
X115533402Y-119542299D01*
X115479873Y-119377555D01*
X115401232Y-119223212D01*
X115299414Y-119083072D01*
X115284817Y-119068475D01*
X115899500Y-119068475D01*
X115899500Y-120931517D01*
X115904348Y-120962124D01*
X115914354Y-121025304D01*
X115971950Y-121138342D01*
X115971952Y-121138344D01*
X115971954Y-121138347D01*
X116061652Y-121228045D01*
X116061654Y-121228046D01*
X116061658Y-121228050D01*
X116174694Y-121285645D01*
X116174698Y-121285647D01*
X116268475Y-121300499D01*
X116268481Y-121300500D01*
X117731518Y-121300499D01*
X117825304Y-121285646D01*
X117938342Y-121228050D01*
X118028050Y-121138342D01*
X118085646Y-121025304D01*
X118085646Y-121025302D01*
X118085647Y-121025301D01*
X118100499Y-120931524D01*
X118100500Y-120931519D01*
X118100499Y-119068482D01*
X118085646Y-118974696D01*
X118028050Y-118861658D01*
X118028046Y-118861654D01*
X118028045Y-118861652D01*
X117938347Y-118771954D01*
X117938344Y-118771952D01*
X117938342Y-118771950D01*
X117849332Y-118726597D01*
X117825301Y-118714352D01*
X117731524Y-118699500D01*
X116268482Y-118699500D01*
X116187519Y-118712323D01*
X116174696Y-118714354D01*
X116061658Y-118771950D01*
X116061657Y-118771951D01*
X116061652Y-118771954D01*
X115971954Y-118861652D01*
X115971951Y-118861657D01*
X115914352Y-118974698D01*
X115899500Y-119068475D01*
X115284817Y-119068475D01*
X115176928Y-118960586D01*
X115036788Y-118858768D01*
X114882445Y-118780127D01*
X114717701Y-118726598D01*
X114717699Y-118726597D01*
X114717698Y-118726597D01*
X114586271Y-118705781D01*
X114546611Y-118699500D01*
X114373389Y-118699500D01*
X114333728Y-118705781D01*
X114202302Y-118726597D01*
X114037552Y-118780128D01*
X113883211Y-118858768D01*
X113803256Y-118916859D01*
X113743072Y-118960586D01*
X113743070Y-118960588D01*
X113743069Y-118960588D01*
X113620588Y-119083069D01*
X113620588Y-119083070D01*
X113620586Y-119083072D01*
X113576859Y-119143256D01*
X113518768Y-119223211D01*
X113440128Y-119377552D01*
X113386597Y-119542302D01*
X113359500Y-119713389D01*
X112706600Y-119713389D01*
X112664229Y-119564472D01*
X112653190Y-119542302D01*
X112565061Y-119365316D01*
X112565056Y-119365308D01*
X112430979Y-119187761D01*
X112266562Y-119037876D01*
X112266560Y-119037874D01*
X112077404Y-118920754D01*
X112077398Y-118920752D01*
X111869940Y-118840382D01*
X111651243Y-118799500D01*
X111428757Y-118799500D01*
X111210060Y-118840382D01*
X111078864Y-118891207D01*
X111002601Y-118920752D01*
X111002595Y-118920754D01*
X110813439Y-119037874D01*
X110813437Y-119037876D01*
X110649020Y-119187761D01*
X110514943Y-119365308D01*
X110514938Y-119365316D01*
X110415775Y-119564461D01*
X110415770Y-119564474D01*
X110403421Y-119607877D01*
X110394422Y-119639508D01*
X110393766Y-119641812D01*
X110356487Y-119700905D01*
X110293177Y-119730462D01*
X110223937Y-119721100D01*
X110170751Y-119675790D01*
X110150504Y-119608918D01*
X110150500Y-119607877D01*
X110150500Y-116392122D01*
X110170185Y-116325083D01*
X110222989Y-116279328D01*
X110292147Y-116269384D01*
X110355703Y-116298409D01*
X110393477Y-116357187D01*
X110393766Y-116358188D01*
X110415769Y-116435523D01*
X110415775Y-116435538D01*
X110514938Y-116634683D01*
X110514943Y-116634691D01*
X110649020Y-116812238D01*
X110813437Y-116962123D01*
X110813439Y-116962125D01*
X111002595Y-117079245D01*
X111002596Y-117079245D01*
X111002599Y-117079247D01*
X111210060Y-117159618D01*
X111428757Y-117200500D01*
X111428759Y-117200500D01*
X111651241Y-117200500D01*
X111651243Y-117200500D01*
X111869940Y-117159618D01*
X112077401Y-117079247D01*
X112266562Y-116962124D01*
X112430981Y-116812236D01*
X112565058Y-116634689D01*
X112664229Y-116435528D01*
X112725115Y-116221536D01*
X112745643Y-116000000D01*
X112737945Y-115916929D01*
X112725115Y-115778464D01*
X112725114Y-115778462D01*
X112708793Y-115721100D01*
X112664229Y-115564472D01*
X112664224Y-115564461D01*
X112565061Y-115365316D01*
X112565056Y-115365308D01*
X112430979Y-115187761D01*
X112266562Y-115037876D01*
X112266560Y-115037874D01*
X112077404Y-114920754D01*
X112077398Y-114920752D01*
X111869940Y-114840382D01*
X111651243Y-114799500D01*
X111428757Y-114799500D01*
X111210060Y-114840382D01*
X111078864Y-114891207D01*
X111002601Y-114920752D01*
X111002595Y-114920754D01*
X110813439Y-115037874D01*
X110813437Y-115037876D01*
X110649020Y-115187761D01*
X110514943Y-115365308D01*
X110514938Y-115365316D01*
X110415775Y-115564461D01*
X110415770Y-115564474D01*
X110403421Y-115607877D01*
X110394422Y-115639508D01*
X110393766Y-115641812D01*
X110356487Y-115700905D01*
X110293177Y-115730462D01*
X110223937Y-115721100D01*
X110170751Y-115675790D01*
X110150504Y-115608918D01*
X110150500Y-115607877D01*
X110150500Y-114713389D01*
X113359500Y-114713389D01*
X113359500Y-115286611D01*
X113386598Y-115457701D01*
X113440127Y-115622445D01*
X113518768Y-115776788D01*
X113620586Y-115916928D01*
X113743072Y-116039414D01*
X113883212Y-116141232D01*
X114037555Y-116219873D01*
X114202299Y-116273402D01*
X114373389Y-116300500D01*
X114373390Y-116300500D01*
X114546610Y-116300500D01*
X114546611Y-116300500D01*
X114717701Y-116273402D01*
X114882445Y-116219873D01*
X115036788Y-116141232D01*
X115176928Y-116039414D01*
X115299414Y-115916928D01*
X115401232Y-115776788D01*
X115479873Y-115622445D01*
X115533402Y-115457701D01*
X115560500Y-115286611D01*
X115560500Y-114713389D01*
X115533402Y-114542299D01*
X115479873Y-114377555D01*
X115401232Y-114223212D01*
X115299414Y-114083072D01*
X115284817Y-114068475D01*
X115899500Y-114068475D01*
X115899500Y-115931517D01*
X115910292Y-115999657D01*
X115914354Y-116025304D01*
X115971950Y-116138342D01*
X115971952Y-116138344D01*
X115971954Y-116138347D01*
X116061652Y-116228045D01*
X116061654Y-116228046D01*
X116061658Y-116228050D01*
X116174694Y-116285645D01*
X116174698Y-116285647D01*
X116268475Y-116300499D01*
X116268481Y-116300500D01*
X117731518Y-116300499D01*
X117825304Y-116285646D01*
X117938342Y-116228050D01*
X118028050Y-116138342D01*
X118085646Y-116025304D01*
X118085646Y-116025302D01*
X118085647Y-116025301D01*
X118100499Y-115931524D01*
X118100500Y-115931519D01*
X118100499Y-114068482D01*
X118085646Y-113974696D01*
X118028050Y-113861658D01*
X118028046Y-113861654D01*
X118028045Y-113861652D01*
X117938347Y-113771954D01*
X117938344Y-113771952D01*
X117938342Y-113771950D01*
X117849332Y-113726597D01*
X117825301Y-113714352D01*
X117731524Y-113699500D01*
X116268482Y-113699500D01*
X116187519Y-113712323D01*
X116174696Y-113714354D01*
X116061658Y-113771950D01*
X116061657Y-113771951D01*
X116061652Y-113771954D01*
X115971954Y-113861652D01*
X115971951Y-113861657D01*
X115914352Y-113974698D01*
X115899500Y-114068475D01*
X115284817Y-114068475D01*
X115176928Y-113960586D01*
X115036788Y-113858768D01*
X114882445Y-113780127D01*
X114717701Y-113726598D01*
X114717699Y-113726597D01*
X114717698Y-113726597D01*
X114586271Y-113705781D01*
X114546611Y-113699500D01*
X114373389Y-113699500D01*
X114333728Y-113705781D01*
X114202302Y-113726597D01*
X114037552Y-113780128D01*
X113883211Y-113858768D01*
X113803256Y-113916859D01*
X113743072Y-113960586D01*
X113743070Y-113960588D01*
X113743069Y-113960588D01*
X113620588Y-114083069D01*
X113620588Y-114083070D01*
X113620586Y-114083072D01*
X113576859Y-114143256D01*
X113518768Y-114223211D01*
X113440128Y-114377552D01*
X113386597Y-114542302D01*
X113373607Y-114624322D01*
X113359500Y-114713389D01*
X110150500Y-114713389D01*
X110150500Y-108634999D01*
X118379722Y-108634999D01*
X118383596Y-108666904D01*
X118384500Y-108681851D01*
X118384500Y-108699071D01*
X118391289Y-108733207D01*
X118392767Y-108742445D01*
X118398763Y-108791819D01*
X118403906Y-108805381D01*
X118408847Y-108822594D01*
X118409498Y-108824741D01*
X118429525Y-108873092D01*
X118430905Y-108876571D01*
X118454780Y-108939522D01*
X118454780Y-108939523D01*
X118496363Y-108999766D01*
X118497415Y-109001315D01*
X118529722Y-109049666D01*
X118533278Y-109053999D01*
X118539470Y-109062218D01*
X118544518Y-109069532D01*
X118586142Y-109106407D01*
X118591581Y-109111526D01*
X118620330Y-109140275D01*
X118629760Y-109146576D01*
X118643095Y-109156862D01*
X118655219Y-109167602D01*
X118662760Y-109174283D01*
X118696435Y-109191957D01*
X118707669Y-109198633D01*
X118726873Y-109211465D01*
X118753621Y-109222544D01*
X118763776Y-109227300D01*
X118802635Y-109247696D01*
X118816344Y-109251075D01*
X118822434Y-109252576D01*
X118840213Y-109258412D01*
X118845254Y-109260500D01*
X118845256Y-109260501D01*
X118890912Y-109269583D01*
X118896320Y-109270787D01*
X118956015Y-109285500D01*
X118970931Y-109285500D01*
X119267448Y-109285500D01*
X119323742Y-109299015D01*
X119366198Y-109320647D01*
X119459975Y-109335499D01*
X119459981Y-109335500D01*
X120723018Y-109335499D01*
X120816804Y-109320646D01*
X120929842Y-109263050D01*
X121019550Y-109173342D01*
X121077146Y-109060304D01*
X121077146Y-109060302D01*
X121077147Y-109060301D01*
X121091999Y-108966524D01*
X121092000Y-108966519D01*
X121091999Y-108303482D01*
X121077146Y-108209696D01*
X121019550Y-108096658D01*
X121019546Y-108096654D01*
X121019545Y-108096652D01*
X120929847Y-108006954D01*
X120929844Y-108006952D01*
X120929842Y-108006950D01*
X120853017Y-107967805D01*
X120816801Y-107949352D01*
X120723024Y-107934500D01*
X119459982Y-107934500D01*
X119366194Y-107949354D01*
X119323743Y-107970985D01*
X119267448Y-107984500D01*
X119113985Y-107984500D01*
X118956015Y-107984500D01*
X118896354Y-107999203D01*
X118890890Y-108000419D01*
X118845259Y-108009497D01*
X118845253Y-108009499D01*
X118840194Y-108011594D01*
X118822444Y-108017420D01*
X118802637Y-108022303D01*
X118802634Y-108022304D01*
X118763776Y-108042698D01*
X118753608Y-108047460D01*
X118726872Y-108058534D01*
X118707677Y-108071360D01*
X118696418Y-108078051D01*
X118662761Y-108095716D01*
X118662754Y-108095721D01*
X118643094Y-108113138D01*
X118629768Y-108123418D01*
X118620332Y-108129723D01*
X118620324Y-108129729D01*
X118591583Y-108158469D01*
X118586135Y-108163598D01*
X118544517Y-108200469D01*
X118539465Y-108207788D01*
X118533284Y-108215991D01*
X118529730Y-108220322D01*
X118497424Y-108268670D01*
X118496374Y-108270216D01*
X118454778Y-108330478D01*
X118430911Y-108393410D01*
X118429533Y-108396886D01*
X118409497Y-108445261D01*
X118408843Y-108447416D01*
X118403908Y-108464613D01*
X118398763Y-108478179D01*
X118398762Y-108478183D01*
X118392767Y-108527555D01*
X118391289Y-108536793D01*
X118384500Y-108570928D01*
X118384500Y-108588148D01*
X118383596Y-108603094D01*
X118379722Y-108634999D01*
X110150500Y-108634999D01*
X110150500Y-107527914D01*
X110170185Y-107460875D01*
X110186819Y-107440233D01*
X112440233Y-105186819D01*
X112501556Y-105153334D01*
X112527914Y-105150500D01*
X115623345Y-105150500D01*
X115664503Y-105158194D01*
X115664545Y-105158049D01*
X115666110Y-105158494D01*
X115668138Y-105158873D01*
X115670060Y-105159618D01*
X115888757Y-105200500D01*
X115888759Y-105200500D01*
X115894392Y-105201553D01*
X115894056Y-105203349D01*
X115951245Y-105226047D01*
X115962564Y-105236064D01*
X116975966Y-106249466D01*
X117035036Y-106288933D01*
X117035039Y-106288936D01*
X117123450Y-106348011D01*
X117123453Y-106348013D01*
X117205393Y-106381953D01*
X117287334Y-106415895D01*
X117364453Y-106431234D01*
X117374845Y-106433772D01*
X117422431Y-106447598D01*
X117459306Y-106450500D01*
X117461308Y-106450500D01*
X117461309Y-106450500D01*
X117911309Y-106450500D01*
X118994300Y-106450500D01*
X119061339Y-106470185D01*
X119104785Y-106518205D01*
X119105853Y-106520302D01*
X119105854Y-106520304D01*
X119163450Y-106633342D01*
X119163452Y-106633344D01*
X119163454Y-106633347D01*
X119253152Y-106723045D01*
X119253154Y-106723046D01*
X119253158Y-106723050D01*
X119366194Y-106780645D01*
X119366198Y-106780647D01*
X119459975Y-106795499D01*
X119459981Y-106795500D01*
X119481397Y-106795499D01*
X119548435Y-106815181D01*
X119550288Y-106816395D01*
X119664953Y-106893012D01*
X119828834Y-106960894D01*
X119828838Y-106960894D01*
X119828839Y-106960895D01*
X120002805Y-106995500D01*
X120002808Y-106995500D01*
X120180193Y-106995500D01*
X120180194Y-106995499D01*
X120354166Y-106960894D01*
X120518046Y-106893012D01*
X120632708Y-106816396D01*
X120699386Y-106795519D01*
X120701599Y-106795499D01*
X120723017Y-106795499D01*
X120723018Y-106795499D01*
X120816804Y-106780646D01*
X120929842Y-106723050D01*
X121019550Y-106633342D01*
X121077146Y-106520304D01*
X121077146Y-106520302D01*
X121077147Y-106520301D01*
X121091088Y-106432278D01*
X121092000Y-106426519D01*
X121091999Y-105763482D01*
X121077146Y-105669696D01*
X121019550Y-105556658D01*
X121019546Y-105556654D01*
X121019545Y-105556652D01*
X120922942Y-105460049D01*
X120925296Y-105457694D01*
X120893067Y-105415909D01*
X120887080Y-105346297D01*
X120919679Y-105284498D01*
X120978939Y-105250511D01*
X120978984Y-105250500D01*
X120978985Y-105250500D01*
X121132365Y-105212696D01*
X121272240Y-105139283D01*
X121390483Y-105034530D01*
X121480220Y-104904523D01*
X121536237Y-104756818D01*
X121555278Y-104600000D01*
X121552404Y-104576326D01*
X121536237Y-104443181D01*
X121503244Y-104356187D01*
X121480220Y-104295477D01*
X121390483Y-104165470D01*
X121272240Y-104060717D01*
X121272238Y-104060716D01*
X121272237Y-104060715D01*
X121132365Y-103987303D01*
X120978986Y-103949500D01*
X120978985Y-103949500D01*
X120821015Y-103949500D01*
X120821014Y-103949500D01*
X120667636Y-103987303D01*
X120621763Y-104011379D01*
X120576194Y-104035296D01*
X120518569Y-104049500D01*
X120424025Y-104049500D01*
X120319017Y-104077637D01*
X120284014Y-104087016D01*
X120158486Y-104159489D01*
X120158483Y-104159491D01*
X119704793Y-104613181D01*
X119643470Y-104646666D01*
X119617112Y-104649500D01*
X117974362Y-104649500D01*
X117907323Y-104629815D01*
X117886681Y-104613181D01*
X117230372Y-103956872D01*
X117196887Y-103895549D01*
X117194582Y-103880632D01*
X117185115Y-103778464D01*
X117185114Y-103778462D01*
X117177764Y-103752630D01*
X117124229Y-103564472D01*
X117124224Y-103564461D01*
X117025061Y-103365316D01*
X117025056Y-103365308D01*
X116890979Y-103187761D01*
X116726562Y-103037876D01*
X116726560Y-103037874D01*
X116537404Y-102920754D01*
X116537398Y-102920752D01*
X116329940Y-102840382D01*
X116111243Y-102799500D01*
X115888757Y-102799500D01*
X115742959Y-102826754D01*
X115670059Y-102840382D01*
X115669280Y-102840684D01*
X115668138Y-102841126D01*
X115666110Y-102841505D01*
X115664545Y-102841951D01*
X115664503Y-102841805D01*
X115623345Y-102849500D01*
X112376655Y-102849500D01*
X112335496Y-102841805D01*
X112335455Y-102841951D01*
X112333889Y-102841505D01*
X112331861Y-102841126D01*
X112329940Y-102840382D01*
X112111243Y-102799500D01*
X111888757Y-102799500D01*
X111670060Y-102840382D01*
X111538864Y-102891207D01*
X111462601Y-102920752D01*
X111462595Y-102920754D01*
X111273439Y-103037874D01*
X111273437Y-103037876D01*
X111109020Y-103187761D01*
X110974943Y-103365309D01*
X110951527Y-103412331D01*
X110928210Y-103444736D01*
X108122447Y-106250498D01*
X108094523Y-106288933D01*
X108044586Y-106357666D01*
X108030295Y-106377336D01*
X108016004Y-106397005D01*
X107933788Y-106558360D01*
X107933787Y-106558363D01*
X107877829Y-106730589D01*
X107849499Y-106909455D01*
X107849499Y-107095656D01*
X107849500Y-107095681D01*
X107849500Y-115639508D01*
X107844766Y-115673442D01*
X107814885Y-115778462D01*
X107794357Y-115999999D01*
X106745643Y-115999999D01*
X106737945Y-115916929D01*
X106725115Y-115778464D01*
X106725114Y-115778462D01*
X106708793Y-115721100D01*
X106664229Y-115564472D01*
X106664224Y-115564461D01*
X106565061Y-115365316D01*
X106565056Y-115365308D01*
X106430979Y-115187761D01*
X106266562Y-115037876D01*
X106266560Y-115037874D01*
X106077404Y-114920754D01*
X106077398Y-114920752D01*
X105869940Y-114840382D01*
X105651243Y-114799500D01*
X105428757Y-114799500D01*
X105210060Y-114840382D01*
X105078864Y-114891207D01*
X105002601Y-114920752D01*
X105002595Y-114920754D01*
X104813439Y-115037874D01*
X104813437Y-115037876D01*
X104649020Y-115187761D01*
X104514943Y-115365308D01*
X104514938Y-115365316D01*
X104415775Y-115564461D01*
X104415769Y-115564476D01*
X104354885Y-115778462D01*
X104354884Y-115778464D01*
X104334357Y-115999999D01*
X100200500Y-115999999D01*
X100200500Y-105002706D01*
X100200618Y-104997297D01*
X100202241Y-104960118D01*
X100218528Y-104587080D01*
X100219468Y-104576347D01*
X100272709Y-104171938D01*
X100274582Y-104161308D01*
X100362870Y-103763068D01*
X100365668Y-103752630D01*
X100424994Y-103564472D01*
X100488319Y-103363629D01*
X100492016Y-103353473D01*
X100522762Y-103279247D01*
X100648111Y-102976627D01*
X100652669Y-102966853D01*
X100841025Y-102605024D01*
X100846407Y-102595703D01*
X101065574Y-102251680D01*
X101071765Y-102242837D01*
X101104636Y-102199999D01*
X120499357Y-102199999D01*
X120499357Y-102200000D01*
X120519884Y-102421535D01*
X120519885Y-102421537D01*
X120580769Y-102635523D01*
X120580775Y-102635538D01*
X120679938Y-102834683D01*
X120679943Y-102834691D01*
X120814020Y-103012238D01*
X120978437Y-103162123D01*
X120978439Y-103162125D01*
X121167595Y-103279245D01*
X121167596Y-103279245D01*
X121167599Y-103279247D01*
X121375060Y-103359618D01*
X121593757Y-103400500D01*
X121593759Y-103400500D01*
X121816241Y-103400500D01*
X121816243Y-103400500D01*
X122034940Y-103359618D01*
X122242401Y-103279247D01*
X122431562Y-103162124D01*
X122595981Y-103012236D01*
X122730058Y-102834689D01*
X122829229Y-102635528D01*
X122890115Y-102421536D01*
X122910643Y-102200000D01*
X122890115Y-101978464D01*
X122829229Y-101764472D01*
X122765281Y-101636047D01*
X122730061Y-101565316D01*
X122730056Y-101565308D01*
X122595979Y-101387761D01*
X122431562Y-101237876D01*
X122431560Y-101237874D01*
X122242404Y-101120754D01*
X122242398Y-101120752D01*
X122034940Y-101040382D01*
X121816243Y-100999500D01*
X121593757Y-100999500D01*
X121375060Y-101040382D01*
X121243864Y-101091207D01*
X121167601Y-101120752D01*
X121167595Y-101120754D01*
X120978439Y-101237874D01*
X120978437Y-101237876D01*
X120814020Y-101387761D01*
X120679943Y-101565308D01*
X120679938Y-101565316D01*
X120580775Y-101764461D01*
X120580769Y-101764476D01*
X120519885Y-101978462D01*
X120519884Y-101978464D01*
X120499357Y-102199999D01*
X101104636Y-102199999D01*
X101320083Y-101919224D01*
X101327021Y-101910955D01*
X101602594Y-101610220D01*
X101610220Y-101602594D01*
X101910955Y-101327021D01*
X101919224Y-101320083D01*
X102242837Y-101071765D01*
X102251680Y-101065574D01*
X102595703Y-100846407D01*
X102605024Y-100841025D01*
X102966853Y-100652669D01*
X102976627Y-100648111D01*
X103353482Y-100492012D01*
X103363629Y-100488319D01*
X103752639Y-100365665D01*
X103763068Y-100362870D01*
X104161308Y-100274582D01*
X104171938Y-100272709D01*
X104576347Y-100219468D01*
X104587080Y-100218528D01*
X104997297Y-100200617D01*
X105002706Y-100200500D01*
X105039882Y-100200500D01*
X124960118Y-100200500D01*
X124997294Y-100200500D01*
X125002702Y-100200617D01*
G37*
%TD.AperFunction*%
%TD*%
M02*
