;TYPE=PLATED
;Layer: PTH_Through
;EasyEDA Pro Client v2.2.27.1, 2024-09-15 10:59:51
;Gerber Generator version 0.3
M48
; DRILL file {KiCad 8.0.8} date 2025-02-03T12:57:38+0800
; FORMAT={-:-/ absolute / inch / decimal}
; #@! TF.CreationDate,2025-02-03T12:57:38+08:00
; #@! TF.GenerationSoftware,Kicad,Pcbnew,8.0.8
; #@! TF.FileFunction,Plated,1,2,PTH
FMAT,2
INCH
; #@! TA.AperFunction,Plated,PTH,ViaDrill
T1C0.0120
; #@! TA.AperFunction,Plated,PTH,ViaDrill
T2C0.0240
; #@! TA.AperFunction,Plated,PTH,ComponentDrill
T3C0.0350
; #@! TA.AperFunction,Plated,PTH,ComponentDrill
T4C0.0512
%
G90
G05
T1
X5.7287Y-4.3626
X5.7295Y-4.107
X5.8025Y-4.272
X5.9485Y-4.482
X5.9485Y-4.67
X5.9675Y-3.67
X5.9675Y-4.17
X6.0205Y-4.225
X6.0995Y-3.984
X6.1505Y-4.61
X6.1525Y-4.482
X6.1645Y-4.319
X6.1645Y-4.368
X6.1815Y-4.156
X6.1995Y-3.952
X6.2249Y-4.1916
X6.3775Y-3.815
X6.4645Y-3.682
X6.4798Y-3.9747
X6.4805Y-4.124
X6.5065Y-4.073
T2
X6.2815Y-4.014
X6.2815Y-4.102
X6.3275Y-4.06
X6.3685Y-4.014
X6.3685Y-4.102
T3
X6.5775Y-4.035
X6.5775Y-4.135
X6.5775Y-4.235
X6.5775Y-4.335
X6.5775Y-4.435
T4
X5.0275Y-4.36
X5.2275Y-4.36
M30
