G04 Layer: TopSolderMaskLayer*
G04 EasyEDA Pro v2.2.27.1, 2024-09-15 10:59:50*
G04 Gerber Generator version 0.3*
G04 Scale: 100 percent, Rotated: No, Reflected: No*
G04 Dimensions in millimeters*
G04 Leading zeros omitted, absolute positions, 3 integers and 5 decimals*
%TF.GenerationSoftware,KiCad,Pcbnew,8.0.8*%
%TF.CreationDate,2025-02-03T12:57:40+08:00*%
%TF.ProjectId,vibration_detection_v02,76696272-6174-4696-9f6e-5f6465746563,rev?*%
%TF.SameCoordinates,Original*%
%TF.FileFunction,Soldermask,Top*%
%TF.FilePolarity,Negative*%
%FSLAX46Y46*%
G04 Gerber Fmt 4.6, Leading zero omitted, Abs format (unit mm)*
G04 Created by KiCad (PCBNEW 8.0.8) date 2025-02-03 12:57:40*
%MOMM*%
%LPD*%
G01*
G04 APERTURE LIST*
G04 Aperture macros list*
%AMRoundRect*
0 Rectangle with rounded corners*
0 $1 Rounding radius*
0 $2 $3 $4 $5 $6 $7 $8 $9 X,Y pos of 4 corners*
0 Add a 4 corners polygon primitive as box body*
4,1,4,$2,$3,$4,$5,$6,$7,$8,$9,$2,$3,0*
0 Add four circle primitives for the rounded corners*
1,1,$1+$1,$2,$3*
1,1,$1+$1,$4,$5*
1,1,$1+$1,$6,$7*
1,1,$1+$1,$8,$9*
0 Add four rect primitives between the rounded corners*
20,1,$1+$1,$2,$3,$4,$5,0*
20,1,$1+$1,$4,$5,$6,$7,0*
20,1,$1+$1,$6,$7,$8,$9,0*
20,1,$1+$1,$8,$9,$2,$3,0*%
G04 Aperture macros list end*
%ADD10RoundRect,0.050800X0.450000X-0.400000X0.450000X0.400000X-0.450000X0.400000X-0.450000X-0.400000X0*%
%ADD11RoundRect,0.050800X-0.400000X-0.450000X0.400000X-0.450000X0.400000X0.450000X-0.400000X0.450000X0*%
%ADD12RoundRect,0.050800X0.400000X0.450000X-0.400000X0.450000X-0.400000X-0.450000X0.400000X-0.450000X0*%
%ADD13RoundRect,0.050800X-0.450000X0.400000X-0.450000X-0.400000X0.450000X-0.400000X0.450000X0.400000X0*%
%ADD14RoundRect,0.050800X-1.000000X-0.900000X1.000000X-0.900000X1.000000X0.900000X-1.000000X0.900000X0*%
%ADD15RoundRect,0.050800X0.750000X0.450000X-0.750000X0.450000X-0.750000X-0.450000X0.750000X-0.450000X0*%
%ADD16RoundRect,0.050800X0.787400X-0.787400X0.787400X0.787400X-0.787400X0.787400X-0.787400X-0.787400X0*%
%ADD17C,1.676400*%
%ADD18C,2.101600*%
%ADD19O,2.001600X0.801600*%
%ADD20O,2.201600X0.801600*%
%ADD21O,3.601590X2.101600*%
%ADD22RoundRect,0.050800X0.432005X-0.403240X0.432005X0.403240X-0.432005X0.403240X-0.432005X-0.403240X0*%
%ADD23RoundRect,0.050800X-0.432005X0.403240X-0.432005X-0.403240X0.432005X-0.403240X0.432005X0.403240X0*%
%ADD24RoundRect,0.050800X-0.403240X-0.432005X0.403240X-0.432005X0.403240X0.432005X-0.403240X0.432005X0*%
%ADD25RoundRect,0.050800X0.140005X0.250000X-0.140005X0.250000X-0.140005X-0.250000X0.140005X-0.250000X0*%
%ADD26RoundRect,0.050800X0.250000X0.140005X-0.250000X0.140005X-0.250000X-0.140005X0.250000X-0.140005X0*%
%ADD27RoundRect,0.050800X-0.140005X0.375005X-0.140005X-0.375005X0.140005X-0.375005X0.140005X0.375005X0*%
%ADD28RoundRect,0.050800X-0.375005X0.140005X-0.375005X-0.140005X0.375005X-0.140005X0.375005X0.140005X0*%
%ADD29RoundRect,0.050800X-1.725040X1.725040X-1.725040X-1.725040X1.725040X-1.725040X1.725040X1.725040X0*%
%ADD30RoundRect,0.050800X-0.300000X0.550000X-0.300000X-0.550000X0.300000X-0.550000X0.300000X0.550000X0*%
%ADD31RoundRect,0.050010X-0.300000X-0.500000X0.300000X-0.500000X0.300000X0.500000X-0.300000X0.500000X0*%
%ADD32RoundRect,0.050010X0.300000X0.500000X-0.300000X0.500000X-0.300000X-0.500000X0.300000X-0.500000X0*%
%ADD33O,2.051810X0.670000*%
G04 APERTURE END LIST*
D10*
%TO.C,C1*%
X155003500Y-115253900D03*
X155003500Y-113854100D03*
%TD*%
%TO.C,C2*%
X152463500Y-115253900D03*
X152463500Y-113854100D03*
%TD*%
%TO.C,C3*%
X149855200Y-115253900D03*
X149855200Y-113854100D03*
%TD*%
D11*
%TO.C,C4*%
X158113600Y-110744000D03*
X159513400Y-110744000D03*
%TD*%
%TO.C,C5*%
X158113600Y-108204000D03*
X159513400Y-108204000D03*
%TD*%
D12*
%TO.C,C6*%
X164593400Y-98043920D03*
X163193600Y-98043920D03*
%TD*%
D10*
%TO.C,C7*%
X165163500Y-95568900D03*
X165163500Y-94169100D03*
%TD*%
D11*
%TO.C,C8*%
X159383600Y-95548880D03*
X160783400Y-95548880D03*
%TD*%
%TO.C,C9*%
X159383600Y-98044000D03*
X160783400Y-98044000D03*
%TD*%
D10*
%TO.C,C10*%
X137858500Y-105728900D03*
X137858500Y-104329100D03*
%TD*%
D13*
%TO.C,C11*%
X144208500Y-104329100D03*
X144208500Y-105728900D03*
%TD*%
D10*
%TO.C,C12*%
X137858500Y-115888900D03*
X137858500Y-114489100D03*
%TD*%
D13*
%TO.C,C13*%
X144208500Y-114489100D03*
X144208500Y-115888900D03*
%TD*%
D10*
%TO.C,C14*%
X144208500Y-110808900D03*
X144208500Y-109409100D03*
%TD*%
%TO.C,C15*%
X137858500Y-110808900D03*
X137858500Y-109409100D03*
%TD*%
D12*
%TO.C,C23*%
X149353400Y-104394000D03*
X147953600Y-104394000D03*
%TD*%
%TO.C,C24*%
X149353400Y-106934000D03*
X147953600Y-106934000D03*
%TD*%
D13*
%TO.C,C25*%
X128333500Y-97979100D03*
X128333500Y-99378900D03*
%TD*%
%TO.C,C26*%
X138493500Y-97979100D03*
X138493500Y-99378900D03*
%TD*%
D14*
%TO.C,D2*%
X131603500Y-103759000D03*
X127603500Y-103759000D03*
%TD*%
D15*
%TO.C,D3*%
X136513550Y-97428990D03*
X136513550Y-99929010D03*
X130313560Y-99928980D03*
X130313560Y-97428960D03*
%TD*%
D16*
%TO.C,J1*%
X167068500Y-112649000D03*
D17*
X167068500Y-110109000D03*
X167068500Y-107569000D03*
X167068500Y-105029000D03*
X167068500Y-102489000D03*
%TD*%
D18*
%TO.C,P1*%
X132778500Y-110744000D03*
X127698500Y-110744000D03*
%TD*%
D19*
%TO.C,Q2*%
X144188180Y-98910140D03*
X144188180Y-95907860D03*
D20*
X144089120Y-97409000D03*
D21*
X141688820Y-97409000D03*
%TD*%
D22*
%TO.C,R1*%
X167068500Y-99421420D03*
X167068500Y-97914940D03*
%TD*%
%TO.C,R2*%
X156273500Y-108322240D03*
X156273500Y-106815760D03*
%TD*%
D23*
%TO.C,R3*%
X163258500Y-94171390D03*
X163258500Y-95677860D03*
%TD*%
%TO.C,R4*%
X154368500Y-94115760D03*
X154368500Y-95622240D03*
%TD*%
D22*
%TO.C,R5*%
X152463500Y-95622240D03*
X152463500Y-94115760D03*
%TD*%
D23*
%TO.C,R6*%
X156273500Y-94115760D03*
X156273500Y-95622240D03*
%TD*%
D22*
%TO.C,R7*%
X150558500Y-95622240D03*
X150558500Y-94115760D03*
%TD*%
D24*
%TO.C,R8*%
X142303500Y-101219000D03*
X143809970Y-101219000D03*
%TD*%
D22*
%TO.C,R9*%
X148653500Y-95622240D03*
X148653500Y-94115760D03*
%TD*%
%TO.C,R10*%
X146748500Y-95622240D03*
X146748500Y-94115760D03*
%TD*%
D25*
%TO.C,U1*%
X153098500Y-109474000D03*
X152598500Y-109474000D03*
X152098480Y-109474000D03*
X151598480Y-109474000D03*
D26*
X151473460Y-110098940D03*
X151473460Y-110598970D03*
D25*
X151598480Y-111223910D03*
X152098480Y-111223910D03*
X152598500Y-111223910D03*
X153098500Y-111223910D03*
D26*
X153223520Y-110598970D03*
X153223520Y-110098940D03*
%TD*%
D27*
%TO.C,U2*%
X162468510Y-100634010D03*
X161968510Y-100634010D03*
X161468510Y-100634010D03*
X160968510Y-100634010D03*
X160468490Y-100634010D03*
X159968490Y-100634010D03*
X159468490Y-100634010D03*
X158968490Y-100634010D03*
D28*
X158228460Y-101373940D03*
X158228340Y-101873810D03*
X158228460Y-102373940D03*
X158228340Y-102873810D03*
X158228440Y-103373940D03*
X158228310Y-103873810D03*
X158228440Y-104373930D03*
X158228310Y-104873810D03*
D27*
X158968390Y-105613990D03*
X159468640Y-105613990D03*
X159968390Y-105613990D03*
X160468640Y-105613990D03*
X160968360Y-105613990D03*
X161468610Y-105613990D03*
X161968360Y-105613990D03*
X162468610Y-105613990D03*
D28*
X163208440Y-104874060D03*
X163208560Y-104373930D03*
X163208440Y-103874060D03*
X163208560Y-103373940D03*
X163208410Y-102874060D03*
X163208540Y-102373940D03*
X163208410Y-101874070D03*
X163208540Y-101373940D03*
D29*
X160718500Y-103124000D03*
%TD*%
D30*
%TO.C,U3*%
X140083520Y-106328870D03*
X141033480Y-106328920D03*
X141983440Y-106328970D03*
X141983590Y-103728980D03*
X140083670Y-103728880D03*
%TD*%
D31*
%TO.C,U4*%
X140083490Y-108988780D03*
X141983490Y-108988780D03*
X140083570Y-111188930D03*
X141983410Y-111188960D03*
X141033500Y-111188960D03*
%TD*%
D32*
%TO.C,U5*%
X141983510Y-116289100D03*
X140083520Y-116289100D03*
X141983440Y-114088950D03*
X140083590Y-114088930D03*
X141033500Y-114088930D03*
%TD*%
D33*
%TO.C,U7*%
X147853400Y-98044000D03*
X147853400Y-99314000D03*
X147853400Y-100584000D03*
X147853400Y-101854000D03*
X153263600Y-98044000D03*
X153263600Y-99314000D03*
X153263600Y-100584000D03*
X153263600Y-101854000D03*
%TD*%
M02*
