G04 Layer: BottomLayer*
G04 EasyEDA Pro v2.2.27.1, 2024-09-15 10:59:50*
G04 Gerber Generator version 0.3*
G04 Scale: 100 percent, Rotated: No, Reflected: No*
G04 Dimensions in millimeters*
G04 Leading zeros omitted, absolute positions, 3 integers and 5 decimals*
%TF.GenerationSoftware,KiCad,Pcbnew,8.0.8*%
%TF.CreationDate,2025-02-03T12:57:40+08:00*%
%TF.ProjectId,vibration_detection_v02,76696272-6174-4696-9f6e-5f6465746563,rev?*%
%TF.SameCoordinates,Original*%
%TF.FileFunction,Copper,L2,Bot*%
%TF.FilePolarity,Positive*%
%FSLAX46Y46*%
G04 Gerber Fmt 4.6, Leading zero omitted, Abs format (unit mm)*
G04 Created by KiCad (PCBNEW 8.0.8) date 2025-02-03 12:57:40*
%MOMM*%
%LPD*%
G01*
G04 APERTURE LIST*
%TA.AperFunction,ComponentPad*%
%ADD10R,1.574800X1.574800*%
%TD*%
%TA.AperFunction,ComponentPad*%
%ADD11C,1.574800*%
%TD*%
%TA.AperFunction,ComponentPad*%
%ADD12C,2.000000*%
%TD*%
%TA.AperFunction,ViaPad*%
%ADD13C,1.016000*%
%TD*%
%TA.AperFunction,ViaPad*%
%ADD14C,0.609600*%
%TD*%
%TA.AperFunction,Conductor*%
%ADD15C,0.279400*%
%TD*%
%TA.AperFunction,Conductor*%
%ADD16C,0.762000*%
%TD*%
%TA.AperFunction,Conductor*%
%ADD17C,0.609600*%
%TD*%
G04 APERTURE END LIST*
%TA.AperFunction,Conductor*%
%TO.N,GND*%
G36*
X158965900Y-104851200D02*
G01*
X162471100Y-104851200D01*
X162471100Y-101371400D01*
X158965900Y-101371400D01*
X158965900Y-104851200D01*
G37*
%TD.AperFunction*%
%TD*%
D10*
%TO.P,J1,1*%
%TO.N,RESET*%
X167068500Y-112649000D03*
D11*
%TO.P,J1,2*%
%TO.N,+5V*%
X167068500Y-110109000D03*
%TO.P,J1,3*%
%TO.N,SWDIO*%
X167068500Y-107569000D03*
%TO.P,J1,4*%
%TO.N,SWCLK*%
X167068500Y-105029000D03*
%TO.P,J1,5*%
%TO.N,GND*%
X167068500Y-102489000D03*
%TD*%
D12*
%TO.P,P1,1*%
%TO.N,LOOP+*%
X132778500Y-110744000D03*
%TO.P,P1,2*%
%TO.N,LOOP-*%
X127698500Y-110744000D03*
%TD*%
D13*
%TO.N,GND*%
X160718500Y-103124000D03*
D14*
%TO.N,RESET*%
X164198300Y-93522800D03*
%TO.N,INT2*%
X156578300Y-110947200D03*
%TO.N,+5V*%
X147383500Y-108508800D03*
%TO.N,GND*%
X145509550Y-110808900D03*
X145529300Y-104317800D03*
X164586350Y-100957950D03*
X158113600Y-106465500D03*
%TO.N,SPI1_SCK*%
X157467300Y-100380800D03*
X157010100Y-105562400D03*
%TO.N,SPI1_MOSI*%
X151574500Y-105918000D03*
X152920700Y-107315000D03*
%TO.N,INT1*%
X156578300Y-109702600D03*
X164604700Y-104749600D03*
%TO.N,INT2*%
X165265100Y-103454200D03*
%TO.N,VDDA*%
X151091900Y-118618000D03*
%TO.N,VDD*%
X156273500Y-113842800D03*
X156222700Y-117094000D03*
%TO.N,VDDA*%
X151091900Y-113842800D03*
D13*
%TO.N,GND*%
X159550100Y-104190800D03*
X161759900Y-104190800D03*
X161759900Y-101955600D03*
X159550100Y-101955600D03*
D14*
%TO.N,NetR5_2*%
X154927300Y-101193600D03*
X151574500Y-93218000D03*
%TO.N,RESET*%
X161988500Y-96901000D03*
%TD*%
D15*
%TO.N,RESET*%
X164198300Y-94132400D02*
X164223700Y-94157800D01*
X164198300Y-94132400D02*
X164198300Y-93522800D01*
D16*
%TO.N,+5V*%
X165442900Y-110109000D02*
X167068500Y-110109000D01*
X151142700Y-112268000D02*
X163283900Y-112268000D01*
X163283900Y-112268000D02*
X165442900Y-110109000D01*
X147383500Y-108508800D02*
X151142700Y-112268000D01*
D15*
%TO.N,INT2*%
X156578300Y-110947200D02*
X159778700Y-110947200D01*
D17*
%TO.N,GND*%
X145509550Y-110808900D02*
X145529300Y-110789150D01*
X145529300Y-110789150D02*
X145529300Y-104317800D01*
D16*
X161963100Y-101752400D02*
X163791900Y-101752400D01*
X163791900Y-101752400D02*
X164586350Y-100957950D01*
X161759900Y-101955600D02*
X161963100Y-101752400D01*
X158113600Y-106465500D02*
X158113600Y-105703500D01*
X159550100Y-104267000D02*
X159550100Y-104190800D01*
X158113600Y-105703500D02*
X159550100Y-104267000D01*
%TO.N,VDD*%
X156248100Y-117068600D02*
X156248100Y-113842800D01*
D15*
%TO.N,SPI1_SCK*%
X157010100Y-100838000D02*
X157467300Y-100380800D01*
X157010100Y-105562400D02*
X157010100Y-100838000D01*
%TO.N,SPI1_MOSI*%
X151574500Y-105968800D02*
X152920700Y-107315000D01*
X151574500Y-105968800D02*
X151574500Y-105918000D01*
%TO.N,INT1*%
X156578300Y-109702600D02*
X159880300Y-109702600D01*
X159880300Y-109702600D02*
X164541520Y-105041380D01*
X164541520Y-105041380D02*
X164541520Y-104812780D01*
X164541520Y-104812780D02*
X164604700Y-104749600D01*
%TO.N,INT2*%
X159778700Y-110947200D02*
X165468300Y-105257600D01*
X165265100Y-103543550D02*
X165265100Y-103454200D01*
X165265100Y-103543550D02*
X165468300Y-103746750D01*
X165468300Y-105257600D02*
X165468300Y-103746750D01*
D16*
%TO.N,VDDA*%
X151091900Y-118618000D02*
X151091900Y-113842800D01*
%TO.N,VDD*%
X156222700Y-117094000D02*
X156248100Y-117068600D01*
D17*
%TO.N,NetR5_2*%
X154927300Y-101193600D02*
X154927300Y-96570800D01*
X151574500Y-93218000D02*
X154927300Y-96570800D01*
D15*
%TO.N,RESET*%
X164160520Y-94220980D02*
X164223700Y-94157800D01*
X161988500Y-96901000D02*
X164160520Y-94728980D01*
X164160520Y-94728980D02*
X164160520Y-94220980D01*
%TD*%
M02*
