M48
; DRILL file {KiCad 8.0.5} date 2024-09-28T17:02:42+0800
; FORMAT={-:-/ absolute / inch / decimal}
; #@! TF.CreationDate,2024-09-28T17:02:42+08:00
; #@! TF.GenerationSoftware,Kicad,Pcbnew,8.0.5
; #@! TF.FileFunction,Plated,1,2,PTH
FMAT,2
INCH
; #@! TA.AperFunction,Plated,PTH,ViaDrill
T1C0.0118
; #@! TA.AperFunction,Plated,PTH,ComponentDrill
T2C0.0394
%
G90
G05
T1
X2.6431Y-3.7095
X2.6431Y-3.8595
X2.6431Y-4.0095
X2.7931Y-3.8595
X2.7931Y-4.0095
X2.9431Y-4.0095
X2.9531Y-3.8829
X3.0596Y-3.2615
X3.0596Y-3.3282
X3.0633Y-3.8186
X3.0832Y-3.5546
X3.0832Y-3.5961
X3.0832Y-3.6377
X3.0924Y-3.7232
X3.0924Y-3.7626
X3.0931Y-3.4095
X3.0931Y-4.0095
X3.1012Y-3.3282
X3.1049Y-3.8186
X3.1318Y-3.7232
X3.1318Y-3.7626
X3.1364Y-3.5939
X3.1364Y-3.6355
X3.1364Y-3.6771
X3.1428Y-3.3282
X3.1465Y-3.8186
X3.1659Y-3.4721
X3.1694Y-3.4072
X3.1843Y-3.3282
X3.211Y-3.4072
X3.2259Y-3.3282
X3.2431Y-4.0095
X3.2525Y-3.4072
X3.2675Y-3.3282
X3.2855Y-3.3658
X3.3091Y-3.3282
X3.3271Y-3.3658
X3.3507Y-3.3282
X3.3687Y-3.3658
X3.3922Y-3.3282
X3.3931Y-3.4095
X3.3931Y-4.0095
X3.4103Y-3.3658
X3.4338Y-3.3282
X3.4401Y-3.9189
X3.4481Y-3.8069
X3.4518Y-3.3658
X3.5431Y-3.4095
X3.5431Y-3.7095
X3.5431Y-3.8595
X3.5431Y-4.0095
X3.6931Y-3.4095
X3.6931Y-4.0095
X3.8254Y-3.2615
X3.8254Y-3.3206
X3.8431Y-3.4095
X3.8431Y-3.5595
X3.8431Y-3.7095
X3.8431Y-3.8595
X3.8431Y-4.0095
X3.8702Y-3.3206
X3.9149Y-3.3206
X3.9597Y-3.3206
X3.9931Y-3.8595
X3.9931Y-4.0095
X4.0045Y-3.3206
X4.038Y-3.2989
X4.1431Y-3.8595
X4.1431Y-4.0095
X4.1611Y-3.1194
X4.1611Y-3.2054
X4.1611Y-3.2514
X4.1991Y-3.1178
X4.2341Y-3.1178
X4.2427Y-3.2074
X4.2931Y-3.2595
X4.2931Y-3.8595
X4.2931Y-4.0095
X4.4431Y-3.2595
X4.4431Y-3.8595
X4.4431Y-4.0095
X4.5931Y-3.8595
X4.5931Y-4.0095
X4.6605Y-3.7615
X4.6659Y-3.419
X4.7132Y-3.4392
X4.7132Y-3.4839
X4.7289Y-3.5548
X4.7289Y-3.5996
X4.7289Y-3.6444
X4.7289Y-3.6892
X4.7289Y-3.7339
X4.7431Y-3.8595
X4.7431Y-4.0095
T2
X3.564Y-3.1898
X3.564Y-3.2898
X3.6573Y-3.6989
X3.6573Y-3.7989
X3.6573Y-3.8989
X3.664Y-3.1898
X3.664Y-3.2898
X3.7573Y-3.6989
X3.7573Y-3.7989
X3.7573Y-3.8989
X3.764Y-3.1898
X3.764Y-3.2898
X4.5903Y-3.1477
X4.5903Y-3.2477
X4.5903Y-3.3477
X4.6903Y-3.1477
X4.6903Y-3.2477
X4.6903Y-3.3477
M30
