%TF.GenerationSoftware,KiCad,Pcbnew,8.0.5*%
%TF.CreationDate,2024-09-28T17:02:44+08:00*%
%TF.ProjectId,DCDC_power_24V-12V-5V,44434443-5f70-46f7-9765-725f3234562d,rev?*%
%TF.SameCoordinates,Original*%
%TF.FileFunction,Paste,Top*%
%TF.FilePolarity,Positive*%
%FSLAX46Y46*%
G04 Gerber Fmt 4.6, Leading zero omitted, Abs format (unit mm)*
G04 Created by KiCad (PCBNEW 8.0.5) date 2024-09-28 17:02:44*
%MOMM*%
%LPD*%
G01*
G04 APERTURE LIST*
G04 Aperture macros list*
%AMRoundRect*
0 Rectangle with rounded corners*
0 $1 Rounding radius*
0 $2 $3 $4 $5 $6 $7 $8 $9 X,Y pos of 4 corners*
0 Add a 4 corners polygon primitive as box body*
4,1,4,$2,$3,$4,$5,$6,$7,$8,$9,$2,$3,0*
0 Add four circle primitives for the rounded corners*
1,1,$1+$1,$2,$3*
1,1,$1+$1,$4,$5*
1,1,$1+$1,$6,$7*
1,1,$1+$1,$8,$9*
0 Add four rect primitives between the rounded corners*
20,1,$1+$1,$2,$3,$4,$5,0*
20,1,$1+$1,$4,$5,$6,$7,0*
20,1,$1+$1,$6,$7,$8,$9,0*
20,1,$1+$1,$8,$9,$2,$3,0*%
G04 Aperture macros list end*
%ADD10C,0.000000*%
%ADD11RoundRect,0.337500X-0.337500X0.367500X-0.337500X-0.367500X0.337500X-0.367500X0.337500X0.367500X0*%
%ADD12RoundRect,0.201625X-0.201625X-0.230375X0.201625X-0.230375X0.201625X0.230375X-0.201625X0.230375X0*%
%ADD13RoundRect,0.337500X0.337500X-0.367500X0.337500X0.367500X-0.337500X0.367500X-0.337500X-0.367500X0*%
%ADD14O,2.038000X0.574000*%
%ADD15R,2.000000X2.000000*%
%ADD16RoundRect,0.337500X0.367500X0.337500X-0.367500X0.337500X-0.367500X-0.337500X0.367500X-0.337500X0*%
%ADD17RoundRect,0.283125X-0.283125X-0.405375X0.283125X-0.405375X0.283125X0.405375X-0.283125X0.405375X0*%
%ADD18RoundRect,0.200000X-0.200000X-0.250000X0.200000X-0.250000X0.200000X0.250000X-0.200000X0.250000X0*%
%ADD19RoundRect,0.200000X0.200000X0.250000X-0.200000X0.250000X-0.200000X-0.250000X0.200000X-0.250000X0*%
%ADD20RoundRect,0.283125X0.405375X-0.283125X0.405375X0.283125X-0.405375X0.283125X-0.405375X-0.283125X0*%
%ADD21RoundRect,0.133000X0.403000X-0.133000X0.403000X0.133000X-0.403000X0.133000X-0.403000X-0.133000X0*%
%ADD22RoundRect,0.201625X-0.230375X0.201625X-0.230375X-0.201625X0.230375X-0.201625X0.230375X0.201625X0*%
%ADD23RoundRect,1.025000X-1.025000X-1.025000X1.025000X-1.025000X1.025000X1.025000X-1.025000X1.025000X0*%
%ADD24RoundRect,0.731000X-0.979000X0.731000X-0.979000X-0.731000X0.979000X-0.731000X0.979000X0.731000X0*%
%ADD25RoundRect,0.283125X0.283125X0.405375X-0.283125X0.405375X-0.283125X-0.405375X0.283125X-0.405375X0*%
%ADD26RoundRect,0.371250X0.492750X-0.371250X0.492750X0.371250X-0.492750X0.371250X-0.492750X-0.371250X0*%
%ADD27RoundRect,0.201625X0.230375X-0.201625X0.230375X0.201625X-0.230375X0.201625X-0.230375X-0.201625X0*%
%ADD28RoundRect,0.200000X0.250000X-0.200000X0.250000X0.200000X-0.250000X0.200000X-0.250000X-0.200000X0*%
G04 APERTURE END LIST*
D10*
%TO.C,C6*%
G36*
X79657900Y-80666100D02*
G01*
X79657900Y-81816100D01*
X79607900Y-81866100D01*
X79197900Y-81871100D01*
X79197900Y-81421100D01*
X78747900Y-81421100D01*
X78747900Y-81861100D01*
X78327900Y-81866100D01*
X78277900Y-81816100D01*
X78277900Y-80666100D01*
X78327900Y-80616100D01*
X79607900Y-80616100D01*
X79657900Y-80666100D01*
G37*
G36*
X78747900Y-83211100D02*
G01*
X79197900Y-83211100D01*
X79197900Y-82771100D01*
X79607900Y-82766100D01*
X79657900Y-82816100D01*
X79657900Y-83966100D01*
X79607900Y-84016100D01*
X78327900Y-84016100D01*
X78277900Y-83966100D01*
X78277900Y-82816100D01*
X78327900Y-82766100D01*
X78747900Y-82766100D01*
X78747900Y-83211100D01*
G37*
%TO.C,R7*%
G36*
X103109400Y-78592100D02*
G01*
X103109400Y-78820100D01*
X102729400Y-78820100D01*
X102729400Y-79150100D01*
X103109400Y-79150100D01*
X103109400Y-79392100D01*
X103059400Y-79442100D01*
X102269400Y-79442100D01*
X102219400Y-79392100D01*
X102219400Y-78592100D01*
X102269400Y-78542100D01*
X103059400Y-78542100D01*
X103109400Y-78592100D01*
G37*
G36*
X104709400Y-78592100D02*
G01*
X104709400Y-79392100D01*
X104659400Y-79442100D01*
X103859400Y-79442100D01*
X103809400Y-79392100D01*
X103809400Y-79150100D01*
X104179400Y-79150100D01*
X104179400Y-78820100D01*
X103809400Y-78820100D01*
X103809400Y-78592100D01*
X103859400Y-78542100D01*
X104659400Y-78542100D01*
X104709400Y-78592100D01*
G37*
%TO.C,C3*%
G36*
X82494400Y-87206323D02*
G01*
X82494400Y-88356323D01*
X82444400Y-88406323D01*
X82034400Y-88411323D01*
X82034400Y-87961323D01*
X81584400Y-87961323D01*
X81584400Y-88401323D01*
X81164400Y-88406323D01*
X81114400Y-88356323D01*
X81114400Y-87206323D01*
X81164400Y-87156323D01*
X82444400Y-87156323D01*
X82494400Y-87206323D01*
G37*
G36*
X81584400Y-89751323D02*
G01*
X82034400Y-89751323D01*
X82034400Y-89311323D01*
X82444400Y-89306323D01*
X82494400Y-89356323D01*
X82494400Y-90506323D01*
X82444400Y-90556323D01*
X81164400Y-90556323D01*
X81114400Y-90506323D01*
X81114400Y-89356323D01*
X81164400Y-89306323D01*
X81584400Y-89306323D01*
X81584400Y-89751323D01*
G37*
%TO.C,C12*%
G36*
X101180400Y-80497300D02*
G01*
X101180400Y-81647300D01*
X101130400Y-81697300D01*
X100710400Y-81697300D01*
X100710400Y-81252300D01*
X100260400Y-81252300D01*
X100260400Y-81692300D01*
X99850400Y-81697300D01*
X99800400Y-81647300D01*
X99800400Y-80497300D01*
X99850400Y-80447300D01*
X101130400Y-80447300D01*
X101180400Y-80497300D01*
G37*
G36*
X100260400Y-83042300D02*
G01*
X100710400Y-83042300D01*
X100710400Y-82602300D01*
X101130400Y-82597300D01*
X101180400Y-82647300D01*
X101180400Y-83797300D01*
X101130400Y-83847300D01*
X99850400Y-83847300D01*
X99800400Y-83797300D01*
X99800400Y-82647300D01*
X99850400Y-82597300D01*
X100260400Y-82592300D01*
X100260400Y-83042300D01*
G37*
%TO.C,C15*%
G36*
X117389400Y-93624516D02*
G01*
X117389400Y-94044516D01*
X116944400Y-94044516D01*
X116944400Y-94494516D01*
X117384400Y-94494516D01*
X117389400Y-94904516D01*
X117339400Y-94954516D01*
X116189400Y-94954516D01*
X116139400Y-94904516D01*
X116139400Y-93624516D01*
X116189400Y-93574516D01*
X117339400Y-93574516D01*
X117389400Y-93624516D01*
G37*
G36*
X119539400Y-93624516D02*
G01*
X119539400Y-94904516D01*
X119489400Y-94954516D01*
X118339400Y-94954516D01*
X118289400Y-94904516D01*
X118284400Y-94494516D01*
X118734400Y-94494516D01*
X118734400Y-94044516D01*
X118294400Y-94044516D01*
X118289400Y-93624516D01*
X118339400Y-93574516D01*
X119489400Y-93574516D01*
X119539400Y-93624516D01*
G37*
%TO.C,R4*%
G36*
X84947900Y-98874100D02*
G01*
X84952900Y-99284100D01*
X84502900Y-99284100D01*
X84502900Y-99734100D01*
X84942900Y-99734100D01*
X84947900Y-100154100D01*
X84897900Y-100204100D01*
X83747900Y-100204100D01*
X83697900Y-100154100D01*
X83697900Y-98874100D01*
X83747900Y-98824100D01*
X84897900Y-98824100D01*
X84947900Y-98874100D01*
G37*
G36*
X87097900Y-98874100D02*
G01*
X87097900Y-100154100D01*
X87047900Y-100204100D01*
X85897900Y-100204100D01*
X85847900Y-100154100D01*
X85847900Y-99734100D01*
X86292900Y-99734100D01*
X86292900Y-99284100D01*
X85852900Y-99284100D01*
X85847900Y-98874100D01*
X85897900Y-98824100D01*
X87047900Y-98824100D01*
X87097900Y-98874100D01*
G37*
%TO.C,R2*%
G36*
X74530900Y-95959100D02*
G01*
X74530900Y-97109100D01*
X74480900Y-97159100D01*
X74060900Y-97159100D01*
X74060900Y-96714100D01*
X73610900Y-96714100D01*
X73610900Y-97154100D01*
X73200900Y-97159100D01*
X73150900Y-97109100D01*
X73150900Y-95959100D01*
X73200900Y-95909100D01*
X74480900Y-95909100D01*
X74530900Y-95959100D01*
G37*
G36*
X73610900Y-98504100D02*
G01*
X74060900Y-98504100D01*
X74060900Y-98064100D01*
X74480900Y-98059100D01*
X74530900Y-98109100D01*
X74530900Y-99259100D01*
X74480900Y-99309100D01*
X73200900Y-99309100D01*
X73150900Y-99259100D01*
X73150900Y-98109100D01*
X73200900Y-98059100D01*
X73610900Y-98054100D01*
X73610900Y-98504100D01*
G37*
%TO.C,C11*%
G36*
X99134400Y-80517100D02*
G01*
X99134400Y-81667100D01*
X99084400Y-81717100D01*
X98664400Y-81717100D01*
X98664400Y-81272100D01*
X98214400Y-81272100D01*
X98214400Y-81712100D01*
X97804400Y-81717100D01*
X97754400Y-81667100D01*
X97754400Y-80517100D01*
X97804400Y-80467100D01*
X99084400Y-80467100D01*
X99134400Y-80517100D01*
G37*
G36*
X98214400Y-83062100D02*
G01*
X98664400Y-83062100D01*
X98664400Y-82622100D01*
X99084400Y-82617100D01*
X99134400Y-82667100D01*
X99134400Y-83817100D01*
X99084400Y-83867100D01*
X97804400Y-83867100D01*
X97754400Y-83817100D01*
X97754400Y-82667100D01*
X97804400Y-82617100D01*
X98214400Y-82612100D01*
X98214400Y-83062100D01*
G37*
%TO.C,C8*%
G36*
X83721900Y-80666100D02*
G01*
X83721900Y-81816100D01*
X83671900Y-81866100D01*
X83261900Y-81871100D01*
X83261900Y-81421100D01*
X82811900Y-81421100D01*
X82811900Y-81861100D01*
X82391900Y-81866100D01*
X82341900Y-81816100D01*
X82341900Y-80666100D01*
X82391900Y-80616100D01*
X83671900Y-80616100D01*
X83721900Y-80666100D01*
G37*
G36*
X82811900Y-83211100D02*
G01*
X83261900Y-83211100D01*
X83261900Y-82771100D01*
X83671900Y-82766100D01*
X83721900Y-82816100D01*
X83721900Y-83966100D01*
X83671900Y-84016100D01*
X82391900Y-84016100D01*
X82341900Y-83966100D01*
X82341900Y-82816100D01*
X82391900Y-82766100D01*
X82811900Y-82766100D01*
X82811900Y-83211100D01*
G37*
%TO.C,R8*%
G36*
X111094400Y-79408100D02*
G01*
X111094400Y-80198100D01*
X111044400Y-80248100D01*
X110816400Y-80248100D01*
X110816400Y-79868100D01*
X110486400Y-79868100D01*
X110486400Y-80248100D01*
X110244400Y-80248100D01*
X110194400Y-80198100D01*
X110194400Y-79408100D01*
X110244400Y-79358100D01*
X111044400Y-79358100D01*
X111094400Y-79408100D01*
G37*
G36*
X110486400Y-81318100D02*
G01*
X110816400Y-81318100D01*
X110816400Y-80948100D01*
X111044400Y-80948100D01*
X111094400Y-80998100D01*
X111094400Y-81798100D01*
X111044400Y-81848100D01*
X110244400Y-81848100D01*
X110194400Y-81798100D01*
X110194400Y-80998100D01*
X110244400Y-80948100D01*
X110486400Y-80948100D01*
X110486400Y-81318100D01*
G37*
%TO.C,C16*%
G36*
X117389400Y-91472100D02*
G01*
X117389400Y-91892100D01*
X116944400Y-91892100D01*
X116944400Y-92342100D01*
X117384400Y-92342100D01*
X117389400Y-92752100D01*
X117339400Y-92802100D01*
X116189400Y-92802100D01*
X116139400Y-92752100D01*
X116139400Y-91472100D01*
X116189400Y-91422100D01*
X117339400Y-91422100D01*
X117389400Y-91472100D01*
G37*
G36*
X119539400Y-91472100D02*
G01*
X119539400Y-92752100D01*
X119489400Y-92802100D01*
X118339400Y-92802100D01*
X118289400Y-92752100D01*
X118284400Y-92342100D01*
X118734400Y-92342100D01*
X118734400Y-91892100D01*
X118294400Y-91892100D01*
X118289400Y-91472100D01*
X118339400Y-91422100D01*
X119489400Y-91422100D01*
X119539400Y-91472100D01*
G37*
%TO.C,C9*%
G36*
X85774400Y-80667100D02*
G01*
X85774400Y-81817100D01*
X85724400Y-81867100D01*
X85314400Y-81872100D01*
X85314400Y-81422100D01*
X84864400Y-81422100D01*
X84864400Y-81862100D01*
X84444400Y-81867100D01*
X84394400Y-81817100D01*
X84394400Y-80667100D01*
X84444400Y-80617100D01*
X85724400Y-80617100D01*
X85774400Y-80667100D01*
G37*
G36*
X84864400Y-83212100D02*
G01*
X85314400Y-83212100D01*
X85314400Y-82772100D01*
X85724400Y-82767100D01*
X85774400Y-82817100D01*
X85774400Y-83967100D01*
X85724400Y-84017100D01*
X84444400Y-84017100D01*
X84394400Y-83967100D01*
X84394400Y-82817100D01*
X84444400Y-82767100D01*
X84864400Y-82767100D01*
X84864400Y-83212100D01*
G37*
%TO.C,C7*%
G36*
X81689900Y-80666100D02*
G01*
X81689900Y-81816100D01*
X81639900Y-81866100D01*
X81229900Y-81871100D01*
X81229900Y-81421100D01*
X80779900Y-81421100D01*
X80779900Y-81861100D01*
X80359900Y-81866100D01*
X80309900Y-81816100D01*
X80309900Y-80666100D01*
X80359900Y-80616100D01*
X81639900Y-80616100D01*
X81689900Y-80666100D01*
G37*
G36*
X80779900Y-83211100D02*
G01*
X81229900Y-83211100D01*
X81229900Y-82771100D01*
X81639900Y-82766100D01*
X81689900Y-82816100D01*
X81689900Y-83966100D01*
X81639900Y-84016100D01*
X80359900Y-84016100D01*
X80309900Y-83966100D01*
X80309900Y-82816100D01*
X80359900Y-82766100D01*
X80779900Y-82766100D01*
X80779900Y-83211100D01*
G37*
%TO.C,R5*%
G36*
X84947900Y-96715100D02*
G01*
X84947900Y-97135100D01*
X84502900Y-97135100D01*
X84502900Y-97585100D01*
X84942900Y-97585100D01*
X84947900Y-97995100D01*
X84897900Y-98045100D01*
X83747900Y-98045100D01*
X83697900Y-97995100D01*
X83697900Y-96715100D01*
X83747900Y-96665100D01*
X84897900Y-96665100D01*
X84947900Y-96715100D01*
G37*
G36*
X87097900Y-96715100D02*
G01*
X87097900Y-97995100D01*
X87047900Y-98045100D01*
X85897900Y-98045100D01*
X85847900Y-97995100D01*
X85842900Y-97585100D01*
X86292900Y-97585100D01*
X86292900Y-97135100D01*
X85852900Y-97135100D01*
X85847900Y-96715100D01*
X85897900Y-96665100D01*
X87047900Y-96665100D01*
X87097900Y-96715100D01*
G37*
%TO.C,C2*%
G36*
X85093900Y-86088323D02*
G01*
X85093900Y-87373323D01*
X84993900Y-87473323D01*
X84623900Y-87473323D01*
X84523900Y-87373323D01*
X84523900Y-87068323D01*
X84423900Y-86968323D01*
X84035900Y-86968323D01*
X83935900Y-87068323D01*
X83935900Y-87373323D01*
X83835900Y-87473323D01*
X83465900Y-87473323D01*
X83365900Y-87373323D01*
X83365900Y-86088323D01*
X83465900Y-85988323D01*
X84993900Y-85988323D01*
X85093900Y-86088323D01*
G37*
G36*
X83935900Y-89273323D02*
G01*
X83935900Y-89578323D01*
X84035900Y-89678323D01*
X84423900Y-89678323D01*
X84523900Y-89578323D01*
X84523900Y-89273323D01*
X84623900Y-89173323D01*
X84993900Y-89173323D01*
X85093900Y-89273323D01*
X85093900Y-90558323D01*
X84993900Y-90658323D01*
X83465900Y-90658323D01*
X83365900Y-90558323D01*
X83365900Y-89273323D01*
X83465900Y-89173323D01*
X83835900Y-89173323D01*
X83935900Y-89273323D01*
G37*
%TO.C,C1*%
G36*
X87728400Y-86088323D02*
G01*
X87728400Y-87373323D01*
X87628400Y-87473323D01*
X87258400Y-87473323D01*
X87158400Y-87373323D01*
X87158400Y-87068323D01*
X87058400Y-86968323D01*
X86670400Y-86968323D01*
X86570400Y-87068323D01*
X86570400Y-87373323D01*
X86470400Y-87473323D01*
X86100400Y-87473323D01*
X86000400Y-87373323D01*
X86000400Y-86088323D01*
X86100400Y-85988323D01*
X87628400Y-85988323D01*
X87728400Y-86088323D01*
G37*
G36*
X86570400Y-89273323D02*
G01*
X86570400Y-89578323D01*
X86670400Y-89678323D01*
X87058400Y-89678323D01*
X87158400Y-89578323D01*
X87158400Y-89273323D01*
X87258400Y-89173323D01*
X87628400Y-89173323D01*
X87728400Y-89273323D01*
X87728400Y-90558323D01*
X87628400Y-90658323D01*
X86100400Y-90658323D01*
X86000400Y-90558323D01*
X86000400Y-89273323D01*
X86100400Y-89173323D01*
X86470400Y-89173323D01*
X86570400Y-89273323D01*
G37*
%TO.C,R9*%
G36*
X109189400Y-79408100D02*
G01*
X109189400Y-80208100D01*
X109139400Y-80258100D01*
X108897400Y-80258100D01*
X108897400Y-79888100D01*
X108567400Y-79888100D01*
X108567400Y-80258100D01*
X108339400Y-80258100D01*
X108289400Y-80208100D01*
X108289400Y-79408100D01*
X108339400Y-79358100D01*
X109139400Y-79358100D01*
X109189400Y-79408100D01*
G37*
G36*
X108567400Y-81338100D02*
G01*
X108897400Y-81338100D01*
X108897400Y-80958100D01*
X109139400Y-80958100D01*
X109189400Y-81008100D01*
X109189400Y-81798100D01*
X109139400Y-81848100D01*
X108339400Y-81848100D01*
X108289400Y-81798100D01*
X108289400Y-81008100D01*
X108339400Y-80958100D01*
X108567400Y-80958100D01*
X108567400Y-81338100D01*
G37*
%TO.C,C10*%
G36*
X87874400Y-80667100D02*
G01*
X87874400Y-81817100D01*
X87824400Y-81867100D01*
X87414400Y-81872100D01*
X87414400Y-81422100D01*
X86964400Y-81422100D01*
X86964400Y-81862100D01*
X86544400Y-81867100D01*
X86494400Y-81817100D01*
X86494400Y-80667100D01*
X86544400Y-80617100D01*
X87824400Y-80617100D01*
X87874400Y-80667100D01*
G37*
G36*
X86964400Y-83212100D02*
G01*
X87414400Y-83212100D01*
X87414400Y-82772100D01*
X87824400Y-82767100D01*
X87874400Y-82817100D01*
X87874400Y-83967100D01*
X87824400Y-84017100D01*
X86544400Y-84017100D01*
X86494400Y-83967100D01*
X86494400Y-82817100D01*
X86544400Y-82767100D01*
X86964400Y-82767100D01*
X86964400Y-83212100D01*
G37*
%TO.C,R3*%
G36*
X84947900Y-92651100D02*
G01*
X84947900Y-93071100D01*
X84502900Y-93071100D01*
X84502900Y-93521100D01*
X84942900Y-93521100D01*
X84947900Y-93931100D01*
X84897900Y-93981100D01*
X83747900Y-93981100D01*
X83697900Y-93931100D01*
X83697900Y-92651100D01*
X83747900Y-92601100D01*
X84897900Y-92601100D01*
X84947900Y-92651100D01*
G37*
G36*
X87097900Y-92651100D02*
G01*
X87097900Y-93931100D01*
X87047900Y-93981100D01*
X85897900Y-93981100D01*
X85847900Y-93931100D01*
X85842900Y-93521100D01*
X86292900Y-93521100D01*
X86292900Y-93071100D01*
X85852900Y-93071100D01*
X85847900Y-92651100D01*
X85897900Y-92601100D01*
X87047900Y-92601100D01*
X87097900Y-92651100D01*
G37*
%TO.C,C17*%
G36*
X117389400Y-89272100D02*
G01*
X117389400Y-89692100D01*
X116944400Y-89692100D01*
X116944400Y-90142100D01*
X117384400Y-90142100D01*
X117389400Y-90552100D01*
X117339400Y-90602100D01*
X116189400Y-90602100D01*
X116139400Y-90552100D01*
X116139400Y-89272100D01*
X116189400Y-89222100D01*
X117339400Y-89222100D01*
X117389400Y-89272100D01*
G37*
G36*
X119539400Y-89272100D02*
G01*
X119539400Y-90552100D01*
X119489400Y-90602100D01*
X118339400Y-90602100D01*
X118289400Y-90552100D01*
X118284400Y-90142100D01*
X118734400Y-90142100D01*
X118734400Y-89692100D01*
X118294400Y-89692100D01*
X118289400Y-89272100D01*
X118339400Y-89222100D01*
X119489400Y-89222100D01*
X119539400Y-89272100D01*
G37*
%TO.C,R1*%
G36*
X89516900Y-94689100D02*
G01*
X89516900Y-95839100D01*
X89466900Y-95889100D01*
X89046900Y-95889100D01*
X89046900Y-95444100D01*
X88596900Y-95444100D01*
X88596900Y-95884100D01*
X88186900Y-95889100D01*
X88136900Y-95839100D01*
X88136900Y-94689100D01*
X88186900Y-94639100D01*
X89466900Y-94639100D01*
X89516900Y-94689100D01*
G37*
G36*
X88596900Y-97234100D02*
G01*
X89046900Y-97234100D01*
X89046900Y-96794100D01*
X89466900Y-96789100D01*
X89516900Y-96839100D01*
X89516900Y-97989100D01*
X89466900Y-98039100D01*
X88186900Y-98039100D01*
X88136900Y-97989100D01*
X88136900Y-96839100D01*
X88186900Y-96789100D01*
X88596900Y-96784100D01*
X88596900Y-97234100D01*
G37*
%TO.C,C4*%
G36*
X85049900Y-94703100D02*
G01*
X85049900Y-95123100D01*
X84604900Y-95123100D01*
X84604900Y-95573100D01*
X85044900Y-95573100D01*
X85049900Y-95983100D01*
X84999900Y-96033100D01*
X83849900Y-96033100D01*
X83799900Y-95983100D01*
X83799900Y-94703100D01*
X83849900Y-94653100D01*
X84999900Y-94653100D01*
X85049900Y-94703100D01*
G37*
G36*
X87199900Y-94703100D02*
G01*
X87199900Y-95983100D01*
X87149900Y-96033100D01*
X85999900Y-96033100D01*
X85949900Y-95983100D01*
X85944900Y-95573100D01*
X86394900Y-95573100D01*
X86394900Y-95123100D01*
X85954900Y-95123100D01*
X85949900Y-94703100D01*
X85999900Y-94653100D01*
X87149900Y-94653100D01*
X87199900Y-94703100D01*
G37*
%TO.C,C5*%
G36*
X74550900Y-92047100D02*
G01*
X74550900Y-93197100D01*
X74500900Y-93247100D01*
X74090900Y-93252100D01*
X74090900Y-92802100D01*
X73640900Y-92802100D01*
X73640900Y-93242100D01*
X73220900Y-93247100D01*
X73170900Y-93197100D01*
X73170900Y-92047100D01*
X73220900Y-91997100D01*
X74500900Y-91997100D01*
X74550900Y-92047100D01*
G37*
G36*
X73640900Y-94592100D02*
G01*
X74090900Y-94592100D01*
X74090900Y-94152100D01*
X74500900Y-94147100D01*
X74550900Y-94197100D01*
X74550900Y-95347100D01*
X74500900Y-95397100D01*
X73220900Y-95397100D01*
X73170900Y-95347100D01*
X73170900Y-94197100D01*
X73220900Y-94147100D01*
X73640900Y-94147100D01*
X73640900Y-94592100D01*
G37*
%TD*%
D11*
%TO.C,C6*%
X78947900Y-81291100D03*
X78947900Y-83291100D03*
%TD*%
D12*
%TO.C,R7*%
X102710900Y-78992100D03*
X104217900Y-78992100D03*
%TD*%
D11*
%TO.C,C3*%
X81784400Y-87831323D03*
X81784400Y-89831323D03*
%TD*%
D13*
%TO.C,C12*%
X100510400Y-83172300D03*
X100510400Y-81172300D03*
%TD*%
D14*
%TO.C,U1*%
X76278900Y-93164100D03*
X76278900Y-94434100D03*
X76278900Y-95704100D03*
X76278900Y-96974100D03*
X81816900Y-96974100D03*
X81816900Y-95704100D03*
X81816900Y-94434100D03*
X81816900Y-93164100D03*
D15*
X79047900Y-95069100D03*
%TD*%
D16*
%TO.C,C15*%
X118864400Y-94244516D03*
X116864400Y-94244516D03*
%TD*%
D17*
%TO.C,R4*%
X84397900Y-99514100D03*
X86397900Y-99514100D03*
%TD*%
D18*
%TO.C,C14*%
X104610400Y-84286100D03*
X106010400Y-84286100D03*
%TD*%
D19*
%TO.C,C18*%
X118564400Y-87892100D03*
X117164400Y-87892100D03*
%TD*%
D20*
%TO.C,R2*%
X73840900Y-98609100D03*
X73840900Y-96609100D03*
%TD*%
D21*
%TO.C,U2*%
X106713400Y-82442100D03*
X106713400Y-81492100D03*
X106713400Y-80542100D03*
X104415400Y-80542100D03*
X104415400Y-81492100D03*
X104415400Y-82442100D03*
%TD*%
D13*
%TO.C,C11*%
X98464400Y-83192100D03*
X98464400Y-81192100D03*
%TD*%
D11*
%TO.C,C8*%
X83011900Y-81291100D03*
X83011900Y-83291100D03*
%TD*%
D22*
%TO.C,R8*%
X110644400Y-79849600D03*
X110644400Y-81356600D03*
%TD*%
D16*
%TO.C,C16*%
X118864400Y-92092100D03*
X116864400Y-92092100D03*
%TD*%
D11*
%TO.C,C9*%
X85064400Y-81292100D03*
X85064400Y-83292100D03*
%TD*%
D23*
%TO.C,L2*%
X102914400Y-91242100D03*
X112414400Y-91242100D03*
%TD*%
D11*
%TO.C,C7*%
X80979900Y-81291100D03*
X80979900Y-83291100D03*
%TD*%
D24*
%TO.C,L1*%
X71808900Y-89941100D03*
X71808900Y-80385100D03*
%TD*%
D25*
%TO.C,R5*%
X86397900Y-97355100D03*
X84397900Y-97355100D03*
%TD*%
D26*
%TO.C,C2*%
X84229900Y-89915823D03*
X84229900Y-86730823D03*
%TD*%
%TO.C,C1*%
X86864400Y-89915823D03*
X86864400Y-86730823D03*
%TD*%
D27*
%TO.C,R9*%
X108739400Y-81356600D03*
X108739400Y-79849600D03*
%TD*%
D28*
%TO.C,C13*%
X102421800Y-82892100D03*
X102421800Y-81492100D03*
%TD*%
D11*
%TO.C,C10*%
X87164400Y-81292100D03*
X87164400Y-83292100D03*
%TD*%
D25*
%TO.C,R3*%
X86397900Y-93291100D03*
X84397900Y-93291100D03*
%TD*%
D16*
%TO.C,C17*%
X118864400Y-89892100D03*
X116864400Y-89892100D03*
%TD*%
D20*
%TO.C,R1*%
X88826900Y-97339100D03*
X88826900Y-95339100D03*
%TD*%
D16*
%TO.C,C4*%
X86524900Y-95323100D03*
X84524900Y-95323100D03*
%TD*%
D11*
%TO.C,C5*%
X73840900Y-92672100D03*
X73840900Y-94672100D03*
%TD*%
M02*
